<svg version="1.2" xmlns="http://www.w3.org/2000/svg" viewBox="0 0 32 32" width="32" height="32">
	<title>download-svg</title>
	<style>
		.s0 { fill: #b8b8b8 } 
	</style>
	<path id="Layer" fill-rule="evenodd" class="s0" d="m32 16c0 8.8-7.2 16-16 16-8.8 0-16-7.2-16-16 0-8.8 7.2-16 16-16 8.8 0 16 7.2 16 16zm-31 0c0 8.3 6.7 15 15 15 8.3 0 15-6.7 15-15 0-8.3-6.7-15-15-15-8.3 0-15 6.7-15 15z"/>
	<path id="Layer" class="s0" d="m21.5 17.3l-5 5.3c-0.5 0.5-1 0.7-1.5 0l-5-5.3c-0.4-0.4-0.2-0.8 0.4-0.8h3.2v-6.8c0-0.4 0.3-0.7 0.7-0.7h3.2c0.4 0 0.7 0.3 0.7 0.7v6.8h3.2c0.6 0 0.8 0.3 0.1 0.8z"/>
</svg>
