<svg xmlns="http://www.w3.org/2000/svg" width="21" height="21" viewBox="0 0 21 21">
  <g id="mini" transform="translate(1963.661 2402.21)">
    <path id="full_screen" data-name="full screen" d="M-1955.786-2395.125v-6.21a.875.875,0,0,0-.875-.875h0a.875.875,0,0,0-.875.875h0v4.46a.79.79,0,0,1-.79.79h-4.46a.875.875,0,0,0-.875.875h0a.874.874,0,0,0,.875.875h6.21a.79.79,0,0,0,.79-.79Zm13.124-.085h0a.875.875,0,0,0-.875-.875H-1948a.789.789,0,0,1-.79-.79h0v-4.46a.875.875,0,0,0-.875-.875h0a.875.875,0,0,0-.875.875h0v6.21a.789.789,0,0,0,.79.79h6.21A.875.875,0,0,0-1942.662-2395.21Zm-13.124,13.125v-6.209a.791.791,0,0,0-.79-.791h-6.21a.875.875,0,0,0-.875.875h0a.874.874,0,0,0,.875.875h4.46a.791.791,0,0,1,.79.791h0v4.459a.874.874,0,0,0,.875.875h0a.875.875,0,0,0,.875-.875Zm7,0v-4.459a.79.79,0,0,1,.79-.791h4.46a.875.875,0,0,0,.875-.875h0a.875.875,0,0,0-.875-.875h-6.21a.79.79,0,0,0-.79.791h0v6.209a.874.874,0,0,0,.875.875h0a.875.875,0,0,0,.875-.875Z" fill="#fff" opacity="0.9" style="isolation: isolate"/>
  </g>
</svg>
