<svg xmlns="http://www.w3.org/2000/svg" width="17.712" height="15.515" viewBox="0 0 17.712 15.515">
  <g id="Speeker_-_low" data-name="Speeker - low" transform="translate(-425.154 -228.361)">
    <path id="Path_94283" data-name="Path 94283" d="M11.509,7.758q0,3.325,0,6.65a1.02,1.02,0,0,1-.932,1.1,1.1,1.1,0,0,1-.844-.274Q7,13.063,4.273,10.893a.616.616,0,0,0-.422-.15c-.9.007-1.8,0-2.7,0A1.031,1.031,0,0,1,0,9.638Q0,7.757,0,5.873A1.042,1.042,0,0,1,1.175,4.759c.9,0,1.8,0,2.693,0a.561.561,0,0,0,.384-.129Q6.979,2.459,9.712.294A1.093,1.093,0,0,1,10.9.1a1.007,1.007,0,0,1,.612,1.013Q11.5,4.434,11.509,7.758Z" transform="translate(425.154 228.361)" fill="#15bf81"/>
    <path id="Path_94284" data-name="Path 94284" d="M3.864,5.124A7.624,7.624,0,0,1,2.24,9.981a1.09,1.09,0,0,1-1.447.267,1.011,1.011,0,0,1-.44-1.454A6.478,6.478,0,0,0,1.3,7.061,5.363,5.363,0,0,0,.323,1.844a1.033,1.033,0,0,1-.3-.909,1.187,1.187,0,0,1,.908-.9A1.074,1.074,0,0,1,2.08.468,7.634,7.634,0,0,1,3.739,3.942,6.3,6.3,0,0,1,3.864,5.124Z" transform="translate(439.002 230.787)" fill="#15bf81"/>
  </g>
</svg>
