<svg xmlns="http://www.w3.org/2000/svg" xmlns:xlink="http://www.w3.org/1999/xlink" width="595.22" height="494.215" viewBox="0 0 595.22 494.215">
  <defs>
    <linearGradient id="linear-gradient" x1="0.5" y1="-0.227" x2="0.5" y2="0.559" gradientUnits="objectBoundingBox">
      <stop offset="0" stop-color="#e5e5e5"/>
      <stop offset="0.476" stop-color="#f3f3f3"/>
      <stop offset="1" stop-color="#fff"/>
    </linearGradient>
  </defs>
  <g id="Group_38572" data-name="Group 38572" transform="translate(0 0)">
    <g id="Group_35112" data-name="Group 35112" transform="translate(-0.001 231.208)">
      <path id="Path_81690" data-name="Path 81690" d="M1774.907,910.345a4.136,4.136,0,0,0-8.172,1.278c.594,3.852,1.349,15.92-2.815,20.775a5.558,5.558,0,0,1-3.357,1.93l.379-22.983a5.978,5.978,0,1,0-11.953.049l1.08,43.617a5.58,5.58,0,0,1-3.5-1.949c-4.165-4.856-3.409-16.923-2.816-20.775a4.135,4.135,0,1,0-8.171-1.278c-.3,1.9-2.687,18.795,4.7,27.425a14,14,0,0,0,9.994,4.913l.47,18.985h9.025l.655-39.665a13.974,13.974,0,0,0,9.783-4.9C1777.595,929.14,1775.2,912.243,1774.907,910.345Z" transform="translate(-1285.019 -905.268)" fill="#bdbdbd"/>
      <path id="Path_81691" data-name="Path 81691" d="M1212.759,965.825a2.636,2.636,0,1,0-5.209.815c.378,2.455.859,10.148-1.8,13.243a3.544,3.544,0,0,1-2.14,1.231l.242-14.651a3.811,3.811,0,1,0-7.62.032l.689,27.8a3.552,3.552,0,0,1-2.23-1.242c-2.655-3.1-2.173-10.788-1.8-13.244a2.636,2.636,0,1,0-5.208-.815c-.19,1.21-1.714,11.982,2.994,17.483a8.925,8.925,0,0,0,6.371,3.131l.3,12.1h5.753l.417-25.285a8.914,8.914,0,0,0,6.237-3.122C1214.473,977.806,1212.949,967.035,1212.759,965.825Z" transform="translate(-1108.202 -923.774)" fill="#bdbdbd"/>
      <ellipse id="Ellipse_4177" data-name="Ellipse 4177" cx="297.61" cy="105.36" rx="297.61" ry="105.36" transform="translate(0 52.288)" fill="url(#linear-gradient)"/>
    </g>
    <g id="Group_35147" data-name="Group 35147" transform="translate(101.541 0)">
      <g id="Group_35139" data-name="Group 35139">
        <path id="Path_81726" data-name="Path 81726" d="M2914.139,1605.42a.611.611,0,0,0-.837-.215l-2.03,1.2-1.2-2.029a.611.611,0,0,0-1.053.622l1.2,2.03-2.029,1.2a.611.611,0,1,0,.621,1.053l2.03-1.2,1.2,2.03a.611.611,0,0,0,1.053-.622l-1.2-2.03,2.03-1.2A.612.612,0,0,0,2914.139,1605.42Z" transform="translate(-2612.246 -1363.678)" fill="#dedede"/>
        <path id="Path_81727" data-name="Path 81727" d="M2944.821,1646.506a2.664,2.664,0,1,1,2.664-2.664A2.667,2.667,0,0,1,2944.821,1646.506Zm0-3.9a1.24,1.24,0,1,0,1.24,1.24A1.242,1.242,0,0,0,2944.821,1642.6Z" transform="translate(-2637.783 -1391.328)" fill="#dedede"/>
        <path id="Path_81728" data-name="Path 81728" d="M1888.587,1799.985a2.664,2.664,0,1,1,2.664-2.664A2.667,2.667,0,0,1,1888.587,1799.985Zm0-3.9a1.24,1.24,0,1,0,1.24,1.24A1.242,1.242,0,0,0,1888.587,1796.081Z" transform="translate(-1850.664 -1505.703)" fill="#dedede"/>
        <path id="Path_81729" data-name="Path 81729" d="M3046.63,675.449a2.664,2.664,0,1,1,2.664-2.664A2.667,2.667,0,0,1,3046.63,675.449Zm0-3.9a1.24,1.24,0,1,0,1.241,1.24A1.241,1.241,0,0,0,3046.63,671.545Z" transform="translate(-2713.652 -667.685)" fill="#dedede"/>
        <path id="Path_81730" data-name="Path 81730" d="M3228.423,955.7a.612.612,0,0,0-.282.818l1.033,2.119-2.119,1.032a.611.611,0,1,0,.535,1.1l2.12-1.033,1.032,2.119a.612.612,0,1,0,1.1-.536l-1.033-2.119,2.119-1.033a.612.612,0,0,0-.536-1.1l-2.12,1.032-1.032-2.119A.613.613,0,0,0,3228.423,955.7Z" transform="translate(-2849.836 -880.455)" fill="#dedede"/>
        <path id="Path_81731" data-name="Path 81731" d="M3074.551,1139.314a2.664,2.664,0,1,1,2.664-2.664A2.667,2.667,0,0,1,3074.551,1139.314Zm0-3.9a1.24,1.24,0,1,0,1.24,1.24A1.242,1.242,0,0,0,3074.551,1135.41Z" transform="translate(-2734.459 -1013.363)" fill="#dedede"/>
        <path id="Path_81732" data-name="Path 81732" d="M1747.866,1300.205a.611.611,0,0,0-.027.865l1.612,1.719-1.719,1.612a.612.612,0,0,0,.837.892l1.719-1.613,1.613,1.719a.611.611,0,0,0,.891-.837l-1.613-1.719,1.719-1.613a.611.611,0,0,0-.837-.892l-1.719,1.613-1.613-1.719A.612.612,0,0,0,1747.866,1300.205Z" transform="translate(-1747.539 -1137.108)" fill="#dedede"/>
        <path id="Path_81733" data-name="Path 81733" d="M1844.075,1400.084a2.664,2.664,0,1,1,2.664-2.664A2.667,2.667,0,0,1,1844.075,1400.084Zm0-3.9a1.24,1.24,0,1,0,1.24,1.24A1.242,1.242,0,0,0,1844.075,1396.18Z" transform="translate(-1817.494 -1207.692)" fill="#dedede"/>
        <g id="Group_35138" data-name="Group 35138" transform="translate(3.8)">
          <g id="Group_35136" data-name="Group 35136" transform="translate(0 146.03)">
            <path id="Path_81734" data-name="Path 81734" d="M1831.108,1363.818a.542.542,0,0,1-.03-1.084c1.788-.1,3.6-.279,5.379-.531a.542.542,0,1,1,.152,1.074c-1.811.256-3.651.437-5.469.539Zm-7.626-.024h-.034c-1.822-.114-3.661-.308-5.465-.576a.542.542,0,0,1,.16-1.072c1.774.264,3.582.454,5.373.566a.542.542,0,0,1-.033,1.083Zm20.529-2.016a.542.542,0,0,1-.137-1.067c1.738-.456,3.476-.991,5.164-1.59a.542.542,0,1,1,.362,1.022c-1.717.609-3.484,1.153-5.251,1.616A.54.54,0,0,1,1844.011,1361.778Zm-33.416-.125a.546.546,0,0,1-.143-.019c-1.76-.481-3.521-1.043-5.236-1.671a.542.542,0,0,1,.374-1.018c1.686.617,3.418,1.171,5.148,1.643a.542.542,0,0,1-.143,1.066Zm45.649-4.45a.542.542,0,0,1-.241-1.028c1.608-.8,3.2-1.672,4.735-2.6a.542.542,0,1,1,.562.927c-1.56.946-3.18,1.836-4.816,2.645A.538.538,0,0,1,1856.244,1357.2Zm-57.837-.251a.541.541,0,0,1-.245-.058c-1.626-.825-3.239-1.729-4.793-2.689a.542.542,0,0,1,.57-.923c1.528.944,3.114,1.833,4.713,2.645a.542.542,0,0,1-.245,1.026Zm68.884-6.7a.542.542,0,0,1-.334-.969c1.413-1.1,2.8-2.284,4.112-3.506a.542.542,0,0,1,.738.8c-1.338,1.242-2.745,2.441-4.182,3.565A.539.539,0,0,1,1867.291,1350.25Zm-79.88-.346a.539.539,0,0,1-.337-.117c-1.43-1.135-2.829-2.344-4.158-3.594a.542.542,0,0,1,.743-.79c1.307,1.229,2.682,2.418,4.089,3.534a.542.542,0,0,1-.337.967Zm89.3-8.7a.542.542,0,0,1-.413-.894c1.162-1.367,2.281-2.8,3.325-4.261a.542.542,0,0,1,.882.631c-1.062,1.484-2.2,2.942-3.381,4.332A.54.54,0,0,1,1876.711,1341.207Zm-98.658-.409a.541.541,0,0,1-.416-.194c-1.174-1.4-2.3-2.865-3.349-4.357a.542.542,0,1,1,.887-.624c1.032,1.466,2.14,2.907,3.294,4.283a.542.542,0,0,1-.415.891Zm106.076-10.342a.542.542,0,0,1-.474-.8c.865-1.573,1.675-3.2,2.4-4.84a.542.542,0,1,1,.99.441c-.742,1.667-1.565,3.322-2.446,4.921A.542.542,0,0,1,1884.129,1330.456Zm-113.408-.466a.543.543,0,0,1-.478-.285c-.865-1.606-1.672-3.27-2.4-4.945a.542.542,0,1,1,1-.431c.714,1.646,1.507,3.282,2.357,4.862a.543.543,0,0,1-.477.8Zm118.522-11.555a.543.543,0,0,1-.518-.7c.532-1.715,1-3.473,1.381-5.225a.542.542,0,0,1,1.06.233c-.391,1.782-.864,3.569-1.405,5.313A.542.542,0,0,1,1889.243,1318.435Zm-123.513-.513a.542.542,0,0,1-.519-.387c-.521-1.744-.976-3.535-1.352-5.325a.542.542,0,0,1,1.061-.223c.369,1.761.817,3.523,1.33,5.237a.543.543,0,0,1-.52.7Zm126.1-12.294-.053,0a.543.543,0,0,1-.487-.592c.174-1.785.272-3.6.294-5.4a.542.542,0,1,1,1.084.013c-.022,1.826-.122,3.672-.3,5.487A.542.542,0,0,1,1891.826,1305.628Zm-128.568-.532a.542.542,0,0,1-.539-.494c-.164-1.82-.253-3.667-.264-5.49a.543.543,0,0,1,.539-.545h0a.542.542,0,0,1,.542.539c.011,1.792.1,3.609.26,5.4a.542.542,0,0,1-.491.589Zm128.5-12.53a.542.542,0,0,1-.539-.484c-.19-1.78-.459-3.579-.8-5.346l-.013-.069a.542.542,0,0,1,1.065-.207l.013.07c.346,1.8.618,3.626.812,5.436a.541.541,0,0,1-.481.6A.449.449,0,0,1,1891.759,1292.567Zm-128.352-.536a.534.534,0,0,1-.062,0,.542.542,0,0,1-.477-.6c.207-1.813.493-3.64.854-5.429a.542.542,0,1,1,1.063.214c-.354,1.76-.636,3.556-.839,5.338A.542.542,0,0,1,1763.407,1292.03Zm125.653-12.315a.543.543,0,0,1-.517-.378c-.544-1.712-1.168-3.419-1.853-5.075a.542.542,0,0,1,1-.415c.7,1.684,1.331,3.421,1.885,5.162a.543.543,0,0,1-.517.707Zm-122.861-.447a.536.536,0,0,1-.169-.027.542.542,0,0,1-.346-.684c.569-1.733,1.22-3.464,1.933-5.144a.542.542,0,0,1,1,.424c-.7,1.653-1.342,3.355-1.9,5.059A.543.543,0,0,1,1766.2,1279.268Zm117.661-11.532a.541.541,0,0,1-.473-.277c-.878-1.564-1.835-3.11-2.843-4.594a.542.542,0,1,1,.9-.609c1.025,1.51,2,3.082,2.891,4.673a.542.542,0,0,1-.472.808Zm-112.353-.4a.543.543,0,0,1-.47-.812c.906-1.584,1.89-3.149,2.926-4.651a.542.542,0,0,1,.893.615c-1.019,1.478-1.987,3.017-2.878,4.575A.542.542,0,0,1,1771.507,1267.333Zm104.837-10.272a.543.543,0,0,1-.41-.186c-1.176-1.354-2.425-2.675-3.712-3.927a.542.542,0,1,1,.756-.777c1.309,1.273,2.579,2.616,3.776,3.993a.542.542,0,0,1-.409.9Zm-97.246-.356a.542.542,0,0,1-.407-.9c1.205-1.371,2.483-2.707,3.8-3.972a.542.542,0,1,1,.752.782c-1.293,1.243-2.55,2.557-3.735,3.906A.54.54,0,0,1,1779.1,1256.705Zm87.729-8.588a.54.54,0,0,1-.329-.112c-1.425-1.091-2.914-2.135-4.425-3.1a.542.542,0,1,1,.585-.913c1.536.984,3.05,2.045,4.5,3.155a.542.542,0,0,1-.33.973Zm-78.163-.3a.542.542,0,0,1-.328-.975c1.456-1.1,2.977-2.152,4.521-3.125a.542.542,0,0,1,.578.917c-1.518.956-3.013,1.99-4.445,3.073A.542.542,0,0,1,1788.664,1247.818Zm67.047-6.559a.542.542,0,0,1-.237-.055c-1.615-.784-3.282-1.509-4.957-2.154a.542.542,0,1,1,.39-1.012c1.7.656,3.4,1.393,5.04,2.19a.542.542,0,0,1-.237,1.03Zm-55.882-.215a.542.542,0,0,1-.233-1.032c1.648-.782,3.35-1.5,5.06-2.144a.542.542,0,1,1,.38,1.016c-1.681.629-3.355,1.339-4.975,2.108A.539.539,0,0,1,1799.829,1241.044Zm43.614-4.274a.552.552,0,0,1-.134-.017c-1.74-.443-3.519-.816-5.289-1.109a.542.542,0,1,1,.177-1.07c1.8.3,3.61.678,5.379,1.128a.542.542,0,0,1-.133,1.068Zm-31.31-.1a.542.542,0,0,1-.129-1.069c1.078-.264,2.179-.5,3.274-.715.7-.134,1.41-.259,2.113-.371a.542.542,0,1,1,.17,1.071c-.691.11-1.391.232-2.078.365-1.077.207-2.161.444-3.22.7A.554.554,0,0,1,1812.134,1236.67Zm18.385-1.816h-.025c-.95-.042-1.913-.064-2.863-.064-.843,0-1.7.017-2.541.051a.542.542,0,0,1-.043-1.084c.858-.034,1.727-.051,2.584-.051.966,0,1.945.022,2.912.066a.542.542,0,0,1-.024,1.084Z" transform="translate(-1762.454 -1233.705)" fill="#dedede"/>
          </g>
          <g id="Group_35137" data-name="Group 35137" transform="translate(142.825)">
            <path id="Path_81735" data-name="Path 81735" d="M2443.758,887.445q-.468.03-.936.057a.542.542,0,0,1-.065-1.083h0c1.773-.1,3.567-.244,5.337-.428a.542.542,0,0,1,.112,1.079C2446.734,887.224,2445.236,887.35,2443.758,887.445Zm-8.457.232h-.041c-1.794-.018-3.611-.08-5.4-.183a.542.542,0,1,1,.062-1.083c1.772.1,3.572.164,5.349.181a.542.542,0,0,1,.03,1.083Zm20.347-1.627a.542.542,0,0,1-.125-1.076c1.754-.3,3.522-.644,5.253-1.024a.542.542,0,1,1,.233,1.059c-1.748.384-3.532.732-5.3,1.034Zm-33.217.76a.548.548,0,0,1-.1,0c-1.781-.223-3.579-.493-5.344-.8a.542.542,0,1,1,.186-1.068c1.749.305,3.529.572,5.293.793a.542.542,0,0,1-.032,1.079Zm45.79-3.645a.542.542,0,0,1-.186-1.062c1.706-.5,3.423-1.039,5.1-1.614a.542.542,0,1,1,.351,1.026c-1.7.582-3.429,1.13-5.151,1.63A.549.549,0,0,1,2468.221,883.164Zm-58.488,1.3a.534.534,0,0,1-.163-.015c-1.744-.426-3.5-.9-5.227-1.412a.542.542,0,0,1,.308-1.04c1.707.506,3.449.976,5.176,1.4a.542.542,0,0,1-.094,1.068Zm70.65-5.605a.542.542,0,0,1-.245-1.041c1.639-.688,3.281-1.425,4.884-2.189a.542.542,0,1,1,.467.979c-1.617.772-3.276,1.516-4.931,2.21A.541.541,0,0,1,2480.382,878.863Zm-83,1.819a.538.538,0,0,1-.223-.033c-1.682-.623-3.374-1.3-5.027-2a.542.542,0,0,1,.425-1c1.637.7,3.312,1.364,4.979,1.982a.542.542,0,0,1-.154,1.05Zm94.58-7.483a.542.542,0,0,1-.3-1.013c1.544-.869,3.089-1.787,4.592-2.729a.542.542,0,1,1,.576.918c-1.516.951-3.076,1.879-4.635,2.756A.536.536,0,0,1,2491.962,873.2Zm-106.411,2.311a.541.541,0,0,1-.28-.058c-1.6-.812-3.2-1.673-4.763-2.559a.542.542,0,0,1,.536-.943c1.545.878,3.132,1.731,4.718,2.535a.542.542,0,0,1-.21,1.025Zm117.259-9.261a.542.542,0,0,1-.354-.98c1.437-1.041,2.867-2.13,4.252-3.238a.542.542,0,0,1,.678.847c-1.4,1.119-2.843,2.219-4.294,3.27A.534.534,0,0,1,2502.81,866.249Zm-128.42,2.778a.538.538,0,0,1-.333-.089c-1.5-.988-2.992-2.025-4.44-3.082a.542.542,0,0,1,.639-.876c1.434,1.047,2.914,2.074,4.4,3.053a.542.542,0,0,1-.264.994ZM2512.8,858.1a.542.542,0,0,1-.4-.941c1.309-1.2,2.607-2.444,3.859-3.7a.542.542,0,0,1,.77.764c-1.264,1.272-2.575,2.53-3.9,3.739A.538.538,0,0,1,2512.8,858.1Zm-148.76,3.221a.538.538,0,0,1-.382-.125c-1.375-1.15-2.741-2.349-4.06-3.563a.542.542,0,1,1,.734-.8c1.307,1.2,2.659,2.39,4.022,3.529a.542.542,0,0,1-.313.957ZM2521.8,848.869a.542.542,0,0,1-.444-.9c1.166-1.34,2.315-2.726,3.416-4.12a.542.542,0,0,1,.851.672c-1.112,1.407-2.272,2.806-3.449,4.159A.54.54,0,0,1,2521.8,848.869Zm-167.169,3.63a.542.542,0,0,1-.429-.167c-1.235-1.3-2.456-2.644-3.628-4a.542.542,0,1,1,.82-.709c1.161,1.342,2.37,2.675,3.594,3.961a.542.542,0,0,1-.357.915ZM2529.7,838.671a.542.542,0,0,1-.481-.849c1.007-1.464,1.992-2.973,2.928-4.482a.542.542,0,0,1,.922.572c-.945,1.524-1.94,3.046-2.957,4.525A.541.541,0,0,1,2529.7,838.671Zm-183.412,4a.542.542,0,0,1-.469-.214c-1.078-1.429-2.137-2.9-3.147-4.383a.542.542,0,1,1,.9-.611c1,1.465,2.048,2.926,3.116,4.341a.543.543,0,0,1-.4.868ZM2536.4,827.638a.542.542,0,0,1-.513-.8c.835-1.571,1.643-3.182,2.4-4.788a.543.543,0,0,1,.981.463c-.766,1.621-1.581,3.247-2.425,4.834A.541.541,0,0,1,2536.4,827.638Zm-197.271,4.317a.542.542,0,0,1-.5-.266c-.907-1.542-1.79-3.127-2.623-4.71a.542.542,0,1,1,.96-.5c.825,1.569,1.7,3.138,2.6,4.665a.543.543,0,0,1-.432.816ZM2541.8,815.912a.542.542,0,0,1-.539-.74c.651-1.657,1.27-3.35,1.84-5.033a.542.542,0,1,1,1.027.348c-.575,1.7-1.2,3.409-1.857,5.082A.544.544,0,0,1,2541.8,815.912Zm-208.561,4.579a.542.542,0,0,1-.531-.322c-.726-1.639-1.422-3.319-2.07-4.992a.543.543,0,0,1,1.012-.391c.64,1.657,1.33,3.32,2.05,4.944a.543.543,0,0,1-.461.761Zm212.589-16.851a.543.543,0,0,1-.559-.68c.457-1.721.879-3.476,1.252-5.215a.542.542,0,0,1,1.06.228c-.377,1.756-.8,3.527-1.264,5.265A.542.542,0,0,1,2545.831,803.64ZM2328.7,808.416a.542.542,0,0,1-.552-.38c-.533-1.711-1.033-3.459-1.484-5.195a.542.542,0,1,1,1.049-.273c.448,1.72.942,3.451,1.47,5.146a.542.542,0,0,1-.483.7Zm219.719-17.425a.534.534,0,0,1-.114,0,.542.542,0,0,1-.458-.615c.255-1.757.472-3.544.643-5.313a.542.542,0,0,1,1.08.1c-.173,1.786-.392,3.59-.65,5.364A.542.542,0,0,1,2548.422,790.991ZM2325.574,795.9a.543.543,0,0,1-.567-.44c-.335-1.759-.632-3.552-.886-5.331a.542.542,0,0,1,1.074-.153c.25,1.761.546,3.538.877,5.28a.542.542,0,0,1-.431.634A.494.494,0,0,1,2325.574,795.9Zm223.969-17.762c-.017,0-.034,0-.052,0a.542.542,0,0,1-.526-.558c.052-1.775.063-3.575.03-5.351a.542.542,0,1,1,1.084-.019c.032,1.793.023,3.611-.031,5.4A.542.542,0,0,1,2549.542,778.14Zm-225.665,4.97a.542.542,0,0,1-.576-.5q-.048-.633-.089-1.266c-.089-1.37-.153-2.759-.192-4.13a.542.542,0,1,1,1.083-.031c.039,1.357.1,2.733.191,4.09q.04.627.088,1.255a.542.542,0,0,1-.5.582Zm225.31-17.866a.542.542,0,0,1-.575-.5c-.149-1.767-.343-3.557-.575-5.323l-.023-.172a.542.542,0,0,1,1.075-.143l.023.174c.235,1.781.431,3.588.581,5.372a.543.543,0,0,1-.495.586Zm-225.553,4.968a.535.535,0,0,1-.056,0,.542.542,0,0,1-.522-.563c.069-1.792.181-3.607.336-5.393a.542.542,0,1,1,1.081.093c-.153,1.769-.264,3.566-.333,5.341A.542.542,0,0,1,2323.634,770.212ZM2547.347,752.3a.544.544,0,0,1-.567-.434c-.349-1.742-.746-3.5-1.177-5.22a.542.542,0,0,1,1.052-.264c.435,1.739.835,3.512,1.189,5.271a.543.543,0,0,1-.425.639A.532.532,0,0,1,2547.347,752.3Zm-222.481,5.073a.543.543,0,0,1-.571-.624c.274-1.777.595-3.571.955-5.332a.542.542,0,1,1,1.063.217c-.356,1.745-.674,3.522-.946,5.281A.543.543,0,0,1,2324.866,757.371Zm219.225-17.555a.543.543,0,0,1-.551-.375c-.546-1.69-1.14-3.39-1.765-5.052a.542.542,0,0,1,1.015-.382c.632,1.678,1.232,3.394,1.783,5.1a.543.543,0,0,1-.481.708Zm-216.522,4.918a.536.536,0,0,1-.179-.019.542.542,0,0,1-.379-.666c.476-1.731,1-3.475,1.561-5.183a.542.542,0,1,1,1.031.337c-.554,1.692-1.074,3.419-1.545,5.133A.543.543,0,0,1,2327.57,744.734Zm211.861-16.946a.543.543,0,0,1-.529-.316c-.736-1.617-1.521-3.237-2.334-4.816a.542.542,0,0,1,.965-.5c.82,1.594,1.613,3.23,2.356,4.863a.542.542,0,0,1-.458.766ZM2331.7,732.5a.542.542,0,0,1-.538-.744c.671-1.664,1.391-3.336,2.142-4.967a.542.542,0,0,1,.985.453c-.743,1.616-1.457,3.272-2.121,4.92A.542.542,0,0,1,2331.7,732.5Zm201.719-16.116a.543.543,0,0,1-.5-.261c-.914-1.518-1.878-3.035-2.865-4.509a.542.542,0,1,1,.9-.6c1,1.488,1.97,3.02,2.893,4.552a.542.542,0,0,1-.185.744A.536.536,0,0,1,2533.424,716.381Zm-196.216,4.437a.542.542,0,0,1-.51-.8c.855-1.576,1.761-3.154,2.692-4.689a.542.542,0,0,1,.927.562c-.922,1.521-1.819,3.083-2.666,4.644A.545.545,0,0,1,2337.208,720.818Zm188.946-15.075a.541.541,0,0,1-.465-.21c-1.084-1.406-2.216-2.8-3.364-4.156a.542.542,0,1,1,.827-.7c1.159,1.364,2.3,2.776,3.4,4.2a.542.542,0,0,1-.394.872ZM2344,709.844a.542.542,0,0,1-.479-.852c1.03-1.469,2.108-2.933,3.2-4.351a.542.542,0,0,1,.858.663c-1.087,1.405-2.155,2.855-3.175,4.31A.541.541,0,0,1,2344,709.844ZM2517.712,696a.541.541,0,0,1-.424-.163c-1.236-1.274-2.52-2.535-3.816-3.749a.542.542,0,1,1,.741-.791c1.309,1.225,2.6,2.5,3.853,3.785a.542.542,0,0,1-.354.919Zm-165.72,3.717a.542.542,0,0,1-.441-.9c1.189-1.342,2.425-2.674,3.675-3.958a.542.542,0,1,1,.777.756c-1.238,1.272-2.463,2.591-3.64,3.921A.538.538,0,0,1,2351.992,699.714Zm156.224-12.445a.542.542,0,0,1-.379-.122c-1.373-1.125-2.792-2.234-4.219-3.294a.542.542,0,0,1,.647-.87c1.44,1.07,2.873,2.189,4.259,3.325a.542.542,0,0,1-.308.961Zm-147.14,3.29a.542.542,0,0,1-.4-.944c1.332-1.2,2.711-2.38,4.1-3.514a.542.542,0,1,1,.686.84c-1.374,1.122-2.74,2.293-4.06,3.48A.54.54,0,0,1,2361.076,690.56Zm136.712-10.889a.541.541,0,0,1-.328-.086c-1.493-.963-3.03-1.9-4.567-2.8a.542.542,0,1,1,.544-.938c1.552.9,3.1,1.85,4.61,2.822a.542.542,0,0,1-.259,1ZM2371.137,682.5a.542.542,0,0,1-.349-.983c1.459-1.038,2.963-2.055,4.469-3.022a.542.542,0,0,1,.586.913c-1.492.958-2.982,1.964-4.427,2.992A.538.538,0,0,1,2371.137,682.5Zm115.425-9.2a.543.543,0,0,1-.275-.055c-1.593-.788-3.228-1.548-4.858-2.259a.542.542,0,0,1,.434-.994c1.646.718,3.3,1.486,4.9,2.281a.542.542,0,0,1-.206,1.027Zm-104.516,2.344a.542.542,0,0,1-.3-1.016c1.571-.866,3.184-1.7,4.794-2.494a.542.542,0,1,1,.478.974c-1.595.781-3.192,1.612-4.748,2.47A.534.534,0,0,1,2382.046,675.646Zm92.633-7.4a.545.545,0,0,1-.218-.031c-1.675-.6-3.386-1.17-5.087-1.69a.542.542,0,1,1,.318-1.037c1.717.525,3.445,1.1,5.136,1.707a.542.542,0,0,1-.149,1.052Zm-81,1.83a.542.542,0,0,1-.24-1.043c1.659-.679,3.357-1.327,5.049-1.927a.542.542,0,0,1,.362,1.022c-1.675.594-3.357,1.235-5,1.908A.551.551,0,0,1,2393.684,670.081Zm68.608-5.49a.541.541,0,0,1-.159-.013c-1.733-.405-3.5-.774-5.251-1.1a.542.542,0,1,1,.2-1.067c1.767.325,3.551.7,5.3,1.106a.542.542,0,0,1-.089,1.069Zm-56.409,1.3a.542.542,0,0,1-.181-1.063c1.725-.484,3.486-.934,5.235-1.336a.542.542,0,1,1,.243,1.057c-1.732.4-3.477.844-5.185,1.324A.561.561,0,0,1,2405.883,665.888Zm43.688-3.509a.537.537,0,0,1-.1,0c-1.763-.2-3.557-.366-5.33-.484a.542.542,0,1,1,.072-1.082c1.79.119,3.6.284,5.382.488a.542.542,0,0,1-.026,1.08Zm-31.091.734a.542.542,0,0,1-.121-1.077c1.1-.178,2.227-.343,3.339-.49.669-.088,1.347-.172,2.015-.248a.542.542,0,1,1,.123,1.078c-.662.075-1.334.158-2,.245-1.1.145-2.215.308-3.307.485Zm18.211-1.469h-.036c-1.773,0-3.573.044-5.35.128a.542.542,0,0,1-.061-1.083h.009c1.793-.086,3.61-.129,5.4-.129a.542.542,0,0,1,.036,1.083Z" transform="translate(-2323.02 -660.56)" fill="#dedede"/>
          </g>
        </g>
      </g>
      <g id="Group_35142" data-name="Group 35142" transform="translate(100.039 15.575)">
        <g id="Group_35140" data-name="Group 35140">
          <path id="Path_81736" data-name="Path 81736" d="M2318.244,773.533V960.074h-.489l-14.123-13.743-14.124,13.743h-1.471l-14.124-13.743-14.125,13.743h-1.452l-14.1-13.717-14.1,13.717H2228.7l-14.114-13.732-14.114,13.732h-1.489l-14.114-13.732-14.115,13.732h-1.472l-14.087-13.707L2141.1,960.074h-.931V721.69H2266.4Z" transform="translate(-2140.174 -721.69)" fill="#f2f2f2"/>
          <path id="Path_81737" data-name="Path 81737" d="M2687.437,773.534h-51.844V721.69Z" transform="translate(-2509.366 -721.69)" fill="#dedede"/>
        </g>
        <g id="Group_35141" data-name="Group 35141" transform="translate(21.966 97.955)">
          <path id="Path_81738" data-name="Path 81738" d="M2252.343,1157.078V1150.1h-18.828a7.736,7.736,0,0,1-5.345-1.613,5.622,5.622,0,0,1-1.781-4.388,4.247,4.247,0,0,1,.262-1.444,7.456,7.456,0,0,1,.787-1.538q.525-.806,1.088-1.556t1.388-1.838l19.878-26.592a30.247,30.247,0,0,1,3.207-3.807,4.251,4.251,0,0,1,3.019-1.181q5.7,0,5.7,6.526v29.03h1.613a11.4,11.4,0,0,1,4.633.787q1.744.788,1.744,3.451a3.591,3.591,0,0,1-1.425,3.169,7.5,7.5,0,0,1-4.276.994h-2.288v6.976a6.23,6.23,0,0,1-1.275,4.294,4.777,4.777,0,0,1-6.807-.038A6.194,6.194,0,0,1,2252.343,1157.078Zm-16.128-15.377h16.128v-21.791Z" transform="translate(-2226.388 -1106.145)" fill="#2779e0"/>
          <path id="Path_81739" data-name="Path 81739" d="M2454.393,1135.752a64.384,64.384,0,0,1-.75,10.577,24.628,24.628,0,0,1-2.776,8.026,18.43,18.43,0,0,1-6.6,6.826,17.93,17.93,0,0,1-19.222-.825,19.625,19.625,0,0,1-6.807-8.927,33.14,33.14,0,0,1-1.707-6.882,57.209,57.209,0,0,1-.544-8.157,78.32,78.32,0,0,1,.6-10.2,33.66,33.66,0,0,1,1.875-7.8,16.783,16.783,0,0,1,16.5-11.064,18.783,18.783,0,0,1,7.014,1.257,16.012,16.012,0,0,1,5.533,3.676,21.018,21.018,0,0,1,4.031,5.982Q2454.392,1124.425,2454.393,1135.752Zm-10.277-.75a62.47,62.47,0,0,0-.825-11.233,13.825,13.825,0,0,0-2.775-6.6,6.8,6.8,0,0,0-5.4-2.232q-4.951,0-6.883,4.988T2426.3,1135.3a66.064,66.064,0,0,0,.825,11.552,14.512,14.512,0,0,0,2.775,6.807,7.247,7.247,0,0,0,10.689-.094,14.89,14.89,0,0,0,2.738-6.864A69.877,69.877,0,0,0,2444.116,1135Z" transform="translate(-2367.68 -1107.022)" fill="#2779e0"/>
          <path id="Path_81740" data-name="Path 81740" d="M2610.638,1157.078V1150.1h-18.828a7.739,7.739,0,0,1-5.345-1.613,5.623,5.623,0,0,1-1.781-4.388,4.258,4.258,0,0,1,.262-1.444,7.486,7.486,0,0,1,.788-1.538q.525-.806,1.088-1.556t1.388-1.838l19.878-26.592a30.267,30.267,0,0,1,3.207-3.807,4.25,4.25,0,0,1,3.019-1.181q5.7,0,5.7,6.526v29.03h1.612a11.4,11.4,0,0,1,4.632.787q1.744.788,1.744,3.451a3.593,3.593,0,0,1-1.425,3.169,7.5,7.5,0,0,1-4.276.994h-2.288v6.976a6.232,6.232,0,0,1-1.275,4.294,4.778,4.778,0,0,1-6.808-.038A6.191,6.191,0,0,1,2610.638,1157.078Zm-16.128-15.377h16.128v-21.791Z" transform="translate(-2493.395 -1106.145)" fill="#2779e0"/>
        </g>
      </g>
      <g id="Group_35146" data-name="Group 35146" transform="translate(80.812 201.839)">
        <g id="Group_35145" data-name="Group 35145">
          <path id="Path_81741" data-name="Path 81741" d="M2332.49,1720.527h0a6.281,6.281,0,0,1-8.882,0l-38.134-38.135-4.846-4.845a31.323,31.323,0,0,0,8.882-8.883l42.98,42.981A6.279,6.279,0,0,1,2332.49,1720.527Z" transform="translate(-2225.615 -1613.65)" fill="#9c9c9c"/>
          <path id="Path_81742" data-name="Path 81742" d="M2297.094,1676.244l9.937,9.938a31.324,31.324,0,0,1-8.88,8.883h0l-5.091-5.093-4.846-4.846A31.319,31.319,0,0,0,2297.094,1676.244Z" transform="translate(-2231.266 -1619.299)" fill="#5e5e5e"/>
          <g id="Group_35144" data-name="Group 35144">
            <path id="Path_81743" data-name="Path 81743" d="M2140.44,1488.994a37.882,37.882,0,0,0-75.729,1.634,38.474,38.474,0,0,0,.24,4.284,37.577,37.577,0,0,0,3.625,12.4h0a38.02,38.02,0,0,0,11.555,13.819q1.189.877,2.448,1.663a37.9,37.9,0,0,0,41.99-1.31,0,0,0,0,0,0,0,38.078,38.078,0,0,0,8.882-8.88h0a37.717,37.717,0,0,0,7.021-21.976Q2140.475,1489.807,2140.44,1488.994Zm-37.847,32.776a31.111,31.111,0,0,1-31.144-31.142,31.162,31.162,0,0,1,35.207-30.88,31.147,31.147,0,0,1,27.079,30.88q0,.712-.032,1.415a30.981,30.981,0,0,1-5.1,15.715,31.332,31.332,0,0,1-8.882,8.883,31.041,31.041,0,0,1-17.131,5.129Z" transform="translate(-2064.711 -1452.745)" fill="#b8b8b8"/>
            <g id="Group_35143" data-name="Group 35143" transform="translate(11.391 11.392)">
              <path id="Path_81744" data-name="Path 81744" d="M2112.326,1527.371a2.908,2.908,0,0,1-2.908-2.908,27.008,27.008,0,0,1,27.008-27.008,2.908,2.908,0,0,1,0,5.817,21.191,21.191,0,0,0-21.191,21.191A2.909,2.909,0,0,1,2112.326,1527.371Z" transform="translate(-2109.418 -1497.455)" fill="#fff"/>
            </g>
          </g>
        </g>
      </g>
    </g>
  </g>
</svg>
