<svg width="14" height="16" viewBox="0 0 14 16" fill="none" xmlns="http://www.w3.org/2000/svg">
<path d="M13.177 9.508C13.1016 9.58533 12.8172 9.916 12.5522 10.188C10.9987 11.8987 6.9461 14.6987 4.82498 15.5533C4.50285 15.6907 3.68843 15.9813 3.25329 16C2.83634 16 2.43888 15.904 2.05959 15.7093C1.58679 15.4373 1.20751 15.0093 0.999682 14.504C0.865894 14.1533 0.658068 13.104 0.658068 13.0853C0.450242 11.9373 0.335938 10.072 0.335938 8.01067C0.335938 6.04667 0.450242 4.25733 0.620399 3.092C0.639883 3.07333 0.847709 1.76933 1.07502 1.32267C1.49197 0.506667 2.30639 0 3.17796 0H3.25329C3.82092 0.02 5.01462 0.526667 5.01462 0.545333C7.02144 1.40133 10.9805 4.064 12.5717 5.83333C12.5717 5.83333 13.0198 6.288 13.2147 6.572C13.5186 6.98 13.6693 7.48533 13.6693 7.99067C13.6693 8.55467 13.4991 9.08 13.177 9.508" fill="#F9A825"/>
</svg>
