<svg width="24" height="24" viewBox="0 0 24 24" fill="none" xmlns="http://www.w3.org/2000/svg">
<path d="M20.3345 12.5225L12.395 20.3824L11.998 20.7754C11.8538 20.9187 11.6579 20.9995 11.4536 21C11.2499 20.9971 11.0555 20.9157 10.9115 20.7732C10.7674 20.6306 10.6852 20.4381 10.6823 20.2365C10.6813 20.1361 10.7009 20.0366 10.7399 19.9439C10.7789 19.8513 10.8364 19.7674 10.9092 19.6975L11.2608 19.3382L19.0075 11.6242C19.4169 11.2635 19.75 10.8261 19.9878 10.3372C20.2255 9.84836 20.3631 9.31774 20.3926 8.77596C20.4221 8.23418 20.343 7.69198 20.1598 7.18064C19.9765 6.66929 19.6929 6.19893 19.3251 5.79668C18.9499 5.3894 18.4952 5.06167 17.9885 4.83333C17.4817 4.60498 16.9335 4.48075 16.3769 4.46815C15.8202 4.45556 15.2668 4.55486 14.7501 4.76005C14.2333 4.96524 13.764 5.27205 13.3704 5.66194L4.43277 14.5549C3.94796 15.0096 3.64975 15.6254 3.59533 16.2843C3.54091 16.9433 3.73411 17.5989 4.13787 18.1255C4.36909 18.3965 4.65442 18.6171 4.97595 18.7736C5.29747 18.9301 5.64822 19.0191 6.00615 19.0349C6.36408 19.0507 6.72144 18.9931 7.05577 18.8655C7.3901 18.738 7.69416 18.5434 7.94885 18.2939L15.6048 10.7147C15.7009 10.6196 15.7771 10.5067 15.8291 10.3825C15.8811 10.2582 15.9079 10.125 15.9079 9.99051C15.9079 9.856 15.8811 9.72282 15.8291 9.59855C15.7771 9.47429 15.7009 9.36138 15.6048 9.26627C15.5088 9.17116 15.3947 9.09572 15.2692 9.04425C15.1437 8.99278 15.0091 8.96628 14.8733 8.96628C14.7374 8.96628 14.6029 8.99278 14.4773 9.04425C14.3518 9.09572 14.2378 9.17116 14.1417 9.26627L7.2116 16.1269C7.06735 16.2702 6.87154 16.3509 6.66718 16.3514C6.46354 16.3485 6.26906 16.2671 6.12505 16.1246C5.98104 15.982 5.89884 15.7895 5.89591 15.5879C5.89641 15.3856 5.978 15.1917 6.12275 15.0489L12.9281 8.31185C13.3902 7.83579 14.0127 7.54422 14.6776 7.49247C15.3424 7.44073 16.0033 7.63241 16.5349 8.03114C16.8136 8.25459 17.0418 8.53344 17.2048 8.84967C17.3678 9.1659 17.462 9.51248 17.4812 9.867C17.5005 10.2215 17.4444 10.5761 17.3165 10.9078C17.1887 11.2395 16.9919 11.541 16.739 11.7927L9.23051 19.1922C8.47319 19.975 7.44331 20.4432 6.35 20.5015C5.2567 20.5599 4.18192 20.2042 3.34392 19.5066C2.93218 19.1342 2.60093 18.6831 2.37013 18.1805C2.13934 17.6779 2.01379 17.1343 2.00107 16.5823C1.98835 16.0304 2.08872 15.4816 2.29613 14.9691C2.50353 14.4566 2.81366 13.991 3.20781 13.6005L12.1228 4.77489C13.1302 3.74093 14.4892 3.11352 15.9368 3.01396C17.3845 2.91441 18.818 3.3498 19.9602 4.23593C20.5659 4.73574 21.0595 5.35508 21.4098 6.05441C21.76 6.75373 21.9591 7.51768 21.9943 8.29746C22.0296 9.07725 21.9001 9.85574 21.6143 10.5832C21.3286 11.3107 20.8927 11.9712 20.3345 12.5225Z" fill="#8A94A9"/>
</svg>
