<svg xmlns="http://www.w3.org/2000/svg" width="745" height="18" viewBox="0 0 745 18">
  <g id="Group_37454" data-name="Group 37454" transform="translate(0 0.274)" opacity="0.874">
    <path id="Rectangle_14657" data-name="Rectangle 14657" d="M0,0H745a0,0,0,0,1,0,0V13a5,5,0,0,1-5,5H5a5,5,0,0,1-5-5V0A0,0,0,0,1,0,0Z" transform="translate(0 -0.274)" fill="#08bd80"/>
    <path id="Rectangle_14658" data-name="Rectangle 14658" d="M0,0H745a0,0,0,0,1,0,0V4a5,5,0,0,1-5,5H5A5,5,0,0,1,0,4V0A0,0,0,0,1,0,0Z" transform="translate(0 8.726)" fill="#18484c" opacity="0.362"/>
  </g>
</svg>
