<svg width="24" height="24" viewBox="0 0 24 24" fill="none" xmlns="http://www.w3.org/2000/svg">
<path fill-rule="evenodd" clip-rule="evenodd" d="M16.4109 2.76862L16.4119 3.51824C19.1665 3.73413 20.9862 5.61119 20.9891 8.48975L21 16.9155C21.0039 20.054 19.0322 21.985 15.8718 21.99L8.15188 22C5.01119 22.004 3.01482 20.027 3.01087 16.8795L3.00001 8.55272C2.99606 5.65517 4.75153 3.78311 7.50617 3.53024L7.50518 2.78061C7.5042 2.34083 7.83001 2.01 8.26444 2.01C8.69886 2.009 9.02468 2.33883 9.02567 2.77861L9.02666 3.47826L14.8914 3.47027L14.8904 2.77062C14.8894 2.33084 15.2152 2.001 15.6496 2C16.0742 1.999 16.4099 2.32884 16.4109 2.76862ZM19.4696 8.84158L4.52148 8.86157L4.52049 8.55072C4.51753 6.38281 5.58286 5.25137 7.50815 5.05847L7.50913 5.82809C7.50913 6.25887 7.83594 6.5977 8.27036 6.5967C8.70479 6.5967 9.02962 6.25687 9.02962 5.82609L9.02863 5.01749L14.8934 5.0095L14.8943 5.81909C14.8943 6.24887 15.2212 6.5887 15.6556 6.5877C16.0801 6.5877 16.4148 6.24688 16.4148 5.81709L16.4138 5.04748C18.349 5.21539 19.4272 6.34283 19.4696 8.49175V8.84158ZM10.8501 14.2189C10.3959 14.2389 10.0197 13.8801 9.99998 13.4203C9.99899 12.9605 10.3544 12.5797 10.8086 12.5597C11.2529 12.5587 11.6182 12.9086 11.6291 13.3583C11.6488 13.8181 11.2944 14.1979 10.8501 14.2189ZM5.99998 13.4553C6.01973 13.915 6.3959 14.2749 6.85007 14.2539C7.29437 14.2339 7.64882 13.8531 7.62808 13.3933C7.61821 12.9435 7.2529 12.5937 6.80761 12.5947C6.35344 12.6147 5.99899 12.9955 5.99998 13.4553ZM6.85399 17.852C6.39982 17.873 6.02464 17.5132 6.0039 17.0534C6.00291 16.5937 6.35835 16.2129 6.81252 16.1929C7.25682 16.1919 7.62312 16.5417 7.63299 16.9915C7.65373 17.4512 7.29928 17.8321 6.85399 17.852ZM15.6566 12.6409L18.8871 18.2477C18.9582 18.415 18.9893 18.5511 18.9982 18.6925C19.016 19.0228 18.9005 19.3438 18.6738 19.5909C18.4472 19.8371 18.1406 19.9824 17.8073 20H11.3017C11.164 19.9916 11.0262 19.9604 10.8974 19.9119C10.253 19.6521 9.94196 18.921 10.2041 18.2873L13.4569 12.637C13.568 12.4383 13.7369 12.267 13.9457 12.1569C14.5501 11.8218 15.3188 12.042 15.6566 12.6409ZM14.9407 16.336C14.9407 16.5474 14.7674 16.724 14.5541 16.724C14.3408 16.724 14.1631 16.5474 14.1631 16.336V15.0901C14.1631 14.8782 14.3408 14.7069 14.5541 14.7069C14.7674 14.7069 14.9407 14.8782 14.9407 15.0901V16.336ZM14.5541 18.2301C14.3408 18.2301 14.1631 18.0535 14.1631 17.8425C14.1631 17.6307 14.3408 17.4545 14.5541 17.4545C14.7674 17.4545 14.9407 17.6267 14.9407 17.8377C14.9407 18.0535 14.7674 18.2301 14.5541 18.2301Z" fill="#333335"/>
</svg>
