<svg xmlns="http://www.w3.org/2000/svg" xmlns:xlink="http://www.w3.org/1999/xlink" width="35" height="35" viewBox="0 0 35 35">
  <defs>
    <clipPath id="clip-path">
      <rect id="Rectangle_20371" data-name="Rectangle 20371" width="35" height="35" transform="translate(8.874 38.874)" fill="#b9b9b9"/>
    </clipPath>
  </defs>
  <g id="Mask_Group_419" data-name="Mask Group 419" transform="translate(-8.874 -38.874)" clip-path="url(#clip-path)">
    <path id="Path_106609" data-name="Path 106609" d="M-2040.055,3896.363l-12.769,6.9a.8.8,0,0,0,0,1.409l3.53,1.908a.8.8,0,0,1,.421.7v6.858a.8.8,0,0,0,.42.7l8.4,4.542a.8.8,0,0,0,.762,0l8.393-4.541a.8.8,0,0,0,.42-.7v-6.86a.8.8,0,0,1,.419-.7l1.025-.556a.8.8,0,0,1,1.183.7v6.857a.8.8,0,0,0,.8.8h1.025a.8.8,0,0,0,.8-.8v-9.14a.8.8,0,0,0-.42-.7l-13.648-7.381A.8.8,0,0,0-2040.055,3896.363Zm8.036,8.313-7.274,3.935a.8.8,0,0,1-.762,0l-7.277-3.935a.8.8,0,0,1,0-1.409l7.277-3.934a.8.8,0,0,1,.762,0l7.274,3.934A.8.8,0,0,1-2032.019,3904.676Zm-1.088,8.4-6.186,3.348a.8.8,0,0,1-.762,0l-5.768-3.122a.8.8,0,0,1-.419-.7v-3.024a.8.8,0,0,1,1.182-.7l5,2.709a.8.8,0,0,0,.762,0l5.006-2.709a.8.8,0,0,1,1.182.7v3.5Z" transform="translate(2065.551 -3851.417)" fill="#b9b9b9"/>
  </g>
</svg>
