<svg xmlns="http://www.w3.org/2000/svg" xmlns:xlink="http://www.w3.org/1999/xlink" width="1492.26" height="210.759" viewBox="0 0 1492.26 210.759"><defs><style>.a,.c,.d{fill:#0955f9;}.b{opacity:0.5;clip-path:url(#a);}.c{opacity:0.15;}.d{opacity:0.2;}.e{opacity:0.08;}.f{opacity:0.07;}</style><clipPath id="a"><rect class="a" width="1492.26" height="210.759" rx="6" transform="translate(0)"/></clipPath></defs><g transform="translate(-188.74 -365.861)"><g class="b" transform="translate(188.74 365.861)"><g transform="translate(0.118 -0.101)"><path class="c" d="M1842.1,118.44V318.286c-131.63-4.158-262.227-11.686-390.757-22.524-209.97-18.022-274.8-34.461-448.8-43.452-148.155-7.658-357.835-9-650.547,13.681V118.44Z" transform="translate(-352 -118.432)"/><path class="d" d="M1842.1,360.625v6.859c-130.119-3.06-259.477-9.309-387.135-18.7-215.271-16.08-285.018-31.907-461.534-39.3C843.85,303.209,635.269,303.749,352,328.713V282.1c303.661-23.886,587.008-.216,686.318,10.63,160.236,17.5,216.927,28.625,426.9,46.645C1597.53,350.73,1716.015,356.487,1842.1,360.625Z" transform="translate(-352 -164.46)"/><g class="e" transform="translate(945.944 0)"><path class="a" d="M1128.574,118.44V265.726c-149.369-6.873-287.345-21.612-389.487-43.672-142.04-30.661-184.247-68.839-134.839-103.615h524.326Z" transform="translate(-584.422 -118.433)"/><path class="a" d="M1050.775,118.441V247.8c-118.027-6.376-226.338-18.567-308.055-36.2C615,184.023,581.177,149.4,633.157,118.433Z" transform="translate(-506.627 -118.433)"/><path class="a" d="M861.988,118.44v84.047a996.259,996.259,0,0,1-110.417-16.209c-93.534-20.191-103.7-46.661-39.195-67.838Z" transform="translate(-317.836 -118.432)"/></g><g class="f" transform="translate(103.229 216.692)"><path class="a" d="M460.254,464.22H436.485c-1.381-.007-2.524-.2-2.524-.427V436.715c0-.112-.286-.224-.775-.308a12.187,12.187,0,0,0-1.785-.126H392.367a6.992,6.992,0,0,1-2.442-.308L377.473,428.6c-.4-.224.357-.456,1.667-.525.229-.014.46-.021.692-.021h80.382v36.17Z" transform="translate(-377.365 -428.05)"/></g></g></g></g></svg>