<svg xmlns="http://www.w3.org/2000/svg" xmlns:xlink="http://www.w3.org/1999/xlink" width="650.502" height="540.116" viewBox="0 0 650.502 540.116"><defs><style>.a{fill:#bdbdbd;}.b{fill:url(#a);}.c{fill:#dedede;}.d{fill:#f2f2f2;}.e{fill:#9c9c9c;}.f{fill:#5e5e5e;}.g{fill:#b8b8b8;}.h{fill:#fff;}</style><linearGradient id="a" x1="0.5" y1="-0.227" x2="0.5" y2="0.559" gradientUnits="objectBoundingBox"><stop offset="0" stop-color="#e5e5e5"/><stop offset="0.476" stop-color="#f3f3f3"/><stop offset="1" stop-color="#fff"/></linearGradient></defs><g transform="translate(-789 -340.384)"><g transform="translate(789 593.066)"><path class="a" d="M1778.615,910.816a4.52,4.52,0,0,0-8.931,1.4c.649,4.209,1.474,17.4-3.076,22.7a6.075,6.075,0,0,1-3.669,2.11l.414-25.118a6.533,6.533,0,1,0-13.063.054l1.18,47.667a6.1,6.1,0,0,1-3.823-2.13c-4.551-5.307-3.725-18.5-3.077-22.7a4.519,4.519,0,1,0-8.93-1.4c-.325,2.074-2.937,20.541,5.134,29.972a15.3,15.3,0,0,0,10.922,5.369l.514,20.748h9.863l.716-43.349a15.272,15.272,0,0,0,10.692-5.351C1781.552,931.357,1778.94,912.89,1778.615,910.816Z" transform="translate(-1243.229 -905.268)"/><path class="a" d="M1215.123,966.126a2.881,2.881,0,1,0-5.693.89c.413,2.683.939,11.09-1.962,14.473a3.873,3.873,0,0,1-2.339,1.345l.264-16.012a4.165,4.165,0,1,0-8.328.035l.753,30.386a3.883,3.883,0,0,1-2.437-1.357c-2.9-3.383-2.375-11.79-1.962-14.474a2.881,2.881,0,1,0-5.692-.89c-.207,1.323-1.873,13.094,3.272,19.106a9.754,9.754,0,0,0,6.962,3.422l.328,13.227h6.287l.456-27.633a9.741,9.741,0,0,0,6.817-3.412C1217,979.219,1215.33,967.448,1215.123,966.126Z" transform="translate(-1100.855 -920.169)"/><ellipse class="b" cx="325.251" cy="115.145" rx="325.251" ry="115.145" transform="translate(0 57.144)"/></g><g transform="translate(-848.064 -320.176)"><g transform="translate(1747.539 660.56)"><path class="c" d="M2914.719,1605.545a.667.667,0,0,0-.915-.235l-2.218,1.31-1.31-2.218a.668.668,0,0,0-1.151.68l1.311,2.218-2.218,1.31a.668.668,0,1,0,.679,1.151l2.218-1.311,1.311,2.218a.668.668,0,0,0,1.151-.68l-1.311-2.218,2.218-1.311A.669.669,0,0,0,2914.719,1605.545Z" transform="translate(-2584.787 -1341.351)"/><path class="c" d="M2945.068,1647a2.911,2.911,0,1,1,2.911-2.911A2.914,2.914,0,0,1,2945.068,1647Zm0-4.267a1.355,1.355,0,1,0,1.355,1.356A1.357,1.357,0,0,0,2945.068,1642.734Z" transform="translate(-2609.514 -1368.123)"/><path class="c" d="M1888.834,1800.48a2.911,2.911,0,1,1,2.911-2.911A2.914,2.914,0,0,1,1888.834,1800.48Zm0-4.267a1.355,1.355,0,1,0,1.355,1.355A1.357,1.357,0,0,0,1888.834,1796.213Z" transform="translate(-1847.39 -1478.866)"/><path class="c" d="M3046.877,675.944a2.911,2.911,0,1,1,2.911-2.911A2.915,2.915,0,0,1,3046.877,675.944Zm0-4.267a1.355,1.355,0,1,0,1.356,1.355A1.357,1.357,0,0,0,3046.877,671.677Z" transform="translate(-2682.974 -667.459)"/><path class="c" d="M3228.582,955.7a.668.668,0,0,0-.308.894l1.128,2.316-2.316,1.128a.668.668,0,0,0,.585,1.2l2.316-1.129,1.128,2.316a.668.668,0,1,0,1.2-.585l-1.128-2.316,2.316-1.129a.668.668,0,0,0-.585-1.2l-2.316,1.128-1.128-2.316A.669.669,0,0,0,3228.582,955.7Z" transform="translate(-2814.833 -873.473)"/><path class="c" d="M3074.8,1139.809a2.911,2.911,0,1,1,2.911-2.911A2.915,2.915,0,0,1,3074.8,1139.809Zm0-4.267a1.355,1.355,0,1,0,1.355,1.355A1.357,1.357,0,0,0,3074.8,1135.542Z" transform="translate(-2703.12 -1002.16)"/><path class="c" d="M1747.9,1300.22a.668.668,0,0,0-.03.945l1.762,1.879-1.879,1.762a.668.668,0,1,0,.915.975l1.879-1.762,1.763,1.879a.668.668,0,0,0,.974-.915l-1.762-1.879,1.879-1.763a.668.668,0,0,0-.915-.975l-1.879,1.763-1.762-1.879A.669.669,0,0,0,1747.9,1300.22Z" transform="translate(-1747.539 -1121.976)"/><path class="c" d="M1844.323,1400.578a2.911,2.911,0,1,1,2.911-2.911A2.914,2.914,0,0,1,1844.323,1400.578Zm0-4.266a1.355,1.355,0,1,0,1.355,1.355A1.357,1.357,0,0,0,1844.323,1396.312Z" transform="translate(-1815.272 -1190.318)"/><g transform="translate(4.153)"><g transform="translate(0 159.593)"><path class="c" d="M1837.485,1375.9a.593.593,0,0,1-.033-1.184c1.954-.11,3.932-.305,5.879-.58a.593.593,0,1,1,.166,1.174c-1.979.279-3.991.478-5.977.589Zm-8.335-.026h-.038c-1.991-.125-4-.336-5.973-.63a.592.592,0,1,1,.174-1.172c1.939.288,3.915.5,5.872.619a.593.593,0,0,1-.036,1.184Zm22.436-2.2a.592.592,0,0,1-.15-1.166c1.9-.5,3.8-1.083,5.644-1.738a.593.593,0,1,1,.4,1.117c-1.877.665-3.807,1.26-5.739,1.767A.591.591,0,0,1,1851.586,1373.673Zm-36.52-.137a.6.6,0,0,1-.156-.021c-1.923-.525-3.848-1.14-5.722-1.826a.592.592,0,1,1,.408-1.113c1.842.675,3.735,1.279,5.626,1.8a.593.593,0,0,1-.156,1.164Zm49.889-4.863a.593.593,0,0,1-.263-1.124c1.757-.87,3.5-1.827,5.175-2.843a.593.593,0,0,1,.614,1.014c-1.7,1.033-3.476,2.006-5.263,2.891A.588.588,0,0,1,1864.954,1368.674Zm-63.209-.274a.593.593,0,0,1-.268-.064c-1.778-.9-3.54-1.89-5.238-2.939a.593.593,0,0,1,.623-1.008c1.67,1.031,3.4,2,5.151,2.89a.593.593,0,0,1-.268,1.121Zm75.282-7.325a.593.593,0,0,1-.365-1.06c1.544-1.208,3.056-2.5,4.494-3.831a.593.593,0,0,1,.806.869c-1.462,1.357-3,2.668-4.571,3.9A.591.591,0,0,1,1877.028,1361.074Zm-87.3-.378a.59.59,0,0,1-.368-.128c-1.563-1.24-3.092-2.562-4.544-3.928a.593.593,0,0,1,.812-.863c1.428,1.343,2.932,2.643,4.469,3.862a.592.592,0,0,1-.369,1.057Zm97.594-9.505a.592.592,0,0,1-.451-.976c1.271-1.495,2.493-3.061,3.634-4.656a.593.593,0,0,1,.964.689c-1.16,1.622-2.4,3.215-3.7,4.734A.591.591,0,0,1,1887.323,1351.191Zm-107.821-.447a.591.591,0,0,1-.455-.212c-1.282-1.529-2.514-3.131-3.661-4.761a.592.592,0,1,1,.969-.682c1.127,1.6,2.339,3.178,3.6,4.682a.592.592,0,0,1-.454.973Zm115.928-11.3a.592.592,0,0,1-.518-.878c.946-1.719,1.83-3.5,2.628-5.29a.593.593,0,0,1,1.083.483c-.811,1.822-1.711,3.631-2.673,5.378A.593.593,0,0,1,1895.429,1339.442Zm-123.941-.509a.592.592,0,0,1-.522-.312c-.946-1.756-1.827-3.574-2.62-5.4a.592.592,0,1,1,1.087-.471c.78,1.8,1.647,3.587,2.577,5.313a.593.593,0,0,1-.521.874Zm129.53-12.628a.593.593,0,0,1-.566-.768c.582-1.874,1.09-3.8,1.51-5.71a.593.593,0,1,1,1.158.254c-.427,1.947-.944,3.9-1.536,5.807A.592.592,0,0,1,1901.018,1326.3Zm-134.984-.561a.593.593,0,0,1-.568-.423c-.57-1.906-1.067-3.863-1.478-5.82a.593.593,0,0,1,1.16-.244c.4,1.924.893,3.85,1.453,5.724a.593.593,0,0,1-.568.763Zm137.807-13.436a.555.555,0,0,1-.058,0,.593.593,0,0,1-.532-.647c.19-1.951.3-3.934.321-5.9a.592.592,0,1,1,1.185.014c-.024,2-.133,4.013-.326,6A.593.593,0,0,1,1903.841,1312.308Zm-140.509-.581a.593.593,0,0,1-.589-.539c-.18-1.989-.277-4.008-.288-6a.593.593,0,0,1,.589-.6h0a.593.593,0,0,1,.592.589c.011,1.959.107,3.944.284,5.9a.592.592,0,0,1-.537.643Zm140.436-13.693a.593.593,0,0,1-.589-.53c-.208-1.945-.5-3.911-.872-5.842l-.015-.075a.593.593,0,0,1,1.163-.226l.015.077c.378,1.965.676,3.963.887,5.941a.592.592,0,0,1-.526.652A.534.534,0,0,1,1903.768,1298.033Zm-140.272-.586a.609.609,0,0,1-.068,0,.593.593,0,0,1-.522-.656c.226-1.982.539-3.978.933-5.934a.593.593,0,1,1,1.162.234c-.387,1.923-.7,3.886-.917,5.834A.593.593,0,0,1,1763.5,1297.447Zm137.323-13.459a.593.593,0,0,1-.565-.413c-.595-1.871-1.276-3.737-2.025-5.547a.593.593,0,1,1,1.095-.453c.762,1.84,1.455,3.738,2.06,5.641a.594.594,0,0,1-.565.772Zm-134.272-.489a.586.586,0,0,1-.185-.03.592.592,0,0,1-.378-.748c.622-1.894,1.333-3.786,2.113-5.622a.593.593,0,0,1,1.091.463c-.767,1.806-1.466,3.666-2.078,5.528A.593.593,0,0,1,1766.547,1283.5Zm128.589-12.6a.592.592,0,0,1-.517-.3c-.96-1.709-2.005-3.4-3.107-5.021a.593.593,0,1,1,.98-.666c1.12,1.65,2.184,3.368,3.16,5.107a.593.593,0,0,1-.516.883Zm-122.788-.44a.593.593,0,0,1-.514-.887c.99-1.731,2.066-3.441,3.2-5.084a.593.593,0,1,1,.976.672c-1.113,1.615-2.171,3.3-3.145,5A.592.592,0,0,1,1772.348,1270.457Zm114.574-11.226a.592.592,0,0,1-.448-.2c-1.285-1.48-2.65-2.924-4.057-4.292a.592.592,0,1,1,.826-.849c1.431,1.391,2.819,2.859,4.126,4.364a.593.593,0,0,1-.447.981Zm-106.277-.389a.592.592,0,0,1-.445-.984c1.317-1.5,2.713-2.959,4.151-4.341a.593.593,0,1,1,.821.854c-1.413,1.359-2.787,2.795-4.082,4.269A.591.591,0,0,1,1780.644,1258.842Zm95.877-9.386a.591.591,0,0,1-.36-.122c-1.558-1.193-3.185-2.334-4.836-3.391a.593.593,0,1,1,.639-1c1.679,1.075,3.334,2.235,4.917,3.448a.593.593,0,0,1-.361,1.063Zm-85.423-.327a.592.592,0,0,1-.358-1.065c1.591-1.2,3.254-2.352,4.94-3.415a.593.593,0,1,1,.632,1c-1.658,1.045-3.293,2.175-4.857,3.358A.591.591,0,0,1,1791.1,1249.128Zm73.274-7.168a.591.591,0,0,1-.258-.06c-1.765-.857-3.587-1.649-5.417-2.354a.593.593,0,1,1,.426-1.106c1.86.717,3.714,1.522,5.509,2.394a.593.593,0,0,1-.259,1.126Zm-61.071-.235a.593.593,0,0,1-.254-1.128c1.8-.855,3.661-1.643,5.53-2.343a.593.593,0,1,1,.416,1.11c-1.837.688-3.667,1.463-5.437,2.3A.587.587,0,0,1,1803.3,1241.725Zm47.665-4.671a.605.605,0,0,1-.146-.018c-1.9-.484-3.846-.892-5.78-1.212a.593.593,0,0,1,.194-1.169c1.967.326,3.945.741,5.879,1.233a.593.593,0,0,1-.146,1.167Zm-34.218-.109a.593.593,0,0,1-.141-1.168c1.178-.289,2.382-.552,3.578-.781.764-.147,1.541-.283,2.309-.405a.593.593,0,0,1,.186,1.171c-.756.12-1.52.254-2.271.4-1.177.226-2.362.485-3.52.769A.61.61,0,0,1,1816.748,1236.945Zm20.093-1.984h-.027c-1.038-.046-2.091-.07-3.129-.07-.921,0-1.855.019-2.777.055a.593.593,0,0,1-.047-1.184c.938-.037,1.888-.056,2.824-.056,1.056,0,2.126.024,3.182.072a.593.593,0,0,1-.026,1.185Z" transform="translate(-1762.454 -1233.705)"/></g><g transform="translate(156.091)"><path class="c" d="M2454.971,908.518q-.512.033-1.023.062a.593.593,0,0,1-.072-1.183h.005c1.937-.109,3.9-.266,5.832-.467a.593.593,0,0,1,.122,1.179C2458.224,908.275,2456.587,908.413,2454.971,908.518Zm-9.242.253h-.045c-1.96-.02-3.946-.087-5.9-.2a.593.593,0,1,1,.068-1.183c1.937.112,3.9.179,5.845.2a.593.593,0,0,1,.033,1.184Zm22.236-1.778a.593.593,0,0,1-.137-1.176c1.917-.327,3.849-.7,5.741-1.119a.593.593,0,0,1,.254,1.158c-1.91.419-3.86.8-5.8,1.13Zm-36.3.83a.6.6,0,0,1-.113,0c-1.946-.244-3.911-.538-5.84-.875a.593.593,0,1,1,.2-1.167c1.911.334,3.857.625,5.784.867a.593.593,0,0,1-.035,1.179Zm50.043-3.984a.593.593,0,0,1-.2-1.161c1.864-.541,3.741-1.135,5.576-1.764a.592.592,0,1,1,.384,1.121c-1.853.636-3.748,1.235-5.63,1.781A.6.6,0,0,1,2481.706,903.839Zm-63.92,1.425a.587.587,0,0,1-.179-.016c-1.906-.466-3.827-.985-5.712-1.543a.593.593,0,0,1,.337-1.136c1.866.553,3.77,1.067,5.657,1.529a.593.593,0,0,1-.1,1.167ZM2495,899.138a.593.593,0,0,1-.268-1.138c1.791-.752,3.586-1.557,5.337-2.392a.593.593,0,1,1,.511,1.07c-1.768.844-3.581,1.656-5.389,2.416A.587.587,0,0,1,2495,899.138Zm-90.709,1.988a.588.588,0,0,1-.244-.036c-1.838-.681-3.687-1.417-5.493-2.186a.593.593,0,1,1,.464-1.09c1.789.762,3.62,1.49,5.441,2.166a.593.593,0,0,1-.168,1.147Zm103.364-8.178a.592.592,0,0,1-.329-1.108c1.688-.95,3.376-1.953,5.018-2.983a.592.592,0,1,1,.629,1c-1.657,1.04-3.362,2.053-5.066,3.012A.587.587,0,0,1,2507.652,892.948Zm-116.294,2.525a.592.592,0,0,1-.306-.063c-1.75-.887-3.5-1.828-5.206-2.8a.593.593,0,0,1,.586-1.031c1.688.96,3.423,1.892,5.156,2.771a.593.593,0,0,1-.23,1.12Zm128.149-10.121a.593.593,0,0,1-.386-1.071c1.57-1.138,3.133-2.328,4.647-3.539a.593.593,0,0,1,.74.926c-1.529,1.223-3.107,2.425-4.692,3.573A.588.588,0,0,1,2519.508,885.353Zm-140.347,3.036a.589.589,0,0,1-.364-.1c-1.637-1.08-3.27-2.213-4.853-3.368a.593.593,0,0,1,.7-.957c1.567,1.144,3.185,2.266,4.806,3.336a.593.593,0,0,1-.289,1.086Zm151.265-11.939a.593.593,0,0,1-.439-1.029c1.43-1.309,2.85-2.671,4.217-4.047a.593.593,0,0,1,.841.835c-1.381,1.39-2.814,2.765-4.258,4.086A.588.588,0,0,1,2530.426,876.449Zm-162.576,3.52a.59.59,0,0,1-.418-.137c-1.5-1.257-3-2.567-4.437-3.894a.592.592,0,1,1,.8-.872c1.428,1.314,2.907,2.612,4.4,3.857a.593.593,0,0,1-.342,1.046Zm172.415-13.611a.593.593,0,0,1-.485-.98c1.274-1.464,2.53-2.979,3.733-4.5a.593.593,0,1,1,.93.735c-1.215,1.537-2.483,3.067-3.769,4.545A.591.591,0,0,1,2540.265,866.358Zm-182.7,3.967a.591.591,0,0,1-.468-.183c-1.35-1.419-2.684-2.889-3.965-4.37a.593.593,0,0,1,.9-.775c1.269,1.467,2.59,2.923,3.927,4.329a.592.592,0,0,1-.391,1ZM2548.9,855.213a.593.593,0,0,1-.526-.927c1.1-1.6,2.178-3.249,3.2-4.9a.593.593,0,0,1,1.007.625c-1.033,1.665-2.12,3.329-3.231,4.945A.591.591,0,0,1,2548.9,855.213Zm-200.447,4.369a.592.592,0,0,1-.512-.234c-1.178-1.562-2.335-3.173-3.439-4.79a.593.593,0,0,1,.979-.668c1.093,1.6,2.239,3.2,3.406,4.744a.593.593,0,0,1-.434.948Zm207.766-16.425a.593.593,0,0,1-.561-.87c.913-1.717,1.8-3.477,2.625-5.232a.593.593,0,0,1,1.072.506c-.836,1.771-1.728,3.549-2.65,5.283A.592.592,0,0,1,2556.22,843.156Zm-215.593,4.718a.592.592,0,0,1-.549-.291c-.992-1.685-1.956-3.417-2.867-5.148a.593.593,0,0,1,1.049-.552c.9,1.714,1.857,3.43,2.839,5.1a.593.593,0,0,1-.472.892Zm221.5-17.534a.593.593,0,0,1-.589-.808c.712-1.811,1.388-3.661,2.011-5.5a.593.593,0,1,1,1.123.38c-.629,1.857-1.312,3.726-2.031,5.554A.593.593,0,0,1,2562.123,830.341Zm-227.932,5a.593.593,0,0,1-.58-.351c-.793-1.792-1.554-3.627-2.262-5.455a.593.593,0,0,1,1.106-.428c.7,1.81,1.454,3.628,2.24,5.4a.593.593,0,0,1-.5.832Zm232.333-18.416a.593.593,0,0,1-.611-.744c.5-1.881.96-3.8,1.368-5.7a.593.593,0,0,1,1.159.249c-.412,1.919-.877,3.855-1.382,5.755A.593.593,0,0,1,2566.524,816.929Zm-237.294,5.219a.592.592,0,0,1-.6-.415c-.583-1.87-1.128-3.78-1.622-5.678a.593.593,0,1,1,1.147-.3c.489,1.88,1.029,3.772,1.606,5.624a.592.592,0,0,1-.528.768ZM2569.356,803.1a.582.582,0,0,1-.124,0,.593.593,0,0,1-.5-.672c.279-1.92.516-3.874.7-5.806a.593.593,0,1,1,1.18.114c-.189,1.951-.428,3.924-.709,5.863A.593.593,0,0,1,2569.356,803.1Zm-243.545,5.367a.593.593,0,0,1-.62-.481c-.366-1.922-.692-3.882-.968-5.826A.593.593,0,0,1,2325.4,802c.274,1.925.6,3.867.959,5.771a.593.593,0,0,1-.471.693A.541.541,0,0,1,2325.811,808.472Zm244.77-19.412c-.019,0-.037,0-.056,0a.592.592,0,0,1-.575-.61c.057-1.939.068-3.907.033-5.848a.593.593,0,1,1,1.185-.021c.035,1.96.024,3.946-.033,5.9A.593.593,0,0,1,2570.581,789.06Zm-246.624,5.432a.593.593,0,0,1-.629-.547q-.052-.693-.1-1.384c-.1-1.5-.168-3.016-.21-4.513a.592.592,0,1,1,1.184-.034c.042,1.483.112,2.987.208,4.47q.044.685.1,1.371a.592.592,0,0,1-.546.636Zm246.236-19.526a.592.592,0,0,1-.628-.542c-.163-1.931-.375-3.888-.629-5.817l-.025-.187a.593.593,0,0,1,1.175-.156l.025.19c.256,1.946.47,3.922.635,5.871a.593.593,0,0,1-.541.64Zm-246.5,5.43a.575.575,0,0,1-.062,0,.592.592,0,0,1-.57-.615c.075-1.959.2-3.942.366-5.894a.593.593,0,1,1,1.181.1c-.167,1.933-.289,3.9-.363,5.838A.592.592,0,0,1,2323.691,780.4Zm244.49-19.578a.593.593,0,0,1-.619-.475c-.382-1.9-.815-3.824-1.287-5.705a.593.593,0,1,1,1.15-.288c.476,1.9.913,3.838,1.3,5.76a.593.593,0,0,1-.464.7A.6.6,0,0,1,2568.181,760.818Zm-243.144,5.545a.593.593,0,0,1-.625-.682c.3-1.942.651-3.9,1.044-5.828a.593.593,0,1,1,1.161.237c-.389,1.907-.737,3.849-1.034,5.771A.593.593,0,0,1,2325.037,766.362Zm239.586-19.186a.593.593,0,0,1-.6-.409c-.6-1.848-1.246-3.705-1.929-5.521a.593.593,0,0,1,1.109-.417c.69,1.834,1.346,3.709,1.948,5.575a.594.594,0,0,1-.526.774Zm-236.631,5.375a.594.594,0,0,1-.61-.749c.521-1.892,1.094-3.8,1.705-5.665a.593.593,0,1,1,1.126.369c-.6,1.849-1.173,3.736-1.689,5.61A.592.592,0,0,1,2327.992,752.551Zm231.538-18.52a.593.593,0,0,1-.578-.346c-.8-1.767-1.663-3.538-2.551-5.264a.593.593,0,0,1,1.054-.542c.9,1.742,1.763,3.53,2.575,5.315a.593.593,0,0,1-.5.837Zm-227.019,5.147a.593.593,0,0,1-.588-.813c.733-1.819,1.521-3.646,2.341-5.429a.593.593,0,0,1,1.077.495c-.812,1.766-1.592,3.576-2.318,5.377A.593.593,0,0,1,2332.511,739.178Zm220.454-17.612a.592.592,0,0,1-.546-.285c-1-1.659-2.053-3.317-3.131-4.927a.593.593,0,1,1,.985-.659c1.089,1.626,2.153,3.3,3.162,4.975a.592.592,0,0,1-.2.813A.586.586,0,0,1,2552.965,721.566Zm-214.44,4.849a.593.593,0,0,1-.558-.874c.935-1.723,1.925-3.447,2.942-5.124a.593.593,0,1,1,1.013.614c-1.007,1.662-1.988,3.37-2.914,5.076A.594.594,0,0,1,2338.525,726.414ZM2545.02,709.94a.592.592,0,0,1-.508-.229c-1.185-1.536-2.421-3.064-3.676-4.542a.593.593,0,1,1,.9-.767c1.267,1.491,2.515,3.034,3.711,4.585a.592.592,0,0,1-.43.953Zm-199.07,4.482a.592.592,0,0,1-.523-.931c1.125-1.605,2.3-3.205,3.5-4.756a.593.593,0,0,1,.938.725c-1.188,1.536-2.355,3.121-3.469,4.711A.592.592,0,0,1,2345.949,714.421Zm189.845-15.132a.591.591,0,0,1-.464-.178c-1.351-1.392-2.755-2.77-4.171-4.1a.592.592,0,1,1,.81-.865c1.43,1.339,2.847,2.731,4.211,4.136a.592.592,0,0,1-.387,1Zm-181.112,4.062a.592.592,0,0,1-.482-.984c1.3-1.467,2.65-2.923,4.017-4.326a.593.593,0,1,1,.849.827c-1.353,1.39-2.692,2.832-3.979,4.285A.589.589,0,0,1,2354.683,703.351Zm170.734-13.6a.591.591,0,0,1-.414-.133c-1.5-1.23-3.052-2.441-4.61-3.6a.593.593,0,0,1,.707-.951c1.573,1.169,3.14,2.392,4.655,3.634a.593.593,0,0,1-.337,1.05Zm-160.806,3.6a.593.593,0,0,1-.435-1.032c1.456-1.31,2.963-2.6,4.479-3.84a.593.593,0,0,1,.75.918c-1.5,1.227-2.995,2.506-4.437,3.8A.59.59,0,0,1,2364.61,693.346Zm149.409-11.9a.59.59,0,0,1-.359-.094c-1.632-1.053-3.311-2.081-4.991-3.055a.593.593,0,0,1,.595-1.025c1.7.984,3.392,2.022,5.039,3.084a.593.593,0,0,1-.283,1.09Zm-138.414,3.092a.592.592,0,0,1-.382-1.074c1.595-1.135,3.238-2.245,4.885-3.3a.593.593,0,0,1,.64,1c-1.631,1.047-3.259,2.147-4.838,3.27A.589.589,0,0,1,2375.606,684.538Zm126.145-10.053a.593.593,0,0,1-.3-.06c-1.741-.861-3.528-1.692-5.309-2.469a.593.593,0,0,1,.474-1.086c1.8.785,3.6,1.624,5.36,2.493a.593.593,0,0,1-.225,1.123Zm-114.223,2.562a.593.593,0,0,1-.325-1.11c1.717-.946,3.479-1.863,5.239-2.725a.593.593,0,1,1,.522,1.064c-1.743.854-3.489,1.762-5.189,2.7A.585.585,0,0,1,2387.528,677.047Zm101.237-8.083a.6.6,0,0,1-.238-.034c-1.831-.657-3.7-1.279-5.56-1.847a.593.593,0,0,1,.347-1.133c1.876.574,3.765,1.2,5.613,1.865a.593.593,0,0,1-.163,1.149Zm-88.519,2a.593.593,0,0,1-.263-1.14c1.813-.742,3.669-1.45,5.518-2.105a.593.593,0,0,1,.4,1.117c-1.83.649-3.669,1.35-5.464,2.085A.591.591,0,0,1,2400.247,670.965Zm74.98-6a.594.594,0,0,1-.173-.014c-1.895-.443-3.826-.846-5.739-1.2a.593.593,0,1,1,.214-1.166c1.932.355,3.881.762,5.794,1.209a.593.593,0,0,1-.1,1.168Zm-61.648,1.418a.593.593,0,0,1-.2-1.162c1.885-.529,3.81-1.021,5.721-1.461a.593.593,0,1,1,.266,1.155c-1.893.436-3.8.923-5.667,1.447A.609.609,0,0,1,2413.578,666.383Zm47.745-3.835a.593.593,0,0,1-.107,0c-1.927-.222-3.887-.4-5.825-.529a.592.592,0,0,1,.079-1.182c1.957.13,3.936.31,5.882.534a.593.593,0,0,1-.029,1.18Zm-33.978.8a.593.593,0,0,1-.132-1.176c1.206-.195,2.434-.375,3.649-.535.731-.1,1.472-.187,2.2-.271a.593.593,0,1,1,.135,1.178c-.723.082-1.457.173-2.181.268-1.2.159-2.42.337-3.615.53Zm19.9-1.606h-.039c-1.938,0-3.906.048-5.847.14a.593.593,0,0,1-.067-1.183h.01c1.96-.094,3.946-.141,5.9-.141a.593.593,0,0,1,.039,1.184Z" transform="translate(-2323.02 -660.56)"/></g></g></g><g transform="translate(1856.869 677.582)"><path class="d" d="M2334.782,778.349V982.215h-.535L2318.813,967.2l-15.435,15.019h-1.607L2286.335,967.2,2270.9,982.215h-1.586L2253.9,967.224,2238.5,982.215h-1.578l-15.425-15.008-15.425,15.008h-1.627l-15.425-15.008-15.425,15.008h-1.609l-15.4-14.98-15.4,14.98h-1.017V721.69h137.95Z" transform="translate(-2140.174 -721.69)"/><path class="c" d="M2692.252,778.349h-56.659V721.69Z" transform="translate(-2497.642 -721.69)"/></g><g transform="translate(1835.856 881.145)"><path class="e" d="M2337.307,1725.343h0a6.864,6.864,0,0,1-9.708,0l-41.676-41.677-5.3-5.3a34.23,34.23,0,0,0,9.707-9.708l46.973,46.973A6.863,6.863,0,0,1,2337.307,1725.343Z" transform="translate(-2220.505 -1608.541)"/><path class="f" d="M2297.918,1676.244l10.86,10.861a34.237,34.237,0,0,1-9.705,9.708h0l-5.564-5.565-5.3-5.3A34.231,34.231,0,0,0,2297.918,1676.244Z" transform="translate(-2225.978 -1614.01)"/><path class="g" d="M2147.474,1492.361a41.4,41.4,0,0,0-82.763,1.785,41.985,41.985,0,0,0,.262,4.682,41.064,41.064,0,0,0,3.962,13.554h0a41.551,41.551,0,0,0,12.629,15.1q1.3.959,2.675,1.817a41.424,41.424,0,0,0,45.89-1.432,0,0,0,0,0,0,0,41.616,41.616,0,0,0,9.707-9.705h0a41.218,41.218,0,0,0,7.674-24.017Q2147.512,1493.249,2147.474,1492.361Zm-41.362,35.82a34,34,0,0,1-34.036-34.035,34.056,34.056,0,0,1,38.477-33.747,34.04,34.04,0,0,1,29.595,33.747q0,.778-.036,1.546a33.856,33.856,0,0,1-5.571,17.175,34.1,34.1,0,0,1-12.641,11.438,33.921,33.921,0,0,1-15.788,3.875Z" transform="translate(-2064.711 -1452.745)"/><g transform="translate(12.449 12.45)"><path class="h" d="M2112.6,1530.15a3.179,3.179,0,0,1-3.178-3.179,29.516,29.516,0,0,1,29.516-29.516,3.179,3.179,0,1,1,0,6.357,23.16,23.16,0,0,0-23.159,23.159A3.179,3.179,0,0,1,2112.6,1530.15Z" transform="translate(-2109.418 -1497.455)"/></g></g></g></g></svg>