<svg xmlns="http://www.w3.org/2000/svg" width="54.527" height="54.527" viewBox="0 0 54.527 54.527">
  <g id="checked_1_" data-name="checked (1)" transform="translate(0.25 0.25)">
    <g id="Group_21214" data-name="Group 21214" transform="translate(15.918 11.065)">
      <g id="Group_21213" data-name="Group 21213">
        <path id="Path_38339" data-name="Path 38339" d="M152.4,64.792a1.583,1.583,0,0,0-2.239,0L131.171,83.735l-6.853-7.442a1.583,1.583,0,1,0-2.33,2.144l7.969,8.654a1.581,1.581,0,0,0,1.134.51h.034a1.584,1.584,0,0,0,1.118-.462L152.4,67.033a1.583,1.583,0,0,0,0-2.24Z" transform="translate(-121.571 -64.329)" fill="#0ea66e" stroke="#0ea66e" stroke-width="1.5"/>
      </g>
    </g>
    <g id="Group_21216" data-name="Group 21216">
      <g id="Group_21215" data-name="Group 21215">
        <path id="Path_38340" data-name="Path 38340" d="M51.991,24.977a2.036,2.036,0,0,0-2.036,2.036A22.941,22.941,0,1,1,27.014,4.072a2.036,2.036,0,1,0,0-4.072A27.014,27.014,0,1,0,54.027,27.014a2.036,2.036,0,0,0-2.036-2.036Z" transform="translate(0 0)" fill="#0ea66e" stroke="#0ea66e" stroke-width="0.5"/>
      </g>
    </g>
  </g>
</svg>
