<svg xmlns="http://www.w3.org/2000/svg" width="18.907" height="18.79" viewBox="0 0 18.907 18.79">
  <g id="check" transform="translate(-5.754 -5.786)">
    <g id="Group_40898" data-name="Group 40898" transform="translate(6.059 6.005)">
      <path id="Path_98685" data-name="Path 98685" d="M15.254,24.425a9.24,9.24,0,0,1-8.28-5.166A9.209,9.209,0,0,1,17.551,6.295.709.709,0,1,1,17.2,7.667a7.792,7.792,0,0,0-8.95,10.97,7.934,7.934,0,0,0,7.218,4.369,7.794,7.794,0,0,0,7.329-9.741.709.709,0,0,1,1.372-.354A9.21,9.21,0,0,1,15.5,24.422l-.25,0Z" transform="translate(-6.059 -6.005)" fill="#fff" stroke="#fff" stroke-width="0.3"/>
    </g>
    <g id="Group_40899" data-name="Group 40899" transform="translate(14.54 7.506)">
      <path id="Path_98686" data-name="Path 98686" d="M30.709,20.159a.708.708,0,0,1-.5-1.209l8.5-8.5a.708.708,0,0,1,1,1l-8.5,8.5a.707.707,0,0,1-.5.208Z" transform="translate(-30 -10.24)" fill="#fff" stroke="#fff" stroke-width="0.3"/>
    </g>
    <g id="Group_40900" data-name="Group 40900" transform="translate(11.534 13.002)">
      <path id="Path_98687" data-name="Path 98687" d="M25.229,30.178a.705.705,0,0,1-.5-.208l-3.006-3.006a.708.708,0,1,1,1-1l3.006,3.006a.708.708,0,0,1-.5,1.209Z" transform="translate(-21.515 -25.755)" fill="#fff" stroke="#fff" stroke-width="0.3"/>
    </g>
  </g>
</svg>
