<svg xmlns="http://www.w3.org/2000/svg" width="20.61" height="20.529" viewBox="0 0 20.61 20.529">
  <g id="Layer_2" data-name="Layer 2" transform="translate(0.484 0.486)" opacity="0.705">
    <g id="Close">
      <path id="Path_19084" data-name="Path 19084" d="M34.4,34.369a1.083,1.083,0,0,1-1.517,0l-5.418-5.393-.759-.755a1.071,1.071,0,0,1,1.517-1.511l.759.755,5.418,5.39A1.071,1.071,0,0,1,34.4,34.369Z" transform="translate(-15.078 -15.124)" fill="#6f7070" stroke="#707070" stroke-width="0.8"/>
      <path id="Path_19085" data-name="Path 19085" d="M19.323.311a1.083,1.083,0,0,0-1.517,0L9.816,8.266,1.831.311a1.08,1.08,0,0,0-1.517,0,1.071,1.071,0,0,0,0,1.511L8.3,9.777.313,17.732a1.065,1.065,0,0,0,0,1.511,1.076,1.076,0,0,0,1.517,0L19.323,1.83a1.068,1.068,0,0,0,0-1.511Z" transform="translate(0.001 0)" fill="#6f7070" stroke="#707070" stroke-width="0.8"/>
    </g>
  </g>
</svg>
