<svg width="1540" height="277" viewBox="0 0 1540 277" fill="none" xmlns="http://www.w3.org/2000/svg">
<rect y="20" width="1534" height="213" rx="14" fill="#F3F9EB"/>
<rect y="20" width="1405" height="213" rx="14" fill="#D3EBCE"/>
<g filter="url(#filter0_d_528_7060)">
<rect x="1264.7" y="75.7734" width="192.237" height="149.231" rx="10.3653" fill="white"/>
<rect x="1264.9" y="75.9728" width="191.838" height="148.832" rx="10.166" stroke="#EEF1FB" stroke-width="0.398666"/>
</g>
<rect x="1276.29" y="183.461" width="169.076" height="21.5385" rx="3.98666" fill="#F0F3FB"/>
<rect x="1297.91" y="191.93" width="140.511" height="4.61539" rx="2.30769" fill="#304FFD"/>
<ellipse cx="1287.1" cy="194.236" rx="6.94833" ry="6.92308" fill="#304FFD"/>
<path d="M1283.62 194.431L1286.13 196.931L1290.57 192.508" stroke="white" stroke-width="1.59466" stroke-linecap="round" stroke-linejoin="round"/>
<rect x="1276.29" y="154.234" width="169.076" height="21.5385" rx="3.98666" fill="#F0F3FB"/>
<rect x="1283.23" y="162.695" width="154.793" height="4.61539" rx="2.30769" fill="#DDE4F1"/>
<rect x="1276.29" y="125" width="169.076" height="21.5385" rx="3.98666" fill="#F0F3FB"/>
<rect x="1283.23" y="133.461" width="154.793" height="4.6154" rx="2.3077" fill="#DDE4F1"/>
<rect x="1276.29" y="95.7734" width="169.076" height="21.5385" rx="3.98666" fill="#F0F3FB"/>
<rect x="1283.23" y="104.234" width="154.793" height="4.61539" rx="2.30769" fill="#DDE4F1"/>
<g filter="url(#filter1_d_528_7060)">
<rect x="1301.76" y="40" width="192.237" height="149.231" rx="10.3653" fill="white"/>
<rect x="1301.96" y="40.1993" width="191.838" height="148.832" rx="10.166" stroke="#EEF1FB" stroke-width="0.398666"/>
</g>
<path d="M1313.34 59.5124C1313.34 55.1088 1316.91 51.5391 1321.31 51.5391H1474.44C1478.84 51.5391 1482.41 55.1088 1482.41 59.5124V111.014C1482.41 113.216 1480.63 115.001 1478.43 115.001H1317.32C1315.12 115.001 1313.34 113.216 1313.34 111.014V59.5124Z" fill="#F0F3FB"/>
<rect x="1313.34" y="123.852" width="169.076" height="21.5385" rx="3.98666" fill="#F0F3FB"/>
<rect x="1334.95" y="132.312" width="140.511" height="4.61539" rx="2.30769" fill="#06B151"/>
<ellipse cx="1324.14" cy="134.618" rx="6.94833" ry="6.92308" fill="#06B151"/>
<path d="M1320.67 134.814L1323.18 137.314L1327.62 132.891" stroke="white" stroke-width="1.59466" stroke-linecap="round" stroke-linejoin="round"/>
<rect x="1313.34" y="154.234" width="169.076" height="21.5385" rx="3.98666" fill="#F0F3FB"/>
<rect x="1320.28" y="162.695" width="154.793" height="4.61539" rx="2.30769" fill="#DDE4F1"/>
<ellipse cx="1399.81" cy="83.0733" rx="17.3708" ry="17.3077" fill="#DDE4F1"/>
<path d="M1405.51 81.6947C1406.58 82.3079 1406.58 83.846 1405.51 84.4592L1398.14 88.697C1397.08 89.3086 1395.75 88.5412 1395.75 87.3147L1395.75 78.8391C1395.75 77.6127 1397.08 76.8453 1398.14 77.4569L1405.51 81.6947Z" fill="white"/>
<path d="M922.173 170.988C921.331 171.305 920.489 171.626 919.646 171.938C912.25 174.679 904.851 177.476 897.134 179.108C888.913 180.846 880.639 182.455 872.101 182.169C866.643 182.001 861.211 181.331 855.876 180.167C850.037 178.877 844.722 176.034 839.747 172.279C838.087 170.995 836.514 169.602 835.039 168.109C834.553 167.627 833.866 166.892 834.231 166.358C834.607 165.808 835.261 166.626 835.719 166.962C840.493 170.461 845.493 173.383 850.987 175.033C854.482 176.007 858.071 176.604 861.693 176.815C867.036 177.367 872.417 177.464 877.777 177.105C881.489 176.768 885.131 176.043 888.808 175.507C895.768 174.495 902.419 172.321 909.1 170.265C911.846 169.419 914.534 168.381 917.377 167.387C916.94 167.2 916.457 167.148 915.991 167.237C912.364 167.277 908.74 167.052 905.146 166.564C903.616 166.361 902.14 165.867 900.796 165.109C900.381 164.765 900.067 164.314 899.889 163.806C899.71 163.297 899.674 162.749 899.784 162.222C899.851 162.051 899.972 161.908 900.128 161.811C900.283 161.715 900.466 161.672 900.648 161.688C901.685 161.63 902.726 161.618 903.765 161.605C911.739 161.507 919.728 161.651 927.682 161.25C928.977 161.125 930.284 161.2 931.556 161.473C931.713 161.492 931.861 161.559 931.978 161.665C932.096 161.772 932.178 161.912 932.212 162.066C932.754 163.991 932.805 165.748 931.431 167.257C928.241 170.761 925.1 174.319 921.956 177.876C919.921 180.181 918.07 182.686 915.841 184.781C915.446 185.15 915.053 185.699 914.481 185.444C913.886 185.177 913.998 184.432 913.913 183.872C913.798 182.825 914.076 181.773 914.695 180.92C916.669 177.814 918.912 174.889 921.4 172.176C921.695 171.852 921.982 171.518 922.272 171.19L922.173 170.988Z" fill="url(#paint0_linear_528_7060)"/>
<g filter="url(#filter2_d_528_7060)">
<path d="M1142.64 100.758H944C940.686 100.758 938 103.442 938 106.752V154.2C938 157.511 940.686 160.195 944 160.195H1142.64C1145.95 160.195 1148.64 157.511 1148.64 154.2V106.752C1148.64 103.442 1145.95 100.758 1142.64 100.758Z" fill="#0FA76F"/>
</g>
<path d="M972.54 136.922C974.16 136.922 975.46 136.482 976.42 135.582C977.38 134.682 977.86 133.622 977.86 132.402C977.86 131.262 977.48 130.322 976.74 129.602C976 128.862 974.66 128.202 972.72 127.622C970.8 127.042 969.82 126.402 969.82 125.222C969.82 123.962 970.92 123.082 972.44 123.082C973.94 123.082 975 123.822 975.6 125.282L977.64 124.182C976.9 122.242 975.14 120.862 972.5 120.862C971.04 120.862 969.82 121.302 968.8 122.182C967.8 123.042 967.3 124.102 967.3 125.362C967.3 126.562 967.7 127.522 968.5 128.222C969.26 128.902 970.48 129.502 972.18 130.042C974.42 130.742 975.32 131.402 975.32 132.542C975.32 133.842 974.18 134.682 972.58 134.682C970.88 134.682 969.52 133.762 968.86 132.082L966.78 133.162C967.66 135.562 969.8 136.922 972.54 136.922ZM980.293 126.062V132.622C980.293 135.182 981.713 136.962 984.293 136.962C985.653 136.962 986.733 136.402 987.553 135.302V136.742H989.873V126.062H987.493V132.002C987.493 133.622 986.533 134.702 985.033 134.702C983.453 134.702 982.673 133.642 982.673 132.042V126.062H980.293ZM1004.21 131.362C1004.21 129.942 1003.73 128.662 1002.75 127.542C1001.79 126.422 1000.53 125.862 998.969 125.862C998.349 125.862 997.689 126.022 996.989 126.342C996.289 126.642 995.789 127.082 995.449 127.642V120.462H993.069V136.742H995.389V135.102C995.729 135.662 996.249 136.102 996.949 136.422C997.649 136.742 998.309 136.902 998.909 136.902C1000.45 136.902 1001.71 136.362 1002.71 135.262C1003.71 134.162 1004.21 132.862 1004.21 131.362ZM996.289 128.982C996.889 128.322 997.669 128.002 998.609 128.002C999.549 128.002 1000.33 128.322 1000.91 128.982C1001.51 129.642 1001.81 130.442 1001.81 131.382C1001.81 132.322 1001.51 133.122 1000.91 133.782C1000.33 134.422 999.549 134.742 998.609 134.742C997.669 134.742 996.889 134.422 996.289 133.782C995.709 133.122 995.409 132.322 995.409 131.382C995.409 130.442 995.709 129.642 996.289 128.982ZM1010.14 136.922C1011.34 136.922 1012.32 136.622 1013.06 136.002C1013.8 135.382 1014.18 134.582 1014.18 133.602C1014.18 131.942 1012.9 130.782 1010.48 130.242C1009.1 129.942 1008.5 129.582 1008.5 128.882C1008.5 128.302 1009.26 127.842 1010 127.842C1011.02 127.842 1011.76 128.322 1012.24 129.282L1014.08 128.242C1013.34 126.642 1012 125.842 1010.08 125.842C1009.04 125.842 1008.14 126.142 1007.36 126.762C1006.58 127.382 1006.2 128.162 1006.2 129.122C1006.2 129.882 1006.46 130.522 1006.96 131.062C1007.54 131.682 1008.44 132.102 1009.62 132.342C1011.08 132.642 1011.82 133.122 1011.82 133.742C1011.82 134.462 1011.04 134.922 1010.14 134.922C1009 134.922 1008.16 134.342 1007.58 133.202L1005.72 134.242C1006.54 136.022 1008.02 136.922 1010.14 136.922ZM1021.56 136.922C1022.86 136.922 1023.92 136.602 1024.74 135.962C1025.56 135.322 1026.14 134.562 1026.44 133.702L1024.36 132.782C1023.86 134.102 1022.94 134.762 1021.6 134.762C1020.7 134.762 1019.94 134.442 1019.34 133.802C1018.74 133.162 1018.44 132.342 1018.44 131.342C1018.44 130.362 1018.74 129.562 1019.34 128.942C1019.96 128.322 1020.7 128.002 1021.58 128.002C1022.94 128.002 1023.86 128.662 1024.32 129.962L1026.36 129.042C1025.72 127.142 1023.96 125.842 1021.56 125.842C1019.98 125.842 1018.66 126.382 1017.6 127.482C1016.54 128.582 1016 129.882 1016 131.382C1016 132.962 1016.54 134.282 1017.6 135.342C1018.66 136.402 1019.98 136.922 1021.56 136.922ZM1034.57 126.022C1034.43 125.982 1034.25 125.962 1033.99 125.962C1032.69 125.962 1031.71 126.562 1031.05 127.762V126.062H1028.73V136.742H1031.11V131.322C1031.11 129.462 1032.07 128.402 1033.89 128.402C1034.15 128.402 1034.37 128.422 1034.57 128.462V126.022ZM1036.66 123.702C1037.28 124.322 1038.24 124.322 1038.86 123.702C1039.48 123.082 1039.48 122.122 1038.86 121.502C1038.24 120.862 1037.28 120.862 1036.66 121.502C1036.04 122.122 1036.04 123.082 1036.66 123.702ZM1038.96 126.062H1036.58V136.742H1038.96V126.062ZM1053.29 131.362C1053.29 129.942 1052.81 128.662 1051.83 127.542C1050.87 126.422 1049.61 125.862 1048.05 125.862C1047.43 125.862 1046.77 126.022 1046.07 126.342C1045.37 126.642 1044.87 127.082 1044.53 127.642V120.462H1042.15V136.742H1044.47V135.102C1044.81 135.662 1045.33 136.102 1046.03 136.422C1046.73 136.742 1047.39 136.902 1047.99 136.902C1049.53 136.902 1050.79 136.362 1051.79 135.262C1052.79 134.162 1053.29 132.862 1053.29 131.362ZM1045.37 128.982C1045.97 128.322 1046.75 128.002 1047.69 128.002C1048.63 128.002 1049.41 128.322 1049.99 128.982C1050.59 129.642 1050.89 130.442 1050.89 131.382C1050.89 132.322 1050.59 133.122 1049.99 133.782C1049.41 134.422 1048.63 134.742 1047.69 134.742C1046.75 134.742 1045.97 134.422 1045.37 133.782C1044.79 133.122 1044.49 132.322 1044.49 131.382C1044.49 130.442 1044.79 129.642 1045.37 128.982ZM1065.58 132.102C1065.6 131.922 1065.62 131.682 1065.62 131.362C1065.62 129.702 1065.16 128.382 1064.24 127.362C1063.32 126.342 1062.04 125.842 1060.42 125.842C1058.88 125.842 1057.6 126.382 1056.58 127.462C1055.56 128.542 1055.04 129.842 1055.04 131.382C1055.04 132.962 1055.58 134.302 1056.64 135.362C1057.72 136.422 1059.06 136.942 1060.64 136.942C1062.56 136.942 1064.3 136.022 1065.2 134.362L1063.48 133.222C1062.9 134.322 1061.94 134.882 1060.6 134.882C1059.78 134.882 1059.06 134.622 1058.44 134.102C1057.82 133.562 1057.5 132.902 1057.48 132.102H1065.58ZM1060.42 127.882C1061.94 127.882 1063.12 128.802 1063.2 130.302H1057.6C1057.82 128.842 1058.96 127.882 1060.42 127.882ZM1084.24 136.742H1086.8V121.082H1084.36V132.622L1076.64 121.082H1073.74V136.742H1076.16V124.682L1084.24 136.742ZM1095.31 125.842C1093.75 125.842 1092.41 126.382 1091.31 127.442C1090.21 128.502 1089.65 129.822 1089.65 131.382C1089.65 132.942 1090.19 134.262 1091.29 135.322C1092.39 136.382 1093.73 136.922 1095.29 136.922C1096.87 136.922 1098.19 136.382 1099.27 135.322C1100.37 134.242 1100.91 132.922 1100.91 131.342C1100.91 129.782 1100.37 128.482 1099.27 127.422C1098.17 126.362 1096.85 125.842 1095.31 125.842ZM1092.97 128.982C1093.57 128.322 1094.35 128.002 1095.29 128.002C1096.23 128.002 1097.01 128.322 1097.59 128.982C1098.19 129.642 1098.49 130.442 1098.49 131.382C1098.49 132.322 1098.19 133.122 1097.61 133.782C1097.03 134.442 1096.25 134.762 1095.31 134.762C1094.37 134.762 1093.59 134.422 1092.99 133.762C1092.39 133.082 1092.09 132.282 1092.09 131.342C1092.09 130.402 1092.39 129.622 1092.97 128.982ZM1116.29 126.062L1114.05 133.622H1114.01L1111.57 126.062H1109.17L1106.75 133.602H1106.73L1104.49 126.062H1101.99L1105.41 136.742H1107.85L1110.33 129.242H1110.37L1112.83 136.742H1115.31L1118.73 126.062H1116.29Z" fill="white"/>
<path opacity="0.15" d="M1143 124.738C1165.09 124.738 1183 106.846 1183 84.7755C1183 62.7045 1165.09 44.8125 1143 44.8125C1120.91 44.8125 1103 62.7045 1103 84.7755C1103 106.846 1120.91 124.738 1143 124.738Z" fill="#56B55C"/>
<path opacity="0.15" d="M1042 208.66C1052.49 208.66 1061 200.161 1061 189.678C1061 179.194 1052.49 170.695 1042 170.695C1031.51 170.695 1023 179.194 1023 189.678C1023 200.161 1031.51 208.66 1042 208.66Z" fill="#56B55C"/>
<mask id="mask0_528_7060" style="mask-type:alpha" maskUnits="userSpaceOnUse" x="0" y="117" width="127" height="116">
<rect y="117" width="127" height="116" rx="14" fill="#C4C4C4"/>
</mask>
<g mask="url(#mask0_528_7060)">
<path d="M25.5 280.595C69.4066 280.595 105 245.035 105 201.169C105 157.303 69.4066 121.742 25.5 121.742C-18.4066 121.742 -54 157.303 -54 201.169C-54 245.035 -18.4066 280.595 25.5 280.595Z" fill="#C0E3BD"/>
</g>
<path d="M414.504 79.2005C415.341 77.7293 416.382 76.3723 417.597 75.166C418.928 73.9555 420.406 72.9024 421.999 72.0294" stroke="#1A987C" stroke-width="3" stroke-linecap="round" stroke-linejoin="round"/>
<path d="M408.966 79.3676C409.198 77.7059 409.661 76.0815 410.344 74.5378C411.134 72.9508 412.119 71.4602 413.28 70.0983" stroke="#1A987C" stroke-width="3.00157" stroke-linecap="round" stroke-linejoin="round"/>
<path d="M31.4932 55.2247C30.6552 53.7535 29.6146 52.3965 28.3992 51.1902C27.0687 49.9797 25.5909 48.9266 23.9977 48.0536" stroke="#1A987C" stroke-width="3" stroke-linecap="round" stroke-linejoin="round"/>
<path d="M37.0242 55.3873C36.7928 53.7257 36.3292 52.1012 35.646 50.5576C34.8567 48.9705 33.871 47.4799 32.7099 46.118" stroke="#1A987C" stroke-width="3.00157" stroke-linecap="round" stroke-linejoin="round"/>
<path d="M54 66.7547C53.45 65.1297 52.4 63.7797 50.85 62.6547C49.3 61.5297 47.4 60.9547 45.175 60.9547C42.45 60.9547 40.125 61.9297 38.15 63.8547C36.175 65.7797 35.2 68.1797 35.2 71.0547C35.2 73.9297 36.125 76.3297 37.975 78.2047C39.825 80.0797 42.225 81.0297 45.15 81.0297C47.925 81.0297 50.125 80.1797 51.775 78.4797C53.45 76.7547 54.275 74.6297 54.275 72.0797V71.0047H43.925V73.8047H50.95C50.475 76.3797 48.425 78.2047 45.125 78.2047C43.175 78.2047 41.575 77.5047 40.3 76.1297C39.025 74.7547 38.4 73.0297 38.4 70.9797C38.4 68.9297 39.05 67.2297 40.325 65.8547C41.625 64.4797 43.225 63.8047 45.15 63.8047C48.25 63.8047 50.25 65.5047 51.275 68.0047L54 66.7547ZM64.6135 67.4047C64.4385 67.3547 64.2135 67.3297 63.8885 67.3297C62.2635 67.3297 61.0385 68.0797 60.2135 69.5797V67.4547H57.3135V80.8047H60.2885V74.0297C60.2885 71.7047 61.4885 70.3797 63.7635 70.3797C64.0885 70.3797 64.3635 70.4047 64.6135 70.4547V67.4047ZM74.5088 71.7547C74.5088 72.5047 74.0838 72.8797 73.2588 72.8797H71.6088C69.2588 72.8797 66.0588 73.8547 66.0588 76.9547V77.1047C66.0588 78.2547 66.4838 79.2047 67.3338 79.9297C68.1838 80.6547 69.2588 81.0297 70.5588 81.0297C72.3588 81.0297 73.6588 80.3547 74.4838 78.9797V80.8047H77.4088V72.3047C77.4088 71.3797 77.2588 70.5797 76.9588 69.9047C76.1338 68.0797 74.4588 67.1797 71.9588 67.1797C69.2338 67.1797 67.3338 68.3047 66.2838 70.5797L68.5588 71.8797C69.2338 70.4547 70.3588 69.7547 71.8838 69.7547C73.5588 69.7547 74.5088 70.6547 74.5088 71.7547ZM74.4838 75.4047C74.4838 77.4047 73.1838 78.6547 71.1588 78.6547C69.8838 78.6547 69.0338 77.9297 69.0338 76.8297C69.0338 76.2547 69.3088 75.8047 69.8338 75.4797C70.3838 75.1547 70.9838 74.9797 71.6088 74.9797H74.4838V75.4047ZM95.1887 74.0797C95.1887 72.3047 94.5887 70.7047 93.3637 69.3047C92.1637 67.9047 90.5887 67.2047 88.6387 67.2047C87.8637 67.2047 87.0387 67.4047 86.1637 67.8047C85.2887 68.1797 84.6637 68.7297 84.2387 69.4297V60.4547H81.2637V80.8047H84.1637V78.7547C84.5887 79.4547 85.2387 80.0047 86.1137 80.4047C86.9887 80.8047 87.8137 81.0047 88.5637 81.0047C90.4887 81.0047 92.0637 80.3297 93.3137 78.9547C94.5637 77.5797 95.1887 75.9547 95.1887 74.0797ZM85.2887 71.1047C86.0387 70.2797 87.0137 69.8797 88.1887 69.8797C89.3637 69.8797 90.3387 70.2797 91.0637 71.1047C91.8137 71.9297 92.1887 72.9297 92.1887 74.1047C92.1887 75.2797 91.8137 76.2797 91.0637 77.1047C90.3387 77.9047 89.3637 78.3047 88.1887 78.3047C87.0137 78.3047 86.0387 77.9047 85.2887 77.1047C84.5637 76.2797 84.1887 75.2797 84.1887 74.1047C84.1887 72.9297 84.5637 71.9297 85.2887 71.1047ZM112.205 74.0797C112.205 72.3047 111.605 70.7047 110.38 69.3047C109.18 67.9047 107.605 67.2047 105.655 67.2047C104.88 67.2047 104.055 67.4047 103.18 67.8047C102.305 68.1797 101.68 68.7297 101.255 69.4297V60.4547H98.2803V80.8047H101.18V78.7547C101.605 79.4547 102.255 80.0047 103.13 80.4047C104.005 80.8047 104.83 81.0047 105.58 81.0047C107.505 81.0047 109.08 80.3297 110.33 78.9547C111.58 77.5797 112.205 75.9547 112.205 74.0797ZM102.305 71.1047C103.055 70.2797 104.03 69.8797 105.205 69.8797C106.38 69.8797 107.355 70.2797 108.08 71.1047C108.83 71.9297 109.205 72.9297 109.205 74.1047C109.205 75.2797 108.83 76.2797 108.08 77.1047C107.355 77.9047 106.38 78.3047 105.205 78.3047C104.03 78.3047 103.055 77.9047 102.305 77.1047C101.58 76.2797 101.205 75.2797 101.205 74.1047C101.205 72.9297 101.58 71.9297 102.305 71.1047ZM129.222 74.0797C129.222 72.3047 128.622 70.7047 127.397 69.3047C126.197 67.9047 124.622 67.2047 122.672 67.2047C121.897 67.2047 121.072 67.4047 120.197 67.8047C119.322 68.1797 118.697 68.7297 118.272 69.4297V60.4547H115.297V80.8047H118.197V78.7547C118.622 79.4547 119.272 80.0047 120.147 80.4047C121.022 80.8047 121.847 81.0047 122.597 81.0047C124.522 81.0047 126.097 80.3297 127.347 78.9547C128.597 77.5797 129.222 75.9547 129.222 74.0797ZM119.322 71.1047C120.072 70.2797 121.047 69.8797 122.222 69.8797C123.397 69.8797 124.372 70.2797 125.097 71.1047C125.847 71.9297 126.222 72.9297 126.222 74.1047C126.222 75.2797 125.847 76.2797 125.097 77.1047C124.372 77.9047 123.397 78.3047 122.222 78.3047C121.047 78.3047 120.072 77.9047 119.322 77.1047C118.597 76.2797 118.222 75.2797 118.222 74.1047C118.222 72.9297 118.597 71.9297 119.322 71.1047ZM138.105 71.0547C138.105 73.9297 139.08 76.3047 141.005 78.2047C142.93 80.0797 145.305 81.0297 148.105 81.0297C150.905 81.0297 153.28 80.0797 155.255 78.1547C157.23 76.2297 158.205 73.8297 158.205 70.9797C158.205 68.1297 157.23 65.7547 155.28 63.8297C153.355 61.9047 150.98 60.9547 148.18 60.9547C145.405 60.9547 143.03 61.9297 141.055 63.8797C139.08 65.8297 138.105 68.2297 138.105 71.0547ZM148.155 78.1797C146.23 78.1797 144.63 77.4797 143.305 76.0797C141.98 74.6797 141.33 72.9797 141.33 70.9797C141.33 68.9797 141.98 67.2797 143.305 65.9047C144.63 64.5047 146.23 63.8047 148.155 63.8047C150.055 63.8047 151.655 64.5047 152.98 65.9047C154.305 67.2797 154.98 68.9797 154.98 70.9797C154.98 72.9797 154.305 74.6797 152.98 76.0797C151.655 77.4797 150.055 78.1797 148.155 78.1797ZM161.265 67.4547V75.6547C161.265 78.8547 163.04 81.0797 166.265 81.0797C167.965 81.0797 169.315 80.3797 170.34 79.0047V80.8047H173.24V67.4547H170.265V74.8797C170.265 76.9047 169.065 78.2547 167.19 78.2547C165.215 78.2547 164.24 76.9297 164.24 74.9297V67.4547H161.265ZM184.535 67.4047C184.36 67.3547 184.135 67.3297 183.81 67.3297C182.185 67.3297 180.96 68.0797 180.135 69.5797V67.4547H177.235V80.8047H180.21V74.0297C180.21 71.7047 181.41 70.3797 183.685 70.3797C184.01 70.3797 184.285 70.4047 184.535 70.4547V67.4047Z" fill="#003C3C"/>
<path d="M199.109 81.0297C201.134 81.0297 202.759 80.4797 203.959 79.3547C205.159 78.2297 205.759 76.9047 205.759 75.3797C205.759 73.9547 205.284 72.7797 204.359 71.8797C203.434 70.9547 201.759 70.1297 199.334 69.4047C196.934 68.6797 195.709 67.8797 195.709 66.4047C195.709 64.8297 197.084 63.7297 198.984 63.7297C200.859 63.7297 202.184 64.6547 202.934 66.4797L205.484 65.1047C204.559 62.6797 202.359 60.9547 199.059 60.9547C197.234 60.9547 195.709 61.5047 194.434 62.6047C193.184 63.6797 192.559 65.0047 192.559 66.5797C192.559 68.0797 193.059 69.2797 194.059 70.1547C195.009 71.0047 196.534 71.7547 198.659 72.4297C201.459 73.3047 202.584 74.1297 202.584 75.5547C202.584 77.1797 201.159 78.2297 199.159 78.2297C197.034 78.2297 195.334 77.0797 194.509 74.9797L191.909 76.3297C193.009 79.3297 195.684 81.0297 199.109 81.0297ZM208.799 67.4547V75.6547C208.799 78.8547 210.574 81.0797 213.799 81.0797C215.499 81.0797 216.849 80.3797 217.874 79.0047V80.8047H220.774V67.4547H217.799V74.8797C217.799 76.9047 216.599 78.2547 214.724 78.2547C212.749 78.2547 211.774 76.9297 211.774 74.9297V67.4547H208.799ZM238.695 74.0797C238.695 72.3047 238.095 70.7047 236.87 69.3047C235.67 67.9047 234.095 67.2047 232.145 67.2047C231.37 67.2047 230.545 67.4047 229.67 67.8047C228.795 68.1797 228.17 68.7297 227.745 69.4297V60.4547H224.77V80.8047H227.67V78.7547C228.095 79.4547 228.745 80.0047 229.62 80.4047C230.495 80.8047 231.32 81.0047 232.07 81.0047C233.995 81.0047 235.57 80.3297 236.82 78.9547C238.07 77.5797 238.695 75.9547 238.695 74.0797ZM228.795 71.1047C229.545 70.2797 230.52 69.8797 231.695 69.8797C232.87 69.8797 233.845 70.2797 234.57 71.1047C235.32 71.9297 235.695 72.9297 235.695 74.1047C235.695 75.2797 235.32 76.2797 234.57 77.1047C233.845 77.9047 232.87 78.3047 231.695 78.3047C230.52 78.3047 229.545 77.9047 228.795 77.1047C228.07 76.2797 227.695 75.2797 227.695 74.1047C227.695 72.9297 228.07 71.9297 228.795 71.1047ZM246.111 81.0297C247.611 81.0297 248.836 80.6547 249.761 79.8797C250.686 79.1047 251.161 78.1047 251.161 76.8797C251.161 74.8047 249.561 73.3547 246.536 72.6797C244.811 72.3047 244.061 71.8547 244.061 70.9797C244.061 70.2547 245.011 69.6797 245.936 69.6797C247.211 69.6797 248.136 70.2797 248.736 71.4797L251.036 70.1797C250.111 68.1797 248.436 67.1797 246.036 67.1797C244.736 67.1797 243.611 67.5547 242.636 68.3297C241.661 69.1047 241.186 70.0797 241.186 71.2797C241.186 72.2297 241.511 73.0297 242.136 73.7047C242.861 74.4797 243.986 75.0047 245.461 75.3047C247.286 75.6797 248.211 76.2797 248.211 77.0547C248.211 77.9547 247.236 78.5297 246.111 78.5297C244.686 78.5297 243.636 77.8047 242.911 76.3797L240.586 77.6797C241.611 79.9047 243.461 81.0297 246.111 81.0297ZM260.385 81.0297C262.01 81.0297 263.335 80.6297 264.36 79.8297C265.385 79.0297 266.11 78.0797 266.485 77.0047L263.885 75.8547C263.26 77.5047 262.11 78.3297 260.435 78.3297C259.31 78.3297 258.36 77.9297 257.61 77.1297C256.86 76.3297 256.485 75.3047 256.485 74.0547C256.485 72.8297 256.86 71.8297 257.61 71.0547C258.385 70.2797 259.31 69.8797 260.41 69.8797C262.11 69.8797 263.26 70.7047 263.835 72.3297L266.385 71.1797C265.585 68.8047 263.385 67.1797 260.385 67.1797C258.41 67.1797 256.76 67.8547 255.435 69.2297C254.11 70.6047 253.435 72.2297 253.435 74.1047C253.435 76.0797 254.11 77.7297 255.435 79.0547C256.76 80.3797 258.41 81.0297 260.385 81.0297ZM276.65 67.4047C276.475 67.3547 276.25 67.3297 275.925 67.3297C274.3 67.3297 273.075 68.0797 272.25 69.5797V67.4547H269.35V80.8047H272.325V74.0297C272.325 71.7047 273.525 70.3797 275.8 70.3797C276.125 70.3797 276.4 70.4047 276.65 70.4547V67.4047ZM279.264 64.5047C280.039 65.2797 281.239 65.2797 282.014 64.5047C282.789 63.7297 282.789 62.5297 282.014 61.7547C281.239 60.9547 280.039 60.9547 279.264 61.7547C278.489 62.5297 278.489 63.7297 279.264 64.5047ZM282.139 67.4547H279.164V80.8047H282.139V67.4547ZM300.047 74.0797C300.047 72.3047 299.447 70.7047 298.222 69.3047C297.022 67.9047 295.447 67.2047 293.497 67.2047C292.747 67.2047 291.947 67.3797 291.072 67.7547C290.197 68.1297 289.522 68.7047 289.022 69.5297V67.4547H286.122V87.3797H289.097V78.8547C289.572 79.5797 290.222 80.1047 291.097 80.4797C291.972 80.8297 292.747 81.0047 293.422 81.0047C295.347 81.0047 296.922 80.3297 298.172 78.9547C299.422 77.5797 300.047 75.9547 300.047 74.0797ZM290.147 71.1047C290.897 70.2797 291.872 69.8797 293.047 69.8797C294.222 69.8797 295.197 70.2797 295.922 71.1047C296.672 71.9297 297.047 72.9297 297.047 74.1047C297.047 75.2797 296.672 76.2797 295.922 77.1047C295.197 77.9047 294.222 78.3047 293.047 78.3047C291.872 78.3047 290.897 77.9047 290.147 77.1047C289.422 76.2797 289.047 75.2797 289.047 74.1047C289.047 72.9297 289.422 71.9297 290.147 71.1047ZM303.239 64.5047C304.014 65.2797 305.214 65.2797 305.989 64.5047C306.764 63.7297 306.764 62.5297 305.989 61.7547C305.214 60.9547 304.014 60.9547 303.239 61.7547C302.464 62.5297 302.464 63.7297 303.239 64.5047ZM306.114 67.4547H303.139V80.8047H306.114V67.4547ZM316.247 67.1797C314.297 67.1797 312.622 67.8547 311.247 69.1797C309.872 70.5047 309.172 72.1547 309.172 74.1047C309.172 76.0547 309.847 77.7047 311.222 79.0297C312.597 80.3547 314.272 81.0297 316.222 81.0297C318.197 81.0297 319.847 80.3547 321.197 79.0297C322.572 77.6797 323.247 76.0297 323.247 74.0547C323.247 72.1047 322.572 70.4797 321.197 69.1547C319.822 67.8297 318.172 67.1797 316.247 67.1797ZM313.322 71.1047C314.072 70.2797 315.047 69.8797 316.222 69.8797C317.397 69.8797 318.372 70.2797 319.097 71.1047C319.847 71.9297 320.222 72.9297 320.222 74.1047C320.222 75.2797 319.847 76.2797 319.122 77.1047C318.397 77.9297 317.422 78.3297 316.247 78.3297C315.072 78.3297 314.097 77.9047 313.347 77.0797C312.597 76.2297 312.222 75.2297 312.222 74.0547C312.222 72.8797 312.597 71.9047 313.322 71.1047ZM338.331 80.8047V72.5797C338.331 69.3797 336.606 67.1797 333.331 67.1797C331.631 67.1797 330.281 67.8797 329.256 69.2547V67.4547H326.356V80.8047H329.331V73.3797C329.331 71.3547 330.531 70.0047 332.406 70.0047C334.381 70.0047 335.356 71.3297 335.356 73.3297V80.8047H338.331ZM363.044 67.3047C363.044 65.6297 362.469 64.1797 361.319 63.0047C360.194 61.8297 358.469 61.2297 356.194 61.2297H349.269V80.8047H352.344V73.5547H355.819C358.094 73.5547 359.844 72.9547 361.119 71.7797C362.394 70.5797 363.044 69.0797 363.044 67.3047ZM355.919 64.0797C357.369 64.0797 358.394 64.4047 358.994 65.0547C359.619 65.7047 359.919 66.4797 359.919 67.3797C359.919 69.1797 358.644 70.7297 355.919 70.7297H352.344V64.0797H355.919ZM365.834 80.8047H368.809V60.4547H365.834V80.8047ZM380.417 71.7547C380.417 72.5047 379.992 72.8797 379.167 72.8797H377.517C375.167 72.8797 371.967 73.8547 371.967 76.9547V77.1047C371.967 78.2547 372.392 79.2047 373.242 79.9297C374.092 80.6547 375.167 81.0297 376.467 81.0297C378.267 81.0297 379.567 80.3547 380.392 78.9797V80.8047H383.317V72.3047C383.317 71.3797 383.167 70.5797 382.867 69.9047C382.042 68.0797 380.367 67.1797 377.867 67.1797C375.142 67.1797 373.242 68.3047 372.192 70.5797L374.467 71.8797C375.142 70.4547 376.267 69.7547 377.792 69.7547C379.467 69.7547 380.417 70.6547 380.417 71.7547ZM380.392 75.4047C380.392 77.4047 379.092 78.6547 377.067 78.6547C375.792 78.6547 374.942 77.9297 374.942 76.8297C374.942 76.2547 375.217 75.8047 375.742 75.4797C376.292 75.1547 376.892 74.9797 377.517 74.9797H380.392V75.4047ZM399.147 80.8047V72.5797C399.147 69.3797 397.422 67.1797 394.147 67.1797C392.447 67.1797 391.097 67.8797 390.072 69.2547V67.4547H387.172V80.8047H390.147V73.3797C390.147 71.3547 391.347 70.0047 393.222 70.0047C395.197 70.0047 396.172 71.3297 396.172 73.3297V80.8047H399.147Z" fill="#1A987C"/>
<path opacity="0.7" d="M38.528 111.766H39.856V100.47H44.032V99.2376H34.336V100.47H38.528V111.766ZM53.191 111.766V106.486C53.191 104.438 52.007 103.062 49.959 103.062C48.695 103.062 47.719 103.622 47.031 104.758V98.7416H45.783V111.766H47.031V106.902C47.031 106.134 47.271 105.494 47.751 104.982C48.231 104.454 48.839 104.198 49.575 104.198C51.111 104.198 51.943 105.206 51.943 106.79V111.766H53.191ZM55.8924 103.222V111.766H57.1404V107.59C57.1404 106.71 57.3484 105.974 57.7804 105.35C58.2124 104.726 58.8844 104.406 59.8124 104.406C59.9244 104.406 60.0844 104.422 60.2924 104.438V103.11C60.2284 103.094 60.0844 103.094 59.8764 103.094C58.7884 103.094 57.7164 103.686 57.1244 104.918V103.222H55.8924ZM65.4496 111.91C66.6976 111.91 67.7536 111.478 68.6016 110.63C69.4496 109.782 69.8816 108.726 69.8816 107.462C69.8816 106.23 69.4496 105.206 68.6016 104.358C67.7536 103.51 66.7136 103.078 65.4816 103.078C64.2176 103.078 63.1616 103.51 62.3136 104.358C61.4656 105.206 61.0496 106.262 61.0496 107.526C61.0496 108.742 61.4656 109.782 62.3136 110.63C63.1616 111.478 64.2176 111.91 65.4496 111.91ZM65.4816 110.806C64.5696 110.806 63.8016 110.486 63.2096 109.83C62.6176 109.174 62.3296 108.374 62.3296 107.462C62.3296 106.55 62.6176 105.766 63.2096 105.126C63.8016 104.486 64.5376 104.166 65.4496 104.166C66.3616 104.166 67.1136 104.502 67.7056 105.158C68.2976 105.814 68.6016 106.614 68.6016 107.526C68.6016 108.438 68.2976 109.206 67.7056 109.846C67.1136 110.486 66.3776 110.806 65.4816 110.806ZM71.9839 103.222V108.502C71.9839 110.55 73.1679 111.926 75.2159 111.926C76.5119 111.926 77.4879 111.35 78.1439 110.198V111.766H79.3599V103.222H78.1279V108.102C78.1279 108.87 77.8879 109.51 77.4079 110.022C76.9279 110.534 76.3199 110.79 75.5839 110.79C74.0479 110.79 73.2159 109.782 73.2159 108.198V103.222H71.9839ZM88.8933 111.846C88.8933 113.942 87.6293 114.95 85.8373 114.95C84.8932 114.95 84.1413 114.662 83.6453 114.15C83.1493 113.638 82.9093 113.286 82.6373 112.694L81.6293 113.286C82.4453 115.126 83.8533 116.038 85.8533 116.038C88.4933 116.038 90.1413 114.502 90.1413 111.798V103.222H88.9093V105.014C88.0453 103.718 86.9413 103.078 85.5813 103.078C84.4133 103.078 83.4533 103.51 82.7013 104.39C81.9493 105.27 81.5813 106.278 81.5813 107.446C81.5813 108.646 81.9493 109.686 82.6853 110.534C83.4213 111.382 84.3813 111.798 85.5813 111.798C87.0053 111.798 88.1093 111.158 88.8933 109.862V111.846ZM85.8373 110.71C84.9253 110.71 84.2053 110.406 83.6613 109.782C83.1332 109.158 82.8613 108.39 82.8613 107.478C82.8613 106.534 83.1332 105.75 83.6613 105.126C84.1893 104.502 84.9253 104.182 85.8373 104.182C86.7013 104.182 87.4213 104.502 88.0133 105.158C88.6053 105.814 88.9093 106.566 88.9093 107.43C88.9093 108.326 88.6213 109.094 88.0293 109.75C87.4533 110.39 86.7173 110.71 85.8373 110.71ZM100.363 111.766V106.486C100.363 104.438 99.1789 103.062 97.1309 103.062C95.8669 103.062 94.8909 103.622 94.2029 104.758V98.7416H92.9549V111.766H94.2029V106.902C94.2029 106.134 94.4429 105.494 94.9229 104.982C95.4029 104.454 96.0109 104.198 96.7469 104.198C98.2829 104.198 99.1149 105.206 99.1149 106.79V111.766H100.363ZM109.181 111.766V106.87H111.837C113.293 106.87 114.429 106.502 115.245 105.782C116.061 105.046 116.461 104.118 116.461 102.998C116.461 101.942 116.093 101.046 115.341 100.326C114.589 99.6056 113.501 99.2376 112.061 99.2376H107.869V111.766H109.181ZM109.181 100.47H111.949C113.085 100.47 113.885 100.726 114.381 101.222C114.877 101.718 115.117 102.326 115.117 103.046C115.117 103.75 114.845 104.358 114.301 104.886C113.757 105.398 112.957 105.654 111.885 105.654H109.181V100.47ZM118.424 103.222V111.766H119.672V107.59C119.672 106.71 119.88 105.974 120.312 105.35C120.744 104.726 121.416 104.406 122.344 104.406C122.456 104.406 122.616 104.422 122.824 104.438V103.11C122.76 103.094 122.616 103.094 122.408 103.094C121.32 103.094 120.248 103.686 119.656 104.918V103.222H118.424ZM124.198 100.166C124.198 100.678 124.614 101.094 125.126 101.094C125.654 101.094 126.07 100.678 126.07 100.166C126.07 99.6376 125.654 99.2216 125.126 99.2216C124.614 99.2216 124.198 99.6376 124.198 100.166ZM125.766 103.222H124.502V111.766H125.766V103.222ZM135.636 111.766V106.854C135.636 106.102 135.844 105.478 136.276 104.982C136.708 104.47 137.284 104.214 138.004 104.214C139.492 104.214 140.212 105.254 140.212 106.79V111.766H141.46V106.486C141.46 104.438 140.308 103.078 138.308 103.078C137.044 103.078 136.036 103.638 135.3 104.774C134.772 103.638 133.86 103.062 132.564 103.062C131.348 103.062 130.532 103.606 129.812 104.71V103.222H128.58V111.766H129.828V106.902C129.828 106.166 130.036 105.526 130.468 104.998C130.9 104.47 131.476 104.198 132.196 104.198C133.668 104.198 134.404 105.27 134.404 106.758V111.766H135.636ZM151.726 107.878C151.742 107.798 151.742 107.654 151.742 107.462C151.742 106.166 151.39 105.126 150.686 104.31C149.982 103.494 148.99 103.078 147.71 103.078C146.542 103.078 145.55 103.51 144.75 104.39C143.95 105.27 143.55 106.294 143.55 107.478C143.55 108.71 143.966 109.766 144.798 110.63C145.63 111.478 146.654 111.91 147.886 111.91C149.422 111.91 150.782 111.11 151.502 109.702L150.574 109.094C150.078 110.118 149.07 110.806 147.87 110.806C147.038 110.806 146.334 110.534 145.758 109.974C145.182 109.414 144.862 108.71 144.814 107.878H151.726ZM144.83 106.822C144.942 106.086 145.262 105.462 145.806 104.95C146.35 104.422 146.99 104.166 147.71 104.166C149.31 104.166 150.302 105.222 150.478 106.822H144.83ZM160.009 111.766V106.87H162.665C164.121 106.87 165.257 106.502 166.073 105.782C166.889 105.046 167.289 104.118 167.289 102.998C167.289 101.942 166.921 101.046 166.169 100.326C165.417 99.6056 164.329 99.2376 162.889 99.2376H158.697V111.766H160.009ZM160.009 100.47H162.777C163.913 100.47 164.713 100.726 165.209 101.222C165.705 101.718 165.945 102.326 165.945 103.046C165.945 103.75 165.673 104.358 165.129 104.886C164.585 105.398 163.785 105.654 162.713 105.654H160.009V100.47ZM169.252 103.222V111.766H170.5V107.59C170.5 106.71 170.708 105.974 171.14 105.35C171.572 104.726 172.244 104.406 173.172 104.406C173.284 104.406 173.444 104.422 173.652 104.438V103.11C173.588 103.094 173.444 103.094 173.236 103.094C172.148 103.094 171.076 103.686 170.484 104.918V103.222H169.252ZM178.809 111.91C180.057 111.91 181.113 111.478 181.961 110.63C182.809 109.782 183.241 108.726 183.241 107.462C183.241 106.23 182.809 105.206 181.961 104.358C181.113 103.51 180.073 103.078 178.841 103.078C177.577 103.078 176.521 103.51 175.673 104.358C174.825 105.206 174.409 106.262 174.409 107.526C174.409 108.742 174.825 109.782 175.673 110.63C176.521 111.478 177.577 111.91 178.809 111.91ZM178.841 110.806C177.929 110.806 177.161 110.486 176.569 109.83C175.977 109.174 175.689 108.374 175.689 107.462C175.689 106.55 175.977 105.766 176.569 105.126C177.161 104.486 177.897 104.166 178.809 104.166C179.721 104.166 180.473 104.502 181.065 105.158C181.657 105.814 181.961 106.614 181.961 107.526C181.961 108.438 181.657 109.206 181.065 109.846C180.473 110.486 179.737 110.806 178.841 110.806ZM192.143 111.846C192.143 113.942 190.879 114.95 189.087 114.95C188.143 114.95 187.391 114.662 186.895 114.15C186.399 113.638 186.159 113.286 185.887 112.694L184.879 113.286C185.695 115.126 187.103 116.038 189.103 116.038C191.743 116.038 193.391 114.502 193.391 111.798V103.222H192.159V105.014C191.295 103.718 190.191 103.078 188.831 103.078C187.663 103.078 186.703 103.51 185.951 104.39C185.199 105.27 184.831 106.278 184.831 107.446C184.831 108.646 185.199 109.686 185.935 110.534C186.671 111.382 187.631 111.798 188.831 111.798C190.255 111.798 191.359 111.158 192.143 109.862V111.846ZM189.087 110.71C188.175 110.71 187.455 110.406 186.911 109.782C186.383 109.158 186.111 108.39 186.111 107.478C186.111 106.534 186.383 105.75 186.911 105.126C187.439 104.502 188.175 104.182 189.087 104.182C189.951 104.182 190.671 104.502 191.263 105.158C191.855 105.814 192.159 106.566 192.159 107.43C192.159 108.326 191.871 109.094 191.279 109.75C190.703 110.39 189.967 110.71 189.087 110.71ZM196.205 103.222V111.766H197.453V107.59C197.453 106.71 197.661 105.974 198.093 105.35C198.525 104.726 199.197 104.406 200.125 104.406C200.237 104.406 200.397 104.422 200.605 104.438V103.11C200.541 103.094 200.397 103.094 200.189 103.094C199.101 103.094 198.029 103.686 197.437 104.918V103.222H196.205ZM204.864 106.838C203.968 106.838 203.184 107.046 202.496 107.446C201.824 107.846 201.488 108.454 201.488 109.302V109.398C201.488 110.118 201.744 110.726 202.272 111.206C202.8 111.67 203.504 111.91 204.352 111.91C205.568 111.91 206.528 111.366 207.232 110.262H207.248V111.766H208.464V106.246C208.464 105.718 208.384 105.254 208.208 104.838C207.696 103.67 206.656 103.078 205.088 103.078C203.392 103.078 202.224 103.814 201.584 105.286L202.608 105.862C203.136 104.742 203.952 104.182 205.056 104.182C206.512 104.182 207.232 104.87 207.232 106.262V106.838H204.864ZM207.232 108.166C207.232 108.95 206.976 109.574 206.48 110.07C205.984 110.566 205.344 110.806 204.576 110.806C203.504 110.806 202.736 110.246 202.736 109.302C202.784 108.182 203.872 107.846 204.848 107.862H207.232V108.166ZM218.23 111.766V106.854C218.23 106.102 218.438 105.478 218.87 104.982C219.302 104.47 219.878 104.214 220.598 104.214C222.086 104.214 222.806 105.254 222.806 106.79V111.766H224.054V106.486C224.054 104.438 222.902 103.078 220.902 103.078C219.638 103.078 218.63 103.638 217.894 104.774C217.366 103.638 216.454 103.062 215.158 103.062C213.942 103.062 213.126 103.606 212.406 104.71V103.222H211.174V111.766H212.422V106.902C212.422 106.166 212.63 105.526 213.062 104.998C213.494 104.47 214.07 104.198 214.79 104.198C216.262 104.198 216.998 105.27 216.998 106.758V111.766H218.23ZM227.119 114.214C228.255 113.398 228.831 112.406 228.831 111.238V111.174C228.831 110.23 228.319 109.606 227.567 109.606C226.943 109.606 226.447 110.102 226.447 110.742C226.447 111.382 226.879 111.798 227.503 111.798C227.631 111.798 227.759 111.766 227.887 111.718C227.791 112.374 227.327 113.014 226.495 113.638L227.119 114.214ZM237.686 111.766H239.062L241.334 104.822H241.35L243.606 111.766H244.998L247.878 103.222H246.582L244.326 110.326H244.31L241.974 103.222H240.726L238.406 110.31H238.39L236.15 103.222H234.822L237.686 111.766ZM257.069 107.878C257.085 107.798 257.085 107.654 257.085 107.462C257.085 106.166 256.733 105.126 256.029 104.31C255.325 103.494 254.333 103.078 253.053 103.078C251.885 103.078 250.893 103.51 250.093 104.39C249.293 105.27 248.893 106.294 248.893 107.478C248.893 108.71 249.309 109.766 250.141 110.63C250.973 111.478 251.997 111.91 253.229 111.91C254.765 111.91 256.125 111.11 256.845 109.702L255.917 109.094C255.421 110.118 254.413 110.806 253.213 110.806C252.381 110.806 251.677 110.534 251.101 109.974C250.525 109.414 250.205 108.71 250.157 107.878H257.069ZM250.173 106.822C250.285 106.086 250.605 105.462 251.149 104.95C251.693 104.422 252.333 104.166 253.053 104.166C254.653 104.166 255.645 105.222 255.821 106.822H250.173ZM267.481 111.91C268.729 111.91 269.785 111.478 270.633 110.63C271.481 109.782 271.913 108.726 271.913 107.462C271.913 106.23 271.481 105.206 270.633 104.358C269.785 103.51 268.745 103.078 267.513 103.078C266.249 103.078 265.193 103.51 264.345 104.358C263.497 105.206 263.081 106.262 263.081 107.526C263.081 108.742 263.497 109.782 264.345 110.63C265.193 111.478 266.249 111.91 267.481 111.91ZM267.513 110.806C266.601 110.806 265.833 110.486 265.241 109.83C264.649 109.174 264.361 108.374 264.361 107.462C264.361 106.55 264.649 105.766 265.241 105.126C265.833 104.486 266.569 104.166 267.481 104.166C268.393 104.166 269.145 104.502 269.737 105.158C270.329 105.814 270.633 106.614 270.633 107.526C270.633 108.438 270.329 109.206 269.737 109.846C269.145 110.486 268.409 110.806 267.513 110.806ZM282.543 99.7976C282.911 99.7976 283.215 99.8296 283.423 99.9096V98.8536C283.103 98.7416 282.799 98.6936 282.495 98.6936C280.911 98.6936 279.871 99.7176 279.871 101.638V103.222H275.935V101.606C275.935 100.278 276.591 99.7976 277.359 99.7976C277.727 99.7976 278.031 99.8296 278.255 99.9096V98.8536C277.935 98.7416 277.615 98.6936 277.311 98.6936C275.727 98.6936 274.687 99.7176 274.687 101.638V103.222H273.103V104.31H274.687V111.766H275.935V104.31H279.871V111.766H281.103V104.31H283.343V103.222H281.103V101.606C281.103 100.278 281.775 99.7976 282.543 99.7976ZM292.366 107.878C292.382 107.798 292.382 107.654 292.382 107.462C292.382 106.166 292.03 105.126 291.326 104.31C290.622 103.494 289.63 103.078 288.35 103.078C287.182 103.078 286.19 103.51 285.39 104.39C284.59 105.27 284.19 106.294 284.19 107.478C284.19 108.71 284.606 109.766 285.438 110.63C286.27 111.478 287.294 111.91 288.526 111.91C290.062 111.91 291.422 111.11 292.142 109.702L291.214 109.094C290.718 110.118 289.71 110.806 288.51 110.806C287.678 110.806 286.974 110.534 286.398 109.974C285.822 109.414 285.502 108.71 285.454 107.878H292.366ZM285.47 106.822C285.582 106.086 285.902 105.462 286.446 104.95C286.99 104.422 287.63 104.166 288.35 104.166C289.95 104.166 290.942 105.222 291.118 106.822H285.47ZM294.533 103.222V111.766H295.781V107.59C295.781 106.71 295.989 105.974 296.421 105.35C296.853 104.726 297.525 104.406 298.453 104.406C298.565 104.406 298.725 104.422 298.933 104.438V103.11C298.869 103.094 298.725 103.094 298.517 103.094C297.429 103.094 296.357 103.686 295.765 104.918V103.222H294.533ZM307.38 106.838C306.484 106.838 305.7 107.046 305.012 107.446C304.34 107.846 304.004 108.454 304.004 109.302V109.398C304.004 110.118 304.26 110.726 304.788 111.206C305.316 111.67 306.02 111.91 306.868 111.91C308.084 111.91 309.044 111.366 309.748 110.262H309.764V111.766H310.98V106.246C310.98 105.718 310.9 105.254 310.724 104.838C310.212 103.67 309.172 103.078 307.604 103.078C305.908 103.078 304.74 103.814 304.1 105.286L305.124 105.862C305.652 104.742 306.468 104.182 307.572 104.182C309.028 104.182 309.748 104.87 309.748 106.262V106.838H307.38ZM309.748 108.166C309.748 108.95 309.492 109.574 308.996 110.07C308.5 110.566 307.86 110.806 307.092 110.806C306.02 110.806 305.252 110.246 305.252 109.302C305.299 108.182 306.388 107.846 307.364 107.862H309.748V108.166ZM320.014 111.766H321.39L323.662 104.822H323.678L325.934 111.766H327.326L330.206 103.222H328.91L326.654 110.326H326.638L324.302 103.222H323.054L320.734 110.31H320.718L318.478 103.222H317.15L320.014 111.766ZM331.713 100.166C331.713 100.678 332.129 101.094 332.641 101.094C333.169 101.094 333.585 100.678 333.585 100.166C333.585 99.6376 333.169 99.2216 332.641 99.2216C332.129 99.2216 331.713 99.6376 331.713 100.166ZM333.281 103.222H332.017V111.766H333.281V103.222ZM335.488 107.478C335.488 108.694 335.856 109.734 336.592 110.598C337.344 111.462 338.304 111.894 339.488 111.894C340.912 111.894 342.032 111.238 342.816 109.942V111.766H344.032V98.7416H342.8V105.014C341.92 103.718 340.816 103.078 339.488 103.078C338.32 103.078 337.36 103.526 336.608 104.406C335.856 105.286 335.488 106.31 335.488 107.478ZM339.744 110.79C338.832 110.79 338.112 110.47 337.568 109.846C337.024 109.206 336.752 108.422 336.752 107.51C336.752 106.566 337.024 105.766 337.568 105.142C338.112 104.502 338.832 104.182 339.744 104.182C340.608 104.182 341.328 104.518 341.92 105.174C342.512 105.83 342.816 106.582 342.816 107.462C342.816 108.374 342.528 109.158 341.936 109.814C341.36 110.47 340.624 110.79 339.744 110.79ZM354.413 107.878C354.429 107.798 354.429 107.654 354.429 107.462C354.429 106.166 354.077 105.126 353.373 104.31C352.669 103.494 351.677 103.078 350.397 103.078C349.229 103.078 348.237 103.51 347.437 104.39C346.637 105.27 346.237 106.294 346.237 107.478C346.237 108.71 346.653 109.766 347.485 110.63C348.317 111.478 349.341 111.91 350.573 111.91C352.109 111.91 353.469 111.11 354.189 109.702L353.261 109.094C352.765 110.118 351.757 110.806 350.557 110.806C349.725 110.806 349.021 110.534 348.445 109.974C347.869 109.414 347.549 108.71 347.501 107.878H354.413ZM347.517 106.822C347.629 106.086 347.949 105.462 348.493 104.95C349.037 104.422 349.677 104.166 350.397 104.166C351.997 104.166 352.989 105.222 353.165 106.822H347.517ZM361.049 103.222V111.766H362.297V107.59C362.297 106.71 362.505 105.974 362.937 105.35C363.369 104.726 364.041 104.406 364.969 104.406C365.081 104.406 365.241 104.422 365.449 104.438V103.11C365.385 103.094 365.241 103.094 365.033 103.094C363.945 103.094 362.873 103.686 362.281 104.918V103.222H361.049ZM369.708 106.838C368.812 106.838 368.028 107.046 367.34 107.446C366.668 107.846 366.332 108.454 366.332 109.302V109.398C366.332 110.118 366.588 110.726 367.116 111.206C367.644 111.67 368.348 111.91 369.196 111.91C370.412 111.91 371.372 111.366 372.076 110.262H372.092V111.766H373.308V106.246C373.308 105.718 373.228 105.254 373.052 104.838C372.54 103.67 371.5 103.078 369.932 103.078C368.236 103.078 367.068 103.814 366.428 105.286L367.452 105.862C367.98 104.742 368.796 104.182 369.9 104.182C371.356 104.182 372.076 104.87 372.076 106.262V106.838H369.708ZM372.076 108.166C372.076 108.95 371.82 109.574 371.324 110.07C370.828 110.566 370.188 110.806 369.42 110.806C368.348 110.806 367.58 110.246 367.58 109.302C367.628 108.182 368.716 107.846 369.692 107.862H372.076V108.166ZM383.425 111.766V106.486C383.425 104.438 382.241 103.062 380.193 103.062C378.897 103.062 377.921 103.638 377.249 104.79V103.222H376.017V111.766H377.265V106.902C377.265 106.134 377.505 105.494 377.985 104.982C378.465 104.454 379.073 104.198 379.809 104.198C381.345 104.198 382.177 105.206 382.177 106.79V111.766H383.425ZM392.831 111.846C392.831 113.942 391.567 114.95 389.775 114.95C388.831 114.95 388.079 114.662 387.583 114.15C387.087 113.638 386.847 113.286 386.575 112.694L385.567 113.286C386.383 115.126 387.791 116.038 389.791 116.038C392.431 116.038 394.079 114.502 394.079 111.798V103.222H392.847V105.014C391.983 103.718 390.879 103.078 389.519 103.078C388.351 103.078 387.391 103.51 386.639 104.39C385.887 105.27 385.519 106.278 385.519 107.446C385.519 108.646 385.887 109.686 386.623 110.534C387.359 111.382 388.319 111.798 389.519 111.798C390.943 111.798 392.047 111.158 392.831 109.862V111.846ZM389.775 110.71C388.863 110.71 388.143 110.406 387.599 109.782C387.071 109.158 386.799 108.39 386.799 107.478C386.799 106.534 387.071 105.75 387.599 105.126C388.127 104.502 388.863 104.182 389.775 104.182C390.639 104.182 391.359 104.502 391.951 105.158C392.543 105.814 392.847 106.566 392.847 107.43C392.847 108.326 392.559 109.094 391.967 109.75C391.391 110.39 390.655 110.71 389.775 110.71ZM404.444 107.878C404.46 107.798 404.46 107.654 404.46 107.462C404.46 106.166 404.108 105.126 403.404 104.31C402.7 103.494 401.708 103.078 400.428 103.078C399.26 103.078 398.268 103.51 397.468 104.39C396.668 105.27 396.268 106.294 396.268 107.478C396.268 108.71 396.684 109.766 397.516 110.63C398.348 111.478 399.372 111.91 400.604 111.91C402.14 111.91 403.5 111.11 404.22 109.702L403.292 109.094C402.796 110.118 401.788 110.806 400.588 110.806C399.756 110.806 399.052 110.534 398.476 109.974C397.9 109.414 397.58 108.71 397.532 107.878H404.444ZM397.548 106.822C397.66 106.086 397.98 105.462 398.524 104.95C399.068 104.422 399.708 104.166 400.428 104.166C402.028 104.166 403.02 105.222 403.196 106.822H397.548ZM414.856 111.91C416.104 111.91 417.16 111.478 418.008 110.63C418.856 109.782 419.288 108.726 419.288 107.462C419.288 106.23 418.856 105.206 418.008 104.358C417.16 103.51 416.12 103.078 414.888 103.078C413.624 103.078 412.568 103.51 411.72 104.358C410.872 105.206 410.456 106.262 410.456 107.526C410.456 108.742 410.872 109.782 411.72 110.63C412.568 111.478 413.624 111.91 414.856 111.91ZM414.888 110.806C413.976 110.806 413.208 110.486 412.616 109.83C412.024 109.174 411.736 108.374 411.736 107.462C411.736 106.55 412.024 105.766 412.616 105.126C413.208 104.486 413.944 104.166 414.856 104.166C415.768 104.166 416.52 104.502 417.112 105.158C417.704 105.814 418.008 106.614 418.008 107.526C418.008 108.438 417.704 109.206 417.112 109.846C416.52 110.486 415.784 110.806 414.888 110.806ZM424.734 99.7976C425.102 99.7976 425.406 99.8296 425.63 99.9096V98.8536C425.31 98.7416 424.99 98.6936 424.686 98.6936C423.102 98.6936 422.062 99.7176 422.062 101.638V103.222H420.478V104.31H422.062V111.766H423.31V104.31H425.55V103.222H423.31V101.606C423.31 100.278 423.966 99.7976 424.734 99.7976ZM436.994 109.334C436.994 108.806 436.786 108.326 436.386 107.926C435.922 107.446 435.17 107.094 434.146 106.87C432.562 106.534 432.146 106.23 432.146 105.526C432.146 105.158 432.322 104.854 432.658 104.582C432.994 104.31 433.41 104.182 433.874 104.182C434.754 104.182 435.426 104.662 435.874 105.622L436.898 105.062C436.322 103.734 435.314 103.078 433.874 103.078C433.106 103.078 432.418 103.318 431.81 103.798C431.202 104.278 430.898 104.886 430.898 105.622C430.898 106.118 431.058 106.534 431.362 106.902C431.826 107.43 432.418 107.702 433.586 107.958C435.138 108.326 435.73 108.694 435.73 109.414C435.73 110.262 434.882 110.806 433.906 110.806C432.898 110.806 432.13 110.246 431.602 109.142L430.578 109.702C431.234 111.174 432.354 111.91 433.922 111.91C434.802 111.91 435.538 111.67 436.114 111.19C436.706 110.694 436.994 110.086 436.994 109.334ZM440.469 111.766V107.494H440.517L444.773 111.766H446.517L441.812 107.062L446.309 103.222H444.533L440.469 106.694V98.7256H439.221V111.766H440.469ZM447.635 100.166C447.635 100.678 448.051 101.094 448.563 101.094C449.091 101.094 449.507 100.678 449.507 100.166C449.507 99.6376 449.091 99.2216 448.563 99.2216C448.051 99.2216 447.635 99.6376 447.635 100.166ZM449.203 103.222H447.939V111.766H449.203V103.222ZM453.281 98.7256H452.017V111.766H453.281V98.7256ZM457.36 98.7256H456.096V111.766H457.36V98.7256ZM467.634 111.83C468.002 111.83 468.338 111.782 468.61 111.702V110.662C468.434 110.71 468.178 110.726 467.842 110.726C466.914 110.726 466.45 110.326 466.45 109.526V104.326H468.61V103.222H466.45V100.758H465.218V103.222H463.634V104.326H465.218V109.558C465.218 111.078 466.018 111.83 467.634 111.83ZM470.721 103.222V111.766H471.969V107.59C471.969 106.71 472.177 105.974 472.609 105.35C473.041 104.726 473.713 104.406 474.641 104.406C474.753 104.406 474.913 104.422 475.121 104.438V103.11C475.057 103.094 474.913 103.094 474.705 103.094C473.617 103.094 472.545 103.686 471.953 104.918V103.222H470.721ZM479.38 106.838C478.484 106.838 477.7 107.046 477.012 107.446C476.34 107.846 476.004 108.454 476.004 109.302V109.398C476.004 110.118 476.26 110.726 476.788 111.206C477.316 111.67 478.02 111.91 478.868 111.91C480.084 111.91 481.044 111.366 481.748 110.262H481.764V111.766H482.98V106.246C482.98 105.718 482.9 105.254 482.724 104.838C482.212 103.67 481.172 103.078 479.604 103.078C477.908 103.078 476.74 103.814 476.1 105.286L477.124 105.862C477.652 104.742 478.468 104.182 479.572 104.182C481.028 104.182 481.748 104.87 481.748 106.262V106.838H479.38ZM481.748 108.166C481.748 108.95 481.492 109.574 480.996 110.07C480.5 110.566 479.86 110.806 479.092 110.806C478.02 110.806 477.252 110.246 477.252 109.302C477.299 108.182 478.388 107.846 479.364 107.862H481.748V108.166ZM485.385 100.166C485.385 100.678 485.801 101.094 486.313 101.094C486.841 101.094 487.257 100.678 487.257 100.166C487.257 99.6376 486.841 99.2216 486.313 99.2216C485.801 99.2216 485.385 99.6376 485.385 100.166ZM486.953 103.222H485.689V111.766H486.953V103.222ZM497.175 111.766V106.486C497.175 104.438 495.991 103.062 493.943 103.062C492.647 103.062 491.671 103.638 490.999 104.79V103.222H489.767V111.766H491.015V106.902C491.015 106.134 491.255 105.494 491.735 104.982C492.215 104.454 492.823 104.198 493.559 104.198C495.095 104.198 495.927 105.206 495.927 106.79V111.766H497.175ZM499.573 100.166C499.573 100.678 499.989 101.094 500.501 101.094C501.029 101.094 501.445 100.678 501.445 100.166C501.445 99.6376 501.029 99.2216 500.501 99.2216C499.989 99.2216 499.573 99.6376 499.573 100.166ZM501.141 103.222H499.877V111.766H501.141V103.222ZM511.363 111.766V106.486C511.363 104.438 510.179 103.062 508.131 103.062C506.835 103.062 505.859 103.638 505.187 104.79V103.222H503.955V111.766H505.203V106.902C505.203 106.134 505.443 105.494 505.923 104.982C506.403 104.454 507.011 104.198 507.747 104.198C509.283 104.198 510.115 105.206 510.115 106.79V111.766H511.363ZM520.768 111.846C520.768 113.942 519.504 114.95 517.712 114.95C516.768 114.95 516.016 114.662 515.52 114.15C515.024 113.638 514.784 113.286 514.512 112.694L513.504 113.286C514.32 115.126 515.728 116.038 517.728 116.038C520.368 116.038 522.016 114.502 522.016 111.798V103.222H520.784V105.014C519.92 103.718 518.816 103.078 517.456 103.078C516.288 103.078 515.328 103.51 514.576 104.39C513.824 105.27 513.456 106.278 513.456 107.446C513.456 108.646 513.824 109.686 514.56 110.534C515.296 111.382 516.256 111.798 517.456 111.798C518.88 111.798 519.984 111.158 520.768 109.862V111.846ZM517.712 110.71C516.8 110.71 516.08 110.406 515.536 109.782C515.008 109.158 514.736 108.39 514.736 107.478C514.736 106.534 515.008 105.75 515.536 105.126C516.064 104.502 516.8 104.182 517.712 104.182C518.576 104.182 519.296 104.502 519.888 105.158C520.48 105.814 520.784 106.566 520.784 107.43C520.784 108.326 520.496 109.094 519.904 109.75C519.328 110.39 518.592 110.71 517.712 110.71ZM525.662 109.606C525.022 109.606 524.51 110.118 524.51 110.758C524.51 111.398 525.022 111.91 525.662 111.91C526.286 111.91 526.798 111.398 526.798 110.758C526.798 110.118 526.286 109.606 525.662 109.606ZM536.208 111.19L534 115.974H535.344L541.2 103.222H539.856L536.896 109.83L533.76 103.222H532.32L536.208 111.19ZM546.372 111.91C547.62 111.91 548.676 111.478 549.524 110.63C550.372 109.782 550.804 108.726 550.804 107.462C550.804 106.23 550.372 105.206 549.524 104.358C548.676 103.51 547.636 103.078 546.404 103.078C545.14 103.078 544.084 103.51 543.236 104.358C542.388 105.206 541.972 106.262 541.972 107.526C541.972 108.742 542.388 109.782 543.236 110.63C544.084 111.478 545.14 111.91 546.372 111.91ZM546.404 110.806C545.492 110.806 544.724 110.486 544.132 109.83C543.539 109.174 543.252 108.374 543.252 107.462C543.252 106.55 543.539 105.766 544.132 105.126C544.724 104.486 545.46 104.166 546.372 104.166C547.284 104.166 548.036 104.502 548.628 105.158C549.22 105.814 549.524 106.614 549.524 107.526C549.524 108.438 549.22 109.206 548.628 109.846C548.036 110.486 547.3 110.806 546.404 110.806ZM552.906 103.222V108.502C552.906 110.55 554.09 111.926 556.138 111.926C557.434 111.926 558.41 111.35 559.066 110.198V111.766H560.282V103.222H559.05V108.102C559.05 108.87 558.81 109.51 558.33 110.022C557.85 110.534 557.242 110.79 556.506 110.79C554.97 110.79 554.138 109.782 554.138 108.198V103.222H552.906ZM568.236 107.446C568.236 106.534 568.524 105.766 569.1 105.142C569.692 104.502 570.428 104.182 571.324 104.182C572.732 104.182 573.612 104.982 573.996 106.054L575.084 105.574C574.588 104.15 573.244 103.078 571.324 103.078C570.108 103.078 569.068 103.51 568.22 104.358C567.372 105.206 566.956 106.262 566.956 107.494C566.956 108.758 567.372 109.814 568.204 110.662C569.052 111.494 570.076 111.91 571.308 111.91C573.244 111.91 574.588 110.838 575.116 109.366L574.028 108.886C573.532 110.166 572.62 110.806 571.324 110.806C570.412 110.806 569.676 110.47 569.1 109.814C568.524 109.158 568.236 108.358 568.236 107.446ZM579.958 106.838C579.062 106.838 578.278 107.046 577.59 107.446C576.918 107.846 576.582 108.454 576.582 109.302V109.398C576.582 110.118 576.838 110.726 577.366 111.206C577.894 111.67 578.598 111.91 579.446 111.91C580.662 111.91 581.622 111.366 582.326 110.262H582.342V111.766H583.558V106.246C583.558 105.718 583.478 105.254 583.302 104.838C582.79 103.67 581.75 103.078 580.182 103.078C578.486 103.078 577.318 103.814 576.678 105.286L577.702 105.862C578.23 104.742 579.046 104.182 580.15 104.182C581.606 104.182 582.326 104.87 582.326 106.262V106.838H579.958ZM582.326 108.166C582.326 108.95 582.07 109.574 581.574 110.07C581.078 110.566 580.438 110.806 579.67 110.806C578.598 110.806 577.83 110.246 577.83 109.302C577.878 108.182 578.966 107.846 579.942 107.862H582.326V108.166ZM593.675 111.766V106.486C593.675 104.438 592.491 103.062 590.443 103.062C589.147 103.062 588.171 103.638 587.499 104.79V103.222H586.267V111.766H587.515V106.902C587.515 106.134 587.755 105.494 588.235 104.982C588.715 104.454 589.323 104.198 590.059 104.198C591.595 104.198 592.427 105.206 592.427 106.79V111.766H593.675ZM601.502 107.446C601.502 106.534 601.789 105.766 602.366 105.142C602.958 104.502 603.694 104.182 604.59 104.182C605.998 104.182 606.878 104.982 607.262 106.054L608.35 105.574C607.854 104.15 606.51 103.078 604.59 103.078C603.374 103.078 602.334 103.51 601.486 104.358C600.638 105.206 600.222 106.262 600.222 107.494C600.222 108.758 600.638 109.814 601.47 110.662C602.318 111.494 603.342 111.91 604.574 111.91C606.51 111.91 607.854 110.838 608.382 109.366L607.294 108.886C606.798 110.166 605.886 110.806 604.59 110.806C603.678 110.806 602.942 110.47 602.366 109.814C601.789 109.158 601.502 108.358 601.502 107.446ZM617.847 111.766V106.486C617.847 104.438 616.663 103.062 614.615 103.062C613.351 103.062 612.375 103.622 611.687 104.758V98.7416H610.439V111.766H611.687V106.902C611.687 106.134 611.927 105.494 612.407 104.982C612.887 104.454 613.495 104.198 614.231 104.198C615.767 104.198 616.599 105.206 616.599 106.79V111.766H617.847ZM624.325 111.91C625.573 111.91 626.629 111.478 627.477 110.63C628.325 109.782 628.757 108.726 628.757 107.462C628.757 106.23 628.325 105.206 627.477 104.358C626.629 103.51 625.589 103.078 624.357 103.078C623.093 103.078 622.037 103.51 621.189 104.358C620.341 105.206 619.925 106.262 619.925 107.526C619.925 108.742 620.341 109.782 621.189 110.63C622.037 111.478 623.093 111.91 624.325 111.91ZM624.357 110.806C623.445 110.806 622.677 110.486 622.085 109.83C621.493 109.174 621.205 108.374 621.205 107.462C621.205 106.55 621.493 105.766 622.085 105.126C622.677 104.486 623.413 104.166 624.325 104.166C625.237 104.166 625.989 104.502 626.581 105.158C627.173 105.814 627.477 106.614 627.477 107.526C627.477 108.438 627.173 109.206 626.581 109.846C625.989 110.486 625.253 110.806 624.357 110.806ZM634.731 111.91C635.979 111.91 637.035 111.478 637.883 110.63C638.731 109.782 639.163 108.726 639.163 107.462C639.163 106.23 638.731 105.206 637.883 104.358C637.035 103.51 635.995 103.078 634.763 103.078C633.499 103.078 632.443 103.51 631.595 104.358C630.747 105.206 630.331 106.262 630.331 107.526C630.331 108.742 630.747 109.782 631.595 110.63C632.443 111.478 633.499 111.91 634.731 111.91ZM634.763 110.806C633.851 110.806 633.083 110.486 632.491 109.83C631.899 109.174 631.611 108.374 631.611 107.462C631.611 106.55 631.899 105.766 632.491 105.126C633.083 104.486 633.819 104.166 634.731 104.166C635.643 104.166 636.395 104.502 636.987 105.158C637.579 105.814 637.883 106.614 637.883 107.526C637.883 108.438 637.579 109.206 636.987 109.846C636.395 110.486 635.659 110.806 634.763 110.806ZM647.025 109.334C647.025 108.806 646.817 108.326 646.417 107.926C645.953 107.446 645.201 107.094 644.177 106.87C642.593 106.534 642.177 106.23 642.177 105.526C642.177 105.158 642.353 104.854 642.689 104.582C643.025 104.31 643.441 104.182 643.905 104.182C644.785 104.182 645.457 104.662 645.905 105.622L646.929 105.062C646.353 103.734 645.345 103.078 643.905 103.078C643.137 103.078 642.449 103.318 641.841 103.798C641.233 104.278 640.929 104.886 640.929 105.622C640.929 106.118 641.089 106.534 641.393 106.902C641.857 107.43 642.449 107.702 643.617 107.958C645.169 108.326 645.761 108.694 645.761 109.414C645.761 110.262 644.913 110.806 643.937 110.806C642.929 110.806 642.161 110.246 641.633 109.142L640.609 109.702C641.265 111.174 642.385 111.91 643.953 111.91C644.833 111.91 645.569 111.67 646.145 111.19C646.737 110.694 647.025 110.086 647.025 109.334ZM656.804 107.878C656.82 107.798 656.82 107.654 656.82 107.462C656.82 106.166 656.468 105.126 655.764 104.31C655.06 103.494 654.068 103.078 652.788 103.078C651.62 103.078 650.628 103.51 649.828 104.39C649.028 105.27 648.628 106.294 648.628 107.478C648.628 108.71 649.044 109.766 649.876 110.63C650.708 111.478 651.732 111.91 652.964 111.91C654.5 111.91 655.86 111.11 656.58 109.702L655.652 109.094C655.156 110.118 654.148 110.806 652.948 110.806C652.116 110.806 651.412 110.534 650.836 109.974C650.26 109.414 649.94 108.71 649.892 107.878H656.804ZM649.908 106.822C650.02 106.086 650.34 105.462 650.884 104.95C651.428 104.422 652.068 104.166 652.788 104.166C654.388 104.166 655.38 105.222 655.556 106.822H649.908ZM666.687 99.7976C667.055 99.7976 667.359 99.8296 667.583 99.9096V98.8536C667.263 98.7416 666.943 98.6936 666.639 98.6936C665.055 98.6936 664.015 99.7176 664.015 101.638V103.222H662.431V104.31H664.015V111.766H665.263V104.31H667.503V103.222H665.263V101.606C665.263 100.278 665.919 99.7976 666.687 99.7976ZM669.189 103.222V111.766H670.437V107.59C670.437 106.71 670.645 105.974 671.077 105.35C671.509 104.726 672.181 104.406 673.109 104.406C673.221 104.406 673.381 104.422 673.589 104.438V103.11C673.525 103.094 673.381 103.094 673.173 103.094C672.085 103.094 671.013 103.686 670.421 104.918V103.222H669.189ZM678.747 111.91C679.995 111.91 681.051 111.478 681.899 110.63C682.747 109.782 683.179 108.726 683.179 107.462C683.179 106.23 682.747 105.206 681.899 104.358C681.051 103.51 680.011 103.078 678.779 103.078C677.515 103.078 676.459 103.51 675.611 104.358C674.763 105.206 674.347 106.262 674.347 107.526C674.347 108.742 674.763 109.782 675.611 110.63C676.459 111.478 677.515 111.91 678.747 111.91ZM678.779 110.806C677.867 110.806 677.099 110.486 676.507 109.83C675.914 109.174 675.627 108.374 675.627 107.462C675.627 106.55 675.914 105.766 676.507 105.126C677.099 104.486 677.835 104.166 678.747 104.166C679.659 104.166 680.411 104.502 681.003 105.158C681.595 105.814 681.899 106.614 681.899 107.526C681.899 108.438 681.595 109.206 681.003 109.846C680.411 110.486 679.675 110.806 678.779 110.806ZM692.433 111.766V106.854C692.433 106.102 692.641 105.478 693.073 104.982C693.505 104.47 694.081 104.214 694.801 104.214C696.289 104.214 697.009 105.254 697.009 106.79V111.766H698.257V106.486C698.257 104.438 697.105 103.078 695.105 103.078C693.841 103.078 692.833 103.638 692.097 104.774C691.569 103.638 690.657 103.062 689.361 103.062C688.145 103.062 687.329 103.606 686.609 104.71V103.222H685.377V111.766H686.625V106.902C686.625 106.166 686.833 105.526 687.265 104.998C687.697 104.47 688.273 104.198 688.993 104.198C690.465 104.198 691.201 105.27 691.201 106.758V111.766H692.433ZM708.431 111.83C708.799 111.83 709.135 111.782 709.407 111.702V110.662C709.231 110.71 708.975 110.726 708.639 110.726C707.711 110.726 707.247 110.326 707.247 109.526V104.326H709.407V103.222H707.247V100.758H706.015V103.222H704.431V104.326H706.015V109.558C706.015 111.078 706.815 111.83 708.431 111.83ZM718.925 111.766V106.486C718.925 104.438 717.741 103.062 715.693 103.062C714.429 103.062 713.453 103.622 712.765 104.758V98.7416H711.517V111.766H712.765V106.902C712.765 106.134 713.005 105.494 713.485 104.982C713.965 104.454 714.573 104.198 715.309 104.198C716.845 104.198 717.677 105.206 717.677 106.79V111.766H718.925ZM729.179 107.878C729.195 107.798 729.195 107.654 729.195 107.462C729.195 106.166 728.843 105.126 728.139 104.31C727.435 103.494 726.443 103.078 725.163 103.078C723.995 103.078 723.003 103.51 722.203 104.39C721.403 105.27 721.003 106.294 721.003 107.478C721.003 108.71 721.419 109.766 722.251 110.63C723.083 111.478 724.107 111.91 725.339 111.91C726.875 111.91 728.235 111.11 728.955 109.702L728.027 109.094C727.531 110.118 726.523 110.806 725.323 110.806C724.491 110.806 723.787 110.534 723.211 109.974C722.635 109.414 722.315 108.71 722.267 107.878H729.179ZM722.283 106.822C722.395 106.086 722.715 105.462 723.259 104.95C723.803 104.422 724.443 104.166 725.163 104.166C726.763 104.166 727.755 105.222 727.931 106.822H722.283ZM34.8 130.478C34.8 131.694 35.168 132.734 35.904 133.598C36.656 134.462 37.616 134.894 38.8 134.894C40.224 134.894 41.344 134.238 42.128 132.942V134.766H43.344V121.742H42.112V128.014C41.232 126.718 40.128 126.078 38.8 126.078C37.632 126.078 36.672 126.526 35.92 127.406C35.168 128.286 34.8 129.31 34.8 130.478ZM39.056 133.79C38.144 133.79 37.424 133.47 36.88 132.846C36.336 132.206 36.064 131.422 36.064 130.51C36.064 129.566 36.336 128.766 36.88 128.142C37.424 127.502 38.144 127.182 39.056 127.182C39.92 127.182 40.64 127.518 41.232 128.174C41.824 128.83 42.128 129.582 42.128 130.462C42.128 131.374 41.84 132.158 41.248 132.814C40.672 133.47 39.936 133.79 39.056 133.79ZM45.8696 123.166C45.8696 123.678 46.2856 124.094 46.7976 124.094C47.3256 124.094 47.7416 123.678 47.7416 123.166C47.7416 122.638 47.3256 122.222 46.7976 122.222C46.2856 122.222 45.8696 122.638 45.8696 123.166ZM47.4376 126.222H46.1736V134.766H47.4376V126.222ZM58.6838 122.798C59.0518 122.798 59.3558 122.83 59.5638 122.91V121.854C59.2438 121.742 58.9398 121.694 58.6358 121.694C57.0518 121.694 56.0118 122.718 56.0118 124.638V126.222H52.0758V124.606C52.0758 123.278 52.7318 122.798 53.4998 122.798C53.8678 122.798 54.1718 122.83 54.3958 122.91V121.854C54.0758 121.742 53.7558 121.694 53.4518 121.694C51.8678 121.694 50.8278 122.718 50.8278 124.638V126.222H49.2438V127.31H50.8278V134.766H52.0758V127.31H56.0118V134.766H57.2438V127.31H59.4838V126.222H57.2438V124.606C57.2438 123.278 57.9158 122.798 58.6838 122.798ZM68.5069 130.878C68.5229 130.798 68.5229 130.654 68.5229 130.462C68.5229 129.166 68.1709 128.126 67.4669 127.31C66.7629 126.494 65.7709 126.078 64.4909 126.078C63.3229 126.078 62.3309 126.51 61.5309 127.39C60.7309 128.27 60.3309 129.294 60.3309 130.478C60.3309 131.71 60.7469 132.766 61.5789 133.63C62.4109 134.478 63.4349 134.91 64.6669 134.91C66.2029 134.91 67.5629 134.11 68.2829 132.702L67.3549 132.094C66.8589 133.118 65.8509 133.806 64.6509 133.806C63.8189 133.806 63.1149 133.534 62.5389 132.974C61.9629 132.414 61.6429 131.71 61.5949 130.878H68.5069ZM61.6109 129.822C61.7229 129.086 62.0429 128.462 62.5869 127.95C63.1309 127.422 63.7709 127.166 64.4909 127.166C66.0909 127.166 67.0829 128.222 67.2589 129.822H61.6109ZM70.6736 126.222V134.766H71.9216V130.59C71.9216 129.71 72.1296 128.974 72.5616 128.35C72.9936 127.726 73.6656 127.406 74.5936 127.406C74.7056 127.406 74.8656 127.422 75.0736 127.438V126.11C75.0096 126.094 74.8656 126.094 74.6576 126.094C73.5696 126.094 72.4976 126.686 71.9056 127.918V126.222H70.6736ZM84.0069 130.878C84.0229 130.798 84.0229 130.654 84.0229 130.462C84.0229 129.166 83.6709 128.126 82.9669 127.31C82.2629 126.494 81.2709 126.078 79.9909 126.078C78.8229 126.078 77.8309 126.51 77.0309 127.39C76.2309 128.27 75.8309 129.294 75.8309 130.478C75.8309 131.71 76.2469 132.766 77.0789 133.63C77.9109 134.478 78.9349 134.91 80.1669 134.91C81.7029 134.91 83.0629 134.11 83.7829 132.702L82.8549 132.094C82.3589 133.118 81.3509 133.806 80.1509 133.806C79.3189 133.806 78.6149 133.534 78.0389 132.974C77.4629 132.414 77.1429 131.71 77.0949 130.878H84.0069ZM77.1109 129.822C77.2229 129.086 77.5429 128.462 78.0869 127.95C78.6309 127.422 79.2709 127.166 79.9909 127.166C81.5909 127.166 82.5829 128.222 82.7589 129.822H77.1109ZM93.5816 134.766V129.486C93.5816 127.438 92.3976 126.062 90.3496 126.062C89.0536 126.062 88.0776 126.638 87.4056 127.79V126.222H86.1736V134.766H87.4216V129.902C87.4216 129.134 87.6616 128.494 88.1416 127.982C88.6216 127.454 89.2296 127.198 89.9656 127.198C91.5016 127.198 92.3336 128.206 92.3336 129.79V134.766H93.5816ZM99.1969 134.83C99.5649 134.83 99.9009 134.782 100.173 134.702V133.662C99.9969 133.71 99.7409 133.726 99.4049 133.726C98.4769 133.726 98.0129 133.326 98.0129 132.526V127.326H100.173V126.222H98.0129V123.758H96.7809V126.222H95.1969V127.326H96.7809V132.558C96.7809 134.078 97.5809 134.83 99.1969 134.83ZM115.312 130.478C115.312 129.31 114.928 128.286 114.176 127.406C113.424 126.526 112.464 126.078 111.296 126.078C109.936 126.078 108.832 126.75 107.984 128.078V126.222H106.752V138.974H108V133.006C108.8 134.27 109.904 134.894 111.296 134.894C112.464 134.894 113.424 134.462 114.176 133.582C114.928 132.702 115.312 131.678 115.312 130.478ZM111.04 133.79C110.16 133.79 109.424 133.47 108.848 132.814C108.272 132.158 107.984 131.374 107.984 130.462C107.984 129.582 108.272 128.83 108.864 128.174C109.456 127.518 110.176 127.182 111.04 127.182C111.952 127.182 112.672 127.502 113.216 128.158C113.76 128.798 114.032 129.582 114.032 130.51C114.032 131.454 113.76 132.238 113.216 132.862C112.688 133.486 111.952 133.79 111.04 133.79ZM117.517 126.222V134.766H118.765V130.59C118.765 129.71 118.973 128.974 119.405 128.35C119.837 127.726 120.509 127.406 121.437 127.406C121.549 127.406 121.709 127.422 121.917 127.438V126.11C121.853 126.094 121.709 126.094 121.501 126.094C120.413 126.094 119.341 126.686 118.749 127.918V126.222H117.517ZM127.075 134.91C128.323 134.91 129.379 134.478 130.227 133.63C131.075 132.782 131.507 131.726 131.507 130.462C131.507 129.23 131.075 128.206 130.227 127.358C129.379 126.51 128.339 126.078 127.107 126.078C125.843 126.078 124.787 126.51 123.939 127.358C123.091 128.206 122.675 129.262 122.675 130.526C122.675 131.742 123.091 132.782 123.939 133.63C124.787 134.478 125.843 134.91 127.075 134.91ZM127.107 133.806C126.195 133.806 125.427 133.486 124.835 132.83C124.243 132.174 123.955 131.374 123.955 130.462C123.955 129.55 124.243 128.766 124.835 128.126C125.427 127.486 126.163 127.166 127.075 127.166C127.987 127.166 128.739 127.502 129.331 128.158C129.923 128.814 130.227 129.614 130.227 130.526C130.227 131.438 129.923 132.206 129.331 132.846C128.739 133.486 128.003 133.806 127.107 133.806ZM140.409 134.846C140.409 136.942 139.145 137.95 137.353 137.95C136.409 137.95 135.657 137.662 135.161 137.15C134.665 136.638 134.425 136.286 134.153 135.694L133.145 136.286C133.961 138.126 135.369 139.038 137.369 139.038C140.009 139.038 141.657 137.502 141.657 134.798V126.222H140.425V128.014C139.561 126.718 138.457 126.078 137.097 126.078C135.929 126.078 134.969 126.51 134.217 127.39C133.465 128.27 133.097 129.278 133.097 130.446C133.097 131.646 133.465 132.686 134.201 133.534C134.937 134.382 135.897 134.798 137.097 134.798C138.521 134.798 139.625 134.158 140.409 132.862V134.846ZM137.353 133.71C136.441 133.71 135.721 133.406 135.177 132.782C134.649 132.158 134.377 131.39 134.377 130.478C134.377 129.534 134.649 128.75 135.177 128.126C135.705 127.502 136.441 127.182 137.353 127.182C138.217 127.182 138.937 127.502 139.529 128.158C140.121 128.814 140.425 129.566 140.425 130.43C140.425 131.326 140.137 132.094 139.545 132.75C138.969 133.39 138.233 133.71 137.353 133.71ZM144.471 126.222V134.766H145.719V130.59C145.719 129.71 145.927 128.974 146.359 128.35C146.791 127.726 147.463 127.406 148.391 127.406C148.503 127.406 148.663 127.422 148.871 127.438V126.11C148.807 126.094 148.663 126.094 148.455 126.094C147.367 126.094 146.295 126.686 145.703 127.918V126.222H144.471ZM153.13 129.838C152.234 129.838 151.45 130.046 150.762 130.446C150.09 130.846 149.754 131.454 149.754 132.302V132.398C149.754 133.118 150.01 133.726 150.538 134.206C151.066 134.67 151.77 134.91 152.618 134.91C153.834 134.91 154.794 134.366 155.498 133.262H155.514V134.766H156.73V129.246C156.73 128.718 156.65 128.254 156.474 127.838C155.962 126.67 154.922 126.078 153.354 126.078C151.658 126.078 150.49 126.814 149.85 128.286L150.874 128.862C151.402 127.742 152.218 127.182 153.322 127.182C154.778 127.182 155.498 127.87 155.498 129.262V129.838H153.13ZM155.498 131.166C155.498 131.95 155.242 132.574 154.746 133.07C154.25 133.566 153.61 133.806 152.842 133.806C151.77 133.806 151.002 133.246 151.002 132.302C151.049 131.182 152.138 130.846 153.114 130.862H155.498V131.166ZM166.495 134.766V129.854C166.495 129.102 166.703 128.478 167.135 127.982C167.567 127.47 168.143 127.214 168.863 127.214C170.351 127.214 171.071 128.254 171.071 129.79V134.766H172.319V129.486C172.319 127.438 171.167 126.078 169.167 126.078C167.903 126.078 166.895 126.638 166.159 127.774C165.631 126.638 164.719 126.062 163.423 126.062C162.207 126.062 161.391 126.606 160.671 127.71V126.222H159.439V134.766H160.687V129.902C160.687 129.166 160.895 128.526 161.327 127.998C161.759 127.47 162.335 127.198 163.055 127.198C164.527 127.198 165.263 128.27 165.263 129.758V134.766H166.495ZM180.697 132.334C180.697 131.806 180.489 131.326 180.089 130.926C179.625 130.446 178.873 130.094 177.849 129.87C176.265 129.534 175.849 129.23 175.849 128.526C175.849 128.158 176.025 127.854 176.361 127.582C176.697 127.31 177.113 127.182 177.577 127.182C178.457 127.182 179.129 127.662 179.577 128.622L180.601 128.062C180.025 126.734 179.017 126.078 177.577 126.078C176.809 126.078 176.121 126.318 175.513 126.798C174.905 127.278 174.601 127.886 174.601 128.622C174.601 129.118 174.761 129.534 175.065 129.902C175.529 130.43 176.121 130.702 177.289 130.958C178.841 131.326 179.433 131.694 179.433 132.414C179.433 133.262 178.585 133.806 177.609 133.806C176.601 133.806 175.833 133.246 175.305 132.142L174.281 132.702C174.937 134.174 176.057 134.91 177.625 134.91C178.505 134.91 179.241 134.67 179.817 134.19C180.409 133.694 180.697 133.086 180.697 132.334ZM189.248 134.766H190.624L192.896 127.822H192.912L195.168 134.766H196.56L199.44 126.222H198.144L195.888 133.326H195.872L193.536 126.222H192.288L189.968 133.31H189.952L187.712 126.222H186.384L189.248 134.766ZM208.632 130.878C208.648 130.798 208.648 130.654 208.648 130.462C208.648 129.166 208.296 128.126 207.592 127.31C206.888 126.494 205.896 126.078 204.616 126.078C203.448 126.078 202.456 126.51 201.656 127.39C200.856 128.27 200.456 129.294 200.456 130.478C200.456 131.71 200.872 132.766 201.704 133.63C202.536 134.478 203.56 134.91 204.792 134.91C206.328 134.91 207.688 134.11 208.408 132.702L207.48 132.094C206.984 133.118 205.976 133.806 204.776 133.806C203.944 133.806 203.24 133.534 202.664 132.974C202.088 132.414 201.768 131.71 201.72 130.878H208.632ZM201.736 129.822C201.848 129.086 202.168 128.462 202.712 127.95C203.256 127.422 203.896 127.166 204.616 127.166C206.216 127.166 207.208 128.222 207.384 129.822H201.736ZM219.043 134.91C220.291 134.91 221.347 134.478 222.195 133.63C223.043 132.782 223.475 131.726 223.475 130.462C223.475 129.23 223.043 128.206 222.195 127.358C221.347 126.51 220.307 126.078 219.075 126.078C217.811 126.078 216.755 126.51 215.907 127.358C215.059 128.206 214.643 129.262 214.643 130.526C214.643 131.742 215.059 132.782 215.907 133.63C216.755 134.478 217.811 134.91 219.043 134.91ZM219.075 133.806C218.163 133.806 217.395 133.486 216.803 132.83C216.211 132.174 215.923 131.374 215.923 130.462C215.923 129.55 216.211 128.766 216.803 128.126C217.395 127.486 218.131 127.166 219.043 127.166C219.955 127.166 220.707 127.502 221.299 128.158C221.891 128.814 222.195 129.614 222.195 130.526C222.195 131.438 221.891 132.206 221.299 132.846C220.707 133.486 219.971 133.806 219.075 133.806ZM234.106 122.798C234.474 122.798 234.778 122.83 234.986 122.91V121.854C234.666 121.742 234.362 121.694 234.058 121.694C232.474 121.694 231.434 122.718 231.434 124.638V126.222H227.498V124.606C227.498 123.278 228.154 122.798 228.922 122.798C229.29 122.798 229.594 122.83 229.818 122.91V121.854C229.498 121.742 229.178 121.694 228.874 121.694C227.29 121.694 226.25 122.718 226.25 124.638V126.222H224.666V127.31H226.25V134.766H227.498V127.31H231.434V134.766H232.666V127.31H234.906V126.222H232.666V124.606C232.666 123.278 233.338 122.798 234.106 122.798ZM243.929 130.878C243.945 130.798 243.945 130.654 243.945 130.462C243.945 129.166 243.593 128.126 242.889 127.31C242.185 126.494 241.193 126.078 239.913 126.078C238.745 126.078 237.753 126.51 236.953 127.39C236.153 128.27 235.753 129.294 235.753 130.478C235.753 131.71 236.169 132.766 237.001 133.63C237.833 134.478 238.857 134.91 240.089 134.91C241.625 134.91 242.985 134.11 243.705 132.702L242.777 132.094C242.281 133.118 241.273 133.806 240.073 133.806C239.241 133.806 238.537 133.534 237.961 132.974C237.385 132.414 237.065 131.71 237.017 130.878H243.929ZM237.033 129.822C237.145 129.086 237.465 128.462 238.009 127.95C238.553 127.422 239.193 127.166 239.913 127.166C241.513 127.166 242.505 128.222 242.681 129.822H237.033ZM246.096 126.222V134.766H247.344V130.59C247.344 129.71 247.552 128.974 247.984 128.35C248.416 127.726 249.088 127.406 250.016 127.406C250.128 127.406 250.288 127.422 250.496 127.438V126.11C250.432 126.094 250.288 126.094 250.08 126.094C248.992 126.094 247.92 126.686 247.328 127.918V126.222H246.096ZM258.942 129.838C258.046 129.838 257.262 130.046 256.574 130.446C255.902 130.846 255.566 131.454 255.566 132.302V132.398C255.566 133.118 255.822 133.726 256.35 134.206C256.878 134.67 257.582 134.91 258.43 134.91C259.646 134.91 260.606 134.366 261.31 133.262H261.326V134.766H262.542V129.246C262.542 128.718 262.462 128.254 262.286 127.838C261.774 126.67 260.734 126.078 259.166 126.078C257.47 126.078 256.302 126.814 255.662 128.286L256.686 128.862C257.214 127.742 258.03 127.182 259.134 127.182C260.59 127.182 261.31 127.87 261.31 129.262V129.838H258.942ZM261.31 131.166C261.31 131.95 261.054 132.574 260.558 133.07C260.062 133.566 259.422 133.806 258.654 133.806C257.582 133.806 256.814 133.246 256.814 132.302C256.862 131.182 257.95 130.846 258.926 130.862H261.31V131.166ZM272.66 134.766V129.486C272.66 127.438 271.476 126.062 269.428 126.062C268.132 126.062 267.156 126.638 266.484 127.79V126.222H265.252V134.766H266.5V129.902C266.5 129.134 266.74 128.494 267.22 127.982C267.7 127.454 268.308 127.198 269.044 127.198C270.58 127.198 271.412 128.206 271.412 129.79V134.766H272.66ZM274.753 130.478C274.753 131.694 275.121 132.734 275.857 133.598C276.609 134.462 277.569 134.894 278.753 134.894C280.177 134.894 281.297 134.238 282.081 132.942V134.766H283.297V121.742H282.065V128.014C281.185 126.718 280.081 126.078 278.753 126.078C277.585 126.078 276.625 126.526 275.873 127.406C275.121 128.286 274.753 129.31 274.753 130.478ZM279.009 133.79C278.097 133.79 277.377 133.47 276.833 132.846C276.289 132.206 276.017 131.422 276.017 130.51C276.017 129.566 276.289 128.766 276.833 128.142C277.377 127.502 278.097 127.182 279.009 127.182C279.873 127.182 280.593 127.518 281.185 128.174C281.777 128.83 282.081 129.582 282.081 130.462C282.081 131.374 281.793 132.158 281.201 132.814C280.625 133.47 279.889 133.79 279.009 133.79ZM296.26 132.334C296.26 131.806 296.052 131.326 295.652 130.926C295.188 130.446 294.436 130.094 293.411 129.87C291.828 129.534 291.412 129.23 291.412 128.526C291.412 128.158 291.588 127.854 291.924 127.582C292.26 127.31 292.676 127.182 293.14 127.182C294.02 127.182 294.692 127.662 295.14 128.622L296.164 128.062C295.588 126.734 294.58 126.078 293.14 126.078C292.372 126.078 291.684 126.318 291.076 126.798C290.468 127.278 290.164 127.886 290.164 128.622C290.164 129.118 290.324 129.534 290.628 129.902C291.092 130.43 291.684 130.702 292.852 130.958C294.404 131.326 294.996 131.694 294.996 132.414C294.996 133.262 294.148 133.806 293.172 133.806C292.164 133.806 291.396 133.246 290.868 132.142L289.844 132.702C290.5 134.174 291.62 134.91 293.188 134.91C294.068 134.91 294.804 134.67 295.38 134.19C295.972 133.694 296.26 133.086 296.26 132.334ZM305.894 134.766V129.486C305.894 127.438 304.71 126.062 302.662 126.062C301.398 126.062 300.422 126.622 299.734 127.758V121.742H298.486V134.766H299.734V129.902C299.734 129.134 299.974 128.494 300.454 127.982C300.934 127.454 301.542 127.198 302.278 127.198C303.814 127.198 304.646 128.206 304.646 129.79V134.766H305.894ZM311.38 129.838C310.484 129.838 309.7 130.046 309.012 130.446C308.34 130.846 308.004 131.454 308.004 132.302V132.398C308.004 133.118 308.26 133.726 308.788 134.206C309.316 134.67 310.02 134.91 310.868 134.91C312.084 134.91 313.044 134.366 313.748 133.262H313.764V134.766H314.98V129.246C314.98 128.718 314.9 128.254 314.724 127.838C314.212 126.67 313.172 126.078 311.604 126.078C309.908 126.078 308.74 126.814 308.1 128.286L309.124 128.862C309.652 127.742 310.468 127.182 311.572 127.182C313.028 127.182 313.748 127.87 313.748 129.262V129.838H311.38ZM313.748 131.166C313.748 131.95 313.492 132.574 312.996 133.07C312.5 133.566 311.86 133.806 311.092 133.806C310.02 133.806 309.252 133.246 309.252 132.302C309.299 131.182 310.388 130.846 311.364 130.862H313.748V131.166ZM326.249 130.478C326.249 129.31 325.865 128.286 325.113 127.406C324.361 126.526 323.401 126.078 322.233 126.078C320.873 126.078 319.769 126.75 318.921 128.078V126.222H317.689V138.974H318.937V133.006C319.737 134.27 320.841 134.894 322.233 134.894C323.401 134.894 324.361 134.462 325.113 133.582C325.865 132.702 326.249 131.678 326.249 130.478ZM321.977 133.79C321.097 133.79 320.361 133.47 319.785 132.814C319.209 132.158 318.921 131.374 318.921 130.462C318.921 129.582 319.209 128.83 319.801 128.174C320.393 127.518 321.113 127.182 321.977 127.182C322.889 127.182 323.609 127.502 324.153 128.158C324.697 128.798 324.969 129.582 324.969 130.51C324.969 131.454 324.697 132.238 324.153 132.862C323.625 133.486 322.889 133.79 321.977 133.79ZM336.007 130.878C336.023 130.798 336.023 130.654 336.023 130.462C336.023 129.166 335.671 128.126 334.967 127.31C334.263 126.494 333.271 126.078 331.991 126.078C330.823 126.078 329.831 126.51 329.031 127.39C328.231 128.27 327.831 129.294 327.831 130.478C327.831 131.71 328.247 132.766 329.079 133.63C329.911 134.478 330.935 134.91 332.167 134.91C333.703 134.91 335.063 134.11 335.783 132.702L334.855 132.094C334.359 133.118 333.351 133.806 332.151 133.806C331.319 133.806 330.615 133.534 330.039 132.974C329.463 132.414 329.143 131.71 329.095 130.878H336.007ZM329.111 129.822C329.223 129.086 329.543 128.462 330.087 127.95C330.631 127.422 331.271 127.166 331.991 127.166C333.591 127.166 334.583 128.222 334.759 129.822H329.111ZM345.083 134.19L342.875 138.974H344.219L350.075 126.222H348.731L345.771 132.83L342.635 126.222H341.195L345.083 134.19ZM355.247 134.91C356.495 134.91 357.551 134.478 358.399 133.63C359.247 132.782 359.679 131.726 359.679 130.462C359.679 129.23 359.247 128.206 358.399 127.358C357.551 126.51 356.511 126.078 355.279 126.078C354.015 126.078 352.959 126.51 352.111 127.358C351.263 128.206 350.847 129.262 350.847 130.526C350.847 131.742 351.263 132.782 352.111 133.63C352.959 134.478 354.015 134.91 355.247 134.91ZM355.279 133.806C354.367 133.806 353.599 133.486 353.007 132.83C352.414 132.174 352.127 131.374 352.127 130.462C352.127 129.55 352.414 128.766 353.007 128.126C353.599 127.486 354.335 127.166 355.247 127.166C356.159 127.166 356.911 127.502 357.503 128.158C358.095 128.814 358.399 129.614 358.399 130.526C358.399 131.438 358.095 132.206 357.503 132.846C356.911 133.486 356.175 133.806 355.279 133.806ZM361.781 126.222V131.502C361.781 133.55 362.965 134.926 365.013 134.926C366.309 134.926 367.285 134.35 367.941 133.198V134.766H369.157V126.222H367.925V131.102C367.925 131.87 367.685 132.51 367.205 133.022C366.725 133.534 366.117 133.79 365.381 133.79C363.845 133.79 363.013 132.782 363.013 131.198V126.222H361.781ZM371.986 126.222V134.766H373.234V130.59C373.234 129.71 373.442 128.974 373.874 128.35C374.306 127.726 374.978 127.406 375.906 127.406C376.018 127.406 376.178 127.422 376.386 127.438V126.11C376.322 126.094 376.178 126.094 375.97 126.094C374.882 126.094 373.81 126.686 373.218 127.918V126.222H371.986ZM387.713 132.334C387.713 131.806 387.505 131.326 387.105 130.926C386.641 130.446 385.889 130.094 384.865 129.87C383.281 129.534 382.865 129.23 382.865 128.526C382.865 128.158 383.041 127.854 383.377 127.582C383.713 127.31 384.129 127.182 384.593 127.182C385.473 127.182 386.145 127.662 386.593 128.622L387.617 128.062C387.041 126.734 386.033 126.078 384.593 126.078C383.825 126.078 383.137 126.318 382.529 126.798C381.921 127.278 381.617 127.886 381.617 128.622C381.617 129.118 381.777 129.534 382.081 129.902C382.545 130.43 383.137 130.702 384.305 130.958C385.857 131.326 386.449 131.694 386.449 132.414C386.449 133.262 385.601 133.806 384.625 133.806C383.617 133.806 382.849 133.246 382.321 132.142L381.297 132.702C381.953 134.174 383.073 134.91 384.641 134.91C385.521 134.91 386.257 134.67 386.833 134.19C387.425 133.694 387.713 133.086 387.713 132.334ZM391.187 134.766V130.494H391.235L395.491 134.766H397.235L392.531 130.062L397.027 126.222H395.251L391.187 129.694V121.726H389.939V134.766H391.187ZM398.354 123.166C398.354 123.678 398.77 124.094 399.282 124.094C399.81 124.094 400.226 123.678 400.226 123.166C400.226 122.638 399.81 122.222 399.282 122.222C398.77 122.222 398.354 122.638 398.354 123.166ZM399.922 126.222H398.658V134.766H399.922V126.222ZM404 121.726H402.736V134.766H404V121.726ZM408.078 121.726H406.814V134.766H408.078V121.726ZM416.556 132.334C416.556 131.806 416.348 131.326 415.948 130.926C415.484 130.446 414.732 130.094 413.708 129.87C412.124 129.534 411.708 129.23 411.708 128.526C411.708 128.158 411.884 127.854 412.22 127.582C412.556 127.31 412.972 127.182 413.436 127.182C414.316 127.182 414.988 127.662 415.436 128.622L416.46 128.062C415.884 126.734 414.876 126.078 413.436 126.078C412.668 126.078 411.98 126.318 411.372 126.798C410.764 127.278 410.46 127.886 410.46 128.622C410.46 129.118 410.62 129.534 410.924 129.902C411.388 130.43 411.98 130.702 413.148 130.958C414.7 131.326 415.292 131.694 415.292 132.414C415.292 133.262 414.444 133.806 413.468 133.806C412.46 133.806 411.692 133.246 411.164 132.142L410.14 132.702C410.796 134.174 411.916 134.91 413.484 134.91C414.364 134.91 415.1 134.67 415.676 134.19C416.268 133.694 416.556 133.086 416.556 132.334ZM422.948 123.166C422.948 123.678 423.364 124.094 423.876 124.094C424.404 124.094 424.82 123.678 424.82 123.166C424.82 122.638 424.404 122.222 423.876 122.222C423.364 122.222 422.948 122.638 422.948 123.166ZM424.516 126.222H423.252V134.766H424.516V126.222ZM434.738 134.766V129.486C434.738 127.438 433.554 126.062 431.506 126.062C430.21 126.062 429.234 126.638 428.562 127.79V126.222H427.33V134.766H428.578V129.902C428.578 129.134 428.818 128.494 429.298 127.982C429.778 127.454 430.386 127.198 431.122 127.198C432.658 127.198 433.49 128.206 433.49 129.79V134.766H434.738ZM444.9 134.83C445.268 134.83 445.604 134.782 445.876 134.702V133.662C445.7 133.71 445.444 133.726 445.108 133.726C444.18 133.726 443.716 133.326 443.716 132.526V127.326H445.876V126.222H443.716V123.758H442.484V126.222H440.9V127.326H442.484V132.558C442.484 134.078 443.284 134.83 444.9 134.83ZM455.394 134.766V129.486C455.394 127.438 454.21 126.062 452.162 126.062C450.898 126.062 449.922 126.622 449.234 127.758V121.742H447.986V134.766H449.234V129.902C449.234 129.134 449.474 128.494 449.954 127.982C450.434 127.454 451.042 127.198 451.778 127.198C453.314 127.198 454.146 128.206 454.146 129.79V134.766H455.394ZM461.872 134.91C463.12 134.91 464.176 134.478 465.024 133.63C465.872 132.782 466.304 131.726 466.304 130.462C466.304 129.23 465.872 128.206 465.024 127.358C464.176 126.51 463.136 126.078 461.904 126.078C460.64 126.078 459.584 126.51 458.736 127.358C457.888 128.206 457.472 129.262 457.472 130.526C457.472 131.742 457.888 132.782 458.736 133.63C459.584 134.478 460.64 134.91 461.872 134.91ZM461.904 133.806C460.992 133.806 460.224 133.486 459.632 132.83C459.039 132.174 458.752 131.374 458.752 130.462C458.752 129.55 459.039 128.766 459.632 128.126C460.224 127.486 460.96 127.166 461.872 127.166C462.784 127.166 463.536 127.502 464.128 128.158C464.72 128.814 465.024 129.614 465.024 130.526C465.024 131.438 464.72 132.206 464.128 132.846C463.536 133.486 462.8 133.806 461.904 133.806ZM474.166 132.334C474.166 131.806 473.958 131.326 473.558 130.926C473.094 130.446 472.342 130.094 471.318 129.87C469.734 129.534 469.318 129.23 469.318 128.526C469.318 128.158 469.494 127.854 469.83 127.582C470.166 127.31 470.582 127.182 471.046 127.182C471.926 127.182 472.598 127.662 473.046 128.622L474.07 128.062C473.494 126.734 472.486 126.078 471.046 126.078C470.278 126.078 469.59 126.318 468.982 126.798C468.374 127.278 468.07 127.886 468.07 128.622C468.07 129.118 468.23 129.534 468.534 129.902C468.998 130.43 469.59 130.702 470.758 130.958C472.31 131.326 472.902 131.694 472.902 132.414C472.902 133.262 472.054 133.806 471.078 133.806C470.07 133.806 469.302 133.246 468.774 132.142L467.75 132.702C468.406 134.174 469.526 134.91 471.094 134.91C471.974 134.91 472.71 134.67 473.286 134.19C473.878 133.694 474.166 133.086 474.166 132.334ZM483.944 130.878C483.96 130.798 483.96 130.654 483.96 130.462C483.96 129.166 483.608 128.126 482.904 127.31C482.2 126.494 481.208 126.078 479.928 126.078C478.76 126.078 477.768 126.51 476.968 127.39C476.168 128.27 475.768 129.294 475.768 130.478C475.768 131.71 476.184 132.766 477.016 133.63C477.848 134.478 478.872 134.91 480.104 134.91C481.64 134.91 483 134.11 483.72 132.702L482.792 132.094C482.296 133.118 481.288 133.806 480.088 133.806C479.256 133.806 478.552 133.534 477.976 132.974C477.4 132.414 477.08 131.71 477.032 130.878H483.944ZM477.048 129.822C477.16 129.086 477.48 128.462 478.024 127.95C478.568 127.422 479.208 127.166 479.928 127.166C481.528 127.166 482.52 128.222 482.696 129.822H477.048ZM489.572 126.222V127.31H491.156V134.766H492.404V127.31H496.34V134.766H497.588V126.222H492.404V124.606C492.404 123.278 493.06 122.798 493.828 122.798C494.196 122.798 494.5 122.83 494.724 122.91V121.854C494.404 121.742 494.084 121.694 493.78 121.694C492.196 121.694 491.156 122.718 491.156 124.638V126.222H489.572ZM496.036 123.166C496.036 123.678 496.452 124.094 496.964 124.094C497.492 124.094 497.908 123.678 497.908 123.166C497.908 122.638 497.492 122.222 496.964 122.222C496.452 122.222 496.036 122.638 496.036 123.166ZM507.976 130.878C507.992 130.798 507.992 130.654 507.992 130.462C507.992 129.166 507.64 128.126 506.936 127.31C506.232 126.494 505.24 126.078 503.96 126.078C502.792 126.078 501.8 126.51 501 127.39C500.2 128.27 499.8 129.294 499.8 130.478C499.8 131.71 500.216 132.766 501.048 133.63C501.88 134.478 502.904 134.91 504.136 134.91C505.672 134.91 507.032 134.11 507.752 132.702L506.824 132.094C506.328 133.118 505.32 133.806 504.12 133.806C503.288 133.806 502.584 133.534 502.008 132.974C501.432 132.414 501.112 131.71 501.064 130.878H507.976ZM501.08 129.822C501.192 129.086 501.512 128.462 502.056 127.95C502.6 127.422 503.24 127.166 503.96 127.166C505.56 127.166 506.552 128.222 506.728 129.822H501.08ZM511.406 121.726H510.142V134.766H511.406V121.726ZM513.613 130.478C513.613 131.694 513.981 132.734 514.717 133.598C515.469 134.462 516.429 134.894 517.613 134.894C519.037 134.894 520.157 134.238 520.941 132.942V134.766H522.157V121.742H520.925V128.014C520.045 126.718 518.941 126.078 517.613 126.078C516.445 126.078 515.485 126.526 514.733 127.406C513.981 128.286 513.613 129.31 513.613 130.478ZM517.869 133.79C516.957 133.79 516.237 133.47 515.693 132.846C515.149 132.206 514.877 131.422 514.877 130.51C514.877 129.566 515.149 128.766 515.693 128.142C516.237 127.502 516.957 127.182 517.869 127.182C518.733 127.182 519.453 127.518 520.045 128.174C520.637 128.83 520.941 129.582 520.941 130.462C520.941 131.374 520.653 132.158 520.061 132.814C519.485 133.47 518.749 133.79 517.869 133.79ZM530.65 132.334C530.65 131.806 530.442 131.326 530.042 130.926C529.578 130.446 528.826 130.094 527.802 129.87C526.218 129.534 525.802 129.23 525.802 128.526C525.802 128.158 525.978 127.854 526.314 127.582C526.65 127.31 527.066 127.182 527.53 127.182C528.41 127.182 529.082 127.662 529.53 128.622L530.554 128.062C529.978 126.734 528.97 126.078 527.53 126.078C526.762 126.078 526.074 126.318 525.466 126.798C524.858 127.278 524.554 127.886 524.554 128.622C524.554 129.118 524.714 129.534 525.018 129.902C525.482 130.43 526.074 130.702 527.242 130.958C528.794 131.326 529.386 131.694 529.386 132.414C529.386 133.262 528.538 133.806 527.562 133.806C526.554 133.806 525.786 133.246 525.258 132.142L524.234 132.702C524.89 134.174 526.01 134.91 527.578 134.91C528.458 134.91 529.194 134.67 529.77 134.19C530.362 133.694 530.65 133.086 530.65 132.334ZM533.709 132.606C533.069 132.606 532.557 133.118 532.557 133.758C532.557 134.398 533.069 134.91 533.709 134.91C534.333 134.91 534.845 134.398 534.845 133.758C534.845 133.118 534.333 132.606 533.709 132.606Z" fill="#003C3C"/>
<path d="M48.4434 170.098H36.3718V172.705H39.8241C41.676 172.705 42.7963 173.345 43.1621 174.602H36.3718V176.751H43.1392C42.7048 178.032 41.6074 178.672 39.8241 178.672H36.3718V181.187L39.8927 181.21L43.345 188H46.4544L42.5905 180.638C44.5339 179.929 45.677 178.649 46.0428 176.751H48.4434V174.602H45.9971C45.7456 173.665 45.1969 172.933 44.3967 172.407H48.4434V170.098ZM63.0029 182.97C63.0029 180.958 61.9741 179.564 59.9164 178.763V178.74C61.7226 177.872 62.6142 176.5 62.6142 174.648C62.6142 173.299 62.0655 172.179 60.9909 171.241C59.9164 170.304 58.4532 169.847 56.6241 169.847C53.5833 169.847 51.4571 171.493 50.634 173.871L53.0803 174.991C53.812 173.276 54.978 172.407 56.5784 172.407C58.5903 172.407 59.7563 173.482 59.7563 174.945C59.7563 175.677 59.4591 176.317 58.8418 176.843C58.2474 177.369 57.4929 177.62 56.5784 177.62H54.8179V180.158H56.7384C57.7215 180.158 58.5217 180.432 59.139 180.981C59.7792 181.507 60.0993 182.17 60.0993 182.924C60.0993 183.656 59.7792 184.296 59.1162 184.845C58.4532 185.371 57.6529 185.645 56.6927 185.645C54.8865 185.645 53.5833 184.753 52.806 182.993L50.3825 184.182C51.4571 186.857 53.5376 188.206 56.647 188.206C58.4989 188.206 60.0078 187.703 61.1967 186.697C62.4085 185.668 63.0029 184.433 63.0029 182.97ZM70.764 185.759C69.5522 185.759 68.3176 185.234 67.083 184.205L65.6198 186.24C67.1516 187.566 68.8664 188.229 70.764 188.229C76.3654 188.229 78.7203 183.473 78.7203 178.398C78.7203 175.334 78.0573 173.139 76.7084 171.79C75.4052 170.487 73.7819 169.847 71.8385 169.847C70.0324 169.847 68.5006 170.418 67.2202 171.584C65.9628 172.728 65.3226 174.191 65.3226 175.997C65.3226 177.712 65.8942 179.129 67.0145 180.204C68.1347 181.278 69.5751 181.827 71.3127 181.827C73.0732 181.827 74.9022 180.981 75.931 179.541H75.9768C75.8167 181.713 75.1537 183.542 73.5761 184.822C72.7988 185.439 71.8614 185.759 70.764 185.759ZM71.8843 179.381C69.7123 179.381 68.2262 177.986 68.2262 175.86C68.2262 173.756 69.758 172.407 71.8843 172.407C74.0791 172.407 75.6338 173.733 75.6338 175.928C75.6338 176.934 75.268 177.757 74.5135 178.42C73.759 179.061 72.8902 179.381 71.8843 179.381ZM86.4377 185.759C85.2259 185.759 83.9913 185.234 82.7567 184.205L81.2935 186.24C82.8253 187.566 84.54 188.229 86.4377 188.229C92.0391 188.229 94.394 183.473 94.394 178.398C94.394 175.334 93.7309 173.139 92.382 171.79C91.0788 170.487 89.4556 169.847 87.5122 169.847C85.706 169.847 84.1742 170.418 82.8939 171.584C81.6364 172.728 80.9963 174.191 80.9963 175.997C80.9963 177.712 81.5678 179.129 82.6881 180.204C83.8084 181.278 85.2488 181.827 86.9864 181.827C88.7468 181.827 90.5759 180.981 91.6047 179.541H91.6504C91.4904 181.713 90.8273 183.542 89.2498 184.822C88.4725 185.439 87.5351 185.759 86.4377 185.759ZM87.5579 179.381C85.386 179.381 83.8999 177.986 83.8999 175.86C83.8999 173.756 85.4317 172.407 87.5579 172.407C89.7528 172.407 91.3075 173.733 91.3075 175.928C91.3075 176.934 90.9417 177.757 90.1872 178.42C89.4327 179.061 88.5639 179.381 87.5579 179.381Z" fill="#003C3C"/>
<path d="M99.3189 187.042L104.557 175.043H102.816L97.5776 187.042H99.3189ZM117.054 186.969H118.839V175.512H116.483L112.664 184.276H112.649L108.772 175.512H106.475V186.969H108.245V178.658H108.274L111.976 186.969H113.308L117.025 178.614H117.054V186.969ZM125.071 178.994C123.93 178.994 122.949 179.389 122.145 180.165C121.34 180.94 120.93 181.906 120.93 183.047C120.93 184.189 121.325 185.154 122.13 185.93C122.935 186.705 123.915 187.1 125.057 187.1C126.212 187.1 127.178 186.705 127.968 185.93C128.773 185.14 129.168 184.174 129.168 183.018C129.168 181.877 128.773 180.926 127.968 180.15C127.164 179.375 126.198 178.994 125.071 178.994ZM123.359 181.291C123.798 180.809 124.369 180.574 125.057 180.574C125.744 180.574 126.315 180.809 126.739 181.291C127.178 181.774 127.398 182.36 127.398 183.047C127.398 183.735 127.178 184.32 126.754 184.803C126.33 185.286 125.759 185.52 125.071 185.52C124.383 185.52 123.813 185.271 123.374 184.789C122.935 184.291 122.715 183.706 122.715 183.018C122.715 182.33 122.935 181.76 123.359 181.291ZM137.997 186.969V182.155C137.997 180.282 136.988 178.994 135.071 178.994C134.076 178.994 133.286 179.404 132.686 180.209V179.155H130.988V186.969H132.73V182.623C132.73 181.438 133.432 180.648 134.529 180.648C135.685 180.648 136.256 181.423 136.256 182.594V186.969H137.997ZM144.506 180.721V179.155H142.589V176.741H140.848V179.155H139.414V180.721H140.848V184.452C140.848 186.149 141.843 187.057 143.555 187.057C143.891 187.057 144.213 186.998 144.491 186.896V185.418C144.301 185.462 144.111 185.476 143.935 185.476C143.043 185.476 142.589 185.11 142.589 184.174V180.721H144.506ZM153.344 186.969V182.155C153.344 180.282 152.334 178.994 150.418 178.994C149.466 178.994 148.676 179.375 148.076 180.15V175.058H146.335V186.969H148.076V182.623C148.076 181.438 148.779 180.648 149.876 180.648C151.032 180.648 151.603 181.423 151.603 182.594V186.969H153.344Z" fill="#003C3C"/>
<defs>
<filter id="filter0_d_528_7060" x="1219.26" y="36.4855" width="283.13" height="240.13" filterUnits="userSpaceOnUse" color-interpolation-filters="sRGB">
<feFlood flood-opacity="0" result="BackgroundImageFix"/>
<feColorMatrix in="SourceAlpha" type="matrix" values="0 0 0 0 0 0 0 0 0 0 0 0 0 0 0 0 0 0 127 0" result="hardAlpha"/>
<feOffset dy="6.16"/>
<feGaussianBlur stdDeviation="22.7239"/>
<feComposite in2="hardAlpha" operator="out"/>
<feColorMatrix type="matrix" values="0 0 0 0 0 0 0 0 0 0 0 0 0 0 0 0 0 0 0.03 0"/>
<feBlend mode="normal" in2="BackgroundImageFix" result="effect1_dropShadow_528_7060"/>
<feBlend mode="normal" in="SourceGraphic" in2="effect1_dropShadow_528_7060" result="shape"/>
</filter>
<filter id="filter1_d_528_7060" x="1256.31" y="0.712109" width="283.13" height="240.13" filterUnits="userSpaceOnUse" color-interpolation-filters="sRGB">
<feFlood flood-opacity="0" result="BackgroundImageFix"/>
<feColorMatrix in="SourceAlpha" type="matrix" values="0 0 0 0 0 0 0 0 0 0 0 0 0 0 0 0 0 0 127 0" result="hardAlpha"/>
<feOffset dy="6.16"/>
<feGaussianBlur stdDeviation="22.7239"/>
<feComposite in2="hardAlpha" operator="out"/>
<feColorMatrix type="matrix" values="0 0 0 0 0 0 0 0 0 0 0 0 0 0 0 0 0 0 0.07 0"/>
<feBlend mode="normal" in2="BackgroundImageFix" result="effect1_dropShadow_528_7060"/>
<feBlend mode="normal" in="SourceGraphic" in2="effect1_dropShadow_528_7060" result="shape"/>
</filter>
<filter id="filter2_d_528_7060" x="902" y="71.7578" width="282.633" height="131.438" filterUnits="userSpaceOnUse" color-interpolation-filters="sRGB">
<feFlood flood-opacity="0" result="BackgroundImageFix"/>
<feColorMatrix in="SourceAlpha" type="matrix" values="0 0 0 0 0 0 0 0 0 0 0 0 0 0 0 0 0 0 127 0" result="hardAlpha"/>
<feOffset dy="7"/>
<feGaussianBlur stdDeviation="18"/>
<feColorMatrix type="matrix" values="0 0 0 0 0 0 0 0 0 0 0 0 0 0 0 0 0 0 0.102 0"/>
<feBlend mode="normal" in2="BackgroundImageFix" result="effect1_dropShadow_528_7060"/>
<feBlend mode="normal" in="SourceGraphic" in2="effect1_dropShadow_528_7060" result="shape"/>
</filter>
<linearGradient id="paint0_linear_528_7060" x1="902.93" y1="153.534" x2="902.828" y2="184.779" gradientUnits="userSpaceOnUse">
<stop stop-color="#1898AF"/>
<stop offset="1" stop-color="#63BB4C"/>
</linearGradient>
</defs>
</svg>
