<svg width="24" height="24" viewBox="0 0 24 24" fill="none" xmlns="http://www.w3.org/2000/svg">
<path fill-rule="evenodd" clip-rule="evenodd" d="M12.8229 3.70716C12.7679 3.3078 12.4205 3 12.0001 3C11.5415 3 11.1698 3.36631 11.1698 3.81818L11.1698 18.1999L5.91866 13.0047L5.8257 12.9253C5.50114 12.687 5.0398 12.7124 4.74441 13.0023C4.41948 13.3212 4.41839 13.8392 4.74198 14.1594L11.4004 20.7477C11.4386 20.787 11.4806 20.8224 11.526 20.8536C11.8502 21.0766 12.3001 21.0452 12.5889 20.7593L19.2581 14.1593L19.3383 14.0674C19.5787 13.7466 19.551 13.2921 19.2555 13.0023C18.9306 12.6834 18.4049 12.6845 18.0813 13.0047L12.8304 18.2012L12.8304 3.81818L12.8229 3.70716Z" fill="#0FA76F"/>
<path d="M12.8229 3.70716L13.3217 3.6731L13.3205 3.65597L13.3182 3.63897L12.8229 3.70716ZM11.1698 3.81818L10.6698 3.81818L11.1698 3.81818ZM11.1698 18.1999L10.8181 18.5554L11.6698 19.398L11.6698 18.1999L11.1698 18.1999ZM5.91866 13.0047L6.27031 12.6493L6.25732 12.6364L6.24342 12.6245L5.91866 13.0047ZM5.8257 12.9253L6.15046 12.5451L6.13646 12.5332L6.12163 12.5223L5.8257 12.9253ZM4.74441 13.0023L5.09461 13.3592L5.09461 13.3592L4.74441 13.0023ZM4.74198 14.1594L4.3903 14.5148L4.3903 14.5148L4.74198 14.1594ZM11.4004 20.7477L11.759 20.3991L11.7521 20.3923L11.4004 20.7477ZM11.526 20.8536L11.8094 20.4416L11.809 20.4414L11.526 20.8536ZM12.5889 20.7593L12.2372 20.4039L12.2372 20.4039L12.5889 20.7593ZM19.2581 14.1593L19.6098 14.5147L19.6228 14.5018L19.6349 14.488L19.2581 14.1593ZM19.3383 14.0674L19.7151 14.3961L19.7272 14.3821L19.7383 14.3673L19.3383 14.0674ZM19.2555 13.0023L18.9054 13.3592L19.2555 13.0023ZM18.0813 13.0047L17.7296 12.6494L17.7296 12.6494L18.0813 13.0047ZM12.8304 18.2012L12.3304 18.2012L12.3304 19.3995L13.1821 18.5566L12.8304 18.2012ZM12.8304 3.81818L13.3304 3.81818L13.3304 3.80113L13.3293 3.78413L12.8304 3.81818ZM12.0001 3.5C12.1729 3.5 12.3069 3.62563 12.3275 3.77535L13.3182 3.63897C13.2288 2.98998 12.6681 2.5 12.0001 2.5L12.0001 3.5ZM11.6698 3.81818C11.6698 3.64937 11.8107 3.5 12.0001 3.5L12.0001 2.5C11.2724 2.5 10.6698 3.08325 10.6698 3.81818L11.6698 3.81818ZM11.6698 18.1999L11.6698 3.81818L10.6698 3.81818L10.6698 18.1999L11.6698 18.1999ZM5.567 13.3601L10.8181 18.5554L11.5214 17.8445L6.27031 12.6493L5.567 13.3601ZM5.50094 13.3055L5.5939 13.3849L6.24342 12.6245L6.15046 12.5451L5.50094 13.3055ZM5.09461 13.3592C5.21197 13.244 5.39927 13.2325 5.52976 13.3283L6.12163 12.5223C5.60301 12.1414 4.86764 12.1808 4.39421 12.6454L5.09461 13.3592ZM5.09366 13.804C4.96843 13.6801 4.96881 13.4826 5.09461 13.3592L4.39421 12.6454C3.87015 13.1597 3.86835 13.9983 4.3903 14.5148L5.09366 13.804ZM11.7521 20.3923L5.09366 13.804L4.3903 14.5148L11.0488 21.1032L11.7521 20.3923ZM11.809 20.4414C11.7909 20.4289 11.7741 20.4148 11.7589 20.3992L11.0419 21.0963C11.1031 21.1591 11.1704 21.216 11.243 21.2658L11.809 20.4414ZM12.2372 20.4039C12.1226 20.5173 11.94 20.5315 11.8094 20.4416L11.2426 21.2655C11.7604 21.6217 12.4775 21.5731 12.9406 21.1147L12.2372 20.4039ZM18.9064 13.8039L12.2372 20.4039L12.9406 21.1147L19.6098 14.5147L18.9064 13.8039ZM18.9615 13.7387L18.8813 13.8307L19.6349 14.488L19.7151 14.3961L18.9615 13.7387ZM18.9054 13.3592C19.0199 13.4715 19.0301 13.6449 18.9382 13.7675L19.7383 14.3673C20.1274 13.8483 20.082 13.1127 19.6057 12.6453L18.9054 13.3592ZM18.433 13.3601C18.5623 13.2322 18.7754 13.2317 18.9054 13.3592L19.6057 12.6453C19.0857 12.1352 18.2474 12.1369 17.7296 12.6494L18.433 13.3601ZM13.1821 18.5566L18.433 13.3601L17.7296 12.6494L12.4787 17.8458L13.1821 18.5566ZM12.3304 3.81818L12.3304 18.2012L13.3304 18.2012L13.3304 3.81818L12.3304 3.81818ZM12.324 3.74122L12.3316 3.85224L13.3293 3.78413L13.3217 3.6731L12.324 3.74122Z" fill="#0FA76F"/>
</svg>
