<svg xmlns="http://www.w3.org/2000/svg" xmlns:xlink="http://www.w3.org/1999/xlink" width="650.502" height="572.554" viewBox="0 0 650.502 572.554"><defs><style>.a{fill:#f1f1f1;}.b{fill:#bdbdbd;}.c{fill:url(#a);}.d{fill:#ffd3bc;}.e{fill:url(#b);}.f{fill:#192b59;}.g{fill:url(#c);}.h{fill:url(#d);}.i{fill:url(#e);}.j{fill:#e64d4e;}.k{fill:url(#f);}.l{fill:#f2dad4;}.m{fill:url(#g);}.n{fill:url(#h);}</style><linearGradient id="a" x1="0.5" y1="-0.227" x2="0.5" y2="0.559" gradientUnits="objectBoundingBox"><stop offset="0" stop-color="#e5e5e5"/><stop offset="0.476" stop-color="#f3f3f3"/><stop offset="1" stop-color="#fff"/></linearGradient><linearGradient id="b" x1="86.402" y1="0.412" x2="87.007" y2="0.823" gradientUnits="objectBoundingBox"><stop offset="0" stop-color="#4e9cff"/><stop offset="0.984" stop-color="#176ad4"/></linearGradient><linearGradient id="c" x1="1.154" y1="0.568" x2="0.42" y2="0.49" gradientUnits="objectBoundingBox"><stop offset="0" stop-color="#f2bfad"/><stop offset="1" stop-color="#f2dad4"/></linearGradient><linearGradient id="d" x1="0.202" y1="0.241" x2="1.023" y2="0.87" xlink:href="#b"/><linearGradient id="e" x1="0.51" y1="0.622" x2="0.569" y2="1.822" gradientUnits="objectBoundingBox"><stop offset="0" stop-color="#f2bfad"/><stop offset="0.704" stop-color="#f2dad4"/></linearGradient><linearGradient id="f" x1="0.404" y1="0.306" x2="0.835" y2="1.076" xlink:href="#c"/><linearGradient id="g" x1="0.386" y1="0.075" x2="0.681" y2="1.17" gradientUnits="objectBoundingBox"><stop offset="0" stop-color="#f6dbdb"/><stop offset="1" stop-color="#eb9a99"/></linearGradient><linearGradient id="h" x1="0.314" y1="0.412" x2="0.919" y2="0.823" xlink:href="#b"/></defs><g transform="translate(-788.502 -307.946)"><g transform="translate(611.488 -338.664)"><path class="a" d="M311.979,651.077a103.822,103.822,0,0,1,10.993-2.369,69.773,69.773,0,0,1,10.993-1.015,52.081,52.081,0,0,1,11.162,1.185,30.636,30.636,0,0,1,9.641,3.89,20.081,20.081,0,0,1,6.765,7.441,24.943,24.943,0,0,1,2.537,11.838V775.89h30.1a30.5,30.5,0,0,1,3.044,7.272,33.755,33.755,0,0,1,1.352,9.64c0,6.088-1.409,10.628-4.228,13.532q-4.229,4.4-11.331,4.4H364.069v44.986q-2.706.677-8.118,1.691a58.542,58.542,0,0,1-10.824,1.015q-10.824,0-16.912-3.382-6.089-3.34-6.088-14.884V810.73H233.506a23.518,23.518,0,0,1-9.81-8.966,26.987,26.987,0,0,1-4.059-15.052,50,50,0,0,1,1.014-9.808,25.2,25.2,0,0,1,3.721-9.133Zm12.177,40.252h-.676L265.3,775.89h58.517Z" transform="translate(0 1.284)"/><path class="a" d="M312.426,863.074a86.841,86.841,0,0,1-34.67-6.766A72.212,72.212,0,0,1,250.7,836.183q-11.332-13.361-17.589-33.656t-6.257-47.354q0-27.4,6.765-47.693t18.265-33.657a71.9,71.9,0,0,1,27.059-19.787,87.369,87.369,0,0,1,33.487-6.427,84.9,84.9,0,0,1,33.487,6.6,75.246,75.246,0,0,1,27.229,19.789q11.669,13.188,18.435,33.486t6.765,47.693q0,27.1-6.258,47.184-6.258,20.17-17.758,33.657A73.22,73.22,0,0,1,347.1,856.308,86.837,86.837,0,0,1,312.426,863.074Zm42.619-107.9q0-37.206-12.008-54.965T312.426,682.45c-12.4,0-22.55,6-30.442,17.927q-11.838,17.968-11.838,54.8,0,36.234,10.993,54.627c7.329,12.318,17.759,18.434,31.288,18.434s24.016-6.116,31.457-18.434Q355.046,791.364,355.045,755.173Z" transform="translate(200.348 0.001)"/><path class="a" d="M300.337,647.609q35.854,0,55.811,15.223T376.1,705.45a45.544,45.544,0,0,1-2.875,16.574,50.765,50.765,0,0,1-7.272,13.022,48.587,48.587,0,0,1-9.809,9.471,46.716,46.716,0,0,1-10.824,5.92,69.037,69.037,0,0,1,13.361,6.427,46,46,0,0,1,11.669,10.316,54.6,54.6,0,0,1,8.287,14.544,52.74,52.74,0,0,1,3.213,19.112q0,14.924-5.919,26.384a55.752,55.752,0,0,1-16.574,19.449,74.889,74.889,0,0,1-25.538,12.008,123.171,123.171,0,0,1-32.472,4.059,153.483,153.483,0,0,1-28.413-2.367,85.3,85.3,0,0,1-21.31-6.6c-5.863-2.82-10.316-6.118-13.361-9.978a19.281,19.281,0,0,1-4.567-12.177,20.692,20.692,0,0,1,3.552-12.178,24.046,24.046,0,0,1,8.963-7.78,100.03,100.03,0,0,0,19.618,10.994c7.893,3.523,18.266,5.241,31.119,5.241,13.3,0,23.621-2.564,30.95-7.78,7.3-5.185,10.993-12.627,10.993-22.324,0-8.99-3.214-16.067-9.641-21.14s-16.4-7.61-29.935-7.61h-30.1a27.773,27.773,0,0,1-3.044-7.1,33.01,33.01,0,0,1-1.353-9.81,34.556,34.556,0,0,1,1.353-10.147,29.126,29.126,0,0,1,3.044-7.1h29.089c12.177,0,21-2.367,26.552-7.1,5.525-4.735,8.286-11.021,8.286-18.942,0-8.315-3.269-14.882-9.809-19.618-6.567-4.735-15.9-7.1-28.074-7.1q-15.221,0-26.384,4.23a100.424,100.424,0,0,0-18.942,9.3,31.393,31.393,0,0,1-7.78-7.78,18.644,18.644,0,0,1-3.382-11.162,18.029,18.029,0,0,1,4.567-11.841,37.811,37.811,0,0,1,12.684-9.3,76.947,76.947,0,0,1,19.45-5.92A141.275,141.275,0,0,1,300.337,647.609Z" transform="translate(393.71 -0.999)"/></g><g transform="translate(39.109 -13.453)"><g transform="translate(749.393 606.52)"><path class="b" d="M1778.615,910.816a4.52,4.52,0,0,0-8.931,1.4c.649,4.209,1.474,17.4-3.076,22.7a6.075,6.075,0,0,1-3.669,2.11l.414-25.118a6.533,6.533,0,1,0-13.063.054l1.18,47.667a6.1,6.1,0,0,1-3.823-2.13c-4.551-5.307-3.725-18.5-3.077-22.7a4.519,4.519,0,1,0-8.93-1.4c-.325,2.074-2.937,20.541,5.134,29.972a15.3,15.3,0,0,0,10.922,5.369l.514,20.748h9.863l.716-43.349a15.272,15.272,0,0,0,10.692-5.351C1781.552,931.357,1778.94,912.89,1778.615,910.816Z" transform="translate(-1243.229 -905.268)"/><path class="b" d="M1215.123,966.126a2.881,2.881,0,1,0-5.693.89c.413,2.683.939,11.09-1.962,14.473a3.873,3.873,0,0,1-2.339,1.345l.264-16.012a4.165,4.165,0,1,0-8.328.035l.753,30.386a3.883,3.883,0,0,1-2.437-1.357c-2.9-3.383-2.375-11.79-1.962-14.474a2.881,2.881,0,1,0-5.692-.89c-.207,1.323-1.873,13.094,3.272,19.106a9.754,9.754,0,0,0,6.962,3.422l.328,13.227h6.287l.456-27.633a9.741,9.741,0,0,0,6.817-3.412C1217,979.219,1215.33,967.448,1215.123,966.126Z" transform="translate(-1100.855 -920.169)"/><ellipse class="c" cx="325.251" cy="115.145" rx="325.251" ry="115.145" transform="translate(0 57.144)"/></g><g transform="translate(996.406 348.722)"><path class="d" d="M1575.721,949.224s-.189,11.081-.005,12.191-4.337,7.6-6.187,7.316-5.549-.9-6.083-1.521-.3-2.07-.108-3.4,1.574-13.4,1.574-14.012S1573.665,947.539,1575.721,949.224Z" transform="translate(-1468.14 -658.705)"/><path class="e" d="M1568.089,964.784c-2.314,1.251-3.613,5.055-3.941,5.1s-.941-.047-.941-.423.094-1.645-.329-1.645-.893,2.068-.987,5.076-1.164,10.181,0,11.094c.73.572,7.427,4.089,7.615,4.559s-.142,3.761.423,4.277,1.88,1.786,2.914,1.834,7,.658,9.825,0,6.392-2.022,6.486-2.4-.705-8.367-1.6-9.354-7.333-9.824-7.851-10.623a9.124,9.124,0,0,1-.893-3.855c0-1.128-1.021-3.589-2.919-4.182C1573.914,963.628,1569.828,963.844,1568.089,964.784Z" transform="translate(-1467.681 -662.711)"/><path class="d" d="M1488.818,957.882s0,6.453-.186,7.563,4.338,7.6,6.188,7.316,5.549-.9,6.083-1.52.3-2.071.109-3.4-1.383-8.768-1.383-9.384S1490.873,956.2,1488.818,957.882Z" transform="translate(-1448.775 -660.956)"/><path class="f" d="M1493.67,765.17c-2.618,9.52-7.57,42.134-7.57,57.983s-1.585,56.262-1.585,62.4-.661,21.378.926,22.172,5.291,3.174,10.316,2.381,6.349-3.968,6.48-6.878,1.323-23.806,2.513-31.874,5.423-23.628,8.2-33.637,9.258-30.134,10.978-30.057,12.43,44.169,13.322,46.668,2.593,38,2.7,40.982,0,5.849,1.876,7.062,7.614,4.192,10.592,4.414,4.965-4.524,5.517-5.959,1.53-48.923,1.177-61.95.677-37.32.075-45.241-2.539-24.9-3.772-28.468S1493.67,765.17,1493.67,765.17Z" transform="translate(-1447.671 -610.638)"/><path class="g" d="M1467.47,601.478c2.5-2.777,14.16-15.919,16.474-16.382s7.946-1.481,9.2-2.777,6.568-17.972,4.465-21.005-10.217-2.172-12.675,2.99-2.336,7.868-6.393,11.433-21.733,18.017-23.379,19.477,1.619,8.553,4.2,9.782S1467.47,601.478,1467.47,601.478Z" transform="translate(-1439.961 -557.602)"/><path class="h" d="M1494.511,617.515c-5.958,1.249-15.857,2.307-19.124,3.363s-16.145,5.574-16.049,3.652,5.959-10.379,4.9-11.244-7.4-1.922-8.456-3.267-2.5-4.516-3.941-4.132-18.154,15.952-17.01,21.911c2.7,14.05,42.2,24.288,43.1,30.416s-3.064,64.885-.9,67.048,25.053,10.454,36.588,11.175,31.77-3.3,32.875-6.335-5.629-61.417-4.847-61.417,1,18.377,9.788,23.13c5.8,3.137,13.779-.095,15.306-1.826s-5.452-26.163-8.61-34.4-6.179-25.265-13.319-31.307-17.219-5.014-20.689-6.434-15.112-.4-18.048-.709S1494.511,617.515,1494.511,617.515Z" transform="translate(-1434.776 -569.635)"/><path class="i" d="M1611.748,701.291s-10.272,3.1-11.073,4.173-2.226,5.342,0,7.124,4.667,3.113,7.308,1.058,5.049-4.821,6.575-5.17,6.091.307,8.007-.445,5.553-15.282,4.085-16.162S1611.748,701.291,1611.748,701.291Z" transform="translate(-1477.593 -591.981)"/><path class="j" d="M1511.573,602.828c-3.315-.687-9.714-6.946-10.3-13.306-.572-6.2-5.128-23.61,10.733-30.141,14.882-6.128,30.2.176,32.4,7.734,2.056,7.058-15.414,7.375-21.818,11.972s-6.84,7.648-8.439,6.922S1511.573,602.828,1511.573,602.828Z" transform="translate(-1451.792 -556.911)"/><path class="k" d="M1515.053,601.165c-.211,2.838-.924,16.565.264,18.586,1.092,1.856,3.031,7.25,10.637,7.012s12.539-7.844,12.955-8.735-.476-11.886-.476-13.728-10.221-6.181-14.322-6.062S1515.25,598.5,1515.053,601.165Z" transform="translate(-1455.54 -567.654)"/><path class="l" d="M1513.672,594.438c.859-.024-.155,5.207,1.4,6.916s8.318,10.625,15.476,9.754c6.19-.753,5.3-6.087,6.194-10.478.81-3.987,3.383-4.33,4.286-14.74.349-4.03,2.254-10.336-1.244-11.5s-16.63-4.274-19.894,0-3.575,14.532-5.285,13.211-5.285-7.771-7.383-4.274S1509.086,594.57,1513.672,594.438Z" transform="translate(-1453.459 -560.886)"/><path class="m" d="M1583.327,673.8,1562.5,700.14a2.069,2.069,0,0,0,1.658,3.352l38.5-.654a2.067,2.067,0,0,0,1.621-.829l19.678-26.3a1.879,1.879,0,0,0-1.519-3l-37.505.311A2.068,2.068,0,0,0,1583.327,673.8Z" transform="translate(-1467.861 -587.014)"/><path class="d" d="M1629.641,688.516c-2.027.2-4.971,1.344-4.971,2.4s2.363,1.351,3.015,1.45,1.508.3,1.263.628-.733,1.957-2.037,1.671a79.774,79.774,0,0,0-8.109-.367c-1.1,0-2.4.775-2.485,1.59s-.326.978-.978,1.019-1.834.652-1.834,1.711,2.617,2.014,2.617,2.388,5.135,3.511,6.142,4.094,2.887,2.065,3.947,2.065,2.834-1.006,2.966-2.463,2.225-2.516,2.251-3.231-.662-1.245-.583-1.695,1.907-1.086,1.907-2.225a12.912,12.912,0,0,0-.821-3.152c-.106-.477-.53-1.51-.106-1.642s1.906-1.51,1.641-2.781S1630.577,688.421,1629.641,688.516Z" transform="translate(-1481.238 -591.119)"/><path class="n" d="M1490.917,967.189c2.313,1.251,3.612,5.054,3.942,5.1s.94-.047.94-.423-.094-1.645.329-1.645.893,2.068.987,5.077,1.163,10.181,0,11.093c-.73.572-7.427,4.09-7.615,4.56s.141,3.76-.423,4.277-1.88,1.786-2.914,1.833-7,.658-9.824,0-6.393-2.021-6.487-2.4.705-8.368,1.6-9.354,7.333-9.825,7.849-10.624a9.119,9.119,0,0,0,.893-3.854c0-1.129,1.021-3.59,2.92-4.183C1485.091,966.034,1489.178,966.249,1490.917,967.189Z" transform="translate(-1443.892 -663.337)"/></g></g></g></svg>