<svg width="48" height="55" viewBox="0 0 48 55" fill="none" xmlns="http://www.w3.org/2000/svg">
<path d="M10.282 0C9.38751 0.00257937 8.53036 0.359069 7.89784 0.991591C7.26532 1.62411 6.90883 2.48126 6.90625 3.37578V50.6347C6.90883 51.5292 7.26532 52.3863 7.89784 53.0189C8.53036 53.6514 9.38751 54.0079 10.282 54.0105H44.0388C44.9333 54.0079 45.7905 53.6514 46.423 53.0189C47.0555 52.3863 47.412 51.5292 47.4146 50.6347V13.5021L33.9115 0H10.282Z" fill="#E2E5E7"/>
<path d="M37.282 13.5021H47.4094L33.9062 0V10.1273C33.9091 11.0217 34.2657 11.8786 34.8982 12.5109C35.5307 13.1432 36.3877 13.4995 37.282 13.5021Z" fill="#B0B7BD"/>
<path d="M47.4086 23.6351L37.2812 13.5078H47.4086V23.6351Z" fill="#CAD1D8"/>
<path d="M40.5074 44.1053C40.5058 44.5524 40.3275 44.9807 40.0114 45.2968C39.6953 45.6129 39.267 45.7912 38.82 45.7928H1.6874C1.24035 45.7912 0.812052 45.6129 0.495937 45.2968C0.179823 44.9807 0.00154601 44.5524 0 44.1053V27.2265C0.00154601 26.7794 0.179823 26.3511 0.495937 26.035C0.812052 25.7189 1.24035 25.5406 1.6874 25.5391H38.82C39.267 25.5406 39.6953 25.7189 40.0114 26.035C40.3275 26.3511 40.5058 26.7794 40.5074 27.2265V44.1053Z" fill="#84BD5A"/>
<path d="M38.9727 45.5702H6.90625V47.2586H38.9727C39.4199 47.257 39.8484 47.0786 40.1645 46.7623C40.4807 46.446 40.6588 46.0174 40.6601 45.5702V43.8828C40.6588 44.3299 40.4806 44.7584 40.1645 45.0745C39.8483 45.3907 39.4198 45.5689 38.9727 45.5702Z" fill="#CAD1D8"/>
<path d="M14.5189 35.9816V34.8407H11.015V32.5491H14.8112V31.3984H9.77344V39.3036H11.015V35.9796L14.5189 35.9816ZM16.2552 39.3036H17.4968V31.3984H16.2552V39.3036ZM20.7523 38.1529V31.3984H19.5107V39.3036H24.3167V38.1529H20.7523ZM30.5404 32.5188V31.3984H25.4821V39.3036H30.5805V38.1735H26.7247V35.8408H30.1972V34.7204H26.7247V32.5188H30.5404Z" fill="#161619"/>
</svg>
