<svg width="24" height="24" viewBox="0 0 24 24" fill="none" xmlns="http://www.w3.org/2000/svg">
<path d="M18.3017 2H5.69826C4.7177 2.00092 3.77757 2.39085 3.08421 3.08421C2.39085 3.77757 2.00092 4.7177 2 5.69826V18.3017C2.00092 19.2823 2.39085 20.2224 3.08421 20.9158C3.77757 21.6091 4.7177 21.9991 5.69826 22H18.3017C18.3304 22 18.3565 21.9922 18.3887 21.9913L18.4313 22C18.4775 21.9955 18.5232 21.9868 18.5678 21.9739C19.4979 21.9085 20.3688 21.4934 21.0055 20.8122C21.6422 20.131 21.9975 19.2341 22 18.3017V5.69826C21.9991 4.7177 21.6091 3.77757 20.9158 3.08421C20.2224 2.39085 19.2823 2.00092 18.3017 2ZM5.69826 3.4287H18.3017C18.9035 3.42916 19.4805 3.66842 19.9061 4.09394C20.3316 4.51947 20.5708 5.09648 20.5713 5.69826V15.4183L17.3617 12.2087C17.2279 12.0748 17.0463 11.9996 16.857 11.9996C16.6676 11.9996 16.4861 12.0748 16.3522 12.2087L13.3574 15.2035L7.14783 8.99478C7.01394 8.86092 6.83237 8.78571 6.64304 8.78571C6.45372 8.78571 6.27214 8.86092 6.13826 8.99478L3.4287 11.7043V5.69826C3.42916 5.09648 3.66842 4.51947 4.09394 4.09394C4.51947 3.66842 5.09648 3.42916 5.69826 3.4287ZM3.4287 18.2983V13.7243L6.64609 10.507L16.7043 20.5713H5.69826C5.09648 20.5708 4.51947 20.3316 4.09394 19.9061C3.66842 19.4805 3.42916 18.9035 3.4287 18.3017V18.2983ZM18.6861 20.5287L14.3678 16.2104L16.8574 13.7209L20.5713 17.4348V18.2983C20.5698 18.8326 20.3798 19.3492 20.0348 19.7572C19.6898 20.1652 19.2119 20.4384 18.6852 20.5287H18.6861Z" fill="#8A94A9"/>
<path d="M16.6484 9.85938C17.1429 9.85938 17.6262 9.71275 18.0374 9.43805C18.4485 9.16335 18.7689 8.7729 18.9581 8.31608C19.1474 7.85927 19.1969 7.3566 19.1004 6.87165C19.0039 6.3867 18.7658 5.94124 18.4162 5.59161C18.0666 5.24198 17.6211 5.00388 17.1362 4.90741C16.6512 4.81095 16.1485 4.86046 15.6917 5.04968C15.2349 5.2389 14.8445 5.55933 14.5698 5.97045C14.2951 6.38157 14.1484 6.86492 14.1484 7.35938C14.1484 8.02242 14.4118 8.6583 14.8807 9.12714C15.3495 9.59598 15.9854 9.85938 16.6484 9.85938ZM16.6484 6.28807C16.8603 6.28807 17.0674 6.3509 17.2436 6.46862C17.4198 6.58634 17.5571 6.75365 17.6382 6.94941C17.7193 7.14516 17.7405 7.36056 17.6992 7.56838C17.6578 7.77619 17.5558 7.96708 17.406 8.1169C17.2561 8.26673 17.0653 8.36876 16.8574 8.4101C16.6496 8.45143 16.4342 8.43022 16.2385 8.34913C16.0427 8.26805 15.8754 8.13074 15.7577 7.95456C15.64 7.77839 15.5771 7.57126 15.5771 7.35938C15.5771 7.07525 15.69 6.80276 15.8909 6.60185C16.0918 6.40094 16.3643 6.28807 16.6484 6.28807Z" fill="#8A94A9"/>
</svg>
