<svg xmlns="http://www.w3.org/2000/svg" width="63" height="63" viewBox="0 0 63 63">
  <g id="Group_20311" data-name="Group 20311" transform="translate(-1118 -943)">
    <g id="Group_20312" data-name="Group 20312">
      <path id="Path_37104" data-name="Path 37104" d="M31.5,0A31.5,31.5,0,1,1,0,31.5,31.5,31.5,0,0,1,31.5,0Z" transform="translate(1118 943)" fill="#a5adb5"/>
      <path id="Icon_awesome-share-alt" data-name="Icon awesome-share-alt" d="M14.671,13.337a3.984,3.984,0,0,0-2.492.871l-4.271-2.67a4.024,4.024,0,0,0,0-1.737l4.271-2.67A3.994,3.994,0,1,0,10.765,4.87L6.493,7.539a4,4,0,1,0,0,6.261l4.271,2.67a4,4,0,1,0,3.906-3.133Z" transform="translate(1140 964)" fill="#fff"/>
    </g>
  </g>
</svg>
