<svg xmlns="http://www.w3.org/2000/svg" width="7" height="11" viewBox="0 0 7 11"><defs><style>.a{fill:#0fa76f;}</style></defs><g transform="translate(0 0)"><g transform="translate(0 0)"><path class="a" d="M6.73,8.779,4.823,6.468a.833.833,0,0,0-.855-.29l-.157.04A.352.352,0,0,1,3.4,6a4.594,4.594,0,0,1-.271-.991.287.287,0,0,1,.207-.323.876.876,0,0,0,.593-.518.987.987,0,0,0,.068-.439l-.2-2.7A1.125,1.125,0,0,0,3.341.179.991.991,0,0,0,2.433.044l-1.4.571A1.5,1.5,0,0,0,.056,1.909a11.092,11.092,0,0,0,2.793,8.512.455.455,0,0,0,.414.132.479.479,0,0,0,.342-.281l.012-.024a.531.531,0,0,0-.1-.578A10.044,10.044,0,0,1,1,2.235a.8.8,0,0,1,.529-.705l.95-.415a.267.267,0,0,1,.239.039.3.3,0,0,1,.122.223l.149,2.032a.348.348,0,0,1-.25.367l-.322.083a.534.534,0,0,0-.376.6A6.937,6.937,0,0,0,3.049,7.364a.482.482,0,0,0,.6.2l.436-.187a.314.314,0,0,1,.372.1l1.38,1.744a.311.311,0,0,1,.058.269.29.29,0,0,1-.176.2l-.773.29a.5.5,0,0,0-.29.291.548.548,0,0,0,.011.423.475.475,0,0,0,.605.264l1.033-.4a1.075,1.075,0,0,0,.668-.769A1.149,1.149,0,0,0,6.73,8.779Z" transform="translate(-0.002 0.011)"/><path class="a" d="M22.514,1.244a.535.535,0,0,0,.376.483,1.082,1.082,0,0,1,.777.98,1.108,1.108,0,0,1-.626,1.1.55.55,0,0,0-.3.543.558.558,0,0,0,.257.43.493.493,0,0,0,.478.025A2.218,2.218,0,0,0,24.7,2.624,2.167,2.167,0,0,0,23.175.673a.5.5,0,0,0-.471.1.568.568,0,0,0-.19.469Z" transform="translate(-17.863 -0.506)"/></g></g></svg>