<svg xmlns="http://www.w3.org/2000/svg" width="11" height="8" viewBox="0 0 11 8"><defs><style>.a{fill:#0fa76f;}</style></defs><g transform="translate(0 0)"><g transform="translate(0 0)"><path class="a" d="M22.832,13.115l2.42-1.976a.557.557,0,0,0,.174-.764.547.547,0,0,0-.757-.178l-2.42,1.976a.558.558,0,0,0,.167,1.013.543.543,0,0,0,.416-.071Z" transform="translate(-17.152 -7.866)"/><path class="a" d="M14.258,12.173,11.838,10.2a.547.547,0,0,0-.757.178.557.557,0,0,0,.174.764l2.42,1.976a.547.547,0,0,0,.736-.191.559.559,0,0,0-.155-.751Z" transform="translate(-8.578 -7.866)"/><path class="a" d="M9.192,0H1.808A1.818,1.818,0,0,0,0,1.827V6.173A1.818,1.818,0,0,0,1.808,8H9.192A1.818,1.818,0,0,0,11,6.173V1.827A1.818,1.818,0,0,0,9.192,0ZM9.9,6.173a.712.712,0,0,1-.708.716H1.808A.712.712,0,0,1,1.1,6.173V1.827a.712.712,0,0,1,.708-.716H9.192a.712.712,0,0,1,.708.716Z" transform="translate(0)"/></g></g></svg>