<svg width="1290" height="258" viewBox="0 0 1290 258" fill="none" xmlns="http://www.w3.org/2000/svg">
<rect y="15" width="1290" height="213" rx="14" fill="#F3F9EB"/>
<rect y="15" width="1181.52" height="213" rx="14" fill="#D3EBCE"/>
<g filter="url(#filter0_d_528_7061)">
<rect x="1032" y="72.0234" width="172.116" height="133.611" rx="10.3653" fill="white"/>
<rect x="1032.2" y="72.2228" width="171.717" height="133.212" rx="10.166" stroke="#EEF1FB" stroke-width="0.398666"/>
</g>
<rect x="1042.38" y="168.438" width="151.379" height="19.284" rx="3.98666" fill="#F0F3FB"/>
<rect x="1061.73" y="176.023" width="125.803" height="4.13229" rx="2.06615" fill="#304FFD"/>
<ellipse cx="1052.05" cy="178.089" rx="6.22105" ry="6.19844" fill="#304FFD"/>
<path d="M1048.94 178.261L1051.18 180.499L1055.16 176.539" stroke="white" stroke-width="1.59466" stroke-linecap="round" stroke-linejoin="round"/>
<rect x="1042.38" y="142.266" width="151.379" height="19.284" rx="3.98666" fill="#F0F3FB"/>
<rect x="1048.59" y="149.844" width="138.591" height="4.13229" rx="2.06615" fill="#DDE4F1"/>
<rect x="1042.38" y="116.102" width="151.379" height="19.284" rx="3.98666" fill="#F0F3FB"/>
<rect x="1048.59" y="123.68" width="138.591" height="4.13231" rx="2.06615" fill="#DDE4F1"/>
<rect x="1042.38" y="89.9297" width="151.379" height="19.284" rx="3.98666" fill="#F0F3FB"/>
<rect x="1048.59" y="97.5078" width="138.591" height="4.13229" rx="2.06615" fill="#DDE4F1"/>
<g filter="url(#filter1_d_528_7061)">
<rect x="1065.17" y="40" width="172.116" height="133.611" rx="10.3653" fill="white"/>
<rect x="1065.37" y="40.1993" width="171.717" height="133.212" rx="10.166" stroke="#EEF1FB" stroke-width="0.398666"/>
</g>
<path d="M1075.54 58.3014C1075.54 53.8979 1079.11 50.3281 1083.51 50.3281H1218.94C1223.35 50.3281 1226.92 53.8979 1226.92 58.3014V103.16C1226.92 105.362 1225.13 107.147 1222.93 107.147H1079.53C1077.32 107.147 1075.54 105.362 1075.54 103.16V58.3014Z" fill="#F0F3FB"/>
<rect x="1075.54" y="115.07" width="151.379" height="19.284" rx="3.98666" fill="#F0F3FB"/>
<rect x="1094.89" y="122.648" width="125.803" height="4.13229" rx="2.06615" fill="#06B151"/>
<ellipse cx="1085.21" cy="124.714" rx="6.22104" ry="6.19844" fill="#06B151"/>
<path d="M1082.1 124.886L1084.35 127.124L1088.32 123.164" stroke="white" stroke-width="1.59466" stroke-linecap="round" stroke-linejoin="round"/>
<rect x="1075.54" y="142.273" width="151.379" height="19.284" rx="3.98666" fill="#F0F3FB"/>
<rect x="1081.76" y="149.852" width="138.591" height="4.13229" rx="2.06615" fill="#DDE4F1"/>
<ellipse cx="1152.96" cy="78.5664" rx="15.5526" ry="15.4961" fill="#DDE4F1"/>
<path d="M1157.82 77.1852C1158.88 77.7984 1158.88 79.3365 1157.82 79.9497L1151.72 83.4554C1150.66 84.0669 1149.33 83.2996 1149.33 82.0731L1149.33 75.0618C1149.33 73.8353 1150.66 73.068 1151.72 73.6795L1157.82 77.1852Z" fill="white"/>
<path d="M746.173 165.988C745.331 166.305 744.489 166.626 743.646 166.938C736.25 169.679 728.851 172.476 721.134 174.108C712.913 175.846 704.639 177.455 696.101 177.169C690.643 177.001 685.211 176.331 679.876 175.167C674.037 173.877 668.722 171.034 663.747 167.279C662.087 165.995 660.514 164.602 659.039 163.109C658.553 162.627 657.866 161.892 658.231 161.358C658.607 160.808 659.261 161.626 659.719 161.962C664.493 165.461 669.493 168.383 674.987 170.033C678.482 171.007 682.071 171.604 685.693 171.815C691.036 172.367 696.417 172.464 701.777 172.105C705.489 171.768 709.131 171.043 712.808 170.507C719.768 169.495 726.419 167.321 733.1 165.265C735.846 164.419 738.534 163.381 741.377 162.387C740.94 162.2 740.457 162.148 739.991 162.237C736.364 162.277 732.74 162.052 729.146 161.564C727.616 161.361 726.14 160.867 724.796 160.109C724.381 159.765 724.067 159.314 723.889 158.806C723.71 158.297 723.674 157.749 723.784 157.222C723.851 157.051 723.972 156.908 724.128 156.811C724.283 156.715 724.466 156.672 724.648 156.688C725.685 156.63 726.726 156.618 727.765 156.605C735.739 156.507 743.728 156.651 751.682 156.25C752.977 156.125 754.284 156.2 755.556 156.473C755.713 156.492 755.861 156.559 755.978 156.665C756.096 156.772 756.178 156.912 756.212 157.066C756.754 158.991 756.805 160.748 755.431 162.257C752.241 165.761 749.1 169.319 745.956 172.876C743.921 175.181 742.07 177.686 739.841 179.781C739.446 180.15 739.053 180.699 738.481 180.444C737.886 180.177 737.998 179.432 737.913 178.872C737.798 177.825 738.076 176.773 738.695 175.92C740.669 172.814 742.912 169.889 745.4 167.176C745.695 166.852 745.982 166.518 746.272 166.19L746.173 165.988Z" fill="url(#paint0_linear_528_7061)"/>
<g filter="url(#filter2_d_528_7061)">
<path d="M966.636 95.7578H768C764.686 95.7578 762 98.4416 762 101.752V149.2C762 152.511 764.686 155.195 768 155.195H966.636C969.95 155.195 972.636 152.511 972.636 149.2V101.752C972.636 98.4416 969.95 95.7578 966.636 95.7578Z" fill="#0FA76F"/>
</g>
<path d="M796.54 131.922C798.16 131.922 799.46 131.482 800.42 130.582C801.38 129.682 801.86 128.622 801.86 127.402C801.86 126.262 801.48 125.322 800.74 124.602C800 123.862 798.66 123.202 796.72 122.622C794.8 122.042 793.82 121.402 793.82 120.222C793.82 118.962 794.92 118.082 796.44 118.082C797.94 118.082 799 118.822 799.6 120.282L801.64 119.182C800.9 117.242 799.14 115.862 796.5 115.862C795.04 115.862 793.82 116.302 792.8 117.182C791.8 118.042 791.3 119.102 791.3 120.362C791.3 121.562 791.7 122.522 792.5 123.222C793.26 123.902 794.48 124.502 796.18 125.042C798.42 125.742 799.32 126.402 799.32 127.542C799.32 128.842 798.18 129.682 796.58 129.682C794.88 129.682 793.52 128.762 792.86 127.082L790.78 128.162C791.66 130.562 793.8 131.922 796.54 131.922ZM804.293 121.062V127.622C804.293 130.182 805.713 131.962 808.293 131.962C809.653 131.962 810.733 131.402 811.553 130.302V131.742H813.873V121.062H811.493V127.002C811.493 128.622 810.533 129.702 809.033 129.702C807.453 129.702 806.673 128.642 806.673 127.042V121.062H804.293ZM828.209 126.362C828.209 124.942 827.729 123.662 826.749 122.542C825.789 121.422 824.529 120.862 822.969 120.862C822.349 120.862 821.689 121.022 820.989 121.342C820.289 121.642 819.789 122.082 819.449 122.642V115.462H817.069V131.742H819.389V130.102C819.729 130.662 820.249 131.102 820.949 131.422C821.649 131.742 822.309 131.902 822.909 131.902C824.449 131.902 825.709 131.362 826.709 130.262C827.709 129.162 828.209 127.862 828.209 126.362ZM820.289 123.982C820.889 123.322 821.669 123.002 822.609 123.002C823.549 123.002 824.329 123.322 824.909 123.982C825.509 124.642 825.809 125.442 825.809 126.382C825.809 127.322 825.509 128.122 824.909 128.782C824.329 129.422 823.549 129.742 822.609 129.742C821.669 129.742 820.889 129.422 820.289 128.782C819.709 128.122 819.409 127.322 819.409 126.382C819.409 125.442 819.709 124.642 820.289 123.982ZM834.142 131.922C835.342 131.922 836.322 131.622 837.062 131.002C837.802 130.382 838.182 129.582 838.182 128.602C838.182 126.942 836.902 125.782 834.482 125.242C833.102 124.942 832.502 124.582 832.502 123.882C832.502 123.302 833.262 122.842 834.002 122.842C835.022 122.842 835.762 123.322 836.242 124.282L838.082 123.242C837.342 121.642 836.002 120.842 834.082 120.842C833.042 120.842 832.142 121.142 831.362 121.762C830.582 122.382 830.202 123.162 830.202 124.122C830.202 124.882 830.462 125.522 830.962 126.062C831.542 126.682 832.442 127.102 833.622 127.342C835.082 127.642 835.822 128.122 835.822 128.742C835.822 129.462 835.042 129.922 834.142 129.922C833.002 129.922 832.162 129.342 831.582 128.202L829.722 129.242C830.542 131.022 832.022 131.922 834.142 131.922ZM845.561 131.922C846.861 131.922 847.921 131.602 848.741 130.962C849.561 130.322 850.141 129.562 850.441 128.702L848.361 127.782C847.861 129.102 846.941 129.762 845.601 129.762C844.701 129.762 843.941 129.442 843.341 128.802C842.741 128.162 842.441 127.342 842.441 126.342C842.441 125.362 842.741 124.562 843.341 123.942C843.961 123.322 844.701 123.002 845.581 123.002C846.941 123.002 847.861 123.662 848.321 124.962L850.361 124.042C849.721 122.142 847.961 120.842 845.561 120.842C843.981 120.842 842.661 121.382 841.601 122.482C840.541 123.582 840.001 124.882 840.001 126.382C840.001 127.962 840.541 129.282 841.601 130.342C842.661 131.402 843.981 131.922 845.561 131.922ZM858.573 121.022C858.433 120.982 858.253 120.962 857.993 120.962C856.693 120.962 855.713 121.562 855.053 122.762V121.062H852.733V131.742H855.113V126.322C855.113 124.462 856.073 123.402 857.893 123.402C858.153 123.402 858.373 123.422 858.573 123.462V121.022ZM860.664 118.702C861.284 119.322 862.244 119.322 862.864 118.702C863.484 118.082 863.484 117.122 862.864 116.502C862.244 115.862 861.284 115.862 860.664 116.502C860.044 117.122 860.044 118.082 860.664 118.702ZM862.964 121.062H860.584V131.742H862.964V121.062ZM877.291 126.362C877.291 124.942 876.811 123.662 875.831 122.542C874.871 121.422 873.611 120.862 872.051 120.862C871.431 120.862 870.771 121.022 870.071 121.342C869.371 121.642 868.871 122.082 868.531 122.642V115.462H866.151V131.742H868.471V130.102C868.811 130.662 869.331 131.102 870.031 131.422C870.731 131.742 871.391 131.902 871.991 131.902C873.531 131.902 874.791 131.362 875.791 130.262C876.791 129.162 877.291 127.862 877.291 126.362ZM869.371 123.982C869.971 123.322 870.751 123.002 871.691 123.002C872.631 123.002 873.411 123.322 873.991 123.982C874.591 124.642 874.891 125.442 874.891 126.382C874.891 127.322 874.591 128.122 873.991 128.782C873.411 129.422 872.631 129.742 871.691 129.742C870.751 129.742 869.971 129.422 869.371 128.782C868.791 128.122 868.491 127.322 868.491 126.382C868.491 125.442 868.791 124.642 869.371 123.982ZM889.584 127.102C889.604 126.922 889.624 126.682 889.624 126.362C889.624 124.702 889.164 123.382 888.244 122.362C887.324 121.342 886.044 120.842 884.424 120.842C882.884 120.842 881.604 121.382 880.584 122.462C879.564 123.542 879.044 124.842 879.044 126.382C879.044 127.962 879.584 129.302 880.644 130.362C881.724 131.422 883.064 131.942 884.644 131.942C886.564 131.942 888.304 131.022 889.204 129.362L887.484 128.222C886.904 129.322 885.944 129.882 884.604 129.882C883.784 129.882 883.064 129.622 882.444 129.102C881.824 128.562 881.504 127.902 881.484 127.102H889.584ZM884.424 122.882C885.944 122.882 887.124 123.802 887.204 125.302H881.604C881.824 123.842 882.964 122.882 884.424 122.882ZM908.242 131.742H910.802V116.082H908.362V127.622L900.642 116.082H897.742V131.742H900.162V119.682L908.242 131.742ZM919.313 120.842C917.753 120.842 916.413 121.382 915.313 122.442C914.213 123.502 913.653 124.822 913.653 126.382C913.653 127.942 914.193 129.262 915.293 130.322C916.393 131.382 917.733 131.922 919.293 131.922C920.873 131.922 922.193 131.382 923.273 130.322C924.373 129.242 924.913 127.922 924.913 126.342C924.913 124.782 924.373 123.482 923.273 122.422C922.173 121.362 920.853 120.842 919.313 120.842ZM916.973 123.982C917.573 123.322 918.353 123.002 919.293 123.002C920.233 123.002 921.013 123.322 921.593 123.982C922.193 124.642 922.493 125.442 922.493 126.382C922.493 127.322 922.193 128.122 921.613 128.782C921.033 129.442 920.253 129.762 919.313 129.762C918.373 129.762 917.593 129.422 916.993 128.762C916.393 128.082 916.093 127.282 916.093 126.342C916.093 125.402 916.393 124.622 916.973 123.982ZM940.286 121.062L938.046 128.622H938.006L935.566 121.062H933.166L930.746 128.602H930.726L928.486 121.062H925.986L929.406 131.742H931.846L934.326 124.242H934.366L936.826 131.742H939.306L942.726 121.062H940.286Z" fill="white"/>
<path opacity="0.15" d="M957 119.738C979.091 119.738 997 101.846 997 79.7755C997 57.7045 979.091 39.8125 957 39.8125C934.909 39.8125 917 57.7045 917 79.7755C917 101.846 934.909 119.738 957 119.738Z" fill="#56B55C"/>
<path opacity="0.15" d="M856 203.66C866.493 203.66 875 195.161 875 184.678C875 174.194 866.493 165.695 856 165.695C845.507 165.695 837 174.194 837 184.678C837 195.161 845.507 203.66 856 203.66Z" fill="#56B55C"/>
<mask id="mask0_528_7061" style="mask-type:alpha" maskUnits="userSpaceOnUse" x="0" y="112" width="127" height="116">
<rect y="112" width="127" height="116" rx="14" fill="#C4C4C4"/>
</mask>
<g mask="url(#mask0_528_7061)">
<path d="M25.5 275.595C69.4066 275.595 105 240.035 105 196.169C105 152.303 69.4066 116.742 25.5 116.742C-18.4066 116.742 -54 152.303 -54 196.169C-54 240.035 -18.4066 275.595 25.5 275.595Z" fill="#C0E3BD"/>
</g>
<path d="M414.504 74.2005C415.341 72.7293 416.382 71.3723 417.597 70.166C418.928 68.9555 420.406 67.9024 421.999 67.0294" stroke="#1A987C" stroke-width="3" stroke-linecap="round" stroke-linejoin="round"/>
<path d="M408.966 74.3676C409.198 72.7059 409.661 71.0815 410.344 69.5378C411.134 67.9508 412.119 66.4602 413.28 65.0983" stroke="#1A987C" stroke-width="3.00157" stroke-linecap="round" stroke-linejoin="round"/>
<path d="M31.4932 50.2247C30.6552 48.7535 29.6146 47.3965 28.3992 46.1902C27.0687 44.9797 25.5909 43.9266 23.9977 43.0536" stroke="#1A987C" stroke-width="3" stroke-linecap="round" stroke-linejoin="round"/>
<path d="M37.0242 50.3873C36.7928 48.7257 36.3292 47.1012 35.646 45.5576C34.8567 43.9705 33.871 42.4799 32.7099 41.118" stroke="#1A987C" stroke-width="3.00157" stroke-linecap="round" stroke-linejoin="round"/>
<path d="M54 61.7547C53.45 60.1297 52.4 58.7797 50.85 57.6547C49.3 56.5297 47.4 55.9547 45.175 55.9547C42.45 55.9547 40.125 56.9297 38.15 58.8547C36.175 60.7797 35.2 63.1797 35.2 66.0547C35.2 68.9297 36.125 71.3297 37.975 73.2047C39.825 75.0797 42.225 76.0297 45.15 76.0297C47.925 76.0297 50.125 75.1797 51.775 73.4797C53.45 71.7547 54.275 69.6297 54.275 67.0797V66.0047H43.925V68.8047H50.95C50.475 71.3797 48.425 73.2047 45.125 73.2047C43.175 73.2047 41.575 72.5047 40.3 71.1297C39.025 69.7547 38.4 68.0297 38.4 65.9797C38.4 63.9297 39.05 62.2297 40.325 60.8547C41.625 59.4797 43.225 58.8047 45.15 58.8047C48.25 58.8047 50.25 60.5047 51.275 63.0047L54 61.7547ZM64.6135 62.4047C64.4385 62.3547 64.2135 62.3297 63.8885 62.3297C62.2635 62.3297 61.0385 63.0797 60.2135 64.5797V62.4547H57.3135V75.8047H60.2885V69.0297C60.2885 66.7047 61.4885 65.3797 63.7635 65.3797C64.0885 65.3797 64.3635 65.4047 64.6135 65.4547V62.4047ZM74.5088 66.7547C74.5088 67.5047 74.0838 67.8797 73.2588 67.8797H71.6088C69.2588 67.8797 66.0588 68.8547 66.0588 71.9547V72.1047C66.0588 73.2547 66.4838 74.2047 67.3338 74.9297C68.1838 75.6547 69.2588 76.0297 70.5588 76.0297C72.3588 76.0297 73.6588 75.3547 74.4838 73.9797V75.8047H77.4088V67.3047C77.4088 66.3797 77.2588 65.5797 76.9588 64.9047C76.1338 63.0797 74.4588 62.1797 71.9588 62.1797C69.2338 62.1797 67.3338 63.3047 66.2838 65.5797L68.5588 66.8797C69.2338 65.4547 70.3588 64.7547 71.8838 64.7547C73.5588 64.7547 74.5088 65.6547 74.5088 66.7547ZM74.4838 70.4047C74.4838 72.4047 73.1838 73.6547 71.1588 73.6547C69.8838 73.6547 69.0338 72.9297 69.0338 71.8297C69.0338 71.2547 69.3088 70.8047 69.8338 70.4797C70.3838 70.1547 70.9838 69.9797 71.6088 69.9797H74.4838V70.4047ZM95.1887 69.0797C95.1887 67.3047 94.5887 65.7047 93.3637 64.3047C92.1637 62.9047 90.5887 62.2047 88.6387 62.2047C87.8637 62.2047 87.0387 62.4047 86.1637 62.8047C85.2887 63.1797 84.6637 63.7297 84.2387 64.4297V55.4547H81.2637V75.8047H84.1637V73.7547C84.5887 74.4547 85.2387 75.0047 86.1137 75.4047C86.9887 75.8047 87.8137 76.0047 88.5637 76.0047C90.4887 76.0047 92.0637 75.3297 93.3137 73.9547C94.5637 72.5797 95.1887 70.9547 95.1887 69.0797ZM85.2887 66.1047C86.0387 65.2797 87.0137 64.8797 88.1887 64.8797C89.3637 64.8797 90.3387 65.2797 91.0637 66.1047C91.8137 66.9297 92.1887 67.9297 92.1887 69.1047C92.1887 70.2797 91.8137 71.2797 91.0637 72.1047C90.3387 72.9047 89.3637 73.3047 88.1887 73.3047C87.0137 73.3047 86.0387 72.9047 85.2887 72.1047C84.5637 71.2797 84.1887 70.2797 84.1887 69.1047C84.1887 67.9297 84.5637 66.9297 85.2887 66.1047ZM112.205 69.0797C112.205 67.3047 111.605 65.7047 110.38 64.3047C109.18 62.9047 107.605 62.2047 105.655 62.2047C104.88 62.2047 104.055 62.4047 103.18 62.8047C102.305 63.1797 101.68 63.7297 101.255 64.4297V55.4547H98.2803V75.8047H101.18V73.7547C101.605 74.4547 102.255 75.0047 103.13 75.4047C104.005 75.8047 104.83 76.0047 105.58 76.0047C107.505 76.0047 109.08 75.3297 110.33 73.9547C111.58 72.5797 112.205 70.9547 112.205 69.0797ZM102.305 66.1047C103.055 65.2797 104.03 64.8797 105.205 64.8797C106.38 64.8797 107.355 65.2797 108.08 66.1047C108.83 66.9297 109.205 67.9297 109.205 69.1047C109.205 70.2797 108.83 71.2797 108.08 72.1047C107.355 72.9047 106.38 73.3047 105.205 73.3047C104.03 73.3047 103.055 72.9047 102.305 72.1047C101.58 71.2797 101.205 70.2797 101.205 69.1047C101.205 67.9297 101.58 66.9297 102.305 66.1047ZM129.222 69.0797C129.222 67.3047 128.622 65.7047 127.397 64.3047C126.197 62.9047 124.622 62.2047 122.672 62.2047C121.897 62.2047 121.072 62.4047 120.197 62.8047C119.322 63.1797 118.697 63.7297 118.272 64.4297V55.4547H115.297V75.8047H118.197V73.7547C118.622 74.4547 119.272 75.0047 120.147 75.4047C121.022 75.8047 121.847 76.0047 122.597 76.0047C124.522 76.0047 126.097 75.3297 127.347 73.9547C128.597 72.5797 129.222 70.9547 129.222 69.0797ZM119.322 66.1047C120.072 65.2797 121.047 64.8797 122.222 64.8797C123.397 64.8797 124.372 65.2797 125.097 66.1047C125.847 66.9297 126.222 67.9297 126.222 69.1047C126.222 70.2797 125.847 71.2797 125.097 72.1047C124.372 72.9047 123.397 73.3047 122.222 73.3047C121.047 73.3047 120.072 72.9047 119.322 72.1047C118.597 71.2797 118.222 70.2797 118.222 69.1047C118.222 67.9297 118.597 66.9297 119.322 66.1047ZM138.105 66.0547C138.105 68.9297 139.08 71.3047 141.005 73.2047C142.93 75.0797 145.305 76.0297 148.105 76.0297C150.905 76.0297 153.28 75.0797 155.255 73.1547C157.23 71.2297 158.205 68.8297 158.205 65.9797C158.205 63.1297 157.23 60.7547 155.28 58.8297C153.355 56.9047 150.98 55.9547 148.18 55.9547C145.405 55.9547 143.03 56.9297 141.055 58.8797C139.08 60.8297 138.105 63.2297 138.105 66.0547ZM148.155 73.1797C146.23 73.1797 144.63 72.4797 143.305 71.0797C141.98 69.6797 141.33 67.9797 141.33 65.9797C141.33 63.9797 141.98 62.2797 143.305 60.9047C144.63 59.5047 146.23 58.8047 148.155 58.8047C150.055 58.8047 151.655 59.5047 152.98 60.9047C154.305 62.2797 154.98 63.9797 154.98 65.9797C154.98 67.9797 154.305 69.6797 152.98 71.0797C151.655 72.4797 150.055 73.1797 148.155 73.1797ZM161.265 62.4547V70.6547C161.265 73.8547 163.04 76.0797 166.265 76.0797C167.965 76.0797 169.315 75.3797 170.34 74.0047V75.8047H173.24V62.4547H170.265V69.8797C170.265 71.9047 169.065 73.2547 167.19 73.2547C165.215 73.2547 164.24 71.9297 164.24 69.9297V62.4547H161.265ZM184.535 62.4047C184.36 62.3547 184.135 62.3297 183.81 62.3297C182.185 62.3297 180.96 63.0797 180.135 64.5797V62.4547H177.235V75.8047H180.21V69.0297C180.21 66.7047 181.41 65.3797 183.685 65.3797C184.01 65.3797 184.285 65.4047 184.535 65.4547V62.4047Z" fill="#003C3C"/>
<path d="M199.109 76.0297C201.134 76.0297 202.759 75.4797 203.959 74.3547C205.159 73.2297 205.759 71.9047 205.759 70.3797C205.759 68.9547 205.284 67.7797 204.359 66.8797C203.434 65.9547 201.759 65.1297 199.334 64.4047C196.934 63.6797 195.709 62.8797 195.709 61.4047C195.709 59.8297 197.084 58.7297 198.984 58.7297C200.859 58.7297 202.184 59.6547 202.934 61.4797L205.484 60.1047C204.559 57.6797 202.359 55.9547 199.059 55.9547C197.234 55.9547 195.709 56.5047 194.434 57.6047C193.184 58.6797 192.559 60.0047 192.559 61.5797C192.559 63.0797 193.059 64.2797 194.059 65.1547C195.009 66.0047 196.534 66.7547 198.659 67.4297C201.459 68.3047 202.584 69.1297 202.584 70.5547C202.584 72.1797 201.159 73.2297 199.159 73.2297C197.034 73.2297 195.334 72.0797 194.509 69.9797L191.909 71.3297C193.009 74.3297 195.684 76.0297 199.109 76.0297ZM208.799 62.4547V70.6547C208.799 73.8547 210.574 76.0797 213.799 76.0797C215.499 76.0797 216.849 75.3797 217.874 74.0047V75.8047H220.774V62.4547H217.799V69.8797C217.799 71.9047 216.599 73.2547 214.724 73.2547C212.749 73.2547 211.774 71.9297 211.774 69.9297V62.4547H208.799ZM238.695 69.0797C238.695 67.3047 238.095 65.7047 236.87 64.3047C235.67 62.9047 234.095 62.2047 232.145 62.2047C231.37 62.2047 230.545 62.4047 229.67 62.8047C228.795 63.1797 228.17 63.7297 227.745 64.4297V55.4547H224.77V75.8047H227.67V73.7547C228.095 74.4547 228.745 75.0047 229.62 75.4047C230.495 75.8047 231.32 76.0047 232.07 76.0047C233.995 76.0047 235.57 75.3297 236.82 73.9547C238.07 72.5797 238.695 70.9547 238.695 69.0797ZM228.795 66.1047C229.545 65.2797 230.52 64.8797 231.695 64.8797C232.87 64.8797 233.845 65.2797 234.57 66.1047C235.32 66.9297 235.695 67.9297 235.695 69.1047C235.695 70.2797 235.32 71.2797 234.57 72.1047C233.845 72.9047 232.87 73.3047 231.695 73.3047C230.52 73.3047 229.545 72.9047 228.795 72.1047C228.07 71.2797 227.695 70.2797 227.695 69.1047C227.695 67.9297 228.07 66.9297 228.795 66.1047ZM246.111 76.0297C247.611 76.0297 248.836 75.6547 249.761 74.8797C250.686 74.1047 251.161 73.1047 251.161 71.8797C251.161 69.8047 249.561 68.3547 246.536 67.6797C244.811 67.3047 244.061 66.8547 244.061 65.9797C244.061 65.2547 245.011 64.6797 245.936 64.6797C247.211 64.6797 248.136 65.2797 248.736 66.4797L251.036 65.1797C250.111 63.1797 248.436 62.1797 246.036 62.1797C244.736 62.1797 243.611 62.5547 242.636 63.3297C241.661 64.1047 241.186 65.0797 241.186 66.2797C241.186 67.2297 241.511 68.0297 242.136 68.7047C242.861 69.4797 243.986 70.0047 245.461 70.3047C247.286 70.6797 248.211 71.2797 248.211 72.0547C248.211 72.9547 247.236 73.5297 246.111 73.5297C244.686 73.5297 243.636 72.8047 242.911 71.3797L240.586 72.6797C241.611 74.9047 243.461 76.0297 246.111 76.0297ZM260.385 76.0297C262.01 76.0297 263.335 75.6297 264.36 74.8297C265.385 74.0297 266.11 73.0797 266.485 72.0047L263.885 70.8547C263.26 72.5047 262.11 73.3297 260.435 73.3297C259.31 73.3297 258.36 72.9297 257.61 72.1297C256.86 71.3297 256.485 70.3047 256.485 69.0547C256.485 67.8297 256.86 66.8297 257.61 66.0547C258.385 65.2797 259.31 64.8797 260.41 64.8797C262.11 64.8797 263.26 65.7047 263.835 67.3297L266.385 66.1797C265.585 63.8047 263.385 62.1797 260.385 62.1797C258.41 62.1797 256.76 62.8547 255.435 64.2297C254.11 65.6047 253.435 67.2297 253.435 69.1047C253.435 71.0797 254.11 72.7297 255.435 74.0547C256.76 75.3797 258.41 76.0297 260.385 76.0297ZM276.65 62.4047C276.475 62.3547 276.25 62.3297 275.925 62.3297C274.3 62.3297 273.075 63.0797 272.25 64.5797V62.4547H269.35V75.8047H272.325V69.0297C272.325 66.7047 273.525 65.3797 275.8 65.3797C276.125 65.3797 276.4 65.4047 276.65 65.4547V62.4047ZM279.264 59.5047C280.039 60.2797 281.239 60.2797 282.014 59.5047C282.789 58.7297 282.789 57.5297 282.014 56.7547C281.239 55.9547 280.039 55.9547 279.264 56.7547C278.489 57.5297 278.489 58.7297 279.264 59.5047ZM282.139 62.4547H279.164V75.8047H282.139V62.4547ZM300.047 69.0797C300.047 67.3047 299.447 65.7047 298.222 64.3047C297.022 62.9047 295.447 62.2047 293.497 62.2047C292.747 62.2047 291.947 62.3797 291.072 62.7547C290.197 63.1297 289.522 63.7047 289.022 64.5297V62.4547H286.122V82.3797H289.097V73.8547C289.572 74.5797 290.222 75.1047 291.097 75.4797C291.972 75.8297 292.747 76.0047 293.422 76.0047C295.347 76.0047 296.922 75.3297 298.172 73.9547C299.422 72.5797 300.047 70.9547 300.047 69.0797ZM290.147 66.1047C290.897 65.2797 291.872 64.8797 293.047 64.8797C294.222 64.8797 295.197 65.2797 295.922 66.1047C296.672 66.9297 297.047 67.9297 297.047 69.1047C297.047 70.2797 296.672 71.2797 295.922 72.1047C295.197 72.9047 294.222 73.3047 293.047 73.3047C291.872 73.3047 290.897 72.9047 290.147 72.1047C289.422 71.2797 289.047 70.2797 289.047 69.1047C289.047 67.9297 289.422 66.9297 290.147 66.1047ZM303.239 59.5047C304.014 60.2797 305.214 60.2797 305.989 59.5047C306.764 58.7297 306.764 57.5297 305.989 56.7547C305.214 55.9547 304.014 55.9547 303.239 56.7547C302.464 57.5297 302.464 58.7297 303.239 59.5047ZM306.114 62.4547H303.139V75.8047H306.114V62.4547ZM316.247 62.1797C314.297 62.1797 312.622 62.8547 311.247 64.1797C309.872 65.5047 309.172 67.1547 309.172 69.1047C309.172 71.0547 309.847 72.7047 311.222 74.0297C312.597 75.3547 314.272 76.0297 316.222 76.0297C318.197 76.0297 319.847 75.3547 321.197 74.0297C322.572 72.6797 323.247 71.0297 323.247 69.0547C323.247 67.1047 322.572 65.4797 321.197 64.1547C319.822 62.8297 318.172 62.1797 316.247 62.1797ZM313.322 66.1047C314.072 65.2797 315.047 64.8797 316.222 64.8797C317.397 64.8797 318.372 65.2797 319.097 66.1047C319.847 66.9297 320.222 67.9297 320.222 69.1047C320.222 70.2797 319.847 71.2797 319.122 72.1047C318.397 72.9297 317.422 73.3297 316.247 73.3297C315.072 73.3297 314.097 72.9047 313.347 72.0797C312.597 71.2297 312.222 70.2297 312.222 69.0547C312.222 67.8797 312.597 66.9047 313.322 66.1047ZM338.331 75.8047V67.5797C338.331 64.3797 336.606 62.1797 333.331 62.1797C331.631 62.1797 330.281 62.8797 329.256 64.2547V62.4547H326.356V75.8047H329.331V68.3797C329.331 66.3547 330.531 65.0047 332.406 65.0047C334.381 65.0047 335.356 66.3297 335.356 68.3297V75.8047H338.331ZM363.044 62.3047C363.044 60.6297 362.469 59.1797 361.319 58.0047C360.194 56.8297 358.469 56.2297 356.194 56.2297H349.269V75.8047H352.344V68.5547H355.819C358.094 68.5547 359.844 67.9547 361.119 66.7797C362.394 65.5797 363.044 64.0797 363.044 62.3047ZM355.919 59.0797C357.369 59.0797 358.394 59.4047 358.994 60.0547C359.619 60.7047 359.919 61.4797 359.919 62.3797C359.919 64.1797 358.644 65.7297 355.919 65.7297H352.344V59.0797H355.919ZM365.834 75.8047H368.809V55.4547H365.834V75.8047ZM380.417 66.7547C380.417 67.5047 379.992 67.8797 379.167 67.8797H377.517C375.167 67.8797 371.967 68.8547 371.967 71.9547V72.1047C371.967 73.2547 372.392 74.2047 373.242 74.9297C374.092 75.6547 375.167 76.0297 376.467 76.0297C378.267 76.0297 379.567 75.3547 380.392 73.9797V75.8047H383.317V67.3047C383.317 66.3797 383.167 65.5797 382.867 64.9047C382.042 63.0797 380.367 62.1797 377.867 62.1797C375.142 62.1797 373.242 63.3047 372.192 65.5797L374.467 66.8797C375.142 65.4547 376.267 64.7547 377.792 64.7547C379.467 64.7547 380.417 65.6547 380.417 66.7547ZM380.392 70.4047C380.392 72.4047 379.092 73.6547 377.067 73.6547C375.792 73.6547 374.942 72.9297 374.942 71.8297C374.942 71.2547 375.217 70.8047 375.742 70.4797C376.292 70.1547 376.892 69.9797 377.517 69.9797H380.392V70.4047ZM399.147 75.8047V67.5797C399.147 64.3797 397.422 62.1797 394.147 62.1797C392.447 62.1797 391.097 62.8797 390.072 64.2547V62.4547H387.172V75.8047H390.147V68.3797C390.147 66.3547 391.347 65.0047 393.222 65.0047C395.197 65.0047 396.172 66.3297 396.172 68.3297V75.8047H399.147Z" fill="#1A987C"/>
<path opacity="0.7" d="M38.528 106.766H39.856V95.4696H44.032V94.2376H34.336V95.4696H38.528V106.766ZM53.191 106.766V101.486C53.191 99.4376 52.007 98.0616 49.959 98.0616C48.695 98.0616 47.719 98.6216 47.031 99.7576V93.7416H45.783V106.766H47.031V101.902C47.031 101.134 47.271 100.494 47.751 99.9816C48.231 99.4536 48.839 99.1976 49.575 99.1976C51.111 99.1976 51.943 100.206 51.943 101.79V106.766H53.191ZM55.8924 98.2216V106.766H57.1404V102.59C57.1404 101.71 57.3484 100.974 57.7804 100.35C58.2124 99.7256 58.8844 99.4056 59.8124 99.4056C59.9244 99.4056 60.0844 99.4216 60.2924 99.4376V98.1096C60.2284 98.0936 60.0844 98.0936 59.8764 98.0936C58.7884 98.0936 57.7164 98.6856 57.1244 99.9176V98.2216H55.8924ZM65.4496 106.91C66.6976 106.91 67.7536 106.478 68.6016 105.63C69.4496 104.782 69.8816 103.726 69.8816 102.462C69.8816 101.23 69.4496 100.206 68.6016 99.3576C67.7536 98.5096 66.7136 98.0776 65.4816 98.0776C64.2176 98.0776 63.1616 98.5096 62.3136 99.3576C61.4656 100.206 61.0496 101.262 61.0496 102.526C61.0496 103.742 61.4656 104.782 62.3136 105.63C63.1616 106.478 64.2176 106.91 65.4496 106.91ZM65.4816 105.806C64.5696 105.806 63.8016 105.486 63.2096 104.83C62.6176 104.174 62.3296 103.374 62.3296 102.462C62.3296 101.55 62.6176 100.766 63.2096 100.126C63.8016 99.4856 64.5376 99.1656 65.4496 99.1656C66.3616 99.1656 67.1136 99.5016 67.7056 100.158C68.2976 100.814 68.6016 101.614 68.6016 102.526C68.6016 103.438 68.2976 104.206 67.7056 104.846C67.1136 105.486 66.3776 105.806 65.4816 105.806ZM71.9839 98.2216V103.502C71.9839 105.55 73.1679 106.926 75.2159 106.926C76.5119 106.926 77.4879 106.35 78.1439 105.198V106.766H79.3599V98.2216H78.1279V103.102C78.1279 103.87 77.8879 104.51 77.4079 105.022C76.9279 105.534 76.3199 105.79 75.5839 105.79C74.0479 105.79 73.2159 104.782 73.2159 103.198V98.2216H71.9839ZM88.8933 106.846C88.8933 108.942 87.6293 109.95 85.8373 109.95C84.8932 109.95 84.1413 109.662 83.6453 109.15C83.1493 108.638 82.9093 108.286 82.6373 107.694L81.6293 108.286C82.4453 110.126 83.8533 111.038 85.8533 111.038C88.4933 111.038 90.1413 109.502 90.1413 106.798V98.2216H88.9093V100.014C88.0453 98.7176 86.9413 98.0776 85.5813 98.0776C84.4133 98.0776 83.4533 98.5096 82.7013 99.3896C81.9493 100.27 81.5813 101.278 81.5813 102.446C81.5813 103.646 81.9493 104.686 82.6853 105.534C83.4213 106.382 84.3813 106.798 85.5813 106.798C87.0053 106.798 88.1093 106.158 88.8933 104.862V106.846ZM85.8373 105.71C84.9253 105.71 84.2053 105.406 83.6613 104.782C83.1332 104.158 82.8613 103.39 82.8613 102.478C82.8613 101.534 83.1332 100.75 83.6613 100.126C84.1893 99.5016 84.9253 99.1816 85.8373 99.1816C86.7013 99.1816 87.4213 99.5016 88.0133 100.158C88.6053 100.814 88.9093 101.566 88.9093 102.43C88.9093 103.326 88.6213 104.094 88.0293 104.75C87.4533 105.39 86.7173 105.71 85.8373 105.71ZM100.363 106.766V101.486C100.363 99.4376 99.1789 98.0616 97.1309 98.0616C95.8669 98.0616 94.8909 98.6216 94.2029 99.7576V93.7416H92.9549V106.766H94.2029V101.902C94.2029 101.134 94.4429 100.494 94.9229 99.9816C95.4029 99.4536 96.0109 99.1976 96.7469 99.1976C98.2829 99.1976 99.1149 100.206 99.1149 101.79V106.766H100.363ZM109.181 106.766V101.87H111.837C113.293 101.87 114.429 101.502 115.245 100.782C116.061 100.046 116.461 99.1176 116.461 97.9976C116.461 96.9416 116.093 96.0456 115.341 95.3256C114.589 94.6056 113.501 94.2376 112.061 94.2376H107.869V106.766H109.181ZM109.181 95.4696H111.949C113.085 95.4696 113.885 95.7256 114.381 96.2216C114.877 96.7176 115.117 97.3256 115.117 98.0456C115.117 98.7496 114.845 99.3576 114.301 99.8856C113.757 100.398 112.957 100.654 111.885 100.654H109.181V95.4696ZM118.424 98.2216V106.766H119.672V102.59C119.672 101.71 119.88 100.974 120.312 100.35C120.744 99.7256 121.416 99.4056 122.344 99.4056C122.456 99.4056 122.616 99.4216 122.824 99.4376V98.1096C122.76 98.0936 122.616 98.0936 122.408 98.0936C121.32 98.0936 120.248 98.6856 119.656 99.9176V98.2216H118.424ZM124.198 95.1656C124.198 95.6776 124.614 96.0936 125.126 96.0936C125.654 96.0936 126.07 95.6776 126.07 95.1656C126.07 94.6376 125.654 94.2216 125.126 94.2216C124.614 94.2216 124.198 94.6376 124.198 95.1656ZM125.766 98.2216H124.502V106.766H125.766V98.2216ZM135.636 106.766V101.854C135.636 101.102 135.844 100.478 136.276 99.9816C136.708 99.4696 137.284 99.2136 138.004 99.2136C139.492 99.2136 140.212 100.254 140.212 101.79V106.766H141.46V101.486C141.46 99.4376 140.308 98.0776 138.308 98.0776C137.044 98.0776 136.036 98.6376 135.3 99.7736C134.772 98.6376 133.86 98.0616 132.564 98.0616C131.348 98.0616 130.532 98.6056 129.812 99.7096V98.2216H128.58V106.766H129.828V101.902C129.828 101.166 130.036 100.526 130.468 99.9976C130.9 99.4696 131.476 99.1976 132.196 99.1976C133.668 99.1976 134.404 100.27 134.404 101.758V106.766H135.636ZM151.726 102.878C151.742 102.798 151.742 102.654 151.742 102.462C151.742 101.166 151.39 100.126 150.686 99.3096C149.982 98.4936 148.99 98.0776 147.71 98.0776C146.542 98.0776 145.55 98.5096 144.75 99.3896C143.95 100.27 143.55 101.294 143.55 102.478C143.55 103.71 143.966 104.766 144.798 105.63C145.63 106.478 146.654 106.91 147.886 106.91C149.422 106.91 150.782 106.11 151.502 104.702L150.574 104.094C150.078 105.118 149.07 105.806 147.87 105.806C147.038 105.806 146.334 105.534 145.758 104.974C145.182 104.414 144.862 103.71 144.814 102.878H151.726ZM144.83 101.822C144.942 101.086 145.262 100.462 145.806 99.9496C146.35 99.4216 146.99 99.1656 147.71 99.1656C149.31 99.1656 150.302 100.222 150.478 101.822H144.83ZM160.009 106.766V101.87H162.665C164.121 101.87 165.257 101.502 166.073 100.782C166.889 100.046 167.289 99.1176 167.289 97.9976C167.289 96.9416 166.921 96.0456 166.169 95.3256C165.417 94.6056 164.329 94.2376 162.889 94.2376H158.697V106.766H160.009ZM160.009 95.4696H162.777C163.913 95.4696 164.713 95.7256 165.209 96.2216C165.705 96.7176 165.945 97.3256 165.945 98.0456C165.945 98.7496 165.673 99.3576 165.129 99.8856C164.585 100.398 163.785 100.654 162.713 100.654H160.009V95.4696ZM169.252 98.2216V106.766H170.5V102.59C170.5 101.71 170.708 100.974 171.14 100.35C171.572 99.7256 172.244 99.4056 173.172 99.4056C173.284 99.4056 173.444 99.4216 173.652 99.4376V98.1096C173.588 98.0936 173.444 98.0936 173.236 98.0936C172.148 98.0936 171.076 98.6856 170.484 99.9176V98.2216H169.252ZM178.809 106.91C180.057 106.91 181.113 106.478 181.961 105.63C182.809 104.782 183.241 103.726 183.241 102.462C183.241 101.23 182.809 100.206 181.961 99.3576C181.113 98.5096 180.073 98.0776 178.841 98.0776C177.577 98.0776 176.521 98.5096 175.673 99.3576C174.825 100.206 174.409 101.262 174.409 102.526C174.409 103.742 174.825 104.782 175.673 105.63C176.521 106.478 177.577 106.91 178.809 106.91ZM178.841 105.806C177.929 105.806 177.161 105.486 176.569 104.83C175.977 104.174 175.689 103.374 175.689 102.462C175.689 101.55 175.977 100.766 176.569 100.126C177.161 99.4856 177.897 99.1656 178.809 99.1656C179.721 99.1656 180.473 99.5016 181.065 100.158C181.657 100.814 181.961 101.614 181.961 102.526C181.961 103.438 181.657 104.206 181.065 104.846C180.473 105.486 179.737 105.806 178.841 105.806ZM192.143 106.846C192.143 108.942 190.879 109.95 189.087 109.95C188.143 109.95 187.391 109.662 186.895 109.15C186.399 108.638 186.159 108.286 185.887 107.694L184.879 108.286C185.695 110.126 187.103 111.038 189.103 111.038C191.743 111.038 193.391 109.502 193.391 106.798V98.2216H192.159V100.014C191.295 98.7176 190.191 98.0776 188.831 98.0776C187.663 98.0776 186.703 98.5096 185.951 99.3896C185.199 100.27 184.831 101.278 184.831 102.446C184.831 103.646 185.199 104.686 185.935 105.534C186.671 106.382 187.631 106.798 188.831 106.798C190.255 106.798 191.359 106.158 192.143 104.862V106.846ZM189.087 105.71C188.175 105.71 187.455 105.406 186.911 104.782C186.383 104.158 186.111 103.39 186.111 102.478C186.111 101.534 186.383 100.75 186.911 100.126C187.439 99.5016 188.175 99.1816 189.087 99.1816C189.951 99.1816 190.671 99.5016 191.263 100.158C191.855 100.814 192.159 101.566 192.159 102.43C192.159 103.326 191.871 104.094 191.279 104.75C190.703 105.39 189.967 105.71 189.087 105.71ZM196.205 98.2216V106.766H197.453V102.59C197.453 101.71 197.661 100.974 198.093 100.35C198.525 99.7256 199.197 99.4056 200.125 99.4056C200.237 99.4056 200.397 99.4216 200.605 99.4376V98.1096C200.541 98.0936 200.397 98.0936 200.189 98.0936C199.101 98.0936 198.029 98.6856 197.437 99.9176V98.2216H196.205ZM204.864 101.838C203.968 101.838 203.184 102.046 202.496 102.446C201.824 102.846 201.488 103.454 201.488 104.302V104.398C201.488 105.118 201.744 105.726 202.272 106.206C202.8 106.67 203.504 106.91 204.352 106.91C205.568 106.91 206.528 106.366 207.232 105.262H207.248V106.766H208.464V101.246C208.464 100.718 208.384 100.254 208.208 99.8376C207.696 98.6696 206.656 98.0776 205.088 98.0776C203.392 98.0776 202.224 98.8136 201.584 100.286L202.608 100.862C203.136 99.7416 203.952 99.1816 205.056 99.1816C206.512 99.1816 207.232 99.8696 207.232 101.262V101.838H204.864ZM207.232 103.166C207.232 103.95 206.976 104.574 206.48 105.07C205.984 105.566 205.344 105.806 204.576 105.806C203.504 105.806 202.736 105.246 202.736 104.302C202.784 103.182 203.872 102.846 204.848 102.862H207.232V103.166ZM218.23 106.766V101.854C218.23 101.102 218.438 100.478 218.87 99.9816C219.302 99.4696 219.878 99.2136 220.598 99.2136C222.086 99.2136 222.806 100.254 222.806 101.79V106.766H224.054V101.486C224.054 99.4376 222.902 98.0776 220.902 98.0776C219.638 98.0776 218.63 98.6376 217.894 99.7736C217.366 98.6376 216.454 98.0616 215.158 98.0616C213.942 98.0616 213.126 98.6056 212.406 99.7096V98.2216H211.174V106.766H212.422V101.902C212.422 101.166 212.63 100.526 213.062 99.9976C213.494 99.4696 214.07 99.1976 214.79 99.1976C216.262 99.1976 216.998 100.27 216.998 101.758V106.766H218.23ZM227.119 109.214C228.255 108.398 228.831 107.406 228.831 106.238V106.174C228.831 105.23 228.319 104.606 227.567 104.606C226.943 104.606 226.447 105.102 226.447 105.742C226.447 106.382 226.879 106.798 227.503 106.798C227.631 106.798 227.759 106.766 227.887 106.718C227.791 107.374 227.327 108.014 226.495 108.638L227.119 109.214ZM237.686 106.766H239.062L241.334 99.8216H241.35L243.606 106.766H244.998L247.878 98.2216H246.582L244.326 105.326H244.31L241.974 98.2216H240.726L238.406 105.31H238.39L236.15 98.2216H234.822L237.686 106.766ZM257.069 102.878C257.085 102.798 257.085 102.654 257.085 102.462C257.085 101.166 256.733 100.126 256.029 99.3096C255.325 98.4936 254.333 98.0776 253.053 98.0776C251.885 98.0776 250.893 98.5096 250.093 99.3896C249.293 100.27 248.893 101.294 248.893 102.478C248.893 103.71 249.309 104.766 250.141 105.63C250.973 106.478 251.997 106.91 253.229 106.91C254.765 106.91 256.125 106.11 256.845 104.702L255.917 104.094C255.421 105.118 254.413 105.806 253.213 105.806C252.381 105.806 251.677 105.534 251.101 104.974C250.525 104.414 250.205 103.71 250.157 102.878H257.069ZM250.173 101.822C250.285 101.086 250.605 100.462 251.149 99.9496C251.693 99.4216 252.333 99.1656 253.053 99.1656C254.653 99.1656 255.645 100.222 255.821 101.822H250.173ZM267.481 106.91C268.729 106.91 269.785 106.478 270.633 105.63C271.481 104.782 271.913 103.726 271.913 102.462C271.913 101.23 271.481 100.206 270.633 99.3576C269.785 98.5096 268.745 98.0776 267.513 98.0776C266.249 98.0776 265.193 98.5096 264.345 99.3576C263.497 100.206 263.081 101.262 263.081 102.526C263.081 103.742 263.497 104.782 264.345 105.63C265.193 106.478 266.249 106.91 267.481 106.91ZM267.513 105.806C266.601 105.806 265.833 105.486 265.241 104.83C264.649 104.174 264.361 103.374 264.361 102.462C264.361 101.55 264.649 100.766 265.241 100.126C265.833 99.4856 266.569 99.1656 267.481 99.1656C268.393 99.1656 269.145 99.5016 269.737 100.158C270.329 100.814 270.633 101.614 270.633 102.526C270.633 103.438 270.329 104.206 269.737 104.846C269.145 105.486 268.409 105.806 267.513 105.806ZM282.543 94.7976C282.911 94.7976 283.215 94.8296 283.423 94.9096V93.8536C283.103 93.7416 282.799 93.6936 282.495 93.6936C280.911 93.6936 279.871 94.7176 279.871 96.6376V98.2216H275.935V96.6056C275.935 95.2776 276.591 94.7976 277.359 94.7976C277.727 94.7976 278.031 94.8296 278.255 94.9096V93.8536C277.935 93.7416 277.615 93.6936 277.311 93.6936C275.727 93.6936 274.687 94.7176 274.687 96.6376V98.2216H273.103V99.3096H274.687V106.766H275.935V99.3096H279.871V106.766H281.103V99.3096H283.343V98.2216H281.103V96.6056C281.103 95.2776 281.775 94.7976 282.543 94.7976ZM292.366 102.878C292.382 102.798 292.382 102.654 292.382 102.462C292.382 101.166 292.03 100.126 291.326 99.3096C290.622 98.4936 289.63 98.0776 288.35 98.0776C287.182 98.0776 286.19 98.5096 285.39 99.3896C284.59 100.27 284.19 101.294 284.19 102.478C284.19 103.71 284.606 104.766 285.438 105.63C286.27 106.478 287.294 106.91 288.526 106.91C290.062 106.91 291.422 106.11 292.142 104.702L291.214 104.094C290.718 105.118 289.71 105.806 288.51 105.806C287.678 105.806 286.974 105.534 286.398 104.974C285.822 104.414 285.502 103.71 285.454 102.878H292.366ZM285.47 101.822C285.582 101.086 285.902 100.462 286.446 99.9496C286.99 99.4216 287.63 99.1656 288.35 99.1656C289.95 99.1656 290.942 100.222 291.118 101.822H285.47ZM294.533 98.2216V106.766H295.781V102.59C295.781 101.71 295.989 100.974 296.421 100.35C296.853 99.7256 297.525 99.4056 298.453 99.4056C298.565 99.4056 298.725 99.4216 298.933 99.4376V98.1096C298.869 98.0936 298.725 98.0936 298.517 98.0936C297.429 98.0936 296.357 98.6856 295.765 99.9176V98.2216H294.533ZM307.38 101.838C306.484 101.838 305.7 102.046 305.012 102.446C304.34 102.846 304.004 103.454 304.004 104.302V104.398C304.004 105.118 304.26 105.726 304.788 106.206C305.316 106.67 306.02 106.91 306.868 106.91C308.084 106.91 309.044 106.366 309.748 105.262H309.764V106.766H310.98V101.246C310.98 100.718 310.9 100.254 310.724 99.8376C310.212 98.6696 309.172 98.0776 307.604 98.0776C305.908 98.0776 304.74 98.8136 304.1 100.286L305.124 100.862C305.652 99.7416 306.468 99.1816 307.572 99.1816C309.028 99.1816 309.748 99.8696 309.748 101.262V101.838H307.38ZM309.748 103.166C309.748 103.95 309.492 104.574 308.996 105.07C308.5 105.566 307.86 105.806 307.092 105.806C306.02 105.806 305.252 105.246 305.252 104.302C305.299 103.182 306.388 102.846 307.364 102.862H309.748V103.166ZM320.014 106.766H321.39L323.662 99.8216H323.678L325.934 106.766H327.326L330.206 98.2216H328.91L326.654 105.326H326.638L324.302 98.2216H323.054L320.734 105.31H320.718L318.478 98.2216H317.15L320.014 106.766ZM331.713 95.1656C331.713 95.6776 332.129 96.0936 332.641 96.0936C333.169 96.0936 333.585 95.6776 333.585 95.1656C333.585 94.6376 333.169 94.2216 332.641 94.2216C332.129 94.2216 331.713 94.6376 331.713 95.1656ZM333.281 98.2216H332.017V106.766H333.281V98.2216ZM335.488 102.478C335.488 103.694 335.856 104.734 336.592 105.598C337.344 106.462 338.304 106.894 339.488 106.894C340.912 106.894 342.032 106.238 342.816 104.942V106.766H344.032V93.7416H342.8V100.014C341.92 98.7176 340.816 98.0776 339.488 98.0776C338.32 98.0776 337.36 98.5256 336.608 99.4056C335.856 100.286 335.488 101.31 335.488 102.478ZM339.744 105.79C338.832 105.79 338.112 105.47 337.568 104.846C337.024 104.206 336.752 103.422 336.752 102.51C336.752 101.566 337.024 100.766 337.568 100.142C338.112 99.5016 338.832 99.1816 339.744 99.1816C340.608 99.1816 341.328 99.5176 341.92 100.174C342.512 100.83 342.816 101.582 342.816 102.462C342.816 103.374 342.528 104.158 341.936 104.814C341.36 105.47 340.624 105.79 339.744 105.79ZM354.413 102.878C354.429 102.798 354.429 102.654 354.429 102.462C354.429 101.166 354.077 100.126 353.373 99.3096C352.669 98.4936 351.677 98.0776 350.397 98.0776C349.229 98.0776 348.237 98.5096 347.437 99.3896C346.637 100.27 346.237 101.294 346.237 102.478C346.237 103.71 346.653 104.766 347.485 105.63C348.317 106.478 349.341 106.91 350.573 106.91C352.109 106.91 353.469 106.11 354.189 104.702L353.261 104.094C352.765 105.118 351.757 105.806 350.557 105.806C349.725 105.806 349.021 105.534 348.445 104.974C347.869 104.414 347.549 103.71 347.501 102.878H354.413ZM347.517 101.822C347.629 101.086 347.949 100.462 348.493 99.9496C349.037 99.4216 349.677 99.1656 350.397 99.1656C351.997 99.1656 352.989 100.222 353.165 101.822H347.517ZM361.049 98.2216V106.766H362.297V102.59C362.297 101.71 362.505 100.974 362.937 100.35C363.369 99.7256 364.041 99.4056 364.969 99.4056C365.081 99.4056 365.241 99.4216 365.449 99.4376V98.1096C365.385 98.0936 365.241 98.0936 365.033 98.0936C363.945 98.0936 362.873 98.6856 362.281 99.9176V98.2216H361.049ZM369.708 101.838C368.812 101.838 368.028 102.046 367.34 102.446C366.668 102.846 366.332 103.454 366.332 104.302V104.398C366.332 105.118 366.588 105.726 367.116 106.206C367.644 106.67 368.348 106.91 369.196 106.91C370.412 106.91 371.372 106.366 372.076 105.262H372.092V106.766H373.308V101.246C373.308 100.718 373.228 100.254 373.052 99.8376C372.54 98.6696 371.5 98.0776 369.932 98.0776C368.236 98.0776 367.068 98.8136 366.428 100.286L367.452 100.862C367.98 99.7416 368.796 99.1816 369.9 99.1816C371.356 99.1816 372.076 99.8696 372.076 101.262V101.838H369.708ZM372.076 103.166C372.076 103.95 371.82 104.574 371.324 105.07C370.828 105.566 370.188 105.806 369.42 105.806C368.348 105.806 367.58 105.246 367.58 104.302C367.628 103.182 368.716 102.846 369.692 102.862H372.076V103.166ZM383.425 106.766V101.486C383.425 99.4376 382.241 98.0616 380.193 98.0616C378.897 98.0616 377.921 98.6376 377.249 99.7896V98.2216H376.017V106.766H377.265V101.902C377.265 101.134 377.505 100.494 377.985 99.9816C378.465 99.4536 379.073 99.1976 379.809 99.1976C381.345 99.1976 382.177 100.206 382.177 101.79V106.766H383.425ZM392.831 106.846C392.831 108.942 391.567 109.95 389.775 109.95C388.831 109.95 388.079 109.662 387.583 109.15C387.087 108.638 386.847 108.286 386.575 107.694L385.567 108.286C386.383 110.126 387.791 111.038 389.791 111.038C392.431 111.038 394.079 109.502 394.079 106.798V98.2216H392.847V100.014C391.983 98.7176 390.879 98.0776 389.519 98.0776C388.351 98.0776 387.391 98.5096 386.639 99.3896C385.887 100.27 385.519 101.278 385.519 102.446C385.519 103.646 385.887 104.686 386.623 105.534C387.359 106.382 388.319 106.798 389.519 106.798C390.943 106.798 392.047 106.158 392.831 104.862V106.846ZM389.775 105.71C388.863 105.71 388.143 105.406 387.599 104.782C387.071 104.158 386.799 103.39 386.799 102.478C386.799 101.534 387.071 100.75 387.599 100.126C388.127 99.5016 388.863 99.1816 389.775 99.1816C390.639 99.1816 391.359 99.5016 391.951 100.158C392.543 100.814 392.847 101.566 392.847 102.43C392.847 103.326 392.559 104.094 391.967 104.75C391.391 105.39 390.655 105.71 389.775 105.71ZM404.444 102.878C404.46 102.798 404.46 102.654 404.46 102.462C404.46 101.166 404.108 100.126 403.404 99.3096C402.7 98.4936 401.708 98.0776 400.428 98.0776C399.26 98.0776 398.268 98.5096 397.468 99.3896C396.668 100.27 396.268 101.294 396.268 102.478C396.268 103.71 396.684 104.766 397.516 105.63C398.348 106.478 399.372 106.91 400.604 106.91C402.14 106.91 403.5 106.11 404.22 104.702L403.292 104.094C402.796 105.118 401.788 105.806 400.588 105.806C399.756 105.806 399.052 105.534 398.476 104.974C397.9 104.414 397.58 103.71 397.532 102.878H404.444ZM397.548 101.822C397.66 101.086 397.98 100.462 398.524 99.9496C399.068 99.4216 399.708 99.1656 400.428 99.1656C402.028 99.1656 403.02 100.222 403.196 101.822H397.548ZM414.856 106.91C416.104 106.91 417.16 106.478 418.008 105.63C418.856 104.782 419.288 103.726 419.288 102.462C419.288 101.23 418.856 100.206 418.008 99.3576C417.16 98.5096 416.12 98.0776 414.888 98.0776C413.624 98.0776 412.568 98.5096 411.72 99.3576C410.872 100.206 410.456 101.262 410.456 102.526C410.456 103.742 410.872 104.782 411.72 105.63C412.568 106.478 413.624 106.91 414.856 106.91ZM414.888 105.806C413.976 105.806 413.208 105.486 412.616 104.83C412.024 104.174 411.736 103.374 411.736 102.462C411.736 101.55 412.024 100.766 412.616 100.126C413.208 99.4856 413.944 99.1656 414.856 99.1656C415.768 99.1656 416.52 99.5016 417.112 100.158C417.704 100.814 418.008 101.614 418.008 102.526C418.008 103.438 417.704 104.206 417.112 104.846C416.52 105.486 415.784 105.806 414.888 105.806ZM424.734 94.7976C425.102 94.7976 425.406 94.8296 425.63 94.9096V93.8536C425.31 93.7416 424.99 93.6936 424.686 93.6936C423.102 93.6936 422.062 94.7176 422.062 96.6376V98.2216H420.478V99.3096H422.062V106.766H423.31V99.3096H425.55V98.2216H423.31V96.6056C423.31 95.2776 423.966 94.7976 424.734 94.7976ZM436.994 104.334C436.994 103.806 436.786 103.326 436.386 102.926C435.922 102.446 435.17 102.094 434.146 101.87C432.562 101.534 432.146 101.23 432.146 100.526C432.146 100.158 432.322 99.8536 432.658 99.5816C432.994 99.3096 433.41 99.1816 433.874 99.1816C434.754 99.1816 435.426 99.6616 435.874 100.622L436.898 100.062C436.322 98.7336 435.314 98.0776 433.874 98.0776C433.106 98.0776 432.418 98.3176 431.81 98.7976C431.202 99.2776 430.898 99.8856 430.898 100.622C430.898 101.118 431.058 101.534 431.362 101.902C431.826 102.43 432.418 102.702 433.586 102.958C435.138 103.326 435.73 103.694 435.73 104.414C435.73 105.262 434.882 105.806 433.906 105.806C432.898 105.806 432.13 105.246 431.602 104.142L430.578 104.702C431.234 106.174 432.354 106.91 433.922 106.91C434.802 106.91 435.538 106.67 436.114 106.19C436.706 105.694 436.994 105.086 436.994 104.334ZM440.469 106.766V102.494H440.517L444.773 106.766H446.517L441.812 102.062L446.309 98.2216H444.533L440.469 101.694V93.7256H439.221V106.766H440.469ZM447.635 95.1656C447.635 95.6776 448.051 96.0936 448.563 96.0936C449.091 96.0936 449.507 95.6776 449.507 95.1656C449.507 94.6376 449.091 94.2216 448.563 94.2216C448.051 94.2216 447.635 94.6376 447.635 95.1656ZM449.203 98.2216H447.939V106.766H449.203V98.2216ZM453.281 93.7256H452.017V106.766H453.281V93.7256ZM457.36 93.7256H456.096V106.766H457.36V93.7256ZM467.634 106.83C468.002 106.83 468.338 106.782 468.61 106.702V105.662C468.434 105.71 468.178 105.726 467.842 105.726C466.914 105.726 466.45 105.326 466.45 104.526V99.3256H468.61V98.2216H466.45V95.7576H465.218V98.2216H463.634V99.3256H465.218V104.558C465.218 106.078 466.018 106.83 467.634 106.83ZM470.721 98.2216V106.766H471.969V102.59C471.969 101.71 472.177 100.974 472.609 100.35C473.041 99.7256 473.713 99.4056 474.641 99.4056C474.753 99.4056 474.913 99.4216 475.121 99.4376V98.1096C475.057 98.0936 474.913 98.0936 474.705 98.0936C473.617 98.0936 472.545 98.6856 471.953 99.9176V98.2216H470.721ZM479.38 101.838C478.484 101.838 477.7 102.046 477.012 102.446C476.34 102.846 476.004 103.454 476.004 104.302V104.398C476.004 105.118 476.26 105.726 476.788 106.206C477.316 106.67 478.02 106.91 478.868 106.91C480.084 106.91 481.044 106.366 481.748 105.262H481.764V106.766H482.98V101.246C482.98 100.718 482.9 100.254 482.724 99.8376C482.212 98.6696 481.172 98.0776 479.604 98.0776C477.908 98.0776 476.74 98.8136 476.1 100.286L477.124 100.862C477.652 99.7416 478.468 99.1816 479.572 99.1816C481.028 99.1816 481.748 99.8696 481.748 101.262V101.838H479.38ZM481.748 103.166C481.748 103.95 481.492 104.574 480.996 105.07C480.5 105.566 479.86 105.806 479.092 105.806C478.02 105.806 477.252 105.246 477.252 104.302C477.299 103.182 478.388 102.846 479.364 102.862H481.748V103.166ZM485.385 95.1656C485.385 95.6776 485.801 96.0936 486.313 96.0936C486.841 96.0936 487.257 95.6776 487.257 95.1656C487.257 94.6376 486.841 94.2216 486.313 94.2216C485.801 94.2216 485.385 94.6376 485.385 95.1656ZM486.953 98.2216H485.689V106.766H486.953V98.2216ZM497.175 106.766V101.486C497.175 99.4376 495.991 98.0616 493.943 98.0616C492.647 98.0616 491.671 98.6376 490.999 99.7896V98.2216H489.767V106.766H491.015V101.902C491.015 101.134 491.255 100.494 491.735 99.9816C492.215 99.4536 492.823 99.1976 493.559 99.1976C495.095 99.1976 495.927 100.206 495.927 101.79V106.766H497.175ZM499.573 95.1656C499.573 95.6776 499.989 96.0936 500.501 96.0936C501.029 96.0936 501.445 95.6776 501.445 95.1656C501.445 94.6376 501.029 94.2216 500.501 94.2216C499.989 94.2216 499.573 94.6376 499.573 95.1656ZM501.141 98.2216H499.877V106.766H501.141V98.2216ZM511.363 106.766V101.486C511.363 99.4376 510.179 98.0616 508.131 98.0616C506.835 98.0616 505.859 98.6376 505.187 99.7896V98.2216H503.955V106.766H505.203V101.902C505.203 101.134 505.443 100.494 505.923 99.9816C506.403 99.4536 507.011 99.1976 507.747 99.1976C509.283 99.1976 510.115 100.206 510.115 101.79V106.766H511.363ZM520.768 106.846C520.768 108.942 519.504 109.95 517.712 109.95C516.768 109.95 516.016 109.662 515.52 109.15C515.024 108.638 514.784 108.286 514.512 107.694L513.504 108.286C514.32 110.126 515.728 111.038 517.728 111.038C520.368 111.038 522.016 109.502 522.016 106.798V98.2216H520.784V100.014C519.92 98.7176 518.816 98.0776 517.456 98.0776C516.288 98.0776 515.328 98.5096 514.576 99.3896C513.824 100.27 513.456 101.278 513.456 102.446C513.456 103.646 513.824 104.686 514.56 105.534C515.296 106.382 516.256 106.798 517.456 106.798C518.88 106.798 519.984 106.158 520.768 104.862V106.846ZM517.712 105.71C516.8 105.71 516.08 105.406 515.536 104.782C515.008 104.158 514.736 103.39 514.736 102.478C514.736 101.534 515.008 100.75 515.536 100.126C516.064 99.5016 516.8 99.1816 517.712 99.1816C518.576 99.1816 519.296 99.5016 519.888 100.158C520.48 100.814 520.784 101.566 520.784 102.43C520.784 103.326 520.496 104.094 519.904 104.75C519.328 105.39 518.592 105.71 517.712 105.71ZM525.662 104.606C525.022 104.606 524.51 105.118 524.51 105.758C524.51 106.398 525.022 106.91 525.662 106.91C526.286 106.91 526.798 106.398 526.798 105.758C526.798 105.118 526.286 104.606 525.662 104.606ZM536.208 106.19L534 110.974H535.344L541.2 98.2216H539.856L536.896 104.83L533.76 98.2216H532.32L536.208 106.19ZM546.372 106.91C547.62 106.91 548.676 106.478 549.524 105.63C550.372 104.782 550.804 103.726 550.804 102.462C550.804 101.23 550.372 100.206 549.524 99.3576C548.676 98.5096 547.636 98.0776 546.404 98.0776C545.14 98.0776 544.084 98.5096 543.236 99.3576C542.388 100.206 541.972 101.262 541.972 102.526C541.972 103.742 542.388 104.782 543.236 105.63C544.084 106.478 545.14 106.91 546.372 106.91ZM546.404 105.806C545.492 105.806 544.724 105.486 544.132 104.83C543.539 104.174 543.252 103.374 543.252 102.462C543.252 101.55 543.539 100.766 544.132 100.126C544.724 99.4856 545.46 99.1656 546.372 99.1656C547.284 99.1656 548.036 99.5016 548.628 100.158C549.22 100.814 549.524 101.614 549.524 102.526C549.524 103.438 549.22 104.206 548.628 104.846C548.036 105.486 547.3 105.806 546.404 105.806ZM552.906 98.2216V103.502C552.906 105.55 554.09 106.926 556.138 106.926C557.434 106.926 558.41 106.35 559.066 105.198V106.766H560.282V98.2216H559.05V103.102C559.05 103.87 558.81 104.51 558.33 105.022C557.85 105.534 557.242 105.79 556.506 105.79C554.97 105.79 554.138 104.782 554.138 103.198V98.2216H552.906ZM568.236 102.446C568.236 101.534 568.524 100.766 569.1 100.142C569.692 99.5016 570.428 99.1816 571.324 99.1816C572.732 99.1816 573.612 99.9816 573.996 101.054L575.084 100.574C574.588 99.1496 573.244 98.0776 571.324 98.0776C570.108 98.0776 569.068 98.5096 568.22 99.3576C567.372 100.206 566.956 101.262 566.956 102.494C566.956 103.758 567.372 104.814 568.204 105.662C569.052 106.494 570.076 106.91 571.308 106.91C573.244 106.91 574.588 105.838 575.116 104.366L574.028 103.886C573.532 105.166 572.62 105.806 571.324 105.806C570.412 105.806 569.676 105.47 569.1 104.814C568.524 104.158 568.236 103.358 568.236 102.446ZM579.958 101.838C579.062 101.838 578.278 102.046 577.59 102.446C576.918 102.846 576.582 103.454 576.582 104.302V104.398C576.582 105.118 576.838 105.726 577.366 106.206C577.894 106.67 578.598 106.91 579.446 106.91C580.662 106.91 581.622 106.366 582.326 105.262H582.342V106.766H583.558V101.246C583.558 100.718 583.478 100.254 583.302 99.8376C582.79 98.6696 581.75 98.0776 580.182 98.0776C578.486 98.0776 577.318 98.8136 576.678 100.286L577.702 100.862C578.23 99.7416 579.046 99.1816 580.15 99.1816C581.606 99.1816 582.326 99.8696 582.326 101.262V101.838H579.958ZM582.326 103.166C582.326 103.95 582.07 104.574 581.574 105.07C581.078 105.566 580.438 105.806 579.67 105.806C578.598 105.806 577.83 105.246 577.83 104.302C577.878 103.182 578.966 102.846 579.942 102.862H582.326V103.166ZM593.675 106.766V101.486C593.675 99.4376 592.491 98.0616 590.443 98.0616C589.147 98.0616 588.171 98.6376 587.499 99.7896V98.2216H586.267V106.766H587.515V101.902C587.515 101.134 587.755 100.494 588.235 99.9816C588.715 99.4536 589.323 99.1976 590.059 99.1976C591.595 99.1976 592.427 100.206 592.427 101.79V106.766H593.675ZM601.502 102.446C601.502 101.534 601.789 100.766 602.366 100.142C602.958 99.5016 603.694 99.1816 604.59 99.1816C605.998 99.1816 606.878 99.9816 607.262 101.054L608.35 100.574C607.854 99.1496 606.51 98.0776 604.59 98.0776C603.374 98.0776 602.334 98.5096 601.486 99.3576C600.638 100.206 600.222 101.262 600.222 102.494C600.222 103.758 600.638 104.814 601.47 105.662C602.318 106.494 603.342 106.91 604.574 106.91C606.51 106.91 607.854 105.838 608.382 104.366L607.294 103.886C606.798 105.166 605.886 105.806 604.59 105.806C603.678 105.806 602.942 105.47 602.366 104.814C601.789 104.158 601.502 103.358 601.502 102.446ZM617.847 106.766V101.486C617.847 99.4376 616.663 98.0616 614.615 98.0616C613.351 98.0616 612.375 98.6216 611.687 99.7576V93.7416H610.439V106.766H611.687V101.902C611.687 101.134 611.927 100.494 612.407 99.9816C612.887 99.4536 613.495 99.1976 614.231 99.1976C615.767 99.1976 616.599 100.206 616.599 101.79V106.766H617.847ZM624.325 106.91C625.573 106.91 626.629 106.478 627.477 105.63C628.325 104.782 628.757 103.726 628.757 102.462C628.757 101.23 628.325 100.206 627.477 99.3576C626.629 98.5096 625.589 98.0776 624.357 98.0776C623.093 98.0776 622.037 98.5096 621.189 99.3576C620.341 100.206 619.925 101.262 619.925 102.526C619.925 103.742 620.341 104.782 621.189 105.63C622.037 106.478 623.093 106.91 624.325 106.91ZM624.357 105.806C623.445 105.806 622.677 105.486 622.085 104.83C621.493 104.174 621.205 103.374 621.205 102.462C621.205 101.55 621.493 100.766 622.085 100.126C622.677 99.4856 623.413 99.1656 624.325 99.1656C625.237 99.1656 625.989 99.5016 626.581 100.158C627.173 100.814 627.477 101.614 627.477 102.526C627.477 103.438 627.173 104.206 626.581 104.846C625.989 105.486 625.253 105.806 624.357 105.806ZM634.731 106.91C635.979 106.91 637.035 106.478 637.883 105.63C638.731 104.782 639.163 103.726 639.163 102.462C639.163 101.23 638.731 100.206 637.883 99.3576C637.035 98.5096 635.995 98.0776 634.763 98.0776C633.499 98.0776 632.443 98.5096 631.595 99.3576C630.747 100.206 630.331 101.262 630.331 102.526C630.331 103.742 630.747 104.782 631.595 105.63C632.443 106.478 633.499 106.91 634.731 106.91ZM634.763 105.806C633.851 105.806 633.083 105.486 632.491 104.83C631.899 104.174 631.611 103.374 631.611 102.462C631.611 101.55 631.899 100.766 632.491 100.126C633.083 99.4856 633.819 99.1656 634.731 99.1656C635.643 99.1656 636.395 99.5016 636.987 100.158C637.579 100.814 637.883 101.614 637.883 102.526C637.883 103.438 637.579 104.206 636.987 104.846C636.395 105.486 635.659 105.806 634.763 105.806ZM647.025 104.334C647.025 103.806 646.817 103.326 646.417 102.926C645.953 102.446 645.201 102.094 644.177 101.87C642.593 101.534 642.177 101.23 642.177 100.526C642.177 100.158 642.353 99.8536 642.689 99.5816C643.025 99.3096 643.441 99.1816 643.905 99.1816C644.785 99.1816 645.457 99.6616 645.905 100.622L646.929 100.062C646.353 98.7336 645.345 98.0776 643.905 98.0776C643.137 98.0776 642.449 98.3176 641.841 98.7976C641.233 99.2776 640.929 99.8856 640.929 100.622C640.929 101.118 641.089 101.534 641.393 101.902C641.857 102.43 642.449 102.702 643.617 102.958C645.169 103.326 645.761 103.694 645.761 104.414C645.761 105.262 644.913 105.806 643.937 105.806C642.929 105.806 642.161 105.246 641.633 104.142L640.609 104.702C641.265 106.174 642.385 106.91 643.953 106.91C644.833 106.91 645.569 106.67 646.145 106.19C646.737 105.694 647.025 105.086 647.025 104.334ZM656.804 102.878C656.82 102.798 656.82 102.654 656.82 102.462C656.82 101.166 656.468 100.126 655.764 99.3096C655.06 98.4936 654.068 98.0776 652.788 98.0776C651.62 98.0776 650.628 98.5096 649.828 99.3896C649.028 100.27 648.628 101.294 648.628 102.478C648.628 103.71 649.044 104.766 649.876 105.63C650.708 106.478 651.732 106.91 652.964 106.91C654.5 106.91 655.86 106.11 656.58 104.702L655.652 104.094C655.156 105.118 654.148 105.806 652.948 105.806C652.116 105.806 651.412 105.534 650.836 104.974C650.26 104.414 649.94 103.71 649.892 102.878H656.804ZM649.908 101.822C650.02 101.086 650.34 100.462 650.884 99.9496C651.428 99.4216 652.068 99.1656 652.788 99.1656C654.388 99.1656 655.38 100.222 655.556 101.822H649.908ZM666.687 94.7976C667.055 94.7976 667.359 94.8296 667.583 94.9096V93.8536C667.263 93.7416 666.943 93.6936 666.639 93.6936C665.055 93.6936 664.015 94.7176 664.015 96.6376V98.2216H662.431V99.3096H664.015V106.766H665.263V99.3096H667.503V98.2216H665.263V96.6056C665.263 95.2776 665.919 94.7976 666.687 94.7976ZM669.189 98.2216V106.766H670.437V102.59C670.437 101.71 670.645 100.974 671.077 100.35C671.509 99.7256 672.181 99.4056 673.109 99.4056C673.221 99.4056 673.381 99.4216 673.589 99.4376V98.1096C673.525 98.0936 673.381 98.0936 673.173 98.0936C672.085 98.0936 671.013 98.6856 670.421 99.9176V98.2216H669.189ZM678.747 106.91C679.995 106.91 681.051 106.478 681.899 105.63C682.747 104.782 683.179 103.726 683.179 102.462C683.179 101.23 682.747 100.206 681.899 99.3576C681.051 98.5096 680.011 98.0776 678.779 98.0776C677.515 98.0776 676.459 98.5096 675.611 99.3576C674.763 100.206 674.347 101.262 674.347 102.526C674.347 103.742 674.763 104.782 675.611 105.63C676.459 106.478 677.515 106.91 678.747 106.91ZM678.779 105.806C677.867 105.806 677.099 105.486 676.507 104.83C675.914 104.174 675.627 103.374 675.627 102.462C675.627 101.55 675.914 100.766 676.507 100.126C677.099 99.4856 677.835 99.1656 678.747 99.1656C679.659 99.1656 680.411 99.5016 681.003 100.158C681.595 100.814 681.899 101.614 681.899 102.526C681.899 103.438 681.595 104.206 681.003 104.846C680.411 105.486 679.675 105.806 678.779 105.806ZM692.433 106.766V101.854C692.433 101.102 692.641 100.478 693.073 99.9816C693.505 99.4696 694.081 99.2136 694.801 99.2136C696.289 99.2136 697.009 100.254 697.009 101.79V106.766H698.257V101.486C698.257 99.4376 697.105 98.0776 695.105 98.0776C693.841 98.0776 692.833 98.6376 692.097 99.7736C691.569 98.6376 690.657 98.0616 689.361 98.0616C688.145 98.0616 687.329 98.6056 686.609 99.7096V98.2216H685.377V106.766H686.625V101.902C686.625 101.166 686.833 100.526 687.265 99.9976C687.697 99.4696 688.273 99.1976 688.993 99.1976C690.465 99.1976 691.201 100.27 691.201 101.758V106.766H692.433ZM708.431 106.83C708.799 106.83 709.135 106.782 709.407 106.702V105.662C709.231 105.71 708.975 105.726 708.639 105.726C707.711 105.726 707.247 105.326 707.247 104.526V99.3256H709.407V98.2216H707.247V95.7576H706.015V98.2216H704.431V99.3256H706.015V104.558C706.015 106.078 706.815 106.83 708.431 106.83ZM718.925 106.766V101.486C718.925 99.4376 717.741 98.0616 715.693 98.0616C714.429 98.0616 713.453 98.6216 712.765 99.7576V93.7416H711.517V106.766H712.765V101.902C712.765 101.134 713.005 100.494 713.485 99.9816C713.965 99.4536 714.573 99.1976 715.309 99.1976C716.845 99.1976 717.677 100.206 717.677 101.79V106.766H718.925ZM729.179 102.878C729.195 102.798 729.195 102.654 729.195 102.462C729.195 101.166 728.843 100.126 728.139 99.3096C727.435 98.4936 726.443 98.0776 725.163 98.0776C723.995 98.0776 723.003 98.5096 722.203 99.3896C721.403 100.27 721.003 101.294 721.003 102.478C721.003 103.71 721.419 104.766 722.251 105.63C723.083 106.478 724.107 106.91 725.339 106.91C726.875 106.91 728.235 106.11 728.955 104.702L728.027 104.094C727.531 105.118 726.523 105.806 725.323 105.806C724.491 105.806 723.787 105.534 723.211 104.974C722.635 104.414 722.315 103.71 722.267 102.878H729.179ZM722.283 101.822C722.395 101.086 722.715 100.462 723.259 99.9496C723.803 99.4216 724.443 99.1656 725.163 99.1656C726.763 99.1656 727.755 100.222 727.931 101.822H722.283ZM34.8 125.478C34.8 126.694 35.168 127.734 35.904 128.598C36.656 129.462 37.616 129.894 38.8 129.894C40.224 129.894 41.344 129.238 42.128 127.942V129.766H43.344V116.742H42.112V123.014C41.232 121.718 40.128 121.078 38.8 121.078C37.632 121.078 36.672 121.526 35.92 122.406C35.168 123.286 34.8 124.31 34.8 125.478ZM39.056 128.79C38.144 128.79 37.424 128.47 36.88 127.846C36.336 127.206 36.064 126.422 36.064 125.51C36.064 124.566 36.336 123.766 36.88 123.142C37.424 122.502 38.144 122.182 39.056 122.182C39.92 122.182 40.64 122.518 41.232 123.174C41.824 123.83 42.128 124.582 42.128 125.462C42.128 126.374 41.84 127.158 41.248 127.814C40.672 128.47 39.936 128.79 39.056 128.79ZM45.8696 118.166C45.8696 118.678 46.2856 119.094 46.7976 119.094C47.3256 119.094 47.7416 118.678 47.7416 118.166C47.7416 117.638 47.3256 117.222 46.7976 117.222C46.2856 117.222 45.8696 117.638 45.8696 118.166ZM47.4376 121.222H46.1736V129.766H47.4376V121.222ZM58.6838 117.798C59.0518 117.798 59.3558 117.83 59.5638 117.91V116.854C59.2438 116.742 58.9398 116.694 58.6358 116.694C57.0518 116.694 56.0118 117.718 56.0118 119.638V121.222H52.0758V119.606C52.0758 118.278 52.7318 117.798 53.4998 117.798C53.8678 117.798 54.1718 117.83 54.3958 117.91V116.854C54.0758 116.742 53.7558 116.694 53.4518 116.694C51.8678 116.694 50.8278 117.718 50.8278 119.638V121.222H49.2438V122.31H50.8278V129.766H52.0758V122.31H56.0118V129.766H57.2438V122.31H59.4838V121.222H57.2438V119.606C57.2438 118.278 57.9158 117.798 58.6838 117.798ZM68.5069 125.878C68.5229 125.798 68.5229 125.654 68.5229 125.462C68.5229 124.166 68.1709 123.126 67.4669 122.31C66.7629 121.494 65.7709 121.078 64.4909 121.078C63.3229 121.078 62.3309 121.51 61.5309 122.39C60.7309 123.27 60.3309 124.294 60.3309 125.478C60.3309 126.71 60.7469 127.766 61.5789 128.63C62.4109 129.478 63.4349 129.91 64.6669 129.91C66.2029 129.91 67.5629 129.11 68.2829 127.702L67.3549 127.094C66.8589 128.118 65.8509 128.806 64.6509 128.806C63.8189 128.806 63.1149 128.534 62.5389 127.974C61.9629 127.414 61.6429 126.71 61.5949 125.878H68.5069ZM61.6109 124.822C61.7229 124.086 62.0429 123.462 62.5869 122.95C63.1309 122.422 63.7709 122.166 64.4909 122.166C66.0909 122.166 67.0829 123.222 67.2589 124.822H61.6109ZM70.6736 121.222V129.766H71.9216V125.59C71.9216 124.71 72.1296 123.974 72.5616 123.35C72.9936 122.726 73.6656 122.406 74.5936 122.406C74.7056 122.406 74.8656 122.422 75.0736 122.438V121.11C75.0096 121.094 74.8656 121.094 74.6576 121.094C73.5696 121.094 72.4976 121.686 71.9056 122.918V121.222H70.6736ZM84.0069 125.878C84.0229 125.798 84.0229 125.654 84.0229 125.462C84.0229 124.166 83.6709 123.126 82.9669 122.31C82.2629 121.494 81.2709 121.078 79.9909 121.078C78.8229 121.078 77.8309 121.51 77.0309 122.39C76.2309 123.27 75.8309 124.294 75.8309 125.478C75.8309 126.71 76.2469 127.766 77.0789 128.63C77.9109 129.478 78.9349 129.91 80.1669 129.91C81.7029 129.91 83.0629 129.11 83.7829 127.702L82.8549 127.094C82.3589 128.118 81.3509 128.806 80.1509 128.806C79.3189 128.806 78.6149 128.534 78.0389 127.974C77.4629 127.414 77.1429 126.71 77.0949 125.878H84.0069ZM77.1109 124.822C77.2229 124.086 77.5429 123.462 78.0869 122.95C78.6309 122.422 79.2709 122.166 79.9909 122.166C81.5909 122.166 82.5829 123.222 82.7589 124.822H77.1109ZM93.5816 129.766V124.486C93.5816 122.438 92.3976 121.062 90.3496 121.062C89.0536 121.062 88.0776 121.638 87.4056 122.79V121.222H86.1736V129.766H87.4216V124.902C87.4216 124.134 87.6616 123.494 88.1416 122.982C88.6216 122.454 89.2296 122.198 89.9656 122.198C91.5016 122.198 92.3336 123.206 92.3336 124.79V129.766H93.5816ZM99.1969 129.83C99.5649 129.83 99.9009 129.782 100.173 129.702V128.662C99.9969 128.71 99.7409 128.726 99.4049 128.726C98.4769 128.726 98.0129 128.326 98.0129 127.526V122.326H100.173V121.222H98.0129V118.758H96.7809V121.222H95.1969V122.326H96.7809V127.558C96.7809 129.078 97.5809 129.83 99.1969 129.83ZM115.312 125.478C115.312 124.31 114.928 123.286 114.176 122.406C113.424 121.526 112.464 121.078 111.296 121.078C109.936 121.078 108.832 121.75 107.984 123.078V121.222H106.752V133.974H108V128.006C108.8 129.27 109.904 129.894 111.296 129.894C112.464 129.894 113.424 129.462 114.176 128.582C114.928 127.702 115.312 126.678 115.312 125.478ZM111.04 128.79C110.16 128.79 109.424 128.47 108.848 127.814C108.272 127.158 107.984 126.374 107.984 125.462C107.984 124.582 108.272 123.83 108.864 123.174C109.456 122.518 110.176 122.182 111.04 122.182C111.952 122.182 112.672 122.502 113.216 123.158C113.76 123.798 114.032 124.582 114.032 125.51C114.032 126.454 113.76 127.238 113.216 127.862C112.688 128.486 111.952 128.79 111.04 128.79ZM117.517 121.222V129.766H118.765V125.59C118.765 124.71 118.973 123.974 119.405 123.35C119.837 122.726 120.509 122.406 121.437 122.406C121.549 122.406 121.709 122.422 121.917 122.438V121.11C121.853 121.094 121.709 121.094 121.501 121.094C120.413 121.094 119.341 121.686 118.749 122.918V121.222H117.517ZM127.075 129.91C128.323 129.91 129.379 129.478 130.227 128.63C131.075 127.782 131.507 126.726 131.507 125.462C131.507 124.23 131.075 123.206 130.227 122.358C129.379 121.51 128.339 121.078 127.107 121.078C125.843 121.078 124.787 121.51 123.939 122.358C123.091 123.206 122.675 124.262 122.675 125.526C122.675 126.742 123.091 127.782 123.939 128.63C124.787 129.478 125.843 129.91 127.075 129.91ZM127.107 128.806C126.195 128.806 125.427 128.486 124.835 127.83C124.243 127.174 123.955 126.374 123.955 125.462C123.955 124.55 124.243 123.766 124.835 123.126C125.427 122.486 126.163 122.166 127.075 122.166C127.987 122.166 128.739 122.502 129.331 123.158C129.923 123.814 130.227 124.614 130.227 125.526C130.227 126.438 129.923 127.206 129.331 127.846C128.739 128.486 128.003 128.806 127.107 128.806ZM140.409 129.846C140.409 131.942 139.145 132.95 137.353 132.95C136.409 132.95 135.657 132.662 135.161 132.15C134.665 131.638 134.425 131.286 134.153 130.694L133.145 131.286C133.961 133.126 135.369 134.038 137.369 134.038C140.009 134.038 141.657 132.502 141.657 129.798V121.222H140.425V123.014C139.561 121.718 138.457 121.078 137.097 121.078C135.929 121.078 134.969 121.51 134.217 122.39C133.465 123.27 133.097 124.278 133.097 125.446C133.097 126.646 133.465 127.686 134.201 128.534C134.937 129.382 135.897 129.798 137.097 129.798C138.521 129.798 139.625 129.158 140.409 127.862V129.846ZM137.353 128.71C136.441 128.71 135.721 128.406 135.177 127.782C134.649 127.158 134.377 126.39 134.377 125.478C134.377 124.534 134.649 123.75 135.177 123.126C135.705 122.502 136.441 122.182 137.353 122.182C138.217 122.182 138.937 122.502 139.529 123.158C140.121 123.814 140.425 124.566 140.425 125.43C140.425 126.326 140.137 127.094 139.545 127.75C138.969 128.39 138.233 128.71 137.353 128.71ZM144.471 121.222V129.766H145.719V125.59C145.719 124.71 145.927 123.974 146.359 123.35C146.791 122.726 147.463 122.406 148.391 122.406C148.503 122.406 148.663 122.422 148.871 122.438V121.11C148.807 121.094 148.663 121.094 148.455 121.094C147.367 121.094 146.295 121.686 145.703 122.918V121.222H144.471ZM153.13 124.838C152.234 124.838 151.45 125.046 150.762 125.446C150.09 125.846 149.754 126.454 149.754 127.302V127.398C149.754 128.118 150.01 128.726 150.538 129.206C151.066 129.67 151.77 129.91 152.618 129.91C153.834 129.91 154.794 129.366 155.498 128.262H155.514V129.766H156.73V124.246C156.73 123.718 156.65 123.254 156.474 122.838C155.962 121.67 154.922 121.078 153.354 121.078C151.658 121.078 150.49 121.814 149.85 123.286L150.874 123.862C151.402 122.742 152.218 122.182 153.322 122.182C154.778 122.182 155.498 122.87 155.498 124.262V124.838H153.13ZM155.498 126.166C155.498 126.95 155.242 127.574 154.746 128.07C154.25 128.566 153.61 128.806 152.842 128.806C151.77 128.806 151.002 128.246 151.002 127.302C151.049 126.182 152.138 125.846 153.114 125.862H155.498V126.166ZM166.495 129.766V124.854C166.495 124.102 166.703 123.478 167.135 122.982C167.567 122.47 168.143 122.214 168.863 122.214C170.351 122.214 171.071 123.254 171.071 124.79V129.766H172.319V124.486C172.319 122.438 171.167 121.078 169.167 121.078C167.903 121.078 166.895 121.638 166.159 122.774C165.631 121.638 164.719 121.062 163.423 121.062C162.207 121.062 161.391 121.606 160.671 122.71V121.222H159.439V129.766H160.687V124.902C160.687 124.166 160.895 123.526 161.327 122.998C161.759 122.47 162.335 122.198 163.055 122.198C164.527 122.198 165.263 123.27 165.263 124.758V129.766H166.495ZM180.697 127.334C180.697 126.806 180.489 126.326 180.089 125.926C179.625 125.446 178.873 125.094 177.849 124.87C176.265 124.534 175.849 124.23 175.849 123.526C175.849 123.158 176.025 122.854 176.361 122.582C176.697 122.31 177.113 122.182 177.577 122.182C178.457 122.182 179.129 122.662 179.577 123.622L180.601 123.062C180.025 121.734 179.017 121.078 177.577 121.078C176.809 121.078 176.121 121.318 175.513 121.798C174.905 122.278 174.601 122.886 174.601 123.622C174.601 124.118 174.761 124.534 175.065 124.902C175.529 125.43 176.121 125.702 177.289 125.958C178.841 126.326 179.433 126.694 179.433 127.414C179.433 128.262 178.585 128.806 177.609 128.806C176.601 128.806 175.833 128.246 175.305 127.142L174.281 127.702C174.937 129.174 176.057 129.91 177.625 129.91C178.505 129.91 179.241 129.67 179.817 129.19C180.409 128.694 180.697 128.086 180.697 127.334ZM189.248 129.766H190.624L192.896 122.822H192.912L195.168 129.766H196.56L199.44 121.222H198.144L195.888 128.326H195.872L193.536 121.222H192.288L189.968 128.31H189.952L187.712 121.222H186.384L189.248 129.766ZM208.632 125.878C208.648 125.798 208.648 125.654 208.648 125.462C208.648 124.166 208.296 123.126 207.592 122.31C206.888 121.494 205.896 121.078 204.616 121.078C203.448 121.078 202.456 121.51 201.656 122.39C200.856 123.27 200.456 124.294 200.456 125.478C200.456 126.71 200.872 127.766 201.704 128.63C202.536 129.478 203.56 129.91 204.792 129.91C206.328 129.91 207.688 129.11 208.408 127.702L207.48 127.094C206.984 128.118 205.976 128.806 204.776 128.806C203.944 128.806 203.24 128.534 202.664 127.974C202.088 127.414 201.768 126.71 201.72 125.878H208.632ZM201.736 124.822C201.848 124.086 202.168 123.462 202.712 122.95C203.256 122.422 203.896 122.166 204.616 122.166C206.216 122.166 207.208 123.222 207.384 124.822H201.736ZM219.043 129.91C220.291 129.91 221.347 129.478 222.195 128.63C223.043 127.782 223.475 126.726 223.475 125.462C223.475 124.23 223.043 123.206 222.195 122.358C221.347 121.51 220.307 121.078 219.075 121.078C217.811 121.078 216.755 121.51 215.907 122.358C215.059 123.206 214.643 124.262 214.643 125.526C214.643 126.742 215.059 127.782 215.907 128.63C216.755 129.478 217.811 129.91 219.043 129.91ZM219.075 128.806C218.163 128.806 217.395 128.486 216.803 127.83C216.211 127.174 215.923 126.374 215.923 125.462C215.923 124.55 216.211 123.766 216.803 123.126C217.395 122.486 218.131 122.166 219.043 122.166C219.955 122.166 220.707 122.502 221.299 123.158C221.891 123.814 222.195 124.614 222.195 125.526C222.195 126.438 221.891 127.206 221.299 127.846C220.707 128.486 219.971 128.806 219.075 128.806ZM234.106 117.798C234.474 117.798 234.778 117.83 234.986 117.91V116.854C234.666 116.742 234.362 116.694 234.058 116.694C232.474 116.694 231.434 117.718 231.434 119.638V121.222H227.498V119.606C227.498 118.278 228.154 117.798 228.922 117.798C229.29 117.798 229.594 117.83 229.818 117.91V116.854C229.498 116.742 229.178 116.694 228.874 116.694C227.29 116.694 226.25 117.718 226.25 119.638V121.222H224.666V122.31H226.25V129.766H227.498V122.31H231.434V129.766H232.666V122.31H234.906V121.222H232.666V119.606C232.666 118.278 233.338 117.798 234.106 117.798ZM243.929 125.878C243.945 125.798 243.945 125.654 243.945 125.462C243.945 124.166 243.593 123.126 242.889 122.31C242.185 121.494 241.193 121.078 239.913 121.078C238.745 121.078 237.753 121.51 236.953 122.39C236.153 123.27 235.753 124.294 235.753 125.478C235.753 126.71 236.169 127.766 237.001 128.63C237.833 129.478 238.857 129.91 240.089 129.91C241.625 129.91 242.985 129.11 243.705 127.702L242.777 127.094C242.281 128.118 241.273 128.806 240.073 128.806C239.241 128.806 238.537 128.534 237.961 127.974C237.385 127.414 237.065 126.71 237.017 125.878H243.929ZM237.033 124.822C237.145 124.086 237.465 123.462 238.009 122.95C238.553 122.422 239.193 122.166 239.913 122.166C241.513 122.166 242.505 123.222 242.681 124.822H237.033ZM246.096 121.222V129.766H247.344V125.59C247.344 124.71 247.552 123.974 247.984 123.35C248.416 122.726 249.088 122.406 250.016 122.406C250.128 122.406 250.288 122.422 250.496 122.438V121.11C250.432 121.094 250.288 121.094 250.08 121.094C248.992 121.094 247.92 121.686 247.328 122.918V121.222H246.096ZM258.942 124.838C258.046 124.838 257.262 125.046 256.574 125.446C255.902 125.846 255.566 126.454 255.566 127.302V127.398C255.566 128.118 255.822 128.726 256.35 129.206C256.878 129.67 257.582 129.91 258.43 129.91C259.646 129.91 260.606 129.366 261.31 128.262H261.326V129.766H262.542V124.246C262.542 123.718 262.462 123.254 262.286 122.838C261.774 121.67 260.734 121.078 259.166 121.078C257.47 121.078 256.302 121.814 255.662 123.286L256.686 123.862C257.214 122.742 258.03 122.182 259.134 122.182C260.59 122.182 261.31 122.87 261.31 124.262V124.838H258.942ZM261.31 126.166C261.31 126.95 261.054 127.574 260.558 128.07C260.062 128.566 259.422 128.806 258.654 128.806C257.582 128.806 256.814 128.246 256.814 127.302C256.862 126.182 257.95 125.846 258.926 125.862H261.31V126.166ZM272.66 129.766V124.486C272.66 122.438 271.476 121.062 269.428 121.062C268.132 121.062 267.156 121.638 266.484 122.79V121.222H265.252V129.766H266.5V124.902C266.5 124.134 266.74 123.494 267.22 122.982C267.7 122.454 268.308 122.198 269.044 122.198C270.58 122.198 271.412 123.206 271.412 124.79V129.766H272.66ZM274.753 125.478C274.753 126.694 275.121 127.734 275.857 128.598C276.609 129.462 277.569 129.894 278.753 129.894C280.177 129.894 281.297 129.238 282.081 127.942V129.766H283.297V116.742H282.065V123.014C281.185 121.718 280.081 121.078 278.753 121.078C277.585 121.078 276.625 121.526 275.873 122.406C275.121 123.286 274.753 124.31 274.753 125.478ZM279.009 128.79C278.097 128.79 277.377 128.47 276.833 127.846C276.289 127.206 276.017 126.422 276.017 125.51C276.017 124.566 276.289 123.766 276.833 123.142C277.377 122.502 278.097 122.182 279.009 122.182C279.873 122.182 280.593 122.518 281.185 123.174C281.777 123.83 282.081 124.582 282.081 125.462C282.081 126.374 281.793 127.158 281.201 127.814C280.625 128.47 279.889 128.79 279.009 128.79ZM296.26 127.334C296.26 126.806 296.052 126.326 295.652 125.926C295.188 125.446 294.436 125.094 293.411 124.87C291.828 124.534 291.412 124.23 291.412 123.526C291.412 123.158 291.588 122.854 291.924 122.582C292.26 122.31 292.676 122.182 293.14 122.182C294.02 122.182 294.692 122.662 295.14 123.622L296.164 123.062C295.588 121.734 294.58 121.078 293.14 121.078C292.372 121.078 291.684 121.318 291.076 121.798C290.468 122.278 290.164 122.886 290.164 123.622C290.164 124.118 290.324 124.534 290.628 124.902C291.092 125.43 291.684 125.702 292.852 125.958C294.404 126.326 294.996 126.694 294.996 127.414C294.996 128.262 294.148 128.806 293.172 128.806C292.164 128.806 291.396 128.246 290.868 127.142L289.844 127.702C290.5 129.174 291.62 129.91 293.188 129.91C294.068 129.91 294.804 129.67 295.38 129.19C295.972 128.694 296.26 128.086 296.26 127.334ZM305.894 129.766V124.486C305.894 122.438 304.71 121.062 302.662 121.062C301.398 121.062 300.422 121.622 299.734 122.758V116.742H298.486V129.766H299.734V124.902C299.734 124.134 299.974 123.494 300.454 122.982C300.934 122.454 301.542 122.198 302.278 122.198C303.814 122.198 304.646 123.206 304.646 124.79V129.766H305.894ZM311.38 124.838C310.484 124.838 309.7 125.046 309.012 125.446C308.34 125.846 308.004 126.454 308.004 127.302V127.398C308.004 128.118 308.26 128.726 308.788 129.206C309.316 129.67 310.02 129.91 310.868 129.91C312.084 129.91 313.044 129.366 313.748 128.262H313.764V129.766H314.98V124.246C314.98 123.718 314.9 123.254 314.724 122.838C314.212 121.67 313.172 121.078 311.604 121.078C309.908 121.078 308.74 121.814 308.1 123.286L309.124 123.862C309.652 122.742 310.468 122.182 311.572 122.182C313.028 122.182 313.748 122.87 313.748 124.262V124.838H311.38ZM313.748 126.166C313.748 126.95 313.492 127.574 312.996 128.07C312.5 128.566 311.86 128.806 311.092 128.806C310.02 128.806 309.252 128.246 309.252 127.302C309.299 126.182 310.388 125.846 311.364 125.862H313.748V126.166ZM326.249 125.478C326.249 124.31 325.865 123.286 325.113 122.406C324.361 121.526 323.401 121.078 322.233 121.078C320.873 121.078 319.769 121.75 318.921 123.078V121.222H317.689V133.974H318.937V128.006C319.737 129.27 320.841 129.894 322.233 129.894C323.401 129.894 324.361 129.462 325.113 128.582C325.865 127.702 326.249 126.678 326.249 125.478ZM321.977 128.79C321.097 128.79 320.361 128.47 319.785 127.814C319.209 127.158 318.921 126.374 318.921 125.462C318.921 124.582 319.209 123.83 319.801 123.174C320.393 122.518 321.113 122.182 321.977 122.182C322.889 122.182 323.609 122.502 324.153 123.158C324.697 123.798 324.969 124.582 324.969 125.51C324.969 126.454 324.697 127.238 324.153 127.862C323.625 128.486 322.889 128.79 321.977 128.79ZM336.007 125.878C336.023 125.798 336.023 125.654 336.023 125.462C336.023 124.166 335.671 123.126 334.967 122.31C334.263 121.494 333.271 121.078 331.991 121.078C330.823 121.078 329.831 121.51 329.031 122.39C328.231 123.27 327.831 124.294 327.831 125.478C327.831 126.71 328.247 127.766 329.079 128.63C329.911 129.478 330.935 129.91 332.167 129.91C333.703 129.91 335.063 129.11 335.783 127.702L334.855 127.094C334.359 128.118 333.351 128.806 332.151 128.806C331.319 128.806 330.615 128.534 330.039 127.974C329.463 127.414 329.143 126.71 329.095 125.878H336.007ZM329.111 124.822C329.223 124.086 329.543 123.462 330.087 122.95C330.631 122.422 331.271 122.166 331.991 122.166C333.591 122.166 334.583 123.222 334.759 124.822H329.111ZM345.083 129.19L342.875 133.974H344.219L350.075 121.222H348.731L345.771 127.83L342.635 121.222H341.195L345.083 129.19ZM355.247 129.91C356.495 129.91 357.551 129.478 358.399 128.63C359.247 127.782 359.679 126.726 359.679 125.462C359.679 124.23 359.247 123.206 358.399 122.358C357.551 121.51 356.511 121.078 355.279 121.078C354.015 121.078 352.959 121.51 352.111 122.358C351.263 123.206 350.847 124.262 350.847 125.526C350.847 126.742 351.263 127.782 352.111 128.63C352.959 129.478 354.015 129.91 355.247 129.91ZM355.279 128.806C354.367 128.806 353.599 128.486 353.007 127.83C352.414 127.174 352.127 126.374 352.127 125.462C352.127 124.55 352.414 123.766 353.007 123.126C353.599 122.486 354.335 122.166 355.247 122.166C356.159 122.166 356.911 122.502 357.503 123.158C358.095 123.814 358.399 124.614 358.399 125.526C358.399 126.438 358.095 127.206 357.503 127.846C356.911 128.486 356.175 128.806 355.279 128.806ZM361.781 121.222V126.502C361.781 128.55 362.965 129.926 365.013 129.926C366.309 129.926 367.285 129.35 367.941 128.198V129.766H369.157V121.222H367.925V126.102C367.925 126.87 367.685 127.51 367.205 128.022C366.725 128.534 366.117 128.79 365.381 128.79C363.845 128.79 363.013 127.782 363.013 126.198V121.222H361.781ZM371.986 121.222V129.766H373.234V125.59C373.234 124.71 373.442 123.974 373.874 123.35C374.306 122.726 374.978 122.406 375.906 122.406C376.018 122.406 376.178 122.422 376.386 122.438V121.11C376.322 121.094 376.178 121.094 375.97 121.094C374.882 121.094 373.81 121.686 373.218 122.918V121.222H371.986ZM387.713 127.334C387.713 126.806 387.505 126.326 387.105 125.926C386.641 125.446 385.889 125.094 384.865 124.87C383.281 124.534 382.865 124.23 382.865 123.526C382.865 123.158 383.041 122.854 383.377 122.582C383.713 122.31 384.129 122.182 384.593 122.182C385.473 122.182 386.145 122.662 386.593 123.622L387.617 123.062C387.041 121.734 386.033 121.078 384.593 121.078C383.825 121.078 383.137 121.318 382.529 121.798C381.921 122.278 381.617 122.886 381.617 123.622C381.617 124.118 381.777 124.534 382.081 124.902C382.545 125.43 383.137 125.702 384.305 125.958C385.857 126.326 386.449 126.694 386.449 127.414C386.449 128.262 385.601 128.806 384.625 128.806C383.617 128.806 382.849 128.246 382.321 127.142L381.297 127.702C381.953 129.174 383.073 129.91 384.641 129.91C385.521 129.91 386.257 129.67 386.833 129.19C387.425 128.694 387.713 128.086 387.713 127.334ZM391.187 129.766V125.494H391.235L395.491 129.766H397.235L392.531 125.062L397.027 121.222H395.251L391.187 124.694V116.726H389.939V129.766H391.187ZM398.354 118.166C398.354 118.678 398.77 119.094 399.282 119.094C399.81 119.094 400.226 118.678 400.226 118.166C400.226 117.638 399.81 117.222 399.282 117.222C398.77 117.222 398.354 117.638 398.354 118.166ZM399.922 121.222H398.658V129.766H399.922V121.222ZM404 116.726H402.736V129.766H404V116.726ZM408.078 116.726H406.814V129.766H408.078V116.726ZM416.556 127.334C416.556 126.806 416.348 126.326 415.948 125.926C415.484 125.446 414.732 125.094 413.708 124.87C412.124 124.534 411.708 124.23 411.708 123.526C411.708 123.158 411.884 122.854 412.22 122.582C412.556 122.31 412.972 122.182 413.436 122.182C414.316 122.182 414.988 122.662 415.436 123.622L416.46 123.062C415.884 121.734 414.876 121.078 413.436 121.078C412.668 121.078 411.98 121.318 411.372 121.798C410.764 122.278 410.46 122.886 410.46 123.622C410.46 124.118 410.62 124.534 410.924 124.902C411.388 125.43 411.98 125.702 413.148 125.958C414.7 126.326 415.292 126.694 415.292 127.414C415.292 128.262 414.444 128.806 413.468 128.806C412.46 128.806 411.692 128.246 411.164 127.142L410.14 127.702C410.796 129.174 411.916 129.91 413.484 129.91C414.364 129.91 415.1 129.67 415.676 129.19C416.268 128.694 416.556 128.086 416.556 127.334ZM422.948 118.166C422.948 118.678 423.364 119.094 423.876 119.094C424.404 119.094 424.82 118.678 424.82 118.166C424.82 117.638 424.404 117.222 423.876 117.222C423.364 117.222 422.948 117.638 422.948 118.166ZM424.516 121.222H423.252V129.766H424.516V121.222ZM434.738 129.766V124.486C434.738 122.438 433.554 121.062 431.506 121.062C430.21 121.062 429.234 121.638 428.562 122.79V121.222H427.33V129.766H428.578V124.902C428.578 124.134 428.818 123.494 429.298 122.982C429.778 122.454 430.386 122.198 431.122 122.198C432.658 122.198 433.49 123.206 433.49 124.79V129.766H434.738ZM444.9 129.83C445.268 129.83 445.604 129.782 445.876 129.702V128.662C445.7 128.71 445.444 128.726 445.108 128.726C444.18 128.726 443.716 128.326 443.716 127.526V122.326H445.876V121.222H443.716V118.758H442.484V121.222H440.9V122.326H442.484V127.558C442.484 129.078 443.284 129.83 444.9 129.83ZM455.394 129.766V124.486C455.394 122.438 454.21 121.062 452.162 121.062C450.898 121.062 449.922 121.622 449.234 122.758V116.742H447.986V129.766H449.234V124.902C449.234 124.134 449.474 123.494 449.954 122.982C450.434 122.454 451.042 122.198 451.778 122.198C453.314 122.198 454.146 123.206 454.146 124.79V129.766H455.394ZM461.872 129.91C463.12 129.91 464.176 129.478 465.024 128.63C465.872 127.782 466.304 126.726 466.304 125.462C466.304 124.23 465.872 123.206 465.024 122.358C464.176 121.51 463.136 121.078 461.904 121.078C460.64 121.078 459.584 121.51 458.736 122.358C457.888 123.206 457.472 124.262 457.472 125.526C457.472 126.742 457.888 127.782 458.736 128.63C459.584 129.478 460.64 129.91 461.872 129.91ZM461.904 128.806C460.992 128.806 460.224 128.486 459.632 127.83C459.039 127.174 458.752 126.374 458.752 125.462C458.752 124.55 459.039 123.766 459.632 123.126C460.224 122.486 460.96 122.166 461.872 122.166C462.784 122.166 463.536 122.502 464.128 123.158C464.72 123.814 465.024 124.614 465.024 125.526C465.024 126.438 464.72 127.206 464.128 127.846C463.536 128.486 462.8 128.806 461.904 128.806ZM474.166 127.334C474.166 126.806 473.958 126.326 473.558 125.926C473.094 125.446 472.342 125.094 471.318 124.87C469.734 124.534 469.318 124.23 469.318 123.526C469.318 123.158 469.494 122.854 469.83 122.582C470.166 122.31 470.582 122.182 471.046 122.182C471.926 122.182 472.598 122.662 473.046 123.622L474.07 123.062C473.494 121.734 472.486 121.078 471.046 121.078C470.278 121.078 469.59 121.318 468.982 121.798C468.374 122.278 468.07 122.886 468.07 123.622C468.07 124.118 468.23 124.534 468.534 124.902C468.998 125.43 469.59 125.702 470.758 125.958C472.31 126.326 472.902 126.694 472.902 127.414C472.902 128.262 472.054 128.806 471.078 128.806C470.07 128.806 469.302 128.246 468.774 127.142L467.75 127.702C468.406 129.174 469.526 129.91 471.094 129.91C471.974 129.91 472.71 129.67 473.286 129.19C473.878 128.694 474.166 128.086 474.166 127.334ZM483.944 125.878C483.96 125.798 483.96 125.654 483.96 125.462C483.96 124.166 483.608 123.126 482.904 122.31C482.2 121.494 481.208 121.078 479.928 121.078C478.76 121.078 477.768 121.51 476.968 122.39C476.168 123.27 475.768 124.294 475.768 125.478C475.768 126.71 476.184 127.766 477.016 128.63C477.848 129.478 478.872 129.91 480.104 129.91C481.64 129.91 483 129.11 483.72 127.702L482.792 127.094C482.296 128.118 481.288 128.806 480.088 128.806C479.256 128.806 478.552 128.534 477.976 127.974C477.4 127.414 477.08 126.71 477.032 125.878H483.944ZM477.048 124.822C477.16 124.086 477.48 123.462 478.024 122.95C478.568 122.422 479.208 122.166 479.928 122.166C481.528 122.166 482.52 123.222 482.696 124.822H477.048ZM489.572 121.222V122.31H491.156V129.766H492.404V122.31H496.34V129.766H497.588V121.222H492.404V119.606C492.404 118.278 493.06 117.798 493.828 117.798C494.196 117.798 494.5 117.83 494.724 117.91V116.854C494.404 116.742 494.084 116.694 493.78 116.694C492.196 116.694 491.156 117.718 491.156 119.638V121.222H489.572ZM496.036 118.166C496.036 118.678 496.452 119.094 496.964 119.094C497.492 119.094 497.908 118.678 497.908 118.166C497.908 117.638 497.492 117.222 496.964 117.222C496.452 117.222 496.036 117.638 496.036 118.166ZM507.976 125.878C507.992 125.798 507.992 125.654 507.992 125.462C507.992 124.166 507.64 123.126 506.936 122.31C506.232 121.494 505.24 121.078 503.96 121.078C502.792 121.078 501.8 121.51 501 122.39C500.2 123.27 499.8 124.294 499.8 125.478C499.8 126.71 500.216 127.766 501.048 128.63C501.88 129.478 502.904 129.91 504.136 129.91C505.672 129.91 507.032 129.11 507.752 127.702L506.824 127.094C506.328 128.118 505.32 128.806 504.12 128.806C503.288 128.806 502.584 128.534 502.008 127.974C501.432 127.414 501.112 126.71 501.064 125.878H507.976ZM501.08 124.822C501.192 124.086 501.512 123.462 502.056 122.95C502.6 122.422 503.24 122.166 503.96 122.166C505.56 122.166 506.552 123.222 506.728 124.822H501.08ZM511.406 116.726H510.142V129.766H511.406V116.726ZM513.613 125.478C513.613 126.694 513.981 127.734 514.717 128.598C515.469 129.462 516.429 129.894 517.613 129.894C519.037 129.894 520.157 129.238 520.941 127.942V129.766H522.157V116.742H520.925V123.014C520.045 121.718 518.941 121.078 517.613 121.078C516.445 121.078 515.485 121.526 514.733 122.406C513.981 123.286 513.613 124.31 513.613 125.478ZM517.869 128.79C516.957 128.79 516.237 128.47 515.693 127.846C515.149 127.206 514.877 126.422 514.877 125.51C514.877 124.566 515.149 123.766 515.693 123.142C516.237 122.502 516.957 122.182 517.869 122.182C518.733 122.182 519.453 122.518 520.045 123.174C520.637 123.83 520.941 124.582 520.941 125.462C520.941 126.374 520.653 127.158 520.061 127.814C519.485 128.47 518.749 128.79 517.869 128.79ZM530.65 127.334C530.65 126.806 530.442 126.326 530.042 125.926C529.578 125.446 528.826 125.094 527.802 124.87C526.218 124.534 525.802 124.23 525.802 123.526C525.802 123.158 525.978 122.854 526.314 122.582C526.65 122.31 527.066 122.182 527.53 122.182C528.41 122.182 529.082 122.662 529.53 123.622L530.554 123.062C529.978 121.734 528.97 121.078 527.53 121.078C526.762 121.078 526.074 121.318 525.466 121.798C524.858 122.278 524.554 122.886 524.554 123.622C524.554 124.118 524.714 124.534 525.018 124.902C525.482 125.43 526.074 125.702 527.242 125.958C528.794 126.326 529.386 126.694 529.386 127.414C529.386 128.262 528.538 128.806 527.562 128.806C526.554 128.806 525.786 128.246 525.258 127.142L524.234 127.702C524.89 129.174 526.01 129.91 527.578 129.91C528.458 129.91 529.194 129.67 529.77 129.19C530.362 128.694 530.65 128.086 530.65 127.334ZM533.709 127.606C533.069 127.606 532.557 128.118 532.557 128.758C532.557 129.398 533.069 129.91 533.709 129.91C534.333 129.91 534.845 129.398 534.845 128.758C534.845 128.118 534.333 127.606 533.709 127.606Z" fill="#003C3C"/>
<path d="M48.4434 165.098H36.3718V167.705H39.8241C41.676 167.705 42.7963 168.345 43.1621 169.602H36.3718V171.751H43.1392C42.7048 173.032 41.6074 173.672 39.8241 173.672H36.3718V176.187L39.8927 176.21L43.345 183H46.4544L42.5905 175.638C44.5339 174.929 45.677 173.649 46.0428 171.751H48.4434V169.602H45.9971C45.7456 168.665 45.1969 167.933 44.3967 167.407H48.4434V165.098ZM63.0029 177.97C63.0029 175.958 61.9741 174.564 59.9164 173.763V173.74C61.7226 172.872 62.6142 171.5 62.6142 169.648C62.6142 168.299 62.0655 167.179 60.9909 166.241C59.9164 165.304 58.4532 164.847 56.6241 164.847C53.5833 164.847 51.4571 166.493 50.634 168.871L53.0803 169.991C53.812 168.276 54.978 167.407 56.5784 167.407C58.5903 167.407 59.7563 168.482 59.7563 169.945C59.7563 170.677 59.4591 171.317 58.8418 171.843C58.2474 172.369 57.4929 172.62 56.5784 172.62H54.8179V175.158H56.7384C57.7215 175.158 58.5217 175.432 59.139 175.981C59.7792 176.507 60.0993 177.17 60.0993 177.924C60.0993 178.656 59.7792 179.296 59.1162 179.845C58.4532 180.371 57.6529 180.645 56.6927 180.645C54.8865 180.645 53.5833 179.753 52.806 177.993L50.3825 179.182C51.4571 181.857 53.5376 183.206 56.647 183.206C58.4989 183.206 60.0078 182.703 61.1967 181.697C62.4085 180.668 63.0029 179.433 63.0029 177.97ZM70.764 180.759C69.5522 180.759 68.3176 180.234 67.083 179.205L65.6198 181.24C67.1516 182.566 68.8664 183.229 70.764 183.229C76.3654 183.229 78.7203 178.473 78.7203 173.398C78.7203 170.334 78.0573 168.139 76.7084 166.79C75.4052 165.487 73.7819 164.847 71.8385 164.847C70.0324 164.847 68.5006 165.418 67.2202 166.584C65.9628 167.728 65.3226 169.191 65.3226 170.997C65.3226 172.712 65.8942 174.129 67.0145 175.204C68.1347 176.278 69.5751 176.827 71.3127 176.827C73.0732 176.827 74.9022 175.981 75.931 174.541H75.9768C75.8167 176.713 75.1537 178.542 73.5761 179.822C72.7988 180.439 71.8614 180.759 70.764 180.759ZM71.8843 174.381C69.7123 174.381 68.2262 172.986 68.2262 170.86C68.2262 168.756 69.758 167.407 71.8843 167.407C74.0791 167.407 75.6338 168.733 75.6338 170.928C75.6338 171.934 75.268 172.757 74.5135 173.42C73.759 174.061 72.8902 174.381 71.8843 174.381ZM86.4377 180.759C85.2259 180.759 83.9913 180.234 82.7567 179.205L81.2935 181.24C82.8253 182.566 84.54 183.229 86.4377 183.229C92.0391 183.229 94.394 178.473 94.394 173.398C94.394 170.334 93.7309 168.139 92.382 166.79C91.0788 165.487 89.4556 164.847 87.5122 164.847C85.706 164.847 84.1742 165.418 82.8939 166.584C81.6364 167.728 80.9963 169.191 80.9963 170.997C80.9963 172.712 81.5678 174.129 82.6881 175.204C83.8084 176.278 85.2488 176.827 86.9864 176.827C88.7468 176.827 90.5759 175.981 91.6047 174.541H91.6504C91.4904 176.713 90.8273 178.542 89.2498 179.822C88.4725 180.439 87.5351 180.759 86.4377 180.759ZM87.5579 174.381C85.386 174.381 83.8999 172.986 83.8999 170.86C83.8999 168.756 85.4317 167.407 87.5579 167.407C89.7528 167.407 91.3075 168.733 91.3075 170.928C91.3075 171.934 90.9417 172.757 90.1872 173.42C89.4327 174.061 88.5639 174.381 87.5579 174.381Z" fill="#003C3C"/>
<path d="M99.3189 182.042L104.557 170.043H102.816L97.5776 182.042H99.3189ZM117.054 181.969H118.839V170.512H116.483L112.664 179.276H112.649L108.772 170.512H106.475V181.969H108.245V173.658H108.274L111.976 181.969H113.308L117.025 173.614H117.054V181.969ZM125.071 173.994C123.93 173.994 122.949 174.389 122.145 175.165C121.34 175.94 120.93 176.906 120.93 178.047C120.93 179.189 121.325 180.154 122.13 180.93C122.935 181.705 123.915 182.1 125.057 182.1C126.212 182.1 127.178 181.705 127.968 180.93C128.773 180.14 129.168 179.174 129.168 178.018C129.168 176.877 128.773 175.926 127.968 175.15C127.164 174.375 126.198 173.994 125.071 173.994ZM123.359 176.291C123.798 175.809 124.369 175.574 125.057 175.574C125.744 175.574 126.315 175.809 126.739 176.291C127.178 176.774 127.398 177.36 127.398 178.047C127.398 178.735 127.178 179.32 126.754 179.803C126.33 180.286 125.759 180.52 125.071 180.52C124.383 180.52 123.813 180.271 123.374 179.789C122.935 179.291 122.715 178.706 122.715 178.018C122.715 177.33 122.935 176.76 123.359 176.291ZM137.997 181.969V177.155C137.997 175.282 136.988 173.994 135.071 173.994C134.076 173.994 133.286 174.404 132.686 175.209V174.155H130.988V181.969H132.73V177.623C132.73 176.438 133.432 175.648 134.529 175.648C135.685 175.648 136.256 176.423 136.256 177.594V181.969H137.997ZM144.506 175.721V174.155H142.589V171.741H140.848V174.155H139.414V175.721H140.848V179.452C140.848 181.149 141.843 182.057 143.555 182.057C143.891 182.057 144.213 181.998 144.491 181.896V180.418C144.301 180.462 144.111 180.476 143.935 180.476C143.043 180.476 142.589 180.11 142.589 179.174V175.721H144.506ZM153.344 181.969V177.155C153.344 175.282 152.334 173.994 150.418 173.994C149.466 173.994 148.676 174.375 148.076 175.15V170.058H146.335V181.969H148.076V177.623C148.076 176.438 148.779 175.648 149.876 175.648C151.032 175.648 151.603 176.423 151.603 177.594V181.969H153.344Z" fill="#003C3C"/>
<defs>
<filter id="filter0_d_528_7061" x="986.552" y="32.7355" width="263.013" height="224.505" filterUnits="userSpaceOnUse" color-interpolation-filters="sRGB">
<feFlood flood-opacity="0" result="BackgroundImageFix"/>
<feColorMatrix in="SourceAlpha" type="matrix" values="0 0 0 0 0 0 0 0 0 0 0 0 0 0 0 0 0 0 127 0" result="hardAlpha"/>
<feOffset dy="6.16"/>
<feGaussianBlur stdDeviation="22.7239"/>
<feComposite in2="hardAlpha" operator="out"/>
<feColorMatrix type="matrix" values="0 0 0 0 0 0 0 0 0 0 0 0 0 0 0 0 0 0 0.03 0"/>
<feBlend mode="normal" in2="BackgroundImageFix" result="effect1_dropShadow_528_7061"/>
<feBlend mode="normal" in="SourceGraphic" in2="effect1_dropShadow_528_7061" result="shape"/>
</filter>
<filter id="filter1_d_528_7061" x="1019.72" y="0.712109" width="263.013" height="224.505" filterUnits="userSpaceOnUse" color-interpolation-filters="sRGB">
<feFlood flood-opacity="0" result="BackgroundImageFix"/>
<feColorMatrix in="SourceAlpha" type="matrix" values="0 0 0 0 0 0 0 0 0 0 0 0 0 0 0 0 0 0 127 0" result="hardAlpha"/>
<feOffset dy="6.16"/>
<feGaussianBlur stdDeviation="22.7239"/>
<feComposite in2="hardAlpha" operator="out"/>
<feColorMatrix type="matrix" values="0 0 0 0 0 0 0 0 0 0 0 0 0 0 0 0 0 0 0.07 0"/>
<feBlend mode="normal" in2="BackgroundImageFix" result="effect1_dropShadow_528_7061"/>
<feBlend mode="normal" in="SourceGraphic" in2="effect1_dropShadow_528_7061" result="shape"/>
</filter>
<filter id="filter2_d_528_7061" x="726" y="66.7578" width="282.633" height="131.438" filterUnits="userSpaceOnUse" color-interpolation-filters="sRGB">
<feFlood flood-opacity="0" result="BackgroundImageFix"/>
<feColorMatrix in="SourceAlpha" type="matrix" values="0 0 0 0 0 0 0 0 0 0 0 0 0 0 0 0 0 0 127 0" result="hardAlpha"/>
<feOffset dy="7"/>
<feGaussianBlur stdDeviation="18"/>
<feColorMatrix type="matrix" values="0 0 0 0 0 0 0 0 0 0 0 0 0 0 0 0 0 0 0.102 0"/>
<feBlend mode="normal" in2="BackgroundImageFix" result="effect1_dropShadow_528_7061"/>
<feBlend mode="normal" in="SourceGraphic" in2="effect1_dropShadow_528_7061" result="shape"/>
</filter>
<linearGradient id="paint0_linear_528_7061" x1="726.93" y1="148.534" x2="726.828" y2="179.779" gradientUnits="userSpaceOnUse">
<stop stop-color="#1898AF"/>
<stop offset="1" stop-color="#63BB4C"/>
</linearGradient>
</defs>
</svg>
