<svg width="21" height="21" viewBox="0 0 21 21" fill="none" xmlns="http://www.w3.org/2000/svg">
<path fill-rule="evenodd" clip-rule="evenodd" d="M9.33244 0.898438C11.7117 0.898438 13.6536 2.77237 13.7626 5.12468L13.7674 5.33344V6.26644C13.7674 6.68065 13.4317 7.01644 13.0174 7.01644C12.6377 7.01644 12.3239 6.73428 12.2743 6.36821L12.2674 6.26644V5.33344C12.2674 3.77054 11.0454 2.4927 9.50487 2.40342L9.33244 2.39844H4.45744C2.89538 2.39844 1.61769 3.62057 1.52842 5.16101L1.52344 5.33344V16.4634C1.52344 18.0262 2.74534 19.3042 4.28509 19.3935L4.45744 19.3984H9.34244C10.8998 19.3984 12.1735 18.1808 12.2625 16.6462L12.2674 16.4744V15.5314C12.2674 15.1172 12.6032 14.7814 13.0174 14.7814C13.3971 14.7814 13.7109 15.0636 13.7606 15.4297L13.7674 15.5314V16.4744C13.7674 18.8457 11.9006 20.7815 9.55679 20.8933L9.34244 20.8984H4.45744C2.07899 20.8984 0.137278 19.0243 0.0282647 16.6722L0.0234375 16.4634V5.33344C0.0234375 2.95438 1.8972 1.0123 4.24874 0.903266L4.45744 0.898438H9.33244ZM20.3297 10.3567C20.4722 10.4932 20.5609 10.6854 20.5609 10.8983C20.5609 11.1134 20.4704 11.3074 20.3253 11.4442L17.4119 14.3457C17.1184 14.6379 16.6435 14.637 16.3512 14.3435C16.0855 14.0767 16.0622 13.66 16.2806 13.3668L16.3534 13.2828L17.9935 11.6483H7.76994C7.35572 11.6483 7.01994 11.3126 7.01994 10.8983C7.01994 10.5186 7.30209 10.2048 7.66817 10.1552L7.76994 10.1483H17.9951L16.3535 8.51475C16.0866 8.24907 16.0615 7.83246 16.2787 7.53837L16.3511 7.45409C16.6168 7.18723 17.0334 7.1621 17.3275 7.3793L17.4118 7.45173L20.3297 10.3567Z" fill="#E02B1D"/>
</svg>
