<svg width="24" height="24" viewBox="0 0 24 24" fill="none" xmlns="http://www.w3.org/2000/svg">
<path d="M12 2C11.2044 2 10.4413 2.31607 9.87868 2.87868C9.31607 3.44129 9 4.20435 9 5V11C9 11.394 9.0776 11.7841 9.22836 12.1481C9.37913 12.512 9.6001 12.8427 9.87868 13.1213C10.1573 13.3999 10.488 13.6209 10.8519 13.7716C11.2159 13.9224 11.606 14 12 14C12.394 14 12.7841 13.9224 13.1481 13.7716C13.512 13.6209 13.8427 13.3999 14.1213 13.1213C14.3999 12.8427 14.6209 12.512 14.7716 12.1481C14.9224 11.7841 15 11.394 15 11V5C15 4.20435 14.6839 3.44129 14.1213 2.87868C13.5587 2.31607 12.7956 2 12 2V2ZM13.19 11.1C13.2052 11.2661 13.1856 11.4336 13.1325 11.5917C13.0793 11.7498 12.9938 11.8951 12.8814 12.0183C12.7689 12.1416 12.632 12.24 12.4794 12.3073C12.3268 12.3747 12.1618 12.4094 11.995 12.4094C11.8282 12.4094 11.6632 12.3747 11.5106 12.3073C11.358 12.24 11.2211 12.1416 11.1086 12.0183C10.9962 11.8951 10.9107 11.7498 10.8575 11.5917C10.8044 11.4336 10.7848 11.2661 10.8 11.1V4.9C10.8 4.58174 10.9264 4.27652 11.1515 4.05147C11.3765 3.82643 11.6817 3.7 12 3.7C12.3183 3.7 12.6235 3.82643 12.8485 4.05147C13.0736 4.27652 13.2 4.58174 13.2 4.9L13.19 11.1Z" fill="#8A94A9"/>
<path d="M19 10.9984C18.9509 12.6456 18.3222 14.2227 17.2247 15.4519C16.1271 16.6811 14.6311 17.4838 13 17.7184V20.9984C13 21.2637 12.8946 21.518 12.7071 21.7055C12.5196 21.8931 12.2652 21.9984 12 21.9984C11.7348 21.9984 11.4804 21.8931 11.2929 21.7055C11.1054 21.518 11 21.2637 11 20.9984V17.7184C9.36889 17.4838 7.87286 16.6811 6.77533 15.4519C5.67779 14.2227 5.04912 12.6456 5 10.9984C5 10.773 5.08955 10.5568 5.24896 10.3974C5.40837 10.238 5.62457 10.1484 5.85 10.1484C6.07543 10.1484 6.29163 10.238 6.45104 10.3974C6.61045 10.5568 6.7 10.773 6.7 10.9984C6.7117 11.6817 6.85823 12.356 7.13119 12.9825C7.40414 13.6091 7.79815 14.1755 8.2906 14.6494C8.78304 15.1232 9.36422 15.4952 10.0008 15.7439C10.6373 15.9925 11.3167 16.113 12 16.0984C13.3631 16.1282 14.6832 15.6205 15.6749 14.6849C16.6667 13.7492 17.2504 12.461 17.3 11.0984C17.2953 11.0787 17.2953 11.0582 17.3 11.0384C17.3026 10.8121 17.3944 10.5959 17.5554 10.4368C17.7164 10.2777 17.9336 10.1884 18.16 10.1884C18.3769 10.1908 18.5848 10.2759 18.741 10.4265C18.8971 10.5771 18.9898 10.7817 19 10.9984Z" fill="#8A94A9"/>
</svg>
