<svg width="363" height="305" viewBox="0 0 363 305" fill="none" xmlns="http://www.w3.org/2000/svg">
<path d="M298.581 146.886C298.53 146.559 298.415 146.245 298.242 145.962C298.07 145.68 297.843 145.434 297.576 145.239C297.309 145.044 297.005 144.903 296.684 144.825C296.362 144.747 296.028 144.733 295.701 144.784C295.374 144.836 295.06 144.951 294.778 145.123C294.495 145.296 294.249 145.522 294.054 145.789C293.859 146.057 293.718 146.36 293.64 146.682C293.562 147.003 293.549 147.337 293.6 147.664C293.962 150.012 294.422 157.367 291.886 160.326C291.367 160.951 290.641 161.368 289.84 161.503L290.071 147.494C290.078 147.01 289.989 146.529 289.808 146.08C289.627 145.631 289.358 145.222 289.018 144.878C288.677 144.534 288.271 144.261 287.824 144.075C287.377 143.889 286.897 143.795 286.413 143.797C285.928 143.799 285.449 143.897 285.004 144.087C284.558 144.276 284.154 144.552 283.817 144.899C283.479 145.246 283.214 145.657 283.037 146.108C282.86 146.559 282.774 147.04 282.785 147.524L283.443 174.108C282.61 173.99 281.851 173.567 281.311 172.92C278.775 169.961 279.234 162.606 279.598 160.258C279.653 159.929 279.643 159.593 279.568 159.268C279.492 158.943 279.353 158.636 279.158 158.365C278.963 158.094 278.716 157.865 278.432 157.69C278.148 157.516 277.832 157.399 277.502 157.348C277.173 157.296 276.836 157.31 276.512 157.39C276.188 157.469 275.883 157.612 275.615 157.811C275.346 158.009 275.12 158.258 274.949 158.545C274.778 158.831 274.665 159.149 274.617 159.479C274.436 160.636 272.98 170.934 277.481 176.194C278.237 177.084 279.168 177.808 280.216 178.323C281.264 178.838 282.406 179.133 283.572 179.189L283.859 190.76H289.359L289.758 166.585C290.902 166.514 292.02 166.213 293.044 165.701C294.069 165.188 294.98 164.473 295.722 163.6C300.219 158.341 298.762 148.042 298.581 146.886Z" fill="#BDBDBD"/>
<path d="M63.7276 169.425C63.6984 169.213 63.6274 169.01 63.5187 168.826C63.41 168.642 63.2658 168.482 63.0945 168.355C62.9232 168.227 62.7283 168.136 62.5211 168.084C62.3139 168.033 62.0985 168.024 61.8877 168.057C61.6768 168.09 61.4746 168.164 61.2929 168.276C61.1112 168.388 60.9537 168.535 60.8294 168.709C60.7052 168.882 60.6167 169.079 60.5693 169.287C60.5218 169.495 60.5163 169.711 60.553 169.921C60.7834 171.417 61.0768 176.106 59.4563 177.993C59.1259 178.391 58.6637 178.657 58.1538 178.743L58.3011 169.813C58.305 169.504 58.2475 169.198 58.1319 168.913C58.0164 168.627 57.845 168.367 57.6279 168.148C57.4109 167.929 57.1525 167.756 56.8677 167.638C56.5829 167.52 56.2775 167.46 55.9692 167.461C55.661 167.462 55.3561 167.525 55.0723 167.645C54.7885 167.766 54.5314 167.941 54.3162 168.162C54.101 168.382 53.9319 168.644 53.8187 168.93C53.7054 169.217 53.6504 169.524 53.6568 169.832L54.0764 186.778C53.5456 186.704 53.0612 186.435 52.717 186.024C51.0992 184.138 51.3926 179.449 51.6202 177.952C51.6569 177.742 51.6514 177.527 51.604 177.318C51.5565 177.11 51.4681 176.914 51.3438 176.74C51.2196 176.567 51.062 176.42 50.8803 176.308C50.6986 176.196 50.4964 176.121 50.2855 176.088C50.0747 176.055 49.8594 176.065 49.6521 176.116C49.4449 176.167 49.25 176.259 49.0787 176.386C48.9074 176.513 48.7632 176.674 48.6545 176.857C48.5458 177.041 48.4748 177.245 48.4457 177.456C48.3298 178.194 47.4009 184.759 50.2705 188.111C50.7527 188.678 51.3461 189.14 52.0139 189.468C52.6818 189.797 53.4098 189.984 54.1531 190.02L54.3362 197.397H57.8426L58.0969 181.986C58.826 181.94 59.5384 181.749 60.1916 181.422C60.8449 181.095 61.4255 180.639 61.8987 180.083C64.7723 176.727 63.8435 170.162 63.7276 169.425Z" fill="#BDBDBD"/>
<path d="M181.391 304.096C281.57 304.096 362.782 275.346 362.782 239.88C362.782 204.415 281.57 175.664 181.391 175.664C81.2115 175.664 0 204.415 0 239.88C0 275.346 81.2115 304.096 181.391 304.096Z" fill="url(#paint0_linear_2699_21317)"/>
<path d="M197.769 162.021C197.769 162.021 197.663 168.2 197.769 168.82C197.874 169.439 195.349 173.06 194.318 172.9C193.286 172.739 191.223 172.395 190.925 172.052C190.627 171.708 190.759 170.897 190.865 170.156C190.971 169.415 191.743 162.684 191.743 162.341C191.743 161.999 196.623 161.081 197.769 162.021Z" fill="#FFD3BC"/>
<path d="M193.754 168.464C192.463 169.161 191.74 171.283 191.556 171.309C191.372 171.335 191.031 171.283 191.031 171.073C191.031 170.864 191.084 170.156 190.848 170.156C190.613 170.156 190.35 171.309 190.3 172.987C190.25 174.665 189.651 178.665 190.3 179.174C190.707 179.493 194.442 181.455 194.55 181.716C194.658 181.978 194.471 183.814 194.786 184.102C195.101 184.39 195.834 185.098 196.411 185.125C196.987 185.152 200.318 185.492 201.89 185.125C203.462 184.758 205.454 183.997 205.507 183.787C205.56 183.578 205.114 179.121 204.616 178.571C204.118 178.02 200.526 173.092 200.238 172.646C199.916 171.974 199.746 171.241 199.739 170.496C199.704 169.997 199.534 169.516 199.247 169.106C198.961 168.695 198.568 168.37 198.111 168.165C196.662 167.825 195.144 167.929 193.754 168.464Z" fill="url(#paint1_linear_2699_21317)"/>
<path d="M160.092 165.583C160.092 165.583 160.092 169.182 159.988 169.801C159.883 170.42 162.407 174.042 163.438 173.881C164.47 173.721 166.533 173.377 166.831 173.033C167.129 172.689 166.998 171.879 166.892 171.138C166.786 170.397 166.121 166.248 166.121 165.904C166.121 165.56 161.238 164.644 160.092 165.583Z" fill="#FFD3BC"/>
<path d="M163.423 86.1767C161.963 91.4859 159.202 109.675 159.202 118.513C159.202 127.352 158.318 149.89 158.318 153.315C158.318 156.74 157.95 165.237 158.835 165.68C159.72 166.123 161.782 167.45 164.588 167.008C167.394 166.566 168.129 164.795 168.202 163.169C168.275 161.543 168.94 149.892 169.604 145.393C170.268 140.894 172.628 132.216 174.177 126.634C175.725 121.052 179.34 109.828 180.299 109.871C181.258 109.914 187.231 134.503 187.729 135.898C188.226 137.292 189.175 157.092 189.237 158.753C189.298 160.414 189.237 162.015 190.283 162.691C191.329 163.368 194.529 165.03 196.19 165.153C197.851 165.276 198.959 162.63 199.267 161.83C199.576 161.029 200.12 134.547 199.924 127.28C199.728 120.014 200.302 106.467 199.966 102.05C199.63 97.6321 198.549 88.1646 197.862 86.1732C197.174 84.1818 163.423 86.1767 163.423 86.1767Z" fill="#192B59"/>
<path d="M153.112 24.4679C154.505 22.9193 161.009 15.5899 162.298 15.3321C163.587 15.0744 166.73 14.5095 167.43 13.7836C168.129 13.0576 171.092 3.76081 169.92 2.06898C168.748 0.377149 164.222 0.857677 162.851 3.7368C161.48 6.61593 161.549 8.12403 159.286 10.112C157.024 12.1 147.166 20.1601 146.248 20.9745C145.33 21.7889 147.151 25.7443 148.59 26.4298C150.03 27.1153 153.112 24.4679 153.112 24.4679Z" fill="url(#paint2_linear_2699_21317)"/>
<path d="M171.08 26.7065C167.757 27.403 162.237 27.9932 160.414 28.5821C158.591 29.1709 151.41 31.6908 151.463 30.6187C151.517 29.5465 154.786 24.8303 154.197 24.3477C153.607 23.8651 150.07 23.2755 149.481 22.5256C148.891 21.7757 148.087 20.0071 147.283 20.2209C146.479 20.4348 137.159 29.1167 137.797 32.4408C139.301 40.2768 161.329 45.9863 161.832 49.4036C162.335 52.8208 160.123 85.5901 161.33 86.7959C162.536 88.0017 175.302 92.6227 181.735 93.0285C188.169 93.4343 199.453 91.1893 200.07 89.4954C200.687 87.8015 196.93 55.2434 197.366 55.2434C197.802 55.2434 197.925 65.4924 202.825 68.1433C206.059 69.8927 210.509 68.0905 211.361 67.1253C212.212 66.1601 208.32 52.5343 206.562 47.9394C204.804 43.3444 203.116 33.8488 199.134 30.4795C195.152 27.1102 189.531 27.6834 187.596 26.8916C185.66 26.0998 179.168 26.6674 177.53 26.496C175.378 26.4495 173.224 26.5198 171.08 26.7065Z" fill="url(#paint3_linear_2699_21317)"/>
<path d="M212.583 60.9611C212.583 60.9611 206.854 62.6927 206.407 63.2884C205.96 63.8841 205.166 66.2676 206.407 67.2643C207.649 68.2611 209.012 69.0001 210.483 67.8546C211.953 66.7091 213.298 65.166 214.149 64.9713C215.001 64.7767 217.546 65.1427 218.615 64.7232C219.683 64.3037 221.711 56.2003 220.893 55.7094C220.076 55.2186 212.583 60.9611 212.583 60.9611Z" fill="url(#paint4_linear_2699_21317)"/>
<path d="M171.106 25.607C169.255 25.2239 165.691 21.7332 165.361 18.1864C165.042 14.7308 162.501 5.01925 171.347 1.37716C179.646 -2.04077 188.188 1.47518 189.415 5.69035C190.562 9.62653 180.819 9.80338 177.248 12.3672C173.676 14.931 173.433 16.6324 172.542 16.2272C171.651 15.8221 171.106 25.607 171.106 25.607Z" fill="#E64D4E"/>
<path d="M170.96 18.6917C170.843 20.2745 170.445 27.9302 171.108 29.0572C171.717 30.0923 172.798 33.1017 177.04 32.9646C181.283 32.8275 184.032 28.5897 184.265 28.0927C184.498 27.5957 184 21.4638 184 20.4369C184 19.41 178.299 16.9902 176.013 17.056C173.726 17.1218 171.071 17.2027 170.96 18.6917Z" fill="url(#paint5_linear_2699_21317)"/>
<path d="M171.341 18.7135C171.821 18.6998 171.255 21.6173 172.122 22.5709C172.988 23.5244 176.76 28.4964 180.752 28.0104C184.204 27.5901 183.709 24.6157 184.206 22.1664C184.658 19.9426 186.093 19.7514 186.597 13.9458C186.791 11.6987 187.853 8.1814 185.903 7.53154C183.953 6.88168 176.629 5.14804 174.808 7.53154C172.987 9.91505 172.814 15.6363 171.86 14.8994C170.907 14.1625 168.913 10.5656 167.743 12.5152C166.574 14.4648 168.784 18.7876 171.341 18.7135Z" fill="#F2DAD4"/>
<path d="M202.155 48.4077L190.538 63.0954C190.402 63.2667 190.318 63.473 190.295 63.6903C190.273 63.9076 190.312 64.1269 190.409 64.3227C190.506 64.5186 190.656 64.6829 190.843 64.7965C191.029 64.9102 191.244 64.9685 191.463 64.9647L212.936 64.6C213.111 64.5971 213.284 64.5539 213.441 64.4739C213.598 64.3938 213.734 64.2789 213.84 64.138L224.814 49.4723C224.931 49.3161 225.002 49.1302 225.019 48.9357C225.036 48.7412 224.998 48.5458 224.91 48.3716C224.822 48.1974 224.687 48.0513 224.52 47.9497C224.354 47.8482 224.162 47.7952 223.967 47.7969L203.051 47.9703C202.878 47.9717 202.708 48.0117 202.553 48.0874C202.398 48.1631 202.262 48.2725 202.155 48.4077Z" fill="url(#paint6_linear_2699_21317)"/>
<path d="M220.52 54.3139C219.389 54.4277 217.748 55.0632 217.748 55.6548C217.748 56.2464 219.065 56.4088 219.429 56.463C219.793 56.5172 220.27 56.6316 220.134 56.8133C219.997 56.9949 219.723 57.9046 218.997 57.7449C217.494 57.5996 215.984 57.5309 214.473 57.5392C213.859 57.5392 213.132 57.9711 213.087 58.4256C213.042 58.8801 212.905 58.974 212.538 58.9939C212.172 59.0138 211.516 59.3572 211.516 59.9481C211.516 60.539 212.975 61.071 212.975 61.28C212.975 61.4891 215.838 63.2378 216.403 63.5634C216.967 63.8891 218.013 64.7151 218.604 64.7151C218.991 64.6964 219.361 64.5526 219.659 64.3054C219.958 64.0582 220.168 63.7208 220.258 63.3441C220.332 62.5318 221.499 61.9409 221.514 61.5419C221.529 61.1429 221.144 60.8475 221.189 60.5966C221.233 60.3457 222.253 59.9906 222.253 59.3558C222.175 58.7529 222.021 58.1624 221.795 57.5982C221.736 57.3322 221.499 56.7564 221.736 56.6824C221.972 56.6083 222.799 55.8406 222.651 55.1311C222.503 54.4216 221.042 54.2611 220.52 54.3139Z" fill="#FFD3BC"/>
<path d="M163.985 169.456C165.275 170.153 165.999 172.274 166.183 172.301C166.367 172.328 166.707 172.274 166.707 172.065C166.707 171.856 166.655 171.148 166.891 171.148C167.127 171.148 167.389 172.302 167.439 173.979C167.49 175.657 168.089 179.657 167.439 180.166C167.032 180.485 163.298 182.447 163.189 182.709C163.081 182.971 163.268 184.806 162.953 185.095C162.638 185.383 161.904 186.091 161.328 186.117C160.751 186.143 157.42 186.484 155.849 186.117C154.278 185.75 152.284 184.99 152.231 184.78C152.177 184.57 152.624 180.113 153.122 179.563C153.62 179.014 157.212 174.084 157.5 173.639C157.821 172.967 157.991 172.233 157.998 171.489C158.034 170.989 158.204 170.509 158.491 170.099C158.777 169.688 159.17 169.363 159.627 169.158C161.076 168.817 162.595 168.92 163.985 169.456Z" fill="url(#paint7_linear_2699_21317)"/>
<defs>
<linearGradient id="paint0_linear_2699_21317" x1="181.391" y1="146.51" x2="181.391" y2="247.458" gradientUnits="userSpaceOnUse">
<stop stop-color="#E5E5E5"/>
<stop offset="0.476" stop-color="#F3F3F3"/>
<stop offset="1" stop-color="white" stop-opacity="0"/>
</linearGradient>
<linearGradient id="paint1_linear_2699_21317" x1="1530.23" y1="175.107" x2="1540.24" y2="181.196" gradientUnits="userSpaceOnUse">
<stop stop-color="#4E9CFF"/>
<stop offset="0.984" stop-color="#176AD4"/>
</linearGradient>
<linearGradient id="paint2_linear_2699_21317" x1="173.917" y1="15.549" x2="156.141" y2="13.7534" gradientUnits="userSpaceOnUse">
<stop stop-color="#F2BFAD"/>
<stop offset="1" stop-color="#F2DAD4"/>
</linearGradient>
<linearGradient id="paint3_linear_2699_21317" x1="152.656" y1="37.7656" x2="212.661" y2="84.2684" gradientUnits="userSpaceOnUse">
<stop stop-color="#4E9CFF"/>
<stop offset="0.984" stop-color="#176AD4"/>
</linearGradient>
<linearGradient id="paint4_linear_2699_21317" x1="213.566" y1="63.6134" x2="214.192" y2="78.9311" gradientUnits="userSpaceOnUse">
<stop stop-color="#F2BFAD"/>
<stop offset="0.704" stop-color="#F2DAD4"/>
</linearGradient>
<linearGradient id="paint5_linear_2699_21317" x1="176.226" y1="21.9245" x2="183.604" y2="33.1829" gradientUnits="userSpaceOnUse">
<stop stop-color="#F2BFAD"/>
<stop offset="1" stop-color="#F2DAD4"/>
</linearGradient>
<linearGradient id="paint6_linear_2699_21317" x1="203.696" y1="49.0845" x2="206.335" y2="68.8966" gradientUnits="userSpaceOnUse">
<stop stop-color="#F6DBDB"/>
<stop offset="1" stop-color="#EB9A99"/>
</linearGradient>
<linearGradient id="paint7_linear_2699_21317" x1="157.098" y1="176.099" x2="167.11" y2="182.189" gradientUnits="userSpaceOnUse">
<stop stop-color="#4E9CFF"/>
<stop offset="0.984" stop-color="#176AD4"/>
</linearGradient>
</defs>
</svg>
