<svg xmlns="http://www.w3.org/2000/svg" width="9.314" height="9.313" viewBox="0 0 9.314 9.313"><defs><style>.a{fill:#fff;}</style></defs><path class="a" d="M13.535,11.8A7.823,7.823,0,0,0,11.9,10.7c-.49-.235-.669-.23-1.016.019-.289.209-.475.4-.807.33a4.817,4.817,0,0,1-1.622-1.2,4.782,4.782,0,0,1-1.2-1.622c-.07-.335.124-.519.33-.807.25-.347.257-.526.019-1.016A7.669,7.669,0,0,0,6.511,4.771c-.356-.356-.436-.279-.633-.209a3.6,3.6,0,0,0-.58.308,1.748,1.748,0,0,0-.7.735c-.138.3-.3.853.516,2.3a12.853,12.853,0,0,0,2.26,3.014h0l0,0,0,0h0a12.9,12.9,0,0,0,3.014,2.26c1.45.815,2.005.655,2.3.516a1.718,1.718,0,0,0,.735-.7,3.6,3.6,0,0,0,.308-.58C13.814,12.232,13.894,12.152,13.535,11.8Z" transform="translate(-4.49 -4.502)"/></svg>