<svg xmlns="http://www.w3.org/2000/svg" width="11.789" height="11.789" viewBox="0 0 11.789 11.789"><defs><style>.a{fill:#fff;}</style></defs><path class="a" d="M10.024,3.963a5.844,5.844,0,0,0-9.195,7.05L0,14.039l3.1-.813a5.824,5.824,0,0,0,2.792.711h0a5.9,5.9,0,0,0,5.9-5.842,5.865,5.865,0,0,0-1.766-4.132ZM5.892,12.952a4.847,4.847,0,0,1-2.474-.676l-.176-.105-1.837.482.489-1.792-.116-.184A4.865,4.865,0,1,1,10.8,8.095a4.91,4.91,0,0,1-4.91,4.858ZM8.555,9.316c-.145-.074-.863-.426-1-.474s-.232-.074-.329.074-.376.474-.463.574-.171.111-.316.037A3.973,3.973,0,0,1,4.463,7.789c-.15-.258.15-.239.429-.8a.271.271,0,0,0-.013-.255c-.037-.074-.329-.792-.45-1.084S4.189,5.408,4.1,5.4,3.918,5.4,3.821,5.4a.541.541,0,0,0-.389.182A1.64,1.64,0,0,0,2.921,6.8a2.86,2.86,0,0,0,.595,1.511A6.523,6.523,0,0,0,6.01,10.513a2.856,2.856,0,0,0,1.753.366,1.5,1.5,0,0,0,.984-.695,1.221,1.221,0,0,0,.084-.695C8.8,9.424,8.7,9.387,8.555,9.316Z" transform="translate(0 -2.25)"/></svg>