<svg xmlns="http://www.w3.org/2000/svg" width="19.999" height="21.293" viewBox="0 0 19.999 21.293">
  <g id="Our_-_Students" data-name="Our  - Students" transform="translate(0.001)">
    <g id="Avatar" transform="translate(-0.001 0)">
      <path id="Path_81541" data-name="Path 81541" d="M19.938,17.937l-.545-2.585a5.11,5.11,0,0,0-2.321-3.309L13.8,10.016a4.718,4.718,0,0,0,.916-2.325l.26-2.449A4.74,4.74,0,0,0,10.262,0H9.739A4.74,4.74,0,0,0,5.024,5.242l.264,2.449A4.719,4.719,0,0,0,6.2,10.016L2.925,12.043A5.11,5.11,0,0,0,.6,15.352L.059,17.937A2.781,2.781,0,0,0,2.78,21.293H17.217a2.781,2.781,0,0,0,2.721-3.356ZM7.8,2.981a2.585,2.585,0,0,1,1.942-.852h.524a2.606,2.606,0,0,1,2.593,2.887L12.6,7.461a2.61,2.61,0,0,1-5.191,0l-.26-2.444A2.555,2.555,0,0,1,7.8,2.981Zm9.927,15.927a.63.63,0,0,1-.507.243H2.78a.63.63,0,0,1-.507-.243.647.647,0,0,1-.145-.532l.545-2.585a3.019,3.019,0,0,1,1.371-1.933l3.888-2.41a4.71,4.71,0,0,0,4.131,0l3.888,2.41a3.019,3.019,0,0,1,1.358,1.933l.545,2.585a.647.647,0,0,1-.132.545Z" transform="translate(0.001 0)" fill="#15232e"/>
      <rect id="Rectangle_6041" data-name="Rectangle 6041" width="4.259" height="2.129" rx="1.065" transform="translate(10.851 15.331)" fill="#00c569"/>
    </g>
  </g>
</svg>
