<svg xmlns="http://www.w3.org/2000/svg" xmlns:xlink="http://www.w3.org/1999/xlink" width="381.88" height="221.199" viewBox="0 0 381.88 221.199"><defs><style>.a,.j,.l,.u,.v,.w{fill:none;}.b,.i{fill:#fff;}.c{fill:#f0c9cf;}.d{fill:#1f2251;}.e{fill:#d683a7;}.f{fill:#99a3ca;}.g{fill:#7988b8;}.h{fill:#647bf4;}.i,.v{opacity:0.25;}.j{stroke:#1f2251;}.j,.l,.u,.v,.w{stroke-linecap:round;}.j,.u,.v,.w{stroke-linejoin:round;}.j,.l{stroke-width:0.525px;}.k{fill:#161937;}.l{stroke:#c85e8b;stroke-miterlimit:9;}.m{fill:#2a3551;}.n{fill:#364380;}.o{fill:#445ec7;}.p{fill:#4257b2;}.q{fill:#ebaf65;}.r{clip-path:url(#a);}.s{fill:#292f69;}.t{fill:#e6e9fc;}.u,.v{stroke:#647bf4;}.w{stroke:#ebaf65;}</style><clipPath id="a"><path class="a" d="M365.777,179.839l8.241-7.865-8.649-16.456a19.764,19.764,0,0,0-14.029-10.059c-.375-.069-.749-.124-1.137-.177l-1.532-.194H336.364l-1.738-.443-2.435,1.06-5,2.173a19.19,19.19,0,0,0-11.825,19.83l2.347,18.982,8.647-4.78-1.152,29.657a2.025,2.025,0,0,0,.73,1.626,2.3,2.3,0,0,0,1.792.511l40.079-5.561a1.9,1.9,0,0,0,1.686-2.109Z" transform="translate(-315.226 -144.645)"/></clipPath></defs><g transform="translate(-1268.119 -379.79)"><g transform="translate(1268.119 379.79)"><g transform="translate(0 0)"><path class="b" d="M127.081,386.5a80.474,80.474,0,0,0-4.869-23.8c-4.869-14.049-29.965-16.876-27.343-37.011,14.046,4.77,25.1,24.423,27.531,30.4-8.241-30.226-2.435-51.6-2.435-51.6a96.236,96.236,0,0,1,7.117,51.752c14.8-34.978,26.45-39.748,26.45-39.748s-3.043,21.2-11.095,32.328S128.2,359.783,128.2,359.783s.187,18.289,3.746,26.719Z" transform="translate(-94.677 -165.303)"/><path class="b" d="M589.77,386.5a80.491,80.491,0,0,0-4.869-23.8c-4.87-14.049-29.966-16.876-27.344-37.011,14.046,4.77,25.1,24.423,27.531,30.4-8.24-30.226-2.435-51.6-2.435-51.6a96.227,96.227,0,0,1,7.117,51.752c14.8-34.978,26.45-39.748,26.45-39.748s-3.043,21.2-11.095,32.328-14.234,10.953-14.234,10.953.187,18.289,3.746,26.719Z" transform="translate(-234.34 -165.303)"/><g transform="translate(24.365)"><g transform="translate(0)"><g transform="translate(0 6.319)"><path class="c" d="M243.427,397.842l1.513,10.953-3.371,5.476-8.145-3-2.543-10.686" transform="translate(-160.15 -203.497)"/><path class="d" d="M263.066,421.1,245.3,411.381l-3.371,4.5h-7.77l-.843,6.8h29.3a.9.9,0,0,0,.854-.636.836.836,0,0,0-.4-.953Z" transform="translate(-160.888 -208.126)"/><path class="c" d="M157.353,397.842l-2.247,10.953,3.371,5.476,8.145-3,3.277-10.686" transform="translate(-137.279 -203.497)"/><path class="c" d="M252.9,223.728l-13.312,16.519a3.556,3.556,0,0,0-.792,1.979l-1.137,14.707-4.774-30.908,6.742-10.64-.674-2.12-2.545-7.969,13.129-4.676.8,2.228,4.165,11.659A9.521,9.521,0,0,1,252.9,223.728Z" transform="translate(-160.756 -133.97)"/><path class="e" d="M251.853,202.845,240.47,213.268l-2.545-7.969,13.129-4.676Z" transform="translate(-162.278 -133.63)"/><path class="f" d="M222.662,350.793l-16.106,2.473L193.9,302.013l-3.139-12.719-.081-.318-20.521,65.58-16.135-4.178,15-91.121,1.137-6.9,40.88-.574.44,3.763Z" transform="translate(-136.958 -153.622)"/><path class="g" d="M217.973,255.542l-42.457,3.71.609-3.71.528-3.189,40.88-.574.375,3.12Z" transform="translate(-143.439 -151.673)"/><path class="d" d="M218.162,254.9c-8.874,1.21-35.488.768-41.774.643l.528-3.189,40.878-.574Z" transform="translate(-143.702 -151.643)"/><path class="h" d="M227.625,183.146l-9.46,5.314-1.217.678-2.852,1.6v.071l-.058,1.148-.433,9.363-.058,1.148-.433,9.363-.052,1.148-.139,2.94s1.686,1.767,1.217,3.265c-.118.367-2.927.65-7.117.844-.4.021-.8.034-1.217.055-2.9.111-6.33.186-9.926.221h-1.217c-3.3.021-6.7,0-9.926-.057-.41,0-.815-.021-1.217-.028-3.77-.083-7.231-.214-9.926-.422-.425-.028-.835-.062-1.217-.1-2.7-.242-4.349-.56-4.307-.968a6.264,6.264,0,0,1,1.592-3.533v-3.376l.037-9.363v-1.148l.038-9.363v-.6l-1.006-.553-6.3-3.459-1.217-.671-7.866-4.323.433-.906.551-1.148,4.459-9.363.551-1.141,1.873-3.929.39-.816c.257-.53.528-1.06.828-1.563a21.314,21.314,0,0,1,2.163-3.058c.33-.394.674-.781,1.034-1.148a22.774,22.774,0,0,1,6.733-4.794c.4-.194.807-.366,1.217-.53a23.96,23.96,0,0,1,5.538-1.5l2.92-.429,1.466-.216,1.217-.177h.043l9.879.776,1.217.1,3,.235,2.523.332c.154.021.315.041.468.071a23.974,23.974,0,0,1,3.933.934c.41.131.815.277,1.217.436a23,23,0,0,1,7.583,4.78c.39.367.77.754,1.124,1.148.425.463.828.947,1.21,1.447a19.783,19.783,0,0,1,1.217,1.767,20.819,20.819,0,0,1,1.124,2.047l1.959,4.1.551,1.141,4.474,9.363.551,1.148Z" transform="translate(-136.766 -116.554)"/><g transform="translate(17.042 35.093)"><path class="i" d="M226.441,180.3h-8.1V170.94h3.63l-.551-1.141h-3.081v-6.149a19.746,19.746,0,0,0-1.217-1.767V169.8h-9.926v-9.363H215.9c-.36-.394-.749-.781-1.124-1.148h-7.576v-4.78c-.4-.159-.807-.306-1.217-.436v5.215h-9.926v-6.785l-1.217-.1v6.89h-9.926v-7.651l-1.217.177v7.471h-9.926v-5.326c-.41.166-.82.339-1.217.53v4.794h-6.733c-.36.367-.7.754-1.034,1.148h7.767V169.8h-9.926v-6.31c-.3.505-.573,1.032-.828,1.563l-.39.816V169.8h-1.873l-.551,1.141h2.42v9.363h-6.879l-.551,1.148h7.43v5.231l1.217.671v-5.9h9.926v9.363h-3.629l1.006.553v.6h2.622v9.363h-2.661v1.148h2.667v9.363h-2.706v1.148h2.706v6.731c.375.035.792.069,1.217.1v-6.828H183.7v7.243c.4,0,.807.021,1.217.028v-7.278h9.926v7.333h1.217v-7.326h9.926v7.105c.418-.021.822-.035,1.217-.055v-7.05h6.036l.053-1.148h-6.089v-9.363h6.519l.058-1.148h-6.577v-9.363h7.012l.058-1.148h-7.07v-9.363h9.926v7.686l1.217-.678v-7.008H227Zm-53.883,0h-9.926V170.94h9.926Zm11.14,31.524h-9.926v-9.363H183.7Zm0-10.508h-9.926v-9.363H183.7Zm0-10.508h-9.926v-9.363H183.7Zm0-10.508h-9.926v-9.363H183.7Zm0-10.507h-9.926v-9.363H183.7Zm11.14,42.034h-9.926v-9.363h9.926Zm0-10.508h-9.926V191.96h9.926Zm0-10.508h-9.926v-9.363h9.926Zm0-10.508h-9.926v-9.363h9.926Zm0-10.508h-9.926v-9.363h9.926Zm11.14,42.034h-9.926v-9.363h9.926Zm0-10.508h-9.926v-9.363h9.926Zm0-10.508h-9.926v-9.363h9.926Zm0-10.508h-9.926v-9.363h9.926Zm0-10.508h-9.926v-9.363h9.926Zm11.14,10.508H207.19v-9.363h9.926Z" transform="translate(-153.981 -151.647)"/></g><path class="b" d="M214.256,153.133c-.946,3.77-3.184,7.45-8.325,7.409a11.28,11.28,0,0,1-11.486-8.515l2.729-.4,14.089,1.108,2.523.332C213.941,153.083,214.1,153.1,214.256,153.133Z" transform="translate(-149.153 -116.298)"/><line class="j" x1="1.071" y1="15.268" transform="translate(74.581 56.574)"/><path class="d" d="M217.073,108.8a4.431,4.431,0,0,1,.374,4.918,23.244,23.244,0,0,0-2.186,8.716c-.1,2.434-11.338,3.867-15.2,4.282-.8.09-1.285.132-1.285.132l-3.058-5.665c-.4-1-1.378-2.9-2.231-5.091-1.393-3.556-2.465-7.886-.264-10.439,3.558-4.123,7.518-2.3,13.589-5.123s9.13-5.459,12.621-1.59S217.073,108.8,217.073,108.8Z" transform="translate(-148.406 -96.998)"/><path class="k" d="M201.751,133.249l-1.026,1.224c-.8.09-1.285.132-1.285.132l-3.058-5.665c-.4-1-1.378-2.9-2.23-5.091a12.981,12.981,0,0,0,5.105-4.136Z" transform="translate(-149.065 -104.751)"/><path class="c" d="M212.443,146.619a4.977,4.977,0,0,1-1.726,4.06A5.646,5.646,0,0,1,206.3,152c-6.424-.221-7.943-6.489-7.943-6.489l1.783-.353a60.4,60.4,0,0,0,0-11.435l12.314,5.914a2.656,2.656,0,0,0-.33.353c-1.431,1.853-1.268,6.088-1.268,6.088Z" transform="translate(-150.333 -109.539)"/><path class="e" d="M211.871,148.078c-7.924.221-10.141-8.522-10.141-8.522l11.409,2.434C211.708,143.845,211.871,148.078,211.871,148.078Z" transform="translate(-151.351 -111.529)"/><path class="c" d="M216.4,128.565a17.643,17.643,0,0,1-.187,3.106c-.644,4.026-2.92,6.877-8.428,6.462a10.633,10.633,0,0,1-9.593-8.142,3.171,3.171,0,0,1-4.12-.235,2.859,2.859,0,0,1-1.091-2.8,3,3,0,0,1,2.059-2.264c1.064-.177,2.105.844,2.845,1.82a.58.58,0,0,0,.636.207.533.533,0,0,0,.39-.518V118.84s9.885.387,15.752-1.646l.1-.034a4.353,4.353,0,0,1,1.386,3.093c.139,1.661-.176,3.514.015,5.077a28.853,28.853,0,0,1,.232,3.235Z" transform="translate(-148.72 -103.881)"/><path class="l" d="M194.969,131.581a1.722,1.722,0,0,1,2.364,2.053" transform="translate(-149.312 -108.741)"/><g transform="translate(59.944 61.828)"><path class="m" d="M227.366,216.829H217.253a1.787,1.787,0,0,1-1.432-.618,1.571,1.571,0,0,1-.319-1.455l4.289-19.929a2.79,2.79,0,0,1,2.643-2.072H234a1.786,1.786,0,0,1,1.432.617,1.571,1.571,0,0,1,.319,1.455l-5.74,19.929a2.792,2.792,0,0,1-2.648,2.072Z" transform="translate(-215.441 -192.754)"/><path class="n" d="M229.444,218.119H219.331a1.787,1.787,0,0,1-1.432-.618,1.571,1.571,0,0,1-.319-1.455l4.291-19.929a2.79,2.79,0,0,1,2.643-2.072h10.113a1.787,1.787,0,0,1,1.432.618,1.571,1.571,0,0,1,.319,1.455l-4.285,19.93a2.791,2.791,0,0,1-2.648,2.07Z" transform="translate(-216.067 -193.195)"/></g><path class="c" d="M204.962,215.792c0,1.971-2.5,3.71-2.5,3.71s.594,2.683-4.12,3.59-9.49-2.94-9.49-2.94L158.444,226.2a11.987,11.987,0,0,1-2.369.235,11.643,11.643,0,0,1-9.655-4.989,10.283,10.283,0,0,1-.745-10.36l4.394-8.951,1.526-3.113,15.511,8.529-1.109,1.8-1.6,2.615,24.62-.823a20.524,20.524,0,0,0,4.152-3.68c1.628-2.033,2.214-2.5,3.5-1.737s-.124,4.24-1.217,5.561c3.933,2.062,8.647.47,10.546.733S207.925,214.408,204.962,215.792Z" transform="translate(-134.109 -133.163)"/><path class="l" d="M226.709,223.993a16.5,16.5,0,0,1-10.048-.958" transform="translate(-155.858 -141.478)"/><path class="l" d="M223.59,229.4c-3.339.618-7.085.412-8.99-1.383" transform="translate(-155.241 -143.242)"/><path class="o" d="M225.531,204.112h0a.934.934,0,0,1-.744-.32.821.821,0,0,1-.172-.754l.807-3.886a1.433,1.433,0,0,1,1.362-1.074h0a.934.934,0,0,1,.744.32.821.821,0,0,1,.172.754l-.807,3.886a1.435,1.435,0,0,1-1.361,1.074Z" transform="translate(-158.255 -132.699)"/><line class="l" x1="8.177" transform="translate(22.104 78.747)"/><line class="l" y1="4.989" x2="4.343" transform="translate(78.872 76.632)"/><line class="j" y1="16.072" x2="8.86" transform="translate(32.995 58.531)"/><path class="e" d="M169.463,207.553l-1.107,1.8-15.928-7.215,1.526-3.113Z" transform="translate(-136.468 -133.053)"/><line class="j" y1="17.309" x2="5.633" transform="translate(53.733 119.528)"/><path class="d" d="M129.988,421.1l17.768-9.716,3.371,4.5H158.9l.843,6.8h-29.3a.9.9,0,0,1-.858-.634.836.836,0,0,1,.4-.954Z" transform="translate(-129.552 -208.126)"/><g transform="translate(15.363 191.811)"><path class="f" d="M3.032.156,16.893,0a2.838,2.838,0,0,1,2.96,2.8l-.005.434a3,3,0,0,1-3.027,2.87L2.96,6.264A2.838,2.838,0,0,1,0,3.461l.005-.434A3,3,0,0,1,3.032.156Z" transform="translate(1.263 0) rotate(11.635)"/><line class="j" x2="16.251" y2="3.157" transform="translate(2.876 0.536)"/></g><g transform="translate(67.163 192.054)"><path class="f" d="M2.964,0,16.831.141a2.993,2.993,0,0,1,3.025,2.866l0,.434A2.846,2.846,0,0,1,16.9,6.246L3.03,6.105A2.993,2.993,0,0,1,0,3.239l0-.434A2.846,2.846,0,0,1,2.964,0Z" transform="translate(0 3.618) rotate(-10.495)"/><line class="j" y1="2.851" x2="16.314" transform="translate(1.596 0.486)"/></g><line class="j" y1="4.946" x2="35.64" transform="translate(37.426 91.749)"/><path class="g" d="M211.764,285.2l-1.972,28.225-3.139-12.719.022-.643Z" transform="translate(-152.838 -163.715)"/></g><g transform="translate(109.874)"><path class="c" d="M401.395,155.177l-7.754,27.559a8.113,8.113,0,0,1-4.086,4.955,8.965,8.965,0,0,1-6.617.665l-5.233-1.5L393.5,151.8Z" transform="translate(-314.344 -110.243)"/><path class="e" d="M401.716,145.252c-.623-.737-5.555,1.737-6.742,2s-.125,3.056,2.06,2.779a3.732,3.732,0,0,0,2.871-2.448Z" transform="translate(-319.409 -105.438)"/><path class="m" d="M399.582,135.862l-.148,18.019,2.06-.412V135.864a.91.91,0,0,0-.661-.857h0a1,1,0,0,0-.856.127A.886.886,0,0,0,399.582,135.862Z" transform="translate(-320.903 -103.643)"/><path class="c" d="M401.594,145.562s-6.306,5.96-5.089,7.684,5.1-1.413,5.851-2.385a4.2,4.2,0,0,0,4.214,3.621c2.435-.353,3.418-2.694,2.669-3.752a28.448,28.448,0,0,0-5.291-3.533S402.8,143.972,401.594,145.562Z" transform="translate(-319.973 -107.777)"/><g transform="translate(0 200.664)"><path class="c" d="M314.737,397.842l-2.248,10.953,3.371,5.476,8.145-3,3.277-10.686" transform="translate(-294.659 -397.842)"/><path class="d" d="M287.37,421.1l17.768-9.716,3.371,4.5h7.765l.843,6.8H287.825a.9.9,0,0,1-.859-.633A.836.836,0,0,1,287.37,421.1Z" transform="translate(-286.934 -402.471)"/></g><g transform="translate(83.994 200.664)"><path class="c" d="M419.805,397.842l2.248,10.953-3.371,5.476-8.145-3-3.277-10.686" transform="translate(-407.259 -397.842)"/><path class="d" d="M440.494,421.1l-17.768-9.716-3.371,4.5h-7.763l-.843,6.8h29.3a.9.9,0,0,0,.853-.636.836.836,0,0,0-.406-.952Z" transform="translate(-408.308 -402.471)"/></g><path class="h" d="M392.946,339.662l-16.788,3.466-25.632-80.946-20.453,79.554-16.64-2.311,10.687-84.578,1.642-13.027,24.884-1.791,16.713-1.2.307,1.2.176.707Z" transform="translate(-294.943 -142.881)"/><path class="p" d="M372.463,241.354l-43.725,14.118,1.643-13.027,24.884-1.791h17.022Z" transform="translate(-299.564 -141.546)"/><path class="q" d="M373.818,206.263a1.9,1.9,0,0,1-1.686,2.109l-40.079,5.561a2.3,2.3,0,0,1-1.792-.511,2.026,2.026,0,0,1-.73-1.626l1.152-29.657.843-21.6,6.124-12.612,1.268-2.607h14.059l1.532.194c.374.048.762.1,1.137.177a19.764,19.764,0,0,1,14.029,10.059l8.662,16.45-8.24,7.865Z" transform="translate(-299.797 -108.102)"/><path class="q" d="M332.342,157a3.913,3.913,0,0,0-.315,1.869l1.54,19.058-1.291.707-5.911,3.272L318.959,186l-1.24.685-2.354-18.98a19.189,19.189,0,0,1,11.816-19.833l5-2.173,2.435-1.06,1.738.443,1.026.263-1.987,4.593Z" transform="translate(-295.489 -107.733)"/><g transform="translate(19.738 36.778)"><g class="r" transform="translate(0 0)"><g transform="translate(0.647 -0.919)"><g transform="translate(0 60.496)"><path class="i" d="M319.053,236.474A1.454,1.454,0,1,1,317.6,235.1a1.412,1.412,0,0,1,1.451,1.369Z" transform="translate(-316.15 -235.105)"/><path class="i" d="M331.361,236.474a1.454,1.454,0,1,1-1.451-1.369A1.412,1.412,0,0,1,331.361,236.474Z" transform="translate(-319.864 -235.105)"/><path class="i" d="M343.668,236.474a1.454,1.454,0,1,1-1.451-1.369A1.412,1.412,0,0,1,343.668,236.474Z" transform="translate(-323.578 -235.105)"/><path class="i" d="M355.974,236.474a1.454,1.454,0,1,1-1.451-1.369,1.412,1.412,0,0,1,1.451,1.369Z" transform="translate(-327.293 -235.105)"/><path class="i" d="M368.281,236.474a1.454,1.454,0,1,1-1.452-1.369A1.412,1.412,0,0,1,368.281,236.474Z" transform="translate(-331.008 -235.105)"/><path class="i" d="M380.587,236.474a1.454,1.454,0,1,1-1.451-1.369A1.412,1.412,0,0,1,380.587,236.474Z" transform="translate(-334.721 -235.105)"/><path class="i" d="M392.894,236.474a1.454,1.454,0,1,1-1.452-1.369A1.412,1.412,0,0,1,392.894,236.474Z" transform="translate(-338.438 -235.105)"/><path class="i" d="M405.2,236.474a1.454,1.454,0,1,1-1.451-1.369A1.412,1.412,0,0,1,405.2,236.474Z" transform="translate(-342.151 -235.105)"/></g><g transform="translate(0 52.939)"><path class="i" d="M319.053,224.994a1.454,1.454,0,1,1-1.451-1.369,1.412,1.412,0,0,1,1.451,1.369Z" transform="translate(-316.15 -223.625)"/><path class="i" d="M331.361,224.994a1.454,1.454,0,1,1-1.451-1.369,1.412,1.412,0,0,1,1.451,1.369Z" transform="translate(-319.864 -223.625)"/><path class="i" d="M343.668,224.994a1.454,1.454,0,1,1-1.451-1.369,1.412,1.412,0,0,1,1.451,1.369Z" transform="translate(-323.578 -223.625)"/><path class="i" d="M355.974,224.994a1.454,1.454,0,1,1-1.451-1.369,1.412,1.412,0,0,1,1.451,1.369Z" transform="translate(-327.293 -223.625)"/><path class="i" d="M368.281,224.994a1.454,1.454,0,1,1-1.452-1.369,1.412,1.412,0,0,1,1.452,1.369Z" transform="translate(-331.008 -223.625)"/><path class="i" d="M380.587,224.994a1.454,1.454,0,1,1-1.451-1.369,1.412,1.412,0,0,1,1.451,1.369Z" transform="translate(-334.721 -223.625)"/><path class="i" d="M392.894,224.994a1.454,1.454,0,1,1-1.452-1.369,1.412,1.412,0,0,1,1.452,1.369Z" transform="translate(-338.438 -223.625)"/><path class="i" d="M405.2,224.994a1.454,1.454,0,1,1-1.451-1.369,1.412,1.412,0,0,1,1.451,1.369Z" transform="translate(-342.151 -223.625)"/></g><g transform="translate(0.004 45.371)"><ellipse class="i" cx="1.451" cy="1.369" rx="1.451" ry="1.369" transform="translate(0 0)"/><path class="i" d="M331.361,213.508a1.454,1.454,0,1,1-1.451-1.369A1.412,1.412,0,0,1,331.361,213.508Z" transform="translate(-319.867 -212.139)"/><path class="i" d="M343.668,213.508a1.454,1.454,0,1,1-1.451-1.369A1.412,1.412,0,0,1,343.668,213.508Z" transform="translate(-323.582 -212.139)"/><path class="i" d="M355.974,213.508a1.454,1.454,0,1,1-1.451-1.369,1.412,1.412,0,0,1,1.451,1.369Z" transform="translate(-327.295 -212.139)"/><path class="i" d="M368.281,213.508a1.454,1.454,0,1,1-1.452-1.369A1.412,1.412,0,0,1,368.281,213.508Z" transform="translate(-331.011 -212.139)"/><ellipse class="i" cx="1.451" cy="1.369" rx="1.451" ry="1.369" transform="translate(42.959 0)"/><ellipse class="i" cx="1.451" cy="1.369" rx="1.451" ry="1.369" transform="translate(51.55 0)"/><ellipse class="i" cx="1.451" cy="1.369" rx="1.451" ry="1.369" transform="translate(60.142 0)"/></g><g transform="translate(0.004 37.81)"><ellipse class="i" cx="1.451" cy="1.369" rx="1.451" ry="1.369" transform="translate(0 0)"/><path class="i" d="M331.361,202.025a1.454,1.454,0,1,1-1.451-1.369A1.412,1.412,0,0,1,331.361,202.025Z" transform="translate(-319.867 -200.656)"/><path class="i" d="M343.668,202.025a1.454,1.454,0,1,1-1.451-1.369A1.412,1.412,0,0,1,343.668,202.025Z" transform="translate(-323.582 -200.656)"/><path class="i" d="M355.974,202.025a1.454,1.454,0,1,1-1.451-1.369A1.412,1.412,0,0,1,355.974,202.025Z" transform="translate(-327.295 -200.656)"/><path class="i" d="M368.281,202.025a1.454,1.454,0,1,1-1.452-1.369A1.412,1.412,0,0,1,368.281,202.025Z" transform="translate(-331.011 -200.656)"/><ellipse class="i" cx="1.451" cy="1.369" rx="1.451" ry="1.369" transform="translate(42.959 0)"/><ellipse class="i" cx="1.451" cy="1.369" rx="1.451" ry="1.369" transform="translate(51.55 0)"/><ellipse class="i" cx="1.451" cy="1.369" rx="1.451" ry="1.369" transform="translate(60.142 0)"/></g><g transform="translate(0 30.247)"><path class="i" d="M319.053,190.542a1.454,1.454,0,1,1-1.451-1.369A1.412,1.412,0,0,1,319.053,190.542Z" transform="translate(-316.15 -189.173)"/><path class="i" d="M331.361,190.542a1.454,1.454,0,1,1-1.451-1.369A1.412,1.412,0,0,1,331.361,190.542Z" transform="translate(-319.864 -189.173)"/><path class="i" d="M343.668,190.542a1.454,1.454,0,1,1-1.451-1.369A1.412,1.412,0,0,1,343.668,190.542Z" transform="translate(-323.578 -189.173)"/><path class="i" d="M355.974,190.542a1.454,1.454,0,1,1-1.451-1.369A1.412,1.412,0,0,1,355.974,190.542Z" transform="translate(-327.293 -189.173)"/><path class="i" d="M368.281,190.542a1.454,1.454,0,1,1-1.452-1.369A1.412,1.412,0,0,1,368.281,190.542Z" transform="translate(-331.008 -189.173)"/><path class="i" d="M380.587,190.542a1.454,1.454,0,1,1-1.451-1.369A1.412,1.412,0,0,1,380.587,190.542Z" transform="translate(-334.721 -189.173)"/><path class="i" d="M392.894,190.542a1.454,1.454,0,1,1-1.452-1.369A1.412,1.412,0,0,1,392.894,190.542Z" transform="translate(-338.438 -189.173)"/><path class="i" d="M405.2,190.542a1.454,1.454,0,1,1-1.451-1.369A1.412,1.412,0,0,1,405.2,190.542Z" transform="translate(-342.151 -189.173)"/></g><g transform="translate(0 22.686)"><path class="i" d="M319.053,179.059a1.454,1.454,0,1,1-1.451-1.369,1.412,1.412,0,0,1,1.451,1.369Z" transform="translate(-316.15 -177.69)"/><path class="i" d="M331.361,179.059a1.454,1.454,0,1,1-1.451-1.369,1.5,1.5,0,0,1,1.027.4A1.328,1.328,0,0,1,331.361,179.059Z" transform="translate(-319.864 -177.69)"/><path class="i" d="M343.668,179.059a1.454,1.454,0,1,1-1.451-1.369,1.412,1.412,0,0,1,1.451,1.369Z" transform="translate(-323.578 -177.69)"/><path class="i" d="M355.974,179.059a1.454,1.454,0,1,1-1.451-1.369,1.5,1.5,0,0,1,1.027.4A1.329,1.329,0,0,1,355.974,179.059Z" transform="translate(-327.293 -177.69)"/><path class="i" d="M368.281,179.059a1.454,1.454,0,1,1-1.452-1.369,1.412,1.412,0,0,1,1.452,1.369Z" transform="translate(-331.008 -177.69)"/><path class="i" d="M380.587,179.059a1.454,1.454,0,1,1-1.451-1.369,1.5,1.5,0,0,1,1.027.4A1.329,1.329,0,0,1,380.587,179.059Z" transform="translate(-334.721 -177.69)"/><path class="i" d="M392.894,179.059a1.454,1.454,0,1,1-1.452-1.369,1.412,1.412,0,0,1,1.452,1.369Z" transform="translate(-338.438 -177.69)"/><path class="i" d="M405.2,179.059a1.454,1.454,0,1,1-1.451-1.369,1.494,1.494,0,0,1,1.027.4A1.328,1.328,0,0,1,405.2,179.059Z" transform="translate(-342.151 -177.69)"/></g><g transform="translate(0.004 15.124)"><ellipse class="i" cx="1.451" cy="1.369" rx="1.451" ry="1.369" transform="translate(0 0)"/><path class="i" d="M331.361,167.576a1.454,1.454,0,1,1-1.451-1.369,1.494,1.494,0,0,1,1.027.4A1.328,1.328,0,0,1,331.361,167.576Z" transform="translate(-319.867 -166.207)"/><path class="i" d="M343.668,167.576a1.454,1.454,0,1,1-1.451-1.369A1.412,1.412,0,0,1,343.668,167.576Z" transform="translate(-323.582 -166.207)"/><path class="i" d="M355.974,167.576a1.454,1.454,0,1,1-1.451-1.369,1.5,1.5,0,0,1,1.027.4A1.33,1.33,0,0,1,355.974,167.576Z" transform="translate(-327.295 -166.207)"/><path class="i" d="M368.281,167.576a1.454,1.454,0,1,1-1.452-1.369A1.412,1.412,0,0,1,368.281,167.576Z" transform="translate(-331.011 -166.207)"/><ellipse class="i" cx="1.451" cy="1.369" rx="1.451" ry="1.369" transform="translate(42.959 0)"/><ellipse class="i" cx="1.451" cy="1.369" rx="1.451" ry="1.369" transform="translate(51.55 0)"/><ellipse class="i" cx="1.451" cy="1.369" rx="1.451" ry="1.369" transform="translate(60.142 0)"/></g><g transform="translate(0.004 7.563)"><ellipse class="i" cx="1.451" cy="1.369" rx="1.451" ry="1.369" transform="translate(0 0)"/><path class="i" d="M331.361,156.094a1.454,1.454,0,1,1-1.451-1.369,1.5,1.5,0,0,1,1.027.4A1.328,1.328,0,0,1,331.361,156.094Z" transform="translate(-319.867 -154.723)"/><path class="i" d="M343.668,156.094a1.454,1.454,0,1,1-1.451-1.369A1.412,1.412,0,0,1,343.668,156.094Z" transform="translate(-323.582 -154.723)"/><path class="i" d="M355.974,156.094a1.454,1.454,0,1,1-1.451-1.369,1.5,1.5,0,0,1,1.027.4A1.329,1.329,0,0,1,355.974,156.094Z" transform="translate(-327.295 -154.723)"/><path class="i" d="M368.281,156.094a1.454,1.454,0,1,1-1.452-1.369A1.412,1.412,0,0,1,368.281,156.094Z" transform="translate(-331.011 -154.723)"/><ellipse class="i" cx="1.451" cy="1.369" rx="1.451" ry="1.369" transform="translate(42.959 0)"/><ellipse class="i" cx="1.451" cy="1.369" rx="1.451" ry="1.369" transform="translate(51.55 0)"/><ellipse class="i" cx="1.451" cy="1.369" rx="1.451" ry="1.369" transform="translate(60.142 0)"/></g><g transform="translate(0 0)"><path class="i" d="M319.053,144.61a1.454,1.454,0,1,1-1.451-1.369,1.412,1.412,0,0,1,1.451,1.369Z" transform="translate(-316.15 -143.241)"/><path class="i" d="M331.361,144.61a1.454,1.454,0,1,1-1.451-1.369,1.5,1.5,0,0,1,1.027.4A1.329,1.329,0,0,1,331.361,144.61Z" transform="translate(-319.864 -143.241)"/><path class="i" d="M343.668,144.61a1.454,1.454,0,1,1-1.451-1.369A1.412,1.412,0,0,1,343.668,144.61Z" transform="translate(-323.578 -143.241)"/><path class="i" d="M355.974,144.61a1.454,1.454,0,1,1-1.451-1.369,1.5,1.5,0,0,1,1.027.4A1.33,1.33,0,0,1,355.974,144.61Z" transform="translate(-327.293 -143.241)"/><path class="i" d="M368.281,144.61a1.454,1.454,0,1,1-1.452-1.369A1.412,1.412,0,0,1,368.281,144.61Z" transform="translate(-331.008 -143.241)"/><path class="i" d="M380.587,144.61a1.454,1.454,0,1,1-1.451-1.369,1.5,1.5,0,0,1,1.027.4A1.329,1.329,0,0,1,380.587,144.61Z" transform="translate(-334.721 -143.241)"/><path class="i" d="M392.894,144.61a1.454,1.454,0,1,1-1.452-1.369A1.412,1.412,0,0,1,392.894,144.61Z" transform="translate(-338.438 -143.241)"/><path class="i" d="M405.2,144.61a1.454,1.454,0,1,1-1.451-1.369,1.5,1.5,0,0,1,1.027.4A1.329,1.329,0,0,1,405.2,144.61Z" transform="translate(-342.151 -143.241)"/></g></g></g></g><path class="m" d="M370.233,177.353l8.561-17.821a2.644,2.644,0,0,1,1.734-1.4l34.812-9.009c.588-.152,1.792,1.219,1.523,1.736L404.2,173.043a3.566,3.566,0,0,1-1.972,1.692l-32.739,11.707Z" transform="translate(-311.861 -109.296)"/><path class="n" d="M371.127,179.349l8.561-17.823a2.647,2.647,0,0,1,1.734-1.4l34.812-9.01a.734.734,0,0,1,.734.219.638.638,0,0,1,.089.721l-11.968,22.978a3.564,3.564,0,0,1-1.972,1.692l-32.739,11.709Z" transform="translate(-312.132 -109.997)"/><path class="c" d="M364.547,194.386s.7,1.549-2.757,4.553-8.713,1.06-8.713,1.06l-13.913,9.955a11.69,11.69,0,0,1-10.631,1.422,10.7,10.7,0,0,1-6.962-7.71l-.1-.451-.91-4.164,7.407-4.095,5.911-3.272.2,1.037.923,4.809,15.123-6.98s3.043-4.593,4.495-6.227,3.086-1.9,3.6-.837-2.757,5.39-2.757,5.39a25.483,25.483,0,0,0,4.87-1.286c3.652-1.191,6.036-3.66,7.017-2.913s.425,2.913-.888,4.593A6.694,6.694,0,0,1,364.547,194.386Z" transform="translate(-297.097 -121.207)"/><path class="e" d="M334.082,197.3l-12.608,10.5-.91-4.164,7.407-4.095,5.911-3.272Z" transform="translate(-297.098 -125.84)"/><path class="b" d="M358.657,145.464a7.709,7.709,0,0,1-7.392,6.723,10.65,10.65,0,0,1-10.6-4.483,12.112,12.112,0,0,1-1.144-2l2.435-1.06,1.738.443H356l1.532.194C357.9,145.34,358.283,145.395,358.657,145.464Z" transform="translate(-302.816 -107.609)"/><path class="c" d="M352.689,145.551c-6.887.726-9.7-5.43-9.7-5.43l1.408-.574a50.171,50.171,0,0,0-.279-8.17l1.965.477,9.688,2.351a11.828,11.828,0,0,0-.551,5.632c.023.177.038.283.038.283l1.775.443A4.73,4.73,0,0,1,352.689,145.551Z" transform="translate(-303.866 -102.413)"/><path class="e" d="M356.016,140.081c-3.881.083-8.8-1.191-10.319-5.971a1.382,1.382,0,0,1,.068-1.279,1.546,1.546,0,0,1,1.112-.735l9.688,2.351a11.832,11.832,0,0,0-.549,5.634Z" transform="translate(-304.658 -102.663)"/><path class="d" d="M340.2,113.09l-3.523-4.084a5.044,5.044,0,0,1,.434-7.086h0a7.094,7.094,0,0,1,.285-6.329,7.879,7.879,0,0,1,5.333-3.85l3.6-.747a4.877,4.877,0,0,0,1.776-.754l3.453-2.38a2.665,2.665,0,0,1,2.837-.1h0a2.321,2.321,0,0,1,.9,3.152L354.236,92.8a.239.239,0,0,0,.052.3.276.276,0,0,0,.322.027l6.24-3.681a2.044,2.044,0,0,1,2.493.33h0a1.767,1.767,0,0,1,.14,2.311l-4.307,5.7a.238.238,0,0,0,0,.3.274.274,0,0,0,.3.085l1.056-.353a2.509,2.509,0,0,1,2.88.961h0a2.188,2.188,0,0,1-.3,2.765c-2.06,2.069-5.929,6.2-6.442,8.55C355.972,113.311,340.2,113.09,340.2,113.09Z" transform="translate(-301.58 -87.399)"/><path class="c" d="M357.894,114.462a16.381,16.381,0,0,0-.227,2.975c0,.913.187,2.427.213,4.081a15.245,15.245,0,0,1-.317,3.542,6,6,0,0,1-6.585,4.966c-8.757,0-9.645-8.17-9.645-8.17a1.3,1.3,0,0,1-.765,1.151,1.454,1.454,0,0,1-1.435-.114c-1.466-.692-1.965-3.846-.307-4.593a2.709,2.709,0,0,1,2.714.726.45.45,0,0,0,.479.049.4.4,0,0,0,.225-.4l-.352-3.853c2.392.685,10.958-1.613,14.323-4.745a5.169,5.169,0,0,0,1.2,2.473A2.379,2.379,0,0,1,357.894,114.462Z" transform="translate(-302.296 -95.148)"/><path class="l" d="M339.042,124.8c.983-.574,1.873.154,1.686,1.546" transform="translate(-302.674 -100.104)"/><line class="l" x1="5.57" y2="2.65" transform="translate(32.341 76.214)"/><path class="l" d="M382.887,192.594c-1.217,2.3-7.927,3.18-7.927,3.18" transform="translate(-313.516 -124.501)"/><path class="l" d="M380.446,200.372a9.255,9.255,0,0,1-7.208,2.076" transform="translate(-312.995 -127.237)"/><line class="j" x1="2.322" y1="15.906" transform="translate(34.463 54.777)"/><line class="j" x1="16.962" y2="13.49" transform="translate(48.446 82.825)"/><g transform="translate(16.08 195.898)"><path class="h" d="M3.022.1,16.9,0a2.867,2.867,0,0,1,2.976,2.811l0,.434A2.971,2.971,0,0,1,16.856,6.1l-13.88.1A2.867,2.867,0,0,1,0,3.388l0-.434A2.971,2.971,0,0,1,3.022.1Z" transform="translate(0.794 0) rotate(7.356)"/><line class="j" x2="16.455" y2="2.003" transform="translate(2.438 0.352)"/></g><g transform="translate(80.101 194.481)"><path class="h" d="M2.941,0,16.772.212A3.031,3.031,0,0,1,19.805,3.1l.007.435a2.809,2.809,0,0,1-2.941,2.8L3.04,6.122A3.031,3.031,0,0,1,.007,3.233L0,2.8A2.809,2.809,0,0,1,2.941,0Z" transform="translate(0 5.552) rotate(-16.273)"/><line class="j" y1="4.385" x2="15.927" transform="translate(1.539 0.726)"/></g><g transform="translate(68.543 52.644)"><path class="i" d="M386.066,168.464a1.685,1.685,0,0,1,2.057.778,1.5,1.5,0,0,1-.633,2,1.709,1.709,0,0,1-2.173-.411A1.731,1.731,0,0,1,386.066,168.464Z" transform="translate(-385.105 -168.365)"/><path class="i" d="M386.926,169.551a.867.867,0,0,1,1.061.391.773.773,0,0,1-.317,1.032.878.878,0,0,1-1.118-.2A.89.89,0,0,1,386.926,169.551Z" transform="translate(-385.516 -168.871)"/></g><line class="j" x1="4.424" y2="19.337" transform="translate(52.502 113.6)"/></g><path class="n" d="M453.694,182.885h-.463a.944.944,0,0,1,.463,0Z" transform="translate(-227.268 -121.049)"/><path class="n" d="M453.214,182.9a.048.048,0,0,0-.03,0h0Z" transform="translate(-227.259 -121.065)"/><g transform="translate(220.1 4.906)"><g transform="translate(21.709 176.671)"><path class="c" d="M502.608,368.856,501.485,399.2l3.371,5.476,8.145-3,2.154-30.083" transform="translate(-483.642 -368.856)"/><path class="q" d="M476.372,421.563l17.768-9.708,3.371,4.5h7.772l.843,6.8h-29.3a.9.9,0,0,1-.872-.634A.837.837,0,0,1,476.372,421.563Z" transform="translate(-475.924 -383.54)"/></g><g transform="translate(82.464 176.671)"><path class="c" d="M575.5,368.856,585.733,399.2l-3.371,5.476-8.145-3-11.265-30.083" transform="translate(-562.952 -368.856)"/><path class="q" d="M607.633,421.563l-17.768-9.708-3.371,4.5h-7.77l-.843,6.8h29.3a.9.9,0,0,0,.871-.634.837.837,0,0,0-.416-.961Z" transform="translate(-567.458 -383.54)"/></g><path class="s" d="M502.706,217.064l-4.214,114.543,16.668,1.152,6.368-71.626,25.1,73.818,14.8-4.385s-20.04-77.906-22.287-89.035-1.124-16.959-4.682-24.732Z" transform="translate(-461.031 -140.263)"/><path class="d" d="M518.022,98.5c-4.8-1.237-8.454,5.386-7.33,13.6s-6.368,16.076-5.523,19.432,17.508,8.036,28.655,7.95,14.608-4.681,12.548-7.95-5.336-6.45-5.057-16.295S534.343,87.022,518.022,98.5Z" transform="translate(-463.028 -94.85)"/><path class="c" d="M476.87,157.132,470.689,170.2l-9.551-21.132a60.212,60.212,0,0,0-2.2-9.248c-.983-2.032-.655-4.726-1.967-5.123s-1.779,1.811-1.779,3.71a23.7,23.7,0,0,1-.328,3.71s-5.476-4.5-5.806-5.918-.14-6.227-1.358-6.844-2.575.795-2.856,4.9,8.473,16.076,8.473,16.076l6.413,29.325,17.979,3.092,10.675-16.514Z" transform="translate(-444.838 -106.585)"/><path class="h" d="M545.768,167.671l-6.615,4.531-.624.422-4.937,3.383-.749,18.457-3.014-.055-.623-.014-8.7-.166h-.623l-8.7-.166-.624-.014-8.7-.166-.624-.012-.888-.014a42.1,42.1,0,0,0-1.026-11.089,19.62,19.62,0,0,1,.562-11.1l-9.177-7.838,4.7-6.89a14.135,14.135,0,0,1,5.83-4.877c.206-.1.41-.187.624-.27a13.956,13.956,0,0,1,2.12-.685l6.579-1.59.36-.09.264-.062,2.231-.546,6.469.021h.624l7.047.021,1.65.816.624.311h.015l5.925,2.926a14.117,14.117,0,0,1,2.757,1.777c.211.166.425.353.624.53a13.529,13.529,0,0,1,3.35,4.733Z" transform="translate(-458.682 -114.039)"/><g transform="translate(42.561 34.787)"><path class="i" d="M506.422,153.327v42.1l-.624-.012V153.6C506,153.5,506.208,153.41,506.422,153.327Z" transform="translate(-505.798 -150.373)"/><path class="i" d="M519.773,149.64v44.694l-.624-.014V149.792l.36-.09Z" transform="translate(-509.828 -149.114)"/><path class="i" d="M533.125,148.842v45.4H532.5v-45.4Z" transform="translate(-513.859 -148.842)"/><path class="i" d="M546.477,150.424v44.433l-.624-.014v-44.73Z" transform="translate(-517.89 -149.276)"/><path class="i" d="M559.828,158.273v16.984l-.623.422v-17.94C559.416,157.905,559.63,158.085,559.828,158.273Z" transform="translate(-521.919 -151.879)"/></g><path class="b" d="M538.568,149.986c-1.932,3.722-7.033,5.893-13.3,5.506-5.244-.332-5.9-3.632-5.633-6.073l2.495-.608,14.14.041Z" transform="translate(-467.403 -111.663)"/><path class="c" d="M537.295,143.013a10.5,10.5,0,0,1-9.177,4.856c-6.6,0-4.957-4.9-4.957-4.9l1.873-.574-.11-3.037-.168-4.429,11.237-3.224a5.912,5.912,0,0,0-.513,1.813,45.08,45.08,0,0,0,.043,8.875Z" transform="translate(-468.418 -107.436)"/><path class="e" d="M536.748,131.708a5.91,5.91,0,0,0-.513,1.813s0,0,0,.014a10.209,10.209,0,0,1-10.546,5.83l-.168-4.429Z" transform="translate(-469.184 -107.435)"/><path class="c" d="M522.6,107.513c1.034,5.213,12.856,8.82,13.693,9.416a2.518,2.518,0,0,1,.7,1.8.125.125,0,0,0,.111.114.129.129,0,0,0,.14-.08c.3-.768.9-1.869,1.9-1.982,1.564-.177,3.073,1.682,2.182,3.917s-4.463,1.051-4.463,1.051-2.908,6.685-9.6,6.868-8.167-5.165-7.66-8.448a20.063,20.063,0,0,0,.163-6.852C519.47,111.376,522.036,110.016,522.6,107.513Z" transform="translate(-467.374 -99.173)"/><path class="l" d="M547.942,123.541a2.294,2.294,0,0,0-.936,2.274" transform="translate(-475.651 -104.647)"/><path class="f" d="M486.347,205.22H458.61a1.006,1.006,0,0,1-1.012-.691l-5.948-20.36a.908.908,0,0,1,.1-.727,1.007,1.007,0,0,1,.614-.448l.344-.09h0a.05.05,0,0,1,.03,0h27.744Z" transform="translate(-446.88 -126.018)"/><path class="t" d="M475.828,200.319a2.157,2.157,0,1,1-2.154-2.031,2.1,2.1,0,0,1,2.154,2.031Z" transform="translate(-452.888 -131.359)"/><g transform="translate(32.295 56.527)"><rect class="g" width="24.03" height="2.252" rx="0.637" transform="translate(6.165 20.429)"/><path class="g" d="M1.068.318,21.733,0a1.039,1.039,0,0,1,1.033,1.087l0,.171A1.117,1.117,0,0,1,21.7,2.378L1.033,2.7A1.039,1.039,0,0,1,0,1.608l0-.171A1.117,1.117,0,0,1,1.068.318Z" transform="translate(2.599 0) rotate(74.574)"/></g><path class="c" d="M562.36,209.193a8.616,8.616,0,0,1-4.909,7.685,9.66,9.66,0,0,1-9.495-.532l-15.423-10.009a62.709,62.709,0,0,1-12.174,1.413c-3.778-.325-7.8-2.206-7.832-2.939s15.2-2.242,14.477-2.827-7.517-.643-7.613-2.026,1.622-1.853,4.459-2.035a19.035,19.035,0,0,1,6.462,1.177l15.438,2.021-4.386-12.066-1.187-3.257,12.174-8.336.792,2.422,8.8,26.758A8.127,8.127,0,0,1,562.36,209.193Z" transform="translate(-465.271 -124.197)"/><path class="e" d="M564.308,177.457l.792,2.422-11.778,9.174-1.187-3.258Z" transform="translate(-477.222 -124.041)"/><line class="l" x2="6.6" y2="0.839" transform="translate(80.482 76.713)"/><path class="d" d="M507.416,214.913a.364.364,0,1,1-.363-.343A.354.354,0,0,1,507.416,214.913Z" transform="translate(-463.506 -137.085)"/><path class="d" d="M509.525,214.913a.364.364,0,1,1-.363-.343A.353.353,0,0,1,509.525,214.913Z" transform="translate(-464.141 -137.085)"/><g transform="translate(35.705 189.958)"><path class="f" d="M3.007.027,16.9,0a2.9,2.9,0,0,1,2.994,2.824v.433a2.933,2.933,0,0,1-3.006,2.836L2.994,6.12A2.9,2.9,0,0,1,0,3.3V2.863A2.933,2.933,0,0,1,3.007.027Z" transform="translate(0.208 0) rotate(1.949)"/></g><g transform="translate(82.617 186.614)"><path class="f" d="M2.94,0,16.768.217A3.033,3.033,0,0,1,19.8,3.108l.007.435a2.807,2.807,0,0,1-2.939,2.8L3.04,6.123A3.033,3.033,0,0,1,.008,3.233L0,2.8A2.807,2.807,0,0,1,2.94,0Z" transform="translate(0 5.685) rotate(-16.678)"/></g><line class="j" x2="7.729" y2="23.554" transform="translate(55.688 107.581)"/><path class="j" d="M506.69,199.566c4.107,3.577,11.37,4.107,11.37,4.107" transform="translate(-463.505 -131.811)"/><line class="j" x1="5.244" y1="8.336" transform="translate(69.669 53.431)"/><path class="j" d="M503.857,178.481a29.057,29.057,0,0,0,2.7-9.691" transform="translate(-462.65 -120.971)"/></g></g></g></g><g transform="translate(112.176 0.001)"><g transform="translate(129.722)"><path class="b" d="M476.953,87.4v27.8l-7.411-6.982H441.156V87.4Z" transform="translate(-441.156 -87.4)"/><g transform="translate(9.654 5.635)"><line class="u" x2="16.488"/><line class="v" x2="13.76" transform="translate(2.729 3.194)"/><line class="v" x2="16.488" transform="translate(0 6.39)"/><line class="v" x2="11.561" transform="translate(4.927 9.584)"/></g></g><g transform="translate(0 16.152)"><path class="b" d="M255.348,111.927v27.8l7.411-6.981h28.387V111.927Z" transform="translate(-255.348 -111.927)"/><g transform="translate(9.654 5.635)"><line class="w" x1="16.488"/><line class="v" x1="13.76" transform="translate(0 3.194)"/><line class="v" x1="16.488" transform="translate(0 6.39)"/><line class="v" x1="11.561" transform="translate(0 9.584)"/></g></g></g></g></g></svg>