<svg width="251" height="262" viewBox="0 0 251 262" fill="none" xmlns="http://www.w3.org/2000/svg">
<g opacity="0.4">
<mask id="mask0_6547_75405" style="mask-type:alpha" maskUnits="userSpaceOnUse" x="0" y="0" width="251" height="262">
<path d="M249.456 262H1.54367C1.13426 262 0.741638 261.346 0.452148 260.182C0.162643 259.017 1.52588e-05 257.438 1.52588e-05 255.791V6.20854C1.52588e-05 4.56192 0.162643 2.98276 0.452148 1.81845C0.741638 0.654114 1.13426 0 1.54367 0H249.456C249.866 0 250.258 0.654114 250.548 1.81845C250.837 2.98276 251 4.56192 251 6.20854V255.791C251 257.438 250.837 259.017 250.548 260.182C250.258 261.346 249.866 262 249.456 262V262Z" fill="#172327"/>
</mask>
<g mask="url(#mask0_6547_75405)">
<path d="M-11 16.5C-144.377 16.5 -252.5 124.623 -252.5 258C-252.5 391.377 -144.377 499.5 -11 499.5C122.377 499.5 230.5 391.377 230.5 258C230.5 124.623 122.377 16.5 -11 16.5Z" stroke="#3A464A" stroke-width="3"/>
<path d="M-11 41.5C-130.017 41.5 -226.5 138.206 -226.5 257.5C-226.5 376.794 -130.017 473.5 -11 473.5C108.017 473.5 204.5 376.794 204.5 257.5C204.5 138.206 108.017 41.5 -11 41.5Z" stroke="#3A464A" stroke-width="3"/>
<path d="M-11.5 68.5C-115.882 68.5 -200.5 153.342 -200.5 258C-200.5 362.658 -115.882 447.5 -11.5 447.5C92.8818 447.5 177.5 362.658 177.5 258C177.5 153.342 92.8818 68.5 -11.5 68.5Z" stroke="#3A464A" stroke-width="3"/>
<path d="M-11 98.5C-99.6417 98.5 -171.5 169.911 -171.5 258C-171.5 346.089 -99.6417 417.5 -11 417.5C77.6417 417.5 149.5 346.089 149.5 258C149.5 169.911 77.6417 98.5 -11 98.5Z" stroke="#3A464A" stroke-width="3"/>
<path d="M-11.5 126.5C-83.8493 126.5 -142.5 185.151 -142.5 257.5C-142.5 329.849 -83.8493 388.5 -11.5 388.5C60.8493 388.5 119.5 329.849 119.5 257.5C119.5 185.151 60.8493 126.5 -11.5 126.5Z" stroke="#3A464A" stroke-width="3"/>
<path d="M-11 152.5C-69.266 152.5 -116.5 199.734 -116.5 258C-116.5 316.266 -69.266 363.5 -11 363.5C47.266 363.5 94.5 316.266 94.5 258C94.5 199.734 47.266 152.5 -11 152.5Z" stroke="#3A464A" stroke-width="3"/>
</g>
</g>
</svg>
