<svg xmlns="http://www.w3.org/2000/svg" xmlns:xlink="http://www.w3.org/1999/xlink" width="11.539" height="17.829" viewBox="0 0 11.539 17.829">
  <defs>
    <linearGradient id="linear-gradient" x1="0.138" y1="0.344" x2="1.006" y2="0.664" gradientUnits="objectBoundingBox">
      <stop offset="0" stop-color="#89c739"/>
      <stop offset="0.414" stop-color="#6dbe4d"/>
      <stop offset="1" stop-color="#1a987c"/>
    </linearGradient>
  </defs>
  <path id="Path_94271" data-name="Path 94271" d="M522.555,222.763c-.119-1.93-2.338-3.469-5.059-3.469h0c-2.721,0-4.94,1.539-5.059,3.469h-.006V225.3l-1.409-.595q0,1.342.007,2.684l1.4.581v5.521c0,2.006,2.268,3.633,5.065,3.633h0c2.8,0,5.065-1.626,5.065-3.633v-2.361h-3.647v2.477c0,.562-.635,1.017-1.418,1.017h0c-.783,0-1.418-.455-1.418-1.017v-2.934c0-.006,0-.011,0-.016s0-.008,0-.012,0-.008,0-.012,0-.011,0-.016v-1h0a6.937,6.937,0,0,0,1.418.145h0c2.32,0,4.274-1.119,4.874-2.646h.005V227.1a2.686,2.686,0,0,0,.185-.972v-3.362Zm-5.059,4.52h0a1.881,1.881,0,0,1-.585-.092l-.3-.129-.529-.247v-3.507c0-.005,0-.011,0-.016s0-.011,0-.016v-.428c0-.562.635-1.017,1.418-1.017h0c.783,0,1.418.455,1.418,1.017v.428c0,.006,0,.011,0,.016s0,.011,0,.016v2.958C518.914,226.827,518.279,227.283,517.5,227.283Z" transform="translate(-511.022 -219.294)" fill="url(#linear-gradient)"/>
</svg>
