<svg width="24" height="24" viewBox="0 0 24 24" fill="none" xmlns="http://www.w3.org/2000/svg">
<g clip-path="url(#clip0_1915_13230)">
<path d="M6.55656 11.3134C6.36536 11.1142 6.13673 10.9562 5.88426 10.8485C5.63179 10.7409 5.36061 10.6859 5.08682 10.6868H3.78602C3.57848 10.6918 3.38003 10.7743 3.22854 10.9185C3.08659 11.0725 3.00541 11.2742 3.00048 11.4851V15.528C2.99425 15.8224 3.04893 16.1148 3.16097 16.3864C3.26458 16.6453 3.41661 16.8814 3.60864 17.0816C3.80382 17.2772 4.03293 17.4343 4.28438 17.5451C4.50519 17.6368 4.73904 17.6919 4.97701 17.7082H5.08682C5.36114 17.7075 5.63254 17.651 5.88498 17.5419C6.13742 17.4328 6.36577 17.2734 6.55656 17.073C6.7529 16.8737 6.90848 16.6368 7.0143 16.376C7.12013 16.1153 7.17413 15.8358 7.17317 15.5537V12.8327C7.16963 12.2641 6.94848 11.7192 6.55656 11.3134ZM5.71188 15.528C5.699 15.6957 5.62368 15.8521 5.50127 15.9653C5.37885 16.0786 5.21855 16.1401 5.05304 16.1374C4.89097 16.1363 4.73484 16.0753 4.61381 15.9658C4.4931 15.851 4.41797 15.6952 4.40264 15.528V12.1546H5.05304C5.13957 12.154 5.22533 12.1712 5.30516 12.2051C5.385 12.239 5.45726 12.289 5.51761 12.352C5.63961 12.4817 5.70899 12.6533 5.71188 12.8327V15.528Z" fill="#1A232C"/>
<path d="M20.7391 11.2017C20.6266 11.0817 20.478 11.0032 20.3167 10.9785H18.8808C18.6072 10.9786 18.3363 11.034 18.0839 11.1416C17.8316 11.2492 17.6028 11.4068 17.4111 11.6051C17.2159 11.8049 17.0616 12.0421 16.9572 12.3029C16.8528 12.5637 16.8004 12.8429 16.8029 13.1244V15.8197C16.8004 16.1013 16.8528 16.3805 16.9572 16.6413C17.0616 16.9021 17.2159 17.1392 17.4111 17.339C17.6024 17.5386 17.8309 17.6975 18.0832 17.8065C18.3355 17.9156 18.6066 17.9726 18.8808 17.9742C19.003 17.9733 19.1248 17.9589 19.244 17.9313C19.1267 18.2332 18.9275 18.4951 18.6696 18.6867C18.3578 18.9322 17.9744 19.0651 17.58 19.0644H14.3027C14.1408 18.6312 13.8442 18.2635 13.458 18.0171C13.0354 17.761 12.5366 17.6669 12.0517 17.7519C11.5668 17.8369 11.1278 18.0954 10.8142 18.4807C10.4947 18.871 10.3212 19.3635 10.3243 19.8712C10.3218 20.3762 10.4953 20.8658 10.8142 21.2532C11.1283 21.6402 11.5691 21.8993 12.0558 21.9828C12.1709 21.9959 12.2871 21.9959 12.4022 21.9828C12.7577 21.9948 13.11 21.9119 13.4242 21.7425C13.8104 21.4961 14.107 21.1284 14.2689 20.6953H17.5716C18.0177 20.6956 18.4593 20.6046 18.87 20.4276C19.2807 20.2506 19.6521 19.9913 19.962 19.6652C20.2812 19.3428 20.5338 18.9587 20.705 18.5357C20.8762 18.1126 20.9624 17.6591 20.9587 17.2017V11.7682C20.9613 11.6637 20.9432 11.5596 20.9055 11.4623C20.8677 11.365 20.8112 11.2764 20.7391 11.2017ZM12.8414 20.3176C12.7826 20.3804 12.7118 20.4303 12.6334 20.4642C12.555 20.4982 12.4705 20.5154 12.3853 20.515C12.2555 20.5187 12.128 20.4796 12.0221 20.4034C11.9142 20.3287 11.8293 20.2246 11.7771 20.103C11.7395 19.9741 11.7395 19.837 11.7771 19.7081C11.8016 19.5784 11.8633 19.4589 11.9545 19.3648C12.0459 19.2698 12.1635 19.2051 12.2917 19.179C12.4199 19.1529 12.5529 19.1667 12.6733 19.2186C12.7937 19.2705 12.8959 19.3581 12.9666 19.4699C13.0372 19.5818 13.0731 19.7126 13.0694 19.8455C13.0648 19.9357 13.0421 20.0241 13.0029 20.1052C12.9637 20.1864 12.9088 20.2586 12.8414 20.3176ZM19.5988 15.8026C19.5799 15.9688 19.5053 16.1233 19.3876 16.2403C19.2691 16.3409 19.1196 16.396 18.9653 16.396C18.8109 16.396 18.6614 16.3409 18.5429 16.2403C18.4222 16.1256 18.3471 15.9698 18.3318 15.8026V13.1073C18.3315 12.9289 18.398 12.7571 18.5176 12.6266C18.6406 12.5009 18.8077 12.4299 18.9822 12.4292H19.641L19.5988 15.8026Z" fill="#1A232C"/>
<path d="M21.0002 5.79399V8.30043C20.9957 8.40668 20.9729 8.5113 20.9326 8.60944C20.8845 8.70705 20.8186 8.79445 20.7383 8.86695C20.6597 8.93682 20.5715 8.99466 20.4765 9.03863C20.3844 9.07258 20.2872 9.09001 20.1893 9.09013C20.089 9.09378 19.9889 9.07925 19.8936 9.04721C19.7975 9.00537 19.7089 8.94733 19.6318 8.87554C19.5567 8.79898 19.4965 8.7087 19.4544 8.60944C19.4141 8.5113 19.3912 8.40668 19.3868 8.30043V5.78541C19.397 5.50733 19.353 5.22994 19.2573 4.9692C19.1616 4.70847 19.0162 4.46952 18.8293 4.26609C18.6418 4.05916 18.4147 3.89312 18.1621 3.77803C17.9095 3.66293 17.6364 3.6012 17.3596 3.59657H6.59847C6.32882 3.60689 6.06385 3.67137 5.81884 3.78628C5.57384 3.9012 5.35364 4.06427 5.17097 4.26609C4.98411 4.46952 4.83867 4.70847 4.743 4.9692C4.64732 5.22994 4.60331 5.50733 4.61348 5.78541V8.30043C4.59948 8.51603 4.50597 8.71833 4.35163 8.86695C4.19924 8.99767 4.00624 9.06937 3.80682 9.06937C3.60739 9.06937 3.4144 8.99767 3.262 8.86695C3.10957 8.72047 3.01623 8.52158 3.00016 8.30901V5.78541C2.99126 4.79459 3.36415 3.83955 4.0391 3.12446C4.37335 2.77469 4.7722 2.49533 5.21282 2.30238C5.65344 2.10943 6.12717 2.00668 6.60691 2H17.3596C17.8342 2.00742 18.3027 2.11065 18.7377 2.30369C19.1727 2.49673 19.5657 2.77573 19.8936 3.12446C20.2422 3.47326 20.5195 3.8887 20.7094 4.34686C20.8993 4.80503 20.9981 5.29685 21.0002 5.79399Z" fill="#1A232C"/>
<path d="M16.6172 6.42914C16.6187 6.53227 16.6 6.63467 16.5623 6.73043C16.5246 6.82619 16.4687 6.91342 16.3976 6.98708C16.2585 7.13668 16.0678 7.22587 15.8655 7.23601H7.90864C7.70397 7.22715 7.5106 7.13825 7.36892 6.98788C7.22725 6.83751 7.14825 6.63732 7.14844 6.42914C7.15038 6.22434 7.22889 6.02794 7.36805 5.87979C7.50615 5.72868 7.69744 5.6392 7.9002 5.63086H15.8655C16.0672 5.64177 16.2572 5.73041 16.3969 5.87872C16.5366 6.02703 16.6154 6.22387 16.6172 6.42914Z" fill="#00C569"/>
</g>
<defs>
<clipPath id="clip0_1915_13230">
<rect width="18" height="20" fill="white" transform="translate(3 2)"/>
</clipPath>
</defs>
</svg>
