<svg width="24" height="25" viewBox="0 0 24 25" fill="none" xmlns="http://www.w3.org/2000/svg">
<path fill-rule="evenodd" clip-rule="evenodd" d="M13.6592 4.91662L3.96867 14.4157C3.43127 14.9425 3.12036 15.6526 3.10043 16.3975L3.00021 20.3383C2.99098 20.701 3.28841 20.9999 3.65854 20.9999H7.64282C8.43007 20.9999 9.1843 20.6939 9.74061 20.1486L19.4694 10.612C20.7162 9.38985 20.7162 7.40755 19.4694 6.1854L18.175 4.91662C16.9283 3.69446 14.906 3.69446 13.6592 4.91662ZM17.2423 5.82952L18.5367 7.0983C19.2691 7.81627 19.2691 8.98111 18.5367 9.69908L17.7855 10.4354L13.8376 6.56621L14.5891 5.82952C15.3216 5.11155 16.5099 5.11155 17.2423 5.82952ZM12.9063 7.47913L4.89856 15.3286C4.59984 15.6215 4.42672 16.0169 4.41565 16.4305L4.33203 19.7084L7.6414 19.7088C8.0308 19.7088 8.40528 19.5745 8.70086 19.3317L8.80788 19.2357L16.8542 11.3483L12.9063 7.47913Z" fill="#333335"/>
<path d="M20.3415 19.7109C20.7052 19.7109 21 19.9999 21 20.3565C21 20.6833 20.7523 20.9534 20.4309 20.9961L20.3415 21.002H13.471C13.1073 21.002 12.8125 20.713 12.8125 20.3565C12.8125 20.0297 13.0602 19.7596 13.3817 19.7168L13.471 19.7109H20.3415Z" fill="#00C569"/>
</svg>
