<svg xmlns="http://www.w3.org/2000/svg" width="17.693" height="17.693" viewBox="0 0 17.693 17.693">
  <g id="checked_1_" data-name="checked (1)" transform="translate(0.25 0.25)">
    <g id="Group_21214" data-name="Group 21214" transform="translate(4.082 3.027)">
      <g id="Group_21213" data-name="Group 21213">
        <path id="Path_38339" data-name="Path 38339" d="M133.038,64.5a.589.589,0,0,0-.833,0l-7.066,7.047-2.549-2.769a.589.589,0,1,0-.867.8l2.965,3.22a.588.588,0,0,0,.421.19h.013a.59.59,0,0,0,.416-.172l7.5-7.48A.589.589,0,0,0,133.038,64.5Z" transform="translate(-121.568 -64.327)" fill="#15bf81" stroke="#15bf81" stroke-width="0.5"/>
      </g>
    </g>
    <g id="Group_21216" data-name="Group 21216" transform="translate(0 0)">
      <g id="Group_21215" data-name="Group 21215">
        <path id="Path_38340" data-name="Path 38340" d="M16.545,7.949A.648.648,0,0,0,15.9,8.6,7.3,7.3,0,1,1,8.6,1.3.648.648,0,1,0,8.6,0a8.6,8.6,0,1,0,8.6,8.6A.648.648,0,0,0,16.545,7.949Z" fill="#1ec569" stroke="#1ec569" stroke-width="0.5"/>
      </g>
    </g>
  </g>
</svg>
