<svg xmlns="http://www.w3.org/2000/svg" width="39.587" height="39.587" viewBox="0 0 39.587 39.587"><defs><style>.a{fill:#fff;stroke:rgba(26,152,123,0.33);stroke-width:1.5px;}.b{fill:#f93226;}</style></defs><g transform="translate(-1304.17 -105.25)"><g transform="translate(1304.92 106)"><path class="a" d="M19.043,0A19.043,19.043,0,1,1,0,19.043,19.043,19.043,0,0,1,19.043,0Z" transform="translate(0)"/><g transform="translate(11.172 11.162)"><g transform="translate(0 0)"><path class="b" d="M33.117,33.089a.909.909,0,0,1-1.273,0L27.3,28.565l-.636-.634a.9.9,0,0,1,1.273-1.267l.636.634,4.546,4.522A.9.9,0,0,1,33.117,33.089Z" transform="translate(-16.904 -16.944)"/><path class="b" d="M16.211.261a.909.909,0,0,0-1.273,0l-6.7,6.674L1.536.261a.906.906,0,0,0-1.273,0,.9.9,0,0,0,0,1.267L6.962,8.2l-6.7,6.674a.893.893,0,0,0,0,1.267.9.9,0,0,0,1.273,0L16.211,1.535a.9.9,0,0,0,0-1.267Z" transform="translate(0.001 0)"/></g></g></g></g></svg>