<svg xmlns="http://www.w3.org/2000/svg" xmlns:xlink="http://www.w3.org/1999/xlink" width="510.298" height="398.558" viewBox="0 0 510.298 398.558">
  <defs>
    <linearGradient id="linear-gradient" x1="0.498" y1="-0.033" x2="0.5" y2="1.002" gradientUnits="objectBoundingBox">
      <stop offset="0" stop-color="#ebebeb"/>
      <stop offset="1" stop-color="#efefef" stop-opacity="0"/>
    </linearGradient>
    <linearGradient id="linear-gradient-2" x1="0.5" x2="0.5" y2="1" gradientUnits="objectBoundingBox">
      <stop offset="0" stop-color="#4e9cff"/>
      <stop offset="0.193" stop-color="#4090f4"/>
      <stop offset="0.709" stop-color="#2274dc"/>
      <stop offset="1" stop-color="#176ad4"/>
    </linearGradient>
  </defs>
  <g id="No_Challenge" data-name="No Challenge" transform="translate(-881 -383.972)">
    <g id="Group_37279" data-name="Group 37279" transform="translate(-16 -25.842)">
      <path id="Path_8103" data-name="Path 8103" d="M443.192,485.171s219.885-219.055,510.3,0Z" transform="translate(453.808 323.2)" fill="url(#linear-gradient)"/>
      <g id="Group_37241" data-name="Group 37241" transform="translate(67.42 -391.545)">
        <g id="Group_2787" data-name="Group 2787" transform="translate(1107.592 801.358)">
          <g id="Group_2782" data-name="Group 2782" transform="translate(0 20.328)">
            <path id="Path_8092" data-name="Path 8092" d="M833.842,62.153c.544-3.954-5.037-7.207-9.23-7.545-2-.161-4.077.145-5.972-.516-4.1-1.43-5.745-6.734-9.749-8.423-2.994-1.263-6.442-.138-9.345,1.323s-5.771,3.3-9.015,3.507c-2.821.181-5.884-.866-8.352.512-1.839,1.027-2.8,3.146-4.5,4.4A10.726,10.726,0,0,1,771.8,57a16.57,16.57,0,0,0-6.061.991c-1.874.858-3.424,2.839-3.035,4.863Z" transform="translate(-762.646 -45.122)" fill="#ebebeb"/>
          </g>
          <g id="Group_2783" data-name="Group 2783" transform="translate(66.586 73.41)">
            <path id="Path_8093" data-name="Path 8093" d="M891.126,155.146c-.07.037-1.657-2.856-3.545-6.46s-3.363-6.556-3.293-6.593,1.656,2.855,3.545,6.46S891.2,155.109,891.126,155.146Z" transform="translate(-884.286 -142.092)" fill="#ebebeb"/>
          </g>
          <g id="Group_2784" data-name="Group 2784" transform="translate(94.176 83.088)">
            <path id="Path_8094" data-name="Path 8094" d="M941.526,172.826c-.07.037-1.657-2.856-3.545-6.46s-3.363-6.556-3.293-6.593,1.656,2.855,3.545,6.461S941.6,172.789,941.526,172.826Z" transform="translate(-934.686 -159.772)" fill="#ebebeb"/>
          </g>
          <g id="Group_2785" data-name="Group 2785" transform="translate(77.77)">
            <path id="Path_8095" data-name="Path 8095" d="M986.329,27.51c.624-4.533-5.773-8.262-10.58-8.649-2.293-.185-4.673.165-6.845-.591-4.7-1.64-6.585-7.719-11.176-9.655-3.432-1.448-7.384-.159-10.712,1.516s-6.616,3.782-10.333,4.02c-3.233.207-6.745-.992-9.575.587-2.108,1.177-3.212,3.606-5.155,5.039-1.9,1.4-4.381,1.7-6.74,1.828s-4.8.152-6.948,1.135-3.925,3.254-3.479,5.574Z" transform="translate(-904.716 -7.987)" fill="#f5f5f5"/>
          </g>
          <g id="Group_2786" data-name="Group 2786" transform="translate(91.981 36.083)">
            <path id="Path_8096" data-name="Path 8096" d="M979.509,85.585c.373-2.712-3.454-4.943-6.331-5.175a16.3,16.3,0,0,1-4.1-.354c-2.815-.981-3.94-4.618-6.687-5.777-2.054-.867-4.419-.1-6.41.907s-3.959,2.263-6.183,2.405c-1.935.124-4.036-.593-5.729.351-1.261.7-1.922,2.158-3.085,3.016a7.361,7.361,0,0,1-4.033,1.094,11.358,11.358,0,0,0-4.158.679,3.286,3.286,0,0,0-2.081,3.335Z" transform="translate(-930.675 -73.903)" fill="#fafafa"/>
          </g>
        </g>
        <g id="Group_2817" data-name="Group 2817" transform="translate(908.674 1040.763)">
          <g id="Group_2791" data-name="Group 2791">
            <g id="Group_2790" data-name="Group 2790">
              <g id="Group_2789" data-name="Group 2789">
                <g id="Group_2788" data-name="Group 2788">
                  <path id="Path_8097" data-name="Path 8097" d="M770.1,322.522c11.386-5.376,15.942-18.178,17.56-30.108.27-1.991.844-4.042.2-5.939s-2.642-3.459-4.557-2.926c-1.588.442-2.52,2.043-3.584,3.317a11.747,11.747,0,0,1-5.4,3.644,4.476,4.476,0,0,1-4.128-.325c-1.547-1.233-1.346-3.627-1-5.594q.972-5.5,1.944-11a18.611,18.611,0,0,0,.4-5.95,6.2,6.2,0,0,0-3.135-4.784c-1.784-.844-4.285-.158-5.009,1.7a18.467,18.467,0,0,0-.474,2.443,2.1,2.1,0,0,1-1.544,1.743c-.825.1-1.518-.6-2.008-1.272a26.548,26.548,0,0,1-3.492-7.9,36.892,36.892,0,0,0-3.137-8.07,10.8,10.8,0,0,0-6.526-5.276c-2.794-.64-6.094.589-7.279,3.236s-.048,5.747,1.332,8.294a44.585,44.585,0,0,0,7.667,10.283,3.67,3.67,0,0,1,1.25,1.907c.2,1.386-1.262,2.477-2.631,2.688a23.066,23.066,0,0,1-4.684-.265c-1.566-.08-3.345.313-4.173,1.666-1.15,1.875.175,4.272,1.595,5.936a38.206,38.206,0,0,0,10.049,8.332,12.876,12.876,0,0,1,3.8,2.718,3.7,3.7,0,0,1,.456,4.373c-.943,1.269-2.83,1.4-4.3.864a26.569,26.569,0,0,1-4.04-2.387c-2.532-1.482-6.059-1.891-8.191.153a6.321,6.321,0,0,0-1.6,5.4,14.563,14.563,0,0,0,2.156,5.376,38.406,38.406,0,0,0,14.233,14.116c5.906,3.246,11.623,4.826,18.25,3.607" transform="translate(-735.394 -246.063)" fill="#f5f5f5"/>
                </g>
              </g>
            </g>
          </g>
          <g id="Group_2796" data-name="Group 2796" transform="translate(6.848 1.186)">
            <g id="Group_2795" data-name="Group 2795">
              <g id="Group_2794" data-name="Group 2794">
                <g id="Group_2793" data-name="Group 2793">
                  <g id="Group_2792" data-name="Group 2792">
                    <path id="Path_8098" data-name="Path 8098" d="M773.971,315.546a178.861,178.861,0,0,0-3.769-20.191q-.638-2.655-1.26-5.242c-.417-1.719-.831-3.425-1.339-5.067a89.387,89.387,0,0,0-3.459-9.273c-1.243-2.9-2.528-5.6-3.748-8.118s-2.412-4.842-3.584-6.914a71,71,0,0,0-6.253-9.359c-.822-1.043-1.486-1.832-1.943-2.36l-.524-.6a1.45,1.45,0,0,0-.188-.195,1.374,1.374,0,0,0,.159.22l.5.621c.438.544,1.084,1.346,1.888,2.4a74.959,74.959,0,0,1,6.139,9.4c1.154,2.075,2.325,4.4,3.537,6.92s2.48,5.227,3.712,8.119a90.32,90.32,0,0,1,3.425,9.244c.5,1.634.911,3.325,1.329,5.049s.833,3.471,1.257,5.239a183.382,183.382,0,0,1,3.79,20.145" transform="translate(-747.903 -248.23)" fill="#e0e0e0"/>
                  </g>
                </g>
              </g>
            </g>
          </g>
          <g id="Group_2801" data-name="Group 2801" transform="translate(26.442 16.795)">
            <g id="Group_2800" data-name="Group 2800">
              <g id="Group_2799" data-name="Group 2799">
                <g id="Group_2798" data-name="Group 2798">
                  <g id="Group_2797" data-name="Group 2797">
                    <path id="Path_8099" data-name="Path 8099" d="M783.7,297.919a4.045,4.045,0,0,0,.336-.807c.2-.527.454-1.3.76-2.255.613-1.913,1.368-4.585,2.19-7.532s1.614-5.6,2.253-7.5c.318-.95.582-1.717.772-2.244a4,4,0,0,0,.256-.836,3.946,3.946,0,0,0-.389.783c-.23.512-.533,1.268-.882,2.21-.706,1.884-1.54,4.535-2.362,7.488-.8,2.911-1.531,5.545-2.086,7.557-.256.908-.474,1.672-.648,2.286A4.008,4.008,0,0,0,783.7,297.919Z" transform="translate(-783.698 -276.744)" fill="#e0e0e0"/>
                  </g>
                </g>
              </g>
            </g>
          </g>
          <g id="Group_2806" data-name="Group 2806" transform="translate(1.934 28.92)">
            <g id="Group_2805" data-name="Group 2805">
              <g id="Group_2804" data-name="Group 2804">
                <g id="Group_2803" data-name="Group 2803">
                  <g id="Group_2802" data-name="Group 2802">
                    <path id="Path_8100" data-name="Path 8100" d="M738.927,298.9a5.5,5.5,0,0,0,.99.293c.639.168,1.567.407,2.7.739,2.277.645,5.39,1.647,8.776,2.9s6.4,2.533,8.554,3.517c1.081.484,1.945.9,2.544,1.183a5.492,5.492,0,0,0,.947.411,5.531,5.531,0,0,0-.882-.54c-.58-.323-1.429-.776-2.5-1.292-2.132-1.047-5.141-2.361-8.536-3.628a90.522,90.522,0,0,0-8.835-2.806c-1.148-.3-2.088-.5-2.739-.626A5.5,5.5,0,0,0,738.927,298.9Z" transform="translate(-738.927 -298.894)" fill="#e0e0e0"/>
                  </g>
                </g>
              </g>
            </g>
          </g>
          <g id="Group_2811" data-name="Group 2811" transform="translate(32.682 37.818)">
            <g id="Group_2810" data-name="Group 2810">
              <g id="Group_2809" data-name="Group 2809">
                <g id="Group_2808" data-name="Group 2808">
                  <g id="Group_2807" data-name="Group 2807">
                    <path id="Path_8101" data-name="Path 8101" d="M795.1,345.314a1.31,1.31,0,0,0,.226-.279l.589-.842c.508-.734,1.216-1.814,2.073-3.161,1.716-2.693,3.968-6.486,6.4-10.706s4.645-8.031,6.3-10.755l1.972-3.221.532-.88a.181.181,0,1,0-.062-.041l-.588.841c-.509.734-1.216,1.815-2.073,3.161-1.716,2.692-3.968,6.486-6.4,10.707s-4.644,8.029-6.3,10.754c-.811,1.323-1.476,2.412-1.972,3.221-.213.351-.388.642-.531.88A1.349,1.349,0,0,0,795.1,345.314Z" transform="translate(-795.097 -315.148)" fill="#e0e0e0"/>
                  </g>
                </g>
              </g>
            </g>
          </g>
          <g id="Group_2816" data-name="Group 2816" transform="translate(0.886 51.408)">
            <g id="Group_2815" data-name="Group 2815">
              <g id="Group_2814" data-name="Group 2814">
                <g id="Group_2813" data-name="Group 2813">
                  <g id="Group_2812" data-name="Group 2812">
                    <path id="Path_8102" data-name="Path 8102" d="M737.013,339.977a1.391,1.391,0,0,0,.311.194l.921.494,3.4,1.781c2.874,1.5,6.819,3.628,11.176,5.981s8.327,4.443,11.232,5.888c1.453.723,2.634,1.3,3.458,1.676l.952.431a1.344,1.344,0,0,0,.343.128,1.394,1.394,0,0,0-.31-.2l-.921-.493-3.4-1.781c-2.874-1.5-6.82-3.629-11.177-5.982s-8.325-4.442-11.231-5.887c-1.453-.723-2.634-1.3-3.459-1.676l-.952-.431A1.335,1.335,0,0,0,737.013,339.977Z" transform="translate(-737.013 -339.975)" fill="#e0e0e0"/>
                  </g>
                </g>
              </g>
            </g>
          </g>
        </g>
      </g>
      <g id="Group_37240" data-name="Group 37240" transform="translate(134.948 177.157)">
        <g id="Group_37237" data-name="Group 37237" transform="translate(868.317 295.193)">
          <rect id="Rectangle_14563" data-name="Rectangle 14563" width="284.532" height="242.55" rx="12" transform="translate(0)" fill="#fff" opacity="0.6"/>
          <rect id="Rectangle_14564" data-name="Rectangle 14564" width="284.532" height="26.914" rx="10" transform="translate(0)" fill="#699dee"/>
          <g id="Group_37229" data-name="Group 37229" transform="translate(11.506 10.077)">
            <path id="Path_92223" data-name="Path 92223" d="M915.682,428.518a3.218,3.218,0,1,1,3.218,3.218A3.218,3.218,0,0,1,915.682,428.518Z" transform="translate(-915.682 -425.3)" fill="#dde7fe"/>
            <path id="Path_92224" data-name="Path 92224" d="M971.275,428.518a3.218,3.218,0,1,1,3.218,3.218A3.218,3.218,0,0,1,971.275,428.518Z" transform="translate(-957.77 -425.3)" fill="#dde7fe"/>
            <path id="Path_92225" data-name="Path 92225" d="M1026.869,428.518a3.218,3.218,0,1,1,3.218,3.218A3.218,3.218,0,0,1,1026.869,428.518Z" transform="translate(-999.858 -425.3)" fill="#dde7fe"/>
          </g>
          <rect id="Rectangle_14565" data-name="Rectangle 14565" width="80.656" height="80.656" transform="translate(22.549 48.27)" fill="#cde0fb" opacity="0.5"/>
          <path id="Path_92226" data-name="Path 92226" d="M1438.076,588.264h-64.155a3.048,3.048,0,0,1-3.048-3.048h0a3.048,3.048,0,0,1,3.048-3.048h64.155a3.048,3.048,0,0,1,3.048,3.048h0A3.048,3.048,0,0,1,1438.076,588.264Z" transform="translate(-1248.786 -533.982)" fill="#7c9af2" opacity="0.5"/>
          <path id="Path_92227" data-name="Path 92227" d="M1753.875,571.435H1689.72a3.048,3.048,0,0,1-3.048-3.048h0a3.048,3.048,0,0,1,3.048-3.048h64.155a3.048,3.048,0,0,1,3.048,3.048h0A3.048,3.048,0,0,1,1753.875,571.435Z" transform="translate(-1487.867 -521.242)" fill="#7c9af2" opacity="0.5"/>
          <g id="Group_37230" data-name="Group 37230" transform="translate(122.087 73.796)" opacity="0.3">
            <path id="Path_92228" data-name="Path 92228" d="M1450.775,691.54h-77.927a1.976,1.976,0,0,1-1.976-1.976h0a1.976,1.976,0,0,1,1.976-1.976h77.927a1.975,1.975,0,0,1,1.976,1.976h0A1.976,1.976,0,0,1,1450.775,691.54Z" transform="translate(-1370.873 -687.589)" fill="#bdd1f9"/>
            <path id="Path_92229" data-name="Path 92229" d="M1751.464,691.54h-20.571a1.976,1.976,0,0,1-1.976-1.976h0a1.976,1.976,0,0,1,1.976-1.976h20.571a1.975,1.975,0,0,1,1.975,1.976h0A1.975,1.975,0,0,1,1751.464,691.54Z" transform="translate(-1641.937 -687.589)" fill="#bdd1f9"/>
            <path id="Path_92230" data-name="Path 92230" d="M1402.251,741.978h-29.4a1.976,1.976,0,0,1-1.976-1.976h0a1.976,1.976,0,0,1,1.976-1.976h29.4a1.976,1.976,0,0,1,1.976,1.976h0A1.975,1.975,0,0,1,1402.251,741.978Z" transform="translate(-1370.873 -725.774)" fill="#bdd1f9"/>
            <path id="Path_92231" data-name="Path 92231" d="M1564.362,741.978h-40.289A1.975,1.975,0,0,1,1522.1,740h0a1.976,1.976,0,0,1,1.976-1.976h40.289a1.975,1.975,0,0,1,1.975,1.976h0A1.975,1.975,0,0,1,1564.362,741.978Z" transform="translate(-1485.36 -725.774)" fill="#bdd1f9"/>
            <path id="Path_92232" data-name="Path 92232" d="M1751.464,741.978h-20.571a1.976,1.976,0,0,1-1.976-1.976h0a1.976,1.976,0,0,1,1.976-1.976h20.571a1.975,1.975,0,0,1,1.975,1.976h0A1.975,1.975,0,0,1,1751.464,741.978Z" transform="translate(-1641.937 -725.774)" fill="#bdd1f9"/>
            <path id="Path_92233" data-name="Path 92233" d="M1412.745,785.59h-39.9a1.976,1.976,0,0,1-1.976-1.976h0a1.976,1.976,0,0,1,1.976-1.976h39.9a1.975,1.975,0,0,1,1.976,1.976h0A1.975,1.975,0,0,1,1412.745,785.59Z" transform="translate(-1370.873 -758.791)" fill="#bdd1f9"/>
            <path id="Path_92234" data-name="Path 92234" d="M1647.339,785.59h-65.25a1.976,1.976,0,0,1-1.976-1.976h0a1.976,1.976,0,0,1,1.976-1.976h65.25a1.976,1.976,0,0,1,1.976,1.976h0A1.976,1.976,0,0,1,1647.339,785.59Z" transform="translate(-1529.281 -758.791)" fill="#bdd1f9"/>
          </g>
          <g id="Group_37231" data-name="Group 37231" transform="translate(122.087 112.721)" opacity="0.3">
            <path id="Path_92235" data-name="Path 92235" d="M1450.775,851.771h-77.927a1.976,1.976,0,0,1-1.976-1.976h0a1.976,1.976,0,0,1,1.976-1.976h77.927a1.976,1.976,0,0,1,1.976,1.976h0A1.975,1.975,0,0,1,1450.775,851.771Z" transform="translate(-1370.873 -847.82)" fill="#bdd1f9"/>
            <path id="Path_92236" data-name="Path 92236" d="M1751.464,851.771h-20.571a1.976,1.976,0,0,1-1.976-1.976h0a1.976,1.976,0,0,1,1.976-1.976h20.571a1.975,1.975,0,0,1,1.975,1.976h0A1.975,1.975,0,0,1,1751.464,851.771Z" transform="translate(-1641.937 -847.82)" fill="#bdd1f9"/>
            <path id="Path_92237" data-name="Path 92237" d="M1402.251,902.209h-29.4a1.976,1.976,0,0,1-1.976-1.975h0a1.976,1.976,0,0,1,1.976-1.976h29.4a1.976,1.976,0,0,1,1.976,1.976h0A1.976,1.976,0,0,1,1402.251,902.209Z" transform="translate(-1370.873 -886.005)" fill="#bdd1f9"/>
            <path id="Path_92238" data-name="Path 92238" d="M1564.362,902.209h-40.289a1.975,1.975,0,0,1-1.976-1.975h0a1.976,1.976,0,0,1,1.976-1.976h40.289a1.975,1.975,0,0,1,1.975,1.976h0A1.975,1.975,0,0,1,1564.362,902.209Z" transform="translate(-1485.36 -886.005)" fill="#bdd1f9"/>
          </g>
          <g id="Group_37232" data-name="Group 37232" transform="translate(36.208 60.293)">
            <path id="Path_92239" data-name="Path 92239" d="M1039.866,632.006h8.329l22.5,51.512h-9.5l-5.188-12.348h-24.185l-5.261,12.348h-9.206Zm12.86,31.2-8.841-20.459-8.768,20.459Z" transform="translate(-1017.361 -632.006)" fill="#bdd1f9"/>
          </g>
          <g id="Group_37233" data-name="Group 37233" transform="translate(22.549 145.172)">
            <rect id="Rectangle_14566" data-name="Rectangle 14566" width="45.055" height="8.698" fill="#f99746"/>
            <rect id="Rectangle_14567" data-name="Rectangle 14567" width="45.055" height="8.698" transform="translate(0 8.698)" fill="#ed7d2b"/>
            <rect id="Rectangle_14568" data-name="Rectangle 14568" width="45.055" height="8.698" transform="translate(0 17.396)" fill="#474fea"/>
          </g>
          <g id="Group_37234" data-name="Group 37234" transform="translate(74.132 146.34)">
            <path id="Path_92240" data-name="Path 92240" d="M1200.142,989.965h-24.79a1.879,1.879,0,0,1-1.878-1.878h0a1.878,1.878,0,0,1,1.878-1.878h24.79a1.878,1.878,0,0,1,1.879,1.878h0A1.878,1.878,0,0,1,1200.142,989.965Z" transform="translate(-1173.474 -986.208)" fill="#bdd1f9"/>
            <path id="Path_92241" data-name="Path 92241" d="M1191.791,1017.218h-16.438a1.878,1.878,0,0,1-1.878-1.878h0a1.878,1.878,0,0,1,1.878-1.878h16.438a1.878,1.878,0,0,1,1.878,1.878h0A1.878,1.878,0,0,1,1191.791,1017.218Z" transform="translate(-1173.474 -1006.841)" fill="#bdd1f9"/>
          </g>
          <g id="Group_37235" data-name="Group 37235" transform="translate(22.549 190.144)">
            <rect id="Rectangle_14569" data-name="Rectangle 14569" width="45.055" height="17.773" fill="#f99746"/>
            <rect id="Rectangle_14570" data-name="Rectangle 14570" width="45.055" height="12.711" transform="translate(0 13.384)" fill="#b5453c"/>
            <path id="Path_92242" data-name="Path 92242" d="M961.137,1166.523,977.3,1180.1l-16.163,12.518Z" transform="translate(-961.137 -1166.523)" fill="#474fea"/>
          </g>
          <g id="Group_37236" data-name="Group 37236" transform="translate(74.132 191.312)">
            <path id="Path_92243" data-name="Path 92243" d="M1200.142,1175.088h-24.79a1.878,1.878,0,0,1-1.878-1.878h0a1.878,1.878,0,0,1,1.878-1.878h24.79a1.878,1.878,0,0,1,1.879,1.878h0A1.878,1.878,0,0,1,1200.142,1175.088Z" transform="translate(-1173.474 -1171.331)" fill="#bdd1f9"/>
            <path id="Path_92244" data-name="Path 92244" d="M1191.791,1202.342h-16.438a1.879,1.879,0,0,1-1.878-1.878h0a1.878,1.878,0,0,1,1.878-1.878h16.438a1.878,1.878,0,0,1,1.878,1.878h0A1.879,1.879,0,0,1,1191.791,1202.342Z" transform="translate(-1173.474 -1191.964)" fill="#bdd1f9"/>
          </g>
        </g>
      </g>
    </g>
    <g id="Group_37286" data-name="Group 37286" transform="translate(-1522.018 -505.919)">
      <path id="Path_92280" data-name="Path 92280" d="M2708.251,1133.4h0a1.077,1.077,0,0,1-1.259-.851l-1.185-6.119a1.078,1.078,0,0,1,.851-1.259h0a1.077,1.077,0,0,1,1.259.85l1.184,6.12A1.077,1.077,0,0,1,2708.251,1133.4Z" transform="translate(-6.396 -48.544)" fill="#30545d"/>
      <rect id="Rectangle_14576" data-name="Rectangle 14576" width="0.739" height="9.009" transform="matrix(0.982, -0.19, 0.19, 0.982, 2697.902, 1066.376)" fill="#30545d"/>
      <path id="Path_92281" data-name="Path 92281" d="M2698.629,1021.178s-.7-6.092-2.176-8.42-7.057-3.824-7.409-3.482c-1.093,1.058,3.227,4.8,3.4,6.178s-2.192.425-1.058,3.114c.958,2.27,4.116,5.214,4.116,5.214Z" transform="translate(0 -4.725)" fill="#f2beb7"/>
      <path id="Path_92282" data-name="Path 92282" d="M2698.905,1026.4c2.036-1.6,2.468-1.566,2.468-1.566s18.823,16.307,20.655,17.759,30.1,9.65,30.1,9.65l4.492,22.982s-38.254-18.477-42.824-22.247c-7.554-6.231-17.085-23.669-17.085-23.669A7.207,7.207,0,0,1,2698.905,1026.4Z" transform="translate(-2.966 -10.623)" fill="url(#linear-gradient-2)"/>
      <path id="Path_92283" data-name="Path 92283" d="M2772.921,1380.436s-.324,7.855-1.832,9.765l-20.981.121c.146-.809.234-2.683,3.135-3.19a14.074,14.074,0,0,0,10.191-8.041C2765.77,1373.993,2772.921,1380.436,2772.921,1380.436Z" transform="translate(-23.148 -143.79)" fill="url(#linear-gradient-2)"/>
      <path id="Path_92284" data-name="Path 92284" d="M2837.978,1378.687s1.462,10.435-.523,10.617c-.264.024-8.455.157-12,.215-4.171.07-11.025-.077-11.025-.077a1.09,1.09,0,0,1-.988-1.64,4.394,4.394,0,0,1,3.152-2.022c3.655-.7,9.744-3.387,11.878-8.271C2830.716,1372.371,2837.978,1378.687,2837.978,1378.687Z" transform="translate(-47.03 -143.173)" fill="url(#linear-gradient-2)"/>
      <path id="Path_92285" data-name="Path 92285" d="M2769.245,1196.556s5.834,20.415,22.555,55.866,17.444,52.537,17.444,52.537a14.688,14.688,0,0,0,5.889.537,15.836,15.836,0,0,0,6.2-2.009s-1.083-42.2-8.981-60.087-9.508-66.847-9.508-66.847Z" transform="translate(-30.382 -67.974)" fill="#2e4071"/>
      <path id="Path_92286" data-name="Path 92286" d="M2754.181,1180.471a509.084,509.084,0,0,0,5,70.425c5.47,38.814,2.912,56.864,2.912,56.864s1.45,1.056,5.909,1.038c5.22-.021,7.894-2.178,7.894-2.178s7.829-38.827,5.584-58.254,10.72-66.663,10.72-66.663Z" transform="translate(-24.684 -69.454)" fill="#192b59"/>
      <path id="Path_92287" data-name="Path 92287" d="M2786.561,1052.043l-6.178,4.576-8.929-1.88c.123-.814.713-4.189,1.249-7.246.033-.18.065-.36.1-.536.46-2.6.857-4.835.857-4.835l8.339-4.157,3.11-1.55c-.008.055-.241,2.887-.273,3.3A26.7,26.7,0,0,0,2786.561,1052.043Z" transform="translate(-31.217 -15.002)" fill="#f2beb7"/>
      <path id="Path_92288" data-name="Path 92288" d="M2797.03,1137.808c-2.02,9.239-45.256,5.183-44.692-.457.022-.188.134-2.8.29-6.317.328-7.612.828-19.5.892-20.434,0-.016.005-.032.005-.048.779-7.854,1.526-15.535,1.574-20.552a71.314,71.314,0,0,1,1.439-12.838c.736-3.728,1.639-7.112,2.423-9.75a10.781,10.781,0,0,1,6.317-6.924,9.3,9.3,0,0,1,1.047-.365c5.087-1.477,12.13-3.3,14.037-2.745,5.167,1.52,9.008,10.62,11.726,22.217C2797.175,1101.3,2798.352,1131.786,2797.03,1137.808Z" transform="translate(-23.989 -22.887)" fill="url(#linear-gradient-2)"/>
      <path id="Path_92289" data-name="Path 92289" d="M2784.964,1040.786c-1.831,3.5-8.655,6.535-11.5,7.649.033-.18.065-.36.1-.536.46-2.6.857-4.835.857-4.835l8.339-4.157C2784.6,1038.878,2785.72,1039.344,2784.964,1040.786Z" transform="translate(-31.976 -15.943)" fill="#eda8a2"/>
      <path id="Path_92290" data-name="Path 92290" d="M2767.335,1029.756s15.046,4.693,17.824-4.722,6.593-15.15-2.9-18.544-12.424-.356-14.116,2.561S2763.493,1028.292,2767.335,1029.756Z" transform="translate(-28.949 -3.124)" fill="#f2beb7"/>
      <path id="Path_92291" data-name="Path 92291" d="M2769.873,1005.02s.959,10.956,3.225,10.48,4.321-.828,3.989,2.474-3.473,7.116,3.509,7.7,17.021-17.423,15.1-20.833C2790.164,995,2761.873,993.019,2769.873,1005.02Z" transform="translate(-30.085 0)" fill="#4a190c"/>
      <path id="Path_92292" data-name="Path 92292" d="M2752.807,1154.131c.329-7.612.828-19.5.892-20.434,0-.016.005-.032.005-.048l25.542-15.272S2780.235,1154.029,2752.807,1154.131Z" transform="translate(-24.169 -45.983)" fill="#134d96"/>
      <path id="Path_92293" data-name="Path 92293" d="M2712.443,1121.872a67.488,67.488,0,0,0-6.176-3.818c-.984-.306-4.212-.637-4.362-.383s-.593,1.033-.028,1.3,1.266.171,1.055.355-2.333-.825-2.822.256-.921,4.789,1.569,5.913,8.636.109,9.079.238C2714.517,1126.823,2712.443,1121.872,2712.443,1121.872Z" transform="translate(-4.107 -45.682)" fill="#f2beb7"/>
      <path id="Path_92294" data-name="Path 92294" d="M2719.094,1103.726s25.336,4.307,27.581,3.214c3.583-1.745-1.391-27.45-1.391-27.45s-.213-5.826,6.592-7.2c5.914-1.194,11.619,3.236,11.619,3.236s5.188,4.643,4.526,9.792c-1.47,11.415-3.756,34.633-11.391,38.191-9.847,4.59-38.343-12.729-38.343-12.729a4.982,4.982,0,0,1-.813-3.32A7.738,7.738,0,0,1,2719.094,1103.726Z" transform="translate(-10.808 -28.485)" fill="url(#linear-gradient-2)"/>
      <path id="Path_92295" data-name="Path 92295" d="M2691.54,1021.169s-1.622-3.223-1.881-3.828.373-.475,1-.136,1.474,2.208,2.437,1.982C2693.857,1019.008,2691.54,1021.169,2691.54,1021.169Z" transform="translate(-0.276 -7.632)" fill="#f2beb7"/>
    </g>
  </g>
</svg>
