<svg xmlns="http://www.w3.org/2000/svg" width="18.479" height="18.479" viewBox="0 0 18.479 18.479"><defs><style>.a{fill:none;stroke:#384047;stroke-linecap:round;stroke-linejoin:round;stroke-width:2px;}</style></defs><g transform="translate(-3.5 -3.5)"><path class="a" d="M6.285,4.5H18.78a1.785,1.785,0,0,1,1.785,1.785V18.78a1.785,1.785,0,0,1-1.785,1.785H6.285A1.785,1.785,0,0,1,4.5,18.78V6.285A1.785,1.785,0,0,1,6.285,4.5Z"/><path class="a" d="M13.177,11.839A1.339,1.339,0,1,1,11.839,10.5,1.339,1.339,0,0,1,13.177,11.839Z" transform="translate(-2.43 -2.43)"/><path class="a" d="M21.78,19.462,17.317,15,7.5,24.817" transform="translate(-1.215 -4.253)"/></g></svg>