<svg xmlns="http://www.w3.org/2000/svg" width="42.434" height="59.129" viewBox="0 0 42.434 59.129">
  <g id="medal_1_" data-name="medal (1)" transform="translate(-72)">
    <path id="Path_91570" data-name="Path 91570" d="M129.48,2.334l-7.057,19.391a1.741,1.741,0,0,1-1.635,1.144c-.332,0,.447.185-10.128-2.7-.167.056,1.113-.318-9.615,2.749a1.74,1.74,0,0,1-2.112-1.077l-7.1-19.508A1.741,1.741,0,0,1,93.467,0h10.858a1.739,1.739,0,0,1,1.635,1.144l4.7,12.9,4.7-12.9A1.739,1.739,0,0,1,116.987,0h10.858a1.741,1.741,0,0,1,1.635,2.334Z" transform="translate(-17.439 0)" fill="#4a696f"/>
    <path id="Path_91571" data-name="Path 91571" d="M273.8,2.334l-7.057,19.391a1.741,1.741,0,0,1-1.635,1.144c-.332,0,.447.185-10.128-2.7-.012,0,0,.275,0-6.123l4.7-12.9A1.739,1.739,0,0,1,261.31,0h10.858A1.741,1.741,0,0,1,273.8,2.334Z" transform="translate(-161.762 0)" fill="#384949"/>
    <path id="Path_91572" data-name="Path 91572" d="M114.434,165.221a21.217,21.217,0,1,1-20.944-21.214,20.737,20.737,0,0,1,10.761,2.945A21.929,21.929,0,0,1,114.434,165.221Z" transform="translate(0 -127.309)" fill="#fed843"/>
    <path id="Path_91573" data-name="Path 91573" d="M255,186.584V144.17a20.446,20.446,0,0,1,18.717,11.279A21.188,21.188,0,0,1,255,186.584Z" transform="translate(-161.783 -127.455)" fill="#fabe2c"/>
    <path id="Path_91574" data-name="Path 91574" d="M169.319,223.16l-5.844,4.3,2.235,6.973a1.741,1.741,0,0,1-2.686,1.932l-5.821-4.286-5.821,4.286a1.74,1.74,0,0,1-2.686-1.932l2.235-6.973-5.844-4.3a1.741,1.741,0,0,1,1.031-3.14h7.2l2.229-6.955a1.74,1.74,0,0,1,3.311,0l2.23,6.955h7.2A1.741,1.741,0,0,1,169.319,223.16Z" transform="translate(-63.986 -187.297)" fill="#fabe2c"/>
    <path id="Path_91575" data-name="Path 91575" d="M267.117,223.133l-5.845,4.3,2.235,6.973a1.741,1.741,0,0,1-2.686,1.932L255,232.056V211.83a1.738,1.738,0,0,1,1.656,1.208l2.23,6.955h7.2A1.741,1.741,0,0,1,267.117,223.133Z" transform="translate(-161.783 -187.271)" fill="#ff9100"/>
  </g>
</svg>
