<svg id="medal_1_" data-name="medal (1)" xmlns="http://www.w3.org/2000/svg" width="36.92" height="51.445" viewBox="0 0 36.92 51.445">
  <path id="Path_91570" data-name="Path 91570" d="M124.574,2.031,118.434,18.9a1.515,1.515,0,0,1-1.422,1c-.289,0,.389.161-8.812-2.348-.146.049.968-.277-8.365,2.392A1.514,1.514,0,0,1,98,19L91.818,2.031A1.514,1.514,0,0,1,93.241,0h9.447a1.513,1.513,0,0,1,1.422,1L108.2,12.222,112.282,1A1.513,1.513,0,0,1,113.7,0h9.447a1.515,1.515,0,0,1,1.422,2.031Z" transform="translate(-89.736 0)" fill="#4a696f"/>
  <path id="Path_91571" data-name="Path 91571" d="M271.356,2.031,265.216,18.9a1.515,1.515,0,0,1-1.422,1c-.289,0,.389.161-8.812-2.348-.01,0,0,.239,0-5.327L259.065,1a1.513,1.513,0,0,1,1.422-1h9.447a1.515,1.515,0,0,1,1.422,2.031Z" transform="translate(-236.519 0)" fill="#384949"/>
  <path id="Path_91572" data-name="Path 91572" d="M108.92,162.464A18.46,18.46,0,1,1,90.7,144.006a18.043,18.043,0,0,1,9.363,2.562A19.08,19.08,0,0,1,108.92,162.464Z" transform="translate(-72 -129.478)" fill="#e6e6e6"/>
  <path id="Path_91573" data-name="Path 91573" d="M255,181.072v-36.9a17.789,17.789,0,0,1,16.285,9.813A18.435,18.435,0,0,1,255,181.072Z" transform="translate(-236.54 -129.627)" fill="#c4c4c2"/>
  <path id="Path_91574" data-name="Path 91574" d="M166.078,221.691l-5.085,3.745,1.945,6.066a1.515,1.515,0,0,1-2.337,1.681l-5.065-3.729-5.065,3.729a1.514,1.514,0,0,1-2.337-1.681l1.945-6.066-5.085-3.745a1.514,1.514,0,0,1,.9-2.732h6.265l1.94-6.051a1.514,1.514,0,0,1,2.881,0l1.94,6.051h6.265A1.514,1.514,0,0,1,166.078,221.691Z" transform="translate(-137.076 -190.489)" fill="#bfbeb8"/>
  <path id="Path_91575" data-name="Path 91575" d="M265.542,221.664l-5.085,3.745,1.945,6.067a1.515,1.515,0,0,1-2.337,1.681L255,229.427v-17.6a1.512,1.512,0,0,1,1.44,1.051l1.94,6.051h6.265A1.514,1.514,0,0,1,265.542,221.664Z" transform="translate(-236.54 -190.462)" fill="#adaa9e"/>
</svg>
