<svg xmlns="http://www.w3.org/2000/svg" xmlns:xlink="http://www.w3.org/1999/xlink" width="926.149" height="475.796" viewBox="0 0 926.149 475.796"><defs><style>.a{fill:url(#a);}.b,.e,.f{fill:#15bf81;}.c{clip-path:url(#b);}.d{opacity:0.5;clip-path:url(#c);}.e{opacity:0.15;}.f{opacity:0.2;}.g{opacity:0.08;}.h{fill:#cccccb;}.i{fill:#999;}.j{opacity:0.07;}.k{fill:#fff;}.l{fill:#666766;}</style><linearGradient id="a" x1="0.5" x2="0.5" y2="1" gradientUnits="objectBoundingBox"><stop offset="0" stop-color="#fff"/><stop offset="1" stop-color="#fff"/></linearGradient><clipPath id="b"><rect class="a" width="926.149" height="475.796" rx="10"/></clipPath><clipPath id="c"><rect class="b" width="940.143" height="391.832" rx="10"/></clipPath></defs><g class="c"><g class="d" transform="translate(-13.994 0.527)"><g transform="translate(0.074 -0.177)"><path class="e" d="M1290.782,118.44V489.982c-79.436-7.69-162.823-20.78-246.183-41.884-132.283-33.5-173.13-64.068-282.746-80.784C668.519,353.076,536.412,350.578,352,392.748V118.44Z" transform="translate(-351.999 -118.436)"/><path class="f" d="M1290.782,436.943v12.751c-78.283-5.66-160.72-16.42-243.9-34.766-135.615-29.9-179.566-59.319-290.771-73.073C661.875,330.194,530.463,331.2,352,377.609V290.953c191.31-44.408,369.824-.4,432.388,19.765,100.95,32.541,136.668,53.217,268.951,86.721C1136.7,418.544,1211.347,429.252,1290.782,436.943Z" transform="translate(-351.999 -72.253)"/><g class="g" transform="translate(595.953 0)"><path class="h" d="M927.248,118.44V392.266c-94.1-12.778-181.032-40.179-245.388-81.192-89.488-57-116.078-127.982-84.95-192.635H927.248Z" transform="translate(-584.42 -118.436)"/><path class="i" d="M887.606,118.441v240.5c-74.359-11.853-142.591-34.519-194.079-67.3C613.064,240.377,591.752,176,624.5,118.437Z" transform="translate(-544.78 -118.437)"/><path class="h" d="M791.419,118.44V274.694c-26.154-7.521-49.9-17.6-69.564-30.134-58.924-37.538-65.334-86.748-24.693-126.12Z" transform="translate(-448.592 -118.436)"/></g><g class="j" transform="translate(0 328.276)"><path class="h" d="M673.388,534.293H352v-147.9c87.975-25.594,203.258-19.817,278.848,17.344C702.741,439.078,716.927,492.021,673.388,534.293Z" transform="translate(-351.999 -370.735)"/><path class="i" d="M636.46,530.633H352V401.677c77.154-27.909,186.283-24.708,256.079,9.59C674,443.651,683.49,493.29,636.46,530.633Z" transform="translate(-351.999 -367.072)"/><path class="h" d="M552.9,512.256a148.134,148.134,0,0,1-25.338,9.5H409.846a148.143,148.143,0,0,1-25.334-9.5C367.307,503.8,356.461,493.39,352,482.473V459.3c4.462-10.917,15.308-21.326,32.513-29.783,46.514-22.848,121.875-22.848,168.386,0C599.388,452.365,599.388,489.408,552.9,512.256Z" transform="translate(-351.999 -358.194)"/><path class="k" d="M429.586,495.294H414.611c-.871-.013-1.59-.364-1.59-.794V444.158c0-.209-.179-.416-.487-.573a2.776,2.776,0,0,0-1.128-.234H386.816a1.86,1.86,0,0,1-1.538-.572l-7.846-13.714c-.254-.416.23-.846,1.051-.976a2.455,2.455,0,0,1,.436-.039h50.642v67.244Z" transform="translate(-312.327 -353.474)"/><path class="l" d="M414.473,495.289H397.73V428.072h42.59a1.825,1.825,0,0,1,1.538.585l7.564,13.714c.23.416-.254.846-1.1.963q-.217.024-.436.025H417.7c-.9,0-1.616.351-1.616.794h0V494.5c0,.209-.154.416-.462.56a3,3,0,0,1-1.154.234Z" transform="translate(-280.472 -353.471)"/></g></g></g></g></svg>