<svg xmlns="http://www.w3.org/2000/svg" width="19.008" height="19.01" viewBox="0 0 19.008 19.01"><defs><style>.a{fill:#384047;stroke:#374046;stroke-width:0.5px;}</style></defs><g transform="translate(-171.278 -1012.174)"><g transform="translate(177.533 1012.434)"><path class="a" d="M207.907,1012.476a6.8,6.8,0,0,0-6.289,2.8.9.9,0,0,0,.1,1.159h0a.9.9,0,0,0,1.364-.105,5,5,0,1,1,6.97,6.967.9.9,0,0,0-.105,1.364h0a.9.9,0,0,0,1.16.1,6.8,6.8,0,0,0-3.2-12.286Z" transform="translate(-201.451 -1012.435)"/></g><g transform="translate(171.537 1018.43)"><path class="a" d="M177.577,1054.8a6.8,6.8,0,0,0,6.289-2.8.9.9,0,0,0-.1-1.159h0a.9.9,0,0,0-1.363.1,5,5,0,1,1-6.97-6.967.9.9,0,0,0,.105-1.364h0a.9.9,0,0,0-1.16-.1,6.8,6.8,0,0,0,3.2,12.286Z" transform="translate(-171.537 -1042.349)"/></g><rect class="a" width="9.757" height="2.249" rx="1.125" transform="translate(176.57 1024.113) rotate(-45)"/></g></svg>