<svg xmlns="http://www.w3.org/2000/svg" width="53" height="51" viewBox="0 0 53 51"><defs><style>.a,.b{fill:#ffab00;}.a{opacity:0.12;}</style></defs><g transform="translate(-152 -1458)"><rect class="a" width="53" height="51" rx="6" transform="translate(152 1458)"/><g transform="translate(165.999 1471)"><g transform="translate(0 0)"><path class="b" d="M20.962,0H4.04A4.04,4.04,0,0,0,0,4.04V20.962A4.04,4.04,0,0,0,4.04,25H20.962A4.04,4.04,0,0,0,25,20.962V4.04A4.04,4.04,0,0,0,20.962,0ZM22.5,20.962a1.54,1.54,0,0,1-1.54,1.54H4.04a1.54,1.54,0,0,1-1.54-1.54V4.04A1.54,1.54,0,0,1,4.04,2.5H20.962A1.54,1.54,0,0,1,22.5,4.04Z"/><path class="b" d="M23.751,12H11.25a1.25,1.25,0,1,0,0,2.5h12.5a1.25,1.25,0,0,0,0-2.5Zm0,5.5H11.25a1.25,1.25,0,1,0,0,2.5h12.5a1.25,1.25,0,1,0,0-2.5Z" transform="translate(-5 -6)"/><rect class="b" width="13" height="3" rx="1.5" transform="translate(4.949 16.949)"/></g></g></g></svg>