<svg xmlns="http://www.w3.org/2000/svg" width="53" height="51" viewBox="0 0 53 51">
  <g id="Lets_join" data-name="Lets join" transform="translate(-0.254 -0.25)">
    <g id="Group_39893" data-name="Group 39893">
      <rect id="Rectangle_14749" data-name="Rectangle 14749" width="53" height="51" rx="6" transform="translate(0.254 0.25)" fill="#e2f6fe"/>
      <g id="wallet" transform="translate(14.827 13.25)">
        <g id="Group_39892" data-name="Group 39892" transform="translate(0.003 0)">
          <g id="Group_39891" data-name="Group 39891">
            <path id="Path_96411" data-name="Path 96411" d="M23.261,12.285V8.861a2.21,2.21,0,0,0-2.039-2.2l-3.18-5.555A2.192,2.192,0,0,0,15.035.3L4.133,6.646H2.218A2.217,2.217,0,0,0,0,8.861v13.29a2.217,2.217,0,0,0,2.215,2.215H21.046a2.217,2.217,0,0,0,2.215-2.215V18.726a1.659,1.659,0,0,0,1.108-1.559V13.845A1.659,1.659,0,0,0,23.261,12.285Zm-3.326-5.64H15.109l3.62-2.108ZM18.179,3.577,12.908,6.646H10.721l6.911-4.023ZM15.593,1.256a1.071,1.071,0,0,1,.823-.111,1.086,1.086,0,0,1,.665.514v0L8.52,6.646H6.334Zm6.561,20.9a1.109,1.109,0,0,1-1.108,1.108H2.218a1.109,1.109,0,0,1-1.108-1.108V8.861A1.109,1.109,0,0,1,2.218,7.753H21.046a1.109,1.109,0,0,1,1.108,1.108v3.323H18.831a3.323,3.323,0,0,0,0,6.645h3.323v3.323Zm1.108-4.984a.554.554,0,0,1-.554.554H18.831a2.215,2.215,0,0,1,0-4.43h3.876a.554.554,0,0,1,.554.554Z" transform="translate(-0.003 0)" fill="#3dbef8" stroke="#3dbef8" stroke-width="0.8"/>
            <path id="Path_96412" data-name="Path 96412" d="M342.445,277.341a1.108,1.108,0,1,0,1.108,1.108A1.109,1.109,0,0,0,342.445,277.341Z" transform="translate(-323.617 -262.943)" fill="#3dbef8" stroke="#3dbef8" stroke-width="0.8"/>
          </g>
        </g>
      </g>
    </g>
  </g>
</svg>
