<svg xmlns="http://www.w3.org/2000/svg" xmlns:xlink="http://www.w3.org/1999/xlink" width="900" height="1443" viewBox="0 0 900 1443"><defs><style>.a{fill:#fff;}.b{clip-path:url(#a);}.c{opacity:0.513;fill:url(#b);}.d,.e,.f{fill:none;}.d{stroke:#60d141;}.d,.e{stroke-miterlimit:10;stroke-width:1.022px;}.e{stroke:#fff;}</style><clipPath id="a"><rect class="a" width="900" height="1443"/></clipPath><linearGradient id="b" x1="0.5" x2="0.5" y2="1" gradientUnits="objectBoundingBox"><stop offset="0" stop-color="#89c739"/><stop offset="0.414" stop-color="#6dbe4d"/><stop offset="1" stop-color="#1a987c"/></linearGradient></defs><g class="b"><path class="c" d="M365.634,109.3a87.885,87.885,0,0,1-51.719,16.748A88.28,88.28,0,0,1,242.363-13.963H143.711A177.929,177.929,0,0,0,365.634,207.952Z" transform="translate(585.231 13.963)"/><path class="c" d="M107.74,12.237A147.591,147.591,0,1,0,255.33,159.826,147.592,147.592,0,0,0,107.74,12.237Zm0,221.386a73.795,73.795,0,1,1,73.8-73.8A73.8,73.8,0,0,1,107.74,233.623Z" transform="translate(-123.33 118.269)"/><circle class="d" cx="614.569" cy="614.569" r="614.569" transform="translate(-164.568 54.137)"/><circle class="e" cx="651.231" cy="651.231" r="651.231" transform="translate(-201.23 17.475)"/><path class="f" d="M968.047,239.9a203.294,203.294,0,0,1-59.163,8.766c-112.37,0-203.466-91.1-203.466-203.466a203.409,203.409,0,0,1,8.762-59.159H827.032a100.987,100.987,0,0,0,81.852,160.17,100.536,100.536,0,0,0,59.163-19.159ZM297.82,265.877A168.834,168.834,0,1,1,128.985,97.043,168.835,168.835,0,0,1,297.82,265.877Zm-84.415,0A84.419,84.419,0,1,0,128.985,350.3,84.423,84.423,0,0,0,213.4,265.877Z" transform="translate(-68.934 14.854)"/></g></svg>