<svg xmlns="http://www.w3.org/2000/svg" xmlns:xlink="http://www.w3.org/1999/xlink" width="266.043" height="108.214" viewBox="0 0 266.043 108.214"><defs><style>.a{fill:#1a987c;}.b{fill:url(#a);}.c{fill:#4d4d4d;}</style><linearGradient id="a" x1="0.138" y1="0.344" x2="1.006" y2="0.664" gradientUnits="objectBoundingBox"><stop offset="0" stop-color="#89c739"/><stop offset="0.414" stop-color="#6dbe4d"/><stop offset="1" stop-color="#1a987c"/></linearGradient></defs><g transform="translate(-317 -113.234)"><g transform="translate(317 113.234)"><g transform="translate(0 0.068)"><path class="a" d="M224.377,236.389q0-17.027,23.725-17.027,23.783,0,23.784,17.027V247.3H255.348v-10.91q0-5.456-7.188-5.5h-.117q-7.129,0-7.129,5.5v7.356q0,5.415,15.485,13.266,15.485,7.81,15.486,18.721V285.98q0,17.069-23.725,17.068-23.784-.042-23.783-17.068V275.069h16.537V285.98q0,5.5,7.246,5.5,7.188,0,7.188-5.5v-9.257q0-5.867-15.486-13.72-15.486-7.811-15.485-19.01Z" transform="translate(-224.377 -219.362)"/></g><path class="a" d="M722.869,219.181v43.846c0,3.533-2.4,6.73-6.276,9.046A26.013,26.013,0,0,1,709.012,275v28.029H693.88V275c-8.1-1.828-13.857-6.5-13.857-11.975V219.181H695.45v43.768c0,1.977,2.683,3.581,6,3.581s6-1.6,6-3.581V219.181Z" transform="translate(-507.649 -219.181)"/><path class="a" d="M838.2,219.181c-11.524,0-20.864,5.133-20.864,11.467v72.383h15.018V274.99a36.91,36.91,0,0,0,5.846.459,31.278,31.278,0,0,0,14.751-3.357c3.775-2.074,6.109-4.943,6.109-8.11V230.648C859.056,224.314,849.717,219.181,838.2,219.181Zm5.841,35.807c0,.019-.008.034-.008.053s.008.033.008.052v9.333c0,1.772-2.619,3.208-5.841,3.208a8.729,8.729,0,0,1-4.131-.94,2.787,2.787,0,0,1-1.715-2.268V230.394c0-1.771,2.618-3.207,5.846-3.207a8.726,8.726,0,0,1,4.127.94,2.786,2.786,0,0,1,1.714,2.268Z" transform="translate(-593.013 -219.181)"/><path class="a" d="M421.39,219.191v11.385h-17.6v72.461H388.656V230.575h-17.6V219.191Z" transform="translate(-315.565 -219.187)"/><path class="b" d="M565.784,235.536c-.567-9.038-11.1-16.242-24.022-16.242h0c-12.92,0-23.457,7.2-24.023,16.242h-.028v11.873l-6.69-2.785q.016,6.284.033,12.568l6.656,2.718v25.847c0,9.393,10.767,17.008,24.05,17.008h0c13.282,0,24.05-7.614,24.05-17.008V274.7H548.5v11.6c0,2.63-3.015,4.762-6.734,4.762h0c-3.719,0-6.734-2.132-6.734-4.762V272.565c0-.026,0-.05,0-.076s0-.037,0-.056,0-.037,0-.056,0-.05,0-.075v-4.7a33.389,33.389,0,0,0,6.734.68h0c11.017,0,20.3-5.24,23.143-12.386h.025l0-.07a12.423,12.423,0,0,0,.878-4.551V235.536ZM541.762,256.7h0a9.048,9.048,0,0,1-2.777-.43l-1.446-.6-2.511-1.158v-16.42c0-.025,0-.05,0-.076s0-.05,0-.076v-2.006c0-2.63,3.015-4.763,6.734-4.763h0c3.719,0,6.734,2.132,6.734,4.763v2.006c0,.026-.006.05-.006.076s.006.05.006.076v13.848C548.5,254.564,545.481,256.7,541.762,256.7Z" transform="translate(-402.582 -219.251)"/></g><g transform="translate(396.013 202.664)"><g transform="translate(132.111 0.414)"><path class="a" d="M791.366,473.6V462.342h-3.831V459.89h10.248v2.452h-3.832V473.6Z" transform="translate(-787.486 -459.841)"/><path class="a" d="M793.925,473.577h-2.684V462.314H787.41v-2.549h10.346v2.549h-3.831Zm-2.585-.1h2.487V462.216h3.831v-2.353H787.508v2.353h3.832Z" transform="translate(-787.41 -459.765)"/></g><g transform="translate(142.109 4.436)"><path class="a" d="M819.37,478.851h-.154a4.25,4.25,0,0,1-1.061.919,3.017,3.017,0,0,1-1.6.383,3.874,3.874,0,0,1-1.37-.24,3.542,3.542,0,0,1-1.12-.661,2.957,2.957,0,0,1-.746-1.015,3.131,3.131,0,0,1-.268-1.3,2.953,2.953,0,0,1,.285-1.312,3.006,3.006,0,0,1,.8-1,3.622,3.622,0,0,1,1.217-.642,5.046,5.046,0,0,1,1.524-.221,6.551,6.551,0,0,1,1.514.144,7.289,7.289,0,0,1,.975.3v-.287a1.532,1.532,0,0,0-.593-1.235,2.245,2.245,0,0,0-1.476-.488,2.755,2.755,0,0,0-2.2,1.092l-1.819-1.245a4.934,4.934,0,0,1,4.08-1.878,4.857,4.857,0,0,1,3.334,1.025,3.865,3.865,0,0,1,1.149,3.036v5.631H819.37Zm0-2.816a5.247,5.247,0,0,0-.91-.334,3.994,3.994,0,0,0-1.025-.125,2.162,2.162,0,0,0-1.388.393,1.2,1.2,0,0,0-.489.967,1.083,1.083,0,0,0,.47.92,1.782,1.782,0,0,0,1.083.344,2.3,2.3,0,0,0,1.637-.661,2.138,2.138,0,0,0,.622-1.5Z" transform="translate(-813.001 -470.105)"/><path class="a" d="M816.48,480.125a3.952,3.952,0,0,1-1.387-.242,3.626,3.626,0,0,1-1.135-.671,2.988,2.988,0,0,1-.759-1.031,3.194,3.194,0,0,1-.273-1.323,3,3,0,0,1,.292-1.334,3.041,3.041,0,0,1,.818-1.021,3.709,3.709,0,0,1,1.232-.651,5.131,5.131,0,0,1,1.538-.222,6.722,6.722,0,0,1,1.524.145,8.1,8.1,0,0,1,.918.273v-.215a1.489,1.489,0,0,0-.578-1.2,2.2,2.2,0,0,0-1.442-.477,2.722,2.722,0,0,0-2.166,1.074l-.028.035-1.9-1.3.031-.042a5.01,5.01,0,0,1,4.119-1.895,4.923,4.923,0,0,1,3.366,1.037,3.92,3.92,0,0,1,1.165,3.072v5.68h-2.568v-1h-.082a4.329,4.329,0,0,1-1.061.913A3.069,3.069,0,0,1,816.48,480.125Zm.325-6.4a5.049,5.049,0,0,0-1.508.217,3.612,3.612,0,0,0-1.2.633,2.925,2.925,0,0,0-.79.989,2.885,2.885,0,0,0-.284,1.29,3.086,3.086,0,0,0,.264,1.282,2.9,2.9,0,0,0,.736,1,3.516,3.516,0,0,0,1.1.651,3.86,3.86,0,0,0,1.353.237,2.978,2.978,0,0,0,1.575-.376,4.239,4.239,0,0,0,1.05-.909l.014-.018h.226v1h2.372v-5.582a3.829,3.829,0,0,0-1.133-3,4.825,4.825,0,0,0-3.3-1.013,4.908,4.908,0,0,0-4.008,1.817l1.739,1.191a2.8,2.8,0,0,1,2.212-1.075,2.3,2.3,0,0,1,1.5.5,1.585,1.585,0,0,1,.613,1.274v.359l-.068-.027a7.5,7.5,0,0,0-.97-.294A6.585,6.585,0,0,0,816.8,473.728Zm.231,4.443a1.833,1.833,0,0,1-1.111-.353,1.137,1.137,0,0,1-.489-.959,1.249,1.249,0,0,1,.507-1,2.225,2.225,0,0,1,1.42-.4,4.064,4.064,0,0,1,1.038.126,5.34,5.34,0,0,1,.917.338l.029.014v.031a2.171,2.171,0,0,1-.166.833,2.2,2.2,0,0,1-.47.706,2.383,2.383,0,0,1-.735.489A2.354,2.354,0,0,1,817.036,478.171Zm.326-2.623a2.135,2.135,0,0,0-1.359.382,1.158,1.158,0,0,0-.47.929,1.03,1.03,0,0,0,.449.88,1.742,1.742,0,0,0,1.054.335,2.264,2.264,0,0,0,1.6-.646,2.046,2.046,0,0,0,.449-.674,2.067,2.067,0,0,0,.158-.764,5.216,5.216,0,0,0-.874-.318A3.924,3.924,0,0,0,817.361,475.547Z" transform="translate(-812.925 -470.029)"/></g><g transform="translate(153.084 0.414)"><path class="a" d="M841.058,473.6V459.89h2.508V473.6Z" transform="translate(-841.009 -459.841)"/><path class="a" d="M843.539,473.577h-2.606V459.765h2.606Zm-2.508-.1h2.411V459.863h-2.411Z" transform="translate(-840.933 -459.765)"/></g><g transform="translate(157.93 4.436)"><path class="a" d="M853.425,470.461h2.357v1.3h.152a2.4,2.4,0,0,1,.459-.632,3.351,3.351,0,0,1,.64-.5,3.634,3.634,0,0,1,.768-.345,2.673,2.673,0,0,1,.814-.132,2.964,2.964,0,0,1,.851.108,2.145,2.145,0,0,1,.6.277l-.671,2.241a2.312,2.312,0,0,0-.508-.183,2.893,2.893,0,0,0-.68-.066,2.155,2.155,0,0,0-.936.2,2.076,2.076,0,0,0-.72.569,2.7,2.7,0,0,0-.459.857,3.385,3.385,0,0,0-.162,1.068v4.621h-2.509Z" transform="translate(-853.376 -470.105)"/><path class="a" d="M855.907,479.819H853.3v-9.483h2.454v1.3h.074a2.47,2.47,0,0,1,.455-.618,3.39,3.39,0,0,1,.65-.508,3.73,3.73,0,0,1,.776-.35,2.767,2.767,0,0,1,.83-.133,3.056,3.056,0,0,1,.865.108,2.216,2.216,0,0,1,.618.282l.03.021-.011.035-.686,2.3-.052-.026a2.358,2.358,0,0,0-.5-.178,2.878,2.878,0,0,0-.669-.066,2.106,2.106,0,0,0-.916.2,2.008,2.008,0,0,0-.7.556,2.7,2.7,0,0,0-.453.84,3.394,3.394,0,0,0-.158,1.054Zm-2.51-.1h2.41v-4.572a3.444,3.444,0,0,1,.166-1.084,2.784,2.784,0,0,1,.467-.872,2.147,2.147,0,0,1,.737-.581,2.2,2.2,0,0,1,.959-.207,2.953,2.953,0,0,1,.692.069,2.45,2.45,0,0,1,.466.16l.642-2.151a2.128,2.128,0,0,0-.559-.25,2.945,2.945,0,0,0-.838-.1,2.634,2.634,0,0,0-.8.129,3.55,3.55,0,0,0-.755.341,3.3,3.3,0,0,0-.632.492,2.339,2.339,0,0,0-.451.62l-.015.027h-.232v-1.3H853.4Z" transform="translate(-853.3 -470.029)"/></g><g transform="translate(164.806 4.436)"><path class="a" d="M875.952,470.154a5.22,5.22,0,0,1,2,.374,4.643,4.643,0,0,1,2.606,2.615,5.6,5.6,0,0,1,0,4.022,4.644,4.644,0,0,1-2.606,2.614,5.543,5.543,0,0,1-4,0,4.636,4.636,0,0,1-2.605-2.614,5.615,5.615,0,0,1,0-4.022,4.635,4.635,0,0,1,2.605-2.615A5.225,5.225,0,0,1,875.952,470.154Zm0,7.681a2.464,2.464,0,0,0,.928-.182,2.353,2.353,0,0,0,.795-.526,2.5,2.5,0,0,0,.546-.843,3.263,3.263,0,0,0,0-2.259,2.508,2.508,0,0,0-.546-.843,2.353,2.353,0,0,0-.795-.527,2.461,2.461,0,0,0-.928-.182,2.433,2.433,0,0,0-.939.182,2.368,2.368,0,0,0-.785.527,2.492,2.492,0,0,0-.547.843,3.274,3.274,0,0,0,0,2.259,2.486,2.486,0,0,0,.547.843,2.368,2.368,0,0,0,.785.526A2.436,2.436,0,0,0,875.952,477.835Z" transform="translate(-870.923 -470.105)"/><path class="a" d="M875.875,480.125a5.306,5.306,0,0,1-2.02-.377,4.7,4.7,0,0,1-2.631-2.641,5.651,5.651,0,0,1,0-4.059,4.684,4.684,0,0,1,2.631-2.641,5.6,5.6,0,0,1,4.042,0,4.693,4.693,0,0,1,2.631,2.641,5.668,5.668,0,0,1,0,4.059,4.706,4.706,0,0,1-2.631,2.641A5.319,5.319,0,0,1,875.875,480.125Zm0-10a5.2,5.2,0,0,0-1.982.37,4.744,4.744,0,0,0-1.556,1.023,4.683,4.683,0,0,0-1.022,1.565,5.541,5.541,0,0,0,0,3.985,4.668,4.668,0,0,0,1.022,1.563,4.717,4.717,0,0,0,1.556,1.025,5.51,5.51,0,0,0,3.966,0,4.712,4.712,0,0,0,1.554-1.025,4.661,4.661,0,0,0,1.023-1.563,5.542,5.542,0,0,0,0-3.985,4.66,4.66,0,0,0-1.023-1.565,4.728,4.728,0,0,0-1.554-1.023A5.209,5.209,0,0,0,875.875,470.127Zm0,7.681a2.454,2.454,0,0,1-1.759-.723,2.552,2.552,0,0,1-.556-.859,3.328,3.328,0,0,1,0-2.3,2.566,2.566,0,0,1,.556-.859,2.468,2.468,0,0,1,.8-.537,2.549,2.549,0,0,1,1.9,0,2.431,2.431,0,0,1,.812.537,2.573,2.573,0,0,1,.557.859,3.347,3.347,0,0,1,0,2.3,2.571,2.571,0,0,1-.557.859,2.432,2.432,0,0,1-.812.538A2.52,2.52,0,0,1,875.875,477.808Zm0-5.364a2.413,2.413,0,0,0-.92.178,2.359,2.359,0,0,0-.769.517,2.468,2.468,0,0,0-.536.826,3.222,3.222,0,0,0,0,2.223,2.432,2.432,0,0,0,.536.826,2.352,2.352,0,0,0,.769.517,2.457,2.457,0,0,0,1.831,0,2.305,2.305,0,0,0,.777-.516,2.456,2.456,0,0,0,.535-.826,3.223,3.223,0,0,0,0-2.223,2.472,2.472,0,0,0-.533-.826,2.351,2.351,0,0,0-.779-.516A2.425,2.425,0,0,0,875.875,472.444Z" transform="translate(-870.847 -470.029)"/></g><g transform="translate(176.394 4.436)"><path class="a" d="M900.545,470.461H902.9v1.129h.154a2.845,2.845,0,0,1,1.073-1.015,3.54,3.54,0,0,1,1.8-.422,4.063,4.063,0,0,1,1.713.374,4.6,4.6,0,0,1,1.437,1.034,4.943,4.943,0,0,1,.987,1.581,5.756,5.756,0,0,1,0,4.022,4.942,4.942,0,0,1-.987,1.581,4.6,4.6,0,0,1-1.437,1.034,4.052,4.052,0,0,1-1.713.374,3.535,3.535,0,0,1-1.8-.422,2.833,2.833,0,0,1-1.073-1.015H902.9l.154,1.341v3.925h-2.51Zm4.866,7.374a2.408,2.408,0,0,0,.948-.191,2.483,2.483,0,0,0,.794-.538,2.613,2.613,0,0,0,.556-.841,3.05,3.05,0,0,0,0-2.222,2.629,2.629,0,0,0-.556-.842,2.48,2.48,0,0,0-.794-.537,2.4,2.4,0,0,0-.948-.192,2.5,2.5,0,0,0-.948.182,2.358,2.358,0,0,0-.8.527,2.6,2.6,0,0,0-.556.843,3.127,3.127,0,0,0,0,2.259,2.6,2.6,0,0,0,.556.843,2.358,2.358,0,0,0,.8.526A2.505,2.505,0,0,0,905.411,477.835Z" transform="translate(-900.496 -470.105)"/><path class="a" d="M903.026,483.955H900.42v-13.62h2.454v1.13h.075a2.939,2.939,0,0,1,1.076-1.009,3.616,3.616,0,0,1,1.826-.428,4.13,4.13,0,0,1,1.735.379,4.661,4.661,0,0,1,1.452,1.044,4.976,4.976,0,0,1,1,1.6,5.764,5.764,0,0,1,0,4.059,4.973,4.973,0,0,1-1,1.6,4.684,4.684,0,0,1-1.452,1.045,4.134,4.134,0,0,1-1.735.378,3.614,3.614,0,0,1-1.826-.427,2.948,2.948,0,0,1-1.076-1.009h-.071l.148,1.286Zm-2.508-.1h2.411v-3.876l-.161-1.391h.237l.015.025a2.79,2.79,0,0,0,1.055,1,3.516,3.516,0,0,0,1.775.414,4.034,4.034,0,0,0,1.693-.368,4.582,4.582,0,0,0,1.421-1.025,4.859,4.859,0,0,0,.977-1.564,5.683,5.683,0,0,0,0-3.985,4.862,4.862,0,0,0-.977-1.565,4.586,4.586,0,0,0-1.421-1.024,4.029,4.029,0,0,0-1.693-.369,3.516,3.516,0,0,0-1.775.414,2.791,2.791,0,0,0-1.055,1l-.015.024h-.231v-1.129h-2.256Zm4.815-6.05a2.564,2.564,0,0,1-.966-.185,2.459,2.459,0,0,1-.813-.538,2.731,2.731,0,0,1-.566-.858,3.2,3.2,0,0,1,0-2.3,2.718,2.718,0,0,1,.566-.859,2.443,2.443,0,0,1,.813-.537,2.566,2.566,0,0,1,.966-.186,2.449,2.449,0,0,1,.967.2,2.575,2.575,0,0,1,.811.547,2.7,2.7,0,0,1,.566.858,3.1,3.1,0,0,1,0,2.26,2.693,2.693,0,0,1-.568.859,2.55,2.55,0,0,1-.81.547A2.464,2.464,0,0,1,905.334,477.808Zm0-5.364a2.466,2.466,0,0,0-.93.179,2.319,2.319,0,0,0-.779.516,2.6,2.6,0,0,0-.545.827,3.114,3.114,0,0,0,0,2.223,2.626,2.626,0,0,0,.545.827,2.328,2.328,0,0,0,.779.516,2.462,2.462,0,0,0,.93.178,2.338,2.338,0,0,0,.928-.188,2.421,2.421,0,0,0,.779-.526,2.546,2.546,0,0,0,.545-.827,2.969,2.969,0,0,0,0-2.183,2.537,2.537,0,0,0-.545-.827,2.451,2.451,0,0,0-.779-.526A2.352,2.352,0,0,0,905.334,472.444Z" transform="translate(-900.42 -470.029)"/></g><g transform="translate(0 0)"><path class="c" d="M452.3,473.425h-2.038l5.4-14.308h2.079l5.4,14.308H461.1l-1.378-3.877H453.7Zm4.356-12.05-2.338,6.455h4.757l-2.339-6.455Z" transform="translate(-450.265 -458.957)"/><path class="c" d="M504.5,477.221a2.654,2.654,0,0,1-1.118,2.158,4.865,4.865,0,0,1-5.416.11,4.239,4.239,0,0,1-1.6-2.029l1.638-.7a3.034,3.034,0,0,0,1.05,1.369,2.544,2.544,0,0,0,1.508.49,2.658,2.658,0,0,0,1.469-.38,1.078,1.078,0,0,0,.59-.9q0-.939-1.439-1.38l-1.679-.419q-2.857-.72-2.858-2.758a2.546,2.546,0,0,1,1.089-2.148,4.994,4.994,0,0,1,5.137-.19,3.369,3.369,0,0,1,1.468,1.659l-1.639.679a2.052,2.052,0,0,0-.909-.97,2.852,2.852,0,0,0-1.409-.349,2.361,2.361,0,0,0-1.289.359,1.038,1.038,0,0,0-.569.88q0,.839,1.578,1.2l1.479.38Q504.5,475,504.5,477.221Z" transform="translate(-478.302 -465.47)"/><path class="c" d="M523.936,475.942a2.8,2.8,0,0,1-1.988-.738,2.744,2.744,0,0,1-.809-2.059v-5.475H519.42V465.99h1.719v-3h1.839v3h2.4v1.679h-2.4v4.876a1.791,1.791,0,0,0,.379,1.329,1.238,1.238,0,0,0,.86.35,1.8,1.8,0,0,0,.429-.05,2.245,2.245,0,0,0,.39-.129l.581,1.638A4.935,4.935,0,0,1,523.936,475.942Z" transform="translate(-492.321 -461.314)"/><path class="c" d="M541.547,469.827a4.564,4.564,0,0,1,3.218,1.089,3.871,3.871,0,0,1,1.179,2.988v6.035h-1.759V478.58h-.08a3.505,3.505,0,0,1-3.037,1.679,3.95,3.95,0,0,1-2.708-.96,3.06,3.06,0,0,1-1.089-2.4,2.91,2.91,0,0,1,1.149-2.418,4.843,4.843,0,0,1,3.068-.9,5.44,5.44,0,0,1,2.7.6v-.419a2.094,2.094,0,0,0-.758-1.629,2.608,2.608,0,0,0-1.779-.669,2.818,2.818,0,0,0-2.44,1.3l-1.619-1.02A4.517,4.517,0,0,1,541.547,469.827Zm-2.379,7.113a1.47,1.47,0,0,0,.61,1.2,2.247,2.247,0,0,0,1.43.48,2.926,2.926,0,0,0,2.068-.86,2.694,2.694,0,0,0,.909-2.018,3.778,3.778,0,0,0-2.4-.68,3.119,3.119,0,0,0-1.87.54A1.6,1.6,0,0,0,539.167,476.941Z" transform="translate(-503.176 -465.47)"/><path class="c" d="M564.809,465.99h1.759v1.6h.081a3.3,3.3,0,0,1,3.377-1.879l.381.04v1.919l-.82-.079a2.934,2.934,0,0,0-2.108.788,2.652,2.652,0,0,0-.83,2.009v5.4h-1.839Zm11.473,9.952a2.8,2.8,0,0,1-1.989-.738,2.743,2.743,0,0,1-.809-2.059v-5.475h-1.719V465.99h1.719v-3h1.838v3h2.4v1.679h-2.4v4.876a1.79,1.79,0,0,0,.379,1.329,1.24,1.24,0,0,0,.861.35,1.788,1.788,0,0,0,.428-.05,2.22,2.22,0,0,0,.39-.129l.581,1.638A4.94,4.94,0,0,1,576.281,475.942Z" transform="translate(-519.925 -461.314)"/><path class="c" d="M610.814,480.435h-1.758v-1.359h-.079a3.276,3.276,0,0,1-1.289,1.2,3.709,3.709,0,0,1-1.809.478,3.616,3.616,0,0,1-2.768-1.028,4.107,4.107,0,0,1-.968-2.928v-6.155h1.837v6.035a2.161,2.161,0,0,0,2.418,2.4,2.3,2.3,0,0,0,1.839-.888,3.227,3.227,0,0,0,.74-2.129v-5.415h1.838Z" transform="translate(-542.629 -465.967)"/><path class="c" d="M635.06,480.259a4.221,4.221,0,0,1-1.968-.46,3.436,3.436,0,0,1-1.369-1.219h-.081l.081,1.359v4.316h-1.839V470.147h1.757v1.358h.081a3.438,3.438,0,0,1,1.369-1.219,4.344,4.344,0,0,1,5.245,1.059,5.644,5.644,0,0,1,0,7.394A4.2,4.2,0,0,1,635.06,480.259Zm-.3-1.679a2.871,2.871,0,0,0,2.219-1,3.6,3.6,0,0,0,.9-2.538,3.653,3.653,0,0,0-.9-2.539,2.984,2.984,0,0,0-4.457,0,4.128,4.128,0,0,0,0,5.1A2.911,2.911,0,0,0,634.76,478.58Z" transform="translate(-559.501 -465.47)"/><path class="c" d="M673.187,458.709a3.492,3.492,0,0,1,1.64.339l-.5,1.619a2.383,2.383,0,0,0-1.078-.24,1.436,1.436,0,0,0-1.11.47,1.778,1.778,0,0,0-.431,1.248v1.239h2.559v1.679h-2.559v8.113h-1.838v-8.113h-1.838v-1.679h1.838v-1.419a3.137,3.137,0,0,1,.93-2.359A3.293,3.293,0,0,1,673.187,458.709Z" transform="translate(-582.699 -458.709)"/><path class="c" d="M690.372,480h-1.838v-9.793h1.758v1.6h.079a2.661,2.661,0,0,1,1.15-1.329,3.19,3.19,0,0,1,1.708-.549,3.434,3.434,0,0,1,1.359.24l-.559,1.779a3.04,3.04,0,0,0-1.079-.14,2.383,2.383,0,0,0-1.81.839,2.812,2.812,0,0,0-.769,1.959Z" transform="translate(-595.168 -465.532)"/><path class="c" d="M704.19,475.043a5.182,5.182,0,0,1,1.419-3.737,4.835,4.835,0,0,1,3.617-1.479,4.774,4.774,0,0,1,3.6,1.479,5.574,5.574,0,0,1,0,7.475,4.778,4.778,0,0,1-3.6,1.479,4.839,4.839,0,0,1-3.617-1.479A5.185,5.185,0,0,1,704.19,475.043Zm1.839,0a3.577,3.577,0,0,0,.92,2.557,3.138,3.138,0,0,0,4.556,0,3.989,3.989,0,0,0,0-5.1,3.1,3.1,0,0,0-4.556,0A3.554,3.554,0,0,0,706.028,475.043Z" transform="translate(-604.689 -465.47)"/><path class="c" d="M735.609,479.939h-1.839v-9.792h1.758v1.358h.081a3.269,3.269,0,0,1,1.289-1.2,3.542,3.542,0,0,1,1.729-.48,3.58,3.58,0,0,1,1.9.5,2.95,2.95,0,0,1,1.2,1.379,3.819,3.819,0,0,1,3.377-1.879,3.308,3.308,0,0,1,2.619,1.039,4.325,4.325,0,0,1,.919,2.957v6.116H746.8V474.1a3.151,3.151,0,0,0-.5-1.989,2.06,2.06,0,0,0-1.679-.609,2.19,2.19,0,0,0-1.777.9,3.286,3.286,0,0,0-.721,2.119v5.416h-1.839V474.1a3.143,3.143,0,0,0-.5-1.989,2.057,2.057,0,0,0-1.678-.609,2.2,2.2,0,0,0-1.78.9,3.3,3.3,0,0,0-.718,2.119Z" transform="translate(-622.678 -465.47)"/></g></g></g></svg>