<svg xmlns="http://www.w3.org/2000/svg" width="25.824" height="25.824" viewBox="0 0 25.824 25.824">
  <g id="alert" transform="translate(-1 -1)">
    <path id="Path_100424" data-name="Path 100424" d="M13.912,1A12.912,12.912,0,1,0,26.824,13.912,12.912,12.912,0,0,0,13.912,1Zm0,23.477A10.564,10.564,0,1,1,24.477,13.912,10.564,10.564,0,0,1,13.912,24.477Z" fill="#e4794b"/>
    <path id="Path_100425" data-name="Path 100425" d="M12.174,5A1.174,1.174,0,0,0,11,6.174v9.391a1.174,1.174,0,0,0,2.348,0V6.174A1.174,1.174,0,0,0,12.174,5Z" transform="translate(1.738 0.695)" fill="#e4794b"/>
    <circle id="Ellipse_4551" data-name="Ellipse 4551" cx="1" cy="1" r="1" transform="translate(12.912 18.912)" fill="#e4794b"/>
  </g>
</svg>
