<svg xmlns="http://www.w3.org/2000/svg" width="90.177" height="38.314" viewBox="0 0 90.177 38.314">
  <g id="Group_21868" data-name="Group 21868" transform="translate(0)" opacity="0.266">
    <ellipse id="Ellipse_2" data-name="Ellipse 2" cx="3.014" cy="2.949" rx="3.014" ry="2.949" transform="translate(84.149 31.483)" fill="#77c1d8"/>
    <ellipse id="Ellipse_3" data-name="Ellipse 3" cx="3.014" cy="2.949" rx="3.014" ry="2.949" transform="translate(84.149 16.209)" fill="#77c1d8"/>
    <ellipse id="Ellipse_4" data-name="Ellipse 4" cx="3.014" cy="2.949" rx="3.014" ry="2.949" transform="translate(84.149 0.934)" fill="#77c1d8"/>
    <ellipse id="Ellipse_5" data-name="Ellipse 5" cx="3.014" cy="2.949" rx="3.014" ry="2.949" transform="translate(67.498 31.483)" fill="#77c1d8"/>
    <ellipse id="Ellipse_6" data-name="Ellipse 6" cx="3.014" cy="2.949" rx="3.014" ry="2.949" transform="translate(67.498 16.209)" fill="#77c1d8"/>
    <ellipse id="Ellipse_7" data-name="Ellipse 7" cx="3.014" cy="2.949" rx="3.014" ry="2.949" transform="translate(67.498 0.934)" fill="#77c1d8"/>
    <path id="Path_40554" data-name="Path 40554" d="M2.94,6.025A3.007,3.007,0,0,0,5.9,3a2.957,2.957,0,0,0-2.94-3A3.007,3.007,0,0,0,0,3.023,2.957,2.957,0,0,0,2.94,6.025Z" transform="translate(51.36 37.826) rotate(-99.217)" fill="#77c1d8"/>
    <path id="Path_40555" data-name="Path 40555" d="M2.94,6.025A3.007,3.007,0,0,0,5.9,3a2.957,2.957,0,0,0-2.94-3A3.007,3.007,0,0,0,0,3.023,2.957,2.957,0,0,0,2.94,6.025Z" transform="translate(51.36 22.552) rotate(-99.217)" fill="#77c1d8"/>
    <path id="Path_40556" data-name="Path 40556" d="M2.94,6.025A3.007,3.007,0,0,0,5.9,3a2.957,2.957,0,0,0-2.94-3A3.007,3.007,0,0,0,0,3.023,2.957,2.957,0,0,0,2.94,6.025Z" transform="translate(51.36 7.278) rotate(-99.217)" fill="#77c1d8"/>
    <ellipse id="Ellipse_11" data-name="Ellipse 11" cx="3.014" cy="2.949" rx="3.014" ry="2.949" transform="translate(34.196 31.483)" fill="#77c1d8"/>
    <ellipse id="Ellipse_12" data-name="Ellipse 12" cx="3.014" cy="2.949" rx="3.014" ry="2.949" transform="translate(34.196 16.209)" fill="#77c1d8"/>
    <ellipse id="Ellipse_13" data-name="Ellipse 13" cx="3.014" cy="2.949" rx="3.014" ry="2.949" transform="translate(34.196 0.934)" fill="#77c1d8"/>
    <ellipse id="Ellipse_14" data-name="Ellipse 14" cx="3.014" cy="2.949" rx="3.014" ry="2.949" transform="translate(17.545 31.483)" fill="#77c1d8"/>
    <ellipse id="Ellipse_15" data-name="Ellipse 15" cx="3.014" cy="2.949" rx="3.014" ry="2.949" transform="translate(17.545 16.209)" fill="#77c1d8"/>
    <ellipse id="Ellipse_16" data-name="Ellipse 16" cx="3.014" cy="2.949" rx="3.014" ry="2.949" transform="translate(17.545 0.934)" fill="#77c1d8"/>
    <path id="Path_40557" data-name="Path 40557" d="M2.981,5.916A3.038,3.038,0,0,0,6.009,2.935,2.926,2.926,0,0,0,3.028,0,3.038,3.038,0,0,0,0,2.981,2.926,2.926,0,0,0,2.981,5.916Z" transform="translate(5.552 38.314) rotate(-157.5)" fill="#77c1d8"/>
    <path id="Path_40558" data-name="Path 40558" d="M2.981,5.916A3.038,3.038,0,0,0,6.009,2.935,2.926,2.926,0,0,0,3.028,0,3.038,3.038,0,0,0,0,2.981,2.926,2.926,0,0,0,2.981,5.916Z" transform="translate(5.552 23.04) rotate(-157.5)" fill="#77c1d8"/>
    <path id="Path_40559" data-name="Path 40559" d="M2.981,5.916A3.038,3.038,0,0,0,6.009,2.935,2.926,2.926,0,0,0,3.028,0,3.038,3.038,0,0,0,0,2.981,2.926,2.926,0,0,0,2.981,5.916Z" transform="translate(5.552 7.766) rotate(-157.5)" fill="#77c1d8"/>
  </g>
</svg>
