<svg id="Component_52_1" data-name="Component 52 – 1" xmlns="http://www.w3.org/2000/svg" xmlns:xlink="http://www.w3.org/1999/xlink" width="282" height="323" viewBox="0 0 282 323">
  <defs>
    <clipPath id="clip-path">
      <rect id="Rectangle_17188" data-name="Rectangle 17188" width="282" height="323" rx="6" transform="translate(2136 4645)" fill="#ecfbff"/>
    </clipPath>
  </defs>
  <g id="Mask_Group_250" data-name="Mask Group 250" transform="translate(-2136 -4645)" clip-path="url(#clip-path)">
    <g id="Group_40916" data-name="Group 40916" transform="translate(2078.814 4588.45)">
      <path id="Path_98688" data-name="Path 98688" d="M154.875,210.257c-.614,1.052-1.84,8.319-1.489,10.77s4.424,16.461,4.424,16.461a10.184,10.184,0,0,0,2.3,1.161c1.467.547,12.72-12.871,11.931-17.25S154.875,210.257,154.875,210.257Z" transform="translate(8.201 11.813)" fill="#583b1b"/>
      <path id="Path_98689" data-name="Path 98689" d="M155.3,220.664c-1.373,2.12,1.624,15.328,2.831,19.282.191.628-17.853-32.132.172-47.7,3.158-2.727,12.073-4.062,19.092-4.667,6.573-.566,28.227-.744,28.972-.394C206.5,187.248,165.075,205.577,155.3,220.664Z" transform="translate(7.88 9.356)" fill="#846251"/>
      <path id="Path_98690" data-name="Path 98690" d="M171.457,197.819c-6.479,3.5-10.333,8.405-13.134,18.038s2.977,5.779-.176,22.241-.876,33.625,6.479,40.98,46.759,6.3,56.566-4.2-6.352-72.349-16.486-78.03S171.457,197.819,171.457,197.819Z" transform="translate(8.564 10.154)" fill="#503825"/>
      <path id="Path_98691" data-name="Path 98691" d="M178.548,194.176c-6.479,3.5-10.333,8.406-13.134,18.038s2.976,5.779-.176,22.241-2.627,34.151,4.728,41.506,42.4,6.9,52.207-3.606-.241-73.472-10.375-79.153S178.548,194.176,178.548,194.176Z" transform="translate(9.266 9.769)" fill="#392515"/>
      <path id="Path_98692" data-name="Path 98692" d="M162.067,197.04c-12.688-.959-7.774.826-26.3-4.75.741.563-19.585-12.126-33.744-39.108L94.876,159.4c12.7,23.7,25.45,38.488,42.774,48.454,5.409,3.112,10.655,3.2,16.218,5.246Z" transform="translate(2.024 5.782)" fill="#f9a873"/>
      <path id="Path_98693" data-name="Path 98693" d="M224.245,367.446c-.962,1.05-5.429,5.253-5.429,5.253L214,378.478s5.078,9.807,8.581,14.535,16.023,9.195,17.6,4.378-8.056-11.032-9.457-15.587a27.025,27.025,0,0,1-1.139-8.669Z" transform="translate(14.613 28.425)" fill="#240901"/>
      <path id="Path_98694" data-name="Path 98694" d="M142.737,373.858s-7.18,8.932-7.531,11.383-3.765,22.942-10.245,25.393-8.143-5.429-6.742-16.287,6.655-17.337,8.406-18.213,14.186-8.056,14.186-8.056Z" transform="translate(4.442 28.492)" fill="#240901"/>
      <path id="Path_98695" data-name="Path 98695" d="M186.617,273.49c-3.45,8.736-18.782,66.4-18.782,66.4l-37.656,42.6s2.639,12.942,6.871,9.239c2.25-1.967,41.065-32.434,49.854-40.385,5.133-4.643,21.878-42.021,22.993-42.144,2.381-.264,39.212,23.2,39.212,23.2s-20,46.224-20.245,48.579,5.1,5.648,9.6,4.324,36.243-49.911,34.656-54.144-40.739-57.67-40.739-57.67Z" transform="translate(5.755 18.496)" fill="#45260c"/>
      <path id="Path_98696" data-name="Path 98696" d="M220.178,210.955c6.665,3.066,6.721,4.589,20.495,6.353-.677-.515,21.921,16.72,43.178,26.643l3.169-5.367c-13.642-11.11-29.736-25.541-40.61-32.3-7.8-4.848-12.05-4.793-19.921-7.688Z" transform="translate(15.265 10.581)" fill="#f9a873"/>
      <path id="Path_98697" data-name="Path 98697" d="M275.52,235.431l2.436,4.268s5.093,17.359,5.894,16.318,0-10.734,0-10.734,10.093,5.447,12.014,7.289,6.569,6.169,6.167,4.727-6.087-8.892-6.087-8.892,4.165,3.565,4.646,4.125,3.164,3.365,3.284,1.562c.151-2.279-11.874-14.59-14.551-15.642-2.243-.881-8.2-4.119-8.2-4.119Z" transform="translate(21.114 14.358)" fill="#f9a873"/>
      <path id="Path_98698" data-name="Path 98698" d="M283.053,243.212c2,1.922,7.81,6.608,7.89,6.888s3.725,9.251,4.125,7.89-1.4-8.571-1.561-8.811-6.609-6.208-6.929-6.248S283.053,243.212,283.053,243.212Z" transform="translate(21.91 15.266)" fill="#f9a873"/>
      <path id="Path_98699" data-name="Path 98699" d="M238.715,216.591c-.677-.515,21.921,16.72,43.178,26.643l-1.979-3.469-36.9-25.513,1.1-8.864C243.928,206.81,240.952,212.234,238.715,216.591Z" transform="translate(17.223 11.299)" fill="#f59a60"/>
      <path id="Path_98700" data-name="Path 98700" d="M275.933,236.049l1.979,3.468s4.552,15.516,5.726,16.33l.168-.012-4.083-17.425-.846-.526Z" transform="translate(21.157 14.539)" fill="#f9a873"/>
      <path id="Path_98701" data-name="Path 98701" d="M136.361,190.086l-3.5,25.267,37.583,6.715s4.465,61.195,4.5,76.749c.021,9.678,52.923,2.956,67.662-7.594l-15.943-72.379s20.663,8.568,20.4,6.716,10.025-18.885,8.437-18.885c-1.089,0-31.577-19.046-36.113-19.311-4.889-.284-10.4-.551-14.6.211-9.93,1.8-17.276,6.209-25.8,4.976C172.9,190.931,154.778,191.7,136.361,190.086Z" transform="translate(6.038 9.364)" fill="#8475d0"/>
      <path id="Path_98702" data-name="Path 98702" d="M228.924,261.884l-9.481-43.042s20.663,8.568,20.4,6.716c-.241-1.687,8.284-15.984,8.593-18.5l-10.482,10.222L221.491,206.33l-8-15.319L202.71,187.1q-.768.022-1.514.065l13.012,41.6s7.946,21.513,7.96,22.571C222.174,251.821,225.425,256.784,228.924,261.884Z" transform="translate(13.259 9.366)" fill="#5b5190"/>
      <path id="Path_98703" data-name="Path 98703" d="M200.4,187.528c-.882.149-2.6.168-3.441.326-5.3.988-9.243,2.267-15.9,3.271-1.838.278-4.38,1.231-6.468,1.379a6.272,6.272,0,0,0-.2,1.557c0,5.3,6.721,9.59,15.012,9.59s15.013-4.293,15.013-9.59C204.422,191.536,202.895,189.241,200.4,187.528Z" transform="translate(10.427 9.412)" fill="#f9a873"/>
      <path id="Path_98704" data-name="Path 98704" d="M177.627,179.173c.661,2.116,3.7,17.856,3.7,17.856s7.671,3.44,12.169.662,4.894-4.629,4.894-4.629l-6.613-15.476Z" transform="translate(10.769 8.361)" fill="#f9a873"/>
      <path id="Path_98705" data-name="Path 98705" d="M155.591,170.4c-2.343-3.576-3.86-5.369-9.162-18.068s3.946-19.727,3.946-19.727a25.55,25.55,0,0,1,3.576-14.179c4.192-6.657,6.04-8.384,5.671-7.028s.123,3.083.369,2.1,8.015-8.138,8.015-8.138.8,3.576,1.233,3.145,1.357-2.281,12.576-5.426,20.467-3.576,19.728-3.021-4.193,3.7-3.453,3.452,9.741,0,13.748-.678,5.857-1.541,4.993-1.11-4.069,8.569-6.1,10.727a14.806,14.806,0,0,1-2.1,2.1s.863-.8,7.46,2.036,8.754,5.733,8.384,5.486-12.021,1.171-12.021,1.171,3.637,13.439,3.021,17.385-3.2,16.554-4,16.74Z" transform="translate(7.299 0.146)" fill="#651906"/>
      <path id="Path_98706" data-name="Path 98706" d="M174.268,119.21c17.915-3.86,31.827,10.722,36.237,31.2s-2.348,39.088-20.264,42.948-32.546-10.146-36.957-30.619S156.352,123.069,174.268,119.21Z" transform="translate(8.066 2.126)" fill="#fbb98c"/>
      <path id="Path_98707" data-name="Path 98707" d="M152.112,148.278c.551-10.095,4.321-18.921,11.1-24.41,6.819.44,28,4.293,28,4.293s6.217,4.729,6.742,4.729-.788.787-5.955,1.4-19.964-1.226-20.489-1.4,6.392,7.093,6.392,7.093-2.189.613-9.719-1.4a25.429,25.429,0,0,1-9.5-5.371c-1.119,2.116-2.468,4.81-3.723,7.209A37.97,37.97,0,0,0,152.112,148.278Z" transform="translate(8.072 2.684)" fill="#f99d63"/>
      <path id="Path_98708" data-name="Path 98708" d="M153.227,126.2c3.31,3.044,7.645,7.15,18.617,9s12.823.986,12.823.986-5.919-5.055-4.315-4.562,9.741,1.109,15.782,1.233,5.671-.247,5.671-.247-6.9-4.192-5.424-4.192,11.343-1.11,11.343-1.11-6.288-13.193-18.864-14.426S153.227,126.2,153.227,126.2Z" transform="translate(8.19 1.516)" fill="#651906"/>
      <path id="Path_98709" data-name="Path 98709" d="M166,149.379c1.661,0,3.36,2.239,3.8,5s-.557,5-2.218,5-3.359-2.24-3.8-5S164.338,149.379,166,149.379Z" transform="translate(9.295 5.38)" fill="#4d0c01"/>
      <path id="Path_98710" data-name="Path 98710" d="M191.758,143.023c1.661,0,3.359,2.239,3.8,5s-.557,5-2.218,5-3.359-2.239-3.8-5S190.1,143.023,191.758,143.023Z" transform="translate(12.017 4.708)" fill="#4d0c01"/>
      <path id="Path_98711" data-name="Path 98711" d="M178.152,152.317c0,.986,9.988,7.274,9.988,7.274,1.8,2.951-7.426,8.852-9.741,6.041a9.508,9.508,0,0,0,7.829-5.579C184.268,158.832,177.963,154.924,178.152,152.317Z" transform="translate(10.824 5.691)" fill="#f79961"/>
      <path id="Path_98712" data-name="Path 98712" d="M97.761,162.35c1.086-.48,5.988-2.087,7.523-4.781s-1.545-12.786-2.826-16.058-6.009-16.86-7.838-15.807,3.22,16.481,2.774,16.622-11.089-18.551-13.752-16.989,9.774,19.3,9.131,19.705-11.011-14.7-13.057-12.784,9.8,16.135,8.605,16.091S77.446,137.9,75.866,140s10.561,12.4,10.561,12.4,4.153,5.99,7.479,8.367S97.761,162.35,97.761,162.35Z" transform="translate(0 2.83)" fill="#f9a873"/>
      <path id="Path_98713" data-name="Path 98713" d="M88.5,149.042s.178,2.3,4.486,5.455a34.066,34.066,0,0,0,5.363,3.174,31.361,31.361,0,0,0,3.516,1.454,38.138,38.138,0,0,1-4.1,1.831s-.234.354-1.372-.111a12.873,12.873,0,0,1-2.483-1.469c-3.326-2.377-7.479-8.367-7.479-8.367s-12.14-10.3-10.561-12.4a.682.682,0,0,1,.2-.179,31.955,31.955,0,0,0,5.754,6.776A25.909,25.909,0,0,0,88.5,149.042Z" transform="translate(0 4.223)" fill="#f9a873"/>
      <path id="Path_98714" data-name="Path 98714" d="M101.73,158.16c.135-.663,1.295-.869,1.573-2.483a99.425,99.425,0,0,0,.834-12.2c.015-.876-2.033-11.231-2.96-9.832-2.445,3.693.621,8.593-2.029,14.2C96.179,154.128,97.644,159.642,101.73,158.16Z" transform="translate(2.31 3.704)" fill="#f9a873"/>
      <path id="Path_98715" data-name="Path 98715" d="M151.69,154.727c3.327,0,6.635,3.568,7.389,7.969s-1.332,7.969-4.66,7.969-6.635-3.568-7.389-7.969S148.362,154.727,151.69,154.727Z" transform="translate(7.519 5.945)" fill="#fbb98c"/>
      <path id="Path_98716" data-name="Path 98716" d="M206.891,140.868c3.328,0,6.236,3.567,6.5,7.969s-2.227,7.968-5.554,7.968-6.236-3.567-6.5-7.968S203.564,140.868,206.891,140.868Z" transform="translate(13.272 4.481)" fill="#fbb98c"/>
      <path id="Path_98717" data-name="Path 98717" d="M121.02,406.353c-2.277-6.129.744-18.651,2.451-23.161a72.5,72.5,0,0,1,3.892-8.181c-.325.177-.576.311-.737.391-1.751.876-7.006,7.355-8.406,18.213-1.3,10.111.049,17.641,5.474,16.648A7.572,7.572,0,0,1,121.02,406.353Z" transform="translate(4.442 29.224)" fill="#e2cab6"/>
      <path id="Path_98718" data-name="Path 98718" d="M125.837,384.13a.876.876,0,1,1,0-1.751,27.844,27.844,0,0,1,3.6,1.139,14.6,14.6,0,0,1,2.478,1.194,12.881,12.881,0,0,1,2.672,2.214.873.873,0,1,1-1.348,1.109,10.925,10.925,0,0,0-2.275-1.859,12.907,12.907,0,0,0-2.163-1.03C127.307,384.563,125.9,384.13,125.837,384.13Z" transform="translate(5.203 30.003)" fill="#f98300"/>
      <path id="Path_98719" data-name="Path 98719" d="M133.737,389.9a.874.874,0,1,1-1.088,1.369,17.11,17.11,0,0,0-3.907-2.364,24.783,24.783,0,0,0-4.42-1.383.873.873,0,0,1,.384-1.7,26.48,26.48,0,0,1,4.728,1.486A18.862,18.862,0,0,1,133.737,389.9Z" transform="translate(5.064 30.364)" fill="#f98300"/>
      <path id="Path_98720" data-name="Path 98720" d="M132.483,393.15a.875.875,0,1,1-1.307,1.163,13.839,13.839,0,0,0-3.452-1.949,12.938,12.938,0,0,0-3.641-1.2.872.872,0,1,1-.049-1.744,13.736,13.736,0,0,1,4.394,1.346A14.884,14.884,0,0,1,132.483,393.15Z" transform="translate(5.016 30.746)" fill="#f98300"/>
      <path id="Path_98721" data-name="Path 98721" d="M225.875,380.694a.582.582,0,0,1-.642-.972c.119-.079.236-.148.346-.209l.034-.017a5.108,5.108,0,0,1,2.661-.583,2.818,2.818,0,0,1,2.237,1.115c.038.056.069.107.093.152a.584.584,0,0,1-1.026.556l-.038-.065a1.7,1.7,0,0,0-1.339-.594,3.927,3.927,0,0,0-2.038.446l-.029.017C226.039,380.591,225.953,380.643,225.875,380.694Z" transform="translate(15.772 29.636)" fill="#f98300"/>
      <path id="Path_98722" data-name="Path 98722" d="M236.087,395.8c-11.528-1.781-15.96-12.918-20.459-20.139L214,377.611s5.078,9.807,8.581,14.535,16.023,9.195,17.6,4.378a3.539,3.539,0,0,0,.174-1.139A9.454,9.454,0,0,1,236.087,395.8Z" transform="translate(14.613 29.292)" fill="#e2cab6"/>
      <path id="Path_98723" data-name="Path 98723" d="M227.736,384.02a.582.582,0,1,1-.642-.971c.119-.08.235-.149.346-.209l.034-.018a5.109,5.109,0,0,1,2.661-.582,2.817,2.817,0,0,1,2.237,1.113c.038.056.069.107.093.151a.584.584,0,1,1-1.026.556L231.4,384a1.7,1.7,0,0,0-1.339-.593,3.918,3.918,0,0,0-2.038.446l-.029.016C227.9,383.918,227.814,383.969,227.736,384.02Z" transform="translate(15.969 29.987)" fill="#f98300"/>
      <path id="Path_98724" data-name="Path 98724" d="M230.152,387.069a.582.582,0,0,1-.643-.971c.121-.08.236-.149.347-.209l.034-.018a5.1,5.1,0,0,1,2.66-.582,2.819,2.819,0,0,1,2.238,1.113c.036.056.067.107.092.151a.584.584,0,1,1-1.026.556l-.038-.065a1.7,1.7,0,0,0-1.339-.594,3.931,3.931,0,0,0-2.038.447l-.028.017C230.316,386.967,230.229,387.018,230.152,387.069Z" transform="translate(16.224 30.309)" fill="#f98300"/>
      <path id="Path_98725" data-name="Path 98725" d="M166.485,191.353s-2.106,38.033-1.406,49.241,3.752,16.473,5.5,13.672,8.8-58.818,8.261-62.557S166.4,188.815,166.485,191.353Z" transform="translate(9.428 9.585)" fill="#72513e"/>
      <path id="Path_98726" data-name="Path 98726" d="M212.192,187.614s12.75,34.528,14.137,45.736-.682,16.473-2.955,13.672-13.273-50.89-22.36-59.595C199.982,184.677,210.843,182.973,212.192,187.614Z" transform="translate(13.233 9.115)" fill="#72513e"/>
      <path id="Path_98727" data-name="Path 98727" d="M172.984,146.227c-3.133.292-11.289,1.691-13.5,2.656s-2.515-2.685-.511-3.362,9.7-2.466,12.436-2.884S173.846,146.4,172.984,146.227Z" transform="translate(8.656 4.664)" fill="#651906"/>
      <path id="Path_98728" data-name="Path 98728" d="M185.631,143.6c2.818-1.4,10.488-4.507,12.875-4.849s.725-3.607-1.336-3.128-9.549,3.013-12.091,4.1S184.989,144.2,185.631,143.6Z" transform="translate(11.437 3.921)" fill="#651906"/>
      <g id="Group_40904" data-name="Group 40904" transform="translate(163.722 112.01)">
        <path id="Path_98729" data-name="Path 98729" d="M155.366,123.468c-.939-5.475,10.418-14.29,15.148-12.522C164.839,113.562,158.812,118.226,155.366,123.468Z" transform="translate(-155.311 -110.716)" fill="#5a1404"/>
      </g>
      <g id="Group_40905" data-name="Group 40905" transform="translate(171.744 114.039)">
        <path id="Path_98730" data-name="Path 98730" d="M162.567,119.771c14.285-9.716,13.857-7.46,30.56-5.516C180.836,117.694,182.931,111.57,162.567,119.771Z" transform="translate(-162.567 -112.551)" fill="#5a1404"/>
      </g>
      <g id="Group_40906" data-name="Group 40906" transform="translate(183.741 107.782)">
        <path id="Path_98731" data-name="Path 98731" d="M173.417,107.847c15.985-4.487,24.261,8.69,31.435,1.314.6,1.287-2.138,2.519-2.889,2.793C192.543,115.4,188.063,107.842,173.417,107.847Z" transform="translate(-173.417 -106.891)" fill="#7e290f"/>
      </g>
      <g id="Group_40907" data-name="Group 40907" transform="translate(190.483 102.479)">
        <path id="Path_98732" data-name="Path 98732" d="M179.515,104.5c4.96-2.477,5.428-3.005,10.858-1.751C185.583,104.558,184.627,105.456,179.515,104.5Z" transform="translate(-179.515 -102.096)" fill="#5a1404"/>
      </g>
      <g id="Group_40908" data-name="Group 40908" transform="translate(169.993 126.513)">
        <path id="Path_98733" data-name="Path 98733" d="M160.983,123.833c3.75,3.154,11.836,6.433,16.638,6.918C177.871,133.414,161.5,130.3,160.983,123.833Z" transform="translate(-160.983 -123.833)" fill="#7e290f"/>
      </g>
      <g id="Group_40909" data-name="Group 40909" transform="translate(177.348 123.273)">
        <path id="Path_98734" data-name="Path 98734" d="M167.635,120.9c4.513,2.74,18.679,5.391,24.168,5.43C187.585,129.978,167.61,124.944,167.635,120.9Z" transform="translate(-167.635 -120.902)" fill="#5a1404"/>
      </g>
      <g id="Group_40910" data-name="Group 40910" transform="translate(182.778 119.28)">
        <path id="Path_98735" data-name="Path 98735" d="M172.546,119.27c22.878-4.721,26.395-1.686,36.6,16.637C193.1,118.608,200.21,119.477,172.546,119.27Z" transform="translate(-172.546 -117.291)" fill="#7e290f"/>
      </g>
      <g id="Group_40911" data-name="Group 40911" transform="translate(205.894 117.582)">
        <path id="Path_98736" data-name="Path 98736" d="M193.453,115.755c6.28,1.884,14.645,1.339,18.826,2.627C208.45,121.109,193.444,119.01,193.453,115.755Z" transform="translate(-193.453 -115.755)" fill="#5a1404"/>
      </g>
      <g id="Group_40912" data-name="Group 40912" transform="translate(200.028 105.236)">
        <path id="Path_98737" data-name="Path 98737" d="M188.147,104.589c5.913.8,14.2,2.1,20.053.262C204.731,111.236,192.351,106.763,188.147,104.589Z" transform="translate(-188.147 -104.589)" fill="#5a1404"/>
      </g>
      <g id="Group_40913" data-name="Group 40913" transform="translate(155.768 134.132)">
        <path id="Path_98738" data-name="Path 98738" d="M154.331,130.723c-1.985,5.973-4.825,11.6-4.182,17.983l-.071-.017.05.028c0,.121.017.07-.02.157a.122.122,0,0,1-.137,0C144.637,144.98,152.305,133.512,154.331,130.723Z" transform="translate(-148.117 -130.723)" fill="#7e290f"/>
      </g>
      <g id="Group_40914" data-name="Group 40914" transform="translate(152.625 137.677)">
        <path id="Path_98739" data-name="Path 98739" d="M148.983,133.93c-.711,3.415-1.82,6.723-2.245,10.2l-.057-.1c.046.221.042.1-.019.368C145.245,144.57,143.624,136.872,148.983,133.93Z" transform="translate(-145.275 -133.93)" fill="#5a1404"/>
      </g>
      <g id="Group_40915" data-name="Group 40915" transform="translate(162.244 127.914)">
        <path id="Path_98740" data-name="Path 98740" d="M153.975,125.1c6.967,1.207,3.926-.166,9.238,3.853C156.594,127.887,159.7,129.111,153.975,125.1Z" transform="translate(-153.975 -125.1)" fill="#331907"/>
      </g>
      <path id="Path_98741" data-name="Path 98741" d="M96.971,156.2a34.063,34.063,0,0,1-5.363-3.174q-.468-.342-.871-.67l-2,1.9a24.23,24.23,0,0,0,3.791,3.652,9.69,9.69,0,0,0,3.033,1.651c.668.161.823-.072.823-.072.342-.151,1.063-.415,1.937-.788-.232-.418-.437-.792-.613-1.113C97.231,156.7,96.971,156.2,96.971,156.2Z" transform="translate(1.375 5.695)" fill="#f59a60"/>
      <path id="Path_98742" data-name="Path 98742" d="M97.671,158.091c-.875.374-1.6.637-1.937.788,0,0-.155.233-.823.072,12.688,23.657,25.428,38.426,42.735,48.382.237.136.472.265.707.39l.818-5.905s-15.73-9.541-25.187-19.961C106.822,173.967,100.377,162.967,97.671,158.091Z" transform="translate(2.028 6.301)" fill="#f59a60"/>
      <path id="Path_98743" data-name="Path 98743" d="M152.137,211.681a26.936,26.936,0,0,1-4.826-3.65c-6.4-5.933-11.495-14.675-11.495-14.675l-.656,4.735L134.342,204l-1.479,10.692,19.88,3.553,2.942.525,2.046.366,2.374.423,8.456,1.511.027-.866q.036-1.154.076-2.318c.078-2.3.167-4.615.258-6.864.033-.821.067-1.635.1-2.437.114-2.676.23-5.219.337-7.5.149-3.157.285-5.809.379-7.614l-.635,7.837-.622,7.676-.448,5.534-.181,2.233s-.5-.034-1.471-.2a43.2,43.2,0,0,1-5.283-1.306l-.028-.009c-1.331-.41-2.846-.931-4.533-1.59-.908-.355-1.864-.749-2.87-1.189A16.033,16.033,0,0,1,152.137,211.681Z" transform="translate(6.038 10.028)" fill="#5b5190"/>
      <path id="Path_98744" data-name="Path 98744" d="M168.912,253.986c.474,7.316.946,14.953,1.333,21.9.116,2.084.224,4.106.323,6.038.339,6.668.559,12.269.567,15.677,0,1.87,1.984,3.128,5.28,3.863,12.775,2.853,45.337-2.13,59.456-9.665q1.022-.546,1.91-1.108c-.9-.046-1.855-.108-2.855-.191a96.516,96.516,0,0,1-32.556-8.629q-.5-.232-.99-.466-1.675-.8-3.22-1.609c-20.542-10.736-24.068-22.18-24.4-24.812-.32-2.551,3.388-47.2,4.053-55.177.065-.784.1-1.213.1-1.213-.039.4-.08.806-.122,1.225-1.71,16.936-6.275,51.274-7.636,53.452C169.791,253.862,169.363,254.095,168.912,253.986Z" transform="translate(9.848 10.581)" fill="#5b5190"/>
      <path id="Path_98745" data-name="Path 98745" d="M152.106,157.213c-4.44,0-4.306,8.026.614,10.157,2.627,1.139,3.021-1.182,2.539-1.926s-1.707-.395-2.539-2.015.5-1.178.7-2.976A4.389,4.389,0,0,0,152.106,157.213Z" transform="translate(7.733 6.208)" fill="#f39157"/>
      <path id="Path_98746" data-name="Path 98746" d="M205.085,143.332c3.753-2.374,7.93,4.48,4.912,8.912-1.611,2.366-3.184.616-3.175-.27s1.232-1.246,1.069-3.061-1.055-.726-2.184-2.141A4.387,4.387,0,0,1,205.085,143.332Z" transform="translate(13.658 4.69)" fill="#f39157"/>
      <path id="Path_98747" data-name="Path 98747" d="M151.575,147.432s5.955,15.761,5.3,15.893-5.867-9.282-5.867-9.282Z" transform="translate(7.956 5.174)" fill="#651906"/>
      <path id="Path_98748" data-name="Path 98748" d="M201.612,135.369s1.571,16.775,2.219,16.605,1.2-10.915,1.2-10.915Z" transform="translate(13.303 3.9)" fill="#651906"/>
      <path id="Path_98749" data-name="Path 98749" d="M176.543,346.291c3.677-4.553,15.411-44.131,15.411-44.131s9.633-.876,30.3-8.581a91.167,91.167,0,0,0,18.634-9.42q-.471-.647-.922-1.268c-14.118,7.535-46.681,12.517-59.456,9.665-5.616,19.8-12.673,46.34-12.673,46.34l-37.656,42.6s.064.311.186.821a35.94,35.94,0,0,0,1.44,4.644c2.2-1.946,5.149-4.552,8.484-7.511C153.95,367.329,174.136,349.271,176.543,346.291Z" transform="translate(5.755 19.489)" fill="#3d1b07"/>
      <path id="Path_98750" data-name="Path 98750" d="M202.277,306.356c2.381-.264,39.212,23.2,39.212,23.2s-20,46.224-20.245,48.579a1.637,1.637,0,0,0,.028.5c.242,1.2,1.717,2.536,3.67,3.354l2.216-5.677,17.773-45.532,11.383-1.751-7.705-5.429-38.186-23.172Z" transform="translate(13.374 21.342)" fill="#3d1b07"/>
      <path id="Path_98751" data-name="Path 98751" d="M181.039,186.66c-10.313-.731-19.028-7.313-24.6-17.264-.044.044-.091.088-.137.13,5.253,11.67,14.4,19.6,25.437,20.527a27.3,27.3,0,0,0,8.058-.551,26.922,26.922,0,0,0,7.194-2.626c10.4-5.636,15.158-17.766,14.273-31.762-.083-.024-.165-.051-.247-.078-.022,12.846-5.138,23.715-15.342,28.762a28.169,28.169,0,0,1-6.69,2.29A28.606,28.606,0,0,1,181.039,186.66Z" transform="translate(8.515 5.978)" fill="#faad79"/>
      <path id="Path_98752" data-name="Path 98752" d="M194.73,164.58a11.58,11.58,0,0,1,.747,1.7,10.907,10.907,0,0,1-6.6,14.01,11.063,11.063,0,0,1-13.894-7.043,11.541,11.541,0,0,1-.464-1.8Z" transform="translate(10.44 6.986)" fill="#891207"/>
      <path id="Path_98753" data-name="Path 98753" d="M176.251,170.756l.653,1.821a1.414,1.414,0,0,0,1.8.85l14.212-5.1a1.413,1.413,0,0,0,.85-1.8l-.552-1.538Z" transform="translate(10.623 7.03)" fill="#fff"/>
    </g>
  </g>
</svg>
