<svg xmlns="http://www.w3.org/2000/svg" width="679.916" height="334.774" viewBox="0 0 679.916 334.774">
  <g id="Group_36223" data-name="Group 36223" transform="translate(-1413.772 -810.495)" opacity="0.563">
    <path id="Path_90493" data-name="Path 90493" d="M186.8,109a2.265,2.265,0,0,0,1.157,1.667,8.037,8.037,0,0,1,2.982-2.138,3.021,3.021,0,0,1-.973-1.864A9.627,9.627,0,0,0,186.8,109Z" transform="translate(1705.778 820.213)" fill="#fb242d"/>
    <path id="Path_90494" data-name="Path 90494" d="M-49.282,17.858c-.6.181-.942.608-1.3,1.4a7.586,7.586,0,0,1,2.574,2.313,2.852,2.852,0,0,1,1.52-1.275A9.066,9.066,0,0,0-49.282,17.858Z" transform="translate(1597.658 839.765)" fill="#fb242d"/>
    <path id="Path_90495" data-name="Path 90495" d="M193.825,2.058a2.613,2.613,0,0,0-1.751,1.934,3.954,3.954,0,0,0,1.912,1.731,5.92,5.92,0,0,1,3.088-1.116A10.3,10.3,0,0,1,193.825,2.058Z" transform="translate(1708.535 840.938)" fill="#fb242d"/>
    <path id="Path_90496" data-name="Path 90496" d="M-80.455,282.567a1.78,1.78,0,0,0,.089-1.775,2.7,2.7,0,0,0-1.755-.088,4.038,4.038,0,0,1-1.148,1.921A7.019,7.019,0,0,1-80.455,282.567Z" transform="translate(1551.574 791.321)" fill="#fb242d"/>
    <path id="Path_90497" data-name="Path 90497" d="M-114.4,192.948a9.543,9.543,0,0,0,.7,3.25,3.807,3.807,0,0,0,1.6-1.237,3.183,3.183,0,0,1-.462-1.984A2.144,2.144,0,0,1-114.4,192.948Z" transform="translate(1553.885 805.846)" fill="#fb242d"/>
    <path id="Path_90498" data-name="Path 90498" d="M43.775-1.84a18.251,18.251,0,0,0-4.852-4.119,7.314,7.314,0,0,0-.986,3.743A6.078,6.078,0,0,1,40.952.256,4.1,4.1,0,0,1,43.775-1.84Z" transform="translate(1779.836 980.52)" fill="#fb242d"/>
    <path id="Path_90499" data-name="Path 90499" d="M44.849,82.183a4.638,4.638,0,0,1-1.165,1.59,14.472,14.472,0,0,1,3.534,1.7,2.612,2.612,0,0,0,1.284-1.4A17.16,17.16,0,0,0,44.849,82.183Z" transform="translate(1640.752 824.322)" fill="#fb242d"/>
    <path id="Path_90500" data-name="Path 90500" d="M142.713,63.2a10.568,10.568,0,0,1,4.444.623,32.946,32.946,0,0,1-.4-8.914,5.956,5.956,0,0,0-4.2-1.062A39.016,39.016,0,0,0,142.713,63.2Z" transform="translate(1685.767 828.903)" fill="#fb242d"/>
    <path id="Path_90501" data-name="Path 90501" d="M194.253,98.444a6.882,6.882,0,0,0,1.957,3.879,10.247,10.247,0,0,1,3.108.441c-.458-.926-.273-1.615.514-2.856A17.8,17.8,0,0,1,194.253,98.444Z" transform="translate(1709.771 821.575)" fill="#fb242d"/>
    <path id="Path_90502" data-name="Path 90502" d="M-39.328-12.706a8.681,8.681,0,0,0,3.893,3.839,12.871,12.871,0,0,1,3.883-.724c-.918-.92-.975-1.815-.535-3.611A22.42,22.42,0,0,1-39.328-12.706Z" transform="translate(1584.086 843.132)" fill="#fb242d"/>
    <path id="Path_90503" data-name="Path 90503" d="M266.5,159.212a12.891,12.891,0,0,1-4.91-1.217,4.144,4.144,0,0,0-.427,2.6,17.1,17.1,0,0,0,4.953,1.577C265.717,160.8,265.735,160.035,266.5,159.212Z" transform="translate(1771.947 811.632)" fill="#fb242d"/>
    <path id="Path_90504" data-name="Path 90504" d="M76.863,46.678a14.215,14.215,0,0,1,4.918-2.61,4.566,4.566,0,0,0-1.565-2.447A18.863,18.863,0,0,0,75,43.968C76.338,44.8,76.886,45.443,76.863,46.678Z" transform="translate(1655.57 838.001)" fill="#fb242d"/>
    <path id="Path_90505" data-name="Path 90505" d="M-114.095,163.167a2.1,2.1,0,0,1,.632,2.037,6.836,6.836,0,0,0,2.587-1.71,1.906,1.906,0,0,0-.7-1.763A5,5,0,0,1-114.095,163.167Z" transform="translate(1553.863 811.042)" fill="#fb242d"/>
    <path id="Path_90506" data-name="Path 90506" d="M-27.644-23.759a3.4,3.4,0,0,1-3.447-.335,11.082,11.082,0,0,0,.929,4.947,3.1,3.1,0,0,0,3.081.057A8.117,8.117,0,0,1-27.644-23.759Z" transform="translate(1606.515 842.88)" fill="#fb242d"/>
    <path id="Path_90507" data-name="Path 90507" d="M-118.84,25.7a7.772,7.772,0,0,0,2.313-3.459,3.8,3.8,0,0,0-2.122-1.363,7.1,7.1,0,0,1-2.306,3.385A2.652,2.652,0,0,1-118.84,25.7Z" transform="translate(1554.372 839.541)" fill="#fb242d"/>
    <path id="Path_90508" data-name="Path 90508" d="M53.814,25.234a5.466,5.466,0,0,0-2.916-.211,2.668,2.668,0,0,0-.094,1.769,4.987,4.987,0,0,1,2.869.232A1.863,1.863,0,0,1,53.814,25.234Z" transform="translate(1643.547 839.242)" fill="#fb242d"/>
    <path id="Path_90509" data-name="Path 90509" d="M199.471,67.551a6.565,6.565,0,0,1-.234,4.686c3.077-.355,6.117-1.062,7.348-1.8a10.487,10.487,0,0,0-1.4-4.285C203.806,67.008,202.2,67.247,199.471,67.551Z" transform="translate(1766.284 783.691)" fill="#fb242d"/>
    <path id="Path_90510" data-name="Path 90510" d="M253.977,41.605a6.517,6.517,0,0,1-1.029,4.542c3.069.179,6.161.006,7.49-.51a10.392,10.392,0,0,0-.636-4.428C258.306,41.814,256.692,41.773,253.977,41.605Z" transform="translate(1735.898 860.673)" fill="#fb242d"/>
    <path id="Path_90511" data-name="Path 90511" d="M-116.745,72.242A2.127,2.127,0,0,1-118,73.5a17.117,17.117,0,0,0,3.673,3.3,4.062,4.062,0,0,0,1.565-1.519A9.761,9.761,0,0,1-116.745,72.242Z" transform="translate(1554.152 825.946)" fill="#fb242d"/>
    <path id="Path_90512" data-name="Path 90512" d="M98.326-7.892a2.164,2.164,0,0,1,1.635.771,17.438,17.438,0,0,0,1.908-4.658,4.137,4.137,0,0,0-2-.982A9.955,9.955,0,0,1,98.326-7.892Z" transform="translate(1665.306 842.039)" fill="#fb242d"/>
    <path id="Path_90513" data-name="Path 90513" d="M326.466,145.444a4.4,4.4,0,0,1-.755-2.467,1.193,1.193,0,0,1-.961-.059,5.281,5.281,0,0,0,.6,2.814A2.205,2.205,0,0,0,326.466,145.444Z" transform="translate(1767.222 814.211)" fill="#fb242d"/>
    <path id="Path_90514" data-name="Path 90514" d="M-64.531-16.207a5.1,5.1,0,0,1-2.8,1.063,1.4,1.4,0,0,1,0,1.118,6.126,6.126,0,0,0,3.214-.907A2.557,2.557,0,0,0-64.531-16.207Z" transform="translate(1550.39 842.295)" fill="#fb242d"/>
    <path id="Path_90515" data-name="Path 90515" d="M-71.7,93.883c1.471.38,2.786,1.368,4.73,4.511A7.781,7.781,0,0,0-64.5,94.171a13.846,13.846,0,0,0-5.434-4.407A7.108,7.108,0,0,1-71.7,93.883Z" transform="translate(2010.177 760.382)" fill="#fb242d"/>
    <path id="Path_90516" data-name="Path 90516" d="M96.2,90.591c-.729-.184-1.382-.67-2.35-2.22a3.852,3.852,0,0,0-1.214,2.095,6.861,6.861,0,0,0,2.7,2.166A3.52,3.52,0,0,1,96.2,90.591Z" transform="translate(1662.724 823.26)" fill="#fb242d"/>
    <path id="Path_90517" data-name="Path 90517" d="M219.406,172.639a6.528,6.528,0,0,0,.554,4.159,7,7,0,0,1,4.283-1.016,9.917,9.917,0,0,0,.12-4.033A13.134,13.134,0,0,1,219.406,172.639Z" transform="translate(1721.058 809.289)" fill="#fb242d"/>
    <path id="Path_90518" data-name="Path 90518" d="M-14.209-1.21a5.108,5.108,0,0,0,1.661,2.836A5.491,5.491,0,0,1-9.762-.407,7.766,7.766,0,0,0-10.9-3.357,10.3,10.3,0,0,1-14.209-1.21Z" transform="translate(1614.278 841.341)" fill="#fb242d"/>
    <path id="Path_90519" data-name="Path 90519" d="M-79.268,2.678c.416-.15.612-.438.916-.92A11.576,11.576,0,0,1-81.389-1.1a1.891,1.891,0,0,1-.99.733A10.259,10.259,0,0,0-79.268,2.678Z" transform="translate(1551.508 841.173)" fill="#fb242d"/>
    <path id="Path_90520" data-name="Path 90520" d="M-125.828,258.121c-.488.224-.694.593-1.014,1.208a14.025,14.025,0,0,1,3.971,3.135,2.3,2.3,0,0,1,1.12-.99A12.467,12.467,0,0,0-125.828,258.121Z" transform="translate(1554.809 794.894)" fill="#fb242d"/>
    <path id="Path_90521" data-name="Path 90521" d="M-123.675,206.352a4.624,4.624,0,0,0,.654-3.863,28.542,28.542,0,0,1-6.25-2.5,4.246,4.246,0,0,1-.743,2.034A25.437,25.437,0,0,1-123.675,206.352Z" transform="translate(2081.196 688.393)" fill="#fb242d"/>
    <path id="Path_90522" data-name="Path 90522" d="M107.586-25.968a2.847,2.847,0,0,0,.822-2.272,17.568,17.568,0,0,1-3.516-2.2,2.625,2.625,0,0,1-.676,1.153A15.651,15.651,0,0,1,107.586-25.968Z" transform="translate(1668.183 843.352)" fill="#fb242d"/>
    <path id="Path_90523" data-name="Path 90523" d="M164.277,96.685c-.782.772-.954,1.7-.859,3.218a13.179,13.179,0,0,1,5.841,1.462,4.95,4.95,0,0,1,1.3-3.2A15.77,15.77,0,0,0,164.277,96.685Z" transform="translate(1696.265 821.857)" fill="#00d6ad"/>
    <path id="Path_90524" data-name="Path 90524" d="M-19.532,92.986c-.361.984-.131,1.857.567,3.125A12.571,12.571,0,0,1-13.332,95a4.728,4.728,0,0,1-.177-3.286A15.053,15.053,0,0,0-19.532,92.986Z" transform="translate(1612.066 822.697)" fill="#00d6ad"/>
    <path id="Path_90525" data-name="Path 90525" d="M170.714,74.035a1.988,1.988,0,0,0-.392,1.945,3.012,3.012,0,0,0,1.924.387,4.507,4.507,0,0,1,1.584-1.931A7.84,7.84,0,0,1,170.714,74.035Z" transform="translate(1698.024 825.706)" fill="#00d6ad"/>
    <path id="Path_90526" data-name="Path 90526" d="M177.291,23.915a2.6,2.6,0,0,0-1.137-2.336,3.933,3.933,0,0,0-2.31,1.124,5.907,5.907,0,0,1-.117,3.269A10.247,10.247,0,0,1,177.291,23.915Z" transform="translate(1699.601 839.489)" fill="#00d6ad"/>
    <path id="Path_90527" data-name="Path 90527" d="M119.343,32.267a20.413,20.413,0,0,0-6.9,1.754,8.176,8.176,0,0,0,2.775,3.325,6.809,6.809,0,0,1,4.211-1.146A4.586,4.586,0,0,1,119.343,32.267Z" transform="translate(1672.81 838.695)" fill="#00d6ad"/>
    <path id="Path_90528" data-name="Path 90528" d="M-141.922,215.777a9.584,9.584,0,0,0-.181,3.352,3.848,3.848,0,0,0,1.886-.78,3.2,3.2,0,0,1,.077-2.055A2.162,2.162,0,0,1-141.922,215.777Z" transform="translate(1555.948 802.031)" fill="#00d6ad"/>
    <path id="Path_90529" data-name="Path 90529" d="M171.122-1.021a5.7,5.7,0,0,1-1.285-2.044A17.736,17.736,0,0,1,166.308.191a3.207,3.207,0,0,0,1.019,2.1A21,21,0,0,0,171.122-1.021Z" transform="translate(1696.702 841.319)" fill="#00d6ad"/>
    <path id="Path_90530" data-name="Path 90530" d="M-89.509,219.378a8.375,8.375,0,0,1,1.38,3.26,25.954,25.954,0,0,1,5.867-3.885,4.7,4.7,0,0,0-.983-3.272A30.841,30.841,0,0,0-89.509,219.378Z" transform="translate(1552.037 801.84)" fill="#00d6ad"/>
    <path id="Path_90531" data-name="Path 90531" d="M-127,301.772a4.867,4.867,0,0,0-2.491,1.789,7.215,7.215,0,0,1,.032,2.215c.6-.42,1.1-.367,2.048.046A12.567,12.567,0,0,1-127,301.772Z" transform="translate(1555.006 781.854)" fill="#00d6ad"/>
    <path id="Path_90532" data-name="Path 90532" d="M237.954,106.854a9.407,9.407,0,0,0,2.534-5.362,13.97,13.97,0,0,1-2.134-3.715c-.612,1.27-1.509,1.649-3.506,1.843C236.27,101.585,237,103.818,237.954,106.854Z" transform="translate(1773.896 821.527)" fill="#00d6ad"/>
    <path id="Path_90533" data-name="Path 90533" d="M208.813,44.021a8.582,8.582,0,0,1-2.884-1.714,2.75,2.75,0,0,0-.769,1.571A11.35,11.35,0,0,0,208,45.829C208.011,44.879,208.17,44.4,208.813,44.021Z" transform="translate(1713.932 837.95)" fill="#00d6ad"/>
    <path id="Path_90534" data-name="Path 90534" d="M247.278,78.484A7.285,7.285,0,0,1,245.94,81a2.332,2.332,0,0,0,1.362.589,9.625,9.625,0,0,0,1.54-2.484C248.037,79.129,247.621,79.014,247.278,78.484Z" transform="translate(1773.072 824.944)" fill="#00d6ad"/>
    <path id="Path_90535" data-name="Path 90535" d="M285.638,255.518a1.968,1.968,0,0,1-2,.071,6.418,6.418,0,0,0,.911,2.765,1.791,1.791,0,0,0,1.771-.2A4.686,4.686,0,0,1,285.638,255.518Z" transform="translate(1770.273 795.427)" fill="#00d6ad"/>
    <path id="Path_90536" data-name="Path 90536" d="M-125.474,328.992a2.025,2.025,0,0,1-1.405,1.508,6.6,6.6,0,0,0,2.675,1.35,1.842,1.842,0,0,0,1.141-1.436A4.831,4.831,0,0,1-125.474,328.992Z" transform="translate(1554.812 779.833)" fill="#00d6ad"/>
    <path id="Path_90537" data-name="Path 90537" d="M-7.99,33.056a10.049,10.049,0,0,0,.516,5.355,4.914,4.914,0,0,0,3.239-.372A9.194,9.194,0,0,1-4.7,32.762,3.434,3.434,0,0,1-7.99,33.056Z" transform="translate(1616.962 838.659)" fill="#00d6ad"/>
    <path id="Path_90538" data-name="Path 90538" d="M178.641,57.168a5.67,5.67,0,0,0,.273,3.027,2.778,2.778,0,0,0,1.83-.2,5.19,5.19,0,0,1-.243-2.983A1.937,1.937,0,0,1,178.641,57.168Z" transform="translate(1701.256 828.522)" fill="#00d6ad"/>
    <path id="Path_90539" data-name="Path 90539" d="M287.351,42.512a5.641,5.641,0,0,1-3.041-2.653,19.639,19.639,0,0,0-2.693,5.925,9,9,0,0,0,3.64,1.336C285.411,45.729,286.106,44.515,287.351,42.512Z" transform="translate(1770.423 831.309)" fill="#00d6ad"/>
    <path id="Path_90540" data-name="Path 90540" d="M161.519,37.465a4.8,4.8,0,0,1,2.985-1.691,16.7,16.7,0,0,0-3.994-3.829,7.692,7.692,0,0,0-2.1,2.543A9.724,9.724,0,0,1,161.519,37.465Z" transform="translate(1693.575 838.719)" fill="#00d6ad"/>
    <path id="Path_90541" data-name="Path 90541" d="M280.394,212.154a1.3,1.3,0,0,1,.823.7,10.39,10.39,0,0,0,1.82-2.387,2.466,2.466,0,0,0-1-.875A5.937,5.937,0,0,1,280.394,212.154Z" transform="translate(1770.514 803.069)" fill="#00d6ad"/>
    <path id="Path_90542" data-name="Path 90542" d="M293.741,23.291a1.789,1.789,0,0,1,1.34-.653,14.369,14.369,0,0,0-2.01-3.628,3.409,3.409,0,0,0-1.66.775A8.21,8.21,0,0,1,293.741,23.291Z" transform="translate(1769.696 839.68)" fill="#00d6ad"/>
    <path id="Path_90543" data-name="Path 90543" d="M173.091-30.273a5.038,5.038,0,0,1,.286,2.939,1.375,1.375,0,0,1,1.066.284,6.045,6.045,0,0,0-.032-3.293A2.524,2.524,0,0,0,173.091-30.273Z" transform="translate(1698.54 843.349)" fill="#00d6ad"/>
    <path id="Path_90544" data-name="Path 90544" d="M66.156-3.414A8.811,8.811,0,0,1,70.837-5.6a2.4,2.4,0,0,1-.151-1.922,10.552,10.552,0,0,0-5.412,1.97A4.416,4.416,0,0,0,66.156-3.414Z" transform="translate(1650.794 841.65)" fill="#00d6ad"/>
    <path id="Path_90545" data-name="Path 90545" d="M-113.112,353.969c-.514-.766-.713-1.744-.328-3.954a4.723,4.723,0,0,0-2.824.918,8.412,8.412,0,0,0,.689,4.191A4.3,4.3,0,0,1-113.112,353.969Z" transform="translate(2071.377 478.351)" fill="#00d6ad"/>
    <path id="Path_90546" data-name="Path 90546" d="M-53.9,5.651c-.658-.248-1.215-.767-1.952-2.311a3.605,3.605,0,0,0-1.349,1.82,6.42,6.42,0,0,0,2.282,2.3A3.291,3.291,0,0,1-53.9,5.651Z" transform="translate(1549.638 840.843)" fill="#00d6ad"/>
    <path id="Path_90547" data-name="Path 90547" d="M286.7,157.993a5.673,5.673,0,0,0,1.992,3.055,6.09,6.09,0,0,1,2.979-2.4,8.619,8.619,0,0,0-1.416-3.209A11.4,11.4,0,0,1,286.7,157.993Z" transform="translate(1770.046 811.99)" fill="#00d6ad"/>
    <path id="Path_90548" data-name="Path 90548" d="M-82.75,170.493a5.784,5.784,0,0,0,2.9-2.326,6.219,6.219,0,0,1-2.735-2.787,8.8,8.8,0,0,0-3.117,1.759A11.644,11.644,0,0,1-82.75,170.493Z" transform="translate(1551.754 810.351)" fill="#00d6ad"/>
    <path id="Path_90549" data-name="Path 90549" d="M-76.267,192.169a3.5,3.5,0,0,0-2.223-1.075,21.96,21.96,0,0,1-3.235,7.227,3.587,3.587,0,0,1,1.93,1.321A19.522,19.522,0,0,0-76.267,192.169Z" transform="translate(1551.459 805.852)" fill="#00d6ad"/>
    <path id="Path_90550" data-name="Path 90550" d="M-83.053,259.324c.569-.259.813-.689,1.187-1.4a16.331,16.331,0,0,1-4.613-3.671,2.671,2.671,0,0,1-1.31,1.147A14.529,14.529,0,0,0-83.053,259.324Z" transform="translate(1551.909 795.488)" fill="#00d6ad"/>
    <path id="Path_90551" data-name="Path 90551" d="M125.381,157.336a2.568,2.568,0,0,0,.3-2.155,15.825,15.825,0,0,1-3.509-1.286,2.359,2.359,0,0,1-.38,1.141A14.138,14.138,0,0,1,125.381,157.336Z" transform="translate(1676.126 812.351)" fill="#00d6ad"/>
    <path id="Path_90552" data-name="Path 90552" d="M208.336,149.723a4.647,4.647,0,0,0,3.909-.451,28.663,28.663,0,0,1,.662-6.728,4.265,4.265,0,0,1-2.171-.148A25.566,25.566,0,0,1,208.336,149.723Z" transform="translate(1715.773 814.086)" fill="#00d6ad"/>
    <path id="Path_90553" data-name="Path 90553" d="M66.179-24.211c.882-.926,1.05-2.014.886-3.77a15.306,15.306,0,0,1-6.837-1.5c.05,1.288-.328,2.168-1.4,3.76A18.4,18.4,0,0,0,66.179-24.211Z" transform="translate(1648.533 843.28)" fill="#feb937"/>
    <path id="Path_90554" data-name="Path 90554" d="M317.242,103.776a2.775,2.775,0,0,0,2.481-.167,9.843,9.843,0,0,1-.37-4.48,3.7,3.7,0,0,1-2.573-.151A11.8,11.8,0,0,0,317.242,103.776Z" transform="translate(1767.818 821.462)" fill="#feb937"/>
    <path id="Path_90555" data-name="Path 90555" d="M175.093,155.174a2.45,2.45,0,0,0,2.026,1.378,3.707,3.707,0,0,0,1.363-2,5.56,5.56,0,0,1-1.438-2.728A9.673,9.673,0,0,1,175.093,155.174Z" transform="translate(1700.153 812.637)" fill="#feb937"/>
    <path id="Path_90556" data-name="Path 90556" d="M314.491,139.594a3.723,3.723,0,0,0,3.556,1.089,5.645,5.645,0,0,0,1.078-3.517,8.437,8.437,0,0,1-3.31-3.311A14.7,14.7,0,0,1,314.491,139.594Z" transform="translate(1767.982 815.549)" fill="#feb937"/>
    <path id="Path_90557" data-name="Path 90557" d="M198.844,22.245a14.7,14.7,0,0,0-4.676-2.119,5.917,5.917,0,0,0,.067,3.121A4.9,4.9,0,0,1,197.12,24.5,3.3,3.3,0,0,1,198.844,22.245Z" transform="translate(1709.349 839.597)" fill="#feb937"/>
    <path id="Path_90558" data-name="Path 90558" d="M-115.319,280.718a9.824,9.824,0,0,0-2.964,1.727,3.945,3.945,0,0,0,1.726,1.172,3.279,3.279,0,0,1,1.8-1.089A2.208,2.208,0,0,1-115.319,280.718Z" transform="translate(1554.173 791.232)" fill="#feb937"/>
    <path id="Path_90559" data-name="Path 90559" d="M-133.8,183.014a5.052,5.052,0,0,1-1.508-1.52,15.712,15.712,0,0,1-2.423,3.5,2.84,2.84,0,0,0,1.289,1.617A18.675,18.675,0,0,0-133.8,183.014Z" transform="translate(1555.618 807.655)" fill="#feb937"/>
    <path id="Path_90560" data-name="Path 90560" d="M-102.426,333.59a6.975,6.975,0,0,1,2.505,1.569,21.673,21.673,0,0,1,2.155-5.467A3.924,3.924,0,0,0-100,327.924,25.755,25.755,0,0,0-102.426,333.59Z" transform="translate(1552.996 779.912)" fill="#feb937"/>
    <path id="Path_90561" data-name="Path 90561" d="M-78.683,183.417a4.935,4.935,0,0,0-3.1.248,7.345,7.345,0,0,1-1.133,1.942c.738-.054,1.144.255,1.755,1.113A12.757,12.757,0,0,1-78.683,183.417Z" transform="translate(1551.548 807.448)" fill="#feb937"/>
    <path id="Path_90562" data-name="Path 90562" d="M34.97-21.342a9.307,9.307,0,0,0-5.387-2.322,13.834,13.834,0,0,1-3.6,2.236c1.277.562,1.682,1.435,1.942,3.4C29.818-19.5,32-20.293,34.97-21.342Z" transform="translate(1922.243 946.342)" fill="#feb937"/>
    <path id="Path_90563" data-name="Path 90563" d="M-64.947,127.216a6.542,6.542,0,0,1,1.769-1.855,2.094,2.094,0,0,0-1.04-.842,8.68,8.68,0,0,0-1.938,1.784C-65.45,126.472-65.116,126.672-64.947,127.216Z" transform="translate(1550.303 817.283)" fill="#feb937"/>
    <path id="Path_90564" data-name="Path 90564" d="M302.362,200.873a5.8,5.8,0,0,1-2.191.614,1.854,1.854,0,0,0,.412,1.114,7.68,7.68,0,0,0,2.288-.482C302.409,201.669,302.246,201.365,302.362,200.873Z" transform="translate(1769.046 804.613)" fill="#feb937"/>
    <path id="Path_90565" data-name="Path 90565" d="M-9.536,155.749a4.162,4.162,0,0,1,.645-4.186c-2.092-.266-3.529.051-6.106.8-.8,1.272-.793,2.133-.281,3.759C-13.061,155.5-11.43,155.211-9.536,155.749Z" transform="translate(1613.988 812.7)" fill="#feb937"/>
    <path id="Path_90566" data-name="Path 90566" d="M-118.633,141.574a3.33,3.33,0,0,1,.515,3.349,10.832,10.832,0,0,0,4.468-2.077,3.028,3.028,0,0,0-.691-2.936A7.933,7.933,0,0,1-118.633,141.574Z" transform="translate(1554.199 814.616)" fill="#feb937"/>
    <path id="Path_90567" data-name="Path 90567" d="M301.2,314.222a7.269,7.269,0,0,0,3.711,1.165,3.543,3.543,0,0,0,.665-2.263,6.632,6.632,0,0,1-3.645-1.178A2.479,2.479,0,0,1,301.2,314.222Z" transform="translate(1768.969 781.098)" fill="#feb937"/>
    <path id="Path_90568" data-name="Path 90568" d="M148.038-24.937a8.794,8.794,0,0,0-4.023-2.443,4.285,4.285,0,0,0-1.435,2.465,8.034,8.034,0,0,1,3.94,2.438A3,3,0,0,1,148.038-24.937Z" transform="translate(1686.102 843.124)" fill="#feb937"/>
    <path id="Path_90569" data-name="Path 90569" d="M244.461,250.65a3.447,3.447,0,0,1,2.288-.913,12.022,12.022,0,0,0-2.468-3.114,5.516,5.516,0,0,0-1.74,1.605A6.983,6.983,0,0,1,244.461,250.65Z" transform="translate(1773.325 796.837)" fill="#feb937"/>
    <path id="Path_90570" data-name="Path 90570" d="M314.938,168.514a6.761,6.761,0,0,1,4.455-1.867c-1.7-2.7-3.708-5.206-4.944-6.018a10.787,10.787,0,0,0-3.356,3.2C312.506,164.732,313.443,166.121,314.938,168.514Z" transform="translate(1768.235 811.009)" fill="#feb937"/>
    <path id="Path_90571" data-name="Path 90571" d="M70.166,115.635A2.878,2.878,0,0,1,69.3,113.4a23.115,23.115,0,0,0-6.1,2.732,5.5,5.5,0,0,0,1.019,2.77A13.2,13.2,0,0,1,70.166,115.635Z" transform="translate(1650.205 819.033)" fill="#feb937"/>
    <path id="Path_90572" data-name="Path 90572" d="M238.655,154.733a2.84,2.84,0,0,1,1.9-1.424,22.838,22.838,0,0,0-4.233-5.068,5.443,5.443,0,0,0-2.363,1.713A13.05,13.05,0,0,1,238.655,154.733Z" transform="translate(1773.962 813.154)" fill="#feb937"/>
    <path id="Path_90573" data-name="Path 90573" d="M219.226,112.329A4.57,4.57,0,0,1,221.315,114a1.238,1.238,0,0,1,.856-.511,5.474,5.474,0,0,0-2.157-2.057A2.286,2.286,0,0,0,219.226,112.329Z" transform="translate(1720.016 819.469)" fill="#feb937"/>
    <path id="Path_90574" data-name="Path 90574" d="M-51.088,73.1a6.176,6.176,0,0,1,3.538-.7,1.678,1.678,0,0,1,.218-1.328,7.387,7.387,0,0,0-4,.434A3.088,3.088,0,0,0-51.088,73.1Z" transform="translate(1609.597 826.225)" fill="#feb937"/>
    <path id="Path_90575" data-name="Path 90575" d="M25.559,112.09c-1.4.441-2.971.306-6.161-1.265a7.492,7.492,0,0,0,.139,4.707,13.309,13.309,0,0,0,6.681.82A6.84,6.84,0,0,1,25.559,112.09Z" transform="translate(1629.991 819.458)" fill="#feb937"/>
    <path id="Path_90576" data-name="Path 90576" d="M270.191,247.315c.271,1.072.1,2.256-1.221,4.6a5.666,5.666,0,0,0,3.559.1,10.081,10.081,0,0,0,.907-5.007A5.167,5.167,0,0,1,270.191,247.315Z" transform="translate(1771.362 796.688)" fill="#feb937"/>
    <path id="Path_90577" data-name="Path 90577" d="M296.063,281.744a6.791,6.791,0,0,0-1.529,4.1,7.3,7.3,0,0,1,4.438,1.166,10.345,10.345,0,0,0,2.086-3.651A13.681,13.681,0,0,1,296.063,281.744Z" transform="translate(1769.464 790.873)" fill="#feb937"/>
    <path id="Path_90578" data-name="Path 90578" d="M-101.741,117.487a6.6,6.6,0,0,0,4.243.028,7.093,7.093,0,0,1-.418-4.433,10.029,10.029,0,0,0-4.023-.683A13.25,13.25,0,0,1-101.741,117.487Z" transform="translate(2086.344 706.671)" fill="#feb937"/>
    <path id="Path_90579" data-name="Path 90579" d="M141.238,17.916a3.14,3.14,0,0,0-.831,2.056,19.752,19.752,0,0,1,6.672,2.47,3.22,3.22,0,0,1,1.069-1.809A17.57,17.57,0,0,0,141.238,17.916Z" transform="translate(1685.913 839.761)" fill="#feb937"/>
    <path id="Path_90580" data-name="Path 90580" d="M304.108,147.869a3.266,3.266,0,0,0,1.951-1.236,20.568,20.568,0,0,1-4.146-6.135,3.36,3.36,0,0,1-2,.882A18.3,18.3,0,0,0,304.108,147.869Z" transform="translate(1769.065 814.413)" fill="#feb937"/>
    <path id="Path_90581" data-name="Path 90581" d="M-130.484,115.476a3.555,3.555,0,0,0,2.395-1.834,21.977,21.977,0,0,1-2.21-4.685,3.282,3.282,0,0,1-1.486.755A19.564,19.564,0,0,1-130.484,115.476Z" transform="translate(2059.475 828.863)" fill="#feb937"/>
    <path id="Path_90582" data-name="Path 90582" d="M73.912,22.942A4.449,4.449,0,0,0,72.394,26.4a27.494,27.494,0,0,1,5.247,3.8,4.084,4.084,0,0,1,1.172-1.724A24.465,24.465,0,0,1,73.912,22.942Z" transform="translate(1654.278 839.388)" fill="#feb937"/>
    <path id="Path_90583" data-name="Path 90583" d="M210,29.162a2.768,2.768,0,0,0,.319,2.461,9.832,9.832,0,0,1,4.439-.644,3.692,3.692,0,0,1-.008-2.572A11.772,11.772,0,0,0,210,29.162Z" transform="translate(1736.985 843.496)" fill="#fb242d"/>
    <path id="Path_90584" data-name="Path 90584" d="M-59.6,155.9c.135.558.5.886,1.206,1.251a6.885,6.885,0,0,1,2.226-2.215,2.587,2.587,0,0,1-1.078-1.442A8.25,8.25,0,0,0-59.6,155.9Z" transform="translate(1549.816 812.408)" fill="#fb242d"/>
    <path id="Path_90585" data-name="Path 90585" d="M59.455,67.546a2.635,2.635,0,0,0,2.208,1.437A3.976,3.976,0,0,0,63.085,66.8a5.992,5.992,0,0,1-1.606-2.9A10.409,10.409,0,0,1,59.455,67.546Z" transform="translate(1647.653 827.329)" fill="#fb242d"/>
    <path id="Path_90586" data-name="Path 90586" d="M189.607,80.272a2.05,2.05,0,0,0,1.951-.621,3.1,3.1,0,0,0-.614-1.932,4.654,4.654,0,0,1-2.538-.463A8.109,8.109,0,0,1,189.607,80.272Z" transform="translate(1706.108 825.15)" fill="#fb242d"/>
    <path id="Path_90587" data-name="Path 90587" d="M.348-23.5a10.932,10.932,0,0,0,3.8.332,4.381,4.381,0,0,0-.817-2.172A3.653,3.653,0,0,1,1-25.5,2.451,2.451,0,0,1,.348-23.5Z" transform="translate(1620.8 842.985)" fill="#fb242d"/>
    <path id="Path_90588" data-name="Path 90588" d="M268.014,24.814a17.529,17.529,0,0,0-2.565,5.552,7.026,7.026,0,0,0,3.719-.052,5.849,5.849,0,0,1,1.514-3.427A3.935,3.935,0,0,1,268.014,24.814Z" transform="translate(1771.624 839.249)" fill="#fb242d"/>
    <path id="Path_90589" data-name="Path 90589" d="M-100.23,297.126a9.081,9.081,0,0,1-.729,3.777,28.186,28.186,0,0,1,7.647.049,5.107,5.107,0,0,0,1.094-3.547A33.492,33.492,0,0,0-100.23,297.126Z" transform="translate(1915.029 609.617)" fill="#fb242d"/>
    <path id="Path_90590" data-name="Path 90590" d="M277.123,182.833a5.853,5.853,0,0,1,2.361.767,18.191,18.191,0,0,1,.641-4.894,3.291,3.291,0,0,0-2.185-.983A21.581,21.581,0,0,0,277.123,182.833Z" transform="translate(1770.757 808.245)" fill="#fb242d"/>
    <path id="Path_90591" data-name="Path 90591" d="M-102.315,346.1a4.264,4.264,0,0,0,2.379,1.243,6.322,6.322,0,0,1,1.719-.9c-.564-.3-.718-.713-.77-1.619A11.017,11.017,0,0,1-102.315,346.1Z" transform="translate(1552.988 778.657)" fill="#fb242d"/>
    <path id="Path_90592" data-name="Path 90592" d="M309.177,48.951a8.124,8.124,0,0,0-2.088,4.675A12.073,12.073,0,0,1,309,56.793c.5-1.107,1.273-1.451,2.991-1.656A21,21,0,0,1,309.177,48.951Z" transform="translate(1768.532 829.771)" fill="#fb242d"/>
    <path id="Path_90593" data-name="Path 90593" d="M-112.8,229.024a12.662,12.662,0,0,1-2.518-4.279,4.072,4.072,0,0,0-2.119,1.489,16.805,16.805,0,0,0,2.295,4.556C-114.452,229.565-113.9,229.052-112.8,229.024Z" transform="translate(1554.111 800.359)" fill="#fb242d"/>
    <path id="Path_90594" data-name="Path 90594" d="M120.418,96.636a13.559,13.559,0,0,1,4.372,3.036,4.358,4.358,0,0,0,1.394-2.4,17.975,17.975,0,0,0-4.279-3.406C121.783,95.367,121.478,96.113,120.418,96.636Z" transform="translate(1676.073 822.292)" fill="#fb242d"/>
    <path id="Path_90595" data-name="Path 90595" d="M218.055,55.441a1.688,1.688,0,0,1,1.478.874,5.49,5.49,0,0,0,.621-2.417,1.534,1.534,0,0,0-1.372-.672A4.025,4.025,0,0,1,218.055,55.441Z" transform="translate(1719.111 829.157)" fill="#fb242d"/>
    <path id="Path_90597" data-name="Path 90597" d="M-139.573,242.847a5.766,5.766,0,0,0,1.714,2.567,2.817,2.817,0,0,0,1.537-1.067,5.271,5.271,0,0,1-1.666-2.541A1.971,1.971,0,0,1-139.573,242.847Z" transform="translate(1555.754 797.671)" fill="#fb242d"/>
    <path id="Path_90598" data-name="Path 90598" d="M85.068-33.05a4.476,4.476,0,0,0-.985,2.186,2.188,2.188,0,0,0,1.335.573,4.1,4.1,0,0,1,.988-2.144A1.527,1.527,0,0,1,85.068-33.05Z" transform="translate(1658.491 843.545)" fill="#fb242d"/>
    <path id="Path_90599" data-name="Path 90599" d="M290.57,363.535a3.831,3.831,0,0,1-2.493,1.141A13.376,13.376,0,0,0,290.992,368a6.117,6.117,0,0,0,1.846-1.881A7.765,7.765,0,0,1,290.57,363.535Z" transform="translate(1769.944 777.268)" fill="#fb242d"/>
    <path id="Path_90600" data-name="Path 90600" d="M-136.645,147.377a3.143,3.143,0,0,1-.848,2.082,10.936,10.936,0,0,0,3.609.348,5.017,5.017,0,0,0,.045-2.159A6.372,6.372,0,0,1-136.645,147.377Z" transform="translate(1555.6 813.482)" fill="#fb242d"/>
    <path id="Path_90601" data-name="Path 90601" d="M-91.013-6.534a2.333,2.333,0,0,1,.786-1.783,18.865,18.865,0,0,0-5.07-1.928,4.456,4.456,0,0,0-1,2.176A10.729,10.729,0,0,1-91.013-6.534Z" transform="translate(1552.541 841.852)" fill="#fb242d"/>
    <path id="Path_90602" data-name="Path 90602" d="M243.848,6.589a1.557,1.557,0,0,1-.778-1.043,12.58,12.58,0,0,0-2.791,2.315,2.98,2.98,0,0,0,.937,1.3A7.176,7.176,0,0,1,243.848,6.589Z" transform="translate(1773.493 840.679)" fill="#fb242d"/>
    <path id="Path_90603" data-name="Path 90603" d="M262.578,275.851a7.288,7.288,0,0,1-4.27-.113,1.982,1.982,0,0,1-.6,1.477,8.731,8.731,0,0,0,4.732.543A3.646,3.646,0,0,0,262.578,275.851Z" transform="translate(1772.198 792.124)" fill="#fb242d"/>
    <path id="Path_90604" data-name="Path 90604" d="M127.145.024a9.072,9.072,0,0,1,4.273-3.163,2.468,2.468,0,0,1-.546-1.907,10.865,10.865,0,0,0-5.055,3.1A4.547,4.547,0,0,0,127.145.024Z" transform="translate(1678.488 841.466)" fill="#fb242d"/>
    <path id="Path_90605" data-name="Path 90605" d="M317.18,207.544c-.148.679-.577,1.3-1.978,2.242a3.559,3.559,0,0,0,1.974,1.056,6.35,6.35,0,0,0,1.919-2.562A3.248,3.248,0,0,1,317.18,207.544Z" transform="translate(1767.929 803.408)" fill="#fb242d"/>
    <path id="Path_90606" data-name="Path 90606" d="M-127.625,173.895c.966-.423,2.108-.449,4.517.433a5.4,5.4,0,0,0-.461-3.366,9.615,9.615,0,0,0-4.856-.074A4.931,4.931,0,0,1-127.625,173.895Z" transform="translate(1554.927 809.548)" fill="#fb242d"/>
    <path id="Path_90607" data-name="Path 90607" d="M173.336,64.787a4.457,4.457,0,0,0-2.83-.453,4.792,4.792,0,0,1-.174,3,6.792,6.792,0,0,0,2.616.868A8.981,8.981,0,0,1,173.336,64.787Z" transform="translate(1697.842 827.292)" fill="#fb242d"/>
    <path id="Path_90608" data-name="Path 90608" d="M193.978-23.8a3.141,3.141,0,0,0,.561,1.939,3.375,3.375,0,0,1,1.965-.79,4.785,4.785,0,0,0-.232-1.927A6.3,6.3,0,0,1,193.978-23.8Z" transform="translate(1708.389 842.916)" fill="#fb242d"/>
    <path id="Path_90609" data-name="Path 90609" d="M19.382,63.608c.328.886.946,1.3,1.98,1.941A24.666,24.666,0,0,1,27.4,59.018a4.033,4.033,0,0,1-1.58-2.1A21.931,21.931,0,0,0,19.382,63.608Z" transform="translate(1630.307 828.414)" fill="#fb242d"/>
    <path id="Path_90610" data-name="Path 90610" d="M236.154.718a2.347,2.347,0,0,0-.662,1.52,14.737,14.737,0,0,1,4.936,1.978,2.406,2.406,0,0,1,.835-1.33A13.115,13.115,0,0,0,236.154.718Z" transform="translate(1773.848 841.038)" fill="#fb242d"/>
    <path id="Path_90611" data-name="Path 90611" d="M29.35,12.729A5.363,5.363,0,0,0,24.9,11.81a33.069,33.069,0,0,1-3.157,7.14,4.921,4.921,0,0,1,2.326.946A29.5,29.5,0,0,1,29.35,12.729Z" transform="translate(1637.51 850.174)" fill="#fb242d"/>
    <path id="Path_90612" data-name="Path 90612" d="M-44.309,43.4a3.061,3.061,0,0,0,1.254-2.269,18.844,18.844,0,0,1-3.354-2.93,2.812,2.812,0,0,1-.91,1.107A16.841,16.841,0,0,1-44.309,43.4Z" transform="translate(1599.164 838.255)" fill="#fb242d"/>
    <path id="Path_90613" data-name="Path 90613" d="M-66.432,300.784a2.108,2.108,0,0,0-.664,1.771,7.5,7.5,0,0,1,3.22,1.151,2.814,2.814,0,0,1,.912-1.735A8.959,8.959,0,0,0-66.432,300.784Z" transform="translate(1550.373 781.927)" fill="#00d6ad"/>
    <path id="Path_90614" data-name="Path 90614" d="M291.079,95.8c.193,1.251.944,2.038,2.419,2.97a15.169,15.169,0,0,1,5.3-4.453c-1.04-.738-1.5-1.565-2.1-3.367A18.206,18.206,0,0,0,291.079,95.8Z" transform="translate(1769.721 822.716)" fill="#00d6ad"/>
    <path id="Path_90615" data-name="Path 90615" d="M-93.668,117.322a2.383,2.383,0,0,0,1.138,2.095,3.611,3.611,0,0,0,2.073-1.125,5.424,5.424,0,0,1-.027-3A9.394,9.394,0,0,1-93.668,117.322Z" transform="translate(1552.346 818.767)" fill="#00d6ad"/>
    <path id="Path_90616" data-name="Path 90616" d="M69.216,10.416a2.3,2.3,0,0,0,.241,2.285,3.482,3.482,0,0,0,2.26-.237A5.221,5.221,0,0,1,72.8,9.781,9.056,9.056,0,0,1,69.216,10.416Z" transform="translate(1652.041 840.365)" fill="#00d6ad"/>
    <path id="Path_90617" data-name="Path 90617" d="M313.974,186.75a11.034,11.034,0,0,0,1.085-3.694,4.423,4.423,0,0,0-2.31.376,3.679,3.679,0,0,1-.627,2.274A2.473,2.473,0,0,1,313.974,186.75Z" transform="translate(1768.158 807.473)" fill="#00d6ad"/>
    <path id="Path_90618" data-name="Path 90618" d="M204.861,123.9a21.237,21.237,0,0,0,7.094,2.16,8.535,8.535,0,0,0-.679-4.457c-1.567.153-2.692-.338-4.368-1.25A4.772,4.772,0,0,1,204.861,123.9Z" transform="translate(1715.291 817.859)" fill="#00d6ad"/>
    <path id="Path_90619" data-name="Path 90619" d="M12.485,148.363A9.805,9.805,0,0,1,14.5,152a30.6,30.6,0,0,1,6.386-5.273,5.526,5.526,0,0,0-1.556-3.707A36.3,36.3,0,0,0,12.485,148.363Z" transform="translate(1627.208 813.916)" fill="#00d6ad"/>
    <path id="Path_90620" data-name="Path 90620" d="M-17.506,57.922a5.364,5.364,0,0,1,.824-2.116,16.725,16.725,0,0,1-4.438-.84,3.016,3.016,0,0,0-1.012,1.945A19.854,19.854,0,0,0-17.506,57.922Z" transform="translate(1610.815 828.87)" fill="#00d6ad"/>
    <path id="Path_90621" data-name="Path 90621" d="M-13.778,126.35a6.691,6.691,0,0,0-3.983-1.393,10.026,10.026,0,0,1-2.471,1.787c.944.338,1.279.944,1.565,2.342A17.343,17.343,0,0,1-13.778,126.35Z" transform="translate(1611.836 817.153)" fill="#00d6ad"/>
    <path id="Path_90622" data-name="Path 90622" d="M167.328,129.973a7.079,7.079,0,0,0-3.971-2.035,10.587,10.587,0,0,1-2.847,1.515c.941.491,1.2,1.175,1.3,2.681A18.324,18.324,0,0,1,167.328,129.973Z" transform="translate(1694.81 816.652)" fill="#00d6ad"/>
    <path id="Path_90623" data-name="Path 90623" d="M-69.563,36.2a10.859,10.859,0,0,1-4.177.767,3.464,3.464,0,0,0,.574,2.139,14.349,14.349,0,0,0,4.335-.506C-69.612,37.691-69.864,37.1-69.563,36.2Z" transform="translate(2039.262 865.678)" fill="#00d6ad"/>
    <path id="Path_90624" data-name="Path 90624" d="M64.36,97.582a5.949,5.949,0,0,1,1.017-2.1,1.913,1.913,0,0,0-1.133-.442,7.9,7.9,0,0,0-1.185,2.083C63.717,97.077,64.062,97.158,64.36,97.582Z" transform="translate(1648.962 822.201)" fill="#00d6ad"/>
    <path id="Path_90625" data-name="Path 90625" d="M219.511-4.744a1.692,1.692,0,0,1,.427-1.67,5.5,5.5,0,0,0-2.505.082,1.537,1.537,0,0,0-.262,1.511A4.041,4.041,0,0,1,219.511-4.744Z" transform="translate(1719.003 841.576)" fill="#00d6ad"/>
    <path id="Path_90626" data-name="Path 90626" d="M-102.925,205.281a2.377,2.377,0,0,1,.827,2.275,7.728,7.728,0,0,0,2.842-2.077,2.164,2.164,0,0,0-.892-1.961A5.685,5.685,0,0,1-102.925,205.281Z" transform="translate(1553.033 804.036)" fill="#00d6ad"/>
    <path id="Path_90627" data-name="Path 90627" d="M22.261,79.792A8.475,8.475,0,0,0,18.479,82.3a4.141,4.141,0,0,0,1.564,2.263,7.755,7.755,0,0,1,3.745-2.44A2.9,2.9,0,0,1,22.261,79.792Z" transform="translate(1629.349 824.678)" fill="#00d6ad"/>
    <path id="Path_90628" data-name="Path 90628" d="M-94.267,201.158a4.555,4.555,0,0,0-1.023-2.218,2.231,2.231,0,0,0-1.332.645,4.166,4.166,0,0,1,.989,2.192A1.558,1.558,0,0,1-94.267,201.158Z" transform="translate(1552.565 804.87)" fill="#00d6ad"/>
    <path id="Path_90629" data-name="Path 90629" d="M270.567,290.5a6.383,6.383,0,0,1,.207-4.557c-2.991.358-5.943,1.059-7.137,1.787a10.2,10.2,0,0,0,1.379,4.16C266.356,291.044,267.92,290.8,270.567,290.5Z" transform="translate(1771.758 790.116)" fill="#00d6ad"/>
    <path id="Path_90630" data-name="Path 90630" d="M306.5,230.6a3.324,3.324,0,0,1-1.744-1.613,11.555,11.555,0,0,0-1.686,3.44,5.326,5.326,0,0,0,2.119.848A6.7,6.7,0,0,1,306.5,230.6Z" transform="translate(1768.831 799.766)" fill="#00d6ad"/>
    <path id="Path_90631" data-name="Path 90631" d="M311.862,260.814a3.144,3.144,0,0,1-2.586.434,25.361,25.361,0,0,0,1.581,7.126,6.017,6.017,0,0,0,3.189-.48A14.466,14.466,0,0,1,311.862,260.814Z" transform="translate(1768.37 794.201)" fill="#00d6ad"/>
    <path id="Path_90632" data-name="Path 90632" d="M-101.591,218.308a2.434,2.434,0,0,1-1.766,1,19.618,19.618,0,0,0,3.035,4.768,4.649,4.649,0,0,0,2.194-1.193A11.192,11.192,0,0,1-101.591,218.308Z" transform="translate(1553.065 801.455)" fill="#00d6ad"/>
    <path id="Path_90633" data-name="Path 90633" d="M263.246-9.5a6.017,6.017,0,0,1,3.374,1.036,1.633,1.633,0,0,1,.8-1.043,7.211,7.211,0,0,0-3.646-1.481A3.006,3.006,0,0,0,263.246-9.5Z" transform="translate(1771.787 841.907)" fill="#00d6ad"/>
    <path id="Path_90634" data-name="Path 90634" d="M259.728,229.194a4.794,4.794,0,0,1-2.7-.789,1.306,1.306,0,0,1-.629.84,5.742,5.742,0,0,0,2.919,1.14A2.4,2.4,0,0,0,259.728,229.194Z" transform="translate(1772.296 800.014)" fill="#00d6ad"/>
    <path id="Path_90635" data-name="Path 90635" d="M248.084,113.441c1.368-.386,2.9-.208,5.95,1.415a7.284,7.284,0,0,0,.007-4.58,12.967,12.967,0,0,0-6.47-1A6.659,6.659,0,0,1,248.084,113.441Z" transform="translate(1772.951 819.728)" fill="#00d6ad"/>
    <path id="Path_90636" data-name="Path 90636" d="M304.2,342.3c-.861-.719-1.426-1.794-1.727-4.5a5.735,5.735,0,0,0-2.986,2.034,10.216,10.216,0,0,0,2.23,4.658A5.251,5.251,0,0,1,304.2,342.3Z" transform="translate(1769.096 779.179)" fill="#00d6ad"/>
    <path id="Path_90637" data-name="Path 90637" d="M-88.142,147.545a3.318,3.318,0,0,0,.262,2.121,3.57,3.57,0,0,1,2.188-.5,5.063,5.063,0,0,0,.081-2.055A6.682,6.682,0,0,1-88.142,147.545Z" transform="translate(1551.941 813.523)" fill="#00d6ad"/>
    <path id="Path_90638" data-name="Path 90638" d="M174.1,47.623a6.98,6.98,0,0,0,2.247-3.884,7.505,7.505,0,0,1-4.294-1.939,10.633,10.633,0,0,0-2.736,3.341A14.047,14.047,0,0,1,174.1,47.623Z" transform="translate(1698.933 831.011)" fill="#00d6ad"/>
    <path id="Path_90639" data-name="Path 90639" d="M33.7,39.944a3.588,3.588,0,0,0-1.439-2.08,22.49,22.49,0,0,1-6.534,4.809,3.673,3.673,0,0,1,1.054,2.152A20.006,20.006,0,0,0,33.7,39.944Z" transform="translate(1633.219 838.28)" fill="#00d6ad"/>
    <path id="Path_90640" data-name="Path 90640" d="M289.555,347.938a4.115,4.115,0,0,0,2.669-1.155,25.872,25.872,0,0,1-3.958-8.446,4.23,4.23,0,0,1-2.663.705A22.986,22.986,0,0,0,289.555,347.938Z" transform="translate(1770.127 779.139)" fill="#00d6ad"/>
    <path id="Path_90641" data-name="Path 90641" d="M94.195,68.806a5.073,5.073,0,0,0,2.179-3.7,31.317,31.317,0,0,1-5.428-5,4.655,4.655,0,0,1-1.557,1.794A27.89,27.89,0,0,1,94.195,68.806Z" transform="translate(1662.23 827.877)" fill="#00d6ad"/>
    <path id="Path_90642" data-name="Path 90642" d="M276.722,312.543a3.325,3.325,0,0,0-2.724-.72,20.528,20.528,0,0,1-2.2,4.314,3.058,3.058,0,0,1,1.409.666A18.283,18.283,0,0,1,276.722,312.543Z" transform="translate(1771.152 781.111)" fill="#00d6ad"/>
  </g>
</svg>
