<svg xmlns="http://www.w3.org/2000/svg" xmlns:xlink="http://www.w3.org/1999/xlink" width="252" height="367" viewBox="0 0 252 367">
  <defs>
    <clipPath id="clip-path">
      <rect id="Rectangle_17189" data-name="Rectangle 17189" width="252" height="367" rx="6" transform="translate(2166 4601)" fill="#ecfbff"/>
    </clipPath>
  </defs>
  <g id="Mask_Group_251" data-name="Mask Group 251" transform="translate(-2166 -4601)" clip-path="url(#clip-path)">
    <g id="Group_40932" data-name="Group 40932" transform="translate(2178.52 4631.778)">
      <g id="Group_40928" data-name="Group 40928">
        <path id="Path_98790" data-name="Path 98790" d="M1925.155,683.288s4.411-3.978,5.487-6.767.95-7.473.95-10.512a1.228,1.228,0,0,0-1.655.983c-.325,1.447-.919,4.8-2.144,5.475s-3.967.6-4.6,4.054S1925.155,683.288,1925.155,683.288Z" transform="translate(-1874.626 -652.553)" fill="#f9b587"/>
        <path id="Path_98791" data-name="Path 98791" d="M1901.839,686.868s-4.009-8.21-3.2-10.884,13.135-5.6,14.76-4.344,0,16.6,0,16.6Z" transform="translate(-1861.402 -655.461)" fill="#f9b587"/>
        <path id="Path_98792" data-name="Path 98792" d="M2186.545,1236.966s-.59,6.779,1.768,10.021,3.635,6.189,4.421,4.715-1.277-6.582-.59-6.484,2.6,6.092,3.557,7.958,3.025,4.814,4.4,3.341-1.277-15.424-2.358-17.193-3.34-5.7-3.34-5.7Z" transform="translate(-2016.428 -958.186)" fill="#f9b587"/>
        <g id="Group_40927" data-name="Group 40927" transform="translate(0 0)">
          <path id="Path_98793" data-name="Path 98793" d="M1821.387,673.311a61.044,61.044,0,0,1-2.378-6.867,25.611,25.611,0,0,1-.889-4.832,7.642,7.642,0,0,1,.14-2.234s39.053-8.068,42.885-9.625,37.424-12.811,37.424-12.811a48.642,48.642,0,0,1,2.216,5.524c.391,1.187.777,2.5,1.079,3.848a20.2,20.2,0,0,1,.477,7.434s-39.572,4.7-43.668,6.665S1821.387,673.311,1821.387,673.311Z" transform="translate(-1818.099 -636.943)" fill="#efcbab"/>
          <path id="Path_98794" data-name="Path 98794" d="M1819.009,666.444a25.611,25.611,0,0,1-.889-4.832,7.642,7.642,0,0,1,.14-2.234s39.053-8.068,42.885-9.625,37.424-12.811,37.424-12.811a48.642,48.642,0,0,1,2.216,5.524c.391,1.187.777,2.5,1.079,3.848-11.143,1.365-41.366,5.215-45.122,7.012C1853.093,655.08,1828.971,663.142,1819.009,666.444Z" transform="translate(-1818.099 -636.943)" fill="#ddb08e"/>
          <path id="Path_98795" data-name="Path 98795" d="M1909.148,659.56s-10.423,1.01-14.2,4.357l2.207,9.833s9.577-.973,14.391-3.507Z" transform="translate(-1859.473 -649.12)" fill="#f39568"/>
        </g>
        <path id="Path_98796" data-name="Path 98796" d="M1946.224,1622.625s0-6.272.894-8.357,4.171-10.577,4.171-10.577H1964.1s2.383,7.746,2.532,10.279,0,8.655,0,8.655Z" transform="translate(-1887.079 -1157.423)" fill="#233862"/>
        <path id="Path_98797" data-name="Path 98797" d="M2098.55,1622.625s0-6.272-.894-8.357-4.171-10.577-4.171-10.577h-12.81s-2.384,7.746-2.532,10.279,0,8.655,0,8.655Z" transform="translate(-1958.066 -1157.423)" fill="#233862"/>
        <path id="Path_98798" data-name="Path 98798" d="M1946.7,1174.16c-.041-1.706,2.23,67.95-1.11,107.5-3.3,39.056.024,93.4.024,93.4s10.719,5.91,22.338,0c0,0,12.743-75.445,12.662-93.4-.086-19.122,13.869-104.512,13.869-104.512Z" transform="translate(-1885.954 -926.154)" fill="#252732"/>
        <path id="Path_98799" data-name="Path 98799" d="M2064.431,1374.954s-10.716,5.912-22.335,0c0,0-12.741-75.443-12.66-93.4.035-8.075-2.431-27.975-5.3-48.263-3.92-27.756-8.576-56.245-8.576-56.245l49.636-3.1s-4.094,68.561-.743,107.61S2064.431,1374.954,2064.431,1374.954Z" transform="translate(-1924.411 -926.055)" fill="#252732"/>
        <path id="Path_98800" data-name="Path 98800" d="M2044.5,931.461l-14.661-6.352s-7.581,60.286,2.538,64.02c0,0,28.876-51.283,26.911-57.865Z" transform="translate(-1930.626 -792.086)" fill="#fff"/>
        <path id="Path_98801" data-name="Path 98801" d="M2037.343,916.83s-4.133.71-6.294,2.772c0,0,3.144,10.218,11.494,13.263l3.584-5.862S2039.314,923.783,2037.343,916.83Z" transform="translate(-1932.747 -787.629)" fill="#d2e3fc"/>
        <path id="Path_98802" data-name="Path 98802" d="M2063.713,930.581s13.658-.525,15.7-7.107a11.118,11.118,0,0,1,2.628,7.467s-4.323,6.526-15.13,6.6Z" transform="translate(-1950.333 -791.206)" fill="#d2e3fc"/>
        <path id="Path_98803" data-name="Path 98803" d="M1926.034,761.874c-6.592,4.154-15.594,9.783-22.944,14.233a27.037,27.037,0,0,1-.781-3.353c-2.434-15.538,1.1-69.5,1.1-69.5a15.628,15.628,0,0,1,4.979-1.443c4.783-.391,6.582,2.818,6.582,2.818S1923.305,752.1,1926.034,761.874Z" transform="translate(-1862.976 -671.851)" fill="#f9b587"/>
        <path id="Path_98804" data-name="Path 98804" d="M2036.128,1015.837l-4.973,2.067c-7.95,2.829-16.528-.986-19.129-9.017-3.5-10.822-3.863-22.477-5.159-32.07-.638-4.716-1.376-14.442-4.234-22.021a.014.014,0,0,1-.005-.01l5,167.717c-74.854,5.3-111.373-37.724-111.373-37.724-1.934-45.4,16.209-147.712,22.821-183.169-3.192-7.2-25.832-27.879-29.618-48.18-1.757-9.426,3.749-16.095,10.436-20.6a61.564,61.564,0,0,1,18.7-7.911l24.192,32.342a15.038,15.038,0,0,1,2.034,2.653c1.868,3.8,11.556,10.107,11.556,10.107-.029.2,1.043,54.525,3.015,56.259,2.848-1.081,21.939-39.3,26.155-52.033a141.82,141.82,0,0,1,19.557,6.988s13.1,6.992,14.957,37.472c1.572,25.845,17.367,58.835,20.949,88.81A7.983,7.983,0,0,1,2036.128,1015.837Z" transform="translate(-1856.337 -738.148)" fill="#31a5c4"/>
        <path id="Path_98805" data-name="Path 98805" d="M2028.929,918.572s1.767,52.675,4.024,65.858l33.593-58.045-4.631-1.715-26.55,48.1-2.62-52.33Z" transform="translate(-1931.606 -788.567)" fill="#252732"/>
        <path id="Path_98806" data-name="Path 98806" d="M2037.343,914.134s-4.133.71-6.294,2.773c0,0,3.144,10.217,11.494,13.262l3.584-4.617S2039.314,921.087,2037.343,914.134Z" transform="translate(-1932.747 -786.178)" fill="#fff"/>
        <path id="Path_98807" data-name="Path 98807" d="M2063.713,929.129s13.658-1.769,15.7-8.351a11.12,11.12,0,0,1,2.628,7.467s-4.323,6.526-15.13,6.6Z" transform="translate(-1950.333 -789.755)" fill="#fff"/>
        <ellipse id="Ellipse_4458" data-name="Ellipse 4458" cx="2.481" cy="2.481" rx="2.481" ry="2.481" transform="translate(93.339 199.007)" fill="#233862"/>
        <path id="Path_98808" data-name="Path 98808" d="M2010.19,1118.94a2.481,2.481,0,1,1,2.481,2.481A2.481,2.481,0,0,1,2010.19,1118.94Z" transform="translate(-1921.517 -895.106)" fill="#233862"/>
        <path id="Path_98809" data-name="Path 98809" d="M1894.208,665.472a5,5,0,0,1,.337-4.624c1.461-2.072,11.076-5.243,11.971-3.569s.328,7.492-2.761,8.779S1894.442,666.769,1894.208,665.472Z" transform="translate(-1858.843 -647.639)" fill="#f9b587"/>
        <path id="Path_98810" data-name="Path 98810" d="M1919.072,910.837c-3.192-7.2-25.832-27.879-29.618-48.18-1.757-9.426,3.749-16.095,10.436-20.6,0,0-3.134,14.256,5.759,27.122S1919.072,910.837,1919.072,910.837Z" transform="translate(-1856.337 -747.375)" fill="#2f8caa"/>
        <path id="Path_98811" data-name="Path 98811" d="M2163.541,1169.375c-7.951,2.829-16.529-.986-19.13-9.017-3.5-10.822-3.863-22.477-5.159-32.07-.638-4.716-1.376-14.442-4.233-22.021.267.419,8.883,14.032,16.618,36.072C2159.5,1164.726,2157.044,1167.993,2163.541,1169.375Z" transform="translate(-1988.723 -889.619)" fill="#2f8caa"/>
      </g>
      <g id="Group_40931" data-name="Group 40931" transform="translate(89.593 53.313) rotate(-7)">
        <path id="Path_98812" data-name="Path 98812" d="M18.033,20.526c8.834-.752,10.862-4.968,12.755-7.841A81.679,81.679,0,0,1,8.419,2.374L4.194,0C2.985,0,0,2.225,0,6.692,0,12.694,6.285,21.533,18.033,20.526Z" transform="translate(0.768 73.971)" fill="#2c2a40"/>
        <path id="Path_98813" data-name="Path 98813" d="M4.484,32.369S-2.027,27.44.642,17.544c0,0,2.184,3.757,4.17,4.131,0,0-5.032-13.622,10.353-21.208,0,0-1.8,7.494.028,9.989,0,0,4.063-8.669,10.084-10.456,0,0-.9,15.192,8.512,18.261,6.717,2.19,15.4,9.993,17.794,22.816,0,0,3.9-1.126,5.356.407,0,0-5,.842-5.691,4.032a3.578,3.578,0,0,1,3.681.279s-3.534.729-4.08,3.493S36.926,73.182,28.859,76.7,4.484,32.369,4.484,32.369Z" transform="translate(2.612 0)" fill="#2c2a40"/>
        <g id="Group_40930" data-name="Group 40930" transform="translate(0 25.563)">
          <g id="Group_40929" data-name="Group 40929" transform="translate(0 0)">
            <path id="Path_98814" data-name="Path 98814" d="M23.953,23.349l-1.075,6.2a4.088,4.088,0,0,1-2.985,3.26C6.547,36.285.663,27.992,0,24.779,1.717,24.094,32.291,11.725,37.3,0,37.3,0,34.077,15.764,23.953,23.349Z" transform="translate(4.014 30.995)" fill="#f9b587"/>
            <path id="Path_98815" data-name="Path 98815" d="M3.233,19.779A16.963,16.963,0,0,0,.05,29.571L0,40.41a9.394,9.394,0,0,0,6.348,8.934c4.373,1.5,10.5,2.766,16.775,1.4C34.966,48.17,40.631,33.823,40.631,33.823s4.934-14.875-5-25.132C28.752,1.586,19.519.191,14.495,0A5.74,5.74,0,0,0,9.268,2.928l-3.8,6.791a16.389,16.389,0,0,0-.811,1.654,16.917,16.917,0,0,0-1.336,6Z" fill="#f9b587"/>
            <path id="Path_98816" data-name="Path 98816" d="M.307,1.009s9.4-3.971,11.74,3.844L10.6,6.049S7.484.077,0,3.082Z" transform="translate(16.988 11.867)" fill="#2c2a40"/>
            <path id="Path_98817" data-name="Path 98817" d="M2.465,8.406A16.775,16.775,0,0,0,0,13.414c1.862-.463,5.137-.177,10.73,2.939,0,0-2.162-3.816-5.3-5.111A1.357,1.357,0,0,1,4.9,9.124L8.783,4.406a3.954,3.954,0,0,0-1.4-2.261A25.049,25.049,0,0,0,3.885,0,16.918,16.918,0,0,0,2.55,6Z" transform="translate(0.768 11.373)" fill="#f39568"/>
            <path id="Path_98818" data-name="Path 98818" d="M1.514.117a18.381,18.381,0,0,1,3.82,2.426L4.855,4.389A13.06,13.06,0,0,0,.793,2,1.088,1.088,0,0,1,.083.565L.093.546A1.046,1.046,0,0,1,1.514.117Z" transform="translate(4.075 9.745)" fill="#2c2a40"/>
            <path id="Path_98819" data-name="Path 98819" d="M1.018,0,17.771,4.8S12.5,12.794,4,9.2C-2.671,6.391,1.018,0,1.018,0Z" transform="translate(1.615 29.266)" fill="#fff"/>
            <path id="Path_98820" data-name="Path 98820" d="M3.4,9.159S13.908,11.836,24.759,0c0,0,.481,6.118-5.344,12.36S0,15.5,0,15.5Z" transform="translate(4.014 40.271)" fill="#f39568"/>
            <path id="Path_98821" data-name="Path 98821" d="M3.183,2.128S8.5-2.481,11.918,1.867,7.673,18.485,2.2,13.479,3.183,2.128,3.183,2.128Z" transform="translate(34.217 27.703)" fill="#f9b587"/>
          </g>
          <path id="Path_98822" data-name="Path 98822" d="M0,1.747S2.074-.764,4.66.235A4.68,4.68,0,0,1,7.907,5.157S6.223-1.3,0,1.747Z" transform="translate(17.297 17.03)" fill="#2c2a40"/>
          <path id="Path_98823" data-name="Path 98823" d="M4.39,2.145S3.007-1.958,0,1.185A3.113,3.113,0,0,1,4.39,2.145Z" transform="translate(3.647 15.323)" fill="#2c2a40"/>
        </g>
        <path id="Path_98824" data-name="Path 98824" d="M4.194.454S.118,5.383,3.43,10.529L0,18.418l3.548.91L6.5,14.953,8.777,3.642S6.027-1.532,4.194.454Z" transform="translate(35.26 38.243)" fill="#2c2a40"/>
      </g>
    </g>
    <g id="Group_40933" data-name="Group 40933" transform="translate(2288.21 4631.778)">
      <g id="Group_40672" data-name="Group 40672" transform="translate(95.404 78.795)">
        <g id="Group_40671" data-name="Group 40671">
          <g id="Group_40670" data-name="Group 40670">
            <path id="Path_98088" data-name="Path 98088" d="M3315.669,327.96a1.8,1.8,0,1,0-.061,2.392,2.63,2.63,0,1,0,.061-2.392Z" transform="translate(-3312.486 -322.602)" fill="#fed559"/>
            <path id="Path_98089" data-name="Path 98089" d="M3325.456,326.971s10.125.233,13.609.482,4.386.432,4.4.008-.509-2.463-.2-3.339a5.9,5.9,0,0,0,.064-2.51c-.059-.462.113-.28.061-.989s.313-1.432-.327-1.654c-.4-.138-3.16,1.669-8.587,3.545a69.557,69.557,0,0,1-8.968,1.624Z" transform="translate(-3318.681 -318.96)" fill="#fed559"/>
          </g>
        </g>
      </g>
      <g id="Group_40673" data-name="Group 40673" transform="translate(76.883 50.514)">
        <path id="Path_98090" data-name="Path 98090" d="M3278.681,296.464a8.283,8.283,0,0,0,1.1,1.118c5.235,4.441,16.329,3.332,16.8,3.283a1.172,1.172,0,0,0-.245-2.331c-.105.011-10.57,1.053-15.039-2.741a5.118,5.118,0,0,1-1.895-3.774c-.32-5.4,3.217-10.436,6.06-14.479,2.144-3.051,3.837-5.46,3.509-7.508a6.6,6.6,0,0,0-9.106-4.59,1.172,1.172,0,1,0,1.252,1.981,4.328,4.328,0,0,1,5.54,2.98c.177,1.109-1.5,3.488-3.113,5.789-3.052,4.342-6.85,9.746-6.481,15.966A7.41,7.41,0,0,0,3278.681,296.464Z" transform="translate(-3277.032 -264.822)" fill="#fed559"/>
      </g>
      <path id="Path_98091" data-name="Path 98091" d="M3190.171,253.236s7.619-11.487,4.02-18.933c-1.439-2.978-24.505-17.386-30.539-18.746-7.027-1.584-14.427,9.8-14.427,9.8s10.2,8.21,10.385,13.462C3159.655,240.09,3176.2,236.7,3190.171,253.236Z" transform="translate(-3139.106 -190.705)" fill="#2f8caa"/>
      <path id="Path_98092" data-name="Path 98092" d="M3216.712,226.337l-65.047-25.677-21.812-32.539,55.132,25.306Z" transform="translate(-3129.853 -168.121)" fill="#31a5c4"/>
    </g>
  </g>
</svg>
