<svg xmlns="http://www.w3.org/2000/svg" width="90.177" height="38.314" viewBox="0 0 90.177 38.314">
  <g id="Group_21868" data-name="Group 21868" transform="translate(0 0.03)" opacity="0.266">
    <ellipse id="Ellipse_2" data-name="Ellipse 2" cx="3.014" cy="2.949" rx="3.014" ry="2.949" transform="translate(0 31.453)" fill="#8bc38f"/>
    <ellipse id="Ellipse_3" data-name="Ellipse 3" cx="3.014" cy="2.949" rx="3.014" ry="2.949" transform="translate(0 16.178)" fill="#8bc38f"/>
    <ellipse id="Ellipse_4" data-name="Ellipse 4" cx="3.014" cy="2.949" rx="3.014" ry="2.949" transform="translate(0 0.904)" fill="#8bc38f"/>
    <ellipse id="Ellipse_5" data-name="Ellipse 5" cx="3.014" cy="2.949" rx="3.014" ry="2.949" transform="translate(16.651 31.453)" fill="#8bc38f"/>
    <ellipse id="Ellipse_6" data-name="Ellipse 6" cx="3.014" cy="2.949" rx="3.014" ry="2.949" transform="translate(16.651 16.178)" fill="#8bc38f"/>
    <ellipse id="Ellipse_7" data-name="Ellipse 7" cx="3.014" cy="2.949" rx="3.014" ry="2.949" transform="translate(16.651 0.904)" fill="#8bc38f"/>
    <path id="Path_40554" data-name="Path 40554" d="M2.95.01A3.007,3.007,0,0,1,5.911,3.033a2.957,2.957,0,0,1-2.94,3A3.007,3.007,0,0,1,.01,3.012,2.957,2.957,0,0,1,2.95.01Z" transform="matrix(0.16, -0.987, 0.987, 0.16, 32.858, 36.839)" fill="#8bc38f"/>
    <path id="Path_40555" data-name="Path 40555" d="M2.95.01A3.007,3.007,0,0,1,5.911,3.033a2.957,2.957,0,0,1-2.94,3A3.007,3.007,0,0,1,.01,3.012,2.957,2.957,0,0,1,2.95.01Z" transform="matrix(0.16, -0.987, 0.987, 0.16, 32.858, 21.565)" fill="#8bc38f"/>
    <path id="Path_40556" data-name="Path 40556" d="M2.95.01A3.007,3.007,0,0,1,5.911,3.033a2.957,2.957,0,0,1-2.94,3A3.007,3.007,0,0,1,.01,3.012,2.957,2.957,0,0,1,2.95.01Z" transform="matrix(0.16, -0.987, 0.987, 0.16, 32.858, 6.291)" fill="#8bc38f"/>
    <ellipse id="Ellipse_11" data-name="Ellipse 11" cx="3.014" cy="2.949" rx="3.014" ry="2.949" transform="translate(49.953 31.453)" fill="#8bc38f"/>
    <ellipse id="Ellipse_12" data-name="Ellipse 12" cx="3.014" cy="2.949" rx="3.014" ry="2.949" transform="translate(49.953 16.178)" fill="#8bc38f"/>
    <ellipse id="Ellipse_13" data-name="Ellipse 13" cx="3.014" cy="2.949" rx="3.014" ry="2.949" transform="translate(49.953 0.904)" fill="#8bc38f"/>
    <ellipse id="Ellipse_14" data-name="Ellipse 14" cx="3.014" cy="2.949" rx="3.014" ry="2.949" transform="translate(66.604 31.453)" fill="#8bc38f"/>
    <ellipse id="Ellipse_15" data-name="Ellipse 15" cx="3.014" cy="2.949" rx="3.014" ry="2.949" transform="translate(66.604 16.178)" fill="#8bc38f"/>
    <ellipse id="Ellipse_16" data-name="Ellipse 16" cx="3.014" cy="2.949" rx="3.014" ry="2.949" transform="translate(66.604 0.904)" fill="#8bc38f"/>
    <path id="Path_40557" data-name="Path 40557" d="M3,.023A3.038,3.038,0,0,1,6.032,3,2.926,2.926,0,0,1,3.051,5.939,3.038,3.038,0,0,1,.023,2.958,2.926,2.926,0,0,1,3,.023Z" transform="translate(82.331 32.806) rotate(-22.5)" fill="#8bc38f"/>
    <path id="Path_40558" data-name="Path 40558" d="M3,.023A3.038,3.038,0,0,1,6.032,3,2.926,2.926,0,0,1,3.051,5.939,3.038,3.038,0,0,1,.023,2.958,2.926,2.926,0,0,1,3,.023Z" transform="translate(82.331 17.531) rotate(-22.5)" fill="#8bc38f"/>
    <path id="Path_40559" data-name="Path 40559" d="M3,.023A3.038,3.038,0,0,1,6.032,3,2.926,2.926,0,0,1,3.051,5.939,3.038,3.038,0,0,1,.023,2.958,2.926,2.926,0,0,1,3,.023Z" transform="translate(82.331 2.257) rotate(-22.5)" fill="#8bc38f"/>
  </g>
</svg>
