<svg xmlns="http://www.w3.org/2000/svg" xmlns:xlink="http://www.w3.org/1999/xlink" width="77.497" height="101.892" viewBox="0 0 77.497 101.892">
  <defs>
    <clipPath id="clip-path">
      <path id="Path_7800" data-name="Path 7800" d="M367.207,276.945c-8.4-18.3-28.1-31.149-51.057-31.149h0a59.371,59.371,0,0,0-22.1,4.216V272.08a36.5,36.5,0,0,1,22.1-7.3h0a35.861,35.861,0,0,1,27.281,12.162,30.251,30.251,0,0,1,7.468,19.8c0,17.65-15.558,31.957-34.749,31.957h0v18.989h0c30.593,0,55.4-22.809,55.4-50.946A47.287,47.287,0,0,0,367.207,276.945Z" transform="translate(-294.048 -245.796)" fill="#8bc38f"/>
    </clipPath>
  </defs>
  <g id="Group_21867" data-name="Group 21867" opacity="0.266">
    <g id="Group_2565" data-name="Group 2565" transform="translate(0 0)" clip-path="url(#clip-path)">
      <g id="Group_2557" data-name="Group 2557" transform="translate(-30.069 52.861)">
        <path id="Path_40560" data-name="Path 40560" d="M2,.01A2.044,2.044,0,0,1,4.009,2.059,2,2,0,0,1,2.02,4.087,2.044,2.044,0,0,1,.01,2.038,2,2,0,0,1,2,.01Z" transform="translate(0.415 4.281) rotate(-76.21)" fill="#8bc38f"/>
        <path id="Path_40561" data-name="Path 40561" d="M2.035.015a2.055,2.055,0,0,1,2.05,2.017A1.984,1.984,0,0,1,2.065,4.02,2.055,2.055,0,0,1,.015,2,1.984,1.984,0,0,1,2.035.015Z" transform="translate(10.819 1.672) rotate(-21.049)" fill="#8bc38f"/>
        <path id="Path_40562" data-name="Path 40562" d="M2.022.022A2.073,2.073,0,0,1,4.065,2.06a1.967,1.967,0,0,1-2,1.994A2.073,2.073,0,0,1,.022,2.016,1.967,1.967,0,0,1,2.022.022Z" transform="translate(21.149 2.638) rotate(-41.349)" fill="#8bc38f"/>
        <path id="Path_40563" data-name="Path 40563" d="M2,.01A2.044,2.044,0,0,1,4.009,2.059,2,2,0,0,1,2.02,4.087,2.044,2.044,0,0,1,.01,2.038,2,2,0,0,1,2,.01Z" transform="translate(0.415 15.312) rotate(-76.21)" fill="#8bc38f"/>
        <path id="Path_40564" data-name="Path 40564" d="M2.035.015a2.055,2.055,0,0,1,2.05,2.017A1.984,1.984,0,0,1,2.065,4.02,2.055,2.055,0,0,1,.015,2,1.984,1.984,0,0,1,2.035.015Z" transform="translate(10.819 12.703) rotate(-21.049)" fill="#8bc38f"/>
        <path id="Path_40565" data-name="Path 40565" d="M2.022.022A2.073,2.073,0,0,1,4.065,2.06a1.967,1.967,0,0,1-2,1.994A2.073,2.073,0,0,1,.022,2.016,1.967,1.967,0,0,1,2.022.022Z" transform="translate(21.149 13.669) rotate(-41.349)" fill="#8bc38f"/>
        <path id="Path_40566" data-name="Path 40566" d="M2.017.022A2.073,2.073,0,0,1,4.056,2.065a1.966,1.966,0,0,1-1.995,2A2.073,2.073,0,0,1,.022,2.021,1.966,1.966,0,0,1,2.017.022Z" transform="translate(0 25) rotate(-47.444)" fill="#8bc38f"/>
        <path id="Path_40567" data-name="Path 40567" d="M2,.007A2.036,2.036,0,0,1,4,2.054,2,2,0,0,1,2.011,4.087a2.036,2.036,0,0,1-2-2.047A2,2,0,0,1,2,.007Z" transform="translate(11.124 26.543) rotate(-81.079)" fill="#8bc38f"/>
        <path id="Path_40568" data-name="Path 40568" d="M2,.009A2.042,2.042,0,0,1,4.007,2.058,2,2,0,0,1,2.018,4.087,2.042,2.042,0,0,1,.009,2.039,2,2,0,0,1,2,.009Z" transform="translate(21.593 26.393) rotate(-77.416)" fill="#8bc38f"/>
        <path id="Path_40569" data-name="Path 40569" d="M2.017.022A2.073,2.073,0,0,1,4.056,2.065a1.966,1.966,0,0,1-1.995,2A2.073,2.073,0,0,1,.022,2.021,1.966,1.966,0,0,1,2.017.022Z" transform="translate(0 36.031) rotate(-47.444)" fill="#8bc38f"/>
        <path id="Path_40570" data-name="Path 40570" d="M2,.007A2.036,2.036,0,0,1,4,2.054,2,2,0,0,1,2.011,4.087a2.036,2.036,0,0,1-2-2.047A2,2,0,0,1,2,.007Z" transform="translate(11.124 37.573) rotate(-81.079)" fill="#8bc38f"/>
        <path id="Path_40571" data-name="Path 40571" d="M2,.009A2.042,2.042,0,0,1,4.007,2.058,2,2,0,0,1,2.018,4.087,2.042,2.042,0,0,1,.009,2.039,2,2,0,0,1,2,.009Z" transform="translate(21.593 37.424) rotate(-77.416)" fill="#8bc38f"/>
        <path id="Path_40572" data-name="Path 40572" d="M2.017.022A2.073,2.073,0,0,1,4.056,2.065a1.966,1.966,0,0,1-1.995,2A2.073,2.073,0,0,1,.022,2.021,1.966,1.966,0,0,1,2.017.022Z" transform="translate(0 47.062) rotate(-47.444)" fill="#8bc38f"/>
        <path id="Path_40573" data-name="Path 40573" d="M2,.007A2.036,2.036,0,0,1,4,2.054,2,2,0,0,1,2.011,4.087a2.036,2.036,0,0,1-2-2.047A2,2,0,0,1,2,.007Z" transform="translate(11.124 48.604) rotate(-81.079)" fill="#8bc38f"/>
        <path id="Path_40574" data-name="Path 40574" d="M2,.009A2.042,2.042,0,0,1,4.007,2.058,2,2,0,0,1,2.018,4.087,2.042,2.042,0,0,1,.009,2.039,2,2,0,0,1,2,.009Z" transform="translate(21.593 48.455) rotate(-77.416)" fill="#8bc38f"/>
        <path id="Path_40575" data-name="Path 40575" d="M2.017.022A2.073,2.073,0,0,1,4.056,2.065a1.966,1.966,0,0,1-1.995,2A2.073,2.073,0,0,1,.022,2.021,1.966,1.966,0,0,1,2.017.022Z" transform="translate(0 58.093) rotate(-47.444)" fill="#8bc38f"/>
        <path id="Path_40576" data-name="Path 40576" d="M2,.007A2.036,2.036,0,0,1,4,2.054,2,2,0,0,1,2.011,4.087a2.036,2.036,0,0,1-2-2.047A2,2,0,0,1,2,.007Z" transform="translate(11.124 59.635) rotate(-81.079)" fill="#8bc38f"/>
        <path id="Path_40577" data-name="Path 40577" d="M2,.009A2.042,2.042,0,0,1,4.007,2.058,2,2,0,0,1,2.018,4.087,2.042,2.042,0,0,1,.009,2.039,2,2,0,0,1,2,.009Z" transform="translate(21.593 59.486) rotate(-77.416)" fill="#8bc38f"/>
      </g>
      <g id="Group_2558" data-name="Group 2558" transform="translate(1.875 53.068)">
        <path id="Path_40578" data-name="Path 40578" d="M2,.01A2.043,2.043,0,0,1,4.008,2.058,2,2,0,0,1,2.019,4.087,2.043,2.043,0,0,1,.01,2.039,2,2,0,0,1,2,.01Z" transform="translate(0.432 4.098) rotate(-76.765)" fill="#8bc38f"/>
        <path id="Path_40579" data-name="Path 40579" d="M2,.01A2.043,2.043,0,0,1,4.008,2.058,2,2,0,0,1,2.019,4.087,2.043,2.043,0,0,1,.01,2.039,2,2,0,0,1,2,.01Z" transform="translate(11.005 4.098) rotate(-76.765)" fill="#8bc38f"/>
        <path id="Path_40580" data-name="Path 40580" d="M2.034.016a2.057,2.057,0,0,1,2.05,2.019A1.981,1.981,0,0,1,2.066,4.022,2.057,2.057,0,0,1,.016,2,1.981,1.981,0,0,1,2.034.016Z" transform="matrix(0.923, -0.385, 0.385, 0.923, 21.364, 1.536)" fill="#8bc38f"/>
        <path id="Path_40581" data-name="Path 40581" d="M2,.01A2.043,2.043,0,0,1,4.008,2.058,2,2,0,0,1,2.019,4.087,2.043,2.043,0,0,1,.01,2.039,2,2,0,0,1,2,.01Z" transform="translate(0.432 15.128) rotate(-76.765)" fill="#8bc38f"/>
        <path id="Path_40582" data-name="Path 40582" d="M2,.01A2.043,2.043,0,0,1,4.008,2.058,2,2,0,0,1,2.019,4.087,2.043,2.043,0,0,1,.01,2.039,2,2,0,0,1,2,.01Z" transform="translate(11.005 15.128) rotate(-76.765)" fill="#8bc38f"/>
        <path id="Path_40583" data-name="Path 40583" d="M2.034.016a2.057,2.057,0,0,1,2.05,2.019A1.981,1.981,0,0,1,2.066,4.022,2.057,2.057,0,0,1,.016,2,1.981,1.981,0,0,1,2.034.016Z" transform="matrix(0.923, -0.385, 0.385, 0.923, 21.364, 12.567)" fill="#8bc38f"/>
        <path id="Path_40584" data-name="Path 40584" d="M2.019.022A2.073,2.073,0,0,1,4.06,2.063a1.966,1.966,0,0,1-2,2A2.073,2.073,0,0,1,.022,2.019,1.966,1.966,0,0,1,2.019.022Z" transform="translate(0 24.673) rotate(-45)" fill="#8bc38f"/>
        <path id="Path_40585" data-name="Path 40585" d="M2.019.022A2.073,2.073,0,0,1,4.06,2.063a1.966,1.966,0,0,1-2,2A2.073,2.073,0,0,1,.022,2.019,1.966,1.966,0,0,1,2.019.022Z" transform="translate(10.573 24.673) rotate(-45)" fill="#8bc38f"/>
        <path id="Path_40586" data-name="Path 40586" d="M2,.007A2.036,2.036,0,0,1,4,2.054,2,2,0,0,1,2.012,4.087a2.036,2.036,0,0,1-2-2.047A2,2,0,0,1,2,.007Z" transform="matrix(0.161, -0.987, 0.987, 0.161, 21.69, 26.323)" fill="#8bc38f"/>
        <path id="Path_40587" data-name="Path 40587" d="M2.019.022A2.073,2.073,0,0,1,4.06,2.063a1.966,1.966,0,0,1-2,2A2.073,2.073,0,0,1,.022,2.019,1.966,1.966,0,0,1,2.019.022Z" transform="translate(0 35.704) rotate(-45)" fill="#8bc38f"/>
        <path id="Path_40588" data-name="Path 40588" d="M2.019.022A2.073,2.073,0,0,1,4.06,2.063a1.966,1.966,0,0,1-2,2A2.073,2.073,0,0,1,.022,2.019,1.966,1.966,0,0,1,2.019.022Z" transform="translate(10.573 35.704) rotate(-45)" fill="#8bc38f"/>
        <path id="Path_40589" data-name="Path 40589" d="M2,.007A2.036,2.036,0,0,1,4,2.054,2,2,0,0,1,2.012,4.087a2.036,2.036,0,0,1-2-2.047A2,2,0,0,1,2,.007Z" transform="matrix(0.161, -0.987, 0.987, 0.161, 21.69, 37.354)" fill="#8bc38f"/>
        <path id="Path_40590" data-name="Path 40590" d="M2.019.022A2.073,2.073,0,0,1,4.06,2.063a1.966,1.966,0,0,1-2,2A2.073,2.073,0,0,1,.022,2.019,1.966,1.966,0,0,1,2.019.022Z" transform="translate(0 46.734) rotate(-45)" fill="#8bc38f"/>
        <path id="Path_40591" data-name="Path 40591" d="M2.019.022A2.073,2.073,0,0,1,4.06,2.063a1.966,1.966,0,0,1-2,2A2.073,2.073,0,0,1,.022,2.019,1.966,1.966,0,0,1,2.019.022Z" transform="translate(10.573 46.734) rotate(-45)" fill="#8bc38f"/>
        <path id="Path_40592" data-name="Path 40592" d="M2,.007A2.036,2.036,0,0,1,4,2.054,2,2,0,0,1,2.012,4.087a2.036,2.036,0,0,1-2-2.047A2,2,0,0,1,2,.007Z" transform="matrix(0.161, -0.987, 0.987, 0.161, 21.69, 48.384)" fill="#8bc38f"/>
        <path id="Path_40593" data-name="Path 40593" d="M2.019.022A2.073,2.073,0,0,1,4.06,2.063a1.966,1.966,0,0,1-2,2A2.073,2.073,0,0,1,.022,2.019,1.966,1.966,0,0,1,2.019.022Z" transform="translate(0 57.765) rotate(-45)" fill="#8bc38f"/>
        <path id="Path_40594" data-name="Path 40594" d="M2.019.022A2.073,2.073,0,0,1,4.06,2.063a1.966,1.966,0,0,1-2,2A2.073,2.073,0,0,1,.022,2.019,1.966,1.966,0,0,1,2.019.022Z" transform="translate(10.573 57.765) rotate(-45)" fill="#8bc38f"/>
        <path id="Path_40595" data-name="Path 40595" d="M2,.007A2.036,2.036,0,0,1,4,2.054,2,2,0,0,1,2.012,4.087a2.036,2.036,0,0,1-2-2.047A2,2,0,0,1,2,.007Z" transform="matrix(0.161, -0.987, 0.987, 0.161, 21.69, 59.415)" fill="#8bc38f"/>
      </g>
      <g id="Group_2559" data-name="Group 2559" transform="translate(-30.069 -11.665)">
        <path id="Path_40596" data-name="Path 40596" d="M2,.01A2.044,2.044,0,0,1,4.009,2.059,2,2,0,0,1,2.02,4.087,2.044,2.044,0,0,1,.01,2.038,2,2,0,0,1,2,.01Z" transform="translate(0.415 4.281) rotate(-76.21)" fill="#8bc38f"/>
        <path id="Path_40597" data-name="Path 40597" d="M2.035.015a2.055,2.055,0,0,1,2.05,2.017A1.984,1.984,0,0,1,2.065,4.02,2.055,2.055,0,0,1,.015,2,1.984,1.984,0,0,1,2.035.015Z" transform="translate(10.819 1.672) rotate(-21.049)" fill="#8bc38f"/>
        <path id="Path_40598" data-name="Path 40598" d="M2.022.022A2.073,2.073,0,0,1,4.065,2.06a1.967,1.967,0,0,1-2,1.994A2.073,2.073,0,0,1,.022,2.016,1.967,1.967,0,0,1,2.022.022Z" transform="translate(21.149 2.638) rotate(-41.349)" fill="#8bc38f"/>
        <path id="Path_40599" data-name="Path 40599" d="M2.017.022A2.073,2.073,0,0,1,4.056,2.065a1.966,1.966,0,0,1-1.995,2A2.073,2.073,0,0,1,.022,2.021,1.966,1.966,0,0,1,2.017.022Z" transform="translate(0 13.969) rotate(-47.444)" fill="#8bc38f"/>
        <path id="Path_40600" data-name="Path 40600" d="M2,.007A2.036,2.036,0,0,1,4,2.054,2,2,0,0,1,2.011,4.087a2.036,2.036,0,0,1-2-2.047A2,2,0,0,1,2,.007Z" transform="translate(11.124 15.512) rotate(-81.079)" fill="#8bc38f"/>
        <path id="Path_40601" data-name="Path 40601" d="M2,.009A2.042,2.042,0,0,1,4.007,2.058,2,2,0,0,1,2.018,4.087,2.042,2.042,0,0,1,.009,2.039,2,2,0,0,1,2,.009Z" transform="translate(21.593 15.363) rotate(-77.416)" fill="#8bc38f"/>
        <path id="Path_40602" data-name="Path 40602" d="M2.017.022A2.073,2.073,0,0,1,4.056,2.065a1.966,1.966,0,0,1-1.995,2A2.073,2.073,0,0,1,.022,2.021,1.966,1.966,0,0,1,2.017.022Z" transform="translate(0 25) rotate(-47.444)" fill="#8bc38f"/>
        <path id="Path_40603" data-name="Path 40603" d="M2,.007A2.036,2.036,0,0,1,4,2.054,2,2,0,0,1,2.011,4.087a2.036,2.036,0,0,1-2-2.047A2,2,0,0,1,2,.007Z" transform="translate(11.124 26.543) rotate(-81.079)" fill="#8bc38f"/>
        <path id="Path_40604" data-name="Path 40604" d="M2,.009A2.042,2.042,0,0,1,4.007,2.058,2,2,0,0,1,2.018,4.087,2.042,2.042,0,0,1,.009,2.039,2,2,0,0,1,2,.009Z" transform="translate(21.593 26.393) rotate(-77.416)" fill="#8bc38f"/>
        <path id="Path_40605" data-name="Path 40605" d="M2.017.022A2.073,2.073,0,0,1,4.056,2.065a1.966,1.966,0,0,1-1.995,2A2.073,2.073,0,0,1,.022,2.021,1.966,1.966,0,0,1,2.017.022Z" transform="translate(0 36.031) rotate(-47.444)" fill="#8bc38f"/>
        <path id="Path_40606" data-name="Path 40606" d="M2,.007A2.036,2.036,0,0,1,4,2.054,2,2,0,0,1,2.011,4.087a2.036,2.036,0,0,1-2-2.047A2,2,0,0,1,2,.007Z" transform="translate(11.124 37.573) rotate(-81.079)" fill="#8bc38f"/>
        <path id="Path_40607" data-name="Path 40607" d="M2,.009A2.042,2.042,0,0,1,4.007,2.058,2,2,0,0,1,2.018,4.087,2.042,2.042,0,0,1,.009,2.039,2,2,0,0,1,2,.009Z" transform="translate(21.593 37.424) rotate(-77.416)" fill="#8bc38f"/>
        <path id="Path_40608" data-name="Path 40608" d="M2.017.022A2.073,2.073,0,0,1,4.056,2.065a1.966,1.966,0,0,1-1.995,2A2.073,2.073,0,0,1,.022,2.021,1.966,1.966,0,0,1,2.017.022Z" transform="translate(0 47.062) rotate(-47.444)" fill="#8bc38f"/>
        <path id="Path_40609" data-name="Path 40609" d="M2,.007A2.036,2.036,0,0,1,4,2.054,2,2,0,0,1,2.011,4.087a2.036,2.036,0,0,1-2-2.047A2,2,0,0,1,2,.007Z" transform="translate(11.124 48.604) rotate(-81.079)" fill="#8bc38f"/>
        <path id="Path_40610" data-name="Path 40610" d="M2,.009A2.042,2.042,0,0,1,4.007,2.058,2,2,0,0,1,2.018,4.087,2.042,2.042,0,0,1,.009,2.039,2,2,0,0,1,2,.009Z" transform="translate(21.593 48.455) rotate(-77.416)" fill="#8bc38f"/>
        <ellipse id="Ellipse_83" data-name="Ellipse 83" cx="2.041" cy="1.997" rx="2.041" ry="1.997" transform="translate(0.843 55.976)" fill="#8bc38f"/>
        <ellipse id="Ellipse_84" data-name="Ellipse 84" cx="2.041" cy="1.997" rx="2.041" ry="1.997" transform="translate(11.416 55.975)" fill="#8bc38f"/>
        <ellipse id="Ellipse_85" data-name="Ellipse 85" cx="2.041" cy="1.997" rx="2.041" ry="1.997" transform="translate(21.989 55.976)" fill="#8bc38f"/>
      </g>
      <g id="Group_2560" data-name="Group 2560" transform="translate(1.875 -11.458)">
        <path id="Path_40611" data-name="Path 40611" d="M2,.01A2.043,2.043,0,0,1,4.008,2.058,2,2,0,0,1,2.019,4.087,2.043,2.043,0,0,1,.01,2.039,2,2,0,0,1,2,.01Z" transform="translate(0.432 4.098) rotate(-76.765)" fill="#8bc38f"/>
        <path id="Path_40612" data-name="Path 40612" d="M2,.01A2.043,2.043,0,0,1,4.008,2.058,2,2,0,0,1,2.019,4.087,2.043,2.043,0,0,1,.01,2.039,2,2,0,0,1,2,.01Z" transform="translate(11.005 4.098) rotate(-76.765)" fill="#8bc38f"/>
        <path id="Path_40613" data-name="Path 40613" d="M2.034.016a2.057,2.057,0,0,1,2.05,2.019A1.981,1.981,0,0,1,2.066,4.022,2.057,2.057,0,0,1,.016,2,1.981,1.981,0,0,1,2.034.016Z" transform="matrix(0.923, -0.385, 0.385, 0.923, 21.364, 1.536)" fill="#8bc38f"/>
        <path id="Path_40614" data-name="Path 40614" d="M2.019.022A2.073,2.073,0,0,1,4.06,2.063a1.966,1.966,0,0,1-2,2A2.073,2.073,0,0,1,.022,2.019,1.966,1.966,0,0,1,2.019.022Z" transform="translate(0 13.642) rotate(-45)" fill="#8bc38f"/>
        <path id="Path_40615" data-name="Path 40615" d="M2.019.022A2.073,2.073,0,0,1,4.06,2.063a1.966,1.966,0,0,1-2,2A2.073,2.073,0,0,1,.022,2.019,1.966,1.966,0,0,1,2.019.022Z" transform="translate(10.573 13.642) rotate(-45)" fill="#8bc38f"/>
        <path id="Path_40616" data-name="Path 40616" d="M2,.007A2.036,2.036,0,0,1,4,2.054,2,2,0,0,1,2.012,4.087a2.036,2.036,0,0,1-2-2.047A2,2,0,0,1,2,.007Z" transform="matrix(0.161, -0.987, 0.987, 0.161, 21.69, 15.292)" fill="#8bc38f"/>
        <path id="Path_40617" data-name="Path 40617" d="M2.019.022A2.073,2.073,0,0,1,4.06,2.063a1.966,1.966,0,0,1-2,2A2.073,2.073,0,0,1,.022,2.019,1.966,1.966,0,0,1,2.019.022Z" transform="translate(0 24.673) rotate(-45)" fill="#8bc38f"/>
        <path id="Path_40618" data-name="Path 40618" d="M2.019.022A2.073,2.073,0,0,1,4.06,2.063a1.966,1.966,0,0,1-2,2A2.073,2.073,0,0,1,.022,2.019,1.966,1.966,0,0,1,2.019.022Z" transform="translate(10.573 24.673) rotate(-45)" fill="#8bc38f"/>
        <path id="Path_40619" data-name="Path 40619" d="M2,.007A2.036,2.036,0,0,1,4,2.054,2,2,0,0,1,2.012,4.087a2.036,2.036,0,0,1-2-2.047A2,2,0,0,1,2,.007Z" transform="matrix(0.161, -0.987, 0.987, 0.161, 21.69, 26.323)" fill="#8bc38f"/>
        <path id="Path_40620" data-name="Path 40620" d="M2.019.022A2.073,2.073,0,0,1,4.06,2.063a1.966,1.966,0,0,1-2,2A2.073,2.073,0,0,1,.022,2.019,1.966,1.966,0,0,1,2.019.022Z" transform="translate(0 35.704) rotate(-45)" fill="#8bc38f"/>
        <path id="Path_40621" data-name="Path 40621" d="M2.019.022A2.073,2.073,0,0,1,4.06,2.063a1.966,1.966,0,0,1-2,2A2.073,2.073,0,0,1,.022,2.019,1.966,1.966,0,0,1,2.019.022Z" transform="translate(10.573 35.704) rotate(-45)" fill="#8bc38f"/>
        <path id="Path_40622" data-name="Path 40622" d="M2,.007A2.036,2.036,0,0,1,4,2.054,2,2,0,0,1,2.012,4.087a2.036,2.036,0,0,1-2-2.047A2,2,0,0,1,2,.007Z" transform="matrix(0.161, -0.987, 0.987, 0.161, 21.69, 37.354)" fill="#8bc38f"/>
        <path id="Path_40623" data-name="Path 40623" d="M2.019.022A2.073,2.073,0,0,1,4.06,2.063a1.966,1.966,0,0,1-2,2A2.073,2.073,0,0,1,.022,2.019,1.966,1.966,0,0,1,2.019.022Z" transform="translate(0 46.734) rotate(-45)" fill="#8bc38f"/>
        <path id="Path_40624" data-name="Path 40624" d="M2.019.022A2.073,2.073,0,0,1,4.06,2.063a1.966,1.966,0,0,1-2,2A2.073,2.073,0,0,1,.022,2.019,1.966,1.966,0,0,1,2.019.022Z" transform="translate(10.573 46.734) rotate(-45)" fill="#8bc38f"/>
        <path id="Path_40625" data-name="Path 40625" d="M2,.007A2.036,2.036,0,0,1,4,2.054,2,2,0,0,1,2.012,4.087a2.036,2.036,0,0,1-2-2.047A2,2,0,0,1,2,.007Z" transform="matrix(0.161, -0.987, 0.987, 0.161, 21.69, 48.384)" fill="#8bc38f"/>
        <ellipse id="Ellipse_101" data-name="Ellipse 101" cx="2.041" cy="1.997" rx="2.041" ry="1.997" transform="translate(0.845 55.769)" fill="#8bc38f"/>
        <ellipse id="Ellipse_102" data-name="Ellipse 102" cx="2.041" cy="1.997" rx="2.041" ry="1.997" transform="translate(11.418 55.769)" fill="#8bc38f"/>
        <ellipse id="Ellipse_103" data-name="Ellipse 103" cx="2.041" cy="1.997" rx="2.041" ry="1.997" transform="translate(21.992 55.769)" fill="#8bc38f"/>
      </g>
      <g id="Group_2561" data-name="Group 2561" transform="translate(33.821 53.497)">
        <path id="Path_40626" data-name="Path 40626" d="M2.019.022A2.073,2.073,0,0,1,4.06,2.063a1.966,1.966,0,0,1-2,2A2.073,2.073,0,0,1,.022,2.019,1.966,1.966,0,0,1,2.019.022Z" transform="translate(0 2.824) rotate(-45)" fill="#8bc38f"/>
        <path id="Path_40627" data-name="Path 40627" d="M2.019.022A2.073,2.073,0,0,1,4.06,2.063a1.966,1.966,0,0,1-2,2A2.073,2.073,0,0,1,.022,2.019,1.966,1.966,0,0,1,2.019.022Z" transform="translate(10.573 2.824) rotate(-45)" fill="#8bc38f"/>
        <path id="Path_40628" data-name="Path 40628" d="M2.019.022A2.073,2.073,0,0,1,4.06,2.063a1.966,1.966,0,0,1-2,2A2.073,2.073,0,0,1,.022,2.019,1.966,1.966,0,0,1,2.019.022Z" transform="translate(21.146 2.824) rotate(-45)" fill="#8bc38f"/>
        <path id="Path_40629" data-name="Path 40629" d="M2.019.022A2.073,2.073,0,0,1,4.06,2.063a1.966,1.966,0,0,1-2,2A2.073,2.073,0,0,1,.022,2.019,1.966,1.966,0,0,1,2.019.022Z" transform="translate(0 13.855) rotate(-45)" fill="#8bc38f"/>
        <path id="Path_40630" data-name="Path 40630" d="M2.019.022A2.073,2.073,0,0,1,4.06,2.063a1.966,1.966,0,0,1-2,2A2.073,2.073,0,0,1,.022,2.019,1.966,1.966,0,0,1,2.019.022Z" transform="translate(10.573 13.855) rotate(-45)" fill="#8bc38f"/>
        <path id="Path_40631" data-name="Path 40631" d="M2.019.022A2.073,2.073,0,0,1,4.06,2.063a1.966,1.966,0,0,1-2,2A2.073,2.073,0,0,1,.022,2.019,1.966,1.966,0,0,1,2.019.022Z" transform="translate(21.146 13.855) rotate(-45)" fill="#8bc38f"/>
        <ellipse id="Ellipse_110" data-name="Ellipse 110" cx="2.041" cy="1.997" rx="2.041" ry="1.997" transform="translate(0.845 22.889)" fill="#8bc38f"/>
        <ellipse id="Ellipse_111" data-name="Ellipse 111" cx="2.041" cy="1.997" rx="2.041" ry="1.997" transform="translate(11.418 22.889)" fill="#8bc38f"/>
        <ellipse id="Ellipse_112" data-name="Ellipse 112" cx="2.041" cy="1.997" rx="2.041" ry="1.997" transform="translate(21.992 22.889)" fill="#8bc38f"/>
        <ellipse id="Ellipse_113" data-name="Ellipse 113" cx="2.041" cy="1.997" rx="2.041" ry="1.997" transform="translate(0.845 33.92)" fill="#8bc38f"/>
        <ellipse id="Ellipse_114" data-name="Ellipse 114" cx="2.041" cy="1.997" rx="2.041" ry="1.997" transform="translate(11.418 33.92)" fill="#8bc38f"/>
        <ellipse id="Ellipse_115" data-name="Ellipse 115" cx="2.041" cy="1.997" rx="2.041" ry="1.997" transform="translate(21.992 33.92)" fill="#8bc38f"/>
        <path id="Path_40632" data-name="Path 40632" d="M2,.01A2.043,2.043,0,0,1,4.008,2.058,2,2,0,0,1,2.019,4.087,2.043,2.043,0,0,1,.01,2.039,2,2,0,0,1,2,.01Z" transform="translate(0.432 48.434) rotate(-76.765)" fill="#8bc38f"/>
        <path id="Path_40633" data-name="Path 40633" d="M2,.01A2.043,2.043,0,0,1,4.008,2.058,2,2,0,0,1,2.019,4.087,2.043,2.043,0,0,1,.01,2.039,2,2,0,0,1,2,.01Z" transform="translate(11.005 48.434) rotate(-76.765)" fill="#8bc38f"/>
        <path id="Path_40634" data-name="Path 40634" d="M2,.01A2.043,2.043,0,0,1,4.008,2.058,2,2,0,0,1,2.019,4.087,2.043,2.043,0,0,1,.01,2.039,2,2,0,0,1,2,.01Z" transform="translate(21.578 48.434) rotate(-76.765)" fill="#8bc38f"/>
        <path id="Path_40635" data-name="Path 40635" d="M2,.01A2.043,2.043,0,0,1,4.008,2.058,2,2,0,0,1,2.019,4.087,2.043,2.043,0,0,1,.01,2.039,2,2,0,0,1,2,.01Z" transform="translate(0.432 59.464) rotate(-76.765)" fill="#8bc38f"/>
        <path id="Path_40636" data-name="Path 40636" d="M2,.01A2.043,2.043,0,0,1,4.008,2.058,2,2,0,0,1,2.019,4.087,2.043,2.043,0,0,1,.01,2.039,2,2,0,0,1,2,.01Z" transform="translate(11.005 59.464) rotate(-76.765)" fill="#8bc38f"/>
        <path id="Path_40637" data-name="Path 40637" d="M2,.01A2.043,2.043,0,0,1,4.008,2.058,2,2,0,0,1,2.019,4.087,2.043,2.043,0,0,1,.01,2.039,2,2,0,0,1,2,.01Z" transform="translate(21.578 59.464) rotate(-76.765)" fill="#8bc38f"/>
      </g>
      <g id="Group_2562" data-name="Group 2562" transform="translate(65.828 53.563)">
        <path id="Path_40638" data-name="Path 40638" d="M2,.012A2.048,2.048,0,0,1,4.012,2.061,1.991,1.991,0,0,1,2.024,4.087,2.048,2.048,0,0,1,.012,2.038,1.991,1.991,0,0,1,2,.012Z" transform="translate(0.295 4.115) rotate(-73.731)" fill="#8bc38f"/>
        <path id="Path_40639" data-name="Path 40639" d="M2.028.02A2.068,2.068,0,0,1,4.076,2.05,1.971,1.971,0,0,1,2.068,4.039,2.068,2.068,0,0,1,.02,2.009,1.971,1.971,0,0,1,2.028.02Z" transform="matrix(0.843, -0.538, 0.538, 0.843, 10.581, 2.148)" fill="#8bc38f"/>
        <path id="Path_40640" data-name="Path 40640" d="M2.029.02A2.067,2.067,0,0,1,4.077,2.049,1.972,1.972,0,0,1,2.068,4.038,2.067,2.067,0,0,1,.02,2.009,1.972,1.972,0,0,1,2.029.02Z" transform="translate(21.163 2.112) rotate(-31.796)" fill="#8bc38f"/>
        <path id="Path_40641" data-name="Path 40641" d="M2,.012A2.048,2.048,0,0,1,4.012,2.061,1.991,1.991,0,0,1,2.024,4.087,2.048,2.048,0,0,1,.012,2.038,1.991,1.991,0,0,1,2,.012Z" transform="translate(0.295 15.145) rotate(-73.731)" fill="#8bc38f"/>
        <path id="Path_40642" data-name="Path 40642" d="M2.028.02A2.068,2.068,0,0,1,4.076,2.05,1.971,1.971,0,0,1,2.068,4.039,2.068,2.068,0,0,1,.02,2.009,1.971,1.971,0,0,1,2.028.02Z" transform="matrix(0.843, -0.538, 0.538, 0.843, 10.581, 13.179)" fill="#8bc38f"/>
        <path id="Path_40643" data-name="Path 40643" d="M2.029.02A2.067,2.067,0,0,1,4.077,2.049,1.972,1.972,0,0,1,2.068,4.038,2.067,2.067,0,0,1,.02,2.009,1.972,1.972,0,0,1,2.029.02Z" transform="translate(21.163 13.143) rotate(-31.796)" fill="#8bc38f"/>
        <ellipse id="Ellipse_128" data-name="Ellipse 128" cx="2.041" cy="1.997" rx="2.041" ry="1.997" transform="translate(0.785 22.822)" fill="#8bc38f"/>
        <ellipse id="Ellipse_129" data-name="Ellipse 129" cx="2.041" cy="1.997" rx="2.041" ry="1.997" transform="translate(11.359 22.822)" fill="#8bc38f"/>
        <ellipse id="Ellipse_130" data-name="Ellipse 130" cx="2.041" cy="1.997" rx="2.041" ry="1.997" transform="translate(21.932 22.822)" fill="#8bc38f"/>
        <ellipse id="Ellipse_131" data-name="Ellipse 131" cx="2.041" cy="1.997" rx="2.041" ry="1.997" transform="translate(0.785 33.853)" fill="#8bc38f"/>
        <ellipse id="Ellipse_132" data-name="Ellipse 132" cx="2.041" cy="1.997" rx="2.041" ry="1.997" transform="translate(11.359 33.853)" fill="#8bc38f"/>
        <ellipse id="Ellipse_133" data-name="Ellipse 133" cx="2.041" cy="1.997" rx="2.041" ry="1.997" transform="translate(21.932 33.853)" fill="#8bc38f"/>
        <path id="Path_40644" data-name="Path 40644" d="M2.01.02A2.069,2.069,0,0,1,4.04,2.068a1.97,1.97,0,0,1-1.99,2.007A2.069,2.069,0,0,1,.02,2.028,1.97,1.97,0,0,1,2.01.02Z" transform="matrix(0.549, -0.836, 0.836, 0.549, 0, 47.453)" fill="#8bc38f"/>
        <path id="Path_40645" data-name="Path 40645" d="M2,.008A2.039,2.039,0,0,1,4,2.056a2,2,0,0,1-1.99,2.031A2.039,2.039,0,0,1,.008,2.039,2,2,0,0,1,2,.008Z" transform="translate(11.005 48.458) rotate(-78.958)" fill="#8bc38f"/>
        <path id="Path_40646" data-name="Path 40646" d="M2,.008A2.039,2.039,0,0,1,4,2.056a2,2,0,0,1-1.99,2.031A2.039,2.039,0,0,1,.008,2.039,2,2,0,0,1,2,.008Z" transform="matrix(0.189, -0.982, 0.982, 0.189, 21.582, 48.463)" fill="#8bc38f"/>
        <path id="Path_40647" data-name="Path 40647" d="M2.01.02A2.069,2.069,0,0,1,4.04,2.068a1.97,1.97,0,0,1-1.99,2.007A2.069,2.069,0,0,1,.02,2.028,1.97,1.97,0,0,1,2.01.02Z" transform="matrix(0.549, -0.836, 0.836, 0.549, 0, 58.484)" fill="#8bc38f"/>
        <path id="Path_40648" data-name="Path 40648" d="M2,.008A2.039,2.039,0,0,1,4,2.056a2,2,0,0,1-1.99,2.031A2.039,2.039,0,0,1,.008,2.039,2,2,0,0,1,2,.008Z" transform="translate(11.005 59.489) rotate(-78.958)" fill="#8bc38f"/>
        <path id="Path_40649" data-name="Path 40649" d="M2,.008A2.039,2.039,0,0,1,4,2.056a2,2,0,0,1-1.99,2.031A2.039,2.039,0,0,1,.008,2.039,2,2,0,0,1,2,.008Z" transform="matrix(0.189, -0.982, 0.982, 0.189, 21.582, 59.494)" fill="#8bc38f"/>
      </g>
      <g id="Group_2563" data-name="Group 2563" transform="translate(33.821 -11.029)">
        <path id="Path_40650" data-name="Path 40650" d="M2.019.022A2.073,2.073,0,0,1,4.06,2.063a1.966,1.966,0,0,1-2,2A2.073,2.073,0,0,1,.022,2.019,1.966,1.966,0,0,1,2.019.022Z" transform="translate(0 2.824) rotate(-45)" fill="#8bc38f"/>
        <path id="Path_40651" data-name="Path 40651" d="M2.019.022A2.073,2.073,0,0,1,4.06,2.063a1.966,1.966,0,0,1-2,2A2.073,2.073,0,0,1,.022,2.019,1.966,1.966,0,0,1,2.019.022Z" transform="translate(10.573 2.824) rotate(-45)" fill="#8bc38f"/>
        <path id="Path_40652" data-name="Path 40652" d="M2.019.022A2.073,2.073,0,0,1,4.06,2.063a1.966,1.966,0,0,1-2,2A2.073,2.073,0,0,1,.022,2.019,1.966,1.966,0,0,1,2.019.022Z" transform="translate(21.146 2.824) rotate(-45)" fill="#8bc38f"/>
        <ellipse id="Ellipse_143" data-name="Ellipse 143" cx="2.041" cy="1.997" rx="2.041" ry="1.997" transform="translate(0.845 11.858)" fill="#8bc38f"/>
        <ellipse id="Ellipse_144" data-name="Ellipse 144" cx="2.041" cy="1.997" rx="2.041" ry="1.997" transform="translate(11.418 11.858)" fill="#8bc38f"/>
        <ellipse id="Ellipse_145" data-name="Ellipse 145" cx="2.041" cy="1.997" rx="2.041" ry="1.997" transform="translate(21.992 11.858)" fill="#8bc38f"/>
        <ellipse id="Ellipse_146" data-name="Ellipse 146" cx="2.041" cy="1.997" rx="2.041" ry="1.997" transform="translate(0.845 22.889)" fill="#8bc38f"/>
        <ellipse id="Ellipse_147" data-name="Ellipse 147" cx="2.041" cy="1.997" rx="2.041" ry="1.997" transform="translate(11.418 22.889)" fill="#8bc38f"/>
        <ellipse id="Ellipse_148" data-name="Ellipse 148" cx="2.041" cy="1.997" rx="2.041" ry="1.997" transform="translate(21.992 22.889)" fill="#8bc38f"/>
        <path id="Path_40653" data-name="Path 40653" d="M2,.01A2.043,2.043,0,0,1,4.008,2.058,2,2,0,0,1,2.019,4.087,2.043,2.043,0,0,1,.01,2.039,2,2,0,0,1,2,.01Z" transform="matrix(0.229, -0.973, 0.973, 0.229, 0.432, 37.403)" fill="#8bc38f"/>
        <path id="Path_40654" data-name="Path 40654" d="M2,.01A2.043,2.043,0,0,1,4.008,2.058,2,2,0,0,1,2.019,4.087,2.043,2.043,0,0,1,.01,2.039,2,2,0,0,1,2,.01Z" transform="matrix(0.229, -0.973, 0.973, 0.229, 11.005, 37.403)" fill="#8bc38f"/>
        <path id="Path_40655" data-name="Path 40655" d="M2,.01A2.043,2.043,0,0,1,4.008,2.058,2,2,0,0,1,2.019,4.087,2.043,2.043,0,0,1,.01,2.039,2,2,0,0,1,2,.01Z" transform="matrix(0.229, -0.973, 0.973, 0.229, 21.578, 37.403)" fill="#8bc38f"/>
        <path id="Path_40656" data-name="Path 40656" d="M2,.01A2.043,2.043,0,0,1,4.008,2.058,2,2,0,0,1,2.019,4.087,2.043,2.043,0,0,1,.01,2.039,2,2,0,0,1,2,.01Z" transform="matrix(0.229, -0.973, 0.973, 0.229, 0.432, 48.434)" fill="#8bc38f"/>
        <path id="Path_40657" data-name="Path 40657" d="M2,.01A2.043,2.043,0,0,1,4.008,2.058,2,2,0,0,1,2.019,4.087,2.043,2.043,0,0,1,.01,2.039,2,2,0,0,1,2,.01Z" transform="matrix(0.229, -0.973, 0.973, 0.229, 11.005, 48.434)" fill="#8bc38f"/>
        <path id="Path_40658" data-name="Path 40658" d="M2,.01A2.043,2.043,0,0,1,4.008,2.058,2,2,0,0,1,2.019,4.087,2.043,2.043,0,0,1,.01,2.039,2,2,0,0,1,2,.01Z" transform="matrix(0.229, -0.973, 0.973, 0.229, 21.578, 48.434)" fill="#8bc38f"/>
        <path id="Path_40659" data-name="Path 40659" d="M2,.01A2.043,2.043,0,0,1,4.008,2.058,2,2,0,0,1,2.019,4.087,2.043,2.043,0,0,1,.01,2.039,2,2,0,0,1,2,.01Z" transform="matrix(0.229, -0.973, 0.973, 0.229, 0.432, 59.464)" fill="#8bc38f"/>
        <path id="Path_40660" data-name="Path 40660" d="M2,.01A2.043,2.043,0,0,1,4.008,2.058,2,2,0,0,1,2.019,4.087,2.043,2.043,0,0,1,.01,2.039,2,2,0,0,1,2,.01Z" transform="matrix(0.229, -0.973, 0.973, 0.229, 11.005, 59.464)" fill="#8bc38f"/>
        <path id="Path_40661" data-name="Path 40661" d="M2,.01A2.043,2.043,0,0,1,4.008,2.058,2,2,0,0,1,2.019,4.087,2.043,2.043,0,0,1,.01,2.039,2,2,0,0,1,2,.01Z" transform="matrix(0.229, -0.973, 0.973, 0.229, 21.578, 59.464)" fill="#8bc38f"/>
      </g>
      <g id="Group_2564" data-name="Group 2564" transform="translate(65.828 -10.963)">
        <path id="Path_40662" data-name="Path 40662" d="M2,.012A2.048,2.048,0,0,1,4.012,2.061,1.991,1.991,0,0,1,2.024,4.087,2.048,2.048,0,0,1,.012,2.038,1.991,1.991,0,0,1,2,.012Z" transform="translate(0.295 4.115) rotate(-73.731)" fill="#8bc38f"/>
        <path id="Path_40663" data-name="Path 40663" d="M2.028.02A2.068,2.068,0,0,1,4.076,2.05,1.971,1.971,0,0,1,2.068,4.039,2.068,2.068,0,0,1,.02,2.009,1.971,1.971,0,0,1,2.028.02Z" transform="translate(10.581 2.148) rotate(-32.54)" fill="#8bc38f"/>
        <path id="Path_40664" data-name="Path 40664" d="M2.029.02A2.067,2.067,0,0,1,4.077,2.049,1.972,1.972,0,0,1,2.068,4.038,2.067,2.067,0,0,1,.02,2.009,1.972,1.972,0,0,1,2.029.02Z" transform="translate(21.163 2.112) rotate(-31.796)" fill="#8bc38f"/>
        <ellipse id="Ellipse_161" data-name="Ellipse 161" cx="2.041" cy="1.997" rx="2.041" ry="1.997" transform="translate(0.785 11.791)" fill="#8bc38f"/>
        <ellipse id="Ellipse_162" data-name="Ellipse 162" cx="2.041" cy="1.997" rx="2.041" ry="1.997" transform="translate(11.359 11.791)" fill="#8bc38f"/>
        <ellipse id="Ellipse_163" data-name="Ellipse 163" cx="2.041" cy="1.997" rx="2.041" ry="1.997" transform="translate(21.932 11.791)" fill="#8bc38f"/>
        <ellipse id="Ellipse_164" data-name="Ellipse 164" cx="2.041" cy="1.997" rx="2.041" ry="1.997" transform="translate(0.785 22.822)" fill="#8bc38f"/>
        <ellipse id="Ellipse_165" data-name="Ellipse 165" cx="2.041" cy="1.997" rx="2.041" ry="1.997" transform="translate(11.359 22.822)" fill="#8bc38f"/>
        <ellipse id="Ellipse_166" data-name="Ellipse 166" cx="2.041" cy="1.997" rx="2.041" ry="1.997" transform="translate(21.932 22.822)" fill="#8bc38f"/>
        <path id="Path_40665" data-name="Path 40665" d="M2.01.02A2.069,2.069,0,0,1,4.04,2.068a1.97,1.97,0,0,1-1.99,2.007A2.069,2.069,0,0,1,.02,2.028,1.97,1.97,0,0,1,2.01.02Z" transform="matrix(0.549, -0.836, 0.836, 0.549, 0, 36.422)" fill="#8bc38f"/>
        <path id="Path_40666" data-name="Path 40666" d="M2,.008A2.039,2.039,0,0,1,4,2.056a2,2,0,0,1-1.99,2.031A2.039,2.039,0,0,1,.008,2.039,2,2,0,0,1,2,.008Z" transform="translate(11.005 37.427) rotate(-78.958)" fill="#8bc38f"/>
        <path id="Path_40667" data-name="Path 40667" d="M2,.008A2.039,2.039,0,0,1,4,2.056a2,2,0,0,1-1.99,2.031A2.039,2.039,0,0,1,.008,2.039,2,2,0,0,1,2,.008Z" transform="matrix(0.189, -0.982, 0.982, 0.189, 21.582, 37.432)" fill="#8bc38f"/>
        <path id="Path_40668" data-name="Path 40668" d="M2.01.02A2.069,2.069,0,0,1,4.04,2.068a1.97,1.97,0,0,1-1.99,2.007A2.069,2.069,0,0,1,.02,2.028,1.97,1.97,0,0,1,2.01.02Z" transform="matrix(0.549, -0.836, 0.836, 0.549, 0, 47.453)" fill="#8bc38f"/>
        <path id="Path_40669" data-name="Path 40669" d="M2,.008A2.039,2.039,0,0,1,4,2.056a2,2,0,0,1-1.99,2.031A2.039,2.039,0,0,1,.008,2.039,2,2,0,0,1,2,.008Z" transform="translate(11.005 48.458) rotate(-78.958)" fill="#8bc38f"/>
        <path id="Path_40670" data-name="Path 40670" d="M2,.008A2.039,2.039,0,0,1,4,2.056a2,2,0,0,1-1.99,2.031A2.039,2.039,0,0,1,.008,2.039,2,2,0,0,1,2,.008Z" transform="matrix(0.189, -0.982, 0.982, 0.189, 21.582, 48.463)" fill="#8bc38f"/>
        <path id="Path_40671" data-name="Path 40671" d="M2.01.02A2.069,2.069,0,0,1,4.04,2.068a1.97,1.97,0,0,1-1.99,2.007A2.069,2.069,0,0,1,.02,2.028,1.97,1.97,0,0,1,2.01.02Z" transform="matrix(0.549, -0.836, 0.836, 0.549, 0, 58.484)" fill="#8bc38f"/>
        <path id="Path_40672" data-name="Path 40672" d="M2,.008A2.039,2.039,0,0,1,4,2.056a2,2,0,0,1-1.99,2.031A2.039,2.039,0,0,1,.008,2.039,2,2,0,0,1,2,.008Z" transform="translate(11.005 59.489) rotate(-78.958)" fill="#8bc38f"/>
        <path id="Path_40673" data-name="Path 40673" d="M2,.008A2.039,2.039,0,0,1,4,2.056a2,2,0,0,1-1.99,2.031A2.039,2.039,0,0,1,.008,2.039,2,2,0,0,1,2,.008Z" transform="matrix(0.189, -0.982, 0.982, 0.189, 21.582, 59.494)" fill="#8bc38f"/>
      </g>
    </g>
  </g>
</svg>
