<svg xmlns="http://www.w3.org/2000/svg" width="41.92" height="47.747" viewBox="0 0 41.92 47.747">
  <path id="Union_2" data-name="Union 2" d="M37.319,46.747H3.548A3.4,3.4,0,0,1,3,46.7a.016.016,0,0,1-.009,0l-.014,0-.014,0a.013.013,0,0,1-.008,0l-.016,0H2.936l-.017,0H2.912l-.015,0H2.891l-.015,0H2.869l-.017,0s0,0,0,0l-.018,0h0l-.018-.005h0l-.018-.005h0l-.019-.005h0a.068.068,0,0,1-.019-.005h0c-.07-.017-.141-.037-.212-.061l-.019-.006h0l-.017-.005h0l-.016-.007H2.46a.054.054,0,0,0-.013-.005l-.008,0a.044.044,0,0,0-.014-.005l-.007,0-.012-.005-.01,0-.011,0-.009,0-.012,0-.01,0-.011-.005-.01,0-.012,0-.01,0L2.3,46.5l-.01,0-.011,0-.009-.005-.011,0-.01,0-.01,0-.011-.005-.01,0a.022.022,0,0,1-.01-.005l-.045-.019-.007,0-.013-.006s0,0-.006,0l-.015-.006-.005,0L2.1,46.411l0,0L2.079,46.4s0,0,0,0a.106.106,0,0,0-.016-.009h0l-.017-.009s0,0,0,0c-.038-.018-.074-.037-.111-.057-.06-.033-.118-.067-.176-.1h0c-.006,0-.01-.006-.016-.009l0,0L1.717,46.2,1.71,46.2,1.7,46.19a.036.036,0,0,1-.009-.008l-.005,0c-.08-.052-.158-.107-.235-.166,0,0,0,0,0,0L1.438,46l-.006,0-.007-.006-.014-.01h0l-.005,0s-.005,0-.007-.006l-.006-.005-.009-.007-.01-.009-.006-.005-.015-.011,0,0A3.746,3.746,0,0,1,.022,43.442h0a.169.169,0,0,1,0-.028h0c0-.019,0-.038-.006-.057v0c0-.009,0-.016,0-.024a.012.012,0,0,1,0-.006c0-.007,0-.015,0-.024a.007.007,0,0,0,0,0c0-.019,0-.038,0-.056,0,0,0,0,0-.006V43.21S0,43.2,0,43.2a.08.08,0,0,0,0-.02v-.008c0-.018,0-.037,0-.054v-.027a.021.021,0,0,1,0-.01V41.318A14.827,14.827,0,0,1,9.294,27.437a13.353,13.353,0,0,1,2.565-.724,2.271,2.271,0,0,1,.465-.856,8.732,8.732,0,0,1,2.963-2.187,8.147,8.147,0,0,1-2.449-4.45,3.2,3.2,0,0,1-2.477-3.112.244.244,0,0,1,0-.035V9.894a10.119,10.119,0,0,1,1.868-5.87h0c.015-.024.034-.048.051-.072.006-.007.01-.015.017-.022s0,0,0,0l.017-.023.017-.023s0,0,0,0a.209.209,0,0,1,.017-.021s0,0,0,0l.016-.022,0,0c.005-.006.009-.013.016-.02a0,0,0,0,0,0,0c.007-.006.011-.014.017-.02l0-.005.015-.019a.006.006,0,0,0,0,0c.006-.006.01-.013.017-.019a.024.024,0,0,1,0-.006l.014-.018s0,0,0-.005a.159.159,0,0,1,.013-.019.014.014,0,0,0,.005-.006l.013-.016,0-.006a.15.15,0,0,0,.014-.018l.006-.006a.177.177,0,0,1,.013-.018l0-.005a.173.173,0,0,0,.015-.017s0,0,0-.006.009-.011.014-.016,0-.005.006-.008l.013-.016.005-.006a.109.109,0,0,1,.013-.016l.006-.008.012-.015L12.63,3.5l.012-.015a.021.021,0,0,0,.006-.007l.013-.015s0-.005.008-.009l.011-.014.006-.008.013-.015.006-.008.013-.015a.029.029,0,0,1,.006-.009l.012-.014s.006-.006.009-.01l.011-.014a.043.043,0,0,1,.007-.008c0-.005.008-.01.012-.014a.046.046,0,0,0,.009-.01s.007-.009.011-.012l.01-.01a.075.075,0,0,1,.01-.013l.011-.011.009-.011a.037.037,0,0,0,.008-.01l.013-.013.007-.009c0-.005.009-.009.013-.014a.036.036,0,0,0,.007-.009.053.053,0,0,0,.013-.014s.006-.006.01-.01l.011-.011a.04.04,0,0,1,.008-.01.121.121,0,0,1,.011-.013l.01-.011.011-.012.008-.009a.1.1,0,0,1,.011-.013l.01-.01L13,3.074,13,3.067a.109.109,0,0,1,.014-.014.026.026,0,0,1,.007-.009l.014-.014a.11.11,0,0,0,.011-.014l.007-.008.014-.014.007-.007.018-.021s0,0,0,0l.018-.019,0,0,.042-.043a9.332,9.332,0,0,1,13.522,0l.386.4a.322.322,0,0,0,.031.01l.006,0,.067.022h0A5.017,5.017,0,0,1,30.538,7.78v.013s0,.005,0,.007a.066.066,0,0,0,0,.019v.029c0,.007,0,.015,0,.022v0c0,.077.006.154.006.231v7.968c0,.095,0,.188-.012.281,0,0,0,0,0,.006v.007a3.328,3.328,0,0,1-.088.511.009.009,0,0,1,0,.006.055.055,0,0,0,0,.006c-.006.02-.01.04-.017.06a.033.033,0,0,1,0,.01c0,.006,0,.011-.005.017s0,0,0,.005a3.425,3.425,0,0,1-.245.614s0,0,0,0a.13.13,0,0,1-.01.016c0,.006-.006.012-.008.019a.013.013,0,0,0,0,.005c-.041.075-.082.145-.128.216-.033.05-.068.1-.1.15l0,0-.015.019a.086.086,0,0,1-.007.011l-.006.008a.105.105,0,0,1-.014.016.021.021,0,0,1,0,.007l-.014.018,0,.005-.012.015-.009.011-.007.008c-.026.033-.051.065-.079.1l-.06.067-.015.014a0,0,0,0,1,0,0c-.064.068-.129.133-.2.195h0l-.039.034,0,0h0l-.018.015,0,0a.121.121,0,0,0-.018.015l0,0c-.005,0-.01.009-.016.012s0,0,0,.005a.2.2,0,0,0-.016.013l-.009.007-.01.008-.017.013,0,0c-.077.06-.157.116-.239.169a2.917,2.917,0,0,1-.405.216.417.417,0,0,1-.041.018l0,0a.077.077,0,0,0-.015.006l-.02.008,0,0-.025.01s0,0,0,0l-.082.03h0a.107.107,0,0,0-.024.009h-.007l-.023.009h-.005l-.018.006-.013,0a.08.08,0,0,1-.015.005l-.011,0-.019.006-.012,0-.018,0-.011,0-.019.005-.008,0-.023.006h0l-.039.01c-.032.009-.064.016-.1.023l-.034.008c-.015.076-.029.152-.047.226a.027.027,0,0,1,0,.011c0,.009,0,.017-.006.026s0,.018-.007.027a.039.039,0,0,1,0,.011.3.3,0,0,1-.008.035l0,.015c0,.006,0,.014,0,.022s0,.013-.005.019a.049.049,0,0,0,0,.012.041.041,0,0,0,0,.011.161.161,0,0,0-.009.032.042.042,0,0,1,0,.011c0,.011-.006.024-.009.035s0,.014-.005.022l0,.014a8.4,8.4,0,0,1-.346,1.039c0,.006,0,.011-.007.018s-.005.011-.007.017-.009.021-.014.032l0,.009-.011.03s0,.009-.007.013-.008.019-.011.029a.037.037,0,0,1-.005.01.247.247,0,0,1-.013.033s0,.009-.006.013-.009.02-.013.03a.029.029,0,0,1,0,.006c-.006.012-.011.025-.017.038s0,0,0,0a.139.139,0,0,0-.007.016l-.03.062s0,0,0,.005-.011.025-.018.038h0c-.006.012-.014.027-.019.039s0,0,0,0c-.013.026-.025.053-.039.079h0c-.035.07-.07.139-.105.208l-.017.031-.007.014-.01.018c-.006.011-.013.023-.019.035a.047.047,0,0,0,0,.009.145.145,0,0,1-.012.02l-.009.015-.011.02c0,.009-.01.018-.014.028a.051.051,0,0,0-.006.01c-.013.024-.027.047-.04.07a.021.021,0,0,1-.005.009.143.143,0,0,1-.016.027c-.075.13-.154.256-.237.381h0c0,.008-.01.014-.013.022l-.014.019a.094.094,0,0,0-.009.014l-.046.067c-.06.088-.122.174-.187.26a0,0,0,0,1,0,0c-.007.011-.016.022-.023.033l0,0-.024.032s0,0,0,0l-.055.07s0,0,0,0-.016.02-.023.03l-.007.009-.02.024a.04.04,0,0,1-.008.011l-.018.023-.009.011c-.005.007-.013.015-.019.023l-.007.01c-.01.01-.018.022-.027.032l-.006.008c-.007.007-.013.016-.02.025l-.011.013-.016.019-.012.015-.015.018-.013.014-.016.019-.011.013a.154.154,0,0,0-.018.021.211.211,0,0,0-.014.017l-.022.024-.013.015-.015.016a.12.12,0,0,1-.013.014l-.015.018a.109.109,0,0,1-.014.014.19.19,0,0,1-.017.019.092.092,0,0,0-.011.013.177.177,0,0,0-.018.02l-.011.01L26,23.288s0,0,0,.005l-.024.025-.011.01a.158.158,0,0,1-.019.02l-.01.011-.019.019-.011.011-.019.022a.053.053,0,0,0-.009.01l-.061.059-.006.007-.025.023a.047.047,0,0,1-.009.009l-.022.022-.009.009-.022.022-.009.009-.028.027,0,0-.031.03,0,0-.028.027,0,0a8.567,8.567,0,0,1,2.976,2.185,2.346,2.346,0,0,1,.465.856,15.17,15.17,0,0,1,2.523.7c.009.011.03.016.041.022l.04.015.011.005a.23.23,0,0,1,.03.013l.01,0a.391.391,0,0,0,.041.016s0,0,0,0l.037.015.007,0c.013.005.025.009.036.014l.007,0,.041.018h0l.037.016.007,0,.039.015s0,0,0,0l.042.018h0a.33.33,0,0,0,.039.016l0,0,.085.037h0l.042.018h0l.086.038.129.059A14.64,14.64,0,0,1,39.923,35.9s0,.008,0,.011.006.018.01.025l.007.021a.038.038,0,0,1,.005.013c.01.027.021.055.032.083a.068.068,0,0,0,0,.01l.011.027s0,0,0,0a.465.465,0,0,0,.019.053c0,.005,0,.009,0,.013s.005.014.007.02a.2.2,0,0,1,.009.025l.005.013A15.451,15.451,0,0,1,40.5,37.79c.041.171.078.34.113.514.03.151.06.3.085.457q.089.524.142,1.06a.038.038,0,0,0,0,.011c0,.006,0,.014,0,.02s0,.019,0,.029v0c.006.062.011.125.017.188,0,.029,0,.058.006.086.005.063.01.127.013.191.007.095.013.188.016.283.009.164.013.328.015.492,0,.025,0,.048,0,.072,0,.04,0,.082,0,.122v1.727c0,.067,0,.133-.007.2,0,.022,0,.042,0,.063,0,.047-.008.092-.013.139,0,0,0,.006,0,.01s0,.009,0,.012,0,.014,0,.02a.008.008,0,0,1,0,.005,3.7,3.7,0,0,1-.171.751s0,0,0,.005a.016.016,0,0,0,0,.007.045.045,0,0,0,0,.01c0,.005,0,.01-.006.015v0c-.033.092-.069.182-.107.27,0,.008-.006.014-.009.02s0,0,0,0c-.007.016-.014.034-.022.05a.049.049,0,0,0-.006.014.011.011,0,0,0,0,.007.2.2,0,0,1-.01.018s0,0,0,0h0c-.049.1-.1.2-.157.294,0,0,0,0,0,0a.116.116,0,0,1-.011.016.021.021,0,0,1,0,.009.006.006,0,0,1,0,0c-.012.022-.025.043-.039.065h0l-.027.04,0,.005s0,0,0,.005a3.792,3.792,0,0,1-.618.721s0,0,0,0l-.018.016s0,0,0,0l-.019.016a.035.035,0,0,1-.007.006l-.013.011-.008.006a.181.181,0,0,1-.015.012l0,0a.165.165,0,0,1-.021.018h0a3.624,3.624,0,0,1-.742.476h0l-.026.013-.01,0a.055.055,0,0,1-.013.006c-.084.038-.167.073-.253.1-.07.025-.142.049-.214.071H38.3l-.012,0-.009,0-.009,0-.012,0h0a3.386,3.386,0,0,1-.467.1s0,0,0,0h-.034l-.02,0h0l-.02,0h0l-.021,0h0c-.105.011-.212.018-.32.019Zm-3.661-6.47v5.016h3.661a2.238,2.238,0,0,0,2.192-2.268V41.318a13.4,13.4,0,0,0-7.875-12.3L24.615,40.547a5.248,5.248,0,0,1-1.507,1.565l-.026.016a4.809,4.809,0,0,1-2.611.778h-.02a4.887,4.887,0,0,1-4.127-2.321.438.438,0,0,0-.024-.039l-3.14-5.165a.73.73,0,0,1-.113-.391.741.741,0,0,1,.327-.614l.029-.018a.7.7,0,0,1,.338-.095h.018a.7.7,0,0,1,.591.34l3.145,5.16a3.493,3.493,0,0,0,1.068,1.1c.025.018.05.034.075.049a3.387,3.387,0,0,0,1.807.528h.014a3.481,3.481,0,0,0,2.9-1.589c.02-.03.039-.062.059-.092l6.863-11.256a12.085,12.085,0,0,0-1.261-.317,2.385,2.385,0,0,1-.234.471c-.006.01-1.164,1.634-6.533,10.341a2.192,2.192,0,0,1-.658.687c-.029.019-.058.037-.089.054a2.038,2.038,0,0,1-1.03.282h-.025a2.115,2.115,0,0,1-1.729-.935l-.045-.068L18.66,39c-6.843-11.112-6.511-10.1-6.761-10.811a12.864,12.864,0,0,0-1.255.317l1.951,3.2a.757.757,0,0,1,.106.388.733.733,0,0,1-.331.622l-.015.009a.667.667,0,0,1-.351.1h-.018a.694.694,0,0,1-.547-.283.383.383,0,0,1-.024-.036L11.4,32.49,9.274,29.018a13.411,13.411,0,0,0-7.865,12.3v1.707A2.225,2.225,0,0,0,3.6,45.288H7.263V40.277a.7.7,0,1,1,1.409,0v5.011H32.244V40.277a.708.708,0,1,1,1.414,0ZM19.233,37.216l.622,1.006a.71.71,0,0,0,.589.345h.018a.708.708,0,0,0,.561-.289l.007-.011a.43.43,0,0,0,.031-.044l.618-1.006L20.9,34.9h-.894Zm2.961-2.928.455,1.353,1.057-1.708a2.876,2.876,0,0,1-.945-.449Zm-4.984-.355,1.057,1.708.449-1.353-.567-.8A2.792,2.792,0,0,1,17.21,33.933ZM19.349,32.7l.516.736H21.05l.516-.736-1.108-.708Zm-5.975-5.873a.9.9,0,0,0-.2.567.878.878,0,0,0,.133.459l0,.011,2.783,4.292c.007.01.014.02.021.032l.01.015a.05.05,0,0,1,.009.011.765.765,0,0,0,.6.309h.013a.757.757,0,0,0,.351-.086.042.042,0,0,0,.014-.006c.012-.006.024-.014.037-.021l.018-.01c1.108-.724,1.679-1.094,2.114-1.369l-3.2-2.929a3.426,3.426,0,0,1-1.1-2.51c0-.039,0-.078,0-.118A6.891,6.891,0,0,0,13.375,26.828ZM25.933,25.57A3.452,3.452,0,0,1,24.839,28.1l-3.2,2.929,2.115,1.363a.749.749,0,0,0,.418.127.775.775,0,0,0,.659-.365l2.778-4.3.005,0a.853.853,0,0,0,.133-.458.875.875,0,0,0-.208-.568,6.779,6.779,0,0,0-1.6-1.353C25.933,25.507,25.933,25.538,25.933,25.57Zm-9.417-.681a1.958,1.958,0,0,0,.5,2.12l3.442,3.156L23.9,27.009a1.973,1.973,0,0,0,.5-2.12,1.878,1.878,0,0,1-.112-.258l-.073.041-.11.06c-.138.075-.274.144-.41.209-.038.018-.076.037-.113.053L23.569,25l-.01,0c-.172.08-.342.151-.51.215h0l-.025.011h0l-.025.01s0,0,0,0l-.055.02-.11.039-.105.035h0l-.022.008-.011,0-.018.005-.013,0-.017.005-.013,0-.027.009s0,0,0,0c-.078.024-.157.047-.233.068-.148.042-.294.078-.438.109h-.007l-.019.005-.019,0h-.007l-.029.006h0c-.044.009-.087.018-.13.025-.118.022-.236.04-.352.056l-.193.024h-.033l-.031,0H21.1l-.037,0H21.05l-.039,0c-.112.01-.229.015-.346.02-.094.005-.187.008-.278.008h-.064q-.228,0-.453-.023a.034.034,0,0,1-.012,0h-.015l-.03,0c-.061,0-.121-.011-.178-.02a.256.256,0,0,1-.035-.005h0a2.819,2.819,0,0,1-.293-.035c-.081-.013-.162-.027-.239-.042h-.014l-.134-.027-.061-.013-.023-.006h0l-.027-.006-.019-.005-.009,0-.029-.006a2.791,2.791,0,0,1-.293-.077,1.756,1.756,0,0,1-.215-.06.378.378,0,0,1-.049-.015c-.012,0-.022-.008-.034-.01a7.678,7.678,0,0,1-.889-.35c-.1-.049-.207-.1-.3-.148h0l-.017-.009-.009-.005-.008,0c-.116-.062-.225-.123-.325-.181C16.581,24.738,16.55,24.814,16.516,24.889Zm2.8-13.735a8.091,8.091,0,0,1-5.075,2.474v4.054a6.326,6.326,0,0,0,6.213,6.432h.209a.141.141,0,0,0,.025,0h.049l.036,0H20.9l.035,0h.006l.031,0h.01l.026,0h.013l.026,0h.01l.035,0H21.1l.029,0h.011l.025,0h.012l.03,0h.006l.034,0a.017.017,0,0,0,.009,0l.028,0h.01l.029,0h.008l.033-.005h0l.038-.006h0a.219.219,0,0,1,.03-.005h.009a.209.209,0,0,1,.03-.005h.007l.072-.012h.006l.03-.006H21.6L21.629,24l.007,0c.024,0,.048-.009.072-.014h.006a.185.185,0,0,1,.029-.006l.009,0,.029-.006h.006l.072-.016h.005l.031-.008h0l.034-.009h0l.073-.019h0l.032-.009h0l.033-.009h0l.072-.02s0,0,0,0l.034-.01h0l.109-.034h0l.035-.011h0a6.3,6.3,0,0,0,3.665-3.236v0l.015-.032a0,0,0,0,0,0,0c.011-.022.022-.045.031-.068a.006.006,0,0,0,0-.005c.005-.01.009-.019.014-.028l0-.008.011-.027a.032.032,0,0,0,0-.007.181.181,0,0,0,.014-.03.007.007,0,0,0,0,0c.005-.011.01-.021.014-.033l.006-.011c0-.007.006-.014.009-.02a.066.066,0,0,0,.006-.014.065.065,0,0,0,.008-.019c0-.005,0-.01.007-.015s.006-.013.009-.02l.011-.025a.083.083,0,0,1,.006-.015l.007-.02a.037.037,0,0,0,.005-.011.109.109,0,0,0,.008-.022.026.026,0,0,0,0-.01l.01-.022a0,0,0,0,1,0,0c.01-.028.021-.056.031-.082a.01.01,0,0,1,0-.005.248.248,0,0,0,.01-.027s0,0,0,0c.028-.077.056-.155.082-.234a6.644,6.644,0,0,0,.256-1.08c.026-.172.045-.345.057-.52v0c0-.01,0-.019,0-.028v-.007c0-.027,0-.052.005-.078v-.015c0-.007,0-.014,0-.02s0-.011,0-.018v-.018c0-.011,0-.023,0-.034s0-.009,0-.013a.123.123,0,0,1,0-.025v-.038c0-.005,0-.009,0-.014v-.037a0,0,0,0,0,0,0V13.663h-.909a8.184,8.184,0,0,1-6.135-2.824Zm8.9,3.907v2.4a1.581,1.581,0,0,0,.572-.6,1.631,1.631,0,0,0,.2-.792,1.6,1.6,0,0,0-.775-1.378Zm-16.1.222a1.629,1.629,0,0,0-.2.795,1.6,1.6,0,0,0,.774,1.382V14.691A1.567,1.567,0,0,0,12.12,15.283Zm8.261-6.007a6.689,6.689,0,0,0,5.378,2.779h2.464v.921A3.02,3.02,0,0,1,29,13.3V8.132A3.415,3.415,0,0,0,26.478,4.8l-.206-.055-.684-.708a7.868,7.868,0,0,0-5.666-2.424,8.147,8.147,0,0,0-8,8.284V13.3a2.878,2.878,0,0,1,.771-.328v-.921H13.5a6.57,6.57,0,0,0,4.72-2.034l1.547-1.6ZM18.156,25.358h0Z" transform="translate(0.5 0.5)" fill="#e4794b" stroke="rgba(0,0,0,0)" stroke-width="1"/>
</svg>
