<svg xmlns="http://www.w3.org/2000/svg" xmlns:xlink="http://www.w3.org/1999/xlink" width="246" height="352" viewBox="0 0 246 352">
  <defs>
    <clipPath id="clip-path">
      <rect id="Rectangle_17184" data-name="Rectangle 17184" width="246" height="352" rx="6" transform="translate(2172 4616)" fill="#ecfbff"/>
    </clipPath>
  </defs>
  <g id="Mask_Group_249" data-name="Mask Group 249" transform="translate(-2172 -4616)" clip-path="url(#clip-path)">
    <g id="Group_40669" data-name="Group 40669" transform="translate(1906.085 4530.564)">
      <g id="Group_40661" data-name="Group 40661" transform="translate(403.949 419.269)">
        <path id="Path_98016" data-name="Path 98016" d="M409.412,402.069s7.422-1.31,6.985-11.132-3.71-23.354-10.259-27.283S394.81,365.4,394.81,365.4Z" transform="translate(-380.161 -361.708)" fill="#7b7b9a"/>
        <path id="Path_98017" data-name="Path 98017" d="M382.754,363.753c.219,3.274,3.274,8.073,9.823,11.567s10.041,15.935,12.985,21.39a11.719,11.719,0,0,0,4.017,4.6,5.153,5.153,0,0,0,2.426.858s.036-.861.043-2.351a110.989,110.989,0,0,0-1.4-18.168c-1.791-10.694-8.129-14.405-8.129-14.405-1.155-1.972-3.647-3.376-6.486-4.263-4.642-1.451-10.208-1.516-12.365-.423C383.058,362.863,382.722,363.265,382.754,363.753Z" transform="translate(-382.752 -361.807)" fill="#b0b1ca"/>
        <path id="Path_98018" data-name="Path 98018" d="M405.776,379.7c1.548,6.551,2.249,17.362,1.453,21.406a5.154,5.154,0,0,0,2.426.858,110.279,110.279,0,0,0-1.356-20.519c-1.791-10.694-8.129-14.405-8.129-14.405-1.155-1.972-3.647-3.376-6.486-4.263C397.437,366.532,404.463,374.151,405.776,379.7Z" transform="translate(-380.403 -361.599)" fill="#2c2a40"/>
        <path id="Path_98019" data-name="Path 98019" d="M382.754,363.621c.219,3.274,3.274,8.073,9.823,11.567s10.041,15.935,12.985,21.39a11.72,11.72,0,0,0,4.017,4.6,5.154,5.154,0,0,0,2.426.858s.036-.861.043-2.351a1.109,1.109,0,0,0-.481-.268c-2.181-.547-5.127-1.389-6.875-9.495s-4.692-13.97-9.711-16.479c-4.581-2.288-10.334-9.723-11.312-11.017C383.058,362.73,382.722,363.132,382.754,363.621Z" transform="translate(-382.752 -361.674)" fill="#2c2a40" opacity="0.2"/>
      </g>
      <path id="Path_98020" data-name="Path 98020" d="M341.5,194.8s50.547-7.592,64.269,13.872-4.711,93.207-19.586,104.071-39.589,5.231-48.839-1.6S323.806,205.159,341.5,194.8Z" transform="translate(9.713 21.289)" fill="#2c2a40"/>
      <path id="Path_98021" data-name="Path 98021" d="M387.657,270.3a13.1,13.1,0,0,0,8.7-9.058l-7.639-3.384S385.725,265.606,387.657,270.3Z" transform="translate(22.111 35.122)" fill="#00497b"/>
      <path id="Path_98022" data-name="Path 98022" d="M387.543,263.726c10.476,15.935,34.126,20.08,34.126,20.08,4.895-1.431,11.42-8.241,17.873-16.547h0C451.8,251.471,463.8,230.274,463.8,230.274L453.974,227s-17.245,19.045-24.663,23.189-9.606,8.078-9.606,8.078a26.052,26.052,0,0,0-2.629-2.455,69.056,69.056,0,0,0-12.543-7.754C396.128,245.708,387.543,263.726,387.543,263.726Z" transform="translate(22.227 28.491)" fill="#f9b587"/>
      <path id="Path_98023" data-name="Path 98023" d="M387.543,260.038c10.476,15.935,34.126,20.08,34.126,20.08,4.895-1.431,11.42-8.241,17.873-16.547,0,0-11.525,12.245-18.856,13.273s-21.209-8.948-22.611-12.769.668-13.541,6.457-19.7C396.128,242.021,387.543,260.038,387.543,260.038Z" transform="translate(22.227 32.178)" fill="#f39568"/>
      <path id="Path_98024" data-name="Path 98024" d="M304.8,291.644s-.552,32.211,3.97,52.55,23.839-33.3,23.839-33.3S315.3,295.693,304.8,291.644Z" transform="translate(4.44 42.384)" fill="#2c2a40"/>
      <path id="Path_98025" data-name="Path 98025" d="M373.859,309.568s-.419,18.99-12.861,32.414a91.4,91.4,0,0,0-17.785,29.139s18.623-8.512,30.646-6.22c0,0,6.292.327,8.585-2.291s2.946-5.731,6.547-4.748,8.677-.164,9.987-.327,9.659,13.1,8.021,21.773c0,0-6.547,1.8-7.366,2.946s-5.566,6.058-8.513,5.894-10.8,4.42-10.8,4.42-40.493,15.408-44.2,18.008c-6.243,4.38-35.688,9.168-38.308-7.367s23.082-95.112,26.685-103.624S369.531,299.255,373.859,309.568Z" transform="translate(2.901 43.327)" fill="#2c2a40"/>
      <g id="Group_40662" data-name="Group 40662" transform="translate(338.376 351.394)">
        <path id="Path_98026" data-name="Path 98026" d="M330.067,352.683l1.141.417c.414-1.135.922-2.342,1.509-3.59l-1.1-.518C331.016,350.273,330.493,351.514,330.067,352.683Z" transform="translate(-328.502 -296.685)" fill="#5b5b6c"/>
        <path id="Path_98027" data-name="Path 98027" d="M379.343,350.808l.26,1.186c1.2-.264,2.5-.516,3.857-.753l-.209-1.2C381.877,350.283,380.562,350.541,379.343,350.808Z" transform="translate(-317.912 -296.459)" fill="#5b5b6c"/>
        <path id="Path_98028" data-name="Path 98028" d="M330.017,359.727l-1.208.135.017.136a6.627,6.627,0,0,0,1.544,3.826l.892-.825a5.569,5.569,0,0,1-1.231-3.155Z" transform="translate(-328.773 -294.378)" fill="#5b5b6c"/>
        <path id="Path_98029" data-name="Path 98029" d="M337.7,362.872l.327,1.17c1.248-.348,2.561-.769,3.8-1.171l-.374-1.155C340.224,362.112,338.924,362.53,337.7,362.872Z" transform="translate(-326.862 -293.951)" fill="#5b5b6c"/>
        <path id="Path_98030" data-name="Path 98030" d="M337.291,339.423c-.768,1.153-1.493,2.274-2.155,3.331l1.03.645c.656-1.047,1.374-2.159,2.136-3.3Z" transform="translate(-327.413 -298.741)" fill="#5b5b6c"/>
        <path id="Path_98031" data-name="Path 98031" d="M335.349,344.717,334.3,344.1c-.708,1.2-1.362,2.367-1.944,3.472l1.075.566C334.006,347.051,334.65,345.9,335.349,344.717Z" transform="translate(-328.01 -297.736)" fill="#5b5b6c"/>
        <path id="Path_98032" data-name="Path 98032" d="M355.9,306.146l-1.2-.208c-.222,1.282-.482,2.574-.775,3.842l1.185.272C355.4,308.764,355.67,307.449,355.9,306.146Z" transform="translate(-323.375 -305.938)" fill="#5b5b6c"/>
        <path id="Path_98033" data-name="Path 98033" d="M341.44,335.585l-.99-.7c-.827,1.162-1.571,2.223-2.273,3.245l1,.689C339.877,337.8,340.617,336.743,341.44,335.585Z" transform="translate(-326.759 -299.717)" fill="#5b5b6c"/>
        <path id="Path_98034" data-name="Path 98034" d="M343.687,330.42q-1.155,1.58-2.325,3.2l.985.712q1.163-1.611,2.32-3.19Z" transform="translate(-326.075 -300.676)" fill="#5b5b6c"/>
        <path id="Path_98035" data-name="Path 98035" d="M330.668,354.53l-1.172-.317a21.993,21.993,0,0,0-.717,3.99l1.211.095A20.824,20.824,0,0,1,330.668,354.53Z" transform="translate(-328.779 -295.563)" fill="#5b5b6c"/>
        <path id="Path_98036" data-name="Path 98036" d="M332.549,363.325l-.228,1.193a7.944,7.944,0,0,0,1.5.132,14.465,14.465,0,0,0,2.646-.276l-.224-1.194A10.13,10.13,0,0,1,332.549,363.325Z" transform="translate(-328.018 -293.636)" fill="#5b5b6c"/>
        <path id="Path_98037" data-name="Path 98037" d="M359.281,359.106l.2,1.2c1.323-.225,2.639-.512,3.913-.853l-.315-1.172C361.846,358.609,360.566,358.889,359.281,359.106Z" transform="translate(-322.224 -294.689)" fill="#5b5b6c"/>
        <path id="Path_98038" data-name="Path 98038" d="M364.527,357.893l.4,1.148a31.14,31.14,0,0,0,3.715-1.551L368.1,356.4A29.985,29.985,0,0,1,364.527,357.893Z" transform="translate(-321.096 -295.092)" fill="#5b5b6c"/>
        <path id="Path_98039" data-name="Path 98039" d="M342.932,361.219l.367,1.158c1.516-.48,2.676-.818,3.76-1.093l-.3-1.177C345.652,360.388,344.471,360.732,342.932,361.219Z" transform="translate(-325.737 -294.296)" fill="#5b5b6c"/>
        <path id="Path_98040" data-name="Path 98040" d="M353.886,359.481l.011,1.215c1.318-.012,2.663-.087,4-.227l-.125-1.208C356.473,359.4,355.165,359.47,353.886,359.481Z" transform="translate(-323.383 -294.478)" fill="#5b5b6c"/>
        <path id="Path_98041" data-name="Path 98041" d="M373.975,352.421l.44,1.132a35.849,35.849,0,0,1,3.7-1.174l-.311-1.175A37.009,37.009,0,0,0,373.975,352.421Z" transform="translate(-319.066 -296.209)" fill="#5b5b6c"/>
        <path id="Path_98042" data-name="Path 98042" d="M371.169,354.226a10.522,10.522,0,0,1-1.818,1.527l.686,1a11.734,11.734,0,0,0,2.027-1.708,4.892,4.892,0,0,1,.989-.791l-.65-1.028A6.085,6.085,0,0,0,371.169,354.226Z" transform="translate(-320.059 -295.774)" fill="#5b5b6c"/>
        <path id="Path_98043" data-name="Path 98043" d="M353.581,311.265c-.345,1.272-.728,2.532-1.137,3.746l1.152.388c.417-1.236.807-2.52,1.158-3.815Z" transform="translate(-323.693 -304.793)" fill="#5b5b6c"/>
        <path id="Path_98044" data-name="Path 98044" d="M344.606,329.168l.98.717c.793-1.085,1.573-2.152,2.328-3.2l-.984-.712Q345.8,327.541,344.606,329.168Z" transform="translate(-325.378 -301.632)" fill="#5b5b6c"/>
        <path id="Path_98045" data-name="Path 98045" d="M350.844,321.963l-1.069-.575c-.626,1.164-1.294,2.291-1.985,3.353l1.017.663C349.518,324.315,350.2,323.157,350.844,321.963Z" transform="translate(-324.693 -302.617)" fill="#5b5b6c"/>
        <path id="Path_98046" data-name="Path 98046" d="M350.423,320.037l1.1.518c.554-1.177,1.081-2.413,1.57-3.671l-1.133-.439C351.48,317.677,350.964,318.885,350.423,320.037Z" transform="translate(-324.127 -303.68)" fill="#5b5b6c"/>
        <path id="Path_98047" data-name="Path 98047" d="M348.321,359.678l.2,1.2a17.2,17.2,0,0,1,3.8-.275l.062-1.212A18.339,18.339,0,0,0,348.321,359.678Z" transform="translate(-324.579 -294.455)" fill="#5b5b6c"/>
      </g>
      <path id="Path_98048" data-name="Path 98048" d="M303.569,114.72l4.937,21.044.029.13a84.039,84.039,0,0,0,1.389,9.044c1.186,5.733,3.291,13.02,6.889,18.2a20.66,20.66,0,0,0,1.762,2.223s3.127,12.012,6.5,22.387h0c1.985,6.113,4.051,11.66,5.615,13.844,0,0,19.953-3.749,15.172-15.68,0,0-6.787-15.556-12.133-27.022l0-.009c-1.034-2.221-2.017-4.286-2.884-6.058l-6.116-13.958-2.93-6.688-8.892-20.3Z" transform="translate(4.179 3.749)" fill="#f9b587"/>
      <path id="Path_98049" data-name="Path 98049" d="M321.269,179.433c1.985,6.113,4.051,11.66,5.615,13.844,0,0,19.953-3.749,15.172-15.68,0,0-6.787-15.556-12.133-27.022.128.446,4.8,16.836,3.4,21.443C331.907,176.69,327.762,181.09,321.269,179.433Z" transform="translate(7.983 12.065)" fill="#f39568"/>
      <path id="Path_98050" data-name="Path 98050" d="M321.372,189.272a53.306,53.306,0,0,0,8.005,25.165c2.5,2.629,5.615,2.619,8.8,1.248,8.11-3.481,16.688-15.745,16.688-15.745l-11.685-24.7-1.147-2.419c-6.6,1.8-13.285,6.5-17.166,9.574-2.1,1.663-3.375,2.851-3.375,2.851A29.41,29.41,0,0,0,321.372,189.272Z" transform="translate(8.001 16.845)" fill="#e4794b"/>
      <path id="Path_98051" data-name="Path 98051" d="M321.372,187.578a53.306,53.306,0,0,0,8.005,25.165c2.5,2.629,5.615,2.619,8.8,1.248-7-6.954-11.793-26.418-13.309-33.294-2.1,1.663-3.375,2.851-3.375,2.851A29.41,29.41,0,0,0,321.372,187.578Z" transform="translate(8.001 18.539)" fill="#2c2a40" opacity="0.2"/>
      <path id="Path_98052" data-name="Path 98052" d="M321.372,189.272c5.465-5.425,17.969-12.062,21.813-14.036l-1.147-2.419c-10.169,2.776-20.541,12.425-20.541,12.425A29.41,29.41,0,0,0,321.372,189.272Z" transform="translate(8.001 16.845)" fill="#2c2a40"/>
      <path id="Path_98053" data-name="Path 98053" d="M299.527,317.175c15.2,19.688,78.706,20.954,78.706,20.954s-2.25-26.058,0-38.961c2.475-14.187,4.619-35.033,4.619-35.033,5.809,4.247,14.681,12.15,19.734,16.74,2.351,2.138,3.873,3.56,3.873,3.56a62.714,62.714,0,0,1,6.1-17.022c5.213-9.456,10.891-11.849,10.891-11.849l-2.659-3.473-19.275-25.172L380.8,209.758l-3.565-2.952-16.3-10.441-6.672-4.277s-17.251,7.219-22.163,14.718S315.91,249.045,312.46,266.1c-4.476,22.12-9.848,40.844-11.986,47.982l-.007.013C299.871,316.087,299.527,317.175,299.527,317.175Z" transform="translate(3.31 20.987)" fill="#e4794b"/>
      <path id="Path_98054" data-name="Path 98054" d="M299.527,307.847c15.2,19.688,78.706,20.954,78.706,20.954s-2.25-26.058,0-38.961c2.475-14.187,4.619-35.033,4.619-35.033,5.809,4.247,14.681,12.15,19.734,16.74,2.351,2.138,3.873,3.56,3.873,3.56a62.714,62.714,0,0,1,6.1-17.022s-22.259-12.061-31.77-22.6c0,0-11.86,32.8-15.943,49.331-5.284,21.391-23.206,30.123-39.653,29.029s-24.719-9.1-24.719-9.1l-.007.013C299.871,306.76,299.527,307.847,299.527,307.847Z" transform="translate(3.31 30.315)" fill="#2c2a40" opacity="0.2"/>
      <path id="Path_98055" data-name="Path 98055" d="M360.988,213.432c3.765-.741,5.679-2.837,8.537-5.161l-1.966-1.628-17.385-13.8c-2.306,1.464-5.185,2.9-5.585,8.758C343.983,210.441,353.3,214.943,360.988,213.432Z" transform="translate(12.989 21.149)" fill="#2c2a40"/>
      <path id="Path_98056" data-name="Path 98056" d="M384.355,270.26c2.351,2.138,3.873,3.56,3.873,3.56,5.206-23.9,16.989-28.871,16.989-28.871l-2.659-3.473A46.376,46.376,0,0,0,384.355,270.26Z" transform="translate(21.541 31.601)" fill="#2c2a40"/>
      <g id="Group_40665" data-name="Group 40665" transform="translate(356.3 152.966)">
        <path id="Path_98057" data-name="Path 98057" d="M376.116,187.568s.34,9.486-10.593,11.431C365.523,199,368.258,186.586,376.116,187.568Z" transform="translate(-338.806 -132.962)" fill="#2c2a40"/>
        <path id="Path_98058" data-name="Path 98058" d="M360.392,175.521c6.6,10.615,17.277,19.547,17.277,19.547s22.781-11,15.293-29.074a31.477,31.477,0,0,0-7.151-10.945v0h0c-11.395-10.88-26.58-3.85-26.58-3.85C352.6,158.063,355.272,167.3,360.392,175.521Z" transform="translate(-341.005 -141.248)" fill="#e4794b"/>
        <path id="Path_98059" data-name="Path 98059" d="M380.411,153.968l0,0v0Z" transform="translate(-335.607 -140.171)" fill="#3e86aa"/>
        <path id="Path_98060" data-name="Path 98060" d="M359.49,174.444c6.6,10.615,17.277,19.547,17.277,19.547s22.781-11,15.293-29.074a31.476,31.476,0,0,0-7.151-10.945c.131.21,6.415,10.271,0,16.966C378.421,177.706,367.188,180.131,359.49,174.444Z" transform="translate(-340.103 -140.171)" fill="#2c2a40" opacity="0.2"/>
        <path id="Path_98061" data-name="Path 98061" d="M379.643,172.063s-5.956-30.8-25.012-29.4c-17.843,1.31-3.94,24.924-3.94,24.924S376.449,174.937,379.643,172.063Z" transform="translate(-343.102 -142.612)" fill="#2c2a40"/>
        <path id="Path_98062" data-name="Path 98062" d="M355.541,157.884s-8.174,1.628-7.41,9.158C348.131,167.042,355.055,162.938,355.541,157.884Z" transform="translate(-342.555 -139.33)" fill="#2c2a40"/>
        <g id="Group_40664" data-name="Group 40664" transform="translate(0 18.232)">
          <g id="Group_40663" data-name="Group 40663">
            <path id="Path_98063" data-name="Path 98063" d="M370.07,198.3l-2.995,10.661a3.794,3.794,0,0,1-2.887,2.919c-12.51,2.752-18.469-6.421-17.211-9.638,1.617-.575,29.467-9.484,34.533-20.186A27.889,27.889,0,0,1,370.07,198.3Z" transform="translate(-342.827 -152.367)" fill="#f9b587"/>
            <path id="Path_98064" data-name="Path 98064" d="M349.113,203.087a29.549,29.549,0,0,0,15.518,1.9c11.08-1.967,16.849-15.081,16.849-15.081s1.85-8.908-.638-17.139a20.624,20.624,0,0,0-3.1-6.361c-5.212-7.047-13.876-8.3-18.643-8.758a6.226,6.226,0,0,0-5.906,2.94L351.1,164l-1.395,2.279a15.39,15.39,0,0,0-.812,1.505,15.724,15.724,0,0,0-1.454,5.517l-.163,2.233a15.758,15.758,0,0,0-3.3,8.975l-.433,10.058A8.722,8.722,0,0,0,349.113,203.087Z" transform="translate(-343.532 -157.619)" fill="#f9b587"/>
            <path id="Path_98065" data-name="Path 98065" d="M357.622,167.645s8.865-3.351,10.758,3.984l-1.385,1.061s-2.68-5.654-9.733-3.132Z" transform="translate(-340.582 -155.628)" fill="#2c2a40"/>
            <path id="Path_98066" data-name="Path 98066" d="M347.05,173.741a15.6,15.6,0,0,0-2.466,4.56c1.746-.363,4.773.019,9.853,3.11,0,0-1.87-3.618-4.738-4.933a1.261,1.261,0,0,1-.417-1.984l3.775-4.239a3.681,3.681,0,0,0-1.217-2.149,23.114,23.114,0,0,0-3.172-2.114,15.666,15.666,0,0,0-1.452,5.517Z" transform="translate(-343.306 -155.819)" fill="#f39568"/>
            <path id="Path_98067" data-name="Path 98067" d="M348.959,164.887a17.092,17.092,0,0,1,3.459,2.387l-.511,1.7a12.122,12.122,0,0,0-3.684-2.365,1.011,1.011,0,0,1-.609-1.353l.01-.017A.972.972,0,0,1,348.959,164.887Z" transform="translate(-342.675 -156.084)" fill="#2c2a40"/>
            <path id="Path_98068" data-name="Path 98068" d="M346.07,179.6l15.375,5.05s-5.176,7.23-12.939,3.6C342.418,185.4,346.07,179.6,346.07,179.6Z" transform="translate(-343.22 -152.894)" fill="#fff"/>
            <path id="Path_98069" data-name="Path 98069" d="M349.369,196.511s9.654,2.859,20.145-7.738c0,0,.228,5.694-5.4,11.278-4.1,4.064-11.833,3.391-15.742,2.724a1.7,1.7,0,0,1-1.188-2.542Z" transform="translate(-342.798 -150.923)" fill="#f39568"/>
            <path id="Path_98070" data-name="Path 98070" d="M372.983,181.368s5.1-4.088,8.114.069-4.53,15.27-9.43,10.429S372.983,181.368,372.983,181.368Z" transform="translate(-337.89 -152.901)" fill="#f9b587"/>
          </g>
          <path id="Path_98071" data-name="Path 98071" d="M357.386,172.283s2.014-2.256,4.378-1.238a4.347,4.347,0,0,1,2.838,4.683S363.269,169.674,357.386,172.283Z" transform="translate(-340.555 -154.79)" fill="#2c2a40"/>
          <path id="Path_98072" data-name="Path 98072" d="M351.066,171.113s-1.137-3.856-4.04-1.047A2.891,2.891,0,0,1,351.066,171.113Z" transform="translate(-342.781 -155.164)" fill="#2c2a40"/>
          <path id="Path_98073" data-name="Path 98073" d="M349.715,163.948c.006.114-.264.543-.258.661,0,0,4.976-4.166,13.738-.784S376.248,175.5,376.248,175.5l3.32-2.734a20.624,20.624,0,0,0-3.1-6.361c-5.212-7.047-13.876-8.3-18.643-8.758a6.226,6.226,0,0,0-5.906,2.94Z" transform="translate(-342.259 -157.619)" fill="#f39568"/>
        </g>
        <path id="Path_98074" data-name="Path 98074" d="M370.221,184.944l2.878,1.31,4.2-3.765c.661-3.618-2.272-13.277-2.96-15.45-.371-.354-.978-.7-1.407-1.048,0,0-2.889,9.993.238,13.693Z" transform="translate(-337.797 -137.588)" fill="#2c2a40"/>
      </g>
      <path id="Path_98075" data-name="Path 98075" d="M307.633,132.173l.029.13a84.03,84.03,0,0,0,1.389,9.044l14.8-6.071-2.93-6.688Z" transform="translate(5.053 7.34)" fill="#f39568"/>
      <path id="Path_98076" data-name="Path 98076" d="M326.549,215.022l11.714,10.46s-4.19,16.437-13.155,12.769C314.3,233.831,326.549,215.022,326.549,215.022Z" transform="translate(7.851 25.916)" fill="#2c2a40" opacity="0.2"/>
      <g id="Group_40667" data-name="Group 40667" transform="translate(284.124 94.436)">
        <g id="Group_40666" data-name="Group 40666" transform="translate(0 0)">
          <rect id="Rectangle_17182" data-name="Rectangle 17182" width="55.657" height="36.853" transform="matrix(-0.937, 0.35, -0.35, -0.937, 65.032, 36.663)" fill="#2c2a40"/>
          <path id="Path_98077" data-name="Path 98077" d="M284.124,112.747l12.89,34.526,52.141-19.467-1.963-.557L285.6,109.758l-1,2.013v0Z" transform="translate(-284.124 -91.143)" fill="#2c2a40"/>
          <path id="Path_98078" data-name="Path 98078" d="M284.521,111.771l12.31,33.1,1.579-.589,18.717-26.512-31.607-8.015Z" transform="translate(-284.038 -91.143)" fill="#fff"/>
          <rect id="Rectangle_17183" data-name="Rectangle 17183" width="53.224" height="36.854" transform="matrix(-0.937, 0.35, -0.35, -0.937, 64.234, 34.526)" fill="#2c2a40"/>
        </g>
        <path id="Path_98079" data-name="Path 98079" d="M299.394,103.107l.007-.009a3.4,3.4,0,0,1,2.374-1.147,2.227,2.227,0,0,1,1.851-1.375,2.361,2.361,0,0,1,1.544.234c.411-.791,1.445-1.261,2.008-.948,0,0,.137.058.371.166a1.865,1.865,0,0,1,.634-.894h0a2.864,2.864,0,0,1,2.871-.9s5.519,2.228,6.045,6.483,1.306,9.209-.666,8.5a3.694,3.694,0,0,1-1.612-1.862c.213,2.554.089,4.464-1.187,4.007-.709-.254-1.406-1.3-1.977-2.645.123,2.166-.092,3.671-1.239,3.26-1.036-.371-2.042-2.43-2.675-4.639.192,2.465.044,4.274-1.2,3.828-1.526-.547-1.962-3.973-3.029-6.744-1.253-3.245-1.54-1.547-3.379-2.735l-1.651.616A3.711,3.711,0,0,1,299.394,103.107Z" transform="translate(-281.05 -93.646)" fill="#f9b587"/>
      </g>
      <path id="Path_98080" data-name="Path 98080" d="M440.953,237.965a10.847,10.847,0,0,1-4.727-6.339c-.209-.757-.454-1.56-.736-2.348-1.091-3.056-.217-9.6,0-12.223s2.074-7.639,2.619-8.185,3.82,1.781,2.51,5.146a10.774,10.774,0,0,0,.307,8.182c.676,1.076,3.731-.888,4.5-2.853s7.421-16.806,8.73-17.243,2.4-.108,1.528,3.71-5.02,10.477-4.475,12.333,1.527.328,1.855-.655,5.675-15.03,6.548-15.536,3.384-1.381,2.074,4.567-5.376,13.207-5.129,14.517,5.811-13.178,7.366-14,2.7.655,1.474,4.256-4.507,10.586-4.782,11.374c-.232.665-.1,1.225.471.9s4.035-8.832,4.828-9.323,2.757.409.628,6.22-3.546,10.961-9.331,16.309c-3.571,3.3-5.321,5.3-8.677,4.809C446.521,241.288,443.464,239.525,440.953,237.965Z" transform="translate(32.416 23.029)" fill="#f9b587"/>
      <path id="Path_98081" data-name="Path 98081" d="M387.53,221.482s1.426-15.736-10.929-19.01c-8.86-2.347-23.873,13.975-27.673,32.3-6.72,32.413,8.855,60.679,19.04,64.391,0,0,9.3-7.2,2.21-16.917,0,0-19.17-19.326-10.623-47.147,7.118-23.172,18.489-29.14,22.765-17.766Z" transform="translate(13.577 23.17)" fill="#2c2a40"/>
      <path id="Path_98082" data-name="Path 98082" d="M315.582,243.729l5.295-16.29s-.736-28.458,29.286-35.631a8.625,8.625,0,0,1-.4-3.006l.186-4.338C346.194,184.709,307.923,195.772,315.582,243.729Z" transform="translate(6.544 19.349)" fill="#2c2a40"/>
      <path id="Path_98083" data-name="Path 98083" d="M414.527,262.666a43.892,43.892,0,0,1,0-9.495,26.052,26.052,0,0,0-2.629-2.455C410.6,260.756,414.527,262.666,414.527,262.666Z" transform="translate(27.404 33.587)" fill="#f39568"/>
      <path id="Path_98084" data-name="Path 98084" d="M314.47,154.335a20.661,20.661,0,0,0,1.762,2.223s5.052-2.947,6.51-3.713A28.1,28.1,0,0,0,314.47,154.335Z" transform="translate(6.522 12.553)" fill="#f39568"/>
      <g id="Group_40668" data-name="Group 40668" transform="translate(401.879 391.182)">
        <path id="Path_98085" data-name="Path 98085" d="M381.048,349.127c2.71,2.56,4.9,8.548,6.328,13.4l.007.019c1.155,3.935,1.8,7.122,1.8,7.122,2.409,2.619,7.907,1.866,16.744,2.825,7.953.865,13.524,6.394,19.454,8.775h.006a16.178,16.178,0,0,0,1.988.667c3.526.927,6.011.347,7.364-1.358,1.225-1.542,1.522-4.01.821-7.124-1.474-6.562-18.008-20.967-22.754-22.885s-7.694-3.042-13.336-7.686-11.384-4.959-12.529-3.221c-.193.292-.485.753-.842,1.316C384.338,343.776,381.048,349.127,381.048,349.127Z" transform="translate(-381.048 -338.688)" fill="#b0b1ca"/>
        <path id="Path_98086" data-name="Path 98086" d="M385.206,340.977c1.87-.206,5.032-.3,7.282,1,3.382,1.965,8.185,6.548,13.312,8.949s14.953,9.167,20.084,13.97,8.146,12.359,6.657,14.841-4.2,2.4-8.045,1.526a16.176,16.176,0,0,0,1.988.667c6.711,1.762,9.659-1.922,8.185-8.483s-18.008-20.967-22.754-22.885-7.694-3.042-13.336-7.686-11.384-4.959-12.529-3.221C385.855,339.953,385.563,340.414,385.206,340.977Z" transform="translate(-380.154 -338.688)" fill="#2c2a40"/>
        <path id="Path_98087" data-name="Path 98087" d="M386.263,358.326c1.155,3.935,1.8,7.122,1.8,7.122,2.409,2.619,7.907,1.866,16.744,2.825,7.953.865,13.524,6.394,19.455,8.775h.006a16.18,16.18,0,0,0,1.988.667c3.526.927,6.011.347,7.364-1.358l.439-2.581a13.975,13.975,0,0,1-12.658-.982c-5.179-3.006-7.515-5.936-11.673-7.1.773-3.145-.988-6.548-.988-6.548a25,25,0,0,1-1.29,6.008,13.75,13.75,0,0,0-2.639-.114C398.056,365.373,387.513,362.121,386.263,358.326Z" transform="translate(-379.927 -334.468)" fill="#2c2a40" opacity="0.2"/>
      </g>
    </g>
  </g>
</svg>
