<svg xmlns="http://www.w3.org/2000/svg" width="82" height="82" viewBox="0 0 82 82">
  <g id="Group_42439" data-name="Group 42439" transform="translate(-407 -196.5)">
    <path id="Path_98978" data-name="Path 98978" d="M41,0A41,41,0,1,1,0,41,41,41,0,0,1,41,0Z" transform="translate(407 196.5)" fill="#77c1d8"/>
    <g id="Layer_2" data-name="Layer 2" transform="translate(434.624 223.258)">
      <g id="Avatar" transform="translate(-0.001 0)">
        <path id="Path_94125" data-name="Path 94125" d="M26.673,24l-.729-3.458a6.836,6.836,0,0,0-3.1-4.427L18.458,13.4a6.312,6.312,0,0,0,1.225-3.111l.348-3.276A6.341,6.341,0,0,0,13.729,0h-.7A6.341,6.341,0,0,0,6.722,7.013l.353,3.276A6.312,6.312,0,0,0,8.3,13.4L3.913,16.111a6.836,6.836,0,0,0-3.1,4.427L.079,24a3.72,3.72,0,0,0,3.64,4.489H23.032A3.72,3.72,0,0,0,26.673,24ZM10.431,3.988a3.458,3.458,0,0,1,2.6-1.139h.7A3.487,3.487,0,0,1,17.2,6.711l-.348,3.27a3.492,3.492,0,0,1-6.945,0l-.348-3.27a3.418,3.418,0,0,1,.872-2.723ZM23.71,25.294a.843.843,0,0,1-.678.325H3.72a.843.843,0,0,1-.678-.325.866.866,0,0,1-.194-.712l.729-3.458a4.039,4.039,0,0,1,1.834-2.586l5.2-3.224a6.3,6.3,0,0,0,5.526,0l5.2,3.224a4.039,4.039,0,0,1,1.817,2.586l.729,3.458a.866.866,0,0,1-.177.729Z" transform="translate(0.001 0)" fill="#fff"/>
        <rect id="Rectangle_15007" data-name="Rectangle 15007" width="5.478" height="2.191" rx="1.096" transform="translate(14.471 20.816)" fill="#fff"/>
      </g>
    </g>
  </g>
</svg>
