<svg xmlns="http://www.w3.org/2000/svg" xmlns:xlink="http://www.w3.org/1999/xlink" width="77.497" height="101.892" viewBox="0 0 77.497 101.892">
  <defs>
    <clipPath id="clip-path">
      <path id="Path_7800" data-name="Path 7800" d="M367.207,316.538c-8.4,18.3-28.1,31.149-51.057,31.149h0a59.371,59.371,0,0,1-22.1-4.216V321.4a36.5,36.5,0,0,0,22.1,7.3h0a35.861,35.861,0,0,0,27.281-12.162,30.251,30.251,0,0,0,7.468-19.8c0-17.649-15.558-31.957-34.749-31.957h0V245.8h0c30.593,0,55.4,22.809,55.4,50.946A47.287,47.287,0,0,1,367.207,316.538Z" transform="translate(-294.048 -245.796)" fill="#eb5a92"/>
    </clipPath>
  </defs>
  <g id="Group_21867" data-name="Group 21867" opacity="0.266">
    <g id="Group_2565" data-name="Group 2565" clip-path="url(#clip-path)">
      <g id="Group_2557" data-name="Group 2557" transform="translate(-30.038 -11.793)">
        <path id="Path_40560" data-name="Path 40560" d="M1.989,4.077A2.044,2.044,0,0,0,4,2.028,2,2,0,0,0,2.009,0,2.044,2.044,0,0,0,0,2.049,2,2,0,0,0,1.989,4.077Z" transform="translate(4.356 55.579) rotate(76.21)" fill="#eb5a92"/>
        <path id="Path_40561" data-name="Path 40561" d="M2.02,4a2.055,2.055,0,0,0,2.05-2.017A1.984,1.984,0,0,0,2.05,0,2.055,2.055,0,0,0,0,2.017,1.984,1.984,0,0,0,2.02,4Z" transform="translate(12.245 55.407) rotate(21.049)" fill="#eb5a92"/>
        <path id="Path_40562" data-name="Path 40562" d="M2,4.032A2.073,2.073,0,0,0,4.043,1.994,1.967,1.967,0,0,0,2.044,0,2.073,2.073,0,0,0,0,2.038,1.967,1.967,0,0,0,2,4.032Z" transform="translate(23.813 55.157) rotate(41.349)" fill="#eb5a92"/>
        <path id="Path_40563" data-name="Path 40563" d="M1.989,4.077A2.044,2.044,0,0,0,4,2.028,2,2,0,0,0,2.009,0,2.044,2.044,0,0,0,0,2.049,2,2,0,0,0,1.989,4.077Z" transform="translate(4.356 44.548) rotate(76.21)" fill="#eb5a92"/>
        <path id="Path_40564" data-name="Path 40564" d="M2.02,4a2.055,2.055,0,0,0,2.05-2.017A1.984,1.984,0,0,0,2.05,0,2.055,2.055,0,0,0,0,2.017,1.984,1.984,0,0,0,2.02,4Z" transform="translate(12.245 44.376) rotate(21.049)" fill="#eb5a92"/>
        <path id="Path_40565" data-name="Path 40565" d="M2,4.032A2.073,2.073,0,0,0,4.043,1.994,1.967,1.967,0,0,0,2.044,0,2.073,2.073,0,0,0,0,2.038,1.967,1.967,0,0,0,2,4.032Z" transform="translate(23.813 44.126) rotate(41.349)" fill="#eb5a92"/>
        <path id="Path_40566" data-name="Path 40566" d="M1.995,4.042A2.073,2.073,0,0,0,4.034,2,1.966,1.966,0,0,0,2.039,0,2.073,2.073,0,0,0,0,2.043,1.966,1.966,0,0,0,1.995,4.042Z" transform="matrix(0.676, 0.737, -0.737, 0.676, 2.977, 33.092)" fill="#eb5a92"/>
        <path id="Path_40567" data-name="Path 40567" d="M1.991,4.08A2.036,2.036,0,0,0,4,2.033,2,2,0,0,0,2,0,2.036,2.036,0,0,0,0,2.047,2,2,0,0,0,1.991,4.08Z" transform="translate(15.131 33.655) rotate(81.079)" fill="#eb5a92"/>
        <path id="Path_40568" data-name="Path 40568" d="M1.989,4.078A2.042,2.042,0,0,0,4,2.029,2,2,0,0,0,2.008,0,2.042,2.042,0,0,0,0,2.048,2,2,0,0,0,1.989,4.078Z" transform="matrix(0.218, 0.976, -0.976, 0.218, 25.553, 33.55)" fill="#eb5a92"/>
        <path id="Path_40569" data-name="Path 40569" d="M1.995,4.042A2.073,2.073,0,0,0,4.034,2,1.966,1.966,0,0,0,2.039,0,2.073,2.073,0,0,0,0,2.043,1.966,1.966,0,0,0,1.995,4.042Z" transform="matrix(0.676, 0.737, -0.737, 0.676, 2.977, 22.062)" fill="#eb5a92"/>
        <path id="Path_40570" data-name="Path 40570" d="M1.991,4.08A2.036,2.036,0,0,0,4,2.033,2,2,0,0,0,2,0,2.036,2.036,0,0,0,0,2.047,2,2,0,0,0,1.991,4.08Z" transform="translate(15.131 22.624) rotate(81.079)" fill="#eb5a92"/>
        <path id="Path_40571" data-name="Path 40571" d="M1.989,4.078A2.042,2.042,0,0,0,4,2.029,2,2,0,0,0,2.008,0,2.042,2.042,0,0,0,0,2.048,2,2,0,0,0,1.989,4.078Z" transform="matrix(0.218, 0.976, -0.976, 0.218, 25.553, 22.519)" fill="#eb5a92"/>
        <path id="Path_40572" data-name="Path 40572" d="M1.995,4.042A2.073,2.073,0,0,0,4.034,2,1.966,1.966,0,0,0,2.039,0,2.073,2.073,0,0,0,0,2.043,1.966,1.966,0,0,0,1.995,4.042Z" transform="matrix(0.676, 0.737, -0.737, 0.676, 2.977, 11.031)" fill="#eb5a92"/>
        <path id="Path_40573" data-name="Path 40573" d="M1.991,4.08A2.036,2.036,0,0,0,4,2.033,2,2,0,0,0,2,0,2.036,2.036,0,0,0,0,2.047,2,2,0,0,0,1.991,4.08Z" transform="translate(15.131 11.593) rotate(81.079)" fill="#eb5a92"/>
        <path id="Path_40574" data-name="Path 40574" d="M1.989,4.078A2.042,2.042,0,0,0,4,2.029,2,2,0,0,0,2.008,0,2.042,2.042,0,0,0,0,2.048,2,2,0,0,0,1.989,4.078Z" transform="matrix(0.218, 0.976, -0.976, 0.218, 25.553, 11.488)" fill="#eb5a92"/>
        <path id="Path_40575" data-name="Path 40575" d="M1.995,4.042A2.073,2.073,0,0,0,4.034,2,1.966,1.966,0,0,0,2.039,0,2.073,2.073,0,0,0,0,2.043,1.966,1.966,0,0,0,1.995,4.042Z" transform="matrix(0.676, 0.737, -0.737, 0.676, 2.977, 0)" fill="#eb5a92"/>
        <path id="Path_40576" data-name="Path 40576" d="M1.991,4.08A2.036,2.036,0,0,0,4,2.033,2,2,0,0,0,2,0,2.036,2.036,0,0,0,0,2.047,2,2,0,0,0,1.991,4.08Z" transform="translate(15.131 0.563) rotate(81.079)" fill="#eb5a92"/>
        <path id="Path_40577" data-name="Path 40577" d="M1.989,4.078A2.042,2.042,0,0,0,4,2.029,2,2,0,0,0,2.008,0,2.042,2.042,0,0,0,0,2.048,2,2,0,0,0,1.989,4.078Z" transform="matrix(0.218, 0.976, -0.976, 0.218, 25.553, 0.457)" fill="#eb5a92"/>
      </g>
      <g id="Group_2558" data-name="Group 2558" transform="translate(1.906 -11.796)">
        <path id="Path_40578" data-name="Path 40578" d="M1.989,4.077A2.043,2.043,0,0,0,4,2.029,2,2,0,0,0,2.009,0,2.043,2.043,0,0,0,0,2.049,2,2,0,0,0,1.989,4.077Z" transform="matrix(0.229, 0.973, -0.973, 0.229, 4.382, 55.596)" fill="#eb5a92"/>
        <path id="Path_40579" data-name="Path 40579" d="M1.989,4.077A2.043,2.043,0,0,0,4,2.029,2,2,0,0,0,2.009,0,2.043,2.043,0,0,0,0,2.049,2,2,0,0,0,1.989,4.077Z" transform="matrix(0.229, 0.973, -0.973, 0.229, 14.955, 55.596)" fill="#eb5a92"/>
        <path id="Path_40580" data-name="Path 40580" d="M2.019,4.007a2.057,2.057,0,0,0,2.05-2.019A1.981,1.981,0,0,0,2.05,0,2.057,2.057,0,0,0,0,2.019,1.981,1.981,0,0,0,2.019,4.007Z" transform="translate(22.894 55.377) rotate(22.618)" fill="#eb5a92"/>
        <path id="Path_40581" data-name="Path 40581" d="M1.989,4.077A2.043,2.043,0,0,0,4,2.029,2,2,0,0,0,2.009,0,2.043,2.043,0,0,0,0,2.049,2,2,0,0,0,1.989,4.077Z" transform="matrix(0.229, 0.973, -0.973, 0.229, 4.382, 44.566)" fill="#eb5a92"/>
        <path id="Path_40582" data-name="Path 40582" d="M1.989,4.077A2.043,2.043,0,0,0,4,2.029,2,2,0,0,0,2.009,0,2.043,2.043,0,0,0,0,2.049,2,2,0,0,0,1.989,4.077Z" transform="matrix(0.229, 0.973, -0.973, 0.229, 14.955, 44.566)" fill="#eb5a92"/>
        <path id="Path_40583" data-name="Path 40583" d="M2.019,4.007a2.057,2.057,0,0,0,2.05-2.019A1.981,1.981,0,0,0,2.05,0,2.057,2.057,0,0,0,0,2.019,1.981,1.981,0,0,0,2.019,4.007Z" transform="translate(22.894 44.347) rotate(22.618)" fill="#eb5a92"/>
        <path id="Path_40584" data-name="Path 40584" d="M2,4.038A2.073,2.073,0,0,0,4.038,2a1.966,1.966,0,0,0-2-2A2.073,2.073,0,0,0,0,2.041,1.966,1.966,0,0,0,2,4.038Z" transform="translate(2.855 33.092) rotate(45)" fill="#eb5a92"/>
        <path id="Path_40585" data-name="Path 40585" d="M2,4.038A2.073,2.073,0,0,0,4.038,2a1.966,1.966,0,0,0-2-2A2.073,2.073,0,0,0,0,2.041,1.966,1.966,0,0,0,2,4.038Z" transform="translate(13.428 33.092) rotate(45)" fill="#eb5a92"/>
        <path id="Path_40586" data-name="Path 40586" d="M1.991,4.08A2.036,2.036,0,0,0,4,2.033,2,2,0,0,0,2,0,2.036,2.036,0,0,0,0,2.047,2,2,0,0,0,1.991,4.08Z" transform="translate(25.694 33.648) rotate(80.759)" fill="#eb5a92"/>
        <path id="Path_40587" data-name="Path 40587" d="M2,4.038A2.073,2.073,0,0,0,4.038,2a1.966,1.966,0,0,0-2-2A2.073,2.073,0,0,0,0,2.041,1.966,1.966,0,0,0,2,4.038Z" transform="translate(2.855 22.062) rotate(45)" fill="#eb5a92"/>
        <path id="Path_40588" data-name="Path 40588" d="M2,4.038A2.073,2.073,0,0,0,4.038,2a1.966,1.966,0,0,0-2-2A2.073,2.073,0,0,0,0,2.041,1.966,1.966,0,0,0,2,4.038Z" transform="translate(13.428 22.062) rotate(45)" fill="#eb5a92"/>
        <path id="Path_40589" data-name="Path 40589" d="M1.991,4.08A2.036,2.036,0,0,0,4,2.033,2,2,0,0,0,2,0,2.036,2.036,0,0,0,0,2.047,2,2,0,0,0,1.991,4.08Z" transform="translate(25.694 22.617) rotate(80.759)" fill="#eb5a92"/>
        <path id="Path_40590" data-name="Path 40590" d="M2,4.038A2.073,2.073,0,0,0,4.038,2a1.966,1.966,0,0,0-2-2A2.073,2.073,0,0,0,0,2.041,1.966,1.966,0,0,0,2,4.038Z" transform="translate(2.855 11.031) rotate(45)" fill="#eb5a92"/>
        <path id="Path_40591" data-name="Path 40591" d="M2,4.038A2.073,2.073,0,0,0,4.038,2a1.966,1.966,0,0,0-2-2A2.073,2.073,0,0,0,0,2.041,1.966,1.966,0,0,0,2,4.038Z" transform="translate(13.428 11.031) rotate(45)" fill="#eb5a92"/>
        <path id="Path_40592" data-name="Path 40592" d="M1.991,4.08A2.036,2.036,0,0,0,4,2.033,2,2,0,0,0,2,0,2.036,2.036,0,0,0,0,2.047,2,2,0,0,0,1.991,4.08Z" transform="translate(25.694 11.587) rotate(80.759)" fill="#eb5a92"/>
        <path id="Path_40593" data-name="Path 40593" d="M2,4.038A2.073,2.073,0,0,0,4.038,2a1.966,1.966,0,0,0-2-2A2.073,2.073,0,0,0,0,2.041,1.966,1.966,0,0,0,2,4.038Z" transform="translate(2.855 0) rotate(45)" fill="#eb5a92"/>
        <path id="Path_40594" data-name="Path 40594" d="M2,4.038A2.073,2.073,0,0,0,4.038,2a1.966,1.966,0,0,0-2-2A2.073,2.073,0,0,0,0,2.041,1.966,1.966,0,0,0,2,4.038Z" transform="translate(13.428 0) rotate(45)" fill="#eb5a92"/>
        <path id="Path_40595" data-name="Path 40595" d="M1.991,4.08A2.036,2.036,0,0,0,4,2.033,2,2,0,0,0,2,0,2.036,2.036,0,0,0,0,2.047,2,2,0,0,0,1.991,4.08Z" transform="translate(25.694 0.556) rotate(80.759)" fill="#eb5a92"/>
      </g>
      <g id="Group_2559" data-name="Group 2559" transform="translate(-30.038 53.588)">
        <path id="Path_40596" data-name="Path 40596" d="M1.989,4.077A2.044,2.044,0,0,0,4,2.028,2,2,0,0,0,2.009,0,2.044,2.044,0,0,0,0,2.049,2,2,0,0,0,1.989,4.077Z" transform="translate(4.356 54.723) rotate(76.21)" fill="#eb5a92"/>
        <path id="Path_40597" data-name="Path 40597" d="M2.02,4a2.055,2.055,0,0,0,2.05-2.017A1.984,1.984,0,0,0,2.05,0,2.055,2.055,0,0,0,0,2.017,1.984,1.984,0,0,0,2.02,4Z" transform="translate(12.245 54.551) rotate(21.049)" fill="#eb5a92"/>
        <path id="Path_40598" data-name="Path 40598" d="M2,4.032A2.073,2.073,0,0,0,4.043,1.994,1.967,1.967,0,0,0,2.044,0,2.073,2.073,0,0,0,0,2.038,1.967,1.967,0,0,0,2,4.032Z" transform="translate(23.813 54.301) rotate(41.349)" fill="#eb5a92"/>
        <path id="Path_40599" data-name="Path 40599" d="M1.995,4.042A2.073,2.073,0,0,0,4.034,2,1.966,1.966,0,0,0,2.039,0,2.073,2.073,0,0,0,0,2.043,1.966,1.966,0,0,0,1.995,4.042Z" transform="matrix(0.676, 0.737, -0.737, 0.676, 2.977, 43.267)" fill="#eb5a92"/>
        <path id="Path_40600" data-name="Path 40600" d="M1.991,4.08A2.036,2.036,0,0,0,4,2.033,2,2,0,0,0,2,0,2.036,2.036,0,0,0,0,2.047,2,2,0,0,0,1.991,4.08Z" transform="translate(15.131 43.83) rotate(81.079)" fill="#eb5a92"/>
        <path id="Path_40601" data-name="Path 40601" d="M1.989,4.078A2.042,2.042,0,0,0,4,2.029,2,2,0,0,0,2.008,0,2.042,2.042,0,0,0,0,2.048,2,2,0,0,0,1.989,4.078Z" transform="matrix(0.218, 0.976, -0.976, 0.218, 25.553, 43.725)" fill="#eb5a92"/>
        <path id="Path_40602" data-name="Path 40602" d="M1.995,4.042A2.073,2.073,0,0,0,4.034,2,1.966,1.966,0,0,0,2.039,0,2.073,2.073,0,0,0,0,2.043,1.966,1.966,0,0,0,1.995,4.042Z" transform="matrix(0.676, 0.737, -0.737, 0.676, 2.977, 32.236)" fill="#eb5a92"/>
        <path id="Path_40603" data-name="Path 40603" d="M1.991,4.08A2.036,2.036,0,0,0,4,2.033,2,2,0,0,0,2,0,2.036,2.036,0,0,0,0,2.047,2,2,0,0,0,1.991,4.08Z" transform="translate(15.131 32.799) rotate(81.079)" fill="#eb5a92"/>
        <path id="Path_40604" data-name="Path 40604" d="M1.989,4.078A2.042,2.042,0,0,0,4,2.029,2,2,0,0,0,2.008,0,2.042,2.042,0,0,0,0,2.048,2,2,0,0,0,1.989,4.078Z" transform="matrix(0.218, 0.976, -0.976, 0.218, 25.553, 32.694)" fill="#eb5a92"/>
        <path id="Path_40605" data-name="Path 40605" d="M1.995,4.042A2.073,2.073,0,0,0,4.034,2,1.966,1.966,0,0,0,2.039,0,2.073,2.073,0,0,0,0,2.043,1.966,1.966,0,0,0,1.995,4.042Z" transform="matrix(0.676, 0.737, -0.737, 0.676, 2.977, 21.206)" fill="#eb5a92"/>
        <path id="Path_40606" data-name="Path 40606" d="M1.991,4.08A2.036,2.036,0,0,0,4,2.033,2,2,0,0,0,2,0,2.036,2.036,0,0,0,0,2.047,2,2,0,0,0,1.991,4.08Z" transform="translate(15.131 21.768) rotate(81.079)" fill="#eb5a92"/>
        <path id="Path_40607" data-name="Path 40607" d="M1.989,4.078A2.042,2.042,0,0,0,4,2.029,2,2,0,0,0,2.008,0,2.042,2.042,0,0,0,0,2.048,2,2,0,0,0,1.989,4.078Z" transform="matrix(0.218, 0.976, -0.976, 0.218, 25.553, 21.663)" fill="#eb5a92"/>
        <path id="Path_40608" data-name="Path 40608" d="M1.995,4.042A2.073,2.073,0,0,0,4.034,2,1.966,1.966,0,0,0,2.039,0,2.073,2.073,0,0,0,0,2.043,1.966,1.966,0,0,0,1.995,4.042Z" transform="matrix(0.676, 0.737, -0.737, 0.676, 2.977, 10.175)" fill="#eb5a92"/>
        <path id="Path_40609" data-name="Path 40609" d="M1.991,4.08A2.036,2.036,0,0,0,4,2.033,2,2,0,0,0,2,0,2.036,2.036,0,0,0,0,2.047,2,2,0,0,0,1.991,4.08Z" transform="translate(15.131 10.738) rotate(81.079)" fill="#eb5a92"/>
        <path id="Path_40610" data-name="Path 40610" d="M1.989,4.078A2.042,2.042,0,0,0,4,2.029,2,2,0,0,0,2.008,0,2.042,2.042,0,0,0,0,2.048,2,2,0,0,0,1.989,4.078Z" transform="matrix(0.218, 0.976, -0.976, 0.218, 25.553, 10.632)" fill="#eb5a92"/>
        <ellipse id="Ellipse_83" data-name="Ellipse 83" cx="2.041" cy="1.997" rx="2.041" ry="1.997" transform="translate(0.812 0)" fill="#eb5a92"/>
        <ellipse id="Ellipse_84" data-name="Ellipse 84" cx="2.041" cy="1.997" rx="2.041" ry="1.997" transform="translate(11.385 0)" fill="#eb5a92"/>
        <ellipse id="Ellipse_85" data-name="Ellipse 85" cx="2.041" cy="1.997" rx="2.041" ry="1.997" transform="translate(21.958 0)" fill="#eb5a92"/>
      </g>
      <g id="Group_2560" data-name="Group 2560" transform="translate(1.906 53.588)">
        <path id="Path_40611" data-name="Path 40611" d="M1.989,4.077A2.043,2.043,0,0,0,4,2.029,2,2,0,0,0,2.009,0,2.043,2.043,0,0,0,0,2.049,2,2,0,0,0,1.989,4.077Z" transform="matrix(0.229, 0.973, -0.973, 0.229, 4.382, 54.738)" fill="#eb5a92"/>
        <path id="Path_40612" data-name="Path 40612" d="M1.989,4.077A2.043,2.043,0,0,0,4,2.029,2,2,0,0,0,2.009,0,2.043,2.043,0,0,0,0,2.049,2,2,0,0,0,1.989,4.077Z" transform="matrix(0.229, 0.973, -0.973, 0.229, 14.955, 54.738)" fill="#eb5a92"/>
        <path id="Path_40613" data-name="Path 40613" d="M2.019,4.007a2.057,2.057,0,0,0,2.05-2.019A1.981,1.981,0,0,0,2.05,0,2.057,2.057,0,0,0,0,2.019,1.981,1.981,0,0,0,2.019,4.007Z" transform="translate(22.894 54.519) rotate(22.618)" fill="#eb5a92"/>
        <path id="Path_40614" data-name="Path 40614" d="M2,4.038A2.073,2.073,0,0,0,4.038,2a1.966,1.966,0,0,0-2-2A2.073,2.073,0,0,0,0,2.041,1.966,1.966,0,0,0,2,4.038Z" transform="translate(2.855 43.265) rotate(45)" fill="#eb5a92"/>
        <path id="Path_40615" data-name="Path 40615" d="M2,4.038A2.073,2.073,0,0,0,4.038,2a1.966,1.966,0,0,0-2-2A2.073,2.073,0,0,0,0,2.041,1.966,1.966,0,0,0,2,4.038Z" transform="translate(13.428 43.265) rotate(45)" fill="#eb5a92"/>
        <path id="Path_40616" data-name="Path 40616" d="M1.991,4.08A2.036,2.036,0,0,0,4,2.033,2,2,0,0,0,2,0,2.036,2.036,0,0,0,0,2.047,2,2,0,0,0,1.991,4.08Z" transform="translate(25.694 43.82) rotate(80.759)" fill="#eb5a92"/>
        <path id="Path_40617" data-name="Path 40617" d="M2,4.038A2.073,2.073,0,0,0,4.038,2a1.966,1.966,0,0,0-2-2A2.073,2.073,0,0,0,0,2.041,1.966,1.966,0,0,0,2,4.038Z" transform="translate(2.855 32.234) rotate(45)" fill="#eb5a92"/>
        <path id="Path_40618" data-name="Path 40618" d="M2,4.038A2.073,2.073,0,0,0,4.038,2a1.966,1.966,0,0,0-2-2A2.073,2.073,0,0,0,0,2.041,1.966,1.966,0,0,0,2,4.038Z" transform="translate(13.428 32.234) rotate(45)" fill="#eb5a92"/>
        <path id="Path_40619" data-name="Path 40619" d="M1.991,4.08A2.036,2.036,0,0,0,4,2.033,2,2,0,0,0,2,0,2.036,2.036,0,0,0,0,2.047,2,2,0,0,0,1.991,4.08Z" transform="translate(25.694 32.79) rotate(80.759)" fill="#eb5a92"/>
        <path id="Path_40620" data-name="Path 40620" d="M2,4.038A2.073,2.073,0,0,0,4.038,2a1.966,1.966,0,0,0-2-2A2.073,2.073,0,0,0,0,2.041,1.966,1.966,0,0,0,2,4.038Z" transform="translate(2.855 21.203) rotate(45)" fill="#eb5a92"/>
        <path id="Path_40621" data-name="Path 40621" d="M2,4.038A2.073,2.073,0,0,0,4.038,2a1.966,1.966,0,0,0-2-2A2.073,2.073,0,0,0,0,2.041,1.966,1.966,0,0,0,2,4.038Z" transform="translate(13.428 21.203) rotate(45)" fill="#eb5a92"/>
        <path id="Path_40622" data-name="Path 40622" d="M1.991,4.08A2.036,2.036,0,0,0,4,2.033,2,2,0,0,0,2,0,2.036,2.036,0,0,0,0,2.047,2,2,0,0,0,1.991,4.08Z" transform="translate(25.694 21.759) rotate(80.759)" fill="#eb5a92"/>
        <path id="Path_40623" data-name="Path 40623" d="M2,4.038A2.073,2.073,0,0,0,4.038,2a1.966,1.966,0,0,0-2-2A2.073,2.073,0,0,0,0,2.041,1.966,1.966,0,0,0,2,4.038Z" transform="translate(2.855 10.172) rotate(45)" fill="#eb5a92"/>
        <path id="Path_40624" data-name="Path 40624" d="M2,4.038A2.073,2.073,0,0,0,4.038,2a1.966,1.966,0,0,0-2-2A2.073,2.073,0,0,0,0,2.041,1.966,1.966,0,0,0,2,4.038Z" transform="translate(13.428 10.172) rotate(45)" fill="#eb5a92"/>
        <path id="Path_40625" data-name="Path 40625" d="M1.991,4.08A2.036,2.036,0,0,0,4,2.033,2,2,0,0,0,2,0,2.036,2.036,0,0,0,0,2.047,2,2,0,0,0,1.991,4.08Z" transform="translate(25.694 10.728) rotate(80.759)" fill="#eb5a92"/>
        <ellipse id="Ellipse_101" data-name="Ellipse 101" cx="2.041" cy="1.997" rx="2.041" ry="1.997" transform="translate(0.814 0)" fill="#eb5a92"/>
        <ellipse id="Ellipse_102" data-name="Ellipse 102" cx="2.041" cy="1.997" rx="2.041" ry="1.997" transform="translate(11.387 0)" fill="#eb5a92"/>
        <ellipse id="Ellipse_103" data-name="Ellipse 103" cx="2.041" cy="1.997" rx="2.041" ry="1.997" transform="translate(21.96 0)" fill="#eb5a92"/>
      </g>
      <g id="Group_2561" data-name="Group 2561" transform="translate(33.852 -11.995)">
        <path id="Path_40626" data-name="Path 40626" d="M2,4.038A2.073,2.073,0,0,0,4.038,2a1.966,1.966,0,0,0-2-2A2.073,2.073,0,0,0,0,2.041,1.966,1.966,0,0,0,2,4.038Z" transform="translate(2.855 54.711) rotate(45)" fill="#eb5a92"/>
        <path id="Path_40627" data-name="Path 40627" d="M2,4.038A2.073,2.073,0,0,0,4.038,2a1.966,1.966,0,0,0-2-2A2.073,2.073,0,0,0,0,2.041,1.966,1.966,0,0,0,2,4.038Z" transform="translate(13.428 54.711) rotate(45)" fill="#eb5a92"/>
        <path id="Path_40628" data-name="Path 40628" d="M2,4.038A2.073,2.073,0,0,0,4.038,2a1.966,1.966,0,0,0-2-2A2.073,2.073,0,0,0,0,2.041,1.966,1.966,0,0,0,2,4.038Z" transform="translate(24.001 54.711) rotate(45)" fill="#eb5a92"/>
        <path id="Path_40629" data-name="Path 40629" d="M2,4.038A2.073,2.073,0,0,0,4.038,2a1.966,1.966,0,0,0-2-2A2.073,2.073,0,0,0,0,2.041,1.966,1.966,0,0,0,2,4.038Z" transform="translate(2.855 43.681) rotate(45)" fill="#eb5a92"/>
        <path id="Path_40630" data-name="Path 40630" d="M2,4.038A2.073,2.073,0,0,0,4.038,2a1.966,1.966,0,0,0-2-2A2.073,2.073,0,0,0,0,2.041,1.966,1.966,0,0,0,2,4.038Z" transform="translate(13.428 43.681) rotate(45)" fill="#eb5a92"/>
        <path id="Path_40631" data-name="Path 40631" d="M2,4.038A2.073,2.073,0,0,0,4.038,2a1.966,1.966,0,0,0-2-2A2.073,2.073,0,0,0,0,2.041,1.966,1.966,0,0,0,2,4.038Z" transform="translate(24.001 43.681) rotate(45)" fill="#eb5a92"/>
        <ellipse id="Ellipse_110" data-name="Ellipse 110" cx="2.041" cy="1.997" rx="2.041" ry="1.997" transform="translate(0.814 33.508)" fill="#eb5a92"/>
        <ellipse id="Ellipse_111" data-name="Ellipse 111" cx="2.041" cy="1.997" rx="2.041" ry="1.997" transform="translate(11.387 33.508)" fill="#eb5a92"/>
        <ellipse id="Ellipse_112" data-name="Ellipse 112" cx="2.041" cy="1.997" rx="2.041" ry="1.997" transform="translate(21.96 33.508)" fill="#eb5a92"/>
        <ellipse id="Ellipse_113" data-name="Ellipse 113" cx="2.041" cy="1.997" rx="2.041" ry="1.997" transform="translate(0.814 22.478)" fill="#eb5a92"/>
        <ellipse id="Ellipse_114" data-name="Ellipse 114" cx="2.041" cy="1.997" rx="2.041" ry="1.997" transform="translate(11.387 22.478)" fill="#eb5a92"/>
        <ellipse id="Ellipse_115" data-name="Ellipse 115" cx="2.041" cy="1.997" rx="2.041" ry="1.997" transform="translate(21.96 22.478)" fill="#eb5a92"/>
        <path id="Path_40632" data-name="Path 40632" d="M1.989,4.077A2.043,2.043,0,0,0,4,2.029,2,2,0,0,0,2.009,0,2.043,2.043,0,0,0,0,2.049,2,2,0,0,0,1.989,4.077Z" transform="matrix(0.229, 0.973, -0.973, 0.229, 4.382, 11.031)" fill="#eb5a92"/>
        <path id="Path_40633" data-name="Path 40633" d="M1.989,4.077A2.043,2.043,0,0,0,4,2.029,2,2,0,0,0,2.009,0,2.043,2.043,0,0,0,0,2.049,2,2,0,0,0,1.989,4.077Z" transform="matrix(0.229, 0.973, -0.973, 0.229, 14.955, 11.031)" fill="#eb5a92"/>
        <path id="Path_40634" data-name="Path 40634" d="M1.989,4.077A2.043,2.043,0,0,0,4,2.029,2,2,0,0,0,2.009,0,2.043,2.043,0,0,0,0,2.049,2,2,0,0,0,1.989,4.077Z" transform="matrix(0.229, 0.973, -0.973, 0.229, 25.528, 11.031)" fill="#eb5a92"/>
        <path id="Path_40635" data-name="Path 40635" d="M1.989,4.077A2.043,2.043,0,0,0,4,2.029,2,2,0,0,0,2.009,0,2.043,2.043,0,0,0,0,2.049,2,2,0,0,0,1.989,4.077Z" transform="matrix(0.229, 0.973, -0.973, 0.229, 4.382, 0)" fill="#eb5a92"/>
        <path id="Path_40636" data-name="Path 40636" d="M1.989,4.077A2.043,2.043,0,0,0,4,2.029,2,2,0,0,0,2.009,0,2.043,2.043,0,0,0,0,2.049,2,2,0,0,0,1.989,4.077Z" transform="matrix(0.229, 0.973, -0.973, 0.229, 14.955, 0)" fill="#eb5a92"/>
        <path id="Path_40637" data-name="Path 40637" d="M1.989,4.077A2.043,2.043,0,0,0,4,2.029,2,2,0,0,0,2.009,0,2.043,2.043,0,0,0,0,2.049,2,2,0,0,0,1.989,4.077Z" transform="matrix(0.229, 0.973, -0.973, 0.229, 25.528, 0)" fill="#eb5a92"/>
      </g>
      <g id="Group_2562" data-name="Group 2562" transform="translate(65.856 -12.376)">
        <path id="Path_40638" data-name="Path 40638" d="M1.988,4.075A2.048,2.048,0,0,0,4,2.026,1.991,1.991,0,0,0,2.012,0,2.048,2.048,0,0,0,0,2.049,1.991,1.991,0,0,0,1.988,4.075Z" transform="translate(4.194 55.456) rotate(73.731)" fill="#eb5a92"/>
        <path id="Path_40639" data-name="Path 40639" d="M2.008,4.019a2.068,2.068,0,0,0,2.048-2.03A1.971,1.971,0,0,0,2.048,0,2.068,2.068,0,0,0,0,2.03,1.971,1.971,0,0,0,2.008,4.019Z" transform="matrix(0.843, 0.538, -0.538, 0.843, 12.743, 55.162)" fill="#eb5a92"/>
        <path id="Path_40640" data-name="Path 40640" d="M2.009,4.018A2.068,2.068,0,0,0,4.057,1.989,1.972,1.972,0,0,0,2.049,0,2.068,2.068,0,0,0,0,2.029,1.972,1.972,0,0,0,2.009,4.018Z" transform="translate(23.279 55.171) rotate(31.796)" fill="#eb5a92"/>
        <path id="Path_40641" data-name="Path 40641" d="M1.988,4.075A2.048,2.048,0,0,0,4,2.026,1.991,1.991,0,0,0,2.012,0,2.048,2.048,0,0,0,0,2.049,1.991,1.991,0,0,0,1.988,4.075Z" transform="translate(4.194 44.426) rotate(73.731)" fill="#eb5a92"/>
        <path id="Path_40642" data-name="Path 40642" d="M2.008,4.019a2.068,2.068,0,0,0,2.048-2.03A1.971,1.971,0,0,0,2.048,0,2.068,2.068,0,0,0,0,2.03,1.971,1.971,0,0,0,2.008,4.019Z" transform="matrix(0.843, 0.538, -0.538, 0.843, 12.743, 44.131)" fill="#eb5a92"/>
        <path id="Path_40643" data-name="Path 40643" d="M2.009,4.018A2.068,2.068,0,0,0,4.057,1.989,1.972,1.972,0,0,0,2.049,0,2.068,2.068,0,0,0,0,2.029,1.972,1.972,0,0,0,2.009,4.018Z" transform="translate(23.279 44.14) rotate(31.796)" fill="#eb5a92"/>
        <ellipse id="Ellipse_128" data-name="Ellipse 128" cx="2.041" cy="1.997" rx="2.041" ry="1.997" transform="translate(0.757 33.889)" fill="#eb5a92"/>
        <ellipse id="Ellipse_129" data-name="Ellipse 129" cx="2.041" cy="1.997" rx="2.041" ry="1.997" transform="translate(11.331 33.889)" fill="#eb5a92"/>
        <ellipse id="Ellipse_130" data-name="Ellipse 130" cx="2.041" cy="1.997" rx="2.041" ry="1.997" transform="translate(21.904 33.889)" fill="#eb5a92"/>
        <ellipse id="Ellipse_131" data-name="Ellipse 131" cx="2.041" cy="1.997" rx="2.041" ry="1.997" transform="translate(0.757 22.858)" fill="#eb5a92"/>
        <ellipse id="Ellipse_132" data-name="Ellipse 132" cx="2.041" cy="1.997" rx="2.041" ry="1.997" transform="translate(11.331 22.858)" fill="#eb5a92"/>
        <ellipse id="Ellipse_133" data-name="Ellipse 133" cx="2.041" cy="1.997" rx="2.041" ry="1.997" transform="translate(21.904 22.858)" fill="#eb5a92"/>
        <path id="Path_40644" data-name="Path 40644" d="M1.99,4.055A2.069,2.069,0,0,0,4.02,2.007,1.97,1.97,0,0,0,2.03,0,2.069,2.069,0,0,0,0,2.048,1.97,1.97,0,0,0,1.99,4.055Z" transform="translate(3.389 11.031) rotate(56.697)" fill="#eb5a92"/>
        <path id="Path_40645" data-name="Path 40645" d="M1.99,4.079A2.039,2.039,0,0,0,4,2.031,2,2,0,0,0,2.007,0,2.039,2.039,0,0,0,0,2.048,2,2,0,0,0,1.99,4.079Z" transform="translate(14.99 11.472) rotate(78.958)" fill="#eb5a92"/>
        <path id="Path_40646" data-name="Path 40646" d="M1.99,4.079A2.039,2.039,0,0,0,4,2.031,2,2,0,0,0,2.007,0,2.039,2.039,0,0,0,0,2.048,2,2,0,0,0,1.99,4.079Z" transform="translate(25.569 11.476) rotate(79.086)" fill="#eb5a92"/>
        <path id="Path_40647" data-name="Path 40647" d="M1.99,4.055A2.069,2.069,0,0,0,4.02,2.007,1.97,1.97,0,0,0,2.03,0,2.069,2.069,0,0,0,0,2.048,1.97,1.97,0,0,0,1.99,4.055Z" transform="translate(3.389 0) rotate(56.697)" fill="#eb5a92"/>
        <path id="Path_40648" data-name="Path 40648" d="M1.99,4.079A2.039,2.039,0,0,0,4,2.031,2,2,0,0,0,2.007,0,2.039,2.039,0,0,0,0,2.048,2,2,0,0,0,1.99,4.079Z" transform="translate(14.99 0.441) rotate(78.958)" fill="#eb5a92"/>
        <path id="Path_40649" data-name="Path 40649" d="M1.99,4.079A2.039,2.039,0,0,0,4,2.031,2,2,0,0,0,2.007,0,2.039,2.039,0,0,0,0,2.048,2,2,0,0,0,1.99,4.079Z" transform="translate(25.569 0.445) rotate(79.086)" fill="#eb5a92"/>
      </g>
      <g id="Group_2563" data-name="Group 2563" transform="translate(33.852 52.53)">
        <path id="Path_40650" data-name="Path 40650" d="M2,4.038A2.073,2.073,0,0,0,4.038,2a1.966,1.966,0,0,0-2-2A2.073,2.073,0,0,0,0,2.041,1.966,1.966,0,0,0,2,4.038Z" transform="translate(2.855 54.711) rotate(45)" fill="#eb5a92"/>
        <path id="Path_40651" data-name="Path 40651" d="M2,4.038A2.073,2.073,0,0,0,4.038,2a1.966,1.966,0,0,0-2-2A2.073,2.073,0,0,0,0,2.041,1.966,1.966,0,0,0,2,4.038Z" transform="translate(13.428 54.711) rotate(45)" fill="#eb5a92"/>
        <path id="Path_40652" data-name="Path 40652" d="M2,4.038A2.073,2.073,0,0,0,4.038,2a1.966,1.966,0,0,0-2-2A2.073,2.073,0,0,0,0,2.041,1.966,1.966,0,0,0,2,4.038Z" transform="translate(24.001 54.711) rotate(45)" fill="#eb5a92"/>
        <ellipse id="Ellipse_143" data-name="Ellipse 143" cx="2.041" cy="1.997" rx="2.041" ry="1.997" transform="translate(0.814 44.539)" fill="#eb5a92"/>
        <ellipse id="Ellipse_144" data-name="Ellipse 144" cx="2.041" cy="1.997" rx="2.041" ry="1.997" transform="translate(11.387 44.539)" fill="#eb5a92"/>
        <ellipse id="Ellipse_145" data-name="Ellipse 145" cx="2.041" cy="1.997" rx="2.041" ry="1.997" transform="translate(21.96 44.539)" fill="#eb5a92"/>
        <ellipse id="Ellipse_146" data-name="Ellipse 146" cx="2.041" cy="1.997" rx="2.041" ry="1.997" transform="translate(0.814 33.508)" fill="#eb5a92"/>
        <ellipse id="Ellipse_147" data-name="Ellipse 147" cx="2.041" cy="1.997" rx="2.041" ry="1.997" transform="translate(11.387 33.508)" fill="#eb5a92"/>
        <ellipse id="Ellipse_148" data-name="Ellipse 148" cx="2.041" cy="1.997" rx="2.041" ry="1.997" transform="translate(21.96 33.508)" fill="#eb5a92"/>
        <path id="Path_40653" data-name="Path 40653" d="M1.989,4.077A2.043,2.043,0,0,0,4,2.029,2,2,0,0,0,2.009,0,2.043,2.043,0,0,0,0,2.049,2,2,0,0,0,1.989,4.077Z" transform="matrix(0.229, 0.973, -0.973, 0.229, 4.382, 22.062)" fill="#eb5a92"/>
        <path id="Path_40654" data-name="Path 40654" d="M1.989,4.077A2.043,2.043,0,0,0,4,2.029,2,2,0,0,0,2.009,0,2.043,2.043,0,0,0,0,2.049,2,2,0,0,0,1.989,4.077Z" transform="matrix(0.229, 0.973, -0.973, 0.229, 14.955, 22.062)" fill="#eb5a92"/>
        <path id="Path_40655" data-name="Path 40655" d="M1.989,4.077A2.043,2.043,0,0,0,4,2.029,2,2,0,0,0,2.009,0,2.043,2.043,0,0,0,0,2.049,2,2,0,0,0,1.989,4.077Z" transform="matrix(0.229, 0.973, -0.973, 0.229, 25.528, 22.062)" fill="#eb5a92"/>
        <path id="Path_40656" data-name="Path 40656" d="M1.989,4.077A2.043,2.043,0,0,0,4,2.029,2,2,0,0,0,2.009,0,2.043,2.043,0,0,0,0,2.049,2,2,0,0,0,1.989,4.077Z" transform="matrix(0.229, 0.973, -0.973, 0.229, 4.382, 11.031)" fill="#eb5a92"/>
        <path id="Path_40657" data-name="Path 40657" d="M1.989,4.077A2.043,2.043,0,0,0,4,2.029,2,2,0,0,0,2.009,0,2.043,2.043,0,0,0,0,2.049,2,2,0,0,0,1.989,4.077Z" transform="matrix(0.229, 0.973, -0.973, 0.229, 14.955, 11.031)" fill="#eb5a92"/>
        <path id="Path_40658" data-name="Path 40658" d="M1.989,4.077A2.043,2.043,0,0,0,4,2.029,2,2,0,0,0,2.009,0,2.043,2.043,0,0,0,0,2.049,2,2,0,0,0,1.989,4.077Z" transform="matrix(0.229, 0.973, -0.973, 0.229, 25.528, 11.031)" fill="#eb5a92"/>
        <path id="Path_40659" data-name="Path 40659" d="M1.989,4.077A2.043,2.043,0,0,0,4,2.029,2,2,0,0,0,2.009,0,2.043,2.043,0,0,0,0,2.049,2,2,0,0,0,1.989,4.077Z" transform="matrix(0.229, 0.973, -0.973, 0.229, 4.382, 0)" fill="#eb5a92"/>
        <path id="Path_40660" data-name="Path 40660" d="M1.989,4.077A2.043,2.043,0,0,0,4,2.029,2,2,0,0,0,2.009,0,2.043,2.043,0,0,0,0,2.049,2,2,0,0,0,1.989,4.077Z" transform="matrix(0.229, 0.973, -0.973, 0.229, 14.955, 0)" fill="#eb5a92"/>
        <path id="Path_40661" data-name="Path 40661" d="M1.989,4.077A2.043,2.043,0,0,0,4,2.029,2,2,0,0,0,2.009,0,2.043,2.043,0,0,0,0,2.049,2,2,0,0,0,1.989,4.077Z" transform="matrix(0.229, 0.973, -0.973, 0.229, 25.528, 0)" fill="#eb5a92"/>
      </g>
      <g id="Group_2564" data-name="Group 2564" transform="translate(65.856 52.15)">
        <path id="Path_40662" data-name="Path 40662" d="M1.988,4.075A2.048,2.048,0,0,0,4,2.026,1.991,1.991,0,0,0,2.012,0,2.048,2.048,0,0,0,0,2.049,1.991,1.991,0,0,0,1.988,4.075Z" transform="translate(4.194 55.456) rotate(73.731)" fill="#eb5a92"/>
        <path id="Path_40663" data-name="Path 40663" d="M2.008,4.019a2.068,2.068,0,0,0,2.048-2.03A1.971,1.971,0,0,0,2.048,0,2.068,2.068,0,0,0,0,2.03,1.971,1.971,0,0,0,2.008,4.019Z" transform="matrix(0.843, 0.538, -0.538, 0.843, 12.743, 55.162)" fill="#eb5a92"/>
        <path id="Path_40664" data-name="Path 40664" d="M2.009,4.018A2.068,2.068,0,0,0,4.057,1.989,1.972,1.972,0,0,0,2.049,0,2.068,2.068,0,0,0,0,2.029,1.972,1.972,0,0,0,2.009,4.018Z" transform="translate(23.279 55.171) rotate(31.796)" fill="#eb5a92"/>
        <ellipse id="Ellipse_161" data-name="Ellipse 161" cx="2.041" cy="1.997" rx="2.041" ry="1.997" transform="translate(0.757 44.92)" fill="#eb5a92"/>
        <ellipse id="Ellipse_162" data-name="Ellipse 162" cx="2.041" cy="1.997" rx="2.041" ry="1.997" transform="translate(11.331 44.92)" fill="#eb5a92"/>
        <ellipse id="Ellipse_163" data-name="Ellipse 163" cx="2.041" cy="1.997" rx="2.041" ry="1.997" transform="translate(21.904 44.92)" fill="#eb5a92"/>
        <ellipse id="Ellipse_164" data-name="Ellipse 164" cx="2.041" cy="1.997" rx="2.041" ry="1.997" transform="translate(0.757 33.889)" fill="#eb5a92"/>
        <ellipse id="Ellipse_165" data-name="Ellipse 165" cx="2.041" cy="1.997" rx="2.041" ry="1.997" transform="translate(11.331 33.889)" fill="#eb5a92"/>
        <ellipse id="Ellipse_166" data-name="Ellipse 166" cx="2.041" cy="1.997" rx="2.041" ry="1.997" transform="translate(21.904 33.889)" fill="#eb5a92"/>
        <path id="Path_40665" data-name="Path 40665" d="M1.99,4.055A2.069,2.069,0,0,0,4.02,2.007,1.97,1.97,0,0,0,2.03,0,2.069,2.069,0,0,0,0,2.048,1.97,1.97,0,0,0,1.99,4.055Z" transform="translate(3.389 22.062) rotate(56.697)" fill="#eb5a92"/>
        <path id="Path_40666" data-name="Path 40666" d="M1.99,4.079A2.039,2.039,0,0,0,4,2.031,2,2,0,0,0,2.007,0,2.039,2.039,0,0,0,0,2.048,2,2,0,0,0,1.99,4.079Z" transform="translate(14.99 22.503) rotate(78.958)" fill="#eb5a92"/>
        <path id="Path_40667" data-name="Path 40667" d="M1.99,4.079A2.039,2.039,0,0,0,4,2.031,2,2,0,0,0,2.007,0,2.039,2.039,0,0,0,0,2.048,2,2,0,0,0,1.99,4.079Z" transform="translate(25.569 22.507) rotate(79.086)" fill="#eb5a92"/>
        <path id="Path_40668" data-name="Path 40668" d="M1.99,4.055A2.069,2.069,0,0,0,4.02,2.007,1.97,1.97,0,0,0,2.03,0,2.069,2.069,0,0,0,0,2.048,1.97,1.97,0,0,0,1.99,4.055Z" transform="translate(3.389 11.031) rotate(56.697)" fill="#eb5a92"/>
        <path id="Path_40669" data-name="Path 40669" d="M1.99,4.079A2.039,2.039,0,0,0,4,2.031,2,2,0,0,0,2.007,0,2.039,2.039,0,0,0,0,2.048,2,2,0,0,0,1.99,4.079Z" transform="translate(14.99 11.472) rotate(78.958)" fill="#eb5a92"/>
        <path id="Path_40670" data-name="Path 40670" d="M1.99,4.079A2.039,2.039,0,0,0,4,2.031,2,2,0,0,0,2.007,0,2.039,2.039,0,0,0,0,2.048,2,2,0,0,0,1.99,4.079Z" transform="translate(25.569 11.476) rotate(79.086)" fill="#eb5a92"/>
        <path id="Path_40671" data-name="Path 40671" d="M1.99,4.055A2.069,2.069,0,0,0,4.02,2.007,1.97,1.97,0,0,0,2.03,0,2.069,2.069,0,0,0,0,2.048,1.97,1.97,0,0,0,1.99,4.055Z" transform="translate(3.389 0) rotate(56.697)" fill="#eb5a92"/>
        <path id="Path_40672" data-name="Path 40672" d="M1.99,4.079A2.039,2.039,0,0,0,4,2.031,2,2,0,0,0,2.007,0,2.039,2.039,0,0,0,0,2.048,2,2,0,0,0,1.99,4.079Z" transform="translate(14.99 0.441) rotate(78.958)" fill="#eb5a92"/>
        <path id="Path_40673" data-name="Path 40673" d="M1.99,4.079A2.039,2.039,0,0,0,4,2.031,2,2,0,0,0,2.007,0,2.039,2.039,0,0,0,0,2.048,2,2,0,0,0,1.99,4.079Z" transform="translate(25.569 0.445) rotate(79.086)" fill="#eb5a92"/>
      </g>
    </g>
  </g>
</svg>
