<svg xmlns="http://www.w3.org/2000/svg" width="90.177" height="38.314" viewBox="0 0 90.177 38.314">
  <g id="Group_21868" data-name="Group 21868" transform="translate(0 0)" opacity="0.266">
    <ellipse id="Ellipse_2" data-name="Ellipse 2" cx="3.014" cy="2.949" rx="3.014" ry="2.949" transform="translate(0 0.934)" fill="#eb5a92"/>
    <ellipse id="Ellipse_3" data-name="Ellipse 3" cx="3.014" cy="2.949" rx="3.014" ry="2.949" transform="translate(0 16.209)" fill="#eb5a92"/>
    <ellipse id="Ellipse_4" data-name="Ellipse 4" cx="3.014" cy="2.949" rx="3.014" ry="2.949" transform="translate(0 31.483)" fill="#eb5a92"/>
    <ellipse id="Ellipse_5" data-name="Ellipse 5" cx="3.014" cy="2.949" rx="3.014" ry="2.949" transform="translate(16.651 0.934)" fill="#eb5a92"/>
    <ellipse id="Ellipse_6" data-name="Ellipse 6" cx="3.014" cy="2.949" rx="3.014" ry="2.949" transform="translate(16.651 16.209)" fill="#eb5a92"/>
    <ellipse id="Ellipse_7" data-name="Ellipse 7" cx="3.014" cy="2.949" rx="3.014" ry="2.949" transform="translate(16.651 31.483)" fill="#eb5a92"/>
    <path id="Path_40554" data-name="Path 40554" d="M2.94,6.025A3.007,3.007,0,0,0,5.9,3a2.957,2.957,0,0,0-2.94-3A3.007,3.007,0,0,0,0,3.023,2.957,2.957,0,0,0,2.94,6.025Z" transform="translate(38.817 0.488) rotate(80.783)" fill="#eb5a92"/>
    <path id="Path_40555" data-name="Path 40555" d="M2.94,6.025A3.007,3.007,0,0,0,5.9,3a2.957,2.957,0,0,0-2.94-3A3.007,3.007,0,0,0,0,3.023,2.957,2.957,0,0,0,2.94,6.025Z" transform="translate(38.817 15.762) rotate(80.783)" fill="#eb5a92"/>
    <path id="Path_40556" data-name="Path 40556" d="M2.94,6.025A3.007,3.007,0,0,0,5.9,3a2.957,2.957,0,0,0-2.94-3A3.007,3.007,0,0,0,0,3.023,2.957,2.957,0,0,0,2.94,6.025Z" transform="translate(38.817 31.037) rotate(80.783)" fill="#eb5a92"/>
    <ellipse id="Ellipse_11" data-name="Ellipse 11" cx="3.014" cy="2.949" rx="3.014" ry="2.949" transform="translate(49.953 0.934)" fill="#eb5a92"/>
    <ellipse id="Ellipse_12" data-name="Ellipse 12" cx="3.014" cy="2.949" rx="3.014" ry="2.949" transform="translate(49.953 16.209)" fill="#eb5a92"/>
    <ellipse id="Ellipse_13" data-name="Ellipse 13" cx="3.014" cy="2.949" rx="3.014" ry="2.949" transform="translate(49.953 31.483)" fill="#eb5a92"/>
    <ellipse id="Ellipse_14" data-name="Ellipse 14" cx="3.014" cy="2.949" rx="3.014" ry="2.949" transform="translate(66.604 0.934)" fill="#eb5a92"/>
    <ellipse id="Ellipse_15" data-name="Ellipse 15" cx="3.014" cy="2.949" rx="3.014" ry="2.949" transform="translate(66.604 16.209)" fill="#eb5a92"/>
    <ellipse id="Ellipse_16" data-name="Ellipse 16" cx="3.014" cy="2.949" rx="3.014" ry="2.949" transform="translate(66.604 31.483)" fill="#eb5a92"/>
    <path id="Path_40557" data-name="Path 40557" d="M2.981,5.916A3.038,3.038,0,0,0,6.009,2.935,2.926,2.926,0,0,0,3.028,0,3.038,3.038,0,0,0,0,2.981,2.926,2.926,0,0,0,2.981,5.916Z" transform="translate(84.625 0) rotate(22.5)" fill="#eb5a92"/>
    <path id="Path_40558" data-name="Path 40558" d="M2.981,5.916A3.038,3.038,0,0,0,6.009,2.935,2.926,2.926,0,0,0,3.028,0,3.038,3.038,0,0,0,0,2.981,2.926,2.926,0,0,0,2.981,5.916Z" transform="translate(84.625 15.274) rotate(22.5)" fill="#eb5a92"/>
    <path id="Path_40559" data-name="Path 40559" d="M2.981,5.916A3.038,3.038,0,0,0,6.009,2.935,2.926,2.926,0,0,0,3.028,0,3.038,3.038,0,0,0,0,2.981,2.926,2.926,0,0,0,2.981,5.916Z" transform="translate(84.625 30.549) rotate(22.5)" fill="#eb5a92"/>
  </g>
</svg>
