<svg xmlns="http://www.w3.org/2000/svg" xmlns:xlink="http://www.w3.org/1999/xlink" width="157.271" height="229.042" viewBox="0 0 157.271 229.042">
  <defs>
    <clipPath id="clip-path">
      <rect id="Rectangle_17202" data-name="Rectangle 17202" width="157.271" height="229.042" rx="6" transform="translate(0 0)" fill="#ecfbff"/>
    </clipPath>
  </defs>
  <g id="Mask_Group_257" data-name="Mask Group 257" clip-path="url(#clip-path)">
    <g id="Group_44605" data-name="Group 44605" transform="translate(7.814 19.208)">
      <g id="Group_44601" data-name="Group 44601" transform="translate(0 0)">
        <path id="Path_105369" data-name="Path 105369" d="M1924.38,676.766s2.753-2.483,3.424-4.223.593-4.664.593-6.56a.766.766,0,0,0-1.033.613c-.2.9-.574,3-1.338,3.417s-2.476.372-2.871,2.53A6.065,6.065,0,0,0,1924.38,676.766Z" transform="translate(-1892.845 -657.585)" fill="#f9b587"/>
        <path id="Path_105370" data-name="Path 105370" d="M1900.6,681.03s-2.5-5.124-2-6.793,8.2-3.5,9.211-2.711,0,10.362,0,10.362Z" transform="translate(-1875.36 -661.43)" fill="#f9b587"/>
        <path id="Path_105371" data-name="Path 105371" d="M2186.52,1235.71s-.368,4.231,1.1,6.254,2.269,3.862,2.759,2.943-.8-4.108-.368-4.047,1.62,3.8,2.22,4.966,1.888,3,2.746,2.085-.8-9.626-1.472-10.73-2.085-3.556-2.085-3.556Z" transform="translate(-2080.352 -1061.726)" fill="#f9b587"/>
        <g id="Group_44600" data-name="Group 44600">
          <path id="Path_105372" data-name="Path 105372" d="M1820.151,659.64a38.121,38.121,0,0,1-1.484-4.286,15.972,15.972,0,0,1-.555-3.015,4.779,4.779,0,0,1,.087-1.394s24.373-5.035,26.764-6.007,23.356-8,23.356-8a30.374,30.374,0,0,1,1.383,3.447c.244.741.485,1.561.674,2.4a12.606,12.606,0,0,1,.3,4.639s-24.7,2.933-27.252,4.159S1820.151,659.64,1820.151,659.64Z" transform="translate(-1818.099 -636.943)" fill="#efcbab"/>
          <path id="Path_105373" data-name="Path 105373" d="M1818.667,655.354a15.972,15.972,0,0,1-.555-3.015,4.779,4.779,0,0,1,.087-1.394s24.373-5.035,26.764-6.007,23.356-8,23.356-8a30.374,30.374,0,0,1,1.383,3.447c.244.741.485,1.561.674,2.4-6.954.852-25.816,3.255-28.16,4.376C1839.938,648.262,1824.884,653.293,1818.667,655.354Z" transform="translate(-1818.099 -636.943)" fill="#ddb08e"/>
          <path id="Path_105374" data-name="Path 105374" d="M1903.811,659.56s-6.505.63-8.862,2.719l1.378,6.136s5.977-.607,8.981-2.188Z" transform="translate(-1872.809 -653.044)" fill="#f39568"/>
        </g>
        <path id="Path_105375" data-name="Path 105375" d="M1946.223,1615.507s0-3.914.558-5.216,2.6-6.6,2.6-6.6h7.995a49.081,49.081,0,0,1,1.58,6.415c.093,1.58,0,5.4,0,5.4Z" transform="translate(-1909.312 -1325.178)" fill="#233862"/>
        <path id="Path_105376" data-name="Path 105376" d="M2090.853,1615.507s0-3.914-.558-5.216-2.6-6.6-2.6-6.6h-8a48.942,48.942,0,0,0-1.58,6.415c-.093,1.58,0,5.4,0,5.4Z" transform="translate(-2003.179 -1325.178)" fill="#233862"/>
        <path id="Path_105377" data-name="Path 105377" d="M1945.738,1174.148c-.026-1.065,1.392,42.407-.693,67.087-2.058,24.375.015,58.29.015,58.29a15.819,15.819,0,0,0,13.941,0s7.952-47.085,7.9-58.29c-.054-11.933,8.655-65.225,8.655-65.225Z" transform="translate(-1907.825 -1019.37)" fill="#252732"/>
        <path id="Path_105378" data-name="Path 105378" d="M2046.062,1299.393a15.808,15.808,0,0,1-13.939,0s-7.952-47.083-7.9-58.29c.022-5.04-1.517-17.459-3.3-30.121-2.447-17.322-5.352-35.1-5.352-35.1l30.977-1.935s-2.555,42.788-.464,67.158S2046.062,1299.393,2046.062,1299.393Z" transform="translate(-1958.677 -1019.239)" fill="#252732"/>
        <path id="Path_105379" data-name="Path 105379" d="M2037.96,929.073l-9.15-3.964s-4.731,37.624,1.584,39.954c0,0,18.021-32.005,16.795-36.113Z" transform="translate(-1966.894 -842.091)" fill="#fff"/>
        <path id="Path_105380" data-name="Path 105380" d="M2034.977,916.83a8.913,8.913,0,0,0-3.928,1.73s1.962,6.377,7.173,8.277l2.237-3.658A11.13,11.13,0,0,1,2034.977,916.83Z" transform="translate(-1969.699 -836.197)" fill="#d2e3fc"/>
        <path id="Path_105381" data-name="Path 105381" d="M2063.713,927.909s8.524-.328,9.8-4.435a6.939,6.939,0,0,1,1.641,4.66s-2.7,4.073-9.443,4.121Z" transform="translate(-1992.954 -840.927)" fill="#d2e3fc"/>
        <path id="Path_105382" data-name="Path 105382" d="M1916.794,739.285c-4.114,2.592-9.732,6.106-14.319,8.883a16.856,16.856,0,0,1-.488-2.093c-1.519-9.7.689-43.372.689-43.372a9.751,9.751,0,0,1,3.107-.9,4.2,4.2,0,0,1,4.107,1.759S1915.091,733.185,1916.794,739.285Z" transform="translate(-1877.44 -683.102)" fill="#f9b587"/>
        <path id="Path_105383" data-name="Path 105383" d="M1980.867,944.07l-3.1,1.29a9.1,9.1,0,0,1-11.938-5.628c-2.185-6.754-2.411-14.028-3.219-20.015-.4-2.943-.859-9.013-2.643-13.743a.01.01,0,0,1,0-.006l3.118,104.671c-46.715,3.309-69.507-23.543-69.507-23.543-1.207-28.336,10.116-92.186,14.243-114.314-1.993-4.495-16.121-17.4-18.485-30.069-1.1-5.883,2.34-10.045,6.513-12.854a38.42,38.42,0,0,1,11.671-4.937l15.1,20.184a9.37,9.37,0,0,1,1.269,1.656c1.166,2.372,7.212,6.308,7.212,6.308-.018.125.651,34.028,1.882,35.11,1.778-.675,13.692-24.524,16.323-32.473a88.471,88.471,0,0,1,12.205,4.361s8.175,4.364,9.334,23.386c.981,16.13,10.839,36.719,13.074,55.426A4.982,4.982,0,0,1,1980.867,944.07Z" transform="translate(-1868.662 -770.767)" fill="#31a5c4"/>
        <path id="Path_105384" data-name="Path 105384" d="M2028.929,918.572s1.1,32.874,2.512,41.1l20.965-36.225-2.89-1.07-16.569,30.02-1.635-32.659Z" transform="translate(-1968.191 -837.437)" fill="#252732"/>
        <path id="Path_105385" data-name="Path 105385" d="M2034.977,914.134a8.911,8.911,0,0,0-3.928,1.731s1.962,6.376,7.173,8.277l2.237-2.882S2036.206,918.473,2034.977,914.134Z" transform="translate(-1969.699 -834.277)" fill="#fff"/>
        <path id="Path_105386" data-name="Path 105386" d="M2063.713,925.99s8.524-1.1,9.8-5.212a6.939,6.939,0,0,1,1.641,4.66s-2.7,4.073-9.443,4.121Z" transform="translate(-1992.954 -839.007)" fill="#fff"/>
        <ellipse id="Ellipse_4418" data-name="Ellipse 4418" cx="1.548" cy="1.548" rx="1.548" ry="1.548" transform="translate(58.252 124.199)" fill="#233862"/>
        <path id="Path_105387" data-name="Path 105387" d="M2010.19,1118.007a1.548,1.548,0,1,1,1.548,1.548A1.549,1.549,0,0,1,2010.19,1118.007Z" transform="translate(-1954.85 -978.314)" fill="#233862"/>
        <path id="Path_105388" data-name="Path 105388" d="M1894.047,662.216a3.122,3.122,0,0,1,.21-2.886c.912-1.293,6.912-3.272,7.471-2.227s.205,4.676-1.723,5.479S1894.192,663.025,1894.047,662.216Z" transform="translate(-1871.976 -651.086)" fill="#f9b587"/>
        <path id="Path_105389" data-name="Path 105389" d="M1907.814,884.983c-1.993-4.495-16.121-17.4-18.485-30.069-1.1-5.883,2.34-10.045,6.513-12.854a23.442,23.442,0,0,0,3.594,16.927C1904.987,867.016,1907.814,884.983,1907.814,884.983Z" transform="translate(-1868.662 -782.968)" fill="#2f8caa"/>
        <path id="Path_105390" data-name="Path 105390" d="M2152.819,1145.652a9.1,9.1,0,0,1-11.938-5.628c-2.185-6.753-2.411-14.028-3.22-20.014-.4-2.943-.858-9.013-2.642-13.743a118.6,118.6,0,0,1,10.372,22.512C2150.3,1142.751,2148.765,1144.79,2152.819,1145.652Z" transform="translate(-2043.717 -971.058)" fill="#2f8caa"/>
      </g>
      <g id="Group_44604" data-name="Group 44604" transform="translate(55.914 33.272) rotate(-7)">
        <path id="Path_105391" data-name="Path 105391" d="M11.254,12.81c5.513-.469,6.779-3.1,7.96-4.893A50.975,50.975,0,0,1,5.255,1.481L2.618,0C1.863,0,0,1.388,0,4.176,0,7.922,3.922,13.438,11.254,12.81Z" transform="translate(0.479 46.164)" fill="#2c2a40"/>
        <path id="Path_105392" data-name="Path 105392" d="M2.8,20.2S-1.265,17.125.4,10.949c0,0,1.363,2.344,2.6,2.578,0,0-3.14-8.5,6.461-13.236,0,0-1.125,4.677.018,6.234,0,0,2.536-5.41,6.294-6.526,0,0-.565,9.481,5.312,11.4,4.192,1.367,9.611,6.237,11.1,14.239,0,0,2.434-.7,3.342.254,0,0-3.121.525-3.552,2.516a2.233,2.233,0,0,1,2.3.174s-2.205.455-2.546,2.18S23.045,45.672,18.01,47.869,2.8,20.2,2.8,20.2Z" transform="translate(1.63 0)" fill="#2c2a40"/>
        <g id="Group_44603" data-name="Group 44603" transform="translate(0 15.954)">
          <g id="Group_44602" data-name="Group 44602" transform="translate(0 0)">
            <path id="Path_105393" data-name="Path 105393" d="M14.949,14.572l-.671,3.868a2.551,2.551,0,0,1-1.863,2.034c-8.33,2.171-12-3-12.415-5.01C1.072,15.037,20.153,7.317,23.278,0,23.278,0,21.267,9.838,14.949,14.572Z" transform="translate(2.505 19.344)" fill="#f9b587"/>
            <path id="Path_105394" data-name="Path 105394" d="M2.018,12.344A10.586,10.586,0,0,0,.031,18.455L0,25.219a5.863,5.863,0,0,0,3.962,5.575,19.842,19.842,0,0,0,10.469.875c7.391-1.607,10.927-10.561,10.927-10.561s3.079-9.283-3.12-15.685C17.944.989,12.182.119,9.046,0A3.582,3.582,0,0,0,5.784,1.827L3.41,6.066A10.228,10.228,0,0,0,2.9,7.1a10.558,10.558,0,0,0-.834,3.743Z" fill="#f9b587"/>
            <path id="Path_105395" data-name="Path 105395" d="M.192.63s5.867-2.479,7.327,2.4l-.9.747S4.67.048,0,1.923Z" transform="translate(10.602 7.406)" fill="#2c2a40"/>
            <path id="Path_105396" data-name="Path 105396" d="M1.538,5.246A10.469,10.469,0,0,0,0,8.372c1.162-.289,3.206-.111,6.7,1.834a8.291,8.291,0,0,0-3.309-3.19.847.847,0,0,1-.331-1.321L5.482,2.75a2.468,2.468,0,0,0-.872-1.411A15.633,15.633,0,0,0,2.425,0a10.558,10.558,0,0,0-.834,3.743Z" transform="translate(0.479 7.098)" fill="#f39568"/>
            <path id="Path_105397" data-name="Path 105397" d="M.945.073A11.472,11.472,0,0,1,3.329,1.587l-.3,1.152A8.151,8.151,0,0,0,.5,1.245.679.679,0,0,1,.052.353L.058.341A.653.653,0,0,1,.945.073Z" transform="translate(2.543 6.081)" fill="#2c2a40"/>
            <path id="Path_105398" data-name="Path 105398" d="M.635,0,11.091,3S7.8,7.984,2.495,5.745C-1.667,3.988.635,0,.635,0Z" transform="translate(1.008 18.265)" fill="#fff"/>
            <path id="Path_105399" data-name="Path 105399" d="M2.124,5.716S8.68,7.387,15.452,0c0,0,.3,3.818-3.335,7.714S0,9.675,0,9.675Z" transform="translate(2.505 25.133)" fill="#f39568"/>
            <path id="Path_105400" data-name="Path 105400" d="M1.986,1.328S5.3-1.548,7.438,1.165,4.788,11.537,1.374,8.412,1.986,1.328,1.986,1.328Z" transform="translate(21.354 17.289)" fill="#f9b587"/>
          </g>
          <path id="Path_105401" data-name="Path 105401" d="M0,1.09S1.295-.477,2.908.147A2.921,2.921,0,0,1,4.934,3.218S3.884-.813,0,1.09Z" transform="translate(10.795 10.628)" fill="#2c2a40"/>
          <path id="Path_105402" data-name="Path 105402" d="M2.74,1.339S1.877-1.222,0,.74A1.943,1.943,0,0,1,2.74,1.339Z" transform="translate(2.276 9.563)" fill="#2c2a40"/>
        </g>
        <path id="Path_105403" data-name="Path 105403" d="M2.618.283S.074,3.359,2.141,6.571L0,11.494l2.215.568L4.055,9.332,5.477,2.273S3.761-.956,2.618.283Z" transform="translate(22.005 23.867)" fill="#2c2a40"/>
      </g>
    </g>
    <g id="Group_44610" data-name="Group 44610" transform="translate(76.27 19.208)">
      <g id="Group_44608" data-name="Group 44608" transform="translate(59.54 49.175)">
        <g id="Group_44607" data-name="Group 44607">
          <g id="Group_44606" data-name="Group 44606">
            <path id="Path_105404" data-name="Path 105404" d="M3314.473,327.443a1.126,1.126,0,1,0-.038,1.493,1.642,1.642,0,1,0,.038-1.493Z" transform="translate(-3312.486 -324.099)" fill="#fed559"/>
            <path id="Path_105405" data-name="Path 105405" d="M3325.456,323.959s6.318.145,8.493.3,2.738.27,2.744,0a7.22,7.22,0,0,1-.127-2.084,3.683,3.683,0,0,0,.04-1.567c-.037-.288.071-.175.038-.617s.2-.894-.2-1.032c-.248-.086-1.972,1.042-5.359,2.213a43.4,43.4,0,0,1-5.6,1.014Z" transform="translate(-3321.228 -318.96)" fill="#fed559"/>
          </g>
        </g>
      </g>
      <g id="Group_44609" data-name="Group 44609" transform="translate(47.982 31.525)">
        <path id="Path_105406" data-name="Path 105406" d="M3278.062,284.569a5.175,5.175,0,0,0,.683.7c3.268,2.771,10.191,2.08,10.484,2.049a.732.732,0,1,0-.153-1.455c-.065.007-6.6.657-9.386-1.711a3.194,3.194,0,0,1-1.182-2.355c-.2-3.372,2.008-6.513,3.782-9.036,1.338-1.9,2.395-3.407,2.19-4.686a4.117,4.117,0,0,0-5.684-2.865.731.731,0,1,0,.781,1.237,2.7,2.7,0,0,1,3.458,1.86c.11.692-.934,2.177-1.943,3.613-1.9,2.71-4.274,6.082-4.044,9.965A4.614,4.614,0,0,0,3278.062,284.569Z" transform="translate(-3277.033 -264.822)" fill="#fed559"/>
      </g>
      <path id="Path_105407" data-name="Path 105407" d="M3174.779,239.015s4.756-7.169,2.509-11.816c-.9-1.859-15.293-10.85-19.059-11.7-4.385-.988-9,6.114-9,6.114s6.368,5.124,6.481,8.4C3155.734,230.811,3166.063,228.7,3174.779,239.015Z" transform="translate(-3142.91 -199.99)" fill="#2f8caa"/>
      <path id="Path_105408" data-name="Path 105408" d="M3184.061,204.453l-40.6-16.025-13.613-20.307,34.407,15.793Z" transform="translate(-3129.853 -168.121)" fill="#31a5c4"/>
    </g>
  </g>
</svg>
