<svg id="Component_52_13" data-name="Component 52 – 13" xmlns="http://www.w3.org/2000/svg" xmlns:xlink="http://www.w3.org/1999/xlink" width="199.394" height="209.085" viewBox="0 0 199.394 209.085">
  <defs>
    <clipPath id="clip-path">
      <rect id="Rectangle_17188" data-name="Rectangle 17188" width="199.394" height="209.085" rx="6" fill="#ecfbff"/>
    </clipPath>
  </defs>
  <g id="Mask_Group_250" data-name="Mask Group 250" clip-path="url(#clip-path)">
    <g id="Group_40916" data-name="Group 40916" transform="translate(13.108 28.123)">
      <path id="Path_98688" data-name="Path 98688" d="M154.421,210.257a20.48,20.48,0,0,0-1.053,6.972c.248,1.587,3.128,10.656,3.128,10.656a7.448,7.448,0,0,0,1.624.752c1.037.354,8.994-8.332,8.436-11.166S154.421,210.257,154.421,210.257Z" transform="translate(-92.657 -131.235)" fill="#583b1b"/>
      <path id="Path_98689" data-name="Path 98689" d="M153.832,208.793c-.971,1.372,1.148,9.922,2,12.482.135.407-12.624-20.8.122-30.877,2.233-1.765,8.536-2.63,13.5-3.021,4.648-.366,19.958-.482,20.485-.255C190.035,187.163,160.744,199.027,153.832,208.793Z" transform="translate(-91.995 -124.625)" fill="#846251"/>
      <path id="Path_98690" data-name="Path 98690" d="M167.154,196.666c-4.581,2.267-7.306,5.441-9.287,11.676s2.1,3.741-.124,14.4-.619,21.766,4.581,26.527,33.062,4.081,40-2.721-4.491-46.833-11.656-50.51S167.154,196.666,167.154,196.666Z" transform="translate(-93.408 -126.77)" fill="#503825"/>
      <path id="Path_98691" data-name="Path 98691" d="M174.113,193.024c-4.581,2.267-7.306,5.442-9.287,11.676s2.1,3.741-.124,14.4-1.858,22.107,3.343,26.868,29.979,4.468,36.914-2.334-.17-47.56-7.336-51.238S174.113,193.024,174.113,193.024Z" transform="translate(-94.857 -125.734)" fill="#392515"/>
      <path id="Path_98692" data-name="Path 98692" d="M142.385,181.572c-8.971-.621-5.5.535-18.6-3.075.524.364-13.848-7.849-23.859-25.315l-5.05,4.024c8.98,15.34,18,24.914,30.244,31.365,3.825,2.015,7.534,2.072,11.467,3.4Z" transform="translate(-79.903 -115.01)" fill="#f9a873"/>
      <path id="Path_98693" data-name="Path 98693" d="M221.244,367.446c-.68.68-3.839,3.4-3.839,3.4l-3.4,3.741A92.109,92.109,0,0,0,220.068,384c2.477,3.061,11.33,5.952,12.445,2.834s-5.7-7.142-6.687-10.09a16.09,16.09,0,0,1-.805-5.611Z" transform="translate(-105.897 -175.919)" fill="#240901"/>
      <path id="Path_98694" data-name="Path 98694" d="M135.42,371.82s-5.077,5.782-5.325,7.368-2.662,14.851-7.244,16.437-5.758-3.514-4.767-10.543,4.706-11.223,5.944-11.789,10.03-5.215,10.03-5.215Z" transform="translate(-84.896 -176.099)" fill="#240901"/>
      <path id="Path_98695" data-name="Path 98695" d="M170.085,273.49c-2.439,5.655-13.28,42.981-13.28,42.981l-26.625,27.578s1.866,8.378,4.858,5.981c1.591-1.273,29.036-21,35.25-26.142,3.629-3.005,15.469-27.2,16.257-27.281,1.683-.171,27.725,15.016,27.725,15.016s-14.139,29.922-14.315,31.446,3.61,3.656,6.789,2.8,25.626-32.309,24.5-35.048-28.805-37.331-28.805-37.331Z" transform="translate(-87.606 -149.21)" fill="#45260c"/>
      <path id="Path_98696" data-name="Path 98696" d="M220.178,206.6c4.713,1.985,4.753,2.97,14.491,4.113-.478-.334,15.5,10.823,30.53,17.247l2.241-3.474c-9.646-7.192-21.025-16.533-28.714-20.911-5.513-3.138-8.52-3.1-14.086-4.977Z" transform="translate(-107.245 -127.92)" fill="#f9a873"/>
      <path id="Path_98697" data-name="Path 98697" d="M275.52,235.044l1.722,2.763s3.6,11.237,4.168,10.563,0-6.948,0-6.948,7.136,3.526,8.5,4.718,4.645,3.993,4.361,3.06-4.3-5.756-4.3-5.756,2.945,2.307,3.285,2.67,2.237,2.178,2.322,1.011c.107-1.475-8.4-9.445-10.288-10.125-1.586-.57-5.8-2.666-5.8-2.666Z" transform="translate(-119.321 -138.079)" fill="#f9a873"/>
      <path id="Path_98698" data-name="Path 98698" d="M283.053,243.112c1.417,1.244,5.523,4.277,5.579,4.459s2.634,5.988,2.917,5.107-.991-5.548-1.1-5.7-4.673-4.019-4.9-4.045S283.053,243.112,283.053,243.112Z" transform="translate(-120.965 -140.522)" fill="#f9a873"/>
      <path id="Path_98699" data-name="Path 98699" d="M238.711,212.64c-.478-.334,15.5,10.823,30.53,17.247l-1.4-2.245-26.091-16.515.776-5.738C242.4,206.308,240.293,209.82,238.711,212.64Z" transform="translate(-111.287 -129.851)" fill="#f59a60"/>
      <path id="Path_98700" data-name="Path 98700" d="M275.933,236.049l1.4,2.245s3.219,10.044,4.049,10.571l.119-.008-2.887-11.28-.6-.341Z" transform="translate(-119.411 -138.567)" fill="#f9a873"/>
      <path id="Path_98701" data-name="Path 98701" d="M135.337,189.025l-2.474,16.356,26.574,4.347s3.157,39.613,3.181,49.681c.015,6.265,37.42,1.913,47.842-4.916l-11.273-46.852s14.61,5.546,14.422,4.347,7.089-12.225,5.966-12.225c-.77,0-22.327-12.329-25.534-12.5a52.031,52.031,0,0,0-10.322.137c-7.021,1.167-12.215,4.02-18.245,3.221C161.17,189.572,148.358,190.068,135.337,189.025Z" transform="translate(-88.192 -124.646)" fill="#8475d0"/>
      <path id="Path_98702" data-name="Path 98702" d="M220.8,235.508l-6.7-27.862s14.61,5.546,14.422,4.347c-.17-1.092,5.857-10.347,6.076-11.978l-7.411,6.617-11.639-7.086-5.656-9.916-7.623-2.533q-.543.014-1.07.042l9.2,26.927s5.619,13.926,5.628,14.611A65.137,65.137,0,0,0,220.8,235.508Z" transform="translate(-103.103 -124.652)" fill="#5b5190"/>
      <path id="Path_98703" data-name="Path 98703" d="M192.782,187.528c-.624.1-1.835.109-2.433.211-3.75.64-6.536,1.467-11.239,2.117-1.3.18-3.1.8-4.573.892a3.738,3.738,0,0,0-.14,1.008c0,3.428,4.753,6.208,10.614,6.208s10.615-2.779,10.615-6.208C195.627,190.123,194.547,188.637,192.782,187.528Z" transform="translate(-97.255 -124.774)" fill="#f9a873"/>
      <path id="Path_98704" data-name="Path 98704" d="M177.627,178.613c.468,1.37,2.618,11.558,2.618,11.558s5.424,2.227,8.6.429,3.46-3,3.46-3l-4.676-10.018Z" transform="translate(-97.96 -121.947)" fill="#f9a873"/>
      <path id="Path_98705" data-name="Path 98705" d="M152.427,145.518c-1.657-2.315-2.729-3.476-6.478-11.7s2.79-12.77,2.79-12.77a15.392,15.392,0,0,1,2.528-9.178c2.964-4.309,4.271-5.427,4.01-4.549s.087,2,.261,1.357,5.667-5.268,5.667-5.268.567,2.315.872,2.036.959-1.477,8.892-3.512,14.472-2.315,13.949-1.955-2.965,2.394-2.442,2.234,6.888,0,9.721-.439,4.141-1,3.531-.719-2.877,5.547-4.315,6.944a10.139,10.139,0,0,1-1.482,1.356s.611-.518,5.275,1.318,6.189,3.711,5.928,3.551-8.5.758-8.5.758,2.571,8.7,2.136,11.253-2.266,10.716-2.832,10.836Z" transform="translate(-90.795 -99.849)" fill="#651906"/>
      <path id="Path_98706" data-name="Path 98706" d="M167.759,118.991c12.667-2.5,22.5,6.94,25.622,20.194s-1.66,25.3-14.328,27.8-23.012-6.567-26.131-19.821S155.091,121.489,167.759,118.991Z" transform="translate(-92.378 -105.176)" fill="#fbb98c"/>
      <path id="Path_98707" data-name="Path 98707" d="M152.112,139.669c.389-6.535,3.055-12.248,7.848-15.8,4.821.285,19.8,2.779,19.8,2.779a53.272,53.272,0,0,0,4.767,3.061c.371,0-.557.51-4.211.907s-14.116-.794-14.487-.907,4.52,4.591,4.52,4.591-1.548.4-6.872-.907a18.467,18.467,0,0,1-6.717-3.477c-.791,1.37-1.745,3.113-2.632,4.667A23.266,23.266,0,0,0,152.112,139.669Z" transform="translate(-92.392 -106.677)" fill="#f99d63"/>
      <path id="Path_98708" data-name="Path 98708" d="M153.227,121.482c2.341,1.97,5.405,4.629,13.164,5.826s9.066.638,9.066.638-4.185-3.272-3.051-2.953a86.413,86.413,0,0,0,11.159.8c4.272.08,4.01-.16,4.01-.16s-4.882-2.713-3.835-2.713,8.02-.719,8.02-.719-4.446-8.54-13.338-9.338S153.227,121.482,153.227,121.482Z" transform="translate(-92.636 -103.535)" fill="#651906"/>
      <path id="Path_98709" data-name="Path 98709" d="M165.319,149.379c1.174,0,2.376,1.449,2.684,3.238s-.394,3.238-1.568,3.238-2.375-1.45-2.684-3.238S164.145,149.379,165.319,149.379Z" transform="translate(-94.916 -113.929)" fill="#4d0c01"/>
      <path id="Path_98710" data-name="Path 98710" d="M191.078,143.023c1.174,0,2.375,1.449,2.684,3.238s-.394,3.237-1.568,3.237-2.375-1.449-2.684-3.237S189.9,143.023,191.078,143.023Z" transform="translate(-100.537 -112.122)" fill="#4d0c01"/>
      <path id="Path_98711" data-name="Path 98711" d="M178.151,152.317c0,.638,7.062,4.709,7.062,4.709,1.274,1.91-5.251,5.73-6.888,3.911a6.718,6.718,0,0,0,5.536-3.612C182.475,156.534,178.017,154,178.151,152.317Z" transform="translate(-98.074 -114.764)" fill="#f79961"/>
      <path id="Path_98712" data-name="Path 98712" d="M91.306,149.264c.768-.311,4.234-1.351,5.319-3.095s-1.092-8.277-2-10.394-4.249-10.914-5.542-10.232,2.277,10.669,1.962,10.76-7.841-12.009-9.724-11,6.911,12.492,6.456,12.756-7.786-9.514-9.232-8.275,6.93,10.445,6.085,10.416-7.69-6.764-8.807-5.4,7.468,8.027,7.468,8.027,2.936,3.877,5.288,5.416S91.306,149.264,91.306,149.264Z" transform="translate(-75.724 -107.069)" fill="#f9a873"/>
      <path id="Path_98713" data-name="Path 98713" d="M84.756,145.3s.126,1.491,3.172,3.531a24.673,24.673,0,0,0,3.792,2.055,23.394,23.394,0,0,0,2.486.941,28.291,28.291,0,0,1-2.9,1.185s-.166.229-.97-.072a9.334,9.334,0,0,1-1.756-.951c-2.352-1.539-5.288-5.416-5.288-5.416s-8.584-6.666-7.468-8.027a.472.472,0,0,1,.142-.116,21.262,21.262,0,0,0,4.068,4.386A18.888,18.888,0,0,0,84.756,145.3Z" transform="translate(-75.724 -110.817)" fill="#f9a873"/>
      <path id="Path_98714" data-name="Path 98714" d="M100.514,149.469c.1-.429.915-.563,1.112-1.608a59,59,0,0,0,.59-7.9c.011-.567-1.438-7.27-2.093-6.364-1.729,2.391.439,5.563-1.435,9.194C96.59,146.859,97.626,150.428,100.514,149.469Z" transform="translate(-80.493 -109.42)" fill="#f9a873"/>
      <path id="Path_98715" data-name="Path 98715" d="M150.28,154.727c2.352,0,4.692,2.31,5.225,5.158s-.942,5.158-3.3,5.158-4.691-2.31-5.225-5.158S147.927,154.727,150.28,154.727Z" transform="translate(-91.25 -115.449)" fill="#fbb98c"/>
      <path id="Path_98716" data-name="Path 98716" d="M205.258,140.868c2.353,0,4.409,2.309,4.593,5.158s-1.575,5.158-3.927,5.158-4.409-2.309-4.593-5.158S202.906,140.868,205.258,140.868Z" transform="translate(-103.13 -111.51)" fill="#fbb98c"/>
      <path id="Path_98717" data-name="Path 98717" d="M120.064,395.3c-1.61-3.967.526-12.073,1.733-14.992a45.3,45.3,0,0,1,2.752-5.3c-.23.115-.407.2-.521.253-1.238.567-4.953,4.761-5.944,11.789-.923,6.545.034,11.419,3.871,10.777A4.937,4.937,0,0,1,120.064,395.3Z" transform="translate(-84.896 -178.07)" fill="#e2cab6"/>
      <path id="Path_98718" data-name="Path 98718" d="M125.58,383.513a.569.569,0,1,1,0-1.134,21.061,21.061,0,0,1,2.546.737,10.746,10.746,0,0,1,1.752.773,8.931,8.931,0,0,1,1.89,1.433.533.533,0,0,1-.084.8.657.657,0,0,1-.869-.077,7.59,7.59,0,0,0-1.609-1.2,9.508,9.508,0,0,0-1.529-.667C126.62,383.792,125.622,383.513,125.58,383.513Z" transform="translate(-86.468 -180.164)" fill="#f98300"/>
      <path id="Path_98719" data-name="Path 98719" d="M130.779,388.454a.535.535,0,0,1,.1.8.658.658,0,0,1-.869.091,12.364,12.364,0,0,0-2.763-1.53,18.728,18.728,0,0,0-3.126-.9.567.567,0,0,1-.467-.676.622.622,0,0,1,.738-.427,20,20,0,0,1,3.343.962A13.635,13.635,0,0,1,130.779,388.454Z" transform="translate(-86.18 -181.136)" fill="#f98300"/>
      <path id="Path_98720" data-name="Path 98720" d="M129.759,391.833a.534.534,0,0,1-.051.8.658.658,0,0,1-.873-.047,10.042,10.042,0,0,0-2.441-1.262,9.759,9.759,0,0,0-2.574-.779.6.6,0,0,1-.634-.549.588.588,0,0,1,.6-.58,10.391,10.391,0,0,1,3.107.871A10.76,10.76,0,0,1,129.759,391.833Z" transform="translate(-86.08 -182.165)" fill="#f98300"/>
      <path id="Path_98721" data-name="Path 98721" d="M225.611,380.063a.436.436,0,0,1-.571-.107.358.358,0,0,1,.117-.522c.084-.051.166-.1.245-.135l.024-.011a3.893,3.893,0,0,1,1.882-.377,2.058,2.058,0,0,1,1.582.721c.027.037.048.069.066.1a.361.361,0,0,1-.167.512.432.432,0,0,1-.559-.152l-.027-.042a1.252,1.252,0,0,0-.947-.384,2.992,2.992,0,0,0-1.441.289l-.02.011C225.726,380,225.665,380.03,225.611,380.063Z" transform="translate(-108.291 -179.177)" fill="#f98300"/>
      <path id="Path_98722" data-name="Path 98722" d="M229.617,388.694c-8.151-1.153-11.285-8.362-14.466-13.036L214,376.922a92.1,92.1,0,0,0,6.067,9.409c2.477,3.061,11.33,5.952,12.445,2.834a2.113,2.113,0,0,0,.123-.737A7.267,7.267,0,0,1,229.617,388.694Z" transform="translate(-105.897 -178.254)" fill="#e2cab6"/>
      <path id="Path_98723" data-name="Path 98723" d="M227.472,383.389a.436.436,0,0,1-.571-.106.358.358,0,0,1,.116-.522c.084-.052.167-.1.245-.135l.024-.012a3.893,3.893,0,0,1,1.882-.376,2.057,2.057,0,0,1,1.582.721c.027.037.048.069.066.1a.362.362,0,0,1-.167.512.433.433,0,0,1-.559-.152l-.027-.042a1.251,1.251,0,0,0-.947-.384,2.984,2.984,0,0,0-1.441.288l-.02.01C227.587,383.323,227.526,383.356,227.472,383.389Z" transform="translate(-108.697 -180.123)" fill="#f98300"/>
      <path id="Path_98724" data-name="Path 98724" d="M229.888,386.438a.436.436,0,0,1-.571-.106.358.358,0,0,1,.116-.523c.085-.051.167-.1.245-.135l.024-.012a3.892,3.892,0,0,1,1.881-.376,2.059,2.059,0,0,1,1.582.721c.026.036.048.069.065.1a.362.362,0,0,1-.166.512.433.433,0,0,1-.56-.152l-.027-.042a1.253,1.253,0,0,0-.947-.384,3,3,0,0,0-1.441.289l-.02.011C230,386.372,229.942,386.405,229.888,386.438Z" transform="translate(-109.224 -180.989)" fill="#f98300"/>
      <path id="Path_98725" data-name="Path 98725" d="M166.031,190.585s-1.489,24.62-.994,31.875,2.653,10.664,3.891,8.85,6.224-38.074,5.841-40.494S165.97,188.941,166.031,190.585Z" transform="translate(-95.191 -125.241)" fill="#72513e"/>
      <path id="Path_98726" data-name="Path 98726" d="M208.9,186.593s9.015,22.351,10,29.606-.482,10.664-2.09,8.85-9.385-32.942-15.81-38.577C200.264,184.692,207.944,183.589,208.9,186.593Z" transform="translate(-103.048 -123.976)" fill="#72513e"/>
      <path id="Path_98727" data-name="Path 98727" d="M168.488,144.95a57.559,57.559,0,0,0-9.545,1.719c-1.562.625-1.779-1.738-.361-2.177s6.862-1.6,8.793-1.867S169.1,145.064,168.488,144.95Z" transform="translate(-93.598 -112.004)" fill="#651906"/>
      <path id="Path_98728" data-name="Path 98728" d="M185.138,140.771a56.427,56.427,0,0,1,9.1-3.139c1.688-.221.513-2.335-.944-2.025s-6.752,1.95-8.549,2.651S184.685,141.161,185.138,140.771Z" transform="translate(-99.34 -110.005)" fill="#651906"/>
      <g id="Group_40904" data-name="Group 40904" transform="translate(62.221 7.777)">
        <path id="Path_98729" data-name="Path 98729" d="M155.35,118.97c-.664-3.544,7.366-9.25,10.711-8.106A26.5,26.5,0,0,0,155.35,118.97Z" transform="translate(-155.311 -110.716)" fill="#5a1404"/>
      </g>
      <g id="Group_40905" data-name="Group 40905" transform="translate(67.893 9.091)">
        <path id="Path_98730" data-name="Path 98730" d="M162.567,117.225c10.1-6.289,9.8-4.829,21.608-3.571C175.484,115.88,176.966,111.916,162.567,117.225Z" transform="translate(-162.567 -112.551)" fill="#5a1404"/>
      </g>
      <g id="Group_40906" data-name="Group 40906" transform="translate(76.376 5.04)">
        <path id="Path_98731" data-name="Path 98731" d="M173.417,107.51c11.3-2.9,17.154,5.625,22.227.85.426.833-1.512,1.63-2.043,1.808C186.94,112.4,183.773,107.507,173.417,107.51Z" transform="translate(-173.417 -106.891)" fill="#7e290f"/>
      </g>
      <g id="Group_40907" data-name="Group 40907" transform="translate(81.143 1.608)">
        <path id="Path_98732" data-name="Path 98732" d="M179.515,103.653c3.507-1.6,3.838-1.945,7.677-1.134C183.805,103.69,183.129,104.271,179.515,103.653Z" transform="translate(-179.515 -102.096)" fill="#5a1404"/>
      </g>
      <g id="Group_40908" data-name="Group 40908" transform="translate(66.655 17.166)">
        <path id="Path_98733" data-name="Path 98733" d="M160.983,123.833a28.459,28.459,0,0,0,11.764,4.478C172.924,130.035,161.348,128.018,160.983,123.833Z" transform="translate(-160.983 -123.833)" fill="#7e290f"/>
      </g>
      <g id="Group_40909" data-name="Group 40909" transform="translate(71.855 15.068)">
        <path id="Path_98734" data-name="Path 98734" d="M167.635,120.9c3.191,1.774,13.208,3.49,17.088,3.515C181.741,126.777,167.617,123.519,167.635,120.9Z" transform="translate(-167.635 -120.902)" fill="#5a1404"/>
      </g>
      <g id="Group_40910" data-name="Group 40910" transform="translate(75.695 12.483)">
        <path id="Path_98735" data-name="Path 98735" d="M172.546,118.572c16.176-3.056,18.663-1.092,25.88,10.77C187.081,118.143,192.106,118.706,172.546,118.572Z" transform="translate(-172.546 -117.291)" fill="#7e290f"/>
      </g>
      <g id="Group_40911" data-name="Group 40911" transform="translate(92.04 11.384)">
        <path id="Path_98736" data-name="Path 98736" d="M193.453,115.755c4.441,1.22,10.355.867,13.312,1.7C204.057,119.221,193.447,117.862,193.453,115.755Z" transform="translate(-193.453 -115.755)" fill="#5a1404"/>
      </g>
      <g id="Group_40912" data-name="Group 40912" transform="translate(87.891 3.392)">
        <path id="Path_98737" data-name="Path 98737" d="M188.147,104.589c4.181.518,10.042,1.358,14.179.17C199.873,108.892,191.119,106,188.147,104.589Z" transform="translate(-188.147 -104.589)" fill="#5a1404"/>
      </g>
      <g id="Group_40913" data-name="Group 40913" transform="translate(56.597 22.097)">
        <path id="Path_98738" data-name="Path 98738" d="M152.511,130.723c-1.4,3.866-3.412,7.509-2.957,11.641l-.05-.011.035.018c0,.078.012.045-.014.1a.093.093,0,0,1-.1,0C145.657,139.952,151.078,132.528,152.511,130.723Z" transform="translate(-148.117 -130.723)" fill="#7e290f"/>
      </g>
      <g id="Group_40914" data-name="Group 40914" transform="translate(54.374 24.393)">
        <path id="Path_98739" data-name="Path 98739" d="M147.9,133.93c-.5,2.211-1.287,4.352-1.587,6.6l-.041-.066c.033.143.03.064-.013.238C145.254,140.817,144.108,135.835,147.9,133.93Z" transform="translate(-145.275 -133.93)" fill="#5a1404"/>
      </g>
      <g id="Group_40915" data-name="Group 40915" transform="translate(61.176 18.073)">
        <path id="Path_98740" data-name="Path 98740" d="M153.975,125.1c4.926.782,2.776-.107,6.532,2.494C155.827,126.9,158.022,127.7,153.975,125.1Z" transform="translate(-153.975 -125.1)" fill="#331907"/>
      </g>
      <path id="Path_98741" data-name="Path 98741" d="M94.559,154.845a24.679,24.679,0,0,1-3.792-2.055q-.331-.221-.616-.434l-1.413,1.229a16.578,16.578,0,0,0,2.681,2.364,7.092,7.092,0,0,0,2.144,1.069c.472.1.582-.046.582-.046.242-.1.751-.268,1.37-.51-.164-.271-.309-.512-.433-.721C94.743,155.169,94.559,154.845,94.559,154.845Z" transform="translate(-78.564 -114.775)" fill="#f59a60"/>
      <path id="Path_98742" data-name="Path 98742" d="M96.862,158.091c-.618.242-1.128.412-1.37.51,0,0-.109.151-.582.047,8.971,15.314,17.98,24.874,30.217,31.319.167.088.334.172.5.253l.579-3.823s-11.123-6.176-17.809-12.921C103.333,168.368,98.776,161.247,96.862,158.091Z" transform="translate(-79.911 -116.406)" fill="#f59a60"/>
      <path id="Path_98743" data-name="Path 98743" d="M146.491,205.219a18.993,18.993,0,0,1-3.413-2.363,48.7,48.7,0,0,1-8.128-9.5l-.464,3.065-.579,3.823-1.046,6.921,14.057,2.3,2.08.34,1.446.237,1.679.274,5.979.978.019-.56q.026-.747.054-1.5c.055-1.491.118-2.987.182-4.443.023-.532.048-1.059.071-1.577.081-1.732.163-3.378.238-4.854.106-2.043.2-3.76.268-4.929l-.449,5.073-.44,4.969-.317,3.582L157.6,208.5s-.356-.022-1.04-.131a32.909,32.909,0,0,1-3.735-.845l-.02-.006c-.941-.266-2.012-.6-3.205-1.029-.642-.23-1.318-.485-2.03-.769A11.771,11.771,0,0,1,146.491,205.219Z" transform="translate(-88.192 -126.431)" fill="#5b5190"/>
      <path id="Path_98744" data-name="Path 98744" d="M168.912,234.451c.335,4.736.669,9.68.943,14.175.082,1.349.159,2.658.228,3.909.24,4.317.4,7.942.4,10.148,0,1.21,1.4,2.025,3.733,2.5,9.033,1.847,32.057-1.379,42.039-6.256q.722-.353,1.35-.717c-.638-.03-1.312-.07-2.019-.124a73.333,73.333,0,0,1-23.019-5.586q-.354-.15-.7-.3-1.184-.519-2.277-1.041c-14.525-6.95-17.018-14.358-17.25-16.062-.226-1.651,2.4-30.556,2.866-35.717.046-.507.072-.785.072-.785-.027.257-.056.522-.086.793-1.209,10.963-4.437,33.19-5.4,34.6A.846.846,0,0,1,168.912,234.451Z" transform="translate(-96.058 -127.92)" fill="#5b5190"/>
      <path id="Path_98745" data-name="Path 98745" d="M151.166,157.213c-3.14,0-3.044,5.2.434,6.575,1.858.737,2.136-.765,1.795-1.247s-1.207-.256-1.795-1.3.355-.762.495-1.927A2.746,2.746,0,0,0,151.166,157.213Z" transform="translate(-91.691 -116.156)" fill="#f39157"/>
      <path id="Path_98746" data-name="Path 98746" d="M205.052,143.161c2.653-1.537,5.607,2.9,3.473,5.769-1.139,1.532-2.252.4-2.245-.175s.871-.807.756-1.981-.746-.47-1.544-1.386A2.634,2.634,0,0,1,205.052,143.161Z" transform="translate(-103.927 -112.072)" fill="#f39157"/>
      <path id="Path_98747" data-name="Path 98747" d="M151.409,147.432s4.211,10.2,3.746,10.288-4.148-6.009-4.148-6.009Z" transform="translate(-92.151 -113.376)" fill="#651906"/>
      <path id="Path_98748" data-name="Path 98748" d="M201.612,135.369s1.111,10.859,1.569,10.749.845-7.066.845-7.066Z" transform="translate(-103.194 -109.946)" fill="#651906"/>
      <path id="Path_98749" data-name="Path 98749" d="M162.962,323.931c2.6-2.947,10.9-28.567,10.9-28.567s6.811-.567,21.423-5.555a66.89,66.89,0,0,0,13.175-6.1l-.652-.821c-9.983,4.878-33.006,8.1-42.039,6.256-3.971,12.816-8.961,30-8.961,30l-26.625,27.578s.045.2.131.532a21.842,21.842,0,0,0,1.018,3.006c1.558-1.26,3.641-2.947,6-4.862C146.987,337.549,161.26,325.86,162.962,323.931Z" transform="translate(-87.606 -151.883)" fill="#3d1b07"/>
      <path id="Path_98750" data-name="Path 98750" d="M202.277,304.265C203.96,304.093,230,319.281,230,319.281s-14.139,29.922-14.315,31.446a.971.971,0,0,0,.02.324c.171.778,1.214,1.642,2.595,2.171l1.567-3.675,12.567-29.474,8.049-1.134-5.448-3.514-27-15Z" transform="translate(-103.339 -156.868)" fill="#3d1b07"/>
      <path id="Path_98751" data-name="Path 98751" d="M173.791,175.507c-7.292-.473-13.454-4.734-17.4-11.175-.031.029-.064.057-.1.084,3.714,7.555,10.179,12.69,17.986,13.288a21.048,21.048,0,0,0,5.7-.356,20.186,20.186,0,0,0,5.086-1.7c7.352-3.648,10.718-11.5,10.092-20.56-.059-.016-.117-.033-.174-.051-.016,8.315-3.633,15.351-10.848,18.618a21.193,21.193,0,0,1-4.731,1.482A22.052,22.052,0,0,1,173.791,175.507Z" transform="translate(-93.306 -115.537)" fill="#faad79"/>
      <path id="Path_98752" data-name="Path 98752" d="M188.809,164.58a7.188,7.188,0,0,1,.528,1.1,6.921,6.921,0,0,1-4.667,9.069,8,8,0,0,1-9.824-4.559,6.964,6.964,0,0,1-.328-1.163Z" transform="translate(-97.282 -118.25)" fill="#891207"/>
      <path id="Path_98753" data-name="Path 98753" d="M176.251,168.722l.462,1.179a1.027,1.027,0,0,0,1.274.55l10.049-3.3a.9.9,0,0,0,.6-1.167l-.39-1Z" transform="translate(-97.66 -118.367)" fill="#fff"/>
    </g>
  </g>
</svg>
