<svg xmlns="http://www.w3.org/2000/svg" xmlns:xlink="http://www.w3.org/1999/xlink" width="156.596" height="224.828" viewBox="0 0 156.596 224.828">
  <defs>
    <clipPath id="clip-path">
      <rect id="Rectangle_17199" data-name="Rectangle 17199" width="156.596" height="224.828" rx="6" transform="translate(0 0)" fill="#ecfbff"/>
    </clipPath>
  </defs>
  <g id="Mask_Group_255" data-name="Mask Group 255" clip-path="url(#clip-path)">
    <g id="Group_43381" data-name="Group 43381" transform="translate(12.316 6.289)">
      <g id="Group_43373" data-name="Group 43373" transform="translate(76.198 206.565)">
        <path id="Path_103701" data-name="Path 103701" d="M404.1,387.578s4.72-.833,4.441-7.079-2.359-14.851-6.524-17.35a5.622,5.622,0,0,0-7.2,1.11Z" transform="translate(-385.495 -361.911)" fill="#7b7b9a"/>
        <path id="Path_103702" data-name="Path 103702" d="M382.754,363.044c.139,2.082,2.082,5.134,6.246,7.356s6.385,10.133,8.257,13.6a7.453,7.453,0,0,0,2.554,2.925,3.277,3.277,0,0,0,1.543.545s.023-.548.027-1.495a70.587,70.587,0,0,0-.889-11.553c-1.139-6.8-5.169-9.16-5.169-9.16a7.152,7.152,0,0,0-4.125-2.711c-2.952-.922-6.491-.964-7.863-.269C382.947,362.478,382.733,362.734,382.754,363.044Z" transform="translate(-382.752 -361.806)" fill="#b0b1ca"/>
        <path id="Path_103703" data-name="Path 103703" d="M401.373,373.535c.984,4.166,1.43,11.041.924,13.612a3.277,3.277,0,0,0,1.543.545,70.124,70.124,0,0,0-.862-13.048c-1.139-6.8-5.169-9.16-5.169-9.16a7.151,7.151,0,0,0-4.125-2.711C396.07,365.163,400.538,370.008,401.373,373.535Z" transform="translate(-385.238 -362.026)" fill="#2c2a40"/>
        <path id="Path_103704" data-name="Path 103704" d="M382.754,363.185c.139,2.082,2.082,5.134,6.246,7.356s6.385,10.133,8.257,13.6a7.453,7.453,0,0,0,2.554,2.925,3.277,3.277,0,0,0,1.543.545s.023-.548.027-1.495a.706.706,0,0,0-.306-.171c-1.387-.348-3.26-.883-4.372-6.038s-2.984-8.884-6.175-10.479c-2.913-1.455-6.572-6.183-7.193-7.006C382.947,362.619,382.733,362.875,382.754,363.185Z" transform="translate(-382.752 -361.947)" fill="#2c2a40" opacity="0.2"/>
      </g>
      <path id="Path_103705" data-name="Path 103705" d="M337.065,194.321s32.143-4.828,40.869,8.821-3,59.271-12.455,66.18-25.175,3.327-31.057-1.015S325.813,200.911,337.065,194.321Z" transform="translate(-294.402 -116.964)" fill="#2c2a40"/>
      <path id="Path_103706" data-name="Path 103706" d="M387.42,265.769a8.33,8.33,0,0,0,5.532-5.76l-4.858-2.152S386.192,262.784,387.42,265.769Z" transform="translate(-307.522 -131.602)" fill="#00497b"/>
      <path id="Path_103707" data-name="Path 103707" d="M387.543,250.354c6.662,10.133,21.7,12.769,21.7,12.769,3.113-.91,7.262-5.24,11.365-10.523h0a230.62,230.62,0,0,0,15.421-23.519L429.787,227s-10.966,12.111-15.683,14.746-6.109,5.137-6.109,5.137a16.565,16.565,0,0,0-1.672-1.561,43.912,43.912,0,0,0-7.976-4.931C393,238.9,387.543,250.354,387.543,250.354Z" transform="translate(-307.644 -124.584)" fill="#f9b587"/>
      <path id="Path_103708" data-name="Path 103708" d="M387.543,254.257c6.662,10.133,21.7,12.769,21.7,12.769,3.113-.91,7.262-5.241,11.365-10.523,0,0-7.329,7.787-11.99,8.44s-13.487-5.69-14.378-8.12.425-8.611,4.106-12.53C393,242.8,387.543,254.257,387.543,254.257Z" transform="translate(-307.644 -128.487)" fill="#f39568"/>
      <path id="Path_103709" data-name="Path 103709" d="M304.8,291.644s-.351,20.483,2.525,33.417,15.159-21.176,15.159-21.176S311.47,294.219,304.8,291.644Z" transform="translate(-288.822 -139.285)" fill="#2c2a40"/>
      <path id="Path_103710" data-name="Path 103710" d="M346.1,304.641s-.266,12.076-8.178,20.612a58.124,58.124,0,0,0-11.31,18.53s11.843-5.413,19.488-3.956c0,0,4,.208,5.459-1.457s1.873-3.644,4.163-3.019,5.518-.1,6.351-.208,6.142,8.328,5.1,13.845c0,0-4.163,1.145-4.684,1.873s-3.539,3.852-5.414,3.748-6.87,2.811-6.87,2.811-25.75,9.8-28.107,11.451c-3.97,2.785-22.694,5.83-24.36-4.685s14.678-60.483,16.969-65.9S343.349,298.082,346.1,304.641Z" transform="translate(-287.193 -140.284)" fill="#2c2a40"/>
      <g id="Group_43374" data-name="Group 43374" transform="translate(34.5 163.402)">
        <path id="Path_103711" data-name="Path 103711" d="M330.067,351.339l.725.265c.263-.722.586-1.49.959-2.283l-.7-.329C330.67,349.806,330.338,350.6,330.067,351.339Z" transform="translate(-329.072 -315.729)" fill="#5b5b6c"/>
        <path id="Path_103712" data-name="Path 103712" d="M379.343,350.53l.165.754c.765-.168,1.59-.328,2.453-.479l-.133-.761C380.955,350.2,380.118,350.36,379.343,350.53Z" transform="translate(-340.278 -315.969)" fill="#5b5b6c"/>
        <path id="Path_103713" data-name="Path 103713" d="M329.577,359.727l-.768.086.011.087a4.213,4.213,0,0,0,.982,2.433l.567-.524a3.543,3.543,0,0,1-.783-2.006Z" transform="translate(-328.786 -318.171)" fill="#5b5b6c"/>
        <path id="Path_103714" data-name="Path 103714" d="M337.7,362.45l.208.744c.793-.221,1.629-.489,2.416-.745l-.238-.735C339.3,361.968,338.478,362.233,337.7,362.45Z" transform="translate(-330.808 -318.623)" fill="#5b5b6c"/>
        <path id="Path_103715" data-name="Path 103715" d="M336.507,339.423c-.488.733-.949,1.446-1.371,2.118l.655.41c.417-.666.874-1.373,1.358-2.1Z" transform="translate(-330.225 -313.553)" fill="#5b5b6c"/>
        <path id="Path_103716" data-name="Path 103716" d="M334.26,344.492l-.665-.393c-.45.763-.866,1.5-1.236,2.208l.684.36C333.407,345.977,333.816,345.244,334.26,344.492Z" transform="translate(-329.593 -314.617)" fill="#5b5b6c"/>
        <path id="Path_103717" data-name="Path 103717" d="M355.178,306.07l-.762-.132c-.141.815-.307,1.637-.493,2.443l.753.173C354.865,307.735,355.034,306.9,355.178,306.07Z" transform="translate(-334.497 -305.938)" fill="#5b5b6c"/>
        <path id="Path_103718" data-name="Path 103718" d="M340.252,335.329l-.63-.447c-.526.739-1,1.414-1.445,2.064l.636.438C339.258,336.737,339.728,336.066,340.252,335.329Z" transform="translate(-330.916 -312.52)" fill="#5b5b6c"/>
        <path id="Path_103719" data-name="Path 103719" d="M342.841,330.42q-.735,1-1.479,2.032l.627.453q.739-1.024,1.476-2.029Z" transform="translate(-331.641 -311.506)" fill="#5b5b6c"/>
        <path id="Path_103720" data-name="Path 103720" d="M329.98,354.415l-.746-.2a13.98,13.98,0,0,0-.456,2.537l.77.06A13.233,13.233,0,0,1,329.98,354.415Z" transform="translate(-328.779 -316.917)" fill="#5b5b6c"/>
        <path id="Path_103721" data-name="Path 103721" d="M332.466,363.272l-.145.759a5.049,5.049,0,0,0,.956.084,9.2,9.2,0,0,0,1.683-.175l-.142-.759A6.441,6.441,0,0,1,332.466,363.272Z" transform="translate(-329.585 -318.956)" fill="#5b5b6c"/>
        <path id="Path_103722" data-name="Path 103722" d="M359.281,358.805l.129.762c.841-.143,1.678-.325,2.488-.542l-.2-.746C360.912,358.489,360.1,358.667,359.281,358.805Z" transform="translate(-335.716 -317.841)" fill="#5b5b6c"/>
        <path id="Path_103723" data-name="Path 103723" d="M364.527,357.35l.253.73a19.8,19.8,0,0,0,2.363-.987l-.345-.691A19.084,19.084,0,0,1,364.527,357.35Z" transform="translate(-336.909 -317.415)" fill="#5b5b6c"/>
        <path id="Path_103724" data-name="Path 103724" d="M342.932,360.814l.233.736c.964-.305,1.7-.52,2.391-.7l-.192-.749C344.662,360.285,343.911,360.5,342.932,360.814Z" transform="translate(-331.998 -318.257)" fill="#5b5b6c"/>
        <path id="Path_103725" data-name="Path 103725" d="M353.886,359.4l.007.773c.838-.008,1.693-.056,2.543-.144l-.08-.768C355.531,359.347,354.7,359.394,353.886,359.4Z" transform="translate(-334.489 -318.065)" fill="#5b5b6c"/>
        <path id="Path_103726" data-name="Path 103726" d="M373.975,351.978l.28.72a22.782,22.782,0,0,1,2.356-.746l-.2-.747A23.509,23.509,0,0,0,373.975,351.978Z" transform="translate(-339.058 -316.233)" fill="#5b5b6c"/>
        <path id="Path_103727" data-name="Path 103727" d="M370.507,353.863a6.691,6.691,0,0,1-1.156.971l.437.637a7.463,7.463,0,0,0,1.289-1.086,3.112,3.112,0,0,1,.629-.5l-.413-.654A3.871,3.871,0,0,0,370.507,353.863Z" transform="translate(-338.006 -316.693)" fill="#5b5b6c"/>
        <path id="Path_103728" data-name="Path 103728" d="M353.167,311.265c-.219.809-.463,1.61-.723,2.382l.732.246c.265-.786.513-1.6.736-2.426Z" transform="translate(-334.161 -307.149)" fill="#5b5b6c"/>
        <path id="Path_103729" data-name="Path 103729" d="M344.606,328.006l.623.456c.5-.69,1-1.368,1.48-2.033l-.626-.453Q345.364,326.972,344.606,328.006Z" transform="translate(-332.378 -310.495)" fill="#5b5b6c"/>
        <path id="Path_103730" data-name="Path 103730" d="M349.732,321.753l-.68-.365c-.4.74-.823,1.457-1.262,2.132l.647.422C348.889,323.249,349.325,322.513,349.732,321.753Z" transform="translate(-333.103 -309.452)" fill="#5b5b6c"/>
        <path id="Path_103731" data-name="Path 103731" d="M350.423,318.729l.7.329c.352-.749.688-1.534,1-2.335l-.721-.279C351.1,317.228,350.767,318,350.423,318.729Z" transform="translate(-333.701 -308.327)" fill="#5b5b6c"/>
        <path id="Path_103732" data-name="Path 103732" d="M348.321,359.565l.13.762a10.935,10.935,0,0,1,2.415-.175l.039-.771A11.66,11.66,0,0,0,348.321,359.565Z" transform="translate(-333.223 -318.089)" fill="#5b5b6c"/>
      </g>
      <path id="Path_103733" data-name="Path 103733" d="M303.569,113.687l3.14,13.382.019.083a53.459,53.459,0,0,0,.883,5.751c.754,3.646,2.093,8.28,4.381,11.574a13.132,13.132,0,0,0,1.12,1.414s1.989,7.638,4.131,14.236h0c1.262,3.888,2.576,7.414,3.571,8.8,0,0,12.688-2.384,9.648-9.971,0,0-4.316-9.892-7.716-17.184l0-.005c-.657-1.412-1.283-2.726-1.834-3.852l-3.889-8.876-1.863-4.253L309.5,111.882Z" transform="translate(-288.546 -98.404)" fill="#f9b587"/>
      <path id="Path_103734" data-name="Path 103734" d="M321.269,168.926c1.262,3.888,2.576,7.414,3.571,8.8,0,0,12.688-2.384,9.648-9.971,0,0-4.316-9.892-7.716-17.184.081.284,3.052,10.706,2.163,13.636C328.034,167.182,325.4,169.98,321.269,168.926Z" transform="translate(-292.572 -107.203)" fill="#f39568"/>
      <path id="Path_103735" data-name="Path 103735" d="M321.366,183.281a33.9,33.9,0,0,0,5.09,16c1.587,1.672,3.571,1.666,5.6.793,5.157-2.213,10.612-10.013,10.612-10.013l-7.431-15.709-.729-1.538c-4.2,1.145-8.448,4.132-10.916,6.088-1.334,1.058-2.146,1.813-2.146,1.813A18.691,18.691,0,0,0,321.366,183.281Z" transform="translate(-292.591 -112.262)" fill="#e4794b"/>
      <path id="Path_103736" data-name="Path 103736" d="M321.366,185.073a33.9,33.9,0,0,0,5.09,16c1.587,1.672,3.571,1.666,5.6.793-4.454-4.422-7.5-16.8-8.464-21.172-1.334,1.058-2.146,1.813-2.146,1.813A18.691,18.691,0,0,0,321.366,185.073Z" transform="translate(-292.591 -114.054)" fill="#2c2a40" opacity="0.2"/>
      <path id="Path_103737" data-name="Path 103737" d="M321.366,183.281c3.475-3.45,11.426-7.67,13.871-8.926l-.729-1.538c-6.466,1.765-13.062,7.9-13.062,7.9A18.691,18.691,0,0,0,321.366,183.281Z" transform="translate(-292.591 -112.262)" fill="#2c2a40"/>
      <path id="Path_103738" data-name="Path 103738" d="M299.527,271.632c9.669,12.52,50.05,13.325,50.05,13.325s-1.431-16.57,0-24.776c1.574-9.021,2.937-22.278,2.937-22.278,3.694,2.7,9.336,7.727,12.549,10.645,1.495,1.36,2.463,2.264,2.463,2.264a39.881,39.881,0,0,1,3.878-10.825c3.315-6.013,6.925-7.535,6.925-7.535l-1.691-2.209-12.257-16.007-13.171-10.912-2.267-1.877-10.365-6.64-4.243-2.719s-10.97,4.591-14.093,9.359-10.3,26.86-12.492,37.7c-2.846,14.066-6.263,25.973-7.622,30.512l0,.009C299.746,270.94,299.527,271.632,299.527,271.632Z" transform="translate(-287.627 -116.644)" fill="#e4794b"/>
      <path id="Path_103739" data-name="Path 103739" d="M299.527,281.5c9.669,12.52,50.05,13.325,50.05,13.325s-1.431-16.57,0-24.776c1.574-9.021,2.937-22.278,2.937-22.278,3.694,2.7,9.336,7.727,12.549,10.645,1.495,1.36,2.463,2.264,2.463,2.264a39.881,39.881,0,0,1,3.878-10.825s-14.154-7.669-20.2-14.368c0,0-7.542,20.859-10.138,31.37-3.36,13.6-14.757,19.155-25.215,18.46s-15.719-5.784-15.719-5.784l0,.008C299.746,280.811,299.527,281.5,299.527,281.5Z" transform="translate(-287.627 -126.515)" fill="#2c2a40" opacity="0.2"/>
      <path id="Path_103740" data-name="Path 103740" d="M355.007,205.936c2.394-.471,3.611-1.8,5.429-3.282l-1.25-1.035-11.056-8.777c-1.466.931-3.3,1.845-3.552,5.57C344.193,204.034,350.121,206.9,355.007,205.936Z" transform="translate(-297.868 -116.816)" fill="#2c2a40"/>
      <path id="Path_103741" data-name="Path 103741" d="M384.355,259.78c1.495,1.36,2.463,2.264,2.463,2.264,3.31-15.2,10.8-18.36,10.8-18.36l-1.691-2.209A29.491,29.491,0,0,0,384.355,259.78Z" transform="translate(-306.919 -127.876)" fill="#2c2a40"/>
      <g id="Group_43377" data-name="Group 43377" transform="translate(45.898 37.22)">
        <path id="Path_103742" data-name="Path 103742" d="M372.259,187.548s.216,6.032-6.736,7.269C365.523,194.817,367.262,186.923,372.259,187.548Z" transform="translate(-348.534 -152.823)" fill="#2c2a40"/>
        <path id="Path_103743" data-name="Path 103743" d="M358.535,165.85a60.923,60.923,0,0,0,10.987,12.43s14.487-7,9.725-18.489a20.016,20.016,0,0,0-4.547-6.96v0h0c-7.246-6.918-16.9-2.448-16.9-2.448C353.58,154.749,355.279,160.621,358.535,165.85Z" transform="translate(-346.207 -144.056)" fill="#e4794b"/>
        <path id="Path_103744" data-name="Path 103744" d="M380.411,153.968l0,0v0Z" transform="translate(-351.919 -145.195)" fill="#3e86aa"/>
        <path id="Path_103745" data-name="Path 103745" d="M359.49,166.99a60.923,60.923,0,0,0,10.987,12.43s14.487-7,9.725-18.489a20.015,20.015,0,0,0-4.547-6.96c.083.134,4.079,6.531,0,10.789C371.528,169.064,364.385,170.606,359.49,166.99Z" transform="translate(-347.161 -145.195)" fill="#2c2a40" opacity="0.2"/>
        <path id="Path_103746" data-name="Path 103746" d="M367.224,161.34s-3.787-19.588-15.9-18.7c-11.347.833-2.505,15.849-2.505,15.849S365.193,163.168,367.224,161.34Z" transform="translate(-343.987 -142.612)" fill="#2c2a40"/>
        <path id="Path_103747" data-name="Path 103747" d="M352.825,157.884s-5.2,1.035-4.712,5.824C348.113,163.708,352.516,161.1,352.825,157.884Z" transform="translate(-344.567 -146.085)" fill="#2c2a40"/>
        <g id="Group_43376" data-name="Group 43376" transform="translate(0 11.594)">
          <g id="Group_43375" data-name="Group 43375">
            <path id="Path_103748" data-name="Path 103748" d="M361.6,192.384l-1.9,6.779a2.412,2.412,0,0,1-1.836,1.857c-7.955,1.75-11.745-4.083-10.944-6.129,1.028-.365,18.738-6.031,21.96-12.836A17.734,17.734,0,0,1,361.6,192.384Z" transform="translate(-344.279 -163.176)" fill="#f9b587"/>
            <path id="Path_103749" data-name="Path 103749" d="M347.081,186.533a18.791,18.791,0,0,0,9.868,1.208c7.046-1.251,10.714-9.59,10.714-9.59a25.151,25.151,0,0,0-.406-10.9,13.114,13.114,0,0,0-1.974-4.045c-3.314-4.481-8.824-5.281-11.855-5.57a3.959,3.959,0,0,0-3.755,1.87l-1.329,2.173-.887,1.449a9.784,9.784,0,0,0-.516.957,10,10,0,0,0-.925,3.508l-.1,1.42a10.02,10.02,0,0,0-2.1,5.707l-.275,6.4A5.546,5.546,0,0,0,347.081,186.533Z" transform="translate(-343.532 -157.619)" fill="#f9b587"/>
            <path id="Path_103750" data-name="Path 103750" d="M357.491,167.367s5.637-2.131,6.841,2.533l-.881.674s-1.7-3.6-6.189-1.992Z" transform="translate(-346.655 -159.725)" fill="#2c2a40"/>
            <path id="Path_103751" data-name="Path 103751" d="M346.152,170.919a9.92,9.92,0,0,0-1.568,2.9c1.11-.231,3.035.012,6.266,1.978a7.845,7.845,0,0,0-3.013-3.137.8.8,0,0,1-.265-1.262l2.4-2.7a2.341,2.341,0,0,0-.774-1.367,14.7,14.7,0,0,0-2.017-1.344,9.962,9.962,0,0,0-.923,3.508Z" transform="translate(-343.771 -159.523)" fill="#f39568"/>
            <path id="Path_103752" data-name="Path 103752" d="M348.436,164.84a10.867,10.867,0,0,1,2.2,1.518l-.325,1.079a7.709,7.709,0,0,0-2.342-1.5.643.643,0,0,1-.387-.861l.006-.011A.618.618,0,0,1,348.436,164.84Z" transform="translate(-344.44 -159.243)" fill="#2c2a40"/>
            <path id="Path_103753" data-name="Path 103753" d="M345.675,179.6l9.777,3.212s-3.291,4.6-8.228,2.287C343.352,183.287,345.675,179.6,345.675,179.6Z" transform="translate(-343.863 -162.618)" fill="#fff"/>
            <path id="Path_103754" data-name="Path 103754" d="M348.488,193.694s6.139,1.818,12.81-4.921c0,0,.145,3.621-3.433,7.172-2.605,2.584-7.525,2.156-10.01,1.732a1.083,1.083,0,0,1-.756-1.616Z" transform="translate(-344.309 -164.704)" fill="#f39568"/>
            <path id="Path_103755" data-name="Path 103755" d="M371.818,180.714s3.241-2.6,5.16.044-2.881,9.711-6,6.632S371.818,180.714,371.818,180.714Z" transform="translate(-349.503 -162.611)" fill="#f9b587"/>
          </g>
          <path id="Path_103756" data-name="Path 103756" d="M357.386,171.736a2.647,2.647,0,0,1,2.784-.787,2.765,2.765,0,0,1,1.8,2.978S361.127,170.077,357.386,171.736Z" transform="translate(-346.683 -160.612)" fill="#2c2a40"/>
          <path id="Path_103757" data-name="Path 103757" d="M349.595,170.358s-.723-2.452-2.569-.666A1.838,1.838,0,0,1,349.595,170.358Z" transform="translate(-344.327 -160.216)" fill="#2c2a40"/>
          <path id="Path_103758" data-name="Path 103758" d="M349.621,161.643c0,.073-.168.345-.164.42,0,0,3.164-2.649,8.736-.5a17.344,17.344,0,0,1,8.3,7.424l2.111-1.738a13.117,13.117,0,0,0-1.974-4.045c-3.314-4.481-8.824-5.281-11.855-5.57a3.959,3.959,0,0,0-3.756,1.87Z" transform="translate(-344.88 -157.619)" fill="#f39568"/>
        </g>
        <path id="Path_103759" data-name="Path 103759" d="M370.221,178.043l1.83.833,2.669-2.394c.42-2.3-1.445-8.443-1.882-9.825-.236-.225-.622-.446-.895-.667,0,0-1.837,6.354.151,8.708Z" transform="translate(-349.602 -147.929)" fill="#2c2a40"/>
      </g>
      <path id="Path_103760" data-name="Path 103760" d="M307.633,130.868l.018.083a53.437,53.437,0,0,0,.883,5.751l9.411-3.861-1.863-4.253Z" transform="translate(-289.47 -102.203)" fill="#f39568"/>
      <path id="Path_103761" data-name="Path 103761" d="M324.4,215.022l7.449,6.652s-2.665,10.452-8.365,8.12C316.616,226.983,324.4,215.022,324.4,215.022Z" transform="translate(-292.431 -121.86)" fill="#2c2a40" opacity="0.2"/>
      <g id="Group_43379" data-name="Group 43379" transform="translate(0 0)">
        <g id="Group_43378" data-name="Group 43378">
          <rect id="Rectangle_17197" data-name="Rectangle 17197" width="35.393" height="23.435" transform="matrix(-0.937, 0.35, -0.35, -0.937, 41.354, 23.314)" fill="#2c2a40"/>
          <path id="Path_103762" data-name="Path 103762" d="M284.124,111.659l8.2,21.955,33.156-12.379-1.248-.354-39.164-11.122-.635,1.28v0Z" transform="translate(-284.124 -97.921)" fill="#2c2a40"/>
          <path id="Path_103763" data-name="Path 103763" d="M284.521,111.038l7.828,21.05,1-.375,11.9-16.859-20.1-5.1Z" transform="translate(-284.214 -97.921)" fill="#fff"/>
          <rect id="Rectangle_17198" data-name="Rectangle 17198" width="33.846" height="23.435" transform="matrix(-0.937, 0.35, -0.35, -0.937, 40.847, 21.955)" fill="#2c2a40"/>
        </g>
        <path id="Path_103764" data-name="Path 103764" d="M299.04,101.289l0-.005a2.159,2.159,0,0,1,1.51-.729,1.416,1.416,0,0,1,1.177-.875,1.5,1.5,0,0,1,.982.149c.261-.5.919-.8,1.277-.6,0,0,.087.037.236.106a1.186,1.186,0,0,1,.4-.569h0a1.822,1.822,0,0,1,1.826-.573s3.51,1.417,3.844,4.122.831,5.856-.423,5.406a2.349,2.349,0,0,1-1.025-1.184c.135,1.624.056,2.838-.755,2.548a3.027,3.027,0,0,1-1.257-1.682c.078,1.378-.059,2.335-.788,2.073-.659-.236-1.3-1.545-1.7-2.95.122,1.568.028,2.718-.764,2.434-.97-.348-1.248-2.526-1.926-4.289-.8-2.064-.98-.983-2.149-1.739l-1.05.392A2.36,2.36,0,0,1,299.04,101.289Z" transform="translate(-287.376 -95.273)" fill="#f9b587"/>
      </g>
      <path id="Path_103765" data-name="Path 103765" d="M438.769,224.721a6.9,6.9,0,0,1-3.006-4.031c-.133-.481-.289-.992-.468-1.493-.694-1.943-.138-6.107,0-7.773a16.268,16.268,0,0,1,1.666-5.2c.347-.347,2.429,1.133,1.6,3.273a6.851,6.851,0,0,0,.2,5.2c.43.685,2.373-.565,2.859-1.814s4.719-10.687,5.552-10.965,1.527-.069.972,2.359-3.192,6.663-2.845,7.842.971.209,1.18-.416,3.609-9.558,4.164-9.88,2.152-.878,1.319,2.9-3.419,8.4-3.262,9.232,3.7-8.38,4.684-8.9,1.717.416.937,2.706-2.866,6.732-3.041,7.233c-.148.423-.065.779.3.57s2.566-5.617,3.07-5.929,1.753.26.4,3.956-2.255,6.97-5.933,10.371c-2.271,2.1-3.384,3.371-5.518,3.058A16.1,16.1,0,0,1,438.769,224.721Z" transform="translate(-318.426 -118.805)" fill="#f9b587"/>
      <path id="Path_103766" data-name="Path 103766" d="M372.882,214.478s.907-10.006-6.95-12.089c-5.634-1.493-15.181,8.887-17.6,20.543-4.273,20.612,5.631,38.586,12.108,40.947,0,0,5.912-4.581,1.405-10.757,0,0-12.19-12.289-6.755-29.981,4.527-14.735,11.757-18.53,14.477-11.3Z" transform="translate(-298.491 -118.954)" fill="#2c2a40"/>
      <path id="Path_103767" data-name="Path 103767" d="M315.214,222.151l3.367-10.359s-.468-18.1,18.623-22.658a5.483,5.483,0,0,1-.253-1.911l.118-2.759C334.68,184.62,310.344,191.655,315.214,222.151Z" transform="translate(-291.048 -114.91)" fill="#2c2a40"/>
      <path id="Path_103768" data-name="Path 103768" d="M413.474,258.315a27.915,27.915,0,0,1,0-6.038,16.578,16.578,0,0,0-1.672-1.561C410.976,257.1,413.474,258.315,413.474,258.315Z" transform="translate(-313.123 -129.978)" fill="#f39568"/>
      <path id="Path_103769" data-name="Path 103769" d="M314.47,153.792a13.134,13.134,0,0,0,1.12,1.414s3.212-1.874,4.139-2.361A17.865,17.865,0,0,0,314.47,153.792Z" transform="translate(-291.025 -107.72)" fill="#f39568"/>
      <g id="Group_43380" data-name="Group 43380" transform="translate(74.881 188.704)">
        <path id="Path_103770" data-name="Path 103770" d="M381.048,345.326c1.724,1.628,3.119,5.436,4.024,8.522l0,.012c.735,2.5,1.145,4.529,1.145,4.529,1.532,1.666,5.028,1.187,10.648,1.8,5.057.55,8.6,4.066,12.371,5.58h0a10.284,10.284,0,0,0,1.264.424c2.242.589,3.823.221,4.683-.864.779-.98.968-2.55.522-4.53-.937-4.173-11.451-13.333-14.47-14.553a26.236,26.236,0,0,1-8.481-4.887c-3.585-2.952-7.239-3.154-7.968-2.048-.123.185-.308.479-.535.837C383.14,341.924,381.048,345.326,381.048,345.326Z" transform="translate(-381.048 -338.688)" fill="#b0b1ca"/>
        <path id="Path_103771" data-name="Path 103771" d="M385.206,340.144a8.067,8.067,0,0,1,4.631.639c2.151,1.249,5.2,4.164,8.465,5.691a64.5,64.5,0,0,1,12.772,8.884c3.26,3.054,5.18,7.859,4.233,9.438s-2.674,1.524-5.116.97a10.287,10.287,0,0,0,1.264.424c4.268,1.12,6.142-1.222,5.2-5.394s-11.451-13.333-14.47-14.553a26.235,26.235,0,0,1-8.481-4.887c-3.585-2.952-7.239-3.154-7.968-2.048C385.619,339.492,385.433,339.786,385.206,340.144Z" transform="translate(-381.994 -338.688)" fill="#2c2a40"/>
        <path id="Path_103772" data-name="Path 103772" d="M386.263,358.326c.735,2.5,1.145,4.529,1.145,4.529,1.532,1.666,5.028,1.187,10.648,1.8,5.057.55,8.6,4.066,12.371,5.58h0a10.3,10.3,0,0,0,1.264.424c2.242.589,3.823.221,4.683-.864l.279-1.641a8.887,8.887,0,0,1-8.049-.624c-3.294-1.911-4.779-3.775-7.423-4.512a6.855,6.855,0,0,0-.628-4.164,15.9,15.9,0,0,1-.82,3.82,8.753,8.753,0,0,0-1.678-.073C393.762,362.807,387.058,360.74,386.263,358.326Z" transform="translate(-382.234 -343.154)" fill="#2c2a40" opacity="0.2"/>
      </g>
    </g>
  </g>
</svg>
