<svg xmlns="http://www.w3.org/2000/svg" width="82" height="82" viewBox="0 0 82 82">
  <g id="Group_42438" data-name="Group 42438" transform="translate(-407 -196.5)">
    <path id="Path_98978" data-name="Path 98978" d="M41,0A41,41,0,1,1,0,41,41,41,0,0,1,41,0Z" transform="translate(407 196.5)" fill="#d2814b"/>
    <g id="Group_41099" data-name="Group 41099" transform="translate(-295.761 -253.559)">
      <g id="Layer_2" data-name="Layer 2" transform="translate(740.139 475.43)">
        <g id="Cursor">
          <path id="Path_94123" data-name="Path 94123" d="M746.479,475.436a5.494,5.494,0,0,0-3.528,9.45,1.062,1.062,0,0,0,1.745-.5,1.035,1.035,0,0,0-.266-1.01,3.382,3.382,0,0,1-1.056-2.485,3.419,3.419,0,0,1,3.17-3.338,3.381,3.381,0,0,1,3.382,2.236.993.993,0,0,0,.765.668h.09a1.041,1.041,0,0,0,1.141-1.378A5.492,5.492,0,0,0,746.479,475.436Z" transform="translate(-741.261 -475.43)" fill="#fff"/>
          <path id="Path_94124" data-name="Path 94124" d="M758.857,486.9l-11.077-6.454a1.1,1.1,0,0,0-1.652,1.1l1.75,12.7a1.107,1.107,0,0,0,1.69.774.96.96,0,0,0,.19-.161l3.055-3.2,3.288,4.9a1.057,1.057,0,0,0,1.758-1.174l-3.28-4.9,4.122-1.6a1.013,1.013,0,0,0,.219-.114,1.107,1.107,0,0,0-.063-1.881Zm-3.279.934-2.536.993a3.209,3.209,0,0,0-1.167.786l-1.885,1.974a.211.211,0,0,1-.3,0,.207.207,0,0,1-.062-.123l-1.065-7.718a.211.211,0,0,1,.317-.216l6.728,3.93a.212.212,0,0,1-.03.38Z" transform="translate(-741.733 -475.902)" fill="#fff"/>
        </g>
      </g>
      <g id="Layer_2-2" data-name="Layer 2-2" transform="translate(729.704 485.561)">
        <g id="Avatar">
          <path id="Path_94125" data-name="Path 94125" d="M749.491,504.45l-.542-2.565a5.067,5.067,0,0,0-2.3-3.284l-3.25-2.012a4.673,4.673,0,0,0,.91-2.307l.258-2.43a4.7,4.7,0,0,0-4.177-5.175,4.578,4.578,0,0,0-.5-.027h-.523a4.7,4.7,0,0,0-4.7,4.7,4.787,4.787,0,0,0,.026.5l.262,2.43a4.691,4.691,0,0,0,.908,2.307l-3.25,2.012a5.072,5.072,0,0,0-2.306,3.284l-.542,2.565a2.76,2.76,0,0,0,2.132,3.269,2.817,2.817,0,0,0,.57.059H746.79a2.756,2.756,0,0,0,2.7-3.33Zm-12.048-14.841a2.569,2.569,0,0,1,1.924-.845h.52a2.586,2.586,0,0,1,2.589,2.583,2.425,2.425,0,0,1-.015.282l-.255,2.426a2.59,2.59,0,0,1-5.151,0l-.258-2.426A2.538,2.538,0,0,1,737.443,489.609Zm9.85,15.8a.623.623,0,0,1-.5.241H732.465a.626.626,0,0,1-.5-.241.642.642,0,0,1-.144-.52l.542-2.565a3,3,0,0,1,1.36-1.922l3.858-2.392a4.674,4.674,0,0,0,4.1,0l3.858,2.392a2.993,2.993,0,0,1,1.348,1.919l.542,2.565a.637.637,0,0,1-.131.542Z" transform="translate(-729.704 -486.651)" fill="#fff"/>
        </g>
      </g>
      <rect id="Rectangle_15009" data-name="Rectangle 15009" width="4.938" height="1.975" rx="0.988" transform="translate(740.137 501.531)" fill="#fff"/>
    </g>
  </g>
</svg>
