<svg xmlns="http://www.w3.org/2000/svg" width="82" height="82" viewBox="0 0 82 82">
  <g id="Group_42440" data-name="Group 42440" transform="translate(-407 -196.5)">
    <path id="Path_98978" data-name="Path 98978" d="M41,0A41,41,0,1,1,0,41,41,41,0,0,1,41,0Z" transform="translate(407 196.5)" fill="#d288e3"/>
    <g id="Group_41100" data-name="Group 41100" transform="translate(-294.314 -253.917)">
      <g id="Layer_2" data-name="Layer 2" transform="translate(743.071 483.475)">
        <g id="Menu">
          <path id="Path_94127" data-name="Path 94127" d="M754.122,483.934H745.34a1.2,1.2,0,0,0,0,2.309h8.783a1.2,1.2,0,0,0,0-2.309Zm0,5.079H745.34a1.161,1.161,0,0,0-.872,1.339,1.123,1.123,0,0,0,.872.97h8.783a1.163,1.163,0,0,0,.863-1.347A1.116,1.116,0,0,0,754.122,489.013Z" transform="translate(-744.455 -483.934)" fill="#fff"/>
          <path id="Rectangle_15008" data-name="Rectangle 15008" d="M749.929,494.932h4.151a1.321,1.321,0,0,1,1.245,1.385h0a1.32,1.32,0,0,1-1.245,1.385h-4.151a1.32,1.32,0,0,1-1.245-1.385h0A1.321,1.321,0,0,1,749.929,494.932Z" transform="translate(-744.778 -484.776)" fill="#fff"/>
        </g>
      </g>
      <g id="Layer_2-2" data-name="Layer 2-2" transform="translate(726.393 477.925)">
        <g id="Avatar">
          <path id="Path_94126" data-name="Path 94126" d="M754.5,477.934H738.88a3.733,3.733,0,0,0-3.731,3.732v1.782a4.81,4.81,0,0,0-3.684,4.672,4.567,4.567,0,0,0,.027.509l.268,2.483a4.825,4.825,0,0,0,.933,2.365l-3.323,2.059a5.181,5.181,0,0,0-2.364,3.351l-.555,2.633a2.831,2.831,0,0,0,2.179,3.343,3.207,3.207,0,0,0,.591.055h14.645a2.824,2.824,0,0,0,2.826-2.817,2.565,2.565,0,0,0-.064-.591l-.1-.489H754.5a3.732,3.732,0,0,0,3.731-3.731V481.666A3.733,3.733,0,0,0,754.5,477.934Zm-20.2,8.4a2.6,2.6,0,0,1,.84-.619,2.627,2.627,0,0,1,1.127-.249h.535a2.475,2.475,0,0,1,.646.082,2.636,2.636,0,0,1,1.995,2.558,2.867,2.867,0,0,1-.009.287l-.268,2.483a2.634,2.634,0,0,1-1.718,2.208,2.584,2.584,0,0,1-1.2.147,2.529,2.529,0,0,1-1.109-.388,2.606,2.606,0,0,1-1.237-1.967l-.268-2.483A2.59,2.59,0,0,1,734.309,486.338Zm10.213,15.623a.673.673,0,0,1-.139.555V502.5a.617.617,0,0,1-.517.239H729.221a.617.617,0,0,1-.517-.239.663.663,0,0,1-.148-.536l.554-2.622a3.065,3.065,0,0,1,1.4-1.968l3.943-2.447a4,4,0,0,0,.7.268,4.857,4.857,0,0,0,3.491-.268l3.942,2.447a3.117,3.117,0,0,1,1.174,1.339,3.013,3.013,0,0,1,.211.629l.352,1.68Zm11.4-4.673a1.422,1.422,0,0,1-1.422,1.422h-8.476a5.14,5.14,0,0,0-2.309-3.176l-3.324-2.059a4.805,4.805,0,0,0,.932-2.365l.268-2.483a4.817,4.817,0,0,0-4.137-5.273v-1.69a1.423,1.423,0,0,1,1.422-1.423H754.5a1.423,1.423,0,0,1,1.422,1.423Z" transform="translate(-726.392 -477.934)" fill="#fff"/>
        </g>
      </g>
      <rect id="Rectangle_15008-2" data-name="Rectangle 15008" width="5.095" height="2.038" rx="1.019" transform="translate(737.219 499.576)" fill="#fff"/>
    </g>
  </g>
</svg>
