<svg xmlns="http://www.w3.org/2000/svg" width="53" height="51" viewBox="0 0 53 51"><defs><style>.a{fill:rgba(3,169,244,0.07);}.b{fill:#0483bc;}</style></defs><g transform="translate(-152 -1252)"><rect class="a" width="53" height="51" rx="6" transform="translate(152 1252)"/><g transform="translate(167 1266)"><path class="b" d="M18.876,2.251h-.865V1.126a1.126,1.126,0,1,0-2.251,0V2.251H6.754V1.126a1.126,1.126,0,0,0-2.251,0V2.251H3.638A3.638,3.638,0,0,0,0,5.89V18.876a3.638,3.638,0,0,0,3.638,3.638H18.876a3.638,3.638,0,0,0,3.638-3.638V5.89A3.638,3.638,0,0,0,18.876,2.251Zm1.387,16.624a1.387,1.387,0,0,1-1.387,1.387H3.638a1.387,1.387,0,0,1-1.387-1.387V5.89A1.387,1.387,0,0,1,3.638,4.5H4.5V5.629a1.126,1.126,0,0,0,2.251,0V4.5H15.76V5.629a1.126,1.126,0,1,0,2.251,0V4.5h.865A1.387,1.387,0,0,1,20.263,5.89Z"/><circle class="b" cx="1.126" cy="1.126" r="1.126" transform="translate(10.131 10.357)"/><circle class="b" cx="1.126" cy="1.126" r="1.126" transform="translate(10.131 14.409)"/><circle class="b" cx="1.126" cy="1.126" r="1.126" transform="translate(6.079 14.409)"/><g transform="translate(14.184 10.357)"><circle class="b" cx="1.126" cy="1.126" r="1.126"/><circle class="b" cx="1.126" cy="1.126" r="1.126" transform="translate(0 4.053)"/></g></g></g></svg>