<svg xmlns="http://www.w3.org/2000/svg" width="53" height="51" viewBox="0 0 53 51"><defs><style>.a{fill:#fff4f3;}.b{fill:#ff5663;}</style></defs><g transform="translate(-152 -3386)"><rect class="a" width="53" height="51" rx="6" transform="translate(152 3386)"/><g transform="translate(164.998 3398)"><path class="b" d="M31.808,5.977,30.2,4.374,31.832,2.6a.811.811,0,0,0-.6-1.359h-6.3V.81a.81.81,0,1,0-1.62,0v9.449H20.394a.81.81,0,0,0-.81.81v5.522H12.929a.81.81,0,0,0-.81.81v3.726H5.464a.81.81,0,0,0-.81.81v4.9a.81.81,0,0,0,.81.81H28a.81.81,0,0,0,.81-.81V11.069a.81.81,0,0,0-.81-.81h-3.06v-2.9h6.3A.811.811,0,0,0,31.808,5.977ZM6.274,22.746h5.845v3.278H6.274Zm7.465-4.535h5.845v7.814H13.739V18.211Zm13.447,7.814H21.2V11.878h5.983ZM28.5,4.971l.772.77H24.936V2.864h4.453l-.908.985A.81.81,0,0,0,28.5,4.971Z" transform="translate(-4.401)"/><path class="b" d="M1.127,71.3a23.892,23.892,0,0,0,7.618-5.14A23.932,23.932,0,0,0,13.163,60.1l.582,1.174a.81.81,0,1,0,1.451-.72L13.866,57.87a.811.811,0,0,0-.892-.433l-2.881.606a.81.81,0,0,0,.166,1.6,10.4,10.4,0,0,0,1.464-.29A22.319,22.319,0,0,1,7.6,65.019,22.28,22.28,0,0,1,.5,69.813.81.81,0,0,0,1.127,71.3Z" transform="translate(0 -54.319)"/></g></g></svg>