<svg xmlns="http://www.w3.org/2000/svg" width="38.628" height="38.628" viewBox="0 0 38.628 38.628">
  <g id="checked_1_" data-name="checked (1)" transform="translate(0.25 0.25)">
    <g id="Group_21214" data-name="Group 21214" transform="translate(11.231 7.807)">
      <g id="Group_21213" data-name="Group 21213">
        <path id="Path_38339" data-name="Path 38339" d="M143.326,64.656a1.117,1.117,0,0,0-1.58,0l-13.4,13.368-4.836-5.252a1.117,1.117,0,0,0-1.644,1.513l5.624,6.107a1.116,1.116,0,0,0,.8.36h.024a1.118,1.118,0,0,0,.789-.326l14.226-14.189a1.117,1.117,0,0,0,0-1.581Z" transform="translate(-121.568 -64.327)" fill="#0ea66e" stroke="#0ea66e" stroke-width="1.5"/>
      </g>
    </g>
    <g id="Group_21216" data-name="Group 21216">
      <g id="Group_21215" data-name="Group 21215">
        <path id="Path_38340" data-name="Path 38340" d="M36.691,17.627a1.437,1.437,0,0,0-1.437,1.437,16.19,16.19,0,1,1-16.19-16.19,1.437,1.437,0,0,0,0-2.874A19.064,19.064,0,1,0,38.128,19.064a1.437,1.437,0,0,0-1.437-1.437Z" fill="#0ea66e" stroke="#0ea66e" stroke-width="0.5"/>
      </g>
    </g>
  </g>
</svg>
