<svg xmlns="http://www.w3.org/2000/svg" xmlns:xlink="http://www.w3.org/1999/xlink" width="82.109" height="91" viewBox="0 0 82.109 91">
  <defs>
    <linearGradient id="linear-gradient" x1="0.5" x2="-0.086" y2="1.256" gradientUnits="objectBoundingBox">
      <stop offset="0" stop-color="#15bf81"/>
      <stop offset="1" stop-color="#0b6041"/>
    </linearGradient>
  </defs>
  <path id="Union_1" data-name="Union 1" d="M14194.973,7068h-66.941a6.928,6.928,0,0,1-1.08-.1.033.033,0,0,1-.017,0,.08.08,0,0,1-.027,0,.121.121,0,0,1-.028,0,.028.028,0,0,1-.017,0c-.01,0-.021,0-.031,0a.025.025,0,0,0-.013,0l-.034-.007a.028.028,0,0,1-.012,0,.117.117,0,0,1-.031-.005.027.027,0,0,0-.013,0l-.03-.008-.013,0-.034-.007s-.008,0-.009,0l-.036-.007h-.007c-.014,0-.025-.007-.036-.01h-.008a.286.286,0,0,0-.036-.01h-.006l-.038-.01s0,0,0,0a.164.164,0,0,1-.039-.01h0c-.14-.034-.279-.072-.42-.117l-.039-.012,0,0c-.013,0-.021-.008-.033-.01a.015.015,0,0,0-.01,0c-.01-.005-.02-.007-.031-.013l-.013,0a.11.11,0,0,0-.026-.01.046.046,0,0,0-.016,0,.089.089,0,0,0-.028-.01.03.03,0,0,0-.015,0,.122.122,0,0,0-.023-.01l-.02-.007-.023-.007-.018-.008-.024-.007-.02-.007c-.007,0-.014-.007-.021-.01l-.02-.007-.023-.007-.021-.007-.021-.01-.02-.007-.021-.008a.085.085,0,0,0-.019-.01l-.022-.007a.1.1,0,0,0-.021-.009l-.02-.007a.092.092,0,0,1-.022-.01l-.02-.007a.037.037,0,0,1-.019-.01l-.09-.036-.015-.007-.026-.013c-.006,0-.007,0-.013,0l-.029-.012a.016.016,0,0,0-.011-.005l-.032-.014s0,0-.007,0l-.032-.015s0,0-.009,0a.169.169,0,0,0-.032-.017s0,0-.007,0a.35.35,0,0,1-.033-.017s0,0,0,0c-.075-.034-.147-.071-.22-.109-.119-.063-.234-.129-.348-.2l0,0a.319.319,0,0,0-.031-.017l-.009-.007-.022-.012a.058.058,0,0,0-.015-.01.063.063,0,0,0-.018-.01.085.085,0,0,1-.019-.015.022.022,0,0,1-.01,0c-.159-.1-.313-.207-.465-.321,0,0,0,0,0,0l-.023-.017s-.008-.008-.012-.009l-.015-.013a.175.175,0,0,1-.027-.02s0,0,0,0l-.01-.007s-.01-.007-.015-.012-.008-.007-.013-.01l-.019-.014s-.012-.01-.02-.017l-.013-.01-.029-.022,0,0a7.158,7.158,0,0,1-2.627-4.791v0a.359.359,0,0,1,0-.053v0c0-.037-.006-.073-.013-.11v-.007c0-.017,0-.031,0-.046a.018.018,0,0,1,0-.012c0-.014,0-.029,0-.046a.017.017,0,0,0,0-.007c0-.037-.006-.073-.006-.107,0,0,0-.009,0-.012v-.042s0-.01,0-.017a.173.173,0,0,0,0-.039v-.015c0-.034,0-.07,0-.1v-.053a.047.047,0,0,1,0-.02v-3.395a28.557,28.557,0,0,1,18.423-26.726,27.075,27.075,0,0,1,5.083-1.395,4.324,4.324,0,0,1,.921-1.647,17.277,17.277,0,0,1,5.874-4.21,15.564,15.564,0,0,1-4.854-8.567,6.194,6.194,0,0,1-4.91-5.991.526.526,0,0,1,0-.068v-11.9a19.1,19.1,0,0,1,3.7-11.3l0,0c.03-.046.067-.092.1-.139.012-.014.021-.029.034-.043s0,0,0-.005.021-.029.033-.043.021-.029.034-.044,0,0,0,0a.506.506,0,0,1,.034-.041s0,0,0,0l.031-.042s0,0,0-.007.019-.024.031-.039a.007.007,0,0,0,0,0c.013-.012.021-.027.032-.039l.007-.01c.011-.011.019-.024.029-.036a.01.01,0,0,0,0-.007c.013-.012.02-.025.032-.037s0-.007.007-.012a.354.354,0,0,1,.029-.034c0-.005,0-.007.008-.01a.255.255,0,0,1,.026-.037.036.036,0,0,0,.01-.012.378.378,0,0,0,.026-.032.041.041,0,0,0,.009-.012.335.335,0,0,0,.028-.034.05.05,0,0,1,.011-.012c.008-.012.018-.022.026-.034a.027.027,0,0,0,.007-.01.242.242,0,0,0,.029-.034c0-.005.008-.008.01-.012s.018-.022.026-.032.008-.01.013-.015.017-.02.026-.031a.075.075,0,0,1,.01-.012.364.364,0,0,1,.026-.032.17.17,0,0,1,.013-.015c.007-.009.017-.019.023-.029l.015-.017a.189.189,0,0,1,.024-.029.077.077,0,0,0,.012-.015.336.336,0,0,0,.025-.029.075.075,0,0,1,.017-.017.216.216,0,0,1,.021-.027l.012-.015c.01-.009.017-.019.026-.029a.17.17,0,0,1,.013-.015.277.277,0,0,1,.026-.029.055.055,0,0,1,.012-.018.3.3,0,0,0,.024-.026c0-.007.012-.012.017-.02a.252.252,0,0,0,.022-.026c0-.005.01-.01.014-.015s.017-.02.024-.027a.1.1,0,0,0,.017-.02c.008-.007.015-.017.021-.024s.013-.015.02-.02a.165.165,0,0,1,.021-.024l.021-.022.017-.022a.086.086,0,0,0,.017-.02l.024-.024a.145.145,0,0,0,.014-.017c.008-.01.019-.017.025-.027a.1.1,0,0,0,.014-.017.116.116,0,0,0,.024-.027.1.1,0,0,0,.02-.019l.022-.022a.137.137,0,0,1,.016-.02.264.264,0,0,1,.021-.024.211.211,0,0,0,.021-.022l.021-.022.017-.017a.218.218,0,0,1,.021-.024.245.245,0,0,1,.02-.02c.008-.007.015-.017.021-.024l.015-.015a.237.237,0,0,1,.027-.027.083.083,0,0,1,.014-.017l.027-.027a.213.213,0,0,0,.023-.026l.015-.015c.011-.009.021-.02.027-.026l.014-.014c.013-.015.024-.027.036-.04s0,0,.006,0,.023-.024.036-.037l0,0,.083-.083a18.876,18.876,0,0,1,26.8,0l.766.768a.606.606,0,0,0,.063.019c.006,0,.01,0,.012.005.044.015.09.027.133.042h0a9.7,9.7,0,0,1,6.667,8.562V6993s0,.01,0,.014a.147.147,0,0,0,0,.036v.01c0,.014,0,.026,0,.041v.005c0,.014,0,.029,0,.043v.005c.007.148.013.3.013.444v15.341c0,.182-.008.362-.024.542,0,0,0,.008,0,.012v.015a6.169,6.169,0,0,1-.174.984.019.019,0,0,1,0,.012.12.12,0,0,0,0,.013c-.012.039-.021.078-.034.116a.047.047,0,0,1,0,.02c0,.012-.008.021-.01.034s0,.008,0,.01a6.407,6.407,0,0,1-.486,1.181.009.009,0,0,0,0,.007.29.29,0,0,1-.02.032c0,.012-.012.024-.017.036s0,.008-.007.01c-.08.144-.162.279-.252.416-.065.1-.136.194-.205.289l0,0c-.011.012-.019.024-.029.037a.209.209,0,0,1-.015.021l-.011.015a.273.273,0,0,1-.028.031.051.051,0,0,1-.008.014l-.028.034a.044.044,0,0,1-.007.01l-.024.029c0,.007-.012.015-.017.022l-.015.015c-.051.063-.1.124-.157.185l-.118.129-.029.027a.009.009,0,0,1,0,.007c-.126.131-.257.255-.395.375v0c-.028.022-.052.044-.078.066l0,0s0,0,0,0l-.036.029-.007.008a.445.445,0,0,0-.036.029s-.006,0-.008,0a.4.4,0,0,1-.032.024s-.007.007-.009.01a.29.29,0,0,0-.031.024c0,.005-.012.009-.018.015a.077.077,0,0,0-.019.015.205.205,0,0,0-.033.024l-.008.007c-.152.115-.312.224-.474.326a5.831,5.831,0,0,1-.8.416c-.026.012-.053.024-.08.034,0,0,0,0-.007,0a.19.19,0,0,0-.031.012l-.039.015s-.007,0-.01,0-.033.012-.048.019,0,0,0,0l-.162.058s0,0,0,0a.223.223,0,0,0-.048.017l-.013,0-.046.017a.038.038,0,0,0-.011,0c-.014,0-.025.009-.036.012l-.025.007a.154.154,0,0,1-.031.01l-.021.007c-.013,0-.024.007-.037.012l-.023.007c-.013,0-.023.007-.037.009l-.021.007-.037.01a.12.12,0,0,1-.016,0c-.018,0-.031.007-.046.013l0,0c-.026.007-.054.012-.079.02-.063.017-.126.032-.189.043l-.067.015c-.029.146-.058.292-.093.435a.087.087,0,0,1,0,.022c0,.017-.007.034-.012.051s-.007.034-.013.051a.16.16,0,0,1,0,.022.628.628,0,0,1-.017.068.278.278,0,0,1-.008.029c0,.013-.007.027-.009.042s-.006.024-.01.037a.067.067,0,0,0,0,.023.094.094,0,0,0,0,.022.354.354,0,0,0-.017.061.061.061,0,0,1-.006.022c-.008.022-.012.046-.019.068s-.008.027-.01.042,0,.02-.007.027a15.891,15.891,0,0,1-.685,2c0,.012-.01.021-.014.034s-.011.022-.015.033-.018.04-.027.061c0,0,0,.01-.008.018s-.017.039-.023.058-.007.018-.013.025-.017.036-.023.056a.088.088,0,0,1-.01.019.545.545,0,0,1-.026.063c-.006.007-.007.017-.013.024s-.017.039-.026.058a.062.062,0,0,1,0,.012c-.012.024-.021.049-.034.073,0,0,0,.007,0,.009s-.011.02-.015.031c-.019.039-.039.081-.059.119,0,.005,0,.008,0,.01-.011.024-.023.049-.035.073v0c-.012.024-.027.051-.038.075,0,0,0,0,0,.007-.026.051-.051.1-.078.153,0,0,0,0,0,0-.068.136-.139.268-.208.4-.013.02-.022.039-.034.059a.255.255,0,0,0-.015.026c0,.01-.012.022-.02.035s-.024.043-.038.068a.053.053,0,0,0-.008.017.258.258,0,0,1-.024.039.183.183,0,0,1-.017.029c-.007.012-.015.027-.022.039s-.02.034-.028.054a.075.075,0,0,0-.012.019c-.026.047-.054.09-.079.134a.07.07,0,0,1-.011.017.313.313,0,0,1-.031.051c-.149.25-.307.493-.47.734l0,0a.352.352,0,0,0-.025.042.335.335,0,0,0-.027.036.137.137,0,0,0-.017.027l-.092.128c-.118.17-.242.335-.37.5a.006.006,0,0,1,0,0c-.015.022-.031.042-.046.063l-.007.007-.048.061s-.006,0-.006.007c-.036.045-.072.089-.108.136,0,0,0,0,0,0l-.046.059a.177.177,0,0,1-.015.017c-.013.017-.026.031-.039.046a.073.073,0,0,1-.017.021l-.036.044c0,.007-.013.015-.018.022s-.026.029-.038.043l-.015.02c-.02.02-.036.042-.053.061a.174.174,0,0,1-.013.015c-.014.014-.026.032-.04.048s-.015.017-.022.024-.021.024-.031.037a.228.228,0,0,0-.024.029.419.419,0,0,0-.03.034c-.008.01-.018.017-.025.027l-.031.036-.021.025a.4.4,0,0,0-.037.041c-.009.01-.019.02-.028.032s-.029.031-.044.046l-.024.029c-.009.01-.021.022-.03.032a.226.226,0,0,1-.025.027l-.029.034a.287.287,0,0,1-.028.027.439.439,0,0,1-.033.036.175.175,0,0,0-.021.024.276.276,0,0,0-.036.039c-.008.007-.016.012-.022.019s-.035.039-.056.061c0,0-.008,0-.009.01s-.032.032-.047.048a.194.194,0,0,0-.021.02.419.419,0,0,1-.039.039l-.021.022-.037.037-.022.022-.039.041a.122.122,0,0,0-.019.02c-.041.039-.08.075-.12.114a.057.057,0,0,1-.013.015.532.532,0,0,1-.048.044.092.092,0,0,1-.018.017l-.043.042a.159.159,0,0,1-.019.017c-.016.015-.029.027-.044.042l-.018.017-.056.051,0,.005c-.022.02-.042.039-.062.058,0,0-.006,0-.008,0l-.056.051,0,0a16.962,16.962,0,0,1,5.9,4.206,4.478,4.478,0,0,1,.921,1.647,30.758,30.758,0,0,1,5,1.354.236.236,0,0,0,.081.041l.079.029c.009,0,.017.007.022.009a.544.544,0,0,1,.061.025.063.063,0,0,1,.02,0c.026.013.054.022.08.032a.009.009,0,0,0,.008,0l.073.029.015.007c.025.01.049.017.071.027a.037.037,0,0,0,.014,0c.027.013.054.022.08.035h.008c.024.01.047.02.074.03l.015.007.077.029s0,0,0,0l.084.035a.007.007,0,0,1,0,0,.77.77,0,0,0,.078.032s.007,0,.009,0c.057.022.111.046.168.07h0l.082.035,0,0,.17.073.256.114a28.518,28.518,0,0,1,14.9,15.649c0,.008.007.015.009.022s.013.034.02.049l.015.041a.083.083,0,0,1,.01.025c.021.053.041.106.063.16a.07.07,0,0,0,0,.019l.022.053s0,0,0,.005a1.017,1.017,0,0,0,.037.1l.007.024c.006.012.011.026.016.039a.435.435,0,0,1,.017.048.159.159,0,0,1,.01.024,28.935,28.935,0,0,1,.923,3.03c.08.328.155.656.223.989.06.292.118.583.169.88q.177,1.009.283,2.041a.082.082,0,0,0,0,.022c0,.012,0,.026,0,.039s.006.036.008.056v.007c.012.119.021.24.034.362,0,.056.01.112.012.166.01.121.02.245.026.367.013.182.024.362.031.544.018.315.025.631.029.947,0,.049,0,.092,0,.139,0,.078,0,.158,0,.235v3.324c0,.129-.007.257-.014.386,0,.042,0,.081-.008.122-.007.09-.016.177-.026.268,0,0,0,.012,0,.02s0,.017,0,.024,0,.027,0,.039a.013.013,0,0,1,0,.01,6.955,6.955,0,0,1-.338,1.445s0,.008,0,.01a.039.039,0,0,0,0,.014c0,.005,0,.013-.008.02a.3.3,0,0,1-.013.029v.007c-.064.178-.136.35-.212.52-.006.015-.013.027-.017.039s0,0,0,0c-.014.031-.028.066-.043.1a.1.1,0,0,0-.012.027.022.022,0,0,0-.008.014.372.372,0,0,1-.019.035s0,0,0,0v0c-.1.194-.2.382-.312.566,0,0,0,0,0,0a.257.257,0,0,1-.021.032.064.064,0,0,1-.01.017.011.011,0,0,1,0,.007c-.023.042-.05.083-.076.124h0c-.018.027-.037.054-.054.078l-.007.01a.019.019,0,0,1-.006.01,7.351,7.351,0,0,1-1.225,1.388s-.006,0-.006,0-.023.02-.035.032,0,0-.007,0-.024.02-.037.032-.01.008-.014.012l-.026.022-.016.012a.29.29,0,0,1-.031.024l-.007.007a.33.33,0,0,1-.041.034l0,0a7.208,7.208,0,0,1-1.471.916l-.008,0c-.017.007-.034.018-.051.024l-.02.007a.125.125,0,0,1-.026.012c-.165.073-.331.142-.5.2-.14.048-.282.094-.424.136-.006,0-.01,0-.016,0l-.023.007a.048.048,0,0,1-.018,0,.044.044,0,0,1-.017,0l-.023.007h0a6.87,6.87,0,0,1-.927.185s0,0,0,0l-.029,0-.014,0-.024,0-.039,0h0c-.012,0-.026,0-.039,0h0a.273.273,0,0,1-.041,0h0c-.209.021-.421.034-.634.036Zm-7.256-12.456v9.657h7.256a4.369,4.369,0,0,0,4.346-4.366v-3.287a25.775,25.775,0,0,0-15.611-23.681l-13.916,22.2a10.244,10.244,0,0,1-2.987,3.013c-.017.01-.033.02-.051.032a9.741,9.741,0,0,1-5.176,1.5h-.039a9.75,9.75,0,0,1-8.18-4.468c-.016-.024-.03-.051-.048-.075l-6.225-9.944a1.375,1.375,0,0,1-.225-.753,1.416,1.416,0,0,1,.649-1.181c.02-.012.039-.024.058-.034a1.415,1.415,0,0,1,.669-.183h.035a1.388,1.388,0,0,1,1.172.654l6.234,9.935a6.809,6.809,0,0,0,2.117,2.125c.049.034.1.065.148.095a6.865,6.865,0,0,0,3.582,1.016h.028a6.954,6.954,0,0,0,5.74-3.059c.039-.058.077-.119.116-.177l13.6-21.67a24.463,24.463,0,0,0-2.5-.61,4.563,4.563,0,0,1-.464.906c-.013.02-2.308,3.146-12.948,19.908a4.276,4.276,0,0,1-1.3,1.322c-.058.037-.115.07-.177.1a4.136,4.136,0,0,1-2.041.544h-.051a4.225,4.225,0,0,1-3.427-1.8c-.031-.044-.06-.088-.089-.132-.011-.015-.018-.026-.027-.039-13.564-21.393-12.906-19.439-13.4-20.814-.263.061-1.174.214-2.488.61l3.866,6.168a1.426,1.426,0,0,1,.21.746,1.4,1.4,0,0,1-.657,1.2l-.029.017a1.351,1.351,0,0,1-.7.195h-.034a1.388,1.388,0,0,1-1.085-.544c-.018-.022-.031-.044-.048-.068s-.02-.031-.029-.046l-4.211-6.686a25.785,25.785,0,0,0-15.59,23.681v3.287a4.344,4.344,0,0,0,4.333,4.357h7.269v-9.648a1.4,1.4,0,1,1,2.793,0v9.648h46.726v-9.648a1.4,1.4,0,1,1,2.8,0Zm-28.595-5.895,1.232,1.937a1.365,1.365,0,0,0,.446.447,1.409,1.409,0,0,0,.721.216h.036a1.415,1.415,0,0,0,1.112-.556l.014-.022a.79.79,0,0,0,.061-.085l1.225-1.937-1.539-4.465h-1.771Zm5.869-5.637.9,2.6,2.1-3.288a5.78,5.78,0,0,1-1.873-.865Zm-9.879-.683,2.1,3.288.89-2.6-1.124-1.548A5.612,5.612,0,0,1,14155.112,7043.331Zm4.241-2.371,1.022,1.417h2.35l1.022-1.417-2.2-1.363Zm-11.843-11.307a1.707,1.707,0,0,0-.405,1.091,1.657,1.657,0,0,0,.263.884l.01.022,5.517,8.263c.015.019.026.039.041.061l.021.029a.162.162,0,0,1,.017.022,1.53,1.53,0,0,0,1.192.6h.024a1.536,1.536,0,0,0,.7-.166.1.1,0,0,0,.027-.012c.023-.012.048-.026.072-.041a.262.262,0,0,1,.036-.02c2.2-1.395,3.329-2.106,4.189-2.636l-6.336-5.64a6.506,6.506,0,0,1-2.18-4.833c0-.075,0-.15,0-.226A13.583,13.583,0,0,0,14147.511,7029.652Zm24.893-2.422a6.559,6.559,0,0,1-2.168,4.876l-6.348,5.64,4.192,2.624a1.519,1.519,0,0,0,.828.245,1.547,1.547,0,0,0,1.306-.7l5.507-8.275.01-.009a1.6,1.6,0,0,0,.264-.882,1.654,1.654,0,0,0-.413-1.093,13.353,13.353,0,0,0-3.181-2.6C14172.4,7027.108,14172.4,7027.169,14172.4,7027.23Zm-18.667-1.312a3.693,3.693,0,0,0,.993,4.082l6.821,6.076,6.821-6.076a3.73,3.73,0,0,0,1.235-2.78,3.64,3.64,0,0,0-.241-1.3,3.634,3.634,0,0,1-.222-.5l-.145.079-.217.116q-.41.215-.812.4c-.075.035-.149.071-.224.1l-.029.015-.021.007c-.341.153-.679.29-1.012.413l0,0c-.017.007-.034.013-.05.02h-.007a.361.361,0,0,1-.05.019s0,0,0,0c-.036.012-.072.024-.109.039l-.219.076c-.071.024-.138.046-.209.068,0,0,0,0,0,0l-.045.015-.021.007-.036.01c-.008,0-.016.007-.025.009a.323.323,0,0,1-.034.01l-.025.008a.533.533,0,0,1-.054.017s0,0,0,0c-.155.046-.312.09-.463.132-.293.08-.583.15-.867.209a.041.041,0,0,1-.014,0c-.014,0-.026.007-.038.01l-.038.007a.015.015,0,0,0-.01,0h0l-.058.012h0c-.087.018-.172.035-.257.049-.233.042-.468.078-.7.107-.128.017-.256.031-.383.046l-.029,0-.035,0-.062.007h-.011l-.073.007h-.017l-.078.007c-.222.02-.454.029-.686.039-.187.01-.371.015-.551.015h-.127c-.3,0-.6-.019-.9-.044a.086.086,0,0,1-.024,0,.158.158,0,0,1-.03,0,.4.4,0,0,1-.059-.005c-.121-.007-.239-.021-.353-.039a.579.579,0,0,1-.07-.01h0c-.192-.01-.389-.039-.581-.068-.159-.025-.32-.051-.474-.08,0,0-.008,0-.011,0a.16.16,0,0,0-.017,0c-.09-.017-.176-.034-.266-.053l-.121-.025c-.015,0-.03-.007-.045-.012h-.006a.425.425,0,0,0-.055-.012.233.233,0,0,0-.037-.01.039.039,0,0,1-.017,0,.5.5,0,0,1-.059-.012,5.763,5.763,0,0,1-.581-.148,3.631,3.631,0,0,1-.426-.117.707.707,0,0,1-.1-.029c-.023,0-.044-.015-.066-.019a15.473,15.473,0,0,1-1.762-.674c-.208-.094-.409-.191-.594-.286h0c-.011,0-.022-.013-.034-.017l-.018-.01a.067.067,0,0,0-.017-.007c-.229-.119-.445-.236-.644-.348Q14153.837,7025.7,14153.736,7025.918Zm5.56-26.443a16.228,16.228,0,0,1-10.06,4.764v7.8a12.351,12.351,0,0,0,12.316,12.384h.147a.077.077,0,0,0,.024,0h.072c.025,0,.048,0,.075,0h.008a.569.569,0,0,0,.064,0h.021a.29.29,0,0,0,.051,0h.025l.051,0h.021c.023,0,.048,0,.071-.005h.016l.056,0,.023,0c.017,0,.033,0,.051,0a.083.083,0,0,0,.024,0l.053,0,.02,0c.021,0,.049,0,.07,0h.012a.458.458,0,0,1,.061,0,.065.065,0,0,1,.021,0c.018,0,.033,0,.051-.005a.08.08,0,0,0,.024,0,.353.353,0,0,0,.053,0h.02l.07-.007c.006,0,.009,0,.015,0a.46.46,0,0,1,.056,0,.08.08,0,0,1,.023,0l.05-.007a.1.1,0,0,0,.023,0l.06-.008h.011l.068-.009a.042.042,0,0,0,.019,0l.055-.008a.06.06,0,0,0,.02,0l.057-.007.016,0,.066-.01h0l.075-.012h.01a.509.509,0,0,1,.06-.01.054.054,0,0,1,.018,0,.458.458,0,0,1,.059-.009.023.023,0,0,1,.014,0c.049-.007.1-.017.143-.024a.027.027,0,0,1,.013,0l.061-.012s.009,0,.017,0a.438.438,0,0,1,.056-.01.086.086,0,0,0,.015,0c.048-.007.1-.017.143-.026a.019.019,0,0,1,.012,0,.434.434,0,0,1,.058-.012c.006,0,.013,0,.018-.005l.058-.012s.007,0,.012,0c.049-.009.095-.022.144-.031,0,0,0,0,.01,0l.063-.015s.007,0,.01,0a.486.486,0,0,1,.067-.017h0l.145-.037a.009.009,0,0,1,.007,0l.063-.017.009,0,.065-.018h.006l.144-.04s0,0,0,0c.024-.005.046-.013.067-.02h.006l.215-.066h0l.069-.022v0a12.37,12.37,0,0,0,7.264-6.23v0c.01-.019.021-.041.031-.061a.006.006,0,0,0,0,0c.022-.043.043-.087.062-.131a.013.013,0,0,0,.006-.009.551.551,0,0,1,.027-.054l.007-.015.021-.051a.08.08,0,0,0,.008-.014.529.529,0,0,0,.028-.058.017.017,0,0,0,0-.005c.01-.022.021-.041.028-.062s.008-.015.011-.022.012-.027.018-.039a.133.133,0,0,0,.011-.027.138.138,0,0,0,.017-.036c.006-.01.008-.02.014-.029a.306.306,0,0,1,.017-.039l.021-.049a.122.122,0,0,1,.012-.029c0-.015.01-.027.015-.039a.085.085,0,0,0,.01-.022.263.263,0,0,0,.017-.042c0-.005.008-.012.008-.02s.012-.026.02-.042,0,0,0,0c.02-.053.041-.107.061-.158a.05.05,0,0,1,0-.01.542.542,0,0,0,.02-.051s0,0,0,0c.056-.148.111-.3.162-.45a12.325,12.325,0,0,0,.507-2.08c.052-.331.09-.664.114-1v-.007c0-.02,0-.036,0-.053v-.015c0-.051.009-.1.01-.15v-.029c0-.013,0-.027,0-.039s0-.022,0-.034v-.034c0-.022,0-.044,0-.066s0-.017,0-.024a.268.268,0,0,1,0-.048v-.073c0-.009,0-.017,0-.026v-.071a.008.008,0,0,0,0-.008v-7.969h-1.8a16.428,16.428,0,0,1-12.16-5.437Zm17.646,7.521v4.619a3.08,3.08,0,0,0,0-5.331Zm-31.919.428a3.086,3.086,0,0,0,1.133,4.191v-5.331A3.057,3.057,0,0,0,14145.022,7007.424Zm16.376-11.565a13.382,13.382,0,0,0,10.659,5.35h4.884v1.773a6.092,6.092,0,0,1,1.541.632v-9.957a6.608,6.608,0,0,0-5-6.421l-.408-.107-1.356-1.363a15.858,15.858,0,0,0-27.093,11.283v6.565a5.8,5.8,0,0,1,1.529-.632v-1.773h1.6a13.21,13.21,0,0,0,9.355-3.917l3.065-3.081Zm-4.41,30.963h0Z" transform="translate(-14120.5 -6977.501)" stroke="rgba(0,0,0,0)" stroke-miterlimit="10" stroke-width="1" fill="url(#linear-gradient)"/>
</svg>
