<svg xmlns="http://www.w3.org/2000/svg" width="53" height="51" viewBox="0 0 53 51"><defs><style>.a,.b{fill:#0fa76f;}.a{opacity:0.09;}</style></defs><g transform="translate(-152 -1839)"><rect class="a" width="53" height="51" rx="6" transform="translate(152 1839)"/><g transform="translate(-561.393 1375.066)"><g transform="translate(741.015 482.791)"><path class="b" d="M752.93,483.934h-7.7a1.049,1.049,0,0,0,0,2.024h7.7a1.049,1.049,0,0,0,0-2.024Zm0,4.452h-7.7a1.018,1.018,0,0,0-.764,1.174.984.984,0,0,0,.764.85h7.7a1.02,1.02,0,0,0,.757-1.181A.978.978,0,0,0,752.93,488.386Z" transform="translate(-744.455 -483.934)"/><path class="b" d="M749.775,494.932h3.639a1.158,1.158,0,0,1,1.091,1.214h0a1.157,1.157,0,0,1-1.091,1.214h-3.639a1.157,1.157,0,0,1-1.091-1.214h0A1.158,1.158,0,0,1,749.775,494.932Z" transform="translate(-745.26 -486.029)"/></g><g transform="translate(726.392 477.934)"><path class="b" d="M751.038,477.934h-13.7a3.272,3.272,0,0,0-3.271,3.271v1.562a4.217,4.217,0,0,0-3.229,4.1,4,4,0,0,0,.023.446l.235,2.177a4.229,4.229,0,0,0,.818,2.073L729,493.365a4.542,4.542,0,0,0-2.072,2.938l-.487,2.308a2.482,2.482,0,0,0,1.91,2.931,2.813,2.813,0,0,0,.518.049h12.839a2.476,2.476,0,0,0,2.477-2.47,2.25,2.25,0,0,0-.056-.518l-.089-.429h6.994a3.272,3.272,0,0,0,3.271-3.271v-13.7A3.273,3.273,0,0,0,751.038,477.934Zm-17.7,7.368a2.276,2.276,0,0,1,.737-.542,2.3,2.3,0,0,1,.988-.219h.469a2.17,2.17,0,0,1,.567.072,2.311,2.311,0,0,1,1.749,2.242,2.516,2.516,0,0,1-.008.252l-.235,2.177a2.309,2.309,0,0,1-1.506,1.936,2.266,2.266,0,0,1-1.052.129,2.217,2.217,0,0,1-.972-.34,2.285,2.285,0,0,1-1.085-1.724l-.235-2.177A2.271,2.271,0,0,1,733.333,485.3Zm8.953,13.7a.59.59,0,0,1-.121.487v-.016a.541.541,0,0,1-.453.21H728.872a.541.541,0,0,1-.453-.21.581.581,0,0,1-.13-.47l.486-2.3A2.687,2.687,0,0,1,730,494.975l3.457-2.145a3.505,3.505,0,0,0,.614.235,4.258,4.258,0,0,0,3.061-.235l3.456,2.145a2.733,2.733,0,0,1,1.029,1.174,2.64,2.64,0,0,1,.185.551l.308,1.473Zm10-4.1a1.247,1.247,0,0,1-1.247,1.247h-7.431a4.506,4.506,0,0,0-2.024-2.784l-2.914-1.805a4.213,4.213,0,0,0,.817-2.073l.235-2.177a4.223,4.223,0,0,0-3.627-4.622v-1.481a1.247,1.247,0,0,1,1.247-1.248h13.7a1.247,1.247,0,0,1,1.247,1.248Z" transform="translate(-726.392 -477.934)"/></g><rect class="b" width="4.466" height="1.787" rx="0.893" transform="translate(735.884 496.907)"/></g></g></svg>