<svg xmlns="http://www.w3.org/2000/svg" xmlns:xlink="http://www.w3.org/1999/xlink" width="71.145" height="89.891" viewBox="0 0 71.145 89.891">
  <defs>
    <linearGradient id="linear-gradient" x1="0.803" x2="-0.176" y2="1.216" gradientUnits="objectBoundingBox">
      <stop offset="0" stop-color="#15bf81"/>
      <stop offset="1" stop-color="#0b6041"/>
    </linearGradient>
  </defs>
  <g id="graduated" transform="translate(-53.387 0)">
    <path id="Path_94150" data-name="Path 94150" d="M114.909,58.727l-5.276-1.549-11.478-7.5V47.963a15.277,15.277,0,0,0,6.029-10.73,3.508,3.508,0,0,0,2.944-3.457V29.052c0-.018,0-.036,0-.054V23.014a2.6,2.6,0,0,0,1.085-2.119V15.42l7.921-1.349a2.808,2.808,0,0,0,.38-5.444L89.808.133a2.794,2.794,0,0,0-1.7,0L61.4,8.626a2.818,2.818,0,0,0-.875,4.9v7.161h-.065a2.73,2.73,0,0,0-2.727,2.727v3.555L55.974,37.3a2.931,2.931,0,0,0,2.889,3.423h5.96A2.931,2.931,0,0,0,67.713,37.3l-1.76-10.332V23.417a2.73,2.73,0,0,0-2.727-2.727h-.065V14.305l6.548,1.115V20.9a2.6,2.6,0,0,0,1.08,2.114l0,6.043v4.723a3.507,3.507,0,0,0,2.944,3.457,15.278,15.278,0,0,0,6.024,10.726v1.726l-11.475,7.5-5.271,1.547a13.39,13.39,0,0,0-9.624,12.854v3.924a1.317,1.317,0,0,0,2.634,0V71.582a10.822,10.822,0,0,1,7.732-10.327l4.912-1.442,19.623,11.66a1.332,1.332,0,0,0,1.345,0l19.624-11.661,4.911,1.442A10.822,10.822,0,0,1,121.9,71.581V84.3a2.962,2.962,0,0,1-2.958,2.958h-5.8V81.582a1.317,1.317,0,1,0-2.634,0v5.676H67.41V81.582a1.317,1.317,0,1,0-2.634,0v5.676h-5.8A2.962,2.962,0,0,1,56.021,84.3V81.662a1.317,1.317,0,1,0-2.634,0V84.3a5.6,5.6,0,0,0,5.592,5.592H118.94a5.6,5.6,0,0,0,5.592-5.592V71.581a13.39,13.39,0,0,0-9.623-12.854ZM64.824,38.093h-5.96a.3.3,0,0,1-.293-.347L60.163,28.4h3.362l1.592,9.346a.3.3,0,0,1-.293.347Zm-1.5-14.676v2.349H60.368V23.417a.094.094,0,0,1,.094-.094h2.764A.094.094,0,0,1,63.319,23.417Zm20.931,42.1.524.805L71.331,58.334l8.533-5.573A27.659,27.659,0,0,0,84.25,65.517Zm-.009-5.684a33.86,33.86,0,0,0,9.437,0,25.151,25.151,0,0,1-2.216,4.248l-2.5,3.846-2.5-3.846a25.15,25.15,0,0,1-2.216-4.248Zm9.428,5.684a27.657,27.657,0,0,0,4.386-12.756l8.533,5.573L93.145,66.322Zm7.7-42.012h3.121v4.231h-1.549a1.574,1.574,0,0,1-1.572-1.572V23.5ZM62.2,11.136,88.9,2.642a.173.173,0,0,1,.106,0l26.7,8.494a.147.147,0,0,1,.121.179c-.01.137-.088.15-.145.16l-8.829,1.5-3.315-.41a1.317,1.317,0,1,0-.323,2.614l2.354.291v5.4H72.342v-5.4l13.625-1.686a24.391,24.391,0,0,1,5.98,0l5.157.638a1.317,1.317,0,1,0,.323-2.614l-5.157-.638a27.012,27.012,0,0,0-6.626,0L71.055,12.978l-8.832-1.5c-.057-.01-.135-.023-.145-.16a.147.147,0,0,1,.121-.179Zm11.224,16.6,0-4.231h3.126v2.659a1.574,1.574,0,0,1-1.572,1.572H73.424Zm2.9,8.821a2.04,2.04,0,0,0-2.029-1.912.87.87,0,0,1-.869-.869V30.369h1.552a4.21,4.21,0,0,0,4.205-4.205V23.5H98.737v2.659a4.21,4.21,0,0,0,4.205,4.205h1.552v3.407a.87.87,0,0,1-.869.869,2.04,2.04,0,0,0-2.029,1.912,12.663,12.663,0,0,1-25.275,0Zm12.638,14.49a15.2,15.2,0,0,0,6.562-1.488v.834a25.1,25.1,0,0,1-.889,6.614,31.093,31.093,0,0,1-11.348,0,25.093,25.093,0,0,1-.889-6.614c0-.028,0-.055-.006-.083,0-.005,0-.011,0-.016v-.738a15.2,15.2,0,0,0,6.568,1.49Z" transform="translate(0)" fill="url(#linear-gradient)"/>
  </g>
</svg>
