<svg id="Group_38929" data-name="Group 38929" xmlns="http://www.w3.org/2000/svg" width="20.36" height="20.36" viewBox="0 0 20.36 20.36">
  <g id="Group_38864" data-name="Group 38864" transform="translate(0 0)">
    <path id="Path_94117" data-name="Path 94117" d="M21.137,20.973h0v-7.18c0-3.513-.756-6.218-4.862-6.218a4.263,4.263,0,0,0-3.84,2.11h-.057V7.9H8.489v13.07h4.054V14.5c0-1.7.323-3.352,2.433-3.352,2.079,0,2.11,1.945,2.11,3.461v6.363Z" transform="translate(-0.781 -0.613)" fill="#fff"/>
    <path id="Path_94118" data-name="Path 94118" d="M.4,7.977H4.455v13.07H.4Z" transform="translate(-0.073 -0.687)" fill="#fff"/>
    <path id="Path_94119" data-name="Path 94119" d="M2.351,0A2.362,2.362,0,1,0,4.7,2.351,2.352,2.352,0,0,0,2.351,0Z" transform="translate(0 0)" fill="#fff"/>
  </g>
</svg>
