<svg xmlns="http://www.w3.org/2000/svg" width="36.117" height="25.287" viewBox="0 0 36.117 25.287">
  <path id="Subtraction_1" data-name="Subtraction 1" d="M15097.056,6096.286c-.112,0-11.306-.009-14.13-.773a4.52,4.52,0,0,1-3.183-3.183c-.735-2.765-.744-8.627-.744-8.687a47.95,47.95,0,0,1,.744-8.687,4.63,4.63,0,0,1,3.183-3.213c2.793-.735,14.017-.744,14.13-.744s11.341.009,14.135.774a4.532,4.532,0,0,1,3.183,3.183c.747,2.728.744,8.469.743,8.712a48.027,48.027,0,0,1-.743,8.692,4.531,4.531,0,0,1-3.183,3.183C15108.4,6096.278,15097.169,6096.286,15097.056,6096.286Zm-3.6-18.057h0v10.83l9.4-5.417-9.4-5.413Z" transform="translate(-15078.999 -6071)" fill="#aaa"/>
</svg>
