<svg width="56" height="54" viewBox="0 0 56 54" fill="none" xmlns="http://www.w3.org/2000/svg">
<rect x="0.601562" y="0.445312" width="40.0187" height="40.0187" rx="5.80916" fill="#FFF4F3"/>
<path d="M19.2257 31.6629C19.2257 34.7415 20.0467 37.5855 21.5713 39.8138C23.1253 42.0421 25.764 43.4494 29.0185 43.4494C35.6155 43.4494 38.8993 37.6148 38.8993 31.5456C38.8993 27.3529 37.5506 23.7759 34.5013 21.5476C33.006 20.4041 31.1882 19.8471 29.1065 19.8471C26.9661 19.8471 25.119 20.4335 23.5944 21.5769C22.0697 22.7204 20.9556 24.1571 20.2519 25.8869C19.5776 27.6168 19.2257 29.5519 19.2257 31.6629ZM24.474 28.3791C24.7965 27.3529 25.3536 26.4147 26.1452 25.6231C26.9368 24.8021 27.9044 24.3916 29.0478 24.3916C30.1913 24.3916 31.1589 24.8021 31.9505 25.6231C34.2667 27.9393 34.5306 31.7802 33.6217 34.8588C33.2992 35.9143 32.7421 36.8525 31.9505 37.6735C31.1589 38.4651 30.1913 38.8756 29.0478 38.8756C27.9044 38.8756 26.9368 38.4651 26.1452 37.6735C23.8289 35.2986 23.565 31.3697 24.474 28.3791ZM47.9174 25.8576V43.1562H52.6672V20.1989H48.7676L40.9686 24.7728L43.0796 28.6137L47.9174 25.8576Z" fill="#FF7680"/>
</svg>
