<svg width="56" height="54" viewBox="0 0 56 54" fill="none" xmlns="http://www.w3.org/2000/svg">
<rect x="0.898438" y="0.445312" width="40.0187" height="40.0187" rx="5.80916" fill="#EDF9FF"/>
<path d="M13.507 31.6629C13.507 34.7415 14.3279 37.5855 15.8526 39.8138C17.4065 42.0421 20.0453 43.4494 23.2998 43.4494C29.8967 43.4494 33.1805 37.6148 33.1805 31.5456C33.1805 27.3529 31.8318 23.7759 28.7826 21.5476C27.2873 20.4041 25.4694 19.8471 23.3877 19.8471C21.2474 19.8471 19.4002 20.4335 17.8756 21.5769C16.351 22.7204 15.2368 24.1571 14.5332 25.8869C13.8588 27.6168 13.507 29.5519 13.507 31.6629ZM18.7552 28.3791C19.0777 27.3529 19.6348 26.4147 20.4264 25.6231C21.2181 24.8021 22.1856 24.3916 23.3291 24.3916C24.4726 24.3916 25.4401 24.8021 26.2317 25.6231C28.548 27.9393 28.8119 31.7802 27.903 34.8588C27.5804 35.9143 27.0234 36.8525 26.2317 37.6735C25.4401 38.4651 24.4726 38.8756 23.3291 38.8756C22.1856 38.8756 21.2181 38.4651 20.4264 37.6735C18.1102 35.2986 17.8463 31.3697 18.7552 28.3791ZM36.5399 43.1562H53.3401V38.8169H43.4301L47.3003 35.7384C49.4992 34.0085 51.0532 32.5718 51.9035 31.4284C52.783 30.2849 53.2228 28.9069 53.2228 27.265C53.2228 25.1539 52.4898 23.3948 50.9945 21.9874C49.4992 20.5507 47.5348 19.8471 45.072 19.8471C43.1075 19.8471 41.3484 20.3162 39.7944 21.2544C38.2698 22.1633 37.2436 23.5414 36.6865 25.3299L41.0552 27.177C41.8175 25.2712 43.1369 24.3037 45.0426 24.3037C46.9191 24.3037 48.3264 25.6524 48.3264 27.2943C48.3264 28.1446 48.0626 28.9069 47.5055 29.6105C46.9484 30.3142 45.9809 31.2524 44.5442 32.4252L36.5399 38.9928V43.1562Z" fill="#0483BC"/>
</svg>
