<svg width="55" height="54" viewBox="0 0 55 54" fill="none" xmlns="http://www.w3.org/2000/svg">
<rect x="0.1875" y="0.453125" width="40.0187" height="40.0187" rx="5.80916" fill="#FFF5E0"/>
<path d="M12.796 31.6707C12.796 34.7493 13.617 37.5933 15.1416 39.8216C16.6956 42.0499 19.3343 43.4573 22.5888 43.4573C29.1858 43.4573 32.4696 37.6226 32.4696 31.5535C32.4696 27.3607 31.1209 23.7837 28.0716 21.5554C26.5763 20.412 24.7585 19.8549 22.6768 19.8549C20.5364 19.8549 18.6893 20.4413 17.1647 21.5847C15.6401 22.7282 14.5259 24.1649 13.8222 25.8947C13.1479 27.6246 12.796 29.5597 12.796 31.6707ZM18.0443 28.3869C18.3668 27.3607 18.9239 26.4225 19.7155 25.6309C20.5071 24.8099 21.4747 24.3994 22.6181 24.3994C23.7616 24.3994 24.7292 24.8099 25.5208 25.6309C27.8371 27.9471 28.1009 31.788 27.192 34.8666C26.8695 35.9221 26.3124 36.8603 25.5208 37.6813C24.7292 38.4729 23.7616 38.8834 22.6181 38.8834C21.4747 38.8834 20.5071 38.4729 19.7155 37.6813C17.3992 35.3064 17.1354 31.3775 18.0443 28.3869ZM52.3653 36.5671C52.3653 34.0163 51.3391 32.3744 48.7883 31.3189V31.2896C50.87 30.1754 51.9255 28.5628 51.9255 26.4518C51.9255 24.4874 51.1925 22.8748 49.7265 21.6727C48.2605 20.4706 46.3548 19.8549 44.0092 19.8549C40.1683 19.8549 37.119 21.6434 35.829 24.8099L40.0803 26.833C40.872 25.1324 42.1034 24.2822 43.8333 24.2822C45.915 24.2822 47.1464 25.3377 47.1464 26.7743C47.1464 28.299 45.9443 29.3545 43.9212 29.3545H41.7516V33.7524H44.1851C46.2961 33.7524 47.5569 34.72 47.5569 36.4498C47.5569 38.0624 46.2082 39.1179 44.1851 39.1179C42.1034 39.1179 40.4322 38.1504 39.6405 36.4792L35.4771 38.6195C36.8552 41.8154 40.051 43.5159 44.0678 43.5159C46.4427 43.5159 48.4071 42.8709 49.9904 41.5515C51.5737 40.2321 52.3653 38.5609 52.3653 36.5671Z" fill="#FFAB00"/>
</svg>
