<svg width="85" height="70" viewBox="0 0 85 70" fill="none" xmlns="http://www.w3.org/2000/svg">
<rect opacity="0.13" width="65.5155" height="65.5155" rx="9.51031" fill="#0483BC"/>
<path d="M85 66.832H75.4023V50.9062H40.5977V66.832H31V69.9961H85V66.832ZM59.582 60.3984H56.418V57.2344H59.582V60.3984Z" fill="#0483BC"/>
<path d="M51.6719 27.0742C53.5753 27.0742 58 26.6123 58 22.3281H61.1641C61.1641 24.9452 63.2931 27.0742 65.9102 27.0742H67.4922V23.9102C67.4922 19.4561 62.3722 16 57.9675 16C54.3847 16 52.0921 17.3781 50.0697 18.594C48.1494 19.7496 46.4917 20.7461 43.7617 20.7461H42.1797C42.1797 20.7461 42.1797 22.3656 42.1799 22.3843C42.1965 25.0416 44.6048 27.0742 47.2624 27.0742H51.6719Z" fill="#0483BC"/>
<path d="M62.7461 42.6838V41.6867C65.5714 40.0423 67.4922 36.91 67.4922 33.4055V30.2414H65.9102C63.3185 30.2414 61.0344 28.9713 59.5909 27.0391C57.98 29.0598 55.2166 30.2415 51.6719 30.2415H48.5078V33.4056C48.5078 36.9101 50.4286 40.0423 53.2539 41.6868V42.6837L58 45.8475L62.7461 42.6838Z" fill="#0483BC"/>
<path d="M67.6565 43.2109L60.8516 47.7477H73.1265C72.1268 45.4878 70.1184 43.7702 67.6565 43.2109Z" fill="#0483BC"/>
<path d="M48.3455 43.2109C45.8834 43.7702 43.8747 45.4876 42.875 47.7477H55.1502L48.3455 43.2109Z" fill="#0483BC"/>
</svg>
