<svg width="78" height="71" viewBox="0 0 78 71" fill="none" xmlns="http://www.w3.org/2000/svg">
<rect opacity="0.2" width="65.5155" height="64.9182" rx="9.51031" fill="#FF7680"/>
<path d="M42.0724 63.5781L40.9848 66.8112H37.5488C36.6589 66.8112 35.9375 67.526 35.9375 68.4078C35.9375 69.2895 36.6589 70.0043 37.5488 70.0043H63.4364C64.3262 70.0043 65.0476 69.2895 65.0476 68.4078C65.0476 67.526 64.3262 66.8112 63.4364 66.8112H60.0003L58.9127 63.5781H42.0724Z" fill="#FF7680"/>
<path d="M23 56.8837C23 58.8168 24.5872 60.3895 26.538 60.3895H74.4597C76.4106 60.3895 77.9978 58.8168 77.9978 56.8836V53.9766H23V56.8837Z" fill="#FF7680"/>
<path d="M77.9978 25.4277C77.9978 23.4946 76.4106 21.9219 74.4597 21.9219H26.538C24.5872 21.9219 23 23.4945 23 25.4277V50.7799H77.9978V25.4277ZM43.0168 41.2293C43.6467 41.8522 43.6478 42.8631 43.0192 43.4872C42.7045 43.7997 42.2915 43.956 41.8786 43.956C41.4668 43.956 41.0551 43.8005 40.7404 43.4895L36.4169 39.2141C36.114 38.9147 35.9438 38.508 35.9438 38.0841C35.9438 37.6601 36.114 37.2534 36.4169 36.954L40.7404 32.6787C41.3703 32.0559 42.3905 32.0567 43.0191 32.681C43.6477 33.3051 43.6466 34.316 43.0167 34.9388L39.8361 38.0841L43.0168 41.2293ZM54.0974 34.5228L49.7827 43.0734C49.5004 43.6328 48.9313 43.9563 48.3403 43.9563C48.0982 43.9563 47.8523 43.902 47.6211 43.7874C46.8251 43.3931 46.5025 42.434 46.9005 41.6454L51.2151 33.0948C51.6131 32.3062 52.581 31.9862 53.3769 32.3808C54.1727 32.7751 54.4954 33.7342 54.0974 34.5228ZM64.5809 39.2141L60.2573 43.4895C59.9428 43.8005 59.531 43.956 59.1191 43.956C58.7062 43.956 58.2933 43.7997 57.9786 43.4872C57.35 42.8631 57.351 41.8522 57.9809 41.2293L61.1616 38.0841L57.9809 34.9388C57.351 34.316 57.35 33.3051 57.9786 32.681C58.6073 32.0568 59.6273 32.0559 60.2572 32.6787L64.5808 36.954C64.8837 37.2534 65.0538 37.6601 65.0538 38.0841C65.0538 38.508 64.8838 38.9146 64.5809 39.2141Z" fill="#FF7680"/>
</svg>
