<svg width="85" height="70" viewBox="0 0 85 70" fill="none" xmlns="http://www.w3.org/2000/svg">
<rect opacity="0.18" width="65.5155" height="65.5155" rx="9.51031" fill="#FFAB00"/>
<g clip-path="url(#clip0_6561_74202)">
<path d="M63.0682 28.5862C63.2728 28.5004 63.5033 28.5004 63.7078 28.5862L69.9127 31.1883C70.5914 31.4729 70.5882 32.4357 69.9074 32.7157C63.25 35.4537 63.5105 35.4474 63.0734 35.2677C63.0671 35.2651 56.8685 32.7157 56.8685 32.7157C56.1879 32.4357 56.1845 31.4729 56.8632 31.1883L63.0682 28.5862ZM63.0584 37.1358L58.5443 35.2792C58.0001 35.0553 57.4028 35.4555 57.4028 36.044C57.4028 39.1293 57.3307 39.1338 57.6071 39.3413C61.067 41.9377 65.704 41.9417 69.1692 39.3412C69.297 39.2453 69.3733 39.0938 69.3733 38.9362V36.044C69.3733 35.4555 68.7761 35.0553 68.2318 35.2792C63.3554 37.2847 63.5069 37.3204 63.0584 37.1358ZM83.3214 21.4667V66.5333C83.3214 68.4443 81.7668 70 79.8547 70H46.813C45.5054 70 44.3658 69.272 43.7754 68.2017C43.5771 67.843 43.6616 67.3935 43.9725 67.127C45.4687 65.846 43.6753 67.3822 54.6011 58.0227C56.9649 56.0303 57.4167 52.6189 55.6509 50.0797C53.9078 47.575 50.5776 46.795 47.9039 48.2651C47.855 48.2908 44.7015 50.1404 44.6518 50.1696C44.0733 50.5076 43.3464 50.0916 43.3464 49.4221V21.4667C43.3464 19.5524 44.8988 18 46.813 18H79.8547C81.7689 18 83.3214 19.5524 83.3214 21.4667ZM59.5964 54.1833H60.2464C60.7252 54.1833 61.113 53.7955 61.113 53.3167C61.113 52.8378 60.7252 52.45 60.2464 52.45H59.5964C59.1175 52.45 58.7297 52.8378 58.7297 53.3167C58.7297 53.7955 59.1175 54.1833 59.5964 54.1833ZM69.3464 59.3833C69.3464 58.9045 68.9585 58.5167 68.4797 58.5167H60.463C59.9842 58.5167 59.5964 58.9045 59.5964 59.3833C59.5964 59.8622 59.9842 60.25 60.463 60.25H68.4797C68.9585 60.25 69.3464 59.8622 69.3464 59.3833ZM72.9214 53.3167C72.9214 52.8378 72.5335 52.45 72.0547 52.45H64.2904C63.8127 52.45 63.4238 52.8378 63.4238 53.3167C63.4238 53.7955 63.8127 54.1833 64.2904 54.1833H72.0547C72.5335 54.1833 72.9214 53.7955 72.9214 53.3167ZM74.3438 31.1668L63.7228 26.7133C63.5094 26.6233 63.2667 26.6233 63.0533 26.7133L52.4323 31.1668C51.7193 31.4659 51.7291 32.4764 52.4377 32.768L55.1566 33.8855C55.4668 34.013 55.6693 34.315 55.6693 34.6503V38.9364C55.6693 39.6362 56.0051 40.3058 56.5663 40.7271C60.646 43.7869 66.1256 43.7902 70.2098 40.7271C70.7709 40.3057 71.1068 39.6362 71.1068 38.9364V34.6503C71.1068 34.315 71.3092 34.0129 71.6194 33.8855L74.3384 32.768C75.0477 32.4762 75.0562 31.4657 74.3438 31.1668ZM53.4441 56.6588C50.9078 58.853 44.7109 64.2143 41.911 66.6364C41.5258 66.9695 41.613 67.2156 41.613 69.1333C41.613 69.6119 41.225 70 40.7464 70H35.5464C35.0677 70 34.6797 69.6119 34.6797 69.1333V50.0613C34.6797 45.5922 36.7503 42.4453 40.2377 39.9284C40.8111 39.5146 41.613 39.9238 41.613 40.6311V52.2628C41.613 52.9235 42.3224 53.3415 42.9 53.0207C44.9368 51.8897 48.6778 49.8178 48.7175 49.7958C50.6318 48.7428 52.9913 49.3148 54.21 51.1229C55.406 52.8974 55.0767 55.2764 53.4441 56.6588Z" fill="#FFAB00"/>
</g>
<defs>
<clipPath id="clip0_6561_74202">
<rect width="52" height="52" fill="white" transform="translate(33 18)"/>
</clipPath>
</defs>
</svg>
