<svg width="120" height="65" viewBox="0 0 120 65" fill="none" xmlns="http://www.w3.org/2000/svg">
<path d="M33.8606 59.9573L35.6155 60.3743L34.7817 63.8842L33.0267 63.4672L33.8606 59.9573ZM19.4244 59.1836L19.2577 60.9797L19.4244 59.1836ZM5.28198 60.89C4.28692 60.9379 3.44148 60.17 3.39363 59.175C3.34578 58.1799 4.11365 57.3344 5.10871 57.2866L5.28198 60.89ZM33.4437 61.7123C33.0267 63.4672 33.0268 63.4672 33.0268 63.4672C33.0267 63.4672 33.0267 63.4672 33.0266 63.4672C33.0265 63.4672 33.0262 63.4671 33.0258 63.467C33.025 63.4668 33.0236 63.4665 33.0218 63.4661C33.0181 63.4652 33.0124 63.4638 33.0047 63.462C32.9894 63.4584 32.9661 63.4529 32.9353 63.4457C32.8736 63.4312 32.7817 63.4098 32.6623 63.3822C32.4235 63.327 32.0749 63.2473 31.6389 63.1499C30.7665 62.955 29.5458 62.6898 28.1543 62.4088C25.3534 61.8432 21.9268 61.2274 19.2577 60.9797L19.5911 57.3875C22.4614 57.6539 26.0444 58.3023 28.8683 58.8726C30.2892 59.1595 31.5347 59.4301 32.4253 59.629C32.8709 59.7286 33.2281 59.8102 33.4747 59.8672C33.598 59.8957 33.6936 59.9181 33.7589 59.9334C33.7915 59.941 33.8165 59.9469 33.8336 59.9509C33.8421 59.953 33.8487 59.9545 33.8532 59.9556C33.8554 59.9561 33.8572 59.9565 33.8584 59.9568C33.859 59.957 33.8595 59.9571 33.8599 59.9572C33.8601 59.9572 33.8603 59.9572 33.8603 59.9573C33.8605 59.9573 33.8606 59.9573 33.4437 61.7123ZM19.2577 60.9797C16.5917 60.7323 13.1142 60.7069 10.2603 60.7471C8.84251 60.767 7.59524 60.8029 6.70287 60.8337C6.25687 60.8492 5.90003 60.8633 5.65542 60.8736C5.53314 60.8787 5.43894 60.8829 5.37573 60.8857C5.34412 60.8871 5.32027 60.8882 5.30452 60.889C5.29665 60.8893 5.2908 60.8896 5.28703 60.8898C5.28514 60.8899 5.28378 60.89 5.28293 60.89C5.28251 60.89 5.28222 60.89 5.28206 60.89C5.28198 60.89 5.28196 60.89 5.28192 60.89C5.28193 60.89 5.28198 60.89 5.19535 59.0883C5.10871 57.2866 5.10883 57.2866 5.10897 57.2866C5.10907 57.2866 5.10924 57.2866 5.10943 57.2866C5.1098 57.2866 5.1103 57.2865 5.11093 57.2865C5.1122 57.2864 5.114 57.2864 5.11631 57.2862C5.12094 57.286 5.12765 57.2857 5.1364 57.2853C5.1539 57.2845 5.17955 57.2833 5.21299 57.2818C5.27986 57.2788 5.37789 57.2744 5.50419 57.2691C5.75676 57.2585 6.1225 57.244 6.57821 57.2283C7.48922 57.1968 8.76176 57.1602 10.2095 57.1398C13.087 57.0993 16.7239 57.1215 19.5911 57.3875L19.2577 60.9797Z" fill="url(#paint0_linear_6534_74707)"/>
<path d="M44.4877 9.62433C44.4877 9.62433 48.3647 13.7161 49.4125 17.0261C50.1463 19.3445 50.1047 23.2144 50.1047 23.2144M37.6142 49.4335C37.6142 49.4335 35.384 46.0272 33.4317 44.3586C31.5546 42.7543 28.0075 41.1095 28.0075 41.1095" stroke="url(#paint1_linear_6534_74707)" stroke-width="3.6076"/>
<path d="M115.72 21.6591C115.72 21.6591 110.718 17.8807 105.958 18.4132C101.198 18.9456 96.2097 21.1929 93.9338 25.1032C92.4335 27.6809 91.5803 32.0709 94.7011 31.9628C96.9012 31.8866 95.8097 28.9469 95.1473 27.3341C93.0946 22.3359 86.0229 16.3667 76.3348 16.425C51.2887 16.5757 50.447 58.602 50.447 58.602C50.447 58.602 47.6941 41.8086 44.0531 31.6034C40.7632 22.3825 33.325 8.94548 33.325 8.94548" stroke="url(#paint2_linear_6534_74707)" stroke-width="3.6076" stroke-linecap="round"/>
<defs>
<linearGradient id="paint0_linear_6534_74707" x1="38.9857" y1="55.7771" x2="36.1898" y2="73.5007" gradientUnits="userSpaceOnUse">
<stop stop-color="#0FA76F"/>
<stop offset="1" stop-color="#0F9EA7"/>
</linearGradient>
<linearGradient id="paint1_linear_6534_74707" x1="54.4216" y1="11.6754" x2="8.93213" y2="39.5826" gradientUnits="userSpaceOnUse">
<stop stop-color="#0FA76F"/>
<stop offset="1" stop-color="#0F9EA7"/>
</linearGradient>
<linearGradient id="paint2_linear_6534_74707" x1="131.512" y1="2.13979" x2="60.9924" y2="107.438" gradientUnits="userSpaceOnUse">
<stop stop-color="#0FA76F"/>
<stop offset="1" stop-color="#0F9EA7"/>
</linearGradient>
</defs>
</svg>
