<svg width="66" height="66" viewBox="0 0 66 66" fill="none" xmlns="http://www.w3.org/2000/svg">
<rect width="65.5155" height="65.5155" rx="9.51031" fill="#FFF4F3"/>
<path d="M28.1008 43.3438L27.468 45.2422H25.4688C24.951 45.2422 24.5312 45.6619 24.5312 46.1797C24.5312 46.6974 24.951 47.1172 25.4688 47.1172H40.5312C41.049 47.1172 41.4688 46.6974 41.4688 46.1797C41.4688 45.6619 41.049 45.2422 40.5312 45.2422H38.532L37.8992 43.3438H28.1008Z" fill="#FF7680"/>
<path d="M17 39.4102C17 40.5453 17.9235 41.4688 19.0586 41.4688H46.9414C48.0765 41.4688 49 40.5453 49 39.4101V37.7031H17V39.4102Z" fill="#FF7680"/>
<path d="M49 20.9414C49 19.8063 48.0765 18.8828 46.9414 18.8828H19.0586C17.9235 18.8828 17 19.8062 17 20.9414V35.8281H49V20.9414ZM28.6466 30.2201C29.0131 30.5858 29.0138 31.1794 28.648 31.5459C28.4649 31.7294 28.2246 31.8211 27.9844 31.8211C27.7448 31.8211 27.5052 31.7298 27.3221 31.5472L24.8065 29.0367C24.6302 28.8609 24.5312 28.6221 24.5312 28.3732C24.5312 28.1242 24.6302 27.8854 24.8065 27.7096L27.3221 25.1992C27.6886 24.8334 28.2822 24.8339 28.6479 25.2005C29.0137 25.567 29.0131 26.1606 28.6466 26.5263L26.7959 28.3732L28.6466 30.2201ZM35.0938 26.282L32.5833 31.3029C32.4191 31.6314 32.0879 31.8213 31.7441 31.8213C31.6032 31.8213 31.4601 31.7894 31.3256 31.7221C30.8624 31.4906 30.6748 30.9274 30.9063 30.4644L33.4167 25.4435C33.6483 24.9804 34.2114 24.7926 34.6746 25.0243C35.1376 25.2558 35.3253 25.8189 35.0938 26.282ZM41.1935 29.0367L38.6779 31.5472C38.4949 31.7298 38.2553 31.8211 38.0156 31.8211C37.7754 31.8211 37.5351 31.7294 37.352 31.5459C36.9862 31.1794 36.9869 30.5858 37.3534 30.2201L39.204 28.3732L37.3534 26.5263C36.9869 26.1606 36.9862 25.567 37.352 25.2005C37.7178 24.834 38.3113 24.8334 38.6778 25.1992L41.1934 27.7096C41.3697 27.8854 41.4687 28.1242 41.4687 28.3732C41.4687 28.6221 41.3698 28.8609 41.1935 29.0367Z" fill="#FF7680"/>
</svg>
