<svg width="66" height="66" viewBox="0 0 66 66" fill="none" xmlns="http://www.w3.org/2000/svg">
<rect width="65.5155" height="65.5155" rx="9.51031" fill="#EDF9FF"/>
<path d="M17.9609 27.5971V45.5006C17.9609 46.2218 18.5478 46.8086 19.269 46.8086H22.928V26.2891H19.269C18.5476 26.2891 17.9609 26.8759 17.9609 27.5971Z" fill="#0483BC"/>
<path d="M23.9141 26.2891H42.0921V46.8086H23.9141V26.2891Z" fill="#0483BC"/>
<path d="M46.7293 26.2891H43.0703V46.8086H46.7293C47.4505 46.8086 48.0374 46.2218 48.0374 45.5006V27.5971C48.0374 26.8759 47.4506 26.2891 46.7293 26.2891Z" fill="#0483BC"/>
<path d="M33.003 21.6281C35.1351 21.6281 36.8974 23.2374 37.1417 25.3049H39.5919C39.3393 21.8896 36.4818 19.1875 33.003 19.1875C29.5242 19.1875 26.6667 21.8896 26.4141 25.3049H28.8643C29.1086 23.2374 30.8709 21.6281 33.003 21.6281Z" fill="#0483BC"/>
</svg>
