<svg width="260" height="116" viewBox="0 0 260 116" fill="none" xmlns="http://www.w3.org/2000/svg">
<g filter="url(#filter0_b_12500_139755)">
<rect width="259.411" height="115.707" rx="10" fill="white" fill-opacity="0.2"/>
<path d="M42 35.4126C42 27.8302 47.2141 24.0391 57.6424 24.0391C68.0967 24.0391 73.3239 27.8302 73.3239 35.4126V42.6994H62.421V35.4111C62.421 32.9817 60.8412 31.7579 57.6815 31.7399H57.6049C54.4712 31.7399 52.9043 32.9637 52.9043 35.4111V40.3245C52.9043 42.7359 56.3083 45.6899 63.1164 49.1865C69.9244 52.6642 73.3284 56.8329 73.3284 61.6928V68.5385C73.3284 76.1399 68.1142 79.9405 57.686 79.9405C47.2317 79.9215 42.0045 76.1208 42.0045 68.5385V61.2502H52.9073V68.5385C52.9073 70.9869 54.4997 72.2107 57.6845 72.2097C60.8442 72.2097 62.424 70.9859 62.424 68.5385V62.3529C62.424 59.7404 59.02 56.6854 52.212 53.1878C45.404 49.7091 42 45.4764 42 40.4895V35.4126Z" fill="#21B175"/>
<path d="M183.904 24V53.2837C183.904 55.6436 182.323 57.7845 179.767 59.3268C178.215 60.2369 176.528 60.8953 174.769 61.2771V80.0005H164.793V61.2771C159.456 60.0559 155.656 56.9369 155.656 53.2777V24H165.832V53.2357C165.832 54.5559 167.601 55.6271 169.786 55.6271C171.971 55.6271 173.742 54.5559 173.742 53.2357V24H183.904Z" fill="#21B175"/>
<path d="M203.662 24C196.065 24 189.906 27.4281 189.906 31.6604V80.011H199.809V61.2801C201.084 61.4835 202.373 61.5839 203.664 61.5802C207.042 61.6492 210.384 60.8784 213.389 59.3373C215.878 57.9525 217.417 56.0367 217.417 53.9198V31.6604C217.417 27.4281 211.258 24 203.662 24ZM207.515 47.9188C207.515 47.9308 207.515 47.9413 207.515 47.9533C207.515 47.9653 207.515 47.9758 207.515 47.9878V54.2229C207.515 55.4066 205.787 56.3653 203.662 56.3653C202.716 56.3858 201.78 56.1702 200.938 55.7382C200.631 55.6095 200.365 55.4011 200.166 55.1347C199.967 54.8682 199.843 54.5534 199.807 54.2229V31.4893C199.807 30.3056 201.534 29.3469 203.662 29.3469C204.608 29.3269 205.543 29.5424 206.384 29.9741C206.691 30.1025 206.957 30.3109 207.156 30.5774C207.355 30.8439 207.479 31.1588 207.515 31.4893V47.9188Z" fill="#21B175"/>
<path d="M111.781 24V31.6048H100.176V80.008H90.1994V31.6048H78.5938V24H111.781Z" fill="#21B175"/>
<path d="M149.607 34.8812C149.233 28.8441 142.286 24.0312 133.768 24.0312C125.25 24.0312 118.3 28.8441 117.929 34.8812H117.911V42.8131L113.5 40.9528C113.507 43.7533 113.515 46.5538 113.523 49.3543L117.911 51.1696V68.4362C117.911 74.7118 125.01 79.7977 133.768 79.7977C142.525 79.7977 149.625 74.7118 149.625 68.4362V61.0533H138.212V68.8007C138.212 70.5575 136.223 71.9813 133.772 71.9813C131.32 71.9813 129.333 70.5575 129.333 68.8007V59.6251C129.333 59.6071 129.333 59.5906 129.333 59.5741C129.333 59.5576 129.333 59.5486 129.333 59.5366C129.333 59.5246 129.333 59.5126 129.333 59.4991C129.333 59.4856 129.333 59.4661 129.333 59.4481V56.3095C130.794 56.6114 132.281 56.7622 133.772 56.7596C141.036 56.7596 147.155 53.2594 149.032 48.4856H149.048V48.4391C149.428 47.4704 149.624 46.4398 149.627 45.3996V34.8827L149.607 34.8812ZM133.768 49.0167C133.146 49.0183 132.528 48.9216 131.937 48.7302L130.984 48.3281L129.332 47.5539V36.5855C129.332 36.569 129.332 36.5525 129.332 36.5345C129.332 36.5165 129.332 36.5015 129.332 36.4835V35.1422C129.332 33.3854 131.32 31.9601 133.771 31.9601C136.223 31.9601 138.21 33.3839 138.21 35.1422V36.482C138.21 36.5 138.21 36.515 138.21 36.533C138.21 36.551 138.21 36.5675 138.21 36.584V45.8346C138.209 47.5944 136.222 49.0167 133.769 49.0167H133.768Z" fill="url(#paint0_linear_12500_139755)"/>
<path d="M82.1649 92.8474L81.3119 90.4771H78.0441L77.2076 92.8474H75.7344L78.9317 84.2734H80.4589L83.6562 92.8474H82.1649ZM80.944 89.2738L80.1436 86.9498C80.0855 86.7948 80.0049 86.5498 79.9018 86.2147C79.7987 85.8796 79.7276 85.6346 79.6885 85.4796C79.5677 86.0123 79.4138 86.5369 79.2275 87.0504L78.4556 89.2753L80.944 89.2738Z" fill="white"/>
<path d="M90.3293 92.8286H88.9492V88.8574C88.9792 88.4625 88.8732 88.0692 88.6488 87.7426C88.5282 87.6127 88.3795 87.5121 88.2139 87.4483C88.0484 87.3846 87.8705 87.3596 87.6937 87.3751C87.4558 87.3545 87.2164 87.3902 86.9948 87.4793C86.7733 87.5684 86.576 87.7087 86.4187 87.8882C86.1039 88.4047 85.9623 89.008 86.0147 89.6105V92.8286H84.6406V86.3774H85.7159L85.9081 87.2235H85.9787C86.1801 86.9101 86.4687 86.6624 86.8091 86.5109C87.1832 86.3403 87.5904 86.2548 88.0015 86.2603C88.3206 86.2179 88.6452 86.2502 88.9497 86.3546C89.2541 86.4591 89.5301 86.633 89.7557 86.8623C89.9814 87.0917 90.1505 87.3703 90.2498 87.6762C90.3491 87.9821 90.3758 88.3068 90.3278 88.6248L90.3293 92.8286Z" fill="white"/>
<path d="M95.2673 84.6653C95.2604 84.562 95.2747 84.4584 95.3093 84.3609C95.3439 84.2634 95.3981 84.1739 95.4685 84.0981C95.5464 84.0285 95.6374 83.9753 95.7362 83.9413C95.8349 83.9073 95.9395 83.8933 96.0438 83.9001C96.1464 83.8938 96.2491 83.9081 96.3461 83.9421C96.443 83.9761 96.5323 84.0291 96.6084 84.0981C96.6789 84.1739 96.733 84.2634 96.7676 84.3609C96.8022 84.4584 96.8165 84.562 96.8096 84.6653C96.815 84.7661 96.8 84.8669 96.7654 84.9618C96.7308 85.0566 96.6774 85.1437 96.6084 85.2174C96.5327 85.2873 96.4437 85.3411 96.3466 85.3757C96.2496 85.4102 96.1466 85.4247 96.0438 85.4183C95.9393 85.4251 95.8345 85.4109 95.7357 85.3764C95.6369 85.3419 95.546 85.2878 95.4685 85.2174C95.3995 85.1437 95.3462 85.0566 95.3116 84.9618C95.277 84.8669 95.2619 84.7661 95.2673 84.6653ZM96.7225 92.8358H95.3484V86.3771H96.7225V92.8358Z" fill="white"/>
<path d="M104.368 92.8288H102.988V88.8577C103.018 88.4628 102.912 88.0694 102.688 87.7429C102.567 87.613 102.419 87.5123 102.253 87.4486C102.087 87.3849 101.91 87.3599 101.733 87.3754C101.495 87.3548 101.255 87.3904 101.034 87.4796C100.812 87.5687 100.615 87.7089 100.458 87.8885C100.143 88.4049 100.001 89.0083 100.054 89.6107V92.8288H98.6797V86.3776H99.755L99.9472 87.2237H100.018C100.219 86.9104 100.508 86.6627 100.848 86.5111C101.222 86.3406 101.63 86.255 102.041 86.2606C102.36 86.2178 102.685 86.2498 102.989 86.3542C103.294 86.4585 103.57 86.6324 103.796 86.8618C104.021 87.0913 104.19 87.37 104.29 87.6761C104.389 87.9821 104.415 88.307 104.367 88.6251L104.368 92.8288Z" fill="white"/>
<path d="M106.189 84.6653C106.182 84.5621 106.197 84.4587 106.231 84.3611C106.266 84.2636 106.32 84.174 106.39 84.0982C106.468 84.0285 106.56 83.9752 106.659 83.9412C106.758 83.9072 106.863 83.8932 106.967 83.9002C107.069 83.8941 107.172 83.9085 107.269 83.9425C107.365 83.9765 107.454 84.0294 107.53 84.0982C107.601 84.174 107.655 84.2634 107.689 84.361C107.724 84.4585 107.738 84.5621 107.731 84.6653C107.737 84.7662 107.722 84.867 107.687 84.9618C107.653 85.0567 107.599 85.1437 107.53 85.2175C107.455 85.2872 107.366 85.3408 107.269 85.3754C107.172 85.4099 107.07 85.4245 106.967 85.4184C106.862 85.4254 106.757 85.4114 106.658 85.3768C106.559 85.3423 106.468 85.2881 106.39 85.2175C106.321 85.1437 106.268 85.0567 106.233 84.9618C106.199 84.867 106.184 84.7662 106.189 84.6653ZM107.644 92.8359H106.278V86.3771H107.652L107.644 92.8359Z" fill="white"/>
<path d="M112.028 91.8485C112.369 91.8475 112.708 91.7942 113.033 91.6908V92.7246C112.844 92.8016 112.647 92.8574 112.446 92.8911C112.198 92.9368 111.947 92.9595 111.695 92.9586C110.393 92.9586 109.742 92.2735 109.742 90.9033V87.4226H108.859V86.8224L109.807 86.3199L110.274 84.9531H111.121V86.3889H112.962V87.4286H111.121V90.8793C111.11 91.012 111.126 91.1455 111.169 91.2718C111.211 91.398 111.279 91.5142 111.369 91.6129C111.457 91.6942 111.561 91.7567 111.675 91.7972C111.788 91.8376 111.908 91.8551 112.028 91.8485Z" fill="white"/>
<path d="M114.252 84.6653C114.245 84.562 114.259 84.4586 114.294 84.3611C114.328 84.2635 114.382 84.174 114.453 84.0981C114.531 84.0286 114.622 83.9753 114.72 83.9413C114.819 83.9073 114.924 83.8933 115.028 83.9001C115.131 83.8938 115.233 83.908 115.33 83.942C115.427 83.976 115.517 84.0291 115.593 84.0981C115.663 84.1739 115.717 84.2634 115.752 84.3609C115.787 84.4584 115.801 84.562 115.794 84.6653C115.799 84.7661 115.784 84.8669 115.75 84.9618C115.715 85.0566 115.662 85.1437 115.593 85.2174C115.517 85.2873 115.428 85.3411 115.331 85.3756C115.234 85.4102 115.131 85.4246 115.028 85.4183C114.924 85.4251 114.819 85.4109 114.72 85.3764C114.621 85.3418 114.53 85.2878 114.453 85.2174C114.384 85.1437 114.331 85.0566 114.296 84.9618C114.261 84.8669 114.246 84.7661 114.252 84.6653ZM115.707 92.8358H114.333V86.377H115.707V92.8358Z" fill="white"/>
<path d="M121.709 92.832L121.434 91.9319H121.388C121.142 92.27 120.819 92.5449 120.446 92.7344C120.06 92.8896 119.646 92.9623 119.23 92.9476C118.96 92.9636 118.69 92.9263 118.434 92.8381C118.179 92.7498 117.944 92.6122 117.741 92.4329C117.556 92.2409 117.413 92.0124 117.321 91.7621C117.229 91.5118 117.19 91.2453 117.207 90.9792C117.191 90.6866 117.251 90.3947 117.381 90.132C117.511 89.8693 117.707 89.6445 117.949 89.4789C118.637 89.0884 119.421 88.8963 120.212 88.9238L121.328 88.8892V88.5442C121.354 88.2099 121.25 87.8785 121.038 87.6186C120.917 87.509 120.774 87.4256 120.619 87.3739C120.464 87.3223 120.3 87.3034 120.137 87.3185C119.814 87.3185 119.492 87.3691 119.185 87.4684C118.885 87.5641 118.592 87.6795 118.308 87.8137L117.857 86.8324C118.222 86.6446 118.609 86.5045 119.009 86.4154C119.395 86.3213 119.791 86.2708 120.189 86.2652C120.854 86.2167 121.515 86.4073 122.051 86.8024C122.275 87.0195 122.448 87.2837 122.556 87.5756C122.665 87.8675 122.708 88.1798 122.681 88.4902V92.841L121.709 92.832ZM119.662 91.8973C120.102 91.9186 120.532 91.7692 120.864 91.4803C121.018 91.3285 121.138 91.1454 121.216 90.9433C121.294 90.7412 121.327 90.5247 121.314 90.3085V89.7474L120.484 89.7818C119.993 89.7664 119.507 89.8781 119.072 90.106C118.927 90.2015 118.809 90.3337 118.732 90.4891C118.654 90.6446 118.619 90.8178 118.631 90.9911C118.623 91.1145 118.642 91.2381 118.686 91.3535C118.73 91.469 118.799 91.5737 118.887 91.6603C119.105 91.8359 119.38 91.9227 119.659 91.9033L119.662 91.8973Z" fill="white"/>
<path d="M127.011 91.8485C127.352 91.8476 127.692 91.7943 128.017 91.6908V92.7246C127.828 92.8016 127.631 92.8574 127.43 92.8911C127.182 92.9368 126.931 92.9595 126.679 92.9586C125.377 92.9586 124.727 92.2735 124.727 90.9033V87.4226H123.844V86.8224L124.791 86.3199L125.258 84.9531H126.107V86.3889H127.948V87.4286H126.107V90.8793C126.096 91.012 126.112 91.1455 126.154 91.2718C126.197 91.398 126.265 91.5142 126.355 91.6129C126.443 91.6938 126.546 91.7562 126.659 91.7966C126.772 91.8371 126.891 91.8547 127.011 91.8485Z" fill="white"/>
<path d="M129.236 84.6653C129.229 84.562 129.244 84.4586 129.278 84.3611C129.313 84.2635 129.367 84.174 129.437 84.0981C129.515 84.0286 129.606 83.9753 129.705 83.9413C129.804 83.9073 129.908 83.8933 130.013 83.9001C130.115 83.8938 130.218 83.908 130.315 83.942C130.412 83.976 130.501 84.0291 130.577 84.0981C130.648 84.174 130.702 84.2636 130.736 84.3611C130.771 84.4586 130.785 84.562 130.778 84.6653C130.784 84.7661 130.769 84.8669 130.734 84.9618C130.7 85.0566 130.646 85.1437 130.577 85.2174C130.502 85.2872 130.412 85.3409 130.315 85.3755C130.218 85.41 130.115 85.4245 130.013 85.4183C129.908 85.4251 129.803 85.4109 129.704 85.3764C129.606 85.3418 129.515 85.2878 129.437 85.2174C129.368 85.1437 129.315 85.0566 129.28 84.9618C129.246 84.8669 129.231 84.7661 129.236 84.6653ZM130.691 92.8358H129.317V86.377H130.691V92.8358Z" fill="white"/>
<path d="M134.127 92.8415L131.672 86.3828H133.121L134.437 90.1335C134.627 90.6277 134.764 91.1407 134.845 91.6638H134.892C134.988 91.144 135.125 90.6323 135.3 90.1335L136.616 86.3828H138.077L135.609 92.8415H134.127Z" fill="white"/>
<path d="M141.88 92.9482C141.447 92.9729 141.013 92.9074 140.607 92.7561C140.201 92.6047 139.831 92.3708 139.52 92.0689C139.226 91.7415 138.999 91.359 138.853 90.9437C138.707 90.5284 138.645 90.0884 138.67 89.6489C138.618 88.751 138.9 87.8655 139.46 87.1616C139.731 86.8595 140.067 86.6219 140.442 86.4662C140.817 86.3104 141.223 86.2405 141.629 86.2614C142.002 86.2421 142.374 86.3013 142.723 86.4352C143.071 86.5691 143.388 86.7746 143.651 87.0385C144.172 87.6251 144.439 88.3937 144.395 89.1764V89.9176H140.086C140.07 90.4457 140.251 90.961 140.595 91.3624C140.772 91.5367 140.984 91.6718 141.217 91.7589C141.45 91.846 141.699 91.8831 141.947 91.8678C142.305 91.8703 142.663 91.834 143.013 91.7598C143.378 91.6761 143.734 91.5562 144.075 91.4014V92.5174C143.752 92.673 143.41 92.7871 143.058 92.8566C142.669 92.9244 142.274 92.9551 141.88 92.9482ZM141.629 87.2951C141.434 87.2861 141.24 87.3184 141.059 87.3897C140.877 87.4611 140.713 87.5699 140.577 87.7091C140.289 88.0479 140.123 88.474 140.107 88.9184H143.042C143.066 88.4807 142.929 88.0493 142.656 87.7062C142.525 87.5675 142.365 87.4589 142.187 87.3879C142.01 87.3169 141.82 87.2852 141.629 87.2951Z" fill="white"/>
<path d="M152.311 87.4179H150.733V92.8384H149.352V87.4179H148.289V86.7758L149.352 86.3557V85.9358C149.302 85.3216 149.495 84.7122 149.89 84.2388C150.112 84.0404 150.372 83.8892 150.655 83.7943C150.937 83.6994 151.236 83.6628 151.533 83.6868C152.018 83.687 152.5 83.7675 152.96 83.9253L152.598 84.965C152.285 84.8602 151.957 84.805 151.628 84.8014C151.499 84.7906 151.37 84.8114 151.251 84.8618C151.133 84.9123 151.028 84.9911 150.947 85.0911C150.787 85.3507 150.712 85.6539 150.734 85.9581V86.3782H152.312L152.311 87.4179Z" fill="white"/>
<path d="M156.696 86.2583C156.925 86.2543 157.154 86.274 157.379 86.3169L157.244 87.5951C157.047 87.5484 156.845 87.5247 156.643 87.5245C156.395 87.5149 156.148 87.5578 155.918 87.6504C155.688 87.7429 155.48 87.8832 155.308 88.0617C155.135 88.2493 155.001 88.469 154.913 88.7084C154.825 88.9478 154.785 89.2021 154.796 89.4568V92.8324H153.422V86.3768H154.497L154.679 87.5156H154.749C154.95 87.1458 155.238 86.8311 155.589 86.599C155.916 86.3785 156.301 86.2599 156.696 86.2583Z" fill="white"/>
<path d="M164.307 89.5981C164.361 90.4946 164.07 91.3778 163.495 92.0676C163.204 92.3696 162.851 92.6053 162.461 92.7585C162.071 92.9118 161.652 92.9792 161.233 92.9558C160.672 92.9668 160.118 92.8251 159.631 92.5461C159.164 92.2711 158.791 91.8623 158.56 91.3729C158.301 90.8177 158.173 90.2105 158.186 89.5981C158.132 88.7077 158.421 87.8304 158.992 87.1452C159.286 86.8434 159.64 86.6083 160.033 86.456C160.425 86.3038 160.846 86.238 161.266 86.263C161.679 86.2431 162.092 86.3134 162.476 86.4688C162.859 86.6243 163.204 86.8611 163.487 87.1631C164.061 87.8409 164.354 88.7118 164.307 89.5981ZM159.601 89.5981C159.601 91.0894 160.151 91.835 161.253 91.835C162.354 91.835 162.9 91.0894 162.89 89.5981C162.89 88.1229 162.339 87.3853 161.238 87.3853C160.997 87.365 160.755 87.4068 160.536 87.5069C160.316 87.607 160.126 87.762 159.984 87.9568C159.698 88.4547 159.567 89.0257 159.605 89.5981H159.601Z" fill="white"/>
<path d="M171.325 92.8337H169.945V88.8505C169.973 88.4608 169.875 88.0723 169.664 87.7432C169.558 87.617 169.422 87.5182 169.27 87.4548C169.117 87.3914 168.952 87.3653 168.787 87.3788C168.565 87.3608 168.342 87.3985 168.138 87.4887C167.934 87.5788 167.756 87.7185 167.62 87.8949C167.329 88.4188 167.2 89.0171 167.249 89.6142V92.8323H165.875V86.3825H166.95L167.144 87.2286H167.215C167.397 86.9181 167.668 86.6697 167.994 86.516C168.345 86.3466 168.731 86.2608 169.12 86.2655C169.514 86.2158 169.913 86.2862 170.266 86.4675C170.619 86.6488 170.908 86.9324 171.097 87.2812H171.19C171.382 86.9598 171.662 86.6996 171.996 86.531C172.366 86.3464 172.775 86.2543 173.189 86.2626C173.495 86.2349 173.804 86.2726 174.095 86.3732C174.386 86.4738 174.652 86.6351 174.875 86.8462C175.266 87.3539 175.455 87.9883 175.404 88.6269V92.8381H174.03V88.8551C174.058 88.465 173.958 88.0763 173.746 87.7478C173.638 87.6221 173.503 87.5236 173.35 87.4603C173.197 87.3969 173.031 87.3704 172.866 87.3832C172.644 87.3647 172.422 87.4005 172.217 87.4876C172.013 87.5746 171.833 87.7103 171.693 87.8828C171.412 88.3425 171.282 88.8787 171.322 89.416L171.325 92.8337Z" fill="white"/>
<path d="M183.836 92.8289H182.023V85.7971H179.703V84.2969H186.161V85.7971H183.841L183.836 92.8289Z" fill="#21B175"/>
<path d="M191.471 92.84L191.125 91.9518H191.079C190.835 92.2823 190.518 92.5515 190.152 92.738C189.758 92.898 189.335 92.9727 188.91 92.9571C188.64 92.9721 188.369 92.9322 188.114 92.8399C187.859 92.7476 187.626 92.6047 187.428 92.4199C187.239 92.2146 187.094 91.9731 187.001 91.7101C186.908 91.4471 186.869 91.168 186.887 90.8896C186.866 90.5931 186.921 90.2961 187.049 90.0274C187.176 89.7587 187.371 89.5276 187.614 89.3564C188.282 88.978 189.042 88.7892 189.81 88.8103L190.943 88.7757V88.4892C190.961 88.3526 190.947 88.2136 190.902 88.0834C190.857 87.9532 190.782 87.8353 190.683 87.7389C190.585 87.6426 190.465 87.5704 190.334 87.5283C190.203 87.4862 190.063 87.4751 189.927 87.4961C189.287 87.5248 188.66 87.6856 188.086 87.9686L187.495 86.7685C188.269 86.3703 189.128 86.1677 189.997 86.1788C190.715 86.131 191.428 86.3329 192.014 86.7503C192.257 86.967 192.447 87.2367 192.569 87.5386C192.69 87.8404 192.741 88.1663 192.716 88.4907V92.8415L191.471 92.84ZM190.945 89.8139L190.256 89.8379C189.851 89.8239 189.451 89.921 189.098 90.1184C188.972 90.2049 188.871 90.3227 188.804 90.46C188.738 90.5973 188.708 90.7495 188.718 90.9017C188.718 91.4018 189.006 91.6518 189.583 91.6518C189.763 91.6606 189.944 91.6335 190.114 91.5722C190.284 91.5109 190.441 91.4166 190.574 91.2947C190.699 91.1718 190.796 91.0242 190.86 90.8614C190.924 90.6986 190.953 90.5242 190.945 90.3495V89.8139Z" fill="#21B175"/>
<path d="M196.345 92.8371H194.562V83.75H196.345V92.8371Z" fill="#21B175"/>
<path d="M201.86 86.1802C202.062 86.1765 202.263 86.1942 202.461 86.2327L202.326 87.9026C202.154 87.8604 201.977 87.8406 201.8 87.844C201.317 87.8144 200.841 87.9712 200.47 88.282C200.307 88.4403 200.18 88.6317 200.098 88.8432C200.016 89.0546 199.98 89.2813 199.994 89.5078V92.831H198.211V86.3018H199.563L199.825 87.4H199.913C200.108 87.0413 200.391 86.7369 200.734 86.5147C201.068 86.2943 201.46 86.1779 201.86 86.1802Z" fill="#21B175"/>
<path d="M209.596 89.5686C209.649 90.4775 209.347 91.3718 208.753 92.0622C208.448 92.3698 208.082 92.609 207.678 92.7642C207.274 92.9194 206.841 92.987 206.409 92.9624C205.828 92.9745 205.255 92.8326 204.748 92.5512C204.269 92.2773 203.884 91.8653 203.643 91.3691C203.375 90.8074 203.242 90.1906 203.257 89.5686C203.201 88.6623 203.501 87.7701 204.093 87.0812C204.4 86.776 204.768 86.5389 205.173 86.3859C205.578 86.2328 206.011 86.1671 206.443 86.193C207.023 86.181 207.596 86.3219 208.104 86.6012C208.582 86.8724 208.967 87.2812 209.208 87.7744C209.477 88.3337 209.61 88.9484 209.596 89.5686ZM205.077 89.5686C205.044 90.0773 205.155 90.585 205.395 91.0345C205.508 91.2018 205.664 91.3358 205.847 91.4231C206.029 91.5104 206.231 91.5478 206.433 91.5311C206.632 91.5478 206.833 91.5106 207.013 91.4238C207.193 91.337 207.347 91.2036 207.459 91.0374C207.696 90.5858 207.804 90.0776 207.771 89.5686C207.804 89.0641 207.695 88.5604 207.455 88.1149C207.329 87.9637 207.172 87.8421 206.993 87.7587C206.815 87.6752 206.621 87.6319 206.424 87.6319C206.227 87.6319 206.032 87.6752 205.854 87.7587C205.676 87.8421 205.518 87.9637 205.392 88.1149C205.153 88.5604 205.044 89.0641 205.077 89.5686Z" fill="#21B175"/>
<path d="M214.647 92.9515C214.302 92.9659 213.958 92.8974 213.645 92.7521C213.331 92.6067 213.057 92.3886 212.845 92.1159H212.752C212.814 92.661 212.845 92.9765 212.845 93.0625V95.7074H211.062V86.3053H212.512L212.763 87.1514H212.844C213.038 86.8395 213.312 86.5854 213.638 86.415C213.964 86.2446 214.33 86.1641 214.697 86.1822C215.05 86.1694 215.401 86.2451 215.718 86.4023C216.034 86.5595 216.306 86.7934 216.51 87.0825C216.986 87.8192 217.215 88.6882 217.164 89.5638C217.18 90.183 217.078 90.7996 216.864 91.3807C216.693 91.8487 216.39 92.2565 215.99 92.5539C215.596 92.8263 215.126 92.9657 214.647 92.9515ZM214.122 87.6075C213.94 87.5923 213.757 87.6213 213.589 87.6922C213.421 87.763 213.273 87.8735 213.157 88.0141C212.92 88.4187 212.81 88.8856 212.842 89.3538V89.5459C212.802 90.0654 212.91 90.5857 213.155 91.0461C213.268 91.1995 213.418 91.3214 213.591 91.4002C213.765 91.4789 213.956 91.5121 214.146 91.4963C214.947 91.4963 215.347 90.8381 215.347 89.5219C215.377 89.0217 215.274 88.5225 215.047 88.0756C214.95 87.9212 214.812 87.796 214.649 87.7136C214.486 87.6311 214.304 87.5945 214.122 87.6075Z" fill="#21B175"/>
</g>
<defs>
<filter id="filter0_b_12500_139755" x="-12" y="-12" width="283.414" height="139.703" filterUnits="userSpaceOnUse" color-interpolation-filters="sRGB">
<feFlood flood-opacity="0" result="BackgroundImageFix"/>
<feGaussianBlur in="BackgroundImageFix" stdDeviation="6"/>
<feComposite in2="SourceAlpha" operator="in" result="effect1_backgroundBlur_12500_139755"/>
<feBlend mode="normal" in="SourceGraphic" in2="effect1_backgroundBlur_12500_139755" result="shape"/>
</filter>
<linearGradient id="paint0_linear_12500_139755" x1="118.485" y1="43.2149" x2="152.183" y2="51.2628" gradientUnits="userSpaceOnUse">
<stop stop-color="#A3E054"/>
<stop offset="0.414" stop-color="#76C756"/>
<stop offset="1" stop-color="#21B175"/>
</linearGradient>
</defs>
</svg>
