<svg width="102" height="74" viewBox="0 0 102 74" fill="none" xmlns="http://www.w3.org/2000/svg">
<path d="M86.1577 36.2513C85.3774 36.6044 84.5975 36.9616 83.8154 37.3089C76.9573 40.3527 70.102 43.4671 62.8008 45.1121C55.0235 46.8652 47.1794 48.4544 38.8568 47.6666C33.5373 47.1828 28.1851 46.0737 22.8682 44.3534C17.0473 42.4512 11.5536 38.6392 6.28219 33.7063C4.51914 32.0223 2.82835 30.2064 1.22112 28.2706C0.692269 27.6454 -0.0607405 26.6939 0.23064 26.0472C0.530825 25.38 1.26243 26.4334 1.74592 26.8747C6.79199 31.4775 11.9903 35.3721 17.5186 37.7061C21.026 39.0965 24.5807 40.0223 28.122 40.4676C33.3748 41.4253 38.6104 41.8174 43.772 41.6397C47.3369 41.4063 50.7873 40.686 54.2939 40.2042C60.9326 39.2922 67.1344 36.9176 73.3801 34.6906C75.9467 33.7753 78.4345 32.6166 81.0773 31.5199C80.6313 31.2654 80.1566 31.1762 79.7141 31.2639C76.1979 31.1309 72.6524 30.6677 69.106 29.8779C67.597 29.5478 66.1053 28.8574 64.7118 27.8441C64.268 27.3945 63.9104 26.8171 63.6775 26.1739C63.4445 25.5307 63.3451 24.8462 63.3899 24.1939C63.4351 23.9851 63.5352 23.8118 63.6751 23.6997C63.815 23.5876 63.9873 23.5428 64.1662 23.5719C65.166 23.5527 66.1753 23.5895 67.1829 23.6258C74.9129 23.906 82.6866 24.4883 90.3617 24.3888C91.6044 24.2978 92.8819 24.4572 94.1492 24.8614C94.3042 24.8933 94.4553 24.9847 94.5818 25.1231C94.7084 25.2614 94.8042 25.44 94.8561 25.6343C95.6083 28.061 95.8646 30.2551 94.7077 32.0671C92.0224 36.2746 89.3906 40.5513 86.7563 44.8276C85.051 47.5983 83.5484 50.6279 81.63 53.1279C81.2905 53.5683 80.9732 54.2332 80.3873 53.8855C79.7785 53.5236 79.8 52.6 79.6522 51.8981C79.4168 50.5869 79.5634 49.2886 80.0636 48.2561C81.6153 44.4842 83.45 40.9499 85.5464 37.6939C85.7945 37.3049 86.034 36.9027 86.2772 36.5078L86.1577 36.2513Z" fill="url(#paint0_linear_6534_74714)"/>
<defs>
<linearGradient id="paint0_linear_6534_74714" x1="65.4234" y1="13.521" x2="63.2571" y2="52.1484" gradientUnits="userSpaceOnUse">
<stop stop-color="#1898AF"/>
<stop offset="1" stop-color="#63BB4C"/>
</linearGradient>
</defs>
</svg>
