<svg width="66" height="66" viewBox="0 0 66 66" fill="none" xmlns="http://www.w3.org/2000/svg">
<rect width="65.5155" height="65.5155" rx="9.51031" fill="#FFF5E0"/>
<path d="M45.0904 34.1484H42.4609C42.729 34.8822 42.8754 35.6741 42.8754 36.4995V46.4372C42.8754 46.7813 42.8155 47.1116 42.7065 47.4188H47.0535C48.6774 47.4188 49.9984 46.0977 49.9984 44.474V39.0565C49.9985 36.3502 47.7967 34.1484 45.0904 34.1484Z" fill="#FFAB00"/>
<path d="M23.1231 36.4995C23.1231 35.6741 23.2695 34.8822 23.5375 34.1484H20.9081C18.2018 34.1484 16 36.3502 16 39.0565V44.474C16 46.0978 17.321 47.4189 18.9449 47.4189H23.292C23.183 47.1116 23.1231 46.7813 23.1231 46.4372V36.4995Z" fill="#FFAB00"/>
<path d="M36.0053 31.5938H29.994C27.2877 31.5938 25.0859 33.7955 25.0859 36.5018V46.4396C25.0859 46.9816 25.5254 47.4212 26.0676 47.4212H39.9317C40.4739 47.4212 40.9134 46.9817 40.9134 46.4396V36.5018C40.9134 33.7955 38.7116 31.5938 36.0053 31.5938Z" fill="#FFAB00"/>
<path d="M32.9963 18.5781C29.7416 18.5781 27.0938 21.226 27.0938 24.4808C27.0938 26.6885 28.3122 28.6166 30.1117 29.6289C30.9652 30.109 31.9493 30.3834 32.9963 30.3834C34.0434 30.3834 35.0275 30.109 35.881 29.6289C37.6805 28.6166 38.8989 26.6884 38.8989 24.4808C38.8989 21.2261 36.2511 18.5781 32.9963 18.5781Z" fill="#FFAB00"/>
<path d="M22.6331 24.0781C20.199 24.0781 18.2188 26.0584 18.2188 28.4925C18.2188 30.9266 20.199 32.9069 22.6331 32.9069C23.2506 32.9069 23.8385 32.779 24.3726 32.5491C25.2961 32.1515 26.0575 31.4477 26.5286 30.5662C26.8593 29.9475 27.0475 29.2416 27.0475 28.4925C27.0475 26.0584 25.0672 24.0781 22.6331 24.0781Z" fill="#FFAB00"/>
<path d="M43.3675 24.0781C40.9334 24.0781 38.9531 26.0584 38.9531 28.4925C38.9531 29.2417 39.1413 29.9475 39.472 30.5662C39.9431 31.4478 40.7045 32.1515 41.628 32.5491C42.1621 32.779 42.75 32.9069 43.3675 32.9069C45.8016 32.9069 47.7819 30.9266 47.7819 28.4925C47.7819 26.0584 45.8016 24.0781 43.3675 24.0781Z" fill="#FFAB00"/>
</svg>
