<svg width="123" height="67" viewBox="0 0 123 67" fill="none" xmlns="http://www.w3.org/2000/svg">
<path d="M34.9332 61.8563L36.7438 62.2865L35.8834 65.9077L34.0728 65.4775L34.9332 61.8563ZM20.039 61.058L19.8671 62.9111L20.039 61.058ZM5.44795 62.8186C4.42133 62.868 3.54907 62.0757 3.4997 61.0491C3.45034 60.0225 4.24257 59.1502 5.26919 59.1009L5.44795 62.8186ZM34.503 63.6669C34.0728 65.4775 34.0729 65.4776 34.0729 65.4776C34.0728 65.4775 34.0728 65.4775 34.0727 65.4775C34.0726 65.4775 34.0723 65.4774 34.0719 65.4773C34.071 65.4771 34.0696 65.4768 34.0677 65.4763C34.0639 65.4754 34.0581 65.474 34.0501 65.4722C34.0343 65.4684 34.0103 65.4628 33.9785 65.4553C33.9148 65.4404 33.82 65.4183 33.6968 65.3898C33.4504 65.3328 33.0908 65.2506 32.641 65.1501C31.7409 64.9491 30.4814 64.6755 29.0458 64.3855C26.1561 63.802 22.6208 63.1666 19.8671 62.9111L20.2109 59.205C23.1724 59.4798 26.869 60.1488 29.7825 60.7372C31.2485 61.0332 32.5335 61.3123 33.4524 61.5176C33.912 61.6203 34.2806 61.7046 34.535 61.7634C34.6622 61.7928 34.7609 61.8158 34.8282 61.8316C34.8619 61.8395 34.8877 61.8456 34.9053 61.8497C34.9141 61.8518 34.9209 61.8534 34.9255 61.8545C34.9278 61.855 34.9296 61.8555 34.9309 61.8558C34.9316 61.8559 34.9321 61.856 34.9324 61.8561C34.9326 61.8562 34.9328 61.8562 34.9329 61.8562C34.933 61.8563 34.9332 61.8563 34.503 63.6669ZM19.8671 62.9111C17.1164 62.6559 13.5286 62.6296 10.5842 62.6711C9.12143 62.6917 7.8346 62.7287 6.91392 62.7605C6.45378 62.7764 6.08561 62.791 5.83325 62.8016C5.70708 62.8069 5.6099 62.8112 5.54468 62.8141C5.51207 62.8156 5.48746 62.8167 5.47121 62.8175C5.46309 62.8179 5.45706 62.8182 5.45317 62.8184C5.45122 62.8184 5.44981 62.8185 5.44894 62.8186C5.4485 62.8186 5.44821 62.8186 5.44804 62.8186C5.44796 62.8186 5.44794 62.8186 5.4479 62.8186C5.44791 62.8186 5.44795 62.8186 5.35858 60.9597C5.26919 59.1009 5.26931 59.1009 5.26946 59.1008C5.26955 59.1008 5.26974 59.1008 5.26993 59.1008C5.27031 59.1008 5.27083 59.1008 5.27148 59.1007C5.27279 59.1007 5.27464 59.1006 5.27703 59.1005C5.28181 59.1003 5.28873 59.0999 5.29776 59.0995C5.31581 59.0987 5.34228 59.0974 5.37677 59.0959C5.44576 59.0928 5.54691 59.0883 5.67721 59.0828C5.93779 59.0719 6.31514 59.0569 6.7853 59.0407C7.72522 59.0082 9.03812 58.9704 10.5318 58.9494C13.5005 58.9076 17.2529 58.9305 20.2109 59.205L19.8671 62.9111Z" fill="#FFAB00"/>
<path d="M45.8996 9.92849C45.8996 9.92849 49.8996 14.15 50.9806 17.5651C51.7377 19.957 51.6948 23.9497 51.6948 23.9497M38.8081 51.0005C38.8081 51.0005 36.5071 47.4861 34.4929 45.7646C32.5562 44.1094 28.8966 42.4124 28.8966 42.4124" stroke="#FFAB00" stroke-width="3.72204"/>
<path d="M119.39 22.3461C119.39 22.3461 114.23 18.4479 109.319 18.9973C104.408 19.5466 99.2615 21.8652 96.9133 25.8995C95.3654 28.559 94.4852 33.0883 97.705 32.9767C99.9749 32.8981 98.8487 29.8652 98.1653 28.2012C96.0475 23.0445 88.7515 16.8859 78.756 16.946C52.9155 17.1015 52.047 60.461 52.047 60.461C52.047 60.461 49.2068 43.1349 45.4503 32.606C42.0561 23.0926 34.3818 9.22925 34.3818 9.22925" stroke="#FFAB00" stroke-width="3.72204" stroke-linecap="round"/>
</svg>
