<svg xmlns="http://www.w3.org/2000/svg" width="53" height="51" viewBox="0 0 53 51"><defs><style>.a,.b{fill:#0fa76f;}.a{opacity:0.09;}.b{stroke:#0fa76f;stroke-width:0.5px;}</style></defs><g transform="translate(-960 -2976)"><rect class="a" width="53" height="51" rx="6" transform="translate(960 2976)"/><g transform="translate(270.732 2508.263)"><path class="b" d="M719.316,537.684a.705.705,0,0,0,.263.047,5.357,5.357,0,0,0,.728-.047Z" transform="translate(-8.417 -30.571)"/><path class="b" d="M725.1,497.266c.972-2.968,1.146-3.812,1.146-5.452a10.992,10.992,0,0,0-1.718-6.128,25.683,25.683,0,0,0-3.9-4.447c-.319-.31-.648-.634-.972-.958a.794.794,0,0,0-1.122,0c-.328.329-.652.648-.967.958a26.041,26.041,0,0,0-3.939,4.494,10.987,10.987,0,0,0-1.63,4.785.734.734,0,0,0-.141-.024,3.831,3.831,0,0,0-.395-.023h-.413a3.684,3.684,0,0,0-3.677,4.1l.207,1.916a3.678,3.678,0,0,0,.714,1.817l-2.559,1.583a4.009,4.009,0,0,0-1.818,2.588l-.427,2.019a2.177,2.177,0,0,0,1.681,2.573,2,2,0,0,0,.447.047H716.9a2.15,2.15,0,0,0,1.441-.545.792.792,0,0,0,1.559-.2v-2.381h1.892a5.93,5.93,0,0,0,5.255,3.175.8.8,0,0,0,.794-.794v-2.573A9.144,9.144,0,0,0,725.1,497.266Zm-6.414-14.89.417-.409.418.409a24.773,24.773,0,0,1,3.616,4.085h-8.087A25.277,25.277,0,0,1,718.69,482.376Zm-9.153,10.429a2.034,2.034,0,0,1,1.517-.667h.409a1.952,1.952,0,0,1,.5.066,2.031,2.031,0,0,1,1.54,1.972c0,.071,0,.146-.009.221l-.2,1.911a2.041,2.041,0,0,1-4.058,0l-.2-1.911A2,2,0,0,1,709.538,492.805Zm7.763,12.458-.005-.015a.479.479,0,0,1-.394.188h-4.682a2.459,2.459,0,0,1-.263.065v-.065h-6.334a.518.518,0,0,1-.508-.6l.423-2.02a2.375,2.375,0,0,1,1.071-1.517l3.043-1.883a3.653,3.653,0,0,0,1.638.371,3.7,3.7,0,0,0,1.587-.371l.338.211.855.531,1.845,1.141a1.9,1.9,0,0,1,.292.221,2.263,2.263,0,0,1,.638.868,2.149,2.149,0,0,1,.131.423l.249,1.169.178.85A.505.505,0,0,1,717.3,505.264Zm5.39-5.795c-.286.859-.61,1.817-.981,2.925H719.9v-2.432a.794.794,0,0,0-1.587,0v1.648a3.983,3.983,0,0,0-1.526-1.723L715.36,499l-1.131-.7a3.729,3.729,0,0,0,.549-1.047,3.615,3.615,0,0,0,.169-.77l.2-1.916a3.7,3.7,0,0,0-1.588-3.447,9.783,9.783,0,0,1,.667-3.076h9.744a9.773,9.773,0,0,1,.69,3.771C724.663,493.829,724.09,495.308,722.69,499.469Zm3.564,6.034a4.382,4.382,0,0,1-3.113-2.371c.4-1.207,1.282-3.827,1.39-4.142a7.658,7.658,0,0,1,1.723,4.8Z"/></g></g></svg>