<svg xmlns="http://www.w3.org/2000/svg" xmlns:xlink="http://www.w3.org/1999/xlink" width="64.426" height="90.892" viewBox="0 0 64.426 90.892">
  <defs>
    <linearGradient id="linear-gradient" x1="0.778" x2="-0.212" y2="1.161" gradientUnits="objectBoundingBox">
      <stop offset="0" stop-color="#15bf81"/>
      <stop offset="1" stop-color="#0b6041"/>
    </linearGradient>
  </defs>
  <g id="reading" transform="translate(-72.297)">
    <g id="Group_38828" data-name="Group 38828" transform="translate(72.296)">
      <path id="Path_94151" data-name="Path 94151" d="M132.33,60.034V50.572l-3.993,1.554-.012-.026-.1-.173a10.278,10.278,0,0,0-6.791-4.545l-9.608-1.748v-.758a14.669,14.669,0,0,0,7.044-9.854,5.867,5.867,0,0,0,4.669-5.735V14.823a9.182,9.182,0,0,0-6.56-8.81l-.732-.732A18.03,18.03,0,0,0,85.474,18.029V29.285a5.867,5.867,0,0,0,4.669,5.735,14.67,14.67,0,0,0,7.044,9.854v.758L87.581,47.38a10.281,10.281,0,0,0-6.788,4.541l-.088.214-4.016-1.562v9.462A4.4,4.4,0,0,0,72.3,64.427v5.857a4.4,4.4,0,0,0,4.393,4.393v5.394l27.821,10.821L132.33,80.071V74.676a4.4,4.4,0,0,0,4.393-4.393V64.427A4.4,4.4,0,0,0,132.33,60.034ZM114.575,49.109l6.34,1.152a7.336,7.336,0,0,1,4.623,2.952l-14.167,5.508Zm-14.333-2.892a14.588,14.588,0,0,0,8.537,0l-4.268,3.2Zm2.04,5.189-2.989,2.987-1.939-5.815.933-.168Zm8.452-2.994.933.168L109.726,54.4l-2.989-2.987Zm8.419-16.606V26.763a2.9,2.9,0,0,1,0,5.043Zm-29.285,0a2.9,2.9,0,0,1,0-5.043Zm0-9.843v1.672a5.808,5.808,0,0,0-1.464.606V18.029A15.1,15.1,0,0,1,114.182,7.352l1.291,1.293.394.1a6.258,6.258,0,0,1,4.749,6.081v9.419a5.755,5.755,0,0,0-1.464-.606V21.964h-4.643a12.736,12.736,0,0,1-10.14-5.068L103.2,15.341,100.3,18.252a12.6,12.6,0,0,1-8.964,3.712ZM92.8,32.213V24.825a15.5,15.5,0,0,0,9.57-4.5l.57-.57a15.685,15.685,0,0,0,11.573,5.139h1.715v7.321a11.714,11.714,0,1,1-23.428,0ZM88.1,50.262l6.34-1.152,3.2,9.613-14.169-5.51A7.334,7.334,0,0,1,88.1,50.262ZM75.224,70.284V64.427a1.466,1.466,0,0,1,1.464-1.464,4.393,4.393,0,1,1,0,8.785A1.466,1.466,0,0,1,75.224,70.284Zm27.821,16.894L79.617,78.069V74.056a7.307,7.307,0,0,0,0-13.4v-5.8l23.428,9.111ZM98.7,59.132l5.812-5.813,5.812,5.812-5.812,2.261Zm30.7,18.936-23.428,9.109V63.964L129.4,54.853v5.8a7.307,7.307,0,0,0,0,13.4Zm4.393-7.784a1.466,1.466,0,0,1-1.464,1.464,4.393,4.393,0,1,1,0-8.785,1.466,1.466,0,0,1,1.464,1.464Z" transform="translate(-72.296 0)" fill="url(#linear-gradient)"/>
    </g>
  </g>
</svg>
