<svg xmlns="http://www.w3.org/2000/svg" width="53" height="51" viewBox="0 0 53 51"><defs><style>.a{fill:#f6ebd4;}.b{fill:#ffab00;}</style></defs><g transform="translate(0 0.365)"><rect class="a" width="53" height="51" rx="6" transform="translate(0 -0.365)"/><g transform="translate(12.001 9.564)"><path class="b" d="M29.154,7.421a1.33,1.33,0,0,0-1.33-1.35H21.968a.409.409,0,0,0-.378.253.415.415,0,0,0,.091.446L22.81,7.9a.943.943,0,0,1,0,1.34l-5.731,5.729a1.253,1.253,0,0,1-1.775,0l-3.7-3.7a1.166,1.166,0,0,0-1.649,0L.341,20.879a1.17,1.17,0,0,0,0,1.651l1.24,1.238a1.169,1.169,0,0,0,1.648,0l6.663-6.662a1.257,1.257,0,0,1,1.776,0L15.3,20.742a1.258,1.258,0,0,0,.889.365,1.274,1.274,0,0,0,.891-.365L25.7,12.12a.944.944,0,0,1,1.338,0l1.33,1.334a.41.41,0,0,0,.443.091.414.414,0,0,0,.255-.373Z" transform="translate(0)"/></g></g></svg>