<svg width="36" height="36" viewBox="0 0 36 36" fill="none" xmlns="http://www.w3.org/2000/svg">
<rect width="36" height="36" rx="4" fill="#EDF9FF"/>
<path d="M9 14.0328V24.7476C9 25.1793 9.35119 25.5305 9.78283 25.5305H11.9727V13.25H9.78283C9.35113 13.25 9 13.6012 9 14.0328Z" fill="#0483BC"/>
<path d="M12.5625 13.25H23.4416V25.5305H12.5625V13.25Z" fill="#0483BC"/>
<path d="M26.2211 13.25H24.0312V25.5305H26.2211C26.6527 25.5305 27.0039 25.1793 27.0039 24.7476V14.0328C27.0039 13.6012 26.6528 13.25 26.2211 13.25Z" fill="#0483BC"/>
<path d="M18.0058 10.4606C19.2818 10.4606 20.3365 11.4238 20.4827 12.6611H21.9491C21.7979 10.6172 20.0878 9 18.0058 9C15.9239 9 14.2137 10.6172 14.0625 12.6611H15.5289C15.6751 11.4238 16.7298 10.4606 18.0058 10.4606Z" fill="#0483BC"/>
</svg>
