<svg width="36" height="36" viewBox="0 0 36 36" fill="none" xmlns="http://www.w3.org/2000/svg">
<rect width="36" height="36" rx="4" fill="#FFF5E0"/>
<rect opacity="0.01" x="4.39844" y="3.85156" width="27.4744" height="28.0239" rx="9.51031" fill="white"/>
<path fill-rule="evenodd" clip-rule="evenodd" d="M18.146 27.4873C10.4534 27.4873 8.80469 25.8386 8.80469 18.146C8.80469 10.4534 10.4534 8.80469 18.146 8.80469C25.8386 8.80469 27.4873 10.4534 27.4873 18.146C27.4873 25.8386 25.8386 27.4873 18.146 27.4873ZM17.219 22.9958C16.797 22.9138 16.5214 22.5052 16.6034 22.0831L18.1542 14.1053C18.2362 13.6833 18.6448 13.4077 19.0668 13.4897C19.4889 13.5717 19.7644 13.9803 19.6825 14.4024L18.1318 22.3803C18.0497 22.8022 17.6411 23.0779 17.219 22.9958ZM15.5827 17.1395C15.8867 16.8355 15.8867 16.3427 15.5827 16.0387C15.2787 15.7347 14.7858 15.7347 14.4818 16.0387L12.9249 17.5955C12.6209 17.8995 12.6209 18.3924 12.9249 18.6964L14.4818 20.2533C14.7858 20.5573 15.2787 20.5573 15.5827 20.2533C15.8867 19.9493 15.8867 19.4564 15.5827 19.1524L14.5762 18.146L15.5827 17.1395ZM20.7093 17.1395C20.4053 16.8355 20.4053 16.3427 20.7093 16.0387C21.0133 15.7347 21.5062 15.7347 21.8102 16.0387L23.3671 17.5955C23.6712 17.8995 23.6712 18.3924 23.3671 18.6964L21.8102 20.2533C21.5062 20.5573 21.0133 20.5573 20.7093 20.2533C20.4053 19.9493 20.4053 19.4564 20.7093 19.1524L21.7158 18.146L20.7093 17.1395Z" fill="#FFAB00"/>
</svg>
