<svg width="36" height="36" viewBox="0 0 36 36" fill="none" xmlns="http://www.w3.org/2000/svg">
<rect width="36" height="36" rx="4" fill="#EDF9FF"/>
<path d="M19.9375 13.7552V10.0469C20.3416 10.1349 20.7116 10.341 21.0022 10.6399L23.9709 13.6604C24.2647 13.956 24.4672 14.3325 24.5537 14.7436H20.9089C20.6513 14.7436 20.4042 14.6395 20.222 14.4541C20.0398 14.2688 19.9375 14.0174 19.9375 13.7552Z" fill="#0483BC"/>
<path d="M20.9086 15.9302C20.6279 15.9304 20.3499 15.8743 20.0905 15.7651C19.8311 15.6559 19.5954 15.4958 19.3969 15.2938C19.1984 15.0919 19.041 14.8521 18.9337 14.5882C18.8264 14.3243 18.7712 14.0414 18.7714 13.7558V10H13.1371C12.8564 9.99979 12.5784 10.0559 12.3191 10.1651C12.0597 10.2743 11.824 10.4345 11.6255 10.6364C11.427 10.8384 11.2696 11.0782 11.1623 11.3421C11.0549 11.606 10.9998 11.8888 11 12.1744V24.8256C10.9998 25.1112 11.0549 25.394 11.1623 25.6579C11.2696 25.9218 11.427 26.1616 11.6255 26.3636C11.824 26.5655 12.0597 26.7257 12.3191 26.8349C12.5784 26.9441 12.8564 27.0002 13.1371 27H22.4629C22.7436 27.0002 23.0216 26.9441 23.2809 26.8349C23.5403 26.7257 23.776 26.5655 23.9745 26.3636C24.173 26.1616 24.3304 25.9218 24.4377 25.6579C24.5451 25.394 24.6002 25.1112 24.6 24.8256V15.9302H20.9086ZM17.8 23.0465H14.6914C14.5368 23.0465 14.3886 22.984 14.2793 22.8728C14.17 22.7616 14.1086 22.6108 14.1086 22.4535C14.1086 22.2962 14.17 22.1454 14.2793 22.0342C14.3886 21.9229 14.5368 21.8605 14.6914 21.8605H17.8C17.9546 21.8605 18.1028 21.9229 18.2121 22.0342C18.3214 22.1454 18.3829 22.2962 18.3829 22.4535C18.3829 22.6108 18.3214 22.7616 18.2121 22.8728C18.1028 22.984 17.9546 23.0465 17.8 23.0465ZM20.9086 19.8837H14.6914C14.5368 19.8837 14.3886 19.8212 14.2793 19.71C14.17 19.5988 14.1086 19.448 14.1086 19.2907C14.1086 19.1334 14.17 18.9826 14.2793 18.8714C14.3886 18.7602 14.5368 18.6977 14.6914 18.6977H20.9086C21.0632 18.6977 21.2114 18.7602 21.3207 18.8714C21.43 18.9826 21.4914 19.1334 21.4914 19.2907C21.4914 19.448 21.43 19.5988 21.3207 19.71C21.2114 19.8212 21.0632 19.8837 20.9086 19.8837Z" fill="#0483BC"/>
</svg>
