<svg width="36" height="36" viewBox="0 0 36 36" fill="none" xmlns="http://www.w3.org/2000/svg">
<rect width="36" height="36" rx="4" fill="#FFF4F3"/>
<g clip-path="url(#clip0_8248_93373)">
<path d="M15.4458 23.8203L15.0981 24.8635H13.9995C13.715 24.8635 13.4844 25.0941 13.4844 25.3786C13.4844 25.6631 13.715 25.8938 13.9995 25.8938H22.2762C22.5607 25.8938 22.7913 25.6631 22.7913 25.3786C22.7913 25.0941 22.5607 24.8635 22.2762 24.8635H21.1776L20.8299 23.8203H15.4458Z" fill="#FF7680"/>
<path d="M9.34375 21.6568C9.34375 22.2805 9.8512 22.7879 10.4749 22.7879H25.7962C26.4199 22.7879 26.9274 22.2805 26.9274 21.6567V20.7188H9.34375V21.6568Z" fill="#FF7680"/>
<path d="M26.9274 11.5062C26.9274 10.8825 26.4199 10.375 25.7962 10.375H10.4749C9.8512 10.375 9.34375 10.8824 9.34375 11.5062V19.6863H26.9274V11.5062ZM15.7434 16.6047C15.9448 16.8057 15.9452 17.1318 15.7442 17.3332C15.6436 17.434 15.5116 17.4845 15.3795 17.4845C15.2479 17.4845 15.1162 17.4343 15.0156 17.3339L13.6333 15.9545C13.5365 15.8579 13.4821 15.7266 13.4821 15.5899C13.4821 15.4531 13.5365 15.3218 13.6333 15.2252L15.0156 13.8458C15.217 13.6448 15.5432 13.6451 15.7442 13.8465C15.9451 14.0479 15.9448 14.374 15.7434 14.575L14.7265 15.5899L15.7434 16.6047ZM19.2861 14.4408L17.9066 17.1997C17.8163 17.3802 17.6344 17.4846 17.4454 17.4846C17.368 17.4846 17.2894 17.467 17.2155 17.4301C16.961 17.3028 16.8579 16.9934 16.9851 16.7389L18.3646 13.98C18.4918 13.7256 18.8012 13.6223 19.0557 13.7496C19.3101 13.8769 19.4133 14.1863 19.2861 14.4408ZM22.6378 15.9545L21.2555 17.3339C21.1549 17.4343 21.0233 17.4845 20.8916 17.4845C20.7596 17.4845 20.6276 17.434 20.5269 17.3332C20.326 17.1318 20.3263 16.8057 20.5277 16.6047L21.5446 15.5899L20.5277 14.575C20.3263 14.374 20.326 14.0479 20.5269 13.8465C20.728 13.6451 21.0541 13.6448 21.2555 13.8458L22.6378 15.2252C22.7346 15.3218 22.789 15.4531 22.789 15.5899C22.789 15.7266 22.7346 15.8578 22.6378 15.9545Z" fill="#FF7680"/>
</g>
<defs>
<clipPath id="clip0_8248_93373">
<rect width="17.5836" height="17.5836" fill="white" transform="translate(9.34375 9.34375)"/>
</clipPath>
</defs>
</svg>
