<svg width="34" height="34" viewBox="0 0 34 34" fill="none" xmlns="http://www.w3.org/2000/svg">
<rect x="0.242188" y="0.484375" width="33.5155" height="33.5155" rx="4" fill="#FFF4F3"/>
<path d="M9.4375 14.6067V23.7654C9.4375 24.1344 9.73769 24.4346 10.1067 24.4346H11.9785V13.9375H10.1067C9.73764 13.9375 9.4375 14.2377 9.4375 14.6067Z" fill="#FF7680"/>
<path d="M12.4844 13.9375H21.7836V24.4346H12.4844V13.9375Z" fill="#FF7680"/>
<path d="M24.1531 13.9375H22.2812V24.4346H24.1531C24.522 24.4346 24.8222 24.1344 24.8222 23.7654V14.6067C24.8222 14.2377 24.5221 13.9375 24.1531 13.9375Z" fill="#FF7680"/>
<path d="M17.1363 11.5532C18.227 11.5532 19.1285 12.3765 19.2535 13.4342H20.507C20.3777 11.687 18.9159 10.3047 17.1363 10.3047C15.3567 10.3047 13.8949 11.687 13.7656 13.4342H15.0191C15.1441 12.3765 16.0456 11.5532 17.1363 11.5532Z" fill="#FF7680"/>
</svg>
