<svg width="704" height="338" viewBox="0 0 704 338" fill="none" xmlns="http://www.w3.org/2000/svg">
<g opacity="0.28" clip-path="url(#clip0_6270_27346)">
<path d="M384.525 287.492V284.104V278.548V273.082V267.526V259.369V253.814V245.658V240.101V231.947V226.39V218.236V212.679V204.522V198.965V190.811V185.254V177.1V171.543V163.389V157.832V149.675V144.119V135.964V130.408V122.253V116.696V108.54V102.983V94.8287V89.2719V77.7926H395.766L405.115 75.1035L414.466 72.4166H447.292V70.102V60.639L456.311 54.6795V49.6104V47.4875V45.3623H457.507V44.6002V40.8856L458.491 40.2345L464.062 36.5547L470.617 40.8856V44.6002V45.3623H471.662V47.4875V49.6104V54.6795L480.684 60.639V70.102V72.4166H513.51L532.21 77.7926H543.451V89.2719V94.8287V102.983V108.54V116.696V122.253V130.408V135.964V144.119V149.675V157.832V163.389V171.543V177.1V185.254V190.811V198.965V204.522V212.679V218.236V226.39V231.947V240.101V245.658V253.814V259.369V267.526V273.082V278.548V284.104V287.492H553.484V334.113H471.662H469.058H458.372H455.766H373.944V287.492H384.525Z" fill="url(#paint0_linear_6270_27346)"/>
<path d="M356.666 32.1803V28.875H373.717V32.1803H376.062V334.198H306.005V32.1803H356.666Z" fill="#D9EED4"/>
<path d="M343.431 159.844V157.303H355.523V155.781H366.928V159.844H414.906V337.945H338.375V159.844H343.431Z" fill="#A2D4D1"/>
<path d="M94.102 114.079V111.797H161.828V114.079H176.109V337.849H88.4995V114.079H94.102Z" fill="#D9EED4"/>
<path d="M132.994 158.198V155.657H145.085V154.133H156.49V158.198H204.469V336.299H127.937V158.198H132.994Z" fill="url(#paint1_linear_6270_27346)"/>
<path d="M188.052 185.273V178.398H232.927V185.273H242.391V333.804H184.342V185.273H188.052Z" fill="#A2D4D1"/>
<path d="M84.724 232.818V228.141H112.008V337.677H97.6291V337.815H66.1775V232.818H84.724Z" fill="#53B383"/>
<path d="M577.366 244.583H617.993V242.983H617.652V241.054H616.225V237.722H621.584V203.82H620.987V201.882H619.793V198.553H624.156V179.511H623.35V178.612H623.011V175.403H625.61L633.436 151.595L634.121 149.278H633.198V147.619H632.93V146.262H633.19V144.085H634.333C633.919 143.024 633.715 141.907 633.729 140.784C633.729 137.189 638.237 134.273 638.237 134.273C638.237 134.273 642.746 137.189 642.746 140.784C642.755 141.902 642.546 143.013 642.13 144.067H643.282V146.245H643.55V147.601H643.289V149.256H642.376L650.901 175.385H653.028V178.595H652.687V179.49H652.007V198.527H656.365V201.86H655.179V203.794H654.589V237.718H659.96V241.038H658.54V242.97H657.376V244.57H698.766V247.891H697.706V249.822H696.629V320.69H681.834V336.642H593.513V323.954H593.43V320.708H578.679V249.839H578.435V247.904H577.368V244.583H577.366Z" fill="#A2D4D1"/>
<path d="M548.249 311.402V302.241H556.329V121.83H565.295V112.18H608.799V121.83H609.688V302.241H625.516V311.402H628.766V336.205H543.453V311.402H548.249Z" fill="#D9EED4"/>
<path d="M37.0235 335.282C38.2902 311.592 60.1079 292.727 86.9387 292.727C113.77 292.727 135.58 311.603 136.852 335.282H37.0235Z" fill="#1A987C"/>
<path d="M121.781 205.398V198.513H129.575V199.384H134.52V196.58H133.375V195.273H133.755V190.222H133.387V188.915H134.532V188.234H134.956C134.959 188.033 134.977 187.832 135.01 187.633C135.01 187.596 135.022 187.559 135.029 187.52C135.103 187.134 135.234 186.759 135.419 186.405L135.47 186.309C135.662 185.964 135.903 185.642 136.188 185.353L136.262 185.281C136.556 184.998 136.89 184.75 137.255 184.543L137.341 184.495C137.526 184.395 137.718 184.306 137.915 184.227V181.985H137.497V181.503H137.915V181.253H138.127C138.13 181.166 138.14 181.08 138.157 180.994C138.157 180.955 138.179 180.916 138.191 180.876C138.203 180.837 138.22 180.778 138.239 180.73C138.259 180.683 138.274 180.652 138.295 180.613C138.319 180.569 138.345 180.526 138.373 180.484C138.395 180.448 138.418 180.413 138.444 180.38C138.494 180.316 138.549 180.255 138.61 180.199C138.649 180.164 138.69 180.132 138.731 180.101C138.762 180.075 138.795 180.051 138.829 180.029C138.874 179.998 138.921 179.969 138.97 179.942L139.075 179.892C139.127 179.866 139.181 179.843 139.236 179.822V179.472H139.601V178.777H139.72V177.737H139.791V175.511H139.094V174.973H139.791V174.359H139.928V174.973H140.415L140.074 175.243L140.415 175.511H139.928V177.741H139.996V178.777H140.127V179.465H140.495V179.816C140.551 179.836 140.602 179.862 140.656 179.886L140.758 179.936C140.808 179.961 140.856 179.991 140.902 180.023C140.936 180.045 140.969 180.069 140.999 180.095C141.041 180.125 141.082 180.158 141.121 180.193C141.181 180.249 141.236 180.31 141.287 180.373C141.314 180.406 141.333 180.443 141.357 180.478C141.382 180.513 141.411 180.563 141.435 180.606C141.46 180.65 141.472 180.685 141.489 180.724C141.506 180.763 141.525 180.822 141.54 180.87C141.553 180.908 141.563 180.948 141.572 180.987C141.59 181.073 141.6 181.16 141.601 181.247H141.813V181.497H142.232V181.978H141.813V184.221C142.011 184.299 142.203 184.388 142.388 184.489L142.475 184.537C142.841 184.742 143.174 184.991 143.467 185.275L143.542 185.347C143.827 185.636 144.068 185.957 144.258 186.302C144.278 186.333 144.295 186.366 144.312 186.398C144.497 186.753 144.628 187.128 144.702 187.513C144.702 187.552 144.714 187.589 144.719 187.626C144.752 187.825 144.771 188.026 144.775 188.227H145.199V188.909H146.343V190.215H145.961V195.267H146.343V196.573H145.199V199.378H150.143V198.507H157.938V205.392H160.547V208.005L157.156 213.013H155.451V334.294H124.258V213.013H122.553L119.162 208.005V205.392L121.781 205.398ZM129.575 202.785H132.681V201.327H129.58L129.575 202.785ZM133.141 202.785H134.52V201.327H133.144L133.141 202.785ZM145.199 202.785H146.577V201.327H145.199V202.785ZM147.043 202.785H150.143V201.327H147.043V202.785ZM129.575 200.911H132.681V199.811H129.58L129.575 200.911ZM133.144 199.8V200.9H134.522V199.8H133.144ZM145.201 200.9H146.58V199.8H145.201V200.9ZM147.045 199.8V200.9H150.146V199.8H147.045Z" fill="#1A987C"/>
<path d="M412.424 334.897C412.813 327.444 416.399 320.411 422.438 315.26C428.476 310.109 436.502 307.234 444.849 307.234C453.196 307.234 461.222 310.109 467.26 315.26C473.298 320.411 476.884 327.444 477.273 334.897H412.424Z" fill="#A2D4D1"/>
<path d="M244.694 326.243C246.991 326.24 249.198 327.039 250.847 328.468C252.495 327.04 254.7 326.242 256.995 326.243C259.255 326.235 261.431 327.011 263.065 328.407C264.296 327.366 265.835 326.662 267.5 326.38C269.165 326.098 270.886 326.25 272.458 326.817C274.029 327.384 275.386 328.342 276.365 329.579C277.345 330.815 277.907 332.276 277.984 333.79H235.844C235.952 331.756 236.931 329.838 238.579 328.433C240.227 327.028 242.416 326.243 244.694 326.243Z" fill="#A2D4D1"/>
<path d="M34.7789 324.133C37.7615 324.129 40.6281 325.166 42.7685 327.022C44.9089 325.168 47.7727 324.132 50.7532 324.133C53.6888 324.122 56.5146 325.13 58.6355 326.944C60.2335 325.592 62.2324 324.678 64.3943 324.312C66.5563 323.946 68.7902 324.143 70.8308 324.879C72.8713 325.615 74.6325 326.859 75.9048 328.464C77.1771 330.069 77.907 331.966 78.0078 333.931H23.2891C23.4287 331.291 24.7002 328.8 26.8396 326.976C28.979 325.151 31.8221 324.133 34.7789 324.133Z" fill="#A2D4D1"/>
<path d="M152.947 276.564H154.289V269.844H154.703V252.969H153.359V251.156H153.773C153.772 250.387 153.983 249.63 154.387 248.952C154.79 248.273 155.374 247.694 156.087 247.265C156.227 247.18 156.372 247.101 156.521 247.029C157.288 246.657 158.149 246.462 159.022 246.463H160.423V245.725H161.273C161.31 245.528 161.361 245.333 161.424 245.142C161.441 245.089 161.458 245.037 161.478 244.985C161.546 244.789 161.627 244.597 161.721 244.41C161.743 244.366 161.767 244.321 161.792 244.277C161.882 244.107 161.979 243.942 162.086 243.776C162.111 243.739 162.133 243.7 162.157 243.661C162.281 243.48 162.418 243.302 162.561 243.125L162.695 242.964C162.844 242.794 162.997 242.624 163.163 242.459L163.3 242.328C163.443 242.191 163.592 242.058 163.745 241.926C163.799 241.88 163.85 241.832 163.906 241.788C164.089 241.638 164.279 241.494 164.474 241.353L164.695 241.198C164.89 241.065 165.09 240.933 165.299 240.809L165.506 240.689C165.679 240.589 165.855 240.493 166.033 240.399L166.276 240.273C166.466 240.179 166.659 240.088 166.856 240.003C166.991 239.498 167.264 239.032 167.65 238.644C167.921 238.362 168.228 238.11 168.566 237.893L168.61 237.865C168.957 237.644 169.329 237.456 169.72 237.305L169.784 237.281C169.979 237.209 170.178 237.144 170.381 237.09C170.381 237.068 170.405 237.05 170.415 237.029C170.457 236.936 170.507 236.845 170.563 236.759C170.585 236.726 170.607 236.698 170.631 236.667C170.684 236.591 170.743 236.518 170.807 236.449C170.834 236.419 170.863 236.393 170.89 236.364C170.954 236.305 171.023 236.249 171.094 236.197C171.123 236.175 171.153 236.153 171.184 236.134C171.257 236.089 171.334 236.05 171.413 236.016C171.433 236.016 171.452 235.994 171.474 235.986V224.685H172.178V235.968L172.205 235.983C172.31 236.022 172.409 236.073 172.5 236.134C172.529 236.153 172.558 236.179 172.59 236.201C172.665 236.258 172.735 236.319 172.802 236.384C172.833 236.415 172.86 236.445 172.889 236.478C172.955 236.547 173.016 236.62 173.072 236.695C173.096 236.728 173.121 236.761 173.143 236.796C173.2 236.884 173.251 236.974 173.296 237.068C173.296 237.087 173.321 237.107 173.33 237.127C173.975 237.328 174.579 237.623 175.118 237.998L175.145 238.015C175.473 238.245 175.772 238.506 176.039 238.792L176.088 238.845C176.316 239.095 176.507 239.371 176.655 239.665L176.684 239.731C176.744 239.86 176.791 239.994 176.823 240.131C177.011 240.223 177.198 240.319 177.381 240.417C177.464 240.46 177.544 240.506 177.625 240.552C177.803 240.652 177.98 240.756 178.153 240.865C178.229 240.913 178.307 240.959 178.382 241.009C178.58 241.135 178.767 241.268 178.955 241.403C179.03 241.457 179.106 241.512 179.179 241.568C179.369 241.712 179.554 241.858 179.729 242.004L179.924 242.174C180.07 242.304 180.212 242.435 180.35 242.57C180.411 242.629 180.472 242.688 180.531 242.749C180.672 242.895 180.806 243.04 180.935 243.184C180.989 243.245 181.042 243.306 181.093 243.369C181.225 243.53 181.352 243.694 181.466 243.857C181.51 243.918 181.551 243.979 181.59 244.042C181.688 244.186 181.775 244.327 181.856 244.477C181.892 244.543 181.926 244.608 181.96 244.671C182.034 244.816 182.099 244.962 182.158 245.107C182.182 245.168 182.209 245.231 182.231 245.292C182.282 245.433 182.326 245.575 182.36 245.714H183.303V246.452H184.221C185.095 246.451 185.955 246.646 186.723 247.019C186.872 247.09 187.017 247.168 187.156 247.254C187.869 247.683 188.453 248.262 188.856 248.941C189.26 249.619 189.471 250.376 189.47 251.145H190.289V252.958H188.532V269.833H188.805V272.1H198.305L205.084 268.27L217.541 261.228H222.388L230.763 248.266H233.62L233.245 249.274H265.992V242.405H266.421V249.274H268.326V243.903H270.014V226.346H268.089V225.059H268.333V222.248H270.021V220.528H269.709V218.682H270.031V215.659H269.578V214.701H270.184V214.616C270.185 214.288 270.289 213.967 270.486 213.69C270.682 213.412 270.961 213.19 271.292 213.049C271.292 213.02 271.292 212.992 271.292 212.959V212.772C271.293 212.676 271.314 212.581 271.353 212.491C271.392 212.405 271.448 212.326 271.519 212.258C271.668 212.117 271.87 212.029 272.087 212.012V208.023H272.055V206.935H270.021V204.838H269.943V203.749H269.522V202.072H269.4V201.541H274.225V201.282C274.225 201.154 274.225 201.027 274.225 200.897C274.225 200.631 274.233 200.363 274.247 200.093C274.247 200.006 274.259 199.919 274.264 199.83C274.276 199.65 274.29 199.467 274.308 199.281C274.308 199.179 274.33 199.074 274.342 198.97C274.362 198.802 274.384 198.632 274.408 198.464L274.459 198.133C274.486 197.97 274.515 197.805 274.547 197.639L274.613 197.306C274.649 197.138 274.688 196.969 274.727 196.801C274.754 196.694 274.776 196.583 274.803 196.485C274.851 196.291 274.905 196.1 274.961 195.908C274.983 195.828 275.005 195.747 275.029 195.666C275.107 195.403 275.192 195.14 275.273 194.876C275.309 194.769 275.351 194.658 275.39 194.558C275.446 194.397 275.504 194.236 275.565 194.077C275.626 193.918 275.667 193.824 275.718 193.698C275.77 193.572 275.83 193.424 275.889 193.289C275.947 193.154 276.006 193.019 276.067 192.884C276.128 192.749 276.181 192.636 276.24 192.511C276.298 192.387 276.374 192.231 276.444 192.091C276.515 191.952 276.559 191.873 276.617 191.754C276.693 191.608 276.771 191.46 276.849 191.318C276.9 191.225 276.953 191.133 277.007 191.039C277.353 190.428 277.726 189.832 278.125 189.252C278.14 189.234 278.149 189.215 278.164 189.197C278.288 189.017 278.408 188.84 278.549 188.664C278.588 188.612 278.624 188.557 278.663 188.507C278.792 188.335 278.924 188.167 279.058 188.002L279.182 187.845C279.319 187.675 279.46 187.51 279.601 187.344L279.711 187.22C279.862 187.046 280.015 186.874 280.174 186.706L280.217 186.661C281.1 185.713 282.086 184.846 283.16 184.072H283.172C283.382 183.924 283.591 183.78 283.803 183.636L283.832 183.619C285.107 182.773 286.522 182.112 288.027 181.659C288.302 181.553 288.58 181.461 288.862 181.376H288.882C289.159 181.293 289.442 181.224 289.724 181.158V180.675H289.42V179.771H289.686V179.118H288.833L288.08 177.796H289.62V174.561H288.938V174.202H289.084V173.392H289.62V173.135V172.024H290.404C290.492 171.915 290.594 171.815 290.709 171.728L290.735 171.708C290.851 171.623 290.976 171.55 291.11 171.491V170.26H291.598V167.959H291.885V164.018C291.865 164.014 291.845 164.007 291.827 163.998C291.802 163.992 291.777 163.984 291.754 163.974C291.72 163.957 291.688 163.938 291.659 163.916L291.603 163.872C291.574 163.843 291.55 163.811 291.529 163.776C291.517 163.761 291.507 163.745 291.498 163.728C291.472 163.673 291.459 163.614 291.459 163.554V162.846C291.459 162.787 291.472 162.728 291.498 162.672C291.507 162.656 291.517 162.639 291.529 162.624C291.55 162.59 291.574 162.558 291.603 162.529C291.62 162.511 291.639 162.5 291.656 162.485C291.687 162.463 291.721 162.443 291.756 162.426C291.779 162.416 291.802 162.407 291.827 162.4C291.846 162.4 291.863 162.385 291.885 162.38V161.664H292.097V162.38C292.117 162.38 292.134 162.396 292.153 162.4L292.226 162.426C292.261 162.443 292.293 162.462 292.324 162.485C292.343 162.498 292.362 162.513 292.38 162.529C292.408 162.557 292.432 162.59 292.45 162.624C292.463 162.639 292.474 162.655 292.482 162.672C292.508 162.727 292.522 162.787 292.523 162.846V163.554C292.522 163.614 292.508 163.673 292.482 163.728C292.474 163.745 292.463 163.761 292.45 163.776C292.432 163.811 292.408 163.843 292.38 163.872L292.324 163.916C292.293 163.938 292.261 163.958 292.226 163.974C292.203 163.985 292.178 163.993 292.153 163.998C292.135 164.007 292.116 164.013 292.097 164.018V167.959H292.394V170.26H292.881V171.484C293.015 171.544 293.14 171.617 293.254 171.702L293.283 171.722C293.397 171.809 293.499 171.909 293.588 172.018H294.292V173.13H294.37V173.389H294.708V174.202H294.852V174.559H294.365V177.79H295.704L294.952 179.112H294.099V179.765H294.365V180.668H294.007V181.152C294.289 181.213 294.569 181.283 294.847 181.37H294.869C295.149 181.455 295.427 181.546 295.702 181.653C297.205 182.106 298.62 182.767 299.894 183.612L299.926 183.634C300.138 183.771 300.347 183.915 300.554 184.07L300.574 184.083C301.64 184.856 302.62 185.721 303.497 186.665C303.511 186.682 303.528 186.698 303.545 186.715C303.701 186.883 303.855 187.055 304.006 187.227L304.115 187.355C304.259 187.519 304.398 187.684 304.534 187.854L304.661 188.011C304.793 188.176 304.924 188.344 305.053 188.516C305.092 188.566 305.131 188.62 305.168 188.673C305.299 188.847 305.428 189.023 305.553 189.204C305.568 189.224 305.582 189.245 305.594 189.267C305.993 189.844 306.366 190.441 306.712 191.05L306.868 191.325C306.948 191.471 307.024 191.619 307.112 191.76C307.168 191.871 307.226 191.978 307.282 192.096C307.338 192.213 307.421 192.376 307.487 192.516C307.552 192.655 307.604 192.764 307.66 192.888C307.716 193.012 307.781 193.158 307.84 193.293C307.898 193.428 307.952 193.563 308.008 193.698C308.064 193.833 308.113 193.955 308.161 194.084C308.21 194.212 308.278 194.397 308.334 194.554C308.376 194.663 308.417 194.772 308.454 194.883C308.544 195.144 308.627 195.407 308.697 195.669C308.722 195.754 308.744 195.839 308.768 195.923C308.821 196.111 308.873 196.298 308.921 196.487C308.948 196.594 308.972 196.705 308.997 196.81C309.038 196.975 309.077 197.143 309.111 197.308C309.136 197.421 309.155 197.526 309.177 197.646C309.21 197.81 309.239 197.973 309.265 198.136C309.282 198.247 309.301 198.353 309.316 198.471C309.34 198.636 309.362 198.804 309.382 198.97C309.382 199.076 309.406 199.187 309.416 199.288C309.435 199.468 309.447 199.649 309.46 199.828C309.46 199.919 309.474 200.008 309.479 200.1C309.479 200.365 309.499 200.629 309.499 200.89V200.901C309.499 201.119 309.499 201.336 309.482 201.554H314.314V202.072H314.193V203.751H313.705V204.84H313.681V206.937H311.615V211.999C311.848 212 312.07 212.083 312.235 212.229C312.399 212.376 312.492 212.575 312.492 212.783V212.959C312.495 212.995 312.495 213.031 312.492 213.066C312.814 213.211 313.085 213.432 313.274 213.706C313.464 213.979 313.565 214.295 313.566 214.616V214.701H314.193V215.653H313.693V218.688H314.005V220.535H313.693V222.255H315.384V223.344V225.085H315.627V226.372H313.703V228.767V243.929H315.393V244.88V245.608V249.309H317.439V242.439H317.868V249.309H350.564L350.189 248.301H352.942L361.306 261.239H366.154L381.237 269.764L385.377 272.111H395.676V269.844H395.949V252.969H394.193V251.156H395.009C395.009 250.994 395.009 250.833 395.036 250.677C395.11 250.025 395.337 249.395 395.701 248.828C396.065 248.26 396.559 247.767 397.15 247.38C397.343 247.251 397.545 247.133 397.756 247.029C397.905 246.958 398.058 246.89 398.214 246.831C398.528 246.712 398.855 246.621 399.189 246.559C399.361 246.526 399.535 246.502 399.71 246.487C399.885 246.472 400.066 246.463 400.246 246.463H401.169V245.725H402.112C402.146 245.586 402.19 245.444 402.241 245.303C402.263 245.242 402.287 245.179 402.314 245.115C402.37 244.974 402.436 244.832 402.509 244.68C402.543 244.615 402.579 244.549 402.616 244.482C402.696 244.34 402.784 244.197 402.879 244.046C402.92 243.983 402.959 243.922 403.003 243.861C403.12 243.698 403.247 243.535 403.378 243.374L403.537 243.188C403.663 243.043 403.797 242.898 403.939 242.753L404.121 242.57C404.258 242.437 404.401 242.307 404.548 242.178L404.74 242.006C404.918 241.858 405.1 241.712 405.29 241.571L405.517 241.403C405.702 241.271 405.892 241.14 406.087 241.011L406.318 240.865C406.491 240.758 406.667 240.647 406.847 240.554L407.091 240.419C407.276 240.321 407.461 240.225 407.651 240.134C407.683 239.996 407.73 239.862 407.79 239.733L407.819 239.668C407.965 239.372 408.156 239.096 408.386 238.847L408.433 238.794C408.701 238.509 409.001 238.248 409.329 238.017L409.356 238C409.895 237.624 410.499 237.33 411.144 237.129C411.153 237.108 411.165 237.089 411.178 237.07C411.222 236.976 411.273 236.885 411.331 236.798C411.353 236.763 411.378 236.73 411.4 236.698C411.458 236.619 411.519 236.545 411.582 236.48L411.67 236.386C411.737 236.321 411.809 236.26 411.884 236.203C411.913 236.182 411.943 236.155 411.974 236.136C412.064 236.074 412.164 236.023 412.269 235.986L412.296 235.97V224.683H413V235.983C413.019 235.983 413.039 236.005 413.061 236.014C413.14 236.048 413.217 236.087 413.29 236.131L413.38 236.195C413.451 236.247 413.518 236.303 413.582 236.362C413.611 236.391 413.638 236.417 413.665 236.447C413.729 236.517 413.788 236.589 413.843 236.665C413.865 236.695 413.889 236.724 413.908 236.756C413.965 236.844 414.015 236.934 414.059 237.026C414.059 237.048 414.084 237.066 414.091 237.087C414.294 237.142 414.493 237.206 414.688 237.279L414.754 237.303C415.144 237.454 415.516 237.641 415.862 237.863L415.906 237.891C416.243 238.11 416.551 238.362 416.824 238.642C417.21 239.03 417.483 239.498 417.618 240.003C417.813 240.088 418.006 240.179 418.196 240.273L418.439 240.399C418.617 240.493 418.792 240.589 418.963 240.689C419.033 240.728 419.104 240.767 419.172 240.809C419.379 240.933 419.579 241.065 419.776 241.198L419.996 241.353C420.19 241.494 420.383 241.638 420.563 241.788C420.619 241.832 420.673 241.88 420.726 241.926C420.88 242.058 421.028 242.191 421.17 242.328L421.309 242.459C421.474 242.624 421.628 242.794 421.776 242.966L421.908 243.123C422.051 243.302 422.188 243.48 422.312 243.663C422.339 243.7 422.361 243.737 422.385 243.776C422.492 243.942 422.59 244.109 422.68 244.277C422.702 244.321 422.729 244.366 422.751 244.41C422.843 244.599 422.923 244.791 422.994 244.985L423.045 245.139C423.109 245.332 423.16 245.527 423.199 245.725H424.046V246.463H425.449C426.749 246.464 428.002 246.895 428.967 247.673C429.931 248.451 430.539 249.521 430.672 250.677C430.689 250.833 430.699 250.994 430.699 251.156H431.105V252.969H429.758V269.844H430.175V276.564H431.515L437.305 280.39V282.909H434.625V285.65V287.244V288.376V290.937V292.069V294.63V295.762V298.314V299.448V302.016V303.148V305.717V306.849V309.41V310.542V312.765V313.9V315.859V334.544H149.876V315.859V313.9V312.765V310.542V309.41V306.849V305.717V303.148V302.016V299.457V298.314V295.755V294.623V292.063V290.93V288.37V287.237V285.644V282.902H147.196V280.383L152.947 276.564ZM291.247 174.561V177.792H292.725V174.561H291.247ZM290.431 177.792H290.847V174.561H290.424L290.431 177.792ZM293.11 174.561V177.792H293.527V174.561H293.11Z" fill="#1A987C"/>
<path d="M448.491 326.462C450.788 326.458 452.995 327.257 454.644 328.687C456.291 327.258 458.496 326.46 460.792 326.462C463.052 326.453 465.229 327.229 466.862 328.626C468.092 327.585 469.632 326.881 471.297 326.599C472.962 326.317 474.682 326.469 476.254 327.035C477.825 327.602 479.181 328.56 480.161 329.796C481.141 331.032 481.703 332.493 481.781 334.006H439.641C439.749 331.973 440.728 330.055 442.376 328.65C444.024 327.245 446.213 326.462 448.491 326.462Z" fill="url(#paint2_linear_6270_27346)"/>
<path d="M519.442 284.334L527.256 286.246L525.039 280.297H524.577V278.12V275.919L529.387 274.743L532.52 273.974V269.857H531.638V267.96H535.747L537.762 265.498L544.609 257.13V252.422H543.917V250.526H550.007L552.762 247.157L553.349 246.441H553.509V243.197H554.971V241.975H555.945V239.295H556.766V235.073L556.72 235.062C556.549 235.039 556.381 235.005 556.216 234.959C556.054 234.911 555.896 234.854 555.743 234.787L555.677 234.759C555.532 234.695 555.392 234.622 555.258 234.541L555.195 234.498C554.927 234.319 554.689 234.106 554.489 233.866L554.442 233.812C554.347 233.693 554.262 233.567 554.187 233.437C554.187 233.418 554.167 233.398 554.155 233.379C554.079 233.242 554.015 233.101 553.963 232.956C553.912 232.809 553.873 232.658 553.848 232.505C553.848 232.49 553.848 232.477 553.836 232.462H552.07V231.591H553.843C553.843 231.578 553.843 231.565 553.855 231.55C553.881 231.397 553.919 231.246 553.97 231.099C554.022 230.954 554.087 230.813 554.162 230.676C554.162 230.657 554.184 230.637 554.194 230.618C554.269 230.488 554.355 230.362 554.45 230.243L554.496 230.186C554.698 229.947 554.936 229.734 555.205 229.555L555.266 229.514C555.399 229.429 555.539 229.352 555.685 229.285L555.75 229.257C555.903 229.189 556.061 229.132 556.223 229.085C556.388 229.039 556.556 229.005 556.727 228.982H556.773V226.724H557.748V228.948H557.797C557.967 228.97 558.136 229.005 558.301 229.05C558.463 229.097 558.621 229.154 558.773 229.222L558.839 229.25C558.984 229.318 559.125 229.394 559.258 229.479L559.319 229.52C559.588 229.7 559.827 229.913 560.028 230.154L560.074 230.208C560.165 230.328 560.246 230.453 560.318 230.583C560.318 230.602 560.337 230.622 560.349 230.642C560.424 230.778 560.488 230.92 560.542 231.064C560.592 231.211 560.631 231.362 560.656 231.515C560.656 231.53 560.656 231.543 560.668 231.556H562.434V232.427H560.668C560.668 232.442 560.668 232.455 560.656 232.471C560.631 232.623 560.592 232.774 560.542 232.921C560.488 233.066 560.424 233.207 560.349 233.344C560.337 233.363 560.327 233.383 560.318 233.403C560.246 233.532 560.165 233.657 560.074 233.777C560.057 233.794 560.042 233.814 560.028 233.831C559.827 234.072 559.588 234.285 559.319 234.465L559.258 234.506C559.124 234.588 558.984 234.66 558.839 234.724L558.773 234.753C558.62 234.819 558.462 234.877 558.301 234.925C558.136 234.97 557.967 235.004 557.797 235.027L557.748 235.038V239.295H558.554V241.979H559.528V243.201H560.99V246.445H561.151L564.493 250.53H570.745V252.427H569.895V257.134L572.684 260.542L577.902 266.917V249.563H576.85V247.414H577.902V241.971H576.85V239.824H578.031V236.246L580.394 233.716L582.428 236.246V239.826H583.497V225.124H582.484V224.586V223.733H581.58V219.626H582.342V217.288H581.578V216.088H586.142V211.822H585.706V210.529H585.292V208.232H586.376L587.017 206.076L590.332 194.921H590.088V194.004H590.688V193.314C590.648 193.288 590.611 193.26 590.576 193.229C590.564 193.221 590.552 193.213 590.542 193.203C590.475 193.14 590.422 193.066 590.386 192.985L590.359 192.929C590.281 192.76 590.281 192.571 590.359 192.402C590.359 192.385 590.376 192.365 590.386 192.347C590.423 192.267 590.476 192.194 590.542 192.13C590.554 192.122 590.565 192.113 590.576 192.104C590.611 192.074 590.649 192.047 590.688 192.021V191.559H590.892V190.17H591.007V187.832H590.018V187.579H591.007V186.547H591.289V187.579H592.278V187.832H591.289V190.192H591.404V191.581H591.599V192.045C591.638 192.07 591.676 192.098 591.711 192.128C591.721 192.137 591.733 192.146 591.745 192.154C591.81 192.218 591.864 192.292 591.903 192.371L591.928 192.426C592.005 192.595 592.005 192.784 591.928 192.953C591.928 192.972 591.91 192.99 591.903 193.009C591.865 193.09 591.811 193.163 591.745 193.227C591.734 193.236 591.723 193.245 591.711 193.253C591.676 193.285 591.639 193.313 591.599 193.338V194.004H592.198V194.919H591.954L595.908 208.23H596.992V210.527H596.578V211.82H596.141V216.086H600.704V217.285H599.939V219.624H600.704V223.73H599.803V224.584V225.122H598.787V239.822H599.803V236.246L602.151 233.718L604.197 236.246V239.826H605.239V241.973H604.187V247.416H605.239V249.565H604.187V286.581L615.75 289.412V290.803V292.193H609.198V294.601V301.277H609.729V302.246H609.198V310.753L609.977 311.807H610.045L610.075 311.937L614.664 318.126V333.668H605.359V333.546H582.433V333.668H532.086V333.546H509.167V333.668H499.863V318.126L504.452 311.937V311.916L504.476 311.807H504.544L505.324 310.753V302.246H504.795V301.277H505.324V294.601V292.166H498.793V290.777V289.386L519.442 284.334ZM557.879 234.254C557.989 234.231 558.096 234.201 558.201 234.165L558.359 234.101C558.448 234.064 558.534 234.023 558.617 233.977L558.756 233.899C558.86 233.833 558.959 233.76 559.051 233.681C559.078 233.659 559.105 233.636 559.129 233.612C559.217 233.529 559.299 233.441 559.373 233.348C559.404 233.307 559.431 233.265 559.46 233.224C559.512 233.15 559.558 233.073 559.599 232.993C559.623 232.947 559.648 232.9 559.67 232.852C559.711 232.758 559.744 232.662 559.77 232.564C559.77 232.529 559.794 232.495 559.801 232.458H557.74V234.287C557.801 234.287 557.84 234.265 557.879 234.256V234.254ZM559.772 231.456C559.746 231.357 559.713 231.261 559.672 231.166C559.65 231.118 559.626 231.073 559.602 231.027C559.561 230.948 559.514 230.87 559.463 230.796C559.433 230.755 559.407 230.711 559.375 230.672C559.301 230.578 559.22 230.489 559.131 230.406L559.053 230.337C558.961 230.258 558.862 230.186 558.759 230.119L558.62 230.041C558.536 229.995 558.45 229.954 558.362 229.916L558.203 229.853C558.099 229.817 557.991 229.787 557.882 229.764C557.843 229.764 557.804 229.742 557.762 229.736V231.571H559.818C559.818 231.571 559.782 231.491 559.772 231.456ZM556.759 229.736C556.717 229.736 556.678 229.755 556.639 229.764C556.529 229.787 556.421 229.817 556.315 229.853L556.16 229.916C556.071 229.953 555.985 229.995 555.901 230.041C555.855 230.067 555.806 230.091 555.763 230.119C555.658 230.185 555.558 230.258 555.465 230.337C555.439 230.359 555.414 230.38 555.39 230.404C555.302 230.487 555.22 230.576 555.146 230.67C555.115 230.709 555.088 230.753 555.059 230.794C555.007 230.868 554.961 230.945 554.92 231.025C554.895 231.071 554.871 231.116 554.849 231.164C554.809 231.259 554.775 231.355 554.749 231.454C554.749 231.489 554.725 231.523 554.718 231.56H556.766V229.725L556.759 229.736ZM554.747 232.566C554.772 232.664 554.806 232.76 554.847 232.854C554.869 232.902 554.893 232.95 554.917 232.995C554.958 233.075 555.005 233.152 555.056 233.226C555.085 233.268 555.112 233.309 555.144 233.35C555.218 233.444 555.299 233.533 555.387 233.616L555.463 233.683C555.556 233.762 555.655 233.835 555.76 233.901C555.804 233.929 555.853 233.953 555.899 233.98C555.982 234.026 556.068 234.067 556.157 234.104L556.313 234.167C556.419 234.203 556.527 234.233 556.637 234.256C556.676 234.256 556.715 234.278 556.756 234.284V232.447H554.703C554.722 232.495 554.737 232.529 554.747 232.564V232.566ZM531.09 287.187L532.52 287.537V285.578L527.249 280.866L529.38 286.577L529.463 286.795L531.09 287.187ZM531.806 282.738L532.52 283.376V280.3H529.08L531.806 282.738ZM577.843 269.857H577.924H577.843ZM583.139 219.628H585.022V218.757V217.283H583.117L583.139 219.628ZM599.177 217.29H597.272V218.764V219.635H599.177V217.29Z" fill="#19817B"/>
<path d="M269.713 326.796H270.118V317.455H268.9L273.355 315.397H274.222V312.244H273.918V311.591H274.634V309.483H275.014V298.082H278.207V297.385H277.51V296.491H278.207V294.598H276.609V290.964H279.32V287.319H279.914V285.421H280.414C280.414 285.405 280.436 285.392 280.446 285.379C280.497 285.312 280.553 285.249 280.609 285.185C280.665 285.122 280.696 285.087 280.743 285.04C280.789 284.992 280.862 284.926 280.925 284.87C280.989 284.813 281.03 284.778 281.086 284.737C281.142 284.696 281.215 284.639 281.283 284.591C281.352 284.543 281.408 284.51 281.474 284.471C281.539 284.432 281.607 284.391 281.678 284.354C281.749 284.317 281.827 284.284 281.902 284.249C281.978 284.214 282.039 284.188 282.109 284.162C282.18 284.136 282.282 284.103 282.372 284.077C282.462 284.051 282.504 284.036 282.572 284.018C282.64 284.001 282.782 283.975 282.889 283.957C282.947 283.957 283.001 283.936 283.059 283.929C283.398 283.886 283.743 283.886 284.082 283.929C284.141 283.929 284.197 283.949 284.253 283.957C284.36 283.975 284.467 283.992 284.572 284.018C284.64 284.036 284.703 284.058 284.772 284.077C284.84 284.097 284.947 284.129 285.032 284.162C285.117 284.195 285.171 284.219 285.239 284.249C285.308 284.28 285.39 284.317 285.463 284.354C285.536 284.391 285.602 284.43 285.668 284.471C285.734 284.513 285.797 284.55 285.86 284.593C285.924 284.637 285.992 284.687 286.055 284.737C286.119 284.787 286.165 284.824 286.216 284.87C286.267 284.915 286.34 284.981 286.399 285.04C286.457 285.098 286.489 285.135 286.533 285.185C286.577 285.236 286.645 285.312 286.696 285.379C286.696 285.394 286.72 285.405 286.73 285.421H287.229V287.319H289.772V286.231H290.518L290.44 286.2L290.286 286.144C290.219 286.115 290.154 286.083 290.091 286.048C290.048 286.024 290.004 286.002 289.96 285.976C289.874 285.923 289.793 285.865 289.716 285.802L289.636 285.732C289.563 285.663 289.494 285.591 289.431 285.514C289.407 285.484 289.385 285.449 289.363 285.416C289.319 285.351 289.278 285.286 289.241 285.218C289.205 285.151 289.205 285.142 289.188 285.103C289.157 285.032 289.131 284.959 289.11 284.885C289.11 284.85 289.088 284.815 289.081 284.778C289.054 284.662 289.04 284.544 289.039 284.426C289.041 284.309 289.054 284.193 289.078 284.079C289.078 284.044 289.095 284.012 289.105 283.979C289.126 283.898 289.154 283.819 289.188 283.742C289.202 283.709 289.215 283.679 289.229 283.648C289.277 283.549 289.335 283.455 289.402 283.365C289.476 283.275 289.557 283.191 289.646 283.113C289.673 283.089 289.699 283.065 289.728 283.043C289.793 282.988 289.861 282.937 289.933 282.89L290.028 282.829C290.125 282.773 290.227 282.723 290.333 282.681H290.357H290.286V281.286H290.876L290.915 281.24C290.976 281.159 291.041 281.085 291.107 281.009C291.173 280.933 291.21 280.894 291.266 280.837C291.322 280.781 291.407 280.702 291.482 280.637C291.558 280.572 291.607 280.53 291.672 280.478C291.738 280.426 291.823 280.362 291.904 280.308C291.984 280.254 292.052 280.21 292.13 280.164C292.208 280.119 292.289 280.071 292.374 280.027C292.459 279.984 292.549 279.942 292.639 279.903C292.729 279.864 292.8 279.831 292.883 279.799C292.966 279.766 293.088 279.731 293.192 279.698C293.297 279.666 293.348 279.648 293.436 279.629C293.56 279.6 293.685 279.577 293.811 279.559C293.879 279.546 293.945 279.531 294.013 279.522C294.417 279.472 294.827 279.472 295.231 279.522C295.302 279.522 295.368 279.546 295.436 279.559C295.562 279.577 295.687 279.6 295.811 279.629C295.891 279.648 295.969 279.674 296.054 279.698C296.14 279.722 296.264 279.762 296.364 279.799C296.464 279.836 296.527 279.866 296.607 279.903C296.688 279.94 296.785 279.981 296.87 280.027C296.956 280.073 297.034 280.116 297.114 280.164C297.194 280.212 297.265 280.258 297.338 280.308C297.411 280.358 297.496 280.419 297.582 280.478C297.667 280.537 297.711 280.582 297.772 280.637C297.833 280.691 297.918 280.767 297.988 280.837L298.147 281.009C298.213 281.085 298.278 281.159 298.339 281.24L298.378 281.286H298.968V282.647H298.897H298.919C299.025 282.688 299.127 282.737 299.223 282.795C299.256 282.813 299.288 282.834 299.318 282.856C299.391 282.902 299.46 282.953 299.525 283.008C299.555 283.03 299.582 283.053 299.608 283.078C299.698 283.155 299.78 283.24 299.852 283.33C299.917 283.421 299.975 283.515 300.025 283.613C300.039 283.644 300.052 283.674 300.066 283.707C300.099 283.785 300.127 283.864 300.149 283.944C300.16 283.977 300.168 284.011 300.173 284.044C300.2 284.158 300.213 284.274 300.215 284.391C300.214 284.509 300.2 284.627 300.173 284.743C300.173 284.78 300.154 284.815 300.144 284.852C300.123 284.926 300.097 284.999 300.066 285.07C300.049 285.109 300.03 285.146 300.01 285.185C299.975 285.253 299.935 285.318 299.891 285.381C299.867 285.416 299.847 285.451 299.82 285.484C299.758 285.561 299.69 285.634 299.616 285.701C299.591 285.726 299.564 285.75 299.535 285.771C299.459 285.835 299.378 285.893 299.292 285.945C299.25 285.971 299.206 285.993 299.162 286.017C299.099 286.052 299.034 286.084 298.968 286.113L298.814 286.17L298.736 286.2H299.467V287.289H301.952V285.39H302.439C302.451 285.377 302.462 285.363 302.473 285.349C302.524 285.281 302.58 285.218 302.636 285.155C302.692 285.092 302.724 285.057 302.77 285.009C302.816 284.961 302.889 284.894 302.953 284.839C303.016 284.785 303.057 284.748 303.113 284.706C303.17 284.665 303.243 284.608 303.311 284.561C303.379 284.513 303.435 284.48 303.501 284.441C303.567 284.402 303.635 284.36 303.705 284.323C303.776 284.286 303.854 284.254 303.93 284.219C304.005 284.184 304.066 284.158 304.137 284.132C304.207 284.105 304.309 284.073 304.4 284.047L304.597 283.988C304.702 283.962 304.809 283.944 304.916 283.927C304.974 283.927 305.028 283.905 305.087 283.899C305.256 283.877 305.427 283.866 305.598 283.866C305.769 283.866 305.94 283.877 306.11 283.899C306.168 283.899 306.224 283.918 306.28 283.927C306.387 283.944 306.494 283.962 306.599 283.988L306.799 284.047C306.887 284.073 306.974 284.099 307.06 284.132C307.145 284.164 307.198 284.188 307.267 284.219C307.335 284.249 307.418 284.286 307.491 284.323C307.564 284.36 307.627 284.399 307.695 284.441C307.764 284.482 307.824 284.519 307.885 284.561C307.946 284.602 308.019 284.656 308.083 284.706C308.146 284.756 308.192 284.793 308.243 284.839C308.295 284.885 308.368 284.95 308.426 285.009C308.485 285.068 308.516 285.105 308.56 285.155C308.604 285.205 308.672 285.281 308.723 285.349L308.757 285.39H309.244V287.289H309.914V287.872H346.425L355.986 282.048L365.544 287.872H402.028V287.437H402.622V285.536H403.11L403.144 285.497C403.195 285.429 403.251 285.366 403.307 285.303C403.363 285.24 403.395 285.205 403.441 285.157C403.487 285.109 403.56 285.042 403.624 284.987C403.687 284.933 403.728 284.896 403.784 284.852C403.84 284.809 403.913 284.754 403.982 284.709C404.05 284.663 404.106 284.626 404.172 284.589C404.237 284.552 404.306 284.508 404.376 284.471C404.447 284.434 404.525 284.399 404.6 284.367C404.676 284.334 404.737 284.306 404.807 284.28C404.878 284.254 404.98 284.221 405.07 284.195C405.161 284.169 405.202 284.151 405.27 284.136C405.338 284.121 405.48 284.092 405.587 284.075L405.757 284.044C406.097 284.004 406.441 284.004 406.78 284.044L406.951 284.075C407.058 284.092 407.165 284.11 407.27 284.136C407.375 284.162 407.402 284.175 407.47 284.195C407.538 284.214 407.645 284.247 407.73 284.28C407.816 284.312 407.869 284.336 407.937 284.367C408.006 284.397 408.088 284.434 408.162 284.471C408.235 284.508 408.3 284.547 408.366 284.589C408.432 284.63 408.495 284.667 408.559 284.709C408.622 284.75 408.69 284.802 408.753 284.852C408.817 284.902 408.863 284.942 408.914 284.987C408.965 285.033 409.038 285.098 409.097 285.157C409.155 285.216 409.187 285.253 409.231 285.303C409.275 285.353 409.343 285.429 409.394 285.497L409.428 285.536H409.915V287.437H412.478V286.348H413.223L413.145 286.318C413.092 286.3 413.043 286.281 412.992 286.259C412.925 286.231 412.86 286.2 412.797 286.165C412.752 286.143 412.708 286.118 412.665 286.091C412.58 286.039 412.498 285.982 412.422 285.919L412.341 285.85C412.268 285.781 412.2 285.708 412.137 285.632C412.112 285.599 412.091 285.566 412.069 285.532C412.024 285.468 411.983 285.402 411.947 285.333C411.927 285.296 411.91 285.259 411.893 285.22C411.863 285.149 411.837 285.076 411.815 285.003C411.803 284.968 411.793 284.933 411.784 284.896C411.758 284.78 411.745 284.662 411.745 284.543C411.745 284.427 411.758 284.311 411.784 284.197C411.784 284.162 411.801 284.129 411.81 284.097C411.831 284.016 411.859 283.937 411.893 283.859C411.905 283.827 411.92 283.796 411.935 283.766C411.982 283.667 412.039 283.572 412.105 283.483V283.472C412.178 283.382 412.26 283.297 412.349 283.219C412.374 283.194 412.401 283.171 412.429 283.15C412.494 283.094 412.563 283.042 412.636 282.995L412.731 282.936C412.828 282.879 412.93 282.83 413.036 282.788C413.044 282.787 413.052 282.787 413.06 282.788H412.989V281.34H413.579C413.591 281.325 413.606 281.31 413.618 281.292C413.679 281.214 413.744 281.14 413.81 281.074C413.876 281.009 413.913 280.959 413.969 280.902C414.025 280.846 414.11 280.767 414.185 280.702C414.261 280.637 414.31 280.593 414.375 280.543C414.441 280.493 414.526 280.428 414.619 280.373C414.712 280.319 414.768 280.275 414.845 280.23C414.923 280.184 415.004 280.136 415.089 280.092C415.174 280.049 415.264 280.008 415.355 279.968C415.445 279.929 415.515 279.897 415.598 279.864C415.681 279.831 415.803 279.794 415.908 279.764C416.012 279.733 416.063 279.714 416.151 279.694C416.273 279.664 416.395 279.644 416.524 279.622C416.592 279.622 416.66 279.596 416.728 279.587C417.132 279.537 417.542 279.537 417.946 279.587C418.017 279.587 418.083 279.611 418.151 279.622C418.278 279.644 418.395 279.664 418.526 279.694C418.606 279.714 418.684 279.74 418.77 279.764C418.855 279.788 418.979 279.827 419.079 279.864C419.179 279.901 419.242 279.931 419.323 279.968C419.403 280.005 419.5 280.047 419.586 280.092C419.671 280.138 419.749 280.182 419.829 280.23C419.91 280.278 419.98 280.323 420.053 280.373C420.126 280.423 420.212 280.484 420.297 280.543C420.382 280.602 420.426 280.648 420.487 280.702C420.548 280.757 420.633 280.833 420.704 280.902C420.774 280.972 420.808 281.016 420.86 281.074C420.911 281.133 420.994 281.225 421.052 281.292L421.093 281.34H421.683V282.734H421.612H421.634C421.74 282.775 421.842 282.824 421.939 282.882L422.034 282.941C422.106 282.988 422.176 283.039 422.241 283.095C422.27 283.117 422.298 283.14 422.323 283.165C422.413 283.242 422.495 283.327 422.567 283.417V283.428C422.633 283.518 422.691 283.613 422.74 283.711C422.755 283.742 422.767 283.772 422.781 283.805C422.815 283.882 422.842 283.962 422.864 284.042C422.864 284.075 422.881 284.108 422.889 284.142C422.915 284.256 422.929 284.372 422.93 284.489C422.929 284.607 422.915 284.725 422.889 284.841C422.889 284.878 422.869 284.913 422.859 284.948C422.838 285.022 422.812 285.095 422.781 285.166C422.764 285.205 422.745 285.242 422.725 285.279C422.691 285.348 422.651 285.414 422.606 285.477C422.582 285.512 422.562 285.545 422.535 285.577C422.473 285.654 422.405 285.727 422.331 285.795C422.306 285.819 422.28 285.841 422.253 285.865C422.176 285.927 422.094 285.984 422.009 286.037C421.968 286.063 421.925 286.088 421.88 286.111C421.817 286.145 421.752 286.176 421.685 286.204L421.532 286.263L421.454 286.294H422.197V287.382H424.686V285.482H425.173L425.208 285.442C425.259 285.375 425.315 285.312 425.371 285.249C425.427 285.185 425.458 285.151 425.505 285.103C425.551 285.055 425.624 284.987 425.687 284.933C425.751 284.878 425.792 284.841 425.848 284.798C425.904 284.754 425.977 284.7 426.043 284.654C426.109 284.608 426.17 284.571 426.235 284.534C426.301 284.497 426.369 284.454 426.44 284.417C426.511 284.38 426.589 284.345 426.664 284.312C426.74 284.28 426.801 284.251 426.871 284.225C426.942 284.199 427.044 284.166 427.134 284.14C427.224 284.114 427.263 284.097 427.332 284.081C427.4 284.066 427.544 284.038 427.651 284.021L427.821 283.99C427.991 283.97 428.162 283.96 428.333 283.96C428.504 283.96 428.675 283.97 428.844 283.99L429.015 284.021C429.122 284.038 429.229 284.055 429.331 284.081C429.434 284.108 429.465 284.121 429.534 284.14C429.602 284.16 429.709 284.193 429.794 284.225C429.88 284.258 429.933 284.282 430.001 284.312C430.069 284.343 430.152 284.38 430.225 284.417C430.298 284.454 430.362 284.493 430.43 284.534C430.498 284.576 430.559 284.613 430.62 284.654C430.681 284.696 430.754 284.748 430.817 284.798C430.881 284.848 430.927 284.887 430.978 284.933C431.029 284.979 431.102 285.044 431.161 285.103C431.219 285.161 431.251 285.198 431.295 285.249C431.339 285.299 431.407 285.375 431.458 285.442L431.492 285.482H431.979V287.382H432.649V290.923H435.358V294.546H433.762V296.438H434.461V297.333H433.765V298.03H436.958V309.431H437.202V311.539H438.047V312.192H437.645V315.345H438.717L443.172 317.402H441.849V326.743H442.112V331.473H442.704V334.151H269.068V331.473H269.708L269.713 326.796Z" fill="#19817B"/>
<path d="M81.0142 333.767C81.3005 327.933 84.0946 322.423 88.814 318.385C93.5335 314.348 99.8142 312.094 106.347 312.094C112.88 312.094 119.16 314.348 123.88 318.385C128.599 322.423 131.393 327.933 131.68 333.767H81.0142Z" fill="url(#paint3_linear_6270_27346)"/>
<path d="M106.344 333.77H81.011C81.3244 327.951 84.1295 322.463 88.8454 318.442C93.5614 314.421 99.8268 312.176 106.344 312.172V333.77Z" fill="#A2D4D1"/>
<path d="M139.124 328.805C140.244 329.762 141.734 330.296 143.283 330.296C144.832 330.296 146.322 329.762 147.442 328.805C148.552 329.741 150.021 330.262 151.547 330.262C153.072 330.262 154.541 329.741 155.651 328.805C157.189 328.804 158.669 329.332 159.784 330.28C160.899 331.227 161.564 332.522 161.641 333.895H133.141C133.219 332.523 133.883 331.23 134.996 330.283C136.109 329.335 137.587 328.806 139.124 328.805Z" fill="#D9EED4"/>
<path d="M660.106 315.783C663.135 315.778 666.045 317.386 668.219 320.265C670.392 317.39 673.299 315.782 676.325 315.783C679.306 315.766 682.175 317.329 684.329 320.142C685.951 318.045 687.981 316.627 690.177 316.06C692.372 315.492 694.641 315.797 696.713 316.939C698.785 318.081 700.573 320.012 701.865 322.502C703.157 324.992 703.898 327.937 704 330.985H648.438C648.58 326.889 649.871 323.025 652.044 320.194C654.217 317.363 657.104 315.784 660.106 315.783Z" fill="url(#paint4_linear_6270_27346)"/>
<path d="M278.46 328.695C279.58 329.652 281.069 330.187 282.619 330.187C284.168 330.187 285.658 329.652 286.778 328.695C287.888 329.631 289.357 330.152 290.882 330.152C292.408 330.152 293.877 329.631 294.987 328.695C296.525 328.695 298.005 329.223 299.12 330.17C300.235 331.118 300.9 332.413 300.977 333.786H272.477C272.555 332.414 273.218 331.121 274.332 330.173C275.445 329.226 276.923 328.697 278.46 328.695Z" fill="#D9EED4"/>
<path d="M416.171 328.766C417.291 329.723 418.78 330.257 420.33 330.257C421.879 330.257 423.369 329.723 424.489 328.766C425.6 329.701 427.068 330.222 428.595 330.222C430.121 330.222 431.589 329.701 432.7 328.766C434.238 328.765 435.718 329.293 436.832 330.241C437.947 331.189 438.611 332.483 438.688 333.856H410.188C410.264 332.484 410.928 331.19 412.041 330.242C413.155 329.295 414.633 328.766 416.171 328.766Z" fill="#D9EED4"/>
<path d="M476.733 328.766C477.853 329.723 479.343 330.257 480.892 330.257C482.442 330.257 483.931 329.723 485.051 328.766C486.162 329.701 487.63 330.223 489.156 330.223C490.682 330.223 492.15 329.701 493.26 328.766C494.799 328.764 496.279 329.292 497.394 330.24C498.509 331.188 499.174 332.483 499.25 333.856H470.751C470.827 332.484 471.491 331.19 472.605 330.243C473.718 329.296 475.196 328.767 476.733 328.766Z" fill="#D9EED4"/>
<path d="M516.213 333.726C516.416 329.841 518.285 326.175 521.432 323.489C524.579 320.803 528.763 319.305 533.115 319.305C537.466 319.305 541.65 320.803 544.797 323.489C547.945 326.175 549.813 329.841 550.016 333.726H516.213Z" fill="url(#paint5_linear_6270_27346)"/>
<path d="M533.125 333.726H516.22C516.428 329.842 518.299 326.178 521.446 323.493C524.593 320.808 528.775 319.309 533.125 319.305V333.726Z" fill="#A2D4D1"/>
<path d="M524.984 314.802C525.822 303.449 540.254 306.528 540.49 306.11C540.727 305.691 528.486 302.913 528.689 302.761C540.639 293.489 544.899 305.132 545.009 304C545.74 297.304 554.365 296.57 554.365 296.57C554.365 296.57 547.506 304.677 549.705 303.514C562.082 296.982 567.682 308.461 566.461 308.008C561.78 306.279 549.803 308.535 550.548 308.661C561.387 310.462 562.457 321.918 562.457 321.918C556.032 320.82 550.325 317.557 546.517 312.803C547.233 318.225 548.256 326.854 548.779 335.409L544.395 336.28L544.178 315.377C544.146 315.575 544.112 315.777 544.078 315.984C542.785 323.387 535.297 328.598 534.99 327.986C529.261 316.089 540.926 311.128 540.607 311.109C536.919 310.887 524.976 314.956 524.984 314.802Z" fill="#D9EED4"/>
<path d="M437.706 273.043C440.758 274.079 430.155 265.204 430.155 265.204C430.155 265.204 441.213 264.455 443.747 272.742C444.166 274.145 446.731 258.657 464.062 268.033C464.349 268.187 449.58 274.064 449.965 274.537C450.35 275.009 467.832 268.335 471.625 282.462C471.686 282.667 455.629 279.849 451.027 280.816C450.635 280.908 466.544 284.888 462.203 300.999C461.959 301.822 451.242 296.698 447.831 287.631C447.683 287.231 447.544 286.848 447.41 286.473L446.877 334.899L440.392 334.043C441.542 311.38 444.158 288.259 444.857 282.31C443.203 286.057 438.256 294.503 426.053 298.686C426.053 298.686 424.633 284.045 437.881 279.69C438.79 279.386 423.122 278.867 417.642 281.948C416.222 282.752 420.514 267.194 437.706 273.043ZM445.744 281.134C445.63 280.699 445.573 280.439 445.573 280.439C445.573 280.439 445.52 280.635 445.396 280.988L445.744 281.134Z" fill="#D9EED4"/>
<path d="M587.065 267.683C590.117 268.72 579.514 259.845 579.514 259.845C579.514 259.845 590.573 259.096 593.106 267.383C593.525 268.785 596.09 253.297 613.421 262.673C613.708 262.828 598.94 268.705 599.325 269.177C599.71 269.65 617.192 262.976 620.984 277.103C621.045 277.308 604.988 274.49 600.387 275.457C599.995 275.548 615.903 279.529 611.562 295.639C611.319 296.462 600.601 291.339 597.191 282.272C597.042 281.871 596.903 281.488 596.769 281.114L596.236 329.539L589.752 328.684C590.902 306.021 593.518 282.899 594.217 276.95C592.563 280.698 587.616 289.144 575.412 293.327C575.412 293.327 573.992 278.686 587.24 274.331C588.149 274.026 572.482 273.508 567.001 276.589C565.581 277.392 569.873 261.835 587.065 267.683ZM595.103 275.775C594.989 275.339 594.933 275.08 594.933 275.08C594.933 275.08 594.879 275.276 594.755 275.629L595.103 275.775Z" fill="#D9EED4"/>
<path d="M72.0268 284.008C72.0268 284.008 76.4114 309.444 78.6719 334.437L71.7662 335.743L69.479 285.144L72.0268 284.008Z" fill="#D9EED4"/>
<path d="M98.7884 308.795C98.7884 308.795 99.3535 289.163 81.2991 284.323C80.0592 283.981 100.89 282.159 108.483 285.869C110.458 286.834 103.326 266.412 80.9409 275.45C76.9632 277.061 90.2945 264.446 90.2945 264.446C90.2945 264.446 75.4822 264.252 72.8539 275.492C72.4252 277.388 67.5949 256.925 45.3435 270.677C44.9757 270.91 65.2005 277.673 64.7231 278.333C64.2457 278.993 40.3379 271.365 36.5721 290.468C36.5088 290.751 57.6543 285.828 63.8852 286.781C64.4162 286.877 43.5679 293.333 50.8169 314.5C51.2115 315.589 65.0325 307.968 68.7666 295.639C70.5229 289.775 71.1148 285.878 71.1148 285.878C71.1148 285.878 77.0046 302.672 98.7884 308.795Z" fill="#D9EED4"/>
<path d="M78.6706 328.805C79.7906 329.762 81.2804 330.296 82.8298 330.296C84.3793 330.296 85.869 329.762 86.989 328.805C88.0991 329.741 89.5674 330.262 91.0934 330.262C92.6193 330.262 94.0876 329.741 95.1978 328.805C96.7363 328.804 98.2161 329.332 99.331 330.28C100.446 331.227 101.111 332.522 101.188 333.895H72.6882C72.7656 332.523 73.4295 331.23 74.5428 330.283C75.656 329.335 77.1336 328.806 78.6706 328.805Z" fill="#D9EED4"/>
<path d="M-0.00195312 330.398H1306.68V342.679H-0.00195312V330.398Z" fill="#19817B"/>
</g>
<defs>
<linearGradient id="paint0_linear_6270_27346" x1="549.232" y1="56.2461" x2="361.575" y2="70.7843" gradientUnits="userSpaceOnUse">
<stop stop-color="#78BC6D"/>
<stop offset="1" stop-color="#0CA3AC"/>
</linearGradient>
<linearGradient id="paint1_linear_6270_27346" x1="202.656" y1="166.188" x2="122.418" y2="170.516" gradientUnits="userSpaceOnUse">
<stop stop-color="#78BC6D"/>
<stop offset="1" stop-color="#0CA3AC"/>
</linearGradient>
<linearGradient id="paint2_linear_6270_27346" x1="480.783" y1="326.96" x2="451.521" y2="347.944" gradientUnits="userSpaceOnUse">
<stop stop-color="#78BC6D"/>
<stop offset="1" stop-color="#0CA3AC"/>
</linearGradient>
<linearGradient id="paint3_linear_6270_27346" x1="130.48" y1="313.528" x2="81.6088" y2="328.197" gradientUnits="userSpaceOnUse">
<stop stop-color="#78BC6D"/>
<stop offset="1" stop-color="#0CA3AC"/>
</linearGradient>
<linearGradient id="paint4_linear_6270_27346" x1="702.684" y1="316.787" x2="654.803" y2="339.254" gradientUnits="userSpaceOnUse">
<stop stop-color="#78BC6D"/>
<stop offset="1" stop-color="#0CA3AC"/>
</linearGradient>
<linearGradient id="paint5_linear_6270_27346" x1="549.215" y1="320.259" x2="516.624" y2="330.067" gradientUnits="userSpaceOnUse">
<stop stop-color="#78BC6D"/>
<stop offset="1" stop-color="#0CA3AC"/>
</linearGradient>
<clipPath id="clip0_6270_27346">
<rect width="704" height="338" fill="white" transform="matrix(-1 0 0 1 704 0)"/>
</clipPath>
</defs>
</svg>
