<svg width="24" height="24" viewBox="0 0 24 24" fill="none" xmlns="http://www.w3.org/2000/svg">
<path fill-rule="evenodd" clip-rule="evenodd" d="M12 22C6.48 22 2 17.53 2 12C2 6.48 6.48 2 12 2C17.53 2 22 6.48 22 12C22 17.53 17.53 22 12 22ZM15.1902 15.7099C15.3102 15.7799 15.4402 15.8199 15.5801 15.8199C15.8301 15.8199 16.0802 15.6899 16.2201 15.4499C16.4302 15.0999 16.3202 14.6399 15.9601 14.4199L12.4001 12.2999V7.67988C12.4001 7.25988 12.0601 6.92988 11.6501 6.92988C11.2401 6.92988 10.9001 7.25988 10.9001 7.67988V12.7299C10.9001 12.9899 11.0401 13.2299 11.2701 13.3699L15.1902 15.7099Z" fill="#84DFC1"/>
</svg>
