<svg width="46" height="45" viewBox="0 0 46 45" fill="none" xmlns="http://www.w3.org/2000/svg">
<path fill-rule="evenodd" clip-rule="evenodd" d="M23.4922 44.999C11.0722 44.999 0.992188 34.9415 0.992188 22.499C0.992188 10.079 11.0722 -0.000976562 23.4922 -0.000976562C35.9347 -0.000976562 45.9922 10.079 45.9922 22.499C45.9922 34.9415 35.9347 44.999 23.4922 44.999ZM30.67 30.8463C30.94 31.0038 31.2325 31.0938 31.5475 31.0938C32.11 31.0938 32.6725 30.8013 32.9875 30.2613C33.46 29.4738 33.2125 28.4388 32.4025 27.9438L24.3925 23.1738V12.7788C24.3925 11.8338 23.6275 11.0913 22.705 11.0913C21.7825 11.0913 21.0175 11.8338 21.0175 12.7788V24.1413C21.0175 24.7263 21.3325 25.2663 21.85 25.5813L30.67 30.8463Z" fill="#EEEEEE"/>
</svg>
