<svg width="24" height="24" viewBox="0 0 24 24" fill="none" xmlns="http://www.w3.org/2000/svg">
<path d="M14.0156 7.5H9.98062C9.7256 7.5 9.51562 7.70998 9.51562 7.965V8.79749C9.51562 8.93999 9.58315 9.06747 9.68811 9.15747L11.9981 11.0325L12.7781 10.4025L14.3081 9.15747C14.4131 9.06747 14.4806 8.93999 14.4806 8.79749V7.965C14.4806 7.70998 14.2706 7.5 14.0156 7.5Z" fill="#32C997"/>
<path d="M9.68811 14.8438C9.58315 14.9337 9.51562 15.0612 9.51562 15.2037V16.0363C9.51562 16.2912 9.7256 16.5013 9.98062 16.5013H14.0156C14.2706 16.5013 14.4806 16.2912 14.4806 16.0363V15.2037C14.4806 15.0612 14.4131 14.9337 14.3081 14.8438L11.9981 12.9688L9.68811 14.8438Z" fill="#32C997"/>
<path d="M12 1.5C6.21002 1.5 1.5 6.20998 1.5 12C1.5 17.79 6.21002 22.5 12 22.5C17.79 22.5 22.5 17.79 22.5 12C22.5 6.20998 17.79 1.5 12 1.5ZM15.9825 8.79749C15.9825 9.38997 15.72 9.94501 15.255 10.32L13.1925 12L15.255 13.68C15.72 14.055 15.9825 14.61 15.9825 15.2025V16.035C15.9825 17.1225 15.0975 18 14.0175 18H9.9825C8.9025 18 8.0175 17.1225 8.0175 16.035V15.2025C8.0175 14.61 8.27998 14.055 8.74498 13.68L10.8075 12L8.74498 10.32C8.27998 9.94501 8.0175 9.38997 8.0175 8.79749V7.965C8.0175 6.87749 8.9025 6 9.9825 6H14.0175C15.0975 6 15.9825 6.87749 15.9825 7.965V8.79749Z" fill="#32C997"/>
</svg>
