<svg width="529" height="291" viewBox="0 0 529 291" fill="none" xmlns="http://www.w3.org/2000/svg">
<g opacity="0.9" clip-path="url(#clip0_6270_27442)">
<path d="M223.126 255.171V252.164V247.232V242.381V237.449V230.209V225.279V218.04V213.108V205.87V200.938V193.701V188.768V181.529V176.597V169.359V164.427V157.19V152.258V145.02V140.088V132.848V127.916V120.679V115.747V108.509V103.577V96.3374V91.4054V84.1678V79.2358V69.047H214.184L206.748 66.6603L199.309 64.2754H173.198V62.2211V53.8219L166.023 48.5324V44.0333V42.149V40.2627H165.072V39.5863V36.2893L164.289 35.7114L159.858 32.4453L154.644 36.2893V39.5863V40.2627H153.812V42.149V44.0333V48.5324L146.636 53.8219V62.2211V64.2754H120.524L105.65 69.047H96.7075V79.2358V84.1678V91.4054V96.3374V103.577V108.509V115.747V120.679V127.916V132.848V140.088V145.02V152.258V157.19V164.427V169.359V176.597V181.529V188.768V193.701V200.938V205.87V213.108V218.04V225.279V230.209V237.449V242.381V247.232V252.164V255.171H88.7266V296.55H153.812H155.884H164.384H166.457H231.543V255.171H223.126Z" fill="url(#paint0_linear_6270_27442)"/>
<path d="M245.289 28.5665V25.6328H231.725V28.5665H229.859V296.629H285.587V28.5665H245.289Z" fill="#D9EED4"/>
<path d="M255.816 141.872V139.617H246.198V138.266H237.126V141.872H198.961V299.95H259.838V141.872H255.816Z" fill="#A2D4D1"/>
<path d="M454.147 101.252V99.2266H400.274V101.252H388.914V299.864H458.604V101.252H454.147Z" fill="#D9EED4"/>
<path d="M423.207 140.413V138.158H413.588V136.805H404.516V140.413H366.352V298.491H427.229V140.413H423.207Z" fill="url(#paint1_linear_6270_27442)"/>
<path d="M379.411 164.445V158.344H343.715V164.445H336.188V296.278H382.362V164.445H379.411Z" fill="#A2D4D1"/>
<path d="M461.609 206.643V202.492H439.906V299.714H451.344V299.836H476.362V206.643H461.609Z" fill="#53B383"/>
<path d="M69.7243 217.088H37.4071V215.667H37.6783V213.955H38.8138V210.998H34.5511V180.907H35.0258V179.187H35.9752V176.232H32.505V159.332H33.1463V158.533H33.4156V155.685H31.3482L25.1227 134.554L24.5782 132.497H25.3126V131.025H25.5257V129.821H25.3184V127.888H24.4097C24.7385 126.946 24.9011 125.955 24.8902 124.958C24.8902 121.767 21.3037 119.18 21.3037 119.18C21.3037 119.18 17.7172 121.767 17.7172 124.958C17.7105 125.951 17.8764 126.937 18.2074 127.873H17.2909V129.805H17.0778V131.009H17.2851V132.478H18.0117L11.2301 155.669H9.53857V158.518H9.80982V159.312H10.3504V176.209H6.88407V179.168H7.82766V180.884H8.29659V210.994H4.02417V213.941H5.15376V215.656H6.07994V217.076H-26.8438V220.023H-26.0009V221.738H-25.1445V284.638H-13.3755V298.797H56.88V287.535H56.9458V284.654H68.6799V221.753H68.8737V220.035H69.7224V217.088H69.7243Z" fill="#A2D4D1"/>
<path d="M92.8911 276.387V268.256H86.4641V108.128H79.3318V99.5625H44.7263V108.128H44.019V268.256H31.4285V276.387H28.8438V298.401H96.7063V276.387H92.8911Z" fill="#D9EED4"/>
<path d="M499.549 297.583C498.542 276.557 481.187 259.812 459.844 259.812C438.501 259.812 421.152 276.566 420.141 297.583H499.549Z" fill="#1A987C"/>
<path d="M432.134 182.307V176.196H425.933V176.969H422V174.48H422.911V173.321H422.609V168.837H422.901V167.677H421.99V167.072H421.653C421.651 166.894 421.637 166.716 421.611 166.539C421.611 166.506 421.601 166.473 421.595 166.439C421.537 166.096 421.432 165.764 421.285 165.449L421.245 165.364C421.092 165.057 420.9 164.772 420.673 164.516L420.615 164.452C420.381 164.2 420.115 163.98 419.824 163.797L419.756 163.754C419.609 163.665 419.456 163.586 419.299 163.516V161.526H419.632V161.099H419.299V160.876H419.131C419.129 160.799 419.121 160.722 419.107 160.646C419.107 160.612 419.09 160.577 419.08 160.542C419.07 160.507 419.057 160.455 419.041 160.413C419.026 160.37 419.014 160.343 418.997 160.308C418.978 160.269 418.958 160.231 418.935 160.194C418.918 160.162 418.899 160.131 418.879 160.101C418.839 160.045 418.795 159.991 418.747 159.941C418.716 159.91 418.683 159.881 418.65 159.854C418.626 159.831 418.6 159.81 418.573 159.79C418.537 159.762 418.499 159.736 418.46 159.713L418.377 159.669C418.335 159.646 418.293 159.625 418.249 159.607V159.296H417.958V158.679H417.863V157.755H417.807V155.78H418.361V155.303H417.807V154.758H417.699V155.303H417.311L417.582 155.542L417.311 155.78H417.699V157.759H417.644V158.679H417.54V159.29H417.247V159.601C417.203 159.618 417.162 159.642 417.119 159.663L417.038 159.707C416.998 159.73 416.96 159.756 416.924 159.785C416.896 159.804 416.871 159.825 416.846 159.848C416.813 159.875 416.78 159.904 416.749 159.935C416.702 159.986 416.658 160.039 416.617 160.096C416.596 160.125 416.581 160.158 416.561 160.188C416.542 160.219 416.519 160.264 416.499 160.302C416.48 160.341 416.47 160.372 416.457 160.407C416.443 160.442 416.428 160.494 416.416 160.536C416.406 160.571 416.397 160.605 416.391 160.641C416.376 160.717 416.368 160.793 416.367 160.871H416.199V161.093H415.866V161.52H416.199V163.511C416.042 163.58 415.889 163.659 415.742 163.748L415.672 163.791C415.381 163.974 415.116 164.194 414.883 164.446L414.823 164.51C414.597 164.766 414.405 165.052 414.254 165.358C414.238 165.385 414.225 165.414 414.211 165.443C414.064 165.758 413.959 166.091 413.901 166.433C413.901 166.468 413.891 166.5 413.887 166.533C413.861 166.71 413.846 166.888 413.843 167.067H413.506V167.672H412.595V168.831H412.899V173.315H412.595V174.474H413.506V176.964H409.572V176.19H403.372V182.301H401.297V184.621L403.994 189.066H405.35V296.712H430.163V189.066H431.52L434.217 184.621V182.301L432.134 182.307ZM425.933 179.988H423.463V178.693H425.93L425.933 179.988ZM423.097 179.988H422V178.693H423.095L423.097 179.988ZM413.506 179.988H412.409V178.693H413.506V179.988ZM412.039 179.988H409.572V178.693H412.039V179.988ZM425.933 178.324H423.463V177.348H425.93L425.933 178.324ZM423.095 177.338V178.314H421.998V177.338H423.095ZM413.504 178.314H412.407V177.338H413.504V178.314ZM412.037 177.338V178.314H409.57V177.338H412.037Z" fill="#1A987C"/>
<path d="M200.936 297.248C200.627 290.633 197.774 284.391 192.971 279.819C188.168 275.246 181.783 272.695 175.144 272.695C168.504 272.695 162.12 275.246 157.317 279.819C152.514 284.391 149.661 290.633 149.352 297.248H200.936Z" fill="#A2D4D1"/>
<path d="M334.356 289.563C332.529 289.561 330.773 290.269 329.462 291.538C328.151 290.271 326.397 289.563 324.571 289.563C322.773 289.556 321.042 290.245 319.743 291.484C318.764 290.56 317.539 289.935 316.215 289.685C314.89 289.435 313.521 289.569 312.271 290.073C311.021 290.576 309.942 291.427 309.163 292.524C308.384 293.621 307.937 294.918 307.875 296.262H341.395C341.31 294.457 340.531 292.754 339.22 291.507C337.91 290.26 336.168 289.564 334.356 289.563Z" fill="#A2D4D1"/>
<path d="M501.34 287.695C498.967 287.692 496.687 288.612 494.984 290.26C493.282 288.614 491.004 287.695 488.633 287.695C486.298 287.686 484.05 288.58 482.363 290.19C481.092 288.99 479.502 288.18 477.782 287.855C476.062 287.53 474.285 287.704 472.662 288.357C471.039 289.011 469.638 290.115 468.626 291.54C467.614 292.964 467.033 294.648 466.953 296.392H510.479C510.368 294.049 509.357 291.838 507.655 290.219C505.953 288.599 503.692 287.696 501.34 287.695Z" fill="#A2D4D1"/>
<path d="M407.334 245.474H406.266V239.51H405.937V224.532H407.007V222.923H406.677C406.678 222.241 406.51 221.569 406.189 220.967C405.868 220.364 405.404 219.85 404.837 219.469C404.725 219.393 404.61 219.324 404.492 219.26C403.881 218.93 403.197 218.757 402.502 218.758H401.388V218.103H400.711C400.682 217.928 400.642 217.755 400.591 217.585C400.578 217.538 400.564 217.492 400.549 217.446C400.494 217.272 400.429 217.101 400.355 216.935C400.337 216.897 400.318 216.856 400.299 216.817C400.227 216.667 400.149 216.52 400.064 216.373C400.045 216.34 400.027 216.305 400.008 216.27C399.909 216.11 399.801 215.952 399.686 215.795L399.58 215.652C399.462 215.501 399.34 215.351 399.208 215.204L399.099 215.088C398.985 214.966 398.867 214.848 398.745 214.73C398.702 214.69 398.661 214.647 398.617 214.608C398.471 214.475 398.32 214.348 398.165 214.222L397.989 214.085C397.834 213.967 397.675 213.849 397.508 213.739L397.344 213.632C397.206 213.544 397.067 213.459 396.925 213.375L396.732 213.263C396.58 213.18 396.427 213.099 396.27 213.024C396.163 212.576 395.946 212.162 395.639 211.818C395.423 211.567 395.179 211.344 394.91 211.151L394.875 211.126C394.599 210.93 394.303 210.763 393.992 210.629L393.941 210.608C393.786 210.544 393.628 210.486 393.467 210.438C393.467 210.419 393.447 210.403 393.44 210.384C393.406 210.301 393.366 210.221 393.321 210.144C393.304 210.115 393.286 210.09 393.267 210.063C393.225 209.995 393.178 209.931 393.128 209.87C393.106 209.843 393.083 209.819 393.062 209.794C393.01 209.742 392.956 209.692 392.899 209.645C392.876 209.626 392.852 209.607 392.827 209.589C392.769 209.55 392.709 209.515 392.645 209.485C392.63 209.485 392.614 209.466 392.597 209.458V199.428H392.037V209.443L392.015 209.456C391.932 209.49 391.853 209.535 391.781 209.589C391.758 209.607 391.734 209.63 391.709 209.649C391.65 209.7 391.593 209.754 391.541 209.812C391.516 209.839 391.494 209.866 391.471 209.895C391.419 209.956 391.37 210.021 391.326 210.088C391.306 210.117 391.287 210.146 391.269 210.177C391.224 210.255 391.183 210.336 391.147 210.419C391.147 210.436 391.128 210.453 391.12 210.471C390.607 210.65 390.127 210.911 389.698 211.244L389.677 211.259C389.416 211.464 389.178 211.695 388.966 211.949L388.927 211.996C388.745 212.218 388.594 212.463 388.475 212.724L388.452 212.782C388.404 212.897 388.368 213.016 388.342 213.138C388.193 213.219 388.043 213.304 387.898 213.391C387.832 213.43 387.768 213.47 387.704 213.511C387.563 213.6 387.421 213.692 387.284 213.789C387.224 213.832 387.162 213.872 387.102 213.917C386.945 214.029 386.796 214.147 386.646 214.266C386.586 214.315 386.526 214.363 386.468 214.413C386.317 214.541 386.17 214.67 386.03 214.8L385.875 214.951C385.759 215.066 385.647 215.182 385.536 215.302C385.488 215.354 385.439 215.407 385.393 215.461C385.28 215.59 385.174 215.72 385.071 215.847C385.028 215.901 384.986 215.955 384.945 216.012C384.84 216.155 384.74 216.299 384.649 216.444C384.614 216.499 384.581 216.553 384.55 216.609C384.472 216.736 384.403 216.862 384.339 216.995C384.31 217.053 384.282 217.111 384.255 217.167C384.197 217.296 384.145 217.425 384.098 217.554C384.079 217.608 384.058 217.664 384.04 217.718C384 217.844 383.965 217.969 383.938 218.093H383.188V218.748H382.457C381.762 218.747 381.078 218.92 380.467 219.251C380.349 219.314 380.233 219.383 380.122 219.459C379.555 219.84 379.091 220.355 378.77 220.957C378.449 221.559 378.281 222.231 378.282 222.913H377.631V224.523H379.028V239.5H378.811V241.512H371.254L365.862 238.113L355.953 231.863H352.097L345.436 220.358H343.163L343.461 221.253H317.412V215.155H317.071V221.253H315.556V216.485H314.213V200.902H315.744V199.76H315.55V197.265H314.207V195.738H314.455V194.1H314.199V191.417H314.56V190.567H314.077V190.491C314.077 190.2 313.994 189.915 313.838 189.669C313.682 189.423 313.459 189.225 313.196 189.1C313.196 189.075 313.196 189.05 313.196 189.021V188.854C313.195 188.769 313.179 188.684 313.147 188.605C313.117 188.529 313.072 188.459 313.016 188.398C312.897 188.273 312.736 188.195 312.564 188.18V184.639H312.589V183.673H314.207V181.812H314.269V180.846H314.604V179.358H314.701V178.886H310.863V178.656C310.863 178.542 310.863 178.43 310.863 178.314C310.863 178.078 310.857 177.84 310.845 177.601C310.845 177.524 310.836 177.446 310.832 177.367C310.823 177.207 310.811 177.045 310.797 176.88C310.797 176.789 310.78 176.696 310.77 176.604C310.754 176.455 310.737 176.304 310.718 176.155L310.677 175.862C310.656 175.717 310.632 175.57 310.607 175.423L310.555 175.127C310.526 174.978 310.495 174.828 310.464 174.679C310.442 174.584 310.425 174.485 310.404 174.399C310.365 174.227 310.322 174.056 310.278 173.886C310.26 173.815 310.243 173.743 310.224 173.672C310.162 173.438 310.094 173.204 310.03 172.97C310.001 172.876 309.968 172.777 309.937 172.688C309.892 172.545 309.846 172.402 309.797 172.261C309.749 172.12 309.716 172.037 309.675 171.925C309.635 171.813 309.586 171.681 309.54 171.561C309.493 171.442 309.447 171.322 309.398 171.202C309.35 171.082 309.307 170.982 309.261 170.872C309.214 170.761 309.154 170.622 309.098 170.499C309.042 170.375 309.007 170.305 308.96 170.199C308.9 170.069 308.838 169.938 308.776 169.812C308.735 169.729 308.693 169.648 308.65 169.565C308.375 169.023 308.079 168.494 307.761 167.978C307.749 167.963 307.741 167.946 307.73 167.93C307.631 167.77 307.536 167.613 307.424 167.457C307.393 167.41 307.364 167.362 307.333 167.317C307.23 167.165 307.125 167.016 307.019 166.869L306.92 166.73C306.811 166.579 306.699 166.432 306.587 166.285L306.499 166.175C306.379 166.021 306.257 165.868 306.131 165.719L306.096 165.679C305.394 164.837 304.61 164.068 303.756 163.381H303.746C303.579 163.249 303.413 163.122 303.244 162.994L303.221 162.979C302.207 162.228 301.081 161.641 299.885 161.239C299.666 161.145 299.445 161.064 299.22 160.988H299.204C298.984 160.915 298.759 160.853 298.534 160.795V160.366H298.776V159.564H298.565V158.984H299.243L299.842 157.811H298.617V154.939H299.16V154.62H299.044V153.901H298.617V153.673V152.688H297.993C297.924 152.591 297.842 152.502 297.751 152.425L297.73 152.407C297.638 152.332 297.538 152.267 297.431 152.214V151.122H297.044V149.079H296.815V145.581C296.832 145.578 296.847 145.572 296.862 145.564C296.882 145.559 296.901 145.551 296.92 145.543C296.947 145.528 296.972 145.51 296.996 145.491L297.04 145.452C297.063 145.426 297.082 145.397 297.098 145.367C297.108 145.353 297.116 145.339 297.123 145.324C297.144 145.275 297.154 145.223 297.154 145.17V144.542C297.154 144.489 297.144 144.436 297.123 144.387C297.116 144.372 297.108 144.358 297.098 144.344C297.082 144.314 297.063 144.285 297.04 144.259C297.027 144.244 297.011 144.234 296.997 144.221C296.973 144.201 296.946 144.184 296.918 144.169C296.9 144.16 296.881 144.152 296.862 144.145C296.846 144.145 296.833 144.132 296.815 144.128V143.492H296.647V144.128C296.631 144.128 296.618 144.142 296.602 144.145L296.544 144.169C296.517 144.183 296.491 144.201 296.467 144.221C296.451 144.233 296.436 144.246 296.422 144.259C296.399 144.285 296.38 144.314 296.366 144.344C296.356 144.358 296.347 144.372 296.341 144.387C296.32 144.436 296.309 144.488 296.308 144.542V145.17C296.309 145.223 296.32 145.275 296.341 145.324C296.347 145.34 296.356 145.354 296.366 145.367C296.38 145.398 296.399 145.426 296.422 145.452L296.467 145.491C296.491 145.511 296.517 145.528 296.544 145.543C296.563 145.552 296.582 145.559 296.602 145.564C296.616 145.571 296.631 145.577 296.647 145.581V149.079H296.41V151.122H296.023V152.208C295.917 152.261 295.817 152.326 295.726 152.402L295.703 152.419C295.613 152.497 295.531 152.585 295.461 152.682H294.901V153.669H294.839V153.899H294.57V154.62H294.455V154.937H294.843V157.805H293.777L294.376 158.978H295.054V159.558H294.843V160.36H295.128V160.789C294.903 160.843 294.68 160.905 294.459 160.982H294.442C294.219 161.058 293.998 161.139 293.779 161.234C292.583 161.636 291.458 162.223 290.445 162.973L290.419 162.992C290.251 163.114 290.084 163.242 289.919 163.379L289.904 163.39C289.055 164.076 288.277 164.844 287.579 165.682C287.567 165.698 287.554 165.711 287.54 165.727C287.416 165.876 287.294 166.028 287.174 166.181L287.087 166.295C286.972 166.44 286.862 166.587 286.753 166.738L286.653 166.877C286.548 167.024 286.443 167.172 286.341 167.325C286.31 167.37 286.279 167.418 286.25 167.464C286.145 167.619 286.042 167.775 285.943 167.936C285.931 167.954 285.92 167.973 285.911 167.992C285.593 168.504 285.296 169.034 285.021 169.575L284.897 169.818C284.833 169.948 284.773 170.079 284.703 170.205C284.659 170.303 284.612 170.398 284.568 170.502C284.523 170.607 284.457 170.752 284.405 170.875C284.353 170.999 284.312 171.096 284.267 171.206C284.223 171.316 284.171 171.445 284.124 171.565C284.078 171.685 284.035 171.805 283.99 171.925C283.946 172.045 283.907 172.153 283.868 172.267C283.83 172.381 283.775 172.545 283.731 172.684C283.698 172.781 283.665 172.878 283.636 172.976C283.564 173.208 283.498 173.442 283.442 173.674C283.423 173.749 283.405 173.825 283.386 173.9C283.343 174.066 283.303 174.232 283.264 174.4C283.242 174.495 283.223 174.594 283.204 174.686C283.171 174.833 283.14 174.982 283.113 175.129C283.093 175.23 283.078 175.322 283.06 175.429C283.034 175.574 283.011 175.719 282.991 175.863C282.977 175.962 282.961 176.057 282.95 176.161C282.93 176.308 282.913 176.457 282.898 176.604C282.898 176.698 282.878 176.797 282.87 176.886C282.855 177.046 282.845 177.207 282.836 177.365C282.836 177.446 282.824 177.525 282.82 177.607C282.82 177.842 282.805 178.076 282.805 178.308V178.318C282.805 178.511 282.805 178.704 282.818 178.898H278.974V179.358H279.071V180.848H279.458V181.814H279.478V183.675H281.121V188.168C280.936 188.169 280.759 188.242 280.628 188.373C280.497 188.503 280.424 188.68 280.423 188.864V189.021C280.421 189.052 280.421 189.084 280.423 189.115C280.167 189.244 279.952 189.44 279.801 189.683C279.65 189.926 279.57 190.206 279.569 190.491V190.567H279.071V191.411H279.468V194.105H279.22V195.744H279.468V197.271H278.123V198.237V199.783H277.93V200.926H279.46V203.051V216.508H278.116V217.353V217.998V221.284H276.488V215.186H276.147V221.284H250.139L250.437 220.389H248.247L241.594 231.872H237.738L225.74 239.439L222.446 241.522H214.254V239.51H214.037V224.532H215.434V222.923H214.785C214.785 222.78 214.785 222.637 214.764 222.497C214.704 221.919 214.524 221.36 214.234 220.856C213.945 220.352 213.552 219.914 213.082 219.571C212.929 219.457 212.767 219.353 212.6 219.26C212.481 219.196 212.359 219.137 212.235 219.084C211.985 218.979 211.726 218.898 211.46 218.843C211.323 218.814 211.185 218.792 211.046 218.779C210.906 218.765 210.763 218.758 210.619 218.758H209.885V218.103H209.135C209.108 217.979 209.073 217.853 209.032 217.728C209.015 217.674 208.996 217.618 208.974 217.561C208.93 217.436 208.877 217.31 208.819 217.175C208.792 217.117 208.763 217.059 208.734 216.999C208.67 216.873 208.6 216.746 208.525 216.613C208.492 216.557 208.461 216.502 208.426 216.448C208.333 216.303 208.232 216.158 208.128 216.015L208.002 215.851C207.901 215.722 207.794 215.593 207.682 215.465L207.537 215.302C207.428 215.184 207.314 215.068 207.197 214.954L207.044 214.802C206.903 214.67 206.758 214.541 206.606 214.415L206.426 214.266C206.279 214.149 206.128 214.033 205.973 213.919L205.789 213.789C205.651 213.694 205.512 213.596 205.368 213.513L205.175 213.393C205.027 213.306 204.88 213.221 204.729 213.14C204.703 213.018 204.666 212.899 204.619 212.784L204.595 212.726C204.479 212.464 204.327 212.219 204.144 211.997L204.107 211.951C203.894 211.697 203.655 211.466 203.394 211.261L203.373 211.246C202.944 210.912 202.464 210.651 201.95 210.473C201.943 210.455 201.934 210.437 201.923 210.42C201.888 210.337 201.847 210.257 201.801 210.179C201.784 210.148 201.764 210.119 201.747 210.09C201.701 210.02 201.652 209.955 201.602 209.897L201.532 209.814C201.478 209.756 201.422 209.702 201.361 209.651C201.338 209.632 201.315 209.609 201.29 209.591C201.218 209.536 201.139 209.492 201.055 209.458L201.034 209.445V199.426H200.474V209.456C200.458 209.456 200.443 209.475 200.426 209.483C200.362 209.513 200.301 209.548 200.243 209.588L200.172 209.644C200.115 209.69 200.062 209.74 200.011 209.792C199.988 209.817 199.966 209.841 199.945 209.868C199.894 209.929 199.847 209.994 199.804 210.061C199.786 210.088 199.767 210.113 199.751 210.142C199.707 210.22 199.667 210.3 199.631 210.382C199.631 210.401 199.612 210.417 199.606 210.436C199.445 210.485 199.286 210.541 199.131 210.606L199.079 210.627C198.768 210.761 198.473 210.928 198.197 211.124L198.162 211.149C197.895 211.343 197.65 211.567 197.432 211.816C197.125 212.161 196.908 212.575 196.8 213.024C196.645 213.099 196.492 213.18 196.341 213.263L196.147 213.375C196.006 213.459 195.866 213.544 195.731 213.632C195.675 213.667 195.618 213.702 195.564 213.739C195.399 213.849 195.241 213.967 195.084 214.085L194.909 214.222C194.754 214.348 194.601 214.475 194.458 214.608C194.413 214.647 194.371 214.69 194.328 214.73C194.206 214.848 194.088 214.966 193.975 215.088L193.865 215.204C193.733 215.351 193.611 215.501 193.493 215.654L193.388 215.793C193.274 215.952 193.165 216.11 193.067 216.272C193.045 216.305 193.028 216.338 193.008 216.373C192.923 216.52 192.846 216.669 192.774 216.817C192.757 216.856 192.735 216.897 192.718 216.935C192.644 217.103 192.58 217.274 192.524 217.446L192.483 217.583C192.433 217.754 192.392 217.927 192.361 218.103H191.687V218.758H190.571C189.537 218.758 188.541 219.141 187.773 219.831C187.006 220.522 186.523 221.472 186.417 222.497C186.403 222.637 186.395 222.78 186.395 222.923H186.072V224.532H187.143V239.51H186.812V245.474H185.746L181.141 248.87V251.106H183.272V253.539V254.954V255.959V258.231V259.236V261.509V262.514V264.779V265.786V268.064V269.069V271.35V272.355V274.628V275.633V277.606V278.613V280.352V296.936H409.777V280.352V278.613V277.606V275.633V274.628V272.355V271.35V269.069V268.064V265.794V264.779V262.508V261.503V259.231V258.226V255.953V254.948V253.533V251.1H411.909V248.864L407.334 245.474ZM297.323 154.939V157.807H296.147V154.939H297.323ZM297.972 157.807H297.641V154.939H297.978L297.972 157.807ZM295.841 154.939V157.807H295.509V154.939H295.841Z" fill="#1A987C"/>
<path d="M172.247 289.758C170.42 289.755 168.664 290.464 167.352 291.734C166.042 290.465 164.288 289.757 162.462 289.758C160.664 289.751 158.933 290.439 157.633 291.679C156.655 290.755 155.43 290.131 154.106 289.881C152.781 289.63 151.413 289.765 150.163 290.268C148.913 290.771 147.834 291.621 147.054 292.718C146.275 293.815 145.827 295.112 145.766 296.455H179.286C179.2 294.65 178.421 292.948 177.111 291.701C175.8 290.454 174.058 289.758 172.247 289.758Z" fill="url(#paint2_linear_6270_27442)"/>
<path d="M115.804 252.364L109.588 254.061L111.352 248.781H111.72V246.848V244.894L107.893 243.851L105.401 243.169V239.514H106.103V237.831H102.834L101.231 235.645L95.7849 228.218V224.04H96.3351V222.356H91.4911L89.2997 219.366L88.8327 218.731H88.7049V215.851H87.5423V214.767H86.7673V212.388H86.1143V208.64L86.1511 208.631C86.2869 208.611 86.4209 208.58 86.5521 208.54C86.6807 208.497 86.8063 208.446 86.9281 208.387L86.9804 208.362C87.0959 208.306 87.2072 208.241 87.3136 208.169L87.3641 208.13C87.5775 207.971 87.7668 207.783 87.926 207.57L87.9628 207.522C88.0383 207.416 88.1062 207.305 88.1662 207.189C88.1662 207.172 88.1817 207.154 88.1914 207.137C88.2516 207.016 88.3026 206.891 88.3444 206.762C88.3848 206.631 88.4153 206.497 88.4355 206.362C88.4355 206.348 88.4355 206.337 88.4452 206.323H89.8499V205.55H88.4394C88.4394 205.539 88.4394 205.527 88.4297 205.514C88.4095 205.378 88.379 205.244 88.3386 205.113C88.2969 204.985 88.2457 204.86 88.1856 204.739C88.1856 204.721 88.1681 204.704 88.1604 204.686C88.1005 204.571 88.0324 204.46 87.9569 204.354L87.9201 204.304C87.7597 204.091 87.5699 203.903 87.3563 203.743L87.3079 203.707C87.2017 203.631 87.0903 203.563 86.9746 203.504L86.9222 203.478C86.8008 203.419 86.6752 203.367 86.5464 203.326C86.4151 203.286 86.2811 203.255 86.1453 203.235H86.1085V201.231H85.3335V203.204H85.2947C85.1589 203.224 85.0249 203.255 84.8936 203.295C84.7648 203.337 84.639 203.388 84.5177 203.448L84.4654 203.473C84.3497 203.532 84.2383 203.6 84.1321 203.676L84.0837 203.712C83.8696 203.872 83.6796 204.061 83.5198 204.275L83.483 204.323C83.4108 204.429 83.3461 204.54 83.2892 204.655C83.2892 204.673 83.2738 204.69 83.2641 204.708C83.2048 204.829 83.1536 204.954 83.111 205.083C83.0706 205.213 83.0402 205.347 83.0199 205.483C83.0199 205.496 83.0199 205.508 83.0102 205.519H81.6055V206.292H83.0102C83.0102 206.306 83.0102 206.317 83.0199 206.331C83.0402 206.466 83.0706 206.6 83.111 206.731C83.1536 206.859 83.2048 206.985 83.2641 207.106C83.2738 207.123 83.2815 207.141 83.2892 207.158C83.3461 207.273 83.4108 207.384 83.483 207.491C83.4966 207.506 83.5082 207.523 83.5198 207.539C83.6796 207.752 83.8696 207.942 84.0837 208.101L84.1321 208.138C84.2386 208.21 84.35 208.275 84.4654 208.331L84.5177 208.356C84.6394 208.416 84.7651 208.467 84.8936 208.509C85.0249 208.549 85.1589 208.58 85.2947 208.6L85.3335 208.61V212.388H84.6921V214.771H83.9171V215.855H82.7545V218.735H82.6266L79.9682 222.36H74.9944V224.043H75.6706V228.222L73.452 231.246L69.3017 236.905V221.502H70.1387V219.595H69.3017V214.763H70.1387V212.857H69.1991V209.682L67.3196 207.436L65.7016 209.682V212.859H64.851V199.81H65.6571V199.333V198.575H66.3759V194.931H65.7695V192.855H66.3779V191.79H62.7468V188.004H63.0936V186.856H63.4231V184.817H62.5608L62.0512 182.904L59.4142 173.003H59.6079V172.19H59.1313V171.577C59.1628 171.554 59.1926 171.529 59.2204 171.501C59.2299 171.494 59.2389 171.487 59.2475 171.478C59.3004 171.422 59.3425 171.357 59.3715 171.285L59.3928 171.235C59.4548 171.085 59.4548 170.917 59.3928 170.767C59.3928 170.752 59.3793 170.734 59.3715 170.719C59.3418 170.648 59.2998 170.582 59.2475 170.526C59.238 170.518 59.229 170.511 59.2204 170.502C59.1921 170.476 59.1623 170.452 59.1313 170.429V170.019H58.9685V168.786H58.8775V166.711H59.6641V166.486H58.8775V165.57H58.6527V166.486H57.866V166.711H58.6527V168.806H58.5616V170.039H58.4066V170.45C58.3752 170.473 58.3454 170.497 58.3175 170.524C58.3089 170.532 58.2998 170.54 58.2903 170.547C58.2381 170.604 58.1956 170.669 58.1644 170.74L58.145 170.788C58.083 170.938 58.083 171.106 58.145 171.256C58.145 171.273 58.1586 171.289 58.1644 171.306C58.1949 171.377 58.2375 171.443 58.2903 171.5C58.2989 171.508 58.308 171.516 58.3175 171.523C58.3449 171.55 58.3747 171.576 58.4066 171.598V172.19H57.93V173.001H58.1237L54.979 184.815H54.1167V186.854H54.4462V188.002H54.793V191.788H51.1639V192.853H51.7722V194.929H51.1639V198.574H51.8807V199.331V199.808H52.6888V212.856H51.8807V209.682L50.0129 207.438L48.3853 209.682V212.859H47.556V214.765H48.393V219.596H47.556V221.504H48.393V254.358L39.1953 256.871V258.106V259.339H44.4074V261.476V267.402H43.985V268.262H44.4074V275.812L43.7874 276.748H43.7332L43.7099 276.864L40.0595 282.356V296.151H47.4611V296.043H65.6978V296.151H105.746V296.043H123.977V296.151H131.379V282.356L127.728 276.864V276.844L127.709 276.748H127.655L127.034 275.812V268.262H127.455V267.402H127.034V261.476V259.315H132.229V258.082V256.848L115.804 252.364ZM85.2288 207.914C85.1418 207.894 85.0562 207.867 84.973 207.835L84.8471 207.779C84.7766 207.746 84.708 207.709 84.6417 207.668L84.5313 207.599C84.4485 207.54 84.3701 207.476 84.2968 207.406C84.2755 207.386 84.2541 207.365 84.2348 207.344C84.1645 207.271 84.0997 207.192 84.041 207.11C84.0158 207.073 83.9945 207.036 83.9713 207C83.9303 206.934 83.8934 206.865 83.8609 206.795C83.8415 206.754 83.8221 206.712 83.8047 206.669C83.7721 206.586 83.7455 206.501 83.7252 206.414C83.7252 206.383 83.7058 206.352 83.7 206.319H85.3392V207.943C85.2908 207.943 85.2598 207.923 85.2288 207.916V207.914ZM83.7233 205.43C83.7439 205.343 83.7704 205.257 83.8027 205.173C83.8201 205.131 83.8395 205.09 83.8589 205.05C83.8914 204.979 83.9284 204.911 83.9694 204.845C83.9926 204.808 84.0139 204.769 84.0391 204.735C84.0978 204.651 84.1626 204.573 84.2329 204.499L84.2948 204.437C84.3686 204.367 84.4469 204.303 84.5293 204.244L84.6398 204.174C84.7062 204.134 84.7747 204.097 84.8452 204.064L84.9711 204.008C85.0544 203.976 85.1398 203.949 85.2268 203.929C85.2578 203.929 85.2889 203.909 85.3218 203.904V205.533H83.6865C83.6865 205.533 83.7156 205.461 83.7233 205.43ZM86.1201 203.904C86.153 203.904 86.184 203.921 86.215 203.929C86.3026 203.949 86.3888 203.976 86.4728 204.008L86.5968 204.064C86.6674 204.097 86.736 204.133 86.8021 204.174C86.8389 204.197 86.8777 204.219 86.9126 204.244C86.996 204.302 87.075 204.367 87.1489 204.437C87.1702 204.456 87.1896 204.476 87.209 204.497C87.2793 204.571 87.3441 204.65 87.4028 204.733C87.428 204.768 87.4492 204.806 87.4725 204.843C87.5135 204.909 87.5504 204.977 87.583 205.048C87.6024 205.088 87.6218 205.129 87.6392 205.171C87.6715 205.255 87.698 205.341 87.7186 205.428C87.7186 205.459 87.738 205.49 87.7438 205.523H86.1143V203.894L86.1201 203.904ZM87.7206 206.416C87.7002 206.503 87.6737 206.588 87.6411 206.671C87.6236 206.714 87.6043 206.756 87.5849 206.797C87.5523 206.867 87.5155 206.936 87.4745 207.002C87.4512 207.038 87.4299 207.075 87.4048 207.112C87.3461 207.195 87.2813 207.274 87.211 207.348L87.1509 207.407C87.077 207.478 86.9979 207.542 86.9145 207.601C86.8796 207.626 86.8409 207.647 86.8041 207.67C86.7379 207.711 86.6693 207.748 86.5987 207.78L86.4746 207.837C86.3907 207.869 86.3045 207.895 86.2169 207.916C86.1859 207.916 86.155 207.935 86.122 207.941V206.31H87.7555C87.74 206.352 87.7283 206.383 87.7206 206.414V206.416ZM106.539 254.896L105.401 255.207V253.467L109.594 249.285L107.899 254.354L107.833 254.548L106.539 254.896ZM105.969 250.947L105.401 251.514V248.783H108.137L105.969 250.947ZM69.3483 239.514H69.2843H69.3483ZM65.1359 194.932H63.6381V194.159V192.851H65.1533L65.1359 194.932ZM52.3788 192.857H53.8939V194.165V194.938H52.3788V192.857Z" fill="#19817B"/>
<path d="M314.463 290.055H314.141V281.764H315.11L311.566 279.938H310.876V277.139H311.118V276.559H310.549V274.689H310.247V264.569H307.706V263.951H308.261V263.157H307.706V261.477H308.977V258.252H306.821V255.017H306.348V253.331H305.951C305.951 253.318 305.934 253.306 305.926 253.295C305.885 253.235 305.841 253.179 305.796 253.123C305.751 253.067 305.726 253.036 305.689 252.993C305.653 252.951 305.594 252.893 305.544 252.842C305.494 252.792 305.461 252.761 305.416 252.724C305.372 252.688 305.313 252.638 305.259 252.595C305.205 252.553 305.16 252.524 305.108 252.489C305.056 252.454 305.002 252.417 304.945 252.384C304.889 252.351 304.827 252.323 304.767 252.292C304.707 252.261 304.659 252.237 304.602 252.214C304.546 252.191 304.465 252.162 304.393 252.139C304.321 252.116 304.288 252.102 304.234 252.087C304.18 252.071 304.068 252.048 303.982 252.033C303.936 252.033 303.893 252.013 303.847 252.008C303.577 251.969 303.303 251.969 303.033 252.008C302.986 252.008 302.942 252.025 302.897 252.033C302.812 252.048 302.727 252.064 302.643 252.087C302.589 252.102 302.539 252.122 302.485 252.139C302.43 252.156 302.345 252.185 302.277 252.214C302.209 252.243 302.167 252.265 302.113 252.292C302.058 252.319 301.992 252.351 301.934 252.384C301.876 252.417 301.824 252.452 301.772 252.489C301.719 252.525 301.669 252.558 301.618 252.597C301.568 252.636 301.514 252.68 301.463 252.724C301.413 252.769 301.376 252.802 301.336 252.842C301.295 252.883 301.237 252.941 301.19 252.993C301.144 253.045 301.119 253.078 301.084 253.123C301.049 253.167 300.995 253.235 300.954 253.295C300.954 253.308 300.935 253.318 300.927 253.331H300.53V255.017H298.507V254.05H297.914L297.976 254.023L298.098 253.973C298.151 253.948 298.203 253.919 298.253 253.888C298.288 253.867 298.323 253.847 298.357 253.824C298.426 253.777 298.49 253.726 298.551 253.67L298.615 253.608C298.673 253.547 298.728 253.482 298.778 253.414C298.797 253.387 298.815 253.356 298.832 253.327C298.867 253.269 298.9 253.212 298.929 253.152C298.958 253.092 298.958 253.084 298.972 253.049C298.996 252.986 299.017 252.922 299.034 252.856C299.034 252.825 299.051 252.794 299.057 252.761C299.078 252.658 299.089 252.553 299.09 252.448C299.088 252.345 299.078 252.242 299.059 252.141C299.059 252.11 299.045 252.081 299.038 252.052C299.021 251.98 298.999 251.91 298.972 251.841C298.96 251.812 298.95 251.785 298.939 251.758C298.901 251.67 298.855 251.586 298.801 251.507C298.743 251.427 298.678 251.352 298.607 251.283C298.586 251.262 298.565 251.24 298.542 251.221C298.491 251.172 298.436 251.127 298.379 251.086L298.303 251.032C298.226 250.981 298.145 250.937 298.061 250.9H298.042H298.098V249.661H297.629L297.598 249.621C297.55 249.549 297.497 249.484 297.445 249.416C297.393 249.348 297.364 249.313 297.319 249.263C297.274 249.213 297.207 249.143 297.146 249.085C297.086 249.027 297.048 248.991 296.995 248.944C296.943 248.898 296.875 248.842 296.811 248.794C296.747 248.745 296.693 248.707 296.631 248.666C296.569 248.625 296.505 248.583 296.437 248.544C296.369 248.506 296.298 248.469 296.226 248.434C296.154 248.399 296.098 248.37 296.032 248.341C295.966 248.312 295.87 248.281 295.786 248.252C295.703 248.223 295.662 248.208 295.593 248.191C295.494 248.165 295.395 248.144 295.294 248.129C295.24 248.117 295.188 248.104 295.133 248.096C294.812 248.051 294.486 248.051 294.164 248.096C294.108 248.096 294.056 248.117 294.002 248.129C293.901 248.144 293.802 248.165 293.703 248.191C293.639 248.208 293.577 248.231 293.51 248.252C293.442 248.274 293.343 248.308 293.264 248.341C293.184 248.374 293.134 248.401 293.07 248.434C293.006 248.467 292.928 248.504 292.86 248.544C292.793 248.585 292.731 248.623 292.667 248.666C292.603 248.709 292.547 248.749 292.488 248.794C292.43 248.838 292.363 248.892 292.295 248.944C292.227 248.996 292.192 249.037 292.144 249.085C292.095 249.134 292.027 249.201 291.971 249.263L291.845 249.416C291.793 249.484 291.741 249.549 291.692 249.621L291.661 249.661H291.192V250.869H291.248H291.231C291.147 250.906 291.065 250.95 290.989 251.001C290.963 251.017 290.937 251.035 290.913 251.055C290.855 251.096 290.8 251.141 290.749 251.19C290.725 251.209 290.703 251.23 290.683 251.252C290.611 251.32 290.546 251.395 290.489 251.476C290.437 251.556 290.391 251.64 290.351 251.727C290.34 251.754 290.33 251.781 290.318 251.81C290.292 251.879 290.27 251.95 290.252 252.021C290.244 252.05 290.237 252.08 290.233 252.11C290.212 252.211 290.201 252.314 290.2 252.417C290.201 252.522 290.212 252.627 290.233 252.73C290.233 252.763 290.249 252.794 290.256 252.827C290.273 252.892 290.294 252.957 290.318 253.02C290.332 253.055 290.347 253.088 290.363 253.123C290.391 253.183 290.422 253.241 290.458 253.297C290.477 253.327 290.493 253.358 290.514 253.387C290.563 253.456 290.618 253.52 290.677 253.581C290.697 253.603 290.718 253.623 290.741 253.642C290.801 253.699 290.866 253.751 290.935 253.797C290.967 253.82 291.002 253.84 291.037 253.861C291.087 253.892 291.139 253.92 291.192 253.946L291.314 253.996L291.376 254.023H290.795V254.99H288.819V253.304H288.431C288.422 253.293 288.412 253.28 288.404 253.268C288.363 253.208 288.319 253.152 288.274 253.096C288.23 253.04 288.204 253.009 288.168 252.966C288.131 252.924 288.073 252.864 288.022 252.815C287.972 252.767 287.939 252.734 287.894 252.697C287.85 252.661 287.792 252.61 287.737 252.568C287.683 252.525 287.639 252.496 287.586 252.462C287.534 252.427 287.48 252.39 287.424 252.357C287.367 252.324 287.305 252.295 287.245 252.265C287.185 252.234 287.137 252.21 287.081 252.187C287.024 252.164 286.943 252.135 286.871 252.112L286.714 252.06C286.631 252.036 286.546 252.021 286.461 252.006C286.414 252.006 286.371 251.986 286.325 251.98C286.19 251.961 286.054 251.951 285.918 251.951C285.782 251.951 285.646 251.961 285.511 251.98C285.465 251.98 285.42 251.998 285.376 252.006C285.29 252.021 285.205 252.036 285.122 252.06L284.963 252.112C284.893 252.135 284.823 252.158 284.756 252.187C284.688 252.216 284.645 252.237 284.591 252.265C284.537 252.292 284.471 252.324 284.413 252.357C284.354 252.39 284.304 252.425 284.25 252.462C284.196 252.498 284.147 252.531 284.099 252.568C284.05 252.605 283.992 252.653 283.942 252.697C283.891 252.742 283.855 252.775 283.814 252.815C283.773 252.856 283.715 252.914 283.669 252.966C283.622 253.018 283.597 253.051 283.562 253.096C283.527 253.14 283.473 253.208 283.432 253.268L283.405 253.304H283.018V254.99H282.485V255.507H253.442L245.837 250.338L238.234 255.507H209.212V255.121H208.74V253.434H208.352L208.325 253.399C208.284 253.339 208.24 253.283 208.195 253.227C208.151 253.171 208.125 253.14 208.089 253.097C208.052 253.055 207.994 252.995 207.943 252.947C207.893 252.898 207.86 252.866 207.815 252.827C207.771 252.788 207.713 252.74 207.658 252.699C207.604 252.659 207.56 252.626 207.507 252.593C207.455 252.56 207.401 252.522 207.345 252.489C207.288 252.456 207.226 252.425 207.166 252.396C207.106 252.367 207.058 252.342 207.002 252.319C206.945 252.295 206.864 252.266 206.792 252.243C206.721 252.22 206.688 252.205 206.633 252.191C206.579 252.178 206.467 252.152 206.382 252.137L206.246 252.11C205.976 252.074 205.702 252.074 205.432 252.11L205.296 252.137C205.211 252.152 205.126 252.168 205.043 252.191C204.959 252.214 204.938 252.226 204.884 252.243C204.83 252.261 204.744 252.29 204.676 252.319C204.609 252.348 204.566 252.369 204.512 252.396C204.457 252.423 204.392 252.456 204.333 252.489C204.275 252.522 204.223 252.556 204.171 252.593C204.118 252.63 204.068 252.663 204.018 252.699C203.967 252.736 203.913 252.782 203.863 252.827C203.812 252.871 203.775 252.906 203.735 252.947C203.694 252.987 203.636 253.045 203.589 253.097C203.543 253.15 203.518 253.183 203.483 253.227C203.448 253.271 203.394 253.339 203.353 253.399L203.326 253.434H202.938V255.121H200.9V254.155H200.307L200.369 254.128C200.412 254.112 200.451 254.095 200.491 254.075C200.544 254.051 200.596 254.023 200.646 253.992C200.682 253.972 200.717 253.95 200.751 253.927C200.819 253.88 200.884 253.829 200.945 253.774L201.009 253.712C201.067 253.651 201.121 253.587 201.171 253.519C201.191 253.49 201.208 253.461 201.226 253.43C201.261 253.373 201.294 253.314 201.322 253.254C201.338 253.221 201.352 253.188 201.365 253.154C201.39 253.09 201.41 253.026 201.427 252.96C201.437 252.929 201.445 252.898 201.452 252.866C201.473 252.762 201.483 252.658 201.483 252.552C201.483 252.449 201.473 252.346 201.452 252.245C201.452 252.214 201.439 252.185 201.431 252.156C201.414 252.085 201.392 252.014 201.365 251.946C201.355 251.917 201.344 251.89 201.332 251.863C201.294 251.775 201.249 251.691 201.197 251.611V251.602C201.138 251.522 201.074 251.447 201.003 251.377C200.983 251.355 200.962 251.335 200.939 251.316C200.887 251.266 200.832 251.22 200.774 251.178L200.699 251.126C200.622 251.076 200.541 251.032 200.456 250.995C200.45 250.994 200.443 250.994 200.437 250.995H200.493V249.71H200.024C200.015 249.696 200.003 249.683 199.993 249.667C199.945 249.598 199.893 249.532 199.84 249.474C199.788 249.416 199.759 249.371 199.714 249.321C199.67 249.271 199.602 249.201 199.542 249.143C199.482 249.085 199.443 249.047 199.391 249.002C199.338 248.958 199.271 248.9 199.197 248.852C199.123 248.803 199.079 248.765 199.017 248.724C198.955 248.683 198.891 248.641 198.823 248.602C198.755 248.564 198.683 248.527 198.612 248.492C198.54 248.457 198.484 248.428 198.418 248.399C198.352 248.37 198.255 248.337 198.172 248.31C198.089 248.283 198.048 248.266 197.978 248.249C197.881 248.222 197.784 248.204 197.682 248.185C197.627 248.185 197.573 248.162 197.519 248.154C197.198 248.109 196.872 248.109 196.55 248.154C196.494 248.154 196.442 248.175 196.387 248.185C196.287 248.204 196.194 248.222 196.089 248.249C196.025 248.266 195.963 248.289 195.895 248.31C195.827 248.332 195.729 248.366 195.649 248.399C195.57 248.432 195.519 248.459 195.455 248.492C195.391 248.525 195.314 248.562 195.246 248.602C195.178 248.643 195.116 248.681 195.052 248.724C194.988 248.767 194.932 248.807 194.874 248.852C194.816 248.896 194.748 248.95 194.68 249.002C194.613 249.054 194.578 249.095 194.529 249.143C194.481 249.192 194.413 249.259 194.357 249.321C194.301 249.383 194.274 249.422 194.233 249.474C194.192 249.526 194.126 249.607 194.08 249.667L194.047 249.71H193.578V250.946H193.634H193.617C193.532 250.983 193.451 251.027 193.374 251.078L193.299 251.13C193.241 251.172 193.186 251.218 193.134 251.267C193.111 251.286 193.089 251.307 193.068 251.329C192.997 251.398 192.932 251.473 192.875 251.553V251.563C192.822 251.643 192.776 251.727 192.737 251.814C192.725 251.841 192.716 251.868 192.704 251.897C192.678 251.966 192.656 252.036 192.638 252.108C192.638 252.137 192.625 252.166 192.619 252.197C192.598 252.298 192.587 252.401 192.586 252.504C192.587 252.609 192.598 252.714 192.619 252.817C192.619 252.85 192.634 252.881 192.642 252.912C192.659 252.978 192.68 253.042 192.704 253.105C192.718 253.14 192.733 253.173 192.749 253.206C192.776 253.267 192.808 253.325 192.844 253.382C192.863 253.413 192.878 253.441 192.9 253.47C192.949 253.539 193.004 253.603 193.062 253.664C193.082 253.685 193.103 253.704 193.125 253.726C193.186 253.78 193.251 253.831 193.318 253.878C193.351 253.902 193.386 253.924 193.421 253.944C193.471 253.974 193.523 254.002 193.576 254.027L193.698 254.079L193.76 254.106H193.169V255.073H191.189V253.385H190.801L190.774 253.351C190.733 253.291 190.689 253.235 190.644 253.179C190.6 253.123 190.575 253.092 190.538 253.049C190.501 253.007 190.443 252.947 190.392 252.898C190.342 252.85 190.309 252.817 190.265 252.779C190.22 252.74 190.162 252.692 190.11 252.651C190.057 252.61 190.009 252.578 189.957 252.545C189.904 252.512 189.85 252.473 189.794 252.44C189.738 252.408 189.676 252.377 189.615 252.348C189.555 252.319 189.507 252.294 189.451 252.27C189.395 252.247 189.313 252.218 189.242 252.195C189.17 252.172 189.139 252.156 189.085 252.143C189.03 252.129 188.916 252.104 188.831 252.089L188.695 252.062C188.56 252.044 188.424 252.035 188.288 252.035C188.152 252.035 188.016 252.044 187.881 252.062L187.746 252.089C187.66 252.104 187.575 252.12 187.494 252.143C187.412 252.166 187.387 252.178 187.333 252.195C187.279 252.212 187.193 252.241 187.126 252.27C187.058 252.299 187.015 252.321 186.961 252.348C186.907 252.375 186.841 252.408 186.783 252.44C186.725 252.473 186.674 252.508 186.62 252.545C186.566 252.581 186.517 252.614 186.469 252.651C186.42 252.688 186.362 252.734 186.312 252.779C186.262 252.823 186.225 252.858 186.184 252.898C186.143 252.939 186.085 252.997 186.039 253.049C185.992 253.101 185.967 253.134 185.932 253.179C185.897 253.223 185.843 253.291 185.802 253.351L185.775 253.385H185.388V255.073H184.855V258.215H182.7V261.431H183.969V263.11H183.413V263.905H183.967V264.523H181.427V274.642H181.233V276.513H180.561V277.093H180.881V279.891H180.028L176.484 281.718H177.536V290.008H177.327V294.206H176.856V296.583H314.976V294.206H314.467L314.463 290.055Z" fill="#19817B"/>
<path d="M464.552 296.245C464.324 291.067 462.102 286.176 458.348 282.592C454.594 279.008 449.598 277.008 444.401 277.008C439.205 277.008 434.209 279.008 430.454 282.592C426.7 286.176 424.478 291.067 424.25 296.245H464.552Z" fill="url(#paint3_linear_6270_27442)"/>
<path d="M444.406 296.24H464.557C464.308 291.075 462.077 286.204 458.325 282.636C454.574 279.067 449.59 277.074 444.406 277.07V296.24Z" fill="#A2D4D1"/>
<path d="M3.91549 280.275C1.50655 280.27 -0.808544 281.698 -2.53776 284.253C-4.26631 281.701 -6.57894 280.274 -8.9859 280.275C-11.3567 280.26 -13.6388 281.647 -15.3523 284.144C-16.6431 282.282 -18.2578 281.024 -20.0042 280.52C-21.7507 280.016 -23.5553 280.287 -25.2036 281.301C-26.8519 282.315 -28.2744 284.029 -29.3019 286.239C-30.3295 288.449 -30.9189 291.062 -31 293.768H13.1968C13.0839 290.133 12.0568 286.703 10.3286 284.19C8.60048 281.678 6.30396 280.276 3.91549 280.275Z" fill="url(#paint4_linear_6270_27442)"/>
<path d="M118.372 296.207C118.212 292.758 116.725 289.504 114.221 287.12C111.718 284.736 108.39 283.406 104.928 283.406C101.467 283.406 98.1391 284.736 95.6355 287.12C93.1318 289.504 91.6452 292.758 91.4844 296.207H118.372Z" fill="url(#paint5_linear_6270_27442)"/>
<path d="M104.922 296.206H118.369C118.204 292.758 116.715 289.506 114.212 287.124C111.709 284.741 108.382 283.41 104.922 283.406V296.206Z" fill="#A2D4D1"/>
<path d="M111.405 279.408C110.738 269.332 99.2582 272.064 99.0702 271.693C98.8823 271.322 108.619 268.856 108.458 268.721C98.952 260.492 95.5632 270.826 95.476 269.821C94.8947 263.878 88.0337 263.227 88.0337 263.227C88.0337 263.227 93.4899 270.422 91.7403 269.39C81.8953 263.592 77.4408 273.781 78.4115 273.379C82.1356 271.844 91.6628 273.846 91.0699 273.958C82.4475 275.557 81.5969 285.724 81.5969 285.724C86.7077 284.75 91.2473 281.854 94.2766 277.634C93.7069 282.446 92.8931 290.105 92.4766 297.699L95.9642 298.472L96.1367 279.919C96.1619 280.094 96.189 280.274 96.2161 280.458C97.245 287.029 103.201 291.653 103.445 291.11C108.003 280.551 98.7234 276.148 98.9772 276.131C101.911 275.933 111.411 279.546 111.405 279.408Z" fill="#D9EED4"/>
<path d="M180.825 242.342C178.397 243.262 186.832 235.384 186.832 235.384C186.832 235.384 178.035 234.719 176.02 242.075C175.686 243.32 173.646 229.573 159.86 237.895C159.632 238.032 171.379 243.248 171.073 243.667C170.767 244.087 156.861 238.163 153.844 250.702C153.795 250.884 166.568 248.383 170.228 249.241C170.54 249.322 157.886 252.855 161.339 267.155C161.532 267.885 170.058 263.338 172.77 255.29C172.889 254.935 172.999 254.594 173.106 254.262L173.53 297.243L178.688 296.484C177.773 276.369 175.692 255.847 175.136 250.567C176.452 253.893 180.387 261.39 190.094 265.102C190.094 265.102 191.224 252.107 180.685 248.242C179.963 247.971 192.425 247.511 196.785 250.246C197.915 250.959 194.501 237.151 180.825 242.342ZM174.431 249.523C174.522 249.137 174.567 248.907 174.567 248.907C174.567 248.907 174.609 249.081 174.708 249.394L174.431 249.523Z" fill="#D9EED4"/>
<path d="M62.0125 237.592C59.5847 238.512 68.019 230.634 68.019 230.634C68.019 230.634 59.2224 229.969 57.2073 237.325C56.874 238.57 54.8337 224.823 41.0476 233.145C40.819 233.282 52.5667 238.498 52.2606 238.917C51.9544 239.337 38.0482 233.413 35.0314 245.952C34.9829 246.134 47.7556 243.633 51.4157 244.491C51.7277 244.572 39.0733 248.105 42.5261 262.405C42.7198 263.135 51.2453 258.588 53.9579 250.54C54.0761 250.185 54.1865 249.844 54.2931 249.512L54.7174 292.493L59.8753 291.734C58.9608 271.619 56.8798 251.097 56.3237 245.817C57.6393 249.143 61.5746 256.64 71.282 260.352C71.282 260.352 72.4116 247.357 61.873 243.492C61.1502 243.221 73.6129 242.761 77.9725 245.496C79.1021 246.209 75.6881 232.401 62.0125 237.592ZM55.6184 244.773C55.7095 244.387 55.7541 244.157 55.7541 244.157C55.7541 244.157 55.7967 244.331 55.8955 244.644L55.6184 244.773Z" fill="#D9EED4"/>
<path d="M471.708 252.078C471.708 252.078 468.22 274.655 466.422 296.837L471.915 297.997L473.734 253.087L471.708 252.078Z" fill="#D9EED4"/>
<path d="M450.414 274.082C450.414 274.082 449.965 256.658 464.326 252.362C465.313 252.058 448.742 250.441 442.703 253.734C441.131 254.59 446.805 236.464 464.611 244.486C467.775 245.917 457.171 234.719 457.171 234.719C457.171 234.719 468.953 234.547 471.044 244.523C471.385 246.206 475.227 228.044 492.927 240.25C493.22 240.457 477.132 246.46 477.512 247.045C477.892 247.631 496.909 240.861 499.905 257.816C499.955 258.067 483.135 253.697 478.178 254.544C477.756 254.629 494.34 260.359 488.574 279.146C488.26 280.112 477.266 273.348 474.295 262.406C472.898 257.201 472.428 253.742 472.428 253.742C472.428 253.742 467.742 268.648 450.414 274.082Z" fill="#D9EED4"/>
</g>
<defs>
<linearGradient id="paint0_linear_6270_27442" x1="92.1091" y1="49.9229" x2="241.557" y2="60.2993" gradientUnits="userSpaceOnUse">
<stop stop-color="#78BC6D"/>
<stop offset="1" stop-color="#0CA3AC"/>
</linearGradient>
<linearGradient id="paint1_linear_6270_27442" x1="367.793" y1="147.505" x2="431.656" y2="150.592" gradientUnits="userSpaceOnUse">
<stop stop-color="#78BC6D"/>
<stop offset="1" stop-color="#0CA3AC"/>
</linearGradient>
<linearGradient id="paint2_linear_6270_27442" x1="146.56" y1="290.201" x2="171.504" y2="306.231" gradientUnits="userSpaceOnUse">
<stop stop-color="#78BC6D"/>
<stop offset="1" stop-color="#0CA3AC"/>
</linearGradient>
<linearGradient id="paint3_linear_6270_27442" x1="425.205" y1="278.281" x2="464.722" y2="288.911" gradientUnits="userSpaceOnUse">
<stop stop-color="#78BC6D"/>
<stop offset="1" stop-color="#0CA3AC"/>
</linearGradient>
<linearGradient id="paint4_linear_6270_27442" x1="-29.9532" y1="281.166" x2="9.5359" y2="297.772" gradientUnits="userSpaceOnUse">
<stop stop-color="#78BC6D"/>
<stop offset="1" stop-color="#0CA3AC"/>
</linearGradient>
<linearGradient id="paint5_linear_6270_27442" x1="92.1212" y1="284.253" x2="118.476" y2="291.362" gradientUnits="userSpaceOnUse">
<stop stop-color="#78BC6D"/>
<stop offset="1" stop-color="#0CA3AC"/>
</linearGradient>
<clipPath id="clip0_6270_27442">
<rect width="560" height="300" fill="white" transform="translate(-31)"/>
</clipPath>
</defs>
</svg>
