<svg width="68" height="68" viewBox="0 0 68 68" fill="none" xmlns="http://www.w3.org/2000/svg">
<path d="M15.1284 26.4441C19.0394 26.4441 22.2099 23.0614 22.2099 18.8886C22.2099 14.7157 19.0394 11.333 15.1284 11.333C11.2174 11.333 8.04688 14.7157 8.04688 18.8886C8.04688 23.0614 11.2174 26.4441 15.1284 26.4441Z" fill="url(#paint0_linear_6784_5826)"/>
<path d="M22.8878 31.6421C20.5119 33.2239 18.5524 35.4248 17.1938 38.0375C15.8352 40.6503 15.1221 43.589 15.1217 46.5769H10.4007C9.14976 46.5729 7.95112 46.041 7.06657 45.0972C6.18201 44.1534 5.68342 42.8746 5.67969 41.5399V36.5028C5.68529 34.5008 6.43318 32.5825 7.76001 31.1668C9.08684 29.7512 10.8848 28.9532 12.7612 28.9473H17.4822C18.5127 28.9497 19.5304 29.1922 20.464 29.6576C21.3976 30.1231 22.2248 30.8003 22.8878 31.6421Z" fill="url(#paint1_linear_6784_5826)"/>
<path d="M52.8784 26.4441C56.7894 26.4441 59.9599 23.0614 59.9599 18.8886C59.9599 14.7157 56.7894 11.333 52.8784 11.333C48.9674 11.333 45.7969 14.7157 45.7969 18.8886C45.7969 23.0614 48.9674 26.4441 52.8784 26.4441Z" fill="url(#paint2_linear_6784_5826)"/>
<path d="M62.3331 36.5028V41.5399C62.3294 42.8746 61.8308 44.1534 60.9462 45.0972C60.0617 46.041 58.863 46.5729 57.6121 46.5769H52.8911C52.8907 43.589 52.1776 40.6503 50.819 38.0375C49.4603 35.4248 47.5009 33.2239 45.125 31.6421C45.788 30.8003 46.6152 30.1231 47.5488 29.6576C48.4824 29.1922 49.5 28.9497 50.5306 28.9473H55.2516C57.128 28.9532 58.9259 29.7512 60.2528 31.1668C61.5796 32.5825 62.3275 34.5008 62.3331 36.5028Z" fill="url(#paint3_linear_6784_5826)"/>
<path d="M34.0045 31.4812C39.2192 31.4812 43.4466 26.9709 43.4466 21.4071C43.4466 15.8433 39.2192 11.333 34.0045 11.333C28.7898 11.333 24.5625 15.8433 24.5625 21.4071C24.5625 26.9709 28.7898 31.4812 34.0045 31.4812Z" fill="url(#paint4_linear_6784_5826)"/>
<path d="M48.1698 46.5926V49.1111C48.1642 51.1131 47.4163 53.0315 46.0895 54.4471C44.7627 55.8628 42.9647 56.6607 41.0883 56.6667H26.9253C25.0489 56.6607 23.2509 55.8628 21.9241 54.4471C20.5972 53.0315 19.8494 51.1131 19.8438 49.1111V46.5926C19.8438 43.2528 21.0872 40.0499 23.3006 37.6883C25.514 35.3267 28.5161 34 31.6463 34H36.3673C39.4975 34 42.4995 35.3267 44.7129 37.6883C46.9264 40.0499 48.1698 43.2528 48.1698 46.5926Z" fill="url(#paint5_linear_6784_5826)"/>
<defs>
<linearGradient id="paint0_linear_6784_5826" x1="8.38232" y1="12.333" x2="23.0619" y2="14.0996" gradientUnits="userSpaceOnUse">
<stop stop-color="#78BC6D"/>
<stop offset="1" stop-color="#0CA3AC"/>
</linearGradient>
<linearGradient id="paint1_linear_6784_5826" x1="6.08725" y1="30.1139" x2="23.9014" y2="32.3465" gradientUnits="userSpaceOnUse">
<stop stop-color="#78BC6D"/>
<stop offset="1" stop-color="#0CA3AC"/>
</linearGradient>
<linearGradient id="paint2_linear_6784_5826" x1="46.1323" y1="12.333" x2="60.8119" y2="14.0996" gradientUnits="userSpaceOnUse">
<stop stop-color="#78BC6D"/>
<stop offset="1" stop-color="#0CA3AC"/>
</linearGradient>
<linearGradient id="paint3_linear_6784_5826" x1="45.5326" y1="30.1139" x2="63.3467" y2="32.3465" gradientUnits="userSpaceOnUse">
<stop stop-color="#78BC6D"/>
<stop offset="1" stop-color="#0CA3AC"/>
</linearGradient>
<linearGradient id="paint4_linear_6784_5826" x1="25.0098" y1="12.6663" x2="44.5825" y2="15.0218" gradientUnits="userSpaceOnUse">
<stop stop-color="#78BC6D"/>
<stop offset="1" stop-color="#0CA3AC"/>
</linearGradient>
<linearGradient id="paint5_linear_6784_5826" x1="20.5146" y1="35.5" x2="49.5513" y2="40.1591" gradientUnits="userSpaceOnUse">
<stop stop-color="#78BC6D"/>
<stop offset="1" stop-color="#0CA3AC"/>
</linearGradient>
</defs>
</svg>
