<svg width="28" height="28" viewBox="0 0 28 28" fill="none" xmlns="http://www.w3.org/2000/svg">
<path d="M27.6737 8.37298C27.6511 7.24109 27.4367 6.12122 27.0397 5.06098C26.6979 4.15104 26.1618 3.32656 25.4688 2.64498C24.7866 1.95054 23.961 1.41338 23.0497 1.07098C21.9895 0.673967 20.8696 0.459596 19.7377 0.43698C18.2827 0.37098 17.8177 0.35498 14.1128 0.35498C10.4078 0.35498 9.94175 0.37098 8.48675 0.43698C7.35519 0.459766 6.23568 0.674134 5.17575 1.07098C4.26518 1.41358 3.44032 1.95074 2.75875 2.64498C2.06465 3.32628 1.5275 4.15078 1.18475 5.06098C0.787755 6.12122 0.573384 7.24108 0.55075 8.37298C0.48475 9.82798 0.46875 10.293 0.46875 13.998C0.46875 17.703 0.48475 18.168 0.55075 19.623C0.573346 20.7549 0.787718 21.8748 1.18475 22.935C1.52693 23.8466 2.06412 24.6726 2.75875 25.355C3.44028 26.0493 4.26515 26.5864 5.17575 26.929C6.23596 27.3261 7.35584 27.5404 8.48775 27.563C9.94275 27.629 10.4078 27.645 14.1128 27.645C17.8177 27.645 18.2827 27.629 19.7377 27.563C20.8697 27.5404 21.9895 27.326 23.0497 26.929C23.9561 26.5785 24.7791 26.0426 25.4662 25.3555C26.1533 24.6684 26.6893 23.8453 27.0397 22.939C27.4368 21.8788 27.6512 20.7589 27.6737 19.627C27.7397 18.172 27.7558 17.707 27.7558 14.002C27.7558 10.297 27.7397 9.82798 27.6737 8.37298ZM25.2178 19.512C25.2074 20.377 25.0484 21.2338 24.7477 22.045C24.5209 22.6335 24.1733 23.168 23.7274 23.6141C23.2815 24.0601 22.7472 24.4079 22.1588 24.635C21.3476 24.9356 20.4908 25.0946 19.6257 25.105C18.1877 25.171 17.7558 25.185 14.1128 25.185C10.4698 25.185 10.0377 25.171 8.59975 25.105C7.7354 25.0943 6.8793 24.9354 6.06875 24.635C5.47603 24.4162 4.93989 24.0673 4.49975 23.614C4.04535 23.1742 3.69542 22.638 3.47575 22.045C3.1751 21.2338 3.01612 20.377 3.00575 19.512C2.93975 18.073 2.92575 17.642 2.92575 13.999C2.92575 10.356 2.93975 9.92398 3.00575 8.48598C3.01645 7.62164 3.17543 6.76554 3.47575 5.95498C3.69424 5.36122 4.04314 4.82403 4.49675 4.38298C4.93777 3.92957 5.47499 3.58099 6.06875 3.36298C6.87991 3.0623 7.73672 2.90331 8.60175 2.89298C10.0408 2.82698 10.4718 2.81298 14.1147 2.81298C17.7577 2.81298 18.1898 2.82698 19.6278 2.89298C20.4928 2.90337 21.3496 3.06235 22.1607 3.36298C22.7534 3.58187 23.2896 3.93074 23.7297 4.38398C24.1823 4.82492 24.5302 5.36177 24.7477 5.95498C25.0485 6.76611 25.2075 7.62294 25.2178 8.48798C25.2838 9.92698 25.2978 10.358 25.2978 14.001C25.2978 17.644 25.2838 18.073 25.2178 19.512Z" fill="#AAAAAA"/>
<path d="M14.1154 6.99561C12.7297 6.99561 11.3752 7.4065 10.223 8.17633C9.07092 8.94616 8.17295 10.0403 7.64268 11.3205C7.11241 12.6007 6.97367 14.0094 7.244 15.3684C7.51432 16.7274 8.18158 17.9758 9.16139 18.9556C10.1412 19.9354 11.3895 20.6027 12.7486 20.873C14.1076 21.1433 15.5163 21.0046 16.7964 20.4743C18.0766 19.944 19.1708 19.0461 19.9406 17.8939C20.7105 16.7418 21.1214 15.3873 21.1214 14.0016C21.1214 12.1435 20.3832 10.3615 19.0694 9.04762C17.7555 7.73374 15.9735 6.99561 14.1154 6.99561ZM14.1154 18.5496C13.2159 18.5496 12.3366 18.2829 11.5886 17.7831C10.8407 17.2834 10.2578 16.5731 9.91357 15.7421C9.56934 14.911 9.47928 13.9966 9.65476 13.1143C9.83025 12.2321 10.2634 11.4217 10.8994 10.7857C11.5355 10.1496 12.3459 9.71648 13.2281 9.54099C14.1103 9.36551 15.0248 9.45557 15.8558 9.7998C16.6869 10.144 17.3972 10.727 17.8969 11.4749C18.3966 12.2228 18.6634 13.1021 18.6634 14.0016C18.6634 15.2078 18.1842 16.3646 17.3313 17.2175C16.4784 18.0704 15.3216 18.5496 14.1154 18.5496Z" fill="#AAAAAA"/>
<path d="M23.0318 6.71854C23.0318 7.04231 22.9358 7.35881 22.7559 7.62801C22.576 7.89722 22.3204 8.10703 22.0213 8.23093C21.7221 8.35483 21.393 8.38725 21.0755 8.32409C20.7579 8.26093 20.4662 8.10501 20.2373 7.87608C20.0083 7.64714 19.8524 7.35545 19.7893 7.0379C19.7261 6.72036 19.7585 6.39121 19.8824 6.09209C20.0063 5.79296 20.2161 5.53731 20.4853 5.35743C20.7546 5.17755 21.071 5.08154 21.3948 5.08154C21.829 5.08154 22.2453 5.25402 22.5523 5.56101C22.8593 5.86801 23.0318 6.28438 23.0318 6.71854Z" fill="#AAAAAA"/>
</svg>
