<svg width="27" height="27" viewBox="0 0 27 27" fill="none" xmlns="http://www.w3.org/2000/svg">
<path d="M26.8776 26.3514H26.8836V17.1824C26.8836 12.6974 25.9176 9.24143 20.6746 9.24143C19.6904 9.20544 18.715 9.43708 17.8521 9.91167C16.9892 10.3863 16.2712 11.086 15.7746 11.9364H15.7016V9.66043H10.7266V26.3504H15.9036V18.0864C15.9036 15.9104 16.3166 13.8064 19.0106 13.8064C21.6656 13.8064 21.7056 16.2894 21.7056 18.2264V26.3524L26.8776 26.3514Z" fill="#AAAAAA"/>
<path d="M1.29688 9.66748H6.47587V26.3585H1.29688V9.66748Z" fill="#AAAAAA"/>
<path d="M3.88352 0.355023C3.28566 0.351859 2.70035 0.526457 2.20193 0.856639C1.70351 1.18682 1.31446 1.65769 1.08421 2.20944C0.853952 2.76119 0.792877 3.36893 0.90874 3.95546C1.0246 4.54199 1.31217 5.08086 1.73493 5.50361C2.15769 5.92637 2.69655 6.21394 3.28308 6.3298C3.86962 6.44567 4.47735 6.38459 5.0291 6.15434C5.58086 5.92408 6.05172 5.53504 6.38191 5.03662C6.71209 4.53819 6.88668 3.95288 6.88352 3.35502C6.88352 2.55937 6.56745 1.79631 6.00484 1.2337C5.44223 0.671093 4.67917 0.355023 3.88352 0.355023Z" fill="#AAAAAA"/>
</svg>
