<svg width="102" height="33" viewBox="0 0 102 33" fill="none" xmlns="http://www.w3.org/2000/svg">
<path d="M0 7.32401C0 3.00627 3.02183 0.847412 9.06548 0.847412C15.1242 0.847412 18.1536 3.00627 18.1536 7.32401V11.4734H11.8349V7.32315C11.8349 5.93972 10.9193 5.24288 9.08814 5.23263H9.04375C7.22763 5.23263 6.31954 5.92947 6.31954 7.32315V10.1211C6.31954 11.4942 8.29231 13.1764 12.2379 15.1675C16.1835 17.1478 18.1562 19.5217 18.1562 22.2891V26.1874C18.1562 30.5159 15.1344 32.6802 9.09075 32.6802C3.03199 32.6693 0.00261623 30.5051 0.00261623 26.1874V22.0371H6.32128V26.1874C6.32128 27.5816 7.24414 28.2785 9.08988 28.2779C10.9211 28.2779 11.8366 27.581 11.8366 26.1874V22.665C11.8366 21.1773 9.86386 19.4377 5.91832 17.446C1.97278 15.4651 0 13.0548 0 10.215V7.32401Z" fill="#1A987C"/>
<path d="M82.238 0.824951V17.5004C82.238 18.8442 81.3212 20.0633 79.8399 20.9416C78.9404 21.4599 77.9627 21.8348 76.9433 22.0522V32.7141H71.1618V22.0522C68.0687 21.3568 65.8665 19.5807 65.8665 17.497V0.824951H71.7639V17.4731C71.7639 18.2248 72.7891 18.8348 74.0554 18.8348C75.3223 18.8348 76.3481 18.2248 76.3481 17.4731V0.824951H82.238Z" fill="#1A987C"/>
<path d="M93.6888 0.824951C89.2854 0.824951 85.7159 2.77707 85.7159 5.18711V32.7201H91.4552V22.0539C92.1941 22.1697 92.9411 22.2269 93.6893 22.2248C95.647 22.2641 97.5839 21.8251 99.3254 20.9476C100.768 20.159 101.66 19.0681 101.66 17.8626V5.18711C101.66 2.77707 98.0904 0.824951 93.6888 0.824951ZM95.9212 14.4454C95.9212 14.4522 95.9212 14.4582 95.9212 14.465C95.9212 14.4719 95.9212 14.4778 95.9212 14.4847V18.0352C95.9212 18.7093 94.9203 19.2552 93.6888 19.2552C93.1399 19.2669 92.5975 19.1441 92.1095 18.8981C91.9322 18.8248 91.7774 18.7061 91.6621 18.5544C91.5468 18.4027 91.4749 18.2234 91.4546 18.0352V5.08971C91.4546 4.41566 92.4555 3.86974 93.6888 3.86974C94.2364 3.8583 94.7783 3.98103 95.2657 4.22685C95.4436 4.30001 95.5978 4.41866 95.7131 4.57042C95.8284 4.72218 95.9003 4.90151 95.9212 5.08971V14.4454Z" fill="#1A987C"/>
<path d="M40.4392 0.824951V5.15549H33.7131V32.7184H27.9315V5.15549H21.2054V0.824951H40.4392Z" fill="#1A987C"/>
<path d="M62.3632 7.02122C62.1464 3.58342 58.1203 0.842773 53.1837 0.842773C48.2471 0.842773 44.2191 3.58342 44.0041 7.02122H43.9937V11.538L41.4375 10.4787C41.4416 12.0734 41.4459 13.6681 41.4505 15.2628L43.9937 16.2966V26.1289C43.9937 29.7025 48.1078 32.5987 53.1837 32.5987C58.2588 32.5987 62.3736 29.7025 62.3736 26.1289V21.9248H55.759V26.3365C55.759 27.3369 54.6067 28.1477 53.1863 28.1477C51.765 28.1477 50.6136 27.3369 50.6136 26.3365V21.1115C50.6136 21.1012 50.6136 21.0918 50.6136 21.0825C50.6136 21.0731 50.6136 21.0679 50.6136 21.0611C50.6136 21.0543 50.6136 21.0474 50.6136 21.0397C50.6136 21.0321 50.6136 21.021 50.6136 21.0107V19.2234C51.4599 19.3954 52.322 19.4812 53.1863 19.4797C57.3961 19.4797 60.9421 17.4866 62.0299 14.7682H62.0392V14.7417C62.2594 14.1901 62.373 13.6032 62.3747 13.0109V7.02207L62.3632 7.02122ZM53.1837 15.0706C52.8235 15.0715 52.4653 15.0164 52.1227 14.9075L51.57 14.6785L50.6126 14.2376V7.99172C50.6126 7.98233 50.6126 7.97293 50.6126 7.96268C50.6126 7.95243 50.6126 7.94389 50.6126 7.93364V7.16984C50.6126 6.16944 51.7649 5.35784 53.1853 5.35784C54.6066 5.35784 55.7581 6.16859 55.7581 7.16984V7.93278C55.7581 7.94303 55.7581 7.95158 55.7581 7.96183C55.7581 7.97207 55.7581 7.98147 55.7581 7.99087V13.2586C55.7572 14.2607 54.6058 15.0706 53.1845 15.0706H53.1837Z" fill="url(#paint0_linear_568_1808)"/>
<defs>
<linearGradient id="paint0_linear_568_1808" x1="44.3268" y1="11.7668" x2="63.8184" y2="16.5045" gradientUnits="userSpaceOnUse">
<stop stop-color="#89C739"/>
<stop offset="0.414" stop-color="#6DBE4D"/>
<stop offset="1" stop-color="#1A987C"/>
</linearGradient>
</defs>
</svg>
