<svg width="459" height="395" viewBox="0 0 459 395" fill="none" xmlns="http://www.w3.org/2000/svg">
<g clip-path="url(#clip0_6885_3108)">
<g opacity="0.9" clip-path="url(#clip1_6885_3108)">
<path d="M349.418 354.713V351.629V346.572V341.598V336.541V329.118V324.062V316.639V311.582V304.161V299.103V291.682V286.625V279.202V274.144V266.723V261.666V254.244V249.187V241.766V236.709V229.285V224.228V216.807V211.75V204.328V199.271V191.848V186.791V179.369V174.312V163.865H358.582L366.202 161.417L373.825 158.972H400.583V156.865V148.253L407.936 142.829V138.216V136.284V134.35H408.911V133.656V130.276L409.713 129.683L414.254 126.334L419.598 130.276V133.656V134.35H420.45V136.284V138.216V142.829L427.804 148.253V156.865V158.972H454.562L469.806 163.865H478.97V174.312V179.369V186.791V191.848V199.271V204.328V211.75V216.807V224.228V229.285V236.709V241.766V249.187V254.244V261.666V266.723V274.144V279.202V286.625V291.682V299.103V304.161V311.582V316.639V324.062V329.118V336.541V341.598V346.572V351.629V354.713H487.148V397.142H420.45H418.327H409.616H407.491H340.793V354.713H349.418Z" fill="url(#paint0_linear_6885_3108)"/>
<path d="M349.418 354.713V351.629V346.572V341.598V336.541V329.118V324.062V316.639V311.582V304.161V299.103V291.682V286.625V279.202V274.144V266.723V261.666V254.244V249.187V241.766V236.709V229.285V224.228V216.807V211.75V204.328V199.271V191.848V186.791V179.369V174.312V163.865H358.582L366.202 161.417L373.825 158.972H400.583V156.865V148.253L407.936 142.829V138.216V136.284V134.35H408.911V133.656V130.276L409.713 129.683L414.254 126.334L419.598 130.276V133.656V134.35H420.45V136.284V138.216V142.829L427.804 148.253V156.865V158.972H454.562L469.806 163.865H478.97V174.312V179.369V186.791V191.848V199.271V204.328V211.75V216.807V224.228V229.285V236.709V241.766V249.187V254.244V261.666V266.723V274.144V279.202V286.625V291.682V299.103V304.161V311.582V316.639V324.062V329.118V336.541V341.598V346.572V351.629V354.713H487.148V397.142H420.45H418.327H409.616H407.491H340.793V354.713H349.418Z" fill="black" fill-opacity="0.2"/>
<path d="M326.712 122.349V119.341H340.611V122.349H342.523V397.216H285.415V122.349H326.712Z" fill="#D9EED4"/>
<path d="M315.923 238.536V236.223H325.78V234.838H335.077V238.536H374.188V400.626H311.801V238.536H315.923Z" fill="#A2D4D1"/>
<path d="M112.674 196.886V194.81H167.882V196.886H179.523V400.54H108.107V196.886H112.674Z" fill="#D9EED4"/>
<path d="M144.385 237.042V234.729H154.241V233.342H163.538V237.042H202.648V399.132H140.262V237.042H144.385Z" fill="url(#paint1_linear_6885_3108)"/>
<path d="M189.26 261.675V255.419H225.841V261.675H233.555V396.854H186.235V261.675H189.26Z" fill="#A2D4D1"/>
<path d="M105.033 304.952V300.695H127.273V400.385H115.552V400.51H89.9141V304.952H105.033Z" fill="#53B383"/>
<path d="M245.566 124.247L246.235 123.422L250.242 121.518L267.374 113.383V100.338H267.853L268.347 95.9347L269.775 83.2124L270.222 79.2312H264.501V63.8238H271.318V48.4144H271.752V44.6195H269.483V39.3027H271.752V33.4746H272.001V21.3369H272.443V33.4746H272.692V39.3027H274.953V44.6195H272.684V48.4144H273.118V63.8238H279.933V79.2312H274.048V83.2124H274.03V134.977H277.789V135.679H296.507V134.688H300.266V135.679H306.789V134.688H310.555V137.589H312.084V141.234H310.559V144.206H310.063V153.52V154.156V171.349V171.985V180.124H311.906V183.492L325.853 202.623L327.719 205.184V203.194H329.492V397.128H326.798V397.578H326.518V397.128H325.128V397.578H324.85V397.128H323.371V397.183H323.093V397.128H321.703V397.578H321.417V397.128H319.399V397.578H319.121V397.128H317.731V397.183H317.445V397.128H315.934V397.578H315.656V397.128H314.267V397.578H313.988V397.128H302.643V397.578H302.077V397.128H299.239V397.578H298.673V397.128H292.256V397.578H291.688V397.128H287.576V397.578H287.008V397.128H280.521V397.578H279.953V397.128H277.118V397.578H276.55V397.128H236.953L236.7 397.455L235.743 398.693V398.051L236.323 397.3L236.46 397.124H235.743V136.372L245.566 124.247ZM272.052 83.2124H271.744L269.812 100.453H272.052V83.2124ZM269.358 112.44L270.436 111.927L272.052 111.16V102.399H269.358V112.44Z" fill="#1A987C"/>
<path d="M66.1469 398.201C67.1794 376.641 84.9645 359.472 106.836 359.472C128.708 359.472 146.487 376.651 147.523 398.201H66.1469Z" fill="#1A987C"/>
<path d="M135.235 279.998V273.732H141.589V274.524H145.62V271.972H144.686V270.783H144.996V266.185H144.696V264.996H145.63V264.376H145.975C145.977 264.193 145.992 264.01 146.019 263.829C146.019 263.796 146.029 263.762 146.035 263.726C146.095 263.375 146.201 263.034 146.352 262.712L146.394 262.624C146.55 262.31 146.747 262.018 146.98 261.754L147.039 261.689C147.279 261.431 147.551 261.205 147.849 261.017L147.919 260.974C148.07 260.883 148.226 260.801 148.388 260.73V258.689H148.046V258.251H148.388V258.023H148.56C148.562 257.944 148.57 257.865 148.584 257.787C148.584 257.751 148.602 257.716 148.612 257.68C148.622 257.644 148.636 257.591 148.652 257.547C148.668 257.504 148.679 257.476 148.697 257.44C148.716 257.4 148.737 257.361 148.761 257.323C148.778 257.291 148.797 257.259 148.818 257.228C148.859 257.17 148.904 257.115 148.953 257.064C148.985 257.032 149.019 257.002 149.053 256.975C149.078 256.951 149.104 256.929 149.132 256.909C149.169 256.88 149.207 256.854 149.247 256.83L149.333 256.784C149.375 256.761 149.419 256.74 149.464 256.721V256.402H149.762V255.77H149.859V254.823H149.916V252.797H149.349V252.308H149.916V251.749H150.028V252.308H150.425L150.147 252.554L150.425 252.797H150.028V254.827H150.083V255.77H150.19V256.396H150.49V256.715C150.536 256.733 150.578 256.757 150.621 256.778L150.705 256.824C150.746 256.847 150.785 256.874 150.822 256.903C150.85 256.923 150.876 256.945 150.901 256.969C150.935 256.996 150.969 257.026 151.001 257.058C151.049 257.11 151.094 257.165 151.136 257.222C151.158 257.252 151.173 257.286 151.193 257.317C151.213 257.349 151.237 257.395 151.257 257.434C151.277 257.474 151.287 257.506 151.3 257.541C151.314 257.577 151.33 257.631 151.342 257.674C151.353 257.709 151.361 257.745 151.368 257.781C151.383 257.859 151.391 257.938 151.392 258.017H151.565V258.245H151.906V258.683H151.565V260.724C151.726 260.795 151.883 260.876 152.033 260.968L152.105 261.011C152.403 261.199 152.674 261.425 152.913 261.683L152.974 261.748C153.206 262.012 153.403 262.304 153.558 262.618C153.574 262.646 153.588 262.676 153.602 262.706C153.753 263.028 153.86 263.369 153.92 263.72C153.92 263.756 153.929 263.79 153.933 263.823C153.961 264.004 153.976 264.187 153.979 264.37H154.325V264.991H155.258V266.18H154.946V270.777H155.258V271.966H154.325V274.518H158.355V273.726H164.709V279.992H166.836V282.37L164.072 286.928H162.682V397.306H137.254V286.928H135.864L133.1 282.37V279.992L135.235 279.998ZM141.589 277.62H144.12V276.292H141.593L141.589 277.62ZM144.496 277.62H145.62V276.292H144.498L144.496 277.62ZM154.325 277.62H155.448V276.292H154.325V277.62ZM155.828 277.62H158.355V276.292H155.828V277.62ZM141.589 275.913H144.12V274.913H141.593L141.589 275.913ZM144.498 274.903V275.904H145.622V274.903H144.498ZM154.327 275.904H155.45V274.903H154.327V275.904ZM155.83 274.903V275.904H158.357V274.903H155.83Z" fill="#1A987C"/>
<path d="M372.16 397.853C372.478 391.07 375.401 384.669 380.323 379.981C385.245 375.293 391.788 372.677 398.592 372.677C405.396 372.677 411.939 375.293 416.861 379.981C421.783 384.669 424.706 391.07 425.023 397.853H372.16Z" fill="#A2D4D1"/>
<path d="M170.071 352.045L176.441 353.785L174.634 348.371H174.257V346.39V344.386L178.178 343.316L180.732 342.617V338.869H180.013V337.143H183.363L185.005 334.902L190.586 327.286V323.002H190.022V321.276H194.986L197.232 318.21L197.711 317.558H197.842V314.606H199.033V313.494H199.827V311.055H200.496V307.212L200.459 307.202C200.32 307.182 200.182 307.15 200.048 307.109C199.916 307.066 199.787 307.013 199.662 306.953L199.609 306.927C199.491 306.869 199.376 306.803 199.267 306.729L199.216 306.689C198.997 306.526 198.803 306.333 198.64 306.114L198.602 306.065C198.525 305.956 198.455 305.842 198.394 305.724C198.394 305.706 198.378 305.688 198.368 305.67C198.306 305.546 198.254 305.418 198.211 305.286C198.17 305.152 198.138 305.015 198.118 304.876C198.118 304.862 198.118 304.85 198.108 304.836H196.668V304.044H198.114C198.114 304.032 198.114 304.02 198.124 304.006C198.144 303.867 198.176 303.73 198.217 303.596C198.26 303.464 198.312 303.335 198.374 303.211C198.374 303.193 198.392 303.176 198.4 303.158C198.461 303.039 198.531 302.925 198.608 302.817L198.646 302.765C198.81 302.547 199.005 302.354 199.224 302.191L199.273 302.153C199.382 302.076 199.496 302.006 199.615 301.945L199.668 301.919C199.793 301.858 199.922 301.805 200.054 301.763C200.188 301.721 200.325 301.69 200.465 301.669H200.502V299.614H201.297V301.638H201.336C201.475 301.658 201.613 301.69 201.747 301.731C201.879 301.774 202.008 301.826 202.133 301.887L202.186 301.913C202.305 301.975 202.419 302.044 202.528 302.121L202.577 302.159C202.797 302.322 202.991 302.517 203.155 302.736L203.193 302.785C203.267 302.894 203.333 303.008 203.391 303.126C203.391 303.144 203.407 303.162 203.417 303.18C203.478 303.304 203.53 303.432 203.574 303.564C203.615 303.698 203.647 303.835 203.667 303.974C203.667 303.988 203.667 304 203.677 304.012H205.117V304.804H203.677C203.677 304.818 203.677 304.83 203.667 304.844C203.647 304.983 203.615 305.12 203.574 305.254C203.53 305.386 203.478 305.514 203.417 305.639C203.407 305.657 203.399 305.674 203.391 305.692C203.333 305.81 203.267 305.924 203.193 306.033C203.179 306.049 203.167 306.067 203.155 306.083C202.991 306.302 202.797 306.496 202.577 306.659L202.528 306.697C202.419 306.771 202.304 306.837 202.186 306.895L202.133 306.921C202.008 306.982 201.879 307.034 201.747 307.077C201.613 307.119 201.475 307.15 201.336 307.171L201.297 307.18V311.055H201.954V313.498H202.748V314.61H203.939V317.562H204.071L206.795 321.28H211.892V323.006H211.199V327.29L213.472 330.392L217.726 336.194V320.4H216.868V318.444H217.726V313.49H216.868V311.536H217.831V308.28L219.757 305.978L221.415 308.28V311.538H222.287V298.158H221.461V297.668V296.892H220.724V293.154H221.345V291.026H220.722V289.934H224.443V286.052H224.088V284.875H223.75V282.784H224.634L225.156 280.822L227.858 270.67H227.66V269.836H228.148V269.208C228.116 269.184 228.085 269.158 228.057 269.131C228.047 269.123 228.038 269.115 228.029 269.107C227.975 269.049 227.932 268.982 227.902 268.909L227.88 268.857C227.817 268.704 227.817 268.531 227.88 268.378C227.88 268.362 227.894 268.344 227.902 268.328C227.932 268.255 227.975 268.188 228.029 268.13C228.039 268.122 228.048 268.115 228.057 268.106C228.086 268.079 228.116 268.054 228.148 268.031V267.611H228.315V266.346H228.408V264.218H227.602V263.988H228.408V263.049H228.639V263.988H229.445V264.218H228.639V266.366H228.732V267.63H228.891V268.053C228.923 268.075 228.953 268.101 228.982 268.128C228.991 268.136 229 268.144 229.01 268.152C229.063 268.21 229.107 268.277 229.139 268.35L229.159 268.399C229.222 268.553 229.222 268.725 229.159 268.879C229.159 268.897 229.145 268.913 229.139 268.93C229.108 269.003 229.064 269.07 229.01 269.129C229.001 269.137 228.992 269.145 228.982 269.152C228.954 269.181 228.923 269.207 228.891 269.23V269.836H229.379V270.668H229.181L232.403 282.782H233.287V284.873H232.949V286.05H232.594V289.932H236.313V291.024H235.69V293.152H236.313V296.89H235.578V297.667V298.156H234.75V311.534H235.578V308.28L237.492 305.98L239.16 308.28V311.538H240.01V313.492H239.152V318.446H240.01V320.402H239.152V354.09L248.578 356.667V357.933V359.197H243.237V361.389V367.465H243.67V368.346H243.237V376.089L243.872 377.048H243.928L243.952 377.167L247.693 382.799V396.944H240.108V396.833H221.419V396.944H180.378V396.833H161.695V396.944H154.11V382.799L157.851 377.167V377.147L157.871 377.048H157.927L158.562 376.089V368.346H158.131V367.465H158.562V361.389V359.173H153.239V357.909V356.643L170.071 352.045ZM201.404 306.467C201.493 306.446 201.581 306.419 201.666 306.386L201.795 306.328C201.867 306.295 201.938 306.257 202.006 306.215L202.119 306.144C202.204 306.084 202.284 306.018 202.359 305.946C202.381 305.926 202.403 305.904 202.423 305.882C202.495 305.808 202.561 305.727 202.621 305.643C202.647 305.605 202.669 305.567 202.693 305.53C202.735 305.462 202.772 305.392 202.806 305.32C202.826 305.278 202.845 305.234 202.863 305.191C202.897 305.106 202.924 305.018 202.945 304.929C202.945 304.898 202.965 304.866 202.97 304.832H201.291V306.497C201.34 306.497 201.372 306.477 201.404 306.469V306.467ZM202.947 303.921C202.926 303.831 202.898 303.743 202.865 303.657C202.847 303.613 202.828 303.572 202.808 303.53C202.774 303.458 202.736 303.388 202.694 303.32C202.671 303.283 202.649 303.243 202.623 303.207C202.563 303.122 202.496 303.041 202.424 302.965L202.361 302.902C202.285 302.831 202.205 302.764 202.121 302.704L202.007 302.633C201.939 302.591 201.869 302.553 201.797 302.52L201.668 302.462C201.583 302.429 201.495 302.402 201.406 302.381C201.374 302.381 201.342 302.361 201.309 302.355V304.026H202.984C202.984 304.026 202.955 303.952 202.947 303.921ZM200.491 302.355C200.457 302.355 200.425 302.373 200.393 302.381C200.303 302.402 200.215 302.429 200.129 302.462L200.002 302.52C199.93 302.553 199.859 302.591 199.792 302.633C199.754 302.656 199.714 302.678 199.678 302.704C199.593 302.764 199.512 302.83 199.436 302.902C199.414 302.922 199.394 302.942 199.375 302.963C199.303 303.039 199.236 303.12 199.176 303.205C199.15 303.241 199.128 303.281 199.105 303.318C199.063 303.386 199.025 303.456 198.991 303.528C198.971 303.57 198.952 303.611 198.934 303.655C198.901 303.741 198.873 303.829 198.852 303.919C198.852 303.95 198.832 303.982 198.826 304.016H200.496V302.345L200.491 302.355ZM198.85 304.931C198.871 305.02 198.898 305.108 198.932 305.193C198.95 305.236 198.97 305.28 198.989 305.322C199.023 305.394 199.06 305.464 199.103 305.532C199.126 305.569 199.148 305.607 199.174 305.645C199.234 305.73 199.3 305.811 199.373 305.886L199.434 305.948C199.51 306.02 199.591 306.086 199.676 306.146C199.712 306.172 199.752 306.194 199.79 306.217C199.857 306.259 199.928 306.297 200 306.33L200.127 306.388C200.213 306.421 200.301 306.448 200.391 306.469C200.423 306.469 200.455 306.489 200.488 306.495V304.822H198.815C198.83 304.866 198.842 304.898 198.85 304.929V304.931ZM179.566 354.641L180.732 354.96V353.177L176.435 348.889L178.172 354.086L178.24 354.285L179.566 354.641ZM180.15 350.593L180.732 351.173V348.373H177.928L180.15 350.593ZM217.678 338.869H217.743H217.678ZM221.995 293.156H223.53V292.364V291.022H221.977L221.995 293.156ZM235.068 291.028H233.515V292.37V293.162H235.068V291.028Z" fill="#19817B"/>
<path d="M235.433 389.977C237.305 389.975 239.105 390.701 240.449 392.002C241.792 390.703 243.589 389.977 245.46 389.977C247.303 389.97 249.077 390.676 250.408 391.947C251.412 390.999 252.667 390.359 254.024 390.102C255.381 389.846 256.784 389.984 258.065 390.5C259.346 391.016 260.452 391.888 261.25 393.013C262.049 394.138 262.507 395.468 262.57 396.846H228.219C228.307 394.995 229.105 393.249 230.448 391.97C231.791 390.691 233.576 389.978 235.433 389.977Z" fill="#A2D4D1"/>
<path d="M64.3159 388.059C66.7472 388.055 69.0839 388.999 70.8288 390.688C72.5736 389.001 74.908 388.058 77.3376 388.059C79.7306 388.049 82.0341 388.966 83.763 390.617C85.0657 389.386 86.6951 388.555 88.4574 388.222C90.2198 387.889 92.0408 388.068 93.7042 388.738C95.3676 389.407 96.8032 390.54 97.8403 392C98.8775 393.461 99.4725 395.188 99.5547 396.976H54.9498C55.0636 394.573 56.1 392.306 57.844 390.646C59.588 388.986 61.9056 388.059 64.3159 388.059Z" fill="#A2D4D1"/>
<path d="M414.271 344.767H415.365V338.651H415.703V323.293H414.607V321.643H414.944C414.944 320.943 415.116 320.255 415.445 319.637C415.774 319.02 416.25 318.492 416.831 318.101C416.945 318.024 417.063 317.953 417.184 317.887C417.81 317.548 418.511 317.371 419.223 317.372H420.365V316.7H421.058C421.089 316.521 421.13 316.344 421.181 316.169C421.195 316.122 421.209 316.074 421.225 316.027C421.281 315.849 421.347 315.674 421.423 315.503C421.441 315.464 421.461 315.422 421.481 315.383C421.555 315.228 421.634 315.077 421.721 314.927C421.741 314.893 421.759 314.857 421.779 314.822C421.88 314.657 421.991 314.495 422.109 314.334L422.218 314.188C422.339 314.033 422.464 313.879 422.599 313.728L422.71 313.609C422.827 313.484 422.948 313.363 423.074 313.242C423.117 313.201 423.159 313.157 423.205 313.118C423.354 312.981 423.508 312.85 423.667 312.721L423.848 312.581C424.007 312.46 424.17 312.339 424.34 312.226L424.509 312.117C424.65 312.026 424.793 311.938 424.938 311.853L425.137 311.738C425.292 311.653 425.448 311.57 425.609 311.493C425.719 311.033 425.942 310.609 426.257 310.256C426.477 309.999 426.728 309.77 427.003 309.572L427.039 309.547C427.322 309.345 427.625 309.175 427.944 309.037L427.996 309.016C428.155 308.95 428.318 308.891 428.482 308.841C428.482 308.821 428.502 308.805 428.51 308.786C428.545 308.701 428.585 308.619 428.631 308.54C428.649 308.51 428.667 308.484 428.687 308.457C428.73 308.387 428.778 308.321 428.83 308.259C428.852 308.231 428.876 308.207 428.897 308.181C428.95 308.127 429.006 308.076 429.064 308.029C429.088 308.009 429.112 307.989 429.138 307.971C429.197 307.931 429.259 307.895 429.324 307.864C429.34 307.864 429.356 307.844 429.374 307.836V297.552H429.948V307.821L429.97 307.834C430.055 307.87 430.136 307.916 430.21 307.971C430.234 307.989 430.258 308.013 430.283 308.033C430.344 308.084 430.402 308.14 430.456 308.199C430.482 308.227 430.504 308.255 430.528 308.284C430.581 308.347 430.631 308.414 430.676 308.482C430.696 308.512 430.716 308.542 430.734 308.574C430.781 308.654 430.822 308.736 430.859 308.821C430.859 308.839 430.879 308.857 430.887 308.875C431.413 309.059 431.905 309.326 432.344 309.667L432.366 309.683C432.633 309.893 432.878 310.13 433.095 310.391L433.135 310.438C433.321 310.666 433.476 310.917 433.597 311.185L433.621 311.245C433.67 311.363 433.708 311.485 433.734 311.61C433.887 311.693 434.04 311.78 434.189 311.869C434.257 311.909 434.322 311.95 434.388 311.992C434.533 312.083 434.678 312.178 434.819 312.277C434.88 312.321 434.944 312.363 435.005 312.408C435.166 312.523 435.319 312.644 435.472 312.767C435.533 312.816 435.595 312.866 435.654 312.917C435.809 313.048 435.96 313.181 436.103 313.314L436.262 313.468C436.381 313.587 436.496 313.706 436.61 313.829C436.659 313.882 436.709 313.936 436.756 313.991C436.872 314.124 436.981 314.257 437.086 314.388C437.13 314.443 437.173 314.499 437.215 314.556C437.322 314.703 437.426 314.852 437.519 315C437.555 315.056 437.588 315.111 437.62 315.169C437.7 315.299 437.771 315.428 437.837 315.565C437.866 315.624 437.894 315.684 437.922 315.741C437.982 315.873 438.035 316.006 438.083 316.138C438.103 316.193 438.125 316.251 438.142 316.306C438.184 316.435 438.22 316.564 438.248 316.691H439.016V317.362H439.765C440.477 317.361 441.178 317.538 441.804 317.878C441.926 317.942 442.044 318.014 442.157 318.092C442.738 318.482 443.214 319.01 443.543 319.627C443.872 320.245 444.044 320.933 444.044 321.633H444.711V323.283H443.279V338.641H443.502V340.704H451.246L456.771 337.219L466.926 330.81H470.877L477.704 319.013H480.033L479.727 319.931H506.422V313.678H506.771V319.931H508.324V315.042H509.7V299.064H508.131V297.892H508.33V295.334H509.706V293.769H509.452V292.088H509.714V289.338H509.345V288.466H509.839V288.388C509.84 288.09 509.925 287.797 510.085 287.545C510.245 287.293 510.473 287.09 510.743 286.962C510.743 286.936 510.743 286.91 510.743 286.88V286.71C510.743 286.622 510.76 286.536 510.792 286.454C510.824 286.376 510.869 286.304 510.927 286.242C511.048 286.113 511.213 286.033 511.39 286.018V282.388H511.364V281.397H509.706V279.489H509.643V278.498H509.299V276.972H509.2V276.488H513.133V276.253C513.133 276.136 513.133 276.021 513.133 275.902C513.133 275.66 513.139 275.416 513.151 275.171C513.151 275.091 513.161 275.012 513.165 274.931C513.174 274.767 513.186 274.601 513.201 274.432C513.201 274.338 513.219 274.243 513.229 274.148C513.244 273.996 513.262 273.841 513.282 273.688L513.324 273.387C513.346 273.239 513.37 273.088 513.395 272.937L513.449 272.634C513.479 272.482 513.51 272.327 513.542 272.174C513.564 272.077 513.582 271.976 513.604 271.887C513.644 271.711 513.687 271.536 513.733 271.362C513.751 271.289 513.769 271.215 513.788 271.142C513.852 270.902 513.922 270.662 513.987 270.423C514.017 270.326 514.051 270.224 514.082 270.133C514.128 269.987 514.176 269.84 514.225 269.695C514.275 269.551 514.309 269.465 514.35 269.351C514.392 269.236 514.442 269.101 514.489 268.978C514.537 268.855 514.585 268.732 514.634 268.609C514.684 268.487 514.728 268.383 514.775 268.271C514.823 268.158 514.885 268.015 514.942 267.888C515 267.761 515.035 267.69 515.083 267.581C515.145 267.448 515.208 267.313 515.272 267.185C515.313 267.099 515.357 267.016 515.401 266.931C515.683 266.375 515.987 265.832 516.312 265.304C516.324 265.288 516.332 265.27 516.344 265.254C516.445 265.09 516.543 264.929 516.658 264.769C516.689 264.721 516.719 264.672 516.751 264.626C516.856 264.47 516.964 264.317 517.073 264.166L517.174 264.024C517.285 263.869 517.4 263.719 517.516 263.568L517.605 263.455C517.728 263.297 517.853 263.14 517.982 262.987L518.018 262.946C518.738 262.083 519.541 261.294 520.416 260.59H520.426C520.597 260.455 520.768 260.324 520.941 260.193L520.964 260.177C522.004 259.408 523.157 258.806 524.384 258.394C524.608 258.297 524.834 258.214 525.065 258.136H525.081C525.307 258.061 525.537 257.998 525.768 257.938V257.498H525.519V256.676H525.736V256.081H525.041L524.427 254.878H525.682V251.934H525.126V251.607H525.245V250.87H525.682V250.636V249.625H526.322C526.393 249.526 526.477 249.435 526.57 249.356L526.592 249.338C526.686 249.26 526.788 249.194 526.898 249.14V248.02H527.295V245.925H527.529V242.338C527.512 242.335 527.496 242.329 527.481 242.321C527.461 242.315 527.441 242.308 527.422 242.299C527.394 242.283 527.368 242.265 527.344 242.245L527.299 242.206C527.275 242.179 527.255 242.15 527.239 242.119C527.229 242.105 527.221 242.09 527.213 242.075C527.193 242.025 527.182 241.971 527.181 241.916V241.272C527.182 241.218 527.193 241.164 527.213 241.114C527.221 241.099 527.229 241.084 527.239 241.07C527.255 241.039 527.275 241.01 527.299 240.983C527.313 240.967 527.328 240.957 527.342 240.943C527.368 240.923 527.395 240.905 527.424 240.89C527.442 240.881 527.462 240.873 527.481 240.866C527.497 240.866 527.511 240.852 527.529 240.848V240.196H527.702V240.848C527.718 240.848 527.732 240.862 527.747 240.866L527.807 240.89C527.835 240.905 527.862 240.923 527.886 240.943C527.902 240.956 527.918 240.969 527.932 240.983C527.955 241.009 527.975 241.039 527.99 241.07C528 241.084 528.009 241.098 528.015 241.114C528.037 241.164 528.048 241.218 528.049 241.272V241.916C528.048 241.971 528.037 242.025 528.015 242.075C528.009 242.09 528 242.105 527.99 242.119C527.975 242.15 527.955 242.18 527.932 242.206L527.886 242.245C527.862 242.266 527.835 242.284 527.807 242.299C527.788 242.308 527.768 242.315 527.747 242.321C527.733 242.328 527.718 242.334 527.702 242.338V245.925H527.944V248.02H528.341V249.134C528.45 249.188 528.552 249.254 528.645 249.332L528.669 249.35C528.761 249.43 528.845 249.52 528.917 249.619H529.491V250.632H529.554V250.868H529.83V251.607H529.947V251.932H529.55V254.872H530.642L530.029 256.075H529.334V256.67H529.55V257.492H529.258V257.932C529.489 257.988 529.717 258.051 529.943 258.13H529.961C530.19 258.208 530.416 258.291 530.64 258.388C531.866 258.801 533.019 259.402 534.058 260.171L534.083 260.191C534.256 260.316 534.427 260.447 534.596 260.588L534.612 260.6C535.481 261.303 536.279 262.09 536.994 262.95C537.006 262.966 537.02 262.979 537.034 262.995C537.161 263.148 537.286 263.304 537.409 263.461L537.499 263.578C537.616 263.727 537.729 263.877 537.84 264.032L537.944 264.174C538.051 264.325 538.158 264.478 538.263 264.634C538.295 264.68 538.327 264.729 538.357 264.777C538.464 264.935 538.569 265.096 538.67 265.26C538.683 265.279 538.694 265.298 538.704 265.318C539.03 265.843 539.333 266.386 539.615 266.941L539.742 267.191C539.808 267.323 539.87 267.458 539.941 267.587C539.987 267.688 540.034 267.785 540.08 267.892C540.126 267.999 540.193 268.148 540.247 268.274C540.3 268.401 540.342 268.5 540.388 268.613C540.433 268.726 540.487 268.859 540.535 268.982C540.582 269.105 540.626 269.228 540.672 269.351C540.717 269.473 540.757 269.584 540.797 269.701C540.837 269.818 540.892 269.987 540.938 270.129C540.972 270.228 541.005 270.327 541.035 270.429C541.109 270.666 541.176 270.906 541.234 271.144C541.254 271.221 541.271 271.299 541.291 271.376C541.335 271.546 541.377 271.717 541.416 271.889C541.438 271.986 541.458 272.087 541.478 272.182C541.512 272.333 541.543 272.486 541.571 272.636C541.591 272.739 541.607 272.834 541.625 272.943C541.651 273.093 541.675 273.241 541.696 273.389C541.71 273.49 541.726 273.587 541.738 273.694C541.758 273.845 541.776 273.998 541.792 274.148C541.792 274.245 541.811 274.346 541.819 274.437C541.835 274.602 541.845 274.766 541.855 274.929C541.855 275.012 541.867 275.093 541.871 275.177C541.871 275.418 541.887 275.658 541.887 275.896V275.906C541.887 276.104 541.887 276.302 541.873 276.5H545.813V276.972H545.713V278.5H545.316V279.491H545.296V281.399H543.612V286.006C543.802 286.007 543.983 286.082 544.117 286.216C544.251 286.35 544.327 286.531 544.327 286.72V286.88C544.329 286.913 544.329 286.945 544.327 286.977C544.59 287.109 544.81 287.31 544.965 287.559C545.119 287.808 545.202 288.095 545.203 288.388V288.466H545.713V289.332H545.306V292.094H545.56V293.775H545.306V295.34H546.684V296.331V297.916H546.883V299.087H545.314V301.267V315.066H546.692V315.932V316.593V319.962H548.36V313.71H548.71V319.962H575.362L575.057 319.045H577.3L584.119 330.82H588.07L600.365 338.578L603.741 340.714H612.136V338.651H612.358V323.293H610.927V321.643H611.592C611.592 321.496 611.592 321.349 611.614 321.207C611.675 320.614 611.86 320.041 612.156 319.524C612.453 319.007 612.856 318.558 613.337 318.206C613.495 318.089 613.66 317.982 613.832 317.887C613.953 317.822 614.078 317.761 614.205 317.707C614.461 317.599 614.727 317.516 614.999 317.459C615.14 317.43 615.282 317.408 615.424 317.394C615.567 317.38 615.714 317.372 615.861 317.372H616.614V316.7H617.382C617.41 316.574 617.446 316.445 617.487 316.316C617.505 316.26 617.525 316.203 617.547 316.146C617.593 316.017 617.646 315.888 617.706 315.749C617.734 315.69 617.763 315.63 617.793 315.569C617.859 315.44 617.93 315.309 618.008 315.173C618.041 315.115 618.073 315.06 618.109 315.004C618.204 314.855 618.307 314.707 618.415 314.56L618.544 314.392C618.647 314.26 618.756 314.128 618.871 313.995L619.02 313.829C619.131 313.708 619.249 313.589 619.368 313.472L619.525 313.316C619.67 313.181 619.818 313.048 619.973 312.919L620.158 312.767C620.309 312.647 620.464 312.528 620.623 312.41L620.811 312.277C620.952 312.18 621.095 312.079 621.242 311.994L621.441 311.871C621.592 311.782 621.743 311.695 621.897 311.611C621.924 311.487 621.962 311.365 622.011 311.247L622.034 311.187C622.154 310.919 622.31 310.667 622.497 310.44L622.535 310.393C622.753 310.133 622.998 309.896 623.265 309.685L623.287 309.669C623.726 309.327 624.219 309.06 624.745 308.877C624.752 308.858 624.762 308.84 624.773 308.823C624.809 308.738 624.85 308.655 624.898 308.576C624.916 308.544 624.935 308.514 624.953 308.484C625.001 308.413 625.051 308.346 625.102 308.286L625.174 308.201C625.228 308.142 625.287 308.086 625.348 308.035C625.372 308.015 625.396 307.991 625.422 307.973C625.495 307.917 625.576 307.871 625.662 307.836L625.684 307.823V297.55H626.258V307.834C626.274 307.834 626.29 307.854 626.307 307.862C626.372 307.893 626.435 307.929 626.494 307.969L626.568 308.027C626.625 308.074 626.68 308.125 626.732 308.179C626.756 308.205 626.778 308.229 626.8 308.257C626.852 308.32 626.9 308.386 626.945 308.455C626.963 308.482 626.983 308.508 626.998 308.538C627.044 308.617 627.085 308.699 627.122 308.784C627.122 308.803 627.141 308.819 627.147 308.839C627.312 308.889 627.475 308.947 627.634 309.014L627.687 309.035C628.006 309.173 628.309 309.343 628.591 309.545L628.627 309.57C628.901 309.769 629.152 309.999 629.375 310.254C629.69 310.608 629.912 311.033 630.023 311.493C630.181 311.57 630.338 311.653 630.493 311.738L630.692 311.853C630.837 311.938 630.98 312.026 631.119 312.117C631.176 312.152 631.234 312.188 631.289 312.226C631.458 312.339 631.621 312.46 631.782 312.581L631.961 312.721C632.119 312.85 632.276 312.981 632.423 313.118C632.469 313.157 632.513 313.201 632.556 313.242C632.681 313.363 632.802 313.484 632.918 313.609L633.031 313.728C633.166 313.879 633.291 314.033 633.412 314.19L633.519 314.332C633.636 314.495 633.748 314.657 633.849 314.824C633.871 314.857 633.889 314.891 633.908 314.927C633.996 315.077 634.075 315.23 634.149 315.383C634.167 315.422 634.188 315.464 634.206 315.503C634.282 315.676 634.347 315.85 634.405 316.027L634.447 316.167C634.499 316.342 634.54 316.52 634.572 316.7H635.263V317.372H636.406C637.466 317.372 638.487 317.765 639.273 318.473C640.06 319.181 640.555 320.155 640.663 321.207C640.677 321.349 640.685 321.496 640.685 321.643H641.017V323.293H639.919V338.651H640.258V344.767H641.35L646.07 348.248V350.541H643.886V353.036V354.487V355.517V357.848V358.878V361.209V362.239V364.562V365.594V367.93V368.961V371.299V372.33V374.66V375.691V377.714V378.746V380.53V397.534H411.767V380.53V378.746V377.714V375.691V374.66V372.33V371.299V368.961V367.93V365.602V364.562V362.233V361.203V358.872V357.842V355.511V354.481V353.03V350.535H409.583V348.243L414.271 344.767ZM527.009 251.934V254.874H528.214V251.934H527.009ZM526.344 254.874H526.683V251.934H526.338L526.344 254.874ZM528.528 251.934V254.874H528.867V251.934H528.528Z" fill="#1A987C"/>
<path d="M401.566 390.174C403.438 390.171 405.238 390.898 406.581 392.2C407.924 390.899 409.722 390.173 411.593 390.174C413.436 390.166 415.21 390.873 416.541 392.144C417.544 391.197 418.799 390.556 420.156 390.3C421.514 390.043 422.916 390.181 424.197 390.697C425.478 391.212 426.584 392.084 427.383 393.209C428.181 394.334 428.64 395.664 428.703 397.041H394.352C394.44 395.191 395.238 393.445 396.581 392.166C397.925 390.888 399.709 390.174 401.566 390.174Z" fill="url(#paint2_linear_6885_3108)"/>
<path d="M255.829 390.477H256.158V381.976H255.166L258.797 380.103H259.504V377.234H259.256V376.639H259.84V374.721H260.149V364.345H262.753V363.711H262.185V362.896H262.753V361.174H261.45V357.867H263.66V354.55H264.144V352.822H264.552C264.552 352.808 264.569 352.796 264.577 352.784C264.619 352.722 264.665 352.665 264.71 352.607C264.756 352.55 264.782 352.518 264.82 352.475C264.857 352.431 264.917 352.372 264.969 352.32C265.02 352.269 265.054 352.237 265.1 352.199C265.145 352.162 265.205 352.11 265.26 352.067C265.316 352.023 265.362 351.993 265.415 351.958C265.469 351.922 265.525 351.884 265.582 351.85C265.64 351.817 265.703 351.787 265.765 351.755C265.826 351.724 265.876 351.7 265.934 351.676C265.991 351.652 266.075 351.623 266.148 351.599C266.221 351.575 266.255 351.561 266.311 351.545C266.366 351.529 266.482 351.506 266.569 351.49C266.617 351.49 266.66 351.47 266.708 351.464C266.984 351.424 267.265 351.424 267.542 351.464C267.59 351.464 267.635 351.482 267.681 351.49C267.768 351.506 267.856 351.522 267.941 351.545C267.997 351.561 268.048 351.581 268.104 351.599C268.159 351.617 268.247 351.646 268.316 351.676C268.386 351.706 268.429 351.728 268.485 351.755C268.541 351.783 268.608 351.817 268.668 351.85C268.727 351.884 268.781 351.92 268.835 351.958C268.888 351.995 268.94 352.029 268.991 352.068C269.043 352.108 269.099 352.154 269.15 352.199C269.202 352.245 269.24 352.279 269.281 352.32C269.323 352.362 269.383 352.421 269.43 352.475C269.478 352.528 269.504 352.562 269.539 352.607C269.575 352.653 269.631 352.722 269.672 352.784C269.672 352.798 269.692 352.808 269.7 352.822H270.107V354.55H272.18V353.559H272.788L272.724 353.531L272.599 353.479C272.545 353.454 272.492 353.424 272.44 353.392C272.405 353.37 272.369 353.351 272.333 353.327C272.263 353.279 272.197 353.226 272.135 353.168L272.069 353.105C272.009 353.042 271.954 352.976 271.902 352.907C271.882 352.879 271.865 352.847 271.847 352.818C271.811 352.758 271.777 352.699 271.747 352.637C271.718 352.576 271.718 352.568 271.704 352.532C271.678 352.468 271.657 352.401 271.64 352.334C271.64 352.302 271.622 352.271 271.616 352.237C271.595 352.131 271.584 352.024 271.583 351.916C271.584 351.81 271.595 351.705 271.614 351.601C271.614 351.569 271.628 351.539 271.636 351.51C271.654 351.436 271.676 351.364 271.704 351.294C271.716 351.264 271.726 351.236 271.738 351.208C271.777 351.118 271.824 351.032 271.878 350.951C271.939 350.869 272.005 350.792 272.077 350.721C272.099 350.699 272.121 350.677 272.145 350.658C272.197 350.608 272.253 350.561 272.311 350.519L272.389 350.463C272.467 350.411 272.551 350.366 272.637 350.329H272.657H272.599V349.058H273.08L273.112 349.017C273.161 348.943 273.215 348.876 273.268 348.807C273.322 348.737 273.352 348.702 273.397 348.65C273.443 348.599 273.513 348.527 273.574 348.468C273.636 348.408 273.675 348.371 273.729 348.323C273.783 348.276 273.852 348.218 273.918 348.169C273.983 348.119 274.039 348.079 274.102 348.038C274.166 347.996 274.231 347.953 274.301 347.913C274.37 347.873 274.444 347.836 274.517 347.8C274.591 347.764 274.648 347.735 274.716 347.705C274.783 347.675 274.883 347.643 274.968 347.614C275.053 347.584 275.095 347.568 275.167 347.55C275.267 347.524 275.37 347.503 275.472 347.487C275.528 347.475 275.582 347.461 275.637 347.453C275.967 347.408 276.301 347.408 276.63 347.453C276.688 347.453 276.741 347.475 276.797 347.487C276.9 347.503 277.002 347.524 277.103 347.55C277.168 347.568 277.232 347.592 277.301 347.614C277.371 347.635 277.472 347.671 277.553 347.705C277.635 347.739 277.686 347.766 277.752 347.8C277.817 347.834 277.897 347.871 277.966 347.913C278.036 347.955 278.099 347.994 278.165 348.038C278.23 348.081 278.288 348.123 278.348 348.169C278.407 348.214 278.477 348.27 278.546 348.323C278.616 348.377 278.651 348.418 278.701 348.468C278.751 348.517 278.82 348.587 278.878 348.65L279.007 348.807C279.06 348.876 279.114 348.943 279.164 349.017L279.195 349.058H279.676V350.297H279.618H279.636C279.723 350.334 279.806 350.379 279.884 350.432C279.911 350.449 279.937 350.467 279.962 350.487C280.021 350.529 280.078 350.576 280.131 350.626C280.155 350.645 280.177 350.667 280.198 350.689C280.271 350.76 280.338 350.836 280.397 350.919C280.45 351.001 280.497 351.088 280.538 351.177C280.55 351.204 280.56 351.232 280.571 351.262C280.598 351.333 280.621 351.405 280.639 351.478C280.648 351.508 280.654 351.538 280.659 351.569C280.68 351.673 280.691 351.778 280.693 351.884C280.692 351.992 280.68 352.1 280.659 352.205C280.659 352.239 280.643 352.271 280.635 352.304C280.618 352.371 280.596 352.438 280.571 352.502C280.558 352.538 280.542 352.572 280.526 352.607C280.497 352.669 280.465 352.729 280.429 352.786C280.409 352.818 280.393 352.849 280.371 352.879C280.32 352.949 280.265 353.015 280.204 353.077C280.184 353.1 280.162 353.121 280.139 353.141C280.077 353.199 280.01 353.252 279.94 353.299C279.906 353.323 279.871 353.343 279.835 353.364C279.783 353.396 279.73 353.425 279.676 353.452L279.551 353.503L279.487 353.531H280.083V354.522H282.108V352.794H282.506C282.515 352.782 282.525 352.769 282.533 352.756C282.575 352.695 282.621 352.637 282.666 352.58C282.712 352.522 282.738 352.491 282.776 352.447C282.813 352.403 282.873 352.342 282.924 352.292C282.976 352.243 283.01 352.209 283.056 352.172C283.101 352.134 283.161 352.082 283.216 352.039C283.272 351.995 283.318 351.965 283.371 351.93C283.425 351.894 283.48 351.856 283.538 351.823C283.596 351.789 283.659 351.759 283.721 351.728C283.782 351.696 283.832 351.672 283.89 351.648C283.947 351.625 284.03 351.595 284.104 351.571L284.265 351.518C284.35 351.494 284.437 351.478 284.525 351.462C284.573 351.462 284.616 351.442 284.664 351.436C284.802 351.416 284.941 351.406 285.081 351.407C285.22 351.406 285.36 351.416 285.498 351.436C285.545 351.436 285.591 351.454 285.637 351.462C285.724 351.478 285.812 351.494 285.897 351.518L286.06 351.571C286.131 351.595 286.203 351.619 286.272 351.648C286.342 351.678 286.385 351.7 286.441 351.728C286.497 351.755 286.564 351.789 286.624 351.823C286.683 351.856 286.735 351.892 286.79 351.93C286.846 351.967 286.896 352.001 286.945 352.039C286.995 352.076 287.055 352.126 287.106 352.172C287.158 352.217 287.196 352.251 287.237 352.292C287.279 352.334 287.339 352.393 287.386 352.447C287.434 352.5 287.46 352.534 287.495 352.58C287.531 352.625 287.587 352.695 287.628 352.756L287.656 352.794H288.053V354.522H288.599V355.053H318.362L326.155 349.752L333.947 355.053H363.688V354.657H364.172V352.927H364.569L364.597 352.891C364.639 352.829 364.684 352.772 364.73 352.714C364.776 352.657 364.801 352.625 364.839 352.582C364.877 352.538 364.936 352.477 364.988 352.427C365.04 352.378 365.073 352.344 365.119 352.304C365.165 352.265 365.224 352.215 365.28 352.174C365.336 352.132 365.381 352.098 365.435 352.065C365.488 352.031 365.544 351.991 365.602 351.958C365.659 351.924 365.723 351.892 365.784 351.862C365.846 351.833 365.895 351.807 365.953 351.783C366.011 351.759 366.094 351.73 366.168 351.706C366.241 351.682 366.275 351.666 366.33 351.652C366.386 351.638 366.501 351.613 366.588 351.597L366.727 351.569C367.004 351.532 367.285 351.532 367.561 351.569L367.7 351.597C367.788 351.613 367.875 351.629 367.961 351.652C368.046 351.676 368.068 351.688 368.123 351.706C368.179 351.724 368.266 351.753 368.336 351.783C368.405 351.813 368.449 351.835 368.505 351.862C368.56 351.89 368.628 351.924 368.687 351.958C368.747 351.991 368.8 352.027 368.854 352.065C368.908 352.102 368.959 352.136 369.011 352.174C369.063 352.211 369.118 352.259 369.17 352.304C369.221 352.35 369.259 352.386 369.301 352.427C369.343 352.469 369.402 352.528 369.45 352.582C369.497 352.635 369.523 352.669 369.559 352.714C369.595 352.76 369.65 352.829 369.692 352.891L369.72 352.927H370.117V354.657H372.206V353.666H372.813L372.75 353.638C372.706 353.622 372.666 353.604 372.625 353.584C372.57 353.559 372.517 353.531 372.466 353.499C372.429 353.479 372.393 353.456 372.359 353.432C372.289 353.384 372.222 353.332 372.16 353.275L372.095 353.212C372.035 353.149 371.979 353.083 371.928 353.014C371.908 352.984 371.89 352.954 371.872 352.923C371.836 352.864 371.802 352.804 371.773 352.742C371.757 352.709 371.743 352.675 371.729 352.639C371.704 352.574 371.683 352.508 371.666 352.441C371.656 352.409 371.648 352.378 371.64 352.344C371.619 352.238 371.609 352.131 371.608 352.023C371.609 351.917 371.619 351.812 371.64 351.708C371.64 351.676 371.654 351.646 371.662 351.617C371.679 351.543 371.701 351.471 371.729 351.401C371.739 351.371 371.751 351.343 371.763 351.315C371.802 351.226 371.848 351.14 371.902 351.058V351.048C371.962 350.966 372.028 350.889 372.101 350.818C372.121 350.795 372.143 350.774 372.166 350.755C372.219 350.704 372.275 350.657 372.335 350.614L372.412 350.56C372.491 350.509 372.574 350.464 372.661 350.426C372.667 350.425 372.674 350.425 372.68 350.426H372.623V349.108H373.103C373.113 349.094 373.125 349.08 373.135 349.064C373.185 348.993 373.238 348.926 373.292 348.866C373.346 348.807 373.375 348.761 373.421 348.71C373.467 348.658 373.536 348.587 373.598 348.527C373.659 348.468 373.699 348.428 373.753 348.383C373.806 348.337 373.876 348.278 373.951 348.228C374.027 348.178 374.072 348.139 374.136 348.097C374.199 348.056 374.265 348.012 374.334 347.972C374.404 347.933 374.477 347.895 374.551 347.859C374.624 347.824 374.682 347.794 374.749 347.764C374.817 347.735 374.916 347.701 375.002 347.673C375.087 347.645 375.129 347.628 375.2 347.61C375.299 347.582 375.399 347.564 375.504 347.544C375.56 347.544 375.615 347.521 375.671 347.513C376 347.467 376.334 347.467 376.663 347.513C376.721 347.513 376.775 347.534 376.83 347.544C376.934 347.564 377.029 347.582 377.136 347.61C377.202 347.628 377.265 347.651 377.335 347.673C377.404 347.695 377.505 347.731 377.587 347.764C377.668 347.798 377.72 347.826 377.785 347.859C377.851 347.893 377.93 347.931 378 347.972C378.069 348.014 378.133 348.054 378.198 348.097C378.264 348.141 378.322 348.182 378.381 348.228C378.441 348.274 378.51 348.329 378.58 348.383C378.649 348.436 378.685 348.478 378.734 348.527C378.784 348.577 378.854 348.646 378.911 348.71C378.969 348.773 378.997 348.813 379.038 348.866C379.08 348.92 379.148 349.003 379.195 349.064L379.229 349.108H379.709V350.376H379.652H379.67C379.756 350.414 379.839 350.459 379.918 350.511L379.995 350.564C380.055 350.607 380.111 350.654 380.164 350.705C380.188 350.725 380.211 350.746 380.232 350.769C380.305 350.839 380.371 350.916 380.43 350.998V351.008C380.484 351.09 380.531 351.177 380.571 351.266C380.583 351.294 380.593 351.321 380.605 351.351C380.632 351.422 380.654 351.494 380.672 351.567C380.672 351.597 380.686 351.627 380.692 351.658C380.714 351.762 380.725 351.867 380.726 351.973C380.725 352.081 380.714 352.189 380.692 352.294C380.692 352.328 380.676 352.36 380.669 352.391C380.651 352.459 380.63 352.525 380.605 352.59C380.591 352.625 380.575 352.659 380.559 352.693C380.531 352.755 380.499 352.815 380.462 352.873C380.442 352.905 380.426 352.934 380.404 352.964C380.354 353.034 380.298 353.1 380.238 353.162C380.218 353.184 380.196 353.204 380.174 353.226C380.111 353.282 380.045 353.334 379.975 353.382C379.942 353.407 379.907 353.429 379.87 353.45C379.819 353.481 379.766 353.509 379.711 353.535L379.586 353.588L379.523 353.616H380.128V354.607H382.158V352.877H382.555L382.583 352.841C382.624 352.78 382.67 352.722 382.716 352.665C382.761 352.607 382.787 352.576 382.825 352.532C382.863 352.489 382.922 352.427 382.974 352.378C383.025 352.328 383.059 352.294 383.105 352.255C383.15 352.215 383.21 352.166 383.264 352.124C383.317 352.082 383.367 352.049 383.421 352.015C383.474 351.981 383.53 351.942 383.587 351.908C383.645 351.874 383.708 351.843 383.77 351.813C383.832 351.783 383.881 351.757 383.939 351.734C383.996 351.71 384.08 351.68 384.153 351.656C384.227 351.633 384.258 351.617 384.314 351.603C384.37 351.589 384.487 351.563 384.574 351.547L384.713 351.52C384.851 351.501 384.991 351.492 385.13 351.492C385.27 351.492 385.409 351.501 385.547 351.52L385.686 351.547C385.773 351.563 385.861 351.579 385.944 351.603C386.028 351.627 386.053 351.638 386.109 351.656C386.165 351.674 386.252 351.704 386.322 351.734C386.391 351.763 386.435 351.785 386.49 351.813C386.546 351.841 386.613 351.874 386.673 351.908C386.733 351.942 386.784 351.977 386.84 352.015C386.895 352.053 386.945 352.086 386.995 352.124C387.044 352.162 387.104 352.209 387.156 352.255C387.207 352.3 387.245 352.336 387.287 352.378C387.328 352.419 387.388 352.479 387.435 352.532C387.483 352.586 387.509 352.619 387.545 352.665C387.58 352.711 387.636 352.78 387.678 352.841L387.706 352.877H388.103V354.607H388.649V357.829H390.857V361.127H389.556V362.849H390.126V363.663H389.558V364.297H392.161V374.673H392.36V376.592H393.049V377.186H392.721V380.056H393.595L397.227 381.928H396.148V390.43H396.363V394.734H396.845V397.171H255.303V394.734H255.825L255.829 390.477Z" fill="#19817B"/>
<path d="M102.004 396.823C102.237 391.513 104.515 386.498 108.362 382.824C112.209 379.149 117.329 377.098 122.654 377.098C127.98 377.098 133.099 379.149 136.947 382.824C140.794 386.498 143.071 391.513 143.305 396.823H102.004Z" fill="url(#paint3_linear_6885_3108)"/>
<path d="M122.656 396.823H102.006C102.261 391.527 104.548 386.533 108.392 382.873C112.236 379.214 117.344 377.171 122.656 377.167V396.823Z" fill="#A2D4D1"/>
<path d="M149.379 392.307C150.292 393.178 151.507 393.664 152.77 393.664C154.033 393.664 155.247 393.178 156.16 392.307C157.065 393.158 158.262 393.633 159.506 393.633C160.75 393.633 161.947 393.158 162.852 392.307C164.106 392.306 165.312 392.787 166.221 393.649C167.13 394.512 167.672 395.69 167.734 396.94H144.503C144.566 395.691 145.107 394.514 146.014 393.652C146.922 392.79 148.126 392.308 149.379 392.307Z" fill="#D9EED4"/>
<path d="M262.957 392.21C263.87 393.081 265.085 393.567 266.348 393.567C267.611 393.567 268.825 393.081 269.738 392.21C270.643 393.062 271.84 393.536 273.084 393.536C274.328 393.536 275.525 393.062 276.43 392.21C277.684 392.209 278.89 392.69 279.799 393.552C280.708 394.415 281.25 395.593 281.312 396.843H258.081C258.144 395.594 258.685 394.417 259.592 393.555C260.5 392.693 261.705 392.211 262.957 392.21Z" fill="#D9EED4"/>
<path d="M375.215 392.272C376.128 393.144 377.343 393.63 378.606 393.63C379.869 393.63 381.083 393.144 381.996 392.272C382.902 393.124 384.099 393.598 385.343 393.598C386.587 393.598 387.784 393.124 388.69 392.272C389.944 392.272 391.15 392.753 392.058 393.615C392.967 394.478 393.508 395.656 393.57 396.906H370.339C370.401 395.656 370.942 394.479 371.849 393.617C372.757 392.754 373.962 392.273 375.215 392.272Z" fill="#D9EED4"/>
<path d="M424.582 392.272C425.495 393.144 426.71 393.63 427.973 393.63C429.236 393.63 430.45 393.144 431.363 392.272C432.268 393.124 433.465 393.599 434.709 393.599C435.953 393.599 437.15 393.124 438.055 392.272C439.309 392.271 440.516 392.752 441.425 393.614C442.334 394.477 442.875 395.655 442.938 396.906H419.706C419.768 395.657 420.309 394.479 421.217 393.617C422.125 392.755 423.329 392.273 424.582 392.272Z" fill="#D9EED4"/>
<path d="M456.766 396.783C456.931 393.247 458.454 389.911 461.02 387.466C463.586 385.022 466.996 383.658 470.543 383.658C474.09 383.658 477.501 385.022 480.066 387.466C482.632 389.911 484.156 393.247 484.32 396.783H456.766Z" fill="url(#paint4_linear_6885_3108)"/>
<path d="M470.547 396.783H456.767C456.936 393.248 458.461 389.913 461.027 387.47C463.592 385.027 467.001 383.662 470.547 383.658V396.783Z" fill="#A2D4D1"/>
<path d="M392.772 341.562C395.26 342.505 386.617 334.428 386.617 334.428C386.617 334.428 395.631 333.746 397.696 341.288C398.038 342.565 400.129 328.469 414.256 337.002C414.491 337.143 402.452 342.491 402.766 342.921C403.079 343.351 417.33 337.278 420.422 350.135C420.471 350.321 407.382 347.757 403.631 348.636C403.312 348.72 416.28 352.342 412.741 367.005C412.543 367.754 403.806 363.091 401.026 354.839C400.905 354.474 400.792 354.126 400.683 353.785L400.248 397.857L394.962 397.078C395.899 376.453 398.032 355.41 398.602 349.996C397.254 353.406 393.221 361.093 383.273 364.9C383.273 364.9 382.115 351.575 392.915 347.612C393.656 347.335 380.884 346.863 376.416 349.667C375.259 350.398 378.758 336.239 392.772 341.562ZM399.325 348.926C399.231 348.529 399.186 348.294 399.186 348.294C399.186 348.294 399.142 348.472 399.041 348.793L399.325 348.926Z" fill="#D9EED4"/>
<path d="M94.6847 351.539C94.6847 351.539 98.2589 374.689 100.102 397.434L94.4723 398.623L92.6078 352.573L94.6847 351.539Z" fill="#D9EED4"/>
<path d="M116.498 374.096C116.498 374.096 116.958 356.229 102.241 351.824C101.23 351.513 118.211 349.854 124.4 353.231C126.011 354.109 120.197 335.523 101.949 343.749C98.7065 345.215 109.574 333.734 109.574 333.734C109.574 333.734 97.4992 333.557 95.3567 343.787C95.0072 345.513 91.0698 326.889 72.9312 339.405C72.6313 339.617 89.1179 345.772 88.7287 346.373C88.3396 346.973 68.8508 340.031 65.781 357.416C65.7294 357.674 82.9665 353.194 88.0457 354.062C88.4786 354.149 71.4837 360.024 77.3929 379.288C77.7146 380.279 88.9809 373.343 92.0249 362.123C93.4565 356.786 93.939 353.239 93.939 353.239C93.939 353.239 98.7402 368.524 116.498 374.096Z" fill="#D9EED4"/>
<path d="M100.098 392.307C101.011 393.178 102.226 393.664 103.489 393.664C104.752 393.664 105.966 393.178 106.879 392.307C107.784 393.158 108.981 393.633 110.225 393.633C111.469 393.633 112.666 393.158 113.571 392.307C114.825 392.306 116.031 392.787 116.94 393.649C117.849 394.512 118.39 395.69 118.453 396.94H95.2214C95.2845 395.691 95.8257 394.514 96.7332 393.652C97.6407 392.79 98.8452 392.308 100.098 392.307Z" fill="#D9EED4"/>
</g>
</g>
<defs>
<linearGradient id="paint0_linear_6885_3108" x1="483.682" y1="144.255" x2="330.529" y2="154.883" gradientUnits="userSpaceOnUse">
<stop stop-color="#78BC6D"/>
<stop offset="1" stop-color="#0CA3AC"/>
</linearGradient>
<linearGradient id="paint1_linear_6885_3108" x1="201.171" y1="244.313" x2="135.726" y2="247.475" gradientUnits="userSpaceOnUse">
<stop stop-color="#78BC6D"/>
<stop offset="1" stop-color="#0CA3AC"/>
</linearGradient>
<linearGradient id="paint2_linear_6885_3108" x1="427.89" y1="390.628" x2="402.319" y2="407.052" gradientUnits="userSpaceOnUse">
<stop stop-color="#78BC6D"/>
<stop offset="1" stop-color="#0CA3AC"/>
</linearGradient>
<linearGradient id="paint3_linear_6885_3108" x1="142.327" y1="378.403" x2="101.827" y2="389.291" gradientUnits="userSpaceOnUse">
<stop stop-color="#78BC6D"/>
<stop offset="1" stop-color="#0CA3AC"/>
</linearGradient>
<linearGradient id="paint4_linear_6885_3108" x1="483.668" y1="384.527" x2="456.657" y2="391.807" gradientUnits="userSpaceOnUse">
<stop stop-color="#78BC6D"/>
<stop offset="1" stop-color="#0CA3AC"/>
</linearGradient>
<clipPath id="clip0_6885_3108">
<rect width="459" height="396" fill="white"/>
</clipPath>
<clipPath id="clip1_6885_3108">
<rect width="593.243" height="400" fill="white" transform="matrix(-1 0 0 1 635.812 0)"/>
</clipPath>
</defs>
</svg>
