<svg width="68" height="68" viewBox="0 0 68 68" fill="none" xmlns="http://www.w3.org/2000/svg">
<path d="M58.7301 8.5H9.17894C7.20718 8.5 5.66406 10.0645 5.66406 11.9767V44.5704C5.66406 46.4825 7.20718 48.134 9.17894 48.134H58.8159C60.7019 48.134 62.3307 46.5695 62.3307 44.5704V11.9767C62.245 10.0645 60.7019 8.5 58.7301 8.5ZM33.9545 42.6582C26.1532 42.6582 19.7236 36.2264 19.7236 28.2301C19.7236 20.3207 26.0675 13.8019 33.9545 13.8019C41.7558 13.8019 48.1855 20.2337 48.1855 28.2301C48.1855 36.2264 41.7558 42.6582 33.9545 42.6582Z" fill="url(#paint0_linear_6784_5810)"/>
<path d="M40.3846 28.3164C40.3846 29.1855 39.956 29.9678 39.1844 30.4893L32.0689 34.8351C31.6403 35.0959 31.2117 35.1828 30.783 35.1828C30.3544 35.1828 29.9257 35.0959 29.5828 34.8351C28.8112 34.4005 28.2969 33.5314 28.2969 32.6622V23.9705C28.2969 23.1014 28.7255 22.2322 29.5828 21.7976C30.3544 21.363 31.2974 21.363 32.0689 21.7976L39.1844 26.1434C39.956 26.578 40.3846 27.3603 40.3846 28.3164Z" fill="url(#paint1_linear_6784_5810)"/>
<path d="M62.3307 55.25C62.3307 55.7949 61.9825 56.3397 61.4603 56.3397H19.7654C19.2432 58.1923 17.6764 59.5 15.6743 59.5C13.7593 59.5 12.1054 58.1923 11.5832 56.3397H6.53452C6.01224 56.3397 5.66406 55.7949 5.66406 55.25C5.66406 54.5962 6.01224 54.1603 6.53452 54.1603H11.5832C12.0184 52.3077 13.6723 51 15.6743 51C17.6764 51 19.2432 52.3077 19.7654 54.1603H61.4603C61.9825 54.1603 62.3307 54.5962 62.3307 55.25Z" fill="url(#paint2_linear_6784_5810)"/>
<defs>
<linearGradient id="paint0_linear_6784_5810" x1="7.00617" y1="11.1228" x2="64.6475" y2="21.7044" gradientUnits="userSpaceOnUse">
<stop stop-color="#78BC6D"/>
<stop offset="1" stop-color="#0CA3AC"/>
</linearGradient>
<linearGradient id="paint1_linear_6784_5810" x1="28.5832" y1="22.379" x2="41.1324" y2="23.7995" gradientUnits="userSpaceOnUse">
<stop stop-color="#78BC6D"/>
<stop offset="1" stop-color="#0CA3AC"/>
</linearGradient>
<linearGradient id="paint2_linear_6784_5810" x1="7.00617" y1="51.5625" x2="41.3939" y2="80.9978" gradientUnits="userSpaceOnUse">
<stop stop-color="#78BC6D"/>
<stop offset="1" stop-color="#0CA3AC"/>
</linearGradient>
</defs>
</svg>
