<svg width="15" height="21" viewBox="0 0 15 21" fill="none" xmlns="http://www.w3.org/2000/svg">
<path d="M13.9543 16.4808L10.1412 12.279C9.93349 12.0479 9.66409 11.8766 9.36246 11.7836C9.06082 11.6906 8.73855 11.6796 8.43087 11.7517L8.1169 11.8236C7.95257 11.8623 7.77936 11.8435 7.62807 11.7703C7.47678 11.6972 7.35723 11.5746 7.29066 11.4242C7.0375 10.8465 6.85585 10.2418 6.74948 9.62287C6.72934 9.49271 6.76068 9.35999 6.83724 9.25117C6.91381 9.14235 7.02998 9.06543 7.1626 9.03573C7.42214 8.97792 7.66429 8.86271 7.87002 8.69916C8.07574 8.5356 8.23944 8.32816 8.34825 8.09312C8.45967 7.84137 8.50644 7.5673 8.48458 7.29429L8.09211 2.38152C8.07076 2.07497 7.97726 1.77719 7.81875 1.5109C7.66023 1.24462 7.44089 1.01686 7.17746 0.845013C6.91404 0.673167 6.61348 0.561774 6.29875 0.519335C5.98401 0.476896 5.6634 0.504534 5.3614 0.600138L2.56458 1.63861C2.03707 1.80441 1.57094 2.1152 1.22318 2.53299C0.875425 2.95079 0.661094 3.45748 0.606391 3.99115C0.00323638 9.37523 1.97795 15.4303 6.19176 19.4684C6.30018 19.5691 6.43186 19.6433 6.57588 19.685C6.7199 19.7267 6.87211 19.7345 7.01992 19.708C7.16772 19.6814 7.30684 19.6212 7.42577 19.5323C7.5447 19.4434 7.64 19.3284 7.70378 19.1968L7.72857 19.1529C7.81122 18.9787 7.83574 18.784 7.79873 18.5957C7.76171 18.4075 7.665 18.2351 7.52201 18.1024C3.84525 14.5596 2.11428 9.29136 2.49848 4.58228C2.52196 4.29084 2.63528 4.01289 2.8238 3.78434C3.01233 3.55579 3.2674 3.38714 3.55606 3.30017L5.45641 2.54528C5.53664 2.52176 5.62129 2.5159 5.70416 2.52813C5.78703 2.54035 5.86603 2.57035 5.93535 2.61593C6.00467 2.6615 6.06257 2.7215 6.10479 2.79152C6.14702 2.86153 6.1725 2.9398 6.17937 3.02058L6.47682 6.71514C6.48908 6.86562 6.4455 7.0154 6.3539 7.13763C6.2623 7.25986 6.12866 7.34655 5.97694 7.38216L5.33248 7.53394C5.09052 7.59191 4.87953 7.73483 4.74055 7.9349C4.60157 8.13497 4.54456 8.37788 4.5806 8.61635C4.92349 10.7133 5.40684 12.1631 6.59249 13.9086C6.71966 14.0907 6.90742 14.2252 7.12461 14.2899C7.34179 14.3545 7.57532 14.3454 7.78641 14.264L8.65809 13.9245C8.78622 13.8753 8.92719 13.8666 9.06078 13.8996C9.19437 13.9326 9.31371 14.0056 9.4017 14.1083L12.1613 17.2796C12.2202 17.346 12.2615 17.4252 12.2817 17.5104C12.3018 17.5956 12.3003 17.6843 12.2771 17.7688C12.2539 17.8533 12.2098 17.9311 12.1487 17.9955C12.0875 18.0599 12.011 18.1089 11.9259 18.1383L10.3808 18.6656C10.2512 18.7093 10.1326 18.7789 10.0328 18.87C9.93302 18.961 9.85421 19.0715 9.80157 19.194C9.74893 19.3165 9.72363 19.4484 9.72734 19.581C9.73104 19.7137 9.76367 19.8441 9.82308 19.9637C9.92678 20.175 10.1084 20.3413 10.3323 20.43C10.5562 20.5186 10.8063 20.5233 11.0335 20.443L13.0991 19.724C13.4246 19.617 13.7174 19.4332 13.9509 19.1892C14.1843 18.9451 14.3511 18.6486 14.436 18.3265C14.5209 18.0044 14.5213 17.6669 14.4372 17.3446C14.3531 17.0223 14.1871 16.7254 13.9543 16.4808Z" fill="#18232D"/>
<path d="M9.79981 1.84256C9.81562 2.04626 9.89644 2.2402 10.0311 2.39759C10.1658 2.55499 10.3477 2.66809 10.5517 2.72127C10.9711 2.82368 11.3466 3.0508 11.6254 3.3706C11.9042 3.69041 12.072 4.08675 12.1053 4.50372C12.1387 4.92069 12.0357 5.33726 11.8111 5.69466C11.5864 6.05205 11.2514 6.33225 10.8533 6.49572C10.6594 6.57945 10.4972 6.71936 10.3891 6.8961C10.2811 7.07284 10.2325 7.27767 10.2501 7.48227C10.2647 7.64284 10.319 7.79767 10.4084 7.93373C10.4978 8.06979 10.6197 8.1831 10.7639 8.26413C10.908 8.34516 11.0701 8.39153 11.2367 8.39935C11.4032 8.40716 11.5692 8.3762 11.7208 8.30905C12.5004 7.97389 13.1536 7.41357 13.5906 6.70506C14.0276 5.99655 14.2269 5.17461 14.1613 4.35215C14.0956 3.52968 13.7682 2.74704 13.224 2.11174C12.6797 1.47643 11.9454 1.01964 11.1218 0.804089C10.961 0.759148 10.7914 0.752503 10.6273 0.78472C10.4633 0.816938 10.3098 0.887061 10.1799 0.9891C10.05 1.09114 9.94761 1.22206 9.88142 1.37068C9.81522 1.5193 9.78723 1.68121 9.79981 1.84256Z" fill="#00C569"/>
</svg>
