<svg width="1241" height="1014" viewBox="0 0 1241 1014" fill="none" xmlns="http://www.w3.org/2000/svg">
<g opacity="0.9" clip-path="url(#clip0_6270_27215)">
<path d="M831.105 910.117V903.148V891.718V880.476V869.046V852.269V840.843V824.066V812.636V795.863V784.433V767.66V756.23V739.452V728.022V711.249V699.819V683.046V671.616V654.843V643.413V626.636V615.206V598.433V587.003V570.23V558.8V542.022V530.592V513.819V502.389V478.777H851.782L868.977 473.246L886.177 467.719H946.553V462.958V443.493L963.143 431.235V420.808V416.441V412.07H965.343V410.502V402.861L967.153 401.522L977.4 393.953L989.456 402.861V410.502V412.07H991.378V416.441V420.808V431.235L1007.97 443.493V462.958V467.719H1068.35L1102.74 478.777H1123.42V502.389V513.819V530.592V542.022V558.8V570.23V587.003V598.433V615.206V626.636V643.413V654.843V671.616V683.046V699.819V711.249V728.022V739.452V756.23V767.66V784.433V795.863V812.636V824.066V840.843V852.269V869.046V880.476V891.718V903.148V910.117H1141.88V1006.01H991.378H986.589H966.934H962.14H811.643V910.117H831.105Z" fill="url(#paint0_linear_6270_27215)"/>
<path d="M779.87 384.947V378.148H811.232V384.947H815.547V1006.18H686.69V384.947H779.87Z" fill="#D9EED4"/>
<path d="M755.52 647.545V642.318H777.76V639.188H798.736V647.545H886.984V1013.89H746.219V647.545H755.52Z" fill="#A2D4D1"/>
<path d="M296.913 553.413V548.719H421.482V553.413H447.75V1013.69H286.608V553.413H296.913Z" fill="#D9EED4"/>
<path d="M368.457 644.167V638.94H390.697V635.805H411.674V644.167H499.922V1010.51H359.156V644.167H368.457Z" fill="url(#paint1_linear_6270_27215)"/>
<path d="M469.718 699.843V685.703H552.258V699.843H569.664V1005.36H462.895V699.843H469.718Z" fill="#A2D4D1"/>
<path d="M279.668 797.652V788.031H329.852V1013.34H303.405V1013.62H245.555V797.652H279.668Z" fill="#53B383"/>
<path d="M1132.23 959.288V940.445H1147.09V569.35H1163.59V549.5H1243.6V569.35H1245.24V940.445H1274.35V959.288H1280.33V1010.31H1123.41V959.288H1132.23Z" fill="#D9EED4"/>
<path d="M596.773 389.237L598.283 387.374L607.324 383.07L645.98 364.684V335.2H647.06L648.175 325.248L651.396 296.494L652.404 287.497H639.497V252.674H654.878V217.847H655.859V209.27H650.738V197.253H655.859V184.081H656.419V156.648H657.418V184.081H657.978V197.253H663.081V209.27H657.96V217.847H658.941V252.674H674.317V287.497H661.038V296.494H660.998V413.49H669.479V415.075H711.714V412.836H720.195V415.075H734.913V412.836H743.412V419.393H746.862V427.629H743.421V434.347H742.301V455.398V456.835V495.694V497.131V515.526H746.459V523.14L777.928 566.378L782.14 572.165V567.668H786.141V1005.98H780.061V1007H779.429V1005.98H776.293V1007H775.666V1005.98H772.328V1006.11H771.701V1005.98H768.565V1007H767.919V1005.98H763.367V1007H762.74V1005.98H759.604V1006.11H758.959V1005.98H755.549V1007H754.922V1005.98H751.786V1007H751.159V1005.98H725.558V1007H724.282V1005.98H717.879V1007H716.602V1005.98H702.122V1007H700.841V1005.98H691.562V1007H690.281V1005.98H675.644V1007H674.362V1005.98H667.964V1007H666.683V1005.98H577.337L576.768 1006.72L574.609 1009.52V1008.07L575.917 1006.37L576.226 1005.97H574.609V416.643L596.773 389.237ZM656.535 296.494H655.841L651.481 335.46H656.535V296.494ZM650.455 362.552L652.888 361.392L656.535 359.659V339.858H650.455V362.552Z" fill="#1A987C"/>
<path d="M191.932 1008.41C194.261 959.679 234.391 920.875 283.741 920.875C333.092 920.875 373.208 959.702 375.547 1008.41H191.932Z" fill="#1A987C"/>
<path d="M347.829 741.252V727.09H362.166V728.881H371.261V723.112H369.155V720.425H369.854V710.034H369.178V707.347H371.284V705.945H372.063C372.068 705.531 372.101 705.118 372.162 704.709C372.162 704.633 372.184 704.557 372.198 704.476C372.333 703.683 372.574 702.912 372.914 702.183L373.008 701.986C373.361 701.275 373.805 700.614 374.33 700.02L374.464 699.872C375.005 699.289 375.62 698.778 376.292 698.354L376.449 698.255C376.79 698.049 377.143 697.865 377.507 697.704V693.091H376.736V692.101H377.507V691.586H377.896C377.901 691.407 377.919 691.229 377.95 691.053C377.95 690.973 377.991 690.892 378.013 690.811C378.035 690.731 378.067 690.61 378.102 690.511C378.138 690.413 378.165 690.35 378.205 690.269C378.248 690.179 378.296 690.09 378.349 690.005C378.388 689.931 378.431 689.859 378.479 689.79C378.57 689.658 378.672 689.534 378.783 689.418C378.855 689.347 378.931 689.28 379.007 689.217C379.064 689.164 379.124 689.114 379.187 689.069C379.269 689.004 379.356 688.944 379.447 688.89L379.639 688.787C379.735 688.734 379.834 688.686 379.935 688.644V688.644V687.922H380.607V686.494H380.826V684.353H380.956V679.776H379.675V678.669H380.956V677.406H381.207V678.669H382.103L381.476 679.225L382.103 679.776H381.207V684.362H381.333V686.494H381.575V687.909H382.251V688.63C382.354 688.67 382.448 688.724 382.547 688.773L382.735 688.876C382.827 688.929 382.916 688.989 382.999 689.056C383.062 689.101 383.122 689.15 383.179 689.203C383.255 689.266 383.331 689.333 383.403 689.405C383.512 689.522 383.614 689.646 383.707 689.777C383.757 689.844 383.793 689.92 383.837 689.992C383.882 690.063 383.936 690.166 383.981 690.256C384.025 690.346 384.048 690.417 384.079 690.498C384.11 690.578 384.146 690.699 384.173 690.798C384.197 690.877 384.216 690.958 384.232 691.04C384.265 691.215 384.283 691.394 384.285 691.573H384.675V692.088H385.446V693.078H384.675V697.691C385.039 697.851 385.392 698.035 385.732 698.242L385.894 698.34C386.566 698.764 387.179 699.274 387.717 699.858L387.856 700.006C388.379 700.601 388.822 701.262 389.173 701.972C389.209 702.035 389.24 702.102 389.272 702.17C389.612 702.898 389.853 703.67 389.989 704.463C389.989 704.543 390.011 704.619 390.02 704.696C390.082 705.105 390.116 705.518 390.123 705.932H390.903V707.334H393.008V710.021H392.305V720.412H393.008V723.099H390.903V728.868H399.998V727.076H414.334V741.238H419.133V746.613L412.896 756.914H409.76V1006.38H352.386V756.914H349.249L343.013 746.613V741.238L347.829 741.252ZM362.166 735.877H367.879V732.876H362.175L362.166 735.877ZM368.725 735.877H371.261V732.876H368.73L368.725 735.877ZM390.903 735.877H393.438V732.876H390.903V735.877ZM394.294 735.877H399.998V732.876H394.294V735.877ZM362.166 732.021H367.879V729.759H362.175L362.166 732.021ZM368.73 729.737V731.998H371.266V729.737H368.73ZM390.907 731.998H393.443V729.737H390.907V731.998ZM394.299 729.737V731.998H400.002V729.737H394.299Z" fill="#1A987C"/>
<path d="M882.417 1007.62C883.133 992.289 889.729 977.823 900.835 967.227C911.941 956.631 926.704 950.719 942.056 950.719C957.409 950.719 972.171 956.631 983.277 967.227C994.383 977.823 1000.98 992.289 1001.7 1007.62H882.417Z" fill="#A2D4D1"/>
<path d="M426.421 904.088L440.794 908.021L436.717 895.784H435.866V891.306V886.778L444.714 884.359L450.476 882.778V874.309H448.854V870.408H456.412L460.118 865.342L472.712 848.13V838.447H471.439V834.546H482.64L487.707 827.617L488.787 826.144H489.082V819.47H491.771V816.958H493.563V811.444H495.073V802.76L494.988 802.737C494.674 802.691 494.364 802.62 494.06 802.527V802.527C493.763 802.428 493.472 802.31 493.191 802.173L493.07 802.115C492.803 801.984 492.546 801.834 492.299 801.667L492.183 801.577C491.689 801.209 491.252 800.772 490.884 800.279L490.798 800.167C490.624 799.921 490.467 799.664 490.328 799.396C490.328 799.356 490.292 799.316 490.27 799.275C490.131 798.995 490.013 798.704 489.916 798.406V798.406C489.823 798.103 489.752 797.793 489.705 797.479C489.705 797.448 489.705 797.421 489.683 797.39H486.435V795.598H489.696C489.696 795.571 489.696 795.544 489.719 795.513C489.766 795.199 489.836 794.889 489.929 794.586V794.586C490.026 794.288 490.144 793.998 490.283 793.717C490.283 793.677 490.324 793.637 490.341 793.596C490.48 793.329 490.637 793.071 490.812 792.826L490.897 792.709C491.268 792.217 491.707 791.78 492.201 791.411L492.313 791.325C492.558 791.151 492.816 790.994 493.083 790.855L493.204 790.797C493.485 790.658 493.776 790.54 494.074 790.443C494.377 790.35 494.687 790.279 495.001 790.233H495.086V785.588H496.878V790.161H496.968C497.282 790.208 497.592 790.278 497.895 790.371V790.371C498.193 790.468 498.484 790.586 498.765 790.725L498.885 790.784C499.153 790.922 499.41 791.079 499.656 791.254L499.768 791.339C500.263 791.708 500.702 792.147 501.072 792.642L501.157 792.754C501.324 793 501.474 793.258 501.605 793.525C501.605 793.565 501.641 793.605 501.663 793.645C501.8 793.927 501.919 794.217 502.017 794.514C502.11 794.818 502.181 795.128 502.228 795.441C502.228 795.473 502.228 795.5 502.25 795.527H505.498V797.318H502.25C502.25 797.349 502.25 797.376 502.228 797.408C502.181 797.722 502.11 798.031 502.017 798.335V798.335C501.919 798.632 501.8 798.922 501.663 799.204C501.641 799.244 501.623 799.284 501.605 799.325C501.474 799.591 501.324 799.849 501.157 800.095C501.126 800.131 501.099 800.171 501.072 800.207C500.702 800.702 500.263 801.141 499.768 801.51L499.656 801.595C499.41 801.762 499.152 801.912 498.885 802.043L498.765 802.101C498.483 802.239 498.192 802.357 497.895 802.455V802.455C497.592 802.549 497.282 802.619 496.968 802.666L496.878 802.688V811.444H498.361V816.967H500.153V819.479H502.841V826.153H503.137L509.284 834.555H520.785V838.456H519.221V848.139L524.351 855.148L533.948 868.262V832.566H532.013V828.146H533.948V816.949H532.013V812.533H534.185V805.174L538.531 799.97L542.272 805.174V812.537H544.239V782.296H542.375V781.19V779.434H540.713V770.987H542.116V766.177H540.709V763.709H549.105V754.935H548.303V752.275H547.541V747.55H549.535L550.713 743.116L556.811 720.171H556.363V718.285H557.465V716.865C557.392 716.812 557.323 716.754 557.259 716.691C557.237 716.674 557.216 716.656 557.196 716.637C557.074 716.507 556.977 716.355 556.909 716.189L556.86 716.073C556.717 715.726 556.717 715.336 556.86 714.989C556.86 714.953 556.892 714.913 556.909 714.877C556.978 714.712 557.075 714.56 557.196 714.429C557.218 714.412 557.239 714.394 557.259 714.375C557.324 714.315 557.393 714.258 557.465 714.205V713.256H557.841V710.398H558.052V705.588H556.233V705.068H558.052V702.945H558.572V705.068H560.391V705.588H558.572V710.443H558.782V713.3H559.141V714.254C559.213 714.306 559.282 714.363 559.347 714.424C559.366 714.444 559.387 714.462 559.409 714.478C559.53 714.611 559.629 714.762 559.701 714.926L559.745 715.038C559.889 715.385 559.889 715.775 559.745 716.122C559.745 716.162 559.714 716.198 559.701 716.238C559.63 716.403 559.532 716.555 559.409 716.686C559.39 716.705 559.369 716.723 559.347 716.74C559.283 716.804 559.214 716.863 559.141 716.915V718.285H560.243V720.166H559.795L567.066 747.545H569.06V752.27H568.298V754.931H567.496V763.705H575.888V766.172H574.481V770.983H575.888V779.43H574.23V781.185V782.292H572.362V812.528H574.23V805.174L578.549 799.974L582.313 805.174V812.537H584.23V816.953H582.295V828.15H584.23V832.571H582.295V908.71L603.562 914.533V917.395V920.252H591.511V925.206V938.938H592.487V940.931H591.511V958.429L592.944 960.597H593.07L593.124 960.866L601.564 973.595V1005.56H584.45V1005.31H542.281V1005.56H449.679V1005.31H407.524V1005.56H390.409V973.595L398.85 960.866V960.821L398.895 960.597H399.02L400.454 958.429V940.931H399.482V938.938H400.454V925.206V920.198H388.442V917.341V914.479L426.421 904.088ZM497.12 801.076C497.321 801.029 497.519 800.967 497.712 800.892L498.003 800.762C498.166 800.686 498.324 800.601 498.478 800.507L498.733 800.346C498.925 800.21 499.106 800.06 499.275 799.898C499.324 799.853 499.374 799.804 499.419 799.755C499.581 799.585 499.731 799.404 499.867 799.213C499.925 799.128 499.974 799.042 500.028 798.957C500.123 798.804 500.208 798.646 500.283 798.483C500.328 798.389 500.373 798.29 500.413 798.191C500.488 797.999 500.55 797.801 500.597 797.6C500.597 797.529 500.642 797.457 500.655 797.381H496.865V801.143C496.977 801.143 497.048 801.098 497.12 801.08V801.076ZM500.601 795.321C500.554 795.118 500.492 794.919 500.418 794.725C500.377 794.626 500.333 794.532 500.288 794.438C500.212 794.275 500.127 794.116 500.032 793.963C499.978 793.878 499.929 793.789 499.871 793.708C499.735 793.515 499.586 793.333 499.423 793.162L499.28 793.018C499.109 792.857 498.928 792.708 498.738 792.571L498.482 792.409C498.329 792.315 498.17 792.23 498.007 792.154L497.716 792.024C497.524 791.949 497.326 791.887 497.125 791.84C497.053 791.84 496.981 791.796 496.905 791.782V795.558H500.686C500.686 795.558 500.619 795.392 500.601 795.321ZM495.059 791.782C494.983 791.782 494.911 791.823 494.84 791.84C494.637 791.888 494.438 791.949 494.244 792.024L493.957 792.154C493.794 792.229 493.635 792.315 493.482 792.409C493.397 792.463 493.307 792.512 493.227 792.571C493.034 792.706 492.851 792.856 492.68 793.018C492.631 793.063 492.586 793.108 492.541 793.157C492.379 793.328 492.229 793.511 492.093 793.704C492.035 793.784 491.986 793.874 491.932 793.959C491.837 794.112 491.752 794.27 491.677 794.434C491.632 794.528 491.587 794.622 491.547 794.72C491.472 794.915 491.411 795.114 491.363 795.316C491.363 795.388 491.318 795.459 491.305 795.535H495.073V791.76L495.059 791.782ZM491.359 797.605C491.405 797.806 491.467 798.003 491.542 798.196C491.583 798.294 491.627 798.393 491.672 798.487C491.748 798.65 491.833 798.809 491.928 798.962C491.981 799.047 492.03 799.132 492.089 799.217C492.224 799.41 492.374 799.593 492.537 799.763L492.676 799.902C492.847 800.065 493.029 800.215 493.222 800.35C493.303 800.408 493.393 800.458 493.478 800.511C493.631 800.606 493.789 800.691 493.953 800.767L494.239 800.897C494.434 800.971 494.633 801.033 494.835 801.08C494.907 801.08 494.979 801.125 495.055 801.138V797.358H491.278C491.314 797.457 491.341 797.529 491.359 797.6V797.605ZM447.846 909.955L450.476 910.676V906.646L440.781 896.953L444.701 908.701L444.853 909.149L447.846 909.955ZM449.163 900.805L450.476 902.117V895.789H444.15L449.163 900.805ZM533.84 874.309H533.988H533.84ZM543.581 770.992H547.044V769.2V766.168H543.54L543.581 770.992ZM573.079 766.181H569.575V769.214V771.005H573.079V766.181Z" fill="#19817B"/>
<path d="M573.893 989.822C578.118 989.817 582.178 991.459 585.21 994.399C588.241 991.462 592.297 989.82 596.519 989.822C600.676 989.805 604.678 991.401 607.683 994.274C609.947 992.131 612.779 990.684 615.841 990.104C618.904 989.525 622.069 989.836 624.96 991.003C627.85 992.169 630.345 994.14 632.147 996.683C633.949 999.226 634.983 1002.23 635.125 1005.35H557.616C557.814 1001.16 559.615 997.217 562.646 994.326C565.677 991.436 569.704 989.823 573.893 989.822V989.822Z" fill="#A2D4D1"/>
<path d="M187.801 985.485C193.287 985.476 198.559 987.609 202.496 991.428C206.433 987.614 211.701 985.483 217.183 985.485C222.582 985.462 227.78 987.535 231.681 991.267C234.62 988.485 238.297 986.607 242.273 985.853C246.25 985.1 250.358 985.505 254.112 987.019C257.865 988.533 261.104 991.092 263.444 994.393C265.784 997.694 267.127 1001.6 267.312 1005.64H166.668C166.924 1000.21 169.263 995.085 173.198 991.332C177.133 987.58 182.362 985.485 187.801 985.485V985.485Z" fill="#A2D4D1"/>
<path d="M977.423 887.639H979.891V873.817H980.653V839.106H978.18V835.376H978.941C978.94 833.795 979.328 832.238 980.07 830.843C980.812 829.447 981.886 828.255 983.198 827.372C983.455 827.197 983.721 827.036 983.995 826.888C985.407 826.122 986.989 825.721 988.596 825.724H991.173V824.205H992.736C992.805 823.8 992.897 823.399 993.014 823.005C993.045 822.898 993.077 822.79 993.112 822.683C993.239 822.28 993.388 821.885 993.56 821.5C993.601 821.411 993.646 821.317 993.69 821.227C993.856 820.878 994.035 820.537 994.232 820.197C994.277 820.121 994.318 820.04 994.362 819.96C994.591 819.588 994.842 819.22 995.106 818.858L995.353 818.526C995.626 818.177 995.908 817.828 996.213 817.487L996.464 817.218C996.728 816.936 997.001 816.663 997.284 816.39C997.382 816.296 997.476 816.197 997.579 816.108C997.915 815.799 998.265 815.503 998.623 815.212L999.031 814.894C999.389 814.621 999.757 814.348 1000.14 814.092L1000.52 813.846C1000.84 813.64 1001.16 813.443 1001.49 813.25L1001.94 812.99C1002.29 812.798 1002.64 812.61 1003 812.435C1003.25 811.397 1003.76 810.437 1004.47 809.64V809.64C1004.96 809.06 1005.53 808.541 1006.15 808.095L1006.23 808.037C1006.87 807.582 1007.55 807.196 1008.27 806.886L1008.39 806.837C1008.75 806.689 1009.12 806.554 1009.49 806.442C1009.49 806.398 1009.53 806.362 1009.55 806.317C1009.63 806.126 1009.72 805.94 1009.82 805.762C1009.86 805.695 1009.9 805.636 1009.95 805.574C1010.05 805.417 1010.15 805.267 1010.27 805.126C1010.32 805.063 1010.37 805.009 1010.42 804.951C1010.54 804.829 1010.67 804.714 1010.8 804.606C1010.85 804.561 1010.91 804.517 1010.97 804.476C1011.1 804.385 1011.24 804.304 1011.39 804.234C1011.42 804.234 1011.46 804.19 1011.5 804.172V780.927H1012.79V804.136L1012.84 804.167C1013.04 804.247 1013.22 804.351 1013.39 804.476C1013.44 804.517 1013.49 804.57 1013.55 804.615C1013.69 804.732 1013.82 804.858 1013.94 804.991C1014 805.054 1014.05 805.117 1014.1 805.184C1014.22 805.327 1014.34 805.476 1014.44 805.632C1014.48 805.699 1014.53 805.766 1014.57 805.838C1014.67 806.019 1014.77 806.206 1014.85 806.398C1014.85 806.438 1014.9 806.478 1014.91 806.519C1016.1 806.934 1017.21 807.539 1018.2 808.31L1018.25 808.346C1018.85 808.82 1019.4 809.356 1019.9 809.945L1019.99 810.052C1020.41 810.567 1020.76 811.135 1021.03 811.741L1021.08 811.875C1021.19 812.142 1021.28 812.417 1021.34 812.699C1021.68 812.887 1022.03 813.085 1022.36 813.286C1022.52 813.376 1022.66 813.47 1022.81 813.564C1023.14 813.77 1023.47 813.985 1023.78 814.209C1023.92 814.307 1024.07 814.401 1024.21 814.504C1024.57 814.764 1024.91 815.037 1025.26 815.315C1025.4 815.427 1025.54 815.539 1025.67 815.655C1026.02 815.951 1026.36 816.251 1026.68 816.551L1027.04 816.9C1027.31 817.169 1027.57 817.438 1027.83 817.716C1027.94 817.837 1028.05 817.957 1028.16 818.083C1028.42 818.383 1028.66 818.683 1028.9 818.979C1029 819.104 1029.1 819.229 1029.19 819.359C1029.43 819.691 1029.67 820.027 1029.88 820.363C1029.96 820.488 1030.03 820.613 1030.11 820.743C1030.29 821.039 1030.45 821.33 1030.59 821.639C1030.66 821.773 1030.72 821.908 1030.79 822.038C1030.92 822.336 1031.04 822.635 1031.15 822.933C1031.19 823.059 1031.24 823.189 1031.28 823.314C1031.38 823.605 1031.46 823.896 1031.52 824.183H1033.26V825.701H1034.94C1036.55 825.698 1038.13 826.099 1039.55 826.866C1039.82 827.012 1040.09 827.174 1040.34 827.35C1041.65 828.233 1042.73 829.425 1043.47 830.82C1044.21 832.216 1044.6 833.773 1044.6 835.353H1046.11V839.084H1042.87V873.795H1043.38V878.457H1060.85L1073.32 870.579L1096.23 856.094H1105.15L1120.55 829.432H1125.8L1125.11 831.506H1185.35V817.375H1186.14V831.506H1189.64V820.457H1192.74V784.344H1189.21V781.697H1189.65V775.915H1192.76V772.377H1192.18V768.579H1192.78V762.362H1191.94V760.391H1193.06V760.217C1193.06 759.542 1193.25 758.881 1193.61 758.311C1193.97 757.74 1194.49 757.283 1195.1 756.992C1195.1 756.934 1195.1 756.876 1195.1 756.808V756.423C1195.1 756.225 1195.14 756.029 1195.21 755.845C1195.28 755.668 1195.38 755.506 1195.51 755.366V755.366C1195.79 755.075 1196.16 754.894 1196.56 754.86V746.655H1196.5V744.416H1192.76V740.103H1192.61V737.863H1191.84V734.414H1191.62V733.322H1200.49V732.789C1200.49 732.524 1200.49 732.265 1200.49 731.996C1200.49 731.449 1200.5 730.899 1200.53 730.343C1200.53 730.164 1200.55 729.985 1200.56 729.801C1200.58 729.431 1200.61 729.055 1200.64 728.673C1200.64 728.462 1200.68 728.247 1200.71 728.032C1200.74 727.687 1200.78 727.338 1200.83 726.993L1200.92 726.312C1200.97 725.976 1201.02 725.636 1201.08 725.296L1201.2 724.61C1201.27 724.265 1201.34 723.916 1201.41 723.571C1201.46 723.352 1201.5 723.123 1201.55 722.922C1201.64 722.523 1201.74 722.129 1201.84 721.735C1201.88 721.569 1201.92 721.404 1201.97 721.238C1202.11 720.696 1202.27 720.154 1202.42 719.612C1202.48 719.393 1202.56 719.164 1202.63 718.958C1202.74 718.627 1202.84 718.295 1202.96 717.968C1203.07 717.641 1203.14 717.449 1203.24 717.189C1203.33 716.929 1203.44 716.625 1203.55 716.347C1203.66 716.069 1203.77 715.792 1203.88 715.514C1203.99 715.236 1204.09 715.003 1204.2 714.748C1204.3 714.493 1204.44 714.17 1204.57 713.884C1204.7 713.597 1204.78 713.436 1204.89 713.189C1205.03 712.889 1205.17 712.585 1205.32 712.294C1205.41 712.101 1205.51 711.913 1205.61 711.72C1206.24 710.463 1206.93 709.238 1207.66 708.043C1207.69 708.007 1207.71 707.967 1207.74 707.931C1207.96 707.56 1208.18 707.197 1208.44 706.834C1208.52 706.726 1208.58 706.615 1208.65 706.512C1208.89 706.158 1209.13 705.813 1209.38 705.472L1209.61 705.15C1209.86 704.801 1210.12 704.46 1210.38 704.12L1210.58 703.865C1210.86 703.506 1211.14 703.152 1211.43 702.808L1211.51 702.713C1213.14 700.764 1214.95 698.98 1216.92 697.388H1216.95C1217.33 697.084 1217.72 696.788 1218.11 696.492L1218.16 696.457C1220.51 694.718 1223.11 693.358 1225.88 692.426C1226.38 692.206 1226.89 692.018 1227.41 691.843H1227.45C1227.96 691.673 1228.48 691.53 1229 691.396V690.401H1228.44V688.543H1228.93V687.199H1227.36L1225.97 684.48H1228.81V677.825H1227.55V677.086H1227.82V675.42H1228.81V674.891V672.607H1230.25C1230.41 672.382 1230.6 672.178 1230.81 671.998L1230.86 671.958C1231.07 671.782 1231.3 671.632 1231.55 671.51V668.979H1232.44V664.245H1232.97V656.138C1232.94 656.13 1232.9 656.116 1232.87 656.098C1232.82 656.086 1232.77 656.069 1232.73 656.049C1232.67 656.014 1232.61 655.973 1232.56 655.928L1232.45 655.838C1232.4 655.778 1232.36 655.712 1232.32 655.641C1232.3 655.61 1232.28 655.577 1232.26 655.543C1232.21 655.429 1232.19 655.307 1232.19 655.184V655.184V653.729C1232.19 653.606 1232.21 653.484 1232.26 653.371C1232.28 653.336 1232.3 653.303 1232.32 653.272C1232.36 653.201 1232.4 653.135 1232.45 653.075C1232.48 653.039 1232.52 653.017 1232.55 652.985C1232.61 652.94 1232.67 652.9 1232.74 652.864C1232.78 652.844 1232.82 652.826 1232.87 652.811C1232.9 652.811 1232.93 652.779 1232.97 652.77V651.297H1233.36V652.77C1233.4 652.77 1233.43 652.802 1233.47 652.811L1233.6 652.864C1233.66 652.898 1233.72 652.939 1233.78 652.985C1233.82 653.013 1233.85 653.043 1233.88 653.075C1233.93 653.134 1233.98 653.201 1234.01 653.272C1234.04 653.302 1234.06 653.335 1234.07 653.371C1234.12 653.484 1234.14 653.606 1234.15 653.729V655.184C1234.14 655.308 1234.12 655.429 1234.07 655.543C1234.06 655.578 1234.04 655.611 1234.01 655.641C1233.98 655.713 1233.93 655.779 1233.88 655.838L1233.78 655.928C1233.72 655.974 1233.66 656.015 1233.6 656.049C1233.56 656.07 1233.51 656.086 1233.47 656.098C1233.43 656.115 1233.4 656.129 1233.36 656.138V664.245H1233.91V668.979H1234.81V671.496C1235.05 671.618 1235.28 671.769 1235.49 671.944L1235.54 671.984C1235.75 672.165 1235.94 672.37 1236.1 672.594H1237.4V674.882H1237.54V675.415H1238.17V677.086H1238.43V677.82H1237.53V684.467H1240L1238.61 687.185H1237.05V688.529H1237.53V690.388H1236.88V691.382C1237.39 691.508 1237.91 691.651 1238.42 691.83H1238.46C1238.98 692.005 1239.49 692.193 1239.99 692.412C1242.76 693.345 1245.36 694.705 1247.7 696.443L1247.76 696.488C1248.15 696.77 1248.54 697.066 1248.92 697.384L1248.95 697.411C1250.92 699.001 1252.72 700.78 1254.33 702.722C1254.36 702.758 1254.39 702.79 1254.42 702.825C1254.71 703.17 1254.99 703.524 1255.27 703.878L1255.47 704.142C1255.73 704.478 1255.99 704.819 1256.24 705.168L1256.47 705.49C1256.71 705.831 1256.96 706.176 1257.19 706.529C1257.26 706.632 1257.34 706.744 1257.4 706.852C1257.65 707.21 1257.88 707.573 1258.11 707.945C1258.14 707.986 1258.17 708.03 1258.19 708.075C1258.92 709.262 1259.61 710.489 1260.24 711.743L1260.53 712.307C1260.68 712.607 1260.82 712.912 1260.98 713.203C1261.08 713.431 1261.19 713.651 1261.29 713.893C1261.4 714.134 1261.55 714.47 1261.67 714.757C1261.79 715.044 1261.88 715.268 1261.99 715.523C1262.09 715.778 1262.21 716.078 1262.32 716.356C1262.43 716.634 1262.52 716.911 1262.63 717.189C1262.73 717.467 1262.82 717.717 1262.91 717.982C1263 718.246 1263.13 718.627 1263.23 718.949C1263.3 719.173 1263.38 719.397 1263.45 719.625C1263.61 720.163 1263.77 720.705 1263.9 721.242C1263.94 721.417 1263.98 721.592 1264.03 721.766C1264.12 722.151 1264.22 722.537 1264.31 722.926C1264.36 723.146 1264.4 723.374 1264.45 723.589C1264.52 723.93 1264.59 724.274 1264.66 724.615C1264.7 724.848 1264.74 725.063 1264.78 725.309C1264.84 725.646 1264.89 725.982 1264.94 726.317C1264.97 726.545 1265.01 726.765 1265.03 727.007C1265.08 727.347 1265.12 727.692 1265.15 728.032C1265.15 728.252 1265.2 728.48 1265.22 728.686C1265.25 729.058 1265.28 729.43 1265.3 729.797C1265.3 729.985 1265.32 730.169 1265.33 730.357C1265.33 730.903 1265.37 731.445 1265.37 731.982V732.005C1265.37 732.453 1265.37 732.901 1265.34 733.348H1274.23V734.414H1274V737.868H1273.11V740.107H1273.06V744.42H1269.26V754.833C1269.69 754.834 1270.1 755.005 1270.4 755.307C1270.7 755.609 1270.87 756.018 1270.88 756.446V756.808C1270.88 756.882 1270.88 756.955 1270.88 757.028C1271.47 757.325 1271.97 757.78 1272.31 758.343C1272.66 758.906 1272.85 759.555 1272.85 760.217V760.391H1274V762.349H1273.08V768.592H1273.66V772.39H1273.08V775.928H1276.19V778.168V781.751H1276.64V784.398H1273.1V789.325V820.51H1276.21V822.468V823.964V831.577H1279.98V817.447H1280.76V831.577H1340.9L1340.21 829.504H1345.28L1360.66 856.117H1369.58L1397.32 873.651L1404.93 878.48H1423.88V873.817H1424.38V839.106H1421.15V835.376H1422.65C1422.65 835.044 1422.65 834.713 1422.7 834.39C1422.84 833.051 1423.25 831.755 1423.92 830.587C1424.59 829.419 1425.5 828.404 1426.59 827.609C1426.94 827.343 1427.32 827.102 1427.7 826.888C1427.98 826.74 1428.26 826.602 1428.55 826.481C1429.12 826.236 1429.72 826.048 1430.34 825.921C1430.65 825.853 1430.97 825.804 1431.3 825.773C1431.62 825.742 1431.95 825.724 1432.28 825.724H1433.98V824.205H1435.71C1435.78 823.919 1435.86 823.628 1435.95 823.337C1435.99 823.211 1436.04 823.081 1436.09 822.951C1436.19 822.66 1436.31 822.369 1436.44 822.056C1436.51 821.921 1436.57 821.787 1436.64 821.648C1436.79 821.357 1436.95 821.061 1437.13 820.752C1437.2 820.622 1437.27 820.497 1437.35 820.372C1437.57 820.036 1437.8 819.7 1438.04 819.368L1438.34 818.988C1438.57 818.689 1438.81 818.39 1439.07 818.092L1439.41 817.716C1439.66 817.442 1439.93 817.174 1440.19 816.909L1440.55 816.556C1440.88 816.251 1441.21 815.951 1441.56 815.66L1441.98 815.315C1442.32 815.043 1442.67 814.775 1443.03 814.509L1443.45 814.209C1443.77 813.989 1444.09 813.761 1444.42 813.568L1444.87 813.291C1445.21 813.089 1445.55 812.892 1445.9 812.704C1445.96 812.422 1446.05 812.146 1446.16 811.88L1446.21 811.745C1446.48 811.138 1446.83 810.57 1447.26 810.057L1447.34 809.949C1447.83 809.361 1448.39 808.826 1448.99 808.35L1449.04 808.315C1450.03 807.542 1451.14 806.936 1452.33 806.523C1452.34 806.481 1452.37 806.441 1452.39 806.402C1452.47 806.209 1452.57 806.022 1452.67 805.842C1452.71 805.771 1452.76 805.704 1452.8 805.636C1452.91 805.475 1453.02 805.323 1453.13 805.188L1453.29 804.996C1453.42 804.862 1453.55 804.737 1453.69 804.62C1453.74 804.575 1453.8 804.521 1453.85 804.481C1454.02 804.353 1454.2 804.249 1454.4 804.172L1454.45 804.14V780.922H1455.74V804.167C1455.78 804.167 1455.81 804.212 1455.85 804.23C1456 804.299 1456.14 804.38 1456.27 804.472L1456.44 804.602C1456.57 804.71 1456.69 804.825 1456.81 804.947C1456.87 805.005 1456.91 805.059 1456.96 805.121C1457.08 805.264 1457.19 805.414 1457.29 805.569C1457.33 805.632 1457.38 805.69 1457.41 805.757C1457.52 805.937 1457.61 806.122 1457.69 806.313C1457.69 806.357 1457.73 806.393 1457.75 806.438C1458.12 806.551 1458.49 806.682 1458.85 806.832L1458.97 806.881C1459.69 807.192 1460.37 807.578 1461.01 808.032L1461.09 808.091C1461.71 808.541 1462.27 809.059 1462.78 809.636V809.636C1463.48 810.435 1463.99 811.396 1464.24 812.435C1464.59 812.61 1464.95 812.798 1465.3 812.99L1465.75 813.25C1466.07 813.443 1466.4 813.64 1466.71 813.846C1466.84 813.927 1466.97 814.007 1467.09 814.092C1467.47 814.348 1467.84 814.621 1468.21 814.894L1468.61 815.212C1468.97 815.503 1469.32 815.799 1469.65 816.108C1469.76 816.197 1469.85 816.296 1469.95 816.39C1470.23 816.663 1470.51 816.936 1470.77 817.218L1471.02 817.487C1471.33 817.828 1471.61 818.177 1471.88 818.531L1472.13 818.853C1472.39 819.221 1472.64 819.588 1472.87 819.964C1472.92 820.04 1472.96 820.116 1473 820.197C1473.2 820.537 1473.38 820.882 1473.55 821.227C1473.59 821.317 1473.64 821.411 1473.68 821.5C1473.85 821.89 1473.99 822.284 1474.12 822.683L1474.22 823.001C1474.34 823.396 1474.43 823.799 1474.5 824.205H1476.06V825.724H1478.64C1481.03 825.724 1483.33 826.611 1485.11 828.212C1486.88 829.812 1488 832.014 1488.25 834.39C1488.28 834.713 1488.29 835.044 1488.29 835.376H1489.04V839.106H1486.57V873.817H1487.33V887.639H1489.8L1500.45 895.508V900.69H1495.52V906.329V909.607V911.936V917.203V919.532V924.799V927.128V932.377V934.711V939.991V942.32V947.605V949.934V955.201V957.53V962.103V964.437V968.468V1006.9H971.773V968.468V964.437V962.103V957.53V955.201V949.934V947.605V942.32V939.991V934.729V932.377V927.115V924.786V919.519V917.19V911.923V909.594V906.315V900.676H966.845V895.494L977.423 887.639ZM1231.8 677.825V684.471H1234.52V677.825H1231.8ZM1230.3 684.471H1231.06V677.825H1230.28L1230.3 684.471ZM1235.23 677.825V684.471H1235.99V677.825H1235.23Z" fill="#1A987C"/>
<path d="M948.752 990.267C952.977 990.26 957.038 991.903 960.07 994.844C963.099 991.906 967.156 990.263 971.378 990.267C975.536 990.249 979.539 991.845 982.543 994.719C984.806 992.577 987.638 991.13 990.7 990.55C993.762 989.97 996.927 990.281 999.817 991.447C1002.71 992.613 1005.2 994.584 1007 997.126C1008.81 999.668 1009.84 1002.67 1009.98 1005.79H932.476C932.674 1001.6 934.475 997.659 937.506 994.769C940.537 991.879 944.564 990.267 948.752 990.267V990.267Z" fill="url(#paint2_linear_6270_27215)"/>
<path d="M619.916 990.949H620.66V971.735H618.42L626.614 967.503H628.209V961.018H627.649V959.674H628.966V955.338H629.665V931.887H635.539V930.454H634.257V928.613H635.539V924.721H632.6V917.246H637.586V909.749H638.679V905.843H639.598C639.598 905.812 639.638 905.785 639.656 905.758C639.75 905.619 639.853 905.489 639.956 905.36C640.059 905.23 640.118 905.158 640.203 905.059C640.288 904.961 640.422 904.827 640.539 904.71C640.655 904.594 640.731 904.522 640.834 904.437C640.937 904.352 641.072 904.235 641.197 904.137C641.323 904.038 641.426 903.971 641.547 903.891C641.668 903.81 641.793 903.725 641.923 903.649C642.053 903.572 642.196 903.505 642.335 903.434C642.474 903.362 642.586 903.308 642.716 903.255C642.846 903.201 643.034 903.134 643.2 903.08C643.366 903.026 643.442 902.995 643.567 902.959C643.693 902.923 643.953 902.869 644.15 902.834C644.257 902.834 644.356 902.789 644.463 902.775C645.087 902.686 645.721 902.686 646.345 902.775C646.453 902.775 646.556 902.816 646.659 902.834C646.856 902.869 647.053 902.905 647.246 902.959C647.371 902.995 647.488 903.04 647.613 903.08C647.739 903.12 647.936 903.187 648.092 903.255C648.249 903.322 648.348 903.371 648.473 903.434C648.599 903.496 648.751 903.572 648.886 903.649C649.02 903.725 649.141 903.805 649.262 903.891C649.383 903.976 649.499 904.052 649.616 904.141C649.732 904.231 649.858 904.334 649.974 904.437C650.091 904.54 650.176 904.616 650.27 904.71C650.364 904.804 650.498 904.939 650.606 905.059C650.713 905.18 650.772 905.257 650.852 905.36C650.933 905.463 651.058 905.619 651.153 905.758C651.153 905.79 651.197 905.812 651.215 905.843H652.134V909.749H656.811V907.509H658.182L658.039 907.447L657.756 907.33C657.633 907.272 657.514 907.206 657.398 907.133C657.317 907.084 657.237 907.039 657.156 906.985C656.998 906.877 656.849 906.757 656.708 906.627L656.56 906.484C656.425 906.343 656.3 906.193 656.184 906.036C656.139 905.973 656.099 905.901 656.058 905.834C655.978 905.7 655.902 905.566 655.834 905.427C655.767 905.288 655.767 905.27 655.736 905.189C655.679 905.043 655.631 904.894 655.592 904.741C655.592 904.67 655.552 904.598 655.539 904.522C655.49 904.283 655.465 904.04 655.463 903.796C655.466 903.557 655.49 903.319 655.534 903.084C655.534 903.013 655.565 902.945 655.583 902.878C655.623 902.712 655.674 902.549 655.736 902.39C655.763 902.323 655.785 902.26 655.812 902.198C655.9 901.994 656.007 901.799 656.13 901.615V901.615C656.266 901.431 656.415 901.257 656.578 901.096C656.627 901.046 656.677 900.997 656.73 900.952C656.849 900.839 656.974 900.735 657.107 900.639L657.281 900.513C657.459 900.396 657.646 900.294 657.841 900.209H657.886H657.756V897.338H658.841L658.912 897.244C659.024 897.078 659.145 896.926 659.266 896.769C659.387 896.612 659.454 896.532 659.557 896.415C659.66 896.299 659.817 896.138 659.956 896.003C660.095 895.869 660.185 895.784 660.306 895.676C660.427 895.569 660.583 895.439 660.731 895.327C660.879 895.215 661.005 895.125 661.148 895.031C661.291 894.937 661.439 894.839 661.596 894.749C661.753 894.66 661.919 894.575 662.084 894.494C662.25 894.413 662.38 894.346 662.532 894.279C662.685 894.212 662.909 894.14 663.101 894.073C663.294 894.006 663.388 893.97 663.549 893.93C663.777 893.87 664.007 893.822 664.239 893.786C664.365 893.759 664.486 893.728 664.611 893.71C665.354 893.607 666.108 893.607 666.851 893.71C666.981 893.71 667.102 893.759 667.228 893.786C667.46 893.822 667.69 893.87 667.918 893.93C668.066 893.97 668.209 894.024 668.366 894.073C668.523 894.122 668.751 894.203 668.935 894.279C669.118 894.355 669.235 894.418 669.383 894.494C669.531 894.57 669.71 894.655 669.867 894.749C670.023 894.843 670.167 894.933 670.315 895.031C670.463 895.13 670.592 895.224 670.727 895.327C670.861 895.43 671.018 895.555 671.175 895.676C671.332 895.797 671.412 895.891 671.524 896.003C671.636 896.115 671.793 896.272 671.923 896.415L672.214 896.769C672.335 896.926 672.456 897.078 672.568 897.244L672.64 897.338H673.724V900.137H673.594H673.634C673.83 900.222 674.017 900.324 674.194 900.442C674.255 900.48 674.314 900.522 674.369 900.567C674.503 900.663 674.63 900.768 674.75 900.881C674.804 900.925 674.855 900.973 674.902 901.024C675.068 901.183 675.218 901.357 675.35 901.544V901.544C675.47 901.73 675.577 901.924 675.668 902.126C675.695 902.189 675.718 902.251 675.745 902.318C675.805 902.478 675.856 902.641 675.897 902.807C675.917 902.874 675.932 902.943 675.942 903.013C675.99 903.247 676.015 903.486 676.018 903.725C676.016 903.969 675.99 904.211 675.942 904.45C675.942 904.526 675.906 904.598 675.888 904.674C675.849 904.826 675.801 904.976 675.745 905.122C675.713 905.203 675.677 905.279 675.642 905.36C675.577 905.499 675.504 905.633 675.422 905.763C675.377 905.834 675.342 905.906 675.292 905.973C675.178 906.132 675.052 906.281 674.916 906.421C674.87 906.472 674.821 906.52 674.768 906.564C674.628 906.695 674.479 906.815 674.32 906.923C674.244 906.976 674.163 907.021 674.082 907.07C673.966 907.142 673.847 907.208 673.724 907.268L673.442 907.384L673.298 907.447H674.642V909.686H679.212V905.781H680.109C680.131 905.753 680.152 905.725 680.171 905.695C680.265 905.557 680.368 905.427 680.471 905.297C680.574 905.167 680.633 905.095 680.718 904.997C680.803 904.898 680.937 904.759 681.054 904.647C681.17 904.535 681.247 904.459 681.35 904.374C681.453 904.289 681.587 904.173 681.712 904.074C681.838 903.976 681.941 903.908 682.062 903.828C682.183 903.747 682.308 903.662 682.438 903.586C682.568 903.51 682.712 903.443 682.85 903.371C682.989 903.299 683.101 903.246 683.231 903.192C683.361 903.138 683.549 903.071 683.715 903.017L684.078 902.896C684.271 902.842 684.468 902.807 684.665 902.771C684.772 902.771 684.871 902.726 684.979 902.713C685.29 902.668 685.605 902.645 685.92 902.645V902.645C686.234 902.645 686.549 902.668 686.86 902.713C686.968 902.713 687.071 902.753 687.174 902.771C687.371 902.807 687.568 902.842 687.761 902.896L688.128 903.017C688.289 903.071 688.451 903.125 688.608 903.192C688.765 903.259 688.863 903.308 688.988 903.371C689.114 903.434 689.266 903.51 689.401 903.586C689.535 903.662 689.652 903.743 689.777 903.828C689.902 903.913 690.014 903.989 690.126 904.074C690.238 904.159 690.373 904.271 690.489 904.374C690.606 904.477 690.691 904.553 690.785 904.647C690.879 904.741 691.014 904.876 691.121 904.997C691.229 905.118 691.287 905.194 691.367 905.297C691.448 905.4 691.573 905.557 691.668 905.695L691.73 905.781H692.626V909.686H693.858V910.886H761.013L778.598 898.906L796.179 910.886H863.285V909.991H864.378V906.081H865.274L865.337 906C865.431 905.861 865.534 905.731 865.637 905.601C865.74 905.472 865.798 905.4 865.883 905.301C865.968 905.203 866.103 905.064 866.219 904.952C866.336 904.84 866.412 904.764 866.515 904.674C866.618 904.585 866.752 904.473 866.878 904.379C867.003 904.285 867.106 904.209 867.227 904.132C867.348 904.056 867.474 903.967 867.604 903.891C867.734 903.814 867.877 903.743 868.016 903.676C868.155 903.608 868.267 903.55 868.397 903.496C868.527 903.443 868.715 903.375 868.88 903.322C869.046 903.268 869.122 903.232 869.248 903.201C869.373 903.169 869.633 903.111 869.83 903.075L870.144 903.013C870.768 902.929 871.401 902.929 872.026 903.013L872.339 903.075C872.536 903.111 872.734 903.147 872.926 903.201C873.119 903.255 873.168 903.281 873.294 903.322C873.419 903.362 873.616 903.429 873.773 903.496C873.93 903.564 874.028 903.613 874.154 903.676C874.279 903.738 874.432 903.814 874.566 903.891C874.7 903.967 874.821 904.047 874.942 904.132C875.063 904.217 875.18 904.294 875.296 904.379C875.413 904.464 875.538 904.571 875.655 904.674C875.771 904.777 875.856 904.858 875.95 904.952C876.044 905.046 876.179 905.18 876.286 905.301C876.394 905.422 876.452 905.498 876.533 905.601C876.613 905.704 876.739 905.861 876.833 906L876.896 906.081H877.792V909.991H882.505V907.751H883.876L883.733 907.689C883.634 907.653 883.544 907.612 883.45 907.568C883.327 907.511 883.207 907.446 883.092 907.375C883.009 907.329 882.928 907.278 882.85 907.223C882.692 907.116 882.543 906.997 882.402 906.869L882.254 906.726C882.119 906.584 881.994 906.435 881.878 906.278C881.833 906.211 881.793 906.143 881.752 906.072C881.67 905.94 881.595 905.804 881.528 905.664C881.492 905.588 881.461 905.512 881.43 905.431C881.373 905.285 881.325 905.135 881.286 904.983C881.264 904.912 881.246 904.84 881.228 904.764C881.181 904.525 881.157 904.282 881.156 904.038C881.157 903.799 881.181 903.561 881.228 903.326C881.228 903.255 881.259 903.187 881.277 903.12C881.316 902.954 881.367 902.791 881.43 902.632C881.452 902.565 881.479 902.502 881.506 902.439C881.593 902.237 881.698 902.042 881.819 901.857V901.835C881.954 901.649 882.104 901.475 882.268 901.315C882.313 901.264 882.363 901.216 882.415 901.172C882.535 901.057 882.662 900.951 882.796 900.854L882.971 900.733C883.149 900.616 883.336 900.514 883.531 900.428C883.546 900.426 883.561 900.426 883.576 900.428H883.446V897.45H884.53C884.552 897.419 884.579 897.387 884.602 897.351C884.714 897.19 884.835 897.038 884.956 896.904C885.077 896.769 885.144 896.666 885.247 896.55C885.35 896.433 885.507 896.272 885.646 896.138C885.785 896.003 885.874 895.914 885.995 895.811C886.116 895.708 886.273 895.573 886.443 895.461C886.613 895.349 886.716 895.26 886.86 895.166C887.003 895.072 887.151 894.973 887.308 894.884C887.465 894.794 887.63 894.709 887.796 894.628C887.962 894.548 888.092 894.481 888.244 894.413C888.397 894.346 888.621 894.27 888.813 894.207C889.006 894.145 889.1 894.104 889.261 894.064C889.485 894.001 889.709 893.961 889.947 893.916C890.072 893.916 890.198 893.862 890.323 893.845C891.066 893.741 891.82 893.741 892.563 893.845C892.693 893.845 892.814 893.894 892.94 893.916C893.173 893.961 893.388 894.001 893.63 894.064C893.777 894.104 893.921 894.158 894.078 894.207C894.234 894.257 894.463 894.337 894.647 894.413C894.83 894.489 894.947 894.552 895.095 894.628C895.242 894.704 895.422 894.79 895.578 894.884C895.735 894.978 895.879 895.067 896.026 895.166C896.174 895.264 896.304 895.358 896.439 895.461C896.573 895.564 896.73 895.69 896.887 895.811C897.044 895.932 897.124 896.026 897.236 896.138C897.348 896.25 897.505 896.406 897.635 896.55C897.765 896.693 897.827 896.783 897.922 896.904C898.016 897.025 898.168 897.213 898.276 897.351L898.352 897.45H899.436V900.316H899.306H899.346C899.542 900.401 899.729 900.503 899.906 900.621L900.081 900.742C900.215 900.839 900.342 900.945 900.462 901.06C900.516 901.104 900.567 901.152 900.614 901.203C900.779 901.362 900.929 901.536 901.062 901.723V901.745C901.183 901.931 901.29 902.125 901.38 902.327C901.407 902.39 901.43 902.453 901.457 902.52C901.517 902.679 901.568 902.842 901.609 903.008C901.609 903.075 901.64 903.143 901.654 903.214C901.702 903.449 901.727 903.687 901.73 903.926C901.727 904.17 901.702 904.413 901.654 904.652C901.654 904.728 901.618 904.8 901.6 904.871C901.561 905.023 901.513 905.173 901.457 905.319C901.425 905.4 901.389 905.476 901.354 905.552C901.29 905.693 901.217 905.829 901.134 905.96C901.089 906.031 901.053 906.099 901.004 906.166C900.889 906.324 900.764 906.474 900.628 906.614C900.583 906.663 900.534 906.708 900.484 906.757C900.342 906.884 900.193 907.002 900.036 907.111C899.96 907.166 899.881 907.216 899.799 907.263C899.683 907.333 899.563 907.398 899.44 907.456L899.158 907.577L899.015 907.639H900.381V909.879H904.96V905.969H905.856L905.919 905.888C906.013 905.749 906.116 905.619 906.219 905.489C906.322 905.36 906.38 905.288 906.465 905.189C906.551 905.091 906.685 904.952 906.802 904.84C906.918 904.728 906.994 904.652 907.097 904.562C907.2 904.473 907.335 904.361 907.456 904.267C907.577 904.173 907.689 904.097 907.81 904.02C907.931 903.944 908.056 903.855 908.186 903.779C908.316 903.702 908.459 903.631 908.598 903.564C908.737 903.496 908.849 903.438 908.979 903.384C909.109 903.331 909.297 903.263 909.463 903.21C909.629 903.156 909.7 903.12 909.826 903.089C909.951 903.057 910.216 902.999 910.413 902.963L910.726 902.901C911.038 902.859 911.352 902.839 911.667 902.838V902.838C911.982 902.839 912.296 902.859 912.608 902.901L912.922 902.963C913.119 902.999 913.316 903.035 913.504 903.089C913.692 903.143 913.75 903.169 913.876 903.21C914.001 903.25 914.198 903.317 914.355 903.384C914.512 903.452 914.611 903.501 914.736 903.564C914.862 903.626 915.014 903.702 915.148 903.779C915.283 903.855 915.399 903.935 915.525 904.02C915.65 904.106 915.762 904.182 915.874 904.267C915.986 904.352 916.121 904.459 916.237 904.562C916.353 904.665 916.439 904.746 916.533 904.84C916.627 904.934 916.761 905.068 916.869 905.189C916.976 905.31 917.034 905.386 917.115 905.489C917.196 905.592 917.321 905.749 917.415 905.888L917.478 905.969H918.374V909.879H919.606V917.161H924.588V924.614H921.654V928.506H922.939V930.347H921.658V931.78H927.532V955.231H927.98V959.566H929.534V960.91H928.795V967.395H930.766L938.961 971.628H936.528V990.842H937.012V1000.57H938.101V1006.08H618.729V1000.57H619.907L619.916 990.949Z" fill="#19817B"/>
<path d="M272.849 1005.29C273.376 993.292 278.515 981.958 287.196 973.652C295.876 965.347 307.428 960.711 319.444 960.711C331.46 960.711 343.012 965.347 351.693 973.652C360.373 981.958 365.513 993.292 366.039 1005.29H272.849Z" fill="url(#paint3_linear_6270_27215)"/>
<path d="M319.445 1005.29H272.85C273.427 993.323 278.586 982.035 287.26 973.765C295.935 965.494 307.459 960.876 319.445 960.867V1005.29Z" fill="#A2D4D1"/>
<path d="M379.733 995.086C381.793 997.055 384.533 998.153 387.383 998.153C390.233 998.153 392.973 997.055 395.033 995.086C397.075 997.011 399.776 998.083 402.582 998.083C405.389 998.083 408.09 997.011 410.132 995.086C412.961 995.085 415.683 996.171 417.734 998.12C419.784 1000.07 421.007 1002.73 421.148 1005.56H368.729C368.872 1002.73 370.093 1000.07 372.14 998.126C374.188 996.178 376.906 995.089 379.733 995.086V995.086Z" fill="#D9EED4"/>
<path d="M636.014 994.867C638.074 996.836 640.814 997.935 643.664 997.935C646.514 997.935 649.254 996.836 651.314 994.867C653.356 996.792 656.057 997.864 658.863 997.864C661.67 997.864 664.371 996.792 666.413 994.867C669.242 994.866 671.964 995.952 674.015 997.901C676.066 999.851 677.288 1002.51 677.43 1005.34H625.01C625.153 1002.52 626.374 999.856 628.421 997.907C630.469 995.959 633.187 994.87 636.014 994.867V994.867Z" fill="#D9EED4"/>
<path d="M889.303 995.008C891.363 996.976 894.103 998.075 896.953 998.075C899.803 998.075 902.543 996.976 904.603 995.008C906.646 996.932 909.348 998.004 912.155 998.004C914.962 998.004 917.663 996.932 919.706 995.008C922.535 995.007 925.257 996.093 927.307 998.042C929.357 999.992 930.578 1002.65 930.719 1005.48H878.3C878.44 1002.66 879.66 999.995 881.708 998.046C883.756 996.097 886.475 995.009 889.303 995.008V995.008Z" fill="#D9EED4"/>
<path d="M1000.69 995.008C1002.75 996.976 1005.49 998.075 1008.34 998.075C1011.19 998.075 1013.93 996.976 1015.99 995.008C1018.04 996.933 1020.74 998.005 1023.54 998.005C1026.35 998.005 1029.05 996.933 1031.09 995.008C1033.92 995.005 1036.64 996.092 1038.7 998.041C1040.75 999.99 1041.97 1002.65 1042.11 1005.48H989.69C989.831 1002.66 991.052 999.996 993.1 998.047C995.148 996.098 997.866 995.01 1000.69 995.008V995.008Z" fill="#D9EED4"/>
<path d="M1073.33 1005.2C1073.7 997.212 1077.14 989.67 1082.93 984.146C1088.71 978.621 1096.41 975.539 1104.41 975.539C1112.42 975.539 1120.11 978.621 1125.9 984.146C1131.69 989.67 1135.13 997.212 1135.5 1005.2H1073.33Z" fill="url(#paint4_linear_6270_27215)"/>
<path d="M1104.41 1005.2H1073.32C1073.7 997.213 1077.14 989.676 1082.93 984.154C1088.72 978.632 1096.41 975.547 1104.41 975.539V1005.2Z" fill="#A2D4D1"/>
<path d="M1089.44 966.274C1090.98 942.922 1117.53 949.255 1117.96 948.395C1118.4 947.535 1095.88 941.82 1096.25 941.507C1118.23 922.436 1126.07 946.384 1126.27 944.055C1127.62 930.283 1143.48 928.773 1143.48 928.773C1143.48 928.773 1130.86 945.448 1134.91 943.056C1157.67 929.62 1167.97 953.232 1165.73 952.301C1157.12 948.744 1135.09 953.384 1136.46 953.644C1156.4 957.348 1158.36 980.911 1158.36 980.911C1146.55 978.654 1136.05 971.942 1129.05 962.163C1130.36 973.315 1132.24 991.065 1133.21 1008.66L1125.14 1010.45L1124.74 967.457C1124.69 967.864 1124.62 968.281 1124.56 968.706C1122.18 983.934 1108.41 994.652 1107.84 993.394C1097.31 968.921 1118.76 958.719 1118.18 958.678C1111.39 958.222 1089.43 966.592 1089.44 966.274Z" fill="#D9EED4"/>
<path d="M928.917 880.395C934.53 882.527 915.028 864.271 915.028 864.271C915.028 864.271 935.368 862.731 940.028 879.777C940.798 882.661 945.516 850.804 977.393 870.089C977.922 870.407 950.758 882.496 951.466 883.468C952.174 884.439 984.329 870.712 991.304 899.77C991.416 900.191 961.882 894.396 953.419 896.384C952.698 896.573 981.958 904.76 973.975 937.898C973.527 939.591 953.813 929.053 947.541 910.403C947.268 909.579 947.012 908.791 946.766 908.02L945.785 1007.63L933.858 1005.87C935.973 959.253 940.785 911.693 942.071 899.457C939.028 907.165 929.929 924.538 907.483 933.142C907.483 933.142 904.871 903.026 929.239 894.069C930.91 893.442 902.093 892.376 892.012 898.713C889.4 900.366 897.295 868.365 928.917 880.395ZM943.701 897.038C943.491 896.143 943.388 895.61 943.388 895.61C943.388 895.61 943.289 896.013 943.061 896.738L943.701 897.038Z" fill="#D9EED4"/>
<path d="M256.325 902.945C256.325 902.945 264.389 955.267 268.547 1006.67L255.845 1009.36L251.638 905.283L256.325 902.945Z" fill="#D9EED4"/>
<path d="M305.552 953.928C305.552 953.928 306.592 913.547 273.384 903.591C271.103 902.887 309.419 899.139 323.384 906.77C327.017 908.755 313.899 866.748 272.725 885.339C265.409 888.654 289.929 862.704 289.929 862.704C289.929 862.704 262.685 862.305 257.851 885.425C257.062 889.326 248.178 847.234 207.25 875.522C206.574 876.001 243.774 889.912 242.895 891.269C242.017 892.626 198.043 876.937 191.117 916.23C191 916.812 229.894 906.685 241.354 908.647C242.331 908.844 203.984 922.124 217.318 965.662C218.043 967.902 243.464 952.226 250.333 926.867C253.563 914.805 254.652 906.788 254.652 906.788C254.652 906.788 265.485 941.333 305.552 953.928Z" fill="#D9EED4"/>
<path d="M268.537 995.086C270.598 997.055 273.338 998.153 276.188 998.153C279.038 998.153 281.778 997.055 283.838 995.086C285.88 997.011 288.58 998.083 291.387 998.083C294.194 998.083 296.894 997.011 298.936 995.086C301.766 995.085 304.488 996.171 306.538 998.12C308.589 1000.07 309.812 1002.73 309.953 1005.56H257.534C257.676 1002.73 258.897 1000.07 260.945 998.126C262.993 996.178 265.71 995.089 268.537 995.086V995.086Z" fill="#D9EED4"/>
<path d="M0 1006H1445V1013H0V1006Z" fill="#19817B"/>
</g>
<defs>
<linearGradient id="paint0_linear_6270_27215" x1="1134.05" y1="434.457" x2="788.48" y2="458.397" gradientUnits="userSpaceOnUse">
<stop stop-color="#78BC6D"/>
<stop offset="1" stop-color="#0CA3AC"/>
</linearGradient>
<linearGradient id="paint1_linear_6270_27215" x1="496.588" y1="660.601" x2="348.919" y2="667.724" gradientUnits="userSpaceOnUse">
<stop stop-color="#78BC6D"/>
<stop offset="1" stop-color="#0CA3AC"/>
</linearGradient>
<linearGradient id="paint2_linear_6270_27215" x1="1008.15" y1="991.293" x2="950.395" y2="1028.32" gradientUnits="userSpaceOnUse">
<stop stop-color="#78BC6D"/>
<stop offset="1" stop-color="#0CA3AC"/>
</linearGradient>
<linearGradient id="paint3_linear_6270_27215" x1="363.832" y1="963.661" x2="272.429" y2="988.193" gradientUnits="userSpaceOnUse">
<stop stop-color="#78BC6D"/>
<stop offset="1" stop-color="#0CA3AC"/>
</linearGradient>
<linearGradient id="paint4_linear_6270_27215" x1="1134.03" y1="977.502" x2="1073.07" y2="993.906" gradientUnits="userSpaceOnUse">
<stop stop-color="#78BC6D"/>
<stop offset="1" stop-color="#0CA3AC"/>
</linearGradient>
<clipPath id="clip0_6270_27215">
<rect width="1320" height="1014" fill="white" transform="matrix(-1 0 0 1 1320 0)"/>
</clipPath>
</defs>
</svg>
