<svg width="32" height="26" viewBox="0 0 32 26" fill="none" xmlns="http://www.w3.org/2000/svg">
<path d="M31.8808 3.35116C30.7098 3.86132 29.4714 4.20014 28.2038 4.35717C29.5396 3.56469 30.5384 2.30977 31.0108 0.830165C29.76 1.57176 28.3917 2.09396 26.9648 2.37416C26.0899 1.43981 24.9541 0.790242 23.7052 0.509887C22.4562 0.229531 21.1518 0.331352 19.9614 0.802115C18.7711 1.27288 17.7499 2.09081 17.0305 3.14962C16.3112 4.20842 15.927 5.45912 15.9278 6.73917C15.9228 7.22816 15.9725 7.71619 16.0758 8.19417C13.5376 8.0696 11.0542 7.41075 8.78804 6.26069C6.52187 5.11063 4.52392 3.49526 2.92481 1.52016C2.10355 2.92389 1.84917 4.58821 2.21363 6.17317C2.57809 7.75813 3.53389 9.14416 4.88581 10.0482C3.87527 10.0196 2.88643 9.74833 2.00281 9.25717V9.32717C2.0047 10.8004 2.51402 12.2281 3.44507 13.3699C4.37613 14.5116 5.67207 15.2978 7.11481 15.5962C6.56892 15.74 6.00632 15.8106 5.44181 15.8062C5.0364 15.8134 4.63139 15.7768 4.23381 15.6972C4.64525 16.9645 5.43959 18.073 6.50737 18.87C7.57515 19.667 8.86382 20.1132 10.1958 20.1472C7.93726 21.9133 5.15189 22.8713 2.28481 22.8682C1.77448 22.8718 1.26443 22.8427 0.757812 22.7812C3.67537 24.6611 7.07507 25.6555 10.5458 25.6442C22.2868 25.6442 28.7058 15.9182 28.7058 7.48817C28.7058 7.20617 28.6958 6.93417 28.6828 6.66317C29.9413 5.76273 31.025 4.64037 31.8808 3.35116Z" fill="#AAAAAA"/>
</svg>
