<svg width="37" height="26" viewBox="0 0 37 26" fill="none" xmlns="http://www.w3.org/2000/svg">
<path d="M36.2548 4.31198C36.0483 3.54963 35.6458 2.85461 35.0874 2.29602C34.529 1.73744 33.8341 1.33475 33.0718 1.12798C30.2458 0.35498 18.9408 0.35498 18.9408 0.35498C18.9408 0.35498 7.63581 0.35498 4.80981 1.09898C4.04822 1.31653 3.35539 1.72635 2.79795 2.28905C2.24052 2.85174 1.83721 3.54838 1.62681 4.31198C0.882812 7.13798 0.882812 12.999 0.882812 12.999C0.882812 12.999 0.882812 18.889 1.62681 21.686C1.83358 22.4481 2.23615 23.1429 2.79454 23.7013C3.35292 24.2596 4.04769 24.6622 4.80981 24.869C7.66581 25.642 18.9408 25.642 18.9408 25.642C18.9408 25.642 30.2408 25.642 33.0718 24.898C33.834 24.6913 34.5288 24.2888 35.0872 23.7304C35.6456 23.172 36.0481 22.4772 36.2548 21.715C36.9988 18.889 36.9988 13.028 36.9988 13.028C36.9988 13.028 37.0288 7.13798 36.2548 4.31198Z" fill="#AAAAAA"/>
<path d="M15.3438 18.4095L24.7438 12.9955L15.3438 7.58154V18.4095Z" fill="white"/>
</svg>
