<svg xmlns="http://www.w3.org/2000/svg" xmlns:xlink="http://www.w3.org/1999/xlink" width="103" height="103" viewBox="0 0 103 103">
  <defs>
    <clipPath id="clip-path">
      <rect id="Rectangle_16682" data-name="Rectangle 16682" width="103" height="103" transform="translate(-16859 -4124)" fill="#fff"/>
    </clipPath>
    <linearGradient id="linear-gradient" x1="0.778" x2="-0.212" y2="1.161" gradientUnits="objectBoundingBox">
      <stop offset="0" stop-color="#15bf81"/>
      <stop offset="1" stop-color="#0b6041"/>
    </linearGradient>
  </defs>
  <g id="Mask_Group_229" data-name="Mask Group 229" transform="translate(16859 4124)" clip-path="url(#clip-path)">
    <g id="reading" transform="translate(-16919.814 -4123.999)">
      <g id="Group_38828" data-name="Group 38828" transform="translate(73.732 -0.001)">
        <path id="Path_94151" data-name="Path 94151" d="M145.637,68.028V57.306l-4.783,1.76-.014-.03-.114-.2a12.361,12.361,0,0,0-8.135-5.15l-11.509-1.981v-.86a16.694,16.694,0,0,0,8.438-11.167,6.749,6.749,0,0,0,5.594-6.5V16.8a10.493,10.493,0,0,0-7.858-9.984l-.876-.829a22.506,22.506,0,0,0-23.537-4.429A20.454,20.454,0,0,0,89.51,20.43V33.184a6.749,6.749,0,0,0,5.593,6.5,16.694,16.694,0,0,0,8.438,11.167v.86l-11.5,1.978a12.366,12.366,0,0,0-8.132,5.145l-.108.243-4.811-1.77V68.028a5.132,5.132,0,0,0-5.254,4.978v6.641a5.132,5.132,0,0,0,5.262,4.978v6.113L112.319,103l33.318-12.266V84.62a5.132,5.132,0,0,0,5.262-4.978V73.005a5.132,5.132,0,0,0-5.262-4.978ZM124.372,55.648l7.595,1.305A8.852,8.852,0,0,1,137.5,60.3l-16.969,6.242ZM107.2,52.372a18.43,18.43,0,0,0,10.225,0L112.314,56Zm2.443,5.88-3.58,3.385-2.322-6.589,1.117-.191Zm10.12-3.394,1.117.191-2.322,6.589-3.58-3.385Zm10.085-18.817V30.33a3.2,3.2,0,0,1,0,5.711Zm-35.08,0a3.2,3.2,0,0,1,0-5.711Zm0-11.154v1.895a7.184,7.184,0,0,0-1.754.687V20.433A17.13,17.13,0,0,1,104.182,4.615,18.849,18.849,0,0,1,123.9,8.331L125.449,9.8l.472.109a7.177,7.177,0,0,1,5.688,6.891V27.47a7.116,7.116,0,0,0-1.754-.687v-1.9h-5.563a15.567,15.567,0,0,1-12.146-5.742l-1.394-1.762-3.485,3.3a15.541,15.541,0,0,1-10.737,4.206ZM98.278,36.5V28.129a19.027,19.027,0,0,0,11.464-5.1l.682-.646a19.286,19.286,0,0,0,13.864,5.824h2.054v8.3c0,7.331-6.282,13.274-14.032,13.274S98.278,43.836,98.278,36.5ZM92.663,56.954l7.595-1.305L104.1,66.541,87.122,60.3a8.85,8.85,0,0,1,5.541-3.344ZM77.235,79.646V73.005a1.711,1.711,0,0,1,1.754-1.659,4.985,4.985,0,1,1,0,9.955,1.711,1.711,0,0,1-1.754-1.655ZM110.561,98.79,82.5,88.465V83.916a8.109,8.109,0,0,0,0-15.185V62.158l28.064,10.323ZM105.353,67l6.962-6.587L119.277,67l-6.962,2.562Zm36.78,21.457L114.069,98.785v-26.3l28.064-10.323v6.577a8.109,8.109,0,0,0,0,15.185Zm5.262-8.811a1.711,1.711,0,0,1-1.757,1.655,4.985,4.985,0,1,1,0-9.955,1.711,1.711,0,0,1,1.754,1.659Z" transform="translate(-73.732 0.001)" fill="url(#linear-gradient)"/>
      </g>
    </g>
  </g>
</svg>
