<svg xmlns="http://www.w3.org/2000/svg" xmlns:xlink="http://www.w3.org/1999/xlink" width="103" height="103" viewBox="0 0 103 103">
  <defs>
    <clipPath id="clip-path">
      <rect id="Rectangle_16684" data-name="Rectangle 16684" width="103" height="103" transform="translate(-16621 -4124)" fill="#fff"/>
    </clipPath>
    <linearGradient id="linear-gradient" x1="0.803" x2="-0.176" y2="1.216" gradientUnits="objectBoundingBox">
      <stop offset="0" stop-color="#15bf81"/>
      <stop offset="1" stop-color="#0b6041"/>
    </linearGradient>
  </defs>
  <g id="Mask_Group_231" data-name="Mask Group 231" transform="translate(16621 4124)" clip-path="url(#clip-path)">
    <g id="graduated" transform="translate(-16661.664 -4120.93)">
      <path id="Path_94150" data-name="Path 94150" d="M120.124,63.278l-5.684-1.669-12.368-8.078V51.682a16.46,16.46,0,0,0,6.492-11.563,3.779,3.779,0,0,0,3.172-3.725V24.8a2.8,2.8,0,0,0,1.169-2.283v-5.9l8.535-1.454a3.026,3.026,0,0,0,.409-5.866L93.079.143a3.011,3.011,0,0,0-1.835,0L62.472,9.293a3.035,3.035,0,0,0-.943,5.282v7.715h-.07a2.94,2.94,0,0,0-2.94,2.94v3.83l-1.9,11.133a3.159,3.159,0,0,0,3.113,3.688h6.422a3.159,3.159,0,0,0,3.113-3.688l-1.9-11.133V25.231a2.94,2.94,0,0,0-2.94-2.94h-.07V15.414l7.055,1.2v5.9a2.8,2.8,0,0,0,1.164,2.276v11.6a3.779,3.779,0,0,0,3.172,3.725,16.461,16.461,0,0,0,6.49,11.557v1.86L69.886,61.61l-5.68,1.667a14.427,14.427,0,0,0-10.37,13.851v4.228a1.422,1.422,0,0,0,2.837,0V77.128A11.664,11.664,0,0,1,65,66L70.3,64.448,91.444,77.011a1.436,1.436,0,0,0,1.449,0L114.04,64.447,119.331,66a11.664,11.664,0,0,1,8.331,11.127v13.7a3.191,3.191,0,0,1-3.187,3.187h-6.253V87.907a1.422,1.422,0,1,0-2.837,0v6.116H68.946V87.907a1.422,1.422,0,1,0-2.837,0v6.116H59.861a3.191,3.191,0,0,1-3.187-3.187V87.99a1.422,1.422,0,1,0-2.837,0v2.845a6.031,6.031,0,0,0,6.024,6.024h64.607a6.031,6.031,0,0,0,6.025-6.024V77.127a14.427,14.427,0,0,0-10.369-13.85ZM66.159,41.044H59.737a.32.32,0,0,1-.316-.375L61.137,30.6h3.622l1.715,10.071a.32.32,0,0,1-.316.375ZM64.537,25.231v2.531h-3.18V25.231a.1.1,0,0,1,.1-.1h2.978a.1.1,0,0,1,.1.1ZM87.09,70.593l.569.868L73.171,62.854l9.2-6.006A29.8,29.8,0,0,0,87.09,70.593Zm-.009-6.124a36.484,36.484,0,0,0,10.168,0,27.1,27.1,0,0,1-2.388,4.577l-2.7,4.144-2.7-4.144a27.1,27.1,0,0,1-2.388-4.577Zm10.158,6.124a29.8,29.8,0,0,0,4.726-13.744l9.2,6L96.674,71.46Zm8.3-45.267H108.9v4.558h-1.669a1.7,1.7,0,0,1-1.694-1.694V25.326ZM63.331,12,92.1,2.845a.19.19,0,0,1,.114,0L120.987,12a.158.158,0,0,1,.131.19c-.01.148-.095.162-.156.173l-9.513,1.621-3.571-.442a1.422,1.422,0,1,0-.348,2.816l2.537.314v5.817H74.259V16.672l14.68-1.817a26.281,26.281,0,0,1,6.443,0l5.556.688a1.422,1.422,0,1,0,.348-2.816l-5.555-.683a29.1,29.1,0,0,0-7.14,0L72.873,13.984l-9.516-1.621c-.062-.01-.146-.025-.156-.173a.158.158,0,0,1,.131-.19ZM75.425,29.884V25.326h3.364v2.865a1.7,1.7,0,0,1-1.694,1.694Zm3.123,9.5a2.2,2.2,0,0,0-2.186-2.061.937.937,0,0,1-.936-.936V32.722H77.1a4.536,4.536,0,0,0,4.536-4.53V25.326H102.7v2.865a4.537,4.537,0,0,0,4.531,4.531h1.672v3.671a.937.937,0,0,1-.936.936,2.2,2.2,0,0,0-2.186,2.061,13.644,13.644,0,0,1-27.234,0ZM92.164,55a16.376,16.376,0,0,0,7.07-1.6v.9a27.028,27.028,0,0,1-.956,7.12,33.5,33.5,0,0,1-12.229.006,27.036,27.036,0,0,1-.958-7.126.464.464,0,0,0-.006-.089v-.814A16.378,16.378,0,0,0,92.164,55Z" transform="translate(0)" fill="url(#linear-gradient)"/>
    </g>
  </g>
</svg>
