<svg xmlns="http://www.w3.org/2000/svg" width="53" height="51" viewBox="0 0 53 51">
  <g id="Group_39397" data-name="Group 39397" transform="translate(-176 -3053)">
    <rect id="Rectangle_15006" data-name="Rectangle 15006" width="53" height="51" rx="6" transform="translate(176 3053)" fill="#f0eaf9"/>
    <g id="elearning" transform="translate(189.715 3065.906)">
      <g id="Group_39396" data-name="Group 39396" transform="translate(0 0.043)">
        <g id="Group_39395" data-name="Group 39395">
          <path id="Path_96208" data-name="Path 96208" d="M25.444,118.709a1.034,1.034,0,0,0-1.034,1.034,2.071,2.071,0,0,1-2.069,2.069H4.137a2.071,2.071,0,0,1-2.069-2.069V109.4a2.05,2.05,0,0,1,.187-.861,1.034,1.034,0,1,0-1.88-.863A4.1,4.1,0,0,0,0,109.4v10.343a4.142,4.142,0,0,0,4.137,4.137H12.2v2.062H8.585a1.034,1.034,0,0,0,0,2.069h9.309a1.034,1.034,0,0,0,0-2.069h-3.62v-2.062h8.068a4.142,4.142,0,0,0,4.137-4.137A1.034,1.034,0,0,0,25.444,118.709Z" transform="translate(0 -101.538)" fill="#8a62d6"/>
          <path id="Path_96209" data-name="Path 96209" d="M468.53,107.678a1.034,1.034,0,1,0-1.88.863,2.051,2.051,0,0,1,.187.861v5.172a1.034,1.034,0,0,0,2.069,0V109.4A4.106,4.106,0,0,0,468.53,107.678Z" transform="translate(-442.427 -101.54)" fill="#8a62d6"/>
          <path id="Path_96210" data-name="Path 96210" d="M74.034,9.819a1.034,1.034,0,0,0,1.034-1.034V6.408l1.695.6a17.47,17.47,0,0,0-.609,5.341,1.034,1.034,0,0,0,.934,1.029,13.062,13.062,0,0,1,4.8,1.678,1.037,1.037,0,0,0,.664.24h.022a1.037,1.037,0,0,0,.664-.24,13.228,13.228,0,0,1,4.8-1.678,1.034,1.034,0,0,0,.934-1.029,17.507,17.507,0,0,0-.607-5.336l2.4-.861A1.893,1.893,0,0,0,92.135,4.4a1.891,1.891,0,0,0-1.358-1.75L84.492.368a5.724,5.724,0,0,0-3.805,0L74.363,2.653a2,2,0,0,0-1.278,1.224A1.03,1.03,0,0,0,73,4.286v4.5A1.034,1.034,0,0,0,74.034,9.819Zm8.533,3.245a15.6,15.6,0,0,0-4.332-1.587,14.351,14.351,0,0,1,.478-3.771l1.976.7a5.723,5.723,0,0,0,3.8,0h0l1.933-.694a14.45,14.45,0,0,1,.474,3.761A15.593,15.593,0,0,0,82.567,13.064Zm.092-9.813H78.8l2.592-.936a3.669,3.669,0,0,1,2.4,0L89.534,4.4l-5.74,2.059a3.673,3.673,0,0,1-2.408,0L78.178,5.32H82.66a1.034,1.034,0,1,0,0-2.069Z" transform="translate(-69.225 -0.043)" fill="#8a62d6"/>
        </g>
      </g>
    </g>
  </g>
</svg>
