<svg xmlns="http://www.w3.org/2000/svg" xmlns:xlink="http://www.w3.org/1999/xlink" width="862" height="618" viewBox="0 0 862 618">
  <defs>
    <filter id="Rectangle_20300" x="499" y="6" width="335" height="340" filterUnits="userSpaceOnUse">
      <feOffset dy="12" input="SourceAlpha"/>
      <feGaussianBlur stdDeviation="18" result="blur"/>
      <feFlood flood-opacity="0.051"/>
      <feComposite operator="in" in2="blur"/>
      <feComposite in="SourceGraphic"/>
    </filter>
    <filter id="Rectangle_20300-2" x="0" y="303" width="431" height="210" filterUnits="userSpaceOnUse">
      <feOffset dy="12" input="SourceAlpha"/>
      <feGaussianBlur stdDeviation="18" result="blur-2"/>
      <feFlood flood-opacity="0.09"/>
      <feComposite operator="in" in2="blur-2"/>
      <feComposite in="SourceGraphic"/>
    </filter>
    <filter id="Rectangle_20300-3" x="492" y="0" width="349" height="352" filterUnits="userSpaceOnUse">
      <feOffset dy="12" input="SourceAlpha"/>
      <feGaussianBlur stdDeviation="18" result="blur-3"/>
      <feFlood flood-opacity="0.051"/>
      <feComposite operator="in" in2="blur-3"/>
      <feComposite in="SourceGraphic"/>
    </filter>
    <clipPath id="clip-path">
      <g transform="matrix(1, 0, 0, 1, 0, 0)" filter="url(#Rectangle_20300)">
        <rect id="Rectangle_20300-4" data-name="Rectangle 20300" width="227" height="232" rx="8" transform="translate(0.49 0)" fill="#fff"/>
      </g>
    </clipPath>
    <linearGradient id="linear-gradient" x1="0.5" x2="0.5" y2="1" gradientUnits="objectBoundingBox">
      <stop offset="0" stop-color="#fff2e7"/>
      <stop offset="1" stop-color="#fff2e7" stop-opacity="0"/>
    </linearGradient>
    <filter id="Path_117414" x="394.807" y="132.58" width="467.864" height="84.984" filterUnits="userSpaceOnUse">
      <feOffset dy="5" input="SourceAlpha"/>
      <feGaussianBlur stdDeviation="5.5" result="blur-4"/>
      <feFlood flood-opacity="0.161"/>
      <feComposite operator="in" in2="blur-4"/>
      <feComposite in="SourceGraphic"/>
    </filter>
    <linearGradient id="linear-gradient-2" x1="0.5" x2="0.5" y2="1" gradientUnits="objectBoundingBox">
      <stop offset="0" stop-color="#effcef"/>
      <stop offset="1" stop-color="#effcef" stop-opacity="0"/>
    </linearGradient>
    <filter id="Path_117416" x="394.769" y="132.521" width="468.318" height="77.215" filterUnits="userSpaceOnUse">
      <feOffset dy="5" input="SourceAlpha"/>
      <feGaussianBlur stdDeviation="5.5" result="blur-5"/>
      <feFlood flood-opacity="0.161"/>
      <feComposite operator="in" in2="blur-5"/>
      <feComposite in="SourceGraphic"/>
    </filter>
    <filter id="Ellipse_4597" x="667.144" y="133.802" width="22.555" height="22.555" filterUnits="userSpaceOnUse">
      <feOffset dy="1" input="SourceAlpha"/>
      <feGaussianBlur stdDeviation="2.5" result="blur-6"/>
      <feFlood flood-opacity="0.282"/>
      <feComposite operator="in" in2="blur-6"/>
      <feComposite in="SourceGraphic"/>
    </filter>
    <filter id="Union_5" x="587.634" y="41.194" width="180.897" height="139.309" filterUnits="userSpaceOnUse">
      <feOffset dy="5" input="SourceAlpha"/>
      <feGaussianBlur stdDeviation="11" result="blur-7"/>
      <feFlood flood-opacity="0.102"/>
      <feComposite operator="in" in2="blur-7"/>
      <feComposite in="SourceGraphic"/>
    </filter>
    <filter id="Rectangle_20300-5" x="424" y="403" width="438" height="210" filterUnits="userSpaceOnUse">
      <feOffset dy="12" input="SourceAlpha"/>
      <feGaussianBlur stdDeviation="18" result="blur-8"/>
      <feFlood flood-opacity="0.09"/>
      <feComposite operator="in" in2="blur-8"/>
      <feComposite in="SourceGraphic"/>
    </filter>
  </defs>
  <g id="Group_49719" data-name="Group 49719" transform="translate(-939.538 -2299)">
    <g id="Group_49711" data-name="Group 49711" transform="translate(1035.667 2370)">
      <rect id="Rectangle_20301" data-name="Rectangle 20301" width="663" height="547" rx="6" transform="translate(-0.129)" fill="#f9f9f9"/>
      <rect id="Rectangle_20267" data-name="Rectangle 20267" width="596" height="493" rx="6" transform="translate(32.871 27)" fill="#fff"/>
      <g id="Group_49709" data-name="Group 49709" transform="translate(107.268 130)">
        <rect id="Rectangle_20271" data-name="Rectangle 20271" width="39" height="208" rx="6" transform="translate(164.604 103)" fill="#8bc38f"/>
        <rect id="Rectangle_20297" data-name="Rectangle 20297" width="38" height="174" rx="6" transform="translate(110.604 137)" fill="#cbd8f7"/>
        <rect id="Rectangle_20298" data-name="Rectangle 20298" width="40" height="57" rx="6" transform="translate(54.604 254)" fill="#ffc5ca"/>
        <rect id="Rectangle_20299" data-name="Rectangle 20299" width="39" height="76" rx="6" transform="translate(-0.396 235)" fill="#c9d6f5"/>
        <rect id="Rectangle_20272" data-name="Rectangle 20272" width="38" height="311" rx="6" transform="translate(219.604)" fill="#8bc38f"/>
        <rect id="Rectangle_20273" data-name="Rectangle 20273" width="38" height="154" rx="6" transform="translate(274.604 157)" fill="#cbd8f7"/>
        <rect id="Rectangle_20275" data-name="Rectangle 20275" width="36" height="89" rx="6" transform="translate(330.604 222)" fill="#8bc38f"/>
        <rect id="Rectangle_20276" data-name="Rectangle 20276" width="37" height="208" rx="6" transform="translate(384.604 103)" fill="#cbd8f7"/>
        <rect id="Rectangle_20277" data-name="Rectangle 20277" width="37" height="113" rx="6" transform="translate(438.604 198)" fill="#cbd8f7"/>
      </g>
      <text id="Total_Opportunity" data-name="Total Opportunity" transform="translate(112.871 78)" fill="#172327" font-size="16" font-family="HelveticaNeue, Helvetica Neue" opacity="0.5"><tspan x="0" y="0">Total Opportunity</tspan></text>
      <text id="_100_Engineering_" data-name="100% Engineering " transform="translate(112.871 108)" fill="#0fa76f" font-size="22" font-family="HelveticaNeue-Medium, Helvetica Neue" font-weight="500"><tspan x="0" y="0">100%</tspan><tspan y="0" fill="#172327" font-family="HelveticaNeue, Helvetica Neue" font-weight="400"> </tspan><tspan y="0" fill="#696a6a" font-family="HelveticaNeue, Helvetica Neue" font-weight="400">Engineering </tspan></text>
      <g id="Group_49710" data-name="Group 49710" transform="translate(91.957 93.366)">
        <path id="Path_117419" data-name="Path 117419" d="M9047.356,10509h-501.1" transform="translate(-8546.261 -10149.243)" fill="none" stroke="#707070" stroke-width="1" opacity="0.14"/>
        <path id="Path_117420" data-name="Path 117420" d="M359.757,0H0" transform="translate(0 359.757) rotate(-90)" fill="none" stroke="#707070" stroke-width="1" opacity="0.14"/>
      </g>
    </g>
    <g id="Group_49656" data-name="Group 49656" transform="translate(1098.077 2466)" opacity="0.4">
      <text id="_0" data-name="0" transform="translate(0.461 379)" fill="#656565" font-size="9" font-family="Gordita-Regular, Gordita"><tspan x="0" y="0">0</tspan></text>
      <text id="_20" data-name="20" transform="translate(0.461 304)" fill="#656565" font-size="9" font-family="Gordita-Regular, Gordita"><tspan x="0" y="0">20</tspan></text>
      <text id="_40" data-name="40" transform="translate(0.461 230.999)" fill="#656565" font-size="9" font-family="Gordita-Regular, Gordita"><tspan x="0" y="0">40</tspan></text>
      <text id="_60" data-name="60" transform="translate(0.461 155.999)" fill="#656565" font-size="9" font-family="Gordita-Regular, Gordita"><tspan x="0" y="0">60</tspan></text>
      <text id="_80" data-name="80" transform="translate(0.461 82)" fill="#656565" font-size="9" font-family="Gordita-Regular, Gordita"><tspan x="0" y="0">80</tspan></text>
      <text id="_100" data-name="100" transform="translate(0.461 7)" fill="#656565" font-size="9" font-family="Gordita-Regular, Gordita"><tspan x="0" y="0">100</tspan></text>
    </g>
    <g id="Group_49712" data-name="Group 49712" transform="translate(993.734 2644)">
      <g transform="matrix(1, 0, 0, 1, -54.2, -345)" filter="url(#Rectangle_20300-2)">
        <rect id="Rectangle_20300-6" data-name="Rectangle 20300" width="323" height="102" rx="8" transform="translate(54 345)" fill="#fff"/>
      </g>
      <text id="IT_Engineering_Students" data-name="IT Engineering Students" transform="translate(94.804 74)" fill="#172327" font-size="18" font-family="HelveticaNeue, Helvetica Neue" opacity="0.5"><tspan x="0" y="0">IT Engineering Students</tspan></text>
      <text id="_40_" data-name="40%" transform="translate(94.804 47)" fill="#0fa76f" font-size="30" font-family="HelveticaNeue-Medium, Helvetica Neue" font-weight="500"><tspan x="0" y="0">40%</tspan></text>
      <g id="Group_38720" data-name="Group 38720" transform="translate(17.553 18)">
        <rect id="Rectangle_14750" data-name="Rectangle 14750" width="61" height="66" rx="6" transform="translate(0.25)" fill="#e0ede5"/>
        <g id="line-ascendant-graphic-of-zigzag-arrow" transform="translate(13.168 21.506)">
          <path id="Path_94145" data-name="Path 94145" d="M34.913,7.792a1.763,1.763,0,0,0-.458-1.216,1.544,1.544,0,0,0-1.135-.505H26.307a.491.491,0,0,0-.453.322.554.554,0,0,0,.109.568L27.315,8.4a1.257,1.257,0,0,1,0,1.708l-6.864,7.3a1.437,1.437,0,0,1-2.126,0L13.9,12.7a1.337,1.337,0,0,0-1.975,0L.408,24.945a1.561,1.561,0,0,0,0,2.1l1.485,1.578a1.341,1.341,0,0,0,1.974,0l7.979-8.49a1.442,1.442,0,0,1,2.127,0l4.351,4.631a1.462,1.462,0,0,0,1.065.466,1.48,1.48,0,0,0,1.067-.466L30.777,13.781a1.083,1.083,0,0,1,1.6,0l1.593,1.7a.469.469,0,0,0,.531.116.528.528,0,0,0,.306-.475Z" transform="translate(0 -6.071)" fill="#0fa76f"/>
        </g>
      </g>
    </g>
    <g id="Group_49654" data-name="Group 49654" transform="translate(1116.606 2840)" opacity="0.3">
      <text id="_2000" data-name="2000" transform="translate(-0.067 7)" fill="#656565" font-size="9" font-family="Gordita-Regular, Gordita"><tspan x="0" y="0">2000</tspan></text>
      <text id="_2001" data-name="2001" transform="translate(57.933 7)" fill="#656565" font-size="9" font-family="Gordita-Regular, Gordita"><tspan x="0" y="0">2001</tspan></text>
      <text id="_2002" data-name="2002" transform="translate(119.933 7)" fill="#656565" font-size="9" font-family="Gordita-Regular, Gordita"><tspan x="0" y="0">2002</tspan></text>
      <text id="_2003" data-name="2003" transform="translate(179.933 7)" fill="#656565" font-size="9" font-family="Gordita-Regular, Gordita"><tspan x="0" y="0">2003</tspan></text>
      <text id="_2004" data-name="2004" transform="translate(240.933 7)" fill="#656565" font-size="9" font-family="Gordita-Regular, Gordita"><tspan x="0" y="0">2004</tspan></text>
      <text id="_2005" data-name="2005" transform="translate(299.933 7)" fill="#656565" font-size="9" font-family="Gordita-Regular, Gordita"><tspan x="0" y="0">2005</tspan></text>
      <text id="_2006" data-name="2006" transform="translate(360.933 7)" fill="#656565" font-size="9" font-family="Gordita-Regular, Gordita"><tspan x="0" y="0">2006</tspan></text>
      <text id="_2007" data-name="2007" transform="translate(420.933 7)" fill="#656565" font-size="9" font-family="Gordita-Regular, Gordita"><tspan x="0" y="0">2007</tspan></text>
      <text id="_2008" data-name="2008" transform="translate(483.933 7)" fill="#656565" font-size="9" font-family="Gordita-Regular, Gordita"><tspan x="0" y="0">2008</tspan></text>
    </g>
    <g id="Group_49718" data-name="Group 49718" transform="translate(1485.218 2341)">
      <g id="Group_49715" data-name="Group 49715" transform="translate(0)">
        <g id="Group_49714" data-name="Group 49714" transform="translate(0 0)">
          <g transform="matrix(1, 0, 0, 1, -545.68, -42)" filter="url(#Rectangle_20300-3)">
            <rect id="Rectangle_20300-7" data-name="Rectangle 20300" width="241" height="244" rx="8" transform="translate(546 42)" fill="#fff"/>
          </g>
        </g>
      </g>
      <g id="Mask_Group_372" data-name="Mask Group 372" transform="translate(6.826 6)" clip-path="url(#clip-path)">
        <g id="Group_49717" data-name="Group 49717" transform="translate(-139.472 21.194)">
          <g id="Group_49711-2" data-name="Group 49711" transform="translate(0 0)">
            <g id="Group_49707" data-name="Group 49707" transform="translate(0 76.136)">
              <path id="Path_117415" data-name="Path 117415" d="M1746.935-17193.852s-12.111,19.084-33.024,18.9-45.53-42.51-66.27-42.8-50.972,43.285-74.586,45.477-50.238-37.291-73.948-37.482-39.754,41.207-66.294,41.486-52.139-45.062-81.652-44.672-35.638,9.912-35.638,9.912v70.338h431.412Z" transform="translate(-1315.523 17217.756)" fill="url(#linear-gradient)"/>
              <g transform="matrix(1, 0, 0, 1, -413.03, -145.33)" filter="url(#Path_117414)">
                <path id="Path_117414-2" data-name="Path 117414" d="M1315.523-17203.033s6.124-9.529,35.638-9.912,55.112,44.947,81.652,44.672,42.583-41.678,66.294-41.486,50.334,39.672,73.948,37.482,53.845-45.766,74.586-45.477,45.357,42.615,66.27,42.8,33.024-18.9,33.024-18.9" transform="translate(-902.49 17363.09)" fill="none" stroke="#f68c71" stroke-linecap="round" stroke-linejoin="round" stroke-width="2.5"/>
              </g>
            </g>
            <g id="Group_49708" data-name="Group 49708" transform="translate(0 76.054)">
              <path id="Path_117417" data-name="Path 117417" d="M1747.367-17151.584s-21.225-37.531-43.974-41.189-32.734,11.641-57.034,5.2-33.153-33.17-65.237-30.1-60.065,38.133-91.572,41.094c-12.634,1.188-21.246-2.314-28.509-5.906-10.208-5.047-16.995-11.223-27.487-10.285-17.516,1.559-12.29,29.961-23.641,33.545s-15.58-1.055-20.949,0c-15.651,3.061-20.449,16.223-39.434,10.775s-34.007-34.035-34.007-34.035v109.869h431.843Z" transform="translate(-1315.523 17217.92)" fill="url(#linear-gradient-2)"/>
              <g transform="matrix(1, 0, 0, 1, -413.03, -145.25)" filter="url(#Path_117416)">
                <path id="Path_117416-2" data-name="Path 117416" d="M1315.523-17196.975s15.021,16.877,34.007,20.094,23.783-4.557,39.434-6.363c5.369-.625,9.6,2.111,20.949,0s9.584-7.156,27.1-8.078,27.714,15.225,59.22,13.471,52.806-38.08,84.889-39.893,36.889,22.967,61.188,26.77,36.635-5.467,59.384-3.309,45.672,15.551,45.672,15.551" transform="translate(-902.49 17363.1)" fill="none" stroke="#8bc38f" stroke-linecap="round" stroke-linejoin="round" stroke-width="2.5"/>
              </g>
            </g>
            <g transform="matrix(1, 0, 0, 1, -413.03, -69.19)" filter="url(#Ellipse_4597)">
              <g id="Ellipse_4597-2" data-name="Ellipse 4597" transform="translate(674.64 140.3)" fill="#fff" stroke="#8bc38f" stroke-width="2">
                <circle cx="3.777" cy="3.777" r="3.777" stroke="none"/>
                <circle cx="3.777" cy="3.777" r="2.777" fill="none"/>
              </g>
            </g>
            <g transform="matrix(1, 0, 0, 1, -413.03, -69.19)" filter="url(#Union_5)">
              <g id="Union_5-2" data-name="Union 5" transform="translate(620.63 69.19)" fill="#fff">
                <path d="M 58.0823974609375 72.80860900878906 C 57.59526062011719 72.80860900878906 57.15219879150391 72.58200836181641 56.86682891845703 72.18692779541016 L 51.1910285949707 64.33256530761719 L 51.04133605957031 64.12541198730469 L 50.7857666015625 64.12541198730469 L 3.999598979949951 64.12541198730469 C 2.069906711578369 64.12541198730469 0.4999989569187164 62.55508422851562 0.4999989569187164 60.62490081787109 L 0.4999989569187164 3.999608278274536 C 0.4999989569187164 2.069916009902954 2.069906711578369 0.5000084042549133 3.999598979949951 0.5000084042549133 L 110.8971099853516 0.5000084042549133 C 112.8267974853516 0.5000084042549133 114.3967056274414 2.069916009902954 114.3967056274414 3.999608278274536 L 114.3967056274414 60.62490081787109 C 114.3967056274414 62.55508422851562 112.8267974853516 64.12541198730469 110.8971099853516 64.12541198730469 L 65.37822723388672 64.12541198730469 L 65.12262725830078 64.12541198730469 L 64.97295379638672 64.33258056640625 L 59.29803085327148 72.18686676025391 C 59.01261520385742 72.58200836181641 58.56953811645508 72.80860900878906 58.0823974609375 72.80860900878906 Z" stroke="none"/>
                <path d="M 58.0823974609375 72.30860900878906 C 58.40707778930664 72.30860900878906 58.70241546630859 72.15754699707031 58.89273834228516 71.89405822753906 L 64.86704254150391 63.62540817260742 L 110.8971099853516 63.62540817260742 C 112.5510940551758 63.62540817260742 113.8967056274414 62.27939224243164 113.8967056274414 60.62490081787109 L 113.8967056274414 3.999608278274536 C 113.8967056274414 2.345623731613159 112.5510940551758 1.000008344650269 110.8971099853516 1.000008344650269 L 3.999598979949951 1.000008344650269 C 2.345614433288574 1.000008344650269 0.9999989867210388 2.345623731613159 0.9999989867210388 3.999608278274536 L 0.9999989867210388 60.62490081787109 C 0.9999989867210388 62.27939224243164 2.345614433288574 63.62540817260742 3.999598979949951 63.62540817260742 L 51.29690551757812 63.62540817260742 L 57.27215194702148 71.8941650390625 C 57.46239852905273 72.15754699707031 57.75772094726562 72.30860900878906 58.0823974609375 72.30860900878906 M 58.0823974609375 73.30860900878906 C 57.47152328491211 73.30860900878906 56.86066055297852 73.03230285644531 56.46150588989258 72.47969818115234 L 50.7857666015625 64.62541198730469 L 3.999598979949951 64.62541198730469 C 1.790998935699463 64.62541198730469 -1.032433146974654e-06 62.83440780639648 -1.032433146974654e-06 60.62490081787109 L -1.032433146974654e-06 3.999608278274536 C -1.032433146974654e-06 1.791008353233337 1.790998935699463 8.382005034945905e-06 3.999598979949951 8.382005034945905e-06 L 110.8971099853516 8.382005034945905e-06 C 113.1057052612305 8.382005034945905e-06 114.8967056274414 1.791008353233337 114.8967056274414 3.999608278274536 L 114.8967056274414 60.62490081787109 C 114.8967056274414 62.83440780639648 113.1057052612305 64.62541198730469 110.8971099853516 64.62541198730469 L 65.37822723388672 64.62541198730469 L 59.70330810546875 72.47969818115234 C 59.30415344238281 73.03230285644531 58.69327545166016 73.30860900878906 58.0823974609375 73.30860900878906 Z" stroke="none" fill="#f2f2f2"/>
              </g>
            </g>
            <text id="Learning" transform="translate(257.2 45.394)" fill="#161619" font-size="9" font-family="Gordita-Medium, Gordita" font-weight="500" opacity="0.8"><tspan x="-19" y="0">Learning</tspan></text>
            <text id="_44_" data-name="44%" transform="translate(260.884 27.719)" fill="#08bd80" font-size="15" font-family="Gordita-Medium, Gordita" font-weight="500"><tspan x="-17" y="0">44%</tspan></text>
          </g>
        </g>
      </g>
    </g>
    <g id="Group_49713" data-name="Group 49713" transform="translate(1417.931 2744)">
      <g transform="matrix(1, 0, 0, 1, -478.39, -445)" filter="url(#Rectangle_20300-5)">
        <rect id="Rectangle_20300-8" data-name="Rectangle 20300" width="330" height="102" rx="8" transform="translate(478 445)" fill="#fff"/>
      </g>
      <text id="Working_at_educated_area" data-name="Working at educated area" transform="translate(93.606 74)" fill="#172327" font-size="18" font-family="HelveticaNeue, Helvetica Neue" opacity="0.5"><tspan x="0" y="0">Working at educated area</tspan></text>
      <text id="_10_" data-name="10%" transform="translate(93.606 47)" fill="#ff5663" font-size="30" font-family="HelveticaNeue-Medium, Helvetica Neue" font-weight="500" opacity="0.8"><tspan x="0" y="0">10%</tspan></text>
      <g id="Group_38720-2" data-name="Group 38720" transform="translate(16.578 18)">
        <rect id="Rectangle_14750-2" data-name="Rectangle 14750" width="62" height="66" rx="6" transform="translate(0.029)" fill="#fff1f2"/>
        <g id="line-ascendant-graphic-of-zigzag-arrow-2" data-name="line-ascendant-graphic-of-zigzag-arrow" transform="translate(13.697 21.506)">
          <path id="Path_94145-2" data-name="Path 94145" d="M34.913,27.339a1.763,1.763,0,0,1-.458,1.216,1.544,1.544,0,0,1-1.135.505H26.307a.491.491,0,0,1-.453-.322.554.554,0,0,1,.109-.568l1.352-1.438a1.257,1.257,0,0,0,0-1.708l-6.864-7.3a1.437,1.437,0,0,0-2.126,0L13.9,22.436a1.337,1.337,0,0,1-1.975,0L.408,10.187a1.561,1.561,0,0,1,0-2.1L1.892,6.505a1.341,1.341,0,0,1,1.974,0l7.979,8.49a1.442,1.442,0,0,0,2.127,0l4.351-4.631A1.462,1.462,0,0,1,19.387,9.9a1.48,1.48,0,0,1,1.067.466L30.777,21.35a1.083,1.083,0,0,0,1.6,0l1.593-1.7a.469.469,0,0,1,.531-.116.528.528,0,0,1,.306.475Z" transform="translate(0 -6.071)" fill="#ff5663"/>
        </g>
      </g>
    </g>
  </g>
</svg>
