<svg width="41" height="41" viewBox="0 0 41 41" fill="none" xmlns="http://www.w3.org/2000/svg">
<rect x="0.976562" y="0.4375" width="39.9035" height="39.9035" rx="4.43372" fill="#FFF5E0"/>
<rect opacity="0.01" x="5.85156" y="4.71094" width="30.4535" height="31.0625" rx="10.5415" fill="white"/>
<path fill-rule="evenodd" clip-rule="evenodd" d="M21.0964 30.9037C12.5697 30.9037 10.7422 29.0762 10.7422 20.5495C10.7422 12.0228 12.5697 10.1953 21.0964 10.1953C29.623 10.1953 31.4505 12.0228 31.4505 20.5495C31.4505 29.0762 29.623 30.9037 21.0964 30.9037ZM20.0689 25.9252C19.6011 25.8342 19.2956 25.3814 19.3865 24.9135L21.1054 16.0707C21.1964 15.6029 21.6493 15.2974 22.117 15.3883C22.5849 15.4792 22.8903 15.9321 22.7994 16.3999L21.0806 25.2429C20.9896 25.7106 20.5367 26.0161 20.0689 25.9252V25.9252ZM18.2551 19.4339C18.5921 19.097 18.5921 18.5506 18.2551 18.2137C17.9182 17.8767 17.3718 17.8767 17.0349 18.2137L15.3091 19.9394C14.9722 20.2763 14.9722 20.8227 15.3091 21.1596L17.0349 22.8853C17.3718 23.2223 17.9182 23.2223 18.2551 22.8853C18.5921 22.5484 18.5921 22.002 18.2551 21.6651L17.1395 20.5495L18.2551 19.4339ZM23.9377 19.4339C23.6007 19.097 23.6007 18.5506 23.9377 18.2137C24.2746 17.8767 24.821 17.8767 25.1579 18.2137L26.8836 19.9394C27.2207 20.2763 27.2207 20.8227 26.8836 21.1596L25.1579 22.8853C24.821 23.2223 24.2746 23.2223 23.9377 22.8853C23.6007 22.5484 23.6007 22.002 23.9377 21.6651L25.0532 20.5495L23.9377 19.4339Z" fill="#FFAB00"/>
</svg>
