<svg width="41" height="41" viewBox="0 0 41 41" fill="none" xmlns="http://www.w3.org/2000/svg">
<rect x="0.921875" y="0.101562" width="39.9035" height="39.9035" rx="4.43372" fill="#EDF9FF"/>
<path d="M10.8984 15.6568V27.5334C10.8984 28.0118 11.2877 28.4011 11.7662 28.4011H14.1934V14.7891H11.7662C11.2876 14.7891 10.8984 15.1783 10.8984 15.6568Z" fill="#0483BC"/>
<path d="M14.8438 14.7891H26.9024V28.4011H14.8438V14.7891Z" fill="#0483BC"/>
<path d="M29.9819 14.7891H27.5547V28.4011H29.9819C30.4604 28.4011 30.8497 28.0118 30.8497 27.5334V15.6568C30.8497 15.1783 30.4605 14.7891 29.9819 14.7891Z" fill="#0483BC"/>
<path d="M20.8787 11.6971C22.293 11.6971 23.4621 12.7647 23.6242 14.1362H25.2496C25.082 11.8706 23.1864 10.0781 20.8787 10.0781C18.571 10.0781 16.6754 11.8706 16.5078 14.1362H18.1332C18.2953 12.7647 19.4644 11.6971 20.8787 11.6971Z" fill="#0483BC"/>
</svg>
