<svg width="40" height="41" viewBox="0 0 40 41" fill="none" xmlns="http://www.w3.org/2000/svg">
<rect x="0.0390625" y="0.773438" width="39.9035" height="39.9035" rx="4.43372" fill="#FFF4F3"/>
<g clip-path="url(#clip0_8509_99113)">
<path d="M17.1663 27.1875L16.7809 28.3438H15.5632C15.2478 28.3438 14.9922 28.5994 14.9922 28.9148C14.9922 29.2301 15.2478 29.4858 15.5632 29.4858H24.7373C25.0526 29.4858 25.3083 29.2301 25.3083 28.9148C25.3083 28.5994 25.0526 28.3438 24.7373 28.3438H23.5196L23.1342 27.1875H17.1663Z" fill="#FF7680"/>
<path d="M10.3984 24.7819C10.3984 25.4733 10.9609 26.0357 11.6522 26.0357H28.6348C29.3262 26.0357 29.8886 25.4733 29.8886 24.7819V23.7422H10.3984V24.7819Z" fill="#FF7680"/>
<path d="M29.8886 13.5351C29.8886 12.8437 29.3262 12.2812 28.6348 12.2812H11.6522C10.9609 12.2812 10.3984 12.8437 10.3984 13.5351V22.6021H29.8886V13.5351ZM17.492 19.1864C17.7153 19.4092 17.7156 19.7707 17.4929 19.9939C17.3813 20.1057 17.235 20.1616 17.0887 20.1616C16.9427 20.1616 16.7968 20.106 16.6853 19.9947L15.1531 18.4657C15.0458 18.3586 14.9855 18.2132 14.9855 18.0615C14.9855 17.9099 15.0458 17.7645 15.1531 17.6574L16.6853 16.1284C16.9085 15.9056 17.2701 15.9059 17.4928 16.1292C17.7156 16.3524 17.7152 16.7139 17.492 16.9367L16.3648 18.0615L17.492 19.1864ZM21.4188 16.7879L19.8898 19.8459C19.7897 20.046 19.588 20.1617 19.3786 20.1617C19.2928 20.1617 19.2057 20.1423 19.1237 20.1013C18.8416 19.9603 18.7273 19.6173 18.8683 19.3352L20.3974 16.2772C20.5384 15.9951 20.8814 15.8807 21.1635 16.0218C21.4455 16.1628 21.5598 16.5058 21.4188 16.7879ZM25.134 18.4657L23.6018 19.9947C23.4903 20.106 23.3444 20.1616 23.1984 20.1616C23.0521 20.1616 22.9057 20.1057 22.7942 19.9939C22.5714 19.7707 22.5718 19.4092 22.795 19.1864L23.9222 18.0615L22.795 16.9367C22.5718 16.7139 22.5714 16.3524 22.7942 16.1292C23.017 15.9059 23.3785 15.9056 23.6017 16.1284L25.1339 17.6574C25.2413 17.7645 25.3016 17.9099 25.3016 18.0615C25.3016 18.2132 25.2413 18.3586 25.134 18.4657Z" fill="#FF7680"/>
</g>
<defs>
<clipPath id="clip0_8509_99113">
<rect width="19.4902" height="19.4902" fill="white" transform="translate(10.3984 11.1328)"/>
</clipPath>
</defs>
</svg>
