<svg width="204" height="69" viewBox="0 0 204 69" fill="none" xmlns="http://www.w3.org/2000/svg">
<rect x="0.445312" y="0.59375" width="203.263" height="67.8148" rx="8" fill="white"/>
<path d="M23.6751 54.2756C23.3034 54.2824 22.9339 54.2184 22.5862 54.0869L40.1245 36.366L45.9278 42.236L25.777 53.6732C25.1402 54.0518 24.4167 54.2604 23.6761 54.2786L23.6751 54.2756ZM21.1402 52.8144C20.7835 52.1612 20.6063 51.4251 20.6266 50.6812V18.3384C20.6236 17.8473 20.6971 17.3588 20.8445 16.8903L38.7723 35.0027L21.1341 52.8144H21.1402ZM47.6614 41.2501L41.4746 35.0058L48.2972 28.1176L54.3579 31.5546C54.9299 31.8159 55.42 32.2281 55.7756 32.7468C56.1311 33.2656 56.3387 33.8714 56.3761 34.4992C56.3374 35.1295 56.1281 35.7375 55.7706 36.2581C55.4155 36.7768 54.9247 37.188 54.3518 37.4468L47.6614 41.2501ZM40.1245 33.6334L21.9606 15.2929C22.4579 14.9209 23.0621 14.7195 23.6831 14.7188C24.416 14.7442 25.1309 14.9523 25.7629 15.3242L46.5615 27.1307L40.1245 33.6304V33.6334Z" fill="#003C3C"/>
<path d="M77.894 18.4447C77.6317 17.6872 77.1427 17.0287 76.4934 16.5587C75.7617 16.0125 74.8649 15.7336 73.9524 15.7686C73.3614 15.755 72.774 15.8646 72.2276 16.0905C71.6812 16.3163 71.1878 16.6534 70.7788 17.0804C70.3612 17.5061 70.0331 18.0112 69.8138 18.5658C69.5946 19.1204 69.4887 19.7133 69.5023 20.3095C69.4834 20.8982 69.5815 21.4848 69.7909 22.0353C70.0003 22.5858 70.3169 23.0892 70.7223 23.5164C71.1357 23.9414 71.6339 24.2747 72.1844 24.4946C72.735 24.7146 73.3257 24.8162 73.9181 24.793C74.4714 24.8194 75.0241 24.7306 75.5412 24.5322C76.0583 24.3338 76.5286 24.0302 76.9222 23.6406C77.2952 23.2617 77.5876 22.8112 77.7817 22.3162C77.9757 21.8212 78.0675 21.292 78.0514 20.7606V20.4215H73.3631V21.2803H77.0564C77.0477 21.6553 76.9548 22.0235 76.7847 22.3578C76.6146 22.6921 76.3716 22.9839 76.0736 23.2117C75.4662 23.6892 74.7117 23.9407 73.9393 23.9231C73.4667 23.9417 72.9957 23.8574 72.5589 23.6761C72.1221 23.4947 71.7299 23.2206 71.4095 22.8726C70.7717 22.1502 70.4326 21.2122 70.4609 20.249C70.4457 19.7721 70.5273 19.297 70.7007 18.8525C70.8742 18.408 71.1359 18.0032 71.4701 17.6626C71.7895 17.3343 72.1727 17.0748 72.5961 16.9001C73.0196 16.7253 73.4743 16.639 73.9323 16.6465C74.6634 16.611 75.3836 16.8351 75.9656 17.2792C76.4693 17.6814 76.8491 18.2176 77.0615 18.8261L77.894 18.4447ZM85.3412 15.8584H79.8052V24.7011H85.3846V23.8424H80.7316V20.6365H84.9446V19.7777H80.7316V16.7161H85.3392L85.3412 15.8584ZM89.2767 24.7011H90.2051V16.7292H93.1527V15.8584H86.3119V16.7282H89.2706L89.2767 24.7011ZM98.3072 15.8584H97.3808V24.7011H98.3072V15.8584ZM102.732 24.7011H103.67V16.7292H106.617V15.8584H99.7673V16.7282H102.726L102.732 24.7011ZM119.104 20.251C119.117 19.6614 119.011 19.0752 118.792 18.5278C118.573 17.9804 118.244 17.4832 117.827 17.0663C117.421 16.6424 116.931 16.3079 116.389 16.0843C115.846 15.8607 115.263 15.7528 114.676 15.7675C114.083 15.7529 113.494 15.8619 112.945 16.0878C112.397 16.3137 111.902 16.6514 111.491 17.0794C111.073 17.5051 110.745 18.0101 110.526 18.5648C110.307 19.1194 110.201 19.7123 110.215 20.3085C110.2 20.8989 110.304 21.4862 110.522 22.0353C110.739 22.5844 111.065 23.084 111.48 23.5043C112.33 24.3337 113.471 24.7962 114.658 24.792C115.845 24.7879 116.984 24.3175 117.827 23.4821C118.244 23.0558 118.571 22.5504 118.789 21.9956C119.007 21.4408 119.112 20.848 119.098 20.252L119.104 20.251ZM118.144 20.3075C118.164 21.2574 117.811 22.1773 117.161 22.8706C116.846 23.2133 116.462 23.4844 116.033 23.6657C115.605 23.8469 115.142 23.934 114.677 23.9211C114.207 23.9316 113.739 23.8414 113.307 23.6563C112.874 23.4713 112.486 23.1958 112.169 22.8484C111.509 22.147 111.152 21.2138 111.175 20.251C111.154 19.304 111.507 18.3869 112.158 17.699C112.471 17.3527 112.855 17.0784 113.284 16.8951C113.713 16.7118 114.176 16.6239 114.643 16.6374C115.112 16.6271 115.579 16.7176 116.011 16.9026C116.444 17.0876 116.831 17.3629 117.148 17.7101C117.807 18.4122 118.162 19.3453 118.138 20.3075H118.144ZM128.145 15.8574H127.23V23.244L122.012 15.8574H120.933V24.7001H121.849V17.1682L127.145 24.7011H128.139L128.145 15.8574Z" fill="#003C3C"/>
<path d="M83.6556 37.611C83.213 36.3563 82.3824 35.2751 81.2842 34.5241C80.0355 33.6498 78.5384 33.2008 77.0146 33.2436C76.0207 33.2447 75.0369 33.4429 74.12 33.8266C73.2031 34.2104 72.3714 34.772 71.673 35.4792C70.9746 36.1864 70.4233 37.025 70.0509 37.9465C69.6786 38.8681 69.4927 39.8543 69.5039 40.8482C69.4716 41.84 69.6401 42.8282 69.9993 43.7533C70.3584 44.6784 70.9007 45.5214 71.5937 46.2318C72.2997 46.9374 73.1433 47.4902 74.0721 47.8558C75.0008 48.2215 75.9949 48.392 76.9924 48.3569C77.8966 48.4069 78.8012 48.2678 79.6486 47.9486C80.4959 47.6294 81.2674 47.137 81.9139 46.5029C82.5603 45.8688 83.0674 45.1069 83.4029 44.2659C83.7384 43.4248 83.8949 42.5231 83.8624 41.6181V40.8108H76.0701V42.9189H81.3598C81.0016 44.8574 79.4587 46.2318 76.9743 46.2318C76.292 46.2481 75.6143 46.117 74.9873 45.8474C74.3604 45.5778 73.799 45.1761 73.3415 44.6697C72.3763 43.6123 71.8624 42.2196 71.9096 40.7886C71.8694 39.3624 72.3896 37.9771 73.3587 36.9298C73.8194 36.4287 74.3818 36.0317 75.0083 35.7655C75.6348 35.4992 76.3109 35.3698 76.9914 35.3859C77.9964 35.3547 78.9852 35.6444 79.8144 36.2131C80.6436 36.7817 81.2701 37.5997 81.603 38.5484L83.6556 37.611ZM90.7808 37.9309C90.0848 37.9195 89.3934 38.0468 88.747 38.3053C88.1007 38.5638 87.5122 38.9483 87.0159 39.4364C86.5227 39.9194 86.1306 40.4957 85.8623 41.1317C85.594 41.7676 85.4549 42.4506 85.4531 43.1409C85.4514 43.8311 85.5869 44.5149 85.8519 45.1522C86.1169 45.7896 86.5061 46.3678 86.9967 46.8534C87.4933 47.3413 88.082 47.7255 88.7286 47.9836C89.3751 48.2418 90.0666 48.3687 90.7627 48.3569C91.4563 48.3718 92.1458 48.2461 92.7896 47.9873C93.4333 47.7286 94.0181 47.3421 94.5085 46.8513C95.0116 46.3682 95.4087 45.7857 95.6745 45.1409C95.9403 44.496 96.069 43.8029 96.0524 43.1055C96.0687 42.4166 95.9397 41.732 95.6737 41.0963C95.4076 40.4607 95.0106 39.8882 94.5085 39.4163C94.0174 38.9328 93.4347 38.5524 92.7946 38.2973C92.1544 38.0422 91.4698 37.9176 90.7808 37.9309V37.9309ZM88.579 40.8896C88.8541 40.5865 89.192 40.3469 89.5691 40.1877C89.9463 40.0284 90.3535 39.9532 90.7627 39.9672C91.1692 39.9514 91.5742 40.0259 91.9485 40.1854C92.3228 40.3449 92.657 40.5854 92.9272 40.8896C93.4897 41.5052 93.7929 42.3142 93.7738 43.1479C93.7908 43.9783 93.4951 44.7848 92.9454 45.4073C92.6752 45.7115 92.3409 45.952 91.9666 46.1115C91.5924 46.271 91.1874 46.3455 90.7808 46.3296C90.3704 46.3403 89.9625 46.2616 89.5854 46.099C89.2084 45.9365 88.8712 45.6939 88.5971 45.3881C88.0371 44.7633 87.7346 43.9495 87.7505 43.1106C87.7304 42.2912 88.0271 41.4956 88.579 40.8896V40.8896ZM103.024 37.9339C102.328 37.9226 101.637 38.0498 100.99 38.3083C100.344 38.5668 99.7556 38.9513 99.2593 39.4395C98.7662 39.9224 98.374 40.4987 98.1058 41.1347C97.8375 41.7707 97.6984 42.4537 97.6966 43.1439C97.6948 43.8342 97.8304 44.5179 98.0954 45.1552C98.3604 45.7926 98.7495 46.3709 99.2401 46.8564C99.7369 47.3436 100.326 47.7272 100.972 47.9848C101.618 48.2424 102.309 48.3689 103.005 48.3569C103.699 48.3718 104.388 48.2461 105.032 47.9873C105.676 47.7286 106.26 47.3421 106.751 46.8513C107.254 46.3689 107.651 45.7871 107.917 45.143C108.183 44.4988 108.313 43.8064 108.297 43.1096C108.313 42.4207 108.184 41.7361 107.918 41.1004C107.652 40.4647 107.255 39.8922 106.753 39.4203C106.262 38.936 105.679 38.5548 105.039 38.299C104.399 38.0432 103.714 37.918 103.024 37.9309V37.9339ZM100.821 40.8896C101.097 40.5865 101.434 40.3469 101.812 40.1877C102.189 40.0284 102.596 39.9532 103.005 39.9672C103.411 39.9516 103.816 40.0261 104.19 40.1856C104.564 40.3451 104.899 40.5855 105.169 40.8896C105.731 41.5052 106.034 42.3142 106.015 43.1479C106.032 43.9783 105.737 44.7848 105.187 45.4073C104.917 45.7115 104.582 45.952 104.208 46.1115C103.834 46.271 103.429 46.3455 103.022 46.3296C102.612 46.3403 102.204 46.2616 101.827 46.099C101.45 45.9365 101.113 45.6939 100.839 45.3881C100.279 44.7633 99.976 43.9495 99.9919 43.1106C99.9721 42.2911 100.269 41.4954 100.821 40.8896V40.8896ZM114.833 48.2681C115.445 48.2516 116.047 48.1109 116.603 47.8544C117.234 47.6014 117.769 47.153 118.128 46.5748V48.1551C118.162 48.5651 118.107 48.9776 117.966 49.3642C117.825 49.7507 117.602 50.1021 117.312 50.3939C117.022 50.6857 116.672 50.9111 116.286 51.0544C115.9 51.1977 115.488 51.2555 115.078 51.2238C114.398 51.2294 113.732 51.0292 113.168 50.6496C112.603 50.27 112.167 49.7287 111.915 49.0966L110.053 50.1662C110.473 51.1396 111.187 51.9571 112.095 52.504C113.003 53.0509 114.06 53.2998 115.116 53.2158C115.811 53.2467 116.504 53.1396 117.157 52.9005C117.81 52.6615 118.409 52.2953 118.919 51.8232C119.409 51.3306 119.792 50.7408 120.041 50.0918C120.291 49.4427 120.402 48.7487 120.368 48.0542V38.1347H118.186V39.6595C117.824 39.0962 117.299 38.6563 116.68 38.3981C116.127 38.1325 115.525 37.9851 114.912 37.9652C114.229 37.9424 113.551 38.0726 112.925 38.3462C112.3 38.6198 111.744 39.0299 111.298 39.5464C110.42 40.5301 109.937 41.8041 109.943 43.1227C109.916 44.4608 110.407 45.7576 111.313 46.7424C111.754 47.2366 112.298 47.6288 112.906 47.8917C113.514 48.1547 114.172 48.2821 114.834 48.2651L114.833 48.2681ZM118.163 43.0914C118.182 43.9255 117.879 44.7349 117.316 45.3508C117.046 45.6496 116.714 45.8857 116.344 46.0426C115.973 46.1995 115.572 46.2733 115.17 46.259C114.765 46.2716 114.362 46.197 113.989 46.0403C113.615 45.8836 113.28 45.6485 113.005 45.3508C112.456 44.7282 112.16 43.9218 112.177 43.0914C112.154 42.2718 112.451 41.4754 113.005 40.8714C113.289 40.5853 113.626 40.3581 113.997 40.2031C114.369 40.0481 114.767 39.9683 115.17 39.9683C115.572 39.9683 115.971 40.0481 116.343 40.2031C116.714 40.3581 117.051 40.5853 117.334 40.8714C117.886 41.4761 118.183 42.2701 118.165 43.0884L118.163 43.0914ZM123.373 48.1924H125.613V32.8672H123.373V48.1924ZM137.853 43.825C137.879 43.5938 137.892 43.3614 137.891 43.1288C137.955 41.7539 137.49 40.4067 136.592 39.3638C136.133 38.8783 135.573 38.4988 134.952 38.2517C134.331 38.0046 133.664 37.8958 132.997 37.9329C132.321 37.9163 131.65 38.0434 131.028 38.306C130.406 38.5685 129.846 38.9604 129.387 39.4556C128.915 39.9452 128.544 40.5231 128.295 41.1561C128.047 41.7891 127.925 42.4649 127.938 43.1449C127.921 43.8388 128.046 44.5288 128.305 45.1728C128.564 45.8168 128.951 46.4013 129.444 46.8907C129.939 47.3793 130.527 47.7628 131.174 48.0184C131.821 48.274 132.513 48.3963 133.209 48.3781C134.077 48.4032 134.936 48.1902 135.693 47.7623C136.449 47.3344 137.074 46.7077 137.5 45.9502L135.886 44.8775C135.637 45.3761 135.246 45.7901 134.763 46.0679C134.28 46.3457 133.725 46.475 133.169 46.4396C132.425 46.4498 131.702 46.1891 131.136 45.706C130.857 45.4773 130.631 45.1904 130.474 44.8654C130.317 44.5403 130.233 44.1849 130.228 43.824L137.853 43.825ZM133 39.8512C133.322 39.8247 133.646 39.863 133.953 39.9638C134.261 40.0646 134.544 40.2258 134.788 40.4381C135.032 40.6504 135.231 40.9093 135.373 41.1997C135.515 41.49 135.598 41.8059 135.616 42.1287H130.346C130.426 41.487 130.742 40.8981 131.232 40.4769C131.723 40.0558 132.353 39.8327 133 39.8512V39.8512ZM155.906 38.0257C155.918 37.4267 155.808 36.8315 155.585 36.2754C155.362 35.7193 155.03 35.2137 154.608 34.7885C154.09 34.3137 153.481 33.9501 152.817 33.7203C152.153 33.4905 151.449 33.3993 150.749 33.4525H145.533V48.1894H147.854V42.7312H150.47C151.923 42.8163 153.353 42.3377 154.461 41.3951C154.927 40.9679 155.297 40.4464 155.546 39.8653C155.795 39.2842 155.917 38.6568 155.905 38.0247L155.906 38.0257ZM150.542 35.5978C150.958 35.5548 151.378 35.5977 151.776 35.7239C152.175 35.8501 152.543 36.0569 152.858 36.3314C153.085 36.5622 153.263 36.836 153.383 37.1366C153.502 37.4372 153.56 37.7587 153.554 38.0822C153.554 39.4375 152.594 40.605 150.542 40.605H147.854V35.5968L150.542 35.5978ZM158.009 48.1904H160.25V32.8672H158.009V48.1904ZM168.989 41.377C168.989 41.9421 168.669 42.2236 168.048 42.2236H166.806C165.037 42.2236 162.627 42.9572 162.627 45.2913V45.4043C162.616 45.8083 162.696 46.2097 162.862 46.5781C163.029 46.9466 163.276 47.2725 163.587 47.5315C164.267 48.095 165.131 48.3897 166.015 48.36C166.602 48.4016 167.189 48.2793 167.711 48.0067C168.233 47.7341 168.669 47.3219 168.97 46.816V48.1904H171.172V41.7897C171.187 41.1701 171.071 40.5544 170.833 39.9824C170.211 38.608 168.951 37.9309 167.068 37.9309C166.178 37.8606 165.289 38.0688 164.523 38.5266C163.757 38.9844 163.153 39.6691 162.793 40.4859L164.509 41.4647C164.712 40.9733 165.061 40.5562 165.508 40.2699C165.956 39.9836 166.481 39.842 167.013 39.8643C168.271 39.8694 168.986 40.5475 168.986 41.3749L168.989 41.377ZM168.97 44.1247C168.992 44.4565 168.941 44.789 168.822 45.0994C168.703 45.4097 168.518 45.6907 168.28 45.9231C168.043 46.1555 167.757 46.3338 167.444 46.4457C167.131 46.5577 166.798 46.6007 166.467 46.5718C166.269 46.5983 166.068 46.5828 165.877 46.5262C165.686 46.4696 165.509 46.3732 165.358 46.2434C165.207 46.1136 165.085 45.9533 165 45.773C164.916 45.5928 164.87 45.3966 164.866 45.1974C164.865 44.989 164.921 44.7844 165.028 44.6054C165.135 44.4264 165.288 44.2798 165.472 44.1813C165.875 43.9375 166.337 43.8074 166.808 43.8049H168.972L168.97 44.1247ZM175.081 38.1387H172.521L177.002 47.0612L174.232 53.1401H176.622L183.53 38.1377H181.102L178.203 44.7242L175.081 38.1387Z" fill="#003C3C"/>
<rect x="0.945312" y="1.09375" width="202.263" height="66.8148" rx="7.5" stroke="black" stroke-opacity="0.2"/>
</svg>
