<svg width="200" height="69" viewBox="0 0 200 69" fill="none" xmlns="http://www.w3.org/2000/svg">
<rect y="0.375" width="199.448" height="68.252" rx="8" fill="white"/>
<path d="M39.9783 54.2756C36.0656 54.2796 32.2397 53.123 28.9845 50.9521C25.7293 48.7813 23.1911 45.6937 21.691 42.08C20.191 38.4664 19.7964 34.4889 20.5573 30.651C21.3181 26.813 23.2003 23.2869 25.9655 20.5189C28.7308 17.7508 32.2549 15.8651 36.0921 15.1003C39.9293 14.3355 43.9071 14.726 47.5223 16.2224C51.1375 17.7188 54.2277 20.2538 56.4019 23.5068C58.576 26.7598 59.7365 30.5845 59.7365 34.4972C59.7379 37.0932 59.2279 39.664 58.2356 42.063C57.2434 44.4619 55.7884 46.6419 53.9537 48.4785C52.1189 50.315 49.9404 51.7723 47.5425 52.767C45.1447 53.7616 42.5743 54.2743 39.9783 54.2756ZM31.5351 40.0089C31.2802 40.0095 31.0262 40.0399 30.7783 40.0997L30.4816 40.1804L29.308 42.1916C29.0823 42.5494 29.0049 42.981 29.0921 43.3949C29.1793 43.8088 29.4243 44.1725 29.7752 44.4088C30.1261 44.6451 30.5552 44.7354 30.9716 44.6606C31.3879 44.5857 31.7587 44.3516 32.0054 44.008L32.1275 43.8243L33.6886 41.1088C33.4357 40.7701 33.1079 40.4946 32.7308 40.3038C32.3537 40.1129 31.9376 40.012 31.515 40.0089H31.5351ZM42.3709 27.8896C41.7561 28.4679 41.3487 29.2324 41.2114 30.0652C40.9909 31.2138 41.2018 32.4035 41.8038 33.4063L47.81 43.8223C48.0177 44.1751 48.3511 44.4364 48.7433 44.5538C49.1355 44.6713 49.5576 44.6363 49.925 44.4557C50.2925 44.2752 50.5782 43.9625 50.7249 43.5802C50.8716 43.198 50.8685 42.7744 50.7162 42.3944L50.6153 42.1926L49.039 39.4458H51.3903C51.8037 39.4447 52.2012 39.2863 52.5021 39.0028C52.803 38.7193 52.9847 38.3319 53.0104 37.9193C53.0361 37.5066 52.9038 37.0997 52.6404 36.781C52.377 36.4624 52.0022 36.2559 51.5921 36.2036L51.3903 36.1915H47.1621L42.823 28.6757L42.3749 27.8896H42.3709ZM28.637 36.1763C28.4242 36.1763 28.2135 36.2184 28.017 36.3001C27.8205 36.3818 27.6421 36.5015 27.4921 36.6524C27.3421 36.8033 27.2233 36.9824 27.1427 37.1793C27.0621 37.3763 27.0212 37.5872 27.0224 37.8C27.0228 38.1957 27.1672 38.5778 27.4287 38.8749C27.6901 39.172 28.0508 39.3638 28.4432 39.4145L28.6451 39.4246H43.4244C43.5879 39.0959 43.6702 38.7327 43.6644 38.3656C43.6586 37.9984 43.5649 37.638 43.3911 37.3146C43.2432 37.0117 43.0228 36.7502 42.7494 36.5531C42.4759 36.3561 42.158 36.2298 41.824 36.1854L41.5848 36.1733H36.5443L43.5152 24.0903C43.7229 23.7328 43.7867 23.3097 43.6938 22.9068C43.6009 22.504 43.3581 22.1516 43.0148 21.9212C42.6716 21.6908 42.2535 21.5997 41.8454 21.6663C41.4374 21.7329 41.07 21.9523 40.8179 22.28L40.6958 22.4616L39.9783 23.7159L39.2719 22.4616C39.0646 22.1073 38.7308 21.8447 38.3377 21.7265C37.9446 21.6083 37.5213 21.6433 37.153 21.8244C36.7846 22.0055 36.4985 22.3193 36.352 22.7028C36.2056 23.0863 36.2098 23.511 36.3637 23.8915L36.4646 24.0933L38.0973 26.9814L32.7925 36.1783L28.637 36.1763Z" fill="#003C3C"/>
<path d="M69.8281 23.435H72.4599C73.6864 23.4692 74.8778 23.0235 75.7808 22.1928C76.204 21.7818 76.541 21.2906 76.7721 20.7479C77.0033 20.2051 77.124 19.6218 77.1272 19.0319C77.1304 18.442 77.016 17.8574 76.7907 17.3122C76.5655 16.767 76.2338 16.2722 75.8151 15.8566C75.3691 15.432 74.8424 15.1013 74.2663 14.8839C73.6901 14.6666 73.0762 14.567 72.4609 14.5912H69.8281V23.435ZM70.7545 15.4631H72.4145C72.9131 15.4393 73.4115 15.5165 73.8796 15.6899C74.3478 15.8633 74.7761 16.1293 75.139 16.4722C75.8004 17.158 76.169 18.0742 76.1669 19.027C76.1648 19.9797 75.7922 20.8943 75.1279 21.5772C74.767 21.9146 74.3423 22.1763 73.8787 22.347C73.4151 22.5177 72.9221 22.5939 72.4286 22.5712H70.7535L70.7545 15.4631ZM87.2281 18.9869C87.2417 18.3973 87.1356 17.8111 86.9162 17.2637C86.6968 16.7163 86.3686 16.2191 85.9516 15.8021C85.5452 15.3773 85.0544 15.0421 84.5109 14.8181C83.9673 14.5941 83.3828 14.4862 82.7951 14.5014C82.2022 14.4867 81.6128 14.5958 81.0645 14.8217C80.5161 15.0475 80.0209 15.3852 79.6104 15.8132C79.1927 16.239 78.8646 16.744 78.6454 17.2986C78.4261 17.8533 78.3202 18.4462 78.3339 19.0424C78.3191 19.6327 78.4235 20.2199 78.6408 20.769C78.858 21.3181 79.1837 21.8177 79.5983 22.2382C80.4478 23.0676 81.5892 23.5301 82.7764 23.5259C83.9637 23.5217 85.1018 23.0513 85.9455 22.216C86.3642 21.7906 86.6933 21.2855 86.9134 20.7307C87.1335 20.1759 87.2402 19.5826 87.2271 18.9859L87.2281 18.9869ZM86.2684 19.0434C86.2879 19.9933 85.9352 20.9132 85.2856 21.6065C84.97 21.9498 84.5843 22.2213 84.1546 22.4024C83.7249 22.5834 83.2612 22.6699 82.7951 22.656C82.3248 22.6665 81.8577 22.5762 81.4251 22.3912C80.9926 22.2062 80.6047 21.9307 80.2875 21.5833C79.6275 20.8819 79.2704 19.9487 79.2935 18.9859C79.272 18.0389 79.6252 17.1217 80.2764 16.4338C80.5889 16.0876 80.9729 15.8133 81.4019 15.63C81.8309 15.4467 82.2945 15.3588 82.7608 15.3723C83.2311 15.3617 83.6982 15.452 84.1308 15.637C84.5633 15.8221 84.9512 16.0975 85.2684 16.4449C85.9302 17.1456 86.2892 18.0788 86.2674 19.0424L86.2684 19.0434ZM88.1494 14.5932L90.9164 23.436H91.9325L94.3039 15.8465L96.6642 23.436H97.7036L100.482 14.5932H99.5462L97.2192 22.1373H97.195L94.8458 14.5932H93.7943L91.4562 22.0929H91.434L89.1192 14.5932H88.1494ZM109.23 14.5932H108.314V21.9799L103.096 14.5932H102.023V23.436H102.938V15.902L108.235 23.435H109.229L109.23 14.5932ZM112.623 14.5932H111.697V23.436H116.813V22.5662H112.621L112.623 14.5932ZM125.976 18.9869C125.989 18.3973 125.883 17.8111 125.664 17.2637C125.444 16.7163 125.116 16.2191 124.699 15.8021C124.293 15.3783 123.803 15.0438 123.26 14.8202C122.718 14.5966 122.134 14.4887 121.548 14.5034C120.955 14.4887 120.365 14.5978 119.817 14.8237C119.269 15.0496 118.773 15.3873 118.363 15.8153C117.945 16.241 117.617 16.7461 117.398 17.3007C117.179 17.8553 117.073 18.4482 117.086 19.0444C117.072 19.6348 117.176 20.222 117.394 20.7711C117.611 21.3202 117.937 21.8199 118.352 22.2402C119.201 23.0696 120.343 23.5321 121.53 23.5279C122.717 23.5238 123.855 23.0533 124.699 22.218C125.117 21.7918 125.445 21.2861 125.664 20.731C125.883 20.1758 125.988 19.5824 125.974 18.9859L125.976 18.9869ZM125.016 19.0434C125.035 19.9933 124.683 20.9132 124.033 21.6065C123.718 21.9492 123.334 22.2204 122.905 22.4016C122.476 22.5829 122.014 22.6699 121.549 22.657C121.078 22.6675 120.611 22.5772 120.179 22.3922C119.746 22.2072 119.358 21.9317 119.041 21.5843C118.381 20.8829 118.024 19.9497 118.047 18.9869C118.026 18.0399 118.379 17.1227 119.03 16.4349C119.343 16.0886 119.727 15.8143 120.156 15.631C120.584 15.4477 121.048 15.3598 121.514 15.3733C121.985 15.3627 122.452 15.453 122.884 15.638C123.317 15.8231 123.705 16.0985 124.022 16.446C124.681 17.1476 125.037 18.0803 125.013 19.0424L125.016 19.0434ZM128.535 21.1776H133.351L134.311 23.436H135.294L131.476 14.5932H130.425L126.607 23.436H127.556L128.535 21.1776ZM128.885 20.33L130.94 15.5529L132.996 20.33H128.885ZM136.569 23.436H139.201C140.427 23.4701 141.619 23.0244 142.522 22.1938C142.944 21.7824 143.281 21.2911 143.512 20.7484C143.742 20.2058 143.863 19.6226 143.866 19.0329C143.869 18.4432 143.755 17.8588 143.53 17.3136C143.305 16.7685 142.974 16.2736 142.556 15.8576C142.11 15.4331 141.584 15.1023 141.007 14.8849C140.431 14.6676 139.817 14.568 139.202 14.5922H136.57L136.569 23.436ZM137.496 15.4641H139.156C139.654 15.4404 140.153 15.5176 140.621 15.691C141.089 15.8643 141.517 16.1304 141.88 16.4732C142.541 17.159 142.91 18.0752 142.908 19.028C142.906 19.9807 142.533 20.8953 141.869 21.5783C141.508 21.9156 141.083 22.1773 140.62 22.348C140.156 22.5187 139.663 22.595 139.17 22.5722H137.489L137.496 15.4641ZM157.124 18.9879C157.137 18.3983 157.031 17.8121 156.812 17.2647C156.592 16.7173 156.264 16.2201 155.847 15.8032C155.441 15.3793 154.951 15.0448 154.408 14.8212C153.866 14.5976 153.282 14.4897 152.696 14.5044C152.103 14.4897 151.513 14.5987 150.965 14.8246C150.416 15.0504 149.921 15.3882 149.51 15.8163C149.092 16.242 148.764 16.7471 148.545 17.3017C148.326 17.8563 148.22 18.4492 148.233 19.0454C148.219 19.6359 148.323 20.2233 148.541 20.7724C148.758 21.3215 149.085 21.8211 149.5 22.2412C150.349 23.0706 151.491 23.5331 152.678 23.5289C153.865 23.5248 155.003 23.0544 155.847 22.219C156.265 21.7925 156.592 21.2867 156.811 20.7314C157.03 20.1761 157.135 19.5825 157.121 18.9859L157.124 18.9879ZM156.164 19.0444C156.183 19.9944 155.83 20.9143 155.18 21.6075C154.865 21.9502 154.481 22.2213 154.052 22.4025C153.623 22.5838 153.161 22.6709 152.696 22.658C152.225 22.6684 151.758 22.5781 151.326 22.393C150.893 22.208 150.505 21.9326 150.188 21.5853C149.528 20.8837 149.171 19.9506 149.194 18.9879C149.173 18.0408 149.526 17.1236 150.178 16.4359C150.491 16.0896 150.875 15.8154 151.304 15.6321C151.732 15.4488 152.196 15.3608 152.662 15.3743C153.133 15.3639 153.6 15.4542 154.032 15.6392C154.465 15.8242 154.853 16.0997 155.17 16.447C155.827 17.1492 156.181 18.0813 156.157 19.0424L156.164 19.0444ZM166.163 14.5942H165.25V21.9809L160.032 14.5942H158.959V23.437H159.872V15.902L165.169 23.435H166.163V14.5942Z" fill="#003C3C"/>
<path d="M69.8281 48.8005H72.5527L74.1148 44.8226H82.4268L83.9636 48.8055H86.7346L79.8727 31.8526H76.7344L69.8281 48.8005ZM78.2743 34.4056L81.5034 42.4582H75.0664L78.2743 34.4056ZM100.576 42.9779C100.585 41.4497 100.021 39.9734 98.9952 38.8406C98.495 38.2483 97.867 37.7771 97.1584 37.4625C96.4499 37.1479 95.6792 36.9981 94.9043 37.0242C94.1792 37.038 93.4645 37.2001 92.8044 37.5005C92.0623 37.8077 91.4396 38.3469 91.0294 39.0374V37.2412H88.5137V54.4968H91.0899V47.1122C91.5107 47.7463 92.1147 48.237 92.8215 48.5189C93.4597 48.796 94.1444 48.9501 94.8398 48.973C95.6134 48.9956 96.3825 48.8483 97.0932 48.5416C97.8038 48.235 98.4386 47.7764 98.9529 47.198C100.017 46.0529 100.598 44.5411 100.576 42.9779V42.9779ZM91.9981 40.4017C92.3145 40.0532 92.7029 39.7778 93.1365 39.5946C93.5701 39.4114 94.0384 39.3249 94.5088 39.3411C94.9763 39.3228 95.4421 39.4084 95.8726 39.5918C96.3031 39.7752 96.6875 40.0518 96.9982 40.4017C97.6262 41.1213 97.9721 42.0441 97.9721 42.9991C97.9721 43.9542 97.6262 44.8769 96.9982 45.5966C96.6832 45.9396 96.2974 46.2102 95.8676 46.3896C95.4378 46.5691 94.9742 46.6531 94.5088 46.6359C94.0405 46.651 93.5743 46.5661 93.1414 46.3869C92.7085 46.2076 92.3188 45.9382 91.9981 45.5966C91.3832 44.8708 91.0458 43.9504 91.0458 42.9991C91.0458 42.0479 91.3832 41.1275 91.9981 40.4017V40.4017ZM115.308 42.9779C115.318 41.4497 114.754 39.9734 113.728 38.8406C113.228 38.2483 112.6 37.7771 111.891 37.4624C111.183 37.1478 110.412 36.998 109.637 37.0242C108.912 37.038 108.197 37.2001 107.537 37.5005C106.795 37.8077 106.173 38.3469 105.762 39.0374V37.2412H103.249V54.4968H105.823V47.1122C106.244 47.7463 106.848 48.237 107.554 48.5189C108.191 48.7954 108.874 48.9494 109.568 48.973C110.341 48.9956 111.11 48.8483 111.821 48.5416C112.532 48.235 113.166 47.7764 113.681 47.198C114.747 46.0537 115.33 44.5418 115.308 42.9779V42.9779ZM106.731 40.4017C107.047 40.0532 107.436 39.7778 107.869 39.5946C108.303 39.4114 108.771 39.3249 109.242 39.3411C109.709 39.3228 110.175 39.4084 110.606 39.5918C111.036 39.7752 111.42 40.0518 111.731 40.4017C112.359 41.1213 112.705 42.0441 112.705 42.9991C112.705 43.9542 112.359 44.8769 111.731 45.5966C111.417 45.9399 111.031 46.2109 110.602 46.3908C110.172 46.5708 109.709 46.6555 109.244 46.639C108.775 46.654 108.309 46.5691 107.876 46.3899C107.443 46.2107 107.054 45.9412 106.733 45.5996C106.118 44.8738 105.781 43.9534 105.781 43.0022C105.781 42.0509 106.118 41.1305 106.733 40.4047L106.731 40.4017ZM129.032 48.9952C130.568 49.0777 132.075 48.5574 133.232 47.5451C133.722 47.1156 134.115 46.5863 134.383 45.9927C134.652 45.399 134.791 44.7547 134.79 44.1031C134.808 43.5422 134.71 42.9836 134.502 42.4626C134.293 41.9415 133.979 41.4693 133.579 41.0758C132.314 40.0345 130.825 39.3008 129.228 38.9324C127.15 38.3048 126.089 37.6115 126.089 36.335C126.089 34.9717 127.279 34.0141 128.924 34.0141C129.675 33.9872 130.415 34.2049 131.031 34.6343C131.648 35.0638 132.109 35.6818 132.344 36.3956L134.552 35.2048C134.127 34.0921 133.359 33.1437 132.359 32.4975C131.358 31.8513 130.178 31.5409 128.989 31.6114C127.523 31.5729 126.095 32.0824 124.984 33.0403C124.471 33.4542 124.058 33.9789 123.777 34.5751C123.496 35.1712 123.353 35.8232 123.36 36.4823C123.333 37.0624 123.436 37.6412 123.66 38.1767C123.885 38.7122 124.226 39.191 124.659 39.5783C125.84 40.4966 127.195 41.1666 128.642 41.548C131.064 42.3059 132.04 43.0203 132.04 44.2534C132.04 45.6601 130.806 46.5744 129.075 46.5744C128.192 46.5924 127.326 46.3295 126.603 45.8237C125.879 45.3178 125.335 44.5952 125.048 43.76L122.802 44.9235C123.268 46.1798 124.124 47.2535 125.246 47.9865C126.367 48.7195 127.695 49.0731 129.032 48.9952ZM143.747 39.5571V37.2361H140.911V33.67H138.335V37.2412H136.216V39.5621H138.335V45.0819C138.335 47.5926 139.807 48.9347 142.34 48.9347C142.812 48.9368 143.281 48.8562 143.726 48.6965V46.5058C143.456 46.5656 143.18 46.5947 142.903 46.5925C141.582 46.5925 140.911 46.0517 140.911 44.6662V39.5581L143.747 39.5571ZM151.589 37.003C150.788 36.9899 149.993 37.1363 149.25 37.4336C148.506 37.7309 147.829 38.1732 147.259 38.7347C146.692 39.2902 146.241 39.9528 145.933 40.6842C145.624 41.4155 145.464 42.2008 145.462 42.9945C145.46 43.7882 145.616 44.5743 145.921 45.3072C146.225 46.0401 146.672 46.7052 147.236 47.2636C147.807 47.8251 148.484 48.2674 149.227 48.5647C149.971 48.862 150.766 49.0083 151.566 48.9952C152.364 49.0124 153.157 48.8678 153.898 48.5702C154.638 48.2726 155.31 47.8281 155.874 47.2636C156.453 46.7081 156.91 46.0382 157.216 45.2965C157.521 44.5549 157.669 43.7577 157.65 42.9557C157.668 42.1642 157.52 41.3777 157.214 40.6475C156.908 39.9173 156.451 39.2597 155.874 38.7175C155.311 38.161 154.642 37.7228 153.906 37.4283C153.171 37.1339 152.385 36.9893 151.593 37.003H151.589ZM149.055 40.4017C149.371 40.0531 149.76 39.7776 150.194 39.5945C150.627 39.4113 151.096 39.3249 151.566 39.3411C152.034 39.3227 152.5 39.4083 152.93 39.5917C153.361 39.7751 153.745 40.0518 154.056 40.4017C154.704 41.1095 155.053 42.04 155.031 42.9991C155.05 43.9538 154.71 44.8808 154.078 45.5966C153.767 45.9463 153.383 46.2229 152.952 46.4062C152.522 46.5896 152.056 46.6753 151.589 46.6571C151.117 46.6694 150.647 46.5789 150.214 46.3919C149.78 46.205 149.392 45.926 149.077 45.5744C148.431 44.8549 148.083 43.9171 148.103 42.9507C148.082 42.0097 148.424 41.0968 149.059 40.4017H149.055ZM166.663 37.1978C166.457 37.1476 166.246 37.1259 166.035 37.1332C165.373 37.1164 164.721 37.2915 164.156 37.6372C163.592 37.983 163.139 38.4847 162.853 39.0818V37.2412H160.345V48.8005H162.921V42.9345C162.921 40.9163 163.961 39.774 165.93 39.774C166.177 39.7711 166.423 39.7927 166.666 39.8386L166.663 37.1978ZM179.215 43.7782C179.244 43.5121 179.259 43.2446 179.257 42.9769C179.331 41.3961 178.797 39.8471 177.764 38.6479C177.235 38.0892 176.591 37.6526 175.877 37.3685C175.162 37.0844 174.394 36.9597 173.627 37.003C172.849 36.9833 172.076 37.1294 171.359 37.4317C170.642 37.7339 169.998 38.1853 169.469 38.7558C168.374 39.892 167.775 41.4164 167.803 42.9941C167.784 43.7921 167.928 44.5856 168.226 45.3262C168.523 46.0668 168.969 46.7391 169.535 47.3019C170.104 47.8639 170.781 48.305 171.525 48.5989C172.269 48.8928 173.065 49.0335 173.865 49.0124C174.864 49.0409 175.851 48.7959 176.721 48.3038C177.591 47.8117 178.31 47.0912 178.8 46.2202L176.938 44.986C176.652 45.5584 176.204 46.0338 175.649 46.3532C175.094 46.6726 174.458 46.8218 173.819 46.7823C172.964 46.7931 172.133 46.493 171.482 45.9376C171.162 45.6742 170.903 45.3441 170.724 44.9702C170.544 44.5963 170.449 44.1878 170.444 43.7731L179.215 43.7782ZM173.635 39.211C174.006 39.1799 174.379 39.2237 174.733 39.3397C175.086 39.4557 175.413 39.6415 175.694 39.8863C175.974 40.131 176.202 40.4295 176.365 40.7642C176.528 41.0989 176.622 41.4629 176.642 41.8346H170.582C170.673 41.0957 171.036 40.4172 171.6 39.9319C172.165 39.4467 172.89 39.1896 173.635 39.211V39.211Z" fill="#003C3C"/>
<rect x="0.5" y="0.875" width="198.448" height="67.252" rx="7.5" stroke="black" stroke-opacity="0.2"/>
</svg>
