<svg width="70" height="71" viewBox="0 0 70 71" fill="none" xmlns="http://www.w3.org/2000/svg">
<path d="M45.9699 48.0843C45.8121 48.2408 45.6209 48.3589 45.3979 48.4398L45.1729 48.5071C45.1729 48.5071 14.8307 60.6926 12.4714 58.3358C10.1121 55.9788 22.4648 25.822 22.4648 25.822L22.5332 25.5983C22.6153 25.3766 22.7347 25.1867 22.8925 25.0302C24.78 23.1583 31.4766 26.8013 37.8491 33.1674C44.2217 39.5336 47.8573 46.2125 45.9699 48.0843Z" fill="url(#paint0_linear_8487_97060)"/>
<path d="M44.076 48.9403C42.4792 49.5706 39.2818 50.8181 35.5064 52.2146C33.1972 53.069 30.6716 53.979 28.1638 54.8367C25.9722 55.5864 23.7938 56.2974 21.7865 56.8966C20.4073 55.7429 19.0368 54.4916 17.694 53.1503C16.3513 51.809 15.0993 50.4402 13.9453 49.0633C14.5545 47.0675 15.2768 44.9017 16.038 42.7231C16.9088 40.2299 17.8323 37.7194 18.6991 35.4242C20.1158 31.6713 21.3808 28.4934 22.0198 26.9062C26.091 29.1037 30.4413 32.3535 34.5377 36.4457C38.6341 40.5381 41.8832 44.8801 44.076 48.9403Z" fill="url(#paint1_linear_8487_97060)"/>
<path d="M45.9647 48.084C45.8073 48.2411 45.6157 48.3586 45.3927 48.44L45.168 48.5068C45.168 48.5068 44.7757 48.6643 44.0772 48.94C42.4803 49.5703 39.283 50.8178 35.5075 52.2142C33.1984 53.0686 30.6728 53.9787 28.1649 54.8364C25.9851 53.2 23.8003 51.3096 21.6834 49.1948C19.5664 47.0799 17.6752 44.8983 16.0391 42.7228C16.9099 40.2296 17.8334 37.7191 18.7002 35.4239C20.1169 31.671 21.3819 28.4931 22.0209 26.9059C22.3004 26.2117 22.4601 25.8218 22.4601 25.8218L22.528 25.5983C22.6107 25.3767 22.7294 25.1864 22.8877 25.0302C24.7753 23.1582 31.4713 26.8015 37.8443 33.1671C44.2165 39.5339 47.8523 46.2121 45.9647 48.084Z" fill="url(#paint2_linear_8487_97060)"/>
<path d="M45.9754 48.084C45.818 48.241 45.6263 48.3585 45.4034 48.4399L45.1787 48.5067C45.1787 48.5067 44.7864 48.6642 44.0878 48.9399C42.491 49.5702 39.2936 50.8177 35.5182 52.2141C32.4451 50.1997 29.2972 47.6469 26.287 44.6397C23.2768 41.6325 20.7235 38.4899 18.7109 35.4239C20.1276 31.671 21.3927 28.4931 22.0316 26.9059C22.3112 26.2117 22.4709 25.8218 22.4709 25.8218L22.5388 25.5983C22.6215 25.3767 22.7402 25.1864 22.8985 25.0302C24.786 23.1582 31.482 26.8015 37.855 33.1671C44.2271 39.5338 47.8629 46.212 45.9754 48.084Z" fill="url(#paint3_linear_8487_97060)"/>
<path d="M45.9668 48.0845C44.079 49.9567 37.3824 46.3137 31.0099 39.9475C24.6373 33.5813 21.0016 26.9027 22.8894 25.0304C24.7773 23.158 31.4738 26.8011 37.8463 33.1674C44.2189 39.5336 47.8546 46.2122 45.9668 48.0845Z" fill="url(#paint4_linear_8487_97060)"/>
<path d="M44.7915 46.3758C43.3969 47.759 37.7486 44.3671 32.1758 38.7999C26.603 33.2327 23.2159 27.5983 24.6105 26.2152C26.0052 24.832 31.6535 28.2239 37.2263 33.7911C42.7991 39.3582 46.1862 44.9926 44.7915 46.3758Z" fill="url(#paint5_linear_8487_97060)"/>
<path d="M45.9734 48.0867C47.8609 46.2148 44.2253 39.5361 37.8527 33.17C34.116 29.4371 30.2684 26.6412 27.3438 25.3438C27.4579 25.5529 27.5854 25.7603 27.7278 25.9647C27.9592 26.297 28.2301 26.5999 28.5351 26.873L30.1533 28.4949C29.9667 28.5791 29.7954 28.6458 29.6512 28.6963C29.3932 28.7868 29.2422 29.0525 29.2961 29.3194L29.8688 32.1506C29.9194 32.4009 30.0958 32.591 30.3163 32.6741L45.8519 48.194C45.8943 48.1606 45.9349 48.1249 45.9734 48.0867Z" fill="url(#paint6_linear_8487_97060)"/>
<path d="M35.642 39.2848L37.2311 41.1756L44.6336 48.5707C45.1994 48.5548 45.654 48.3966 45.9718 48.0813C47.6215 46.4452 45.0532 41.139 40.1266 35.5781C38.5915 36.2163 37.128 37.0516 35.7765 38.0787C35.3946 38.3687 35.3338 38.9181 35.642 39.2848Z" fill="url(#paint7_linear_8487_97060)"/>
<path d="M37.2311 41.1743L35.642 39.2835C35.3338 38.9168 35.3947 38.3675 35.7764 38.0773C40.7012 34.3348 47.1071 33.1192 53.0898 34.832C54.5956 35.263 56.0374 35.8673 57.3869 36.6324C57.8044 36.8691 57.9382 37.4058 57.6817 37.8101L56.3597 39.8948C56.12 40.2727 55.6255 40.3962 55.2339 40.1777C54.198 39.6001 53.0933 39.1418 51.94 38.8116C47.2613 37.4722 42.2537 38.4068 38.3846 41.3057C38.0259 41.5744 37.5191 41.517 37.2311 41.1743Z" fill="url(#paint8_linear_8487_97060)"/>
<path d="M23.5039 21.5521L22.061 20.0743C21.4071 19.4045 21.2101 18.3262 21.592 17.5064C22.0354 16.5545 23.0995 16.2755 23.9565 16.8864C24.6947 17.4126 25.057 18.4475 24.8194 19.3511L24.2953 21.3446C24.2027 21.6969 23.759 21.8133 23.5039 21.5521Z" fill="url(#paint9_linear_8487_97060)"/>
<path d="M20.937 23.1544L18.8882 22.858C17.9595 22.7238 17.1432 21.9884 16.944 21.1067C16.7127 20.083 17.3855 19.2163 18.439 19.1808C19.3463 19.1502 20.2672 19.7508 20.6322 20.6114L21.4373 22.5099C21.5797 22.8453 21.299 23.2068 20.937 23.1544Z" fill="url(#paint10_linear_8487_97060)"/>
<path d="M48.3734 46.8586L50.4352 46.6729C51.3698 46.5887 52.3355 47.115 52.7351 47.9265C53.1991 48.8686 52.7471 49.8672 51.7307 50.1456C50.8553 50.3852 49.8195 50.0141 49.2635 49.2615L48.0372 47.6013C47.8205 47.3079 48.009 46.8914 48.3734 46.8586Z" fill="url(#paint11_linear_8487_97060)"/>
<path d="M48.7294 43.8752L50.2504 42.4771C50.9397 41.8434 52.0276 41.675 52.8413 42.0758C53.7861 42.5413 54.0392 43.6072 53.4038 44.4444C52.8565 45.1656 51.8079 45.4997 50.9065 45.2403L48.9176 44.668C48.5662 44.5668 48.4607 44.1222 48.7294 43.8752Z" fill="url(#paint12_linear_8487_97060)"/>
<path d="M30.7781 32.6839C30.3746 32.8134 29.9483 32.5619 29.8647 32.1483L29.292 29.3171C29.238 29.0501 29.3891 28.7845 29.6471 28.694C29.9487 28.5882 30.3677 28.4142 30.8009 28.1491C29.4926 27.7192 28.4281 26.9738 27.7237 25.9624C26.3958 24.0556 26.2918 21.9062 27.4452 20.2129C28.5865 18.5373 30.6954 17.7199 32.6934 18.179C34.8777 18.6809 36.412 20.5832 36.7976 23.2678C36.8137 23.3796 36.8279 23.4908 36.8402 23.6015C37.3761 23.289 37.8091 22.9036 38.0802 22.472C38.7667 21.3799 38.8318 19.7501 38.2464 18.3199C37.8748 17.4122 37.3012 16.718 36.6542 16.3688C36.3656 16.2131 36.2118 15.89 36.2892 15.5725L36.9452 12.88C37.0457 12.4676 37.487 12.2303 37.8851 12.3821C39.7211 13.082 41.2318 14.6386 42.0991 16.7572C43.1891 19.4199 43.0007 22.4512 41.6072 24.6682C40.5048 26.4223 38.4714 27.7306 36.1204 28.2837C35.5922 29.3828 34.8019 30.3484 33.7653 31.1394C32.6583 31.9839 31.5115 32.4486 30.7781 32.6839ZM31.5935 22.1957C31.3214 22.1952 31.0293 22.33 30.8886 22.5367C30.6784 22.8452 30.9577 23.3375 31.1429 23.6034C31.3968 23.9681 31.9881 24.2402 32.7328 24.3621C32.7221 24.197 32.7042 24.0277 32.6792 23.8539C32.5463 22.929 32.2018 22.3159 31.7576 22.2138C31.7048 22.2017 31.6496 22.1958 31.5935 22.1957Z" fill="url(#paint13_radial_8487_97060)"/>
<path d="M39.827 26.5806L36.8449 23.6016C36.8449 23.6016 37.0354 26.4781 36.125 28.2838C37.5115 27.9577 38.7873 27.3687 39.827 26.5806Z" fill="url(#paint14_linear_8487_97060)"/>
<path d="M31.1426 23.6075C31.0069 23.4126 30.8216 23.0966 30.8143 22.82L26.6484 22.8125C26.6549 23.8621 27.0147 24.9488 27.7234 25.9664C28.4277 26.9779 29.4922 27.7233 30.8005 28.1531C30.8005 28.1531 32.9356 27.5084 32.7326 24.3661C31.9877 24.2442 31.3965 23.9722 31.1426 23.6075Z" fill="url(#paint15_linear_8487_97060)"/>
<path d="M39.9728 33.034C39.0058 33.6612 38.1806 34.4875 37.5558 35.454C37.4152 35.6714 37.091 35.6709 36.9513 35.453C36.3299 34.4841 35.5079 33.6549 34.5431 33.0241C34.3289 32.8841 34.3295 32.5657 34.5442 32.4265C35.5112 31.7992 36.3363 30.973 36.9612 30.0064C37.1017 29.7891 37.426 29.7896 37.5657 30.0075C38.1871 30.9763 39.0092 31.8056 39.9739 32.4364C40.1881 32.5764 40.1875 32.8948 39.9728 33.034Z" fill="url(#paint16_linear_8487_97060)"/>
<path d="M57.6603 31.7683C56.6933 32.3956 55.8681 33.2219 55.2433 34.1884C55.1028 34.4058 54.7785 34.4052 54.6387 34.1873C54.0174 33.2185 53.1954 32.3893 52.2306 31.7584C52.0164 31.6185 52.017 31.3001 52.2317 31.1609C53.1987 30.5336 54.0238 29.7073 54.6487 28.7408C54.7892 28.5234 55.1135 28.524 55.2532 28.7419C55.8746 29.7107 56.6967 30.54 57.6614 31.1708C57.8756 31.3107 57.875 31.6291 57.6603 31.7683Z" fill="url(#paint17_linear_8487_97060)"/>
<path d="M49.3791 17.7137C48.4121 18.3409 47.5869 19.1672 46.9621 20.1337C46.8215 20.3511 46.4972 20.3505 46.3575 20.1326C45.7362 19.1638 44.9142 18.3346 43.9493 17.7038C43.7351 17.5638 43.7358 17.2454 43.9504 17.1062C44.9174 16.4789 45.7425 15.6527 46.3674 14.6861C46.5079 14.4688 46.8323 14.4693 46.972 14.6872C47.5933 15.656 48.4154 16.4853 49.3802 17.1161C49.5943 17.2561 49.5937 17.5745 49.3791 17.7137Z" fill="url(#paint18_linear_8487_97060)"/>
<path d="M48.4811 27.4037C47.7761 27.861 47.1747 28.4633 46.7192 29.1678C46.6167 29.3263 46.3803 29.3258 46.2785 29.167C45.8257 28.4608 45.2264 27.8563 44.5231 27.3964C44.367 27.2944 44.3674 27.0623 44.5239 26.9608C45.2289 26.5035 45.8303 25.9012 46.2858 25.1967C46.3883 25.0383 46.6247 25.0386 46.7265 25.1975C47.1794 25.9038 47.7787 26.5082 48.4819 26.9681C48.6381 27.0701 48.6376 27.3022 48.4811 27.4037Z" fill="url(#paint19_linear_8487_97060)"/>
<path d="M51.3561 21.9584C50.6511 22.4157 50.0497 23.018 49.5942 23.7225C49.4917 23.8809 49.2553 23.8805 49.1535 23.7217C48.7007 23.0154 48.1014 22.411 47.3981 21.9511C47.242 21.8491 47.2424 21.617 47.3989 21.5155C48.1039 21.0582 48.7053 20.4559 49.1608 19.7514C49.2633 19.593 49.4997 19.5933 49.6015 19.7522C50.0544 20.4585 50.6537 21.0629 51.3569 21.5228C51.513 21.6248 51.5126 21.8569 51.3561 21.9584Z" fill="url(#paint20_linear_8487_97060)"/>
<defs>
<linearGradient id="paint0_linear_8487_97060" x1="18.1666" y1="34.986" x2="31.5838" y2="54.385" gradientUnits="userSpaceOnUse">
<stop stop-color="#FFE548"/>
<stop offset="0.1758" stop-color="#FFDE50"/>
<stop offset="0.4446" stop-color="#FFCA65"/>
<stop offset="0.7709" stop-color="#FFAA87"/>
<stop offset="1" stop-color="#FF90A4"/>
</linearGradient>
<linearGradient id="paint1_linear_8487_97060" x1="28.6778" y1="50.1482" x2="26.0933" y2="59.2901" gradientUnits="userSpaceOnUse">
<stop stop-color="#FBA5C2" stop-opacity="0"/>
<stop offset="0.3857" stop-color="#FCA0BA" stop-opacity="0.386"/>
<stop offset="0.9737" stop-color="#FF91A5" stop-opacity="0.974"/>
<stop offset="1" stop-color="#FF90A4"/>
</linearGradient>
<linearGradient id="paint2_linear_8487_97060" x1="31.2979" y1="44.6992" x2="28.0975" y2="56.2338" gradientUnits="userSpaceOnUse">
<stop stop-color="#FBA5C2" stop-opacity="0"/>
<stop offset="0.3857" stop-color="#FCA0BA" stop-opacity="0.386"/>
<stop offset="0.9737" stop-color="#FF91A5" stop-opacity="0.974"/>
<stop offset="1" stop-color="#FF90A4"/>
</linearGradient>
<linearGradient id="paint3_linear_8487_97060" x1="33.4521" y1="38.4387" x2="29.4538" y2="51.5694" gradientUnits="userSpaceOnUse">
<stop stop-color="#FBA5C2" stop-opacity="0"/>
<stop offset="0.3857" stop-color="#FCA0BA" stop-opacity="0.386"/>
<stop offset="0.9737" stop-color="#FF91A5" stop-opacity="0.974"/>
<stop offset="1" stop-color="#FF90A4"/>
</linearGradient>
<linearGradient id="paint4_linear_8487_97060" x1="35.7377" y1="33.6204" x2="31.4989" y2="43.1969" gradientUnits="userSpaceOnUse">
<stop stop-color="#FFE548"/>
<stop offset="0.1758" stop-color="#FFDE50"/>
<stop offset="0.4446" stop-color="#FFCA65"/>
<stop offset="0.7709" stop-color="#FFAA87"/>
<stop offset="1" stop-color="#FF90A4"/>
</linearGradient>
<linearGradient id="paint5_linear_8487_97060" x1="31.7099" y1="40.8534" x2="37.6984" y2="31.6378" gradientUnits="userSpaceOnUse">
<stop stop-color="#FFD00D" stop-opacity="0"/>
<stop offset="1" stop-color="#DB722B"/>
</linearGradient>
<linearGradient id="paint6_linear_8487_97060" x1="37.2991" y1="36.8184" x2="33.5634" y2="25.298" gradientUnits="userSpaceOnUse">
<stop stop-color="#FFD00D" stop-opacity="0"/>
<stop offset="1" stop-color="#DB722B"/>
</linearGradient>
<linearGradient id="paint7_linear_8487_97060" x1="41.7752" y1="43.1619" x2="38.755" y2="38.1742" gradientUnits="userSpaceOnUse">
<stop stop-color="#A34A9E" stop-opacity="0"/>
<stop offset="1" stop-color="#343168"/>
</linearGradient>
<linearGradient id="paint8_linear_8487_97060" x1="46.5625" y1="41.6051" x2="46.6999" y2="34.0199" gradientUnits="userSpaceOnUse">
<stop stop-color="#A34A9E"/>
<stop offset="1" stop-color="#343168"/>
</linearGradient>
<linearGradient id="paint9_linear_8487_97060" x1="22.7681" y1="18.8041" x2="24.4408" y2="19.5354" gradientUnits="userSpaceOnUse">
<stop stop-color="#3FA9F5"/>
<stop offset="1" stop-color="#666AD6"/>
</linearGradient>
<linearGradient id="paint10_linear_8487_97060" x1="18.7102" y1="21.4055" x2="20.4807" y2="20.9611" gradientUnits="userSpaceOnUse">
<stop stop-color="#A34A9E"/>
<stop offset="1" stop-color="#343168"/>
</linearGradient>
<linearGradient id="paint11_linear_8487_97060" x1="50.8171" y1="48.0583" x2="46.4468" y2="50.7054" gradientUnits="userSpaceOnUse">
<stop stop-color="#FF4974"/>
<stop offset="0.4497" stop-color="#FE4773"/>
<stop offset="0.6292" stop-color="#FC406D"/>
<stop offset="0.7605" stop-color="#F73464"/>
<stop offset="0.8683" stop-color="#F12257"/>
<stop offset="0.9606" stop-color="#E80C46"/>
<stop offset="1" stop-color="#E4003D"/>
</linearGradient>
<linearGradient id="paint12_linear_8487_97060" x1="51.6088" y1="42.6554" x2="49.5801" y2="48.4852" gradientUnits="userSpaceOnUse">
<stop stop-color="#C4F8B6"/>
<stop offset="1" stop-color="#3B8EAC"/>
</linearGradient>
<radialGradient id="paint13_radial_8487_97060" cx="0" cy="0" r="1" gradientUnits="userSpaceOnUse" gradientTransform="translate(27.285 15.7225) rotate(0.11406) scale(18.3116 18.2267)">
<stop stop-color="#FF4974"/>
<stop offset="0.4497" stop-color="#FE4773"/>
<stop offset="0.6292" stop-color="#FC406D"/>
<stop offset="0.7605" stop-color="#F73464"/>
<stop offset="0.8683" stop-color="#F12257"/>
<stop offset="0.9606" stop-color="#E80C46"/>
<stop offset="1" stop-color="#E4003D"/>
</radialGradient>
<linearGradient id="paint14_linear_8487_97060" x1="40.3305" y1="28.7177" x2="33.751" y2="23.9363" gradientUnits="userSpaceOnUse">
<stop stop-color="#E4003D" stop-opacity="0"/>
<stop offset="0.3434" stop-color="#CD0E2D" stop-opacity="0.343"/>
<stop offset="1" stop-color="#972E07"/>
</linearGradient>
<linearGradient id="paint15_linear_8487_97060" x1="30.3079" y1="25.3279" x2="32.1455" y2="27.0425" gradientUnits="userSpaceOnUse">
<stop stop-color="#E4003D" stop-opacity="0"/>
<stop offset="0.3434" stop-color="#CD0E2D" stop-opacity="0.343"/>
<stop offset="1" stop-color="#972E07"/>
</linearGradient>
<linearGradient id="paint16_linear_8487_97060" x1="36.3174" y1="31.4857" x2="39.342" y2="35.5542" gradientUnits="userSpaceOnUse">
<stop stop-color="#3FA9F5"/>
<stop offset="1" stop-color="#666AD6"/>
</linearGradient>
<linearGradient id="paint17_linear_8487_97060" x1="54.0052" y1="30.2232" x2="57.0298" y2="34.2916" gradientUnits="userSpaceOnUse">
<stop stop-color="#3FA9F5"/>
<stop offset="1" stop-color="#666AD6"/>
</linearGradient>
<linearGradient id="paint18_linear_8487_97060" x1="45.7265" y1="16.1671" x2="48.751" y2="20.2356" gradientUnits="userSpaceOnUse">
<stop stop-color="#A34A9E"/>
<stop offset="1" stop-color="#343168"/>
</linearGradient>
<linearGradient id="paint19_linear_8487_97060" x1="45.8166" y1="26.278" x2="48.0214" y2="29.2438" gradientUnits="userSpaceOnUse">
<stop stop-color="#C4F8B6"/>
<stop offset="1" stop-color="#3B8EAC"/>
</linearGradient>
<linearGradient id="paint20_linear_8487_97060" x1="48.6925" y1="20.8331" x2="50.8973" y2="23.7989" gradientUnits="userSpaceOnUse">
<stop stop-color="#FFE548"/>
<stop offset="0.1758" stop-color="#FFDE50"/>
<stop offset="0.4446" stop-color="#FFCA65"/>
<stop offset="0.7709" stop-color="#FFAA87"/>
<stop offset="1" stop-color="#FF90A4"/>
</linearGradient>
</defs>
</svg>
