<svg width="45" height="45" viewBox="0 0 45 45" fill="none" xmlns="http://www.w3.org/2000/svg">
<rect x="0.273438" y="0.8125" width="44" height="44" rx="4.87456" fill="#FFF5E0"/>
<path fill-rule="evenodd" clip-rule="evenodd" d="M22 33C13.765 33 12 31.235 12 23C12 14.765 13.765 13 22 13C30.235 13 32 14.765 32 23C32 31.235 30.235 33 22 33ZM21.0077 28.1918C20.5559 28.104 20.2608 27.6666 20.3487 27.2148L22.0087 18.6744C22.0966 18.2226 22.534 17.9275 22.9857 18.0154C23.4376 18.1032 23.7326 18.5406 23.6448 18.9924L21.9848 27.5329C21.8969 27.9846 21.4595 28.2796 21.0077 28.1918ZM19.2559 21.9226C19.5814 21.5971 19.5814 21.0695 19.2559 20.7441C18.9305 20.4187 18.4029 20.4187 18.0774 20.7441L16.4107 22.4107C16.0853 22.7362 16.0853 23.2638 16.4107 23.5893L18.0774 25.2559C18.4029 25.5814 18.9305 25.5814 19.2559 25.2559C19.5814 24.9305 19.5814 24.4029 19.2559 24.0774L18.1785 23L19.2559 21.9226ZM24.7441 21.9226C24.4187 21.5971 24.4187 21.0695 24.7441 20.7441C25.0695 20.4187 25.5972 20.4187 25.9226 20.7441L27.5893 22.4107C27.9148 22.7362 27.9148 23.2638 27.5893 23.5893L25.9226 25.2559C25.5972 25.5814 25.0695 25.5814 24.7441 25.2559C24.4187 24.9305 24.4187 24.4029 24.7441 24.0774L25.8215 23L24.7441 21.9226Z" fill="#FFAB00"/>
</svg>
