<svg width="44" height="44" viewBox="0 0 44 44" fill="none" xmlns="http://www.w3.org/2000/svg">
<rect width="44" height="44" rx="4.87456" fill="#FFF4F3"/>
<path d="M12.9609 18.7692V29.5113C12.9609 29.944 13.313 30.2961 13.7458 30.2961H15.9412V17.9844H13.7458C13.313 17.9844 12.9609 18.3365 12.9609 18.7692V18.7692Z" fill="#FF7680"/>
<path d="M16.5391 17.9844H27.4459V30.2961H16.5391V17.9844Z" fill="#FF7680"/>
<path d="M30.211 17.9844H28.0156V30.2961H30.211C30.6438 30.2961 30.9958 29.944 30.9958 29.5113V18.7692C30.9958 18.3365 30.6438 17.9844 30.211 17.9844Z" fill="#FF7680"/>
<path d="M21.9924 15.1831C23.2717 15.1831 24.3291 16.1487 24.4756 17.3892H25.9458C25.7942 15.34 24.0797 13.7188 21.9924 13.7188C19.9052 13.7188 18.1906 15.34 18.0391 17.3892H19.5092C19.6558 16.1487 20.7132 15.1831 21.9924 15.1831Z" fill="#FF7680"/>
</svg>
