<svg width="45" height="45" viewBox="0 0 45 45" fill="none" xmlns="http://www.w3.org/2000/svg">
<rect x="0.117188" y="0.304688" width="44" height="44" rx="4.87456" fill="#EDF9FF"/>
<path d="M24.5156 16.4175V12.0547C24.991 12.1582 25.4263 12.4007 25.7682 12.7524L29.2608 16.3059C29.6064 16.6537 29.8447 17.0966 29.9465 17.5803H25.6585C25.3554 17.5803 25.0647 17.4578 24.8504 17.2397C24.636 17.0216 24.5156 16.7259 24.5156 16.4175Z" fill="#0483BC"/>
<path d="M25.6571 18.9767C25.3269 18.977 24.9998 18.911 24.6947 18.7825C24.3895 18.654 24.1123 18.4656 23.8787 18.228C23.6452 17.9904 23.46 17.7083 23.3338 17.3979C23.2075 17.0874 23.1426 16.7546 23.1429 16.4186V12H16.5143C16.184 11.9998 15.857 12.0658 15.5518 12.1942C15.2467 12.3227 14.9694 12.5111 14.7359 12.7487C14.5024 12.9863 14.3172 13.2684 14.1909 13.5789C14.0646 13.8894 13.9998 14.2221 14 14.5581V29.4419C13.9998 29.7779 14.0646 30.1106 14.1909 30.4211C14.3172 30.7316 14.5024 31.0137 14.7359 31.2513C14.9694 31.4889 15.2467 31.6773 15.5518 31.8058C15.857 31.9342 16.184 32.0002 16.5143 32H27.4857C27.816 32.0002 28.143 31.9342 28.4482 31.8058C28.7533 31.6773 29.0306 31.4889 29.2641 31.2513C29.4976 31.0137 29.6828 30.7316 29.8091 30.4211C29.9354 30.1106 30.0002 29.7779 30 29.4419V18.9767H25.6571ZM22 27.3488H18.3429C18.161 27.3488 17.9866 27.2753 17.858 27.1445C17.7294 27.0137 17.6571 26.8362 17.6571 26.6512C17.6571 26.4661 17.7294 26.2887 17.858 26.1578C17.9866 26.027 18.161 25.9535 18.3429 25.9535H22C22.1819 25.9535 22.3563 26.027 22.4849 26.1578C22.6135 26.2887 22.6857 26.4661 22.6857 26.6512C22.6857 26.8362 22.6135 27.0137 22.4849 27.1445C22.3563 27.2753 22.1819 27.3488 22 27.3488ZM25.6571 23.6279H18.3429C18.161 23.6279 17.9866 23.5544 17.858 23.4236C17.7294 23.2927 17.6571 23.1153 17.6571 22.9302C17.6571 22.7452 17.7294 22.5677 17.858 22.4369C17.9866 22.3061 18.161 22.2326 18.3429 22.2326H25.6571C25.839 22.2326 26.0134 22.3061 26.142 22.4369C26.2706 22.5677 26.3429 22.7452 26.3429 22.9302C26.3429 23.1153 26.2706 23.2927 26.142 23.4236C26.0134 23.5544 25.839 23.6279 25.6571 23.6279Z" fill="#0483BC"/>
</svg>
