<svg width="42" height="49" viewBox="0 0 42 49" fill="none" xmlns="http://www.w3.org/2000/svg">
<path d="M12.3495 30.5237C12.2084 30.2056 11.5733 29.9582 11.0705 29.481C10.4032 28.8501 9.91854 28.0501 9.6679 27.1659C9.41135 26.2095 9.2867 25.2224 9.29742 24.2321C9.29601 23.4053 9.36982 22.5801 9.51794 21.7667C9.62672 21.121 9.8164 20.4916 10.0825 19.8934C10.9991 17.7247 12.4389 15.8179 14.2725 14.3441C15.9263 13.0564 17.9325 12.3043 20.0238 12.1879C20.0238 12.1879 20.0238 12.1879 20.0238 12.241C20.0238 13.1246 19.9092 14.4324 19.9092 15.6695C19.9023 16.2607 19.9407 16.8515 20.0238 17.4368C20.036 17.5094 20.0623 17.5788 20.1013 17.6411C20.1402 17.7035 20.191 17.7575 20.2508 17.8002C20.3106 17.8429 20.3782 17.8733 20.4498 17.8898C20.5213 17.9063 20.5954 17.9085 20.6678 17.8963C20.7402 17.8842 20.8095 17.8578 20.8717 17.8188C20.934 17.7798 20.9879 17.7289 21.0305 17.669C21.0731 17.6091 21.1035 17.5414 21.12 17.4697C21.1364 17.398 21.1386 17.3238 21.1265 17.2513C21.1966 17.2647 21.2686 17.2638 21.3384 17.2486C21.4081 17.2334 21.4741 17.2043 21.5323 17.1629C25.537 14.3087 29.0831 11.0304 33.6789 9.28957C33.7646 9.25546 33.8411 9.20173 33.9024 9.13268C33.9637 9.06364 34.008 8.98118 34.0317 8.89192C34.049 8.80137 34.0453 8.70805 34.0208 8.61917C33.9963 8.5303 33.9518 8.44826 33.8906 8.3794C32.2165 6.6328 30.3726 5.05798 28.3862 3.67837C26.4351 2.28915 24.2683 1.23222 21.9733 0.550243H21.9116C21.7197 0.434258 21.5116 0.34787 21.2941 0.293984C21.226 0.267366 21.1504 0.267366 21.0824 0.293984H20.8971C20.8372 0.23825 20.766 0.19601 20.6884 0.1701C20.6108 0.14419 20.5286 0.13521 20.4473 0.143763C20.3757 0.156486 20.3074 0.183364 20.2464 0.222827C20.1853 0.26229 20.1327 0.313546 20.0916 0.373602C20.0506 0.433657 20.0219 0.501308 20.0072 0.572602C19.9925 0.643896 19.9922 0.717403 20.0062 0.788829C20.1297 1.4604 20.2532 2.55613 20.3502 3.54582C20.3943 4.04067 20.4384 4.52668 20.4649 4.92432C20.4914 5.32197 20.4649 5.55172 20.4649 5.73728C20.0238 5.73728 19.5828 5.67543 19.1241 5.67543C16.6055 5.72899 14.1226 6.28304 11.8194 7.30543C9.51624 8.32781 7.43867 9.79819 5.70724 11.6312C2.17043 15.1257 0.124535 19.8582 4.07803e-07 24.833C-0.000465485 26.8531 0.398267 28.8532 1.1732 30.7181C1.59543 31.81 2.11813 32.8602 2.73453 33.8551C2.99774 34.3693 3.36411 34.8236 3.81071 35.1894C4.47229 35.534 4.64871 35.1894 5.31911 34.7564C7.37442 33.4751 9.80022 32.724 11.785 31.319C12.2789 30.9656 12.4024 30.727 12.3495 30.5237Z" fill="#F9CE0F"/>
<path d="M38.5166 13.6305C38.1637 12.6939 37.7668 11.9604 36.5936 12.5083C34.8556 13.3413 33.1732 14.2858 31.5567 15.336C30.9128 15.7513 29.5985 16.308 29.1662 16.9354C28.5576 17.819 29.9425 18.1372 30.4365 18.5613C31.1531 19.2432 31.6585 20.1176 31.8919 21.0797C32.1721 22.1104 32.3087 23.175 32.2977 24.2432C32.3287 25.5465 32.1163 26.8442 31.6714 28.0694C30.8363 30.2699 29.473 32.2304 27.7019 33.7778C26.1085 35.1365 24.1388 35.9751 22.0564 36.1813C22.0564 36.1813 22.0564 36.1372 22.0564 36.1195C22.0564 35.8897 22.0564 35.6423 22.0564 35.3684C22.0564 34.8912 22.0564 34.3699 22.0564 33.822C22.0814 32.8483 22.0105 31.8745 21.8447 30.9148C21.5889 29.6953 19.1367 32.2049 18.7044 32.5584C17.6283 33.442 16.5697 34.3257 15.4847 35.2093C13.3771 36.9936 11.0354 38.4801 8.5249 39.6276C8.43985 39.6623 8.36471 39.7176 8.30622 39.7886C8.24772 39.8595 8.20769 39.9438 8.1897 40.0341C8.17187 40.1254 8.17793 40.2197 8.2073 40.308C8.23667 40.3963 8.28835 40.4754 8.3573 40.5377C10.0866 42.1963 11.9779 43.6765 14.0028 44.956C15.8254 46.1033 17.7842 47.0176 19.8335 47.6777C20.548 47.8986 21.7212 48.5613 22.2593 47.7483C22.7974 46.9354 22.1446 45.5127 22.0476 44.7793C21.9241 43.8514 21.8271 43.012 21.8006 42.5967C22.03 42.5967 22.2505 42.5967 22.4798 42.5967C25.0031 42.5533 27.492 42.0022 29.7984 40.976C32.1048 39.9498 34.1817 38.4695 35.9055 36.6232C39.3999 33.0845 41.4157 28.3442 41.5422 23.3684C41.5422 20.09 40.3425 17.6246 38.9664 14.7616C38.8165 14.3993 38.6577 14.0017 38.5166 13.6305Z" fill="#F9CE0F"/>
</svg>
