<svg width="591" height="260" viewBox="0 0 591 260" fill="none" xmlns="http://www.w3.org/2000/svg">
<g clip-path="url(#clip0_8699_99275)">
<path d="M0.359375 228.455C0.359375 228.328 132.442 228.219 295.332 228.219C458.223 228.219 590.305 228.328 590.305 228.455C590.305 228.582 458.241 228.692 295.332 228.692C132.423 228.692 0.359375 228.582 0.359375 228.455Z" fill="#B7CEDA"/>
<path d="M431.404 196.31H402.544C401.491 196.312 400.448 196.106 399.475 195.704C398.502 195.302 397.618 194.713 396.873 193.97C396.128 193.227 395.537 192.344 395.134 191.373C394.731 190.401 394.523 189.36 394.523 188.308C394.522 187.256 394.729 186.214 395.132 185.241C395.534 184.268 396.125 183.385 396.87 182.641C397.615 181.897 398.5 181.306 399.473 180.904C400.447 180.502 401.491 180.296 402.544 180.297H431.404V196.31Z" fill="#65C57A"/>
<path d="M487.58 182.952H423.414V180.297H487.58C487.755 180.296 487.929 180.329 488.091 180.395C488.254 180.462 488.401 180.559 488.526 180.683C488.65 180.806 488.749 180.953 488.816 181.114C488.883 181.276 488.918 181.449 488.918 181.625C488.918 181.8 488.883 181.973 488.816 182.135C488.749 182.296 488.65 182.443 488.526 182.567C488.401 182.69 488.254 182.788 488.091 182.854C487.929 182.92 487.755 182.953 487.58 182.952Z" fill="#65C57A"/>
<path d="M487.58 196.306H423.414V193.688H487.58C487.755 193.686 487.929 193.72 488.091 193.786C488.254 193.852 488.401 193.95 488.526 194.073C488.65 194.197 488.749 194.343 488.816 194.505C488.883 194.667 488.918 194.84 488.918 195.015C488.909 195.363 488.763 195.692 488.513 195.934C488.263 196.175 487.928 196.309 487.58 196.306Z" fill="#65C57A"/>
<path d="M486.965 193.687H430.73C429.309 193.687 427.946 193.124 426.941 192.122C425.936 191.119 425.37 189.759 425.367 188.34C425.367 186.92 425.932 185.558 426.938 184.553C427.943 183.549 429.307 182.984 430.73 182.984H486.965C486.218 184.67 485.832 186.493 485.832 188.336C485.832 190.179 486.218 192.002 486.965 193.687Z" fill="#F5F5F5"/>
<g opacity="0.3">
<path d="M425.368 196.31H402.562C401.507 196.31 400.461 196.103 399.486 195.699C398.511 195.296 397.624 194.704 396.878 193.959C396.131 193.213 395.539 192.328 395.135 191.354C394.731 190.379 394.523 189.335 394.523 188.281C394.523 186.163 395.366 184.133 396.865 182.635C398.364 181.138 400.397 180.297 402.517 180.297H425.978C420.179 183.807 420.607 192.218 425.368 196.31Z" fill="black"/>
</g>
<path d="M480.144 188.794C480.144 188.849 468.6 188.894 454.361 188.894C440.122 188.894 428.578 188.894 428.578 188.794C428.578 188.694 440.122 188.703 454.361 188.703C468.6 188.703 480.144 188.74 480.144 188.794Z" fill="#263238"/>
<path d="M485.431 191.178C485.431 191.233 473.888 191.269 459.658 191.269C445.428 191.269 433.875 191.269 433.875 191.178C433.875 191.087 445.41 191.078 459.658 191.078C473.906 191.078 485.431 191.124 485.431 191.178Z" fill="#263238"/>
<path d="M483.869 185.419C483.869 185.474 472.334 185.519 458.095 185.519C443.856 185.519 432.312 185.474 432.312 185.419C432.312 185.365 443.856 185.328 458.095 185.328C472.334 185.328 483.869 185.374 483.869 185.419Z" fill="#263238"/>
<path d="M422.541 195.186C422.541 195.241 417.142 195.277 410.478 195.277C403.814 195.277 398.406 195.277 398.406 195.186C398.406 195.095 403.814 195.086 410.478 195.086C417.142 195.086 422.541 195.131 422.541 195.186Z" fill="#263238"/>
<path d="M422.541 181.622C422.541 181.677 417.142 181.722 410.478 181.722C403.814 181.722 398.406 181.677 398.406 181.622C398.406 181.568 403.814 181.531 410.478 181.531C417.142 181.531 422.541 181.568 422.541 181.622Z" fill="#263238"/>
<path d="M428.536 228.179H391.355C388.617 228.179 385.991 227.092 384.055 225.158C382.119 223.224 381.031 220.602 381.031 217.867C381.031 215.132 382.119 212.509 384.055 210.575C385.991 208.641 388.617 207.555 391.355 207.555H428.536V228.179Z" fill="#65C57A"/>
<path d="M500.881 210.966H418.234V207.547H500.881C501.335 207.547 501.771 207.727 502.092 208.048C502.413 208.368 502.593 208.803 502.593 209.256C502.593 209.71 502.413 210.145 502.092 210.465C501.771 210.786 501.335 210.966 500.881 210.966Z" fill="#65C57A"/>
<path d="M500.881 228.177H418.234V224.758H500.881C501.335 224.758 501.771 224.938 502.092 225.259C502.413 225.579 502.593 226.014 502.593 226.467C502.593 226.921 502.413 227.356 502.092 227.676C501.771 227.997 501.335 228.177 500.881 228.177Z" fill="#65C57A"/>
<path d="M500.082 224.762H427.65C425.821 224.76 424.068 224.033 422.776 222.74C421.484 221.448 420.758 219.696 420.758 217.869C420.758 216.043 421.484 214.291 422.776 212.999C424.068 211.706 425.821 210.979 427.65 210.977H500.082C499.123 213.148 498.627 215.496 498.627 217.869C498.627 220.243 499.123 222.591 500.082 224.762Z" fill="#F5F5F5"/>
<g opacity="0.4">
<path d="M420.762 228.179H391.246C388.537 228.179 385.939 227.104 384.023 225.19C382.107 223.277 381.031 220.682 381.031 217.976C381.031 215.212 382.13 212.561 384.087 210.607C386.044 208.653 388.697 207.555 391.465 207.555H421.508C414.07 212.074 414.598 222.914 420.762 228.179Z" fill="black"/>
</g>
<path d="M491.279 218.505C491.279 218.56 476.421 218.605 458.085 218.605C439.75 218.605 424.883 218.56 424.883 218.505C424.883 218.45 439.741 218.414 458.085 218.414C476.43 218.414 491.279 218.45 491.279 218.505Z" fill="#263238"/>
<path d="M498.116 221.568C498.116 221.622 483.249 221.668 464.914 221.668C446.578 221.668 431.711 221.622 431.711 221.568C431.711 221.513 446.578 221.477 464.914 221.477C483.249 221.477 498.116 221.513 498.116 221.568Z" fill="#263238"/>
<path d="M496.108 215.67C496.108 215.725 481.241 215.761 462.906 215.761C444.57 215.761 429.703 215.761 429.703 215.67C429.703 215.579 444.561 215.57 462.906 215.57C481.251 215.57 496.108 215.616 496.108 215.67Z" fill="#263238"/>
<path d="M417.12 226.732C417.12 226.786 410.165 226.832 401.58 226.832C392.995 226.832 386.039 226.832 386.039 226.732C386.039 226.632 392.995 226.641 401.58 226.641C410.165 226.641 417.12 226.677 417.12 226.732Z" fill="#263238"/>
<path d="M417.12 209.263C417.12 209.317 410.165 209.363 401.58 209.363C392.995 209.363 386.039 209.317 386.039 209.263C386.039 209.208 392.995 209.172 401.58 209.172C410.165 209.172 417.12 209.208 417.12 209.263Z" fill="#263238"/>
<path d="M440.87 207.625H408.222C406.654 207.625 405.151 207.003 404.041 205.897C402.932 204.79 402.307 203.289 402.305 201.723C402.305 200.156 402.928 198.652 404.038 197.544C405.148 196.435 406.653 195.812 408.222 195.812H440.906L440.87 207.625Z" fill="#455A64"/>
<path d="M499.652 198.595H432.5V195.812H499.652C500.02 195.815 500.373 195.962 500.634 196.223C500.895 196.483 501.042 196.836 501.045 197.204C501.045 197.387 501.009 197.567 500.939 197.736C500.869 197.905 500.766 198.058 500.637 198.188C500.507 198.317 500.354 198.419 500.185 198.489C500.016 198.559 499.835 198.595 499.652 198.595Z" fill="#455A64"/>
<path d="M499.652 207.627H432.5V204.844H499.652C499.837 204.84 500.022 204.874 500.195 204.942C500.367 205.01 500.525 205.112 500.658 205.241C500.791 205.371 500.897 205.525 500.969 205.696C501.042 205.866 501.08 206.05 501.081 206.235C501.081 206.421 501.044 206.605 500.972 206.776C500.899 206.947 500.794 207.103 500.66 207.232C500.527 207.362 500.369 207.464 500.196 207.531C500.023 207.599 499.838 207.631 499.652 207.627Z" fill="#455A64"/>
<path d="M499.003 204.849H437.677C436.85 204.846 436.057 204.517 435.472 203.933C434.887 203.348 434.557 202.556 434.555 201.73C434.555 200.902 434.883 200.107 435.469 199.521C436.054 198.935 436.848 198.604 437.677 198.602H499.003C498.242 199.465 497.823 200.575 497.823 201.725C497.823 202.875 498.242 203.986 499.003 204.849Z" fill="#F5F5F5"/>
<g opacity="0.3">
<path d="M434.555 207.625H408.153C407.383 207.626 406.619 207.475 405.907 207.182C405.195 206.888 404.547 206.457 404.002 205.913C403.456 205.369 403.024 204.723 402.728 204.012C402.433 203.301 402.281 202.539 402.281 201.769C402.281 200.189 402.91 198.674 404.028 197.557C405.146 196.44 406.663 195.812 408.244 195.812H435.202C429.166 198.404 429.575 204.597 434.555 207.625Z" fill="black"/>
</g>
<path d="M491.849 201.233C491.849 201.233 479.768 201.324 464.874 201.324C449.98 201.324 437.898 201.278 437.898 201.233C437.898 201.187 449.97 201.133 464.874 201.133C479.777 201.133 491.849 201.178 491.849 201.233Z" fill="#263238"/>
<path d="M497.443 202.911C497.443 202.966 485.362 203.011 470.468 203.011C455.573 203.011 443.492 202.966 443.492 202.911C443.492 202.857 455.564 202.82 470.468 202.82C485.371 202.82 497.443 202.866 497.443 202.911Z" fill="#263238"/>
<path d="M431.591 206.42C431.591 206.475 425.937 206.511 418.963 206.511C411.99 206.511 406.336 206.511 406.336 206.42C406.336 206.329 411.99 206.32 418.963 206.32C425.937 206.32 431.591 206.42 431.591 206.42Z" fill="#263238"/>
<path d="M431.591 197.208C431.591 197.263 425.937 197.308 418.963 197.308C411.99 197.308 406.336 197.308 406.336 197.208C406.336 197.108 411.99 197.117 418.963 197.117C425.937 197.117 431.591 197.154 431.591 197.208Z" fill="#263238"/>
<path d="M500.236 195.818C500.236 195.872 479.497 195.918 453.923 195.918C428.35 195.918 407.602 195.918 407.602 195.818C407.602 195.718 428.332 195.727 453.923 195.727C479.515 195.727 500.236 195.763 500.236 195.818Z" fill="#263238"/>
<path d="M449.211 185.492V191.903L451.441 190.484L453.918 191.903V185.492H449.211Z" fill="#FF725E"/>
<path d="M191.852 227.546L263.273 258.055L339.274 251.589L269.883 226.109L191.852 227.546Z" fill="#F5F5F5"/>
<path d="M260.669 251.584L260.414 245.819L334.13 241.727V246.482L260.669 251.584Z" fill="#E0E0E0"/>
<path d="M328.661 244.441C328.661 244.569 313.503 245.705 294.794 246.978C276.085 248.252 260.9 249.17 260.891 249.043C260.882 248.915 276.04 247.77 294.758 246.506C313.476 245.242 328.652 244.314 328.661 244.441Z" fill="#263238"/>
<path d="M260.534 246.487L213.685 227.945L213.594 231.446L260.671 251.488L260.534 246.487Z" fill="#E0E0E0"/>
<path d="M213.688 227.94L260.537 246.481L334.135 241.725L278.345 225.484L213.688 227.94Z" fill="white"/>
<path d="M213.689 227.946L278.328 225.281H278.401L334.2 241.495C334.258 241.514 334.307 241.555 334.336 241.609C334.365 241.663 334.372 241.727 334.354 241.786C334.342 241.833 334.315 241.874 334.277 241.905C334.24 241.936 334.194 241.955 334.145 241.959L333.49 242.004L260.538 246.669H260.457L213.68 227.946L260.602 246.314H260.52L333.453 241.559L334.118 241.513L334.063 241.977L278.282 225.709H278.346L213.689 227.946Z" fill="#263238"/>
<path d="M260.674 251.586C260.359 249.9 260.359 248.17 260.674 246.484C260.989 248.17 260.989 249.9 260.674 251.586Z" fill="#263238"/>
<path d="M310.879 238.248C310.879 238.385 299.59 239.158 285.661 239.967C271.732 240.776 260.415 241.34 260.406 241.213C260.397 241.085 271.686 240.303 285.634 239.494C299.581 238.685 310.87 238.139 310.879 238.248Z" fill="#263238"/>
<path d="M304.692 236.255C304.692 236.382 293.412 237.164 279.474 237.964C265.535 238.765 254.228 239.337 254.219 239.21C254.21 239.083 265.508 238.301 279.446 237.491C293.385 236.682 304.683 236.118 304.692 236.255Z" fill="#263238"/>
<path d="M298.502 234.237C298.502 234.364 287.222 235.146 273.284 235.955C259.345 236.765 248.038 237.338 247.992 237.201C247.947 237.065 259.281 236.292 273.22 235.483C287.158 234.673 298.502 234.109 298.502 234.237Z" fill="#263238"/>
<path d="M292.318 232.223C292.318 232.351 281.029 233.133 267.091 233.933C253.152 234.733 241.845 235.306 241.836 235.179C241.827 235.052 253.125 234.27 267.063 233.46C281.002 232.651 292.309 232.087 292.318 232.223Z" fill="#263238"/>
<path d="M286.129 230.21C286.129 230.337 274.84 231.119 260.902 231.928C246.964 232.738 235.665 233.301 235.656 233.165C235.647 233.029 246.936 232.256 260.875 231.455C274.813 230.655 286.12 230.064 286.129 230.21Z" fill="#263238"/>
<path d="M279.934 228.19C279.934 228.326 268.645 229.099 254.716 229.908C240.786 230.718 229.47 231.282 229.461 231.154C229.452 231.027 240.741 230.245 254.688 229.436C268.636 228.626 279.925 228.063 279.934 228.19Z" fill="#263238"/>
<path d="M344.548 157.55C344.548 157.55 314.942 131.697 311.146 128.151C296.251 114.238 285.208 113.601 285.208 113.601L271.807 110.7L235.318 105.062L202.06 110.264L191.135 157.068L190.352 180.656L186.547 224.951H301.896L301.258 215.139L304.299 172.136L303.899 180.465L318.183 192.778L344.548 157.55Z" fill="#65C57A"/>
<path d="M305.532 151.969C305.544 152.132 305.544 152.296 305.532 152.46C305.532 152.824 305.532 153.287 305.478 153.86C305.405 155.124 305.305 156.861 305.187 158.998C304.904 163.381 304.522 169.355 304.094 175.957C303.666 182.559 303.184 188.534 302.892 192.917C302.719 195.044 302.583 196.79 302.483 198.045C302.428 198.618 302.382 199.082 302.346 199.446C302.34 199.608 302.319 199.769 302.282 199.928C302.26 199.765 302.26 199.6 302.282 199.437C302.282 199.073 302.282 198.609 302.337 198.036C302.41 196.772 302.51 195.026 302.628 192.889C302.91 188.515 303.293 182.541 303.721 175.939C304.149 169.337 304.631 163.363 304.922 158.989C305.095 156.852 305.232 155.106 305.332 153.851C305.387 153.281 305.432 152.817 305.469 152.46C305.466 152.294 305.487 152.128 305.532 151.969Z" fill="#263238"/>
<g opacity="0.3">
<path d="M305.856 147.656C305.856 148.22 303.935 176.755 303.898 177.292C308.733 167.88 310.299 157.25 305.856 147.656Z" fill="black"/>
</g>
<g opacity="0.3">
<path d="M189.242 193.737C197.39 186.807 198.346 176.232 197.436 165.547L190.435 179.624L189.242 193.737Z" fill="black"/>
</g>
<path d="M144.047 168.02C144.693 168.02 183.113 192.426 183.113 192.426L209.833 151.033L202.058 110.312C202.058 110.312 186.181 112.713 179.225 120.315C174.946 124.998 144.047 168.02 144.047 168.02Z" fill="#65C57A"/>
<path d="M208.167 147.013C208.27 146.484 208.404 145.962 208.567 145.449C208.932 144.031 209.202 142.592 209.377 141.139C209.654 138.988 209.697 136.814 209.505 134.655C209.313 132.015 208.595 129.439 207.393 127.08C206.1 124.771 204.397 122.716 202.367 121.015C200.712 119.625 198.874 118.469 196.905 117.577C195.06 116.794 193.146 116.185 191.188 115.759C191.326 115.737 191.468 115.737 191.606 115.759C191.879 115.804 192.289 115.822 192.799 115.941C194.247 116.241 195.657 116.698 197.005 117.305C199.033 118.168 200.925 119.32 202.622 120.724C204.717 122.441 206.471 124.536 207.793 126.898C209.022 129.288 209.75 131.902 209.933 134.582C210.108 136.772 210.035 138.974 209.714 141.148C209.51 142.609 209.185 144.051 208.74 145.458C208.595 145.958 208.431 146.367 208.34 146.595C208.249 146.822 208.185 147.022 208.167 147.013Z" fill="#263238"/>
<path d="M258.86 13.5362L257.149 13.4453C238.713 13.5635 228.516 29.2679 229.145 47.6731L230.765 108.599L232.122 110.7C236.572 117.553 243.033 122.866 250.621 125.913C252.912 126.833 255.394 127.176 257.849 126.912C260.304 126.648 262.657 125.786 264.7 124.401C266.743 123.016 268.414 121.151 269.566 118.969C270.718 116.788 271.315 114.357 271.306 111.891C271.306 111.891 271.306 107.026 271.36 107.026C271.415 107.026 289.177 105.207 290.306 87.5569C290.861 79.0455 290.561 61.4133 290.097 45.4543C289.858 37.1869 286.512 29.3123 280.724 23.3977C274.935 17.4832 267.13 13.9625 258.86 13.5362Z" fill="#FFBF9D"/>
<path d="M271.4 107.007C271.4 107.007 260.238 107.08 248.758 99.0234C248.758 99.0234 253.601 112.573 271.309 111.9L271.4 107.007Z" fill="#FF9A6C"/>
<path d="M284.778 59.77C284.754 60.4277 284.473 61.0497 283.994 61.5022C283.516 61.9546 282.879 62.2012 282.22 62.1888C281.897 62.1986 281.575 62.1434 281.274 62.0267C280.973 61.91 280.698 61.734 280.467 61.5093C280.235 61.2845 280.051 61.0156 279.925 60.7184C279.799 60.4212 279.734 60.1017 279.734 59.7791C279.763 59.123 280.046 58.5036 280.523 58.0521C281.001 57.6007 281.635 57.3525 282.293 57.3602C282.615 57.3517 282.936 57.4077 283.237 57.5249C283.537 57.6421 283.812 57.8181 284.043 58.0426C284.275 58.2671 284.459 58.5356 284.585 58.8322C284.711 59.1288 284.777 59.4477 284.778 59.77Z" fill="#263238"/>
<path d="M285.946 52.2188C285.618 52.528 283.779 51.0185 281.066 50.8821C278.353 50.7457 276.286 52.0006 276.013 51.655C275.877 51.5005 276.223 50.9276 277.124 50.3365C278.342 49.5851 279.764 49.2293 281.193 49.318C282.603 49.3849 283.955 49.8976 285.054 50.7821C285.855 51.4732 286.11 52.0733 285.946 52.2188Z" fill="#263238"/>
<path d="M259.701 59.107C259.664 59.7647 259.37 60.3817 258.884 60.8267C258.398 61.2717 257.757 61.5095 257.097 61.4895C256.457 61.4967 255.839 61.2501 255.38 60.8035C254.921 60.357 254.658 59.7469 254.648 59.107C254.679 58.4501 254.964 57.8307 255.443 57.3794C255.922 56.9282 256.557 56.6803 257.216 56.6881C257.539 56.6809 257.86 56.738 258.161 56.8562C258.461 56.9744 258.735 57.1513 258.967 57.3765C259.198 57.6017 259.382 57.8707 259.508 58.1679C259.635 58.465 259.7 58.7843 259.701 59.107Z" fill="#263238"/>
<path d="M259.306 51.468C258.97 51.7863 257.131 50.2677 254.417 50.1404C251.704 50.0131 249.647 51.2589 249.365 50.9042C249.228 50.7587 249.574 50.1768 250.475 49.5948C251.693 48.8402 253.115 48.4812 254.545 48.5672C255.955 48.6289 257.31 49.135 258.414 50.0131C259.206 50.7224 259.461 51.3316 259.306 51.468Z" fill="#263238"/>
<path d="M267.959 72.8105C267.959 72.6559 269.661 72.4559 272.411 72.2467C273.112 72.2467 273.776 72.1103 273.913 71.6375C274.009 70.9264 273.885 70.2029 273.558 69.5642L271.783 64.1808C269.324 56.5332 267.586 50.2497 267.895 50.1496C268.205 50.0496 270.444 56.1877 272.902 63.8353L274.596 69.2914C274.981 70.1483 275.058 71.1121 274.814 72.0194C274.694 72.2491 274.525 72.4497 274.319 72.6069C274.113 72.764 273.875 72.8739 273.622 72.9287C273.23 73.0119 272.829 73.0455 272.429 73.0288C269.67 73.0379 267.968 72.9651 267.959 72.8105Z" fill="#263238"/>
<path d="M260.619 43.0312C260.218 43.7041 257.624 42.8402 254.419 42.6129C251.215 42.3855 248.52 42.7311 248.228 42.0036C248.101 41.6489 248.674 41.0942 249.831 40.5577C251.362 39.9612 253.009 39.7216 254.646 39.8571C256.284 39.9927 257.869 40.4998 259.281 41.3398C260.337 42.0309 260.801 42.7402 260.619 43.0312Z" fill="#263238"/>
<path d="M286.486 44.2553C285.903 44.8464 283.755 44.128 281.023 44.0007C278.292 43.8734 276.098 44.228 275.606 43.5642C275.388 43.2459 275.77 42.6549 276.772 42.0911C278.156 41.4165 279.697 41.1245 281.233 41.2454C282.763 41.3162 284.244 41.8002 285.521 42.6458C286.468 43.3187 286.75 43.9643 286.486 44.2553Z" fill="#263238"/>
<path d="M229.92 60.0178C229.629 59.8723 217.966 55.7984 217.73 67.8836C217.493 79.9688 230.567 77.9774 230.603 77.6318C230.639 77.2863 229.92 60.0178 229.92 60.0178Z" fill="#FFBF9D"/>
<path d="M226.141 72.6847C226.087 72.6392 225.932 72.8211 225.568 72.9848C225.062 73.1839 224.499 73.1839 223.993 72.9848C222.727 72.4846 221.689 70.4386 221.671 68.2653C221.662 67.2257 221.886 66.1972 222.327 65.2553C222.441 64.882 222.645 64.5418 222.919 64.2633C223.193 63.9847 223.53 63.7761 223.902 63.6549C224.146 63.5962 224.402 63.6239 224.628 63.7334C224.854 63.8428 225.035 64.0272 225.14 64.2551C225.295 64.6006 225.213 64.837 225.276 64.8643C225.34 64.8916 225.54 64.6643 225.449 64.1641C225.389 63.8654 225.228 63.596 224.994 63.4003C224.665 63.1399 224.246 63.0191 223.829 63.0638C223.332 63.154 222.867 63.368 222.475 63.6859C222.084 64.0039 221.779 64.4155 221.589 64.8825C221.06 65.9215 220.788 67.0723 220.797 68.238C220.797 70.675 222.026 72.9757 223.765 73.5213C224.087 73.6207 224.428 73.6471 224.762 73.5983C225.096 73.5495 225.415 73.4269 225.695 73.2394C226.077 72.9757 226.141 72.7483 226.141 72.6847Z" fill="#FF9A6C"/>
<path d="M259.404 74.3988C259.823 74.3988 259.814 77.1268 262.135 79.1365C264.457 81.1461 267.461 80.837 267.479 81.2189C267.479 81.3917 266.815 81.7554 265.567 81.7827C263.938 81.7954 262.355 81.2353 261.097 80.2004C259.895 79.2029 259.128 77.7781 258.958 76.2266C258.912 75.0626 259.213 74.3806 259.404 74.3988Z" fill="#263238"/>
<path d="M314.695 28.9784C314.496 28.2625 314.026 27.6522 313.384 27.278C312.018 26.4323 310.416 26.505 308.877 26.4414C305.027 26.279 301.263 25.2468 297.87 23.4223C299.083 22.8676 300.199 22.1215 301.175 21.2126C303.169 19.3121 304.361 16.3476 303.524 13.7196C303.473 13.4673 303.364 13.2302 303.206 13.0268C303.048 12.8233 302.845 12.659 302.613 12.5466C301.83 12.2829 301.12 13.0467 300.565 13.6469C298.744 15.6111 297.033 16.4386 294.356 16.1112C292.748 15.9698 291.192 15.4695 289.804 14.6472L289.649 14.4835C289.042 13.8166 288.435 13.1801 287.828 12.5739C283.376 7.96348 279.525 4.75349 275.538 3.04392C269.675 0.534128 259.824 -0.638928 253.624 0.834212C247.424 2.30735 241.789 7.19963 240.797 13.465C237.401 10.4733 232.221 10.3914 227.969 11.9828H227.869C223.144 13.5469 220.376 18.43 218.892 23.1768C218.81 23.4314 218.737 23.6952 218.665 23.9589C217.031 26.4507 214.82 28.5125 212.219 29.9696C211.764 30.2242 211.236 30.5334 211.172 31.0518C211.18 31.3113 211.256 31.5642 211.392 31.7858C211.527 32.0074 211.718 32.19 211.946 32.3157C213.061 33.1383 214.345 33.7035 215.706 33.9708C215.258 35.1011 214.713 36.1904 214.076 37.2262C213.53 38.1356 212.874 39.1631 213.32 40.1088C213.529 40.4508 213.836 40.7211 214.202 40.8836C214.568 41.0461 214.975 41.093 215.369 41.0182C216.158 40.868 216.907 40.5585 217.572 40.1088C217.017 41.3455 216.47 42.5822 215.924 43.819C217.618 44.1395 219.364 44.0616 221.023 43.5916C221.933 48.0747 222.488 56.3225 223.572 59.4051C226.785 59.5324 227.568 59.196 229.18 59.7689C231.256 60.5145 230.372 64.1974 233.122 63.2062C234.524 62.697 236.763 57.4955 237.264 56.0951C240.552 46.7681 241.793 36.8443 240.906 26.9961C242.902 24.9717 245.266 23.3453 247.87 22.2038L247.661 22.3857C252.641 20.7852 258.276 19.2121 262.92 21.64C266.516 23.5133 268.573 27.3416 271.232 30.4061C276.266 36.2259 282.038 39.3995 289.722 39.8997C290.296 45.2466 290.314 53.9763 290.459 58.9959L294.939 49.1295C295.272 48.5666 295.576 47.9869 295.849 47.3927L295.949 47.2108C296.387 46.2517 296.877 45.3167 297.415 44.41H297.46C300.11 46.8562 304.17 43.3006 302.104 40.3544C301.694 39.7666 301.197 39.2452 300.629 38.8085C301.237 39.4096 301.993 39.8416 302.82 40.0617C303.647 40.2818 304.517 40.2824 305.345 40.0634C306.162 39.8334 306.88 39.3409 307.389 38.662C307.897 37.9831 308.168 37.1556 308.158 36.3078C308.103 35.736 307.898 35.1887 307.564 34.721C307.23 34.2534 306.778 33.8817 306.255 33.6434C308.457 33.8676 310.676 33.4307 312.628 32.3885C313.839 31.6974 315.086 30.5516 314.695 28.9784Z" fill="#263238"/>
<path d="M314.693 28.9788C314.769 29.204 314.8 29.4419 314.784 29.679C314.727 30.3797 314.401 31.0313 313.874 31.4977C313.013 32.2592 311.997 32.8267 310.897 33.1618C309.396 33.6698 307.804 33.8527 306.227 33.6983L306.272 33.5528C306.722 33.7613 307.121 34.0641 307.443 34.4407C307.766 34.8173 308.003 35.2589 308.138 35.7352C308.262 36.2757 308.255 36.8377 308.119 37.3751C307.983 37.9124 307.721 38.41 307.355 38.827C306.968 39.3003 306.479 39.6802 305.924 39.9384C305.369 40.1966 304.763 40.3265 304.151 40.3183C302.81 40.2926 301.53 39.7558 300.573 38.8179L300.728 38.6451C301.434 39.1732 302.023 39.842 302.457 40.6093C302.676 41.0228 302.8 41.4792 302.822 41.9461C302.815 42.4292 302.7 42.9046 302.485 43.3373C302.264 43.782 301.952 44.1744 301.567 44.4881C301.182 44.8018 300.734 45.0296 300.254 45.156C299.742 45.2838 299.206 45.2791 298.696 45.1422C298.186 45.0054 297.72 44.741 297.341 44.374H297.559C297.122 45.2197 296.649 46.1927 296.103 47.1657V47.102V47.1566L295.056 49.1026L294.81 49.5573V49.0299L295.101 49.0844L290.64 58.9599L290.349 59.6055V58.8962C290.158 53.0673 290.231 46.6201 289.584 39.8L289.757 39.9728C285.926 39.771 282.191 38.7046 278.832 36.8537C275.327 34.8147 272.273 32.0861 269.856 28.8333C268.642 27.1531 267.328 25.5468 265.923 24.0229C264.464 22.4846 262.588 21.404 260.524 20.9129C258.428 20.4452 256.256 20.4235 254.151 20.8492C251.989 21.2588 249.859 21.824 247.778 22.5406L246.74 22.868L247.569 22.1587L247.778 21.9768L248.015 22.3406C245.435 23.472 243.095 25.0864 241.123 27.0964L241.187 26.9146C241.911 34.9357 241.237 43.0215 239.193 50.8122C238.656 52.8127 238.046 54.8042 237.308 56.7866C236.539 58.7749 235.54 60.667 234.331 62.4245C233.794 63.3339 232.292 64.0886 231.272 63.1156C230.929 62.6694 230.665 62.1682 230.49 61.6334C230.323 61.1587 230.066 60.7204 229.734 60.3421C229.652 60.2603 229.552 60.1966 229.461 60.1148L229.142 59.9602C228.902 59.8725 228.655 59.8026 228.405 59.751C227.892 59.6534 227.37 59.6107 226.848 59.6237C225.774 59.6237 224.681 59.6237 223.598 59.6237H223.407L223.352 59.4782C222.88 57.8468 222.539 56.1805 222.332 54.495C221.795 50.8576 221.467 47.2203 220.803 43.6283L221.094 43.8102C219.4 44.2937 217.616 44.3716 215.887 44.0375L215.595 43.983L215.714 43.7102C216.269 42.4735 216.815 41.2368 217.361 40.0001L217.698 40.3001C216.875 40.9159 215.877 41.2564 214.849 41.2731C214.303 41.2373 213.788 41.0046 213.401 40.6184C213.216 40.4105 213.082 40.1631 213.007 39.8951C212.933 39.6271 212.922 39.3457 212.973 39.0725C213.265 38.1056 213.714 37.1932 214.302 36.3718C214.762 35.5462 215.169 34.6928 215.522 33.8165L215.695 34.1257C214.315 33.8581 213.012 33.2865 211.881 32.4525C211.571 32.244 211.31 31.971 211.116 31.6523C211.011 31.4674 210.96 31.2566 210.97 31.0442C210.98 30.8318 211.049 30.6265 211.171 30.4519C211.405 30.1586 211.7 29.9196 212.036 29.7517C212.336 29.5881 212.618 29.4244 212.9 29.2516C215.135 27.8489 217.046 25.9894 218.509 23.7955V23.8592C219.2 21.2732 220.307 18.8164 221.786 16.5844C223.226 14.3478 225.358 12.6425 227.858 11.7285H227.949H228.022L228.132 11.774H227.959C230.13 10.9453 232.46 10.6099 234.778 10.7919C237.068 10.9379 239.25 11.8217 240.996 13.3108L240.641 13.4381C241.115 10.7439 242.346 8.23984 244.191 6.21788C245.967 4.26582 248.14 2.71558 250.564 1.67115C252.892 0.694045 255.378 0.145671 257.902 0.0525176C260.333 -0.0685018 262.77 0.0197273 265.185 0.316228C267.521 0.586192 269.831 1.03923 272.095 1.67115C274.28 2.26016 276.372 3.14757 278.313 4.30825C281.836 6.62478 285.054 9.37436 287.891 12.4924L287.636 12.6833L287.918 12.5287V12.4833C288.628 13.2471 289.266 13.9018 289.866 14.5748C291.038 15.2816 292.343 15.7398 293.699 15.9206C294.974 16.2061 296.302 16.1401 297.541 15.7296C298.69 15.2351 299.711 14.4856 300.527 13.5381C300.919 13.0304 301.451 12.648 302.057 12.4378C302.224 12.4057 302.396 12.4103 302.561 12.4511C302.726 12.4919 302.88 12.5681 303.013 12.6742C303.252 12.8841 303.437 13.1495 303.55 13.4472C303.953 14.5507 304.035 15.7455 303.787 16.8936C303.561 17.9673 303.121 18.9847 302.494 19.8853C301.336 21.4996 299.763 22.7719 297.942 23.5682V23.3954C300.265 24.622 302.76 25.4896 305.343 25.9689C306.373 26.1601 307.412 26.2907 308.457 26.3599C309.413 26.4144 310.278 26.4053 311.061 26.4963C312.255 26.542 313.383 27.0548 314.202 27.9239C314.393 28.1515 314.544 28.4098 314.648 28.6878C314.682 28.782 314.706 28.8795 314.721 28.9788C314.609 28.5995 314.417 28.2489 314.156 27.9512C313.332 27.1153 312.217 26.6298 311.043 26.5963C310.278 26.5145 309.413 26.5417 308.457 26.4872C307.403 26.4331 306.354 26.3116 305.316 26.1234C302.709 25.6394 300.191 24.7593 297.851 23.5136L297.669 23.4227L297.851 23.3318C299.64 22.541 301.184 21.2848 302.321 19.6944C302.924 18.8159 303.348 17.827 303.568 16.7845C303.796 15.6828 303.711 14.5394 303.322 13.4835C303.26 13.2222 303.104 12.9925 302.885 12.8369C302.666 12.6814 302.397 12.6107 302.13 12.6379C301.572 12.8268 301.081 13.1745 300.719 13.6381C299.882 14.6268 298.825 15.4055 297.632 15.9115C296.345 16.3466 294.964 16.4251 293.636 16.1388C292.238 15.9525 290.893 15.4821 289.684 14.7566C289.083 14.0928 288.446 13.4381 287.727 12.6833L288.009 12.5287L288.501 13.4381L287.754 12.6833C284.924 9.60767 281.722 6.89522 278.222 4.60834C276.304 3.46588 274.236 2.59664 272.077 2.0258C269.816 1.39926 267.508 0.955283 265.176 0.698153C262.76 0.403739 260.323 0.321583 257.893 0.452629C255.387 0.53235 252.918 1.07499 250.61 2.05308C248.24 3.07056 246.119 4.58741 244.391 6.49977C242.601 8.45912 241.407 10.8882 240.95 13.5017L240.886 13.8928L240.595 13.629C238.916 12.2051 236.821 11.3628 234.623 11.2284C232.369 11.0551 230.105 11.3844 227.995 12.1923H227.904H227.822L227.722 12.1468H227.959C225.553 13.0368 223.501 14.6835 222.114 16.839C220.648 19.027 219.548 21.4377 218.854 23.9774C217.36 26.2386 215.402 28.1572 213.11 29.6062C212.529 29.884 211.992 30.2456 211.517 30.6793C211.171 31.1248 211.599 31.6886 212.117 32.0433C213.199 32.8352 214.443 33.3786 215.759 33.6346L216.032 33.6892L215.932 33.9529C215.57 34.8475 215.153 35.719 214.685 36.5627C214.126 37.3368 213.689 38.1926 213.392 39.0998C213.352 39.3031 213.36 39.5128 213.413 39.7129C213.467 39.913 213.566 40.0983 213.702 40.2547C214.011 40.5549 214.418 40.7353 214.849 40.7639C215.775 40.7337 216.67 40.4158 217.407 39.8546L218.053 39.4726L217.744 40.1546C217.198 41.3913 216.651 42.6281 216.096 43.8648L215.932 43.5465C217.59 43.8565 219.298 43.7787 220.921 43.3192L221.167 43.2464L221.222 43.501C221.895 47.0929 222.223 50.7758 222.751 54.4132C222.957 56.0675 223.292 57.7032 223.753 59.3055L223.543 59.1509C224.617 59.1509 225.683 59.1509 226.775 59.1509C227.331 59.1382 227.886 59.1839 228.432 59.2873C228.705 59.3438 228.973 59.4229 229.233 59.5237C229.373 59.583 229.51 59.6498 229.643 59.7238C229.766 59.8076 229.882 59.9019 229.989 60.0056C230.835 60.915 230.899 62.0881 231.536 62.7973C231.704 62.9482 231.912 63.0481 232.134 63.0851C232.357 63.1222 232.585 63.0949 232.793 63.0065C233.254 62.8434 233.642 62.5208 233.885 62.0971C235.057 60.3682 236.026 58.5099 236.771 56.5592C237.491 54.6132 238.11 52.6218 238.592 50.6394C240.663 42.9185 241.377 34.8975 240.704 26.9328V26.8327L240.777 26.76C242.796 24.7135 245.188 23.0714 247.824 21.9223L249.162 21.3403L247.988 22.2951L247.778 22.477L247.56 22.095C249.674 21.3734 251.837 20.8051 254.033 20.3946C256.205 19.9622 258.445 19.9901 260.606 20.4764C262.721 21.0209 264.636 22.1602 266.123 23.7591C267.54 25.2962 268.863 26.9178 270.083 28.615C272.469 31.8296 275.482 34.5272 278.942 36.5445C282.253 38.3793 285.939 39.4366 289.721 39.6363H289.866V39.7909C290.495 46.6019 290.413 53.0401 290.586 58.8872L290.276 58.8235L294.764 48.9571L295.01 48.4024V49.0117L294.737 48.948C295.101 48.2751 295.465 47.6113 295.775 47.0293V47.102V47.0475L297.25 44.2376L297.332 44.0739L297.459 44.2103C297.802 44.5469 298.226 44.7897 298.69 44.9155C299.154 45.0413 299.642 45.0458 300.109 44.9287C300.555 44.8092 300.97 44.5967 301.328 44.3052C301.686 44.0137 301.978 43.6497 302.184 43.2373C302.38 42.8407 302.485 42.4061 302.494 41.9642C302.479 41.5326 302.367 41.1099 302.166 40.7275C301.75 39.9926 301.186 39.3517 300.509 38.8452L300.664 38.6633C301.576 39.5624 302.797 40.0796 304.078 40.1092C304.665 40.1264 305.249 40.0091 305.784 39.7664C306.319 39.5237 306.791 39.1619 307.164 38.7088C307.513 38.3168 307.764 37.8481 307.897 37.3408C308.03 36.8336 308.041 36.3021 307.929 35.7898C307.801 35.3378 307.578 34.9183 307.275 34.5592C306.972 34.2001 306.596 33.9097 306.172 33.7074L305.753 33.5073H306.208C307.765 33.6664 309.338 33.496 310.824 33.0072C311.912 32.6864 312.92 32.1411 313.783 31.4067C314.048 31.1792 314.265 30.9012 314.421 30.5889C314.578 30.2766 314.67 29.9364 314.693 29.5881C314.708 29.3852 314.708 29.1816 314.693 28.9788Z" fill="#455A64"/>
<path d="M246.325 15.6172C245.675 16.0934 245.066 16.6226 244.504 17.1994C243.064 18.8554 242.081 20.8584 241.654 23.0102C241.318 24.4851 241.132 25.9901 241.099 27.5023C241.099 29.1301 241.154 30.876 241.236 32.7129C241.359 34.6448 241.359 36.5826 241.236 38.5145C241.157 39.5436 240.998 40.5651 240.762 41.5699C240.602 42.6606 240.156 43.6897 239.469 44.5526C239.155 44.8895 238.757 45.1388 238.317 45.276C237.876 45.4131 237.407 45.4333 236.957 45.3346C236.089 45.1555 235.307 44.6913 234.735 44.016C233.801 42.6713 233.245 41.1014 233.124 39.4693L233.497 39.5239C232.928 40.837 232.174 42.0619 231.258 43.1613C230.372 44.1919 229.124 44.8431 227.771 44.9799C227.142 45.0295 226.511 44.9036 225.95 44.6162C225.428 44.3319 225.003 43.898 224.73 43.3704C224.483 42.8842 224.367 42.342 224.393 41.7972C224.428 41.2864 224.64 40.8038 224.994 40.4332L225.176 40.5969C224.095 41.7818 222.777 42.7267 221.307 43.3704C220.921 43.5359 220.526 43.6786 220.123 43.7978L219.695 43.8978C219.823 43.829 219.957 43.7741 220.096 43.7341C220.369 43.6341 220.76 43.4795 221.252 43.2431C222.673 42.5666 223.942 41.6109 224.985 40.4332L225.176 40.606C224.876 40.9709 224.698 41.42 224.665 41.891C224.632 42.3619 224.747 42.8313 224.994 43.234C225.26 43.6983 225.66 44.0721 226.141 44.307C226.652 44.5578 227.222 44.6647 227.789 44.6162C229.045 44.48 230.202 43.8682 231.021 42.9066C231.909 41.8224 232.636 40.6156 233.178 39.3238L233.442 38.76L233.552 39.3784C233.671 40.9306 234.199 42.4237 235.081 43.7069C235.592 44.3109 236.291 44.727 237.066 44.889C237.45 44.9729 237.848 44.9559 238.223 44.8395C238.599 44.7232 238.937 44.5115 239.205 44.2252C239.831 43.4305 240.251 42.4932 240.425 41.4972C240.648 40.515 240.8 39.5183 240.881 38.5145C240.999 36.5976 240.999 34.6752 240.881 32.7583C240.808 30.9397 240.726 29.121 240.789 27.5114C240.83 25.9784 241.034 24.4542 241.399 22.9647C241.859 20.7776 242.9 18.7545 244.413 17.1085C244.96 16.5052 245.606 16.0006 246.325 15.6172Z" fill="#455A64"/>
<path d="M300.709 34.0286C300.709 34.0286 300.664 34.0286 300.564 34.1468L300.118 34.4651C299.873 34.6359 299.618 34.7908 299.353 34.9288C299.004 35.1311 298.642 35.3103 298.269 35.4653C295.871 36.4894 293.256 36.9019 290.658 36.6657C286.797 36.3241 283.117 34.8746 280.061 32.4918C276.376 29.5449 273.331 25.8783 271.112 21.716C269.874 19.5518 268.872 17.333 267.762 15.2779C266.746 13.2865 265.453 11.4494 263.92 9.8218C262.548 8.34588 260.826 7.23882 258.912 6.60272C258.027 6.33632 257.105 6.21351 256.181 6.23898C255.344 6.26703 254.514 6.40773 253.714 6.65728C251.261 7.43573 249.191 9.1075 247.915 11.3404C247.494 12.1777 247.167 13.0591 246.941 13.9684C246.936 13.9079 246.936 13.8471 246.941 13.7865C246.941 13.6411 247.004 13.4592 247.041 13.2409C247.205 12.5552 247.446 11.8901 247.76 11.2586C248.29 10.2711 248.983 9.37971 249.808 8.62147C250.907 7.60048 252.215 6.8309 253.641 6.36629C254.467 6.10458 255.324 5.95173 256.19 5.91162C257.135 5.87856 258.079 5.99832 258.985 6.26626C260.967 6.90372 262.757 8.02595 264.193 9.53081C265.759 11.1832 267.081 13.0512 268.117 15.0778C269.246 17.142 270.247 19.3608 271.476 21.5069C273.665 25.6184 276.663 29.2464 280.289 32.1735C283.281 34.5383 286.889 35.9963 290.686 36.3747C293.241 36.6336 295.821 36.2717 298.206 35.3198C299.067 34.9434 299.903 34.5121 300.709 34.0286Z" fill="#455A64"/>
<path d="M302.499 26.2956C302.305 26.468 302.088 26.6119 301.853 26.723C301.242 27.073 300.606 27.377 299.95 27.6323C298.981 28.0237 297.978 28.328 296.955 28.5417C295.699 28.7989 294.422 28.9419 293.14 28.9691C291.855 28.9667 290.572 28.8511 289.307 28.6235C288.28 28.4246 287.272 28.1386 286.294 27.7687C285.631 27.5165 284.988 27.2124 284.373 26.8594C284.142 26.7493 283.925 26.6119 283.727 26.4502C283.727 26.3774 284.728 26.9049 286.394 27.4596C287.37 27.7821 288.368 28.0344 289.38 28.2143C290.62 28.4168 291.875 28.5171 293.131 28.5144C294.388 28.51 295.643 28.4005 296.882 28.187C297.89 27.9899 298.882 27.7194 299.85 27.3777C301.507 26.7685 302.463 26.2229 302.499 26.2956Z" fill="#455A64"/>
<path d="M263.822 207.389L288.713 206.18C288.713 206.18 293.547 208.908 294.803 216.819C296.06 224.73 294.803 224.703 294.803 224.703L282.258 228.931L255.665 228.322L246.023 216.219L253.307 211.936L263.822 207.389Z" fill="#FFBF9D"/>
<path d="M369.761 192.294C368.44 190.003 360.484 180.645 341.602 161.422L319.096 191.539L325.405 195.677L284 207.326L287.46 227.513L356.095 227.449C364.972 227.213 381.268 212.254 369.761 192.294Z" fill="#FFBF9D"/>
<path d="M360.806 190.866C360.279 190.911 359.749 190.911 359.222 190.866C358.193 190.866 356.718 190.866 354.888 190.866C345.354 191.071 335.895 192.601 326.784 195.413C325.045 195.95 323.634 196.404 322.669 196.741C322.175 196.938 321.667 197.096 321.148 197.214C321.612 196.952 322.1 196.735 322.605 196.568C323.516 196.177 324.945 195.659 326.684 195.086C335.794 192.098 345.318 190.564 354.906 190.539C356.727 190.539 358.229 190.539 359.249 190.657C359.772 190.69 360.293 190.759 360.806 190.866Z" fill="#FF9A6C"/>
<path d="M267.564 215.706C267.407 215.349 267.163 215.036 266.854 214.797L262.557 210.969L260.062 218.407C260.588 218.81 261.189 219.105 261.829 219.275C262.469 219.445 263.137 219.486 263.794 219.398C264.45 219.309 265.083 219.091 265.655 218.758C266.227 218.424 266.727 217.98 267.127 217.452C267.336 217.218 267.485 216.937 267.561 216.633C267.637 216.329 267.638 216.011 267.564 215.706Z" fill="#FF9A6C"/>
<path d="M213.624 176.982L265.026 224.677L269.878 226.977L272.564 228.351L271.307 226.041L268.767 221.349L216.737 173.617C216.312 173.225 215.755 173.008 215.176 173.008C214.597 173.008 214.04 173.225 213.615 173.617C213.383 173.832 213.198 174.093 213.072 174.383C212.947 174.673 212.882 174.985 212.883 175.301C212.884 175.617 212.95 175.93 213.077 176.219C213.205 176.508 213.391 176.768 213.624 176.982Z" fill="#455A64"/>
<path d="M214.578 203.797L218.611 204.507C218.611 204.507 239.487 196.814 242.473 196.423C244.776 196.122 255.756 198.705 260.627 199.887C261.587 200.107 262.441 200.652 263.045 201.429C263.649 202.206 263.965 203.168 263.941 204.152C263.936 204.182 263.936 204.213 263.941 204.243C263.877 205.039 263.592 205.801 263.117 206.444C262.643 207.087 261.997 207.584 261.255 207.88C261.255 207.88 265.352 209.153 263.494 213.482C262.129 216.683 257.795 216.21 257.795 216.21L250.576 216.346C250.576 216.346 252.397 216.901 255.191 217.547C256.505 217.773 257.777 218.189 258.97 218.783C258.97 218.783 263.331 222.966 259.115 224.721C257.736 225.349 256.22 225.615 254.709 225.494C254.709 225.494 255.965 229.996 252.597 230.768C249.228 231.541 226.951 229.859 226.951 229.859C225.503 229.251 223.965 228.885 222.399 228.777L216.117 228.341L214.578 203.797Z" fill="#FFBF9D"/>
<path d="M260.893 207.884C258.979 207.895 257.066 207.783 255.167 207.547C253.257 207.431 251.356 207.194 249.477 206.838C251.391 206.82 253.304 206.929 255.203 207.165C257.114 207.275 259.015 207.515 260.893 207.884Z" fill="#FF9A6C"/>
<path d="M238.358 228.356C238.358 228.356 238.03 228.283 237.675 227.91C237.22 227.421 236.957 226.784 236.932 226.117C236.907 225.449 237.122 224.795 237.538 224.273C237.866 223.873 238.158 223.736 238.185 223.782C238.212 223.827 238.003 224.027 237.757 224.427C237.438 224.936 237.276 225.528 237.293 226.128C237.326 226.724 237.528 227.297 237.875 227.783C238.148 228.119 238.385 228.31 238.358 228.356Z" fill="#FF9A6C"/>
<path d="M238.022 220.805C238.022 220.805 237.63 220.805 237.111 220.478C236.788 220.253 236.517 219.963 236.314 219.626C236.112 219.289 235.983 218.913 235.937 218.522C235.896 218.132 235.94 217.737 236.065 217.365C236.191 216.993 236.396 216.653 236.665 216.367C237.084 215.931 237.448 215.822 237.466 215.858C237.484 215.894 237.193 216.104 236.874 216.54C236.451 217.096 236.249 217.79 236.31 218.486C236.396 219.191 236.74 219.838 237.275 220.305C237.703 220.623 238.04 220.741 238.022 220.805Z" fill="#FF9A6C"/>
<path d="M237.895 212.009C237.895 212.009 237.503 211.836 237.139 211.281C236.661 210.553 236.479 209.669 236.63 208.811C236.78 207.953 237.252 207.185 237.949 206.662C238.201 206.428 238.519 206.279 238.86 206.234C238.86 206.289 238.532 206.453 238.086 206.871C237.497 207.395 237.103 208.102 236.967 208.878C236.832 209.654 236.963 210.453 237.339 211.145C237.649 211.69 237.977 211.963 237.895 212.009Z" fill="#FF9A6C"/>
<path d="M240.542 200.736C240.542 200.736 240.341 200.645 240.205 200.354C240.034 199.967 240.008 199.531 240.132 199.126C240.241 198.719 240.489 198.362 240.833 198.117C241.106 197.935 241.306 197.926 241.325 197.962C241.343 197.999 240.715 198.408 240.496 199.226C240.408 199.727 240.424 200.241 240.542 200.736Z" fill="#FF9A6C"/>
<path d="M251.133 216.192C250.105 216.359 249.059 216.405 248.02 216.328C246.975 216.371 245.93 216.286 244.906 216.074C245.938 215.908 246.987 215.865 248.029 215.946C249.07 215.898 250.113 215.981 251.133 216.192Z" fill="#FF9A6C"/>
<path d="M254.509 225.515C252.611 225.304 250.728 224.966 248.874 224.506C246.995 224.17 245.14 223.711 243.32 223.133C245.219 223.343 247.102 223.68 248.956 224.142C250.835 224.477 252.69 224.936 254.509 225.515Z" fill="#FF9A6C"/>
<path d="M222.409 228.75C222.508 228.733 222.61 228.733 222.709 228.75L223.62 228.859C224.787 229.012 225.928 229.318 227.016 229.768C229.929 229.959 234.299 230.241 239.707 230.505C242.438 230.632 245.433 230.759 248.665 230.787C249.475 230.787 250.295 230.787 251.123 230.732C251.947 230.756 252.764 230.575 253.499 230.205C253.843 229.975 254.131 229.672 254.343 229.319C254.556 228.965 254.687 228.569 254.729 228.159C254.842 227.286 254.786 226.4 254.565 225.549L254.492 225.258H254.801C255.72 225.329 256.643 225.243 257.533 225.003C258.458 224.811 259.333 224.427 260.1 223.875C260.444 223.567 260.675 223.153 260.757 222.698C260.84 222.244 260.769 221.775 260.555 221.366C260.159 220.448 259.587 219.617 258.871 218.92C257.587 218.346 256.244 217.916 254.865 217.637L250.532 216.519L248.902 216.091H250.595L257.824 215.955C259.036 216.07 260.257 215.866 261.365 215.364C262.073 214.999 262.667 214.447 263.084 213.769C263.501 213.092 263.725 212.313 263.732 211.517C263.74 210.749 263.495 209.999 263.034 209.383C262.574 208.767 261.923 208.319 261.183 208.107L260.582 207.898L261.165 207.662C261.86 207.385 262.465 206.922 262.914 206.323C263.362 205.725 263.636 205.014 263.705 204.27C263.752 203.546 263.597 202.823 263.258 202.181C262.919 201.539 262.409 201.003 261.784 200.633C261.149 200.276 260.456 200.035 259.736 199.923C259.017 199.741 258.297 199.578 257.578 199.405L253.363 198.432C250.632 197.823 247.9 197.25 245.36 196.859C244.723 196.768 244.086 196.677 243.458 196.641C243.155 196.618 242.85 196.618 242.547 196.641C242.256 196.695 241.955 196.75 241.637 196.822C240.444 197.132 239.288 197.495 238.168 197.85C229.228 200.769 222.436 203.306 218.64 204.606L215.617 204.024L214.871 203.879L214.625 203.815H214.88L215.636 203.934L218.667 204.434C222.436 203.033 229.201 200.451 238.141 197.477C239.261 197.113 240.417 196.741 241.628 196.422C241.928 196.35 242.247 196.286 242.538 196.231C242.865 196.204 243.194 196.204 243.521 196.231C244.177 196.231 244.814 196.35 245.461 196.441C248.055 196.832 250.732 197.35 253.509 197.996L257.733 198.905L259.891 199.423C260.657 199.548 261.396 199.803 262.076 200.178C262.774 200.596 263.343 201.198 263.72 201.919C264.098 202.639 264.269 203.45 264.215 204.261C264.138 205.091 263.833 205.883 263.336 206.552C262.838 207.221 262.166 207.74 261.393 208.053V207.607C262.207 207.889 262.928 208.39 263.478 209.053C264.041 209.736 264.327 210.606 264.279 211.49C264.231 212.357 263.988 213.203 263.569 213.964C263.133 214.752 262.466 215.386 261.657 215.782C260.465 216.331 259.148 216.553 257.842 216.428L250.613 216.564L250.677 216.101L254.983 217.228C256.414 217.517 257.807 217.969 259.135 218.574C259.913 219.315 260.532 220.206 260.956 221.193C261.171 221.694 261.243 222.245 261.165 222.784C261.123 223.061 261.033 223.329 260.901 223.575C260.752 223.801 260.575 224.005 260.373 224.185C259.562 224.783 258.63 225.199 257.642 225.403C256.698 225.651 255.719 225.737 254.747 225.658L254.974 225.394C255.21 226.302 255.266 227.247 255.138 228.177C255.089 228.643 254.936 229.093 254.692 229.494C254.449 229.895 254.119 230.237 253.727 230.496C252.936 230.906 252.051 231.104 251.16 231.068C250.313 231.123 249.485 231.068 248.674 231.114C245.424 231.114 242.429 230.923 239.698 230.768C234.235 230.468 229.929 230.132 227.007 229.859C225.936 229.434 224.822 229.129 223.684 228.95L222.773 228.795L222.409 228.75Z" fill="#FF9A6C"/>
<path d="M219.623 228.358C219.623 228.358 146.681 230.122 140.254 226.54C133.826 222.957 126.397 212.472 132.133 198.468C137.869 184.464 147.974 169.578 147.974 169.578L161.439 178.053L179.711 189.575L174.112 198.132L221.371 204.497L219.623 228.358Z" fill="#FFBF9D"/>
<path d="M174.136 198.136C174.136 198.208 172.807 197.654 170.658 196.954C167.851 196.053 164.989 195.33 162.091 194.789C159.185 194.26 156.252 193.892 153.306 193.689C151.048 193.525 149.664 193.525 149.664 193.443C149.987 193.376 150.317 193.346 150.647 193.353C151.285 193.353 152.213 193.353 153.379 193.353C156.343 193.47 159.294 193.804 162.21 194.353C165.129 194.89 168 195.663 170.795 196.663C171.869 197.054 172.716 197.417 173.289 197.69C173.588 197.806 173.872 197.955 174.136 198.136Z" fill="#FF9A6C"/>
<path d="M172.773 214.365C172.773 214.365 188.496 206.09 209.718 214.365L198.438 225.959L187.185 222.959L172.773 214.365Z" fill="#455A64"/>
<path d="M181.695 244.641L177.155 244.967L172.607 181.904C172.588 181.637 172.621 181.369 172.706 181.115C172.79 180.861 172.924 180.627 173.099 180.424C173.275 180.222 173.488 180.056 173.727 179.937C173.967 179.817 174.228 179.745 174.495 179.726L174.931 179.695C175.47 179.656 176.003 179.833 176.412 180.186C176.821 180.54 177.072 181.041 177.111 181.58L181.659 244.643L181.695 244.641Z" fill="#E0E0E0"/>
<path d="M174.883 225.173L181.31 224.719L182.822 245.734C182.854 246.156 182.802 246.579 182.67 246.981C182.538 247.383 182.327 247.755 182.05 248.075C181.774 248.395 181.436 248.658 181.058 248.848C180.679 249.037 180.267 249.15 179.845 249.18C178.991 249.24 178.149 248.96 177.502 248.401C176.856 247.842 176.457 247.049 176.394 246.197L174.883 225.173Z" fill="#455A64"/>
<path d="M174.912 242.84L176.156 242.75L174.185 215.477L172.941 215.567L174.912 242.84Z" fill="#455A64"/>
<path d="M181.31 224.715C181.31 224.851 178.679 225.224 174.837 225.624L175.119 225.287C175.237 226.752 175.365 228.343 175.492 230.025C175.72 233.126 175.884 235.945 175.966 237.982C176.085 239.082 176.085 240.192 175.966 241.292C175.687 240.221 175.525 239.124 175.483 238.018C175.274 235.99 175.028 233.181 174.81 230.071C174.7 228.397 174.591 226.797 174.5 225.333V225.015H174.81C178.624 224.705 181.292 224.605 181.31 224.715Z" fill="#263238"/>
<path d="M186.322 181.375H181.797V232.326H186.322V181.375Z" fill="#E0E0E0"/>
<path d="M187.188 201.281H180.742V180.202C180.745 179.35 181.085 178.534 181.689 177.932C182.293 177.33 183.112 176.992 183.965 176.992C184.388 176.991 184.807 177.073 185.198 177.234C185.589 177.395 185.944 177.631 186.243 177.929C186.543 178.227 186.78 178.582 186.942 178.972C187.104 179.362 187.188 179.78 187.188 180.202V201.281Z" fill="#455A64"/>
<path d="M188.435 183.648H187.188V210.992H188.435V183.648Z" fill="#455A64"/>
<path d="M180.742 201.279C180.742 201.142 183.41 200.961 187.27 200.815L186.96 201.133C186.96 199.66 186.96 198.069 186.96 196.387C186.96 193.267 187.006 190.449 187.07 188.402C187.033 187.297 187.115 186.19 187.315 185.102C187.51 186.191 187.592 187.297 187.561 188.402C187.625 190.449 187.661 193.267 187.661 196.387C187.661 198.069 187.661 199.66 187.661 201.133V201.442H187.361C183.419 201.479 180.751 201.415 180.742 201.279Z" fill="#263238"/>
<path d="M195.423 193.336H190.898V244.287H195.423V193.336Z" fill="#E0E0E0"/>
<path d="M196.297 213.243H189.852V192.164C189.852 191.311 190.191 190.492 190.796 189.888C191.4 189.284 192.22 188.945 193.074 188.945C193.928 188.948 194.747 189.288 195.351 189.891C195.955 190.494 196.295 191.311 196.297 192.164V213.243Z" fill="#455A64"/>
<path d="M197.544 195.609H196.297V222.953H197.544V195.609Z" fill="#455A64"/>
<path d="M189.852 213.24C189.852 213.103 192.51 212.921 196.379 212.776L196.07 213.094C196.07 211.621 196.07 210.021 196.07 208.338C196.07 205.228 196.07 202.409 196.17 200.363C196.139 199.258 196.221 198.152 196.416 197.062C196.616 198.151 196.698 199.257 196.661 200.363C196.725 202.409 196.771 205.228 196.771 208.338C196.771 210.021 196.771 211.621 196.771 213.094V213.403H196.461C192.519 213.44 189.852 213.376 189.852 213.24Z" fill="#263238"/>
<path d="M204.017 179.508H199.492V230.458H204.017V179.508Z" fill="#E0E0E0"/>
<path d="M204.883 199.415H198.438V178.336C198.44 177.483 198.78 176.666 199.384 176.063C199.988 175.46 200.806 175.12 201.66 175.117C202.515 175.117 203.335 175.456 203.939 176.06C204.544 176.664 204.883 177.483 204.883 178.336V199.415Z" fill="#455A64"/>
<path d="M206.13 181.781H204.883V209.125H206.13V181.781Z" fill="#455A64"/>
<path d="M198.438 199.419C198.438 199.274 201.096 199.101 204.965 198.956L204.656 199.274C204.656 197.801 204.656 196.2 204.656 194.518C204.656 191.408 204.656 188.589 204.765 186.543C204.728 185.437 204.811 184.331 205.011 183.242C205.205 184.331 205.288 185.437 205.256 186.543C205.32 188.589 205.357 191.408 205.357 194.518C205.357 196.2 205.357 197.801 205.357 199.274V199.583H205.047C201.114 199.619 198.438 199.556 198.438 199.419Z" fill="#263238"/>
<path d="M205.776 254.517C205.711 255.182 205.465 255.817 205.063 256.351C204.662 256.885 204.121 257.298 203.5 257.546C195.722 260.76 186.998 260.825 179.174 257.727C177.59 257.127 175.76 255.199 175.605 253.508L172.773 214.406C184.436 217.816 196.817 217.489 209.718 214.406L205.776 254.517Z" fill="#263238"/>
</g>
<defs>
<clipPath id="clip0_8699_99275">
<rect width="590" height="260" fill="white" transform="translate(0.359375)"/>
</clipPath>
</defs>
</svg>
