<svg width="25" height="32" viewBox="0 0 25 32" fill="none" xmlns="http://www.w3.org/2000/svg">
<path d="M23.4428 0.823774C22.9097 0.578246 22.2816 0.673712 21.8455 1.06647L19.7755 2.89936L16.9593 0.380152C16.3935 -0.126717 15.5369 -0.126717 14.9711 0.380152L12.1571 2.89697L9.34251 0.380152C8.77657 -0.126717 7.91991 -0.126717 7.35397 0.380152L4.53695 2.89936L2.46502 1.06654C1.85366 0.523128 0.917487 0.578246 0.374072 1.18961C0.13078 1.46333 -0.00250031 1.81752 3.55311e-05 2.18373V29.6677C-0.00481239 30.4869 0.655326 31.1549 1.47448 31.1597C1.84076 31.1619 2.19495 31.0284 2.46875 30.785L4.53874 28.9521L7.35501 31.4713C7.9208 31.9782 8.77739 31.9782 9.34318 31.4713L12.1571 28.9542L14.9716 31.471C15.5375 31.9778 16.3942 31.9778 16.9601 31.471L19.7771 28.9519L21.849 30.7847C22.4603 31.3283 23.3965 31.2734 23.94 30.6621C24.1835 30.3883 24.3168 30.0339 24.3142 29.6674V2.18373C24.3216 1.59698 23.9789 1.06222 23.4428 0.823774ZM20.7623 27.8346C20.1964 27.3333 19.3447 27.3356 18.7815 27.8399L15.9653 30.3591L13.1513 27.8422C12.5854 27.3354 11.7287 27.3354 11.1629 27.8422L8.34854 30.3591L5.53115 27.8399C4.97013 27.3357 4.11988 27.3333 3.5561 27.8345L1.49171 29.6669V25.6912L1.48425 2.1841L3.552 4.01654C4.11786 4.51782 4.96961 4.51558 5.53279 4.01125L8.34898 1.49212L11.163 4.00894C11.7289 4.5158 12.5856 4.5158 13.1514 4.00894L15.9657 1.49212L18.7831 4.01125C19.3442 4.51551 20.1944 4.51782 20.7582 4.01662L22.8226 2.18373V21.0766L22.83 29.6671L20.7623 27.8346Z" fill="#4B4E54" fill-opacity="0.7"/>
</svg>
