<svg width="126" height="71" viewBox="0 0 126 71" fill="none" xmlns="http://www.w3.org/2000/svg">
<path d="M122.788 0.015625V0.665104C122.828 1.88618 122.623 3.10295 122.186 4.24483C121.749 5.38672 121.089 6.43101 120.243 7.31713C118.595 8.95621 116.17 9.77575 112.97 9.77575C109.868 9.77575 107.516 8.95621 105.915 7.31713C104.248 5.50694 103.36 3.11874 103.443 0.665104V0.015625H109.842V0.0882641C109.857 0.870472 110.056 1.63832 110.424 2.32982C110.762 2.91093 111.611 3.22428 112.97 3.26986C114.279 3.26986 115.139 2.98072 115.549 2.40246C115.994 1.73319 116.259 0.961256 116.317 0.160903V0.015625H122.788Z" fill="url(#paint0_linear_8699_99392)"/>
<path d="M48.2807 9.81153L53.7484 4.17132C53.5713 3.97818 53.3925 3.78932 53.2043 3.60046C52.0538 2.49736 50.6974 1.62874 49.2114 1.04356C47.6875 0.429346 46.0584 0.114753 44.4141 0.117202V7.9853C45.0342 7.96474 45.6523 8.06754 46.232 8.28766C46.8117 8.50778 47.3414 8.84079 47.7899 9.26716C47.9661 9.43697 48.1301 9.61888 48.2807 9.81153V9.81153Z" fill="url(#paint1_linear_8699_99392)"/>
<path d="M48.5034 34.1584C48.1943 34.537 47.8326 34.8699 47.4291 35.1471C46.0004 36.0625 44.3991 36.6789 42.7229 36.9588C43.3743 35.5456 43.7081 34.0081 43.7009 32.4535V11.959C43.721 8.82559 42.5276 5.80467 40.368 3.52262C39.3152 2.42177 38.0451 1.54897 36.6372 0.958891C35.1617 0.335999 33.5734 0.0207123 31.9705 0.0325296C29.0582 0.0113388 26.2524 1.12058 24.1497 3.12439C23.1003 2.21328 21.9169 1.46715 20.6406 0.91189C19.3123 0.325632 17.8741 0.0256508 16.4208 0.031675C14.8336 0.0180016 13.261 0.334411 11.804 0.960601C10.4122 1.55794 9.15699 2.43015 8.11441 3.52433C5.9575 5.80688 4.76628 8.827 4.78755 11.959V32.4535C4.71688 34.4865 5.24178 36.4962 6.29843 38.2381C7.32369 39.8146 8.74902 41.0942 10.4306 41.9478C12.3861 42.9287 14.4838 43.5997 16.6477 43.9364C19.2142 44.3622 21.8125 44.5692 24.4144 44.5552C26.0141 44.5552 27.4356 44.511 28.6789 44.4227C29.9074 44.3386 31.1262 44.1476 32.3212 43.8518C33.3284 44.029 34.438 44.1763 35.6498 44.2937C36.8615 44.411 38.1507 44.47 39.5172 44.4706C45.9343 44.4706 50.5752 43.1838 53.44 40.6104L48.5034 34.1584ZM14.9142 35.4983C13.4343 34.6449 12.6943 33.6291 12.6943 32.4509V11.959C12.7033 10.9344 13.0818 9.94712 13.7609 9.17651C14.0749 8.77235 14.4789 8.4462 14.9413 8.22376C15.4036 8.00131 15.9115 7.88865 16.4251 7.89464C16.9567 7.89662 17.4816 8.01209 17.9643 8.23325C18.4471 8.4544 18.8765 8.77607 19.2234 9.17651C19.9743 9.91234 20.4061 10.9109 20.4266 11.959L20.5152 31.6579C20.5235 32.6107 20.6429 33.5593 20.871 34.4848C21.0859 35.4126 21.3542 36.3274 21.6745 37.2246C19.3264 37.1127 17.026 36.5253 14.9142 35.4983V35.4983ZM35.8801 32.362C35.8311 33.1997 35.5204 34.0012 34.9914 34.6549C34.6329 35.0999 34.1893 35.4699 33.6861 35.7435C33.1829 36.0171 32.6302 36.1888 32.0599 36.2487C31.0019 36.024 30.0309 35.5026 29.2616 34.7463C28.6284 34.1458 28.2609 33.3199 28.2397 32.4501V12.0479C28.2374 10.9943 28.6159 9.97492 29.3063 9.17565C29.6209 8.77218 30.0251 8.44653 30.4873 8.22416C30.9495 8.00179 31.4571 7.88872 31.9705 7.89379C32.5038 7.88428 33.0323 7.99462 33.5167 8.21658C34.0011 8.43853 34.4288 8.76638 34.768 9.17565C35.4706 9.93529 35.8663 10.9262 35.8792 11.9582L35.8801 32.362Z" fill="url(#paint2_linear_8699_99392)"/>
<path d="M108.768 12.3321V32.5052C108.723 33.0439 108.546 33.5634 108.252 34.0179C107.958 34.4723 107.556 34.8477 107.081 35.1109C105.652 36.0258 104.051 36.6417 102.374 36.9208C103.025 35.5066 103.358 33.9682 103.349 32.413V11.9236C103.37 8.79066 102.178 5.7698 100.02 3.48722C98.9664 2.3857 97.6953 1.51282 96.2863 0.923487C94.8117 0.302086 93.2245 -0.0120318 91.623 0.000543725C88.7106 -0.0206471 85.9049 1.08859 83.8022 3.0924C82.7535 2.18145 81.5707 1.43559 80.2948 0.880758C78.9654 0.294029 77.5261 -0.00596349 76.0716 0.000543725C74.4835 -0.0149301 72.9097 0.30003 71.4513 0.925196C70.0602 1.52246 68.8059 2.39471 67.7643 3.48893C65.6063 5.77159 64.4144 8.79247 64.4357 11.9253V32.4147C64.3664 34.4484 64.8928 36.4583 65.9509 38.2002C66.9753 39.7774 68.4008 41.0572 70.0831 41.9099C72.0394 42.8908 74.138 43.5612 76.3028 43.8968C78.8711 44.3234 81.4716 44.5304 84.0755 44.5155C85.6752 44.5155 87.0966 44.4713 88.34 44.383C89.5684 44.2984 90.7872 44.1074 91.9823 43.8122C92.9895 43.9893 94.099 44.1366 95.3108 44.254C96.5226 44.3713 97.8118 44.4303 99.1783 44.4309C110.785 44.4309 116.589 40.2201 116.59 31.7985V12.3321H108.768ZM74.5598 35.4655C73.0822 34.6109 72.3436 33.5943 72.3442 32.4155V11.9236C72.3529 10.8991 72.7311 9.9118 73.4099 9.1411C73.7239 8.73694 74.128 8.41079 74.5903 8.18835C75.0526 7.96591 75.5606 7.85324 76.0742 7.85924C76.6057 7.86116 77.1306 7.97661 77.6134 8.19776C78.0962 8.41892 78.5256 8.74062 78.8725 9.1411C79.6233 9.87694 80.0552 10.8755 80.0757 11.9236L80.1616 31.6225C80.1698 32.575 80.2892 33.5234 80.5174 34.4486C80.7327 35.3762 81.001 36.291 81.321 37.1883C78.9754 37.0802 76.6771 36.4935 74.5693 35.4647L74.5598 35.4655ZM95.5257 32.3301C95.4769 33.1688 95.1663 33.9715 94.637 34.6263C94.2804 35.0709 93.8384 35.4404 93.3367 35.7135C92.835 35.9865 92.2838 36.1576 91.7149 36.2167C90.6568 35.9935 89.6855 35.4726 88.9167 34.716C88.6023 34.4189 88.3505 34.0625 88.176 33.6677C88.0014 33.2729 87.9076 32.8476 87.9 32.4164V12.0108C87.8977 10.9577 88.2762 9.93892 88.9665 9.14025C89.2812 8.73688 89.6854 8.4113 90.1476 8.18893C90.6097 7.96657 91.1174 7.85344 91.6308 7.85838C92.1633 7.84952 92.6909 7.96018 93.1745 8.18211C93.6581 8.40404 94.0852 8.73154 94.4239 9.14025C95.1265 9.89989 95.5222 10.8908 95.5351 11.9228L95.5257 32.3301Z" fill="url(#paint3_linear_8699_99392)"/>
<path d="M72.2582 32.4534C72.2183 35.6119 71.0122 38.6458 68.8694 40.9778C66.7295 43.3034 63.6392 44.4664 59.5988 44.467C57.7492 44.5001 55.9126 44.1542 54.2033 43.4509C52.7096 42.8279 51.3483 41.9289 50.1914 40.8017C49.1011 39.7244 48.2517 38.4302 47.6991 37.004C47.1328 35.5535 46.8453 34.0102 46.8517 32.4542V25.6518H54.6725V32.4534C54.6714 32.9749 54.7783 33.4911 54.9865 33.9698C55.1947 34.4485 55.4997 34.8794 55.8826 35.2359C56.8887 36.1108 58.178 36.5962 59.5145 36.6032C60.1787 36.6504 60.8457 36.5653 61.4765 36.3529C62.1072 36.1406 62.689 35.8053 63.1877 35.3666C63.5871 34.9926 63.9047 34.5407 64.1206 34.0391C64.3364 33.5376 64.4461 32.9972 64.4425 32.4517V12.0478C64.4371 11.5099 64.3233 10.9786 64.1078 10.4853C63.8922 9.99191 63.5794 9.54655 63.1877 9.17554C62.6961 8.72361 62.1165 8.37669 61.4847 8.15622C60.8529 7.93574 60.1824 7.84639 59.5145 7.89367C58.1858 7.90278 56.9017 8.3714 55.8826 9.21912C55.4919 9.57889 55.1821 10.0167 54.9735 10.5039C54.765 10.9911 54.6624 11.5167 54.6725 12.0461V18.8476H46.8517V12.0478C46.8453 10.4918 47.1328 8.9485 47.6991 7.498C48.252 6.07165 49.1013 4.77729 50.1914 3.6994C51.349 2.57296 52.7101 1.67413 54.2033 1.05021C55.9134 0.347519 57.7504 0.00139215 59.6005 0.0332676C63.641 0.0332676 66.7312 1.19635 68.8712 3.52251C71.0137 5.85501 72.2197 8.889 72.2599 12.0478L72.2582 32.4534Z" fill="url(#paint4_linear_8699_99392)"/>
<path d="M7.6287 64.5669C7.2666 63.8644 6.82685 62.8674 6.30948 61.5759C5.7921 60.2843 5.2879 58.823 4.79688 57.1919C4.93864 57.0247 5.11437 56.8893 5.31253 56.7945C5.52593 56.6883 5.76142 56.6332 6.00008 56.6338C6.2778 56.6227 6.55149 56.7029 6.77872 56.862C7.0176 57.0702 7.19023 57.3431 7.27548 57.6474C7.66509 58.8085 8.06873 59.9499 8.48642 61.0717C8.9041 62.1935 9.36246 63.3582 9.86151 64.566H9.94745C10.1635 64.1103 10.3832 63.5727 10.6066 62.9535C10.8301 62.3342 11.0501 61.6821 11.2667 60.9973C11.4827 60.3137 11.6832 59.6152 11.8683 58.9019C12.0533 58.1886 12.2189 57.5112 12.365 56.8697C12.5089 56.799 12.6591 56.7418 12.8137 56.6988C12.9866 56.6531 13.165 56.6315 13.3439 56.6347C13.6292 56.6251 13.9103 56.7049 14.1475 56.8629C14.2562 56.9428 14.3429 57.0486 14.3995 57.1707C14.4561 57.2927 14.4809 57.427 14.4715 57.5611C14.4383 58.1398 14.3406 58.713 14.1802 59.2702C13.9859 60.0388 13.7298 60.8845 13.4118 61.8075C13.0938 62.7304 12.7377 63.6659 12.3435 64.6139C11.9832 65.4708 11.5791 66.3088 11.1326 67.1246C10.5766 68.145 9.92297 69.1097 9.18084 70.0054C8.99041 70.2777 8.74399 70.5066 8.45789 70.6771C8.17179 70.8476 7.85254 70.9556 7.52127 70.9942C7.16916 71.0127 6.82381 70.893 6.55957 70.6609C6.45353 70.5731 6.36592 70.4653 6.30174 70.3439C6.26884 70.2188 6.26585 70.0878 6.29302 69.9613C6.32018 69.8349 6.37673 69.7165 6.45816 69.6157C6.55269 69.4944 6.6945 69.3158 6.8724 69.103C7.25571 68.6466 7.3958 68.5381 7.69402 68.1783C7.96732 67.8479 8.22687 67.5078 8.47267 67.158C8.70256 66.8293 8.9118 66.4868 9.09919 66.1325C8.83288 66.0484 8.58926 65.9052 8.38672 65.7137C8.06825 65.3787 7.81165 64.9905 7.6287 64.5669V64.5669Z" fill="url(#paint5_linear_8699_99392)"/>
<path d="M30.9614 53.7535C30.9568 53.5785 30.989 53.4045 31.0561 53.2426C31.1231 53.0807 31.2235 52.9345 31.3507 52.8135C31.4832 52.6883 31.6394 52.5907 31.8103 52.5263C31.9812 52.4619 32.1633 52.432 32.3459 52.4383C32.696 52.4383 33.0318 52.5766 33.2794 52.8228C33.5269 53.069 33.666 53.4028 33.666 53.751C33.666 54.0991 33.5269 54.433 33.2794 54.6792C33.0318 54.9253 32.696 55.0636 32.3459 55.0636C32.1632 55.0704 31.981 55.0407 31.8101 54.9763C31.6391 54.9118 31.4829 54.8139 31.3507 54.6884C31.2241 54.568 31.1241 54.4227 31.0571 54.2617C30.9901 54.1008 30.9575 53.9277 30.9614 53.7535V53.7535Z" fill="url(#paint6_linear_8699_99392)"/>
<path d="M54.7837 56.5462C55.9164 56.4874 57.038 56.7927 57.9826 57.417C58.3914 57.7419 58.7137 58.1616 58.9211 58.6393C59.1285 59.1171 59.2147 59.6382 59.172 60.1568V65.1655C59.1892 65.4392 59.1079 65.71 58.9426 65.9295C58.7664 66.1302 58.5586 66.3011 58.3272 66.4354C57.871 66.6845 57.3846 66.8747 56.8799 67.0011C56.2082 67.1661 55.5176 67.2428 54.8259 67.2293C53.6756 67.2949 52.5327 67.0098 51.5497 66.4123C51.163 66.1443 50.8518 65.7822 50.6457 65.3607C50.4396 64.9391 50.3454 64.4721 50.3723 64.0041C50.3469 63.5967 50.4165 63.189 50.5758 62.8128C50.735 62.4365 50.9795 62.102 51.2902 61.8352C52.0634 61.276 52.9847 60.9545 53.9398 60.9106L56.9478 60.6089V60.1363C56.9699 59.8738 56.9251 59.61 56.8173 59.3693C56.7096 59.1287 56.5425 58.9189 56.3316 58.7596C55.8168 58.4433 55.2169 58.2917 54.6127 58.3255C54.0489 58.324 53.4878 58.404 52.9471 58.563C52.4579 58.704 51.9808 58.8837 51.5205 59.1006C51.3742 58.9833 51.25 58.8413 51.1535 58.681C51.0522 58.5162 50.9998 58.3263 51.0023 58.1332C50.9941 57.9189 51.0589 57.7081 51.1862 57.535C51.3407 57.3538 51.538 57.2135 51.7603 57.1265C52.1982 56.9144 52.6645 56.7659 53.1448 56.6855C53.6859 56.5905 54.2343 56.5439 54.7837 56.5462V56.5462ZM54.8259 65.4689C55.2703 65.4761 55.7138 65.4256 56.1451 65.3185C56.4293 65.2569 56.701 65.148 56.9487 64.9963V62.2651L54.5921 62.5018C54.067 62.5312 53.5561 62.6822 53.1001 62.9427C52.9346 63.0558 52.8017 63.2099 52.7145 63.3898C52.6274 63.5697 52.5891 63.7691 52.6034 63.9682C52.594 64.1834 52.6385 64.3976 52.7328 64.5915C52.8272 64.7854 52.9684 64.953 53.144 65.0792C53.6497 65.3794 54.237 65.5156 54.8241 65.4689H54.8259Z" fill="url(#paint7_linear_8699_99392)"/>
<path d="M75.4309 65.7702C75.4186 65.3927 75.5538 65.0251 75.8082 64.7447C76.0957 64.4818 76.4721 64.3359 76.8627 64.3359C77.2533 64.3359 77.6297 64.4818 77.9172 64.7447C78.1549 65.0366 78.2846 65.4009 78.2846 65.7766C78.2846 66.1522 78.1549 66.5165 77.9172 66.8084C77.6297 67.0713 77.2533 67.2172 76.8627 67.2172C76.4721 67.2172 76.0957 67.0713 75.8082 66.8084C75.5509 66.5246 75.4154 66.152 75.4309 65.7702V65.7702Z" fill="url(#paint8_linear_8699_99392)"/>
<path d="M98.4591 56.5463C99.5921 56.487 100.714 56.7924 101.659 57.4171C102.067 57.7422 102.389 58.162 102.597 58.6397C102.804 59.1174 102.89 59.6383 102.848 60.1569V65.1656C102.867 65.4394 102.785 65.7108 102.619 65.9296C102.442 66.13 102.234 66.3008 102.003 66.4355C101.548 66.684 101.064 66.8741 100.561 67.0012C99.8893 67.1662 99.1984 67.243 98.5064 67.2294C97.3564 67.2951 96.2137 67.0101 95.2311 66.4124C94.8445 66.1442 94.5332 65.7821 94.3268 65.3607C94.1204 64.9392 94.0258 64.4723 94.0519 64.0042C94.0266 63.5967 94.0964 63.189 94.2558 62.8128C94.4151 62.4365 94.6598 62.102 94.9706 61.8353C95.7434 61.2763 96.664 60.9548 97.6185 60.9106L100.627 60.609V60.1364C100.649 59.8739 100.604 59.61 100.496 59.3694C100.389 59.1287 100.221 58.919 100.01 58.7597C99.4949 58.4457 98.8949 58.2965 98.2915 58.3324C97.7279 58.3309 97.1672 58.4109 96.6268 58.57C96.1369 58.7107 95.6592 58.8904 95.1984 59.1075C95.0524 58.9897 94.9282 58.8474 94.8314 58.687C94.7301 58.5223 94.6777 58.3324 94.6801 58.1393C94.6725 57.9249 94.7376 57.7142 94.8649 57.541C95.0193 57.3597 95.2166 57.2194 95.4391 57.1326C95.8763 56.9204 96.342 56.7719 96.8218 56.6916C97.3621 56.5947 97.9101 56.5461 98.4591 56.5463V56.5463ZM98.5012 65.469C98.9457 65.4763 99.3892 65.4257 99.8204 65.3186C100.105 65.257 100.376 65.1481 100.624 64.9964V62.2643L98.2674 62.5002C97.7423 62.5296 97.2315 62.6806 96.7755 62.9411C96.61 63.0542 96.477 63.2083 96.3899 63.3882C96.3027 63.568 96.2644 63.7675 96.2787 63.9666C96.2693 64.1818 96.3138 64.396 96.4081 64.5899C96.5025 64.7837 96.6438 64.9513 96.8193 65.0776C97.3263 65.3806 97.9156 65.5195 98.5055 65.4749L98.5012 65.469Z" fill="url(#paint9_linear_8699_99392)"/>
<path d="M120.063 53.7536C120.058 53.5785 120.09 53.4044 120.157 53.2424C120.224 53.0805 120.325 52.9344 120.452 52.8136C120.585 52.6882 120.741 52.5904 120.911 52.526C121.082 52.4616 121.264 52.4318 121.447 52.4384C121.797 52.4384 122.133 52.5767 122.38 52.8229C122.628 53.069 122.767 53.4029 122.767 53.751C122.767 54.0992 122.628 54.4331 122.38 54.6792C122.133 54.9254 121.797 55.0637 121.447 55.0637C121.264 55.0706 121.082 55.0409 120.911 54.9765C120.74 54.912 120.584 54.8141 120.452 54.6885C120.325 54.5684 120.225 54.4231 120.158 54.2621C120.091 54.1011 120.059 53.9278 120.063 53.7536V53.7536Z" fill="url(#paint10_linear_8699_99392)"/>
<path d="M31.7922 56.7266H32.6069C32.8002 56.7266 32.9856 56.8029 33.1223 56.9388C33.2589 57.0747 33.3357 57.259 33.3357 57.4512V66.232C33.3357 66.4439 33.2511 66.6472 33.1004 66.797C32.9497 66.9469 32.7453 67.0311 32.5321 67.0311H31.0625V57.4598C31.0619 57.3643 31.0804 57.2696 31.1168 57.1812C31.1531 57.0927 31.2067 57.0123 31.2744 56.9446C31.3422 56.8768 31.4227 56.8231 31.5114 56.7864C31.6001 56.7497 31.6952 56.7308 31.7913 56.7308L31.7922 56.7266Z" fill="url(#paint11_linear_8699_99392)"/>
<path d="M121.012 56.7266H121.827C122.02 56.7266 122.205 56.8029 122.342 56.9388C122.479 57.0747 122.555 57.259 122.555 57.4512V66.232C122.555 66.4439 122.471 66.6472 122.32 66.797C122.169 66.9469 121.965 67.0311 121.752 67.0311H120.281V57.4598C120.281 57.3642 120.299 57.2694 120.336 57.1809C120.372 57.0925 120.426 57.0121 120.493 56.9443C120.561 56.8765 120.642 56.8228 120.731 56.7862C120.82 56.7495 120.915 56.7307 121.011 56.7308L121.012 56.7266Z" fill="url(#paint12_linear_8699_99392)"/>
<defs>
<linearGradient id="paint0_linear_8699_99392" x1="103.438" y1="4.89569" x2="122.793" y2="4.89569" gradientUnits="userSpaceOnUse">
<stop stop-color="#14B797"/>
<stop offset="1" stop-color="#198CB8"/>
</linearGradient>
<linearGradient id="paint1_linear_8699_99392" x1="44.4047" y1="4.96436" x2="53.7484" y2="4.96436" gradientUnits="userSpaceOnUse">
<stop stop-color="#DFD023"/>
<stop offset="1" stop-color="#4AB754"/>
</linearGradient>
<linearGradient id="paint2_linear_8699_99392" x1="4.78125" y1="22.2935" x2="53.44" y2="22.2935" gradientUnits="userSpaceOnUse">
<stop stop-color="#DFD023"/>
<stop offset="1" stop-color="#4AB754"/>
</linearGradient>
<linearGradient id="paint3_linear_8699_99392" x1="64.4297" y1="22.2581" x2="116.59" y2="22.2581" gradientUnits="userSpaceOnUse">
<stop stop-color="#14B797"/>
<stop offset="1" stop-color="#198CB8"/>
</linearGradient>
<linearGradient id="paint4_linear_8699_99392" x1="46.8516" y1="22.2502" x2="72.2599" y2="22.2502" gradientUnits="userSpaceOnUse">
<stop stop-color="#DFD023"/>
<stop offset="1" stop-color="#4AB754"/>
</linearGradient>
<linearGradient id="paint5_linear_8699_99392" x1="4.79688" y1="63.8144" x2="14.4734" y2="63.8144" gradientUnits="userSpaceOnUse">
<stop stop-color="#DFD023"/>
<stop offset="1" stop-color="#4AB754"/>
</linearGradient>
<linearGradient id="paint6_linear_8699_99392" x1="30.9582" y1="53.751" x2="33.6822" y2="53.751" gradientUnits="userSpaceOnUse">
<stop stop-color="#DFD023"/>
<stop offset="1" stop-color="#4AB754"/>
</linearGradient>
<linearGradient id="paint7_linear_8699_99392" x1="50.3672" y1="61.8888" x2="59.1826" y2="61.8888" gradientUnits="userSpaceOnUse">
<stop stop-color="#DFD023"/>
<stop offset="1" stop-color="#4AB754"/>
</linearGradient>
<linearGradient id="paint8_linear_8699_99392" x1="75.4297" y1="65.7708" x2="78.2846" y2="65.7708" gradientUnits="userSpaceOnUse">
<stop stop-color="#14B797"/>
<stop offset="1" stop-color="#198CB8"/>
</linearGradient>
<linearGradient id="paint9_linear_8699_99392" x1="94.0469" y1="61.8889" x2="102.859" y2="61.8889" gradientUnits="userSpaceOnUse">
<stop stop-color="#14B797"/>
<stop offset="1" stop-color="#198CB8"/>
</linearGradient>
<linearGradient id="paint10_linear_8699_99392" x1="120.062" y1="53.7511" x2="122.788" y2="53.7511" gradientUnits="userSpaceOnUse">
<stop stop-color="#14B797"/>
<stop offset="1" stop-color="#198CB8"/>
</linearGradient>
<linearGradient id="paint11_linear_8699_99392" x1="31.0625" y1="61.8788" x2="33.3357" y2="61.8788" gradientUnits="userSpaceOnUse">
<stop stop-color="#DFD023"/>
<stop offset="1" stop-color="#4AB754"/>
</linearGradient>
<linearGradient id="paint12_linear_8699_99392" x1="120.281" y1="61.8788" x2="122.555" y2="61.8788" gradientUnits="userSpaceOnUse">
<stop stop-color="#14B797"/>
<stop offset="1" stop-color="#198CB8"/>
</linearGradient>
</defs>
</svg>
