<svg xmlns="http://www.w3.org/2000/svg" width="22.257" height="20.451" viewBox="0 0 22.257 20.451">
  <g id="certificate" transform="translate(0.25 -0.75)">
    <path id="Path_93886" data-name="Path 93886" d="M10.425,16.411H2.266A2.269,2.269,0,0,1,0,14.145V3.266A2.269,2.269,0,0,1,2.266,1H19.491a2.269,2.269,0,0,1,2.266,2.266V14.145a.453.453,0,1,1-.907,0V3.266a1.361,1.361,0,0,0-1.36-1.36H2.266a1.361,1.361,0,0,0-1.36,1.36V14.145a1.361,1.361,0,0,0,1.36,1.36h8.159a.453.453,0,1,1,0,.907Z" fill="#0ea76f" stroke="#0fa76f" stroke-width="0.5"/>
    <path id="Path_93889" data-name="Path 93889" d="M10.706,13.907H3.453a.453.453,0,1,1,0-.907h7.252a.453.453,0,1,1,0,.907Z" transform="translate(-0.28 -2.935)" fill="#0ea76f" stroke="#0fa76f" stroke-width="0.5"/>
    <g id="Group_38519" data-name="Group 38519" transform="translate(0 1)">
      <path id="Path_93893" data-name="Path 93893" d="M10.706,13.907H3.453a.453.453,0,1,1,0-.907h7.252a.453.453,0,1,1,0,.907Z" transform="translate(-0.28 -8.201)" fill="#0ea76f" stroke="#0fa76f" stroke-width="0.5"/>
      <path id="Path_93894" data-name="Path 93894" d="M11.716,13.907h-8.2a.457.457,0,1,1,0-.907h8.2a.457.457,0,1,1,0,.907Z" transform="translate(6.355 -8.201)" fill="#0ea76f" stroke="#0fa76f" stroke-width="0.5"/>
    </g>
    <path id="Path_93890" data-name="Path 93890" d="M17.173,18.346a3.173,3.173,0,1,1,3.173-3.173A3.176,3.176,0,0,1,17.173,18.346Zm0-5.439a2.266,2.266,0,1,0,2.266,2.266A2.269,2.269,0,0,0,17.173,12.907Z" transform="translate(-1.308 -1.028)" fill="#0ea76f" stroke="#0fa76f" stroke-width="0.5"/>
    <path id="Path_93891" data-name="Path 93891" d="M19.033,22.416a.457.457,0,0,1-.321-.132L17.22,20.79l-1.492,1.492a.453.453,0,0,1-.771-.277L14.5,17.246a.454.454,0,0,1,.408-.495.46.46,0,0,1,.494.408l.362,3.8L16.9,19.828a.454.454,0,0,1,.641,0l1.133,1.132.362-3.8a.461.461,0,0,1,.494-.408.453.453,0,0,1,.408.495l-.453,4.759a.454.454,0,0,1-.451.411Z" transform="translate(-1.355 -1.472)" fill="#0ea76f" stroke="#0fa76f" stroke-width="0.5"/>
  </g>
</svg>
