<svg xmlns="http://www.w3.org/2000/svg" xmlns:xlink="http://www.w3.org/1999/xlink" width="1357" height="1920" viewBox="0 0 1357 1920">
  <defs>
    <linearGradient id="linear-gradient" x1="0.5" x2="0.5" y2="0.927" gradientUnits="objectBoundingBox">
      <stop offset="0" stop-color="#87c639"/>
      <stop offset="0.322" stop-color="#95d636"/>
      <stop offset="1" stop-color="#1a987c"/>
    </linearGradient>
    <clipPath id="clip-path">
      <rect id="Rectangle_14819" data-name="Rectangle 14819" width="67" height="230" transform="translate(645 1690)" fill="#fff"/>
    </clipPath>
  </defs>
  <g id="Group_38674" data-name="Group 38674" transform="translate(-11026 9335)">
    <rect id="Rectangle_15067" data-name="Rectangle 15067" width="1357" height="1920" transform="translate(11026 -9335)" fill="#fff"/>
    <g id="Group_38528" data-name="Group 38528" transform="translate(11026 -9335)">
      <path id="Subtraction_58" data-name="Subtraction 58" d="M3056.3-1885h-.6v-380h67v379.982l-33.776-26.151L3056.3-1885Z" transform="translate(-2410.701 2265)" fill="url(#linear-gradient)"/>
      <g id="badge" transform="translate(603.846 257.439)">
        <g id="Group_65" data-name="Group 65" transform="translate(54.154)">
          <g id="Group_64" data-name="Group 64" transform="translate(0)">
            <path id="Path_343" data-name="Path 343" d="M74.308,0A20.149,20.149,0,0,0,63,36.83V49.648a1.475,1.475,0,0,0,2.08,1.345l9.226-4.152,9.226,4.152a1.475,1.475,0,0,0,2.08-1.345V36.83A20.149,20.149,0,0,0,74.308,0Zm8.357,47.367-7.751-3.488a1.474,1.474,0,0,0-1.21,0l-7.751,3.488V38.5a20.052,20.052,0,0,0,2.277.873l.132.042.3.089.221.064.241.065.282.073.2.049.327.075.17.037q.179.038.36.073l.147.028q.191.036.384.067l.132.022q.2.032.4.059l.124.017c.135.018.271.034.407.049l.121.014c.135.014.271.027.408.038l.124.011c.134.011.269.019.4.027l.13.008c.136.007.273.012.411.016l.124,0q.266.007.534.007t.534-.007l.124,0c.137,0,.274-.009.411-.016l.13-.008c.135-.008.27-.016.4-.027l.124-.011c.136-.012.272-.024.408-.038l.121-.014c.136-.015.271-.031.407-.049l.124-.017q.2-.028.4-.059l.132-.022q.193-.032.384-.067l.147-.028q.181-.035.36-.073l.17-.037.327-.075.2-.049.282-.073.241-.065.221-.064.3-.089.132-.042a20.052,20.052,0,0,0,2.277-.873v8.87Zm-2.742-10.95-.177.06-.27.088q-.158.05-.316.1l-.224.065q-.21.059-.421.112l-.158.039q-.207.05-.415.1l-.1.023q-.269.056-.539.1l-.055.009q-.244.042-.489.077l-.111.016c-.174.024-.349.045-.524.064l-.02,0q-.275.029-.552.048l-.12.008q-.215.014-.43.022l-.146.006c-.18.005-.361.009-.542.009s-.362,0-.542-.009l-.146-.006q-.216-.009-.43-.022l-.12-.008q-.276-.02-.552-.048l-.02,0c-.175-.018-.35-.04-.524-.064l-.111-.016q-.245-.035-.489-.077l-.055-.009q-.271-.047-.539-.1l-.1-.023q-.208-.045-.415-.1l-.158-.039q-.211-.053-.421-.112l-.224-.065q-.158-.047-.316-.1l-.27-.088-.177-.06a17.2,17.2,0,1,1,11.229,0Z" transform="translate(-54.154)" fill="#fff"/>
          </g>
        </g>
        <g id="Group_67" data-name="Group 67" transform="translate(62.616 6.882)">
          <g id="Group_66" data-name="Group 66" transform="translate(0)">
            <path id="Path_344" data-name="Path 344" d="M159.347,82.2l2.77-5.206a1.475,1.475,0,0,0-1.251-2.166l-5.894-.2-3.124-5a1.475,1.475,0,0,0-2.5,0l-3.124,5-5.894.2a1.475,1.475,0,0,0-1.251,2.166l2.77,5.206L139.08,87.4a1.475,1.475,0,0,0,1.251,2.166l5.894.2,3.124,5a1.475,1.475,0,0,0,2.5,0l3.124-5,5.894-.2a1.475,1.475,0,0,0,1.251-2.166Zm-5.261,4.656a1.474,1.474,0,0,0-1.2.693L150.6,91.21l-2.288-3.664a1.475,1.475,0,0,0-1.2-.693l-4.318-.15,2.029-3.814a1.474,1.474,0,0,0,0-1.385l-2.029-3.814,4.318-.15a1.475,1.475,0,0,0,1.2-.693l2.288-3.664,2.288,3.664a1.475,1.475,0,0,0,1.2.693l4.318.15L156.375,81.5a1.475,1.475,0,0,0,0,1.385L158.4,86.7Z" transform="translate(-138.907 -68.924)" fill="#fff"/>
          </g>
        </g>
      </g>
    </g>
    <g id="Mask_Group_189" data-name="Mask Group 189" transform="translate(11026 -9335)" clip-path="url(#clip-path)">
      <path id="Subtraction_2" data-name="Subtraction 2" d="M3122.7-1794h-67v-554h67v554Z" transform="translate(-2410.7 4038)" fill="url(#linear-gradient)"/>
    </g>
  </g>
</svg>
