<svg id="Layer_2" data-name="Layer 2" xmlns="http://www.w3.org/2000/svg" width="21.295" height="21.295" viewBox="0 0 21.295 21.295">
  <g id="Clock">
    <path id="Path_82534" data-name="Path 82534" d="M24.621,22.162l3.833-2.083a1.065,1.065,0,0,0-1.129-1.806l-3.833,2.083a1.065,1.065,0,1,0,1.129,1.806Z" transform="translate(-13.199 -10.399)" fill="#f5ad08"/>
    <path id="Path_82535" data-name="Path 82535" d="M10.647,0A10.647,10.647,0,1,0,21.295,10.647,10.647,10.647,0,0,0,10.647,0Zm0,19.165a8.518,8.518,0,1,1,8.518-8.518A8.518,8.518,0,0,1,10.647,19.165Z" fill="#f5ad08"/>
    <path id="Path_82536" data-name="Path 82536" d="M14.453,13.356a1.065,1.065,0,0,0-1.44,1.567l4.417,4.259a1.065,1.065,0,1,0,1.44-1.567Z" transform="translate(-7.289 -7.522)" fill="#f5ad08"/>
  </g>
</svg>
