<svg xmlns="http://www.w3.org/2000/svg" xmlns:xlink="http://www.w3.org/1999/xlink" width="247.79" height="247.79" viewBox="0 0 247.79 247.79"><defs><style>.a{fill:#fff;stroke:#acacac;stroke-width:1.5px;}.b{fill:#f93226;stroke:#f93226;stroke-width:0.5px;}.c{filter:url(#a);}</style><filter id="a" x="0" y="0" width="247.79" height="247.79" filterUnits="userSpaceOnUse"><feOffset dx="-3" dy="3" input="SourceAlpha"/><feGaussianBlur stdDeviation="36" result="b"/><feFlood flood-opacity="0.078"/><feComposite operator="in" in2="b"/><feComposite in="SourceGraphic"/></filter></defs><g transform="translate(111.75 105.75)"><g class="c" transform="matrix(1, 0, 0, 1, -111.75, -105.75)"><path class="a" d="M15.145,0A15.145,15.145,0,1,1,0,15.145,15.145,15.145,0,0,1,15.145,0Z" transform="translate(111.75 105.75)"/></g><g transform="translate(9.556 9.543)"><path class="b" d="M31.22,31.2a.651.651,0,0,1-.912,0l-3.257-3.242-.456-.454a.644.644,0,0,1,.912-.908l.456.454,3.257,3.24A.644.644,0,0,1,31.22,31.2Z" transform="translate(-19.603 -19.632)"/><path class="b" d="M11.615.187a.651.651,0,0,0-.912,0L5.9,4.969,1.1.187a.649.649,0,0,0-.912,0,.644.644,0,0,0,0,.908l4.8,4.782-4.8,4.782a.64.64,0,0,0,0,.908.647.647,0,0,0,.912,0L11.615,1.1a.642.642,0,0,0,0-.908Z" transform="translate(0.001 0)"/></g></g></svg>