<svg xmlns="http://www.w3.org/2000/svg" width="25.249" height="24.75" viewBox="0 0 25.249 24.75"><defs><style>.a{fill:#333;}.b{fill:#00c569;}</style></defs><path class="a" d="M21.169,2.475H20.2V1.238a1.263,1.263,0,0,0-2.525,0V2.475H7.575V1.238a1.263,1.263,0,0,0-2.525,0V2.475H4.08a4.041,4.041,0,0,0-4.08,4V20.751a4.041,4.041,0,0,0,4.08,4H21.169a4.041,4.041,0,0,0,4.08-4V6.475A4.041,4.041,0,0,0,21.169,2.475Zm1.555,18.276a1.54,1.54,0,0,1-1.555,1.525H4.08a1.54,1.54,0,0,1-1.555-1.525V6.475A1.54,1.54,0,0,1,4.08,4.95h.97V6.188a1.263,1.263,0,0,0,2.525,0V4.95h10.1V6.188a1.263,1.263,0,0,0,2.525,0V4.95h.97a1.54,1.54,0,0,1,1.555,1.525Z"/><ellipse class="a" cx="1.262" cy="1.238" rx="1.262" ry="1.238" transform="translate(11.362 11.385)"/><ellipse class="a" cx="1.262" cy="1.238" rx="1.262" ry="1.238" transform="translate(11.362 15.84)"/><ellipse class="a" cx="1.262" cy="1.238" rx="1.262" ry="1.238" transform="translate(6.817 15.84)"/><g transform="translate(15.907 11.385)"><ellipse class="b" cx="1.262" cy="1.238" rx="1.262" ry="1.238"/><ellipse class="b" cx="1.262" cy="1.238" rx="1.262" ry="1.238" transform="translate(0 4.455)"/></g></svg>