<svg xmlns="http://www.w3.org/2000/svg" xmlns:xlink="http://www.w3.org/1999/xlink" width="578" height="492" viewBox="0 0 578 492">
  <defs>
    <clipPath id="clip-path">
      <rect id="Rectangle_15066" data-name="Rectangle 15066" width="578" height="492" transform="translate(829 383)" fill="#fff" stroke="#707070" stroke-width="1" opacity="0.56"/>
    </clipPath>
    <linearGradient id="linear-gradient" x1="0.5" y1="-0.227" x2="0.5" y2="0.559" gradientUnits="objectBoundingBox">
      <stop offset="0" stop-color="#e5e5e5"/>
      <stop offset="0.476" stop-color="#f3f3f3"/>
      <stop offset="1" stop-color="#fff" stop-opacity="0"/>
    </linearGradient>
    <linearGradient id="linear-gradient-2" x1="86.402" y1="0.412" x2="87.007" y2="0.823" gradientUnits="objectBoundingBox">
      <stop offset="0" stop-color="#4e9cff"/>
      <stop offset="0.984" stop-color="#176ad4"/>
    </linearGradient>
    <linearGradient id="linear-gradient-3" x1="1.154" y1="0.568" x2="0.42" y2="0.49" gradientUnits="objectBoundingBox">
      <stop offset="0" stop-color="#f2bfad"/>
      <stop offset="1" stop-color="#f2dad4"/>
    </linearGradient>
    <linearGradient id="linear-gradient-4" x1="0.202" y1="0.241" x2="1.023" y2="0.87" xlink:href="#linear-gradient-2"/>
    <linearGradient id="linear-gradient-5" x1="0.51" y1="0.622" x2="0.569" y2="1.822" gradientUnits="objectBoundingBox">
      <stop offset="0" stop-color="#f2bfad"/>
      <stop offset="0.704" stop-color="#f2dad4"/>
    </linearGradient>
    <linearGradient id="linear-gradient-6" x1="0.404" y1="0.306" x2="0.835" y2="1.076" xlink:href="#linear-gradient-3"/>
    <linearGradient id="linear-gradient-7" x1="0.386" y1="0.075" x2="0.681" y2="1.17" gradientUnits="objectBoundingBox">
      <stop offset="0" stop-color="#f6dbdb"/>
      <stop offset="1" stop-color="#eb9a99"/>
    </linearGradient>
    <linearGradient id="linear-gradient-8" x1="0.314" y1="0.412" x2="0.919" y2="0.823" xlink:href="#linear-gradient-2"/>
  </defs>
  <g id="Mask_Group_208" data-name="Mask Group 208" transform="translate(-829 -383)" clip-path="url(#clip-path)">
    <g id="Group_38572" data-name="Group 38572" transform="translate(831 398.189)">
      <g id="Group_35112" data-name="Group 35112" transform="translate(0 223.228)">
        <path id="Path_81690" data-name="Path 81690" d="M1773.529,910.169a3.993,3.993,0,0,0-7.89,1.234c.573,3.719,1.3,15.37-2.718,20.058a5.367,5.367,0,0,1-3.241,1.864l.366-22.19a5.771,5.771,0,1,0-11.54.048l1.043,42.111a5.387,5.387,0,0,1-3.377-1.881c-4.021-4.688-3.291-16.339-2.718-20.058a3.993,3.993,0,1,0-7.889-1.234c-.287,1.833-2.595,18.146,4.535,26.479a13.518,13.518,0,0,0,9.649,4.743l.454,18.329h8.713l.632-38.3a13.492,13.492,0,0,0,9.446-4.727C1776.124,928.316,1773.816,912,1773.529,910.169Z" transform="translate(-1300.551 -905.268)" fill="#bdbdbd"/>
        <path id="Path_81691" data-name="Path 81691" d="M1211.881,965.713a2.545,2.545,0,1,0-5.029.786c.365,2.371.83,9.8-1.733,12.786a3.421,3.421,0,0,1-2.066,1.188l.233-14.146a3.679,3.679,0,1,0-7.357.031l.665,26.844a3.429,3.429,0,0,1-2.153-1.2c-2.563-2.988-2.1-10.416-1.733-12.786a2.545,2.545,0,1,0-5.029-.787c-.183,1.168-1.655,11.568,2.891,16.879a8.617,8.617,0,0,0,6.151,3.023l.29,11.685h5.555l.4-24.412a8.606,8.606,0,0,0,6.022-3.014C1213.535,977.281,1212.064,966.882,1211.881,965.713Z" transform="translate(-1110.933 -925.114)" fill="#bdbdbd"/>
        <ellipse id="Ellipse_4177" data-name="Ellipse 4177" cx="287.337" cy="101.723" rx="287.337" ry="101.723" transform="translate(0 50.483)" fill="url(#linear-gradient)"/>
      </g>
      <g id="Group_35147" data-name="Group 35147" transform="translate(98.037 0)">
        <g id="Group_35139" data-name="Group 35139">
          <path id="Path_81726" data-name="Path 81726" d="M2913.923,1605.374a.59.59,0,0,0-.808-.208l-1.96,1.157-1.157-1.959a.59.59,0,1,0-1.017.6l1.158,1.96-1.959,1.158a.59.59,0,1,0,.6,1.017l1.96-1.158,1.158,1.96a.591.591,0,0,0,.623.279.583.583,0,0,0,.185-.071.59.59,0,0,0,.208-.808l-1.157-1.959,1.959-1.158A.59.59,0,0,0,2913.923,1605.374Z" transform="translate(-2622.45 -1371.976)" fill="#dedede"/>
          <path id="Path_81727" data-name="Path 81727" d="M2944.729,1646.322a2.572,2.572,0,1,1,2.572-2.572A2.575,2.575,0,0,1,2944.729,1646.322Zm0-3.769a1.2,1.2,0,1,0,1.2,1.2A1.2,1.2,0,0,0,2944.729,1642.553Z" transform="translate(-2648.289 -1399.953)" fill="#dedede"/>
          <path id="Path_81728" data-name="Path 81728" d="M1888.495,1799.8a2.572,2.572,0,1,1,2.572-2.572A2.575,2.575,0,0,1,1888.495,1799.8Zm0-3.769a1.2,1.2,0,1,0,1.2,1.2A1.2,1.2,0,0,0,1888.495,1796.031Z" transform="translate(-1851.881 -1515.676)" fill="#dedede"/>
          <path id="Path_81729" data-name="Path 81729" d="M3046.538,675.265a2.572,2.572,0,1,1,2.572-2.572A2.575,2.575,0,0,1,3046.538,675.265Zm0-3.769a1.2,1.2,0,1,0,1.2,1.2A1.2,1.2,0,0,0,3046.538,671.5Z" transform="translate(-2725.053 -667.769)" fill="#dedede"/>
          <path id="Path_81730" data-name="Path 81730" d="M3228.364,955.7a.591.591,0,0,0-.272.789l1,2.046-2.046,1a.59.59,0,1,0,.516,1.062l2.047-1,1,2.046a.591.591,0,1,0,1.062-.517l-1-2.046,2.046-1a.59.59,0,0,0-.517-1.062l-2.047,1-1-2.046A.591.591,0,0,0,3228.364,955.7Z" transform="translate(-2862.844 -883.05)" fill="#dedede"/>
          <path id="Path_81731" data-name="Path 81731" d="M3074.459,1139.13a2.572,2.572,0,1,1,2.572-2.572A2.575,2.575,0,0,1,3074.459,1139.13Zm0-3.77a1.2,1.2,0,1,0,1.2,1.2A1.2,1.2,0,0,0,3074.459,1135.36Z" transform="translate(-2746.105 -1017.526)" fill="#dedede"/>
          <path id="Path_81732" data-name="Path 81732" d="M1747.855,1300.2a.59.59,0,0,0-.026.835l1.557,1.66-1.66,1.557a.591.591,0,0,0,.808.862l1.66-1.557,1.557,1.66a.59.59,0,0,0,.861-.808l-1.557-1.66,1.66-1.557a.59.59,0,0,0-.808-.861l-1.66,1.557-1.557-1.66A.591.591,0,0,0,1747.855,1300.2Z" transform="translate(-1747.539 -1142.732)" fill="#dedede"/>
          <path id="Path_81733" data-name="Path 81733" d="M1843.983,1399.9a2.572,2.572,0,1,1,2.572-2.572A2.575,2.575,0,0,1,1843.983,1399.9Zm0-3.769a1.2,1.2,0,1,0,1.2,1.2A1.2,1.2,0,0,0,1843.983,1396.13Z" transform="translate(-1818.319 -1214.149)" fill="#dedede"/>
          <g id="Group_35138" data-name="Group 35138" transform="translate(3.669)">
            <g id="Group_35136" data-name="Group 35136" transform="translate(0 140.99)">
              <path id="Path_81734" data-name="Path 81734" d="M1828.739,1359.327a.524.524,0,0,1-.029-1.046c1.726-.1,3.474-.269,5.193-.512a.524.524,0,1,1,.146,1.037c-1.749.247-3.525.422-5.281.521Zm-7.363-.023h-.033c-1.759-.11-3.534-.3-5.277-.556a.523.523,0,0,1,.154-1.035c1.713.255,3.459.439,5.188.547a.524.524,0,0,1-.032,1.046Zm19.82-1.946a.523.523,0,0,1-.132-1.03c1.678-.441,3.356-.957,4.986-1.535a.524.524,0,1,1,.35.987c-1.658.588-3.363,1.113-5.07,1.561A.525.525,0,0,1,1841.2,1357.358Zm-32.263-.121a.524.524,0,0,1-.138-.019c-1.7-.464-3.4-1.007-5.055-1.613a.524.524,0,0,1,.361-.983c1.627.6,3.3,1.13,4.97,1.586a.524.524,0,0,1-.138,1.029Zm44.073-4.3a.523.523,0,0,1-.233-.993c1.552-.769,3.09-1.614,4.572-2.511a.523.523,0,1,1,.542.9c-1.506.913-3.071,1.772-4.65,2.554A.519.519,0,0,1,1853.006,1352.941Zm-55.841-.242a.523.523,0,0,1-.237-.056c-1.57-.8-3.127-1.67-4.627-2.6a.524.524,0,0,1,.55-.891c1.475.911,3.006,1.77,4.551,2.553a.523.523,0,0,1-.237.99Zm66.507-6.471a.523.523,0,0,1-.322-.936c1.364-1.067,2.7-2.205,3.97-3.385a.524.524,0,0,1,.713.768c-1.292,1.2-2.651,2.357-4.038,3.442A.521.521,0,0,1,1863.672,1346.227Zm-77.123-.334a.521.521,0,0,1-.325-.113c-1.38-1.1-2.731-2.263-4.014-3.47a.523.523,0,0,1,.717-.762c1.262,1.187,2.59,2.335,3.948,3.412a.523.523,0,0,1-.326.934Zm86.218-8.4a.524.524,0,0,1-.4-.863c1.122-1.32,2.2-2.7,3.21-4.114a.524.524,0,0,1,.852.609c-1.025,1.433-2.123,2.84-3.265,4.182A.522.522,0,0,1,1872.767,1337.5Zm-95.253-.395a.522.522,0,0,1-.4-.187c-1.133-1.351-2.221-2.766-3.234-4.206a.523.523,0,1,1,.856-.6c1,1.416,2.066,2.807,3.181,4.136a.523.523,0,0,1-.4.86Zm102.415-9.985a.523.523,0,0,1-.458-.776c.835-1.518,1.617-3.091,2.322-4.673a.523.523,0,1,1,.956.426c-.717,1.609-1.511,3.208-2.361,4.751A.523.523,0,0,1,1879.929,1327.116Zm-109.493-.45a.524.524,0,0,1-.461-.275c-.835-1.551-1.614-3.157-2.315-4.774a.524.524,0,1,1,.961-.416c.689,1.59,1.455,3.169,2.276,4.694a.524.524,0,0,1-.213.709A.518.518,0,0,1,1770.435,1326.667Zm114.431-11.156a.524.524,0,0,1-.5-.679c.514-1.656.962-3.353,1.333-5.044a.524.524,0,0,1,1.023.225c-.378,1.72-.834,3.446-1.357,5.13A.523.523,0,0,1,1884.866,1315.511Zm-119.25-.5a.524.524,0,0,1-.5-.374c-.5-1.683-.943-3.413-1.305-5.141a.524.524,0,0,1,1.025-.215c.357,1.7.789,3.4,1.284,5.056a.524.524,0,0,1-.5.674Zm121.743-11.87-.051,0a.524.524,0,0,1-.47-.572c.168-1.723.263-3.476.284-5.209a.523.523,0,1,1,1.047.013c-.021,1.762-.118,3.545-.288,5.3A.523.523,0,0,1,1887.36,1303.145Zm-124.13-.513a.524.524,0,0,1-.521-.476c-.158-1.757-.245-3.541-.255-5.3a.524.524,0,0,1,.521-.527h0a.524.524,0,0,1,.523.521c.01,1.731.094,3.484.251,5.212a.523.523,0,0,1-.474.568Zm124.066-12.1a.524.524,0,0,1-.52-.468c-.184-1.718-.443-3.455-.771-5.161l-.013-.066a.524.524,0,0,1,1.028-.2l.013.068c.334,1.736.6,3.5.784,5.248a.523.523,0,0,1-.465.576A.439.439,0,0,1,1887.3,1290.535Zm-123.922-.518a.5.5,0,0,1-.06,0,.523.523,0,0,1-.461-.579c.2-1.751.476-3.514.824-5.242a.524.524,0,1,1,1.027.206c-.342,1.7-.614,3.433-.81,5.154A.523.523,0,0,1,1763.374,1290.017Zm121.316-11.89a.524.524,0,0,1-.5-.365c-.525-1.653-1.127-3.3-1.789-4.9a.524.524,0,0,1,.967-.4c.673,1.626,1.285,3.3,1.819,4.983a.525.525,0,0,1-.5.682Zm-118.62-.432a.524.524,0,0,1-.5-.687c.55-1.673,1.178-3.344,1.867-4.967a.523.523,0,0,1,.964.409c-.678,1.6-1.3,3.239-1.836,4.884A.524.524,0,0,1,1766.07,1277.7Zm113.6-11.134a.522.522,0,0,1-.457-.268c-.848-1.51-1.771-3-2.745-4.436a.524.524,0,1,1,.866-.588c.99,1.458,1.929,2.976,2.791,4.511a.524.524,0,0,1-.456.78Zm-108.475-.389a.524.524,0,0,1-.454-.784c.875-1.529,1.825-3.04,2.825-4.491a.524.524,0,0,1,.862.594c-.984,1.427-1.918,2.913-2.778,4.417A.523.523,0,0,1,1771.195,1266.173Zm101.218-9.918a.524.524,0,0,1-.4-.18c-1.135-1.307-2.341-2.583-3.584-3.791a.523.523,0,1,1,.73-.75c1.264,1.229,2.49,2.526,3.645,3.855a.523.523,0,0,1-.4.866Zm-93.889-.344a.523.523,0,0,1-.393-.869c1.164-1.324,2.4-2.614,3.667-3.835a.524.524,0,1,1,.726.755c-1.248,1.2-2.462,2.469-3.606,3.771A.521.521,0,0,1,1778.524,1255.911Zm84.7-8.292a.522.522,0,0,1-.318-.108c-1.376-1.054-2.813-2.062-4.272-3a.523.523,0,1,1,.565-.882c1.483.95,2.945,1.975,4.344,3.046a.523.523,0,0,1-.319.939Zm-75.465-.289a.523.523,0,0,1-.316-.941c1.406-1.063,2.874-2.078,4.365-3.017a.524.524,0,1,1,.558.886c-1.465.923-2.909,1.922-4.291,2.967A.524.524,0,0,1,1787.76,1247.331Zm64.733-6.332a.523.523,0,0,1-.228-.053c-1.559-.757-3.169-1.457-4.786-2.079a.524.524,0,1,1,.377-.977c1.644.633,3.281,1.345,4.866,2.115a.524.524,0,0,1-.229.995Zm-53.953-.208a.523.523,0,0,1-.225-1c1.591-.755,3.234-1.452,4.885-2.07a.523.523,0,1,1,.367.98c-1.623.608-3.24,1.292-4.8,2.035A.52.52,0,0,1,1798.539,1240.791Zm42.109-4.126a.532.532,0,0,1-.129-.016c-1.679-.427-3.4-.788-5.106-1.071a.524.524,0,1,1,.171-1.033c1.738.288,3.485.654,5.193,1.089a.523.523,0,0,1-.129,1.031Zm-30.229-.1a.524.524,0,0,1-.124-1.032c1.04-.255,2.1-.487,3.161-.69.675-.13,1.361-.25,2.04-.358a.524.524,0,1,1,.164,1.034c-.667.106-1.342.224-2.006.352-1.04.2-2.086.429-3.109.679A.535.535,0,0,1,1810.419,1236.568Zm17.751-1.753h-.024c-.917-.041-1.847-.062-2.764-.062-.813,0-1.639.016-2.453.049a.524.524,0,0,1-.042-1.046c.828-.033,1.668-.05,2.5-.05.932,0,1.878.021,2.811.063a.523.523,0,0,1-.023,1.046Z" transform="translate(-1762.454 -1233.705)" fill="#dedede"/>
            </g>
            <g id="Group_35137" data-name="Group 35137" transform="translate(137.896)">
              <path id="Path_81735" data-name="Path 81735" d="M2439.59,879.614q-.452.029-.9.055a.524.524,0,0,1-.063-1.045h0c1.712-.1,3.444-.235,5.153-.413a.524.524,0,0,1,.108,1.042C2442.464,879.4,2441.018,879.522,2439.59,879.614Zm-8.165.224h-.039c-1.732-.017-3.486-.077-5.214-.176a.524.524,0,1,1,.06-1.045c1.711.1,3.448.158,5.165.175a.524.524,0,0,1,.029,1.046Zm19.644-1.571a.524.524,0,0,1-.121-1.039c1.694-.289,3.4-.622,5.072-.988a.524.524,0,0,1,.225,1.023c-1.688.37-3.41.706-5.121,1ZM2419,879a.531.531,0,0,1-.1,0c-1.719-.216-3.455-.476-5.16-.773a.523.523,0,1,1,.18-1.031c1.688.295,3.407.552,5.11.766A.524.524,0,0,1,2419,879Zm44.209-3.52a.524.524,0,0,1-.18-1.025c1.647-.478,3.3-1,4.927-1.559a.523.523,0,0,1,.339.99c-1.637.562-3.31,1.091-4.973,1.574A.526.526,0,0,1,2463.209,875.481Zm-56.469,1.259a.516.516,0,0,1-.157-.014c-1.684-.412-3.381-.87-5.047-1.364a.524.524,0,0,1,.3-1c1.648.488,3.33.943,5,1.351a.524.524,0,0,1-.091,1.031Zm68.211-5.412a.524.524,0,0,1-.236-1.005c1.582-.664,3.168-1.375,4.715-2.114a.524.524,0,1,1,.451.945c-1.562.745-3.163,1.463-4.761,2.134A.523.523,0,0,1,2474.951,871.328Zm-80.135,1.756a.519.519,0,0,1-.215-.032c-1.624-.6-3.258-1.252-4.853-1.932a.523.523,0,0,1,.41-.963c1.58.673,3.2,1.317,4.807,1.913a.524.524,0,0,1-.148,1.013Zm91.315-7.224a.523.523,0,0,1-.291-.979c1.491-.839,2.982-1.726,4.433-2.635a.523.523,0,1,1,.556.887c-1.464.919-2.97,1.814-4.475,2.661A.519.519,0,0,1,2486.131,865.859Zm-102.738,2.231a.523.523,0,0,1-.271-.056c-1.546-.784-3.093-1.615-4.6-2.471a.524.524,0,0,1,.517-.911c1.492.848,3.024,1.671,4.555,2.448a.524.524,0,0,1-.2.989Zm113.212-8.941a.523.523,0,0,1-.342-.946c1.387-1,2.768-2.057,4.105-3.127a.524.524,0,0,1,.655.818c-1.35,1.08-2.745,2.142-4.146,3.157A.516.516,0,0,1,2496.6,859.149Zm-123.988,2.682a.519.519,0,0,1-.322-.086c-1.446-.954-2.889-1.955-4.287-2.975a.524.524,0,0,1,.617-.846c1.385,1.011,2.813,2,4.246,2.947a.523.523,0,0,1-.255.959Zm133.633-10.547a.524.524,0,0,1-.388-.909c1.263-1.156,2.517-2.359,3.726-3.575a.524.524,0,0,1,.743.738c-1.22,1.228-2.486,2.442-3.762,3.61A.52.52,0,0,1,2506.249,851.284Zm-143.626,3.109a.519.519,0,0,1-.369-.121c-1.328-1.111-2.647-2.268-3.92-3.44a.523.523,0,1,1,.708-.771c1.262,1.161,2.568,2.307,3.883,3.408a.524.524,0,0,1-.3.924Zm152.318-12.024a.524.524,0,0,1-.429-.866c1.125-1.294,2.235-2.632,3.3-3.977a.524.524,0,1,1,.822.649c-1.073,1.358-2.194,2.709-3.33,4.015A.522.522,0,0,1,2514.941,842.369Zm-161.4,3.5a.524.524,0,0,1-.414-.161c-1.193-1.254-2.371-2.552-3.5-3.861a.523.523,0,1,1,.792-.685c1.121,1.3,2.288,2.582,3.469,3.824a.523.523,0,0,1-.344.883Zm169.028-13.351a.523.523,0,0,1-.465-.819c.972-1.414,1.924-2.87,2.827-4.327a.524.524,0,0,1,.89.552c-.913,1.471-1.873,2.941-2.855,4.369A.522.522,0,0,1,2522.57,832.523Zm-177.081,3.859a.524.524,0,0,1-.452-.207c-1.041-1.38-2.063-2.8-3.038-4.232a.524.524,0,0,1,.865-.59c.965,1.415,1.978,2.825,3.009,4.191a.524.524,0,0,1-.384.838Zm183.547-14.511a.524.524,0,0,1-.5-.768c.806-1.517,1.586-3.072,2.318-4.622a.524.524,0,0,1,.947.447c-.739,1.565-1.527,3.135-2.342,4.667A.522.522,0,0,1,2529.036,821.871Zm-190.462,4.168a.524.524,0,0,1-.485-.257c-.876-1.489-1.728-3.019-2.532-4.548a.524.524,0,1,1,.927-.488c.8,1.515,1.64,3.03,2.508,4.5a.524.524,0,0,1-.417.788Zm195.677-15.49a.524.524,0,0,1-.521-.714c.629-1.6,1.226-3.234,1.777-4.86a.523.523,0,1,1,.991.336c-.556,1.641-1.159,3.292-1.793,4.907A.525.525,0,0,1,2534.251,810.55Zm-201.362,4.421a.523.523,0,0,1-.513-.31c-.7-1.583-1.373-3.2-2-4.819a.524.524,0,0,1,.977-.378c.618,1.6,1.284,3.205,1.979,4.773a.524.524,0,0,1-.445.735ZM2538.14,798.7a.525.525,0,0,1-.54-.657c.442-1.662.848-3.356,1.209-5.035a.524.524,0,0,1,1.024.22c-.364,1.7-.775,3.405-1.221,5.084A.523.523,0,0,1,2538.14,798.7Zm-209.633,4.611a.523.523,0,0,1-.533-.367c-.515-1.652-1-3.339-1.433-5.016a.523.523,0,1,1,1.013-.264c.432,1.661.91,3.332,1.419,4.968a.523.523,0,0,1-.466.678Zm212.135-16.823a.518.518,0,0,1-.11,0,.523.523,0,0,1-.442-.593c.246-1.7.456-3.422.621-5.13a.524.524,0,0,1,1.042.1c-.167,1.724-.378,3.466-.627,5.179A.523.523,0,0,1,2540.642,786.489Zm-215.156,4.741a.524.524,0,0,1-.548-.424c-.323-1.7-.61-3.43-.855-5.147a.524.524,0,0,1,1.037-.147c.241,1.7.527,3.416.847,5.1a.523.523,0,0,1-.417.612A.481.481,0,0,1,2325.486,791.23Zm216.238-17.149c-.016,0-.033,0-.05,0a.524.524,0,0,1-.508-.539c.051-1.713.061-3.452.029-5.167a.524.524,0,0,1,1.047-.019c.031,1.731.022,3.486-.03,5.216A.523.523,0,0,1,2541.724,774.081Zm-217.876,4.8a.524.524,0,0,1-.556-.483q-.046-.612-.086-1.223c-.085-1.323-.148-2.664-.185-3.987a.523.523,0,1,1,1.046-.03c.038,1.31.1,2.639.184,3.949q.039.605.085,1.211a.523.523,0,0,1-.482.562Zm217.533-17.25a.523.523,0,0,1-.555-.478c-.144-1.706-.331-3.435-.555-5.139l-.022-.166a.523.523,0,0,1,1.038-.138l.022.168c.227,1.719.416,3.465.561,5.187a.524.524,0,0,1-.478.565Zm-217.768,4.8a.513.513,0,0,1-.054,0,.524.524,0,0,1-.5-.543c.066-1.731.175-3.482.324-5.207a.524.524,0,1,1,1.043.09c-.148,1.708-.255,3.443-.321,5.157A.523.523,0,0,1,2323.613,766.427Zm215.991-17.3a.525.525,0,0,1-.547-.419c-.337-1.682-.72-3.378-1.136-5.04a.524.524,0,0,1,1.016-.255c.42,1.679.806,3.39,1.148,5.089a.524.524,0,0,1-.41.617A.515.515,0,0,1,2539.6,749.131Zm-214.8,4.9a.524.524,0,0,1-.552-.6c.264-1.715.574-3.447.922-5.148a.523.523,0,1,1,1.026.209c-.344,1.685-.651,3.4-.913,5.1A.524.524,0,0,1,2324.8,754.029Zm211.658-16.949a.524.524,0,0,1-.531-.362c-.527-1.632-1.1-3.273-1.7-4.878a.523.523,0,1,1,.979-.369c.61,1.62,1.189,3.277,1.721,4.925a.524.524,0,0,1-.465.683Zm-209.048,4.748a.517.517,0,0,1-.173-.018.523.523,0,0,1-.366-.643c.46-1.672.967-3.355,1.507-5a.524.524,0,0,1,1,.326c-.535,1.633-1.037,3.3-1.492,4.956A.524.524,0,0,1,2327.413,741.828Zm204.548-16.361a.524.524,0,0,1-.511-.305c-.71-1.561-1.469-3.126-2.253-4.65a.524.524,0,0,1,.931-.479c.792,1.539,1.557,3.119,2.275,4.7a.523.523,0,0,1-.442.739ZM2331.4,730.014a.524.524,0,0,1-.519-.718c.648-1.607,1.343-3.221,2.068-4.8a.523.523,0,0,1,.951.437c-.717,1.561-1.406,3.159-2.048,4.75A.523.523,0,0,1,2331.4,730.014Zm194.757-15.559a.524.524,0,0,1-.483-.252c-.883-1.466-1.813-2.93-2.766-4.353a.524.524,0,1,1,.87-.582c.962,1.437,1.9,2.915,2.793,4.4a.523.523,0,0,1-.178.719A.518.518,0,0,1,2526.161,714.454Zm-189.443,4.284a.523.523,0,0,1-.493-.772c.826-1.522,1.7-3.045,2.6-4.527a.524.524,0,0,1,.9.543c-.89,1.468-1.757,2.977-2.574,4.484A.526.526,0,0,1,2336.718,718.738Zm182.424-14.555a.523.523,0,0,1-.449-.2c-1.046-1.357-2.14-2.707-3.248-4.012a.524.524,0,1,1,.8-.678c1.119,1.317,2.222,2.68,3.279,4.051a.523.523,0,0,1-.38.842Zm-175.865,3.959a.523.523,0,0,1-.462-.823c.994-1.418,2.035-2.831,3.094-4.2a.524.524,0,0,1,.828.64c-1.05,1.357-2.081,2.757-3.065,4.162A.522.522,0,0,1,2343.276,708.143Zm167.716-13.368a.522.522,0,0,1-.409-.158c-1.194-1.23-2.433-2.447-3.685-3.619a.523.523,0,1,1,.715-.764c1.263,1.183,2.515,2.412,3.72,3.654a.524.524,0,0,1-.342.887Zm-160,3.589a.523.523,0,0,1-.426-.869c1.148-1.3,2.341-2.582,3.548-3.822a.524.524,0,1,1,.75.73c-1.2,1.228-2.378,2.5-3.515,3.785A.519.519,0,0,1,2350.992,698.363Zm150.832-12.015a.523.523,0,0,1-.366-.118c-1.325-1.087-2.7-2.157-4.073-3.18a.523.523,0,0,1,.625-.84c1.39,1.033,2.774,2.113,4.112,3.21a.524.524,0,0,1-.3.927Zm-142.062,3.177a.524.524,0,0,1-.384-.912c1.286-1.157,2.618-2.3,3.958-3.392a.523.523,0,1,1,.662.811c-1.327,1.084-2.646,2.214-3.919,3.36A.522.522,0,0,1,2359.762,689.524Zm131.993-10.513a.522.522,0,0,1-.317-.083c-1.441-.93-2.925-1.838-4.41-2.7a.524.524,0,0,1,.526-.906c1.5.869,3,1.786,4.451,2.725a.524.524,0,0,1-.25.963Zm-122.279,2.731a.523.523,0,0,1-.337-.949c1.408-1,2.861-1.984,4.315-2.917a.524.524,0,0,1,.566.881c-1.441.925-2.879,1.9-4.274,2.889A.519.519,0,0,1,2369.476,681.743Zm111.441-8.881a.523.523,0,0,1-.265-.053c-1.538-.761-3.117-1.495-4.69-2.181a.524.524,0,0,1,.419-.96c1.589.693,3.182,1.434,4.735,2.2a.524.524,0,0,1-.2.992Zm-100.908,2.263a.524.524,0,0,1-.287-.981c1.517-.836,3.074-1.646,4.629-2.408a.524.524,0,1,1,.461.94c-1.54.754-3.082,1.557-4.584,2.384A.517.517,0,0,1,2380.009,675.125Zm89.436-7.14a.525.525,0,0,1-.21-.03c-1.617-.581-3.27-1.13-4.911-1.632a.524.524,0,1,1,.307-1c1.657.507,3.326,1.061,4.959,1.648a.524.524,0,0,1-.144,1.015Zm-78.2,1.767a.524.524,0,0,1-.232-1.007c1.6-.656,3.241-1.281,4.875-1.86a.524.524,0,0,1,.35.987c-1.617.573-3.241,1.193-4.827,1.842A.532.532,0,0,1,2391.245,669.752Zm66.24-5.3a.521.521,0,0,1-.153-.013c-1.674-.391-3.38-.747-5.07-1.058a.524.524,0,1,1,.189-1.03c1.706.313,3.428.673,5.119,1.068a.524.524,0,0,1-.086,1.032Zm-54.462,1.252a.524.524,0,0,1-.175-1.027c1.665-.467,3.366-.9,5.054-1.29a.524.524,0,1,1,.235,1.02c-1.672.385-3.357.815-5.006,1.278A.541.541,0,0,1,2403.022,665.7Zm42.18-3.388a.524.524,0,0,1-.095,0c-1.7-.2-3.434-.353-5.146-.467a.523.523,0,1,1,.07-1.044c1.729.115,3.477.274,5.2.472a.524.524,0,0,1-.025,1.042Zm-30.018.708a.524.524,0,0,1-.117-1.039c1.066-.172,2.15-.331,3.224-.473.646-.085,1.3-.166,1.945-.239a.524.524,0,1,1,.119,1.04c-.639.073-1.288.152-1.927.237-1.064.14-2.139.3-3.193.468Zm17.583-1.419h-.034c-1.712,0-3.45.042-5.165.124a.523.523,0,0,1-.059-1.045h.009c1.731-.083,3.486-.125,5.215-.125a.524.524,0,0,1,.034,1.046Z" transform="translate(-2323.02 -660.56)" fill="#dedede"/>
            </g>
          </g>
        </g>
        <g id="Group_35142" data-name="Group 35142" transform="translate(129.105 40.791)">
          <g id="Group_35140" data-name="Group 35140">
            <path id="Path_81736" data-name="Path 81736" d="M2291.47,765.738V924.232h-.416l-12-11.677-12,11.677h-1.249l-12-11.677-12,11.677h-1.233l-11.979-11.655-11.978,11.655h-1.227l-11.992-11.667L2191.4,924.232h-1.266l-11.991-11.667-11.993,11.667H2164.9l-11.969-11.646-11.969,11.646h-.791V721.69h107.248Z" transform="translate(-2140.174 -721.69)" fill="#f2f2f2"/>
            <path id="Path_81737" data-name="Path 81737" d="M2679.642,765.739h-44.049V721.69Z" transform="translate(-2528.345 -721.69)" fill="#dedede"/>
          </g>
        </g>
        <g id="Group_38669" data-name="Group 38669" transform="translate(48.513 70.015)">
          <path id="Path_81692" data-name="Path 81692" d="M1571.768,948.992s-.129,7.606,0,8.368-2.977,5.219-4.247,5.022-3.809-.621-4.175-1.044-.205-1.421-.074-2.333,1.081-9.195,1.081-9.618S1570.357,947.836,1571.768,948.992Z" transform="translate(-1497.925 -749.583)" fill="#ffd3bc"/>
          <path id="Path_81693" data-name="Path 81693" d="M1565.976,964.505c-1.589.858-2.48,3.47-2.705,3.5s-.646-.032-.646-.29.064-1.129-.226-1.129-.613,1.419-.678,3.484-.8,6.988,0,7.615c.5.393,5.1,2.807,5.227,3.13s-.1,2.581.291,2.936,1.29,1.226,2,1.259,4.808.452,6.744,0,4.387-1.388,4.452-1.646-.484-5.743-1.1-6.421-5.033-6.743-5.388-7.292a6.264,6.264,0,0,1-.613-2.646,3.409,3.409,0,0,0-2-2.871A9.117,9.117,0,0,0,1565.976,964.505Z" transform="translate(-1497.057 -757.166)" fill="url(#linear-gradient-2)"/>
          <path id="Path_81694" data-name="Path 81694" d="M1488.758,957.651s0,4.429-.128,5.191,2.978,5.219,4.247,5.022,3.809-.62,4.175-1.043.206-1.421.075-2.333-.949-6.018-.949-6.441S1490.168,956.494,1488.758,957.651Z" transform="translate(-1461.272 -753.843)" fill="#ffd3bc"/>
          <path id="Path_81695" data-name="Path 81695" d="M1490.756,764.672c-1.8,6.534-5.2,28.921-5.2,39.8s-1.088,38.617-1.088,42.833-.454,14.674.635,15.218a10.887,10.887,0,0,0,7.081,1.634c3.45-.545,4.358-2.724,4.448-4.721s.908-16.34,1.725-21.878,3.722-16.218,5.629-23.088,6.354-20.684,7.535-20.631,8.532,30.317,9.144,32.032,1.78,26.085,1.856,28.13,0,4.014,1.287,4.848,5.226,2.878,7.27,3.029,3.408-3.105,3.787-4.09,1.05-33.58.808-42.522.465-25.616.051-31.053-1.743-17.089-2.589-19.54S1490.756,764.672,1490.756,764.672Z" transform="translate(-1459.183 -658.603)" fill="#192b59"/>
          <path id="Path_81696" data-name="Path 81696" d="M1463.472,588.334c1.715-1.906,9.719-10.927,11.307-11.244s5.454-1.016,6.316-1.906,4.508-12.336,3.065-14.418-7.013-1.491-8.7,2.053-1.6,5.4-4.388,7.847-14.917,12.367-16.047,13.369,1.111,5.87,2.883,6.714S1463.472,588.334,1463.472,588.334Z" transform="translate(-1444.589 -558.218)" fill="url(#linear-gradient-3)"/>
          <path id="Path_81697" data-name="Path 81697" d="M1475.778,613.858c-4.09.857-10.884,1.583-13.127,2.309s-11.082,3.826-11.016,2.507,4.09-7.124,3.364-7.718-5.079-1.319-5.8-2.243-1.715-3.1-2.7-2.837-12.461,10.949-11.675,15.04c1.851,9.644,28.963,16.671,29.581,20.878s-2.1,44.537-.619,46.021,17.2,7.175,25.114,7.671,21.807-2.263,22.565-4.349-3.864-42.156-3.327-42.156.688,12.614,6.718,15.876c3.981,2.153,9.458-.065,10.506-1.253s-3.742-17.958-5.91-23.613-4.241-17.342-9.142-21.489-11.819-3.441-14.2-4.416-10.373-.276-12.388-.486A73.272,73.272,0,0,0,1475.778,613.858Z" transform="translate(-1434.776 -580.994)" fill="url(#linear-gradient-4)"/>
          <path id="Path_81698" data-name="Path 81698" d="M1607.9,698.319s-7.051,2.131-7.6,2.864-1.528,3.667,0,4.89,3.2,2.136,5.016.727,3.465-3.309,4.513-3.549,4.18.211,5.5-.306,3.811-10.489,2.8-11.094S1607.9,698.319,1607.9,698.319Z" transform="translate(-1515.819 -623.29)" fill="url(#linear-gradient-5)"/>
          <path id="Path_81699" data-name="Path 81699" d="M1508.016,588.428c-2.276-.472-6.668-4.768-7.071-9.133-.393-4.253-3.52-16.206,7.367-20.689,10.215-4.206,20.727.121,22.238,5.309,1.411,4.844-10.58,5.062-14.976,8.217s-4.7,5.25-5.792,4.751S1508.016,588.428,1508.016,588.428Z" transform="translate(-1466.983 -556.911)" fill="#e64d4e"/>
          <path id="Path_81700" data-name="Path 81700" d="M1514.926,600.246c-.145,1.948-.634,11.37.181,12.757.749,1.274,2.08,4.976,7.3,4.813s8.607-5.384,8.892-6-.327-8.158-.327-9.423-7.016-4.242-9.831-4.161S1515.061,598.414,1514.926,600.246Z" transform="translate(-1474.076 -577.245)" fill="url(#linear-gradient-6)"/>
          <path id="Path_81701" data-name="Path 81701" d="M1511.468,587.465c.589-.017-.107,3.574.96,4.747s5.709,7.293,10.622,6.695c4.249-.517,3.639-4.178,4.252-7.192.556-2.737,2.322-2.972,2.942-10.117.24-2.766,1.547-7.095-.854-7.895s-11.415-2.934-13.655,0-2.454,9.975-3.627,9.068-3.627-5.334-5.068-2.934S1508.32,587.555,1511.468,587.465Z" transform="translate(-1470.138 -564.435)" fill="#f2dad4"/>
          <path id="Path_81702" data-name="Path 81702" d="M1576.653,673.459l-14.3,18.077a1.42,1.42,0,0,0,1.138,2.3l26.428-.449a1.42,1.42,0,0,0,1.113-.569l13.507-18.05a1.29,1.29,0,0,0-1.043-2.062l-25.743.213A1.419,1.419,0,0,0,1576.653,673.459Z" transform="translate(-1497.398 -613.888)" fill="url(#linear-gradient-7)"/>
          <path id="Path_81703" data-name="Path 81703" d="M1624.58,688.511c-1.391.14-3.412.922-3.412,1.65s1.622.927,2.069,1,1.035.208.867.431-.5,1.343-1.4,1.147a54.754,54.754,0,0,0-5.566-.252c-.755,0-1.65.532-1.706,1.091s-.224.672-.671.7-1.259.448-1.259,1.174,1.8,1.382,1.8,1.639,3.525,2.41,4.215,2.81,1.982,1.418,2.709,1.418a2.2,2.2,0,0,0,2.036-1.691c.091-1,1.527-1.727,1.545-2.218s-.455-.854-.4-1.163,1.309-.746,1.309-1.527a8.863,8.863,0,0,0-.563-2.163c-.072-.328-.364-1.036-.072-1.127s1.308-1.036,1.126-1.909S1625.223,688.446,1624.58,688.511Z" transform="translate(-1522.718 -621.659)" fill="#ffd3bc"/>
          <path id="Path_81704" data-name="Path 81704" d="M1484.308,966.911c1.588.859,2.479,3.469,2.705,3.5s.645-.033.645-.291-.065-1.129.226-1.129.613,1.42.678,3.485.8,6.988,0,7.614c-.5.393-5.1,2.807-5.227,3.13s.1,2.581-.291,2.936-1.29,1.226-2,1.258-4.807.451-6.743,0-4.388-1.387-4.453-1.645.484-5.743,1.1-6.421,5.034-6.744,5.388-7.292a6.26,6.26,0,0,0,.613-2.646,3.409,3.409,0,0,1,2-2.871A9.115,9.115,0,0,1,1484.308,966.911Z" transform="translate(-1452.031 -758.349)" fill="url(#linear-gradient-8)"/>
        </g>
      </g>
    </g>
  </g>
</svg>
