<svg xmlns="http://www.w3.org/2000/svg" xmlns:xlink="http://www.w3.org/1999/xlink" width="277.81" height="298.414" viewBox="0 0 277.81 298.414"><defs><style>.a,.h,.p,.q{fill:none;}.b{fill:#f2f5f4;mix-blend-mode:multiply;isolation:isolate;}.c,.d{fill:#fff;}.c,.h{stroke:#f2f5f4;}.c,.p,.q{stroke-miterlimit:10;}.e{fill:#d57548;}.f{fill:#ffb72f;}.g{fill:#aabc95;}.h{stroke-linecap:round;stroke-linejoin:round;stroke-width:5px;}.i{fill:#c43f00;}.j{fill:#b22900;}.k{fill:#450000;}.l{fill:#efbfa9;}.m{fill:#ecb298;}.n{fill:#e89076;}.o{clip-path:url(#a);}.p{stroke:#eaa105;}.q{stroke:#fff;}.r{fill:#e5ebea;}</style><clipPath id="a"><path class="a" d="M204.469,327.165l-82.538-1.482s.506-31.139-.807-62.784c-.563-14.111-3.243-29.41.45-44.94,9.76-40.835,42.107-42.624,40.142-40.771l25.6,14.556c1.426,4.9,15.28,24.114,17.521,35.248.182.831.339,1.705.476,2.558a55.757,55.757,0,0,1,.707,8.931,21.064,21.064,0,0,1-.128,2.633,33.352,33.352,0,0,1-.4,3.922,36.777,36.777,0,0,1-12.336,22.052l.122.517.02.112Z" transform="translate(-119.657 -176.72)"/></clipPath></defs><g transform="translate(-436.22 -639.586)"><g transform="translate(424.618 574.018)"><rect class="b" width="247.979" height="196.33" rx="13.821" transform="translate(15.173 151.193)"/><g transform="translate(26.647 138.701)"><rect class="c" width="247.979" height="196.33" rx="13.821" transform="translate(0)"/><path class="b" d="M13.821,0H234.158a13.821,13.821,0,0,1,13.821,13.821v4.614a0,0,0,0,1,0,0H0a0,0,0,0,1,0,0V13.821A13.821,13.821,0,0,1,13.821,0Z" transform="translate(0 4.381)"/><path class="d" d="M13.821,0H234.158a13.821,13.821,0,0,1,13.821,13.821v4.614a0,0,0,0,1,0,0H0a0,0,0,0,1,0,0V13.821A13.821,13.821,0,0,1,13.821,0Z" transform="translate(0)"/><circle class="e" cx="3.135" cy="3.135" r="3.135" transform="translate(9.614 6.082)"/><path class="f" d="M66.169,149.936a3.135,3.135,0,1,1-3.135-3.135A3.135,3.135,0,0,1,66.169,149.936Z" transform="translate(-37.792 -140.719)"/><path class="g" d="M82.808,149.936a3.135,3.135,0,1,1-3.135-3.135A3.135,3.135,0,0,1,82.808,149.936Z" transform="translate(-41.938 -140.719)"/></g><g transform="translate(39.16 162.286)"><line class="h" x2="47.81" transform="translate(159.926 10.708)"/><line class="h" x2="47.81" transform="translate(159.926 19.982)"/><line class="h" x2="47.81" transform="translate(159.926 29.256)"/><line class="h" x2="47.81" transform="translate(159.926 38.53)"/><line class="h" x2="47.81" transform="translate(159.926 47.804)"/><line class="h" x2="201.721" transform="translate(6.016 66.352)"/><line class="h" x2="201.721" transform="translate(6.016 75.626)"/><line class="h" x2="201.721" transform="translate(6.016 84.9)"/><line class="h" x2="201.721" transform="translate(6.016 94.175)"/><line class="h" x2="201.721" transform="translate(6.016 103.449)"/><line class="h" x2="72.119" transform="translate(91.467 118.414)"/><line class="h" x2="72.119" transform="translate(91.467 127.688)"/><line class="h" x2="72.119" transform="translate(91.467 136.962)"/><line class="h" x2="50.415" transform="translate(91.467 146.236)"/><line class="h" x2="50.415" transform="translate(91.467 155.511)"/><g transform="translate(96.482 0)"><circle class="h" cx="25.44" cy="25.44" r="25.44" transform="translate(0 49.557) rotate(-76.911)"/><path class="h" d="M216.3,176.907v25.44l18.679,17.264" transform="translate(-185.76 -171.807)"/></g><g transform="translate(0 107.299)"><circle class="h" cx="25.44" cy="25.44" r="25.44" transform="translate(0 49.557) rotate(-76.911)"/><path class="h" d="M87.8,319.817v25.44l18.679,17.265" transform="translate(-57.257 -314.717)"/></g><rect class="h" width="45.854" height="40.691" transform="translate(170.897 115.718)"/><path class="h" d="M53.931,183.691l41.79,40.691H53.931Z" transform="translate(-48.818 -173.497)"/></g></g><g transform="translate(369.648 574.301)"><path class="i" d="M205.276,362.186H104.123c-22.481-2.284-18.068-27.04,7.254-38.81.608-.3,1.235-.576,1.873-.844l82.3-3.169c1.419.782,2.911,1.667,4.413,2.654.083.052.155.1.237.155C215.576,332.306,232.768,352.071,205.276,362.186Z" transform="translate(-2.505 -27.683)"/><path d="M99.269,392.23h117.5c-7.566-39.683-22.41-60.815-22.41-60.815L122.6,327.142C105.567,343.926,100.643,373.688,99.269,392.23Z" transform="translate(-3.563 -28.531)"/><path class="j" d="M264.615,301.04c-3.226,25.663-50.675,28.149-42.575-7.907Z" transform="translate(-16.838 -24.825)"/><path class="j" d="M255.593,279.3l-29.72,27.434c-9.7-10.03-45.671-62.946-52.415-87.684a21.014,21.014,0,0,1,37.479-17.595Z" transform="translate(-11.565 -13.86)"/><g transform="translate(213.205 181.882)"><rect class="k" width="15.814" height="14.407" rx="3.86" transform="matrix(0.815, -0.579, 0.579, 0.815, 52.474, 23.367)"/><path class="l" d="M317.759,220.493c-13.006,8.211-24.437,55.2-51.363,75.255a23.228,23.228,0,0,1-4.712,2.706c-13.922,5.823-30.549-4.435-30.549-20.692l19.95-18.222L296.018,218.5Z" transform="translate(-231.135 -198.576)"/><path class="m" d="M261.684,303.473c-13.922,5.823-30.549-4.435-30.549-20.692l19.95-18.222c-12.96,24.32-5.917,42.286,10.577,38.9C261.673,303.462,261.673,303.462,261.684,303.473Z" transform="translate(-231.135 -203.595)"/><g transform="translate(59.936)"><path class="l" d="M303.348,216.754,298.4,228.877c21.553,10.66,36.94.642,46.471-.784l-12.607-25.548Z" transform="translate(-298.4 -196.838)"/><path class="l" d="M344.862,215.373a4.45,4.45,0,0,0-1.255,1.182,4.242,4.242,0,0,0-.252.4,4.574,4.574,0,0,0,1.165,5.885l3.129,2.425,4.427,3.415a4.427,4.427,0,0,0,5.053.238,4.47,4.47,0,0,0,1.248-1.193,4.4,4.4,0,0,0-.52-5.687l-.007-.011a3.355,3.355,0,0,0-.266-.232l-7.372-6.091a2.321,2.321,0,0,0-.225-.168A4.547,4.547,0,0,0,344.862,215.373Z" transform="translate(-303.231 -198.158)"/><path class="l" d="M373.242,201.915a3.772,3.772,0,0,0-3.446-4.387l-19.1-1.388-18.755,5.411,3.172,16.115L355.778,205.5l13.863-.437A3.772,3.772,0,0,0,373.242,201.915Z" transform="translate(-302.054 -196.14)"/><path class="n" d="M331.939,202.078l3.841-1.108,14.53,2.552,2.455,4.275-18.553,10.44Z" transform="translate(-302.054 -196.666)"/><path class="l" d="M353.952,237.031a4.442,4.442,0,0,1-4.167,1.793l-9.481-1.277a4.583,4.583,0,0,1-3.935-5,4.637,4.637,0,0,1,.665-1.918,2.409,2.409,0,0,1,.192-.295,1.541,1.541,0,0,1,.19-.228,4.5,4.5,0,0,1,4.265-1.583L351.1,230.1a4.415,4.415,0,0,1,3.082,2.177c.091.158.171.331.251.5a4,4,0,0,1,.336,2.053A4.437,4.437,0,0,1,353.952,237.031Z" transform="translate(-302.534 -199.661)"/><path class="n" d="M354.27,232.268a4.293,4.293,0,0,1-2.4.932l-9.523.728a4.644,4.644,0,0,1-5.232-4.558c1-1.216,2.985-1.152,4.647-.857l9.422,1.578A4.415,4.415,0,0,1,354.27,232.268Z" transform="translate(-302.619 -199.648)"/><path class="n" d="M351.028,226.834a4.391,4.391,0,0,1-3.063,2.046l-6.523.9a4.536,4.536,0,0,1-4.721-6.62,1.57,1.57,0,0,1,.14-.262,4.533,4.533,0,0,1,3.32-2.147l6.564-.61a4.4,4.4,0,0,1,3.078.787,4.324,4.324,0,0,1,1.777,2.723A4.375,4.375,0,0,1,351.028,226.834Z" transform="translate(-302.517 -198.751)"/><path class="l" d="M338.749,224.14a2.663,2.663,0,0,0-.166.254c-.068.1-.119.209-.177.306l.007.011a4.473,4.473,0,0,0-.511,2.612,4.546,4.546,0,0,0,4.885,4.044l9.529-.715a4.42,4.42,0,0,0,1.315-.315,4.427,4.427,0,0,0,2.724-4.625,4.615,4.615,0,0,0-.628-1.786,4.485,4.485,0,0,0-.944-1.065,4.366,4.366,0,0,0-3-1.024l-8.985.4-.578.026A4.549,4.549,0,0,0,338.749,224.14Z" transform="translate(-302.701 -198.939)"/><path class="n" d="M342.957,221.5l-.578.026a4.552,4.552,0,0,0-3.473,1.877,2.777,2.777,0,0,0-.166.254c-.068.1-.119.209-.177.306l.007.011a4.546,4.546,0,0,0,5.03,2.214l3.677-.879,7.969-1.91a3.08,3.08,0,0,0,.638-.211,4.416,4.416,0,0,0,1.6-1.106l-.007-.011a3.357,3.357,0,0,0-.266-.232l-7.372-6.091a2.432,2.432,0,0,0-.226-.168L342.981,217A4.517,4.517,0,0,0,342.957,221.5Z" transform="translate(-302.776 -198.259)"/><path class="l" d="M344.276,207.891a4.526,4.526,0,0,0-1.612,1.766,4.576,4.576,0,0,0,1.857,6.086l2.7,1.493,5.675,3.112a4.343,4.343,0,0,0,2.685.51,4.173,4.173,0,0,0,1.807-.642,4.421,4.421,0,0,0-.1-7.511l-2.664-1.576-2.823-1.685-2.736-1.62A4.535,4.535,0,0,0,344.276,207.891Z" transform="translate(-303.168 -197.342)"/><path class="n" d="M351.5,218.637a4.394,4.394,0,0,1-2.713,2.49l-6.309,1.885a4.535,4.535,0,0,1-5.679-5.819,1.533,1.533,0,0,1,.1-.28,4.536,4.536,0,0,1,2.952-2.631l6.394-1.607a4.4,4.4,0,0,1,3.161.306,4.327,4.327,0,0,1,2.173,2.419A4.378,4.378,0,0,1,351.5,218.637Z" transform="translate(-302.556 -197.924)"/><path class="l" d="M356.34,219.806a4.394,4.394,0,0,1-2.9,2.273l-9.316,2.169a4.535,4.535,0,0,1-5.21-6.243,1.571,1.571,0,0,1,.119-.271,4.538,4.538,0,0,1,3.148-2.394l9.378-1.887a4.4,4.4,0,0,1,3.128.552,4.322,4.322,0,0,1,1.978,2.58A4.376,4.376,0,0,1,356.34,219.806Z" transform="translate(-302.772 -198.017)"/><g transform="translate(4.948 5.411)"><g transform="translate(5.363 4.583)"><path class="n" d="M309.972,219.57l21.168-12.214,14.628,2.911-5.151,7.321-6.035.6S325.533,236.013,309.972,219.57Z" transform="translate(-309.972 -207.356)"/><path class="n" d="M349.515,210.623l3.634,7.852a3.442,3.442,0,0,1-1.63,4.546h0a3.442,3.442,0,0,1-4.289-1.091l-2.866-3.987Z" transform="translate(-313.719 -207.712)"/></g><path class="l" d="M303.953,216.718l24.937-14.505,17.279,3.376-6.051,8.664-7.12.728S322.39,236.064,303.953,216.718Z" transform="translate(-303.953 -202.213)"/><path class="n" d="M352.287,209.722l-5.642,5.528,1.067,2.264,1.409,2.969a3.7,3.7,0,0,0,.244.454,4.04,4.04,0,0,0,4.5,1.733,3.933,3.933,0,0,0,2.205-1.533,4.023,4.023,0,0,0,.657-3.389l-1.618-6.341Z" transform="translate(-308.605 -203.031)"/><path class="l" d="M350.591,206l4.322,9.253a4.063,4.063,0,0,1-1.9,5.374h0a4.063,4.063,0,0,1-5.067-1.27l-3.4-4.693Z" transform="translate(-308.375 -202.626)"/></g></g><path class="k" d="M302.617,217.9l12.363,18.514-3.988,6.223-15.079-19.38Z" transform="translate(-238.193 -198.511)"/></g><path class="i" d="M209.195,336.561l-77.724.134-28.234.052a270.887,270.887,0,0,0,9.63-28.943c3.766-13.839,7.069-30.487,6.473-44.933-.35-8.632-1.482-17.708-1.472-27.009.011-5.906-4.929-46.75,0-50.509,11.362-8.663,44.027-10.043,42.063-8.19l25.589,14.549c1.43,4.908,15.289,24.118,17.522,35.251.184.833.339,1.708.483,2.562a55.572,55.572,0,0,1,.7,8.931,19.259,19.259,0,0,1-.124,2.634,31.824,31.824,0,0,1-.412,3.921,36.763,36.763,0,0,1-12.327,22.049l.113.515.021.113,4.969,19.323,4.99,19.435.134.515Z" transform="translate(-3.995 -12.111)"/><path class="j" d="M200.2,310.623l-.1.36L132.8,331.16l-2.819,9.558-1.945,6.575-5.2,3.344H104.123c-22.481-2.284-18.068-27.04,7.254-38.81,3.766-13.839,7.069-30.487,6.473-44.933-.35-8.632-1.482-17.708-1.472-27.009l25.636-26.515-.641,62.543,44.157,7.577,9.446,7.543,4.99,19.435C200.049,310.52,200.121,310.571,200.2,310.623Z" transform="translate(-2.505 -16.135)"/><g transform="translate(113.873 164.578)"><g class="o"><g transform="translate(14.048 46.579)"><path class="p" d="M164.571,251.757,150,274.519l-14.574-22.762L150,228.995Z" transform="translate(-135.423 -228.995)"/><path class="p" d="M197.105,251.757l-14.574,22.762-14.574-22.762,14.574-22.762Z" transform="translate(-138.968 -228.995)"/><path class="p" d="M229.64,251.757l-14.574,22.762-14.574-22.762,14.574-22.762Z" transform="translate(-142.513 -228.995)"/></g></g></g><g transform="translate(123.686 65.285)"><circle class="k" cx="17.037" cy="17.037" r="17.037" transform="translate(60.137 19.271)"/><circle class="k" cx="17.037" cy="17.037" r="17.037" transform="translate(42.786)"/><circle class="k" cx="17.037" cy="17.037" r="17.037" transform="translate(20.511 6.199)"/><path class="k" d="M148.351,102.676c-6.881,17.623-4.445,28.842,6.667,36.167l10.528-11.487-6.3-27.634Z" transform="translate(-132.178 -69.037)"/><path class="l" d="M155.5,130.735l4,42.916,31.962,21.6.454-52.907Z" transform="translate(-133.376 -72.416)"/><path class="k" d="M149.643,144.2l7.575,13.231,4.739-10.084Z" transform="translate(-132.737 -73.883)"/><path class="n" d="M193.559,179.7s-19.715-3.556-20.287-25.809l20.586,6.7Z" transform="translate(-135.312 -74.94)"/><path class="k" d="M209.924,95.675c9.532,11.688,10.785,27.084,10.785,27.084l-10.337,1.633-7.855-24.76Z" transform="translate(-138.498 -68.596)"/><path class="l" d="M159.088,109.078l3.075,12.174,1.409,5.549,3.772,14.9a23.936,23.936,0,0,0,16,16.952l12.3,3.88a17.457,17.457,0,0,0,22.619-15.174c.727-8.171.723-17.7-2.388-27.833A37.99,37.99,0,0,0,191.6,94.9l-.045-.014-1.97-.589-.212-.053c-.984-.257-2-.468-3.009-.634a36.4,36.4,0,0,0-7.393-.536l-7.958.233A12.677,12.677,0,0,0,159.088,109.078Z" transform="translate(-133.724 -68.311)"/><ellipse class="q" cx="10.362" cy="11.487" rx="10.362" ry="11.487" transform="translate(71.008 46.928)"/><g transform="translate(45.894 44.63)"><path d="M217.018,132.939c.281,2.916-.569,5.385-1.9,5.514s-2.637-2.133-2.917-5.05.569-5.386,1.9-5.515S216.737,130.022,217.018,132.939Z" transform="translate(-185.442 -116.736)"/><path class="l" d="M206.725,128.688c2.67,6.421,7.079,7.744,10.142,7.789a3.811,3.811,0,0,1,3.741,3.51h0a6.564,6.564,0,0,1-3.406,6.293l-8.064,4.386a8.085,8.085,0,0,1-10.441-5.841l-3.651-15.745Z" transform="translate(-183.578 -116.823)"/><g transform="translate(22.671 11.668)"><path class="n" d="M213.485,149.606l-.491-.9,5.331-2.9a6.052,6.052,0,0,0,3.139-5.8,3.285,3.285,0,0,0-3.235-3.037c-3.324-.048-7.862-1.493-10.61-8.1l.95-.395c2.534,6.1,6.66,7.427,9.674,7.47a4.312,4.312,0,0,1,4.246,3.984,7.085,7.085,0,0,1-3.674,6.785Z" transform="translate(-207.62 -128.467)"/></g><path d="M197.152,135.9c.281,2.916-.569,5.385-1.9,5.514s-2.637-2.133-2.917-5.05.569-5.386,1.9-5.514S196.871,132.982,197.152,135.9Z" transform="translate(-183.277 -117.058)"/><path class="k" d="M188.543,122.927c-6.632,2.766-8.454-.639-3.7-3.521C189.963,116.307,196.794,119.486,188.543,122.927Z" transform="translate(-182.176 -115.675)"/><path class="k" d="M210.364,119.518c-5.173-.839-3.737-4.1.591-4.145C215.608,115.319,216.8,120.563,210.364,119.518Z" transform="translate(-184.887 -115.373)"/><path class="d" d="M209.429,154.5l-11.936-.92s1.343,6.894,4.806,7.64C206.065,162.033,209.429,154.5,209.429,154.5Z" transform="translate(-183.845 -119.536)"/></g><ellipse class="q" cx="10.362" cy="11.487" rx="10.362" ry="11.487" transform="translate(44.786 52.216)"/><line class="q" x1="11.594" y1="3.282" transform="translate(33.207 58.274)"/><path class="k" d="M174.055,93.037c6.262,14.793-5.527,35.029-30.247,33.554C133.4,105.562,133.842,86.757,174.055,93.037Z" transform="translate(-131.478 -68.175)"/><path class="l" d="M166,131.3c-24.825-34.107-37.72,19.9-1.232,17.07Z" transform="translate(-131.914 -71.243)"/><path class="k" d="M167.28,108.176l.463,28.649-2.4,1.6L156.3,110.883Z" transform="translate(-133.463 -69.958)"/><path class="k" d="M170.158,95.911a59.051,59.051,0,0,0,37.929,1.349S201.5,81.391,170.158,95.911Z" transform="translate(-134.972 -67.955)"/><path class="k" d="M140.77,99.6c0-10.085-11.138-5.251-3.492,1.28-13.412-1.811-3.259,14.823,2.917,9" transform="translate(-130.67 -68.393)"/></g><path class="d" d="M191.925,199.47h0c4.306-23.4-17.713-28.363-34.348-35.2l-9.149,11.769Z" transform="translate(-8.919 -10.785)"/><g transform="translate(66.571 254.745)"><path class="i" d="M109.125,278.92c17.572-3.4,33.74,1.526,25.1,18.887l-26.739,1.575Z" transform="translate(-71.029 -277.912)"/><path class="i" d="M100.743,329.809c-47.45,12.268-39.78-38.622-11.533-46.248Z" transform="translate(-66.571 -278.528)"/></g><path class="i" d="M103.717,306.052,75.467,310.21c-5.053-40.028,6.815-83.683,33.389-118.9a19.715,19.715,0,0,1,26.371-4.729h0a19.7,19.7,0,0,1,8.177,22.472Z" transform="translate(-0.845 -12.877)"/><g transform="translate(85.364 226.447)"><g transform="translate(63.095)"><path class="r" d="M253.234,255.137l-2.2-2.787-.008.014a1.657,1.657,0,0,0-1.058-.586l-42.351-5.592a3.6,3.6,0,0,0-3.261,1.292l-45.495,55.708a1.7,1.7,0,0,0,.932,2.735l29.176,6.8a3.6,3.6,0,0,0,3.331-.928l58.17-56.658Z" transform="translate(-158.472 -246.154)"/><path class="d" d="M161.277,306.246l45.495-55.708a3.6,3.6,0,0,1,3.261-1.292l42.351,5.593a1.7,1.7,0,0,1,.965,2.908l-58.633,57.11a3.6,3.6,0,0,1-3.331.928l-29.176-6.8A1.7,1.7,0,0,1,161.277,306.246Z" transform="translate(-158.736 -246.487)"/><ellipse class="r" cx="9.485" cy="5.064" rx="9.485" ry="5.064" transform="translate(42.302 35.016) rotate(-42.317)"/><path class="r" d="M217.334,255.69a3.424,3.424,0,0,1-2.534,1.7c-.827-.018-1.032-.806-.459-1.761a3.426,3.426,0,0,1,2.535-1.7C217.7,253.947,217.908,254.735,217.334,255.69Z" transform="translate(-164.524 -247.001)"/></g><g transform="translate(80.738 21.731)"><path class="l" d="M195.236,312.378l38.528-26.3-49.489,3.728-4.195,16.57Z" transform="translate(-178.47 -272.236)"/><path class="l" d="M187.977,290.964l-6.967-.983a3.18,3.18,0,0,1-2.493-4.366l.245-.593a6.678,6.678,0,0,1,9.29-3.348h0a6.679,6.679,0,0,1,3.543,6.357h0A3.181,3.181,0,0,1,187.977,290.964Z" transform="translate(-178.273 -271.671)"/><path class="l" d="M206.336,289.531l30.286-5.135.361-.892a12.809,12.809,0,0,1,7.879-7.386,1.367,1.367,0,0,0,.93-1.317,1.592,1.592,0,0,0-.037-.273,5.092,5.092,0,0,0-5.073-3.985,5.534,5.534,0,0,0-1.2.179l-1.8.62-.182.065a9.955,9.955,0,0,0-6.339,6.757L207.12,289.178Z" transform="translate(-181.33 -270.543)"/><path class="n" d="M218.959,290.9l13.809-4.766c1.95-5.907,5.263-8.179,8.848-9.358a1.367,1.367,0,0,0,.93-1.316,1.589,1.589,0,0,0-.037-.274,5.05,5.05,0,0,0-3.452-3.747l-.182.065a9.955,9.955,0,0,0-6.339,6.757l-2.614,6.408Z" transform="translate(-182.706 -270.64)"/><path class="l" d="M227.56,284.6l.358-.888a12.826,12.826,0,0,1,7.875-7.385h0a1.358,1.358,0,0,0,.9-1.586h0a5.1,5.1,0,0,0-6.272-3.813l-1.981.69a10.008,10.008,0,0,0-6.348,6.763h0l-24.824,11.363Z" transform="translate(-180.342 -270.565)"/></g><path class="l" d="M114.656,293.263l61.043,6.181,9.467,13.7s-41.735,20.942-80.855,18.34C87.392,330.362,81.467,308.474,95.529,299l2.209-1.489A25.656,25.656,0,0,1,114.656,293.263Z" transform="translate(-87.662 -251.273)"/></g><path class="d" d="M101.936,371.276l70.029,9.71,3.828-24.634-68.515-.007Z" transform="translate(-3.853 -31.713)"/><path class="d" d="M190.916,356.354l4.439,24.634,25.372-9.711-5.34-14.923Z" transform="translate(-13.548 -31.714)"/></g></g></svg>