<svg xmlns="http://www.w3.org/2000/svg" xmlns:xlink="http://www.w3.org/1999/xlink" width="596.203" height="469.346" viewBox="0 0 596.203 469.346"><defs><style>.a{fill:url(#a);}.b{fill:url(#b);}.c{fill:url(#c);}.d{fill:url(#d);}.e,.z{fill:#fff;}.e{opacity:0.6;}.f{fill:#5c9cf4;}.g{fill:#dae6ff;}.h{fill:#c8dffd;}.h,.i{opacity:0.5;}.i{fill:#7798f8;}.j{opacity:0.3;}.k{fill:#b8d0fc;}.l{fill:#ff912b;}.m{fill:#fc7600;}.n{fill:#4b49f2;}.o{fill:#c23b35;}.p{fill:#f9b587;}.q{fill:#f39568;}.r,.t{fill:#2c2a40;}.s{fill:#b0b1ca;}.t{opacity:0.2;}.u{fill:#6c8c31;}.v{fill:none;}.w{fill:#5b5b6c;}.x{fill:#a5c723;}.y{fill:#b8e019;}.aa{fill:#00497b;}.ab{fill:#007bb0;}.ac{fill:#1e3865;}.ad{fill:#25468f;}</style><linearGradient id="a" x1="11.677" y1="-10.674" x2="11.759" y2="-9.735" gradientUnits="objectBoundingBox"><stop offset="0.164" stop-color="#a05805"/><stop offset="0.212" stop-color="#a66212"/><stop offset="0.303" stop-color="#b77f35"/><stop offset="0.426" stop-color="#d2ad6d"/><stop offset="0.574" stop-color="#f7ecba"/><stop offset="0.601" stop-color="#fff9ca"/><stop offset="1" stop-color="#c38f24"/></linearGradient><linearGradient id="b" x1="0.794" y1="0.306" x2="1.275" y2="-1.068" gradientUnits="objectBoundingBox"><stop offset="0" stop-color="#f3e08d"/><stop offset="0.166" stop-color="#c59227"/><stop offset="0.278" stop-color="#c38f24"/><stop offset="0.292" stop-color="#c08a21"/><stop offset="0.423" stop-color="#a8650c"/><stop offset="0.493" stop-color="#a05805"/><stop offset="0.517" stop-color="#a66212"/><stop offset="0.562" stop-color="#b77f35"/><stop offset="0.623" stop-color="#d2ad6d"/><stop offset="0.696" stop-color="#f7ecba"/><stop offset="0.71" stop-color="#fff9ca"/><stop offset="0.861" stop-color="#c38f24"/></linearGradient><linearGradient id="c" x1="1.094" y1="-1.375" x2="1.125" y2="-0.352" gradientUnits="objectBoundingBox"><stop offset="0" stop-color="#89540f"/><stop offset="0.118" stop-color="#8f550b"/><stop offset="0.266" stop-color="#a05805"/><stop offset="0.312" stop-color="#a66212"/><stop offset="0.399" stop-color="#b77f35"/><stop offset="0.517" stop-color="#d2ad6d"/><stop offset="0.66" stop-color="#f7ecba"/><stop offset="0.686" stop-color="#fff9ca"/><stop offset="0.841" stop-color="#c38f24"/><stop offset="1" stop-color="#63380e"/></linearGradient><linearGradient id="d" x1="1.185" y1="-0.609" x2="1.31" y2="-2.036" gradientUnits="objectBoundingBox"><stop offset="0" stop-color="#63380e"/><stop offset="0.139" stop-color="#c38f24"/><stop offset="0.321" stop-color="#fff9ca"/><stop offset="0.402" stop-color="#e3c58a"/><stop offset="0.483" stop-color="#ca9752"/><stop offset="0.543" stop-color="#ba7b2f"/><stop offset="0.575" stop-color="#b57122"/><stop offset="0.662" stop-color="#bb7e22"/><stop offset="0.739" stop-color="#c38f24"/><stop offset="0.773" stop-color="#c99a32"/><stop offset="0.839" stop-color="#dbb758"/><stop offset="0.915" stop-color="#f3e08d"/></linearGradient></defs><g transform="translate(378.916 205.13) rotate(12.007)"><path class="a" d="M0,0C9.233,5.809,4.854,21.192,4.685,20.374l12.463-1.438C17.8,14.837,16.18,1.818,0,0Z" transform="translate(205.415 2.374)"/><path class="b" d="M51.786,5.955C33.78,18.389,21.422,60.177,0,51.1,45.47,66.627,44.592,24.792,65.415,8.554,73.241,2.451,83.546.9,91.3,3.684,85.7,1.325,66.674-4.326,51.786,5.955Z" transform="translate(119.935 0)"/><path class="c" d="M0,0C9.167,2.728,14.332,8.655,26,16.148,55.419,35.034,67.7,31.281,80.307,30.5c-7.67-.82-24.82-8.289-31.332-12.493C29.021,5.145,12.826.386,0,0Z" transform="translate(57.371 23.997)"/><path class="d" d="M0,19.367l17.785,3.022C20.318,17.414,42.474.1,65.607,3.339,21.119-8.181,3.078,13.323,0,19.367Z" transform="translate(0 21.466)"/></g><g transform="translate(116.773 40.666)"><rect class="e" width="347.122" height="295.904" rx="10" transform="translate(0 0)"/><rect class="f" width="347.122" height="32.835" rx="6" transform="translate(0 0)"/><g transform="translate(14.037 12.294)"><path class="g" d="M106.131,85.582a3.926,3.926,0,1,1,3.926,3.925A3.926,3.926,0,0,1,106.131,85.582Z" transform="translate(-106.131 -81.657)"/><path class="g" d="M120.844,85.582a3.925,3.925,0,1,1,3.925,3.925A3.925,3.925,0,0,1,120.844,85.582Z" transform="translate(-104.367 -81.657)"/><path class="g" d="M135.556,85.582a3.925,3.925,0,1,1,3.925,3.925A3.925,3.925,0,0,1,135.556,85.582Z" transform="translate(-102.603 -81.657)"/></g><rect class="h" width="98.398" height="98.398" transform="translate(27.509 58.888)"/><path class="i" d="M308.579,130.607H230.311a3.718,3.718,0,0,1-3.719-3.718h0a3.719,3.719,0,0,1,3.719-3.719h78.267a3.718,3.718,0,0,1,3.718,3.719h0A3.718,3.718,0,0,1,308.579,130.607Z" transform="translate(-77.649 -64.385)"/><path class="i" d="M392.151,126.154H313.883a3.719,3.719,0,0,1-3.718-3.719h0a3.718,3.718,0,0,1,3.718-3.718h78.267a3.718,3.718,0,0,1,3.718,3.718h0A3.719,3.719,0,0,1,392.151,126.154Z" transform="translate(-67.628 -64.919)"/><g class="j" transform="translate(148.943 90.03)"><path class="k" d="M324.072,155.889H229a2.411,2.411,0,0,1-2.411-2.41h0a2.41,2.41,0,0,1,2.411-2.41h95.068a2.409,2.409,0,0,1,2.41,2.41h0A2.41,2.41,0,0,1,324.072,155.889Z" transform="translate(-226.592 -151.069)"/><path class="k" d="M348.85,155.889h-25.1a2.411,2.411,0,0,1-2.41-2.41h0a2.41,2.41,0,0,1,2.41-2.41h25.1a2.409,2.409,0,0,1,2.41,2.41h0A2.41,2.41,0,0,1,348.85,155.889Z" transform="translate(-215.23 -151.069)"/><path class="k" d="M264.873,169.237H229a2.411,2.411,0,0,1-2.411-2.411h0a2.411,2.411,0,0,1,2.411-2.41h35.87a2.41,2.41,0,0,1,2.41,2.41h0A2.41,2.41,0,0,1,264.873,169.237Z" transform="translate(-226.592 -149.469)"/><path class="k" d="M318.174,169.237H269.022a2.41,2.41,0,0,1-2.41-2.411h0a2.41,2.41,0,0,1,2.41-2.41h49.152a2.41,2.41,0,0,1,2.41,2.41h0A2.41,2.41,0,0,1,318.174,169.237Z" transform="translate(-221.793 -149.469)"/><path class="k" d="M348.85,169.237h-25.1a2.411,2.411,0,0,1-2.41-2.411h0a2.411,2.411,0,0,1,2.41-2.41h25.1a2.41,2.41,0,0,1,2.41,2.41h0A2.41,2.41,0,0,1,348.85,169.237Z" transform="translate(-215.23 -149.469)"/><path class="k" d="M277.675,180.778H229a2.411,2.411,0,0,1-2.411-2.41h0a2.41,2.41,0,0,1,2.411-2.41h48.671a2.41,2.41,0,0,1,2.411,2.41h0A2.411,2.411,0,0,1,277.675,180.778Z" transform="translate(-226.592 -148.085)"/><path class="k" d="M363.98,180.778h-79.6a2.41,2.41,0,0,1-2.41-2.41h0a2.409,2.409,0,0,1,2.41-2.41h79.6a2.41,2.41,0,0,1,2.41,2.41h0A2.411,2.411,0,0,1,363.98,180.778Z" transform="translate(-219.952 -148.085)"/></g><g class="j" transform="translate(148.943 137.517)"><path class="k" d="M324.072,198.292H229a2.41,2.41,0,0,1-2.411-2.41h0a2.41,2.41,0,0,1,2.411-2.41h95.068a2.409,2.409,0,0,1,2.41,2.41h0A2.409,2.409,0,0,1,324.072,198.292Z" transform="translate(-226.592 -193.472)"/><path class="k" d="M348.85,198.292h-25.1a2.41,2.41,0,0,1-2.41-2.41h0a2.41,2.41,0,0,1,2.41-2.41h25.1a2.409,2.409,0,0,1,2.41,2.41h0A2.409,2.409,0,0,1,348.85,198.292Z" transform="translate(-215.23 -193.472)"/><path class="k" d="M264.873,211.64H229a2.411,2.411,0,0,1-2.411-2.41h0A2.41,2.41,0,0,1,229,206.82h35.87a2.409,2.409,0,0,1,2.41,2.41h0A2.41,2.41,0,0,1,264.873,211.64Z" transform="translate(-226.592 -191.871)"/><path class="k" d="M318.174,211.64H269.022a2.41,2.41,0,0,1-2.41-2.41h0a2.409,2.409,0,0,1,2.41-2.41h49.152a2.409,2.409,0,0,1,2.41,2.41h0A2.41,2.41,0,0,1,318.174,211.64Z" transform="translate(-221.793 -191.871)"/></g><g transform="translate(44.173 73.556)"><path class="k" d="M160.495,136.359h10.162L198.111,199.2H186.524l-6.33-15.065h-29.5L144.272,199.2H133.04Zm15.689,38.062L165.4,149.463l-10.7,24.958Z" transform="translate(-133.04 -136.359)"/></g><g transform="translate(27.509 177.106)"><rect class="l" width="54.966" height="10.611"/><rect class="m" width="54.966" height="10.611" transform="translate(0 10.611)"/><rect class="n" width="54.966" height="10.611" transform="translate(0 21.223)"/></g><g transform="translate(90.44 178.531)"><path class="k" d="M206.888,234.677H176.644a2.291,2.291,0,0,1-2.291-2.291h0a2.291,2.291,0,0,1,2.291-2.291h30.243a2.291,2.291,0,0,1,2.291,2.291h0A2.291,2.291,0,0,1,206.888,234.677Z" transform="translate(-174.353 -230.094)"/><path class="k" d="M196.7,241.89H176.644a2.291,2.291,0,0,1-2.291-2.291h0a2.291,2.291,0,0,1,2.291-2.291H196.7a2.291,2.291,0,0,1,2.291,2.291h0A2.291,2.291,0,0,1,196.7,241.89Z" transform="translate(-174.353 -229.229)"/></g><g transform="translate(27.509 231.971)"><rect class="l" width="54.966" height="21.682"/><rect class="o" width="54.966" height="15.507" transform="translate(0 16.328)"/><path class="n" d="M118.161,277.813l19.719,16.563-19.719,15.271Z" transform="translate(-118.161 -277.813)"/></g><g transform="translate(90.44 233.396)"><path class="k" d="M206.888,283.668H176.644a2.291,2.291,0,0,1-2.291-2.291h0a2.291,2.291,0,0,1,2.291-2.291h30.243a2.291,2.291,0,0,1,2.291,2.291h0A2.291,2.291,0,0,1,206.888,283.668Z" transform="translate(-174.353 -279.085)"/><path class="k" d="M196.7,290.88H176.644a2.291,2.291,0,0,1-2.291-2.291h0a2.292,2.292,0,0,1,2.291-2.291H196.7a2.292,2.292,0,0,1,2.291,2.291h0A2.291,2.291,0,0,1,196.7,290.88Z" transform="translate(-174.353 -278.22)"/></g></g><g transform="translate(0 41.336)"><g transform="translate(216.758 60.234)"><g transform="translate(0 117.388)"><g transform="translate(24.355)"><path class="p" d="M318.458,227.211a61.666,61.666,0,0,1-16.772,9.731s-5.679,3.551-12.951,7.693l0,0c-8.563,4.879-15.175,8.109-21.487,9.822a101.5,101.5,0,0,0-13.6,4.795c-.433.186-.85.371-1.244.55h0c-3.53,1.585-5.641,2.769-5.641,2.769l-4.424-10.421s8.039-7.989,12.789-11.919c5.885-4.875,16.549-15.353,29.051-19.874v0a21.737,21.737,0,0,1,2.86-.83,199.283,199.283,0,0,1,17.4-10.876,22.264,22.264,0,0,1,5.955-2.387S322.166,217.084,318.458,227.211Z" transform="translate(-242.338 -206.262)"/><path class="q" d="M283.726,223.22s-4.187-4.644-6.622-5.1v0a21.74,21.74,0,0,1,2.86-.83S283.354,220.7,283.726,223.22Z" transform="translate(-235.264 -204.02)"/><path class="q" d="M310.614,227.211a61.666,61.666,0,0,1-16.772,9.731s-5.679,3.551-12.951,7.693c5.06-3.586,13.048-11.255,19.185-16.5,4.189-3.583,1.875-8.157.173-12.438-.709-1.782-2.549-4.881-3.417-6.9-.037-.088-.161-.1-.238-.143a22.264,22.264,0,0,1,5.955-2.387S314.321,217.084,310.614,227.211Z" transform="translate(-234.493 -206.262)"/></g><path class="p" d="M256.1,248.116l1.339,12.543A4.2,4.2,0,0,1,256.1,264.2l-7.32,6.685a2.135,2.135,0,0,1-3.02-.14h0a2.134,2.134,0,0,1-.184-2.642l5.434-7.96-.941-2.407-3.174,4.832-2.55,4.753-1.295,7.4a1.913,1.913,0,0,1-2.3,1.536h0a1.911,1.911,0,0,1-1.486-2.022l.725-8.883,1.067-6.459-2.622,6.659-2.874,10.908a1.835,1.835,0,0,1-1.539,1.353h0a1.834,1.834,0,0,1-2.064-1.928l.569-9.575,1.961-6.89-5.724,9.585-3.109,6.76a1.65,1.65,0,0,1-1.971.892h0a1.649,1.649,0,0,1-1.106-2.058l2.406-7.953,4.058-7.791-3.946,6.2-1.065,2.431a1,1,0,0,1-1.32.515h0a1,1,0,0,1-.575-1.137l.623-2.774,2.743-5.725,21.074-13.977S250.1,243.2,256.1,248.116Z" transform="translate(-222.101 -198.53)"/><path class="q" d="M252.2,250.944c-.433.187-.615.268-1.01.448h0s-.323-1.66-2.9-3.787A8.154,8.154,0,0,1,252.2,250.944Z" transform="translate(-216.771 -197.85)"/></g><path class="r" d="M426.92,240.423a4.24,4.24,0,0,1-2.387,1.805c.834,12.781.534,23.748-1.386,28.7-5.92,15.24-56.315,22.688-68.43,11.623s-18.711-84.115-2.382-95.641c12.191-8.606,37.771-10.008,49.952-10.165a12.375,12.375,0,0,1,11.651,7.7c3.058,7.57,5.789,19.574,7.77,32.358a7.249,7.249,0,0,1,2.244.4C426.475,218.108,428.108,238.1,426.92,240.423Z" transform="translate(-197.58 -94.881)"/><g transform="translate(89.515 272.597)"><path class="s" d="M343.819,358.952a14.541,14.541,0,0,0,2.565,5.318s-5.336,2.157-10.289,4.177c-3.771,1.538-9.947,2.456-13.947,3.982a11.155,11.155,0,0,0-2.514,1.278,4.388,4.388,0,0,0-.463.379c-2.212,2.059-13.8,6.912-17.461,7.784a4.1,4.1,0,0,1-.849.136,4.2,4.2,0,0,1-3.561-1.969v0c-.836-1.345-1.188-3.511-.3-6.9.861-3.281,3.635-7.243,6.382-10.568a44.6,44.6,0,0,1,11.94-10.113c4.26-2.48,9.628-5.721,10.676-6.872,3.343-3.678,6.333-7.918,11.082-9.8a11.346,11.346,0,0,1,4.387-.548,49.079,49.079,0,0,1,11.112,2.113S341.144,348.073,343.819,358.952Z" transform="translate(-296.481 -335.228)"/><path class="r" d="M341.467,335.24c-2.3,1.666-5.956,4.578-7.458,7.229-2.271,4.008-11.178,8.164-15.038,10.688s-18.731,14.153-20.188,20.535c-1.267,5.543,1.279,7.654,2.924,8.18a4.211,4.211,0,0,1-.846.134c-2.078,0-5.739-1.7-3.86-8.868.861-3.281,3.633-7.241,6.383-10.567a44.561,44.561,0,0,1,11.937-10.112c4.26-2.482,9.628-5.724,10.676-6.873,3.343-3.678,6.333-7.918,11.083-9.8A11.321,11.321,0,0,1,341.467,335.24Z" transform="translate(-296.481 -335.228)"/><path class="t" d="M346.245,360.259s-5.336,2.157-10.289,4.177c-3.77,1.538-9.947,2.456-13.947,3.982A11.157,11.157,0,0,0,319.5,369.7a4.384,4.384,0,0,0-.463.379c-2.212,2.059-13.8,6.912-17.461,7.784a4.1,4.1,0,0,1-.848.136,4.2,4.2,0,0,1-3.561-1.969v0s7.571-1.675,11.509-4.2c2.538-1.63,6-4.264,9.335-6.039a39.721,39.721,0,0,0-3.523-5.524,32.926,32.926,0,0,1,5.115,4.743,11.913,11.913,0,0,1,3.61-1.054c3.886-.355,16.12-4.416,20.473-9.01A14.542,14.542,0,0,0,346.245,360.259Z" transform="translate(-296.343 -331.217)"/></g><g transform="translate(81.597 243.718)"><path class="s" d="M319.182,329.18c-.1,5.943,1.148,10.828.93,12.879-.393,3.761-6.727,11.281-6.727,11.281-.478,4.3-3.9,10.378-8.453,13.6v0a.725.725,0,0,1-.064.042,1.569,1.569,0,0,1-.148.1c-2.656,1.817-5.679,2.656-8.729,1.615a9,9,0,0,1-1.015-.415c-5.831-2.808-7.642-22.925,0-30.975,7.373-7.77,10.488-23.752,17.815-25.533s11.083,1.384,11.083,1.384c-.194.288-.379.579-.551.869A29.46,29.46,0,0,0,319.182,329.18Z" transform="translate(-289.901 -311.232)"/><path class="r" d="M323.873,313.159q-.289.433-.551.87c-.7-.255-7.642-2.7-11.918.02-4.5,2.868-7.027,13.758-9.4,16.727s-9.8,13.853-9.994,18.11-1.188,14.744,2.868,17.814c3.829,2.894,8.468,1.247,9.844.385-2.951,2.019-6.356,2.827-9.743,1.2-5.831-2.807-7.642-22.923,0-30.975,7.371-7.77,10.488-23.751,17.813-25.532S323.873,313.159,323.873,313.159Z" transform="translate(-289.901 -311.232)"/><path class="t" d="M319.082,339.024c-.363,3.467-5.773,10.131-6.618,11.149l-.07.084a.338.338,0,0,1-.04.048c-.478,4.3-3.9,10.378-8.453,13.6v0a.726.726,0,0,1-.064.042,1.573,1.573,0,0,1-.148.1c-2.656,1.817-5.679,2.656-8.729,1.615a7.362,7.362,0,0,1,1.829-.6c5.188-1.063,9.653-8.254,10.638-12.19a13.684,13.684,0,0,1,2.371-4.207c-1.772-1.021-4.13-2.145-5.961-2.172,0,0,2.384-.863,6.773,1.11,2.668-3.39,6.049-6.949,6.433-8.581.607-2.568,1.108-12.879,1.108-12.879C318.05,332.088,319.3,336.973,319.082,339.024Z" transform="translate(-288.872 -308.197)"/></g><g transform="translate(230.105 1.321)"><path class="p" d="M446.022,160.935l-14.845,8.272-14.993,8.355s-6.035-13.657-.644-22.119c0,0,1.259-.737,3.1-1.7,1.348-.709,3.01-1.54,4.716-2.3.975-.433,1.966-.842,2.922-1.19a93.636,93.636,0,0,1,4.008-10.484,12.03,12.03,0,0,0,1.372-6.187,3.521,3.521,0,0,0-.481-1.587s7.719-3.893,12.173-7.664C443.35,124.325,452.85,146.09,446.022,160.935Z" transform="translate(-413.3 -106.868)"/><path class="q" d="M432.149,151.853a10.017,10.017,0,0,1-10.493-4.8c.975-.433,1.966-.842,2.922-1.19C424.578,145.864,427.5,151.059,432.149,151.853Z" transform="translate(-411.599 -102.485)"/><path class="q" d="M431.177,164.233l-14.993,8.355s-6.035-13.657-.644-22.119c0,0,1.259-.737,3.1-1.7,0,0,.166,11.609,1.751,14.474S427.317,165.132,431.177,164.233Z" transform="translate(-413.3 -101.895)"/><g transform="translate(3.7)"><path class="p" d="M442.724,127.277c-1.781,1.987-9.6,7.575-10.742,8.12-.4.19-.952-.053-1.5-.45-.532.026-4.027.169-5.944-.7-1.054-.478-1.04-1.969-.767-3.548-2.532-.611-7.466-4.477-7.4-8.156.073-4.008,4.378-4.3,4.378-4.3.075-4.6,4.454-3.86,4.454-3.86.223-2,3.86-2.894,3.86-2.894.371-1.708,2.746-2,4.157-1.336s9.8,10.391,10.168,12.172S442.724,127.277,442.724,127.277Z" transform="translate(-416.374 -109.819)"/><path class="q" d="M429.435,127.285c.609,2.3-1.327,2.6-1.327,2.6.392-.3.362-1.282.253-2.128a5.17,5.17,0,0,0-.229-1.265l0-.006a3.223,3.223,0,0,0-1.678-2.07c-1.737-.774-2.524-.246-2.524-.246l-3.45-4.677a25.857,25.857,0,0,1,4.157,3.637,4.469,4.469,0,0,1,4.611,3.373,1.568,1.568,0,0,0,1.512-1.146,4.354,4.354,0,0,0-.629-3.284l-4.789-6.365s6.531,6.086,6.679,8.462A2.618,2.618,0,0,1,429.435,127.285Z" transform="translate(-415.54 -108.622)"/><path class="q" d="M428.494,114.041s4.271,5.1,4.837,6.494a2.509,2.509,0,0,1-1.46,3.34,1.928,1.928,0,0,1-1.749-.271l0,1.608s4.317.668,4.275-3.43C434.379,119.734,428.494,114.041,428.494,114.041Z" transform="translate(-413.908 -108.96)"/><path class="q" d="M433.175,119.932a2.508,2.508,0,0,0,2.308.59c1.261-.408,1.521-1.261,1.224-2.041a1.5,1.5,0,0,1,.112,1.856c-.854,1.435-2.976,1.177-3.644,1Z" transform="translate(-412.956 -108.057)"/></g><path class="q" d="M433.4,130.118a4.878,4.878,0,0,1-4.765,2.279,3.52,3.52,0,0,0-.481-1.587A14.527,14.527,0,0,0,433.4,130.118Z" transform="translate(-410.277 -105.689)"/></g><path class="u" d="M392.093,294.007s-4.361-9.565-3.562-14.992,8.146,3.109,9.11,5.41S397.233,293.048,392.093,294.007Z" transform="translate(-188.255 -74.431)"/><path class="r" d="M347.6,337.714a36.824,36.824,0,0,1-12.623,3.1,26.523,26.523,0,0,1,8.624-3.973A25.6,25.6,0,0,1,347.6,337.714Z" transform="translate(-199.133 -62.302)"/><g transform="translate(95.41 187.187)"><path class="v" d="M362.445,312.764c-.846,3.675.174,8.306-2.574,16.709-1.88,5.738-7.877,10.32-14.408,13.141,5.855,1.7,12.121,3.1,12.121,3.1,10.222-.356,29.5,3.845,29.5,3.845A98.164,98.164,0,0,1,362.445,312.764Z" transform="translate(-292.408 -254.389)"/><path class="r" d="M439.5,373.982c-.789-17.221-29.138-61.062-33.548-94.314l-17.763-6.407c-2.358-.68-1.327-.288-4.106-1.113,0,0-41.962-21.674-60.764,6.829a32.127,32.127,0,0,0,3.364,20.782c2.387,4.444,4.156,18.209,2.374,20.982a35.459,35.459,0,0,0-7.521,1.977c-3.153,1.092-8.018,3.076-11.312,4.448a14.312,14.312,0,0,0-8.432,9.618,13.2,13.2,0,0,0,.348,7.708c3.165,9.1,11.083,10.094,16.228,9.3a132.6,132.6,0,0,1,19.794,1.581,17.048,17.048,0,0,0,3.647.214,12.569,12.569,0,0,0-5.229,7.5c-1.781,8.711,6.648,15.044,6.648,15.044s.872,1.781,7.6,1.386,6.709-2.2,12.27.057,44.534,18.351,57.4,18.945S440.294,391.2,439.5,373.982Zm-72.947-18.393s-6.267-1.4-12.122-3.1c6.531-2.821,12.528-7.4,14.408-13.141,2.749-8.4,1.728-13.034,2.574-16.709a98.165,98.165,0,0,0,24.641,36.8S376.777,355.233,366.555,355.589Z" transform="translate(-301.379 -264.259)"/><g transform="translate(3.107 11.938)"><path class="w" d="M319.7,316.3c-.6.125-1.218.253-1.835.384l.189.889q.924-.2,1.832-.384.928-.193,1.823-.383l-.189-.889C320.921,316.043,320.313,316.169,319.7,316.3Z" transform="translate(-301.132 -265.686)"/><path class="w" d="M303.96,321.815l.443.793c1.074-.6,2.173-1.194,3.271-1.768l-.421-.805C306.148,320.613,305.041,321.211,303.96,321.815Z" transform="translate(-303.96 -264.848)"/><path class="w" d="M313.057,317.816l.231.879c1.065-.28,2.246-.566,3.613-.87l-.2-.887C315.324,317.244,314.132,317.532,313.057,317.816Z" transform="translate(-302.109 -265.478)"/><path class="w" d="M329.242,306.09l.906-.052c-.071-1.241-.19-2.5-.355-3.748l-.9.119C329.054,303.633,329.172,304.871,329.242,306.09Z" transform="translate(-298.887 -268.459)"/><path class="w" d="M323.157,274.239l-.906-.06c-.083,1.264-.135,2.525-.153,3.75l.909.013C323.025,276.733,323.075,275.487,323.157,274.239Z" transform="translate(-300.269 -274.179)"/><path class="w" d="M328.754,301.268l.894-.16c-.227-1.279-.5-2.518-.821-3.68l-.876.238C328.26,298.8,328.53,300.016,328.754,301.268Z" transform="translate(-299.078 -269.448)"/><path class="w" d="M308.346,319.446l.361.835a32.7,32.7,0,0,1,3.462-1.248l-.266-.869A33.965,33.965,0,0,0,308.346,319.446Z" transform="translate(-303.068 -265.229)"/><path class="w" d="M328.529,313.655a3.416,3.416,0,0,1-1.259.906l.4.817a4.211,4.211,0,0,0,1.595-1.187,5.553,5.553,0,0,0,.783-1.956l-.885-.209A4.583,4.583,0,0,1,328.529,313.655Z" transform="translate(-299.217 -266.478)"/><path class="w" d="M328.531,296.266a24.269,24.269,0,0,0-1.492-3.494l-.8.427a23.408,23.408,0,0,1,1.436,3.361Z" transform="translate(-299.427 -270.396)"/><path class="w" d="M323.011,279.1l-.909.017c.027,1.311.094,2.574.2,3.758l.905-.083C323.1,281.631,323.036,280.389,323.011,279.1Z" transform="translate(-300.268 -273.177)"/><path class="w" d="M330.178,307.23l-.909.011c0,.135,0,.27,0,.4a32.293,32.293,0,0,1-.152,3.269l.9.093a33.408,33.408,0,0,0,.156-3.36C330.181,307.508,330.179,307.37,330.178,307.23Z" transform="translate(-298.841 -267.454)"/><path class="w" d="M324.128,287.538a28.613,28.613,0,0,1-.745-3.594l-.9.132a29.538,29.538,0,0,0,.771,3.707Z" transform="translate(-300.191 -272.192)"/><path class="w" d="M324.561,288.6l-.841.343a12.743,12.743,0,0,0,1.7,3.03c.071.093.142.188.213.284l.733-.538c-.076-.1-.153-.2-.23-.3A11.886,11.886,0,0,1,324.561,288.6Z" transform="translate(-299.939 -271.245)"/><path class="w" d="M322.66,315.689l.2.886c1.525-.347,2.685-.649,3.648-.949l-.271-.868C325.3,315.051,324.161,315.347,322.66,315.689Z" transform="translate(-300.155 -265.922)"/></g><g transform="translate(44.027 54.494)"><g transform="translate(27.549)"><path class="w" d="M361.848,311.555c-.638-.971-1-1.521-1-1.521l.762-.495s.356.549.993,1.518Z" transform="translate(-360.853 -309.539)"/></g><g transform="translate(0 3.275)"><path class="w" d="M347.34,341.179c.962.231,2.106.522,3.5.893l.233-.877c-1.4-.373-2.553-.667-3.521-.9Z" transform="translate(-336.054 -306.555)"/><path class="w" d="M342.791,339.58l-.114.9c.916.117,1.738.2,2.443.235a9.3,9.3,0,0,1,1.125.16l.169-.892a10.119,10.119,0,0,0-1.244-.176C344.486,339.771,343.687,339.694,342.791,339.58Z" transform="translate(-337.003 -306.701)"/><path class="w" d="M351.941,342.376c1.1.3,2.272.625,3.488.964l.243-.876c-1.217-.339-2.387-.663-3.491-.964Z" transform="translate(-335.118 -306.31)"/><rect class="w" width="0.909" height="3.62" transform="matrix(0.27, -0.963, 0.963, 0.27, 22.344, 37.598)"/><path class="w" d="M361.114,344.934c1.16.325,2.328.65,3.489.971l.242-.875c-1.16-.321-2.326-.646-3.485-.971Z" transform="translate(-333.251 -305.789)"/><path class="w" d="M373.487,327.029c-.7-.987-1.394-1.976-2.078-2.957l-.745.52q1.029,1.475,2.082,2.963Z" transform="translate(-331.308 -309.856)"/><path class="w" d="M388.035,345.945a8.707,8.707,0,0,0-1.912-3.266l-.694.585a7.986,7.986,0,0,1,1.727,2.908Z" transform="translate(-328.303 -306.07)"/><path class="w" d="M376.268,330.886c-.7-.962-1.409-1.941-2.116-2.928l-.739.528q1.062,1.486,2.121,2.935Z" transform="translate(-330.748 -309.066)"/><path class="w" d="M338.025,339.309l-.063.312c1.268.254,2.471.474,3.572.654l.146-.9c-.53-.085-1.086-.183-1.66-.288Q339.024,339.215,338.025,339.309Z" transform="translate(-337.962 -306.801)"/><path class="w" d="M362.643,312.762c.577.871,1.252,1.888,2.005,3.016l.756-.5c-.753-1.128-1.427-2.143-2-3.014Z" transform="translate(-332.94 -312.26)"/><path class="w" d="M381.015,348.653a9.468,9.468,0,0,1-1.243-.066l-.1.9a11.233,11.233,0,0,0,1.177.075c.067,0,.131,0,.194,0,.844-.028,1.631-.082,2.337-.16l-.1-.9C382.6,348.574,381.834,348.626,381.015,348.653Z" transform="translate(-329.474 -304.886)"/><path class="w" d="M384.875,341.376c-.592-.562-1.28-1.283-2.045-2.145l-.679.6c.781.88,1.486,1.62,2.1,2.2q.226.213.436.421l.638-.648Q385.108,341.6,384.875,341.376Z" transform="translate(-328.97 -306.772)"/><path class="w" d="M382.084,338.384c-.7-.839-1.462-1.781-2.265-2.8l-.714.562c.808,1.029,1.575,1.98,2.282,2.825Z" transform="translate(-329.59 -307.515)"/><path class="w" d="M376.216,332.343c.756,1.018,1.489,1.993,2.179,2.9l.722-.552c-.688-.9-1.419-1.87-2.171-2.885Z" transform="translate(-330.178 -308.284)"/><path class="w" d="M384.352,348.473l.212.883a5.309,5.309,0,0,0,3.365-1.9l-.757-.5A4.571,4.571,0,0,1,384.352,348.473Z" transform="translate(-328.522 -305.199)"/><path class="w" d="M365.706,346.208c1.184.323,2.354.639,3.5.944l.233-.877c-1.142-.3-2.311-.621-3.492-.943Z" transform="translate(-332.317 -305.531)"/><path class="w" d="M374.947,348.586c1.361.312,2.561.563,3.566.746l.162-.894c-.992-.18-2.177-.428-3.525-.738Z" transform="translate(-330.436 -305.049)"/><path class="w" d="M367.958,320.671c.664.972,1.35,1.97,2.052,2.982l.746-.516q-1.049-1.518-2.048-2.979Z" transform="translate(-331.858 -310.653)"/><path class="w" d="M368.065,319.217c-.71-1.045-1.388-2.049-2.024-3l-.755.507c.638.95,1.317,1.954,2.027,3Z" transform="translate(-332.402 -311.454)"/><path class="w" d="M370.312,347.44c1.262.329,2.445.627,3.517.888l.215-.882c-1.066-.261-2.246-.558-3.5-.886Z" transform="translate(-331.379 -305.28)"/></g></g></g><path class="r" d="M347.6,337.714a36.824,36.824,0,0,1-12.623,3.1,26.523,26.523,0,0,1,8.624-3.973A25.6,25.6,0,0,1,347.6,337.714Z" transform="translate(-199.133 -62.302)"/><g transform="translate(86.673 49.895)"><path class="x" d="M441.938,174.526c-.063,5.73-.366,9.9-.366,9.9a31.6,31.6,0,0,0-3.378,1.487c-7.832,3.97-17.561,12.25-19.927,20.682-.941,3.355-1.378,10.284-1.547,18.12-.14,6.333-.1,13.255-.016,19.363.006.33.01.66.016.982.122,7.735.312,13.991.312,15.768,0,4.946-.992,19.6-1.188,25.928s1.583,13.063,2.375,23.751-6.934,9.358-6.934,9.358c7.523-3.165,3.625-12.172-1.182-14.108-.716-.288-1.544-.6-2.473-.926l0,0c-11.49-4.068-38.135-10.931-51.715-12.927C335.684,288.927,324.8,302.19,324.8,302.19s3.957-21.97,7.323-26.325,5.345-18.6,6.729-24.542a15.856,15.856,0,0,0,.328-2.949c.19-5.317-.97-13.668-1.648-17.995-.27-1.725-.463-2.808-.463-2.808-2.045,3.364-15.331,10.29-22.13,13.68-2.4,1.2-4,1.953-4,1.953L305.3,234.65l-11.184-16.976s.741-.674,3.058-2.5c1.647-1.3,4.091-3.177,7.63-5.813,8.509-6.333,18.6-17.814,22.364-19.6s4.355-1.583,9.3-6.333c3.471-3.331,16.064-7.367,23.279-9.48,3.073-.9,5.169-1.451,5.169-1.451a22.67,22.67,0,0,0,16.772-1.143s2.636-1.728,6.205-3.89c5.786-3.506,14.028-8.15,17.454-8.417,4.34-.338,23.008-5.587,30.9-7.849,2.186-.623,3.542-1.022,3.542-1.022C441.686,157.2,442.012,167.155,441.938,174.526Z" transform="translate(-294.119 -150.181)"/><path class="r" d="M361.636,178.63a13.37,13.37,0,0,1-12.981-7.6c3.072-.9,5.169-1.451,5.169-1.451a22.67,22.67,0,0,0,16.772-1.143s2.636-1.728,6.205-3.89C377.833,173.257,371.254,178.147,361.636,178.63Z" transform="translate(-283.022 -147.258)"/><path class="r" d="M314.937,230.263c-2.4,1.2-4,1.953-4,1.953l-16.821-25.532s.741-.674,3.058-2.5Z" transform="translate(-294.119 -139.192)"/><path class="r" d="M417.541,184.421a31.59,31.59,0,0,0-3.378,1.487c1.475-14.364-.817-28.837-1.945-34.706,2.186-.623,3.542-1.022,3.542-1.022C419.127,162.65,417.541,184.421,417.541,184.421Z" transform="translate(-270.088 -150.181)"/><path class="y" d="M409.365,233.088c-13.87-6.072-47.681-16.958-77.527,4.3.19-5.317-.97-13.668-1.648-17.994,4.527-2.862,26.254-15.845,47.039-15.206a67.248,67.248,0,0,1,32.151,9.536C409.241,220.058,409.28,226.98,409.365,233.088Z" transform="translate(-286.779 -139.196)"/></g><g transform="translate(135.045)"><path class="r" d="M341.415,129.163s-5.49-1.236-6.17,5.139c-.581,5.466,6.357,7.512,6.357,7.512S343.827,132.539,341.415,129.163Z" transform="translate(-334.13 -104.582)"/><path class="r" d="M343.665,136.857s-5.49-1.235-6.169,5.14c-.582,5.465,6.357,7.511,6.357,7.511S346.077,140.234,343.665,136.857Z" transform="translate(-333.672 -103.016)"/><path class="r" d="M340.684,134.59s-8.737-3.358-5.749-12.993,14.374-5.8,14.374-5.8.419-6.715,7.933-7.061a10.647,10.647,0,0,1,10.242,5.653s5.081-5.049,11.267-3.535,8.281,9.019,6.363,12.57c0,0,3.929-.7,6.918,3.878s3.752,11.366.042,13.887a11.629,11.629,0,0,1,2,11.378,9.572,9.572,0,0,1-8.865,6.394s1.244,8.536-7.044,10.616-7.515-5.289-7.515-5.289S356.123,130.778,340.684,134.59Z" transform="translate(-334.313 -108.722)"/><g transform="translate(4.505 18.78)"><path class="p" d="M371.854,166.4l1.2,5.875a3.9,3.9,0,0,1-1.516,3.932c-10.638,7.729-18.743,2.413-20.448-.208,1.285-1.206,24.123-22.816,24.491-34.965C375.58,141.033,378.2,156.145,371.854,166.4Z" transform="translate(-335.404 -120.927)"/><path class="p" d="M340.393,147.718a16.176,16.176,0,0,0,.579,9.8l3.726,9.639a8.955,8.955,0,0,0,8.742,5.723,30.3,30.3,0,0,0,15.376-4.59c9.617-6.4,9.657-21.109,9.657-21.109S377.68,132.26,365.3,126.61s-24.979.965-24.979.965l-1.442,10.439a15.836,15.836,0,0,0-.144,1.75,16.086,16.086,0,0,0,.9,5.786Z" transform="translate(-337.92 -124.327)"/><path class="r" d="M348.488,135.155s6.963-6.795,11.758-.672l-.868,1.566s-4.844-4.218-10.443,1.052Z" transform="translate(-335.933 -122.78)"/><path class="q" d="M340.393,145.108a16.024,16.024,0,0,0-.447,5.3c1.492-1.06,4.5-1.944,10.546-1.123,0,0-3.246-2.636-6.483-2.693A1.294,1.294,0,0,1,342.8,144.9l1.809-5.538a3.776,3.776,0,0,0-2.028-1.522,23.882,23.882,0,0,0-3.852-.686,16.086,16.086,0,0,0,.9,5.786Z" transform="translate(-337.92 -121.717)"/><path class="r" d="M339.172,135.768a17.539,17.539,0,0,1,4.235.826l.215,1.805a12.429,12.429,0,0,0-4.436-.712,1.038,1.038,0,0,1-1.129-1.023v-.02A1,1,0,0,1,339.172,135.768Z" transform="translate(-338.056 -121.999)"/><path class="z" d="M342.42,151.2l16.54-1.566s-1.9,8.927-10.694,8.7C341.367,158.155,342.42,151.2,342.42,151.2Z" transform="translate(-337.18 -119.177)"/><path class="q" d="M351.9,167.054s10.255-1.277,15.77-15.556c0,0,2.554,5.264-.445,12.829s-16.14,9.541-16.14,9.541Z" transform="translate(-335.404 -118.798)"/><path class="p" d="M368.374,141.975s3.116-5.94,7.663-3.27,2.011,16.228-4.586,13.686S368.374,141.975,368.374,141.975Z" transform="translate(-332.078 -121.541)"/></g><path class="r" d="M350.194,139.462s.969-2.951,3.612-2.964a4.462,4.462,0,0,1,4.592,3.241S354.657,134.59,350.194,139.462Z" transform="translate(-331.081 -103.07)"/><path class="r" d="M343.7,140.879s-2.655-3.162-4.231.674A2.967,2.967,0,0,1,343.7,140.879Z" transform="translate(-333.263 -102.428)"/><path class="r" d="M339.718,132.493A11.117,11.117,0,0,0,348,131.009c3.786-2.613,2.869-4.936,2.869-4.936s1.544,3.846,6.669,3.454,5.832-1.818,5.832-1.818-.214,5.736,3.976,6.612a7,7,0,0,0,6.727-2.524s-18.624-16.4-25.026-12.026S337.128,126.453,339.718,132.493Z" transform="translate(-333.346 -106.625)"/><path class="r" d="M366.444,130.337s-2.533,4.915,1.763,7.755a26.33,26.33,0,0,1-1.533,7.7l3.275-.048s2.4-4.2,2.17-7.794S371.858,128.891,366.444,130.337Z" transform="translate(-327.925 -104.372)"/></g><path class="q" d="M438.579,124.325a6.82,6.82,0,0,1-1.832,2.666s1.829-.079,2.449-1.129Z" transform="translate(-178.424 -105.547)"/><path class="x" d="M302.339,357.567l.061-.044v0C302.38,357.539,302.359,357.555,302.339,357.567Z" transform="translate(-205.774 -58.095)"/><path class="t" d="M405.866,294.382c-11.49-4.068-38.135-10.931-51.715-12.927-20.227-2.969-31.114,10.293-31.114,10.293s3.957-21.97,7.323-26.325,5.345-18.6,6.729-24.541a15.852,15.852,0,0,0,.328-2.949c.19-5.317-.97-13.668-1.648-17.994-.27-1.725-.463-2.808-.463-2.808-2.045,3.364-15.331,10.29-22.13,13.68-2.4,1.2-4,1.953-4,1.953l-5.637-8.556-.775-3.714s14.776-8.016,35.113-19c0,0,9.2,11.579,9.059,24.94-.259,23.769-3.669,39.982,11.053,45.522C372.255,277.326,403.9,293.382,405.866,294.382Z" transform="translate(-205.686 -89.844)"/><path class="t" d="M421.746,170.41c-.063,5.73-.366,9.9-.366,9.9A31.583,31.583,0,0,0,418,181.793c-7.832,3.97-17.561,12.25-19.927,20.682-.941,3.355-1.378,10.284-1.547,18.12-.14,6.333-.1,13.255-.016,19.363.006.33.01.66.016.982,0,0-5.232-35.694-2.263-46.184C397.2,184.381,421.211,170.713,421.746,170.41Z" transform="translate(-187.254 -96.169)"/><path class="r" d="M337.556,180.2c-4.328,25.731-3.536,56.211-3.536,56.211a25.318,25.318,0,0,1-1.767,14.808c-16.513-17.85-5.16-71.019.975-81.756,7.539-13.193,18.581,2.226,18.581,2.226l-5.647,1.784s-1.958-2.761-4.378-2.174S337.556,180.2,337.556,180.2Z" transform="translate(-201.43 -97.448)"/><path class="r" d="M374.041,165.644s1.692-13.007,11.186-13.339c15.042-.526,18.831,39.01,20.019,60.386s-4.714,25.681-4.714,25.681l-.184-12.172s-7.783-52.6-11.637-61.856c-4.225-10.145-7.847-5.133-11.644-.047l-3.394,1.565" transform="translate(-191.258 -99.855)"/></g><g transform="translate(0 0)"><path class="p" d="M111.685,168.238c-24.318-6.3-43.327-29.236-48.373-34.764a10.427,10.427,0,0,1-1.454-2.387l0,0c-4.825-10-12.615-42.885-14.35-50.338-.118-.507-.206-.894-.264-1.152-.058-.236-.085-.36-.085-.36L60.99,73.189s1.126,13.262,7.79,23.964,12.805,27.662,12.805,27.662c13.024,6.409,26.957,18.318,26.957,18.318C115.811,158.371,111.685,168.238,111.685,168.238Z" transform="translate(-40.941 -55.719)"/><path class="q" d="M109.2,158.448c-24.318-6.3-43.327-29.236-48.373-34.764a10.427,10.427,0,0,1-1.454-2.387c.282.24,18.266,15.667,25.028,19.575,6.814,3.938,14.528,7.436,18.318,4.779s4.851-7.723,3.337-12.308C113.325,148.581,109.2,158.448,109.2,158.448Z" transform="translate(-38.455 -45.929)"/><path class="p" d="M49.059,82.886c2.666-.088,11.969-2.484,13.124-3.011.4-.185.572-.765.617-1.439.362-.39,2.716-2.975,3.286-5,.311-1.116-.841-2.062-2.226-2.867,1.159-2.334,1.368-8.6-1.495-10.91-3.118-2.519-6.112.589-6.112.589-3.573-2.9-5.819.931-5.819.931-1.678-1.117-4.7,1.1-4.7,1.1-1.546-.814-3.3.816-3.695,2.325s1.664,14.184,2.791,15.614S49.059,82.886,49.059,82.886Z" transform="translate(-41.992 -58.673)"/><path class="q" d="M56.336,73.514c1.372,1.945,2.844.652,2.844.652-.481.108-1.216-.546-1.793-1.175A5.181,5.181,0,0,1,56.564,72l0-.006a3.217,3.217,0,0,1-.508-2.615c.522-1.828,1.433-2.092,1.433-2.092l-1.366-5.648a25.832,25.832,0,0,0,.116,5.522,4.467,4.467,0,0,0-.379,5.7,1.568,1.568,0,0,1-1.85.422A4.349,4.349,0,0,1,51.9,70.693l-1.8-7.759s.466,8.915,2.19,10.556A2.618,2.618,0,0,0,56.336,73.514Z" transform="translate(-40.342 -58.068)"/><path class="q" d="M46.266,64.694s1.161,6.551,1.867,7.879a2.511,2.511,0,0,0,3.5,1.028,1.925,1.925,0,0,0,.916-1.514l1.229,1.036S51.512,76.86,48.4,74.194C46.845,72.861,46.266,64.694,46.266,64.694Z" transform="translate(-41.122 -57.447)"/><path class="q" d="M48.155,71.909a2.506,2.506,0,0,1-1.03,2.147c-1.124.7-1.945.355-2.352-.373a1.5,1.5,0,0,0,1.35,1.278c1.648.267,2.814-1.524,3.11-2.148Z" transform="translate(-41.426 -55.979)"/><path class="q" d="M50.475,78.85a4.476,4.476,0,0,1-2.983.812c-.118-.507-.206-.894-.264-1.152A10.514,10.514,0,0,0,50.475,78.85Z" transform="translate(-40.926 -54.636)"/><path class="q" d="M59.5,76.038A8.6,8.6,0,0,1,56.766,77.8a5.127,5.127,0,0,0,2.922-.727Z" transform="translate(-38.986 -55.139)"/><path class="q" d="M76.993,116.086s-4.643,3.888-7.269,4.293a9.705,9.705,0,0,0,9.771-3Z" transform="translate(-36.349 -46.99)"/><path class="r" d="M88.343,225.248a4.239,4.239,0,0,0,2.6,1.485c.8,12.783,2.5,23.622,5.039,28.286,7.817,14.359,58.749,15.314,69.354,2.793s7.818-85.816-9.848-95.163c-13.19-6.979-38.739-5.1-50.841-3.7a12.375,12.375,0,0,0-10.571,9.125c-2.066,7.9-3.243,20.154-3.576,33.085a7.262,7.262,0,0,0-2.175.682C85.936,203.06,86.869,223.094,88.343,225.248Z" transform="translate(-32.861 -38.539)"/><path class="p" d="M260.965,155s-3.89,14.424-10.047,30.425c-.93,2.417-1.911,4.873-2.941,7.32-4.188,9.968-9.146,19.8-14.492,26.494-2.853,3.568-5.813,6.242-8.826,7.572,0,0-8.633,1.211-14.69-2.424S180.287,209.045,177.409,204c0,0,9.086-12.882,17.718-14.039,0,0,3.207,1.656,7.752,4.3a175.993,175.993,0,0,1,16.991,11.079q.818.614,1.609,1.236s.445-.866,1.247-2.374c2.045-3.836,6.412-11.819,11.7-20.255,1.13-1.805,2.3-3.635,3.507-5.446.267-.4.537-.805.806-1.2,9.388-13.933,10.6-24.115,10.6-24.115S258.39,152.419,260.965,155Z" transform="translate(-14.437 -39.464)"/><path class="q" d="M241.277,181.128c-.93,2.417-1.911,4.873-2.941,7.32l-13.548-8.8c1.13-1.805,2.3-3.635,3.507-5.446Z" transform="translate(-4.796 -35.165)"/><path class="q" d="M233.484,213c-2.853,3.568-5.813,6.242-8.826,7.572,0,0-8.633,1.211-14.69-2.424s-29.682-15.343-32.559-20.392c0,0,9.086-12.882,17.718-14.039,0,0,3.207,1.656,7.752,4.3-.527,1.811-2.62,8.32-6.38,11.47-4.392,3.677,5.755,12.158,14.539,15.943S225.942,219.054,233.484,213Z" transform="translate(-14.437 -33.227)"/><path class="q" d="M213.954,207.724c1.011-4.14-1.264-11.034-1.264-11.034q.818.614,1.609,1.236s.445-.867,1.247-2.374C216.434,204.377,213.954,207.724,213.954,207.724Z" transform="translate(-7.257 -30.82)"/><path class="s" d="M184.259,391.28c-8.078-4.643-10.9-9.287-15.75-17.365-2.876-4.8-5.542-8.811-7.232-11.279a5.61,5.61,0,0,1-.351-5.757c.072-.142.148-.285.226-.433,1.9-3.592,5.052-8.651,7.772-8.781L172,349.339l10.644,5.8s4.643,10.67,4.44,15.329c-.172,4.068,7.682,13.49,10.059,18.79a10.433,10.433,0,0,1,.475,1.252,4.874,4.874,0,0,1,.17.773C198.358,395.755,192.337,395.925,184.259,391.28Z" transform="translate(-17.919 0.133)"/><path class="r" d="M184.259,389.795c-8.078-4.643-10.9-9.287-15.75-17.365-2.876-4.8-5.542-8.811-7.232-11.279a5.61,5.61,0,0,1-.351-5.757c.072-.142.148-.285.226-.433a23.66,23.66,0,0,0,4.481,9.292c3.635,4.241,8.971,13.781,10.24,15.6s10.285,9.607,15.958,10.752c4.6.93,5.44-.048,5.788-1.58a4.874,4.874,0,0,1,.17.773C198.358,394.271,192.337,394.44,184.259,389.795Z" transform="translate(-17.919 1.618)"/><path class="t" d="M184.259,391.28c-8.078-4.643-10.9-9.287-15.75-17.365-2.876-4.8-5.542-8.811-7.232-11.279a5.61,5.61,0,0,1-.351-5.757c.072-.142.148-.285.226-.433,1.9-3.592,5.052-8.651,7.772-8.781L172,349.339s-6.015,5.394-4.1,11.349,8.347,14.944,11.694,18.882c3.247,3.816,10.434,10.476,17.546,9.686a10.433,10.433,0,0,1,.475,1.252,4.874,4.874,0,0,1,.17.773C198.358,395.755,192.337,395.925,184.259,391.28Z" transform="translate(-17.919 0.133)"/><path class="s" d="M184.072,414.919c-.185,5.358-4,10.286-12.407,8.85-9.476-1.614-12.128-9.49-14.347-14.336s-7.472-21.6-9.693-28.267a21.014,21.014,0,0,1-.27-10.464,26.942,26.942,0,0,1,1.134-4.092l3.415.517,19.345,2.932a55.127,55.127,0,0,1,4.443,16.357c.691,7.429,5.667,17.073,7.6,23.5v.006a19.625,19.625,0,0,1,.682,2.947A12.1,12.1,0,0,1,184.072,414.919Z" transform="translate(-20.66 3.988)"/><path class="t" d="M184.072,414.919c-.185,5.358-4,10.286-12.407,8.85-9.476-1.614-12.128-9.49-14.347-14.336s-7.472-21.6-9.693-28.267a21.014,21.014,0,0,1-.27-10.464,26.942,26.942,0,0,1,1.134-4.092l3.415.517c-.324,3.357,1.126,12.869,3.8,17.975,3.329,6.36,5.814,20.344,11.611,26.553s16.2,7.365,15.976-1.737a19.625,19.625,0,0,1,.682,2.947A12.1,12.1,0,0,1,184.072,414.919Z" transform="translate(-20.66 3.988)"/><path class="r" d="M184.072,414.227c-.185,5.358-4,10.286-12.407,8.85-9.476-1.614-12.128-9.489-14.347-14.336s-7.472-21.6-9.693-28.268a21.013,21.013,0,0,1-.27-10.464,134.216,134.216,0,0,0,6.009,20.143c4.844,12.367,8.711,23.232,12.085,26.868S182.136,423.072,184.072,414.227Z" transform="translate(-20.66 4.68)"/><path class="aa" d="M95.458,150.441l7.587,2.39s-1.283,5.362-3.477,5.358S94.8,157.017,95.458,150.441Z" transform="translate(-31.134 -39.999)"/><g transform="translate(80.813 227.037)"><path class="v" d="M182.87,313.7c1.469,3.673.1,7.515-1.528,13.649C187.81,317.934,198.62,303,198.62,303l-31.5-9.719S181.255,309.665,182.87,313.7Z" transform="translate(-97.343 -237.97)"/><path class="r" d="M248.975,299.722a9.841,9.841,0,0,0-2.112-3.91c-3.259-3.755-12.891-13.7-32.205-25.256-24.633-14.739-29.278-13.527-41.594-22.614,0,0-42.122-4.737-59.416,11.982-.179.172-.355.349-.527.523a23.507,23.507,0,0,0-3.98,5.4s0,21.851,8.631,29.822,35.7,36.182,38.33,35.922c0,0,.2,4.382,3.432,4.585,0,0-4.443,17.969-2.626,25.645,0,0-2.826,6.46-1.412,11.1s-.406,9.29-.406,12.116,2.423,15.347,10.3,17.973,16.559-.2,17.164-7.069-1.009-11.307-.4-15.145c.164-1.039.879-4.092,1.869-8.126,2.908,1.817,7.489,3.187,9.035,2.878,2.017-.4,6.257-12.318,8.883-13.124s11.912-12.318,18.576-18.779C226.9,337.458,253.688,317.556,248.975,299.722Zm-70.057,2.914,31.5,9.717s-10.81,14.935-17.28,24.351c1.629-6.133,3-9.977,1.53-13.648C193.054,319.016,178.918,302.635,178.918,302.635Z" transform="translate(-109.141 -247.322)"/><g transform="translate(3.98 12.511)"><path class="w" d="M113.89,259.65l-1.194.2c-.112-.666-.2-1.184-.248-1.518.172-.174.348-.351.527-.523l.6-.09S113.686,258.435,113.89,259.65Z" transform="translate(-112.448 -257.718)"/><g transform="translate(0.723 4.619)"><path class="w" d="M114.239,261.556l-1.19.218c.24,1.311.487,2.622.745,3.9l1.188-.237C114.728,264.166,114.479,262.861,114.239,261.556Zm1.3,6.554-1.184.254c.291,1.345.587,2.65.881,3.874l1.178-.285C116.12,270.739,115.827,269.446,115.539,268.11Zm1.542,6.487-1.172.313c.363,1.372.733,2.662,1.1,3.828l1.157-.361C117.8,277.227,117.438,275.957,117.081,274.6Zm1.945,6.352-1.14.415a29.93,29.93,0,0,0,1.6,3.71l1.069-.567A29.371,29.371,0,0,1,119.026,280.949ZM122,286.625l-.876.836c.591.621,1.536,1.574,2.808,2.834l.851-.859C123.517,288.184,122.581,287.24,122,286.625Zm4.743,4.731-.848.866c.875.855,1.829,1.781,2.844,2.766l.845-.873C128.563,293.134,127.612,292.21,126.74,291.355Zm4.815,4.665-.841.872c.923.887,1.881,1.805,2.864,2.744l.836-.875C133.434,297.822,132.476,296.9,131.555,296.02Zm4.846,4.631-.836.879q1.423,1.349,2.881,2.728l.829-.881C138.31,302.462,137.346,301.551,136.4,300.651Zm4.871,4.6-.83.885q1.455,1.363,2.9,2.711l.827-.888C143.207,307.069,142.238,306.163,141.272,305.255Zm4.9,4.577-.824.887c.99.922,1.969,1.821,2.917,2.69l.817-.893C148.135,311.649,147.163,310.75,146.173,309.831Zm4.937,4.535-.815.9c1.033.939,2.021,1.829,2.95,2.656l.806-.906C153.124,316.189,152.139,315.3,151.109,314.366Zm4.994,4.458-.793.915c1.211,1.054,2.239,1.921,3.05,2.574l.761-.945C158.321,320.727,157.306,319.868,156.1,318.824Zm5.14,4.01-.491,1.108c.885.391,1.4,1.208,1.729,2.742l1.188-.252A4.628,4.628,0,0,0,161.244,322.834Zm2.829,6.364-1.2.14a24.032,24.032,0,0,0,.709,3.992l1.16-.343A23.277,23.277,0,0,1,164.073,329.2Zm-.355,6.632c-.076,1-.251,2.263-.539,3.856l1.194.215c.294-1.635.475-2.938.554-3.98Zm-1.057,6.534c-.2,1-.421,2.029-.643,3.074l-.166.8,1.184.249.17-.794c.22-1.047.439-2.083.641-3.083Zm-1.366,6.56c-.309,1.527-.543,2.768-.737,3.908l1.194.2c.19-1.126.424-2.356.729-3.87Zm.058,6.794-1.2-.148a28.945,28.945,0,0,0-.248,3.491c0,.188,0,.369.01.549l1.211-.042c-.006-.164-.008-.333-.008-.507A27.483,27.483,0,0,1,161.353,355.718Zm-.061,6.578-1.208.049c.024.669.04,1.366.04,2.075,0,.593-.01,1.2-.028,1.838l1.212.034c.018-.655.027-1.266.027-1.871C161.334,363.7,161.32,362.981,161.292,362.3Zm-1.314,6.682c-.04.712-.085,1.418-.128,2.114-.038.615-.078,1.226-.112,1.832l1.208.067c.034-.6.073-1.208.112-1.823.043-.7.088-1.409.128-2.123Zm.881,10.007c-.032-.617-.048-1.256-.048-1.953,0-.439.006-.879.018-1.324l-1.212-.03q-.018.682-.018,1.354c0,.717.016,1.378.049,2.021.012.19.014.39.018.6l1.211-.006Q160.873,379.3,160.859,378.985Zm-1.35,3.329c-.124,1.136-.318,2.438-.581,3.868l1.193.218c.267-1.46.467-2.79.591-3.956Zm-1.114,6.536c-.264,1.218-.563,2.508-.894,3.834l1.176.294c.333-1.338.639-2.644.9-3.873Z" transform="translate(-113.049 -261.556)"/></g></g><g transform="translate(65.016 45.877)"><path class="w" d="M163.164,286.593s1.424.475,3.756,1.26l.388-1.148-3.758-1.262Z" transform="translate(-163.164 -285.442)"/><path class="w" d="M172.565,288.482c-1.338-.455-2.6-.879-3.74-1.266l-.385,1.148c1.139.384,2.4.811,3.738,1.265Z" transform="translate(-162.091 -285.081)"/><path class="w" d="M178.176,328.947l.99.7,2.272-3.226-.99-.7Z" transform="translate(-160.109 -277.246)"/><rect class="w" width="3.944" height="1.212" transform="matrix(0.575, -0.818, 0.818, 0.575, 14.222, 57.16)"/><path class="w" d="M173.238,335.531c.039.672.058,1.343.065,2.015l1.447-2.054-.99-.7Z" transform="translate(-161.114 -275.4)"/><path class="w" d="M177.822,290.27c-1.278-.437-2.532-.861-3.737-1.272l-.391,1.147c1.206.409,2.46.836,3.734,1.272Z" transform="translate(-161.021 -284.718)"/><path class="w" d="M193.548,295.766c-1.16-.418-2.408-.867-3.719-1.33l-.4,1.142c1.308.463,2.553.909,3.71,1.326Z" transform="translate(-157.82 -283.612)"/><path class="w" d="M183.072,292.076c-1.244-.43-2.5-.861-3.734-1.284l-.391,1.145c1.236.425,2.484.854,3.728,1.284Z" transform="translate(-159.953 -284.353)"/><path class="w" d="M191.618,311.2l.9.815c.8-.885,1.738-1.911,2.64-2.938l-.905-.8C193.351,309.293,192.417,310.317,191.618,311.2Z" transform="translate(-157.374 -280.796)"/><path class="w" d="M195.277,307.085l.93.781c.987-1.178,1.793-2.2,2.462-3.137l-.984-.706C197.034,304.931,196.247,305.933,195.277,307.085Z" transform="translate(-156.63 -281.661)"/><path class="w" d="M198.769,297.747c-.885-.36-2.133-.841-3.708-1.426l-.42,1.138c1.562.579,2.8,1.052,3.671,1.412Z" transform="translate(-156.759 -283.228)"/><path class="w" d="M200.419,299.137l-1.142.4a1.755,1.755,0,0,1,.088.569,6.052,6.052,0,0,1-.9,2.674l1.064.579a7.056,7.056,0,0,0,1.045-3.253A2.892,2.892,0,0,0,200.419,299.137Z" transform="translate(-155.98 -282.655)"/><path class="w" d="M181.373,324.412l.99.7,2.272-3.226-.99-.7Z" transform="translate(-159.459 -278.169)"/><path class="w" d="M187.913,315.354l.921.783c.682-.8,1.485-1.711,2.6-2.944l-.9-.811C189.41,313.625,188.6,314.542,187.913,315.354Z" transform="translate(-158.128 -279.96)"/><path class="w" d="M186.5,317.14l-1.929,2.738.99.7,1.929-2.734c.108-.155.221-.313.342-.473l-.972-.723C186.732,316.813,186.613,316.976,186.5,317.14Z" transform="translate(-158.808 -279.093)"/><path class="w" d="M184.189,293.747c1.266.439,2.514.873,3.725,1.3l.4-1.145c-1.211-.424-2.459-.86-3.725-1.3Z" transform="translate(-158.886 -283.985)"/></g></g><path class="ab" d="M217.507,197.389c-1.41,6.318-7.411,12.078-12.178,15.786h0a60.193,60.193,0,0,1-6.193,4.258l-2.829-2.438-8.781-7.557-4.219,8.7c-4.216,8.7-3.05,30.973-3.537,37.309-.427,5.53,8.1,18.484,9.813,22.91a2.338,2.338,0,0,1,.266,1.344c-.708,1.817-21.783,4.543-35.488,0S112.9,289.761,111.99,289.458s-1.7-40.828-5.943-58.847,2.826-65.273,2.826-65.273l-5.706-1.811-2.572-.815c-7.472.406-5.094-8.378-5.094-8.378s.248,8.884,4.791,6.57c2.033-1.036,1.945-7.069,1.224-13.421-.881-7.784-2.708-16.046-2.734-16.174.088.024,1.456.391,3.609,1,7.185,2.023,23.086,6.736,29.1,10.316,1.805,1.075,6.167,4.2,9.541,6.666,2.49,1.811,4.44,3.265,4.44,3.265,11.892,6.551,15.7,6.117,25.394,8.995.425.128.854.255,1.284.379,11.776,3.5,25.249,7.654,30.25,16.074,3.864,6.512,10.37,14.093,13.426,17.525C216.865,196.7,217.507,197.389,217.507,197.389Z" transform="translate(-31.177 -43.892)"/><path class="r" d="M103.167,163.526l-2.572-.815c-7.472.406-5.094-8.378-5.094-8.378s.248,8.884,4.791,6.57c2.033-1.036,1.945-7.069,1.224-13.421-.881-7.784-2.708-16.046-2.734-16.174.088.024,1.456.391,3.609,1C104.188,139.563,107.411,155.618,103.167,163.526Z" transform="translate(-31.177 -43.892)"/><path class="r" d="M200.4,186.62c-1.41,6.318-7.411,12.078-12.178,15.786h0a60.191,60.191,0,0,1-6.193,4.258l-2.829-2.438c9.607-6.5,16.41-14.674,19.051-20C199.291,185.4,200.4,186.62,200.4,186.62Z" transform="translate(-14.073 -33.123)"/><path class="r" d="M162.236,158.037c-1.9,5.05-4.777,9.605-19.59,6.022-16.682-4.034-7.56-16.79-7.56-16.79,2.489,1.811,2.762,2.04,2.762,2.04,11.892,6.551,12.209,5.146,21.9,8.024C160.172,157.459,161.807,157.913,162.236,158.037Z" transform="translate(-23.555 -40.644)"/><path class="t" d="M191.451,202a60.2,60.2,0,0,1-6.193,4.258l-11.61-9.995-4.219,8.7c-4.216,8.7-3.05,30.973-3.537,37.309-8.32-19.788,6.243-56.04,6.243-56.04C176.337,194.4,191.2,201.817,191.451,202Z" transform="translate(-17.303 -32.715)"/><path class="t" d="M189.844,274.971c-.708,1.817-21.783,4.543-35.488,0S112.9,287.026,111.99,286.723s-1.7-40.828-5.943-58.847,2.826-65.273,2.826-65.273l-8.278-2.626c-7.472.406-5.094-8.377-5.094-8.377s.248,8.884,4.791,6.57c2.033-1.036,1.945-7.069,1.224-13.421,0,0,14.426,10.386,22.7,12.81,0,0-2.323,14.844-4.543,34.174s-.805,32.623,3.635,46.15,14.362,26.489,28.129,27.9,27.171,11.043,38.138,7.842A2.338,2.338,0,0,1,189.844,274.971Z" transform="translate(-31.177 -41.157)"/><g transform="translate(110.172 46.048)"><path class="r" d="M185.83,122.865h0a6.967,6.967,0,0,1-.57.515l-45.328,15.864s-6.773-3.118-6.376-14.958a15.583,15.583,0,0,1,8.843-13.972,11.823,11.823,0,0,1-.987-1.134.819.819,0,0,1,.632-1.319,9.439,9.439,0,0,1,1.5.073,11.014,11.014,0,0,1-.247-1.637.822.822,0,0,1,1.25-.764,7.625,7.625,0,0,1,1.983,1.664l.059-.06A25.287,25.287,0,0,1,163.1,99.717c3.408-.195,7.562-.495,11.693-.951,7.935-.879,14.11.549,16.423-1.832C191.218,96.935,200.991,113.207,185.83,122.865Z" transform="translate(-133.536 -96.935)"/><path class="r" d="M176.8,116.086s4.636,10.852-3.044,17.317C173.752,133.4,172.617,120.409,176.8,116.086Z" transform="translate(-125.381 -93.038)"/><path class="p" d="M157.637,164.607l-.233.19a13.751,13.751,0,0,1-4.423,2.213c-3.934,1.248-12.626-2.595-16.4-4.423a2.171,2.171,0,0,1-1.088-2.72,49.675,49.675,0,0,0,3.113-17.587,49.5,49.5,0,0,1,3.7-17.633c-.936,4.339.7,10.6,3.225,16.9A156.153,156.153,0,0,0,157.637,164.607Z" transform="translate(-133.167 -91.296)"/><path class="p" d="M177.676,139.552a16.367,16.367,0,0,1-2.952,9.486l-6,8.563a9.065,9.065,0,0,1-9.979,3.5,30.673,30.673,0,0,1-13.989-8.248c-7.891-8.63-4.354-23.086-4.354-23.086s4.406-14.464,17.945-17,24.306,7.022,24.306,7.022l-1.122,10.605a16.361,16.361,0,0,1-2.575,7.221Z" transform="translate(-132.301 -93.802)"/><path class="r" d="M167.16,124.77s-5.188-8.369-11.387-3.519l.472,1.75s5.784-2.967,10,3.572Z" transform="translate(-129.011 -92.295)"/><path class="q" d="M173.089,136.248a16.207,16.207,0,0,1-.851,5.318c-1.208-1.4-3.946-3-10.088-3.667,0,0,3.829-1.8,7.025-1.07a1.308,1.308,0,0,0,1.6-1.371l-.43-5.881a3.814,3.814,0,0,1,2.362-1,24,24,0,0,1,3.951.262,16.305,16.305,0,0,1-2.291,5.466Z" transform="translate(-127.714 -90.499)"/><path class="r" d="M175.138,127.414a17.739,17.739,0,0,0-4.361-.219l-.65,1.721a12.577,12.577,0,0,1,4.531.379,1.05,1.05,0,0,0,1.358-.731l0-.02A1.01,1.01,0,0,0,175.138,127.414Z" transform="translate(-126.09 -90.787)"/><path class="z" d="M169.919,142.375l-15.867-5.559s-.306,9.232,8.391,11.147C169.263,149.463,169.919,142.375,169.919,142.375Z" transform="translate(-129.362 -88.82)"/><path class="q" d="M157.233,155.644l-.728,6.23c-.108.1-.224.207-.351.315l-.233.19c-2.336-1.07-12.1-5.961-13.077-13.142a18.91,18.91,0,0,1,1.2-10.109,11.4,11.4,0,0,1,1.477-2.6C147.469,151.9,157.233,155.644,157.233,155.644Z" transform="translate(-131.684 -88.878)"/><path class="p" d="M146.04,126.6s-1.616-6.594-6.732-5.075-5.921,15.452,1.178,14.56S146.04,126.6,146.04,126.6Z" transform="translate(-133.174 -91.978)"/><path class="r" d="M159.994,112.654s-2.991.309-3.352,4.093-1.006,10.221-5.875,10.085-5.343,5.779-5.343,5.779l-3.483-.841s-.344-10.515,1.975-14.1S156,108.922,159.994,112.654Z" transform="translate(-131.83 -94)"/><path class="r" d="M156.476,126.485a4.616,4.616,0,0,1,5.005-1.153c3.337.977,3.153,4.536,3.153,4.536S162.765,125.2,156.476,126.485Z" transform="translate(-128.868 -91.209)"/><path class="r" d="M169.537,131.191A3.1,3.1,0,0,1,172.1,131c1.377.534.875,2.331.875,2.331S172.659,131.015,169.537,131.191Z" transform="translate(-126.21 -90.044)"/></g><g transform="translate(190.945 82.775)"><g transform="translate(0 0)"><rect class="r" width="65.826" height="43.587" transform="matrix(0.845, 0.534, -0.534, 0.845, 23.284, 2.281)"/><path class="r" d="M279.583,159.21,256.3,196.057l-55.646-35.163,2.407-.17,75.532-5.333.668,2.572,0,0Z" transform="translate(-200.652 -121.766)"/><path class="z" d="M272.6,157.964,250.33,193.305l-1.686-1.066L233.4,157.016l38.532-1.623Z" transform="translate(-193.989 -121.766)"/><rect class="r" width="62.949" height="43.587" transform="translate(24.725 0) rotate(32.289)"/></g><path class="p" d="M254.976,144.631l-.007-.01a4,4,0,0,0-2.47-1.9c-.007-.83-.812-1.61-1.811-2.042a2.794,2.794,0,0,0-1.844-.1c-.284-1.016-1.367-1.81-2.1-1.584,0,0-.173.034-.469.1a2.2,2.2,0,0,0-.517-1.188h0a3.394,3.394,0,0,0-3.107-1.738s-6.928,1.243-8.568,6.041-3.743,10.344-1.289,10a4.379,4.379,0,0,0,2.319-1.767c-.865,2.906-1.184,5.146.4,4.926.882-.122,1.941-1.165,2.928-2.583-.667,2.479-.782,4.272.646,4.075,1.288-.178,2.952-2.319,4.219-4.722-.82,2.807-1.087,4.938.465,4.722,1.9-.264,3.233-4.124,5.139-7.073,2.236-3.454,2.159-1.419,4.573-2.349l1.763,1.113A4.4,4.4,0,0,0,254.976,144.631Z" transform="translate(-194.339 -125.687)"/></g><path class="r" d="M142.167,150.231s1.921-15.99-4.707-17.292c-12.872-2.527-27.166,16.533-34.913,36.354-11.661,29.833,1.81,52.232,1.81,52.232l.24-11.426s-1.059-24.842,10.451-44.486,19.535-24.943,21.2-23.581S138,147.2,138,147.2Z" transform="translate(-30.637 -43.606)"/><path class="r" d="M159.127,157.879s3.85-9.955,16.192-5.519c10.794,3.881,9.678,15.388,8.013,30.532S167,235.49,167,235.49s-.625-13.195,1.041-21.069c0,0,10.1-33.3,6.462-46.471s-11.736-8.978-11.736-8.978Z" transform="translate(-18.157 -39.84)"/></g></g><g transform="translate(375.742 0)"><path class="ac" d="M415.065,97.981s1.43,17.062-2.456,16.8-11.562-7.769-27.05-6.548-34.437,4.611-45.892-15.66,14.65-26.1,14.65-26.1l60.749,31.509Z" transform="translate(-309.955 -35.618)"/><path class="ad" d="M385.012,100.035l78.042,6.418,1.623-3.472L389.856,47.752l-75.579-8.829-1.452,3.107,72.187,58.006Z" transform="translate(-312.825 -38.922)"/><g transform="translate(117.277 117.693)"><path class="l" d="M425.341,146.207a3.025,3.025,0,1,0-2.076,3.742,3.027,3.027,0,0,0,2.076-3.742Z" transform="translate(-417.322 -144.013)"/><path class="l" d="M422.963,146.722c3.131-.243,3.863,28.238,3.863,28.238s-2.042.96-3.045.735-1.515-4.072-1.515-4.072l-.1,4.033s-3.434.119-4.624-.717c0,0,.466-27.83,5.418-28.216Z" transform="translate(-417.545 -143.689)"/></g><path class="l" d="M427.92,157.218l-.565-62.225-.4-.3L386.186,64.537l-1.464,1.982L425.08,96.373l.911,60.739Z" transform="translate(-304.204 -35.851)"/></g></svg>