<svg xmlns="http://www.w3.org/2000/svg" xmlns:xlink="http://www.w3.org/1999/xlink" width="149.495" height="137.718" viewBox="0 0 149.495 137.718"><defs><style>.a{fill:url(#a);}.b{fill:url(#b);}.c{fill:url(#c);}.d{fill:url(#d);}</style><linearGradient id="a" x1="0.741" y1="-0.22" x2="0.249" y2="1.03" gradientUnits="objectBoundingBox"><stop offset="0" stop-color="#63380e"/><stop offset="0.231" stop-color="#c38f24"/><stop offset="0.409" stop-color="#fff9ca"/><stop offset="0.446" stop-color="#f7ecba"/><stop offset="0.646" stop-color="#d2ad6d"/><stop offset="0.812" stop-color="#b77f35"/><stop offset="0.934" stop-color="#a66212"/><stop offset="1" stop-color="#a05805"/></linearGradient><linearGradient id="b" x1="1.009" y1="0.069" x2="0.029" y2="0.912" gradientUnits="objectBoundingBox"><stop offset="0.007" stop-color="#b48426"/><stop offset="0.166" stop-color="#f3e08d"/><stop offset="0.234" stop-color="#dbb758"/><stop offset="0.292" stop-color="#c99a32"/><stop offset="0.322" stop-color="#c38f24"/><stop offset="0.389" stop-color="#bb7e22"/><stop offset="0.466" stop-color="#b57122"/><stop offset="0.493" stop-color="#ba7b2f"/><stop offset="0.543" stop-color="#ca9752"/><stop offset="0.611" stop-color="#e3c58a"/><stop offset="0.679" stop-color="#fff9ca"/><stop offset="0.861" stop-color="#c38f24"/><stop offset="1" stop-color="#63380e"/></linearGradient><linearGradient id="c" x1="0.73" y1="-0.316" x2="0.285" y2="1.373" gradientUnits="objectBoundingBox"><stop offset="0" stop-color="#f3e08d"/><stop offset="0.166" stop-color="#c59227"/><stop offset="0.278" stop-color="#c38f24"/><stop offset="0.292" stop-color="#c08a21"/><stop offset="0.423" stop-color="#a8650c"/><stop offset="0.493" stop-color="#a05805"/><stop offset="0.517" stop-color="#a66212"/><stop offset="0.562" stop-color="#b77f35"/><stop offset="0.623" stop-color="#d2ad6d"/><stop offset="0.696" stop-color="#f7ecba"/><stop offset="0.71" stop-color="#fff9ca"/><stop offset="0.861" stop-color="#c38f24"/></linearGradient><linearGradient id="d" x1="0.539" y1="0.048" x2="0.461" y2="0.952" gradientUnits="objectBoundingBox"><stop offset="0.085" stop-color="#f3e08d"/><stop offset="0.161" stop-color="#dbb758"/><stop offset="0.227" stop-color="#c99a32"/><stop offset="0.261" stop-color="#c38f24"/><stop offset="0.338" stop-color="#bb7e22"/><stop offset="0.425" stop-color="#b57122"/><stop offset="0.457" stop-color="#ba7b2f"/><stop offset="0.517" stop-color="#ca9752"/><stop offset="0.598" stop-color="#e3c58a"/><stop offset="0.679" stop-color="#fff9ca"/><stop offset="0.861" stop-color="#c38f24"/><stop offset="1" stop-color="#63380e"/></linearGradient></defs><g transform="translate(0.977) rotate(1)"><path class="a" d="M36.928,2.5S15,10.823,0,0A15.959,15.959,0,0,0,1.39,2.364c14.073,19.9,46.648,8.3,46.648,8.3Z" transform="translate(102.635 121.102)"/><path class="b" d="M47.293,9.726C46.451,4.068,43.407.756,39.221-.848c.168.594.314,1.214.433,1.867,3.6,19.7-54.872,39.658-37.846,66.146A17.466,17.466,0,0,0,3.04,68.781l-.005.009L10.569,77.4A26.657,26.657,0,0,1,8.058,73.51c-.041-.095-.093-.211-.155-.343C-1.529,51.908,51.287,36.531,47.293,9.726Z" transform="translate(94.578 47.594)"/><path class="c" d="M77.416,3.389l-.068.029a11.332,11.332,0,0,0-.961-.866c-8.208-6.581-24.031-4.881-43.44,5.421q-4.152,2.2-8.507,4.93c-6.634,4.16-18.872,4.53-24.747.051,7.034,5.88,21.044,14.163,32.387,8.656,3.621-1.758,7.225-3.429,10.758-4.956C58.154,10.032,72.153,6.1,80.66,9.354a15.674,15.674,0,0,1,4.187,2.61Z" transform="translate(53.139 37.392)"/><path class="d" d="M61.055,56.01s-5.6-4.583-7.821-6.865C40.686,36.252,29.77,13.943,26.195,5.129L0,0C4.216,10.4,19.328,32.418,45.426,47.812,48.912,49.868,61.055,56.01,61.055,56.01Z"/></g></svg>