<svg xmlns="http://www.w3.org/2000/svg" xmlns:xlink="http://www.w3.org/1999/xlink" width="280.228" height="296.231" viewBox="0 0 280.228 296.231">
  <defs>
    <filter id="Rectangle_5587" x="31.234" y="0" width="248.994" height="296.231" filterUnits="userSpaceOnUse">
      <feOffset dy="3" input="SourceAlpha"/>
      <feGaussianBlur stdDeviation="17" result="blur"/>
      <feFlood flood-opacity="0.184"/>
      <feComposite operator="in" in2="blur"/>
      <feComposite in="SourceGraphic"/>
    </filter>
    <linearGradient id="linear-gradient" x1="0.138" y1="0.344" x2="1.006" y2="0.664" gradientUnits="objectBoundingBox">
      <stop offset="0" stop-color="#89c739"/>
      <stop offset="0.414" stop-color="#6dbe4d"/>
      <stop offset="1" stop-color="#1a987c"/>
    </linearGradient>
  </defs>
  <g id="Group_38629" data-name="Group 38629" transform="translate(-1525.26 -660.203)">
    <g id="Group_35070" data-name="Group 35070" transform="translate(208.613 474.509)">
      <g id="Group_28036" data-name="Group 28036" transform="translate(1316.647 329.029)">
        <g id="Group_28022" data-name="Group 28022" transform="translate(0 0)">
          <g id="Group_28021" data-name="Group 28021">
            <rect id="Rectangle_5720" data-name="Rectangle 5720" width="157.613" height="104.628" rx="13.821" transform="translate(0 10.616)" fill="#f2f5f4" style="mix-blend-mode: multiply;isolation: isolate"/>
            <g id="Group_28020" data-name="Group 28020" transform="translate(12.248)">
              <rect id="Rectangle_5721" data-name="Rectangle 5721" width="157.613" height="104.628" rx="13.821" fill="#fff" stroke="#f1f1f3" stroke-miterlimit="10" stroke-width="1"/>
              <path id="Rectangle_5722" data-name="Rectangle 5722" d="M13.821,0H143.792a13.821,13.821,0,0,1,13.821,13.821V24.467a0,0,0,0,1,0,0H0a0,0,0,0,1,0,0V13.821A13.821,13.821,0,0,1,13.821,0Z" transform="translate(0 5.814)" fill="#f2f5f4" style="mix-blend-mode: multiply;isolation: isolate"/>
              <path id="Rectangle_5723" data-name="Rectangle 5723" d="M13.821,0H143.792a13.821,13.821,0,0,1,13.821,13.821V24.467a0,0,0,0,1,0,0H0a0,0,0,0,1,0,0V13.821A13.821,13.821,0,0,1,13.821,0Z" fill="#fff" stroke="#f1f1f3" stroke-miterlimit="10" stroke-width="1"/>
              <g id="Group_28019" data-name="Group 28019" transform="translate(68.637 12.234)">
                <line id="Line_12246" data-name="Line 12246" x2="21.144" fill="none" stroke="#e3e9e7" stroke-linecap="round" stroke-linejoin="round" stroke-width="5"/>
                <line id="Line_12247" data-name="Line 12247" x2="42.953" transform="translate(31.072)" fill="none" stroke="#e3e9e7" stroke-linecap="round" stroke-linejoin="round" stroke-width="5"/>
              </g>
              <path id="Path_81315" data-name="Path 81315" d="M340.393,133.934a4.161,4.161,0,1,1-4.161-4.16A4.161,4.161,0,0,1,340.393,133.934Z" transform="translate(-319.311 -121.701)" fill="#d57548"/>
              <path id="Path_81316" data-name="Path 81316" d="M357.032,133.934a4.161,4.161,0,1,1-4.161-4.16A4.161,4.161,0,0,1,357.032,133.934Z" transform="translate(-319.369 -121.701)" fill="#ffb72f"/>
              <path id="Path_81317" data-name="Path 81317" d="M373.671,133.934a4.161,4.161,0,1,1-4.161-4.16A4.161,4.161,0,0,1,373.671,133.934Z" transform="translate(-319.426 -121.701)" fill="#aabc95"/>
            </g>
          </g>
        </g>
        <g id="Group_28074" data-name="Group 28074" transform="translate(31.313 41.072)">
          <line id="Line_12267" data-name="Line 12267" x2="76.025" fill="none" stroke="#e3e9e7" stroke-linecap="round" stroke-linejoin="round" stroke-width="5"/>
          <line id="Line_12268" data-name="Line 12268" x2="42.633" transform="translate(0 9.225)" fill="none" stroke="#e3e9e7" stroke-linecap="round" stroke-linejoin="round" stroke-width="5"/>
        </g>
        <g id="Group_28076" data-name="Group 28076" transform="translate(33.636 59.743)">
          <rect id="Rectangle_5746" data-name="Rectangle 5746" width="11.951" height="11.951" transform="translate(0 23.097)" fill="none" stroke="#ffb72f" stroke-miterlimit="10" stroke-width="3"/>
          <path id="Path_81416" data-name="Path 81416" d="M342.729,339.116V304.068l72.185,35.048Z" transform="translate(-342.729 -304.068)" fill="none" stroke="#aabc95" stroke-linejoin="round" stroke-width="3"/>
        </g>
      </g>
      <g id="Group_28013" data-name="Group 28013" transform="translate(1389.436 221.677)">
        <g id="Group_27868" data-name="Group 27868" transform="translate(0 0)">
          <g id="Group_27663" data-name="Group 27663" transform="translate(9.301 0)">
            <g id="Group_27608" data-name="Group 27608">
              <g id="Group_27590" data-name="Group 27590" transform="translate(0 11.882)">
                <g id="Group_27581" data-name="Group 27581">
                  <g id="Group_27577" data-name="Group 27577" transform="translate(0.144 0.136)">
                    <g id="Group_27576" data-name="Group 27576">
                      <g transform="matrix(1, 0, 0, 1, -82.23, -48)" filter="url(#Rectangle_5587)">
                        <rect id="Rectangle_5587-2" data-name="Rectangle 5587" width="146.994" height="194.231" rx="10.737" transform="translate(82.23 48)" fill="#e0e0e0"/>
                      </g>
                    </g>
                  </g>
                  <g id="Group_27580" data-name="Group 27580">
                    <g id="Group_27579" data-name="Group 27579">
                      <g id="Group_27578" data-name="Group 27578">
                        <path id="Path_81020" data-name="Path 81020" d="M644.435,70.994s.153-.012.455-.028a6.839,6.839,0,0,0,1.323-.239,6.29,6.29,0,0,0,1.943-.981,5.6,5.6,0,0,0,1.783-2.286,4.953,4.953,0,0,0,.385-1.671c.034-.6.007-1.246.014-1.915q0-2.013-.007-4.4c0-3.179-.008-6.846-.013-10.974-.011-16.516-.026-40.411-.045-69.937-.006-14.764-.011-30.935-.017-48.3q0-13.021-.007-26.905,0-6.936,0-14.07-.005-3.564-.01-7.176a5.2,5.2,0,0,0-1.311-3.261,5.941,5.941,0,0,0-3.2-1.839,8.792,8.792,0,0,0-1.929-.137H629.844l-16.285,0-33.589,0-70.635,0a6.05,6.05,0,0,0-4.008,1.49,5.225,5.225,0,0,0-1.79,3.639c-.029,2.786-.008,5.587-.014,8.365q0,8.345,0,16.576,0,16.458,0,32.407c0,21.247-.005,41.74-.008,61.263S503.5,38.7,503.5,56.065q0,3.256,0,6.454c.005,1.064-.014,2.133.012,3.18a5.135,5.135,0,0,0,1.054,2.888,5.841,5.841,0,0,0,2.537,1.891,6.641,6.641,0,0,0,1.58.376c.538.044,1.094.034,1.646.035l6.557,0,24.893.009,75.118.042,20.423.025,5.311.013c1.2,0,1.81.014,1.81.014s-.613.009-1.81.013l-5.311.013-20.423.025-75.118.042L516.88,71.1l-6.557,0c-.551,0-1.1.011-1.67-.035a6.861,6.861,0,0,1-1.641-.39,6.061,6.061,0,0,1-2.638-1.963,5.34,5.34,0,0,1-1.1-3c-.026-1.065-.008-2.12-.014-3.189q0-3.2,0-6.454c0-17.362-.008-35.913-.013-55.436s-.006-40.016-.008-61.263q0-15.935,0-32.407,0-8.229,0-16.576c.007-2.784-.015-5.566.015-8.378a5.481,5.481,0,0,1,1.878-3.819,6.348,6.348,0,0,1,4.2-1.563l70.635,0,33.589,0,16.285,0,8.006,0h5.942a9.069,9.069,0,0,1,1.986.144,6.207,6.207,0,0,1,3.347,1.923,5.433,5.433,0,0,1,1.368,3.407q0,3.615.008,7.184,0,7.133,0,14.07,0,13.871-.007,26.905c-.006,17.36-.012,33.532-.018,48.3-.019,29.526-.034,53.422-.045,69.937-.005,4.129-.009,7.8-.013,10.974q0,2.384-.007,4.4c-.009.671.016,1.309-.021,1.919a5,5,0,0,1-.4,1.687,5.633,5.633,0,0,1-1.809,2.3,6.281,6.281,0,0,1-1.961.975,6.634,6.634,0,0,1-1.331.227C644.588,70.991,644.435,70.994,644.435,70.994Z" transform="translate(-503.235 123.376)" fill="#263238"/>
                      </g>
                    </g>
                  </g>
                </g>
                <g id="Group_27583" data-name="Group 27583" transform="translate(12.968 152.321)" opacity="0.3">
                  <g id="Group_27582" data-name="Group 27582">
                    <path id="Path_81021" data-name="Path 81021" d="M527.8,211.591l123.26-.643,1.412-22.741L648.7,174.492,526.682,192.7Z" transform="translate(-526.682 -174.492)"/>
                  </g>
                </g>
                <g id="Group_27585" data-name="Group 27585" transform="translate(110.374 0.543)" opacity="0.3">
                  <g id="Group_27584" data-name="Group 27584">
                    <path id="Path_81022" data-name="Path 81022" d="M703.154-122.349l2.8,7.939v3.89H702.8Z" transform="translate(-702.797 122.349)"/>
                  </g>
                </g>
                <g id="Group_27589" data-name="Group 27589" transform="translate(6.452 8.154)">
                  <g id="Group_27586" data-name="Group 27586" transform="translate(0.131 0.111)">
                    <path id="Path_81023" data-name="Path 81023" d="M515.139-107.725V70.289H649.021V-107.725Z" transform="translate(-515.139 107.725)" fill="#fff"/>
                  </g>
                  <g id="Group_27588" data-name="Group 27588">
                    <g id="Group_27587" data-name="Group 27587">
                      <path id="Path_81024" data-name="Path 81024" d="M515.032-107.828l133.883-.108h.116v.108c.008,49.473.017,111.213.027,178.007v.148h-.144l-133.883-.012H514.9v-.122c.078-105.11.131-176.937.132-178.021,0,1.083.054,72.911.131,178.021l-.131-.122,133.883-.012-.144.134v-.014c.011-66.794.02-128.533.028-178.007l.116.108Z" transform="translate(-514.901 107.936)" fill="#263238"/>
                    </g>
                  </g>
                </g>
              </g>
              <g id="Group_27607" data-name="Group 27607" transform="translate(42.991)">
                <g id="Group_27592" data-name="Group 27592" transform="translate(0 7.056)">
                  <g id="Group_27591" data-name="Group 27591">
                    <path id="Rectangle_5588" data-name="Rectangle 5588" d="M6.326,0h55.09a6.326,6.326,0,0,1,6.326,6.326V18.761a0,0,0,0,1,0,0H0a0,0,0,0,1,0,0V6.326A6.326,6.326,0,0,1,6.326,0Z" fill="#263238"/>
                  </g>
                </g>
                <g id="Group_27594" data-name="Group 27594" transform="translate(25.25)">
                  <g id="Group_27593" data-name="Group 27593">
                    <path id="Path_81025" data-name="Path 81025" d="M643.859-145.874H626.618l2.015,14.111H641.62Z" transform="translate(-626.618 145.874)" fill="#263238"/>
                  </g>
                </g>
                <g id="Group_27597" data-name="Group 27597" transform="translate(4.351 6.92)">
                  <g id="Group_27596" data-name="Group 27596">
                    <g id="Group_27595" data-name="Group 27595">
                      <path id="Path_81026" data-name="Path 81026" d="M647.871-132.635c0,.075-13.217.136-29.518.136s-29.52-.061-29.52-.136,13.214-.136,29.52-.136S647.871-132.71,647.871-132.635Z" transform="translate(-588.833 132.771)" fill="#455a64"/>
                    </g>
                  </g>
                </g>
                <g id="Group_27600" data-name="Group 27600" transform="translate(1.374 10.936)">
                  <g id="Group_27599" data-name="Group 27599">
                    <g id="Group_27598" data-name="Group 27598">
                      <path id="Path_81027" data-name="Path 81027" d="M583.592-113.313c-.078,0-.142-2.654-.142-5.927s.064-5.927.142-5.927.142,2.653.142,5.927S583.67-113.313,583.592-113.313Z" transform="translate(-583.45 125.167)" fill="#455a64"/>
                    </g>
                  </g>
                </g>
                <g id="Group_27603" data-name="Group 27603" transform="translate(65.406 10.624)">
                  <g id="Group_27602" data-name="Group 27602">
                    <g id="Group_27601" data-name="Group 27601">
                      <path id="Path_81028" data-name="Path 81028" d="M699.364-115a51.031,51.031,0,0,1-.142-5.381,51.036,51.036,0,0,1,.142-5.382,51.108,51.108,0,0,1,.142,5.382A51.1,51.1,0,0,1,699.364-115Z" transform="translate(-699.222 125.758)" fill="#455a64"/>
                    </g>
                  </g>
                </g>
                <g id="Group_27606" data-name="Group 27606" transform="translate(1.679 23.746)">
                  <g id="Group_27605" data-name="Group 27605">
                    <g id="Group_27604" data-name="Group 27604">
                      <path id="Path_81029" data-name="Path 81029" d="M644.6-100.775c0,.075-13.567.136-30.3.136s-30.3-.061-30.3-.136,13.564-.136,30.3-.136S644.6-100.85,644.6-100.775Z" transform="translate(-584.002 100.911)" fill="#455a64"/>
                    </g>
                  </g>
                </g>
              </g>
            </g>
            <g id="Group_27615" data-name="Group 27615" transform="translate(21.453 79.402)">
              <g id="Group_27614" data-name="Group 27614" transform="translate(0 0)">
                <path id="Path_81038" data-name="Path 81038" d="M582.916,8.252c0,.076-9.155.137-20.446.137s-20.448-.061-20.448-.137,9.153-.138,20.448-.138S582.916,8.176,582.916,8.252Z" transform="translate(-542.023 -8.114)" fill="#263238"/>
              </g>
            </g>
            <g id="Group_27617" data-name="Group 27617" transform="translate(22.145 86.075)">
              <g id="Group_27616" data-name="Group 27616" transform="translate(0 0)">
                <path id="Path_81039" data-name="Path 81039" d="M650.025,21.191c0,.076-23.9.138-53.372.138s-53.379-.062-53.379-.138,23.894-.137,53.379-.137S650.025,21.116,650.025,21.191Z" transform="translate(-543.274 -21.054)" fill="#263238"/>
              </g>
            </g>
            <g id="Group_27619" data-name="Group 27619" transform="translate(22.145 92.215)">
              <g id="Group_27618" data-name="Group 27618" transform="translate(0 0)">
                <path id="Path_81040" data-name="Path 81040" d="M650.025,33.1c0,.076-23.9.138-53.372.138s-53.379-.062-53.379-.138,23.894-.137,53.379-.137S650.025,33.024,650.025,33.1Z" transform="translate(-543.274 -32.963)" fill="#263238"/>
              </g>
            </g>
            <g id="Group_27621" data-name="Group 27621" transform="translate(22.145 98.356)">
              <g id="Group_27620" data-name="Group 27620" transform="translate(0 0)">
                <path id="Path_81041" data-name="Path 81041" d="M650.025,45.009c0,.076-23.9.137-53.372.137s-53.379-.061-53.379-.137,23.894-.137,53.379-.137S650.025,44.933,650.025,45.009Z" transform="translate(-543.274 -44.872)" fill="#263238"/>
              </g>
            </g>
            <g id="Group_27623" data-name="Group 27623" transform="translate(22.145 104.496)">
              <g id="Group_27622" data-name="Group 27622" transform="translate(0 0)">
                <path id="Path_81042" data-name="Path 81042" d="M650.025,56.918c0,.076-23.9.137-53.372.137s-53.379-.061-53.379-.137,23.894-.138,53.379-.138S650.025,56.842,650.025,56.918Z" transform="translate(-543.274 -56.78)" fill="#263238"/>
              </g>
            </g>
            <g id="Group_27625" data-name="Group 27625" transform="translate(22.145 110.637)">
              <g id="Group_27624" data-name="Group 27624">
                <path id="Path_81043" data-name="Path 81043" d="M650.025,68.826c0,.076-23.9.138-53.372.138s-53.379-.062-53.379-.138,23.894-.137,53.379-.137S650.025,68.751,650.025,68.826Z" transform="translate(-543.274 -68.689)" fill="#263238"/>
              </g>
            </g>
            <g id="Group_27627" data-name="Group 27627" transform="translate(23.708 119.677)">
              <g id="Group_27626" data-name="Group 27626" transform="translate(0 0)">
                <path id="Path_81044" data-name="Path 81044" d="M557.834,97.706a1.466,1.466,0,0,1-.014-.215c0-.157-.009-.356-.015-.6-.008-.547-.019-1.3-.032-2.256-.016-1.949-.037-4.687-.064-7.962l.124.119-11.556.019c-.033.03.271-.259.143-.136v.752q0,.376,0,.748v1.475c0,.973,0,1.926,0,2.853-.005,1.852-.01,3.6-.014,5.206l-.125-.119,8.339.061,2.362.031.631.014a1.631,1.631,0,0,1,.226.013.964.964,0,0,1-.2.013l-.607.014-2.334.031-8.418.061h-.124v-.12c0-1.606-.009-3.354-.014-5.206,0-.927,0-1.88,0-2.853q0-.73,0-1.475c0-.249,0-.5,0-.748v-.752c-.128.122.175-.17.145-.139l11.556.018h.126v.119c-.026,3.307-.048,6.071-.064,8.038-.013.94-.024,1.688-.032,2.229-.006.237-.011.428-.015.579A.834.834,0,0,1,557.834,97.706Z" transform="translate(-546.1 -86.53)" fill="#263238"/>
              </g>
            </g>
            <g id="Group_27629" data-name="Group 27629" transform="translate(42.709 122.351)">
              <g id="Group_27628" data-name="Group 27628">
                <rect id="Rectangle_5590" data-name="Rectangle 5590" width="80.615" height="6.422" fill="#e0e0e0"/>
              </g>
            </g>
            <g id="Group_27631" data-name="Group 27631" transform="translate(23.708 138.342)">
              <g id="Group_27630" data-name="Group 27630" transform="translate(0 0)">
                <path id="Path_81045" data-name="Path 81045" d="M557.834,133.953a1.488,1.488,0,0,1-.014-.216c0-.157-.009-.356-.015-.6-.008-.547-.019-1.3-.032-2.256-.016-1.949-.037-4.687-.064-7.963l.124.119-11.556.019c-.033.03.271-.259.143-.135v.752q0,.376,0,.748v1.476c0,.973,0,1.926,0,2.852-.005,1.852-.01,3.6-.014,5.206l-.125-.119,8.339.061,2.362.031.631.014a1.579,1.579,0,0,1,.226.014,1.083,1.083,0,0,1-.2.013l-.607.014-2.334.031-8.418.061h-.124v-.12c0-1.606-.009-3.354-.014-5.206,0-.926,0-1.879,0-2.852q0-.73,0-1.476c0-.248,0-.5,0-.748v-.752c-.128.122.175-.17.145-.139l11.556.018h.126v.119c-.026,3.307-.048,6.071-.064,8.038-.013.94-.024,1.688-.032,2.229-.006.237-.011.428-.015.579A.842.842,0,0,1,557.834,133.953Z" transform="translate(-546.1 -122.777)" fill="#263238"/>
              </g>
            </g>
            <g id="Group_27633" data-name="Group 27633" transform="translate(42.709 141.027)">
              <g id="Group_27632" data-name="Group 27632">
                <rect id="Rectangle_5591" data-name="Rectangle 5591" width="80.615" height="6.422" fill="#e0e0e0"/>
              </g>
            </g>
            <g id="Group_27635" data-name="Group 27635" transform="translate(23.708 157.007)">
              <g id="Group_27634" data-name="Group 27634">
                <path id="Path_81046" data-name="Path 81046" d="M557.834,170.2a1.472,1.472,0,0,1-.014-.216c0-.157-.009-.355-.015-.6-.008-.547-.019-1.3-.032-2.256-.016-1.949-.037-4.687-.064-7.962l.124.119-11.556.018c-.033.03.271-.259.143-.136v.752q0,.375,0,.748v1.475c0,.973,0,1.926,0,2.853-.005,1.852-.01,3.6-.014,5.206l-.125-.119,8.339.061,2.362.031.631.014a1.62,1.62,0,0,1,.226.013.978.978,0,0,1-.2.013l-.607.014-2.334.031-8.418.061h-.124v-.12c0-1.606-.009-3.354-.014-5.206,0-.927,0-1.88,0-2.853q0-.73,0-1.475c0-.249,0-.5,0-.748v-.752c-.128.122.175-.17.145-.139l11.556.018h.126v.119c-.026,3.307-.048,6.071-.064,8.038-.013.94-.024,1.688-.032,2.229-.006.237-.011.428-.015.579A.835.835,0,0,1,557.834,170.2Z" transform="translate(-546.1 -159.023)" fill="#263238"/>
              </g>
            </g>
            <g id="Group_27637" data-name="Group 27637" transform="translate(42.709 159.704)">
              <g id="Group_27636" data-name="Group 27636">
                <rect id="Rectangle_5592" data-name="Rectangle 5592" width="80.615" height="6.422" fill="#e0e0e0"/>
              </g>
            </g>
            <g id="Group_27642" data-name="Group 27642" transform="translate(25.744 120.503)">
              <g id="Group_27641" data-name="Group 27641" transform="translate(0 0)">
                <g id="Group_27640" data-name="Group 27640">
                  <g id="Group_27639" data-name="Group 27639">
                    <g id="Group_27638" data-name="Group 27638">
                      <path id="Path_81047" data-name="Path 81047" d="M549.782,92.4l1.558-1.487,3,2.55,5.9-5.418,1.446,1.487-7.566,6.8Z" transform="translate(-549.782 -88.047)" fill="#08bd80"/>
                    </g>
                  </g>
                </g>
              </g>
            </g>
            <g id="Group_27647" data-name="Group 27647" transform="translate(25.744 138.551)">
              <g id="Group_27646" data-name="Group 27646">
                <g id="Group_27645" data-name="Group 27645">
                  <g id="Group_27644" data-name="Group 27644">
                    <g id="Group_27643" data-name="Group 27643">
                      <path id="Path_81048" data-name="Path 81048" d="M549.782,127.436l1.558-1.487,3,2.55,5.9-5.418,1.446,1.487-7.566,6.8Z" transform="translate(-549.782 -123.08)" fill="#08bd80"/>
                    </g>
                  </g>
                </g>
              </g>
            </g>
            <g id="Group_27652" data-name="Group 27652" transform="translate(25.744 157.055)">
              <g id="Group_27651" data-name="Group 27651">
                <g id="Group_27650" data-name="Group 27650">
                  <g id="Group_27649" data-name="Group 27649">
                    <g id="Group_27648" data-name="Group 27648">
                      <path id="Path_81049" data-name="Path 81049" d="M549.782,163.357l1.558-1.487,3,2.55,5.9-5.418,1.446,1.487-7.566,6.8Z" transform="translate(-549.782 -159.001)" fill="#08bd80"/>
                    </g>
                  </g>
                </g>
              </g>
            </g>
            <g id="Group_27654" data-name="Group 27654" transform="translate(23.884 180.579)">
              <g id="Group_27653" data-name="Group 27653">
                <path id="Path_81050" data-name="Path 81050" d="M576.886,205.637c0,.076-6.821.138-15.233.138s-15.234-.062-15.234-.138,6.819-.137,15.234-.137S576.886,205.561,576.886,205.637Z" transform="translate(-546.419 -205.5)" fill="#263238"/>
              </g>
            </g>
            <g id="Group_27656" data-name="Group 27656" transform="translate(58.335 180.355)">
              <g id="Group_27655" data-name="Group 27655">
                <path id="Path_81051" data-name="Path 81051" d="M619.956,205.214c0,.075-2.518.137-5.624.137s-5.625-.062-5.625-.137,2.518-.138,5.625-.138S619.956,205.138,619.956,205.214Z" transform="translate(-608.707 -205.076)" fill="#263238"/>
              </g>
            </g>
            <g id="Group_27658" data-name="Group 27658" transform="translate(93.411 176.153)">
              <g id="Group_27657" data-name="Group 27657">
                <path id="Path_81052" data-name="Path 81052" d="M699.547,197.257c0,.076-6.138.137-13.709.137s-13.71-.061-13.71-.137,6.138-.138,13.71-.138S699.547,197.181,699.547,197.257Z" transform="translate(-672.127 -197.119)" fill="#263238"/>
              </g>
            </g>
            <g id="Group_27660" data-name="Group 27660" transform="translate(89.771 180.611)">
              <g id="Group_27659" data-name="Group 27659" transform="translate(0 0)">
                <path id="Path_81053" data-name="Path 81053" d="M686.432,216.786c-.014-.009.1-.164.247-.483a3.324,3.324,0,0,0,.265-1.5,13.323,13.323,0,0,0-.413-2.4,7.251,7.251,0,0,1-.206-3.252,4.861,4.861,0,0,1,2.507-3.088,4.985,4.985,0,0,1,4.646.155A4.543,4.543,0,0,1,695.291,208a2.053,2.053,0,0,1,.224,1.307,1.18,1.18,0,0,1-1.04.916,10.691,10.691,0,0,1-1.394.031l-1.394-.021c-.938-.022-1.889-.06-2.851-.142a21.486,21.486,0,0,1-5.5-1.138,3.582,3.582,0,0,0-2.5-.138,8.524,8.524,0,0,0-1.89,1.565,2.436,2.436,0,0,1-1.123.6,1.825,1.825,0,0,1-1.243-.213,11.031,11.031,0,0,1-1.707-1.495,2.471,2.471,0,0,0-.865-.542,1.439,1.439,0,0,0-.95.025,5.321,5.321,0,0,0-1.469,1.181,3.747,3.747,0,0,1-3.2.958,3.438,3.438,0,0,1-2.165-1.3,3.277,3.277,0,0,1-.643-1.428,2.029,2.029,0,0,1-.033-.541c.015,0,.014.188.09.531a3.383,3.383,0,0,0,.675,1.374,3.346,3.346,0,0,0,2.1,1.208,3.573,3.573,0,0,0,3.03-.945,5.388,5.388,0,0,1,1.528-1.238,1.679,1.679,0,0,1,1.107-.038,2.694,2.694,0,0,1,.954.583,11.146,11.146,0,0,0,1.671,1.453,1.556,1.556,0,0,0,1.066.18,2.171,2.171,0,0,0,1-.545,8.511,8.511,0,0,1,1.955-1.616,2.693,2.693,0,0,1,1.363-.184,6.752,6.752,0,0,1,1.336.306,21.357,21.357,0,0,0,5.436,1.121c.952.081,1.9.119,2.832.142l1.391.023a10.686,10.686,0,0,0,1.343-.025.9.9,0,0,0,.815-.7,1.812,1.812,0,0,0-.2-1.14,4.3,4.3,0,0,0-1.7-1.677,4.732,4.732,0,0,0-4.4-.172,4.67,4.67,0,0,0-2.42,2.932,7.189,7.189,0,0,0,.165,3.175,12.768,12.768,0,0,1,.367,2.434,3.237,3.237,0,0,1-.324,1.522A2.39,2.39,0,0,1,686.432,216.786Z" transform="translate(-665.546 -205.561)" fill="#263238"/>
              </g>
            </g>
            <g id="Group_27662" data-name="Group 27662" transform="translate(89.73 186.457)">
              <g id="Group_27661" data-name="Group 27661">
                <path id="Path_81054" data-name="Path 81054" d="M702.192,216.758a1.948,1.948,0,0,1-.373.025l-1.071.017-3.938.032c-3.324.027-7.916.087-12.985.228s-9.659.338-12.979.5l-3.932.187-1.07.042a1.859,1.859,0,0,1-.374,0,1.963,1.963,0,0,1,.37-.051l1.066-.093c.927-.077,2.269-.171,3.928-.274,3.319-.208,7.908-.435,12.983-.577s9.667-.17,12.993-.147c1.663.011,3.008.031,3.938.055l1.071.034A1.869,1.869,0,0,1,702.192,216.758Z" transform="translate(-665.471 -216.631)" fill="#263238"/>
              </g>
            </g>
          </g>
        </g>
        <g id="Group_28159" data-name="Group 28159" transform="translate(63.21 41.761)">
          <g id="Group_27892" data-name="Group 27892" transform="translate(0)">
            <g id="Group_27891" data-name="Group 27891" transform="translate(0 0.01)">
              <path id="Path_81239" data-name="Path 81239" d="M224.377,221.922q0-2.56,3.518-2.56t3.526,2.56v1.64h-2.452v-1.64q0-.82-1.066-.826h-.017q-1.057,0-1.057.826v1.106q0,.814,2.3,1.995t2.3,2.815v1.541q0,2.567-3.518,2.566t-3.526-2.566v-1.641h2.452v1.641q0,.827,1.074.827t1.066-.827v-1.392q0-.882-2.3-2.063t-2.3-2.859Z" transform="translate(-224.377 -219.362)" fill="#1a987c"/>
            </g>
            <path id="Path_81240" data-name="Path 81240" d="M686.376,219.181v6.593a1.666,1.666,0,0,1-.93,1.36,3.825,3.825,0,0,1-1.124.44v4.215h-2.244v-4.215c-1.2-.275-2.055-.977-2.055-1.8v-6.593h2.287v6.581c0,.3.4.538.889.538s.89-.241.89-.538v-6.581Z" transform="translate(-654.465 -219.181)" fill="#1a987c"/>
            <path id="Path_81241" data-name="Path 81241" d="M820.426,219.181c-1.709,0-3.093.772-3.093,1.724v10.884h2.227v-4.216a5.4,5.4,0,0,0,.867.069,4.585,4.585,0,0,0,2.187-.5,1.5,1.5,0,0,0,.906-1.219v-5.012C823.519,219.953,822.134,219.181,820.426,219.181Zm.866,5.384s0,.005,0,.008,0,.005,0,.008v1.4c0,.266-.388.482-.866.482a1.28,1.28,0,0,1-.613-.141.419.419,0,0,1-.254-.341v-5.117c0-.266.388-.482.867-.482a1.279,1.279,0,0,1,.612.141.419.419,0,0,1,.254.341Z" transform="translate(-784.074 -219.181)" fill="#1a987c"/>
            <path id="Path_81242" data-name="Path 81242" d="M378.517,219.191V220.9h-2.61v10.9h-2.244V220.9h-2.61v-1.712Z" transform="translate(-362.826 -219.19)" fill="#1a987c"/>
            <path id="Path_81243" data-name="Path 81243" d="M519.141,221.736c-.084-1.359-1.646-2.442-3.562-2.442h0c-1.916,0-3.478,1.083-3.562,2.442h0v1.785l-.992-.419q0,.945,0,1.89l.987.409v3.887c0,1.413,1.6,2.557,3.566,2.557h0c1.969,0,3.566-1.145,3.566-2.557v-1.662h-2.567v1.744c0,.4-.447.716-1,.716h0c-.551,0-1-.321-1-.716V227.3s0-.008,0-.011,0-.006,0-.008,0-.006,0-.008,0-.008,0-.011v-.705h0a4.884,4.884,0,0,0,1,.1h0a3.592,3.592,0,0,0,3.431-1.863h0v-.01a1.893,1.893,0,0,0,.13-.684v-2.367Zm-3.562,3.182h0a1.324,1.324,0,0,1-.412-.065l-.214-.091-.372-.174V222.12s0-.008,0-.011,0-.007,0-.011v-.3c0-.4.447-.716,1-.716h0c.551,0,1,.321,1,.716v.3s0,.008,0,.011,0,.008,0,.011V224.2C516.578,224.6,516.131,224.918,515.58,224.918Z" transform="translate(-494.944 -219.288)" fill="url(#linear-gradient)"/>
          </g>
          <g id="Group_27900" data-name="Group 27900" transform="translate(12.67 13.435)">
            <g id="Group_27893" data-name="Group 27893" transform="translate(18.911 0.059)">
              <path id="Path_81244" data-name="Path 81244" d="M788.083,461.853v-1.612h-.548v-.351H789v.351h-.549v1.612Z" transform="translate(-787.528 -459.883)" fill="#1a987c"/>
              <path id="Path_81245" data-name="Path 81245" d="M788.342,461.742h-.384V460.13h-.548v-.365h1.481v.365h-.548Zm-.37-.014h.356v-1.612h.548v-.337h-1.453v.337h.549Z" transform="translate(-787.41 -459.765)" fill="#1a987c"/>
            </g>
            <g id="Group_27894" data-name="Group 27894" transform="translate(20.342 0.635)">
              <path id="Path_81246" data-name="Path 81246" d="M813.955,471.4h-.022a.607.607,0,0,1-.152.132.432.432,0,0,1-.229.055.554.554,0,0,1-.2-.034.508.508,0,0,1-.16-.095.424.424,0,0,1-.107-.145.447.447,0,0,1-.038-.186.424.424,0,0,1,.041-.188.433.433,0,0,1,.115-.144.517.517,0,0,1,.174-.092.721.721,0,0,1,.218-.032.939.939,0,0,1,.217.021,1.05,1.05,0,0,1,.14.042v-.041a.219.219,0,0,0-.085-.177.322.322,0,0,0-.211-.07.394.394,0,0,0-.315.156l-.26-.178a.706.706,0,0,1,.584-.269.7.7,0,0,1,.477.147.553.553,0,0,1,.164.435v.806h-.354Zm0-.4a.751.751,0,0,0-.13-.048.567.567,0,0,0-.147-.018.309.309,0,0,0-.2.056.171.171,0,0,0-.07.138.155.155,0,0,0,.067.132.255.255,0,0,0,.155.049.329.329,0,0,0,.234-.095.306.306,0,0,0,.089-.215Z" transform="translate(-813.043 -470.147)" fill="#1a987c"/>
              <path id="Path_81247" data-name="Path 81247" d="M813.434,471.474a.565.565,0,0,1-.2-.035.519.519,0,0,1-.163-.1.427.427,0,0,1-.109-.148.457.457,0,0,1-.039-.189.429.429,0,0,1,.042-.191.435.435,0,0,1,.117-.146.53.53,0,0,1,.176-.093.732.732,0,0,1,.22-.032.964.964,0,0,1,.218.021,1.174,1.174,0,0,1,.131.039v-.031a.213.213,0,0,0-.083-.172.315.315,0,0,0-.206-.068.389.389,0,0,0-.31.154l0,.005-.272-.186,0-.006a.717.717,0,0,1,.59-.271.7.7,0,0,1,.482.148.561.561,0,0,1,.167.44v.813h-.368v-.143h-.012a.617.617,0,0,1-.152.131A.439.439,0,0,1,813.434,471.474Zm.047-.916a.723.723,0,0,0-.216.031.516.516,0,0,0-.172.091.419.419,0,0,0-.113.141.414.414,0,0,0-.041.185.44.44,0,0,0,.038.184.414.414,0,0,0,.105.143.5.5,0,0,0,.158.093.552.552,0,0,0,.194.034.426.426,0,0,0,.225-.054.606.606,0,0,0,.15-.13l0,0h.032v.143h.34v-.8a.548.548,0,0,0-.162-.429.691.691,0,0,0-.472-.145.7.7,0,0,0-.574.26l.249.171a.4.4,0,0,1,.317-.154.329.329,0,0,1,.215.071.227.227,0,0,1,.088.182v.051l-.01,0a1.077,1.077,0,0,0-.139-.042A.944.944,0,0,0,813.48,470.559Zm.033.636a.262.262,0,0,1-.159-.051.163.163,0,0,1-.07-.137.179.179,0,0,1,.073-.144.318.318,0,0,1,.2-.058.584.584,0,0,1,.149.018.762.762,0,0,1,.131.048l0,0v0a.314.314,0,0,1-.024.119.317.317,0,0,1-.067.1.337.337,0,0,1-.239.1Zm.047-.376a.306.306,0,0,0-.195.055.166.166,0,0,0-.067.133.147.147,0,0,0,.064.126.249.249,0,0,0,.151.048.323.323,0,0,0,.229-.092.3.3,0,0,0,.064-.1.3.3,0,0,0,.023-.109.74.74,0,0,0-.125-.046A.562.562,0,0,0,813.56,470.819Z" transform="translate(-812.925 -470.029)" fill="#1a987c"/>
            </g>
            <g id="Group_27895" data-name="Group 27895" transform="translate(21.913 0.059)">
              <path id="Path_81248" data-name="Path 81248" d="M841.058,461.853V459.89h.359v1.963Z" transform="translate(-841.051 -459.883)" fill="#1a987c"/>
              <path id="Path_81249" data-name="Path 81249" d="M841.306,461.742h-.373v-1.977h.373Zm-.359-.014h.345v-1.949h-.345Z" transform="translate(-840.933 -459.765)" fill="#1a987c"/>
            </g>
            <g id="Group_27896" data-name="Group 27896" transform="translate(22.606 0.635)">
              <path id="Path_81250" data-name="Path 81250" d="M853.425,470.2h.337v.186h.022a.341.341,0,0,1,.066-.091.478.478,0,0,1,.092-.072.52.52,0,0,1,.11-.049.383.383,0,0,1,.117-.019.424.424,0,0,1,.122.015.308.308,0,0,1,.086.04l-.1.321a.329.329,0,0,0-.073-.026.413.413,0,0,0-.1-.009.308.308,0,0,0-.134.029.3.3,0,0,0-.1.081.385.385,0,0,0-.066.123.486.486,0,0,0-.023.153v.661h-.359Z" transform="translate(-853.418 -470.147)" fill="#1a987c"/>
              <path id="Path_81251" data-name="Path 81251" d="M853.673,471.43H853.3v-1.357h.351v.186h.011a.352.352,0,0,1,.065-.088.487.487,0,0,1,.093-.073.535.535,0,0,1,.111-.05.4.4,0,0,1,.119-.019.439.439,0,0,1,.124.015.316.316,0,0,1,.089.04l0,0v0l-.1.329-.008,0a.338.338,0,0,0-.071-.025.411.411,0,0,0-.1-.009.3.3,0,0,0-.131.028.288.288,0,0,0-.1.08.386.386,0,0,0-.065.12.486.486,0,0,0-.023.151Zm-.359-.014h.345v-.654a.5.5,0,0,1,.024-.155.4.4,0,0,1,.067-.125.308.308,0,0,1,.105-.083.316.316,0,0,1,.137-.03.421.421,0,0,1,.1.01.344.344,0,0,1,.067.023l.092-.308a.3.3,0,0,0-.08-.036.422.422,0,0,0-.12-.015.377.377,0,0,0-.115.018.5.5,0,0,0-.108.049.468.468,0,0,0-.09.07.333.333,0,0,0-.065.089l0,0h-.033v-.186h-.323Z" transform="translate(-853.3 -470.029)" fill="#1a987c"/>
            </g>
            <g id="Group_27897" data-name="Group 27897" transform="translate(23.591 0.635)">
              <path id="Path_81252" data-name="Path 81252" d="M871.685,470.154a.747.747,0,0,1,.286.054.664.664,0,0,1,.373.374.8.8,0,0,1,0,.576.665.665,0,0,1-.373.374.794.794,0,0,1-.573,0,.682.682,0,0,1-.225-.148.673.673,0,0,1-.148-.226.8.8,0,0,1,0-.576.664.664,0,0,1,.373-.374A.748.748,0,0,1,871.685,470.154Zm0,1.1a.353.353,0,0,0,.133-.026.337.337,0,0,0,.114-.075.358.358,0,0,0,.078-.121.466.466,0,0,0,0-.323.357.357,0,0,0-.078-.121.337.337,0,0,0-.114-.075.352.352,0,0,0-.133-.026.348.348,0,0,0-.134.026.34.34,0,0,0-.112.075.358.358,0,0,0-.078.121.469.469,0,0,0,0,.323.358.358,0,0,0,.078.121.34.34,0,0,0,.112.075A.349.349,0,0,0,871.685,471.253Z" transform="translate(-870.965 -470.147)" fill="#1a987c"/>
              <path id="Path_81253" data-name="Path 81253" d="M871.567,471.474a.76.76,0,0,1-.289-.054.672.672,0,0,1-.377-.378.809.809,0,0,1,0-.581.686.686,0,0,1,.15-.229.693.693,0,0,1,.227-.149.8.8,0,0,1,.579,0,.672.672,0,0,1,.377.378.813.813,0,0,1,0,.581.674.674,0,0,1-.377.378A.761.761,0,0,1,871.567,471.474Zm0-1.431a.745.745,0,0,0-.284.053.679.679,0,0,0-.223.146.668.668,0,0,0-.146.224.793.793,0,0,0,0,.57.666.666,0,0,0,.146.224.676.676,0,0,0,.223.147.789.789,0,0,0,.568,0,.675.675,0,0,0,.222-.147.667.667,0,0,0,.146-.224.793.793,0,0,0,0-.57.666.666,0,0,0-.146-.224.676.676,0,0,0-.222-.146A.746.746,0,0,0,871.567,470.043Zm0,1.1a.352.352,0,0,1-.252-.1.367.367,0,0,1-.08-.123.477.477,0,0,1,0-.329.368.368,0,0,1,.08-.123.352.352,0,0,1,.115-.077.365.365,0,0,1,.273,0,.347.347,0,0,1,.116.077.37.37,0,0,1,.08.123.479.479,0,0,1,0,.329.371.371,0,0,1-.08.123.348.348,0,0,1-.116.077A.361.361,0,0,1,871.567,471.143Zm0-.768a.346.346,0,0,0-.132.025.338.338,0,0,0-.11.074.35.35,0,0,0-.077.118.461.461,0,0,0,0,.318.347.347,0,0,0,.077.118.337.337,0,0,0,.11.074.351.351,0,0,0,.262,0,.329.329,0,0,0,.111-.074.352.352,0,0,0,.077-.118.461.461,0,0,0,0-.318.354.354,0,0,0-.076-.118.337.337,0,0,0-.112-.074A.347.347,0,0,0,871.567,470.375Z" transform="translate(-870.847 -470.029)" fill="#1a987c"/>
            </g>
            <g id="Group_27898" data-name="Group 27898" transform="translate(25.249 0.635)">
              <path id="Path_81254" data-name="Path 81254" d="M900.545,470.2h.337v.162h.022a.408.408,0,0,1,.154-.145.506.506,0,0,1,.258-.06.581.581,0,0,1,.245.054.659.659,0,0,1,.206.148.71.71,0,0,1,.141.226.824.824,0,0,1,0,.576.708.708,0,0,1-.141.226.66.66,0,0,1-.206.148.58.58,0,0,1-.245.054.505.505,0,0,1-.258-.06.406.406,0,0,1-.154-.145h-.022l.022.192v.562h-.359Zm.7,1.055a.344.344,0,0,0,.136-.027.356.356,0,0,0,.114-.077.374.374,0,0,0,.08-.12.436.436,0,0,0,0-.318.377.377,0,0,0-.08-.121.355.355,0,0,0-.114-.077.342.342,0,0,0-.136-.027.358.358,0,0,0-.136.026.338.338,0,0,0-.114.075.372.372,0,0,0-.08.121.448.448,0,0,0,0,.323.373.373,0,0,0,.08.121.338.338,0,0,0,.114.075A.359.359,0,0,0,901.241,471.253Z" transform="translate(-900.538 -470.147)" fill="#1a987c"/>
              <path id="Path_81255" data-name="Path 81255" d="M900.793,472.022h-.373v-1.95h.351v.162h.011a.421.421,0,0,1,.154-.144.518.518,0,0,1,.261-.061.591.591,0,0,1,.248.054.665.665,0,0,1,.208.15.712.712,0,0,1,.143.228.825.825,0,0,1,0,.581.712.712,0,0,1-.143.228.667.667,0,0,1-.208.15.59.59,0,0,1-.248.054.517.517,0,0,1-.261-.061.422.422,0,0,1-.154-.144h-.01l.021.184Zm-.359-.014h.345v-.555l-.023-.2h.034l0,0a.4.4,0,0,0,.151.143.5.5,0,0,0,.254.059.577.577,0,0,0,.242-.053.655.655,0,0,0,.2-.147.7.7,0,0,0,.14-.224.813.813,0,0,0,0-.57.7.7,0,0,0-.14-.224.657.657,0,0,0-.2-.147.576.576,0,0,0-.242-.053.5.5,0,0,0-.254.059.4.4,0,0,0-.151.143l0,0h-.033v-.162h-.323Zm.689-.866a.367.367,0,0,1-.138-.027.351.351,0,0,1-.116-.077.39.39,0,0,1-.081-.123.456.456,0,0,1,0-.329.387.387,0,0,1,.081-.123.348.348,0,0,1,.116-.077.367.367,0,0,1,.138-.027.351.351,0,0,1,.138.028.369.369,0,0,1,.116.078.389.389,0,0,1,.081.123.443.443,0,0,1,0,.324.389.389,0,0,1-.081.123.366.366,0,0,1-.116.078A.353.353,0,0,1,901.123,471.143Zm0-.768a.353.353,0,0,0-.133.026.332.332,0,0,0-.112.074.373.373,0,0,0-.078.118.447.447,0,0,0,0,.318.376.376,0,0,0,.078.118.332.332,0,0,0,.112.074.352.352,0,0,0,.133.026.335.335,0,0,0,.133-.027.345.345,0,0,0,.112-.075.364.364,0,0,0,.078-.118.425.425,0,0,0,0-.312.363.363,0,0,0-.078-.118.349.349,0,0,0-.112-.075A.336.336,0,0,0,901.123,470.375Z" transform="translate(-900.42 -470.029)" fill="#1a987c"/>
            </g>
            <g id="Group_27899" data-name="Group 27899" transform="translate(0 0)">
              <path id="Path_81256" data-name="Path 81256" d="M450.557,461.165h-.292l.772-2.048h.3l.772,2.048h-.292l-.2-.555h-.861Zm.624-1.725-.335.924h.681l-.335-.924Z" transform="translate(-450.265 -459.094)" fill="#4d4d4d"/>
              <path id="Path_81257" data-name="Path 81257" d="M497.532,470.885a.38.38,0,0,1-.16.309.634.634,0,0,1-.4.126.64.64,0,0,1-.372-.11.607.607,0,0,1-.229-.29l.234-.1a.435.435,0,0,0,.15.2.364.364,0,0,0,.216.07.381.381,0,0,0,.21-.054.154.154,0,0,0,.084-.129q0-.134-.206-.2l-.24-.06q-.409-.1-.409-.395a.365.365,0,0,1,.156-.307.715.715,0,0,1,.735-.027.482.482,0,0,1,.21.237l-.235.1a.294.294,0,0,0-.13-.139.408.408,0,0,0-.2-.05.338.338,0,0,0-.184.051.149.149,0,0,0-.081.126q0,.12.226.172l.212.054Q497.532,470.568,497.532,470.885Z" transform="translate(-493.782 -469.203)" fill="#4d4d4d"/>
              <path id="Path_81258" data-name="Path 81258" d="M520.066,464.847a.4.4,0,0,1-.285-.106.393.393,0,0,1-.116-.295v-.784h-.246v-.24h.246v-.429h.263v.429h.343v.24h-.343v.7a.257.257,0,0,0,.054.19.177.177,0,0,0,.123.05.258.258,0,0,0,.061-.007.324.324,0,0,0,.056-.018l.083.234A.707.707,0,0,1,520.066,464.847Z" transform="translate(-515.541 -462.753)" fill="#4d4d4d"/>
              <path id="Path_81259" data-name="Path 81259" d="M537.882,469.827a.654.654,0,0,1,.461.156.554.554,0,0,1,.169.428v.864h-.252v-.194h-.011a.5.5,0,0,1-.435.24.566.566,0,0,1-.388-.137.438.438,0,0,1-.156-.343.416.416,0,0,1,.165-.346.693.693,0,0,1,.439-.129.779.779,0,0,1,.386.086v-.06a.3.3,0,0,0-.108-.233.373.373,0,0,0-.255-.1.4.4,0,0,0-.349.186l-.232-.146A.647.647,0,0,1,537.882,469.827Zm-.341,1.018a.211.211,0,0,0,.087.172.322.322,0,0,0,.2.069.419.419,0,0,0,.3-.123.385.385,0,0,0,.13-.289.541.541,0,0,0-.343-.1.447.447,0,0,0-.268.077A.23.23,0,0,0,537.542,470.845Z" transform="translate(-532.39 -469.203)" fill="#4d4d4d"/>
              <path id="Path_81260" data-name="Path 81260" d="M564.809,463.422h.252v.229h.012a.472.472,0,0,1,.483-.269l.055.006v.275l-.117-.011a.419.419,0,0,0-.3.113.379.379,0,0,0-.119.287v.772h-.263Zm1.642,1.424a.4.4,0,0,1-.285-.106.393.393,0,0,1-.116-.295v-.784H565.8v-.24h.246v-.429h.263v.429h.343v.24h-.343v.7a.256.256,0,0,0,.054.19.177.177,0,0,0,.123.05.258.258,0,0,0,.061-.007.319.319,0,0,0,.056-.018l.083.234A.709.709,0,0,1,566.451,464.847Z" transform="translate(-558.384 -462.753)" fill="#4d4d4d"/>
              <path id="Path_81261" data-name="Path 81261" d="M603.383,472.045h-.252v-.195h-.011a.468.468,0,0,1-.185.172.531.531,0,0,1-.259.068.518.518,0,0,1-.4-.147.588.588,0,0,1-.139-.419v-.881h.263v.864a.309.309,0,0,0,.346.343.329.329,0,0,0,.263-.127.462.462,0,0,0,.106-.3v-.775h.263Z" transform="translate(-593.623 -469.974)" fill="#4d4d4d"/>
              <path id="Path_81262" data-name="Path 81262" d="M630.626,471.32a.605.605,0,0,1-.282-.066.493.493,0,0,1-.2-.174h-.012l.012.194v.618h-.263v-2.019h.252v.194h.012a.493.493,0,0,1,.2-.174.622.622,0,0,1,.751.152.808.808,0,0,1,0,1.058A.6.6,0,0,1,630.626,471.32Zm-.043-.24a.411.411,0,0,0,.318-.143.516.516,0,0,0,.129-.363.523.523,0,0,0-.129-.363.427.427,0,0,0-.638,0,.591.591,0,0,0,0,.729A.417.417,0,0,0,630.583,471.08Z" transform="translate(-619.81 -469.203)" fill="#4d4d4d"/>
              <path id="Path_81263" data-name="Path 81263" d="M668.769,458.709a.5.5,0,0,1,.235.049l-.072.232a.341.341,0,0,0-.154-.034.206.206,0,0,0-.159.067.255.255,0,0,0-.062.179v.177h.366v.24h-.366v1.161h-.263v-1.161h-.263v-.24h.263v-.2a.449.449,0,0,1,.133-.338A.471.471,0,0,1,668.769,458.709Z" transform="translate(-655.816 -458.709)" fill="#4d4d4d"/>
              <path id="Path_81264" data-name="Path 81264" d="M688.8,471.371h-.263v-1.4h.252v.229h.011a.381.381,0,0,1,.165-.19.457.457,0,0,1,.245-.079.492.492,0,0,1,.194.034l-.08.255a.434.434,0,0,0-.154-.02.341.341,0,0,0-.259.12.4.4,0,0,0-.11.28Z" transform="translate(-675.169 -469.3)" fill="#4d4d4d"/>
              <path id="Path_81265" data-name="Path 81265" d="M704.19,470.574a.742.742,0,0,1,.2-.535.692.692,0,0,1,.518-.212.683.683,0,0,1,.515.212.8.8,0,0,1,0,1.07.684.684,0,0,1-.515.212.693.693,0,0,1-.518-.212A.742.742,0,0,1,704.19,470.574Zm.263,0a.512.512,0,0,0,.132.366.449.449,0,0,0,.652,0,.571.571,0,0,0,0-.729.443.443,0,0,0-.652,0A.509.509,0,0,0,704.453,470.574Z" transform="translate(-689.947 -469.203)" fill="#4d4d4d"/>
              <path id="Path_81266" data-name="Path 81266" d="M734.034,471.274h-.263v-1.4h.252v.194h.011a.47.47,0,0,1,.185-.171.508.508,0,0,1,.247-.069.513.513,0,0,1,.272.071.422.422,0,0,1,.171.2.547.547,0,0,1,.483-.269.474.474,0,0,1,.375.149.619.619,0,0,1,.132.423v.875h-.263v-.835a.451.451,0,0,0-.071-.285.3.3,0,0,0-.24-.087.314.314,0,0,0-.254.129.47.47,0,0,0-.1.3v.775H734.7v-.835a.45.45,0,0,0-.072-.285.3.3,0,0,0-.24-.087.315.315,0,0,0-.255.129.472.472,0,0,0-.1.3Z" transform="translate(-717.869 -469.203)" fill="#4d4d4d"/>
            </g>
          </g>
        </g>
      </g>
      <g id="Group_28081" data-name="Group 28081" transform="translate(1367.139 211.996)">
        <g id="Group_28078" data-name="Group 28078" transform="translate(0 92.589)">
          <path id="Path_81417" data-name="Path 81417" d="M302.7,155.669c-29.513-.532-41.193,36.814-26.025,54.374" transform="translate(-270.028 -155.663)" fill="none" stroke="#eaa105" stroke-miterlimit="10" stroke-width="1" stroke-dasharray="4 2"/>
          <path id="Path_81418" data-name="Path 81418" d="M277.662,204.639a5.66,5.66,0,1,1-6.655,4.448A5.659,5.659,0,0,1,277.662,204.639Z" transform="translate(-270.031 -155.833)" fill="#eaa105"/>
        </g>
        <g id="Group_28079" data-name="Group 28079" transform="translate(167.816 173.543)">
          <path id="Path_81419" data-name="Path 81419" d="M438.43,290.74c28.833,6.318,47.622-28.006,36.2-48.2" transform="translate(-438.43 -236.92)" fill="none" stroke="#aabc95" stroke-miterlimit="10" stroke-width="1" stroke-dasharray="4 2"/>
          <path id="Path_81420" data-name="Path 81420" d="M472.673,247.789a5.66,5.66,0,1,1,7.4-3.055A5.661,5.661,0,0,1,472.673,247.789Z" transform="translate(-438.537 -236.901)" fill="#aabc95"/>
        </g>
        <g id="Group_28080" data-name="Group 28080" transform="translate(61.992 0)">
          <path id="Path_81421" data-name="Path 81421" d="M382.212,109.356C391.375,81.3,359.1,59.178,337.86,68.53" transform="translate(-332.255 -62.763)" fill="none" stroke="#d7e0dd" stroke-miterlimit="10" stroke-width="1" stroke-dasharray="4 2"/>
          <path id="Path_81422" data-name="Path 81422" d="M342.881,71.095a5.66,5.66,0,1,1-2.3-7.667A5.659,5.659,0,0,1,342.881,71.095Z" transform="translate(-332.236 -62.751)" fill="#d7e0dd"/>
        </g>
      </g>
    </g>
    <path id="Icon_awesome-star" data-name="Icon awesome-star" d="M10.263.657,7.851,5.548l-5.4.787A1.183,1.183,0,0,0,1.8,8.352l3.9,3.805-.924,5.375A1.181,1.181,0,0,0,6.5,18.777l4.828-2.538,4.828,2.538a1.182,1.182,0,0,0,1.714-1.245l-.924-5.375,3.9-3.805a1.183,1.183,0,0,0-.654-2.017l-5.4-.787L12.384.657A1.183,1.183,0,0,0,10.263.657Z" transform="translate(1713.559 733.987)" fill="#ffc107"/>
  </g>
</svg>
