<svg xmlns="http://www.w3.org/2000/svg" width="24.75" height="24.75" viewBox="0 0 24.75 24.75"><defs><style>.a{fill:#00c569;}.b{fill:#333;}</style></defs><g transform="translate(0 0)"><g transform="translate(0 0)"><path class="a" d="M24.886,22.819,29.341,20.4a1.238,1.238,0,0,0-1.312-2.1L23.574,20.72a1.238,1.238,0,1,0,1.312,2.1Z" transform="translate(-11.61 -9.147)"/><path class="b" d="M12.375,0A12.375,12.375,0,1,0,24.75,12.375,12.375,12.375,0,0,0,12.375,0Zm0,22.275a9.9,9.9,0,1,1,9.9-9.9A9.9,9.9,0,0,1,12.375,22.275Z"/><path class="b" d="M14.738,13.4a1.238,1.238,0,0,0-1.673,1.822L18.2,20.17a1.238,1.238,0,1,0,1.673-1.822Z" transform="translate(-6.412 -6.616)"/></g></g></svg>