<svg width="50" height="50" viewBox="0 0 50 50" fill="none" xmlns="http://www.w3.org/2000/svg">
<rect width="50" height="50" rx="25" fill="#DBF0D4"/>
<path fill-rule="evenodd" clip-rule="evenodd" d="M25.5495 26.73H27.2624C27.6683 26.73 28.005 26.4 28.005 25.99C28.005 25.57 27.6683 25.24 27.2624 25.24H25.5495V23.51C25.5495 23.1 25.2228 22.77 24.8168 22.77C24.4109 22.77 24.0743 23.1 24.0743 23.51V25.24H22.3713C21.9653 25.24 21.6287 25.57 21.6287 25.99C21.6287 26.4 21.9653 26.73 22.3713 26.73H24.0743V28.46C24.0743 28.87 24.4109 29.2 24.8168 29.2C25.2228 29.2 25.5495 28.87 25.5495 28.46V26.73ZM32.3381 22.0256C32.5708 22.0229 32.8242 22.02 33.0545 22.02C33.302 22.02 33.5 22.22 33.5 22.47V30.51C33.5 32.99 31.5099 35 29.0446 35H21.1733C18.599 35 16.5 32.89 16.5 30.29V19.51C16.5 17.03 18.5 15 20.9653 15H26.2525C26.5099 15 26.7079 15.21 26.7079 15.46V18.68C26.7079 20.51 28.203 22.01 30.0149 22.02C30.4381 22.02 30.8112 22.0232 31.1377 22.0259C31.3917 22.0281 31.6175 22.03 31.8168 22.03C31.9578 22.03 32.1405 22.0279 32.3381 22.0256ZM32.61 20.5662C31.7961 20.5692 30.8367 20.5662 30.1466 20.5592C29.0516 20.5592 28.1496 19.6482 28.1496 18.5422V15.9062C28.1496 15.4752 28.6674 15.2612 28.9635 15.5722C29.4994 16.135 30.236 16.9088 30.9691 17.6789C31.7 18.4467 32.4276 19.211 32.9496 19.7592C33.2387 20.0622 33.0268 20.5652 32.61 20.5662Z" fill="#0FA76F"/>
</svg>
