<svg width="26" height="27" viewBox="0 0 26 27" fill="none" xmlns="http://www.w3.org/2000/svg">
<path fill-rule="evenodd" clip-rule="evenodd" d="M12.9974 3.03906C7.01431 3.03906 2.16406 7.88931 2.16406 13.8724C2.16406 19.8555 7.01431 24.7057 12.9974 24.7057C18.9805 24.7057 23.8307 19.8555 23.8307 13.8724C23.8307 7.88931 18.9805 3.03906 12.9974 3.03906ZM12.9974 4.60745C18.1143 4.60745 22.2623 8.75551 22.2623 13.8724C22.2623 18.9893 18.1143 23.1373 12.9974 23.1373C7.8805 23.1373 3.73245 18.9893 3.73245 13.8724C3.73245 8.75551 7.8805 4.60745 12.9974 4.60745ZM16.2565 9.63072L10.9352 11.296C10.6899 11.3728 10.4978 11.5649 10.421 11.8102L8.75572 17.1315C8.56668 17.7355 9.13427 18.3031 9.73833 18.1141L15.0596 16.4488C15.3049 16.372 15.497 16.1799 15.5738 15.9346L17.2391 10.6133C17.4281 10.0093 16.8605 9.44168 16.2565 9.63072ZM15.2945 11.5742L14.1988 15.0738L10.6992 16.1695L11.795 12.67L15.2945 11.5742Z" fill="#333335"/>
</svg>
