<?xml version="1.0" encoding="utf-8"?>
<!-- Generator: Adobe Illustrator 27.0.0, SVG Export Plug-In . SVG Version: 6.00 Build 0)  -->
<svg version="1.1" id="Layer_1" xmlns="http://www.w3.org/2000/svg" xmlns:xlink="http://www.w3.org/1999/xlink" x="0px" y="0px"
	 viewBox="0 0 323 81.8" style="enable-background:new 0 0 323 81.8;" xml:space="preserve">
<style type="text/css">
	.st0{fill:#D2D2D1;}
	.st1{enable-background:new    ;}
	.st2{fill:#3777BC;}
	.st3{fill:#231F20;}
</style>
<path class="st0" d="M267,66.8c4.7-0.2,9.3-0.3,14-0.4s9.3-0.1,14-0.1s9.3,0,14,0.1l7,0.1c2.3,0.1,4.7,0.1,7,0.2
	c-2.3,0.1-4.7,0.2-7,0.2l-7,0.1c-4.7,0.1-9.3,0.1-14,0.1s-9.3,0-14-0.1S271.7,67.1,267,66.8z"/>
<path class="st0" d="M0,66.8c4.6-0.2,9.2-0.3,13.7-0.4s9.2-0.1,13.7-0.1s9.1,0,13.7,0.1l6.9,0.1c2.3,0.1,4.6,0.1,6.9,0.2
	c-2.3,0.1-4.6,0.2-6.9,0.2l-6.9,0.1c-4.6,0.1-9.2,0.1-13.7,0.1s-9.2,0-13.7-0.1S4.6,67.1,0,66.8z"/>
<g class="st1">
	<path class="st2" d="M28.2,42c-4.9,0-8.8-1.6-11.8-4.8c-2.8-3-4.2-6.7-4.2-11.1c0-3.7,1.1-7,3.2-9.8c3-4,7.3-6,12.9-6
		c3.7,0,7,0.9,9.8,2.6c0-0.6,0-1.1,0.1-1.5c0.2-0.6,0.7-0.9,1.5-0.9l0.2,9.9h-1.6c-0.3-1.1-0.6-2.1-1-3c-1.7-3.8-4.5-5.7-8.3-5.7
		c-1.2,0-2.3,0.2-3.3,0.6c-4.2,1.6-6.2,6.2-6.2,13.7c0,9.6,3.1,14.5,9.3,14.5c0.6,0,1.2,0,1.7-0.1c4-0.6,6.7-3.4,8.2-8.6H40v9.9
		c-0.4,0-0.7,0-0.9-0.1c-0.6-0.2-0.9-0.9-0.8-2.2C35.1,41.1,31.7,42,28.2,42z"/>
	<path class="st2" d="M66.6,20.4l-1-3.2c-0.1-0.3-0.2-0.7-0.4-1c-1.1-2.7-2.9-4.1-5.6-4.1h-6.5v12.7h10.1v1.5H53.1v13.7h6.5
		c0.7,0,1.3-0.1,1.9-0.3c1.8-0.5,3.1-2.1,4-4.8l1-3.2h1.3l-0.2,9.6H42.7v-1.4h4.1V12.2h-4.1v-1.4h24.9l0.2,9.6H66.6z"/>
	<path class="st2" d="M71.6,41.5v-1.4h4.1V12.2h-4.1v-1.4h16.5c2.7,0,5,0.6,6.9,1.9c2.2,1.5,3.4,3.6,3.4,6.1c0,0.9-0.1,1.7-0.4,2.6
		c-1,2.8-3.2,4.6-6.6,5.5l8,13.2h1.1c0.2,0,0.4,0,0.6,0.1c0.4,0.1,0.7,0.5,0.7,1.3L93,41.6l-7.8-14.1H82v12.6h4.1v1.4H71.6z
		 M82,12.2V26h3.8c1.2,0,2.2-0.3,3.2-1c1.7-1.3,2.6-3.3,2.6-6c0-1.1-0.2-2-0.5-3c-1-2.6-2.8-3.8-5.6-3.8H82z"/>
	<path class="st2" d="M108,41.5v-1.4h4.9V12.2h-1.5c-0.7,0-1.3,0.1-1.8,0.3c-1.8,0.5-3.1,2.1-3.9,4.8l-1.3,4.2h-1.5l0.3-10.7H129
		l0.2,10.7h-1.5l-1.3-4.2c-0.1-0.4-0.3-0.9-0.5-1.3c-1.1-2.5-2.8-3.8-5.3-3.8h-1.5v27.9h3.5c0.6,0.1,1.1,0.5,1.3,1.4H108z"/>
	<path class="st2" d="M131.7,41.5v-1.4h4.1V12.2h-4.1v-1.4h14.5v1.4h-4.1v27.9h2.7c0.7,0.1,1.2,0.5,1.4,1.4H131.7z"/>
	<path class="st2" d="M148.8,41.5v-1.4h4.1V12.2h-4.1v-1.4h24.9l0.2,9.8h-1.3l-1-3.4c0,0,0-0.1-0.1-0.1c-1.1-3.3-3-5-5.9-5h-6.5
		v12.7h10.1v1.5h-10.1v13.7h6.1v1.4H148.8z"/>
	<path class="st2" d="M175.7,41.5v-1.4h4.1V12.2h-4.1v-1.4h14.5v1.4H186v27.9h2.7c0.7,0.1,1.2,0.5,1.4,1.4H175.7z"/>
	<path class="st2" d="M209.3,42c-4.9,0-8.8-1.6-11.8-4.8c-2.8-3-4.2-6.7-4.2-11.1c0-3.7,1.1-7,3.2-9.8c3-4,7.3-6,12.9-6
		c3.7,0,7,0.9,9.8,2.6c0-0.6,0-1.1,0.1-1.5c0.2-0.6,0.7-0.9,1.5-0.9l0.2,9.9h-1.6c-0.3-1.1-0.6-2.1-1-3c-1.7-3.8-4.5-5.7-8.3-5.7
		c-1.2,0-2.3,0.2-3.3,0.6c-4.2,1.6-6.2,6.2-6.2,13.7c0,9.6,3.1,14.5,9.3,14.5c0.6,0,1.2,0,1.7-0.1c4-0.6,6.7-3.4,8.2-8.6h1.5v9.9
		c-0.4,0-0.7,0-0.9-0.1c-0.6-0.2-0.9-0.9-0.8-2.2C216.2,41.1,212.9,42,209.3,42z"/>
	<path class="st2" d="M242.2,41.5v-1.4h3.5l-3.8-9.8h-10.3l-3.7,9.8h2.7c0.2,0,0.4,0,0.6,0.1c0.5,0.1,0.7,0.5,0.7,1.3h-9.3v-1.4h3.3
		l11.2-29.3h3.2l12,29.3h1.6c0.2,0,0.4,0,0.6,0.1c0.5,0.1,0.7,0.5,0.7,1.3H242.2z M236.7,16.8l-4.5,12h9.2L236.7,16.8z"/>
	<path class="st2" d="M261.4,41.5v-1.4h4.9V12.2h-1.5c-0.7,0-1.3,0.1-1.8,0.3c-1.8,0.5-3.1,2.1-3.9,4.8l-1.3,4.2h-1.5l0.3-10.7h26.1
		l0.2,10.7h-1.5l-1.3-4.2c-0.1-0.4-0.3-0.9-0.5-1.3c-1.1-2.5-2.8-3.8-5.3-3.8h-1.5v27.9h3.5c0.6,0.1,1.1,0.5,1.3,1.4H261.4z"/>
	<path class="st2" d="M308.9,20.4l-1-3.2c-0.1-0.3-0.2-0.7-0.4-1c-1.1-2.7-2.9-4.1-5.6-4.1h-6.5v12.7h10.1v1.5h-10.1v13.7h6.5
		c0.7,0,1.3-0.1,1.9-0.3c1.8-0.5,3.1-2.1,4-4.8l1-3.2h1.3l-0.2,9.6h-24.9v-1.4h4.1V12.2h-4.1v-1.4h24.9l0.2,9.6H308.9z"/>
</g>
<g class="st1">
	<path class="st3" d="M75.6,67.7c0,1.6-0.3,2.9-0.8,4.1s-1.3,2.1-2.3,2.7s-2.2,1-3.5,1c-2,0-3.6-0.7-4.8-2.1s-1.8-3.3-1.8-5.8v-1.8
		c0-1.6,0.3-2.9,0.8-4.1s1.3-2.1,2.3-2.8s2.2-1,3.5-1s2.5,0.3,3.5,0.9s1.8,1.5,2.3,2.7s0.8,2.5,0.9,4V67.7z M74.1,65.9
		c0-2.1-0.5-3.7-1.4-4.8s-2.2-1.7-3.8-1.7c-1.6,0-2.8,0.6-3.8,1.8s-1.4,2.8-1.4,4.9v1.8c0,2,0.5,3.6,1.4,4.8s2.2,1.8,3.8,1.8
		c1.6,0,2.9-0.6,3.8-1.8s1.4-2.8,1.4-4.9V65.9z"/>
	<path class="st3" d="M88.6,67.3h-8v8h-1.4V58.3h10.6v1.2h-9.1v6.6h8V67.3z"/>
</g>
<g class="st1">
	<path class="st3" d="M100,68.4v6.9h-1.4V58.3h5.8c1.8,0,3.2,0.5,4.2,1.4s1.5,2.2,1.5,3.7c0,1.6-0.5,2.8-1.5,3.7s-2.4,1.3-4.3,1.3
		H100z M100,67.2h4.4c1.4,0,2.5-0.3,3.2-1c0.7-0.7,1.1-1.6,1.1-2.8c0-1.2-0.4-2.1-1.1-2.8c-0.7-0.7-1.8-1.1-3.1-1.1H100V67.2z"/>
</g>
<g class="st1">
	<path class="st3" d="M120.9,70.5h-7.7l-1.8,4.8h-1.5l6.5-17.1h1.4l6.5,17.1h-1.5L120.9,70.5z M113.6,69.3h6.8L117,60L113.6,69.3z"
		/>
</g>
<g class="st1">
	<path class="st3" d="M133.1,68.2h-5v7.1h-1.5V58.3h5.5c1.8,0,3.2,0.4,4.3,1.3c1,0.9,1.5,2.1,1.5,3.7c0,1.1-0.3,2.1-1,2.9
		c-0.6,0.8-1.5,1.4-2.6,1.7l4.3,7.3v0.2h-1.5L133.1,68.2z M128.1,67h4.4c1.2,0,2.2-0.3,2.9-1s1.1-1.6,1.1-2.7c0-1.2-0.4-2.1-1.1-2.8
		c-0.8-0.7-1.8-1-3.2-1h-4.1V67z"/>
</g>
<g class="st1">
	<path class="st3" d="M152.6,59.5h-5.8v15.8h-1.4V59.5h-5.8v-1.2h13.1V59.5z"/>
	<path class="st3" d="M157.1,75.3h-1.4V58.3h1.4V75.3z"/>
	<path class="st3" d="M173.8,70c-0.2,1.8-0.8,3.2-1.9,4.1s-2.5,1.4-4.4,1.4c-1.3,0-2.4-0.3-3.4-0.9s-1.7-1.5-2.3-2.7s-0.8-2.5-0.8-4
		v-2.2c0-1.5,0.3-2.9,0.8-4s1.3-2.1,2.3-2.7s2.1-1,3.4-1c1.8,0,3.3,0.5,4.3,1.5s1.7,2.3,1.8,4.1h-1.5c-0.4-2.9-1.9-4.3-4.7-4.3
		c-1.5,0-2.8,0.6-3.7,1.7c-0.9,1.2-1.4,2.8-1.4,4.8v2.1c0,2,0.4,3.5,1.3,4.7c0.9,1.2,2.1,1.8,3.6,1.8c1.5,0,2.6-0.4,3.4-1.1
		s1.2-1.8,1.4-3.3H173.8z"/>
	<path class="st3" d="M179.1,75.3h-1.4V58.3h1.4V75.3z"/>
</g>
<g class="st1">
	<path class="st3" d="M185.1,68.4v6.9h-1.4V58.3h5.8c1.8,0,3.2,0.5,4.2,1.4s1.5,2.2,1.5,3.7c0,1.6-0.5,2.8-1.5,3.7s-2.4,1.3-4.3,1.3
		H185.1z M185.1,67.2h4.4c1.4,0,2.5-0.3,3.2-1c0.7-0.7,1.1-1.6,1.1-2.8c0-1.2-0.4-2.1-1.1-2.8c-0.7-0.7-1.8-1.1-3.1-1.1h-4.5V67.2z"
		/>
</g>
<g class="st1">
	<path class="st3" d="M206.1,70.5h-7.7l-1.8,4.8h-1.5l6.5-17.1h1.4l6.5,17.1h-1.5L206.1,70.5z M198.8,69.3h6.8l-3.4-9.3L198.8,69.3z
		"/>
</g>
<g class="st1">
	<path class="st3" d="M221.9,59.5h-5.8v15.8h-1.4V59.5h-5.8v-1.2h13.1V59.5z"/>
	<path class="st3" d="M226.4,75.3H225V58.3h1.4V75.3z"/>
	<path class="st3" d="M243.7,67.7c0,1.6-0.3,2.9-0.8,4.1s-1.3,2.1-2.3,2.7s-2.2,1-3.5,1c-2,0-3.6-0.7-4.8-2.1s-1.8-3.3-1.8-5.8v-1.8
		c0-1.6,0.3-2.9,0.8-4.1s1.3-2.1,2.3-2.8s2.2-1,3.5-1s2.5,0.3,3.5,0.9s1.8,1.5,2.3,2.7s0.8,2.5,0.9,4V67.7z M242.2,65.9
		c0-2.1-0.5-3.7-1.4-4.8s-2.2-1.7-3.8-1.7c-1.6,0-2.8,0.6-3.8,1.8s-1.4,2.8-1.4,4.9v1.8c0,2,0.5,3.6,1.4,4.8s2.2,1.8,3.8,1.8
		c1.6,0,2.9-0.6,3.8-1.8s1.4-2.8,1.4-4.9V65.9z"/>
	<path class="st3" d="M260,75.3h-1.4l-9.8-14.6v14.6h-1.5V58.3h1.5l9.8,14.6V58.3h1.4V75.3z"/>
</g>
</svg>
