<svg xmlns="http://www.w3.org/2000/svg" xmlns:xlink="http://www.w3.org/1999/xlink" viewBox="0 0 1333.77 605.91"><defs><style>.cls-1,.cls-10,.cls-11,.cls-12,.cls-13,.cls-14,.cls-15,.cls-16,.cls-17,.cls-18,.cls-19,.cls-20,.cls-21,.cls-22,.cls-23,.cls-24,.cls-25,.cls-26,.cls-27,.cls-28,.cls-29,.cls-30,.cls-31,.cls-32,.cls-33,.cls-34,.cls-35,.cls-36,.cls-37,.cls-38,.cls-39,.cls-40,.cls-41,.cls-42,.cls-43,.cls-44,.cls-45{fill:none;}.cls-2{isolation:isolate;}.cls-3{opacity:0.79;}.cls-4{clip-path:url(#clip-path);}.cls-5{opacity:0.67;}.cls-10,.cls-11,.cls-12,.cls-13,.cls-14,.cls-15,.cls-16,.cls-17,.cls-18,.cls-19,.cls-20,.cls-21,.cls-22,.cls-23,.cls-24,.cls-25,.cls-26,.cls-27,.cls-28,.cls-29,.cls-30,.cls-31,.cls-32,.cls-33,.cls-34,.cls-35,.cls-36,.cls-37,.cls-38,.cls-39,.cls-40,.cls-41,.cls-42,.cls-43,.cls-44,.cls-45,.cls-6,.cls-7,.cls-8,.cls-9{mix-blend-mode:multiply;}.cls-6{fill:url(#Degradado_sin_nombre_213);}.cls-7{fill:url(#Degradado_sin_nombre_213-2);}.cls-8{fill:url(#Degradado_sin_nombre_213-3);}.cls-9{opacity:0.51;fill:url(#Degradado_sin_nombre_213-4);}.cls-10,.cls-11,.cls-12,.cls-13,.cls-14,.cls-15,.cls-16,.cls-17,.cls-18,.cls-19,.cls-20,.cls-21,.cls-22,.cls-23,.cls-24,.cls-25,.cls-26,.cls-27,.cls-28,.cls-29,.cls-30,.cls-31,.cls-32,.cls-33,.cls-34,.cls-35,.cls-36,.cls-37,.cls-38,.cls-39,.cls-40,.cls-41,.cls-42,.cls-43,.cls-44,.cls-45{stroke-miterlimit:10;}.cls-10{stroke:url(#Degradado_sin_nombre_213-5);}.cls-11{stroke:url(#Degradado_sin_nombre_213-6);}.cls-12{stroke:url(#Degradado_sin_nombre_213-7);}.cls-13{stroke:url(#Degradado_sin_nombre_213-8);}.cls-14{stroke:url(#Degradado_sin_nombre_213-9);}.cls-15{stroke:url(#Degradado_sin_nombre_213-10);}.cls-16{stroke:url(#Degradado_sin_nombre_213-11);}.cls-17{stroke:url(#Degradado_sin_nombre_213-12);}.cls-18{stroke:url(#Degradado_sin_nombre_213-13);}.cls-19{stroke:url(#Degradado_sin_nombre_213-14);}.cls-20{stroke:url(#Degradado_sin_nombre_213-15);}.cls-21{stroke:url(#Degradado_sin_nombre_213-16);}.cls-22{stroke:url(#Degradado_sin_nombre_213-17);}.cls-23{stroke:url(#Degradado_sin_nombre_213-18);}.cls-24{stroke:url(#Degradado_sin_nombre_213-19);}.cls-25{stroke:url(#Degradado_sin_nombre_213-20);}.cls-26{stroke:url(#Degradado_sin_nombre_213-21);}.cls-27{stroke:url(#Degradado_sin_nombre_213-22);}.cls-28{stroke:url(#Degradado_sin_nombre_216);}.cls-29{stroke:url(#Degradado_sin_nombre_216-2);}.cls-30{stroke:url(#Degradado_sin_nombre_216-3);}.cls-31{stroke:url(#Degradado_sin_nombre_216-4);}.cls-32{stroke:url(#Degradado_sin_nombre_216-5);}.cls-33{stroke:url(#Degradado_sin_nombre_216-6);}.cls-34{stroke:url(#Degradado_sin_nombre_216-7);}.cls-35{stroke:url(#Degradado_sin_nombre_216-8);}.cls-36{stroke:url(#Degradado_sin_nombre_216-9);}.cls-37{stroke:url(#Degradado_sin_nombre_216-10);}.cls-38{stroke:url(#Degradado_sin_nombre_216-11);}.cls-39{stroke:url(#Degradado_sin_nombre_216-12);}.cls-40{stroke:url(#Degradado_sin_nombre_216-13);}.cls-41{stroke:url(#Degradado_sin_nombre_216-14);}.cls-42{stroke:url(#Degradado_sin_nombre_216-15);}.cls-43{stroke:url(#Degradado_sin_nombre_216-16);}.cls-44{stroke:url(#Degradado_sin_nombre_216-17);}.cls-45{stroke:url(#Degradado_sin_nombre_216-18);}</style><clipPath id="clip-path" transform="translate(290.57 -263.44)"><rect class="cls-1" width="854.85" height="566.65"/></clipPath><linearGradient id="Degradado_sin_nombre_213" x1="-4443.66" y1="924.55" x2="-4364.35" y2="1084.32" gradientTransform="matrix(-0.98, -0.21, 0.21, -0.98, -4080.77, 448)" gradientUnits="userSpaceOnUse"><stop offset="0" stop-color="#fff"/><stop offset="1" stop-color="#e8e8e8"/></linearGradient><linearGradient id="Degradado_sin_nombre_213-2" x1="-4430.36" y1="880.64" x2="-4318.6" y2="1053.47" xlink:href="#Degradado_sin_nombre_213"/><linearGradient id="Degradado_sin_nombre_213-3" x1="-4894.25" y1="1088.93" x2="-4254.61" y2="518.44" xlink:href="#Degradado_sin_nombre_213"/><linearGradient id="Degradado_sin_nombre_213-4" x1="-4887.14" y1="1011.13" x2="-4450.4" y2="635.46" xlink:href="#Degradado_sin_nombre_213"/><linearGradient id="Degradado_sin_nombre_213-5" x1="-4863.05" y1="1309.57" x2="-4162.37" y2="684.64" xlink:href="#Degradado_sin_nombre_213"/><linearGradient id="Degradado_sin_nombre_213-6" x1="-4862.66" y1="1312.77" x2="-4154.92" y2="681.55" xlink:href="#Degradado_sin_nombre_213"/><linearGradient id="Degradado_sin_nombre_213-7" x1="-4862.19" y1="1316.07" x2="-4147.36" y2="678.52" xlink:href="#Degradado_sin_nombre_213"/><linearGradient id="Degradado_sin_nombre_213-8" x1="-4861.55" y1="1319.55" x2="-4139.63" y2="675.67" xlink:href="#Degradado_sin_nombre_213"/><linearGradient id="Degradado_sin_nombre_213-9" x1="-4860.73" y1="1323.22" x2="-4131.72" y2="673.02" xlink:href="#Degradado_sin_nombre_213"/><linearGradient id="Degradado_sin_nombre_213-10" x1="-4859.71" y1="1327.13" x2="-4123.61" y2="670.61" xlink:href="#Degradado_sin_nombre_213"/><linearGradient id="Degradado_sin_nombre_213-11" x1="-4858.45" y1="1331.31" x2="-4115.26" y2="668.46" xlink:href="#Degradado_sin_nombre_213"/><linearGradient id="Degradado_sin_nombre_213-12" x1="-4856.93" y1="1335.77" x2="-4106.65" y2="666.6" xlink:href="#Degradado_sin_nombre_213"/><linearGradient id="Degradado_sin_nombre_213-13" x1="-4855.11" y1="1340.58" x2="-4097.74" y2="665.08" xlink:href="#Degradado_sin_nombre_213"/><linearGradient id="Degradado_sin_nombre_213-14" x1="-4854.47" y1="1344.05" x2="-4090.01" y2="662.24" xlink:href="#Degradado_sin_nombre_213"/><linearGradient id="Degradado_sin_nombre_213-15" x1="-4855.02" y1="1346.2" x2="-4083.47" y2="658.06" xlink:href="#Degradado_sin_nombre_213"/><linearGradient id="Degradado_sin_nombre_213-16" x1="-4855.18" y1="1348.77" x2="-4076.55" y2="654.31" xlink:href="#Degradado_sin_nombre_213"/><linearGradient id="Degradado_sin_nombre_213-17" x1="-4854.97" y1="1351.77" x2="-4069.25" y2="651" xlink:href="#Degradado_sin_nombre_213"/><linearGradient id="Degradado_sin_nombre_213-18" x1="-4854.37" y1="1355.2" x2="-4061.57" y2="648.1" xlink:href="#Degradado_sin_nombre_213"/><linearGradient id="Degradado_sin_nombre_213-19" x1="-4853.42" y1="1359.02" x2="-4053.53" y2="645.61" xlink:href="#Degradado_sin_nombre_213"/><linearGradient id="Degradado_sin_nombre_213-20" x1="-4852.14" y1="1363.21" x2="-4045.17" y2="643.49" xlink:href="#Degradado_sin_nombre_213"/><linearGradient id="Degradado_sin_nombre_213-21" x1="-4850.58" y1="1367.72" x2="-4036.53" y2="641.68" xlink:href="#Degradado_sin_nombre_213"/><linearGradient id="Degradado_sin_nombre_213-22" x1="-4848.8" y1="1372.47" x2="-4027.67" y2="640.11" xlink:href="#Degradado_sin_nombre_213"/><linearGradient id="Degradado_sin_nombre_216" x1="-371.43" y1="-200.41" x2="399.34" y2="-887.85" gradientTransform="matrix(0.98, 0.21, -0.21, 0.98, 152.63, 1226.3)" gradientUnits="userSpaceOnUse"><stop offset="0" stop-color="#fff" stop-opacity="0"/><stop offset="1" stop-color="#e7e7e7"/></linearGradient><linearGradient id="Degradado_sin_nombre_216-2" x1="-370.85" y1="-196.86" x2="407.24" y2="-890.83" xlink:href="#Degradado_sin_nombre_216"/><linearGradient id="Degradado_sin_nombre_216-3" x1="-370.27" y1="-193.31" x2="415.13" y2="-893.81" xlink:href="#Degradado_sin_nombre_216"/><linearGradient id="Degradado_sin_nombre_216-4" x1="-369.64" y1="-189.71" x2="423.11" y2="-896.76" xlink:href="#Degradado_sin_nombre_216"/><linearGradient id="Degradado_sin_nombre_216-5" x1="-368.84" y1="-185.91" x2="431.26" y2="-899.52" xlink:href="#Degradado_sin_nombre_216"/><linearGradient id="Degradado_sin_nombre_216-6" x1="-367.84" y1="-181.89" x2="439.62" y2="-902.06" xlink:href="#Degradado_sin_nombre_216"/><linearGradient id="Degradado_sin_nombre_216-7" x1="-367.08" y1="-178.13" x2="447.74" y2="-904.86" xlink:href="#Degradado_sin_nombre_216"/><linearGradient id="Degradado_sin_nombre_216-8" x1="-368.85" y1="-177.23" x2="453.32" y2="-910.51" xlink:href="#Degradado_sin_nombre_216"/><linearGradient id="Degradado_sin_nombre_216-9" x1="-370.34" y1="-176" x2="459.19" y2="-915.84" xlink:href="#Degradado_sin_nombre_216"/><linearGradient id="Degradado_sin_nombre_216-10" x1="-371.5" y1="-174.4" x2="465.37" y2="-920.81" xlink:href="#Degradado_sin_nombre_216"/><linearGradient id="Degradado_sin_nombre_216-11" x1="-372.32" y1="-172.42" x2="471.91" y2="-925.38" xlink:href="#Degradado_sin_nombre_216"/><linearGradient id="Degradado_sin_nombre_216-12" x1="-372.76" y1="-170.02" x2="478.82" y2="-929.54" xlink:href="#Degradado_sin_nombre_216"/><linearGradient id="Degradado_sin_nombre_216-13" x1="-372.82" y1="-167.19" x2="486.11" y2="-933.27" xlink:href="#Degradado_sin_nombre_216"/><linearGradient id="Degradado_sin_nombre_216-14" x1="-372.49" y1="-163.93" x2="493.79" y2="-936.56" xlink:href="#Degradado_sin_nombre_216"/><linearGradient id="Degradado_sin_nombre_216-15" x1="-371.79" y1="-160.24" x2="501.84" y2="-939.42" xlink:href="#Degradado_sin_nombre_216"/><linearGradient id="Degradado_sin_nombre_216-16" x1="-370.73" y1="-156.16" x2="510.25" y2="-941.9" xlink:href="#Degradado_sin_nombre_216"/><linearGradient id="Degradado_sin_nombre_216-17" x1="-369.35" y1="-151.72" x2="518.97" y2="-944.01" xlink:href="#Degradado_sin_nombre_216"/><linearGradient id="Degradado_sin_nombre_216-18" x1="-367.7" y1="-146.97" x2="527.97" y2="-945.81" xlink:href="#Degradado_sin_nombre_216"/></defs><g class="cls-2"><g id="Layer_2" data-name="Layer 2"><g id="Layer_1-2" data-name="Layer 1"><g class="cls-3"><g class="cls-4"><g class="cls-5"><path class="cls-6" d="M151.93,441.13c174.49-20.84,351.34,74.31,523.4,39.61,86.4-17.43,162.08-66.06,235.25-113.94,21.43-14,51.38-27.76,70.87-11C994.94,367.44,995,387.59,993.7,405a1606.08,1606.08,0,0,1-25.85,191.54c-13.12,66.67-34,137.91-89.93,177.95-54.56,39.1-128.4,38.34-196.07,32.48C450.05,787,223.74,726.42.45,661.24c-22.34-6.53-46.38-14.26-59.79-33-12.74-17.77-12.64-41.92-5.21-62.24C-34.74,484.54,71.74,450.7,151.93,441.13Z" transform="translate(290.57 -263.44)"/><path class="cls-7" d="M180.76,500.75C273.67,513.43,352.19,574.59,441.82,602,553.41,636.16,683,612.32,768.68,535.47c25.76-23.12,47.71-50.65,76.8-69.64s68.95-27.92,99.11-10.14C967.67,469.31,980,495.41,986,521.06c23.19,99.23-32.88,204.09-116.91,263.28s-190.7,79.6-294.51,84c-134.31,5.69-269-12.9-399.88-44.17-57.91-13.83-116.81-30.93-163.95-66.78-42.28-32.16-86.26-96.71-70.54-152.09C-53,581.5-20.72,558.61-.92,545a265.61,265.61,0,0,1,80.39-37.21A255,255,0,0,1,180.76,500.75Z" transform="translate(290.57 -263.44)"/><path class="cls-8" d="M145.07,569.52c63.21-8.23,127.19,9.21,186.78,32s117.26,51.28,179.23,66.72c52.49,13.07,110.22,16,158.57-7.34,52.85-25.48,86-77.61,113.29-128.69S835.72,426.8,881,390c25.79-21,64.72-34.89,92.31-15.78,26.86,18.6,27.46,56.6,25.31,88.58-3.07,45.56-6.18,91.42-17.59,135.63s-31.71,87.16-64.9,119.07c-47.6,45.77-115.7,64-181.32,76.81-200,39.08-410,43.49-607.3-9.73-31-8.37-62.3-18.46-88-37.41-26-19.11-54.58-54.38-34.73-85.36,20.22-31.56,43.93-57.16,78.56-73.87A202.59,202.59,0,0,1,145.07,569.52Z" transform="translate(290.57 -263.44)"/><path class="cls-9" d="M683.28,437C628.13,481.51,575.82,537.78,505,548.28c-62.51,9.27-126-20-188.76-12.2C211.75,549,141.53,658.57,37.15,671.91c-14.94,1.91-30.31,1.76-44.65,6.21s-28,14.94-30.37,29.48c-4,24.43,23.57,41.79,47.24,50.76C82.65,786.13,160,801.88,237.5,814.09c147.57,23.24,297,34,446.32,34.3,66.76.13,137.57-3,192.77-39.37,69.91-46,96.75-132.39,118.83-212,20.65-74.45,45.8-162.82,16.54-238.83-11-28.48-73.85-22-99.78-19.91-39.31,3.22-77.73,13.79-113.77,29.08C756.85,384.94,718.16,408.87,683.28,437Z" transform="translate(290.57 -263.44)"/><path class="cls-10" d="M21.51,455.72c66.33-34.1,148.52-23.85,218.41,3.74S372,530.31,439.43,563.35s144.58,56,217.5,38.7c61-14.5,111.84-55.62,153.27-101.63s75.72-97.87,117.91-143.2c24.29-26.1,58.4-51.82,93.24-41.89" transform="translate(290.57 -263.44)"/><path class="cls-11" d="M1022.62,313.86c-27.51-8.62-55.12,4.68-77.9,23.08A217.94,217.94,0,0,0,928,352c-14.52,14.43-28.18,29.77-41.47,45.45C859.78,429,834.44,462,806.1,492.48c-24.52,26.39-52,51.25-82.7,70.4-22.38,14-46.55,24.85-72.47,31.06-51.21,12.29-104.56,5.28-154.85-12.21a506.9,506.9,0,0,1-63.62-27.62c-29.16-14.9-57.41-31.55-86.18-47.08-35.74-19.3-71.64-36.69-109.06-49.64q-3-1-6-2C161.42,432.2,81,426.72,17.14,463.48" transform="translate(290.57 -263.44)"/><path class="cls-12" d="M1023.88,312.38c-27.34-9.35-55.32,2.64-78.69,20A216.8,216.8,0,0,0,928,346.69c-15.05,13.83-29.24,28.76-43,44.09-27.77,30.9-54,63.48-82.94,93.75-25.09,26.19-53,51-84,70.11-22.57,13.94-47,24.88-73.07,31.2-51.65,12.51-105.5,6-155.91-12.2-21.95-7.91-43.14-17.95-63.54-28.77-29.13-15.48-57.41-32.57-86.65-47.58C302.52,478.63,266,463.5,228.56,452.91q-3-.84-6-1.64c-69.79-18.74-148.44-19.46-209.83,20" transform="translate(290.57 -263.44)"/><path class="cls-13" d="M1025.15,310.91c-27.17-10.08-55.54.58-79.49,16.95a213.21,213.21,0,0,0-17.8,13.57,580,580,0,0,0-44.55,42.73c-28.74,30.21-55.76,62.39-85.41,92.42-25.66,26-53.9,50.65-85.29,69.82-22.78,13.93-47.41,24.91-73.68,31.33-52.08,12.74-106.44,6.66-157-12.18-22-8.19-43.1-18.71-63.47-29.93-29.1-16.06-57.4-33.58-87.13-48.08a494.63,494.63,0,0,0-111.48-39.1q-3-.66-6-1.27C144.18,432.87,67.3,436.91,8.38,479" transform="translate(290.57 -263.44)"/><path class="cls-14" d="M1026.42,309.43c-27-10.81-55.72-1.4-80.28,13.88a216,216,0,0,0-18.36,12.86,528.68,528.68,0,0,0-46.09,41.36c-29.72,29.52-57.59,61.3-87.89,91.1-26.23,25.8-54.86,50.35-86.58,69.54-23,13.91-47.85,24.94-74.29,31.46-52.52,13-107.38,7.34-158-12.17-22-8.48-43.05-19.46-63.38-31.08-29.08-16.65-57.41-34.6-87.62-48.59A419.8,419.8,0,0,0,211.23,444q-3-.47-6-.89C135.56,433.2,60.45,442,4,486.74" transform="translate(290.57 -263.44)"/><path class="cls-15" d="M1027.68,308c-26.82-11.54-55.92-3.44-81.07,10.81a212.4,212.4,0,0,0-18.91,12.14c-16.63,12-32.4,25.68-47.63,40-30.71,28.83-59.41,60.22-90.36,89.78-26.81,25.6-55.83,50.05-87.88,69.25-23.19,13.9-48.28,25-74.9,31.59-52.95,13.19-108.31,8-159.07-12.15-22.07-8.77-43-20.22-63.31-32.23-29.06-17.23-57.41-35.63-88.09-49.09-38-16.72-76.41-25.08-113.9-28.56q-3-.27-6-.51c-69.64-5.44-143,8.12-197,55.52" transform="translate(290.57 -263.44)"/><path class="cls-16" d="M1029,306.48c-26.66-12.27-56.13-5.48-81.87,7.75a205.41,205.41,0,0,0-19.46,11.42c-17.18,11.36-33.46,24.66-49.17,38.62-31.69,28.15-61.24,59.14-92.84,88.47-27.38,25.39-56.79,49.75-89.17,69-23.39,13.89-48.72,25-75.51,31.73-53.38,13.41-109.25,8.73-160.13-12.14-22.11-9-43-21-63.23-33.39-29-17.81-57.41-36.64-88.57-49.59-38.59-16.07-77.6-22.18-115.1-23.28q-3-.09-6-.13c-69.59-1-141.16,17.3-192.67,67.36" transform="translate(290.57 -263.44)"/><path class="cls-17" d="M1030.22,305c-26.49-13-56.35-7.51-82.67,4.69a202.27,202.27,0,0,0-20,10.69C909.83,331.14,893,344,876.82,357.65c-32.66,27.45-63.05,58.05-95.31,87.14-28,25.19-57.75,49.45-90.46,68.67-23.59,13.87-49.16,25-76.12,31.85A253.43,253.43,0,0,1,453.75,533.2c-22.15-9.35-42.92-21.74-63.15-34.55-29-18.4-57.42-37.66-89.06-50.09-39.15-15.43-78.78-19.28-116.31-18-2,.06-4,.15-6,.24C109.71,434.2,39.91,457.29-9.12,510" transform="translate(290.57 -263.44)"/><path class="cls-18" d="M1031.48,303.53c-26.31-13.73-56.56-9.56-83.46,1.61a202.37,202.37,0,0,0-20.57,10c-18.23,10.15-35.56,22.62-52.25,35.9-33.65,26.76-64.88,57-97.79,85.82-28.52,25-58.7,49.15-91.75,68.38-23.8,13.86-49.59,25.06-76.73,32-54.25,13.86-111.12,10.11-162.24-12.1-22.19-9.64-42.87-22.5-63.07-35.7-29-19-57.41-38.68-89.54-50.6-39.72-14.78-80-16.38-117.52-12.74l-6,.63C101.1,434.54,33.06,462.38-13.5,517.76" transform="translate(290.57 -263.44)"/><path class="cls-19" d="M1032.75,302.05c-26.14-14.45-56.78-11.6-84.26-1.45a197.33,197.33,0,0,0-21.12,9.26c-18.75,9.54-36.62,21.6-53.79,34.53-34.63,26.08-66.7,55.89-100.27,84.5-29.09,24.8-59.66,48.85-93,68.09-24,13.85-50,25.1-77.33,32.12-54.7,14.09-112.07,10.81-163.3-12.08-22.23-9.92-42.83-23.25-63-36.86-29-19.56-57.42-39.69-90-51.1-40.3-14.13-81.17-13.47-118.73-7.46-2,.32-4,.65-6,1C92.48,434.87,26.22,467.48-17.88,525.52" transform="translate(290.57 -263.44)"/><path class="cls-20" d="M1034,300.58c-26-15.19-57-13.65-85.06-4.52a194.65,194.65,0,0,0-21.67,8.54C908,313.54,889.61,325.17,872,337.77c-35.6,25.38-68.52,54.8-102.74,83.18-29.67,24.59-60.62,48.54-94.33,67.8A319.87,319.87,0,0,1,596.94,521c-55.13,14.31-113,11.49-164.36-12.07-22.27-10.21-42.78-24-62.91-38-28.93-20.15-57.42-40.71-90.5-51.6-40.86-13.5-82.35-10.57-119.94-2.19q-3,.66-6,1.38c-69.4,16.7-133.89,54.06-175.51,114.76" transform="translate(290.57 -263.44)"/><path class="cls-21" d="M1035.28,299.1c-25.8-15.91-57.21-15.7-85.84-7.58a197.07,197.07,0,0,0-22.24,7.81c-19.78,8.38-38.73,19.56-56.87,31.81C833.74,355.83,800,384.86,765.11,413c-30.24,24.39-61.58,48.24-95.63,67.51a328.85,328.85,0,0,1-78.54,32.38c-55.57,14.54-114,12.19-165.42-12.05-22.3-10.5-42.73-24.77-62.83-39.16-28.9-20.74-57.42-41.73-91-52.11-41.43-12.85-83.54-7.67-121.14,3.08-2,.58-4,1.16-6,1.77C75.24,435.54,12.52,477.67-26.63,541" transform="translate(290.57 -263.44)"/><path class="cls-22" d="M1036.55,297.63C1010.92,281,979.12,279.87,949.91,287a194.81,194.81,0,0,0-22.79,7.1c-20.31,7.77-39.78,18.54-58.41,30.44-37.57,24-72.17,52.64-107.7,80.54-30.81,24.19-62.53,47.94-96.92,67.22a339.09,339.09,0,0,1-79.15,32.52c-56,14.76-114.88,12.87-166.47-12-22.35-10.78-42.69-25.52-62.75-40.31-28.88-21.33-57.42-42.75-91.46-52.61-42-12.21-84.74-4.77-122.36,8.35q-3,1.05-6,2.14C66.63,435.87,5.68,482.76-31,548.78" transform="translate(290.57 -263.44)"/><path class="cls-23" d="M1037.82,296.15c-25.46-17.37-57.65-19.81-87.44-13.72A191,191,0,0,0,927,288.81c-20.83,7.16-40.84,17.51-59.95,29.07-38.55,23.32-74,51.55-110.18,79.22-31.38,24-63.49,47.64-98.21,66.94a350,350,0,0,1-79.76,32.64c-56.44,15-115.82,13.57-167.53-12-22.38-11.07-42.64-26.28-62.67-41.47-28.85-21.9-57.42-43.76-91.94-53.11-42.57-11.56-85.92-1.86-123.56,13.63q-3,1.23-6,2.52C58,436.21-1.17,487.86-35.38,556.54" transform="translate(290.57 -263.44)"/><path class="cls-24" d="M1039.08,294.67c-25.29-18.1-57.87-21.91-88.23-16.78A186,186,0,0,0,927,283.55c-21.36,6.55-41.9,16.49-61.5,27.71-39.53,22.62-75.81,50.46-112.64,77.9-32,23.79-64.46,47.33-99.51,66.64a360.77,360.77,0,0,1-80.37,32.78c-56.87,15.21-116.76,14.26-168.58-12-22.43-11.36-42.6-27-62.6-42.62-28.82-22.49-57.42-44.78-92.42-53.62-43.14-10.91-87.11,1-124.77,18.91-2,.94-4,1.91-6,2.89C49.39,436.54-8,493-39.76,564.29" transform="translate(290.57 -263.44)"/><path class="cls-25" d="M1040.35,293.2c-25.12-18.83-58.08-24-89-19.85a185.08,185.08,0,0,0-24.45,4.94c-21.88,5.95-43,15.46-63,26.34-40.51,21.94-77.63,49.38-115.12,76.58-32.53,23.59-65.42,47-100.8,66.36a372.17,372.17,0,0,1-81,32.9c-57.3,15.44-117.7,14.95-169.64-12-22.46-11.64-42.55-27.79-62.51-43.77-28.8-23.08-57.43-45.8-92.9-54.12-43.71-10.27-88.31,3.94-126,24.17q-3,1.62-6,3.28c-69.16,38.84-124.8,100-154.08,174" transform="translate(290.57 -263.44)"/><path class="cls-26" d="M1041.62,291.72c-24.95-19.56-58.3-26-89.83-22.92a185.86,185.86,0,0,0-25,4.22c-22.41,5.35-44,14.45-64.57,25-41.49,21.25-79.46,48.3-117.6,75.26-33.1,23.39-66.37,46.73-102.09,66.07a384,384,0,0,1-81.59,33C503.2,488,442.31,488,390.25,460.39c-22.51-11.93-42.51-28.55-62.44-44.93-28.77-23.65-57.43-46.81-93.38-54.62-44.28-9.62-89.49,6.85-127.19,29.45q-3,1.8-6,3.66C32.16,437.21-21.71,503.14-48.51,579.8" transform="translate(290.57 -263.44)"/><path class="cls-27" d="M1042.88,290.25c-24.77-20.29-58.5-28.05-90.62-26s-62.89,13.19-91.66,27.11c-79.34,38.4-145.87,98.08-223.46,139.72s-176,63.45-253.95,21.22C328.07,422.42,288.61,363.44,227,351.1c-44.85-9-90.68,9.74-128.4,34.72C26.54,433.51-27.86,506-52.89,587.56" transform="translate(290.57 -263.44)"/><path class="cls-28" d="M856.05,664.93c-73.8,32.5-166.7,20-246.19-9.66s-150.81-74.84-227.65-109.9-164.44-60.25-246.13-44.8C67.7,513.5,11.58,553.49-33.84,598.65S-116.48,695-162.78,739.5c-26.66,25.59-64.39,50.54-103.92,39.6" transform="translate(290.57 -263.44)"/><path class="cls-29" d="M-268.09,780.55c31.24,9.42,62-3.21,87.14-21.11a221.88,221.88,0,0,0,18.4-14.65c16-14.12,30.94-29.18,45.49-44.59,29.31-31.06,57-63.53,88.05-93.45,26.91-25.89,57.18-50.15,91.27-68.57a280.06,280.06,0,0,1,80.8-29.29c57.37-11,117.67-2.48,174.82,16.47a640.38,640.38,0,0,1,72.44,29.5c33.26,15.77,65.54,33.29,98.38,49.68,40.8,20.38,81.74,38.84,124.25,52.88,2.25.75,4.52,1.48,6.78,2.2,79.32,25.18,170.09,32.87,241-2.37" transform="translate(290.57 -263.44)"/><path class="cls-30" d="M-269.47,782c31.06,10.15,62.26-1.15,88.12-18a223,223,0,0,0,19-13.91A637.9,637.9,0,0,0-115,706.9c30.43-30.33,59-62.38,90.88-92C3.39,589.19,34.1,565,68.56,546.61A288.62,288.62,0,0,1,150,517.2c57.85-11.19,118.71-3.15,176,16.48,24.95,8.55,49.11,19.22,72.38,30.66,33.25,16.36,65.58,34.32,98.94,50.2,41.43,19.75,83,36,125.46,47.62q3.39.93,6.78,1.81c79.14,20.73,167.79,23.58,235.88-14.41" transform="translate(290.57 -263.44)"/><path class="cls-31" d="M-270.86,783.46c30.89,10.87,62.56.91,89.1-14.9a224.86,224.86,0,0,0,19.69-13.18,581.8,581.8,0,0,0,49-41.77C-81.49,684-51.92,652.37-19.34,623,8.87,597.51,40,573.47,74.86,555A297.15,297.15,0,0,1,157,525.51c58.34-11.4,119.75-3.81,177.2,16.5,25,8.84,49.08,20,72.33,31.82,33.23,16.94,65.6,35.33,99.49,50.72a630.93,630.93,0,0,0,126.68,42.34c2.25.49,4.51,1,6.76,1.44,79,16.27,165.49,14.28,230.73-26.45" transform="translate(290.57 -263.44)"/><path class="cls-32" d="M-272.25,784.91c30.72,11.6,62.82,2.91,90.08-11.8a229.31,229.31,0,0,0,20.33-12.43A534.94,534.94,0,0,0-111,720.32c32.69-28.89,63.22-60.1,96.54-89.26C14.36,605.83,46,581.9,81.16,563.47A305.94,305.94,0,0,1,164,533.83c58.83-11.62,120.79-4.49,178.39,16.51,25.06,9.12,49.05,20.74,72.27,33,33.22,17.52,65.63,36.35,100.05,51.23a536.73,536.73,0,0,0,127.9,37.07q3.38.55,6.75,1.06c78.79,11.82,163.19,5,225.57-38.48" transform="translate(290.57 -263.44)"/><path class="cls-33" d="M-273.63,786.36c30.54,12.32,63.1,5,91.06-8.69a229.83,229.83,0,0,0,21-11.7c18.4-11.63,35.8-25,52.57-38.94,33.81-28.17,65.3-59,99.37-87.86,29.5-25,61.53-48.83,97.12-67.27A315.21,315.21,0,0,1,171,542.14c59.3-11.83,121.82-5.15,179.57,16.52,25.11,9.42,49,21.51,72.21,34.14,33.21,18.12,65.67,37.38,100.61,51.76,43.29,17.84,86.78,27.29,129.11,31.8q3.38.36,6.75.67c78.62,7.36,160.88-4.3,220.41-50.51" transform="translate(290.57 -263.44)"/><path class="cls-34" d="M-275,787.81c30.37,13.05,63.4,7,92-5.59a225.42,225.42,0,0,0,21.62-11c19-11,37-23.91,54.34-37.53,34.94-27.45,67.38-57.82,102.19-86.47,30.16-24.8,62.62-48.5,98.59-66.94A325,325,0,0,1,178,550.46c59.79-12.05,122.86-5.83,180.76,16.53,25.16,9.71,49,22.26,72.16,35.3,33.19,18.7,65.69,38.4,101.16,52.27,43.92,17.21,88,24.41,130.33,26.53,2.24.11,4.49.21,6.73.29,78.45,2.91,158.59-13.59,215.26-62.54" transform="translate(290.57 -263.44)"/><path class="cls-35" d="M-276.41,789.26c30.2,13.78,63.7,9.08,93-2.48a223.64,223.64,0,0,0,22.26-10.22c19.66-10.34,38.24-22.84,56.12-36.11,36.06-26.73,69.46-56.68,105-85.07,30.8-24.59,63.71-48.18,100.05-66.62a335.08,335.08,0,0,1,84.89-30,321.33,321.33,0,0,1,182,16.55c25.22,10,49,23,72.1,36.45,33.19,19.29,65.72,39.43,101.72,52.8,44.54,16.57,89.3,21.52,131.55,21.25q3.36,0,6.72-.08c78.27-1.55,156.29-22.88,210.09-74.59" transform="translate(290.57 -263.44)"/><path class="cls-36" d="M-277.79,790.71c30,14.51,64,11.14,94,.63a226.45,226.45,0,0,0,22.91-9.48c20.26-9.72,39.45-21.79,57.89-34.7,37.18-26,71.55-55.55,107.84-83.68,31.46-24.36,64.8-47.84,101.52-66.29a345.15,345.15,0,0,1,85.57-30.1c60.76-12.48,124.94-7.17,183.14,16.55,25.27,10.29,48.93,23.79,72,37.62,33.18,19.88,65.76,40.45,102.28,53.31,45.16,15.94,90.56,18.63,132.76,16q3.36-.21,6.71-.47c78.1-6,154-32.17,204.94-86.62" transform="translate(290.57 -263.44)"/><path class="cls-37" d="M-279.18,792.16c29.85,15.24,64.29,13.2,95,3.73a225.26,225.26,0,0,0,23.55-8.74c20.86-9.09,40.67-20.73,59.66-33.28,38.31-25.29,73.63-54.41,110.67-82.28,32.1-24.15,65.89-47.52,103-66a355.58,355.58,0,0,1,86.25-30.22c61.24-12.69,126-7.83,184.33,16.57,25.32,10.58,48.9,24.55,72,38.77,33.16,20.47,65.78,41.48,102.82,53.84,45.79,15.31,91.83,15.74,134,10.71q3.36-.4,6.7-.85C776.66,684,850.43,653,898.52,595.79" transform="translate(290.57 -263.44)"/><path class="cls-38" d="M-280.57,793.61c29.68,16,64.59,15.27,96,6.84a226.12,226.12,0,0,0,24.19-8c21.48-8.47,41.89-19.68,61.44-31.87,39.43-24.57,75.71-53.27,113.5-80.89,32.75-23.93,67-47.18,104.44-65.64a366.35,366.35,0,0,1,86.93-30.33c61.73-12.91,127-8.51,185.53,16.58,25.37,10.87,48.86,25.3,71.92,39.93,33.15,21,65.81,42.5,103.38,54.35,46.42,14.68,93.09,12.86,135.21,5.44q3.35-.59,6.68-1.23C786.36,683.88,858,648,903.24,588.11" transform="translate(290.57 -263.44)"/><path class="cls-39" d="M-281.95,795.06c29.5,16.7,64.89,17.33,96.93,10a229.48,229.48,0,0,0,24.84-7.27c22.06-7.88,43.11-18.62,63.21-30.45,40.55-23.85,77.79-52.13,116.32-79.49,33.41-23.72,68.07-46.86,105.91-65.32A377.73,377.73,0,0,1,212.88,592c62.2-13.12,128.05-9.17,186.71,16.6,25.42,11.16,48.83,26.06,71.86,41.08,33.14,21.64,65.84,43.52,103.94,54.87,47,14,94.35,10,136.42.18,2.24-.52,4.46-1.06,6.68-1.61,77.57-19.37,147.09-60,189.47-122.72" transform="translate(290.57 -263.44)"/><path class="cls-40" d="M-283.34,796.51c29.33,17.43,65.19,19.41,97.92,13A229,229,0,0,0-159.94,803c22.67-7.27,44.32-17.57,65-29,41.68-23.13,79.88-51,119.15-78.1,34.05-23.5,69.15-46.53,107.36-65a390,390,0,0,1,88.31-30.57C282.55,587,349,590.5,407.76,617c25.47,11.45,48.8,26.83,71.81,42.25,33.12,22.23,65.87,44.54,104.49,55.39,47.66,13.41,95.61,7.08,137.64-5.1q3.34-1,6.67-2c77.39-23.83,144.78-69.34,184.31-134.76" transform="translate(290.57 -263.44)"/><path class="cls-41" d="M-284.73,798c29.17,18.16,65.49,21.48,98.9,16.16a228.87,228.87,0,0,0,26.12-5.79c23.28-6.64,45.54-16.51,66.76-27.62,42.8-22.41,82-49.85,122-76.7,34.71-23.29,70.25-46.2,108.83-64.67a402,402,0,0,1,89-30.68C290,595.11,357,598.14,415.93,625.28c25.52,11.74,48.77,27.59,71.75,43.4,33.11,22.82,65.9,45.57,105.05,55.91,48.28,12.78,96.87,4.2,138.86-10.37q3.33-1.15,6.65-2.37c77.22-28.28,142.49-78.63,179.16-146.79" transform="translate(290.57 -263.44)"/><path class="cls-42" d="M-286.12,799.41c29,18.89,65.81,23.6,99.88,19.26a225,225,0,0,0,26.77-5c23.89-6,46.76-15.46,68.53-26.21,43.92-21.69,84-48.71,124.8-75.31,35.35-23.06,71.33-45.87,110.29-64.34A415.58,415.58,0,0,1,233.82,617C297.48,603.21,365,605.79,424.1,633.61c25.58,12,48.74,28.34,71.69,44.56,33.1,23.4,65.93,46.59,105.61,56.43,48.91,12.14,98.13,1.31,140.07-15.64,2.23-.9,4.44-1.82,6.65-2.76,77-32.73,140.18-87.92,174-158.82" transform="translate(290.57 -263.44)"/><path class="cls-43" d="M-287.5,800.86c28.82,19.62,66.1,25.67,100.86,22.37a225.74,225.74,0,0,0,27.41-4.31c24.49-5.39,48-14.39,70.3-24.79,45.05-21,86.13-47.57,127.62-73.91,36-22.85,72.42-45.54,111.76-64a428,428,0,0,1,90.35-30.91c64.15-14,132.21-11.86,191.47,16.64C457.9,654.26,481,671,503.91,687.66c33.08,24,66,47.61,106.16,56.94,49.53,11.51,99.38-1.58,141.29-20.91q3.33-1.55,6.63-3.13c76.87-37.2,137.89-97.22,168.85-170.86" transform="translate(290.57 -263.44)"/><path class="cls-44" d="M-288.89,802.31c28.65,20.34,66.4,27.73,101.84,25.48A228.25,228.25,0,0,0-159,824.22c25.11-4.77,49.19-13.34,72.08-23.38,46.17-20.25,88.21-46.43,130.45-72.52,36.65-22.63,73.51-45.21,113.22-63.69a442,442,0,0,1,91-31c64.63-14.19,133.25-12.52,192.66,16.66,25.68,12.61,48.68,29.87,71.58,46.88,33.07,24.58,66,48.64,106.72,57.47,50.15,10.87,100.64-4.47,142.5-26.19q3.35-1.73,6.63-3.51C844.56,683.26,903.45,618.4,931.56,542" transform="translate(290.57 -263.44)"/><path class="cls-45" d="M-290.28,803.76c28.48,21.07,66.69,29.79,102.82,28.58s70.51-11.56,102.55-24.79c88.34-36.48,161.68-94.7,248-134.49S359.68,614,448.61,658.59c62.93,31.55,109,91.94,178.79,106,50.78,10.25,101.91-7.35,143.73-31.45,79.86-46,139.18-117.44,165.15-198.82" transform="translate(290.57 -263.44)"/></g></g></g></g></g></g></svg>