<svg width="30" height="31" viewBox="0 0 30 31" fill="none" xmlns="http://www.w3.org/2000/svg">
<path fill-rule="evenodd" clip-rule="evenodd" d="M18.1364 15.4702L16.0911 17.5231V4.74219L16.0826 4.61497C16.0205 4.15738 15.6283 3.80469 15.1536 3.80469C14.6359 3.80469 14.2161 4.22442 14.2161 4.74219V17.5183L12.1749 15.4702L12.07 15.3792C11.7035 15.1062 11.1826 15.1354 10.8491 15.4675C10.4822 15.8329 10.481 16.4265 10.8464 16.7933L14.4419 20.4037C14.6138 20.604 14.8689 20.7309 15.1536 20.7309C15.3715 20.7309 15.5721 20.6566 15.7312 20.5319C15.762 20.5079 15.7917 20.4817 15.8199 20.4533L19.4649 16.7933L19.5555 16.688C19.827 16.3204 19.7957 15.7997 19.4622 15.4675L19.3569 15.377C18.9893 15.1054 18.4685 15.1367 18.1364 15.4702ZM22.3854 26.8945C25.3197 26.7586 27.6563 24.3372 27.6563 21.3693V15.2643L27.6502 15.0032C27.514 12.062 25.088 9.72052 22.1138 9.72052H20.9475L20.8203 9.72908C20.3627 9.79115 20.01 10.1834 20.01 10.658C20.01 11.1758 20.4297 11.5955 20.9475 11.5955H22.1138L22.3293 11.6017C24.255 11.7133 25.7813 13.3096 25.7813 15.2643V21.3693L25.775 21.5841C25.6639 23.5038 24.0726 25.0255 22.125 25.0255H8.2L7.98446 25.0193C6.05877 24.9077 4.53125 23.3104 4.53125 21.3568L4.53125 15.2505L4.53746 15.0358C4.6487 13.1175 6.2408 11.5955 8.1875 11.5955H9.365L9.49221 11.587C9.94981 11.5249 10.3025 11.1326 10.3025 10.658C10.3025 10.1403 9.88277 9.72052 9.365 9.72052H8.1875L7.91956 9.7269C4.98976 9.86667 2.65625 12.2865 2.65625 15.2505V21.3568L2.66228 21.6177C2.79856 24.5581 5.22596 26.9005 8.2 26.9005H22.125L22.3854 26.8945Z" fill="white"/>
</svg>
