<svg id="SvgjsSvg1001" width="288" height="288" xmlns="http://www.w3.org/2000/svg" version="1.1" xmlns:xlink="http://www.w3.org/1999/xlink" xmlns:svgjs="http://svgjs.com/svgjs"><defs id="SvgjsDefs1002"></defs><g id="SvgjsG1008"><svg xmlns="http://www.w3.org/2000/svg" enable-background="new 0 0 91 91" viewBox="0 0 91 91" width="288" height="288"><path d="M80.062,19.903c1.646-2.074,0.139-4.716-1.973-5.376c0.009-0.002,0.016-0.004,0.022-0.004   c-0.021-0.004-0.04-0.004-0.062-0.009c-0.782-0.235-1.644-0.191-2.454,0.249c-2.168,0.839-22.981,22.161-26.263,25.579   c-1.792,1.865-5.254,4.62-3.589,7.533c0.305,0.535,12.856,12.496,16.262,15.809c4.669,4.541,9.112,9.725,14.438,13.499   c1.306,0.927,2.971-0.874,2.16-2.162c-3.948-6.266-24.997-28.543-25.339-28.934C54.313,45.047,79.202,21.57,80.062,19.903z" fill="#ffffff" class="color000 svgShape"></path><path d="M51.476,0.717c-3.154,1.191-32.299,31.116-37.038,35.986c-2.691,2.769-7.148,6.22-6.431,10.486   c0.189,1.117,1.031,2.097,2.023,2.728c0.367,0.375,34.475,34.777,42.558,40.507c1.877,1.332,4.268-1.257,3.104-3.104   c-5.551-8.81-35.755-40.814-36.414-41.531c1.397-1.384,37.272-35.233,38.53-37.656c2.339-2.993,0.142-6.791-2.905-7.709   l0.123-0.033C54.872,0.361,52.502,0.192,51.476,0.717z" fill="#ffffff" class="color000 svgShape"></path></svg></g></svg>