<svg width="212" height="259" viewBox="0 0 212 259" fill="none" xmlns="http://www.w3.org/2000/svg">
<path d="M0 26.6083C0 23.0057 2.92048 20.0852 6.52308 20.0852H205.477C209.08 20.0852 212 23.0057 212 26.6083V152.178H0V26.6083Z" fill="white"/>
<path d="M0 182.067V156.867V151.177H106V258.808C21.8473 240.924 0 205.642 0 182.067Z" fill="white"/>
<path d="M212 182.067V156.867V151.177H106V258.808C190.153 240.924 212 205.642 212 182.067Z" fill="white"/>
<circle cx="106" cy="47.8083" r="47.2923" fill="white"/>
<mask id="mask0_93_10479" style="mask-type:luminance" maskUnits="userSpaceOnUse" x="65" y="7" width="83" height="104">
<path d="M65.4492 110.778H147.734V7.03819H65.4492V110.778Z" fill="white"/>
</mask>
<g mask="url(#mask0_93_10479)">
<path d="M147.71 47.3666H140.673C140.225 28.9062 125.117 14.077 106.552 14.077C87.9881 14.077 72.8797 28.9062 72.4324 47.3666H65.4485C65.8689 25.1738 84.1579 7.03975 106.583 7.03975C129.001 7.00197 147.307 24.9515 147.71 47.3666Z" fill="#1C484D"/>
<path d="M103.699 81.9938V89.2125C82.7215 87.7633 66.0753 70.5745 65.4785 49.3769H72.5458C72.9323 60.8109 79.1677 71.2288 88.5166 77.0598C87.9556 75.3355 87.5583 73.4051 87.5583 71.5033V25.5042H94.6178V54.0837H101.678V61.1468H94.6178V71.5033C94.6178 75.8526 97.3542 79.6078 101.045 81.3431C101.88 81.7277 102.781 81.9483 103.699 81.9938Z" fill="#94C950"/>
<path d="M147.734 49.0481C147.428 64.4549 138.659 77.7846 125.888 84.5868V72.9222C125.888 72.586 125.864 72.2901 125.864 71.9573C125.864 65.9619 120.915 61.1528 114.922 61.1528H103.695V54.0922H112.956C118.947 54.0922 123.823 49.324 123.823 43.3322C123.823 37.3402 118.947 32.572 112.956 32.572H96.6335V25.5102H112.956C122.854 25.5102 130.912 33.4663 130.912 43.3686C130.912 48.8361 128.453 53.6682 124.586 56.9533C128.746 59.6103 131.94 63.1705 132.276 70.5684C138.329 63.8431 140.683 54.7643 140.683 49.0481H147.734Z" fill="#94C950"/>
<path d="M69.6316 98.5525H66.773C66.6793 98.5525 66.5974 98.4905 66.5718 98.4005L65.6636 95.2162C65.6319 95.1056 65.6964 94.9898 65.8069 94.9581C65.8258 94.9526 65.8453 94.9501 65.8647 94.9501H76.7828C76.877 94.9501 76.9595 95.0128 76.9845 95.104L77.8619 98.2882C77.8922 98.3994 77.8272 98.5141 77.7161 98.5452C77.6977 98.55 77.6788 98.553 77.6602 98.553H74.1623C74.0461 98.553 73.9528 98.6466 73.9528 98.7619V110.569C73.9528 110.684 73.8592 110.777 73.7436 110.777H70.0503C69.9347 110.777 69.8411 110.684 69.8411 110.569V98.7619C69.8411 98.6461 69.7478 98.5525 69.6316 98.5525Z" fill="#343333"/>
<path d="M85.0314 104.729L83.7531 102.541C83.6947 102.442 83.5666 102.407 83.4669 102.466C83.4358 102.484 83.4105 102.51 83.3921 102.54L82.1041 104.728C82.0458 104.828 82.0791 104.956 82.1783 105.015C82.2105 105.034 82.2475 105.044 82.2844 105.044H84.8508C84.9664 105.044 85.06 104.95 85.06 104.835C85.06 104.798 85.0503 104.761 85.0314 104.729ZM86.797 107.967H80.3374C80.2632 107.967 80.194 108.006 80.1568 108.07L78.6353 110.674C78.5978 110.738 78.5292 110.777 78.4545 110.777H74.6948C74.5792 110.777 74.4856 110.684 74.4856 110.568C74.4856 110.531 74.4948 110.495 74.5131 110.464L83.3916 95.0417C83.4494 94.9417 83.5769 94.907 83.6772 94.9648C83.7092 94.9837 83.7353 95.0098 83.7542 95.0417L92.6204 110.464C92.6782 110.564 92.6438 110.692 92.5435 110.75C92.5118 110.768 92.476 110.777 92.4396 110.777H88.6793C88.6052 110.778 88.5357 110.739 88.4987 110.674L86.9773 108.07C86.9398 108.006 86.8712 107.967 86.7965 107.967" fill="#343333"/>
<path d="M102.854 110.777H93.5761C93.4608 110.777 93.3672 110.684 93.3672 110.569V95.1695C93.3672 95.054 93.4608 94.9606 93.5761 94.9601L97.2697 94.9503C97.385 94.9495 97.4786 95.0431 97.4791 95.1593V106.954C97.4791 107.07 97.5728 107.164 97.6884 107.164H103.825C103.941 107.164 104.035 107.257 104.035 107.373C104.035 107.393 104.032 107.414 104.026 107.433L103.054 110.629C103.027 110.717 102.946 110.777 102.854 110.777Z" fill="#343333"/>
<path d="M109.306 102.523C109.306 102.641 109.402 102.735 109.519 102.734H109.521C110.119 102.72 110.622 102.643 111.031 102.503C111.453 102.374 111.823 102.112 112.083 101.755C112.326 101.413 112.448 100.971 112.449 100.428C112.449 99.61 112.189 99.0524 111.669 98.7546C111.178 98.4781 110.462 98.33 109.521 98.3106C109.403 98.3092 109.308 98.4028 109.306 98.5201V98.5215L109.306 102.523ZM105.194 110.537V95.1608C105.194 95.0449 105.287 94.9513 105.403 94.9513H109.861C111.184 94.9513 112.354 95.1146 113.37 95.4422C114.37 95.7617 115.154 96.286 115.722 97.0145C116.281 97.7435 116.56 98.6843 116.561 99.8367C116.556 100.701 116.301 101.545 115.828 102.268C115.425 102.933 114.824 103.456 114.108 103.762C114.001 103.806 113.949 103.928 113.992 104.036C113.995 104.045 114 104.055 114.006 104.064L117.847 110.451C117.907 110.55 117.875 110.679 117.776 110.738C117.743 110.758 117.706 110.768 117.668 110.768H113.352C113.276 110.768 113.206 110.727 113.169 110.659L109.353 103.674H109.306V110.537C109.306 110.652 109.212 110.746 109.096 110.746H105.403C105.287 110.746 105.194 110.652 105.194 110.537Z" fill="#343333"/>
<path d="M124.006 99.0691C122.7 99.9004 121.901 101.335 121.883 102.883C121.884 103.642 122.084 104.387 122.464 105.043C122.829 105.72 123.36 106.291 124.006 106.707C125.295 107.54 126.953 107.54 128.242 106.707C128.89 106.29 129.423 105.718 129.795 105.043C130.555 103.703 130.555 102.062 129.795 100.721C129.427 100.05 128.897 99.4822 128.253 99.0691C127.62 98.6615 126.882 98.444 126.13 98.4445C125.376 98.4404 124.637 98.6571 124.006 99.0691ZM130.091 96.061C131.286 96.7445 132.281 97.7313 132.974 98.9207C133.682 100.121 134.05 101.49 134.041 102.883C134.053 104.273 133.684 105.639 132.974 106.835C131.553 109.265 128.944 110.754 126.129 110.744C123.311 110.751 120.702 109.263 119.274 106.835C118.564 105.639 118.195 104.273 118.207 102.883C118.198 101.49 118.566 100.121 119.274 98.9207C119.974 97.7319 120.971 96.7458 122.168 96.0604C124.624 94.6624 127.635 94.6624 130.091 96.0604" fill="#343333"/>
<path d="M139.811 98.5161V101.5C139.811 101.615 139.905 101.709 140.02 101.709H140.993C141.749 101.709 142.332 101.56 142.742 101.263C143.143 100.972 143.344 100.549 143.344 99.9914C143.344 99.4488 143.143 99.032 142.742 98.7422C142.332 98.4516 141.75 98.3066 140.993 98.3066H140.021C139.905 98.3066 139.811 98.4008 139.811 98.5161ZM135.688 110.568V95.1587C135.688 95.0431 135.781 94.9495 135.897 94.9495H140.698C141.816 94.9495 142.769 95.0317 143.557 95.1951C144.297 95.3329 145.003 95.6138 145.637 96.0203C146.222 96.4104 146.689 96.9546 146.983 97.5931C147.298 98.2549 147.456 99.0617 147.456 100.014C147.468 100.74 147.307 101.46 146.983 102.11C146.668 102.728 146.22 103.269 145.672 103.694C145.076 104.156 144.398 104.5 143.675 104.709C142.89 104.948 142.073 105.068 141.253 105.066H140.021C139.905 105.066 139.811 105.16 139.811 105.275V105.276V110.569C139.811 110.684 139.718 110.777 139.602 110.777H135.897C135.781 110.777 135.688 110.684 135.688 110.569" fill="#343333"/>
</g>
<path d="M56.3188 124.612H78.7965V131.755H71.6148V152.486H63.5006V131.755H56.3188V124.612Z" fill="#EA2427"/>
<path d="M100.337 124.612V131.522H89.1952V135.132H98.2407V141.81H89.1952V145.576H100.997V152.486H81.1594V124.612H100.337Z" fill="#EA2427"/>
<path d="M116.231 152.949C107.574 152.949 101.712 146.427 101.712 138.507C101.712 130.626 107.341 124.143 116.581 124.143C121.55 124.143 126.247 126.395 128.693 131.519L122.559 136.061C121.434 133.266 118.6 131.791 116.425 131.791C112.31 131.791 110.019 134.742 110.019 138.507C110.019 142.311 112.465 145.302 116.037 145.302C118.444 145.302 120.696 144.059 122.443 141.03L128.732 145.573C126.364 150.076 121.511 152.949 116.231 152.949Z" fill="#EA2427"/>
<path d="M139.487 124.615V134.476H147.717V124.615H155.831V152.489H147.717V141.774H139.487V152.489H131.374V124.615H139.487Z" fill="#EA2427"/>
<path d="M58.2199 180.335C57.6184 180.335 56.7429 180.608 56.7429 181.456C56.7429 182.139 58.1374 182.659 59.7238 183.315C62.9784 184.656 65.5764 185.858 65.5764 189.441C65.5764 192.997 62.5413 195.595 58.2749 195.595C54.9384 195.595 51.9294 193.927 50.48 191.547L54.1449 188.266C55.2385 189.715 56.8524 190.562 58.2199 190.562C59.341 190.562 59.8883 190.235 59.8883 189.578C59.8883 188.621 58.5208 188.457 55.758 187.253C52.3945 185.777 51.0545 184.136 51.0545 181.565C51.0545 177.9 54.0629 175.302 58.2749 175.302C61.2825 175.302 63.7438 176.67 65.1113 179.049L61.1188 182.222C60.3534 180.991 59.3685 180.335 58.2199 180.335Z" fill="#1C484D"/>
<path d="M76.8108 195.595C70.7117 195.595 66.5823 191 66.5823 185.421C66.5823 179.869 70.5478 175.302 77.0566 175.302C80.5568 175.302 83.8667 176.889 85.5892 180.498L81.2683 183.698C80.4757 181.73 78.4792 180.69 76.9472 180.69C74.0483 180.69 72.4343 182.768 72.4343 185.421C72.4343 188.101 74.1577 190.207 76.6738 190.207C78.3697 190.207 79.9553 189.333 81.1867 187.198L85.6167 190.399C83.9486 193.571 80.5293 195.595 76.8108 195.595Z" fill="#1C484D"/>
<path d="M93.1969 175.628V182.574H98.9948V175.628H104.711V195.265H98.9948V187.716H93.1969V195.265H87.4805V175.628H93.1969Z" fill="#1C484D"/>
<path d="M112.999 185.448C112.999 188.156 114.64 190.316 117.484 190.316C120.328 190.316 121.969 188.156 121.969 185.448C121.969 182.741 120.328 180.581 117.484 180.581C114.64 180.581 112.999 182.741 112.999 185.448ZM127.822 185.448C127.822 191.028 123.665 195.595 117.456 195.595C111.249 195.595 107.146 191.028 107.146 185.448C107.146 179.869 111.276 175.302 117.484 175.302C123.692 175.302 127.822 179.869 127.822 185.448Z" fill="#1C484D"/>
<path d="M134.772 185.448C134.772 188.156 136.414 190.316 139.257 190.316C142.101 190.316 143.743 188.156 143.743 185.448C143.743 182.741 142.101 180.581 139.257 180.581C136.414 180.581 134.772 182.741 134.772 185.448ZM149.595 185.448C149.595 191.028 145.438 195.595 139.23 195.595C133.022 195.595 128.919 191.028 128.919 185.448C128.919 179.869 133.049 175.302 139.257 175.302C145.465 175.302 149.595 179.869 149.595 185.448Z" fill="#1C484D"/>
<path d="M152.033 175.628H157.749V190.232H164.969V195.265H152.033V175.628Z" fill="#1C484D"/>
<path d="M14.4642 27.4796C11.8789 27.4796 9.78296 29.575 9.78296 32.16V110.554H19.1454V36.8415H61.4647L57.9515 27.4796H14.4642Z" fill="url(#paint0_linear_93_10479)"/>
<path d="M155.215 27.4796L151.701 36.8415H194.021V110.554H203.384L203.384 110.553V32.16C203.384 29.575 201.288 27.4796 198.702 27.4796H155.215Z" fill="url(#paint1_linear_93_10479)"/>
<path d="M194.331 161.387V182.799C194.331 191.189 187.38 201.766 175.738 211.093C160.122 223.604 136.336 234.112 106.901 241.514C77.4666 234.112 53.6806 223.604 38.0646 211.093C26.4222 201.766 19.4716 191.189 19.4716 182.799V161.387H10.1092H10.1089V182.799C10.1089 194.172 18.1644 207.147 32.2106 218.4C49.0758 231.911 74.5149 243.144 105.776 250.883C106.145 250.974 106.523 251.02 106.901 251.02C107.279 251.02 107.656 250.974 108.026 250.883C139.287 243.144 164.726 231.911 181.592 218.4C195.638 207.147 203.693 194.172 203.693 182.799V161.387L203.693 161.387H194.331Z" fill="url(#paint2_linear_93_10479)"/>
<path d="M107.713 207.326L110.212 212.389C110.395 212.76 110.748 213.016 111.158 213.076L116.745 213.888C117.775 214.037 118.187 215.303 117.441 216.029L113.398 219.97C113.102 220.259 112.967 220.675 113.036 221.082L113.992 226.647C114.167 227.673 113.09 228.455 112.169 227.971L107.172 225.343C106.806 225.151 106.369 225.151 106.003 225.343L101.005 227.971C100.084 228.455 99.0079 227.673 99.1835 226.647L100.138 221.082C100.208 220.675 100.073 220.259 99.777 219.97L95.7339 216.029C94.9885 215.303 95.4 214.037 96.4296 213.888L102.017 213.076C102.426 213.016 102.78 212.76 102.962 212.389L105.462 207.326C105.922 206.393 107.253 206.393 107.713 207.326Z" fill="#F0BA44"/>
<path d="M142.681 200.205L145.18 205.268C145.363 205.639 145.716 205.896 146.125 205.955L151.713 206.767C152.743 206.917 153.154 208.182 152.409 208.909L148.365 212.85C148.07 213.138 147.935 213.554 148.004 213.961L148.959 219.526C149.135 220.552 148.058 221.334 147.137 220.85L142.139 218.223C141.773 218.03 141.337 218.03 140.971 218.223L135.973 220.85C135.052 221.334 133.976 220.552 134.151 219.526L135.106 213.961C135.176 213.554 135.041 213.138 134.744 212.85L130.702 208.909C129.956 208.182 130.368 206.917 131.397 206.767L136.985 205.955C137.394 205.896 137.748 205.639 137.93 205.268L140.43 200.205C140.89 199.272 142.22 199.272 142.681 200.205Z" fill="#F0BA44"/>
<path d="M72.7438 200.205L75.2424 205.268C75.4255 205.639 75.7789 205.896 76.1881 205.955L81.7757 206.767C82.8056 206.917 83.2171 208.182 82.4714 208.909L78.4281 212.85C78.1324 213.138 77.9974 213.554 78.0669 213.961L79.0221 219.526C79.1977 220.552 78.1208 221.334 77.1997 220.85L72.2021 218.223C71.8361 218.03 71.3997 218.03 71.0335 218.223L66.0355 220.85C65.1145 221.334 64.0384 220.552 64.214 219.526L65.1689 213.961C65.2387 213.554 65.1034 213.138 64.8075 212.85L60.7644 208.909C60.019 208.182 60.4305 206.917 61.4601 206.767L67.0479 205.955C67.4569 205.896 67.8103 205.639 67.9929 205.268L70.4923 200.205C70.9526 199.272 72.2832 199.272 72.7438 200.205Z" fill="#F0BA44"/>
<path d="M106.997 162.053C106.445 162.053 105.96 162.296 105.541 162.78C105.144 163.244 104.946 163.795 104.968 164.39C104.99 165.184 105.586 165.933 106.401 165.933C106.952 165.933 107.415 165.691 107.812 165.206C108.208 164.721 108.407 164.169 108.407 163.553C108.407 162.671 107.856 162.053 106.997 162.053ZM111.604 159.628L110.656 165.161C110.546 165.933 110.766 166.33 111.339 166.33C111.934 166.33 112.508 165.977 113.037 165.272C113.588 164.545 113.852 163.663 113.852 162.604C113.852 160.907 113.235 159.496 112.023 158.372C110.811 157.225 109.245 156.653 107.349 156.653C105.343 156.653 103.623 157.38 102.146 158.834C100.691 160.289 99.9634 162.031 99.9634 164.037C99.9634 166.043 100.625 167.719 101.926 169.086C103.227 170.452 104.99 171.136 107.195 171.136C108.694 171.136 110.523 170.562 111.824 169.593L112.728 170.959C112.132 171.51 111.295 171.951 110.215 172.304C109.135 172.656 108.143 172.833 107.195 172.833C104.571 172.833 102.411 171.995 100.735 170.32C99.0602 168.645 98.2219 166.551 98.2219 164.059C98.2219 161.546 99.1046 159.407 100.889 157.644C102.675 155.88 104.836 154.998 107.327 154.998C109.664 154.998 111.626 155.726 113.213 157.159C114.8 158.592 115.594 160.4 115.594 162.582C115.594 164.28 115.131 165.691 114.205 166.771C113.301 167.851 112.199 168.38 110.942 168.38C109.884 168.38 108.826 167.851 108.451 167.146C107.9 167.873 106.732 168.403 105.828 168.403C104.814 168.403 103.954 168.005 103.271 167.234C102.587 166.44 102.234 165.558 102.234 164.61C102.234 163.221 102.675 162.031 103.535 161.039C104.395 160.025 105.475 159.518 106.754 159.518C107.569 159.518 108.517 159.959 108.804 160.664L109.002 159.628H111.604Z" fill="#1C484D"/>
<defs>
<linearGradient id="paint0_linear_93_10479" x1="144.94" y1="294.626" x2="33.0849" y2="63.7766" gradientUnits="userSpaceOnUse">
<stop stop-color="#1C494E"/>
<stop offset="1" stop-color="#95C950"/>
</linearGradient>
<linearGradient id="paint1_linear_93_10479" x1="259.878" y1="238.943" x2="148.023" y2="8.09309" gradientUnits="userSpaceOnUse">
<stop stop-color="#1C494E"/>
<stop offset="1" stop-color="#95C950"/>
</linearGradient>
<linearGradient id="paint2_linear_93_10479" x1="137.502" y1="269.359" x2="25.6476" y2="38.51" gradientUnits="userSpaceOnUse">
<stop stop-color="#1C494E"/>
<stop offset="1" stop-color="#95C950"/>
</linearGradient>
</defs>
</svg>
