<svg xmlns="http://www.w3.org/2000/svg" width="17.194" height="17.194" viewBox="0 0 17.194 17.194"><defs><style>.a{fill:#fff;stroke:#fff;stroke-width:0.8px;}</style></defs><path class="a" d="M-10.049-1.857a8.206,8.206,0,0,1,8.2-8.2.618.618,0,0,1,.618.618.618.618,0,0,1-.618.618A6.969,6.969,0,0,0-8.813-1.857,6.969,6.969,0,0,0-1.851,5.1,6.968,6.968,0,0,0,5.109-1.857a.618.618,0,0,1,.618-.618.618.618,0,0,1,.619.618,8.207,8.207,0,0,1-8.2,8.2A8.206,8.206,0,0,1-10.049-1.857ZM-2.78,1.088a.563.563,0,0,1-.4-.182l-2.827-3.07a.562.562,0,0,1,.033-.794.562.562,0,0,1,.794.033L-2.751-.283,3.987-7a.56.56,0,0,1,.794,0,.561.561,0,0,1,0,.794L-2.372.924a.561.561,0,0,1-.4.164Z" transform="translate(10.449 10.454)"/></svg>