<svg xmlns="http://www.w3.org/2000/svg" width="35" height="35" viewBox="0 0 35 35"><defs><style>.a,.d{fill:none;}.a{stroke:#fff;stroke-width:1.5px;}.b{fill:#fff;}.c{stroke:none;}</style></defs><g transform="translate(-990.84 -666.84)"><g transform="translate(991 667)"><g transform="translate(0 0)"><g class="a" transform="translate(-0.16 -0.16)"><rect class="c" width="35" height="35" rx="17.5"/><rect class="d" x="0.75" y="0.75" width="33.5" height="33.5" rx="16.75"/></g></g><g transform="translate(9.304 9.304)"><path class="b" d="M6.219,109.751a2.972,2.972,0,0,0-3.02,2.912v7.024H1.955A1.922,1.922,0,0,1,0,117.8v-9.249a1.922,1.922,0,0,1,1.955-1.886h8.886a1.922,1.922,0,0,1,1.95,1.886v1.2Zm0,0" transform="translate(0 -106.67)"/><path class="b" d="M139.37,10.45a1.92,1.92,0,0,1-1.953,1.884h-7.461A1.919,1.919,0,0,1,128,10.45V1.882A1.92,1.92,0,0,1,129.955,0h7.461A1.991,1.991,0,0,1,138.8.551a1.851,1.851,0,0,1,.573,1.334Zm0,0" transform="translate(-123.735 4.111)"/></g></g></g></svg>