<svg width="42" height="42" viewBox="0 0 42 42" fill="none" xmlns="http://www.w3.org/2000/svg">
<g clip-path="url(#clip0_2845_71369)">
<path d="M26.6179 36.5497C26.1271 36.551 25.7323 36.1266 25.7746 35.6362L26.0206 32.5847C26.3102 28.9042 27.5719 25.3903 29.6047 22.3844C31.5378 19.5624 31.1679 15.7116 28.72 12.9987C28.4076 12.652 28.4347 12.1173 28.7817 11.8045C29.1288 11.4917 29.6631 11.5196 29.9759 11.8658C32.9487 15.1608 33.3761 19.8706 31.014 23.3182C29.1389 26.0886 27.9722 29.3248 27.7059 32.72L27.4599 35.7719C27.424 36.2145 27.0541 36.5497 26.6179 36.5497Z" fill="black"/>
<path d="M5.179 21.8608C4.32049 21.89 4.00177 20.6117 4.81125 20.2537C8.80751 18.5514 12.5916 15.9941 14.8708 12.2874C17.254 8.67196 22.3024 7.48881 26.2437 9.22275C27.2548 9.65813 26.614 11.2052 25.5872 10.7808C22.3835 9.36308 18.2127 10.2875 16.2792 13.2228C13.7709 17.2038 9.62713 20.2304 5.179 21.8608Z" fill="black"/>
<path d="M25.4993 41.2575C24.8361 41.2575 24.1889 41.0584 23.6301 40.6759L1.62025 25.5967C-1.94612 23.1383 1.77834 17.6739 5.3726 20.1197L27.3824 35.1985C30.0565 36.8973 28.6717 41.3746 25.4993 41.2575ZM24.5854 39.2805C26.302 40.4983 28.194 37.7622 26.4267 36.5934L4.41687 21.5142C3.28909 20.679 1.58474 21.7826 1.89543 23.1569C1.97532 23.5846 2.21711 23.9553 2.57598 24.2014L24.5854 39.2805Z" fill="black"/>
<path d="M29.3503 13.2773C28.6 13.304 28.2002 12.2764 28.7949 11.7945C28.945 11.693 29.5579 10.7094 29.683 10.5539C30.3247 9.67801 29.5291 8.31775 28.4267 8.55024C27.6101 8.64112 27.113 9.68393 26.6996 10.3184C25.9315 11.6191 24.3933 10.3146 25.4251 9.14879L26.074 8.20235C28.4043 4.94752 33.2367 8.1064 31.0779 11.5096C30.6218 12.046 30.1657 13.26 29.3503 13.2773Z" fill="black"/>
<path d="M13.1028 41.9994C10.3189 42.0455 7.88495 39.6521 7.87354 36.869C7.85409 35.406 8.41164 34.0432 9.44431 33.0308C9.7326 32.7485 10.1807 32.7083 10.5142 32.9374L17.6084 37.7998C17.9403 38.0272 18.0658 38.4571 17.9086 38.8274C17.0775 40.7866 15.1669 41.9994 13.1028 41.9994ZM10.1866 34.7631C7.60639 38.6621 13.3543 42.5616 16.0267 38.7657L10.1866 34.7631Z" fill="black"/>
<path d="M15.6335 8.20117C14.9889 8.21808 14.5527 7.43818 14.923 6.89839C16.6476 4.21379 20.0821 4.53378 20.2275 4.54815C21.3308 4.68046 21.1608 6.32267 20.0576 6.23052C20.0073 6.22544 17.4972 6.01916 16.3454 7.81228C16.1843 8.06379 15.9117 8.20075 15.6335 8.20117Z" fill="black"/>
<path d="M12.0381 5.85408C11.41 5.86888 10.9729 5.12872 11.3064 4.58639C14.3139 -0.631906 20.0002 0.0106062 20.2411 0.0393502C20.7044 0.0968381 21.0333 0.519121 20.9758 0.982406C20.9183 1.44485 20.499 1.77117 20.0344 1.71749C19.829 1.69297 15.2067 1.20517 12.7715 5.43053C12.6151 5.70233 12.3306 5.85408 12.0381 5.85408Z" fill="black"/>
<path d="M35.3415 23.3029C34.6601 23.324 34.2311 22.457 34.6813 21.9304C34.7113 21.8919 36.2499 19.8963 35.3699 17.954C34.929 16.9361 36.4342 16.2509 36.9106 17.2565C38.2269 20.163 36.0931 22.873 36.0018 22.9867C35.834 23.1951 35.5888 23.3029 35.3415 23.3029Z" fill="black"/>
<path d="M39.1311 25.7497C38.4421 25.7721 37.8888 24.8514 38.4823 24.3632C38.6344 24.2376 41.538 20.5922 39.3116 16.2472C39.099 15.8317 39.263 15.3224 39.6785 15.1093C40.0936 14.8954 40.6034 15.0603 40.8165 15.4762C43.5577 20.7926 39.9503 25.9745 39.1311 25.7497Z" fill="black"/>
<path d="M12.9728 21.2838C12.0386 21.307 11.7728 19.9717 12.6642 19.6445C14.0672 19.1301 15.3712 17.6054 15.7555 17.0614C16.4107 16.1657 17.7629 17.1172 17.1369 18.0366C17.1475 18.0568 15.0885 20.8306 12.9728 21.2838Z" fill="black"/>
</g>
<defs>
<clipPath id="clip0_2845_71369">
<rect width="42" height="42" fill="white"/>
</clipPath>
</defs>
</svg>
