<svg width="17" height="21" viewBox="0 0 17 21" fill="none" xmlns="http://www.w3.org/2000/svg">
<path d="M3.04548 0.90625C2.70212 0.90625 2.37186 1.03956 2.12896 1.27738C1.88602 1.51488 1.75 1.83693 1.75 2.1729V19.0405C1.75 19.5186 2.14513 19.9062 2.63415 19.9062H2.63741C2.89974 19.9062 3.14909 19.8043 3.33369 19.6231C4.19192 18.7846 6.72454 16.3083 7.77063 15.2874C8.06211 15.0008 8.46042 14.8396 8.87502 14.8396C9.28958 14.8396 9.68793 15.0008 9.97937 15.2874C11.0287 16.3115 13.5742 18.7998 14.4228 19.6307C14.6041 19.8071 14.847 19.9062 15.1029 19.9062C15.5984 19.9062 16 19.5139 16 19.0297V2.1729C16 1.83693 15.864 1.51488 15.6211 1.27738C15.3781 1.03956 15.0479 0.90625 14.7045 0.90625H3.04548Z" fill="#3A3737" stroke="#3A3737" stroke-width="1.52" stroke-miterlimit="10" stroke-linecap="round" stroke-linejoin="round"/>
</svg>
