<svg width="16" height="20" viewBox="0 0 16 20" fill="none" xmlns="http://www.w3.org/2000/svg">
<g id="Group 3465953">
<path id="Vector" d="M14.9452 4.15109L11.1787 0.587734C10.7781 0.208711 10.2537 0 9.70223 0H2.53125C1.3466 0 0.382812 0.963789 0.382812 2.14844V17.8516C0.382812 19.0362 1.3466 20 2.53125 20H13.4688C14.6534 20 15.6172 19.0362 15.6172 17.8516V5.7118C15.6172 5.12395 15.3723 4.55508 14.9452 4.15109ZM13.8071 4.6875H10.8906C10.7829 4.6875 10.6953 4.59988 10.6953 4.49219V1.74359L13.8071 4.6875ZM13.4688 18.8281H2.53125C1.99277 18.8281 1.55469 18.39 1.55469 17.8516V2.14844C1.55469 1.60996 1.99277 1.17188 2.53125 1.17188H9.52344V4.49219C9.52344 5.24605 10.1368 5.85938 10.8906 5.85938H14.4453V17.8516C14.4453 18.39 14.0072 18.8281 13.4688 18.8281Z" fill="#9F9F9B"/>
<path id="Vector_2" d="M12.1797 7.8125H3.58594C3.26234 7.8125 3 8.07484 3 8.39844C3 8.72203 3.26234 8.98438 3.58594 8.98438H12.1797C12.5033 8.98438 12.7656 8.72203 12.7656 8.39844C12.7656 8.07484 12.5033 7.8125 12.1797 7.8125Z" fill="#9F9F9B"/>
<path id="Vector_3" d="M12.1797 10.9375H3.58594C3.26234 10.9375 3 11.1998 3 11.5234C3 11.847 3.26234 12.1094 3.58594 12.1094H12.1797C12.5033 12.1094 12.7656 11.847 12.7656 11.5234C12.7656 11.1998 12.5033 10.9375 12.1797 10.9375Z" fill="#9F9F9B"/>
<path id="Vector_4" d="M6.42656 14.0625H3.58594C3.26234 14.0625 3 14.3248 3 14.6484C3 14.972 3.26234 15.2344 3.58594 15.2344H6.42656C6.75016 15.2344 7.0125 14.972 7.0125 14.6484C7.0125 14.3248 6.75016 14.0625 6.42656 14.0625Z" fill="#9F9F9B"/>
</g>
</svg>
