<svg width="19" height="20" viewBox="0 0 19 20" fill="none" xmlns="http://www.w3.org/2000/svg">
<g id="file 2">
<path id="Vector" d="M7.9343 17.055C7.9343 17.3849 7.66582 17.6523 7.33457 17.6523H4.69578C3.37298 17.6523 2.29688 16.5804 2.29688 15.2628V4.7489C2.29688 3.43128 3.37298 2.35938 4.69578 2.35938H12.0691C13.3918 2.35938 14.468 3.43128 14.468 4.7489V10.4539C14.468 10.7839 14.1994 11.0513 13.8683 11.0513C13.537 11.0513 13.2686 10.7839 13.2686 10.4539V4.7489C13.2686 4.09015 12.7305 3.55414 12.0691 3.55414H4.69578C4.03444 3.55414 3.49633 4.09015 3.49633 4.7489V15.2628C3.49633 15.9216 4.03444 16.4576 4.69578 16.4576H7.33457C7.66582 16.4576 7.9343 16.725 7.9343 17.055ZM11.4694 5.94366H5.29222C4.96097 5.94366 4.6925 6.21109 4.6925 6.54105C4.6925 6.87101 4.96097 7.13843 5.29222 7.13843H11.4694C11.8005 7.13843 12.0691 6.87101 12.0691 6.54105C12.0691 6.21109 11.8005 5.94366 11.4694 5.94366ZM12.0691 8.93057C12.0691 8.60061 11.8005 8.33319 11.4694 8.33319H5.29222C4.96097 8.33319 4.6925 8.60061 4.6925 8.93057C4.6925 9.26053 4.96097 9.52795 5.29222 9.52795H11.4694C11.8005 9.52795 12.0691 9.26053 12.0691 8.93057ZM5.29222 10.7227C4.96097 10.7227 4.6925 10.9901 4.6925 11.3201C4.6925 11.6501 4.96097 11.9175 5.29222 11.9175H8.44406C8.77532 11.9175 9.04379 11.6501 9.04379 11.3201C9.04379 10.9901 8.77532 10.7227 8.44406 10.7227H5.29222ZM15.9515 15.0984C15.9304 15.1284 15.8582 15.2303 15.8133 15.2866C15.6124 15.5383 15.1422 16.1274 14.4881 16.6474C13.6493 17.3142 12.7861 17.6523 11.9225 17.6523C11.0588 17.6523 10.1957 17.3142 9.35689 16.6474C8.70269 16.1274 8.23252 15.5382 8.03175 15.2866C7.98677 15.2303 7.9145 15.1283 7.89342 15.0984C7.74805 14.8924 7.74805 14.6176 7.89342 14.4115C7.9145 14.3817 7.98677 14.2797 8.03175 14.2234C8.23252 13.9718 8.70269 13.3827 9.35689 12.8627C10.1957 12.1959 11.0588 11.8577 11.9225 11.8577C12.7861 11.8577 13.6493 12.1959 14.4881 12.8627C15.1422 13.3827 15.6124 13.9719 15.8132 14.2235C15.8582 14.2798 15.9304 14.3818 15.9515 14.4117C16.0969 14.6177 16.0969 14.8924 15.9515 15.0984ZM14.7005 14.755C13.7469 13.625 12.8133 13.0525 11.9225 13.0525C11.0318 13.0525 10.098 13.6249 9.14441 14.755C10.098 15.8851 11.0317 16.4576 11.9225 16.4576C12.8133 16.4576 13.7469 15.8852 14.7005 14.755ZM11.9525 13.62C11.3231 13.62 10.813 14.1281 10.813 14.755C10.813 15.3819 11.3231 15.8901 11.9525 15.8901C12.5818 15.8901 13.0919 15.3819 13.0919 14.755C13.0919 14.1281 12.5818 13.62 11.9525 13.62Z" fill="#0FA76F"/>
</g>
</svg>
