<svg width="40" height="40" viewBox="0 0 40 40" fill="none" xmlns="http://www.w3.org/2000/svg">
<path fill-rule="evenodd" clip-rule="evenodd" d="M2.5257 1.125C3.91492 1.125 5.05141 2.26156 5.05141 3.6507V20.8258C5.05141 22.2149 3.91484 23.3515 2.5257 23.3515C1.13656 23.3516 0 22.2149 0 20.8258V3.6507C0 2.26156 1.13656 1.125 2.5257 1.125Z" fill="#8AB486"/>
<path fill-rule="evenodd" clip-rule="evenodd" d="M37.471 1.125C38.8602 1.125 39.9967 2.26156 39.9967 3.6507V20.8258C39.9967 22.2149 38.8602 23.3515 37.471 23.3515C36.0818 23.3515 34.9453 22.2149 34.9453 20.8258V3.6507C34.9452 2.26156 36.0818 1.125 37.471 1.125Z" fill="#8AB486"/>
<path d="M40 20.8398C40 17.6784 37.8487 15.0103 34.9332 14.2216C34.301 11.4389 32.8927 8.87891 30.8155 6.8018C29.1645 5.15086 27.2085 3.92211 25.0781 3.17C24.693 3.03398 24.302 4.32328 23.9062 4.21875C23.5201 4.1168 23.1292 2.62023 22.7344 2.54883C21.8405 2.38719 20.9263 2.30469 20 2.30469C19.0737 2.30469 18.1595 2.38727 17.2656 2.54883C16.8174 2.62984 16.3744 4.14047 15.9375 4.26086C15.595 4.35523 15.2563 3.05187 14.9219 3.16992C12.7915 3.92203 10.8355 5.15078 9.18461 6.80172C7.10742 8.87883 5.69906 11.4388 5.06688 14.2215C2.15133 15.0103 0 17.6784 0 20.8398C0 24.0498 2.21781 26.7512 5.20156 27.4931C5.88688 30.0655 7.24328 32.4288 9.18453 34.3701C10.1652 35.3507 11.2534 36.1823 12.4218 36.8537C12.7289 37.0301 13.1249 36.2123 13.1249 36.2123C13.1249 36.2123 14.2873 37.7709 14.7655 37.9457C16.4227 38.5513 18.1882 38.8671 19.9999 38.8671C21.8401 38.8671 23.6327 38.5413 25.3124 37.9169C25.7366 37.7591 26.328 36.2499 26.328 36.2499C26.328 36.2499 27.2458 37.0445 27.578 36.8536C28.7465 36.1823 29.8348 35.3506 30.8153 34.37C32.7566 32.4288 34.113 30.0655 34.7983 27.493C37.7822 26.7512 40 24.0498 40 20.8398Z" fill="#D3EBCE"/>
<path d="M34.9332 14.2216C34.301 11.4389 32.8927 8.87891 30.8155 6.8018C29.1645 5.15086 27.2085 3.92211 25.0781 3.17C24.693 3.03398 24.302 4.32328 23.9062 4.21875C23.5201 4.1168 23.1292 2.62023 22.7344 2.54883C21.8405 2.38719 20.9263 2.30469 20 2.30469V38.8672C21.8402 38.8672 23.6327 38.5414 25.3125 37.917C25.7367 37.7592 26.3281 36.25 26.3281 36.25C26.3281 36.25 27.2459 37.0445 27.5781 36.8537C28.7466 36.1823 29.8348 35.3507 30.8155 34.3701C32.7568 32.4288 34.1131 30.0655 34.7984 27.4931C37.7822 26.7512 40 24.0498 40 20.8398C40 17.6784 37.8487 15.0103 34.9332 14.2216Z" fill="#D3EBCE"/>
<path fill-rule="evenodd" clip-rule="evenodd" d="M33.1445 16.3281H6.85547C4.36766 16.3281 2.34375 18.352 2.34375 20.8398C2.34375 23.3277 4.36766 25.3516 6.85547 25.3516H33.1445C35.6323 25.3516 37.6562 23.3276 37.6562 20.8398C37.6562 18.3521 35.6323 16.3281 33.1445 16.3281Z" fill="#8AB486"/>
<path fill-rule="evenodd" clip-rule="evenodd" d="M33.1445 16.3281H20V25.3516H33.1445C35.6323 25.3516 37.6562 23.3276 37.6562 20.8398C37.6562 18.3521 35.6323 16.3281 33.1445 16.3281Z" fill="#8AB486"/>
<path d="M22.6989 2.54688V6.09594C22.6989 7.58313 21.489 8.79305 20.0018 8.79305C18.5146 8.79305 17.3047 7.58313 17.3047 6.09594V2.54688C16.5052 2.68938 15.7221 2.89547 14.9609 3.16195V6.09602C14.9609 8.87555 17.2223 11.1369 20.0018 11.1369C22.7813 11.1369 25.0427 8.87555 25.0427 6.09602V3.16195C24.2816 2.89547 23.4984 2.68938 22.6989 2.54688Z" fill="#D3EBCE"/>
<path d="M26.4228 30.8203H13.5703C12.9231 30.8203 12.3984 31.345 12.3984 31.9922V36.8412C13.1489 37.2738 13.9325 37.6402 14.7422 37.9374V33.164H25.2509V37.9374C26.0606 37.6402 26.8442 37.2738 27.5947 36.8412V31.9922C27.5947 31.345 27.07 30.8203 26.4228 30.8203Z" fill="#D3EBCE"/>
<path d="M22.6971 2.54688V6.09594C22.6971 7.58313 21.4872 8.79305 20 8.79305V11.1368C22.7795 11.1368 25.0409 8.87547 25.0409 6.09594V3.16195C24.2798 2.89547 23.4966 2.68937 22.6971 2.54688Z" fill="#D3EBCE"/>
<path d="M26.4263 30.8281H20V33.1719H25.2544V37.9453C26.0641 37.6481 26.8477 37.2817 27.5981 36.8491V32.0001C27.5981 31.3528 27.0734 30.8281 26.4263 30.8281Z" fill="#D3EBCE"/>
</svg>
