<svg width="24" height="24" viewBox="0 0 24 24" fill="none" xmlns="http://www.w3.org/2000/svg">
<path d="M5.86366 2C5.50223 2 5.15459 2.14033 4.89891 2.39066C4.64318 2.64066 4.5 2.97967 4.5 3.33332V21.0887C4.5 21.592 4.91592 22 5.43068 22H5.43412C5.71025 22 5.97273 21.8927 6.16704 21.702C7.07044 20.8193 9.73636 18.2127 10.8375 17.138C11.1443 16.8363 11.5636 16.6667 12 16.6667C12.4364 16.6667 12.8557 16.8363 13.1625 17.138C14.267 18.216 16.9466 20.8354 17.8398 21.71C18.0307 21.8957 18.2863 22 18.5557 22C19.0773 22 19.5 21.587 19.5 21.0773V3.33332C19.5 2.97967 19.3568 2.64066 19.1011 2.39066C18.8454 2.14033 18.4978 2 18.1363 2H5.86366Z" stroke="#2D2D2D" stroke-width="2" stroke-miterlimit="10" stroke-linecap="round" stroke-linejoin="round"/>
</svg>
