<svg width="17" height="21" viewBox="0 0 17 21" fill="none" xmlns="http://www.w3.org/2000/svg">
<path d="M3.04548 0.999999C2.70212 0.999999 2.37186 1.13332 2.12896 1.37113C1.88602 1.60863 1.75 1.93068 1.75 2.26665V19.1342C1.75 19.6124 2.14513 20 2.63415 20H2.63741C2.89974 20 3.14909 19.8981 3.33369 19.7169C4.19192 18.8784 6.72454 16.402 7.77063 15.3811C8.06211 15.0945 8.46042 14.9333 8.87502 14.9333C9.28958 14.9333 9.68793 15.0945 9.97937 15.3811C11.0287 16.4052 13.5742 18.8936 14.4228 19.7245C14.6041 19.9009 14.847 20 15.1029 20C15.5984 20 16 19.6076 16 19.1235V2.26665C16 1.93068 15.864 1.60863 15.6211 1.37113C15.3781 1.13332 15.0479 0.999999 14.7045 0.999999H3.04548Z" stroke="#7B7B7B" stroke-width="1.52" stroke-miterlimit="10" stroke-linecap="round" stroke-linejoin="round"/>
</svg>
