<svg width="24" height="25" viewBox="0 0 24 25" fill="none" xmlns="http://www.w3.org/2000/svg">
<mask id="mask0_27029_2507" style="mask-type:luminance" maskUnits="userSpaceOnUse" x="0" y="0" width="24" height="25">
<path d="M0 0.859377H24V24.8594H0V0.859377Z" fill="white"/>
</mask>
<g mask="url(#mask0_27029_2507)">
<path d="M7.04548 3.85938C6.70212 3.85938 6.37186 3.99269 6.12896 4.2305C5.88602 4.46801 5.75 4.79006 5.75 5.12603V21.9936C5.75 22.4718 6.14513 22.8594 6.63415 22.8594H6.63741C6.89974 22.8594 7.14909 22.7574 7.33369 22.5763C8.19192 21.7377 10.7245 19.2614 11.7706 18.2405C12.0621 17.9539 12.4604 17.7927 12.875 17.7927C13.2896 17.7927 13.6879 17.9539 13.9794 18.2405C15.0287 19.2646 17.5742 21.753 18.4228 22.5839C18.6041 22.7603 18.847 22.8594 19.1029 22.8594C19.5984 22.8594 20 22.467 20 21.9829V5.12603C20 4.79006 19.864 4.46801 19.6211 4.2305C19.3781 3.99269 19.0479 3.85938 18.7045 3.85938H7.04548Z" fill="#0FA76F" stroke="#0FA76F" stroke-width="1.52" stroke-miterlimit="10" stroke-linecap="round" stroke-linejoin="round"/>
</g>
</svg>
