<svg width="23" height="27" viewBox="0 0 23 27" fill="none" xmlns="http://www.w3.org/2000/svg">
<g id="Group 3465946">
<path id="Vector" d="M7.25836 25.9123L7.25513 25.9154C6.96824 26.1952 6.56771 26.2519 6.21817 26.1191C5.87482 25.9887 5.65677 25.7091 5.65562 25.3463V6.35856C5.65562 5.66601 6.24827 5.0775 7.0133 5.0775H20.3253C21.0903 5.0775 21.6829 5.66601 21.6829 6.35856L21.6829 25.3456C21.6829 25.3459 21.6829 25.3461 21.6829 25.3464C21.6819 25.7088 21.464 25.9885 21.1205 26.1191C20.771 26.2519 20.3705 26.1954 20.0834 25.9154L20.0802 25.9123L15.0113 21.0238C14.2885 20.3045 13.05 20.3045 12.3272 21.0238L7.25836 25.9123Z" fill="#0FA76F" stroke="#0FA76F" stroke-width="1.62375"/>
<path id="Vector 323" d="M16.7976 1H3.665C2.4693 1 1.5 1.9693 1.5 3.165V20.3234" stroke="#0FA76F" stroke-width="1.62375" stroke-linecap="round"/>
</g>
</svg>
