<svg width="26" height="26" viewBox="0 0 26 26" fill="none" xmlns="http://www.w3.org/2000/svg">
<path d="M23.6702 22.1077L19.0199 17.4599C18.7912 17.2322 18.4816 17.1044 18.1589 17.1044C17.8361 17.1044 17.5266 17.2322 17.2979 17.4599C16.0724 18.6446 14.4886 19.3893 12.7945 19.5774C11.1005 19.7655 9.39188 19.3864 7.93637 18.4994C6.48087 17.6124 5.36069 16.2677 4.75131 14.6759C4.14193 13.0841 4.07777 11.3351 4.56888 9.70293C5.05999 8.07074 6.07863 6.64756 7.46524 5.65633C8.85184 4.66509 10.5281 4.16179 12.2314 4.22528C13.9346 4.28876 15.5688 4.91543 16.8777 6.00713C18.1867 7.09883 19.0966 8.59389 19.4648 10.2581C19.7286 11.4657 19.7014 12.7188 19.3854 13.9138C19.3481 14.0538 19.3387 14.1998 19.3578 14.3434C19.3769 14.487 19.424 14.6254 19.4966 14.7508C19.5692 14.8761 19.6657 14.986 19.7808 15.074C19.8958 15.1621 20.027 15.2266 20.167 15.2639C20.307 15.3013 20.4529 15.3107 20.5965 15.2916C20.7401 15.2725 20.8786 15.2253 21.0039 15.1528C21.1293 15.0802 21.2391 14.9836 21.3272 14.8686C21.4152 14.7536 21.4798 14.6223 21.5171 14.4824C22.1248 12.2024 21.9004 9.78048 20.8842 7.65096C19.8679 5.52144 18.1263 3.82359 15.9716 2.86188C13.8169 1.90016 11.3901 1.73749 9.1263 2.40302C6.86252 3.06856 4.90987 4.51877 3.6185 6.49361C2.32713 8.46845 1.78151 10.8387 2.07948 13.1794C2.37745 15.5201 3.49952 17.6781 5.24448 19.2664C6.98944 20.8547 9.24315 21.7695 11.6015 21.8466C13.9598 21.9238 16.2685 21.1583 18.1135 19.6874L22.1071 23.6772C22.2101 23.7798 22.3324 23.8612 22.4669 23.9165C22.6013 23.9719 22.7454 24.0003 22.8909 24C23.0363 23.9997 23.1803 23.9708 23.3145 23.9148C23.4488 23.8589 23.5707 23.7771 23.6734 23.674C23.776 23.571 23.8573 23.4487 23.9127 23.3142C23.9681 23.1798 23.9965 23.0357 23.9962 22.8902C23.9959 22.7448 23.9669 22.6008 23.911 22.4666C23.8551 22.3323 23.7733 22.2104 23.6702 22.1077Z" fill="#2D2D2D"/>
</svg>
