<svg width="15" height="16" viewBox="0 0 15 16" fill="none" xmlns="http://www.w3.org/2000/svg">
<path d="M5.9343 14.9612C5.9343 15.2912 5.66582 15.5586 5.33457 15.5586H2.69578C1.37298 15.5586 0.296875 14.4867 0.296875 13.1691V2.65515C0.296875 1.33753 1.37298 0.265625 2.69578 0.265625H10.0691C11.3918 0.265625 12.468 1.33753 12.468 2.65515V8.36015C12.468 8.69011 12.1994 8.95753 11.8683 8.95753C11.537 8.95753 11.2686 8.69011 11.2686 8.36015V2.65515C11.2686 1.9964 10.7305 1.46039 10.0691 1.46039H2.69578C2.03444 1.46039 1.49633 1.9964 1.49633 2.65515V13.1691C1.49633 13.8278 2.03444 14.3638 2.69578 14.3638H5.33457C5.66582 14.3638 5.9343 14.6313 5.9343 14.9612ZM9.4694 3.84991H3.29222C2.96097 3.84991 2.6925 4.11734 2.6925 4.4473C2.6925 4.77726 2.96097 5.04468 3.29222 5.04468H9.4694C9.80053 5.04468 10.0691 4.77726 10.0691 4.4473C10.0691 4.11734 9.80053 3.84991 9.4694 3.84991ZM10.0691 6.83682C10.0691 6.50686 9.80053 6.23944 9.4694 6.23944H3.29222C2.96097 6.23944 2.6925 6.50686 2.6925 6.83682C2.6925 7.16678 2.96097 7.4342 3.29222 7.4342H9.4694C9.80053 7.4342 10.0691 7.16678 10.0691 6.83682ZM3.29222 8.62897C2.96097 8.62897 2.6925 8.89639 2.6925 9.22635C2.6925 9.55631 2.96097 9.82373 3.29222 9.82373H6.44406C6.77532 9.82373 7.04379 9.55631 7.04379 9.22635C7.04379 8.89639 6.77532 8.62897 6.44406 8.62897H3.29222ZM13.9515 13.0047C13.9304 13.0347 13.8582 13.1365 13.8133 13.1929C13.6124 13.4445 13.1422 14.0336 12.4881 14.5537C11.6493 15.2205 10.7861 15.5586 9.92247 15.5586C9.05884 15.5586 8.19568 15.2205 7.35689 14.5537C6.70269 14.0336 6.23252 13.4444 6.03175 13.1929C5.98677 13.1365 5.9145 13.0345 5.89342 13.0047C5.74805 12.7986 5.74805 12.5238 5.89342 12.3178C5.9145 12.2879 5.98677 12.186 6.03175 12.1296C6.23252 11.878 6.70269 11.2889 7.35689 10.7689C8.19568 10.1021 9.05884 9.76399 9.92247 9.76399C10.7861 9.76399 11.6493 10.1021 12.4881 10.7689C13.1422 11.2889 13.6124 11.8782 13.8132 12.1297C13.8582 12.1861 13.9304 12.288 13.9515 12.3179C14.0969 12.524 14.0969 12.7986 13.9515 13.0047ZM12.7005 12.6613C11.7469 11.5313 10.8133 10.9588 9.92247 10.9588C9.03178 10.9588 8.09799 11.5312 7.14441 12.6613C8.09799 13.7913 9.03167 14.3638 9.92247 14.3638C10.8133 14.3638 11.7469 13.7914 12.7005 12.6613ZM9.95246 11.5263C9.3231 11.5263 8.81298 12.0344 8.81298 12.6613C8.81298 13.2882 9.3231 13.7963 9.95246 13.7963C10.5818 13.7963 11.0919 13.2882 11.0919 12.6613C11.0919 12.0344 10.5818 11.5263 9.95246 11.5263Z" fill="#7B7B7B"/>
</svg>
