<svg width="24" height="24" viewBox="0 0 24 24" fill="none" xmlns="http://www.w3.org/2000/svg">
<path d="M5.67889 20.5602C5.61445 21.2854 5.03607 21.825 4.3417 21.825C3.64895 21.825 3.06896 21.2854 3.00613 20.5602V8.90671C2.9578 8.38222 3.19785 7.8611 3.63445 7.5744C4.06782 7.2877 4.6172 7.2877 5.05219 7.5744C5.48556 7.8611 5.72883 8.38222 5.67889 8.90671V20.5602Z" fill="white"/>
<path d="M13.1879 20.7324C13.1235 21.4576 12.5451 21.9973 11.8508 21.9973C11.1741 21.9973 10.5957 21.4576 10.5136 20.7324V3.54733C10.4669 3.02453 10.7069 2.50004 11.1435 2.21502C11.5769 1.92833 12.1246 1.92833 12.5773 2.21502C13.0123 2.50004 13.2524 3.02453 13.1879 3.54733V20.7324Z" fill="white"/>
<path d="M20.9894 20.2352C20.9073 20.9604 20.3289 21.5 19.6522 21.5C18.9579 21.5 18.3795 20.9604 18.315 20.2352V14.7036C18.2506 14.1622 18.4907 13.658 18.9273 13.3713C19.3784 13.0846 19.9261 13.0846 20.3595 13.3713C20.7961 13.658 21.0361 14.1622 20.9894 14.7036V20.2352Z" fill="white"/>
</svg>
