<svg width="21" height="20" viewBox="0 0 21 20" fill="none" xmlns="http://www.w3.org/2000/svg">
<path fill-rule="evenodd" clip-rule="evenodd" d="M9.8752 1.39844V11.6226L8.24062 9.9825L8.15665 9.90971C7.86349 9.69125 7.44677 9.7146 7.17996 9.98032C6.88647 10.2726 6.88549 10.7475 7.17778 11.041L10.0938 13.969L10.096 13.9709C10.1207 13.9955 10.147 14.0183 10.1749 14.0392L10.178 14.042C10.4721 14.2609 10.8901 14.2366 11.1566 13.969L14.0726 11.041L14.1451 10.9567C14.3623 10.6627 14.3373 10.246 14.0704 9.98032L13.9862 9.90788C13.6921 9.69062 13.2755 9.71568 13.0098 9.9825L11.3752 11.6232V1.39844L11.3684 1.29667C11.3187 0.930591 11.0049 0.648438 10.6252 0.648438C10.211 0.648438 9.8752 0.984224 9.8752 1.39844ZM16.4083 19.1205C18.7558 19.0118 20.625 17.0747 20.625 14.7003V9.81634L20.6202 9.60751C20.5112 7.2545 18.5704 5.38134 16.191 5.38134H15.258L15.1562 5.38818C14.7902 5.43785 14.508 5.75164 14.508 6.13134C14.508 6.54555 14.8438 6.88134 15.258 6.88134H16.191L16.3634 6.88632C17.904 6.97554 19.125 8.25259 19.125 9.81634V14.7003L19.12 14.8722C19.0311 16.408 17.7581 17.6253 16.2 17.6253H5.06L4.88756 17.6204C3.34702 17.5311 2.125 16.2532 2.125 14.6903V9.80534L2.12997 9.63357C2.21896 8.09894 3.49264 6.88134 5.05 6.88134H5.992L6.09377 6.87449C6.45985 6.82483 6.742 6.51103 6.742 6.13134C6.742 5.71712 6.40621 5.38134 5.992 5.38134H5.05L4.83565 5.38644C2.4918 5.49826 0.625 7.43411 0.625 9.80534V14.6903L0.629827 14.8991C0.738851 17.2514 2.68076 19.1253 5.06 19.1253H16.2L16.4083 19.1205Z" fill="white"/>
</svg>
