<svg width="53" height="52" viewBox="0 0 53 52" fill="none" xmlns="http://www.w3.org/2000/svg">
<path d="M52.1746 25.9984C52.175 31.1553 50.6366 36.1958 47.7552 40.4791C44.8737 44.7623 40.7793 48.0948 35.9926 50.0529C31.2059 52.0109 25.943 52.5061 20.8732 51.4754C15.8034 50.4446 11.1557 47.9346 7.52087 44.2645C3.88609 40.5943 1.42849 35.9297 0.460549 30.8638C-0.507395 25.798 0.0580287 20.5597 2.08495 15.8149C4.11187 11.0701 7.50872 7.03331 11.8436 4.21763C16.1785 1.40195 21.2556 -0.0653709 26.4293 0.00223533C31.0876 -0.0223213 35.6636 1.22554 39.6605 3.61029C43.452 6.00821 46.5826 9.312 48.768 13.2217C50.9534 17.1314 52.1244 21.5232 52.1746 25.9984Z" fill="#E6E6E6"/>
<path d="M26.0781 51.9884L26.0781 0.0136C30.8329 -0.0882586 35.5191 1.15622 39.5926 3.60251C43.6661 6.04879 46.9598 9.59653 49.0913 13.8338C51.203 17.791 52.2508 22.2256 52.1329 26.7061C52.015 31.1866 50.7353 35.5604 48.4183 39.4018C46.1014 43.2432 42.826 46.4213 38.9112 48.627C34.9963 50.8327 30.5752 51.9907 26.0781 51.9884Z" fill="#C4C4C2"/>
<path d="M40.9905 23.4978L33.8007 28.7733L36.5484 37.318C36.6867 37.7469 36.685 38.2086 36.5436 38.6365C36.4021 39.0645 36.1281 39.4367 35.761 39.6997C35.3939 39.9627 34.9526 40.1029 34.5005 40.1002C34.0484 40.0975 33.6088 39.952 33.2449 39.6846L26.0882 34.4323L18.9314 39.6846C18.5675 39.952 18.1279 40.0975 17.6758 40.1002C17.2237 40.1029 16.7824 39.9627 16.4153 39.6997C16.0482 39.4367 15.7742 39.0645 15.6328 38.6365C15.4913 38.2086 15.4896 37.7469 15.628 37.318L18.3756 28.7733L11.1858 23.4978C10.8223 23.232 10.5524 22.8586 10.4147 22.4308C10.277 22.0029 10.2785 21.5427 10.419 21.1157C10.5596 20.6888 10.832 20.3171 11.1973 20.0538C11.5625 19.7905 12.002 19.649 12.4528 19.6496L21.306 19.6496L24.0478 11.1282C24.1836 10.6947 24.4548 10.3159 24.8219 10.0469C25.1889 9.77788 25.6326 9.63281 26.0882 9.63281C26.5438 9.63281 26.9874 9.77788 27.3545 10.0469C27.7215 10.3159 27.9927 10.6947 28.1285 11.1282L30.8704 19.6496L39.7235 19.6496C40.1744 19.649 40.6138 19.7905 40.9791 20.0538C41.3444 20.3171 41.6167 20.6888 41.7573 21.1157C41.8978 21.5427 41.8994 22.0029 41.7616 22.4308C41.6239 22.8586 41.354 23.232 40.9905 23.4978Z" fill="#BFBEB8"/>
<path d="M40.9765 23.4898L33.7868 28.7653L36.5344 37.31C36.6728 37.7389 36.6711 38.2006 36.5296 38.6286C36.3882 39.0565 36.1142 39.4287 35.7471 39.6917C35.38 39.9547 34.9387 40.095 34.4866 40.0923C34.0345 40.0895 33.5949 39.944 33.231 39.6766L26.0781 34.4224L26.0781 9.63281C26.5311 9.63258 26.9724 9.77578 27.3384 10.0417C27.7044 10.3077 27.9762 10.6826 28.1146 11.1125L30.8565 19.6339L39.7096 19.6339C40.1625 19.631 40.6045 19.7716 40.972 20.0353C41.3396 20.299 41.6135 20.6722 41.7545 21.1012C41.8954 21.5301 41.896 21.9926 41.7562 22.4219C41.6164 22.8512 41.3434 23.2251 40.9765 23.4898Z" fill="#ADAA9E"/>
</svg>
