<svg width="24" height="24" viewBox="0 0 24 24" fill="none" xmlns="http://www.w3.org/2000/svg">
<path d="M17.8735 17.9816L19.4207 15.8759C19.4467 15.8406 19.4838 15.8139 19.5269 15.7996C19.57 15.7854 19.6168 15.7844 19.6605 15.7968C19.7042 15.8092 19.7426 15.8343 19.7703 15.8685C19.7979 15.9027 19.8133 15.9443 19.8143 15.9873C19.8143 17.0595 19.8143 18.1316 19.8143 19.2034C19.8143 20.5052 18.9448 21.5661 17.6148 21.9025C17.3386 21.9698 17.0541 22.0025 16.7688 21.9998C13.528 21.9998 10.2872 21.9998 7.04639 21.9998C5.30056 21.9998 4.00278 20.8054 4.00217 19.2017C3.99928 14.404 3.99928 9.60614 4.00217 4.80808C4.00217 3.19389 5.30179 2.00291 7.06 2.00175C10.293 1.99942 13.5262 1.99942 16.7595 2.00175C18.5178 2.00175 19.8137 3.19447 19.8149 4.80924C19.8149 6.60589 19.8149 8.40215 19.8149 10.198C19.8148 10.2378 19.8019 10.2767 19.7778 10.3094L18.2306 12.4138C18.2047 12.4492 18.1675 12.4759 18.1244 12.4901C18.0813 12.5043 18.0345 12.5054 17.9908 12.493C17.9471 12.4806 17.9087 12.4555 17.881 12.4213C17.8534 12.3871 17.838 12.3455 17.837 12.3025C17.837 9.81523 17.837 7.32932 17.837 4.84479C17.837 4.1814 17.4453 3.8223 16.723 3.8223H7.09281C6.37306 3.8223 5.97884 4.18375 5.97884 4.85006V19.1556C5.97884 19.8184 6.37244 20.1787 7.09281 20.1787H16.7212C17.4409 20.1787 17.8314 19.8173 17.8314 19.151V18.0923C17.8331 18.0522 17.8478 18.0136 17.8735 17.9816Z" fill="#18232D"/>
<path d="M16.3978 18.9958L15.1781 19.401C15.1469 19.4117 15.1135 19.4155 15.0805 19.412C15.0475 19.4085 15.0159 19.3979 14.988 19.381C14.9601 19.364 14.9368 19.3412 14.9198 19.3144C14.9029 19.2875 14.8928 19.2573 14.8903 19.2261L14.8284 18.0212C14.8261 17.9784 14.8389 17.9362 14.8649 17.9011L20.3239 10.4854C20.3568 10.4418 20.4063 10.4119 20.462 10.402C20.5178 10.3921 20.5754 10.403 20.6229 10.4323L21.9052 11.231C21.9285 11.2452 21.9485 11.2637 21.9641 11.2853C21.9796 11.307 21.9904 11.3314 21.9958 11.3571C22.0011 11.3827 22.001 11.4091 21.9953 11.4347C21.9896 11.4604 21.9785 11.4846 21.9627 11.5061L16.5049 18.9206C16.4784 18.9556 16.441 18.9819 16.3978 18.9958Z" fill="#00C569"/>
<path d="M15.8604 5.48438H7.95251C7.74452 5.48431 7.54471 5.56063 7.39553 5.69715C7.32242 5.76393 7.26427 5.84383 7.22451 5.93215C7.18476 6.02046 7.1642 6.11537 7.16406 6.2113C7.16419 6.30731 7.18474 6.40232 7.22449 6.49073C7.26424 6.57914 7.3224 6.65916 7.39553 6.72605C7.54471 6.86256 7.74452 6.93888 7.95251 6.93882H15.8604C16.0684 6.93888 16.2682 6.86256 16.4174 6.72605C16.4906 6.65919 16.5489 6.57919 16.5887 6.49079C16.6286 6.40238 16.6492 6.30735 16.6495 6.2113C16.6492 6.11534 16.6286 6.0204 16.5887 5.93209C16.5488 5.84378 16.4906 5.7639 16.4174 5.69715C16.2682 5.56063 16.0684 5.48431 15.8604 5.48438ZM15.8604 8.68476H7.95251C7.74452 8.68469 7.54471 8.76102 7.39553 8.89753C7.32242 8.96431 7.26427 9.04422 7.22451 9.13253C7.18476 9.22085 7.1642 9.31576 7.16406 9.41168C7.16419 9.5077 7.18474 9.60271 7.22449 9.69112C7.26424 9.77953 7.3224 9.85954 7.39553 9.92643C7.54471 10.0629 7.74452 10.1393 7.95251 10.1392H15.8604C16.0684 10.1393 16.2682 10.0629 16.4174 9.92643C16.4906 9.85957 16.5489 9.77958 16.5887 9.69117C16.6286 9.60277 16.6492 9.50773 16.6495 9.41168C16.6492 9.31572 16.6286 9.22079 16.5887 9.13248C16.5488 9.04417 16.4906 8.96428 16.4174 8.89753C16.2682 8.76102 16.0684 8.68469 15.8604 8.68476Z" fill="#18232D"/>
<path d="M14.5992 11.8985H7.95684C7.85409 11.8971 7.75205 11.9149 7.65657 11.9507C7.5611 11.9865 7.47406 12.0396 7.40042 12.1072C7.32679 12.1747 7.26801 12.2552 7.22745 12.3441C7.1869 12.4331 7.16535 12.5287 7.16406 12.6255C7.16651 12.8206 7.25113 13.0069 7.39933 13.1433C7.54752 13.2797 7.74716 13.3552 7.95436 13.353H14.5967C14.6993 13.3541 14.8012 13.3362 14.8965 13.3003C14.9918 13.2644 15.0787 13.2111 15.1521 13.1435C15.2256 13.076 15.2842 12.9954 15.3246 12.9065C15.365 12.8177 15.3864 12.7222 15.3876 12.6255C15.385 12.4307 15.3006 12.2449 15.1528 12.1086C15.005 11.9724 14.8059 11.8968 14.5992 11.8985Z" fill="#18232D"/>
</svg>
