<svg width="1022" height="306" viewBox="0 0 1022 306" fill="none" xmlns="http://www.w3.org/2000/svg">
<g clip-path="url(#clip0_19096_147516)">
<g opacity="0.4">
<path opacity="0.6" d="M100.473 336.195C164.485 260.405 302.614 291.732 390.457 193.418C478.301 95.1042 566.917 18.2964 625.539 -21.6946C655.41 -42.0717 691.229 26.5839 781.359 26.0779C868.081 25.5935 1019.76 -38.835 1019.76 -38.835" stroke="#1EA027" stroke-width="0.440621" stroke-miterlimit="10"/>
<path opacity="0.6" d="M103.412 337.224C165.931 263.191 301.916 289.307 388.487 193.21C404.298 175.673 421.695 160.748 437.379 144.707C457.699 123.872 475.316 102.144 495.191 83.6206C522.741 57.905 549.936 39.7848 573.639 20.8835C592.571 5.79572 609.576 -8.42867 625.269 -19.0024C655.252 -39.3124 691.413 30.5192 781.685 29.2772C868.649 28.0567 1017.38 -38.6438 1019.76 -38.3807" stroke="#1EA027" stroke-width="0.431809" stroke-miterlimit="10"/>
<path opacity="0.6" d="M106.359 338.251C167.417 265.982 301.181 286.9 386.53 193.006C402.436 175.506 421.493 162.551 437.283 146.595C457.585 125.956 472.752 102.206 493.065 83.3688C520.891 57.4992 549.264 43.8319 573.023 25.0102C592.125 9.94638 608.888 -5.57066 625.006 -16.3662C655.153 -36.5541 691.567 34.4046 782.025 32.4266C869.2 30.4577 1015.01 -38.4782 1019.75 -37.9641" stroke="#1EA027" stroke-width="0.427402" stroke-miterlimit="10"/>
<path opacity="0.6" d="M109.298 339.278C168.838 268.759 300.483 284.499 384.553 192.772C400.553 175.338 421.27 164.359 437.161 148.495C457.463 128.052 470.162 102.279 490.938 83.104C519.026 57.0805 548.583 47.8599 572.399 29.1606C591.67 14.1209 608.185 -2.71334 624.735 -13.7062C655.014 -33.8086 691.756 38.3076 782.351 35.5998C869.794 32.9069 1012.62 -38.2764 1019.74 -37.4992" stroke="#1EA027" stroke-width="0.41859" stroke-miterlimit="10"/>
<path opacity="0.6" d="M112.237 340.303C170.291 271.561 299.803 282.114 382.583 192.591C398.683 175.176 421.091 166.214 437.044 150.374C457.391 130.177 467.584 102.333 488.804 82.8074C517.168 56.6237 547.902 51.8622 571.775 33.273C591.221 18.2574 607.476 0.10603 624.464 -11.0781C654.868 -31.1011 691.928 42.1788 782.683 38.7473C870.362 35.3121 1010.23 -38.1065 1019.73 -37.0723" stroke="#1EA027" stroke-width="0.414184" stroke-miterlimit="10"/>
<path opacity="0.6" d="M115.176 341.325C171.737 274.357 299.136 279.731 380.612 192.376C396.812 175.003 420.88 168.023 436.934 152.256C457.281 132.267 464.994 102.389 486.677 82.5617C515.303 56.224 547.178 55.8603 571.145 37.4425C590.716 22.4019 606.767 2.97627 624.18 -8.40517C654.729 -28.3428 692.093 46.1009 783.009 41.9212C870.936 37.7558 1007.85 -37.9102 1019.73 -36.6128" stroke="#1EA027" stroke-width="0.405371" stroke-miterlimit="10"/>
<path opacity="0.6" d="M118.123 342.351C173.198 277.135 298.496 277.366 378.649 192.172C394.95 174.842 420.683 169.842 436.819 154.149C457.173 134.338 462.431 102.45 484.557 82.2967C513.446 55.8051 546.499 59.8881 570.541 41.605C590.282 26.5823 606.066 5.84566 623.93 -5.7393C654.579 -25.5975 692.272 50.0099 783.349 45.0942C871.512 40.1926 1005.47 -37.7148 1019.72 -36.1604" stroke="#1EA027" stroke-width="0.400965" stroke-miterlimit="10"/>
<path opacity="0.6" d="M121.054 343.377C174.643 279.924 297.859 275.017 376.671 191.96C393.078 174.673 420.478 171.655 436.726 156.035C457.081 136.457 459.864 102.516 482.44 82.0365C511.586 55.3909 545.816 63.9146 569.916 45.7662C589.819 30.7553 605.349 8.70765 623.67 -3.06245C654.451 -22.8414 692.447 53.936 783.685 48.2843C872.091 42.6465 1003.1 -37.5207 1019.72 -35.6909" stroke="#1EA027" stroke-width="0.392153" stroke-miterlimit="10"/>
<path opacity="0.6" d="M124.001 344.406C176.103 282.716 297.244 272.698 374.708 191.753C391.215 174.508 420.268 173.471 436.599 157.931C456.954 138.555 457.275 102.58 480.302 81.8049C509.729 54.9992 545.137 67.9696 569.3 49.9191C589.373 34.9262 604.648 11.5614 623.394 -0.393768C654.295 -20.0933 692.614 57.8477 784.013 51.46C872.655 45.0861 1000.71 -37.298 1019.71 -35.2295" stroke="#1EA027" stroke-width="0.387746" stroke-miterlimit="10"/>
<path opacity="0.6" d="M126.94 345.434C177.531 285.501 296.639 270.339 372.737 191.519C389.351 174.311 420.058 175.262 436.489 159.795C456.839 140.621 454.741 102.661 478.168 81.486C507.927 54.5874 544.45 71.9435 568.676 54.0153C588.912 39.0404 603.939 14.3584 623.123 2.21205C654.143 -17.4266 692.779 61.6966 784.339 54.5729C873.223 47.4628 998.331 -37.1626 1019.7 -34.8372" stroke="#1EA027" stroke-width="0.378934" stroke-miterlimit="10"/>
<path opacity="0.6" d="M129.887 346.462C179.01 288.293 296.055 268.018 370.774 191.335C387.495 174.175 419.855 177.102 436.381 161.732C456.737 142.767 452.172 102.778 476.049 81.2715C506.052 54.219 543.777 76.0217 568.06 58.2161C588.465 43.2284 603.231 17.2293 622.873 4.89164C654.012 -14.6799 692.97 65.6254 784.685 57.7719C873.799 49.9194 995.955 -36.929 1019.7 -34.3588" stroke="#1EA027" stroke-width="0.374528" stroke-miterlimit="10"/>
<path opacity="0.6" d="M132.827 347.482C180.463 291.082 295.483 265.707 368.804 191.142C385.631 174.025 419.645 178.933 436.264 163.613C456.615 144.831 449.569 102.814 473.946 80.9691C504.243 53.7687 543.122 80.0122 567.467 62.3228C588.041 47.3775 602.547 20.0613 622.621 7.53858C653.898 -11.9659 693.154 69.5215 785.061 60.9197C874.423 52.3372 993.622 -36.771 1019.78 -33.9255" stroke="#1EA027" stroke-width="0.365715" stroke-miterlimit="10"/>
<path opacity="0.6" d="M135.766 348.533C181.903 293.854 294.922 263.409 366.833 190.914C383.767 173.839 419.44 180.729 436.154 165.481C456.499 146.92 447.016 102.882 471.788 80.7166C502.353 53.3622 542.41 84.0524 566.818 66.4854C587.555 51.5581 601.788 22.9187 622.318 10.2047C653.689 -9.23258 693.3 73.4368 785.336 64.1052C874.916 54.7866 991.214 -36.5692 1019.68 -33.4604" stroke="#1EA027" stroke-width="0.361309" stroke-miterlimit="10"/>
<path opacity="0.6" d="M138.713 349.538C183.37 296.659 294.383 261.126 364.87 190.706C381.911 173.681 419.231 182.545 436.046 167.371C456.391 149.013 444.44 102.946 469.643 80.4484C500.478 52.9462 541.724 88.0831 566.177 70.6324C587.077 55.723 601.068 25.791 622.03 12.8613C653.546 -6.50901 693.467 77.3425 785.67 67.275C875.542 57.2199 988.808 -36.3709 1019.68 -33.0113" stroke="#1EA027" stroke-width="0.352497" stroke-miterlimit="10"/>
<path opacity="0.6" d="M141.652 350.561C184.816 299.444 293.854 258.854 362.9 190.498C380.053 173.515 419.015 184.361 435.929 169.26C456.275 151.104 441.862 103.009 467.534 80.1853C498.644 52.5168 541.05 92.1128 565.578 74.7845C586.647 59.8931 600.378 28.6132 621.81 15.529C653.407 -3.78636 693.657 81.2473 786.027 70.4437C876.111 59.6526 986.45 -36.1491 1019.7 -32.5631" stroke="#1EA027" stroke-width="0.348091" stroke-miterlimit="10"/>
<path opacity="0.6" d="M144.591 351.573C186.269 302.232 293.337 256.585 360.929 190.286C378.196 173.346 418.804 186.167 435.813 171.152C456.153 153.191 439.285 103.105 465.407 79.9185C496.78 52.1145 540.369 96.1388 564.954 78.9269C586.218 64.0594 599.663 31.4503 621.514 18.181C653.224 -1.04887 693.803 85.1485 786.328 73.6089C876.654 62.0816 984.041 -35.9921 1019.66 -32.0939" stroke="#1EA027" stroke-width="0.339278" stroke-miterlimit="10"/>
<path opacity="0.6" d="M147.53 352.618C187.721 305.028 292.827 254.324 358.946 190.082C376.338 173.184 418.587 187.987 435.703 173.02C456.031 155.262 436.707 103.141 463.273 79.6352C494.921 51.6772 539.689 100.148 564.33 83.0342C585.738 68.1847 598.947 34.2523 621.243 20.7979C653.059 1.59838 693.968 89.0085 786.66 76.7329C877.222 64.5368 981.658 -35.7966 1019.66 -31.6598" stroke="#1EA027" stroke-width="0.334872" stroke-miterlimit="10"/>
<path opacity="0.6" d="M150.469 353.64C189.193 307.807 292.343 252.112 356.988 189.866C374.486 173.023 418.395 189.795 435.593 174.939C455.922 157.377 434.142 103.228 461.152 79.4017C493.032 51.2837 539.014 104.214 563.712 87.2343C585.296 72.4027 598.232 37.147 620.984 23.5075C652.889 4.36906 694.145 92.9673 786.992 79.9558C877.815 66.956 979.282 -35.6004 1019.65 -31.2004" stroke="#1EA027" stroke-width="0.326059" stroke-miterlimit="10"/>
<path opacity="0.6" d="M153.408 354.662C190.627 310.599 291.87 249.87 355.017 189.658C372.635 172.864 418.166 191.605 435.476 176.816C455.8 159.456 431.551 103.273 459.018 79.1263C491.192 50.842 538.327 108.231 563.07 91.3742C584.822 76.5605 597.498 39.9755 620.695 26.1569C652.725 7.0672 694.291 96.8598 787.305 83.1123C878.346 69.3764 976.88 -35.4214 1019.62 -30.7644" stroke="#1EA027" stroke-width="0.321653" stroke-miterlimit="10"/>
<path opacity="0.6" d="M156.387 355.688C192.112 313.388 291.437 247.651 353.085 189.447C370.81 172.702 417.957 193.412 435.368 178.702C455.679 161.539 428.975 103.327 456.892 78.8609C489.341 50.4348 537.654 112.265 562.472 95.5177C584.363 80.7466 596.791 42.8076 620.444 28.8101C652.581 9.78136 694.483 100.762 787.651 86.2787C878.934 71.8127 974.51 -35.2265 1019.63 -30.3125" stroke="#1EA027" stroke-width="0.312841" stroke-miterlimit="10"/>
<path opacity="0.6" d="M159.294 356.72C193.534 316.171 290.965 245.45 351.084 189.243C368.927 172.546 417.74 195.225 435.258 180.595C455.563 163.633 426.398 103.388 454.771 78.6013C487.483 50.0213 536.961 116.298 561.855 99.6734C583.94 84.9017 596.088 45.6395 620.18 31.4753C652.423 12.5014 694.654 104.67 787.99 89.451C879.508 74.2488 972.134 -35.0257 1019.63 -29.8608" stroke="#1EA027" stroke-width="0.308435" stroke-miterlimit="10"/>
<path opacity="0.6" d="M162.234 357.75C194.98 318.971 290.53 243.26 349.125 189.036C367.107 172.394 417.536 197.042 435.154 182.485C455.454 165.72 423.832 103.446 452.65 78.34C485.631 49.5999 536.312 120.335 561.243 103.821C583.504 89.0796 595.379 48.4942 619.921 34.1387C652.259 15.2137 694.825 108.559 788.316 92.6277C880.077 76.6832 969.751 -34.8388 1019.62 -29.374" stroke="#1EA027" stroke-width="0.299622" stroke-miterlimit="10"/>
<path opacity="0.6" d="M165.165 358.771C196.394 321.755 290.1 241.077 347.135 188.826C365.261 172.226 417.299 198.85 435.017 184.372C455.305 167.803 421.228 103.501 450.502 78.075C483.746 49.1747 535.611 124.369 560.599 107.971C583.029 93.2477 594.637 51.3268 619.63 36.7923C652.087 17.9221 694.982 112.48 788.64 95.7822C880.637 79.1015 967.36 -34.6557 1019.6 -28.9707" stroke="#1EA027" stroke-width="0.295216" stroke-miterlimit="10"/>
<path opacity="0.6" d="M168.12 359.794C197.887 324.541 289.7 238.905 345.161 188.588C363.4 172.055 417.079 200.649 434.904 186.238C455.18 169.859 418.647 103.535 448.39 77.7825C481.903 48.7344 534.952 128.376 560.022 112.088C582.627 97.3883 593.962 54.1319 619.406 39.4246C651.969 20.5969 695.2 116.355 789.013 98.9338C881.246 81.5414 964.992 -34.4632 1019.61 -28.5089" stroke="#1EA027" stroke-width="0.286404" stroke-miterlimit="10"/>
<path opacity="0.6" d="M171.059 360.828C199.34 327.338 289.303 236.753 343.209 188.409C361.58 171.937 416.881 202.463 434.806 188.156C455.077 171.973 416.082 103.621 446.257 77.5486C480.013 48.3405 534.272 132.471 559.367 116.269C582.141 101.594 593.21 56.9957 619.104 42.1094C651.743 23.3367 695.334 120.289 789.313 102.132C881.795 83.9787 962.609 -34.2613 1019.6 -28.056" stroke="#1EA027" stroke-width="0.281997" stroke-miterlimit="10"/>
<path opacity="0.6" d="M173.998 361.85C200.792 330.123 288.944 234.609 341.238 188.2C359.741 171.789 416.664 204.272 434.69 190.045C454.948 174.052 413.498 103.677 444.129 77.2852C478.174 47.923 533.597 136.494 558.743 120.415C581.693 105.763 592.488 59.8299 618.833 44.7707C651.603 26.0406 695.499 124.193 789.639 105.3C882.363 86.417 960.226 -34.0704 1019.59 -27.602" stroke="#1EA027" stroke-width="0.273185" stroke-miterlimit="10"/>
<path opacity="0.6" d="M176.937 362.868C202.239 332.905 288.547 232.468 339.268 187.988C357.908 171.632 416.441 206.071 434.58 191.924C454.826 176.127 410.92 103.724 441.996 77.012C476.309 47.4959 532.917 140.508 558.125 124.557C581.238 109.929 591.76 62.6544 618.562 47.4223C651.433 28.7348 695.67 128.119 789.971 108.459C882.932 88.8395 957.843 -33.8893 1019.56 -27.1638" stroke="#1EA027" stroke-width="0.268779" stroke-miterlimit="10"/>
<path opacity="0.6" d="M179.876 363.902C203.698 335.696 288.194 230.355 337.297 187.785C356.082 171.496 416.23 207.88 434.439 193.818C454.673 178.218 408.311 103.787 439.843 76.7302C474.419 47.054 532.217 144.513 557.476 128.69C580.765 114.087 591.013 65.4641 618.266 50.0653C651.244 31.4265 695.81 131.986 790.272 111.615C883.506 91.2778 955.491 -33.6924 1019.58 -26.7099" stroke="#1EA027" stroke-width="0.259966" stroke-miterlimit="10"/>
<path opacity="0.6" d="M182.816 364.952C205.144 338.534 287.841 228.27 335.326 187.598C354.256 171.358 416.02 209.687 434.354 195.698C454.576 180.319 405.702 103.835 437.747 76.4824C472.523 46.585 531.568 148.552 556.884 132.858C580.348 118.278 590.323 68.314 618.027 52.7422C651.105 34.1461 696.012 135.888 790.635 114.787C884.074 93.689 953.077 -33.5164 1019.59 -26.2709" stroke="#1EA027" stroke-width="0.25556" stroke-miterlimit="10"/>
<path opacity="0.6" d="M185.762 365.952C206.604 341.278 287.515 226.14 333.364 187.398C352.443 171.255 415.798 211.523 434.277 197.625C454.487 182.405 403.164 103.93 435.652 76.2577C470.704 46.2062 530.933 152.656 556.299 137.042C579.932 122.493 589.635 71.1869 617.795 55.4361C650.954 36.8888 696.217 139.843 791.001 118.006C884.65 96.1416 950.702 -33.3113 1019.57 -25.8087" stroke="#1EA027" stroke-width="0.246748" stroke-miterlimit="10"/>
<path opacity="0.6" d="M188.702 366.978C208.051 344.044 287.187 224.074 331.368 187.156C350.598 171.093 415.55 213.281 434.11 199.481C454.302 184.458 400.53 103.954 433.469 75.9558C468.783 45.7504 530.19 156.66 555.619 141.155C579.427 126.63 588.857 73.9765 617.468 58.059C650.746 39.5481 696.332 143.709 791.276 121.142C885.206 98.572 948.294 -33.1406 1019.54 -25.3688" stroke="#1EA027" stroke-width="0.242342" stroke-miterlimit="10"/>
<path opacity="0.6" d="M191.649 367.998C209.511 346.845 286.88 221.995 329.43 186.94C348.811 170.949 415.354 215.088 434.027 201.362C454.206 186.522 397.978 104.003 431.368 75.6781C466.957 45.3187 529.554 160.687 555.002 145.287C578.987 130.792 588.137 76.7842 617.205 60.7061C650.59 42.2256 696.504 147.6 791.578 124.297C885.744 100.99 945.918 -32.9395 1019.5 -24.9228" stroke="#1EA027" stroke-width="0.233529" stroke-miterlimit="10"/>
<path opacity="0.6" d="M194.588 369.031C210.964 349.648 286.571 219.948 327.46 186.742C347.016 170.862 415.143 216.902 433.91 203.267C454.078 188.611 395.413 104.076 429.24 75.4316C465.074 44.9122 528.88 164.739 554.404 149.455C578.563 134.985 587.421 79.6293 616.959 63.3782C650.445 44.9526 696.701 151.521 791.961 127.482C886.369 103.445 943.592 -32.7318 1019.55 -24.4519" stroke="#1EA027" stroke-width="0.229123" stroke-miterlimit="10"/>
<path opacity="0.6" d="M197.527 370.059C212.41 352.432 286.281 217.901 325.476 186.532C345.202 170.75 414.908 218.705 433.788 205.155C453.937 190.689 392.81 104.132 427.1 75.1675C463.228 44.494 528.206 168.78 553.786 153.6C578.121 139.16 586.737 82.4566 616.688 66.0389C650.274 47.6498 696.865 155.425 792.318 130.65C886.962 105.871 941.202 -32.5416 1019.56 -24.0048" stroke="#1EA027" stroke-width="0.22031" stroke-miterlimit="10"/>
<path opacity="0.6" d="M200.466 371.083C213.863 355.22 285.991 215.87 323.518 186.32C343.42 170.647 414.697 220.504 433.684 207.041C453.821 192.765 390.239 104.185 424.979 74.9007C461.369 44.0732 527.531 172.818 553.162 157.749C577.667 143.338 585.978 85.2752 616.417 68.6968C650.104 50.3503 697.037 159.332 792.625 133.796C887.505 108.287 938.794 -32.3725 1019.53 -23.5725" stroke="#1EA027" stroke-width="0.215904" stroke-miterlimit="10"/>
<path opacity="0.6" d="M203.421 372.109C215.288 358.003 285.697 213.846 321.551 186.109C341.635 170.558 414.477 222.299 433.564 208.927C453.69 194.835 387.658 104.239 422.849 74.6347C459.508 43.6533 526.841 176.857 552.541 161.892C577.221 147.493 585.254 88.0947 616.156 71.3802C649.942 53.0702 697.242 163.258 792.96 137.011C888.083 110.766 936.414 -32.1351 1019.53 -23.0782" stroke="#1EA027" stroke-width="0.207092" stroke-miterlimit="10"/>
<path opacity="0.6" d="M206.344 373.131C216.769 360.795 285.479 211.843 319.583 185.87C339.862 170.453 414.257 224.071 433.457 210.785C453.583 196.913 385.084 104.308 420.724 74.3715C457.646 43.23 526.189 180.899 551.939 166.044C576.795 151.694 584.548 90.9168 615.901 74.011C649.763 55.7376 697.379 167.132 793.289 140.155C888.648 113.174 934.028 -31.9624 1019.52 -22.6546" stroke="#1EA027" stroke-width="0.202686" stroke-miterlimit="10"/>
<path opacity="0.6" d="M209.283 374.165C218.215 363.591 285.189 209.857 317.606 185.691C338.098 170.421 414.028 225.879 433.347 212.703C453.436 198.985 382.506 104.351 418.597 74.1069C455.788 42.8114 525.514 184.94 551.296 170.188C576.321 155.868 583.801 93.7376 615.611 76.6651C649.592 58.422 697.544 171.072 793.615 143.323C889.216 115.605 931.645 -31.7483 1019.51 -22.1834" stroke="#1EA027" stroke-width="0.193873" stroke-miterlimit="10"/>
<path opacity="0.6" d="M212.199 375.187C219.694 366.371 284.939 207.878 315.637 185.482C336.343 170.377 413.806 227.695 433.233 214.58C453.303 201.039 379.923 104.396 416.471 73.8255C453.925 42.4066 524.842 188.988 550.674 174.34C575.881 160.051 583.075 96.56 615.342 79.3513C649.423 61.1508 697.692 174.965 793.949 146.51C889.786 118.05 929.263 -31.5631 1019.5 -21.7351" stroke="#1EA027" stroke-width="0.189467" stroke-miterlimit="10"/>
<path opacity="0.6" d="M215.17 376.212C221.128 369.141 284.699 205.921 313.673 185.277C334.611 170.362 413.57 229.471 433.123 216.49C453.181 203.134 377.352 104.474 414.344 73.5839C452.066 41.9804 524.199 193.076 550.031 178.49C575.439 164.273 582.328 99.3793 615.052 81.9855C649.259 63.8215 697.913 178.848 794.281 149.657C890.36 120.473 926.886 -31.3934 1019.5 -21.3022" stroke="#1EA027" stroke-width="0.180655" stroke-miterlimit="10"/>
<path opacity="0.6" d="M218.109 377.234C222.575 371.95 284.453 203.967 311.702 185.062C332.885 170.366 413.36 231.304 433.012 218.378C453.028 205.206 374.768 104.53 412.216 73.32C450.208 41.5565 523.518 197.104 549.414 182.635C574.997 168.467 581.569 102.134 614.787 84.6403C649.032 66.4517 698.034 182.746 794.594 152.825C890.935 122.899 924.503 -31.2213 1019.49 -20.8608" stroke="#1EA027" stroke-width="0.176248" stroke-miterlimit="10"/>
<path opacity="0.6" d="M221.056 378.271C224.035 374.744 284.215 202.052 309.74 184.862C331.193 170.417 413.126 233.061 432.904 220.269C452.92 207.25 372.198 104.626 410.09 73.053C448.351 41.1416 522.845 201.142 548.804 186.808C574.55 172.639 580.855 104.995 614.524 87.3287C648.875 69.1888 698.213 186.677 794.928 156.021C891.511 125.34 922.128 -31.0034 1019.49 -20.3982" stroke="#1EA027" stroke-width="0.167436" stroke-miterlimit="10"/>
<path opacity="0.6" d="M223.995 379.292C225.481 377.529 283.975 200.145 307.769 184.646C329.517 170.488 412.909 234.857 432.788 222.151C452.804 209.328 369.621 104.682 407.938 72.7823C446.493 40.7168 522.165 205.171 548.186 190.934C574.101 176.764 580.146 107.809 614.266 89.9581C648.743 71.9037 698.397 190.562 795.279 159.151C892.16 127.74 919.745 -30.8199 1019.48 -19.9577" stroke="#1EA027" stroke-width="0.16303" stroke-miterlimit="10"/>
<path opacity="0.6" d="M226.934 380.316C226.934 380.316 283.729 198.243 305.798 184.44C327.867 170.637 412.692 236.668 432.678 224.042C452.663 211.415 367.037 104.747 405.835 72.5214C444.634 40.2959 521.484 209.209 547.569 195.082C573.653 180.955 579.431 110.646 614.001 92.6221C648.572 74.598 698.581 194.469 795.617 162.334C892.653 130.2 917.356 -30.6264 1019.44 -19.501" stroke="#1EA027" stroke-width="0.154217" stroke-miterlimit="10"/>
</g>
</g>
<defs>
<clipPath id="clip0_19096_147516">
<rect width="1018.9" height="496.365" fill="white" transform="translate(0.867188 -36.0234) rotate(-0.158011)"/>
</clipPath>
</defs>
</svg>
