<svg width="36" height="34" viewBox="0 0 36 34" fill="none" xmlns="http://www.w3.org/2000/svg">
<path d="M35.0625 16.8125C35.0625 18.2347 33.2775 19.375 32.91 20.7203C32.5425 22.0656 33.4875 23.9619 32.7787 25.1406C32.07 26.3194 29.9175 26.4859 28.92 27.4725C27.9225 28.4591 27.765 30.5475 26.5312 31.2394C25.2975 31.9312 23.3812 31.0088 22.0031 31.3675C20.625 31.7263 19.4569 33.4688 18 33.4688C16.5431 33.4688 15.375 31.7263 14.0625 31.3675C12.75 31.0088 10.7419 31.9312 9.53438 31.2394C8.32688 30.5475 8.15625 28.4462 7.14563 27.4725C6.135 26.4987 3.99563 26.345 3.28688 25.1406C2.57812 23.9363 3.52313 22.0656 3.15563 20.7203C2.78813 19.375 0.9375 18.2347 0.9375 16.8125C0.9375 15.3903 2.7225 14.25 3.09 12.9688C3.4575 11.6875 2.5125 9.72719 3.22125 8.54844C3.93 7.36969 6.0825 7.13906 7.08 6.1525C8.0775 5.16594 8.235 3.0775 9.46875 2.38562C10.7025 1.69375 12.6187 2.61625 13.9969 2.2575C15.375 1.89875 16.5431 0.15625 18 0.15625C19.4569 0.15625 20.625 1.89875 22.0031 2.2575C23.3812 2.61625 25.3237 1.69375 26.5312 2.38562C27.7388 3.0775 27.9094 5.17875 28.92 6.1525C29.9306 7.12625 32.07 7.28 32.7787 8.48438C33.4875 9.68875 32.5425 11.5594 32.91 12.9047C33.2775 14.25 35.0625 15.3903 35.0625 16.8125Z" fill="#0FA76F"/>
<path d="M18 27.7031C24.1614 27.7031 29.1562 22.8272 29.1562 16.8125C29.1562 10.7978 24.1614 5.92188 18 5.92188C11.8386 5.92188 6.84375 10.7978 6.84375 16.8125C6.84375 22.8272 11.8386 27.7031 18 27.7031Z" fill="#20BF55"/>
<path d="M16.8541 19.8491C16.7248 19.8497 16.5966 19.8251 16.4772 19.7767C16.3577 19.7283 16.2494 19.6571 16.1585 19.5672L13.1004 16.6332C12.916 16.453 12.8125 16.2087 12.8125 15.9541C12.8125 15.6994 12.916 15.4552 13.1004 15.275C13.285 15.0951 13.5351 14.994 13.796 14.994C14.0569 14.994 14.3071 15.0951 14.4916 15.275L16.8541 17.5557L21.5004 13.0841C21.6866 12.904 21.9385 12.8035 22.2006 12.8047C22.4628 12.8059 22.7137 12.9087 22.8982 13.0905C23.0827 13.2723 23.1856 13.5182 23.1844 13.7741C23.1832 14.03 23.0779 14.2749 22.8916 14.455L17.5366 19.58C17.448 19.6684 17.3416 19.7379 17.2242 19.7842C17.1067 19.8305 16.9808 19.8526 16.8541 19.8491Z" fill="#EDEBEA"/>
</svg>
