<svg xmlns="http://www.w3.org/2000/svg" xmlns:xlink="http://www.w3.org/1999/xlink" width="510" height="372" viewBox="0 0 510 372">
  <defs>
    <clipPath id="clip-path">
      <rect id="Rectangle_17863" data-name="Rectangle 17863" width="510" height="372" transform="translate(859 338)" fill="#f6f6f6"/>
    </clipPath>
    <linearGradient id="linear-gradient" x1="0.5" y1="-0.227" x2="0.5" y2="0.559" gradientUnits="objectBoundingBox">
      <stop offset="0" stop-color="#e5e5e5"/>
      <stop offset="0.476" stop-color="#f3f3f3"/>
      <stop offset="1" stop-color="#fff" stop-opacity="0"/>
    </linearGradient>
    <linearGradient id="linear-gradient-2" x1="0.5" x2="-1.055" y2="2.807" gradientUnits="objectBoundingBox">
      <stop offset="0" stop-color="#4e9cff"/>
      <stop offset="0.984" stop-color="#176ad4"/>
    </linearGradient>
    <linearGradient id="linear-gradient-3" x2="0.5" y2="1" xlink:href="#linear-gradient-2"/>
  </defs>
  <g id="Mask_Group_266" data-name="Mask Group 266" transform="translate(-859 -338)" clip-path="url(#clip-path)">
    <g id="Group_44685" data-name="Group 44685">
      <g id="Group_42613" data-name="Group 42613" transform="translate(186)">
        <g id="Group_35112" data-name="Group 35112" transform="translate(676.969 568.146)">
          <path id="Path_81690" data-name="Path 81690" d="M1769.168,909.615a3.541,3.541,0,0,0-7,1.094c.509,3.3,1.155,13.631-2.41,17.789a4.76,4.76,0,0,1-2.875,1.653l.324-19.679a5.118,5.118,0,1,0-10.235.042l.925,37.347a4.778,4.778,0,0,1-3-1.669c-3.566-4.158-2.919-14.491-2.411-17.789a3.541,3.541,0,1,0-7-1.095c-.254,1.625-2.3,16.093,4.022,23.483a11.989,11.989,0,0,0,8.558,4.207l.4,16.256h7.728l.561-33.963a11.966,11.966,0,0,0,8.377-4.193C1771.469,925.708,1769.423,911.24,1769.168,909.615Z" transform="translate(-1349.698 -905.268)" fill="#bdbdbd"/>
          <path id="Path_81691" data-name="Path 81691" d="M1209.1,965.36a2.257,2.257,0,1,0-4.46.7c.324,2.1.736,8.689-1.537,11.339a3.034,3.034,0,0,1-1.832,1.054l.207-12.545a3.263,3.263,0,1,0-6.525.027l.59,23.807a3.041,3.041,0,0,1-1.909-1.063c-2.273-2.65-1.861-9.238-1.537-11.34a2.257,2.257,0,1,0-4.46-.7c-.162,1.036-1.468,10.259,2.564,14.97a7.642,7.642,0,0,0,5.455,2.681l.257,10.363h4.926L1201.2,983a7.633,7.633,0,0,0,5.341-2.673C1210.568,975.619,1209.263,966.4,1209.1,965.36Z" transform="translate(-1119.573 -929.354)" fill="#bdbdbd"/>
          <ellipse id="Ellipse_4177" data-name="Ellipse 4177" cx="254.831" cy="90.215" rx="254.831" ry="90.215" transform="translate(0 44.772)" fill="url(#linear-gradient)"/>
        </g>
      </g>
      <g id="Group_44683" data-name="Group 44683" transform="translate(36.697 -40.012)">
        <g id="Group_42607" data-name="Group 42607" transform="translate(917.295 445.311)">
          <g id="Group_42605" data-name="Group 42605" transform="translate(15.702)">
            <rect id="Rectangle_17705" data-name="Rectangle 17705" width="268.319" height="171.724" rx="37.533" transform="translate(1.496 1.495)" fill="#fff"/>
            <path id="Path_100404" data-name="Path 100404" d="M1212.436,620.026H969.064a13.985,13.985,0,0,1-13.969-13.969V459.279a13.984,13.984,0,0,1,13.969-13.968h243.372a13.984,13.984,0,0,1,13.968,13.968V606.057A13.985,13.985,0,0,1,1212.436,620.026ZM969.064,448.3a10.99,10.99,0,0,0-10.978,10.978V606.057a10.99,10.99,0,0,0,10.978,10.978h243.372a10.99,10.99,0,0,0,10.978-10.978V459.279a10.99,10.99,0,0,0-10.978-10.978Z" transform="translate(-955.095 -445.311)" fill="#e3ecf5"/>
          </g>
          <g id="Group_42606" data-name="Group 42606" transform="translate(119.189 42.598)" opacity="0">
            <path id="Path_100405" data-name="Path 100405" d="M1213.026,557.236q8.81-9.378,24.19-9.379,14.225,0,22.781,8.024t8.557,20.506q0,7.561-3.1,12.268t-12.716,13.838q-6.992,6.633-9.1,11.234t-2.111,13.588h-12.7q0-10.2,2.425-16.441t10.791-14.3l5.821-5.635a24.456,24.456,0,0,0,4.249-5.064,17.635,17.635,0,0,0,2.962-9.629,18.4,18.4,0,0,0-4.261-12.126q-4.259-5.136-14.091-5.135-12.162,0-16.822,8.844-2.621,4.922-2.985,14.194h-12.7Q1204.217,566.616,1213.026,557.236Zm15.514,81.919h14.194v14.836h-14.194Z" transform="translate(-1204.217 -547.857)" fill="#58cfaa"/>
          </g>
          <path id="Path_100406" data-name="Path 100406" d="M1178.811,500.528H918.79a1.5,1.5,0,1,1,0-2.991h260.021a1.5,1.5,0,1,1,0,2.991Z" transform="translate(-917.295 -475.842)" fill="#e3ecf5"/>
          <circle id="Ellipse_4547" data-name="Ellipse 4547" cx="3.021" cy="3.021" r="3.021" transform="matrix(0.16, -0.987, 0.987, 0.16, 27.913, 15.506)" fill="#e3ecf5"/>
          <circle id="Ellipse_4548" data-name="Ellipse 4548" cx="3.021" cy="3.021" r="3.021" transform="translate(39.933 15.254) rotate(-76.717)" fill="#e3ecf5"/>
          <circle id="Ellipse_4549" data-name="Ellipse 4549" cx="3.021" cy="3.021" r="3.021" transform="matrix(0.16, -0.987, 0.987, 0.16, 52.289, 15.506)" fill="#e3ecf5"/>
        </g>
      </g>
      <g id="Group_44682" data-name="Group 44682" transform="translate(8425.525 18518.986)">
        <path id="Path_105532" data-name="Path 105532" d="M333.473,408.031l-7.062-61.863h-3.82l3.542,26.678H318.17l3.543-26.678h-3.82l-7.063,61.863a1.323,1.323,0,0,0,2.626.324l4.336-32.658h8.721l4.337,32.658a1.322,1.322,0,0,0,2.625-.324Z" transform="translate(-7677.312 -18297.389)" fill="#92c3fe"/>
        <path id="Path_105533" data-name="Path 105533" d="M422.652,408.031l-7.063-61.863h-3.82l3.543,26.678h-7.963l3.543-26.678h-3.82l-7.063,61.863a1.322,1.322,0,0,0,2.625.324L406.97,375.7h8.721l4.337,32.658a1.322,1.322,0,0,0,2.625-.324Z" transform="translate(-7682.288 -18297.389)" fill="#92c3fe"/>
        <path id="Path_105534" data-name="Path 105534" d="M314.872,347.034V341.4H419.614v6.041Z" transform="translate(-7677.538 -18297.121)" fill="#bdf"/>
        <rect id="Rectangle_17862" data-name="Rectangle 17862" width="121.155" height="4.058" transform="translate(-7371.772 -17957.754)" fill="#e0edfc"/>
        <path id="Path_105535" data-name="Path 105535" d="M361.987,325.719l-5.259,9.748a2.051,2.051,0,0,0,1.805,3.025h31.022L376.6,331.541l2.615-5.822Z" transform="translate(-7679.86 -18296.248)" fill="#d5e7ff"/>
        <path id="Path_105536" data-name="Path 105536" d="M402.157,317.92,398.2,282.859a4.526,4.526,0,0,0-4.5-4.019H339.331a4.2,4.2,0,0,0-4.186,4.481l2.476,36.239a3.8,3.8,0,0,0,3.794,3.544h56.11A4.661,4.661,0,0,0,402.157,317.92Z" transform="translate(-7678.668 -18293.631)" fill="#d5e7ff"/>
        <path id="Path_105537" data-name="Path 105537" d="M402.308,317.92l-3.952-35.061a4.526,4.526,0,0,0-4.5-4.019H342.541a4.708,4.708,0,0,0-4.7,5.05l2.494,34.4a5.183,5.183,0,0,0,5.169,4.809h52.167A4.661,4.661,0,0,0,402.308,317.92Z" transform="translate(-7678.819 -18293.631)" fill="#d5e7ff"/>
        <path id="Path_105538" data-name="Path 105538" d="M342.475,284.612l2.652,33.679a.51.51,0,0,0,.508.469h52.318a.509.509,0,0,0,.506-.561L395,284.52a.51.51,0,0,0-.507-.457H342.982A.509.509,0,0,0,342.475,284.612Z" transform="translate(-7679.078 -18293.924)" fill="url(#linear-gradient-2)"/>
        <path id="Path_105539" data-name="Path 105539" d="M360.3,332.921l4.068-7.2h-2.377l-5.259,9.748a2.051,2.051,0,0,0,1.805,3.025H373.87l-.6-.806a3.329,3.329,0,0,0-2.53-1.342l-8.756-.38A2.041,2.041,0,0,1,360.3,332.921Z" transform="translate(-7679.86 -18296.248)" fill="#d5e7ff"/>
        <path id="Path_105540" data-name="Path 105540" d="M466.238,418.923v-34.7h2.941l-1.428,34.77c-.025.593-.356,1.057-.756,1.057h0C466.577,420.049,466.238,419.545,466.238,418.923Z" transform="translate(-7685.984 -18299.512)" fill="#92c3fe"/>
        <path id="Path_105541" data-name="Path 105541" d="M432.505,423.312v-34.7h2.941l-1.428,34.769c-.025.594-.355,1.057-.756,1.057h0C432.844,424.438,432.505,423.934,432.505,423.312Z" transform="translate(-7684.102 -18299.756)" fill="#92c3fe"/>
        <path id="Path_105542" data-name="Path 105542" d="M430.523,385.453s6.862,5.971,19.428,6.417v34.136a.679.679,0,0,0,.68.68h0a.68.68,0,0,0,.678-.624l2.8-34.37s9.447.06,15.269-2.317l.783,35.378a.913.913,0,0,0,.914.893h0a.913.913,0,0,0,.913-.888l1.044-36.364s6.216-.873,6.885-14.107a72.974,72.974,0,0,1,1.749-12.962c1.455-6.209,3.918-14.2,7.7-19.156a4.445,4.445,0,0,0,.971-2.516c.06-1.746-.947-4.225-6.466-5.532-9.594-2.272-13.9,3.683-13.9,3.683a38.835,38.835,0,0,0-4.277,10.457C464.151,354.44,430.523,385.453,430.523,385.453Z" transform="translate(-7683.991 -18296.688)" fill="#aed3fe"/>
        <path id="Path_105543" data-name="Path 105543" d="M432.505,380.243s8.823,9.378,29.32,4.833c0,0,13.19-2.407,14.615-13.9a173.408,173.408,0,0,1,5.08-24.419l2.423-5.451a2.3,2.3,0,0,0-1.98-3.236,23.287,23.287,0,0,1-6.885-1.4,3.663,3.663,0,0,0-4.143,1.115c-2.6,3.243-7.225,9.032-7.417,9.381C463.251,347.646,432.505,380.243,432.505,380.243Z" transform="translate(-7684.102 -18296.844)" fill="#aed3fe"/>
        <path id="Path_105544" data-name="Path 105544" d="M467.3,351.476a26.218,26.218,0,0,0-2.862-4.964c-.524.67-.868,1.121-.917,1.21-.267.486-31.013,33.083-31.013,33.083s5.307,5.633,17.242,6.049C451.618,386.325,479.3,378,467.3,351.476Z" transform="translate(-7684.102 -18297.408)" fill="#aed3fe"/>
        <path id="Path_105545" data-name="Path 105545" d="M387.237,431.8s2.673-3.357,4.813-6.565l4.456,3.744s-3.743,7.931-5.793,10.16S384.358,435.6,387.237,431.8Z" transform="translate(-7681.522 -18301.801)" fill="#fdaa8a"/>
        <path id="Path_105546" data-name="Path 105546" d="M414.383,438.047l.98-8.377h7.4s-.713,8.11-.8,9S414.383,438.047,414.383,438.047Z" transform="translate(-7683.09 -18302.047)" fill="#fdaa8a"/>
        <path id="Path_105547" data-name="Path 105547" d="M414.59,429.019l8.3-.84a.963.963,0,0,0,.87-.9c.336-5.535,2.4-37.711,5.655-50.4l14.258-14.255L436,358.884,414.677,368.8c-2.615,1.43-4.31,3.808-4.059,6.794.994,11.834,3.011,40.25,3.1,52.649A.786.786,0,0,0,414.59,429.019Z" transform="translate(-7682.879 -18298.098)" fill="#001c68"/>
        <path id="Path_105548" data-name="Path 105548" d="M395.923,426.847A22.26,22.26,0,0,1,388,422.932a.88.88,0,0,1-.287-1c1.508-4.093,10.5-28.076,19.118-41.819,0,0,6.694-6.524,31.162-17.73s28.113-7.194,28.113-7.194,5.426,21.27-22.053,30.123c0,0-9.535,3.21-17.761,3.265a7.182,7.182,0,0,0-5.073,2.192c-3.575,3.654-11.087,12.9-24.306,35.65A.9.9,0,0,1,395.923,426.847Z" transform="translate(-7681.6 -18297.854)" fill="#003180"/>
        <path id="Path_105549" data-name="Path 105549" d="M388.713,436.131a1.365,1.365,0,0,1-1.184-1.409c.031-1.057-.033-3.252-1.024-4.052-1.011-.816-3.067.547-3.985,1.239a1.777,1.777,0,0,1-1.087.361l-2.063-.015a10.618,10.618,0,0,1-4.974-1.244,8.517,8.517,0,0,0-6.237-.669,1.513,1.513,0,0,0-1.1,1.9c.531,1.771,2.235,4.849,7.672,7.658a7.615,7.615,0,0,0,.965.412,36.769,36.769,0,0,1,7.393,3.368c5.689,3.476,8.421-5.347,8.421-5.347s.8-1.47,0-2.094C390.987,435.835,389.712,436.239,388.713,436.131Z" transform="translate(-7680.446 -18302.068)" fill="#001c68"/>
        <path id="Path_105550" data-name="Path 105550" d="M417.091,437.6a1.357,1.357,0,0,1-1.509-1.618c.356-1.395.446-3.334-1.744-3.485,0,0-1.046-.318-2.382,2.309a6.228,6.228,0,0,1-4.1,3.343,6.936,6.936,0,0,1-1.542.171c-2.726,0-5.411,1.736-5.95,3.934a1.286,1.286,0,0,0,1.033,1.584c1.8.3,6.127.749,14.9.394a18.5,18.5,0,0,0,3.221-.425,15.115,15.115,0,0,1,3.206-.229c1.143,0,2.395-.727,2.337-1.729a19.974,19.974,0,0,0-.659-3.826s-.5-3.139-1.96-3.208c-1.4-.067-1.562.744-2.055,1.357a3.045,3.045,0,0,1-1.243,1.16A4.953,4.953,0,0,1,417.091,437.6Z" transform="translate(-7682.278 -18302.205)" fill="#001c68"/>
        <path id="Path_105551" data-name="Path 105551" d="M385.679,330.98c2.964,1.839,20.773,12.477,32.158,15.079v-7.664l11.378,5.168s0,5.677-.48,11.043a5.417,5.417,0,0,1-6.435,4.85,36.887,36.887,0,0,1-9.929-3.654c-9.744-5.109-29.47-20.437-29.47-20.437s-5.733,1.009-9.119.074a2.315,2.315,0,0,1-1.515-2.094s.1-4.829,1.3-4.784c0,0,6.1,2.2,7.746,1.531,0,0,.313.134,1.515-1.381s1.337-2.584,3.074-2.629c0,0,.713.49.044,1.916a5.853,5.853,0,0,0-.786,2.139A1.089,1.089,0,0,0,385.679,330.98Z" transform="translate(-7680.811 -18296.268)" fill="#fdaa8a"/>
        <path id="Path_105552" data-name="Path 105552" d="M431.724,344.66c-.018-.27-5.08-3.544-13.012-4.367,0,0,.357-9.358,0-14.081s-.8-10.338,4.1-14.972l6.01-4.367,5.763.93c6.912.466,12.378,5.1,35.353,40.265a2.49,2.49,0,0,1-.225,2.953c-3.554,4.217-15.392,15.722-34.513,9.324C435.2,360.345,431.9,347.423,431.724,344.66Z" transform="translate(-7683.321 -18295.197)" fill="url(#linear-gradient-3)"/>
        <path id="Path_105553" data-name="Path 105553" d="M421.389,307.965s8.169-2.658,10.784-4.441l-2.852-10.219s-4.3-24.207-19.747-8.878c-2.009,2.849,2.1,5.4-2.718,9.569a.561.561,0,0,0,.157.946l.985.922a.682.682,0,0,1,.391.416,17.644,17.644,0,0,1,1.278,6.157,1.922,1.922,0,0,0,2.284,1.8c1.307-.257,2.895-.8,4.966-1.463a1.988,1.988,0,0,1,2.024.509C419.488,303.845,420.713,306.814,421.389,307.965Z" transform="translate(-7682.789 -18293.66)" fill="#fdaa8a"/>
        <path id="Path_105554" data-name="Path 105554" d="M416.413,290.46s2.407-3.387,4.59-1.248-1.115,4.768-3.365,4.768c1.494,3.074.842,10.382,7.866,8.911a15.375,15.375,0,0,0,5.536-1.987,1.391,1.391,0,0,0,.565-1.477c-.355-1.4-.9-4.359.227-6.339,1.415-2.5,3.039-8.524-.2-15.363a4.929,4.929,0,0,0-2.271-2.292c-3.029-1.5-10.127-4.175-17.02-.526,0,0-10.622.889-9.566,5.748,0,0,.954,4.765,10.689,4.882a2.152,2.152,0,0,1,2.132,2.085A5.763,5.763,0,0,0,416.413,290.46Z" transform="translate(-7682.447 -18293.443)" fill="#001c68"/>
        <path id="Path_105555" data-name="Path 105555" d="M420.636,313.921s-1.586-4.032,3.26-6.349c0,0,11.342-5.951,12.355.322A21.716,21.716,0,0,0,420.636,313.921Z" transform="translate(-7683.426 -18295.092)" fill="#83bbff"/>
        <path id="Path_105564" data-name="Path 105564" d="M362.161,309.729l-10.347.066a2.792,2.792,0,0,1-2.906-2.673l-.765-10.33a2.792,2.792,0,0,1,2.673-2.906l10.347-.066a2.792,2.792,0,0,1,2.906,2.673l.766,10.33A2.793,2.793,0,0,1,362.161,309.729Z" transform="translate(-7679.395 -18294.467)" fill="#fff"/>
        <path id="Path_105565" data-name="Path 105565" d="M392.733,297.824H370.611a1.225,1.225,0,0,1-1.225-1.225h0a1.225,1.225,0,0,1,1.225-1.226h22.123a1.225,1.225,0,0,1,1.226,1.226h0A1.225,1.225,0,0,1,392.733,297.824Z" transform="translate(-7680.58 -18294.555)" fill="#fff"/>
        <path id="Path_105566" data-name="Path 105566" d="M392.993,303.009H370.871a1.225,1.225,0,0,1-1.226-1.226h0a1.225,1.225,0,0,1,1.226-1.226h22.123a1.225,1.225,0,0,1,1.226,1.226h0A1.225,1.225,0,0,1,392.993,303.009Z" transform="translate(-7680.594 -18294.844)" fill="#fff"/>
        <path id="Path_105567" data-name="Path 105567" d="M381.431,308.021h-10.3a1.225,1.225,0,0,1-1.226-1.225h0a1.225,1.225,0,0,1,1.226-1.226h10.3a1.225,1.225,0,0,1,1.226,1.226h0A1.225,1.225,0,0,1,381.431,308.021Z" transform="translate(-7680.609 -18295.125)" fill="#fff"/>
      </g>
    </g>
  </g>
</svg>
