<svg width="24" height="24" viewBox="0 0 24 24" fill="none" xmlns="http://www.w3.org/2000/svg">
<path d="M18.768 4H18V3C18 2.73478 17.8946 2.48043 17.7071 2.29289C17.5196 2.10536 17.2652 2 17 2C16.7348 2 16.4804 2.10536 16.2929 2.29289C16.1054 2.48043 16 2.73478 16 3V4H8V3C8 2.73478 7.89464 2.48043 7.70711 2.29289C7.51957 2.10536 7.26522 2 7 2C6.73478 2 6.48043 2.10536 6.29289 2.29289C6.10536 2.48043 6 2.73478 6 3V4H5.232C4.37482 4 3.55275 4.34051 2.94663 4.94663C2.34051 5.55275 2 6.37482 2 7.232L2 18.768C2 19.6252 2.34051 20.4473 2.94663 21.0534C3.55275 21.6595 4.37482 22 5.232 22H18.768C19.6252 22 20.4473 21.6595 21.0534 21.0534C21.6595 20.4473 22 19.6252 22 18.768V7.232C22 6.37482 21.6595 5.55275 21.0534 4.94663C20.4473 4.34051 19.6252 4 18.768 4V4ZM20 18.768C20 19.0947 19.8702 19.4081 19.6392 19.6392C19.4081 19.8702 19.0947 20 18.768 20H5.232C4.90525 20 4.59189 19.8702 4.36084 19.6392C4.1298 19.4081 4 19.0947 4 18.768V7.232C4 6.90525 4.1298 6.59189 4.36084 6.36084C4.59189 6.1298 4.90525 6 5.232 6H6V7C6 7.26522 6.10536 7.51957 6.29289 7.70711C6.48043 7.89464 6.73478 8 7 8C7.26522 8 7.51957 7.89464 7.70711 7.70711C7.89464 7.51957 8 7.26522 8 7V6H16V7C16 7.26522 16.1054 7.51957 16.2929 7.70711C16.4804 7.89464 16.7348 8 17 8C17.2652 8 17.5196 7.89464 17.7071 7.70711C17.8946 7.51957 18 7.26522 18 7V6H18.768C19.0947 6 19.4081 6.1298 19.6392 6.36084C19.8702 6.59189 20 6.90525 20 7.232V18.768Z" fill="#111111"/>
<path d="M12 13.2C12.5523 13.2 13 12.7522 13 12.2C13 11.6477 12.5523 11.2 12 11.2C11.4477 11.2 11 11.6477 11 12.2C11 12.7522 11.4477 13.2 12 13.2Z" fill="#111111"/>
<path d="M12 16.8C12.5523 16.8 13 16.3523 13 15.8C13 15.2478 12.5523 14.8 12 14.8C11.4477 14.8 11 15.2478 11 15.8C11 16.3523 11.4477 16.8 12 16.8Z" fill="#111111"/>
<path d="M8.40039 16.8C8.95268 16.8 9.40039 16.3523 9.40039 15.8C9.40039 15.2478 8.95268 14.8 8.40039 14.8C7.84811 14.8 7.40039 15.2478 7.40039 15.8C7.40039 16.3523 7.84811 16.8 8.40039 16.8Z" fill="#111111"/>
<path d="M15.5996 13.2C16.1519 13.2 16.5996 12.7522 16.5996 12.2C16.5996 11.6477 16.1519 11.2 15.5996 11.2C15.0473 11.2 14.5996 11.6477 14.5996 12.2C14.5996 12.7522 15.0473 13.2 15.5996 13.2Z" fill="#00C569"/>
<path d="M15.5996 16.8C16.1519 16.8 16.5996 16.3523 16.5996 15.8C16.5996 15.2478 16.1519 14.8 15.5996 14.8C15.0473 14.8 14.5996 15.2478 14.5996 15.8C14.5996 16.3523 15.0473 16.8 15.5996 16.8Z" fill="#00C569"/>
</svg>
