<svg id="Layer_2" data-name="Layer 2" xmlns="http://www.w3.org/2000/svg" width="17.988" height="17.988" viewBox="0 0 17.988 17.988">
  <g id="Clock">
    <path id="Path_100426" data-name="Path 100426" d="M24.368,21.533l3.238-1.759a.9.9,0,0,0-.953-1.525l-3.238,1.759a.9.9,0,1,0,.953,1.525Z" transform="translate(-14.719 -11.597)" fill="#ffa959"/>
    <path id="Path_100427" data-name="Path 100427" d="M8.994,0a8.994,8.994,0,1,0,8.994,8.994A8.994,8.994,0,0,0,8.994,0Zm0,16.189a7.2,7.2,0,1,1,7.2-7.2A7.2,7.2,0,0,1,8.994,16.189Z" fill="#ffa959"/>
    <path id="Path_100428" data-name="Path 100428" d="M14.18,13.317a.9.9,0,0,0-1.216,1.324l3.731,3.6a.9.9,0,1,0,1.216-1.324Z" transform="translate(-8.129 -8.388)" fill="#ffa959"/>
  </g>
</svg>
