<svg xmlns="http://www.w3.org/2000/svg" width="26.083" height="29" viewBox="0 0 26.083 29">
  <g id="Group_44639" data-name="Group 44639" transform="translate(-729.704 -475.43)">
    <g id="Layer_2" data-name="Layer 2" transform="translate(739.385 475.43)">
      <g id="Cursor">
        <path id="Path_94123" data-name="Path 94123" d="M746.1,475.436a5.1,5.1,0,0,0-3.274,8.768.985.985,0,0,0,1.619-.468.96.96,0,0,0-.247-.937,3.138,3.138,0,0,1-.98-2.305,3.172,3.172,0,0,1,2.941-3.1,3.136,3.136,0,0,1,3.138,2.074.921.921,0,0,0,.709.62h.084a.965.965,0,0,0,1.059-1.278A5.1,5.1,0,0,0,746.1,475.436Z" transform="translate(-741.261 -475.43)" fill="#ffa959"/>
        <path id="Path_94124" data-name="Path 94124" d="M757.936,486.419l-10.277-5.987a1.023,1.023,0,0,0-1.533,1.024l1.623,11.786a1.027,1.027,0,0,0,1.568.718.891.891,0,0,0,.177-.149l2.835-2.964,3.051,4.548a.981.981,0,0,0,1.631-1.089l-3.043-4.544,3.824-1.487a.942.942,0,0,0,.2-.106,1.027,1.027,0,0,0-.059-1.745Zm-3.042.866-2.353.921a2.978,2.978,0,0,0-1.082.73l-1.749,1.831a.2.2,0,0,1-.277,0,.192.192,0,0,1-.058-.114l-.988-7.16a.2.2,0,0,1,.294-.2l6.242,3.646a.2.2,0,0,1-.028.353Z" transform="translate(-742.049 -476.219)" fill="#ffa959"/>
      </g>
    </g>
    <g id="Layer_2-2" data-name="Layer 2-2" transform="translate(729.704 484.829)">
      <g id="Avatar">
        <path id="Path_94125" data-name="Path 94125" d="M748.061,503.164l-.5-2.38a4.7,4.7,0,0,0-2.137-3.046l-3.016-1.866a4.336,4.336,0,0,0,.844-2.14l.24-2.254a4.362,4.362,0,0,0-3.875-4.8,4.248,4.248,0,0,0-.462-.025h-.485a4.364,4.364,0,0,0-4.362,4.365,4.451,4.451,0,0,0,.024.462l.243,2.254a4.351,4.351,0,0,0,.843,2.14l-3.015,1.866a4.706,4.706,0,0,0-2.139,3.046l-.5,2.38a2.561,2.561,0,0,0,1.978,3.033,2.614,2.614,0,0,0,.529.054h13.29a2.557,2.557,0,0,0,2.505-3.089ZM736.883,489.4a2.384,2.384,0,0,1,1.785-.784h.482a2.4,2.4,0,0,1,2.4,2.4,2.238,2.238,0,0,1-.014.261l-.236,2.251a2.4,2.4,0,0,1-4.779,0l-.24-2.251A2.354,2.354,0,0,1,736.883,489.4Zm9.139,14.659a.578.578,0,0,1-.467.224h-13.29a.58.58,0,0,1-.467-.224.6.6,0,0,1-.133-.482l.5-2.38a2.785,2.785,0,0,1,1.261-1.783l3.579-2.219a4.336,4.336,0,0,0,3.8,0l3.579,2.219a2.777,2.777,0,0,1,1.251,1.78l.5,2.38a.591.591,0,0,1-.121.5Z" transform="translate(-729.704 -486.651)" fill="#ffa959"/>
      </g>
    </g>
    <rect id="Rectangle_15009" data-name="Rectangle 15009" width="4.581" height="1.832" rx="0.916" transform="translate(739.383 499.645)" fill="#ffa959"/>
  </g>
</svg>
