<svg xmlns="http://www.w3.org/2000/svg" width="27.238" height="29" viewBox="0 0 27.238 29">
  <g id="Layer_2" data-name="Layer 2" transform="translate(0.001)">
    <g id="Avatar" transform="translate(-0.001 0)">
      <path id="Path_94125" data-name="Path 94125" d="M27.155,24.43l-.742-3.521A6.96,6.96,0,0,0,23.252,16.4l-4.46-2.761a6.426,6.426,0,0,0,1.247-3.167l.354-3.335A6.455,6.455,0,0,0,13.978,0h-.713A6.455,6.455,0,0,0,6.844,7.14l.36,3.335A6.426,6.426,0,0,0,8.45,13.642L3.984,16.4A6.96,6.96,0,0,0,.823,20.909L.081,24.43A3.787,3.787,0,0,0,3.787,29H23.449a3.787,3.787,0,0,0,3.706-4.57ZM10.619,4.06A3.521,3.521,0,0,1,13.264,2.9h.713A3.55,3.55,0,0,1,17.51,6.832l-.354,3.329a3.555,3.555,0,0,1-7.07,0L9.732,6.832a3.48,3.48,0,0,1,.887-2.772Zm13.52,21.692a.858.858,0,0,1-.69.331H3.787a.858.858,0,0,1-.69-.331.882.882,0,0,1-.2-.725l.742-3.521A4.112,4.112,0,0,1,5.51,18.873l5.3-3.283a6.415,6.415,0,0,0,5.626,0l5.3,3.283a4.112,4.112,0,0,1,1.85,2.633l.742,3.521a.882.882,0,0,1-.18.742Z" transform="translate(0.001 0)" fill="#77c1d8"/>
      <rect id="Rectangle_15007" data-name="Rectangle 15007" width="5.577" height="2.231" rx="1.115" transform="translate(14.733 21.192)" fill="#77c1d8"/>
    </g>
  </g>
</svg>
