<svg id="Layer_2" data-name="Layer 2" xmlns="http://www.w3.org/2000/svg" width="28.967" height="28.967" viewBox="0 0 28.967 28.967">
  <g id="Menu" transform="translate(0 0)">
    <path id="Path_94146" data-name="Path 94146" d="M24.286,0H4.681A4.681,4.681,0,0,0,0,4.681v19.6a4.681,4.681,0,0,0,4.681,4.681h19.6a4.681,4.681,0,0,0,4.681-4.681V4.681A4.681,4.681,0,0,0,24.286,0ZM26.07,24.286a1.784,1.784,0,0,1-1.784,1.784H4.681A1.784,1.784,0,0,1,2.9,24.286V4.681A1.784,1.784,0,0,1,4.681,2.9h19.6A1.784,1.784,0,0,1,26.07,4.681Z" transform="translate(0 0)" fill="#00cc8a"/>
    <path id="Path_94147" data-name="Path 94147" d="M28.037,12H11.64c-.906,0-1.64.52-1.64,1.161s.734,1.161,1.64,1.161h16.4c.906,0,1.64-.52,1.64-1.161S28.943,12,28.037,12Zm0,5.109H11.64c-.906,0-1.64.52-1.64,1.161s.734,1.161,1.64,1.161h16.4c.906,0,1.64-.52,1.64-1.161S28.943,17.109,28.037,17.109Z" transform="translate(-5.355 -4.399)" fill="#00cc8a"/>
    <rect id="Rectangle_15025" data-name="Rectangle 15025" width="12.076" height="2.787" rx="1.393" transform="translate(6.965 20.167)" fill="#00cc8a"/>
  </g>
</svg>
