<svg xmlns="http://www.w3.org/2000/svg" width="34.124" height="28.916" viewBox="0 0 34.124 28.916">
  <g id="Group_44640" data-name="Group 44640" transform="translate(-726.393 -477.925)">
    <g id="Layer_2" data-name="Layer 2" transform="translate(744.266 483.872)">
      <g id="Menu">
        <path id="Path_94127" data-name="Path 94127" d="M754.815,483.934H745.4a1.283,1.283,0,0,0,0,2.474h9.412a1.283,1.283,0,0,0,0-2.474Zm0,5.443H745.4a1.244,1.244,0,0,0-.934,1.435,1.2,1.2,0,0,0,.934,1.039h9.412a1.247,1.247,0,0,0,.925-1.444A1.2,1.2,0,0,0,754.815,489.376Z" transform="translate(-744.455 -483.934)" fill="#d288e3"/>
        <path id="Rectangle_15008" data-name="Rectangle 15008" d="M750.018,494.932h4.448a1.415,1.415,0,0,1,1.334,1.484h0a1.415,1.415,0,0,1-1.334,1.484h-4.448a1.415,1.415,0,0,1-1.334-1.484h0A1.415,1.415,0,0,1,750.018,494.932Z" transform="translate(-744.499 -484.049)" fill="#d288e3"/>
      </g>
    </g>
    <g id="Layer_2-2" data-name="Layer 2-2" transform="translate(726.393 477.925)">
      <g id="Avatar">
        <path id="Path_94126" data-name="Path 94126" d="M756.518,477.934H739.775a4,4,0,0,0-4,4v1.91a5.154,5.154,0,0,0-3.947,5.006,4.906,4.906,0,0,0,.029.545l.287,2.661a5.17,5.17,0,0,0,1,2.534l-3.561,2.207a5.552,5.552,0,0,0-2.533,3.591l-.595,2.821a3.034,3.034,0,0,0,2.335,3.582,3.436,3.436,0,0,0,.633.059h15.694a3.026,3.026,0,0,0,3.028-3.019,2.753,2.753,0,0,0-.068-.633l-.109-.525h8.549a4,4,0,0,0,4-4V481.933A4,4,0,0,0,756.518,477.934Zm-21.642,9.006a2.783,2.783,0,0,1,.9-.663,2.816,2.816,0,0,1,1.208-.267h.573a2.652,2.652,0,0,1,.693.088,2.825,2.825,0,0,1,2.138,2.741,3.053,3.053,0,0,1-.01.308l-.287,2.661a2.823,2.823,0,0,1-1.841,2.366,2.769,2.769,0,0,1-1.285.157,2.71,2.71,0,0,1-1.188-.416,2.793,2.793,0,0,1-1.326-2.108l-.287-2.661A2.776,2.776,0,0,1,734.876,486.94Zm10.945,16.742a.721.721,0,0,1-.148.595v-.02a.662.662,0,0,1-.554.256H729.424a.662.662,0,0,1-.554-.256.71.71,0,0,1-.158-.575l.594-2.809a3.284,3.284,0,0,1,1.5-2.109l4.226-2.622a4.284,4.284,0,0,0,.751.287,5.2,5.2,0,0,0,3.742-.287l4.224,2.622A3.34,3.34,0,0,1,745,500.2a3.227,3.227,0,0,1,.227.674l.377,1.8Zm12.221-5.007a1.524,1.524,0,0,1-1.524,1.524h-9.083a5.508,5.508,0,0,0-2.474-3.4l-3.562-2.207a5.15,5.15,0,0,0,1-2.534l.287-2.661a5.162,5.162,0,0,0-4.433-5.65v-1.811a1.525,1.525,0,0,1,1.524-1.525h16.743a1.525,1.525,0,0,1,1.524,1.525Z" transform="translate(-726.392 -477.934)" fill="#d288e3"/>
      </g>
    </g>
    <rect id="Rectangle_15008-2" data-name="Rectangle 15008" width="5.46" height="2.184" rx="1.092" transform="translate(737.994 501.126)" fill="#d288e3"/>
  </g>
</svg>
