<svg width="35" height="46" fill="none" xmlns="http://www.w3.org/2000/svg"><path d="M33.746 1.186a2.114 2.114 0 0 0-2.3.35l-2.979 2.638L24.413.547a2.145 2.145 0 0 0-2.862 0l-4.05 3.623L13.448.547a2.145 2.145 0 0 0-2.863 0L6.531 4.174 3.548 1.535A2.132 2.132 0 0 0 0 3.144v39.563a2.135 2.135 0 0 0 3.554 1.608l2.98-2.638 4.054 3.626c.814.73 2.047.73 2.862 0l4.05-3.623 4.052 3.623c.814.73 2.048.73 2.862 0l4.055-3.626 2.983 2.638a2.132 2.132 0 0 0 3.549-1.608V3.144a2.114 2.114 0 0 0-1.255-1.958Zm-3.858 38.882a2.144 2.144 0 0 0-2.852.008l-4.054 3.626-4.05-3.623a2.145 2.145 0 0 0-2.863 0l-4.051 3.623-4.056-3.626a2.133 2.133 0 0 0-2.843-.008l-2.972 2.638v-5.723l-.01-33.839 2.976 2.638c.815.721 2.04.718 2.852-.008l4.053-3.626L16.07 5.77c.815.73 2.048.73 2.863 0l4.05-3.623 4.057 3.626c.807.726 2.031.73 2.843.008l2.971-2.639V30.34l.011 12.366-2.976-2.638Z" fill="#4B4E54" fill-opacity=".7"/><path d="M27.677 21.852H7.323a1.074 1.074 0 1 0 0 2.147h20.354a1.074 1.074 0 1 0 0-2.147ZM18.015 15.41H7.323a1.074 1.074 0 0 0 0 2.147h10.692a1.074 1.074 0 1 0 0-2.148ZM27.677 28.293H7.323a1.074 1.074 0 1 0 0 2.148h20.354a1.074 1.074 0 1 0 0-2.148Z" fill="#4B4E54" fill-opacity=".7"/></svg>