<svg width="17" height="17" fill="none" xmlns="http://www.w3.org/2000/svg"><path d="M14.716 4.318a.683.683 0 0 0-.317.912c.448.926.68 1.943.676 2.972a6.832 6.832 0 1 1-6.83-6.833 6.75 6.75 0 0 1 4.24 1.474.683.683 0 1 0 .849-1.07A8.198 8.198 0 1 0 16.441 8.2a8.112 8.112 0 0 0-.811-3.566.682.682 0 0 0-.913-.317h-.001Z" fill="#5F7AE9"/><path d="M8.243 2.736a.683.683 0 0 0-.683.683v4.782a.683.683 0 0 0 .683.683h3.416a.684.684 0 0 0 0-1.366H8.922V3.419a.683.683 0 0 0-.679-.683Z" fill="#5F7AE9"/></svg>