<svg width="25" height="25" fill="none" xmlns="http://www.w3.org/2000/svg"><path d="M23.63 23.54a1.268 1.268 0 0 1-1.776 0l-6.345-6.316-.89-.884a1.254 1.254 0 0 1 1.777-1.77l.89.884 6.345 6.313a1.254 1.254 0 0 1 0 1.774ZM23.633 1.364a1.269 1.269 0 0 0-1.776 0l-9.359 9.318-9.352-9.318a1.265 1.265 0 0 0-1.777 0 1.254 1.254 0 0 0 0 1.77l9.354 9.317-9.355 9.317a1.248 1.248 0 0 0 0 1.77 1.26 1.26 0 0 0 1.777 0L23.633 3.144a1.251 1.251 0 0 0 0-1.77v-.01Z" fill="#6F7070" stroke="#707070" stroke-width=".8"/></svg>