<svg width="748" height="588" fill="none" xmlns="http://www.w3.org/2000/svg"><path d="M706.838 447.603c-.575.364-1.148.73-1.724 1.089-5.054 3.148-10.098 6.351-15.654 8.448-5.918 2.235-11.907 4.348-18.534 4.647-4.234.206-8.562-.076-12.93-.842-4.783-.853-9.521-3.243-14.207-6.538a51.23 51.23 0 0 1-4.576-3.714c-.484-.433-1.181-1.098-1.023-1.638.162-.558.853.19 1.282.483 4.472 3.061 8.987 5.548 13.588 6.773 2.909.706 5.805 1.042 8.637 1.002a58.122 58.122 0 0 0 12.427-.804c2.776-.576 5.408-1.523 8.11-2.288 5.117-1.448 9.728-3.998 14.391-6.436 1.916-1.002 3.743-2.187 5.699-3.34-.379-.151-.761-.169-1.099-.051-2.778.283-5.615.31-8.489.08-1.222-.093-2.471-.471-3.677-1.114a3.655 3.655 0 0 1-.997-1.198 3.883 3.883 0 0 1-.445-1.524.682.682 0 0 1 .17-.42.487.487 0 0 1 .372-.155c.783-.125 1.581-.207 2.376-.29 6.106-.632 12.279-1.031 18.299-1.955a7.968 7.968 0 0 1 3.028-.046.652.652 0 0 1 .369.158c.115.095.21.225.272.371.859 1.825 1.302 3.52.592 5.072-1.646 3.602-3.243 7.253-4.842 10.904-1.034 2.365-1.881 4.911-3.113 7.087-.218.384-.395.941-.893.732-.519-.217-.603-.945-.797-1.48-.329-1.005-.357-2.041-.078-2.908a52.128 52.128 0 0 1 3.144-8.904c.152-.333.296-.675.444-1.012l-.122-.189Z" fill="url(#a)"/><rect width="551" height="450" rx="20" fill="#013C3C"/><g filter="url(#b)"><path d="M110.288 61.567c0-5.836 4.731-10.567 10.567-10.567h448.041c5.836 0 10.567 4.731 10.567 10.567v112.01c0 5.836-4.731 10.567-10.567 10.567H120.855c-5.836 0-10.567-4.731-10.567-10.567V61.567Z" fill="#fff"/></g><rect opacity=".5" x="129.309" y="70.02" width="65.516" height="65.516" rx="9.51" fill="#D3EBCE"/><path opacity=".8" d="M231.181 88v-2.6H223.2v-5.22h8.648v-2.622h-11.477v18.009h2.829V88h7.981Zm3.585-4.715v7.544c0 2.944 1.633 4.99 4.6 4.99 1.564 0 2.806-.643 3.749-1.908v1.656h2.668V83.285h-2.737v6.83c0 1.864-1.104 3.106-2.829 3.106-1.817 0-2.714-1.22-2.714-3.06v-6.876h-2.737Zm15.152 12.282h2.737V76.845h-2.737v18.722Zm6.862 0h2.737V76.845h-2.737v18.722Zm30.474 0h2.806v-18.01h-3.703l-6.003 13.778h-.023l-6.095-13.777h-3.611v18.009h2.783V82.503h.046l5.819 13.064h2.093l5.842-13.133h.046v13.133Zm14.42-8.326c0 .69-.391 1.035-1.15 1.035h-1.518c-2.162 0-5.106.897-5.106 3.749v.138c0 1.058.391 1.932 1.173 2.599.782.667 1.771 1.012 2.967 1.012 1.656 0 2.852-.621 3.611-1.886v1.679h2.691v-7.82c0-.851-.138-1.587-.414-2.208-.759-1.68-2.3-2.507-4.6-2.507-2.507 0-4.255 1.035-5.221 3.128l2.093 1.196c.621-1.311 1.656-1.955 3.059-1.955 1.541 0 2.415.828 2.415 1.84Zm-.023 3.358c0 1.84-1.196 2.99-3.059 2.99-1.173 0-1.955-.667-1.955-1.68 0-.528.253-.942.736-1.241a3.188 3.188 0 0 1 1.633-.46h2.645v.39Zm6.697 4.968h2.737V76.845h-2.737v18.722Zm13.876-8.326c0 .69-.391 1.035-1.15 1.035h-1.518c-2.162 0-5.106.897-5.106 3.749v.138c0 1.058.391 1.932 1.173 2.599.782.667 1.771 1.012 2.967 1.012 1.656 0 2.852-.621 3.611-1.886v1.679h2.691v-7.82c0-.851-.138-1.587-.414-2.208-.759-1.68-2.3-2.507-4.6-2.507-2.507 0-4.255 1.035-5.221 3.128l2.093 1.196c.621-1.311 1.656-1.955 3.059-1.955 1.541 0 2.415.828 2.415 1.84Zm-.023 3.358c0 1.84-1.196 2.99-3.059 2.99-1.173 0-1.955-.667-1.955-1.68 0-.528.253-.942.736-1.241a3.188 3.188 0 0 1 1.633-.46h2.645v.39Zm7.927-7.314H327l5.474 10.902-3.381 7.429h2.921l8.441-18.331h-2.967l-3.542 8.05-3.818-8.05Zm19.453 3.956c0 .69-.391 1.035-1.15 1.035h-1.518c-2.162 0-5.106.897-5.106 3.749v.138c0 1.058.391 1.932 1.173 2.599.782.667 1.771 1.012 2.967 1.012 1.656 0 2.852-.621 3.611-1.886v1.679h2.691v-7.82c0-.851-.138-1.587-.414-2.208-.759-1.68-2.3-2.507-4.6-2.507-2.507 0-4.255 1.035-5.221 3.128l2.093 1.196c.621-1.311 1.656-1.955 3.059-1.955 1.541 0 2.415.828 2.415 1.84Zm-.023 3.358c0 1.84-1.196 2.99-3.059 2.99-1.173 0-1.955-.667-1.955-1.68 0-.528.253-.942.736-1.241a3.188 3.188 0 0 1 1.633-.46h2.645v.39Zm6.697 4.968h2.737V76.845h-2.737v18.722Zm13.877-8.326c0 .69-.391 1.035-1.15 1.035h-1.518c-2.162 0-5.106.897-5.106 3.749v.138c0 1.058.391 1.932 1.173 2.599.782.667 1.771 1.012 2.967 1.012 1.656 0 2.852-.621 3.611-1.886v1.679h2.691v-7.82c0-.851-.138-1.587-.414-2.208-.759-1.68-2.3-2.507-4.6-2.507-2.507 0-4.255 1.035-5.221 3.128l2.093 1.196c.621-1.311 1.656-1.955 3.059-1.955 1.541 0 2.415.828 2.415 1.84Zm-.023 3.358c0 1.84-1.196 2.99-3.059 2.99-1.173 0-1.955-.667-1.955-1.68 0-.528.253-.942.736-1.241a3.188 3.188 0 0 1 1.633-.46h2.645v.39Zm17.484 4.968v-6.854c0-1.863 1.035-3.105 2.714-3.105 1.817 0 2.622 1.173 2.622 3.036v6.923h2.737v-7.59c0-2.944-1.495-4.968-4.462-4.968-1.817 0-3.013.644-4.278 2.024-.759-1.357-2.024-2.024-3.795-2.024-1.472 0-2.691.644-3.657 1.932v-1.656h-2.668v12.282h2.737v-6.831c0-1.863 1.035-3.128 2.691-3.128 1.817 0 2.645 1.219 2.645 3.059v6.9h2.714Zm26.917.207c2.277 0 4.301-.736 5.658-1.84 1.357-1.104 2.231-2.323 2.668-3.588l-2.576-1.173c-.437 1.173-1.196 2.139-2.254 2.875a5.938 5.938 0 0 1-3.427 1.08c-1.656 0-3.105-.62-4.324-1.84-1.219-1.241-1.817-2.828-1.817-4.76 0-1.955.621-3.52 1.84-4.738 1.219-1.22 2.668-1.84 4.301-1.84 2.829 0 4.715 1.61 5.612 3.933l2.553-1.173c-.391-1.288-1.265-2.507-2.553-3.588-1.288-1.104-3.289-1.817-5.566-1.817-2.507 0-4.646.897-6.463 2.668-1.817 1.77-2.714 3.979-2.714 6.647 0 2.829 1.104 5.244 2.829 6.785 1.725 1.495 3.933 2.369 6.233 2.369Zm16.974-12.742c-1.794 0-3.335.62-4.6 1.84-1.265 1.219-1.909 2.737-1.909 4.53 0 1.795.621 3.313 1.886 4.532 1.265 1.219 2.806 1.84 4.6 1.84 1.817 0 3.335-.621 4.577-1.84 1.265-1.242 1.886-2.76 1.886-4.577 0-1.794-.621-3.29-1.886-4.508-1.265-1.22-2.783-1.817-4.554-1.817Zm-2.691 3.61c.69-.758 1.587-1.126 2.668-1.126 1.081 0 1.978.368 2.645 1.127.69.759 1.035 1.679 1.035 2.76 0 1.08-.345 2-1.012 2.76-.667.759-1.564 1.127-2.645 1.127s-1.978-.391-2.668-1.15c-.69-.782-1.035-1.702-1.035-2.783s.345-1.978 1.012-2.714Zm12.314-3.357v7.544c0 2.944 1.633 4.99 4.6 4.99 1.564 0 2.806-.643 3.749-1.908v1.656h2.668V83.285h-2.737v6.83c0 1.864-1.104 3.106-2.829 3.106-1.817 0-2.714-1.22-2.714-3.06v-6.876h-2.737Zm21.869-.046c-.161-.046-.368-.07-.667-.07-1.495 0-2.622.69-3.381 2.07v-1.954h-2.668v12.282h2.737v-6.233c0-2.14 1.104-3.358 3.197-3.358.299 0 .552.023.782.069v-2.806Zm6.752 12.535c1.38 0 2.507-.345 3.358-1.058.851-.713 1.288-1.633 1.288-2.76 0-1.91-1.472-3.243-4.255-3.864-1.587-.345-2.277-.76-2.277-1.564 0-.667.874-1.196 1.725-1.196 1.173 0 2.024.552 2.576 1.656l2.116-1.196c-.851-1.84-2.392-2.76-4.6-2.76-1.196 0-2.231.345-3.128 1.058-.897.713-1.334 1.61-1.334 2.714 0 .874.299 1.61.874 2.23.667.714 1.702 1.197 3.059 1.473 1.679.345 2.53.897 2.53 1.61 0 .828-.897 1.357-1.932 1.357-1.311 0-2.277-.667-2.944-1.978l-2.139 1.196c.943 2.047 2.645 3.082 5.083 3.082Zm19.319-5.543c.023-.207.046-.483.046-.851 0-1.91-.529-3.427-1.587-4.6-1.058-1.173-2.53-1.748-4.393-1.748-1.771 0-3.243.62-4.416 1.863-1.173 1.242-1.771 2.737-1.771 4.508 0 1.817.621 3.358 1.84 4.577 1.242 1.219 2.783 1.817 4.6 1.817 2.208 0 4.209-1.058 5.244-2.967l-1.978-1.311c-.667 1.265-1.771 1.909-3.312 1.909a3.75 3.75 0 0 1-2.484-.897c-.713-.621-1.081-1.38-1.104-2.3h9.315Zm-5.934-4.853c1.748 0 3.105 1.058 3.197 2.783h-6.44c.253-1.68 1.564-2.783 3.243-2.783Z" fill="#212121"/><path opacity=".8" d="M161.302 83.342c3.318 0 6.153.399 8.505 1.197 2.394.756 4.368 1.869 5.922 3.339a12.909 12.909 0 0 1 2.835 3.59c.756 1.345 1.302 2.899 1.638 4.663.378 1.764.567 3.8.567 6.111V119H142.78v-16.884c0-2.184.168-4.137.504-5.86.378-1.763.924-3.317 1.638-4.661a14.981 14.981 0 0 1 2.772-3.654c1.554-1.47 3.423-2.604 5.607-3.402 2.226-.798 4.893-1.197 8.001-1.197Zm-2.961 4.473c-1.764 0-3.318.44-4.662 1.323-1.344.882-2.436 2.058-3.276 3.528-.672 1.176-1.218 2.625-1.638 4.347-.378 1.68-.567 3.78-.567 6.3v11.403h.315c2.856-2.142 5.397-4.389 7.623-6.741 2.226-2.352 3.969-4.746 5.229-7.182 1.302-2.436 1.953-4.81 1.953-7.12 0-1.175-.189-2.183-.567-3.023-.336-.882-.861-1.575-1.575-2.08-.714-.503-1.659-.755-2.835-.755Zm10.395 6.426c0 2.478-.567 4.914-1.701 7.308-1.134 2.394-2.751 4.809-4.851 7.245-2.1 2.394-4.599 4.851-7.497 7.371l-.126-1.26c1.218-.084 2.415-.147 3.591-.189a49.502 49.502 0 0 1 3.528-.126h13.671v-11.277c0-3.108-.315-5.691-.945-7.75-.588-2.057-1.575-3.695-2.961-4.913-1.386-1.26-3.213-2.184-5.481-2.772l.126-.441a11.78 11.78 0 0 1 1.89 2.96c.504 1.009.756 2.29.756 3.844Z" fill="#0FA76F"/><path opacity=".8" d="M220.745 126.232v-4.284h2.324c1.274 0 2.268-.322 2.982-.952.714-.644 1.064-1.456 1.064-2.436 0-.924-.322-1.708-.98-2.338-.658-.63-1.61-.952-2.87-.952h-3.668v10.962h1.148Zm0-9.884h2.422c.994 0 1.694.224 2.128.658.434.434.644.966.644 1.596 0 .616-.238 1.148-.714 1.61-.476.448-1.176.672-2.114.672h-2.366v-4.536Zm8.368 2.408v7.476h1.092v-3.654c0-.77.182-1.414.56-1.96.378-.546.966-.826 1.778-.826.098 0 .238.014.42.028v-1.162c-.056-.014-.182-.014-.364-.014-.952 0-1.89.518-2.408 1.596v-1.484h-1.078Zm5.332-2.674c0 .448.364.812.812.812a.819.819 0 1 0-.812-.812Zm1.372 2.674h-1.106v7.476h1.106v-7.476Zm8.916 7.476v-4.298c0-.658.182-1.204.56-1.638.378-.448.882-.672 1.512-.672 1.302 0 1.932.91 1.932 2.254v4.354h1.092v-4.62c0-1.792-1.008-2.982-2.758-2.982-1.106 0-1.988.49-2.632 1.484-.462-.994-1.26-1.498-2.394-1.498-1.064 0-1.778.476-2.408 1.442v-1.302h-1.078v7.476h1.092v-4.256c0-.644.182-1.204.56-1.666.378-.462.882-.7 1.512-.7 1.288 0 1.932.938 1.932 2.24v4.382h1.078Zm14.359-3.402c.014-.07.014-.196.014-.364 0-1.134-.308-2.044-.924-2.758-.616-.714-1.484-1.078-2.604-1.078-1.022 0-1.89.378-2.59 1.148-.7.77-1.05 1.666-1.05 2.702 0 1.078.364 2.002 1.092 2.758.728.742 1.624 1.12 2.702 1.12 1.344 0 2.534-.7 3.164-1.932l-.812-.532c-.434.896-1.316 1.498-2.366 1.498-.728 0-1.344-.238-1.848-.728a2.696 2.696 0 0 1-.826-1.834h6.048Zm-6.034-.924c.098-.644.378-1.19.854-1.638a2.318 2.318 0 0 1 1.666-.686c1.4 0 2.268.924 2.422 2.324h-4.942Zm13.842 4.326v-4.284h2.324c1.274 0 2.268-.322 2.982-.952.714-.644 1.064-1.456 1.064-2.436 0-.924-.322-1.708-.98-2.338-.658-.63-1.61-.952-2.87-.952h-3.668v10.962h1.148Zm0-9.884h2.422c.994 0 1.694.224 2.128.658.434.434.644.966.644 1.596 0 .616-.238 1.148-.714 1.61-.476.448-1.176.672-2.114.672H266.9v-4.536Zm8.367 2.408v7.476h1.092v-3.654c0-.77.182-1.414.56-1.96.378-.546.966-.826 1.778-.826.098 0 .238.014.42.028v-1.162c-.056-.014-.182-.014-.364-.014-.952 0-1.89.518-2.408 1.596v-1.484h-1.078Zm8.643 7.602c1.092 0 2.016-.378 2.758-1.12.742-.742 1.12-1.666 1.12-2.772 0-1.078-.378-1.974-1.12-2.716-.742-.742-1.652-1.12-2.73-1.12-1.106 0-2.03.378-2.772 1.12-.742.742-1.106 1.666-1.106 2.772 0 1.064.364 1.974 1.106 2.716.742.742 1.666 1.12 2.744 1.12Zm.028-.966c-.798 0-1.47-.28-1.988-.854s-.77-1.274-.77-2.072.252-1.484.77-2.044 1.162-.84 1.96-.84 1.456.294 1.974.868c.518.574.784 1.274.784 2.072s-.266 1.47-.784 2.03c-.518.56-1.162.84-1.946.84Zm11.919.91c0 1.834-1.106 2.716-2.674 2.716-.826 0-1.484-.252-1.918-.7-.434-.448-.644-.756-.882-1.274l-.882.518c.714 1.61 1.946 2.408 3.696 2.408 2.31 0 3.752-1.344 3.752-3.71v-7.504h-1.078v1.568c-.756-1.134-1.722-1.694-2.912-1.694-1.022 0-1.862.378-2.52 1.148-.658.77-.98 1.652-.98 2.674 0 1.05.322 1.96.966 2.702.644.742 1.484 1.106 2.534 1.106 1.246 0 2.212-.56 2.898-1.694v1.736Zm-2.674-.994c-.798 0-1.428-.266-1.904-.812-.462-.546-.7-1.218-.7-2.016 0-.826.238-1.512.7-2.058.462-.546 1.106-.826 1.904-.826.756 0 1.386.28 1.904.854s.784 1.232.784 1.988c0 .784-.252 1.456-.77 2.03-.504.56-1.148.84-1.918.84Zm6.508-6.552v7.476h1.092v-3.654c0-.77.182-1.414.56-1.96.378-.546.966-.826 1.778-.826.098 0 .238.014.42.028v-1.162c-.056-.014-.182-.014-.364-.014-.952 0-1.89.518-2.408 1.596v-1.484h-1.078Zm7.857 3.164c-.784 0-1.47.182-2.072.532-.588.35-.882.882-.882 1.624v.084c0 .63.224 1.162.686 1.582.462.406 1.078.616 1.82.616 1.064 0 1.904-.476 2.52-1.442h.014v1.316h1.064v-4.83c0-.462-.07-.868-.224-1.232-.448-1.022-1.358-1.54-2.73-1.54-1.484 0-2.506.644-3.066 1.932l.896.504c.462-.98 1.176-1.47 2.142-1.47 1.274 0 1.904.602 1.904 1.82v.504h-2.072Zm2.072 1.162c0 .686-.224 1.232-.658 1.666-.434.434-.994.644-1.666.644-.938 0-1.61-.49-1.61-1.316.042-.98.994-1.274 1.848-1.26h2.086v.266Zm9.903 3.15v-4.298c0-.658.182-1.204.56-1.638.378-.448.882-.672 1.512-.672 1.302 0 1.932.91 1.932 2.254v4.354h1.092v-4.62c0-1.792-1.008-2.982-2.758-2.982-1.106 0-1.988.49-2.632 1.484-.462-.994-1.26-1.498-2.394-1.498-1.064 0-1.778.476-2.408 1.442v-1.302h-1.078v7.476h1.092v-4.256c0-.644.182-1.204.56-1.666.378-.462.882-.7 1.512-.7 1.288 0 1.932.938 1.932 2.24v4.382h1.078Zm12.706-2.128c0-.462-.182-.882-.532-1.232-.406-.42-1.064-.728-1.96-.924-1.386-.294-1.75-.56-1.75-1.176 0-.322.154-.588.448-.826.294-.238.658-.35 1.064-.35.77 0 1.358.42 1.75 1.26l.896-.49c-.504-1.162-1.386-1.736-2.646-1.736-.672 0-1.274.21-1.806.63-.532.42-.798.952-.798 1.596 0 .434.14.798.406 1.12.406.462.924.7 1.946.924 1.358.322 1.876.644 1.876 1.274 0 .742-.742 1.218-1.596 1.218-.882 0-1.554-.49-2.016-1.456l-.896.49c.574 1.288 1.554 1.932 2.926 1.932.77 0 1.414-.21 1.918-.63.518-.434.77-.966.77-1.624Zm8.855-2.184c-.784 0-1.47.182-2.072.532-.588.35-.882.882-.882 1.624v.084c0 .63.224 1.162.686 1.582.462.406 1.078.616 1.82.616 1.064 0 1.904-.476 2.52-1.442h.014v1.316h1.064v-4.83c0-.462-.07-.868-.224-1.232-.448-1.022-1.358-1.54-2.73-1.54-1.484 0-2.506.644-3.066 1.932l.896.504c.462-.98 1.176-1.47 2.142-1.47 1.274 0 1.904.602 1.904 1.82v.504h-2.072Zm2.072 1.162c0 .686-.224 1.232-.658 1.666-.434.434-.994.644-1.666.644-.938 0-1.61-.49-1.61-1.316.042-.98.994-1.274 1.848-1.26h2.086v.266Zm3.729-4.326v7.476h1.092v-3.654c0-.77.182-1.414.56-1.96.378-.546.966-.826 1.778-.826.098 0 .238.014.42.028v-1.162c-.056-.014-.182-.014-.364-.014-.952 0-1.89.518-2.408 1.596v-1.484h-1.078Zm11.946 4.074c.014-.07.014-.196.014-.364 0-1.134-.308-2.044-.924-2.758-.616-.714-1.484-1.078-2.604-1.078-1.022 0-1.89.378-2.59 1.148-.7.77-1.05 1.666-1.05 2.702 0 1.078.364 2.002 1.092 2.758.728.742 1.624 1.12 2.702 1.12 1.344 0 2.534-.7 3.164-1.932l-.812-.532c-.434.896-1.316 1.498-2.366 1.498-.728 0-1.344-.238-1.848-.728a2.696 2.696 0 0 1-.826-1.834h6.048Zm-6.034-.924c.098-.644.378-1.19.854-1.638a2.318 2.318 0 0 1 1.666-.686c1.4 0 2.268.924 2.422 2.324h-4.942Zm17.357 2.198c0-.462-.182-.882-.532-1.232-.406-.42-1.064-.728-1.96-.924-1.386-.294-1.75-.56-1.75-1.176 0-.322.154-.588.448-.826.294-.238.658-.35 1.064-.35.77 0 1.358.42 1.75 1.26l.896-.49c-.504-1.162-1.386-1.736-2.646-1.736-.672 0-1.274.21-1.806.63-.532.42-.798.952-.798 1.596 0 .434.14.798.406 1.12.406.462.924.7 1.946.924 1.358.322 1.876.644 1.876 1.274 0 .742-.742 1.218-1.596 1.218-.882 0-1.554-.49-2.016-1.456l-.896.49c.574 1.288 1.554 1.932 2.926 1.932.77 0 1.414-.21 1.918-.63.518-.434.77-.966.77-1.624Zm9.718-1.624a4.018 4.018 0 0 0-.994-2.688c-.658-.77-1.498-1.162-2.52-1.162-1.19 0-2.156.588-2.898 1.75v-1.624h-1.078v11.158h1.092v-5.222c.7 1.106 1.666 1.652 2.884 1.652 1.022 0 1.862-.378 2.52-1.148.658-.77.994-1.666.994-2.716Zm-3.738 2.898c-.77 0-1.414-.28-1.918-.854s-.756-1.26-.756-2.058c0-.77.252-1.428.77-2.002.518-.574 1.148-.868 1.904-.868.798 0 1.428.28 1.904.854.476.56.714 1.246.714 2.058 0 .826-.238 1.512-.714 2.058-.462.546-1.106.812-1.904.812Zm12.556-2.548c.014-.07.014-.196.014-.364 0-1.134-.308-2.044-.924-2.758-.616-.714-1.484-1.078-2.604-1.078-1.022 0-1.89.378-2.59 1.148-.7.77-1.05 1.666-1.05 2.702 0 1.078.364 2.002 1.092 2.758.728.742 1.624 1.12 2.702 1.12 1.344 0 2.534-.7 3.164-1.932l-.812-.532c-.434.896-1.316 1.498-2.366 1.498-.728 0-1.344-.238-1.848-.728a2.696 2.696 0 0 1-.826-1.834h6.048Zm-6.034-.924c.098-.644.378-1.19.854-1.638a2.318 2.318 0 0 1 1.666-.686c1.4 0 2.268.924 2.422 2.324h-4.942Zm8.784.546c0-.798.252-1.47.756-2.016.518-.56 1.162-.84 1.946-.84 1.232 0 2.002.7 2.338 1.638l.952-.42c-.434-1.246-1.61-2.184-3.29-2.184-1.064 0-1.974.378-2.716 1.12-.742.742-1.106 1.666-1.106 2.744 0 1.106.364 2.03 1.092 2.772.742.728 1.638 1.092 2.716 1.092 1.694 0 2.87-.938 3.332-2.226l-.952-.42c-.434 1.12-1.232 1.68-2.366 1.68-.798 0-1.442-.294-1.946-.868-.504-.574-.756-1.274-.756-2.072Zm7.834-6.37c0 .448.364.812.812.812a.819.819 0 1 0-.812-.812Zm1.372 2.674h-1.106v7.476h1.106v-7.476Zm5.179 3.164c-.784 0-1.47.182-2.072.532-.588.35-.882.882-.882 1.624v.084c0 .63.224 1.162.686 1.582.462.406 1.078.616 1.82.616 1.064 0 1.904-.476 2.52-1.442h.014v1.316h1.064v-4.83c0-.462-.07-.868-.224-1.232-.448-1.022-1.358-1.54-2.73-1.54-1.484 0-2.506.644-3.066 1.932l.896.504c.462-.98 1.176-1.47 2.142-1.47 1.274 0 1.904.602 1.904 1.82v.504h-2.072Zm2.072 1.162c0 .686-.224 1.232-.658 1.666-.434.434-.994.644-1.666.644-.938 0-1.61-.49-1.61-1.316.042-.98.994-1.274 1.848-1.26h2.086v.266Zm4.835-8.26h-1.106v11.41h1.106v-11.41Zm3.848 0h-1.106v11.41h1.106v-11.41Zm5.206 10.906-1.932 4.186h1.176l5.124-11.158h-1.176l-2.59 5.782-2.744-5.782h-1.26l3.402 6.972Zm9.513-3.248c0 1.064.322 1.974.966 2.73.658.756 1.498 1.134 2.534 1.134 1.246 0 2.226-.574 2.912-1.708v1.596h1.064v-11.396h-1.078v5.488c-.77-1.134-1.736-1.694-2.898-1.694-1.022 0-1.862.392-2.52 1.162-.658.77-.98 1.666-.98 2.688Zm3.724 2.898c-.798 0-1.428-.28-1.904-.826-.476-.56-.714-1.246-.714-2.044 0-.826.238-1.526.714-2.072.476-.56 1.106-.84 1.904-.84.756 0 1.386.294 1.904.868.518.574.784 1.232.784 2.002 0 .798-.252 1.484-.77 2.058-.504.574-1.148.854-1.918.854Zm13.116-2.548c.014-.07.014-.196.014-.364 0-1.134-.308-2.044-.924-2.758-.616-.714-1.484-1.078-2.604-1.078-1.022 0-1.89.378-2.59 1.148-.7.77-1.05 1.666-1.05 2.702 0 1.078.364 2.002 1.092 2.758.728.742 1.624 1.12 2.702 1.12 1.344 0 2.534-.7 3.164-1.932l-.812-.532c-.434.896-1.316 1.498-2.366 1.498-.728 0-1.344-.238-1.848-.728a2.696 2.696 0 0 1-.826-1.834h6.048Zm-6.034-.924c.098-.644.378-1.19.854-1.638a2.318 2.318 0 0 1 1.666-.686c1.4 0 2.268.924 2.422 2.324h-4.942Zm13.166 2.198c0-.462-.182-.882-.532-1.232-.406-.42-1.064-.728-1.96-.924-1.386-.294-1.75-.56-1.75-1.176 0-.322.154-.588.448-.826.294-.238.658-.35 1.064-.35.77 0 1.358.42 1.75 1.26l.896-.49c-.504-1.162-1.386-1.736-2.646-1.736-.672 0-1.274.21-1.806.63-.532.42-.798.952-.798 1.596 0 .434.14.798.406 1.12.406.462.924.7 1.946.924 1.358.322 1.876.644 1.876 1.274 0 .742-.742 1.218-1.596 1.218-.882 0-1.554-.49-2.016-1.456l-.896.49c.574 1.288 1.554 1.932 2.926 1.932.77 0 1.414-.21 1.918-.63.518-.434.77-.966.77-1.624Zm1.963-8.022c0 .448.364.812.812.812a.819.819 0 1 0-.812-.812Zm1.372 2.674H457.5v7.476h1.106v-7.476Zm8.608 7.546c0 1.834-1.106 2.716-2.674 2.716-.826 0-1.484-.252-1.918-.7-.434-.448-.644-.756-.882-1.274l-.882.518c.714 1.61 1.946 2.408 3.696 2.408 2.31 0 3.752-1.344 3.752-3.71v-7.504h-1.078v1.568c-.756-1.134-1.722-1.694-2.912-1.694-1.022 0-1.862.378-2.52 1.148-.658.77-.98 1.652-.98 2.674 0 1.05.322 1.96.966 2.702.644.742 1.484 1.106 2.534 1.106 1.246 0 2.212-.56 2.898-1.694v1.736Zm-2.674-.994c-.798 0-1.428-.266-1.904-.812-.462-.546-.7-1.218-.7-2.016 0-.826.238-1.512.7-2.058.462-.546 1.106-.826 1.904-.826.756 0 1.386.28 1.904.854s.784 1.232.784 1.988c0 .784-.252 1.456-.77 2.03-.504.56-1.148.84-1.918.84Zm12.99.924v-4.62c0-1.792-1.036-2.996-2.828-2.996-1.134 0-1.988.504-2.576 1.512v-1.372h-1.078v7.476h1.092v-4.256c0-.672.21-1.232.63-1.68.42-.462.952-.686 1.596-.686 1.344 0 2.072.882 2.072 2.268v4.354h1.092Zm9.252-3.402c.014-.07.014-.196.014-.364 0-1.134-.308-2.044-.924-2.758-.616-.714-1.484-1.078-2.604-1.078-1.022 0-1.89.378-2.59 1.148-.7.77-1.05 1.666-1.05 2.702 0 1.078.364 2.002 1.092 2.758.728.742 1.624 1.12 2.702 1.12 1.344 0 2.534-.7 3.164-1.932l-.812-.532c-.434.896-1.316 1.498-2.366 1.498-.728 0-1.344-.238-1.848-.728a2.696 2.696 0 0 1-.826-1.834h6.048Zm-6.034-.924c.098-.644.378-1.19.854-1.638a2.318 2.318 0 0 1 1.666-.686c1.4 0 2.268.924 2.422 2.324h-4.942Zm7.677.574c0 1.064.322 1.974.966 2.73.658.756 1.498 1.134 2.534 1.134 1.246 0 2.226-.574 2.912-1.708v1.596h1.064v-11.396h-1.078v5.488c-.77-1.134-1.736-1.694-2.898-1.694-1.022 0-1.862.392-2.52 1.162-.658.77-.98 1.666-.98 2.688Zm3.724 2.898c-.798 0-1.428-.28-1.904-.826-.476-.56-.714-1.246-.714-2.044 0-.826.238-1.526.714-2.072.476-.56 1.106-.84 1.904-.84.756 0 1.386.294 1.904.868.518.574.784 1.232.784 2.002 0 .798-.252 1.484-.77 2.058-.504.574-1.148.854-1.918.854Zm17.307-5.096h-5.166v-3.934h5.642v-1.078h-6.79v10.962h1.148v-4.886h5.166v-1.064Zm2.351-1.526v4.62c0 1.792 1.036 2.996 2.828 2.996 1.134 0 1.988-.504 2.562-1.512v1.372h1.064v-7.476h-1.078v4.27c0 .672-.21 1.232-.63 1.68-.42.448-.952.672-1.596.672-1.344 0-2.072-.882-2.072-2.268v-4.354h-1.078Zm10.316-3.934h-1.106v11.41h1.106v-11.41Zm3.848 0h-1.106v11.41h1.106v-11.41Zm6.565 6.454h-4.004v1.162h4.004v-1.162Zm-308.277 24.828c0-.462-.182-.882-.532-1.232-.406-.42-1.064-.728-1.96-.924-1.386-.294-1.75-.56-1.75-1.176 0-.322.154-.588.448-.826.294-.238.658-.35 1.064-.35.77 0 1.358.42 1.75 1.26l.896-.49c-.504-1.162-1.386-1.736-2.646-1.736-.672 0-1.274.21-1.806.63-.532.42-.798.952-.798 1.596 0 .434.14.798.406 1.12.406.462.924.7 1.946.924 1.358.322 1.876.644 1.876 1.274 0 .742-.742 1.218-1.596 1.218-.882 0-1.554-.49-2.016-1.456l-.896.49c.574 1.288 1.554 1.932 2.926 1.932.77 0 1.414-.21 1.918-.63.518-.434.77-.966.77-1.624Zm4.751 2.184c.322 0 .616-.042.854-.112v-.91c-.154.042-.378.056-.672.056-.812 0-1.218-.35-1.218-1.05v-4.55h1.89v-.966h-1.89V138.6h-1.078v2.156h-1.386v.966h1.386v4.578c0 1.33.7 1.988 2.114 1.988Zm5.416-4.368c-.784 0-1.47.182-2.072.532-.588.35-.882.882-.882 1.624v.084c0 .63.224 1.162.686 1.582.462.406 1.078.616 1.82.616 1.064 0 1.904-.476 2.52-1.442h.014v1.316h1.064v-4.83c0-.462-.07-.868-.224-1.232-.448-1.022-1.358-1.54-2.73-1.54-1.484 0-2.506.644-3.066 1.932l.896.504c.462-.98 1.176-1.47 2.142-1.47 1.274 0 1.904.602 1.904 1.82v.504h-2.072Zm2.072 1.162c0 .686-.224 1.232-.658 1.666-.434.434-.994.644-1.666.644-.938 0-1.61-.49-1.61-1.316.042-.98.994-1.274 1.848-1.26h2.086v.266Zm4.303-.63c0-.798.252-1.47.756-2.016.518-.56 1.162-.84 1.946-.84 1.232 0 2.002.7 2.338 1.638l.952-.42c-.434-1.246-1.61-2.184-3.29-2.184-1.064 0-1.974.378-2.716 1.12-.742.742-1.106 1.666-1.106 2.744 0 1.106.364 2.03 1.092 2.772.742.728 1.638 1.092 2.716 1.092 1.694 0 2.87-.938 3.332-2.226l-.952-.42c-.434 1.12-1.232 1.68-2.366 1.68-.798 0-1.442-.294-1.946-.868-.504-.574-.756-1.274-.756-2.072Zm9.193 3.78v-3.738h.042l3.724 3.738h1.526l-4.116-4.116 3.934-3.36h-1.554l-3.556 3.038v-6.972h-1.092v11.41h1.092Zm11.301 0h3.262c1.638 0 3.01-.518 4.116-1.54 1.106-1.036 1.666-2.352 1.666-3.962 0-1.554-.546-2.856-1.624-3.892-1.078-1.05-2.464-1.568-4.158-1.568h-3.262v10.962Zm1.148-9.884h2.058c1.414 0 2.534.42 3.374 1.246.854.826 1.274 1.89 1.274 3.164 0 1.288-.434 2.338-1.288 3.164-.854.826-1.96 1.232-3.346 1.232h-2.072v-8.806Zm16.766 6.482c.014-.07.014-.196.014-.364 0-1.134-.308-2.044-.924-2.758-.616-.714-1.484-1.078-2.604-1.078-1.022 0-1.89.378-2.59 1.148-.7.77-1.05 1.666-1.05 2.702 0 1.078.364 2.002 1.092 2.758.728.742 1.624 1.12 2.702 1.12 1.344 0 2.534-.7 3.164-1.932l-.812-.532c-.434.896-1.316 1.498-2.366 1.498-.728 0-1.344-.238-1.848-.728a2.696 2.696 0 0 1-.826-1.834h6.048Zm-6.034-.924c.098-.644.378-1.19.854-1.638a2.318 2.318 0 0 1 1.666-.686c1.4 0 2.268.924 2.422 2.324h-4.942Zm7.027-3.15 3.178 7.476h1.162l3.192-7.476h-1.162l-2.604 6.272-2.562-6.272h-1.204Zm15.714 4.074c.014-.07.014-.196.014-.364 0-1.134-.308-2.044-.924-2.758-.616-.714-1.484-1.078-2.604-1.078-1.022 0-1.89.378-2.59 1.148-.7.77-1.05 1.666-1.05 2.702 0 1.078.364 2.002 1.092 2.758.728.742 1.624 1.12 2.702 1.12 1.344 0 2.534-.7 3.164-1.932l-.812-.532c-.434.896-1.316 1.498-2.366 1.498-.728 0-1.344-.238-1.848-.728a2.696 2.696 0 0 1-.826-1.834h6.048Zm-6.034-.924c.098-.644.378-1.19.854-1.638a2.318 2.318 0 0 1 1.666-.686c1.4 0 2.268.924 2.422 2.324h-4.942Zm9.316-7.084h-1.106v11.41h1.106v-11.41Zm6.046 11.536c1.092 0 2.016-.378 2.758-1.12.742-.742 1.12-1.666 1.12-2.772 0-1.078-.378-1.974-1.12-2.716-.742-.742-1.652-1.12-2.73-1.12-1.106 0-2.03.378-2.772 1.12-.742.742-1.106 1.666-1.106 2.772 0 1.064.364 1.974 1.106 2.716.742.742 1.666 1.12 2.744 1.12Zm.028-.966c-.798 0-1.47-.28-1.988-.854s-.77-1.274-.77-2.072.252-1.484.77-2.044 1.162-.84 1.96-.84 1.456.294 1.974.868c.518.574.784 1.274.784 2.072s-.266 1.47-.784 2.03c-.518.56-1.162.84-1.946.84Zm13.543-2.912a4.018 4.018 0 0 0-.994-2.688c-.658-.77-1.498-1.162-2.52-1.162-1.19 0-2.156.588-2.898 1.75v-1.624h-1.078v11.158h1.092v-5.222c.7 1.106 1.666 1.652 2.884 1.652 1.022 0 1.862-.378 2.52-1.148.658-.77.994-1.666.994-2.716Zm-3.738 2.898c-.77 0-1.414-.28-1.918-.854s-.756-1.26-.756-2.058c0-.77.252-1.428.77-2.002.518-.574 1.148-.868 1.904-.868.798 0 1.428.28 1.904.854.476.56.714 1.246.714 2.058 0 .826-.238 1.512-.714 2.058-.462.546-1.106.812-1.904.812Zm12.122.854v-4.298c0-.658.182-1.204.56-1.638.378-.448.882-.672 1.512-.672 1.302 0 1.932.91 1.932 2.254v4.354h1.092v-4.62c0-1.792-1.008-2.982-2.758-2.982-1.106 0-1.988.49-2.632 1.484-.462-.994-1.26-1.498-2.394-1.498-1.064 0-1.778.476-2.408 1.442v-1.302h-1.078v7.476h1.092v-4.256c0-.644.182-1.204.56-1.666.378-.462.882-.7 1.512-.7 1.288 0 1.932.938 1.932 2.24v4.382h1.078Zm14.359-3.402c.014-.07.014-.196.014-.364 0-1.134-.308-2.044-.924-2.758-.616-.714-1.484-1.078-2.604-1.078-1.022 0-1.89.378-2.59 1.148-.7.77-1.05 1.666-1.05 2.702 0 1.078.364 2.002 1.092 2.758.728.742 1.624 1.12 2.702 1.12 1.344 0 2.534-.7 3.164-1.932l-.812-.532c-.434.896-1.316 1.498-2.366 1.498-.728 0-1.344-.238-1.848-.728a2.696 2.696 0 0 1-.826-1.834h6.048Zm-6.034-.924c.098-.644.378-1.19.854-1.638a2.318 2.318 0 0 1 1.666-.686c1.4 0 2.268.924 2.422 2.324h-4.942Zm14.692 4.326v-4.62c0-1.792-1.036-2.996-2.828-2.996-1.134 0-1.988.504-2.576 1.512v-1.372h-1.078v7.476h1.092v-4.256c0-.672.21-1.232.63-1.68.42-.462.952-.686 1.596-.686 1.344 0 2.072.882 2.072 2.268v4.354h1.092Zm5.193.056c.322 0 .616-.042.854-.112v-.91c-.154.042-.378.056-.672.056-.812 0-1.218-.35-1.218-1.05v-4.55h1.89v-.966h-1.89V138.6h-1.078v2.156h-1.386v.966h1.386v4.578c0 1.33.7 1.988 2.114 1.988Zm14.661-3.808a4.018 4.018 0 0 0-.994-2.688c-.658-.77-1.498-1.162-2.52-1.162-1.19 0-2.156.588-2.898 1.75v-1.624h-1.078v11.158h1.092v-5.222c.7 1.106 1.666 1.652 2.884 1.652 1.022 0 1.862-.378 2.52-1.148.658-.77.994-1.666.994-2.716Zm-3.738 2.898c-.77 0-1.414-.28-1.918-.854s-.756-1.26-.756-2.058c0-.77.252-1.428.77-2.002.518-.574 1.148-.868 1.904-.868.798 0 1.428.28 1.904.854.476.56.714 1.246.714 2.058 0 .826-.238 1.512-.714 2.058-.462.546-1.106.812-1.904.812Zm5.948-6.622v7.476h1.092v-3.654c0-.77.182-1.414.56-1.96.378-.546.966-.826 1.778-.826.098 0 .238.014.42.028v-1.162c-.056-.014-.182-.014-.364-.014-.952 0-1.89.518-2.408 1.596v-1.484h-1.078Zm8.642 7.602c1.092 0 2.016-.378 2.758-1.12.742-.742 1.12-1.666 1.12-2.772 0-1.078-.378-1.974-1.12-2.716-.742-.742-1.652-1.12-2.73-1.12-1.106 0-2.03.378-2.772 1.12-.742.742-1.106 1.666-1.106 2.772 0 1.064.364 1.974 1.106 2.716.742.742 1.666 1.12 2.744 1.12Zm.028-.966c-.798 0-1.47-.28-1.988-.854s-.77-1.274-.77-2.072.252-1.484.77-2.044 1.162-.84 1.96-.84 1.456.294 1.974.868c.518.574.784 1.274.784 2.072s-.266 1.47-.784 2.03c-.518.56-1.162.84-1.946.84Zm11.92.91c0 1.834-1.106 2.716-2.674 2.716-.826 0-1.484-.252-1.918-.7-.434-.448-.644-.756-.882-1.274l-.882.518c.714 1.61 1.946 2.408 3.696 2.408 2.31 0 3.752-1.344 3.752-3.71v-7.504h-1.078v1.568c-.756-1.134-1.722-1.694-2.912-1.694-1.022 0-1.862.378-2.52 1.148-.658.77-.98 1.652-.98 2.674 0 1.05.322 1.96.966 2.702.644.742 1.484 1.106 2.534 1.106 1.246 0 2.212-.56 2.898-1.694v1.736Zm-2.674-.994c-.798 0-1.428-.266-1.904-.812-.462-.546-.7-1.218-.7-2.016 0-.826.238-1.512.7-2.058.462-.546 1.106-.826 1.904-.826.756 0 1.386.28 1.904.854s.784 1.232.784 1.988c0 .784-.252 1.456-.77 2.03-.504.56-1.148.84-1.918.84Zm6.508-6.552v7.476h1.092v-3.654c0-.77.182-1.414.56-1.96.378-.546.966-.826 1.778-.826.098 0 .238.014.42.028v-1.162c-.056-.014-.182-.014-.364-.014-.952 0-1.89.518-2.408 1.596v-1.484h-1.078Zm7.856 3.164c-.784 0-1.47.182-2.072.532-.588.35-.882.882-.882 1.624v.084c0 .63.224 1.162.686 1.582.462.406 1.078.616 1.82.616 1.064 0 1.904-.476 2.52-1.442h.014v1.316h1.064v-4.83c0-.462-.07-.868-.224-1.232-.448-1.022-1.358-1.54-2.73-1.54-1.484 0-2.506.644-3.066 1.932l.896.504c.462-.98 1.176-1.47 2.142-1.47 1.274 0 1.904.602 1.904 1.82v.504h-2.072Zm2.072 1.162c0 .686-.224 1.232-.658 1.666-.434.434-.994.644-1.666.644-.938 0-1.61-.49-1.61-1.316.042-.98.994-1.274 1.848-1.26h2.086v.266Zm9.903 3.15v-4.298c0-.658.182-1.204.56-1.638.378-.448.882-.672 1.512-.672 1.302 0 1.932.91 1.932 2.254v4.354h1.092v-4.62c0-1.792-1.008-2.982-2.758-2.982-1.106 0-1.988.49-2.632 1.484-.462-.994-1.26-1.498-2.394-1.498-1.064 0-1.778.476-2.408 1.442v-1.302h-1.078v7.476h1.092v-4.256c0-.644.182-1.204.56-1.666.378-.462.882-.7 1.512-.7 1.288 0 1.932.938 1.932 2.24v4.382h1.078Z" fill="#6C6C6C"/><g filter="url(#c)"><rect x="42" y="210.562" width="469.175" height="133.144" rx="10.567" fill="#fff"/></g><rect opacity=".5" x="61.02" y="229.582" width="65.516" height="65.516" rx="9.51" fill="#C4C4C4"/><path opacity=".8" d="M162.893 247.562v-2.599h-7.981v-5.221h8.648v-2.622h-11.477v18.009h2.829v-7.567h7.981Zm3.584-4.715v7.544c0 2.944 1.633 4.991 4.6 4.991 1.564 0 2.806-.644 3.749-1.909v1.656h2.668v-12.282h-2.737v6.831c0 1.863-1.104 3.105-2.829 3.105-1.817 0-2.714-1.219-2.714-3.059v-6.877h-2.737Zm15.153 12.282h2.737v-18.722h-2.737v18.722Zm6.861 0h2.737v-18.722h-2.737v18.722Zm30.475 0h2.806V237.12h-3.703l-6.003 13.777h-.023l-6.095-13.777h-3.611v18.009h2.783v-13.064h.046l5.819 13.064h2.093l5.842-13.133h.046v13.133Zm14.42-8.326c0 .69-.391 1.035-1.15 1.035h-1.518c-2.162 0-5.106.897-5.106 3.749v.138c0 1.058.391 1.932 1.173 2.599.782.667 1.771 1.012 2.967 1.012 1.656 0 2.852-.621 3.611-1.886v1.679h2.691v-7.82c0-.851-.138-1.587-.414-2.208-.759-1.679-2.3-2.507-4.6-2.507-2.507 0-4.255 1.035-5.221 3.128l2.093 1.196c.621-1.311 1.656-1.955 3.059-1.955 1.541 0 2.415.828 2.415 1.84Zm-.023 3.358c0 1.84-1.196 2.99-3.059 2.99-1.173 0-1.955-.667-1.955-1.679 0-.529.253-.943.736-1.242a3.188 3.188 0 0 1 1.633-.46h2.645v.391Zm6.697 4.968h2.737v-18.722h-2.737v18.722Zm13.876-8.326c0 .69-.391 1.035-1.15 1.035h-1.518c-2.162 0-5.106.897-5.106 3.749v.138c0 1.058.391 1.932 1.173 2.599.782.667 1.771 1.012 2.967 1.012 1.656 0 2.852-.621 3.611-1.886v1.679h2.691v-7.82c0-.851-.138-1.587-.414-2.208-.759-1.679-2.3-2.507-4.6-2.507-2.507 0-4.255 1.035-5.221 3.128l2.093 1.196c.621-1.311 1.656-1.955 3.059-1.955 1.541 0 2.415.828 2.415 1.84Zm-.023 3.358c0 1.84-1.196 2.99-3.059 2.99-1.173 0-1.955-.667-1.955-1.679 0-.529.253-.943.736-1.242a3.188 3.188 0 0 1 1.633-.46h2.645v.391Zm7.927-7.314h-3.128l5.474 10.902-3.381 7.429h2.921l8.441-18.331H269.2l-3.542 8.05-3.818-8.05Zm19.453 3.956c0 .69-.391 1.035-1.15 1.035h-1.518c-2.162 0-5.106.897-5.106 3.749v.138c0 1.058.391 1.932 1.173 2.599.782.667 1.771 1.012 2.967 1.012 1.656 0 2.852-.621 3.611-1.886v1.679h2.691v-7.82c0-.851-.138-1.587-.414-2.208-.759-1.679-2.3-2.507-4.6-2.507-2.507 0-4.255 1.035-5.221 3.128l2.093 1.196c.621-1.311 1.656-1.955 3.059-1.955 1.541 0 2.415.828 2.415 1.84Zm-.023 3.358c0 1.84-1.196 2.99-3.059 2.99-1.173 0-1.955-.667-1.955-1.679 0-.529.253-.943.736-1.242a3.188 3.188 0 0 1 1.633-.46h2.645v.391Zm6.697 4.968h2.737v-18.722h-2.737v18.722Zm13.877-8.326c0 .69-.391 1.035-1.15 1.035h-1.518c-2.162 0-5.106.897-5.106 3.749v.138c0 1.058.391 1.932 1.173 2.599.782.667 1.771 1.012 2.967 1.012 1.656 0 2.852-.621 3.611-1.886v1.679h2.691v-7.82c0-.851-.138-1.587-.414-2.208-.759-1.679-2.3-2.507-4.6-2.507-2.507 0-4.255 1.035-5.221 3.128l2.093 1.196c.621-1.311 1.656-1.955 3.059-1.955 1.541 0 2.415.828 2.415 1.84Zm-.023 3.358c0 1.84-1.196 2.99-3.059 2.99-1.173 0-1.955-.667-1.955-1.679 0-.529.253-.943.736-1.242a3.188 3.188 0 0 1 1.633-.46h2.645v.391Zm17.484 4.968v-6.854c0-1.863 1.035-3.105 2.714-3.105 1.817 0 2.622 1.173 2.622 3.036v6.923h2.737v-7.59c0-2.944-1.495-4.968-4.462-4.968-1.817 0-3.013.644-4.278 2.024-.759-1.357-2.024-2.024-3.795-2.024-1.472 0-2.691.644-3.657 1.932v-1.656h-2.668v12.282h2.737v-6.831c0-1.863 1.035-3.128 2.691-3.128 1.817 0 2.645 1.219 2.645 3.059v6.9h2.714Zm26.917.207c2.277 0 4.301-.736 5.658-1.84 1.357-1.104 2.231-2.323 2.668-3.588l-2.576-1.173c-.437 1.173-1.196 2.139-2.254 2.875a5.938 5.938 0 0 1-3.427 1.081c-1.656 0-3.105-.621-4.324-1.84-1.219-1.242-1.817-2.829-1.817-4.761 0-1.955.621-3.519 1.84-4.738 1.219-1.219 2.668-1.84 4.301-1.84 2.829 0 4.715 1.61 5.612 3.933l2.553-1.173c-.391-1.288-1.265-2.507-2.553-3.588-1.288-1.104-3.289-1.817-5.566-1.817-2.507 0-4.646.897-6.463 2.668-1.817 1.771-2.714 3.979-2.714 6.647 0 2.829 1.104 5.244 2.829 6.785 1.725 1.495 3.933 2.369 6.233 2.369Zm16.974-12.742c-1.794 0-3.335.621-4.6 1.84-1.265 1.219-1.909 2.737-1.909 4.531 0 1.794.621 3.312 1.886 4.531 1.265 1.219 2.806 1.84 4.6 1.84 1.817 0 3.335-.621 4.577-1.84 1.265-1.242 1.886-2.76 1.886-4.577 0-1.794-.621-3.289-1.886-4.508-1.265-1.219-2.783-1.817-4.554-1.817Zm-2.691 3.611c.69-.759 1.587-1.127 2.668-1.127 1.081 0 1.978.368 2.645 1.127.69.759 1.035 1.679 1.035 2.76 0 1.081-.345 2.001-1.012 2.76-.667.759-1.564 1.127-2.645 1.127s-1.978-.391-2.668-1.15c-.69-.782-1.035-1.702-1.035-2.783s.345-1.978 1.012-2.714Zm12.314-3.358v7.544c0 2.944 1.633 4.991 4.6 4.991 1.564 0 2.806-.644 3.749-1.909v1.656h2.668v-12.282h-2.737v6.831c0 1.863-1.104 3.105-2.829 3.105-1.817 0-2.714-1.219-2.714-3.059v-6.877h-2.737Zm21.869-.046c-.161-.046-.368-.069-.667-.069-1.495 0-2.622.69-3.381 2.07v-1.955h-2.668v12.282h2.737v-6.233c0-2.139 1.104-3.358 3.197-3.358.299 0 .552.023.782.069v-2.806Zm6.752 12.535c1.38 0 2.507-.345 3.358-1.058.851-.713 1.288-1.633 1.288-2.76 0-1.909-1.472-3.243-4.255-3.864-1.587-.345-2.277-.759-2.277-1.564 0-.667.874-1.196 1.725-1.196 1.173 0 2.024.552 2.576 1.656l2.116-1.196c-.851-1.84-2.392-2.76-4.6-2.76-1.196 0-2.231.345-3.128 1.058-.897.713-1.334 1.61-1.334 2.714 0 .874.299 1.61.874 2.231.667.713 1.702 1.196 3.059 1.472 1.679.345 2.53.897 2.53 1.61 0 .828-.897 1.357-1.932 1.357-1.311 0-2.277-.667-2.944-1.978l-2.139 1.196c.943 2.047 2.645 3.082 5.083 3.082Zm19.319-5.543c.023-.207.046-.483.046-.851 0-1.909-.529-3.427-1.587-4.6-1.058-1.173-2.53-1.748-4.393-1.748-1.771 0-3.243.621-4.416 1.863-1.173 1.242-1.771 2.737-1.771 4.508 0 1.817.621 3.358 1.84 4.577 1.242 1.219 2.783 1.817 4.6 1.817 2.208 0 4.209-1.058 5.244-2.967l-1.978-1.311c-.667 1.265-1.771 1.909-3.312 1.909a3.75 3.75 0 0 1-2.484-.897c-.713-.621-1.081-1.38-1.104-2.3h9.315Zm-5.934-4.853c1.748 0 3.105 1.058 3.197 2.783h-6.44c.253-1.679 1.564-2.783 3.243-2.783Z" fill="#212121"/><path opacity=".8" d="M152.457 285.793v-4.284h2.324c1.274 0 2.268-.322 2.982-.952.714-.644 1.064-1.456 1.064-2.436 0-.924-.322-1.708-.98-2.338-.658-.63-1.61-.952-2.87-.952h-3.668v10.962h1.148Zm0-9.884h2.422c.994 0 1.694.224 2.128.658.434.434.644.966.644 1.596 0 .616-.238 1.148-.714 1.61-.476.448-1.176.672-2.114.672h-2.366v-4.536Zm8.367 2.408v7.476h1.092v-3.654c0-.77.182-1.414.56-1.96.378-.546.966-.826 1.778-.826.098 0 .239.014.42.028v-1.162c-.055-.014-.181-.014-.364-.014-.951 0-1.89.518-2.408 1.596v-1.484h-1.078Zm5.333-2.674c0 .448.364.812.812.812a.819.819 0 1 0-.812-.812Zm1.372 2.674h-1.106v7.476h1.106v-7.476Zm8.916 7.476v-4.298c0-.658.182-1.204.56-1.638.378-.448.882-.672 1.512-.672 1.302 0 1.932.91 1.932 2.254v4.354h1.092v-4.62c0-1.792-1.008-2.982-2.758-2.982-1.106 0-1.988.49-2.632 1.484-.462-.994-1.26-1.498-2.394-1.498-1.064 0-1.778.476-2.408 1.442v-1.302h-1.078v7.476h1.092v-4.256c0-.644.182-1.204.56-1.666.378-.462.882-.7 1.512-.7 1.288 0 1.932.938 1.932 2.24v4.382h1.078Zm14.359-3.402c.014-.07.014-.196.014-.364 0-1.134-.308-2.044-.924-2.758-.616-.714-1.484-1.078-2.604-1.078-1.022 0-1.89.378-2.59 1.148-.7.77-1.05 1.666-1.05 2.702 0 1.078.364 2.002 1.092 2.758.728.742 1.624 1.12 2.702 1.12 1.344 0 2.534-.7 3.164-1.932l-.812-.532c-.434.896-1.316 1.498-2.366 1.498-.728 0-1.344-.238-1.848-.728a2.696 2.696 0 0 1-.826-1.834h6.048Zm-6.034-.924c.098-.644.378-1.19.854-1.638a2.318 2.318 0 0 1 1.666-.686c1.4 0 2.268.924 2.422 2.324h-4.942Zm13.842 4.326v-4.284h2.324c1.274 0 2.268-.322 2.982-.952.714-.644 1.064-1.456 1.064-2.436 0-.924-.322-1.708-.98-2.338-.658-.63-1.61-.952-2.87-.952h-3.668v10.962h1.148Zm0-9.884h2.422c.994 0 1.694.224 2.128.658.434.434.644.966.644 1.596 0 .616-.238 1.148-.714 1.61-.476.448-1.176.672-2.114.672h-2.366v-4.536Zm8.367 2.408v7.476h1.092v-3.654c0-.77.182-1.414.56-1.96.378-.546.966-.826 1.778-.826.098 0 .238.014.42.028v-1.162c-.056-.014-.182-.014-.364-.014-.952 0-1.89.518-2.408 1.596v-1.484h-1.078Zm8.643 7.602c1.092 0 2.016-.378 2.758-1.12.742-.742 1.12-1.666 1.12-2.772 0-1.078-.378-1.974-1.12-2.716-.742-.742-1.652-1.12-2.73-1.12-1.106 0-2.03.378-2.772 1.12-.742.742-1.106 1.666-1.106 2.772 0 1.064.364 1.974 1.106 2.716.742.742 1.666 1.12 2.744 1.12Zm.028-.966c-.798 0-1.47-.28-1.988-.854s-.77-1.274-.77-2.072.252-1.484.77-2.044 1.162-.84 1.96-.84 1.456.294 1.974.868c.518.574.784 1.274.784 2.072s-.266 1.47-.784 2.03c-.518.56-1.162.84-1.946.84Zm11.919.91c0 1.834-1.106 2.716-2.674 2.716-.826 0-1.484-.252-1.918-.7-.434-.448-.644-.756-.882-1.274l-.882.518c.714 1.61 1.946 2.408 3.696 2.408 2.31 0 3.752-1.344 3.752-3.71v-7.504h-1.078v1.568c-.756-1.134-1.722-1.694-2.912-1.694-1.022 0-1.862.378-2.52 1.148-.658.77-.98 1.652-.98 2.674 0 1.05.322 1.96.966 2.702.644.742 1.484 1.106 2.534 1.106 1.246 0 2.212-.56 2.898-1.694v1.736Zm-2.674-.994c-.798 0-1.428-.266-1.904-.812-.462-.546-.7-1.218-.7-2.016 0-.826.238-1.512.7-2.058.462-.546 1.106-.826 1.904-.826.756 0 1.386.28 1.904.854s.784 1.232.784 1.988c0 .784-.252 1.456-.77 2.03-.504.56-1.148.84-1.918.84Zm6.508-6.552v7.476h1.092v-3.654c0-.77.182-1.414.56-1.96.378-.546.966-.826 1.778-.826.098 0 .238.014.42.028v-1.162c-.056-.014-.182-.014-.364-.014-.952 0-1.89.518-2.408 1.596v-1.484h-1.078Zm7.857 3.164c-.784 0-1.47.182-2.072.532-.588.35-.882.882-.882 1.624v.084c0 .63.224 1.162.686 1.582.462.406 1.078.616 1.82.616 1.064 0 1.904-.476 2.52-1.442h.014v1.316h1.064v-4.83c0-.462-.07-.868-.224-1.232-.448-1.022-1.358-1.54-2.73-1.54-1.484 0-2.506.644-3.066 1.932l.896.504c.462-.98 1.176-1.47 2.142-1.47 1.274 0 1.904.602 1.904 1.82v.504h-2.072Zm2.072 1.162c0 .686-.224 1.232-.658 1.666-.434.434-.994.644-1.666.644-.938 0-1.61-.49-1.61-1.316.042-.98.994-1.274 1.848-1.26h2.086v.266Zm9.903 3.15v-4.298c0-.658.182-1.204.56-1.638.378-.448.882-.672 1.512-.672 1.302 0 1.932.91 1.932 2.254v4.354h1.092v-4.62c0-1.792-1.008-2.982-2.758-2.982-1.106 0-1.988.49-2.632 1.484-.462-.994-1.26-1.498-2.394-1.498-1.064 0-1.778.476-2.408 1.442v-1.302h-1.078v7.476h1.092v-4.256c0-.644.182-1.204.56-1.666.378-.462.882-.7 1.512-.7 1.288 0 1.932.938 1.932 2.24v4.382h1.078Zm12.706-2.128c0-.462-.182-.882-.532-1.232-.406-.42-1.064-.728-1.96-.924-1.386-.294-1.75-.56-1.75-1.176 0-.322.154-.588.448-.826.294-.238.658-.35 1.064-.35.77 0 1.358.42 1.75 1.26l.896-.49c-.504-1.162-1.386-1.736-2.646-1.736-.672 0-1.274.21-1.806.63-.532.42-.798.952-.798 1.596 0 .434.14.798.406 1.12.406.462.924.7 1.946.924 1.358.322 1.876.644 1.876 1.274 0 .742-.742 1.218-1.596 1.218-.882 0-1.554-.49-2.016-1.456l-.896.49c.574 1.288 1.554 1.932 2.926 1.932.77 0 1.414-.21 1.918-.63.518-.434.77-.966.77-1.624Zm8.855-2.184c-.784 0-1.47.182-2.072.532-.588.35-.882.882-.882 1.624v.084c0 .63.224 1.162.686 1.582.462.406 1.078.616 1.82.616 1.064 0 1.904-.476 2.52-1.442h.014v1.316h1.064v-4.83c0-.462-.07-.868-.224-1.232-.448-1.022-1.358-1.54-2.73-1.54-1.484 0-2.506.644-3.066 1.932l.896.504c.462-.98 1.176-1.47 2.142-1.47 1.274 0 1.904.602 1.904 1.82v.504h-2.072Zm2.072 1.162c0 .686-.224 1.232-.658 1.666-.434.434-.994.644-1.666.644-.938 0-1.61-.49-1.61-1.316.042-.98.994-1.274 1.848-1.26h2.086v.266Zm3.729-4.326v7.476h1.092v-3.654c0-.77.182-1.414.56-1.96.378-.546.966-.826 1.778-.826.098 0 .238.014.42.028v-1.162c-.056-.014-.182-.014-.364-.014-.952 0-1.89.518-2.408 1.596v-1.484h-1.078Zm11.946 4.074c.014-.07.014-.196.014-.364 0-1.134-.308-2.044-.924-2.758-.616-.714-1.484-1.078-2.604-1.078-1.022 0-1.89.378-2.59 1.148-.7.77-1.05 1.666-1.05 2.702 0 1.078.364 2.002 1.092 2.758.728.742 1.624 1.12 2.702 1.12 1.344 0 2.534-.7 3.164-1.932l-.812-.532c-.434.896-1.316 1.498-2.366 1.498-.728 0-1.344-.238-1.848-.728a2.696 2.696 0 0 1-.826-1.834h6.048Zm-6.034-.924c.098-.644.378-1.19.854-1.638a2.318 2.318 0 0 1 1.666-.686c1.4 0 2.268.924 2.422 2.324h-4.942Zm17.356 2.198c0-.462-.182-.882-.532-1.232-.406-.42-1.064-.728-1.96-.924-1.386-.294-1.75-.56-1.75-1.176 0-.322.154-.588.448-.826.294-.238.658-.35 1.064-.35.77 0 1.358.42 1.75 1.26l.896-.49c-.504-1.162-1.386-1.736-2.646-1.736-.672 0-1.274.21-1.806.63-.532.42-.798.952-.798 1.596 0 .434.14.798.406 1.12.406.462.924.7 1.946.924 1.358.322 1.876.644 1.876 1.274 0 .742-.742 1.218-1.596 1.218-.882 0-1.554-.49-2.016-1.456l-.896.49c.574 1.288 1.554 1.932 2.926 1.932.77 0 1.414-.21 1.918-.63.518-.434.77-.966.77-1.624Zm9.719-1.624a4.018 4.018 0 0 0-.994-2.688c-.658-.77-1.498-1.162-2.52-1.162-1.19 0-2.156.588-2.898 1.75v-1.624h-1.078v11.158h1.092v-5.222c.7 1.106 1.666 1.652 2.884 1.652 1.022 0 1.862-.378 2.52-1.148.658-.77.994-1.666.994-2.716Zm-3.738 2.898c-.77 0-1.414-.28-1.918-.854s-.756-1.26-.756-2.058c0-.77.252-1.428.77-2.002.518-.574 1.148-.868 1.904-.868.798 0 1.428.28 1.904.854.476.56.714 1.246.714 2.058 0 .826-.238 1.512-.714 2.058-.462.546-1.106.812-1.904.812Zm12.556-2.548c.014-.07.014-.196.014-.364 0-1.134-.308-2.044-.924-2.758-.616-.714-1.484-1.078-2.604-1.078-1.022 0-1.89.378-2.59 1.148-.7.77-1.05 1.666-1.05 2.702 0 1.078.364 2.002 1.092 2.758.728.742 1.624 1.12 2.702 1.12 1.344 0 2.534-.7 3.164-1.932l-.812-.532c-.434.896-1.316 1.498-2.366 1.498-.728 0-1.344-.238-1.848-.728a2.696 2.696 0 0 1-.826-1.834h6.048Zm-6.034-.924c.098-.644.378-1.19.854-1.638a2.318 2.318 0 0 1 1.666-.686c1.4 0 2.268.924 2.422 2.324h-4.942Zm8.784.546c0-.798.252-1.47.756-2.016.518-.56 1.162-.84 1.946-.84 1.232 0 2.002.7 2.338 1.638l.952-.42c-.434-1.246-1.61-2.184-3.29-2.184-1.064 0-1.974.378-2.716 1.12-.742.742-1.106 1.666-1.106 2.744 0 1.106.364 2.03 1.092 2.772.742.728 1.638 1.092 2.716 1.092 1.694 0 2.87-.938 3.332-2.226l-.952-.42c-.434 1.12-1.232 1.68-2.366 1.68-.798 0-1.442-.294-1.946-.868-.504-.574-.756-1.274-.756-2.072Zm7.834-6.37c0 .448.364.812.812.812a.819.819 0 1 0-.812-.812Zm1.372 2.674h-1.106v7.476h1.106v-7.476Zm5.178 3.164c-.784 0-1.47.182-2.072.532-.588.35-.882.882-.882 1.624v.084c0 .63.224 1.162.686 1.582.462.406 1.078.616 1.82.616 1.064 0 1.904-.476 2.52-1.442h.014v1.316h1.064v-4.83c0-.462-.07-.868-.224-1.232-.448-1.022-1.358-1.54-2.73-1.54-1.484 0-2.506.644-3.066 1.932l.896.504c.462-.98 1.176-1.47 2.142-1.47 1.274 0 1.904.602 1.904 1.82v.504h-2.072Zm2.072 1.162c0 .686-.224 1.232-.658 1.666-.434.434-.994.644-1.666.644-.938 0-1.61-.49-1.61-1.316.042-.98.994-1.274 1.848-1.26h2.086v.266Zm4.835-8.26h-1.106v11.41h1.106v-11.41Zm3.849 0h-1.106v11.41h1.106v-11.41Zm5.206 10.906-1.932 4.186h1.176l5.124-11.158h-1.176l-2.59 5.782-2.744-5.782h-1.26l3.402 6.972Zm9.513-3.248c0 1.064.322 1.974.966 2.73.658.756 1.498 1.134 2.534 1.134 1.246 0 2.226-.574 2.912-1.708v1.596h1.064v-11.396h-1.078v5.488c-.77-1.134-1.736-1.694-2.898-1.694-1.022 0-1.862.392-2.52 1.162-.658.77-.98 1.666-.98 2.688Zm3.724 2.898c-.798 0-1.428-.28-1.904-.826-.476-.56-.714-1.246-.714-2.044 0-.826.238-1.526.714-2.072.476-.56 1.106-.84 1.904-.84.756 0 1.386.294 1.904.868.518.574.784 1.232.784 2.002 0 .798-.252 1.484-.77 2.058-.504.574-1.148.854-1.918.854Zm13.116-2.548c.014-.07.014-.196.014-.364 0-1.134-.308-2.044-.924-2.758-.616-.714-1.484-1.078-2.604-1.078-1.022 0-1.89.378-2.59 1.148-.7.77-1.05 1.666-1.05 2.702 0 1.078.364 2.002 1.092 2.758.728.742 1.624 1.12 2.702 1.12 1.344 0 2.534-.7 3.164-1.932l-.812-.532c-.434.896-1.316 1.498-2.366 1.498-.728 0-1.344-.238-1.848-.728a2.696 2.696 0 0 1-.826-1.834h6.048Zm-6.034-.924c.098-.644.378-1.19.854-1.638a2.318 2.318 0 0 1 1.666-.686c1.4 0 2.268.924 2.422 2.324h-4.942Zm13.166 2.198c0-.462-.182-.882-.532-1.232-.406-.42-1.064-.728-1.96-.924-1.386-.294-1.75-.56-1.75-1.176 0-.322.154-.588.448-.826.294-.238.658-.35 1.064-.35.77 0 1.358.42 1.75 1.26l.896-.49c-.504-1.162-1.386-1.736-2.646-1.736-.672 0-1.274.21-1.806.63-.532.42-.798.952-.798 1.596 0 .434.14.798.406 1.12.406.462.924.7 1.946.924 1.358.322 1.876.644 1.876 1.274 0 .742-.742 1.218-1.596 1.218-.882 0-1.554-.49-2.016-1.456l-.896.49c.574 1.288 1.554 1.932 2.926 1.932.77 0 1.414-.21 1.918-.63.518-.434.77-.966.77-1.624Zm1.963-8.022c0 .448.364.812.812.812a.819.819 0 1 0-.812-.812Zm1.372 2.674h-1.106v7.476h1.106v-7.476Zm8.608 7.546c0 1.834-1.106 2.716-2.674 2.716-.826 0-1.484-.252-1.918-.7-.434-.448-.644-.756-.882-1.274l-.882.518c.714 1.61 1.946 2.408 3.696 2.408 2.31 0 3.752-1.344 3.752-3.71v-7.504h-1.078v1.568c-.756-1.134-1.722-1.694-2.912-1.694-1.022 0-1.862.378-2.52 1.148-.658.77-.98 1.652-.98 2.674 0 1.05.322 1.96.966 2.702.644.742 1.484 1.106 2.534 1.106 1.246 0 2.212-.56 2.898-1.694v1.736Zm-2.674-.994c-.798 0-1.428-.266-1.904-.812-.462-.546-.7-1.218-.7-2.016 0-.826.238-1.512.7-2.058.462-.546 1.106-.826 1.904-.826.756 0 1.386.28 1.904.854s.784 1.232.784 1.988c0 .784-.252 1.456-.77 2.03-.504.56-1.148.84-1.918.84Zm12.99.924v-4.62c0-1.792-1.036-2.996-2.828-2.996-1.134 0-1.988.504-2.576 1.512v-1.372h-1.078v7.476h1.092v-4.256c0-.672.21-1.232.63-1.68.42-.462.952-.686 1.596-.686 1.344 0 2.072.882 2.072 2.268v4.354h1.092Zm9.252-3.402c.014-.07.014-.196.014-.364 0-1.134-.308-2.044-.924-2.758-.616-.714-1.484-1.078-2.604-1.078-1.022 0-1.89.378-2.59 1.148-.7.77-1.05 1.666-1.05 2.702 0 1.078.364 2.002 1.092 2.758.728.742 1.624 1.12 2.702 1.12 1.344 0 2.534-.7 3.164-1.932l-.812-.532c-.434.896-1.316 1.498-2.366 1.498-.728 0-1.344-.238-1.848-.728a2.696 2.696 0 0 1-.826-1.834h6.048Zm-6.034-.924c.098-.644.378-1.19.854-1.638a2.318 2.318 0 0 1 1.666-.686c1.4 0 2.268.924 2.422 2.324h-4.942Zm7.677.574c0 1.064.322 1.974.966 2.73.658.756 1.498 1.134 2.534 1.134 1.246 0 2.226-.574 2.912-1.708v1.596h1.064v-11.396h-1.078v5.488c-.77-1.134-1.736-1.694-2.898-1.694-1.022 0-1.862.392-2.52 1.162-.658.77-.98 1.666-.98 2.688Zm3.724 2.898c-.798 0-1.428-.28-1.904-.826-.476-.56-.714-1.246-.714-2.044 0-.826.238-1.526.714-2.072.476-.56 1.106-.84 1.904-.84.756 0 1.386.294 1.904.868.518.574.784 1.232.784 2.002 0 .798-.252 1.484-.77 2.058-.504.574-1.148.854-1.918.854Zm17.307-5.096h-5.166v-3.934h5.642v-1.078h-6.79v10.962h1.148v-4.886h5.166v-1.064Zm2.351-1.526v4.62c0 1.792 1.036 2.996 2.828 2.996 1.134 0 1.988-.504 2.562-1.512v1.372h1.064v-7.476h-1.078v4.27c0 .672-.21 1.232-.63 1.68-.42.448-.952.672-1.596.672-1.344 0-2.072-.882-2.072-2.268v-4.354h-1.078Zm10.316-3.934h-1.106v11.41h1.106v-11.41Zm3.848 0h-1.106v11.41h1.106v-11.41Zm6.565 6.454h-4.004v1.162h4.004v-1.162Zm-308.277 24.828c0-.462-.182-.882-.532-1.232-.406-.42-1.064-.728-1.96-.924-1.386-.294-1.75-.56-1.75-1.176 0-.322.154-.588.448-.826.294-.238.658-.35 1.064-.35.77 0 1.358.42 1.75 1.26l.896-.49c-.504-1.162-1.386-1.736-2.646-1.736-.672 0-1.274.21-1.806.63-.532.42-.798.952-.798 1.596 0 .434.14.798.406 1.12.406.462.924.7 1.946.924 1.358.322 1.876.644 1.876 1.274 0 .742-.742 1.218-1.596 1.218-.882 0-1.554-.49-2.016-1.456l-.896.49c.574 1.288 1.554 1.932 2.926 1.932.77 0 1.414-.21 1.918-.63.518-.434.77-.966.77-1.624Zm4.751 2.184c.322 0 .616-.042.854-.112v-.91c-.154.042-.378.056-.672.056-.812 0-1.218-.35-1.218-1.05v-4.55h1.89v-.966h-1.89v-2.156h-1.078v2.156h-1.386v.966h1.386v4.578c0 1.33.7 1.988 2.114 1.988Zm5.416-4.368c-.784 0-1.47.182-2.072.532-.588.35-.882.882-.882 1.624v.084c0 .63.224 1.162.686 1.582.462.406 1.078.616 1.82.616 1.064 0 1.904-.476 2.52-1.442h.014v1.316h1.064v-4.83c0-.462-.07-.868-.224-1.232-.448-1.022-1.358-1.54-2.73-1.54-1.484 0-2.506.644-3.066 1.932l.896.504c.462-.98 1.176-1.47 2.142-1.47 1.274 0 1.904.602 1.904 1.82v.504h-2.072Zm2.072 1.162c0 .686-.224 1.232-.658 1.666-.434.434-.994.644-1.666.644-.938 0-1.61-.49-1.61-1.316.042-.98.994-1.274 1.848-1.26h2.086v.266Zm4.303-.63c0-.798.252-1.47.756-2.016.518-.56 1.162-.84 1.946-.84 1.232 0 2.002.7 2.338 1.638l.952-.42c-.434-1.246-1.61-2.184-3.29-2.184-1.064 0-1.974.378-2.716 1.12-.742.742-1.106 1.666-1.106 2.744 0 1.106.364 2.03 1.092 2.772.742.728 1.638 1.092 2.716 1.092 1.694 0 2.87-.938 3.332-2.226l-.952-.42c-.434 1.12-1.232 1.68-2.366 1.68-.798 0-1.442-.294-1.946-.868-.504-.574-.756-1.274-.756-2.072Zm9.193 3.78v-3.738h.042l3.724 3.738h1.526l-4.116-4.116 3.934-3.36h-1.554l-3.556 3.038v-6.972h-1.092v11.41h1.092Zm11.301 0h3.262c1.638 0 3.01-.518 4.116-1.54 1.106-1.036 1.666-2.352 1.666-3.962 0-1.554-.546-2.856-1.624-3.892-1.078-1.05-2.464-1.568-4.158-1.568h-3.262v10.962Zm1.148-9.884h2.058c1.414 0 2.534.42 3.374 1.246.854.826 1.274 1.89 1.274 3.164 0 1.288-.434 2.338-1.288 3.164-.854.826-1.96 1.232-3.346 1.232h-2.072v-8.806Zm16.766 6.482c.014-.07.014-.196.014-.364 0-1.134-.308-2.044-.924-2.758-.616-.714-1.484-1.078-2.604-1.078-1.022 0-1.89.378-2.59 1.148-.7.77-1.05 1.666-1.05 2.702 0 1.078.364 2.002 1.092 2.758.728.742 1.624 1.12 2.702 1.12 1.344 0 2.534-.7 3.164-1.932l-.812-.532c-.434.896-1.316 1.498-2.366 1.498-.728 0-1.344-.238-1.848-.728a2.696 2.696 0 0 1-.826-1.834h6.048Zm-6.034-.924c.098-.644.378-1.19.854-1.638a2.318 2.318 0 0 1 1.666-.686c1.4 0 2.268.924 2.422 2.324h-4.942Zm7.027-3.15 3.178 7.476h1.162l3.192-7.476h-1.162l-2.604 6.272-2.562-6.272h-1.204Zm15.714 4.074c.014-.07.014-.196.014-.364 0-1.134-.308-2.044-.924-2.758-.616-.714-1.484-1.078-2.604-1.078-1.022 0-1.89.378-2.59 1.148-.7.77-1.05 1.666-1.05 2.702 0 1.078.364 2.002 1.092 2.758.728.742 1.624 1.12 2.702 1.12 1.344 0 2.534-.7 3.164-1.932l-.812-.532c-.434.896-1.316 1.498-2.366 1.498-.728 0-1.344-.238-1.848-.728a2.696 2.696 0 0 1-.826-1.834h6.048Zm-6.034-.924c.098-.644.378-1.19.854-1.638a2.318 2.318 0 0 1 1.666-.686c1.4 0 2.268.924 2.422 2.324h-4.942Zm9.315-7.084h-1.106v11.41h1.106v-11.41Zm6.047 11.536c1.092 0 2.016-.378 2.758-1.12.742-.742 1.12-1.666 1.12-2.772 0-1.078-.378-1.974-1.12-2.716-.742-.742-1.652-1.12-2.73-1.12-1.106 0-2.03.378-2.772 1.12-.742.742-1.106 1.666-1.106 2.772 0 1.064.364 1.974 1.106 2.716.742.742 1.666 1.12 2.744 1.12Zm.028-.966c-.798 0-1.47-.28-1.988-.854s-.77-1.274-.77-2.072.252-1.484.77-2.044 1.162-.84 1.96-.84 1.456.294 1.974.868c.518.574.784 1.274.784 2.072s-.266 1.47-.784 2.03c-.518.56-1.162.84-1.946.84Zm13.543-2.912a4.018 4.018 0 0 0-.994-2.688c-.658-.77-1.498-1.162-2.52-1.162-1.19 0-2.156.588-2.898 1.75v-1.624h-1.078v11.158h1.092v-5.222c.7 1.106 1.666 1.652 2.884 1.652 1.022 0 1.862-.378 2.52-1.148.658-.77.994-1.666.994-2.716Zm-3.738 2.898c-.77 0-1.414-.28-1.918-.854s-.756-1.26-.756-2.058c0-.77.252-1.428.77-2.002.518-.574 1.148-.868 1.904-.868.798 0 1.428.28 1.904.854.476.56.714 1.246.714 2.058 0 .826-.238 1.512-.714 2.058-.462.546-1.106.812-1.904.812Zm12.122.854v-4.298c0-.658.182-1.204.56-1.638.378-.448.882-.672 1.512-.672 1.302 0 1.932.91 1.932 2.254v4.354h1.092v-4.62c0-1.792-1.008-2.982-2.758-2.982-1.106 0-1.988.49-2.632 1.484-.462-.994-1.26-1.498-2.394-1.498-1.064 0-1.778.476-2.408 1.442v-1.302h-1.078v7.476h1.092v-4.256c0-.644.182-1.204.56-1.666.378-.462.882-.7 1.512-.7 1.288 0 1.932.938 1.932 2.24v4.382h1.078Zm14.359-3.402c.014-.07.014-.196.014-.364 0-1.134-.308-2.044-.924-2.758-.616-.714-1.484-1.078-2.604-1.078-1.022 0-1.89.378-2.59 1.148-.7.77-1.05 1.666-1.05 2.702 0 1.078.364 2.002 1.092 2.758.728.742 1.624 1.12 2.702 1.12 1.344 0 2.534-.7 3.164-1.932l-.812-.532c-.434.896-1.316 1.498-2.366 1.498-.728 0-1.344-.238-1.848-.728a2.696 2.696 0 0 1-.826-1.834h6.048Zm-6.034-.924c.098-.644.378-1.19.854-1.638a2.318 2.318 0 0 1 1.666-.686c1.4 0 2.268.924 2.422 2.324h-4.942Zm14.692 4.326v-4.62c0-1.792-1.036-2.996-2.828-2.996-1.134 0-1.988.504-2.576 1.512v-1.372h-1.078v7.476h1.092v-4.256c0-.672.21-1.232.63-1.68.42-.462.952-.686 1.596-.686 1.344 0 2.072.882 2.072 2.268v4.354h1.092Zm5.193.056c.322 0 .616-.042.854-.112v-.91c-.154.042-.378.056-.672.056-.812 0-1.218-.35-1.218-1.05v-4.55h1.89v-.966h-1.89v-2.156h-1.078v2.156h-1.386v.966h1.386v4.578c0 1.33.7 1.988 2.114 1.988Zm14.661-3.808a4.018 4.018 0 0 0-.994-2.688c-.658-.77-1.498-1.162-2.52-1.162-1.19 0-2.156.588-2.898 1.75v-1.624h-1.078v11.158h1.092v-5.222c.7 1.106 1.666 1.652 2.884 1.652 1.022 0 1.862-.378 2.52-1.148.658-.77.994-1.666.994-2.716Zm-3.738 2.898c-.77 0-1.414-.28-1.918-.854s-.756-1.26-.756-2.058c0-.77.252-1.428.77-2.002.518-.574 1.148-.868 1.904-.868.798 0 1.428.28 1.904.854.476.56.714 1.246.714 2.058 0 .826-.238 1.512-.714 2.058-.462.546-1.106.812-1.904.812Zm5.947-6.622v7.476h1.092v-3.654c0-.77.182-1.414.56-1.96.378-.546.966-.826 1.778-.826.098 0 .238.014.42.028v-1.162c-.056-.014-.182-.014-.364-.014-.952 0-1.89.518-2.408 1.596v-1.484h-1.078Zm8.643 7.602c1.092 0 2.016-.378 2.758-1.12.742-.742 1.12-1.666 1.12-2.772 0-1.078-.378-1.974-1.12-2.716-.742-.742-1.652-1.12-2.73-1.12-1.106 0-2.03.378-2.772 1.12-.742.742-1.106 1.666-1.106 2.772 0 1.064.364 1.974 1.106 2.716.742.742 1.666 1.12 2.744 1.12Zm.028-.966c-.798 0-1.47-.28-1.988-.854s-.77-1.274-.77-2.072.252-1.484.77-2.044 1.162-.84 1.96-.84 1.456.294 1.974.868c.518.574.784 1.274.784 2.072s-.266 1.47-.784 2.03c-.518.56-1.162.84-1.946.84Zm11.92.91c0 1.834-1.106 2.716-2.674 2.716-.826 0-1.484-.252-1.918-.7-.434-.448-.644-.756-.882-1.274l-.882.518c.714 1.61 1.946 2.408 3.696 2.408 2.31 0 3.752-1.344 3.752-3.71v-7.504h-1.078v1.568c-.756-1.134-1.722-1.694-2.912-1.694-1.022 0-1.862.378-2.52 1.148-.658.77-.98 1.652-.98 2.674 0 1.05.322 1.96.966 2.702.644.742 1.484 1.106 2.534 1.106 1.246 0 2.212-.56 2.898-1.694v1.736Zm-2.674-.994c-.798 0-1.428-.266-1.904-.812-.462-.546-.7-1.218-.7-2.016 0-.826.238-1.512.7-2.058.462-.546 1.106-.826 1.904-.826.756 0 1.386.28 1.904.854s.784 1.232.784 1.988c0 .784-.252 1.456-.77 2.03-.504.56-1.148.84-1.918.84Zm6.507-6.552v7.476h1.092v-3.654c0-.77.182-1.414.56-1.96.378-.546.966-.826 1.778-.826.098 0 .238.014.42.028v-1.162c-.056-.014-.182-.014-.364-.014-.952 0-1.89.518-2.408 1.596v-1.484h-1.078Zm7.857 3.164c-.784 0-1.47.182-2.072.532-.588.35-.882.882-.882 1.624v.084c0 .63.224 1.162.686 1.582.462.406 1.078.616 1.82.616 1.064 0 1.904-.476 2.52-1.442h.014v1.316h1.064v-4.83c0-.462-.07-.868-.224-1.232-.448-1.022-1.358-1.54-2.73-1.54-1.484 0-2.506.644-3.066 1.932l.896.504c.462-.98 1.176-1.47 2.142-1.47 1.274 0 1.904.602 1.904 1.82v.504h-2.072Zm2.072 1.162c0 .686-.224 1.232-.658 1.666-.434.434-.994.644-1.666.644-.938 0-1.61-.49-1.61-1.316.042-.98.994-1.274 1.848-1.26h2.086v.266Zm9.903 3.15v-4.298c0-.658.182-1.204.56-1.638.378-.448.882-.672 1.512-.672 1.302 0 1.932.91 1.932 2.254v4.354h1.092v-4.62c0-1.792-1.008-2.982-2.758-2.982-1.106 0-1.988.49-2.632 1.484-.462-.994-1.26-1.498-2.394-1.498-1.064 0-1.778.476-2.408 1.442v-1.302h-1.078v7.476h1.092v-4.256c0-.644.182-1.204.56-1.666.378-.462.882-.7 1.512-.7 1.288 0 1.932.938 1.932 2.24v4.382h1.078Z" fill="#6C6C6C"/><g filter="url(#d)"><rect x="184.824" y="366.954" width="469.175" height="133.144" rx="10.567" fill="#fff"/></g><rect opacity=".5" x="203.845" y="385.974" width="65.516" height="65.516" rx="9.51" fill="#C4C4C4"/><path opacity=".8" d="M306.223 406.461c0-2.024-1.035-3.427-3.105-4.232v-.023c1.817-.874 2.714-2.254 2.714-4.117 0-1.357-.552-2.484-1.633-3.427-1.081-.943-2.553-1.403-4.393-1.403-3.059 0-5.198 1.656-6.026 4.048l2.461 1.127c.736-1.725 1.909-2.599 3.519-2.599 2.024 0 3.197 1.081 3.197 2.553 0 .736-.299 1.38-.92 1.909-.598.529-1.357.782-2.277.782h-1.771v2.553h1.932c.989 0 1.794.276 2.415.828.644.529.966 1.196.966 1.955 0 .736-.322 1.38-.989 1.932-.667.529-1.472.805-2.438.805-1.817 0-3.128-.897-3.91-2.668l-2.438 1.196c1.081 2.691 3.174 4.048 6.302 4.048 1.863 0 3.381-.506 4.577-1.518 1.219-1.035 1.817-2.277 1.817-3.749Zm15.352 0c0-2.024-1.035-3.427-3.105-4.232v-.023c1.817-.874 2.714-2.254 2.714-4.117 0-1.357-.552-2.484-1.633-3.427-1.081-.943-2.553-1.403-4.393-1.403-3.059 0-5.198 1.656-6.026 4.048l2.461 1.127c.736-1.725 1.909-2.599 3.519-2.599 2.024 0 3.197 1.081 3.197 2.553 0 .736-.299 1.38-.92 1.909-.598.529-1.357.782-2.277.782h-1.771v2.553h1.932c.989 0 1.794.276 2.415.828.644.529.966 1.196.966 1.955 0 .736-.322 1.38-.989 1.932-.667.529-1.472.805-2.438.805-1.817 0-3.128-.897-3.91-2.668l-2.438 1.196c1.081 2.691 3.174 4.048 6.302 4.048 1.863 0 3.381-.506 4.577-1.518 1.219-1.035 1.817-2.277 1.817-3.749Zm7.578-2.093v4.715h2.576v-4.715h4.807v-2.507h-4.807v-4.646h-2.576v4.646h-4.807v2.507h4.807Zm25.571 7.36c2.277 0 4.301-.736 5.658-1.84 1.357-1.104 2.231-2.323 2.668-3.588l-2.576-1.173c-.437 1.173-1.196 2.139-2.254 2.875a5.938 5.938 0 0 1-3.427 1.081c-1.656 0-3.105-.621-4.324-1.84-1.219-1.242-1.817-2.829-1.817-4.761 0-1.955.621-3.519 1.84-4.738 1.219-1.219 2.668-1.84 4.301-1.84 2.829 0 4.715 1.61 5.612 3.933l2.553-1.173c-.391-1.288-1.265-2.507-2.553-3.588-1.288-1.104-3.289-1.817-5.566-1.817-2.507 0-4.646.897-6.463 2.668-1.817 1.771-2.714 3.979-2.714 6.647 0 2.829 1.104 5.244 2.829 6.785 1.725 1.495 3.933 2.369 6.233 2.369Zm16.973-12.742c-1.794 0-3.335.621-4.6 1.84-1.265 1.219-1.909 2.737-1.909 4.531 0 1.794.621 3.312 1.886 4.531 1.265 1.219 2.806 1.84 4.6 1.84 1.817 0 3.335-.621 4.577-1.84 1.265-1.242 1.886-2.76 1.886-4.577 0-1.794-.621-3.289-1.886-4.508-1.265-1.219-2.783-1.817-4.554-1.817Zm-2.691 3.611c.69-.759 1.587-1.127 2.668-1.127 1.081 0 1.978.368 2.645 1.127.69.759 1.035 1.679 1.035 2.76 0 1.081-.345 2.001-1.012 2.76-.667.759-1.564 1.127-2.645 1.127s-1.978-.391-2.668-1.15c-.69-.782-1.035-1.702-1.035-2.783s.345-1.978 1.012-2.714Zm12.314-3.358v7.544c0 2.944 1.633 4.991 4.6 4.991 1.564 0 2.806-.644 3.749-1.909v1.656h2.668v-12.282H389.6v6.831c0 1.863-1.104 3.105-2.829 3.105-1.817 0-2.714-1.219-2.714-3.059v-6.877h-2.737Zm21.869-.046c-.161-.046-.368-.069-.667-.069-1.495 0-2.622.69-3.381 2.07v-1.955h-2.668v12.282h2.737v-6.233c0-2.139 1.104-3.358 3.197-3.358.299 0 .552.023.782.069v-2.806Zm6.752 12.535c1.38 0 2.507-.345 3.358-1.058.851-.713 1.288-1.633 1.288-2.76 0-1.909-1.472-3.243-4.255-3.864-1.587-.345-2.277-.759-2.277-1.564 0-.667.874-1.196 1.725-1.196 1.173 0 2.024.552 2.576 1.656l2.116-1.196c-.851-1.84-2.392-2.76-4.6-2.76-1.196 0-2.231.345-3.128 1.058-.897.713-1.334 1.61-1.334 2.714 0 .874.299 1.61.874 2.231.667.713 1.702 1.196 3.059 1.472 1.679.345 2.53.897 2.53 1.61 0 .828-.897 1.357-1.932 1.357-1.311 0-2.277-.667-2.944-1.978l-2.139 1.196c.943 2.047 2.645 3.082 5.083 3.082Zm19.319-5.543c.023-.207.046-.483.046-.851 0-1.909-.529-3.427-1.587-4.6-1.058-1.173-2.53-1.748-4.393-1.748-1.771 0-3.243.621-4.416 1.863-1.173 1.242-1.771 2.737-1.771 4.508 0 1.817.621 3.358 1.84 4.577 1.242 1.219 2.783 1.817 4.6 1.817 2.208 0 4.209-1.058 5.244-2.967l-1.978-1.311c-.667 1.265-1.771 1.909-3.312 1.909a3.75 3.75 0 0 1-2.484-.897c-.713-.621-1.081-1.38-1.104-2.3h9.315Zm-5.934-4.853c1.748 0 3.105 1.058 3.197 2.783h-6.44c.253-1.679 1.564-2.783 3.243-2.783Zm13.231 10.396c1.38 0 2.507-.345 3.358-1.058.851-.713 1.288-1.633 1.288-2.76 0-1.909-1.472-3.243-4.255-3.864-1.587-.345-2.277-.759-2.277-1.564 0-.667.874-1.196 1.725-1.196 1.173 0 2.024.552 2.576 1.656l2.116-1.196c-.851-1.84-2.392-2.76-4.6-2.76-1.196 0-2.231.345-3.128 1.058-.897.713-1.334 1.61-1.334 2.714 0 .874.299 1.61.874 2.231.667.713 1.702 1.196 3.059 1.472 1.679.345 2.53.897 2.53 1.61 0 .828-.897 1.357-1.932 1.357-1.311 0-2.277-.667-2.944-1.978l-2.139 1.196c.943 2.047 2.645 3.082 5.083 3.082Z" fill="#212121"/><path opacity=".8" d="M295.281 442.186v-4.284h2.324c1.274 0 2.268-.322 2.982-.952.714-.644 1.064-1.456 1.064-2.436 0-.924-.322-1.708-.98-2.338-.658-.63-1.61-.952-2.87-.952h-3.668v10.962h1.148Zm0-9.884h2.422c.994 0 1.694.224 2.128.658.434.434.644.966.644 1.596 0 .616-.238 1.148-.714 1.61-.476.448-1.176.672-2.114.672h-2.366v-4.536Zm8.368 2.408v7.476h1.092v-3.654c0-.77.182-1.414.56-1.96.378-.546.966-.826 1.778-.826.098 0 .238.014.42.028v-1.162c-.056-.014-.182-.014-.364-.014-.952 0-1.89.518-2.408 1.596v-1.484h-1.078Zm5.332-2.674c0 .448.364.812.812.812a.819.819 0 1 0-.812-.812Zm1.372 2.674h-1.106v7.476h1.106v-7.476Zm8.916 7.476v-4.298c0-.658.182-1.204.56-1.638.378-.448.882-.672 1.512-.672 1.302 0 1.932.91 1.932 2.254v4.354h1.092v-4.62c0-1.792-1.008-2.982-2.758-2.982-1.106 0-1.988.49-2.632 1.484-.462-.994-1.26-1.498-2.394-1.498-1.064 0-1.778.476-2.408 1.442v-1.302h-1.078v7.476h1.092v-4.256c0-.644.182-1.204.56-1.666.378-.462.882-.7 1.512-.7 1.288 0 1.932.938 1.932 2.24v4.382h1.078Zm14.359-3.402c.014-.07.014-.196.014-.364 0-1.134-.308-2.044-.924-2.758-.616-.714-1.484-1.078-2.604-1.078-1.022 0-1.89.378-2.59 1.148-.7.77-1.05 1.666-1.05 2.702 0 1.078.364 2.002 1.092 2.758.728.742 1.624 1.12 2.702 1.12 1.344 0 2.534-.7 3.164-1.932l-.812-.532c-.434.896-1.316 1.498-2.366 1.498-.728 0-1.344-.238-1.848-.728a2.696 2.696 0 0 1-.826-1.834h6.048Zm-6.034-.924c.098-.644.378-1.19.854-1.638a2.318 2.318 0 0 1 1.666-.686c1.4 0 2.268.924 2.422 2.324h-4.942Zm13.842 4.326v-4.284h2.324c1.274 0 2.268-.322 2.982-.952.714-.644 1.064-1.456 1.064-2.436 0-.924-.322-1.708-.98-2.338-.658-.63-1.61-.952-2.87-.952h-3.668v10.962h1.148Zm0-9.884h2.422c.994 0 1.694.224 2.128.658.434.434.644.966.644 1.596 0 .616-.238 1.148-.714 1.61-.476.448-1.176.672-2.114.672h-2.366v-4.536Zm8.367 2.408v7.476h1.092v-3.654c0-.77.182-1.414.56-1.96.378-.546.966-.826 1.778-.826.098 0 .238.014.42.028v-1.162c-.056-.014-.182-.014-.364-.014-.952 0-1.89.518-2.408 1.596v-1.484h-1.078Zm8.643 7.602c1.092 0 2.016-.378 2.758-1.12.742-.742 1.12-1.666 1.12-2.772 0-1.078-.378-1.974-1.12-2.716-.742-.742-1.652-1.12-2.73-1.12-1.106 0-2.03.378-2.772 1.12-.742.742-1.106 1.666-1.106 2.772 0 1.064.364 1.974 1.106 2.716.742.742 1.666 1.12 2.744 1.12Zm.028-.966c-.798 0-1.47-.28-1.988-.854s-.77-1.274-.77-2.072.252-1.484.77-2.044 1.162-.84 1.96-.84 1.456.294 1.974.868c.518.574.784 1.274.784 2.072s-.266 1.47-.784 2.03c-.518.56-1.162.84-1.946.84Zm11.919.91c0 1.834-1.106 2.716-2.674 2.716-.826 0-1.484-.252-1.918-.7-.434-.448-.644-.756-.882-1.274l-.882.518c.714 1.61 1.946 2.408 3.696 2.408 2.31 0 3.752-1.344 3.752-3.71v-7.504h-1.078v1.568c-.756-1.134-1.722-1.694-2.912-1.694-1.022 0-1.862.378-2.52 1.148-.658.77-.98 1.652-.98 2.674 0 1.05.322 1.96.966 2.702.644.742 1.484 1.106 2.534 1.106 1.246 0 2.212-.56 2.898-1.694v1.736Zm-2.674-.994c-.798 0-1.428-.266-1.904-.812-.462-.546-.7-1.218-.7-2.016 0-.826.238-1.512.7-2.058.462-.546 1.106-.826 1.904-.826.756 0 1.386.28 1.904.854s.784 1.232.784 1.988c0 .784-.252 1.456-.77 2.03-.504.56-1.148.84-1.918.84Zm6.508-6.552v7.476h1.092v-3.654c0-.77.182-1.414.56-1.96.378-.546.966-.826 1.778-.826.098 0 .238.014.42.028v-1.162c-.056-.014-.182-.014-.364-.014-.952 0-1.89.518-2.408 1.596v-1.484h-1.078Zm7.857 3.164c-.784 0-1.47.182-2.072.532-.588.35-.882.882-.882 1.624v.084c0 .63.224 1.162.686 1.582.462.406 1.078.616 1.82.616 1.064 0 1.904-.476 2.52-1.442h.014v1.316h1.064v-4.83c0-.462-.07-.868-.224-1.232-.448-1.022-1.358-1.54-2.73-1.54-1.484 0-2.506.644-3.066 1.932l.896.504c.462-.98 1.176-1.47 2.142-1.47 1.274 0 1.904.602 1.904 1.82v.504h-2.072Zm2.072 1.162c0 .686-.224 1.232-.658 1.666-.434.434-.994.644-1.666.644-.938 0-1.61-.49-1.61-1.316.042-.98.994-1.274 1.848-1.26h2.086v.266Zm9.903 3.15v-4.298c0-.658.182-1.204.56-1.638.378-.448.882-.672 1.512-.672 1.302 0 1.932.91 1.932 2.254v4.354h1.092v-4.62c0-1.792-1.008-2.982-2.758-2.982-1.106 0-1.988.49-2.632 1.484-.462-.994-1.26-1.498-2.394-1.498-1.064 0-1.778.476-2.408 1.442v-1.302h-1.078v7.476h1.092v-4.256c0-.644.182-1.204.56-1.666.378-.462.882-.7 1.512-.7 1.288 0 1.932.938 1.932 2.24v4.382h1.078Zm12.706-2.128c0-.462-.182-.882-.532-1.232-.406-.42-1.064-.728-1.96-.924-1.386-.294-1.75-.56-1.75-1.176 0-.322.154-.588.448-.826.294-.238.658-.35 1.064-.35.77 0 1.358.42 1.75 1.26l.896-.49c-.504-1.162-1.386-1.736-2.646-1.736-.672 0-1.274.21-1.806.63-.532.42-.798.952-.798 1.596 0 .434.14.798.406 1.12.406.462.924.7 1.946.924 1.358.322 1.876.644 1.876 1.274 0 .742-.742 1.218-1.596 1.218-.882 0-1.554-.49-2.016-1.456l-.896.49c.574 1.288 1.554 1.932 2.926 1.932.77 0 1.414-.21 1.918-.63.518-.434.77-.966.77-1.624Zm8.855-2.184c-.784 0-1.47.182-2.072.532-.588.35-.882.882-.882 1.624v.084c0 .63.224 1.162.686 1.582.462.406 1.078.616 1.82.616 1.064 0 1.904-.476 2.52-1.442h.014v1.316h1.064v-4.83c0-.462-.07-.868-.224-1.232-.448-1.022-1.358-1.54-2.73-1.54-1.484 0-2.506.644-3.066 1.932l.896.504c.462-.98 1.176-1.47 2.142-1.47 1.274 0 1.904.602 1.904 1.82v.504h-2.072Zm2.072 1.162c0 .686-.224 1.232-.658 1.666-.434.434-.994.644-1.666.644-.938 0-1.61-.49-1.61-1.316.042-.98.994-1.274 1.848-1.26h2.086v.266Zm3.729-4.326v7.476h1.092v-3.654c0-.77.182-1.414.56-1.96.378-.546.966-.826 1.778-.826.098 0 .238.014.42.028v-1.162c-.056-.014-.182-.014-.364-.014-.952 0-1.89.518-2.408 1.596v-1.484h-1.078Zm11.947 4.074c.014-.07.014-.196.014-.364 0-1.134-.308-2.044-.924-2.758-.616-.714-1.484-1.078-2.604-1.078-1.022 0-1.89.378-2.59 1.148-.7.77-1.05 1.666-1.05 2.702 0 1.078.364 2.002 1.092 2.758.728.742 1.624 1.12 2.702 1.12 1.344 0 2.534-.7 3.164-1.932l-.812-.532c-.434.896-1.316 1.498-2.366 1.498-.728 0-1.344-.238-1.848-.728a2.696 2.696 0 0 1-.826-1.834h6.048Zm-6.034-.924c.098-.644.378-1.19.854-1.638a2.318 2.318 0 0 1 1.666-.686c1.4 0 2.268.924 2.422 2.324h-4.942Zm17.356 2.198c0-.462-.182-.882-.532-1.232-.406-.42-1.064-.728-1.96-.924-1.386-.294-1.75-.56-1.75-1.176 0-.322.154-.588.448-.826.294-.238.658-.35 1.064-.35.77 0 1.358.42 1.75 1.26l.896-.49c-.504-1.162-1.386-1.736-2.646-1.736-.672 0-1.274.21-1.806.63-.532.42-.798.952-.798 1.596 0 .434.14.798.406 1.12.406.462.924.7 1.946.924 1.358.322 1.876.644 1.876 1.274 0 .742-.742 1.218-1.596 1.218-.882 0-1.554-.49-2.016-1.456l-.896.49c.574 1.288 1.554 1.932 2.926 1.932.77 0 1.414-.21 1.918-.63.518-.434.77-.966.77-1.624Zm9.718-1.624a4.018 4.018 0 0 0-.994-2.688c-.658-.77-1.498-1.162-2.52-1.162-1.19 0-2.156.588-2.898 1.75v-1.624h-1.078v11.158h1.092v-5.222c.7 1.106 1.666 1.652 2.884 1.652 1.022 0 1.862-.378 2.52-1.148.658-.77.994-1.666.994-2.716Zm-3.738 2.898c-.77 0-1.414-.28-1.918-.854s-.756-1.26-.756-2.058c0-.77.252-1.428.77-2.002.518-.574 1.148-.868 1.904-.868.798 0 1.428.28 1.904.854.476.56.714 1.246.714 2.058 0 .826-.238 1.512-.714 2.058-.462.546-1.106.812-1.904.812Zm12.556-2.548c.014-.07.014-.196.014-.364 0-1.134-.308-2.044-.924-2.758-.616-.714-1.484-1.078-2.604-1.078-1.022 0-1.89.378-2.59 1.148-.7.77-1.05 1.666-1.05 2.702 0 1.078.364 2.002 1.092 2.758.728.742 1.624 1.12 2.702 1.12 1.344 0 2.534-.7 3.164-1.932l-.812-.532c-.434.896-1.316 1.498-2.366 1.498-.728 0-1.344-.238-1.848-.728a2.696 2.696 0 0 1-.826-1.834h6.048Zm-6.034-.924c.098-.644.378-1.19.854-1.638a2.318 2.318 0 0 1 1.666-.686c1.4 0 2.268.924 2.422 2.324h-4.942Zm8.784.546c0-.798.252-1.47.756-2.016.518-.56 1.162-.84 1.946-.84 1.232 0 2.002.7 2.338 1.638l.952-.42c-.434-1.246-1.61-2.184-3.29-2.184-1.064 0-1.974.378-2.716 1.12-.742.742-1.106 1.666-1.106 2.744 0 1.106.364 2.03 1.092 2.772.742.728 1.638 1.092 2.716 1.092 1.694 0 2.87-.938 3.332-2.226l-.952-.42c-.434 1.12-1.232 1.68-2.366 1.68-.798 0-1.442-.294-1.946-.868-.504-.574-.756-1.274-.756-2.072Zm7.834-6.37c0 .448.364.812.812.812a.819.819 0 1 0-.812-.812Zm1.372 2.674h-1.106v7.476h1.106v-7.476Zm5.179 3.164c-.784 0-1.47.182-2.072.532-.588.35-.882.882-.882 1.624v.084c0 .63.224 1.162.686 1.582.462.406 1.078.616 1.82.616 1.064 0 1.904-.476 2.52-1.442h.014v1.316h1.064v-4.83c0-.462-.07-.868-.224-1.232-.448-1.022-1.358-1.54-2.73-1.54-1.484 0-2.506.644-3.066 1.932l.896.504c.462-.98 1.176-1.47 2.142-1.47 1.274 0 1.904.602 1.904 1.82v.504h-2.072Zm2.072 1.162c0 .686-.224 1.232-.658 1.666-.434.434-.994.644-1.666.644-.938 0-1.61-.49-1.61-1.316.042-.98.994-1.274 1.848-1.26h2.086v.266Zm4.835-8.26h-1.106v11.41h1.106v-11.41Zm3.848 0h-1.106v11.41h1.106v-11.41Zm5.206 10.906-1.932 4.186h1.176l5.124-11.158h-1.176l-2.59 5.782-2.744-5.782h-1.26l3.402 6.972Zm9.514-3.248c0 1.064.322 1.974.966 2.73.658.756 1.498 1.134 2.534 1.134 1.246 0 2.226-.574 2.912-1.708v1.596h1.064V430.79h-1.078v5.488c-.77-1.134-1.736-1.694-2.898-1.694-1.022 0-1.862.392-2.52 1.162-.658.77-.98 1.666-.98 2.688Zm3.724 2.898c-.798 0-1.428-.28-1.904-.826-.476-.56-.714-1.246-.714-2.044 0-.826.238-1.526.714-2.072.476-.56 1.106-.84 1.904-.84.756 0 1.386.294 1.904.868.518.574.784 1.232.784 2.002 0 .798-.252 1.484-.77 2.058-.504.574-1.148.854-1.918.854Zm13.116-2.548c.014-.07.014-.196.014-.364 0-1.134-.308-2.044-.924-2.758-.616-.714-1.484-1.078-2.604-1.078-1.022 0-1.89.378-2.59 1.148-.7.77-1.05 1.666-1.05 2.702 0 1.078.364 2.002 1.092 2.758.728.742 1.624 1.12 2.702 1.12 1.344 0 2.534-.7 3.164-1.932l-.812-.532c-.434.896-1.316 1.498-2.366 1.498-.728 0-1.344-.238-1.848-.728a2.696 2.696 0 0 1-.826-1.834h6.048Zm-6.034-.924c.098-.644.378-1.19.854-1.638a2.318 2.318 0 0 1 1.666-.686c1.4 0 2.268.924 2.422 2.324h-4.942Zm13.165 2.198c0-.462-.182-.882-.532-1.232-.406-.42-1.064-.728-1.96-.924-1.386-.294-1.75-.56-1.75-1.176 0-.322.154-.588.448-.826.294-.238.658-.35 1.064-.35.77 0 1.358.42 1.75 1.26l.896-.49c-.504-1.162-1.386-1.736-2.646-1.736-.672 0-1.274.21-1.806.63-.532.42-.798.952-.798 1.596 0 .434.14.798.406 1.12.406.462.924.7 1.946.924 1.358.322 1.876.644 1.876 1.274 0 .742-.742 1.218-1.596 1.218-.882 0-1.554-.49-2.016-1.456l-.896.49c.574 1.288 1.554 1.932 2.926 1.932.77 0 1.414-.21 1.918-.63.518-.434.77-.966.77-1.624Zm1.963-8.022c0 .448.364.812.812.812a.819.819 0 1 0-.812-.812Zm1.372 2.674h-1.106v7.476h1.106v-7.476Zm8.608 7.546c0 1.834-1.106 2.716-2.674 2.716-.826 0-1.484-.252-1.918-.7-.434-.448-.644-.756-.882-1.274l-.882.518c.714 1.61 1.946 2.408 3.696 2.408 2.31 0 3.752-1.344 3.752-3.71v-7.504h-1.078v1.568c-.756-1.134-1.722-1.694-2.912-1.694-1.022 0-1.862.378-2.52 1.148-.658.77-.98 1.652-.98 2.674 0 1.05.322 1.96.966 2.702.644.742 1.484 1.106 2.534 1.106 1.246 0 2.212-.56 2.898-1.694v1.736Zm-2.674-.994c-.798 0-1.428-.266-1.904-.812-.462-.546-.7-1.218-.7-2.016 0-.826.238-1.512.7-2.058.462-.546 1.106-.826 1.904-.826.756 0 1.386.28 1.904.854s.784 1.232.784 1.988c0 .784-.252 1.456-.77 2.03-.504.56-1.148.84-1.918.84Zm12.99.924v-4.62c0-1.792-1.036-2.996-2.828-2.996-1.134 0-1.988.504-2.576 1.512v-1.372h-1.078v7.476h1.092v-4.256c0-.672.21-1.232.63-1.68.42-.462.952-.686 1.596-.686 1.344 0 2.072.882 2.072 2.268v4.354h1.092Zm9.252-3.402c.014-.07.014-.196.014-.364 0-1.134-.308-2.044-.924-2.758-.616-.714-1.484-1.078-2.604-1.078-1.022 0-1.89.378-2.59 1.148-.7.77-1.05 1.666-1.05 2.702 0 1.078.364 2.002 1.092 2.758.728.742 1.624 1.12 2.702 1.12 1.344 0 2.534-.7 3.164-1.932l-.812-.532c-.434.896-1.316 1.498-2.366 1.498-.728 0-1.344-.238-1.848-.728a2.696 2.696 0 0 1-.826-1.834h6.048Zm-6.034-.924c.098-.644.378-1.19.854-1.638a2.318 2.318 0 0 1 1.666-.686c1.4 0 2.268.924 2.422 2.324h-4.942Zm7.678.574c0 1.064.322 1.974.966 2.73.658.756 1.498 1.134 2.534 1.134 1.246 0 2.226-.574 2.912-1.708v1.596h1.064V430.79h-1.078v5.488c-.77-1.134-1.736-1.694-2.898-1.694-1.022 0-1.862.392-2.52 1.162-.658.77-.98 1.666-.98 2.688Zm3.724 2.898c-.798 0-1.428-.28-1.904-.826-.476-.56-.714-1.246-.714-2.044 0-.826.238-1.526.714-2.072.476-.56 1.106-.84 1.904-.84.756 0 1.386.294 1.904.868.518.574.784 1.232.784 2.002 0 .798-.252 1.484-.77 2.058-.504.574-1.148.854-1.918.854Zm17.306-5.096h-5.166v-3.934h5.642v-1.078h-6.79v10.962h1.148V437.3h5.166v-1.064Zm2.351-1.526v4.62c0 1.792 1.036 2.996 2.828 2.996 1.134 0 1.988-.504 2.562-1.512v1.372h1.064v-7.476h-1.078v4.27c0 .672-.21 1.232-.63 1.68-.42.448-.952.672-1.596.672-1.344 0-2.072-.882-2.072-2.268v-4.354h-1.078Zm10.316-3.934h-1.106v11.41h1.106v-11.41Zm3.848 0h-1.106v11.41h1.106v-11.41Zm6.565 6.454h-4.004v1.162h4.004v-1.162Zm-308.277 24.828c0-.462-.182-.882-.532-1.232-.406-.42-1.064-.728-1.96-.924-1.386-.294-1.75-.56-1.75-1.176 0-.322.154-.588.448-.826.294-.238.658-.35 1.064-.35.77 0 1.358.42 1.75 1.26l.896-.49c-.504-1.162-1.386-1.736-2.646-1.736-.672 0-1.274.21-1.806.63-.532.42-.798.952-.798 1.596 0 .434.14.798.406 1.12.406.462.924.7 1.946.924 1.358.322 1.876.644 1.876 1.274 0 .742-.742 1.218-1.596 1.218-.882 0-1.554-.49-2.016-1.456l-.896.49c.574 1.288 1.554 1.932 2.926 1.932.77 0 1.414-.21 1.918-.63.518-.434.77-.966.77-1.624Zm4.751 2.184c.322 0 .616-.042.854-.112v-.91c-.154.042-.378.056-.672.056-.812 0-1.218-.35-1.218-1.05v-4.55h1.89v-.966h-1.89v-2.156h-1.078v2.156h-1.386v.966h1.386v4.578c0 1.33.7 1.988 2.114 1.988Zm5.416-4.368c-.784 0-1.47.182-2.072.532-.588.35-.882.882-.882 1.624v.084c0 .63.224 1.162.686 1.582.462.406 1.078.616 1.82.616 1.064 0 1.904-.476 2.52-1.442h.014v1.316h1.064v-4.83c0-.462-.07-.868-.224-1.232-.448-1.022-1.358-1.54-2.73-1.54-1.484 0-2.506.644-3.066 1.932l.896.504c.462-.98 1.176-1.47 2.142-1.47 1.274 0 1.904.602 1.904 1.82v.504h-2.072Zm2.072 1.162c0 .686-.224 1.232-.658 1.666-.434.434-.994.644-1.666.644-.938 0-1.61-.49-1.61-1.316.042-.98.994-1.274 1.848-1.26h2.086v.266Zm4.303-.63c0-.798.252-1.47.756-2.016.518-.56 1.162-.84 1.946-.84 1.232 0 2.002.7 2.338 1.638l.952-.42c-.434-1.246-1.61-2.184-3.29-2.184-1.064 0-1.974.378-2.716 1.12-.742.742-1.106 1.666-1.106 2.744 0 1.106.364 2.03 1.092 2.772.742.728 1.638 1.092 2.716 1.092 1.694 0 2.87-.938 3.332-2.226l-.952-.42c-.434 1.12-1.232 1.68-2.366 1.68-.798 0-1.442-.294-1.946-.868-.504-.574-.756-1.274-.756-2.072Zm9.193 3.78v-3.738h.042l3.724 3.738h1.526l-4.116-4.116 3.934-3.36h-1.554l-3.556 3.038v-6.972h-1.092v11.41h1.092Zm11.301 0h3.262c1.638 0 3.01-.518 4.116-1.54 1.106-1.036 1.666-2.352 1.666-3.962 0-1.554-.546-2.856-1.624-3.892-1.078-1.05-2.464-1.568-4.158-1.568h-3.262v10.962Zm1.148-9.884h2.058c1.414 0 2.534.42 3.374 1.246.854.826 1.274 1.89 1.274 3.164 0 1.288-.434 2.338-1.288 3.164-.854.826-1.96 1.232-3.346 1.232h-2.072v-8.806Zm16.766 6.482c.014-.07.014-.196.014-.364 0-1.134-.308-2.044-.924-2.758-.616-.714-1.484-1.078-2.604-1.078-1.022 0-1.89.378-2.59 1.148-.7.77-1.05 1.666-1.05 2.702 0 1.078.364 2.002 1.092 2.758.728.742 1.624 1.12 2.702 1.12 1.344 0 2.534-.7 3.164-1.932l-.812-.532c-.434.896-1.316 1.498-2.366 1.498-.728 0-1.344-.238-1.848-.728a2.696 2.696 0 0 1-.826-1.834h6.048Zm-6.034-.924c.098-.644.378-1.19.854-1.638a2.318 2.318 0 0 1 1.666-.686c1.4 0 2.268.924 2.422 2.324h-4.942Zm7.027-3.15 3.178 7.476h1.162l3.192-7.476h-1.162l-2.604 6.272-2.562-6.272h-1.204Zm15.714 4.074c.014-.07.014-.196.014-.364 0-1.134-.308-2.044-.924-2.758-.616-.714-1.484-1.078-2.604-1.078-1.022 0-1.89.378-2.59 1.148-.7.77-1.05 1.666-1.05 2.702 0 1.078.364 2.002 1.092 2.758.728.742 1.624 1.12 2.702 1.12 1.344 0 2.534-.7 3.164-1.932l-.812-.532c-.434.896-1.316 1.498-2.366 1.498-.728 0-1.344-.238-1.848-.728a2.696 2.696 0 0 1-.826-1.834h6.048Zm-6.034-.924c.098-.644.378-1.19.854-1.638a2.318 2.318 0 0 1 1.666-.686c1.4 0 2.268.924 2.422 2.324h-4.942Zm9.316-7.084h-1.106v11.41h1.106v-11.41Zm6.046 11.536c1.092 0 2.016-.378 2.758-1.12.742-.742 1.12-1.666 1.12-2.772 0-1.078-.378-1.974-1.12-2.716-.742-.742-1.652-1.12-2.73-1.12-1.106 0-2.03.378-2.772 1.12-.742.742-1.106 1.666-1.106 2.772 0 1.064.364 1.974 1.106 2.716.742.742 1.666 1.12 2.744 1.12Zm.028-.966c-.798 0-1.47-.28-1.988-.854s-.77-1.274-.77-2.072.252-1.484.77-2.044 1.162-.84 1.96-.84 1.456.294 1.974.868c.518.574.784 1.274.784 2.072s-.266 1.47-.784 2.03c-.518.56-1.162.84-1.946.84Zm13.544-2.912a4.018 4.018 0 0 0-.994-2.688c-.658-.77-1.498-1.162-2.52-1.162-1.19 0-2.156.588-2.898 1.75v-1.624h-1.078v11.158h1.092v-5.222c.7 1.106 1.666 1.652 2.884 1.652 1.022 0 1.862-.378 2.52-1.148.658-.77.994-1.666.994-2.716Zm-3.738 2.898c-.77 0-1.414-.28-1.918-.854s-.756-1.26-.756-2.058c0-.77.252-1.428.77-2.002.518-.574 1.148-.868 1.904-.868.798 0 1.428.28 1.904.854.476.56.714 1.246.714 2.058 0 .826-.238 1.512-.714 2.058-.462.546-1.106.812-1.904.812Zm12.121.854v-4.298c0-.658.182-1.204.56-1.638.378-.448.882-.672 1.512-.672 1.302 0 1.932.91 1.932 2.254v4.354h1.092v-4.62c0-1.792-1.008-2.982-2.758-2.982-1.106 0-1.988.49-2.632 1.484-.462-.994-1.26-1.498-2.394-1.498-1.064 0-1.778.476-2.408 1.442v-1.302h-1.078v7.476h1.092v-4.256c0-.644.182-1.204.56-1.666.378-.462.882-.7 1.512-.7 1.288 0 1.932.938 1.932 2.24v4.382h1.078Zm14.359-3.402c.014-.07.014-.196.014-.364 0-1.134-.308-2.044-.924-2.758-.616-.714-1.484-1.078-2.604-1.078-1.022 0-1.89.378-2.59 1.148-.7.77-1.05 1.666-1.05 2.702 0 1.078.364 2.002 1.092 2.758.728.742 1.624 1.12 2.702 1.12 1.344 0 2.534-.7 3.164-1.932l-.812-.532c-.434.896-1.316 1.498-2.366 1.498-.728 0-1.344-.238-1.848-.728a2.696 2.696 0 0 1-.826-1.834h6.048Zm-6.034-.924c.098-.644.378-1.19.854-1.638a2.318 2.318 0 0 1 1.666-.686c1.4 0 2.268.924 2.422 2.324h-4.942Zm14.692 4.326v-4.62c0-1.792-1.036-2.996-2.828-2.996-1.134 0-1.988.504-2.576 1.512v-1.372h-1.078v7.476h1.092v-4.256c0-.672.21-1.232.63-1.68.42-.462.952-.686 1.596-.686 1.344 0 2.072.882 2.072 2.268v4.354h1.092Zm5.193.056c.322 0 .616-.042.854-.112v-.91c-.154.042-.378.056-.672.056-.812 0-1.218-.35-1.218-1.05v-4.55h1.89v-.966h-1.89v-2.156h-1.078v2.156h-1.386v.966h1.386v4.578c0 1.33.7 1.988 2.114 1.988Zm14.661-3.808a4.018 4.018 0 0 0-.994-2.688c-.658-.77-1.498-1.162-2.52-1.162-1.19 0-2.156.588-2.898 1.75v-1.624h-1.078v11.158h1.092v-5.222c.7 1.106 1.666 1.652 2.884 1.652 1.022 0 1.862-.378 2.52-1.148.658-.77.994-1.666.994-2.716Zm-3.738 2.898c-.77 0-1.414-.28-1.918-.854s-.756-1.26-.756-2.058c0-.77.252-1.428.77-2.002.518-.574 1.148-.868 1.904-.868.798 0 1.428.28 1.904.854.476.56.714 1.246.714 2.058 0 .826-.238 1.512-.714 2.058-.462.546-1.106.812-1.904.812Zm5.948-6.622v7.476h1.092v-3.654c0-.77.182-1.414.56-1.96.378-.546.966-.826 1.778-.826.098 0 .238.014.42.028v-1.162c-.056-.014-.182-.014-.364-.014-.952 0-1.89.518-2.408 1.596v-1.484h-1.078Zm8.642 7.602c1.092 0 2.016-.378 2.758-1.12.742-.742 1.12-1.666 1.12-2.772 0-1.078-.378-1.974-1.12-2.716-.742-.742-1.652-1.12-2.73-1.12-1.106 0-2.03.378-2.772 1.12-.742.742-1.106 1.666-1.106 2.772 0 1.064.364 1.974 1.106 2.716.742.742 1.666 1.12 2.744 1.12Zm.028-.966c-.798 0-1.47-.28-1.988-.854s-.77-1.274-.77-2.072.252-1.484.77-2.044 1.162-.84 1.96-.84 1.456.294 1.974.868c.518.574.784 1.274.784 2.072s-.266 1.47-.784 2.03c-.518.56-1.162.84-1.946.84Zm11.92.91c0 1.834-1.106 2.716-2.674 2.716-.826 0-1.484-.252-1.918-.7-.434-.448-.644-.756-.882-1.274l-.882.518c.714 1.61 1.946 2.408 3.696 2.408 2.31 0 3.752-1.344 3.752-3.71v-7.504h-1.078v1.568c-.756-1.134-1.722-1.694-2.912-1.694-1.022 0-1.862.378-2.52 1.148-.658.77-.98 1.652-.98 2.674 0 1.05.322 1.96.966 2.702.644.742 1.484 1.106 2.534 1.106 1.246 0 2.212-.56 2.898-1.694v1.736Zm-2.674-.994c-.798 0-1.428-.266-1.904-.812-.462-.546-.7-1.218-.7-2.016 0-.826.238-1.512.7-2.058.462-.546 1.106-.826 1.904-.826.756 0 1.386.28 1.904.854s.784 1.232.784 1.988c0 .784-.252 1.456-.77 2.03-.504.56-1.148.84-1.918.84Zm6.508-6.552v7.476h1.092v-3.654c0-.77.182-1.414.56-1.96.378-.546.966-.826 1.778-.826.098 0 .238.014.42.028v-1.162c-.056-.014-.182-.014-.364-.014-.952 0-1.89.518-2.408 1.596v-1.484h-1.078Zm7.856 3.164c-.784 0-1.47.182-2.072.532-.588.35-.882.882-.882 1.624v.084c0 .63.224 1.162.686 1.582.462.406 1.078.616 1.82.616 1.064 0 1.904-.476 2.52-1.442h.014v1.316h1.064v-4.83c0-.462-.07-.868-.224-1.232-.448-1.022-1.358-1.54-2.73-1.54-1.484 0-2.506.644-3.066 1.932l.896.504c.462-.98 1.176-1.47 2.142-1.47 1.274 0 1.904.602 1.904 1.82v.504h-2.072Zm2.072 1.162c0 .686-.224 1.232-.658 1.666-.434.434-.994.644-1.666.644-.938 0-1.61-.49-1.61-1.316.042-.98.994-1.274 1.848-1.26h2.086v.266Zm9.903 3.15v-4.298c0-.658.182-1.204.56-1.638.378-.448.882-.672 1.512-.672 1.302 0 1.932.91 1.932 2.254v4.354h1.092v-4.62c0-1.792-1.008-2.982-2.758-2.982-1.106 0-1.988.49-2.632 1.484-.462-.994-1.26-1.498-2.394-1.498-1.064 0-1.778.476-2.408 1.442v-1.302h-1.078v7.476h1.092v-4.256c0-.644.182-1.204.56-1.666.378-.462.882-.7 1.512-.7 1.288 0 1.932.938 1.932 2.24v4.382h1.078Z" fill="#6C6C6C"/><path d="M607.621 95.707a31.899 31.899 0 0 1 5.251-6.853 38.809 38.809 0 0 1 7.47-5.328" stroke="#0FA76F" stroke-width="4.113" stroke-linecap="round" stroke-linejoin="round"/><path d="M598.23 96a30.793 30.793 0 0 1 2.339-8.204 37.119 37.119 0 0 1 4.983-7.541" stroke="#0FA76F" stroke-width="4.115" stroke-linecap="round" stroke-linejoin="round"/><path d="M86.72 47.987a31.914 31.914 0 0 0-5.25-6.853A38.813 38.813 0 0 0 74 35.806" stroke="#0FA76F" stroke-width="4.113" stroke-linecap="round" stroke-linejoin="round"/><path d="M96.106 48.27a30.764 30.764 0 0 0-2.339-8.204 37.076 37.076 0 0 0-4.983-7.541" stroke="#0FA76F" stroke-width="4.115" stroke-linecap="round" stroke-linejoin="round"/><defs><filter id="b" x="104.853" y="39.335" width="568.505" height="232.474" filterUnits="userSpaceOnUse" color-interpolation-filters="sRGB"><feFlood flood-opacity="0" result="BackgroundImageFix"/><feColorMatrix in="SourceAlpha" values="0 0 0 0 0 0 0 0 0 0 0 0 0 0 0 0 0 0 127 0" result="hardAlpha"/><feOffset dx="44.23" dy="38"/><feGaussianBlur stdDeviation="24.832"/><feComposite in2="hardAlpha" operator="out"/><feColorMatrix values="0 0 0 0 0 0 0 0 0 0 0 0 0 0 0 0 0 0 0.06 0"/><feBlend in2="BackgroundImageFix" result="effect1_dropShadow_384_6614"/><feBlend in="SourceGraphic" in2="effect1_dropShadow_384_6614" result="shape"/></filter><filter id="c" x="36.565" y="198.897" width="568.505" height="232.474" filterUnits="userSpaceOnUse" color-interpolation-filters="sRGB"><feFlood flood-opacity="0" result="BackgroundImageFix"/><feColorMatrix in="SourceAlpha" values="0 0 0 0 0 0 0 0 0 0 0 0 0 0 0 0 0 0 127 0" result="hardAlpha"/><feOffset dx="44.23" dy="38"/><feGaussianBlur stdDeviation="24.832"/><feComposite in2="hardAlpha" operator="out"/><feColorMatrix values="0 0 0 0 0 0 0 0 0 0 0 0 0 0 0 0 0 0 0.06 0"/><feBlend in2="BackgroundImageFix" result="effect1_dropShadow_384_6614"/><feBlend in="SourceGraphic" in2="effect1_dropShadow_384_6614" result="shape"/></filter><filter id="d" x="179.389" y="355.289" width="568.505" height="232.474" filterUnits="userSpaceOnUse" color-interpolation-filters="sRGB"><feFlood flood-opacity="0" result="BackgroundImageFix"/><feColorMatrix in="SourceAlpha" values="0 0 0 0 0 0 0 0 0 0 0 0 0 0 0 0 0 0 127 0" result="hardAlpha"/><feOffset dx="44.23" dy="38"/><feGaussianBlur stdDeviation="24.832"/><feComposite in2="hardAlpha" operator="out"/><feColorMatrix values="0 0 0 0 0 0 0 0 0 0 0 0 0 0 0 0 0 0 0.06 0"/><feBlend in2="BackgroundImageFix" result="effect1_dropShadow_384_6614"/><feBlend in="SourceGraphic" in2="effect1_dropShadow_384_6614" result="shape"/></filter><linearGradient id="a" x1="688.039" y1="432.026" x2="690.594" y2="462.619" gradientUnits="userSpaceOnUse"><stop stop-color="#1898AF"/><stop offset="1" stop-color="#63BB4C"/></linearGradient></defs></svg>