<svg width="757" height="569" fill="none" xmlns="http://www.w3.org/2000/svg"><g filter="url(#a)"><rect x="114.772" y="33" width="531.833" height="405.988" rx="16.415" fill="#F7FBF6"/><rect x="115.32" y="33.547" width="530.738" height="404.893" rx="15.867" stroke="#E6E6E6" stroke-width="1.094"/></g><g filter="url(#b)"><rect x="71" y="112.884" width="421.308" height="275.765" rx="7.66" fill="#fff"/></g><g filter="url(#c)"><rect x="507.628" y="112.884" width="178.372" height="115.996" rx="7.66" fill="#fff"/></g><g filter="url(#d)"><rect x="507.628" y="245.295" width="178.372" height="115.996" rx="7.66" fill="#fff"/></g><g filter="url(#e)"><rect x="507.628" y="377.707" width="178.372" height="115.996" rx="7.66" fill="#fff"/></g><path d="M114.772 49.415c0-9.066 7.35-16.415 16.415-16.415h499.004c9.065 0 16.414 7.35 16.414 16.415v18.603H114.772V49.415Z" fill="#003C3C"/><ellipse cx="281.107" cy="234.899" rx="40.489" ry="39.942" fill="#D3EBCE"/><path d="M295.098 231.082c2.98 1.673 2.98 5.962 0 7.634l-16.226 9.108c-2.918 1.638-6.52-.47-6.52-3.817v-18.216c0-3.346 3.602-5.455 6.52-3.817l16.226 9.108Z" fill="#fff"/><ellipse cx="596.267" cy="170.542" rx="25.169" ry="24.829" fill="#D3EBCE"/><path d="M605.791 168.634c1.49.836 1.49 2.981 0 3.817l-11.706 6.571c-1.459.819-3.26-.235-3.26-1.908v-13.143c0-1.673 1.801-2.727 3.26-1.908l11.706 6.571Z" fill="#fff"/><ellipse cx="596.267" cy="299.671" rx="25.169" ry="24.829" fill="#D3EBCE"/><path d="M605.791 297.762c1.49.837 1.49 2.981 0 3.817l-11.706 6.571c-1.459.819-3.26-.235-3.26-1.908V293.1c0-1.673 1.801-2.728 3.26-1.909l11.706 6.571Z" fill="#fff"/><ellipse cx="596.267" cy="428.799" rx="25.169" ry="24.829" fill="#D3EBCE"/><path d="M605.791 426.89c1.49.837 1.49 2.981 0 3.817l-11.706 6.571c-1.459.819-3.26-.235-3.26-1.908v-13.142c0-1.673 1.801-2.728 3.26-1.909l11.706 6.571Z" fill="#fff"/><circle cx="132.281" cy="51.603" r="5.472" fill="#ED695D"/><circle cx="148.696" cy="51.603" r="5.472" fill="#F4BE4F"/><circle cx="165.11" cy="51.603" r="5.472" fill="#62C553"/><rect x="91.792" y="325.18" width="376.441" height="44.867" rx="10.943" fill="#F0F3FB"/><rect x="138.047" y="342.921" width="293.547" height="9.677" rx="4.839" fill="#06B151"/><circle cx="115.466" cy="347.76" r="14.516" fill="#06B151"/><path d="m108.209 348.164 5.242 5.241 9.274-9.274" stroke="#fff" stroke-width="4.377" stroke-linecap="round" stroke-linejoin="round"/><defs><filter id="a" x="77.566" y=".171" width="606.246" height="480.4" filterUnits="userSpaceOnUse" color-interpolation-filters="sRGB"><feFlood flood-opacity="0" result="BackgroundImageFix"/><feColorMatrix in="SourceAlpha" values="0 0 0 0 0 0 0 0 0 0 0 0 0 0 0 0 0 0 127 0" result="hardAlpha"/><feOffset dy="4.377"/><feGaussianBlur stdDeviation="18.603"/><feComposite in2="hardAlpha" operator="out"/><feColorMatrix values="0 0 0 0 0 0 0 0 0 0 0 0 0 0 0 0 0 0 0.08 0"/><feBlend in2="BackgroundImageFix" result="effect1_dropShadow_384_6824"/><feBlend in="SourceGraphic" in2="effect1_dropShadow_384_6824" result="shape"/></filter><filter id="b" x=".964" y="47.226" width="561.379" height="415.836" filterUnits="userSpaceOnUse" color-interpolation-filters="sRGB"><feFlood flood-opacity="0" result="BackgroundImageFix"/><feColorMatrix in="SourceAlpha" values="0 0 0 0 0 0 0 0 0 0 0 0 0 0 0 0 0 0 127 0" result="hardAlpha"/><feOffset dy="4.377"/><feGaussianBlur stdDeviation="35.018"/><feComposite in2="hardAlpha" operator="out"/><feColorMatrix values="0 0 0 0 0 0 0 0 0 0 0 0 0 0 0 0 0 0 0.05 0"/><feBlend in2="BackgroundImageFix" result="effect1_dropShadow_384_6824"/><feBlend in="SourceGraphic" in2="effect1_dropShadow_384_6824" result="shape"/></filter><filter id="c" x="437.592" y="47.226" width="318.443" height="256.068" filterUnits="userSpaceOnUse" color-interpolation-filters="sRGB"><feFlood flood-opacity="0" result="BackgroundImageFix"/><feColorMatrix in="SourceAlpha" values="0 0 0 0 0 0 0 0 0 0 0 0 0 0 0 0 0 0 127 0" result="hardAlpha"/><feOffset dy="4.377"/><feGaussianBlur stdDeviation="35.018"/><feComposite in2="hardAlpha" operator="out"/><feColorMatrix values="0 0 0 0 0 0 0 0 0 0 0 0 0 0 0 0 0 0 0.05 0"/><feBlend in2="BackgroundImageFix" result="effect1_dropShadow_384_6824"/><feBlend in="SourceGraphic" in2="effect1_dropShadow_384_6824" result="shape"/></filter><filter id="d" x="437.592" y="179.637" width="318.443" height="256.068" filterUnits="userSpaceOnUse" color-interpolation-filters="sRGB"><feFlood flood-opacity="0" result="BackgroundImageFix"/><feColorMatrix in="SourceAlpha" values="0 0 0 0 0 0 0 0 0 0 0 0 0 0 0 0 0 0 127 0" result="hardAlpha"/><feOffset dy="4.377"/><feGaussianBlur stdDeviation="35.018"/><feComposite in2="hardAlpha" operator="out"/><feColorMatrix values="0 0 0 0 0 0 0 0 0 0 0 0 0 0 0 0 0 0 0.05 0"/><feBlend in2="BackgroundImageFix" result="effect1_dropShadow_384_6824"/><feBlend in="SourceGraphic" in2="effect1_dropShadow_384_6824" result="shape"/></filter><filter id="e" x="437.592" y="312.048" width="318.443" height="256.068" filterUnits="userSpaceOnUse" color-interpolation-filters="sRGB"><feFlood flood-opacity="0" result="BackgroundImageFix"/><feColorMatrix in="SourceAlpha" values="0 0 0 0 0 0 0 0 0 0 0 0 0 0 0 0 0 0 127 0" result="hardAlpha"/><feOffset dy="4.377"/><feGaussianBlur stdDeviation="35.018"/><feComposite in2="hardAlpha" operator="out"/><feColorMatrix values="0 0 0 0 0 0 0 0 0 0 0 0 0 0 0 0 0 0 0.05 0"/><feBlend in2="BackgroundImageFix" result="effect1_dropShadow_384_6824"/><feBlend in="SourceGraphic" in2="effect1_dropShadow_384_6824" result="shape"/></filter></defs></svg>