<svg xmlns="http://www.w3.org/2000/svg" xmlns:xlink="http://www.w3.org/1999/xlink" width="241.02" height="110.019" viewBox="0 0 241.02 110.019">
  <defs>
    <filter id="Path_81015" x="0" y="0" width="241.02" height="110.019" filterUnits="userSpaceOnUse">
      <feOffset dy="5" input="SourceAlpha"/>
      <feGaussianBlur stdDeviation="13.5" result="blur"/>
      <feFlood flood-opacity="0.122"/>
      <feComposite operator="in" in2="blur"/>
      <feComposite in="SourceGraphic"/>
    </filter>
  </defs>
  <g id="Group_44639" data-name="Group 44639" transform="translate(40.5 18.5)">
    <g transform="matrix(1, 0, 0, 1, -40.5, -18.5)" filter="url(#Path_81015)">
      <path id="Path_81015-2" data-name="Path 81015" d="M0,0H160.02L145.67,14.285l14.35,14.733H0Z" transform="translate(40.5 35.5)" fill="#fff"/>
    </g>
    <path id="Path_105411" data-name="Path 105411" d="M3.345-1.71V-11.745H1.5V0H8.64V-1.71Zm6.8-8.07a1.15,1.15,0,0,0,1.65,0,1.15,1.15,0,0,0,0-1.65,1.125,1.125,0,0,0-1.65,0A1.15,1.15,0,0,0,10.14-9.78Zm1.725,1.77H10.08V0h1.785ZM18.9-12.135a3.227,3.227,0,0,0-.825-.12,2.872,2.872,0,0,0-3.15,3.12V-8.01h-1.47v1.575h1.47V0h1.8V-6.435h2.13V-8.01h-2.13V-9.075c0-1.065.51-1.59,1.53-1.59a2.7,2.7,0,0,1,.645.06ZM27.525-3.48a4.893,4.893,0,0,0,.03-.555,4.291,4.291,0,0,0-1.035-3,3.664,3.664,0,0,0-2.865-1.14,3.8,3.8,0,0,0-2.88,1.215A4.125,4.125,0,0,0,19.62-4.02a4.072,4.072,0,0,0,1.2,2.985,4.118,4.118,0,0,0,3,1.185,3.8,3.8,0,0,0,3.42-1.935L25.95-2.64a2.259,2.259,0,0,1-2.16,1.245,2.445,2.445,0,0,1-1.62-.585,1.975,1.975,0,0,1-.72-1.5Zm-3.87-3.165A1.927,1.927,0,0,1,25.74-4.83h-4.2A2.072,2.072,0,0,1,23.655-6.645Zm9.93.24v-1.6H31.62v-2.475H29.835V-8.01h-1.47v1.6h1.47V-2.58A2.464,2.464,0,0,0,32.61.09a2.8,2.8,0,0,0,.96-.165V-1.59a2.542,2.542,0,0,1-.57.06c-.915,0-1.38-.375-1.38-1.335V-6.4ZM35.52-9.78a1.15,1.15,0,0,0,1.65,0,1.15,1.15,0,0,0,0-1.65,1.125,1.125,0,0,0-1.65,0A1.15,1.15,0,0,0,35.52-9.78Zm1.725,1.77H35.46V0h1.785ZM46.665,0V-4.47a1.786,1.786,0,0,1,1.77-2.025c1.185,0,1.71.765,1.71,1.98V0H51.93V-4.95c0-1.92-.975-3.24-2.91-3.24a3.463,3.463,0,0,0-2.79,1.32,2.6,2.6,0,0,0-2.475-1.32A2.87,2.87,0,0,0,41.37-6.93V-8.01H39.63V0h1.785V-4.455a1.8,1.8,0,0,1,1.755-2.04c1.185,0,1.725.8,1.725,1.995V0ZM61.6-3.48a4.893,4.893,0,0,0,.03-.555,4.291,4.291,0,0,0-1.035-3,3.664,3.664,0,0,0-2.865-1.14,3.8,3.8,0,0,0-2.88,1.215A4.125,4.125,0,0,0,53.7-4.02a4.072,4.072,0,0,0,1.2,2.985A4.118,4.118,0,0,0,57.9.15a3.8,3.8,0,0,0,3.42-1.935L60.03-2.64a2.259,2.259,0,0,1-2.16,1.245,2.445,2.445,0,0,1-1.62-.585,1.975,1.975,0,0,1-.72-1.5Zm-3.87-3.165A1.927,1.927,0,0,1,59.82-4.83h-4.2A2.072,2.072,0,0,1,57.735-6.645ZM65.82,0h1.89l1.08-2.76h5.76L75.615,0h1.92L72.78-11.745H70.6Zm5.85-9.975L73.9-4.395H69.45ZM82.32.135a3.763,3.763,0,0,0,2.385-.72A3.722,3.722,0,0,0,85.98-2.28l-1.56-.69a2.066,2.066,0,0,1-2.07,1.485,2.233,2.233,0,0,1-1.695-.72A2.59,2.59,0,0,1,79.98-4.05a2.48,2.48,0,0,1,.675-1.8,2.289,2.289,0,0,1,1.68-.705,2.017,2.017,0,0,1,2.055,1.47l1.53-.69a3.606,3.606,0,0,0-3.6-2.4,3.95,3.95,0,0,0-2.97,1.23,4.082,4.082,0,0,0-1.2,2.925,4.037,4.037,0,0,0,1.2,2.97A4.025,4.025,0,0,0,82.32.135Zm9.015,0a3.763,3.763,0,0,0,2.385-.72A3.722,3.722,0,0,0,94.995-2.28l-1.56-.69a2.066,2.066,0,0,1-2.07,1.485A2.233,2.233,0,0,1,89.67-2.2a2.59,2.59,0,0,1-.675-1.845,2.48,2.48,0,0,1,.675-1.8,2.289,2.289,0,0,1,1.68-.705A2.017,2.017,0,0,1,93.4-5.085l1.53-.69a3.606,3.606,0,0,0-3.6-2.4,3.95,3.95,0,0,0-2.97,1.23,4.082,4.082,0,0,0-1.2,2.925,4.037,4.037,0,0,0,1.2,2.97A4.025,4.025,0,0,0,91.335.135Zm12.75-3.615a4.894,4.894,0,0,0,.03-.555,4.291,4.291,0,0,0-1.035-3,3.664,3.664,0,0,0-2.865-1.14,3.8,3.8,0,0,0-2.88,1.215A4.125,4.125,0,0,0,96.18-4.02a4.072,4.072,0,0,0,1.2,2.985,4.118,4.118,0,0,0,3,1.185,3.8,3.8,0,0,0,3.42-1.935l-1.29-.855a2.259,2.259,0,0,1-2.16,1.245,2.445,2.445,0,0,1-1.62-.585,1.975,1.975,0,0,1-.72-1.5Zm-3.87-3.165A1.927,1.927,0,0,1,102.3-4.83H98.1A2.072,2.072,0,0,1,100.215-6.645ZM108.54.135a3.3,3.3,0,0,0,2.19-.69,2.247,2.247,0,0,0,.84-1.8c0-1.245-.96-2.115-2.775-2.52-1.035-.225-1.485-.5-1.485-1.02,0-.435.57-.78,1.125-.78a1.766,1.766,0,0,1,1.68,1.08l1.38-.78a3.025,3.025,0,0,0-3-1.8,3.167,3.167,0,0,0-2.04.69,2.153,2.153,0,0,0-.87,1.77,2.065,2.065,0,0,0,.57,1.455,3.669,3.669,0,0,0,1.995.96c1.1.225,1.65.585,1.65,1.05,0,.54-.585.885-1.26.885a2.064,2.064,0,0,1-1.92-1.29l-1.395.78A3.349,3.349,0,0,0,108.54.135Zm7.53,0a3.3,3.3,0,0,0,2.19-.69,2.247,2.247,0,0,0,.84-1.8c0-1.245-.96-2.115-2.775-2.52-1.035-.225-1.485-.5-1.485-1.02,0-.435.57-.78,1.125-.78a1.766,1.766,0,0,1,1.68,1.08l1.38-.78a3.025,3.025,0,0,0-3-1.8,3.167,3.167,0,0,0-2.04.69,2.153,2.153,0,0,0-.87,1.77,2.065,2.065,0,0,0,.57,1.455,3.669,3.669,0,0,0,1.995.96c1.1.225,1.65.585,1.65,1.05,0,.54-.585.885-1.26.885a2.064,2.064,0,0,1-1.92-1.29l-1.395.78A3.349,3.349,0,0,0,116.07.135Z" transform="translate(12 35.999)" fill="#0fa76f"/>
  </g>
</svg>
