<svg width="710" height="711" fill="none" xmlns="http://www.w3.org/2000/svg"><rect x="168" y="50" width="542" height="461" rx="20" fill="#013C3C"/><g filter="url(#a)"><path d="M206 297.478c0-14.359 11.641-26 26-26h323c14.359 0 26 11.641 26 26v240.169c0 14.359-11.641 26-26 26H232c-14.359 0-26-11.641-26-26V297.478Z" fill="#fff"/><path d="M206.5 297.478c0-14.083 11.417-25.5 25.5-25.5h323c14.083 0 25.5 11.417 25.5 25.5v240.169c0 14.083-11.417 25.5-25.5 25.5H232c-14.083 0-25.5-11.417-25.5-25.5V297.478Z" stroke="#EEF1FB"/></g><rect x="228.591" y="482.321" width="329.819" height="42.169" rx="10" fill="#F0F3FB"/><rect x="270.76" y="498.888" width="274.096" height="9.036" rx="4.518" fill="#304FFD"/><circle cx="249.675" cy="503.406" r="13.554" fill="#304FFD"/><path d="m242.898 503.782 4.895 4.895 8.66-8.66" stroke="#fff" stroke-width="4" stroke-linecap="round" stroke-linejoin="round"/><rect x="228.591" y="425.093" width="329.819" height="42.169" rx="10" fill="#F0F3FB"/><rect x="242.146" y="441.659" width="301.958" height="9.036" rx="4.518" fill="#DDE4F1"/><rect x="228.591" y="367.864" width="329.819" height="42.169" rx="10" fill="#F0F3FB"/><rect x="242.146" y="384.43" width="301.958" height="9.036" rx="4.518" fill="#DDE4F1"/><rect x="228.591" y="310.635" width="329.819" height="42.169" rx="10" fill="#F0F3FB"/><rect x="242.146" y="327.201" width="301.958" height="9.036" rx="4.518" fill="#DDE4F1"/><g filter="url(#b)"><rect x="114" y="91" width="367" height="285.936" rx="26" fill="#fff"/><rect x="114.5" y="91.5" width="366" height="284.936" rx="25.5" stroke="#EEF1FB"/></g><path d="M136 133c0-11.046 8.954-20 20-20h113c11.046 0 20 8.954 20 20v92c0 5.523-4.477 10-10 10H146c-5.523 0-10-4.477-10-10v-92ZM305 133c0-11.046 8.954-20 20-20h113c11.046 0 20 8.954 20 20v92c0 5.523-4.477 10-10 10H315c-5.523 0-10-4.477-10-10v-92Z" fill="#F0F3FB"/><rect x="136.108" y="251.655" width="322.783" height="41.269" rx="10" fill="#F0F3FB"/><rect x="177.377" y="267.868" width="268.249" height="8.843" rx="4.422" fill="#06B151"/><circle cx="156.743" cy="272.289" r="13.265" fill="#06B151"/><path d="m150.11 272.658 4.791 4.79 8.474-8.475" stroke="#fff" stroke-width="4" stroke-linecap="round" stroke-linejoin="round"/><rect x="136.108" y="309.874" width="322.783" height="41.269" rx="10" fill="#F0F3FB"/><rect x="149.373" y="326.086" width="295.516" height="8.843" rx="4.422" fill="#DDE4F1"/><ellipse cx="211" cy="173.5" rx="26" ry="25.5" fill="#DDE4F1"/><path d="M218 170.036c2.667 1.54 2.667 5.389 0 6.928l-6.75 3.897c-2.667 1.54-6-.385-6-3.464v-7.794c0-3.079 3.333-5.004 6-3.464l6.75 3.897Z" fill="#fff"/><path d="m631.359 271.34-2.353.845 1.69 4.706 2.353-.845-1.69-4.706Zm17.943-2.746.507 2.448-.507-2.448Zm17.857.395a2.5 2.5 0 1 0-.317-4.99l.317 4.99Zm-34.955 4.704.845 2.353h.001l.005-.002.02-.007.084-.03.33-.117a226.775 226.775 0 0 1 5.47-1.837c3.406-1.093 7.575-2.334 10.85-3.011l-1.013-4.896c-3.549.734-7.929 2.043-11.366 3.146a229.047 229.047 0 0 0-5.601 1.882l-.346.122-.091.033a.276.276 0 0 0-.023.008l-.007.002-.002.001.844 2.353Zm17.605-2.651c3.271-.676 7.585-1.191 11.141-1.538a210.588 210.588 0 0 1 6.181-.513l.022-.001.005-.001h.001l-.158-2.495-.159-2.495h-.003l-.006.001-.026.001-.096.007-.365.025a230.175 230.175 0 0 0-5.882.494c-3.588.351-8.123.886-11.668 1.619l1.013 4.896Z" fill="#0FA76F"/><path d="M611.206 210.4s-4.256 5.633-5.1 9.899c-.59 2.988 0 7.799 0 7.799m19.198 30.897s2.302-4.551 4.5-6.899c2.113-2.259 6.299-4.8 6.299-4.8" stroke="#0FA76F" stroke-width="5"/><path d="M524.215 235.297s5.699-5.399 11.699-5.399c5.999 0 12.521 2.103 15.898 6.653 2.226 3 3.9 8.345 0 8.645-2.749.212-1.8-3.599-1.2-5.699 1.859-6.507 9.831-14.922 21.898-16.199 31.197-3.299 38.096 48.895 38.096 48.895s1.088-21.286 4.2-34.496C617.617 225.761 625.005 208 625.005 208" stroke="#0FA76F" stroke-width="5" stroke-linecap="round"/><defs><filter id="a" x="92" y="190.478" width="603" height="520.168" filterUnits="userSpaceOnUse" color-interpolation-filters="sRGB"><feFlood flood-opacity="0" result="BackgroundImageFix"/><feColorMatrix in="SourceAlpha" values="0 0 0 0 0 0 0 0 0 0 0 0 0 0 0 0 0 0 127 0" result="hardAlpha"/><feOffset dy="33"/><feGaussianBlur stdDeviation="57"/><feComposite in2="hardAlpha" operator="out"/><feColorMatrix values="0 0 0 0 0 0 0 0 0 0 0 0 0 0 0 0 0 0 0.08 0"/><feBlend in2="BackgroundImageFix" result="effect1_dropShadow_384_6754"/><feBlend in="SourceGraphic" in2="effect1_dropShadow_384_6754" result="shape"/></filter><filter id="b" x="0" y="0" width="595" height="513.936" filterUnits="userSpaceOnUse" color-interpolation-filters="sRGB"><feFlood flood-opacity="0" result="BackgroundImageFix"/><feColorMatrix in="SourceAlpha" values="0 0 0 0 0 0 0 0 0 0 0 0 0 0 0 0 0 0 127 0" result="hardAlpha"/><feOffset dy="23"/><feGaussianBlur stdDeviation="57"/><feComposite in2="hardAlpha" operator="out"/><feColorMatrix values="0 0 0 0 0 0 0 0 0 0 0 0 0 0 0 0 0 0 0.18 0"/><feBlend in2="BackgroundImageFix" result="effect1_dropShadow_384_6754"/><feBlend in="SourceGraphic" in2="effect1_dropShadow_384_6754" result="shape"/></filter></defs></svg>