<svg width="619" height="531" fill="none" xmlns="http://www.w3.org/2000/svg"><rect x="131" width="351" height="415" rx="20" fill="#FEEFD9"/><g filter="url(#a)"><rect x="187" y="58" width="348" height="373" rx="10.567" fill="#F7FBF6"/></g><path opacity=".8" d="M299.155 320.378h-17.952v3.876h5.134c2.754 0 4.42.952 4.964 2.822h-10.098v3.196h10.064c-.646 1.904-2.278 2.856-4.93 2.856h-5.134v3.74l5.236.034L291.573 347h4.624l-5.746-10.948c2.89-1.054 4.59-2.958 5.134-5.78h3.57v-3.196h-3.638c-.374-1.394-1.19-2.482-2.38-3.264h6.018v-3.434Zm12.086 4.896 1.938 3.196 5.984-3.604V347h4.182v-26.622h-3.978l-8.126 4.896Zm17.95 8.398c0 3.91 1.02 7.14 3.094 9.758 2.074 2.584 4.76 3.876 8.058 3.876s6.018-1.292 8.092-3.91c2.074-2.618 3.128-5.882 3.128-9.792 0-3.876-1.02-7.106-3.094-9.69-2.074-2.618-4.76-3.91-8.058-3.91s-5.984 1.326-8.092 3.944c-2.074 2.618-3.128 5.848-3.128 9.724Zm18.054 0c0 2.754-.612 5.1-1.87 6.97s-2.89 2.822-4.964 2.822c-2.074 0-3.74-.952-4.998-2.856s-1.87-4.25-1.87-7.004c0-2.754.612-5.066 1.836-6.936 1.258-1.87 2.89-2.822 4.964-2.822 2.074 0 3.74.952 4.998 2.856s1.904 4.216 1.904 6.97Zm11.922 13.498 12.172-27.88h-4.046l-12.172 27.88h4.046Zm39.952-13.464c0-3.366-1.462-7.412-4.76-10.234-2.142-1.87-5.508-3.094-9.452-3.094h-8.432V347h8.5c4.726 0 8.602-1.768 10.778-4.352 2.21-2.618 3.366-5.78 3.366-8.942Zm-4.386 0c0 2.312-.782 4.522-2.312 6.392-1.53 1.802-4.25 3.026-7.616 3.026h-4.148v-18.87h4.182c3.366 0 6.086 1.292 7.582 3.196 1.53 1.87 2.312 4.08 2.312 6.256Zm19.77.986c0 1.02-.578 1.53-1.7 1.53h-2.244c-3.196 0-7.548 1.326-7.548 5.542v.204c0 1.564.578 2.856 1.734 3.842 1.156.986 2.618 1.496 4.386 1.496 2.448 0 4.216-.918 5.338-2.788V347h3.978v-11.56c0-1.258-.204-2.346-.612-3.264-1.122-2.482-3.4-3.706-6.8-3.706-3.706 0-6.29 1.53-7.718 4.624l3.094 1.768c.918-1.938 2.448-2.89 4.522-2.89 2.278 0 3.57 1.224 3.57 2.72Zm-.034 4.964c0 2.72-1.768 4.42-4.522 4.42-1.734 0-2.89-.986-2.89-2.482 0-.782.374-1.394 1.088-1.836a4.712 4.712 0 0 1 2.414-.68h3.91v.578Zm11.718-10.812h-4.624l8.092 16.116-4.998 10.982h4.318l12.478-27.098h-4.386l-5.236 11.9-5.644-11.9Z" fill="#212121"/><circle cx="360" cy="193" r="71" fill="#fff"/><path opacity=".8" d="M384.8 197.7H332v11.4h15.1c8.1 0 13 2.8 14.6 8.3H332v9.4h29.6c-1.9 5.6-6.7 8.4-14.5 8.4H332v11l15.4.1 15.1 29.7h13.6l-16.9-32.2c8.5-3.1 13.5-8.7 15.1-17h10.5v-9.4h-10.7c-1.1-4.1-3.5-7.3-7-9.6h17.7v-10.1Z" fill="#FE8401"/><g filter="url(#b)"><path d="M75 383.382A8.382 8.382 0 0 1 83.382 375h222.236a8.382 8.382 0 0 1 8.382 8.382v71.236a8.382 8.382 0 0 1-8.382 8.382H83.382A8.382 8.382 0 0 1 75 454.618v-71.236Z" fill="#fff"/></g><rect opacity=".5" x="90.086" y="393" width="51.97" height="51.97" rx="7.544" fill="#E9F5E7"/><rect x="96" y="399" width="40.196" height="41" rx="9.51" fill="#3BB787"/><path opacity=".8" d="M172.46 427h2.44v-15.66h-3.22l-5.22 11.98h-.02l-5.3-11.98H158V427h2.42v-11.36h.04l5.06 11.36h1.82l5.08-11.42h.04V427Zm6.118-13.04c.62.62 1.58.62 2.2 0 .62-.62.62-1.58 0-2.2a1.5 1.5 0 0 0-2.2 0c-.62.62-.62 1.58 0 2.2Zm2.3 2.36h-2.38V427h2.38v-10.68ZM193.645 427v-6.58c0-2.56-1.38-4.32-4-4.32-1.36 0-2.44.56-3.26 1.66v-1.44h-2.32V427h2.38v-5.94c0-1.62.96-2.7 2.46-2.7 1.58 0 2.36 1.06 2.36 2.66V427h2.38Zm3.156-13.04c.62.62 1.58.62 2.2 0 .62-.62.62-1.58 0-2.2a1.5 1.5 0 0 0-2.2 0c-.62.62-.62 1.58 0 2.2Zm2.3 2.36h-2.38V427h2.38v-10.68ZM211.668 427v-5.96c0-1.62.9-2.7 2.36-2.7 1.58 0 2.28 1.02 2.28 2.64V427h2.38v-6.6c0-2.56-1.3-4.32-3.88-4.32-1.58 0-2.62.56-3.72 1.76-.66-1.18-1.76-1.76-3.3-1.76-1.28 0-2.34.56-3.18 1.68v-1.44h-2.32V427h2.38v-5.94c0-1.62.9-2.72 2.34-2.72 1.58 0 2.3 1.06 2.3 2.66v6h2.36Zm16.192-7.24c0 .6-.34.9-1 .9h-1.32c-1.88 0-4.44.78-4.44 3.26v.12c0 .92.34 1.68 1.02 2.26.68.58 1.54.88 2.58.88 1.44 0 2.48-.54 3.14-1.64V427h2.34v-6.8c0-.74-.12-1.38-.36-1.92-.66-1.46-2-2.18-4-2.18-2.18 0-3.7.9-4.54 2.72l1.82 1.04c.54-1.14 1.44-1.7 2.66-1.7 1.34 0 2.1.72 2.1 1.6Zm-.02 2.92c0 1.6-1.04 2.6-2.66 2.6-1.02 0-1.7-.58-1.7-1.46 0-.46.22-.82.64-1.08.44-.26.92-.4 1.42-.4h2.3v.34Zm5.424 4.32h2.38v-16.28h-2.38V427Zm15.68.18c1.3 0 2.36-.32 3.18-.96.82-.64 1.4-1.4 1.7-2.26l-2.08-.92c-.5 1.32-1.42 1.98-2.76 1.98-.9 0-1.66-.32-2.26-.96-.6-.64-.9-1.46-.9-2.46 0-.98.3-1.78.9-2.4.62-.62 1.36-.94 2.24-.94 1.36 0 2.28.66 2.74 1.96l2.04-.92c-.64-1.9-2.4-3.2-4.8-3.2-1.58 0-2.9.54-3.96 1.64-1.06 1.1-1.6 2.4-1.6 3.9 0 1.58.54 2.9 1.6 3.96s2.38 1.58 3.96 1.58Zm12.092-11.08c-1.56 0-2.9.54-4 1.6s-1.66 2.38-1.66 3.94.54 2.88 1.64 3.94c1.1 1.06 2.44 1.6 4 1.6 1.58 0 2.9-.54 3.98-1.6 1.1-1.08 1.64-2.4 1.64-3.98 0-1.56-.54-2.86-1.64-3.92-1.1-1.06-2.42-1.58-3.96-1.58Zm-2.34 3.14c.6-.66 1.38-.98 2.32-.98s1.72.32 2.3.98c.6.66.9 1.46.9 2.4s-.3 1.74-.88 2.4c-.58.66-1.36.98-2.3.98-.94 0-1.72-.34-2.32-1-.6-.68-.9-1.48-.9-2.42s.3-1.72.88-2.36Zm13.887 7.94c1.2 0 2.18-.3 2.92-.92.74-.62 1.12-1.42 1.12-2.4 0-1.66-1.28-2.82-3.7-3.36-1.38-.3-1.98-.66-1.98-1.36 0-.58.76-1.04 1.5-1.04 1.02 0 1.76.48 2.24 1.44l1.84-1.04c-.74-1.6-2.08-2.4-4-2.4-1.04 0-1.94.3-2.72.92-.78.62-1.16 1.4-1.16 2.36 0 .76.26 1.4.76 1.94.58.62 1.48 1.04 2.66 1.28 1.46.3 2.2.78 2.2 1.4 0 .72-.78 1.18-1.68 1.18-1.14 0-1.98-.58-2.56-1.72l-1.86 1.04c.82 1.78 2.3 2.68 4.42 2.68Zm12.243-8.72v-2.14h-2.62v-3.3h-2.38v3.3h-1.96v2.14h1.96v5.1c0 2.32 1.36 3.56 3.7 3.56.46 0 .9-.08 1.28-.22v-2.02c-.26.06-.52.08-.76.08-1.22 0-1.84-.5-1.84-1.78v-4.72h2.62Z" fill="#595959"/><defs><filter id="a" x="151.57" y="26.34" width="467.32" height="492.32" filterUnits="userSpaceOnUse" color-interpolation-filters="sRGB"><feFlood flood-opacity="0" result="BackgroundImageFix"/><feColorMatrix in="SourceAlpha" values="0 0 0 0 0 0 0 0 0 0 0 0 0 0 0 0 0 0 127 0" result="hardAlpha"/><feOffset dx="24.23" dy="28"/><feGaussianBlur stdDeviation="29.83"/><feComposite in2="hardAlpha" operator="out"/><feColorMatrix values="0 0 0 0 0 0 0 0 0 0 0 0 0 0 0 0 0 0 0.07 0"/><feBlend in2="BackgroundImageFix" result="effect1_dropShadow_907_11664"/><feBlend in="SourceGraphic" in2="effect1_dropShadow_907_11664" result="shape"/></filter><filter id="b" x=".69" y="323.74" width="357.8" height="206.8" filterUnits="userSpaceOnUse" color-interpolation-filters="sRGB"><feFlood flood-opacity="0" result="BackgroundImageFix"/><feColorMatrix in="SourceAlpha" values="0 0 0 0 0 0 0 0 0 0 0 0 0 0 0 0 0 0 127 0" result="hardAlpha"/><feOffset dx="-14.91" dy="8.14"/><feGaussianBlur stdDeviation="29.7"/><feComposite in2="hardAlpha" operator="out"/><feColorMatrix values="0 0 0 0 0 0 0 0 0 0 0 0 0 0 0 0 0 0 0.06 0"/><feBlend in2="BackgroundImageFix" result="effect1_dropShadow_907_11664"/><feBlend in="SourceGraphic" in2="effect1_dropShadow_907_11664" result="shape"/></filter></defs></svg>