<svg width="822" height="709" fill="none" xmlns="http://www.w3.org/2000/svg"><g opacity=".7"><g filter="url(#a)"><circle cx="101" cy="537" r="51" fill="#FFF8E2"/></g><path d="M102.27 515.447c-11.9 0-11.157 4.955-11.157 4.955l.013 5.133h11.356v1.541H86.615S79 526.246 79 537.773c0 11.526 6.647 11.118 6.647 11.118h3.967v-5.349s-.214-6.381 6.541-6.381h11.262s6.328.096 6.328-5.871v-9.87s.961-5.973-11.475-5.973Zm-6.262 3.456c.472 0 .93.157 1.295.444.365.288.615.688.707 1.132.092.445.021.906-.2 1.306-.223.4-.583.713-1.019.887a2.12 2.12 0 0 1-1.373.066 2.034 2.034 0 0 1-1.105-.785 1.899 1.899 0 0 1 .25-2.474c.19-.183.414-.329.662-.428.248-.1.514-.151.783-.152v.004Z" fill="url(#b)"/><path d="M102.607 560.215c11.9 0 11.157-4.955 11.157-4.955l-.013-5.132h-11.356v-1.541h15.867s7.615.83 7.615-10.698c0-11.527-6.647-11.118-6.647-11.118h-3.966v5.349s.214 6.381-6.541 6.381H97.46s-6.328-.096-6.328 5.871v9.87s-.961 5.973 11.476 5.973h-.001Zm6.262-3.456c-.472 0-.93-.157-1.295-.444a1.949 1.949 0 0 1-.707-1.132 1.894 1.894 0 0 1 .201-1.306c.222-.4.582-.713 1.018-.887a2.12 2.12 0 0 1 1.373-.066c.452.131.842.409 1.105.785a1.897 1.897 0 0 1-.25 2.474c-.19.182-.415.327-.663.426-.248.099-.514.15-.782.15Z" fill="url(#c)"/></g><g opacity=".6"><g filter="url(#d)"><path d="M197.156 20.49a13 13 0 0 1 12.461 3.706l27.672 29.219a13 13 0 0 1 3.023 12.644l-11.469 38.575a13 13 0 0 1-9.438 8.939l-39.141 9.355a12.998 12.998 0 0 1-12.461-3.704l-27.673-29.22a12.998 12.998 0 0 1-3.022-12.643l11.468-38.575a12.998 12.998 0 0 1 9.439-8.94l39.141-9.355Z" fill="#FBE4DE"/></g><path d="M172.814 87.614 169 48.488h41.906l-3.813 39.117-17.161 4.352-17.118-4.343Z" fill="#E44D26"/><path d="m189.953 88.63 13.867-3.516 3.263-33.43h-17.13V88.63Z" fill="#F16529"/><path d="M189.953 66.195h-6.938l-.48-4.914h7.422v-4.798h-13.159l.126 1.288 1.289 13.223h11.74v-4.799Zm0 12.463-.023.005-5.843-1.444-.374-3.827h-5.266l.735 7.534 10.746 2.728.024-.006.001-4.99Z" fill="#EBEBEB"/><path d="M189.935 66.196v4.798h6.46l-.609 6.22-5.851 1.444v4.993l10.755-2.726.079-.811 1.233-12.633.128-1.289h-12.195v.004Zm0-9.712v4.798h12.672l.105-1.078.239-2.433.126-1.287h-13.142Z" fill="#fff"/></g><g filter="url(#e)"><rect x="114" y="174" width="498" height="388" rx="26" fill="#fff"/><rect x="114.5" y="174.5" width="497" height="387" rx="25.5" stroke="#EEF1FB"/></g><rect x="144" y="454" width="438" height="56" rx="10" fill="#F0F3FB"/><rect x="200" y="476" width="364" height="12" rx="6" fill="#304FFD"/><circle cx="172" cy="482" r="18" fill="#304FFD"/><path d="m163 482.5 6.5 6.5 11.5-11.5" stroke="#fff" stroke-width="4" stroke-linecap="round" stroke-linejoin="round"/><rect x="144" y="378" width="438" height="56" rx="10" fill="#F0F3FB"/><rect x="162" y="400" width="401" height="12" rx="6" fill="#DDE4F1"/><rect x="144" y="302" width="438" height="56" rx="10" fill="#F0F3FB"/><rect x="162" y="324" width="401" height="12" rx="6" fill="#DDE4F1"/><rect x="144" y="226" width="438" height="56" rx="10" fill="#F0F3FB"/><rect x="162" y="248" width="401" height="12" rx="6" fill="#DDE4F1"/><g filter="url(#f)"><rect x="210" y="81" width="498" height="388" rx="26" fill="#fff"/><rect x="210.5" y="81.5" width="497" height="387" rx="25.5" stroke="#EEF1FB"/></g><path d="M240 131c0-11.046 8.954-20 20-20h398c11.046 0 20 8.954 20 20v135c0 5.523-4.477 10-10 10H250c-5.523 0-10-4.477-10-10V131Z" fill="#F0F3FB"/><rect x="240" y="299" width="438" height="56" rx="10" fill="#F0F3FB"/><rect x="296" y="321" width="364" height="12" rx="6" fill="#06B151"/><circle cx="268" cy="327" r="18" fill="#06B151"/><path d="m259 327.5 6.5 6.5 11.5-11.5" stroke="#fff" stroke-width="4" stroke-linecap="round" stroke-linejoin="round"/><rect x="240" y="378" width="438" height="56" rx="10" fill="#F0F3FB"/><rect x="258" y="400" width="401" height="12" rx="6" fill="#DDE4F1"/><circle cx="464" cy="193" r="45" fill="#DDE4F1"/><path d="M479 189.536c2.667 1.539 2.667 5.389 0 6.928l-19.5 11.258c-2.667 1.54-6-.384-6-3.464v-22.516c0-3.08 3.333-5.004 6-3.464l19.5 11.258Z" fill="#fff"/><defs><filter id="a" x="41" y="477" width="120" height="120" filterUnits="userSpaceOnUse" color-interpolation-filters="sRGB"><feFlood flood-opacity="0" result="BackgroundImageFix"/><feBlend in="SourceGraphic" in2="BackgroundImageFix" result="shape"/><feGaussianBlur stdDeviation="4.5" result="effect1_foregroundBlur_211_5839"/></filter><filter id="d" x="117.568" y="1.134" width="142.283" height="141.151" filterUnits="userSpaceOnUse" color-interpolation-filters="sRGB"><feFlood flood-opacity="0" result="BackgroundImageFix"/><feBlend in="SourceGraphic" in2="BackgroundImageFix" result="shape"/><feGaussianBlur stdDeviation="9.5" result="effect1_foregroundBlur_211_5839"/></filter><filter id="e" x="0" y="93" width="726" height="616" filterUnits="userSpaceOnUse" color-interpolation-filters="sRGB"><feFlood flood-opacity="0" result="BackgroundImageFix"/><feColorMatrix in="SourceAlpha" values="0 0 0 0 0 0 0 0 0 0 0 0 0 0 0 0 0 0 127 0" result="hardAlpha"/><feOffset dy="33"/><feGaussianBlur stdDeviation="57"/><feComposite in2="hardAlpha" operator="out"/><feColorMatrix values="0 0 0 0 0 0 0 0 0 0 0 0 0 0 0 0 0 0 0.03 0"/><feBlend in2="BackgroundImageFix" result="effect1_dropShadow_211_5839"/><feBlend in="SourceGraphic" in2="effect1_dropShadow_211_5839" result="shape"/></filter><filter id="f" x="96" y="0" width="726" height="616" filterUnits="userSpaceOnUse" color-interpolation-filters="sRGB"><feFlood flood-opacity="0" result="BackgroundImageFix"/><feColorMatrix in="SourceAlpha" values="0 0 0 0 0 0 0 0 0 0 0 0 0 0 0 0 0 0 127 0" result="hardAlpha"/><feOffset dy="33"/><feGaussianBlur stdDeviation="57"/><feComposite in2="hardAlpha" operator="out"/><feColorMatrix values="0 0 0 0 0 0 0 0 0 0 0 0 0 0 0 0 0 0 0.07 0"/><feBlend in2="BackgroundImageFix" result="effect1_dropShadow_211_5839"/><feBlend in="SourceGraphic" in2="effect1_dropShadow_211_5839" result="shape"/></filter><linearGradient id="b" x1="83.519" y1="519.461" x2="105.782" y2="542.462" gradientUnits="userSpaceOnUse"><stop stop-color="#387EB8"/><stop offset="1" stop-color="#366994"/></linearGradient><linearGradient id="c" x1="97.754" y1="533.659" x2="121.734" y2="557.26" gradientUnits="userSpaceOnUse"><stop stop-color="#FFE052"/><stop offset="1" stop-color="#FFC331"/></linearGradient></defs></svg>