<svg width="24" height="25" viewBox="0 0 24 25" fill="none" xmlns="http://www.w3.org/2000/svg">
<path d="M0 12.7402C0 6.11282 5.37258 0.740234 12 0.740234C18.6274 0.740234 24 6.11282 24 12.7402C24 19.3677 18.6274 24.7402 12 24.7402C5.37258 24.7402 0 19.3677 0 12.7402Z" fill="#F63D68"/>
<path d="M12 14.4902H9.75C9.05222 14.4902 8.70333 14.4902 8.41943 14.5764C7.78023 14.7703 7.28002 15.2705 7.08612 15.9097C7 16.1936 7 16.5425 7 17.2402M14 15.7402L15 16.7402L17 14.7402M13.25 10.4902C13.25 11.7329 12.2426 12.7402 11 12.7402C9.75736 12.7402 8.75 11.7329 8.75 10.4902C8.75 9.24759 9.75736 8.24023 11 8.24023C12.2426 8.24023 13.25 9.24759 13.25 10.4902Z" stroke="white" stroke-width="0.9" stroke-linecap="round" stroke-linejoin="round"/>
<path d="M12 14.4902H9.75C9.05222 14.4902 8.70333 14.4902 8.41943 14.5764C7.78023 14.7703 7.28002 15.2705 7.08612 15.9097C7 16.1936 7 16.5425 7 17.2402M14 15.7402L15 16.7402L17 14.7402M13.25 10.4902C13.25 11.7329 12.2426 12.7402 11 12.7402C9.75736 12.7402 8.75 11.7329 8.75 10.4902C8.75 9.24759 9.75736 8.24023 11 8.24023C12.2426 8.24023 13.25 9.24759 13.25 10.4902Z" stroke="white" stroke-width="0.9" stroke-linecap="round" stroke-linejoin="round"/>
</svg>
