<svg width="298" height="169" viewBox="0 0 298 169" fill="none" xmlns="http://www.w3.org/2000/svg">
<g clip-path="url(#clip0_3040_79958)">
<rect y="0.68457" width="298" height="167.63" rx="8" fill="#E0F4F3"/>
<path d="M110.93 144.511H210.123M-45.5235 -25.6326L-45.5235 177.574M-32.2978 -25.6326L-32.2978 177.574M-19.0721 -25.6326L-19.0722 177.574M-5.84646 -25.6326L-5.84646 177.574M7.37923 -25.6326L7.37923 177.574M20.6049 -25.6326L20.6049 177.574M33.8306 -25.6326L33.8306 177.574M47.0563 -25.6326L47.0563 177.574M60.282 -25.6326L60.282 177.574M-45.6738 169.486H364.323M73.5077 -25.6326V177.574M-45.6738 156.998H364.323M86.7334 -25.6326L86.7334 177.574M-45.6738 144.511H364.323M99.9591 -25.6326V177.574M-45.6738 132.023H364.323M113.185 -25.6326L113.185 177.574M-45.6738 119.535H364.323M126.41 -25.6326L126.41 177.574M-45.6738 107.048H364.323M139.636 -25.6326L139.636 177.574M-45.6738 94.5603H364.323M152.862 -25.6326L152.862 177.574M-45.6738 82.0727H364.323M166.088 -25.6326L166.088 177.574M-45.6738 69.5851H364.323M179.313 -25.6326L179.313 177.574M-45.6738 57.0976H364.323M192.539 -25.6326L192.539 177.574M-45.6738 44.61H364.323M205.765 -25.6326L205.765 177.574M-45.6738 32.1224H364.323M218.99 -25.6326L218.99 177.574M-45.6738 19.6348H364.323M232.216 -25.6326V177.574M-45.6738 7.14728H364.323M245.442 -25.6326L245.442 177.574M-45.6738 -5.34029H364.323M258.667 -25.6326V177.574M-45.6738 -17.8279H364.323M271.893 -25.6326V177.574M-45.6738 -30.3154L364.323 -30.3154M285.119 -25.6326V177.574M298.344 -25.6326V177.574M311.57 -25.6326V177.574M324.796 -25.6326V177.574M338.022 -25.6326V177.574M351.247 -25.6326V177.574M364.473 -25.6326V177.574" stroke="url(#paint0_radial_3040_79958)" stroke-opacity="0.5" stroke-width="0.176946"/>
<path d="M134 23.8091C134 22.3993 134.917 21.6943 136.75 21.6943C138.588 21.6943 139.507 22.3993 139.507 23.8091V25.164H137.59V23.8088C137.59 23.3571 137.312 23.1296 136.757 23.1262H136.743C136.192 23.1262 135.917 23.3537 135.917 23.8088V24.7224C135.917 25.1708 136.515 25.72 137.712 26.3702C138.909 27.0168 139.507 27.7919 139.507 28.6955V29.9684C139.507 31.3818 138.591 32.0884 136.757 32.0884C134.92 32.0849 134.001 31.3782 134.001 29.9684V28.6132H135.917V29.9684C135.917 30.4236 136.197 30.6512 136.757 30.651C137.313 30.651 137.59 30.4235 137.59 29.9684V28.8183C137.59 28.3325 136.992 27.7645 135.795 27.1141C134.598 26.4673 134 25.6803 134 24.7531V23.8091Z" fill="black"/>
<path d="M158.945 21.6846V27.1295C158.945 27.5683 158.667 27.9663 158.218 28.2531C157.945 28.4223 157.649 28.5447 157.339 28.6157V32.0971H155.586V28.6157C154.647 28.3887 153.979 27.8087 153.979 27.1284V21.6846H155.768V27.1205C155.768 27.366 156.079 27.5652 156.463 27.5652C156.848 27.5652 157.159 27.366 157.159 27.1205V21.6846H158.945Z" fill="black"/>
<path d="M162.417 21.6846C161.082 21.6846 159.999 22.322 159.999 23.1089V32.099H161.74V28.6163C161.964 28.6541 162.191 28.6728 162.418 28.6721C163.011 28.6849 163.599 28.5416 164.127 28.2551C164.565 27.9976 164.835 27.6414 164.835 27.2477V23.1089C164.835 22.322 163.753 21.6846 162.417 21.6846ZM163.094 26.1319C163.094 26.1342 163.094 26.1361 163.094 26.1384C163.094 26.1406 163.094 26.1425 163.094 26.1448V27.3041C163.094 27.5242 162.791 27.7024 162.417 27.7024C162.251 27.7063 162.086 27.6662 161.938 27.5858C161.884 27.5619 161.838 27.5232 161.803 27.4736C161.768 27.4241 161.746 27.3655 161.74 27.3041V23.0771C161.74 22.857 162.043 22.6788 162.417 22.6788C162.583 22.675 162.748 22.7151 162.896 22.7954C162.95 22.8193 162.996 22.858 163.031 22.9075C163.066 22.9571 163.088 23.0157 163.094 23.0771V26.1319Z" fill="black"/>
<path d="M146.265 21.6846V23.0986H144.225V32.0985H142.471V23.0986H140.431V21.6846H146.265Z" fill="black"/>
<path d="M152.917 23.7068C152.851 22.5843 151.63 21.6895 150.132 21.6895C148.635 21.6895 147.413 22.5843 147.348 23.7068H147.345V25.1817L146.569 24.8358C146.571 25.3565 146.572 25.8772 146.573 26.3979L147.345 26.7355V29.9459C147.345 31.1128 148.593 32.0585 150.132 32.0585C151.672 32.0585 152.92 31.1128 152.92 29.9459V28.5732H150.913V30.0137C150.913 30.3404 150.564 30.6051 150.133 30.6051C149.702 30.6051 149.353 30.3404 149.353 30.0137V28.3076C149.353 28.3043 149.353 28.3012 149.353 28.2982C149.353 28.2951 149.353 28.2934 149.353 28.2912C149.353 28.2889 149.353 28.2867 149.353 28.2842C149.353 28.2817 149.353 28.2781 149.353 28.2747V27.6911C149.609 27.7473 149.871 27.7753 150.133 27.7748C151.41 27.7748 152.486 27.124 152.816 26.2364H152.819V26.2278C152.885 26.0476 152.92 25.856 152.92 25.6626V23.7071L152.917 23.7068ZM150.132 26.3352C150.023 26.3354 149.914 26.3175 149.81 26.2819L149.643 26.2071L149.352 26.0632V24.0237C149.352 24.0207 149.352 24.0176 149.352 24.0143C149.352 24.0109 149.352 24.0081 149.352 24.0048V23.7554C149.352 23.4287 149.702 23.1637 150.133 23.1637C150.564 23.1637 150.913 23.4285 150.913 23.7554V24.0045C150.913 24.0078 150.913 24.0106 150.913 24.014C150.913 24.0173 150.913 24.0204 150.913 24.0235V25.7435C150.913 26.0707 150.564 26.3352 150.133 26.3352H150.132Z" fill="black"/>
</g>
<defs>
<radialGradient id="paint0_radial_3040_79958" cx="0" cy="0" r="1" gradientUnits="userSpaceOnUse" gradientTransform="translate(159.4 61.2921) rotate(90.2413) scale(94.8933 187.12)">
<stop/>
<stop offset="0.6" stop-color="#00C569" stop-opacity="0"/>
</radialGradient>
<clipPath id="clip0_3040_79958">
<rect y="0.68457" width="298" height="167.63" rx="8" fill="white"/>
</clipPath>
</defs>
</svg>
