<svg width="70" height="71" viewBox="0 0 70 71" fill="none" xmlns="http://www.w3.org/2000/svg">
<mask id="path-1-inside-1_23280_301009" fill="white">
<path d="M64.1203 13.9793C64.0689 10.9507 61.5724 8.55419 58.5442 8.6266L18.1664 9.59209C15.1382 9.6645 12.725 12.1784 12.7764 15.207L13.4561 55.2711C13.5075 58.2997 16.004 60.6962 19.0322 60.6238L59.41 59.6583C62.4382 59.5859 64.8514 57.072 64.8 54.0434L64.1203 13.9793Z"/>
</mask>
<path d="M59.41 59.6583L59.3928 58.9398L59.41 59.6583ZM64.8 54.0434L65.5186 54.0312L64.8 54.0434ZM13.4561 55.2711L14.1748 55.2589L13.4561 55.2711ZM19.0322 60.6238L19.0493 61.3424L19.0322 60.6238ZM18.1664 9.59209L18.1836 10.3106L18.1664 9.59209ZM12.7764 15.207L12.0578 15.2192L12.7764 15.207ZM58.5442 8.6266L58.5271 7.90805L58.5442 8.6266ZM64.1203 13.9793L63.4016 13.9915L64.1203 13.9793ZM58.5614 9.34514L18.1836 10.3106L18.1492 8.87355L58.5271 7.90805L58.5614 9.34514ZM13.4951 15.1948L14.1748 55.2589L12.7375 55.2833L12.0578 15.2192L13.4951 15.1948ZM19.015 59.9053L59.3928 58.9398L59.4272 60.3769L19.0493 61.3424L19.015 59.9053ZM64.0813 54.0556L63.4016 13.9915L64.8389 13.9671L65.5186 54.0312L64.0813 54.0556ZM59.3928 58.9398C62.0261 58.8768 64.126 56.6893 64.0813 54.0556L65.5186 54.0312C65.5767 57.4548 62.8503 60.295 59.4272 60.3769L59.3928 58.9398ZM14.1748 55.2589C14.2194 57.8887 16.3856 59.9681 19.015 59.9053L19.0493 61.3424C15.6224 61.4243 12.7956 58.7108 12.7375 55.2833L14.1748 55.2589ZM18.1836 10.3106C15.5503 10.3736 13.4504 12.5611 13.4951 15.1948L12.0578 15.2192C11.9997 11.7956 14.7261 8.9554 18.1492 8.87355L18.1836 10.3106ZM58.5271 7.90805C61.954 7.82611 64.7808 10.5396 64.8389 13.9671L63.4016 13.9915C63.357 11.3617 61.1908 9.28227 58.5614 9.34514L58.5271 7.90805Z" fill="#CFE0D9" mask="url(#path-1-inside-1_23280_301009)"/>
<path d="M0.910156 5.89083C0.910156 2.86178 3.36569 0.40625 6.39473 0.40625H47.4256C50.4546 0.40625 52.9102 2.86178 52.9102 5.89083V46.9217C52.9102 49.9507 50.4546 52.4062 47.4256 52.4062H6.39473C3.36568 52.4062 0.910156 49.9507 0.910156 46.9217V5.89083Z" fill="#CFE0D9"/>
<path d="M25.5967 26.1099C29.7561 26.2007 33.2016 22.9026 33.2925 18.7432C33.3834 14.5838 30.0852 11.1382 25.9258 11.0474C21.7664 10.9565 18.3209 14.2547 18.23 18.4141C18.1391 22.5735 21.4373 26.019 25.5967 26.1099Z" fill="url(#paint0_linear_23280_301009)"/>
<path fill-rule="evenodd" clip-rule="evenodd" d="M27.2592 39.1783C25.8699 37.619 25.0438 35.5515 25.093 33.3003C25.1433 30.9958 26.1024 28.922 27.6204 27.4154C26.9505 27.3487 26.2651 27.3063 25.5668 27.291C21.0179 27.1916 16.9659 28.2416 14.4282 29.8917C12.4924 31.1509 11.4046 32.7807 11.3667 34.5156L11.3233 36.5011C11.3098 37.1187 11.542 37.717 11.9693 38.162C12.3965 38.6083 12.9827 38.8663 13.6003 38.8798L27.2592 39.1783Z" fill="url(#paint1_linear_23280_301009)"/>
<path fill-rule="evenodd" clip-rule="evenodd" d="M33.81 26.2977C29.8417 26.211 26.5507 29.3613 26.464 33.3295C26.3773 37.2978 29.5276 40.5888 33.4959 40.6755C37.4642 40.7622 40.7552 37.612 40.8419 33.6437C40.9286 29.6754 37.7783 26.3844 33.81 26.2977ZM32.626 33.4642L32.5512 36.8875C32.5388 37.4544 32.9888 37.9245 33.5557 37.9369C34.1226 37.9493 34.5927 37.4992 34.6051 36.9323L34.6799 33.5091C34.6923 32.9422 34.2423 32.472 33.6754 32.4596C33.1085 32.4472 32.6383 32.8973 32.626 33.4642ZM33.7502 29.0363C34.506 29.0528 35.1061 29.6797 35.0896 30.4356C35.0731 31.1914 34.4462 31.7915 33.6903 31.775C32.9345 31.7585 32.3344 31.1316 32.3509 30.3757C32.3675 29.6199 32.9943 29.0198 33.7502 29.0363Z" fill="url(#paint2_linear_23280_301009)"/>
<defs>
<linearGradient id="paint0_linear_23280_301009" x1="25.9258" y1="11.0474" x2="25.5967" y2="26.1099" gradientUnits="userSpaceOnUse">
<stop stop-color="#3D888D"/>
<stop offset="1" stop-color="#5DC090"/>
</linearGradient>
<linearGradient id="paint1_linear_23280_301009" x1="19.5767" y1="27.1602" x2="19.3179" y2="39.0048" gradientUnits="userSpaceOnUse">
<stop stop-color="#3D888D"/>
<stop offset="1" stop-color="#5DC090"/>
</linearGradient>
<linearGradient id="paint2_linear_23280_301009" x1="33.81" y1="26.2977" x2="33.4959" y2="40.6755" gradientUnits="userSpaceOnUse">
<stop stop-color="#3D888D"/>
<stop offset="1" stop-color="#5DC090"/>
</linearGradient>
</defs>
</svg>
