<svg width="70" height="71" viewBox="0 0 70 71" fill="none" xmlns="http://www.w3.org/2000/svg">
<mask id="path-1-inside-1_23280_301095" fill="white">
<path d="M64.1203 13.9793C64.0689 10.9507 61.5724 8.55419 58.5442 8.6266L18.1664 9.59209C15.1382 9.6645 12.725 12.1784 12.7764 15.207L13.4561 55.2711C13.5075 58.2997 16.004 60.6962 19.0322 60.6238L59.41 59.6583C62.4382 59.5859 64.8514 57.072 64.8 54.0434L64.1203 13.9793Z"/>
</mask>
<path d="M59.41 59.6583L59.3928 58.9398L59.41 59.6583ZM64.8 54.0434L65.5186 54.0312L64.8 54.0434ZM13.4561 55.2711L14.1748 55.2589L13.4561 55.2711ZM19.0322 60.6238L19.0493 61.3424L19.0322 60.6238ZM18.1664 9.59209L18.1836 10.3106L18.1664 9.59209ZM12.7764 15.207L12.0578 15.2192L12.7764 15.207ZM58.5442 8.6266L58.5271 7.90805L58.5442 8.6266ZM64.1203 13.9793L63.4016 13.9915L64.1203 13.9793ZM58.5614 9.34514L18.1836 10.3106L18.1492 8.87355L58.5271 7.90805L58.5614 9.34514ZM13.4951 15.1948L14.1748 55.2589L12.7375 55.2833L12.0578 15.2192L13.4951 15.1948ZM19.015 59.9053L59.3928 58.9398L59.4272 60.3769L19.0493 61.3424L19.015 59.9053ZM64.0813 54.0556L63.4016 13.9915L64.8389 13.9671L65.5186 54.0312L64.0813 54.0556ZM59.3928 58.9398C62.0261 58.8768 64.126 56.6893 64.0813 54.0556L65.5186 54.0312C65.5767 57.4548 62.8503 60.295 59.4272 60.3769L59.3928 58.9398ZM14.1748 55.2589C14.2194 57.8887 16.3856 59.9681 19.015 59.9053L19.0493 61.3424C15.6224 61.4243 12.7956 58.7108 12.7375 55.2833L14.1748 55.2589ZM18.1836 10.3106C15.5503 10.3736 13.4504 12.5611 13.4951 15.1948L12.0578 15.2192C11.9997 11.7956 14.7261 8.9554 18.1492 8.87355L18.1836 10.3106ZM58.5271 7.90805C61.954 7.82611 64.7808 10.5396 64.8389 13.9671L63.4016 13.9915C63.357 11.3617 61.1908 9.28227 58.5614 9.34514L58.5271 7.90805Z" fill="#CFE0D9" mask="url(#path-1-inside-1_23280_301095)"/>
<path d="M0.910156 5.89083C0.910156 2.86178 3.36569 0.40625 6.39473 0.40625H47.4256C50.4546 0.40625 52.9102 2.86178 52.9102 5.89083V46.9217C52.9102 49.9507 50.4546 52.4062 47.4256 52.4062H6.39473C3.36568 52.4062 0.910156 49.9507 0.910156 46.9217V5.89083Z" fill="#CFE0D9"/>
<path fill-rule="evenodd" clip-rule="evenodd" d="M21.4133 12.6641H32.588C36.7067 12.6641 39 15.0374 39 19.1041V32.8774C39 37.0107 36.7067 39.3307 32.588 39.3307H21.4133C17.36 39.3307 15 37.0107 15 32.8774V19.1041C15 15.0374 17.36 12.6641 21.4133 12.6641ZM21.7744 18.8774V18.8641H25.7598C26.3344 18.8641 26.8011 19.3307 26.8011 19.9027C26.8011 20.4907 26.3344 20.9574 25.7598 20.9574H21.7744C21.1998 20.9574 20.7344 20.4907 20.7344 19.9174C20.7344 19.3441 21.1998 18.8774 21.7744 18.8774ZM21.7744 26.9845H32.2278C32.8011 26.9845 33.2678 26.5178 33.2678 25.9445C33.2678 25.3711 32.8011 24.9031 32.2278 24.9031H21.7744C21.1998 24.9031 20.7344 25.3711 20.7344 25.9445C20.7344 26.5178 21.1998 26.9845 21.7744 26.9845ZM21.7733 33.077H32.2267C32.7587 33.0237 33.16 32.569 33.16 32.037C33.16 31.4903 32.7587 31.037 32.2267 30.9837H21.7733C21.3733 30.9437 20.9867 31.1303 20.7733 31.477C20.56 31.8103 20.56 32.2503 20.7733 32.597C20.9867 32.9303 21.3733 33.1303 21.7733 33.077Z" fill="url(#paint0_linear_23280_301095)"/>
<path d="M40 15.0038H32" stroke="white" stroke-width="2" stroke-linecap="round" stroke-linejoin="round"/>
<path d="M35.9999 19V11" stroke="white" stroke-width="2" stroke-linecap="round" stroke-linejoin="round"/>
<defs>
<linearGradient id="paint0_linear_23280_301095" x1="26.9003" y1="12.7289" x2="26.9003" y2="48.1278" gradientUnits="userSpaceOnUse">
<stop stop-color="#3B858C"/>
<stop offset="1" stop-color="#68D591"/>
</linearGradient>
</defs>
</svg>
