<svg width="70" height="72" viewBox="0 0 70 72" fill="none" xmlns="http://www.w3.org/2000/svg">
<mask id="path-1-inside-1_23280_301064" fill="white">
<path d="M64.1203 14.659C64.0689 11.6304 61.5724 9.23388 58.5442 9.30629L18.1664 10.2718C15.1382 10.3442 12.725 12.8581 12.7764 15.8867L13.4561 55.9508C13.5075 58.9794 16.004 61.3759 19.0322 61.3035L59.41 60.338C62.4382 60.2656 64.8514 57.7517 64.8 54.7231L64.1203 14.659Z"/>
</mask>
<path d="M59.41 60.338L59.3928 59.6195L59.41 60.338ZM64.8 54.7231L65.5186 54.7109L64.8 54.7231ZM13.4561 55.9508L14.1748 55.9386L13.4561 55.9508ZM19.0322 61.3035L19.0493 62.022L19.0322 61.3035ZM18.1664 10.2718L18.1836 10.9903L18.1664 10.2718ZM12.7764 15.8867L12.0578 15.8989L12.7764 15.8867ZM58.5442 9.30629L58.5271 8.58774L58.5442 9.30629ZM64.1203 14.659L63.4016 14.6712L64.1203 14.659ZM58.5614 10.0248L18.1836 10.9903L18.1492 9.55324L58.5271 8.58774L58.5614 10.0248ZM13.4951 15.8745L14.1748 55.9386L12.7375 55.963L12.0578 15.8989L13.4951 15.8745ZM19.015 60.5849L59.3928 59.6195L59.4272 61.0565L19.0493 62.022L19.015 60.5849ZM64.0813 54.7353L63.4016 14.6712L64.8389 14.6468L65.5186 54.7109L64.0813 54.7353ZM59.3928 59.6195C62.0261 59.5565 64.126 57.369 64.0813 54.7353L65.5186 54.7109C65.5767 58.1345 62.8503 60.9747 59.4272 61.0565L59.3928 59.6195ZM14.1748 55.9386C14.2194 58.5684 16.3856 60.6478 19.015 60.5849L19.0493 62.022C15.6224 62.104 12.7956 59.3905 12.7375 55.963L14.1748 55.9386ZM18.1836 10.9903C15.5503 11.0533 13.4504 13.2408 13.4951 15.8745L12.0578 15.8989C11.9997 12.4753 14.7261 9.63509 18.1492 9.55324L18.1836 10.9903ZM58.5271 8.58774C61.954 8.5058 64.7808 11.2193 64.8389 14.6468L63.4016 14.6712C63.357 12.0414 61.1908 9.96196 58.5614 10.0248L58.5271 8.58774Z" fill="#CFE0D9" mask="url(#path-1-inside-1_23280_301064)"/>
<path d="M0.910156 6.57051C0.910156 3.54147 3.36569 1.08594 6.39473 1.08594H47.4256C50.4546 1.08594 52.9102 3.54147 52.9102 6.57052V47.6014C52.9102 50.6304 50.4546 53.0859 47.4256 53.0859H6.39473C3.36568 53.0859 0.910156 50.6304 0.910156 47.6014V6.57051Z" fill="#CFE0D9"/>
<path d="M25.1622 35.6116C23.8943 36.7325 22.1648 36.9467 20.6482 36.1709C20.0999 35.8904 19.6398 35.5107 19.2824 35.0609L17.1163 39.616C17.0177 39.8232 17.1207 39.984 17.1695 40.0434C17.2184 40.1028 17.3561 40.2351 17.5787 40.1791L19.1028 39.7956C19.2765 39.7519 19.4516 39.7332 19.6239 39.7376C20.3506 39.7561 21.0271 40.1849 21.3442 40.875L22.0036 42.31C22.0999 42.5197 22.2871 42.5452 22.3653 42.5456C22.4419 42.5466 22.6308 42.5265 22.7293 42.3193L26.1747 35.0734C25.8087 35.1689 25.4606 35.3478 25.1622 35.6116Z" fill="url(#paint0_linear_23280_301064)"/>
<path d="M36.6837 40.1172L34.6835 35.4558C34.3101 35.8871 33.8368 36.243 33.2789 36.4953C31.7357 37.193 30.0156 36.8909 28.7892 35.7065C28.5006 35.4277 28.1592 35.2313 27.7969 35.1172L30.9784 42.532C31.0694 42.7441 31.2574 42.7737 31.3339 42.7766C31.412 42.7802 31.6 42.7643 31.7038 42.5597L32.4142 41.1596C32.7557 40.4863 33.4472 40.0923 34.1739 40.1108C34.3461 40.1152 34.5205 40.1429 34.6924 40.1953L36.2013 40.6562C36.4217 40.7235 36.5641 40.5984 36.6149 40.5415C36.666 40.4845 36.7747 40.3292 36.6837 40.1172Z" fill="url(#paint1_linear_23280_301064)"/>
<path d="M38.6119 23.9387C36.9032 22.7098 36.4087 20.3437 37.4862 18.5521C38.1339 17.4751 37.8265 16.3867 37.3228 15.7272C36.8191 15.0679 35.849 14.484 34.6373 14.8223C32.6217 15.3853 30.4667 14.283 29.7318 12.3127C29.29 11.1284 28.2495 10.6838 27.423 10.6628C26.5966 10.6417 25.541 11.0328 25.057 12.1936C24.2519 14.1247 22.0594 15.1161 20.0657 14.4509C18.8672 14.0513 17.8771 14.5851 17.3501 15.2182C16.8232 15.8514 16.4769 16.923 17.0852 18.0322C18.0973 19.877 17.5181 22.2158 15.7667 23.3565C14.7139 24.0424 14.5198 25.1528 14.6891 25.9634C14.8584 26.7739 15.4823 27.7191 16.7249 27.9413C18.7919 28.3108 20.262 30.2356 20.072 32.3233C19.9577 33.5784 20.7058 34.429 21.4439 34.8067C22.1821 35.1843 23.3062 35.2915 24.2473 34.4594C25.0299 33.7675 26.0247 33.4367 27.0126 33.4619C28.0009 33.4871 28.9823 33.868 29.7395 34.5994C30.65 35.4787 31.7769 35.4289 32.528 35.0892C33.279 34.7496 34.057 33.9378 33.9879 32.6781C33.8732 30.5826 35.4113 28.7345 37.4897 28.4706C38.7391 28.3119 39.3963 27.3993 39.5947 26.5981C39.7931 25.7968 39.639 24.6775 38.6119 23.9387ZM27.0452 31.6546C22.5108 31.539 18.8881 27.7553 18.9697 23.2201C19.0514 18.6849 22.8068 15.0892 27.3413 15.2048C31.8758 15.3204 35.4984 19.104 35.4168 23.6392C35.3351 28.1744 31.5797 31.7701 27.0452 31.6546Z" fill="url(#paint2_linear_23280_301064)"/>
<path d="M27.3192 16.7408C23.6301 16.6468 20.5749 19.5721 20.5085 23.2617C20.4421 26.9513 23.3892 30.0295 27.0783 30.1235C30.7674 30.2176 33.8226 27.2923 33.889 23.6027C33.9554 19.9131 31.0082 16.8349 27.3192 16.7408ZM30.639 22.8708L26.4205 25.8064C26.2866 25.8995 26.1271 25.9466 25.9657 25.9424C25.924 25.9414 25.8823 25.9369 25.8408 25.929C25.6384 25.8903 25.4594 25.7719 25.3441 25.6004L24.1306 23.7951C23.8934 23.4422 23.9857 22.9661 24.3365 22.7315C24.6874 22.497 25.164 22.5928 25.4012 22.9455L26.1774 24.1003L29.7569 21.6094C30.1034 21.3685 30.5817 21.4552 30.8252 21.8036C31.0688 22.1519 30.9854 22.6297 30.639 22.8708Z" fill="url(#paint3_linear_23280_301064)"/>
<defs>
<linearGradient id="paint0_linear_23280_301064" x1="21.6694" y1="34.9586" x2="21.4766" y2="42.523" gradientUnits="userSpaceOnUse">
<stop stop-color="#408C8F"/>
<stop offset="1" stop-color="#5CBE90"/>
</linearGradient>
<linearGradient id="paint1_linear_23280_301064" x1="32.3022" y1="35.232" x2="32.1095" y2="42.7965" gradientUnits="userSpaceOnUse">
<stop stop-color="#408C8F"/>
<stop offset="1" stop-color="#5CBE90"/>
</linearGradient>
<linearGradient id="paint2_linear_23280_301064" x1="27.423" y1="10.6628" x2="26.7977" y2="35.1986" gradientUnits="userSpaceOnUse">
<stop stop-color="#408C8F"/>
<stop offset="1" stop-color="#5CBE90"/>
</linearGradient>
<linearGradient id="paint3_linear_23280_301064" x1="27.3192" y1="16.7408" x2="26.9781" y2="30.121" gradientUnits="userSpaceOnUse">
<stop stop-color="#408C8F"/>
<stop offset="1" stop-color="#5CBE90"/>
</linearGradient>
</defs>
</svg>
