<svg width="32" height="32" viewBox="0 0 32 32" fill="none" xmlns="http://www.w3.org/2000/svg">
<path d="M16.0034 2.00248C16.0034 2.00248 24.2556 1.63348 28.6307 9.89855H15.3013C15.3013 9.89855 12.7857 9.81777 10.6369 12.8586C10.0196 14.1349 9.35612 15.4496 10.1007 18.0407C9.0281 16.23 4.40625 8.211 4.40625 8.211C4.40625 8.211 7.66625 2.32923 16.0033 2.00248H16.0034Z" fill="#EF3F36"/>
<path d="M28.2062 22.9806C28.2062 22.9806 24.3983 30.2884 15.0312 29.9271C16.1886 27.9319 21.6978 18.4252 21.6978 18.4252C21.6978 18.4252 23.0288 16.2955 21.4586 12.9203C20.6599 11.7478 19.8459 10.5215 17.2226 9.86787C19.3329 9.84876 28.6114 9.86787 28.6114 9.86787C28.6114 9.86787 32.0873 15.6228 28.2062 22.9806Z" fill="#FCD900"/>
<path d="M3.86224 23.0458C3.86224 23.0458 -0.586062 16.1069 4.41388 8.20312C5.56745 10.1983 11.0766 19.7051 11.0766 19.7051C11.0766 19.7051 12.2649 21.9194 15.9802 22.2499C17.3961 22.1462 18.8699 22.0578 20.7527 20.1241C19.7147 21.954 15.058 29.95 15.058 29.95C15.058 29.95 8.31427 30.0731 3.86213 23.0458H3.86224Z" fill="#61BC5B"/>
<path d="M15.0234 30.0013L16.8984 22.2053C16.8984 22.2053 18.9586 22.0437 20.6871 20.1562C19.6145 22.0362 15.0234 30.0013 15.0234 30.0013Z" fill="#5AB055"/>
<path d="M9.72656 16.0909C9.72656 12.6543 12.5237 9.86719 15.9727 9.86719C19.4217 9.86719 22.2188 12.6543 22.2188 16.0909C22.2188 19.5277 19.4217 22.3147 15.9727 22.3147C12.5237 22.3108 9.72656 19.5277 9.72656 16.0909Z" fill="white"/>
<path d="M10.7656 16.0883C10.7656 13.2282 13.0921 10.9062 15.9663 10.9062C18.8366 10.9062 21.1669 13.2244 21.1669 16.0883C21.1669 18.9484 18.8406 21.2704 15.9663 21.2704C13.0959 21.2704 10.7656 18.9484 10.7656 16.0883Z" fill="url(#paint0_linear_23280_300067)"/>
<path d="M28.6075 9.87233L20.8876 12.1289C20.8876 12.1289 19.7225 10.4258 17.2188 9.87233C19.3908 9.86076 28.6075 9.87233 28.6075 9.87233Z" fill="#EACA05"/>
<path d="M9.95028 17.7563C8.86606 15.8841 4.40625 8.21094 4.40625 8.21094L10.1238 13.8466C10.1238 13.8466 9.53734 15.0499 9.75734 16.7721L9.95017 17.7563H9.95028Z" fill="#DF3A32"/>
<defs>
<linearGradient id="paint0_linear_23280_300067" x1="15.9661" y1="10.9794" x2="15.9661" y2="20.9584" gradientUnits="userSpaceOnUse">
<stop stop-color="#86BBE5"/>
<stop offset="1" stop-color="#1072BA"/>
</linearGradient>
</defs>
</svg>
