<svg width="24" height="24" viewBox="0 0 24 24" fill="none" xmlns="http://www.w3.org/2000/svg">
<path d="M18.9806 8.72122C19.3497 8.75173 19.6326 9.0582 19.6522 9.4271L19.6427 9.63278L19.3282 13.484L18.9983 17.2424C18.9285 17.9927 18.866 18.6255 18.8121 19.1237C18.6247 20.8598 17.4977 21.9334 15.7988 21.9652C13.1516 22.0141 10.607 22.0136 8.13596 21.9601C6.48621 21.9255 5.3759 20.8403 5.19178 19.1307L5.06453 17.8712L4.84217 15.4281L4.61439 12.7471L4.35395 9.52892C4.32158 9.11602 4.62174 8.7544 5.02438 8.7212C5.39346 8.69077 5.72054 8.94688 5.79742 9.30782L5.82734 9.60277L6.07189 12.6198L6.33892 15.7469C6.45869 17.1007 6.56257 18.1962 6.6457 18.9658C6.75062 19.9401 7.26361 20.4414 8.16635 20.4604C10.6181 20.5134 13.1437 20.5139 15.7723 20.4653C16.7299 20.4474 17.2511 19.951 17.3582 18.9584L17.4849 17.7056C17.522 17.3196 17.5617 16.8933 17.6036 16.4303L17.8709 13.3548L18.1928 9.40854C18.2226 9.03006 18.5215 8.73994 18.8812 8.71986L18.9806 8.72122Z" fill="#D92D20"/>
<path d="M14.0651 2C14.9086 2 15.6535 2.54628 15.9403 3.39039L15.9886 3.55209L16.2255 4.76783C16.2999 5.14872 16.6037 5.4332 16.9712 5.48177L17.0833 5.48913C17.4872 5.48913 17.8147 5.82493 17.8147 6.23916C17.8147 6.65338 17.4872 6.98918 17.0833 6.98918C16.0251 6.98918 15.1062 6.26083 14.8294 5.22768L14.7911 5.06208L14.5648 3.8928C14.5119 3.68991 14.3485 3.54138 14.1514 3.50742L14.0651 3.50006H9.93709C9.73188 3.50006 9.54947 3.62322 9.4737 3.77803L9.448 3.84604L9.21097 5.06238C8.9923 6.18214 8.03275 6.98918 6.91889 6.98918C6.51495 6.98918 6.1875 6.65338 6.1875 6.23916C6.1875 5.85945 6.46265 5.54564 6.81964 5.49597L6.91889 5.48913C7.29753 5.48913 7.62902 5.23928 7.74759 4.87929L7.77661 4.76813L8.02422 3.50533C8.24229 2.66897 8.95037 2.07349 9.78017 2.00633L9.93709 2H14.0651Z" fill="#D92D20"/>
<path d="M20.2686 5.49219C20.6725 5.49219 21 5.82799 21 6.24222C21 6.62192 20.7248 6.93573 20.3679 6.9854L20.2686 6.99224H3.73139C3.32745 6.99224 3 6.65644 3 6.24222C3 5.86251 3.27515 5.5487 3.63214 5.49903L3.73139 5.49219H20.2686Z" fill="#D92D20"/>
</svg>
