<svg width="24" height="24" viewBox="0 0 24 24" fill="none" xmlns="http://www.w3.org/2000/svg">
<path d="M10.5039 5.239C10.5039 4.2795 11.2834 3.5 12.2415 3.5C13.1995 3.5 13.9805 4.2795 13.9805 5.239C13.9805 6.1985 13.1995 6.97801 12.2415 6.97801C11.2834 6.97801 10.5039 6.1985 10.5039 5.239Z" fill="#200E32"/>
<path d="M10.5039 11.739C10.5039 10.7795 11.2834 10 12.2415 10C13.1995 10 13.9805 10.7795 13.9805 11.739C13.9805 12.6985 13.1995 13.478 12.2415 13.478C11.2834 13.478 10.5039 12.6985 10.5039 11.739Z" fill="#200E32"/>
<path d="M10.5039 18.2468C10.5039 17.2873 11.2834 16.5078 12.2415 16.5078C13.1995 16.5078 13.9805 17.2873 13.9805 18.2468C13.9805 19.2063 13.1995 19.9858 12.2415 19.9858C11.2834 19.9858 10.5039 19.2063 10.5039 18.2468Z" fill="#200E32"/>
</svg>
