<svg width="70" height="72" viewBox="0 0 70 72" fill="none" xmlns="http://www.w3.org/2000/svg">
<mask id="path-1-inside-1_23280_301046" fill="white">
<path d="M64.1203 14.7605C64.0689 11.7319 61.5724 9.33544 58.5442 9.40785L18.1664 10.3733C15.1382 10.4458 12.725 12.9596 12.7764 15.9882L13.4561 56.0524C13.5075 59.081 16.004 61.4775 19.0322 61.4051L59.41 60.4396C62.4382 60.3671 64.8514 57.8533 64.8 54.8247L64.1203 14.7605Z"/>
</mask>
<path d="M59.41 60.4396L59.3928 59.721L59.41 60.4396ZM64.8 54.8247L65.5186 54.8125L64.8 54.8247ZM13.4561 56.0524L14.1748 56.0402L13.4561 56.0524ZM19.0322 61.4051L19.0493 62.1236L19.0322 61.4051ZM18.1664 10.3733L18.1836 11.0919L18.1664 10.3733ZM12.7764 15.9882L12.0578 16.0004L12.7764 15.9882ZM58.5442 9.40785L58.5271 8.6893L58.5442 9.40785ZM64.1203 14.7605L63.4016 14.7727L64.1203 14.7605ZM58.5614 10.1264L18.1836 11.0919L18.1492 9.6548L58.5271 8.6893L58.5614 10.1264ZM13.4951 15.976L14.1748 56.0402L12.7375 56.0646L12.0578 16.0004L13.4951 15.976ZM19.015 60.6865L59.3928 59.721L59.4272 61.1581L19.0493 62.1236L19.015 60.6865ZM64.0813 54.8369L63.4016 14.7727L64.8389 14.7483L65.5186 54.8125L64.0813 54.8369ZM59.3928 59.721C62.0261 59.6581 64.126 57.4705 64.0813 54.8369L65.5186 54.8125C65.5767 58.236 62.8503 61.0763 59.4272 61.1581L59.3928 59.721ZM14.1748 56.0402C14.2194 58.6699 16.3856 60.7494 19.015 60.6865L19.0493 62.1236C15.6224 62.2055 12.7956 59.492 12.7375 56.0646L14.1748 56.0402ZM18.1836 11.0919C15.5503 11.1549 13.4504 13.3424 13.4951 15.976L12.0578 16.0004C11.9997 12.5769 14.7261 9.73665 18.1492 9.6548L18.1836 11.0919ZM58.5271 8.6893C61.954 8.60736 64.7808 11.3209 64.8389 14.7483L63.4016 14.7727C63.357 12.143 61.1908 10.0635 58.5614 10.1264L58.5271 8.6893Z" fill="#CFE0D9" mask="url(#path-1-inside-1_23280_301046)"/>
<path d="M0.910156 6.67208C0.910156 3.64303 3.36569 1.1875 6.39473 1.1875H47.4256C50.4546 1.1875 52.9102 3.64303 52.9102 6.67208V47.7029C52.9102 50.732 50.4546 53.1875 47.4256 53.1875H6.39473C3.36568 53.1875 0.910156 50.732 0.910156 47.7029V6.67208Z" fill="#CFE0D9"/>
<g clip-path="url(#clip0_23280_301046)">
<path d="M42.4189 18.9155L27.4967 13.219C27.2968 13.1427 27.0766 13.1371 26.8731 13.2031L11.6801 18.1321C11.3023 18.2546 11.0428 18.6019 11.0321 18.9988C11.0215 19.3958 11.2622 19.7564 11.6329 19.8989L26.5541 25.6357C26.6547 25.6744 26.7604 25.6952 26.8666 25.6979C26.9728 25.7006 27.0794 25.6853 27.1819 25.6517L42.3759 20.6824C42.7534 20.559 43.0121 20.2112 43.0218 19.8142C43.0314 19.4172 42.7898 19.0571 42.4189 18.9155Z" fill="url(#paint0_linear_23280_301046)"/>
<path d="M40.4743 31.3795L40.6827 23.2047L38.7913 23.8232L38.5999 31.3317C38.0271 31.6423 37.6311 32.2415 37.6133 32.9397C37.5955 33.6378 37.9605 34.2565 38.5167 34.5958L38.3994 39.2016C38.3862 39.7191 38.7951 40.1495 39.3127 40.1626C39.8302 40.1758 40.2606 39.7669 40.2737 39.2493L40.3911 34.6436C40.964 34.3331 41.3599 33.7338 41.3777 33.0357C41.3955 32.3375 41.0307 31.7189 40.4743 31.3795Z" fill="url(#paint1_linear_23280_301046)"/>
<path d="M26.818 27.5678C26.4963 27.5596 26.1809 27.4968 25.8804 27.3813L17.4922 24.1562L17.3871 28.2804C17.3614 29.2894 18.3922 30.1695 20.451 30.8962C22.2455 31.5296 24.4669 31.9099 26.7059 31.967C28.9449 32.024 31.1828 31.7574 33.0073 31.2162C35.1004 30.5954 36.1747 29.7689 36.2005 28.7599L36.3056 24.6358L27.764 27.4293C27.458 27.5294 27.1398 27.576 26.818 27.5678Z" fill="url(#paint2_linear_23280_301046)"/>
</g>
<defs>
<linearGradient id="paint0_linear_23280_301046" x1="27.1862" y1="13.1577" x2="26.8666" y2="25.6979" gradientUnits="userSpaceOnUse">
<stop stop-color="#408C8F"/>
<stop offset="1" stop-color="#5CBF91"/>
</linearGradient>
<linearGradient id="paint1_linear_23280_301046" x1="39.7455" y1="23.1808" x2="39.3127" y2="40.1626" gradientUnits="userSpaceOnUse">
<stop stop-color="#408C8F"/>
<stop offset="1" stop-color="#5CBF91"/>
</linearGradient>
<linearGradient id="paint2_linear_23280_301046" x1="26.8989" y1="24.396" x2="26.7059" y2="31.967" gradientUnits="userSpaceOnUse">
<stop stop-color="#408C8F"/>
<stop offset="1" stop-color="#5CBF91"/>
</linearGradient>
<clipPath id="clip0_23280_301046">
<rect width="32" height="32" fill="white" transform="translate(11.2578 10.0938) rotate(1.46)"/>
</clipPath>
</defs>
</svg>
