<svg width="20" height="20" viewBox="0 0 20 20" fill="none" xmlns="http://www.w3.org/2000/svg">
<path d="M12.9823 9.99896C12.9823 11.649 11.649 12.9823 9.99896 12.9823C8.34896 12.9823 7.01562 11.649 7.01562 9.99896C7.01562 8.34896 8.34896 7.01562 9.99896 7.01562C11.649 7.01562 12.9823 8.34896 12.9823 9.99896Z" stroke="#707070" stroke-width="1.5" stroke-linecap="round" stroke-linejoin="round"/>
<path d="M9.99401 16.8854C12.9357 16.8854 15.6773 15.1521 17.5857 12.1521C18.3357 10.9771 18.3357 9.00208 17.5857 7.82708C15.6773 4.82708 12.9357 3.09375 9.99401 3.09375C7.05234 3.09375 4.31068 4.82708 2.40234 7.82708C1.65234 9.00208 1.65234 10.9771 2.40234 12.1521C4.31068 15.1521 7.05234 16.8854 9.99401 16.8854Z" stroke="#707070" stroke-width="1.5" stroke-linecap="round" stroke-linejoin="round"/>
</svg>
