<svg width="70" height="72" viewBox="0 0 70 72" fill="none" xmlns="http://www.w3.org/2000/svg">
<mask id="path-1-inside-1_23280_301136" fill="white">
<path d="M64.1203 14.8699C64.0689 11.8413 61.5724 9.44482 58.5442 9.51722L18.1664 10.4827C15.1382 10.5551 12.725 13.069 12.7764 16.0976L13.4561 56.1618C13.5075 59.1904 16.004 61.5868 19.0322 61.5144L59.41 60.5489C62.4382 60.4765 64.8514 57.9627 64.8 54.934L64.1203 14.8699Z"/>
</mask>
<path d="M59.41 60.5489L59.3928 59.8304L59.41 60.5489ZM64.8 54.934L65.5186 54.9218L64.8 54.934ZM13.4561 56.1618L14.1748 56.1496L13.4561 56.1618ZM19.0322 61.5144L19.0493 62.233L19.0322 61.5144ZM18.1664 10.4827L18.1836 11.2013L18.1664 10.4827ZM12.7764 16.0976L12.0578 16.1098L12.7764 16.0976ZM58.5442 9.51722L58.5271 8.79868L58.5442 9.51722ZM64.1203 14.8699L63.4016 14.8821L64.1203 14.8699ZM58.5614 10.2358L18.1836 11.2013L18.1492 9.76417L58.5271 8.79868L58.5614 10.2358ZM13.4951 16.0854L14.1748 56.1496L12.7375 56.1739L12.0578 16.1098L13.4951 16.0854ZM19.015 60.7959L59.3928 59.8304L59.4272 61.2675L19.0493 62.233L19.015 60.7959ZM64.0813 54.9462L63.4016 14.8821L64.8389 14.8577L65.5186 54.9218L64.0813 54.9462ZM59.3928 59.8304C62.0261 59.7674 64.126 57.5799 64.0813 54.9462L65.5186 54.9218C65.5767 58.3454 62.8503 61.1856 59.4272 61.2675L59.3928 59.8304ZM14.1748 56.1496C14.2194 58.7793 16.3856 60.8588 19.015 60.7959L19.0493 62.233C15.6224 62.3149 12.7956 59.6014 12.7375 56.1739L14.1748 56.1496ZM18.1836 11.2013C15.5503 11.2642 13.4504 13.4518 13.4951 16.0854L12.0578 16.1098C11.9997 12.6862 14.7261 9.84603 18.1492 9.76417L18.1836 11.2013ZM58.5271 8.79868C61.954 8.71673 64.7808 11.4302 64.8389 14.8577L63.4016 14.8821C63.357 12.2523 61.1908 10.1729 58.5614 10.2358L58.5271 8.79868Z" fill="#CFE0D9" mask="url(#path-1-inside-1_23280_301136)"/>
<path d="M0.910156 6.78145C0.910156 3.7524 3.36569 1.29688 6.39473 1.29688H47.4256C50.4546 1.29688 52.9102 3.7524 52.9102 6.78145V47.8123C52.9102 50.8413 50.4546 53.2969 47.4256 53.2969H6.39473C3.36568 53.2969 0.910156 50.8413 0.910156 47.8123V6.78145Z" fill="#CFE0D9"/>
<path d="M25.2479 26.6598C29.4083 26.6598 32.7809 23.2872 32.7809 19.1268C32.7809 14.9664 29.4083 11.5938 25.2479 11.5938C21.0875 11.5938 17.7148 14.9664 17.7148 19.1268C17.7148 23.2872 21.0875 26.6598 25.2479 26.6598Z" fill="url(#paint0_linear_23280_301136)"/>
<path fill-rule="evenodd" clip-rule="evenodd" d="M27.1976 39.7381C25.7746 38.2095 24.9035 36.1605 24.9035 33.9088C24.9035 31.6037 25.817 29.5095 27.3017 27.9701C26.6306 27.918 25.9444 27.8906 25.2459 27.8906C20.6959 27.8906 16.6678 29.0288 14.1668 30.734C12.2589 32.0352 11.207 33.6883 11.207 35.4237V37.4097C11.207 38.0274 11.4522 38.6204 11.8891 39.056C12.326 39.4929 12.9177 39.7381 13.5354 39.7381H27.1976Z" fill="url(#paint1_linear_23280_301136)"/>
<path d="M37.5941 33.1949L35.7482 34.9922L36.185 37.5332C36.2602 37.9732 36.0833 38.4068 35.7216 38.6667C35.3631 38.9298 34.895 38.9626 34.5004 38.7529L32.2225 37.5552L29.9398 38.7544C29.7707 38.8437 29.586 38.8906 29.4028 38.8906C29.1633 38.8906 28.9269 38.8155 28.7233 38.6683C28.3632 38.4068 28.1863 37.9732 28.2615 37.5332L28.6967 34.9922L26.8509 33.1949C26.5315 32.8849 26.4203 32.4293 26.5581 32.0051C26.6974 31.5823 27.0575 31.2817 27.4975 31.2191L30.0431 30.8481L31.1845 28.5357C31.3833 28.138 31.781 27.8906 32.2225 27.8906H32.2256C32.6687 27.8922 33.0663 28.1396 33.262 28.5372L34.4034 30.8481L36.9538 31.2207C37.389 31.2817 37.7491 31.5823 37.8869 32.0051C38.0262 32.4293 37.915 32.8849 37.5941 33.1949Z" fill="white"/>
<path d="M37.5941 33.1949L35.7482 34.9922L36.185 37.5332C36.2602 37.9732 36.0833 38.4068 35.7216 38.6667C35.3631 38.9298 34.895 38.9626 34.5004 38.7529L32.2225 37.5552L29.9398 38.7544C29.7707 38.8437 29.586 38.8906 29.4028 38.8906C29.1633 38.8906 28.9269 38.8155 28.7233 38.6683C28.3632 38.4068 28.1863 37.9732 28.2615 37.5332L28.6967 34.9922L26.8509 33.1949C26.5315 32.8849 26.4203 32.4293 26.5581 32.0051C26.6974 31.5823 27.0575 31.2817 27.4975 31.2191L30.0431 30.8481L31.1845 28.5357C31.3833 28.138 31.781 27.8906 32.2225 27.8906H32.2256C32.6687 27.8922 33.0663 28.1396 33.262 28.5372L34.4034 30.8481L36.9538 31.2207C37.389 31.2817 37.7491 31.5823 37.8869 32.0051C38.0262 32.4293 37.915 32.8849 37.5941 33.1949Z" fill="url(#paint2_linear_23280_301136)"/>
<defs>
<linearGradient id="paint0_linear_23280_301136" x1="25.2479" y1="11.5938" x2="25.2479" y2="26.6598" gradientUnits="userSpaceOnUse">
<stop stop-color="#3D888D"/>
<stop offset="1" stop-color="#5DC090"/>
</linearGradient>
<linearGradient id="paint1_linear_23280_301136" x1="19.2544" y1="27.8906" x2="19.2544" y2="39.7381" gradientUnits="userSpaceOnUse">
<stop stop-color="#3D888D"/>
<stop offset="1" stop-color="#5DC090"/>
</linearGradient>
<linearGradient id="paint2_linear_23280_301136" x1="32.2229" y1="27.8906" x2="32.2229" y2="38.8906" gradientUnits="userSpaceOnUse">
<stop stop-color="#3D888D"/>
<stop offset="1" stop-color="#5DC090"/>
</linearGradient>
</defs>
</svg>
