<svg width="24" height="24" viewBox="0 0 24 24" fill="none" xmlns="http://www.w3.org/2000/svg">
<path fill-rule="evenodd" clip-rule="evenodd" d="M11.3723 3.39453V13.6187L9.73769 11.9786L9.65372 11.9058C9.36056 11.6873 8.94384 11.7107 8.67703 11.9764C8.38354 12.2687 8.38256 12.7436 8.67485 13.0371L11.5909 15.9651L11.5931 15.967C11.6178 15.9916 11.6441 16.0144 11.6719 16.0353L11.6751 16.0381C11.9691 16.257 12.3872 16.2327 12.6537 15.9651L15.5697 13.0371L15.6421 12.9528C15.8594 12.6587 15.8343 12.2421 15.5675 11.9764L15.4832 11.904C15.1892 11.6867 14.7726 11.7118 14.5069 11.9786L12.8723 13.6192V3.39453L12.8654 3.29276C12.8158 2.92669 12.502 2.64453 12.1223 2.64453C11.7081 2.64453 11.3723 2.98032 11.3723 3.39453ZM17.9054 21.1166C20.2529 21.0079 22.1221 19.0708 22.1221 16.6964V11.8124L22.1172 11.6036C22.0083 9.2506 20.0675 7.37743 17.6881 7.37743H16.7551L16.6533 7.38428C16.2872 7.43394 16.0051 7.74774 16.0051 8.12743C16.0051 8.54165 16.3409 8.87743 16.7551 8.87743H17.6881L17.8605 8.88241C19.4011 8.97163 20.6221 10.2487 20.6221 11.8124V16.6964L20.6171 16.8683C20.5282 18.4041 19.2552 19.6214 17.6971 19.6214H6.55707L6.38463 19.6165C4.84409 19.5272 3.62207 18.2493 3.62207 16.6864V11.8014L3.62704 11.6297C3.71603 10.095 4.98971 8.87743 6.54707 8.87743H7.48907L7.59084 8.87058C7.95692 8.82092 8.23907 8.50713 8.23907 8.12743C8.23907 7.71322 7.90328 7.37743 7.48907 7.37743H6.54707L6.33272 7.38253C3.98887 7.49436 2.12207 9.4302 2.12207 11.8014V16.6864L2.1269 16.8952C2.23592 19.2475 4.17783 21.1214 6.55707 21.1214H17.6971L17.9054 21.1166Z" fill="#459F56"/>
</svg>
