<svg width="32" height="32" viewBox="0 0 32 32" fill="none" xmlns="http://www.w3.org/2000/svg">
<path d="M16 30C23.732 30 30 23.732 30 16C30 8.26801 23.732 2 16 2C8.26801 2 2 8.26801 2 16C2 23.732 8.26801 30 16 30Z" fill="url(#paint0_linear_23280_300065)"/>
<path d="M15.9969 28.9469C23.149 28.9469 28.9469 23.149 28.9469 15.9969C28.9469 8.84479 23.149 3.04688 15.9969 3.04688C8.84479 3.04688 3.04688 8.84479 3.04688 15.9969C3.04688 23.149 8.84479 28.9469 15.9969 28.9469Z" fill="url(#paint1_radial_23280_300065)"/>
<path d="M16.0234 6.20154C15.9359 6.20154 15.8594 6.13594 15.8594 6.04844V3.76247C15.8594 3.67497 15.9359 3.60938 16.0234 3.60938C16.1109 3.60938 16.1875 3.67497 16.1875 3.76247V6.04844C16.1765 6.13594 16.1109 6.20154 16.0234 6.20154Z" fill="#F3F3F3"/>
<path d="M16.0187 6.20778C15.9203 6.20778 15.8438 6.13123 15.8438 6.04374V3.7578C15.8438 3.6703 15.9203 3.59375 16.0187 3.59375C16.1172 3.59375 16.1937 3.6703 16.1937 3.7578V6.04374C16.1937 6.13123 16.1062 6.20778 16.0187 6.20778ZM16.0187 3.61554C15.9422 3.61554 15.8657 3.68125 15.8657 3.7578V6.04374C15.8657 6.12028 15.9312 6.18599 16.0187 6.18599C16.0953 6.18599 16.1718 6.12028 16.1718 6.04374V3.7578C16.161 3.68125 16.0953 3.61554 16.0187 3.61554Z" fill="white"/>
<path d="M17.114 4.97311C17.0265 4.96216 16.9609 4.89656 16.9609 4.80906L17.0375 3.79178C17.0483 3.70439 17.125 3.63868 17.2125 3.64963C17.3 3.66058 17.3656 3.72629 17.3656 3.8138L17.289 4.83096C17.2781 4.91846 17.2015 4.98406 17.114 4.97322V4.97311Z" fill="#F3F3F3"/>
<path d="M17.1172 4.98702C17.0187 4.97606 16.9531 4.89951 16.9531 4.81201L17.0297 3.79475C17.0406 3.70736 17.1172 3.63081 17.2156 3.64165C17.314 3.6526 17.3797 3.72927 17.3797 3.81665L17.3031 4.83392C17.2922 4.93237 17.2156 4.99797 17.1172 4.98702ZM17.2156 3.66356C17.1391 3.66356 17.0624 3.71831 17.0624 3.79486L16.9859 4.81213C16.9859 4.88856 17.0406 4.95427 17.1281 4.96511C17.2047 4.96511 17.2812 4.91047 17.2812 4.83392L17.3578 3.81665C17.3578 3.7401 17.2922 3.67451 17.2155 3.66356H17.2156Z" fill="white"/>
<path d="M17.9374 6.39705C17.8498 6.37514 17.7951 6.2986 17.8061 6.21109L18.2545 3.96882C18.2764 3.88144 18.3529 3.82668 18.4404 3.84858C18.5279 3.87048 18.5826 3.94703 18.5716 4.03453L18.1232 6.2768C18.1123 6.35324 18.0248 6.408 17.9373 6.39705H17.9374Z" fill="#F3F3F3"/>
<path d="M17.9327 6.41052C17.8341 6.38862 17.7795 6.30112 17.7904 6.21362L18.2389 3.97138C18.2608 3.88399 18.3483 3.81828 18.4466 3.84018C18.545 3.86209 18.5998 3.94959 18.5888 4.03709L18.1404 6.27933C18.1185 6.36672 18.031 6.42147 17.9327 6.41052ZM18.4466 3.86209C18.37 3.85113 18.2935 3.89483 18.2716 3.97149L17.8233 6.21373C17.8123 6.29017 17.856 6.36672 17.9435 6.38873C18.0201 6.39957 18.0966 6.35576 18.1185 6.27922L18.5669 4.03709C18.5779 3.94959 18.5232 3.88399 18.4466 3.86209Z" fill="white"/>
<path d="M19.2498 5.41337C19.229 5.40835 19.2094 5.39927 19.192 5.38665C19.1747 5.37404 19.1601 5.35813 19.1489 5.33984C19.1377 5.32155 19.1303 5.30124 19.127 5.28007C19.1236 5.2589 19.1245 5.23729 19.1296 5.21646L19.403 4.23217C19.4248 4.14467 19.5123 4.10087 19.5998 4.12277C19.6874 4.14467 19.7421 4.23217 19.7202 4.31967L19.4467 5.30408C19.4248 5.39146 19.3373 5.43527 19.2498 5.41337Z" fill="#F3F3F3"/>
<path d="M19.246 5.42669C19.1585 5.40479 19.093 5.30634 19.1258 5.21895L19.3992 4.23445C19.421 4.14706 19.5194 4.0923 19.6069 4.11421C19.6944 4.13611 19.76 4.23456 19.7273 4.32194L19.4539 5.30645C19.432 5.39384 19.3445 5.44859 19.2461 5.42669H19.246ZM19.6069 4.14706C19.5304 4.12516 19.4429 4.16896 19.421 4.24551L19.1477 5.22979C19.1258 5.30634 19.1695 5.383 19.257 5.40479C19.3335 5.42669 19.421 5.383 19.4429 5.30645L19.7163 4.32194C19.7273 4.24551 19.6836 4.16896 19.6069 4.14695V4.14706Z" fill="white"/>
<path d="M19.7874 6.95181C19.7 6.91895 19.6672 6.8205 19.7 6.74395L20.5749 4.63302C20.6077 4.55647 20.7062 4.51266 20.7826 4.55647C20.8703 4.58921 20.9031 4.68777 20.8703 4.76421L19.9953 6.87515C19.9626 6.95181 19.864 6.9955 19.7876 6.95181H19.7874Z" fill="#F3F3F3"/>
<path d="M19.7813 6.96884C19.7393 6.95282 19.7053 6.92079 19.6868 6.87978C19.6684 6.83876 19.6669 6.7921 19.6828 6.75003L20.5578 4.63906C20.5907 4.55156 20.6892 4.51871 20.7876 4.55156C20.8296 4.56758 20.8636 4.5996 20.8821 4.64062C20.9005 4.68163 20.902 4.72829 20.8861 4.77037L20.011 6.88133C19.9672 6.96884 19.8688 7.01253 19.7813 6.96884ZM20.7767 4.57347C20.7001 4.54072 20.6126 4.57347 20.5798 4.65001L19.7047 6.76098C19.672 6.83753 19.7157 6.91408 19.7922 6.94693C19.8688 6.97967 19.9563 6.94693 19.9891 6.87038L20.8642 4.75942C20.8861 4.69371 20.8532 4.60621 20.7767 4.57347Z" fill="white"/>
<path d="M21.2612 6.25559C21.1846 6.21179 21.1517 6.12429 21.1846 6.04774L21.6439 5.14002C21.6876 5.06336 21.7751 5.0305 21.8627 5.07431C21.9392 5.11811 21.972 5.20561 21.9392 5.28205L21.4798 6.18988C21.4361 6.26643 21.3486 6.2994 21.2611 6.25559H21.2612Z" fill="#F3F3F3"/>
<path d="M21.26 6.26467C21.1724 6.22087 21.1396 6.12242 21.1833 6.03492L21.6428 5.12718C21.6864 5.03957 21.785 5.00683 21.8724 5.05052C21.9599 5.09433 21.9928 5.19278 21.949 5.28028L21.4897 6.18801C21.4458 6.27551 21.3474 6.30837 21.2599 6.26456L21.26 6.26467ZM21.8616 5.07242C21.7849 5.03968 21.6974 5.06147 21.6647 5.13802L21.2052 6.04587C21.1725 6.11146 21.2052 6.19896 21.2708 6.24277C21.3474 6.27551 21.4349 6.25372 21.4677 6.17717L21.9272 5.26932C21.9599 5.20373 21.9272 5.11623 21.8616 5.07242Z" fill="white"/>
<path d="M21.4804 7.8756C21.4038 7.82096 21.3819 7.7225 21.4366 7.65691L22.7054 5.76464C22.7491 5.68809 22.8477 5.67713 22.9241 5.72094C23.0008 5.77559 23.0225 5.87404 22.9679 5.93964L21.6991 7.83191C21.6554 7.90846 21.5569 7.93036 21.4804 7.8756Z" fill="#F3F3F3"/>
<path d="M21.4832 7.88661C21.4067 7.83197 21.3848 7.72257 21.4286 7.64602L22.6973 5.7538C22.7519 5.67726 22.8504 5.65535 22.9379 5.71011C23.0144 5.76475 23.0363 5.87416 22.9926 5.9507L21.7238 7.84292C21.6692 7.91947 21.5598 7.94126 21.4832 7.88661ZM22.9269 5.73201C22.8615 5.68821 22.7629 5.69916 22.7192 5.76475L21.4504 7.65697C21.4067 7.72246 21.4285 7.81007 21.4942 7.85376C21.5598 7.89757 21.6582 7.88661 21.7019 7.82102L22.9707 5.93975C23.0144 5.87416 22.9926 5.77571 22.9269 5.73201Z" fill="white"/>
<path d="M23.0793 7.47252C23.0138 7.41776 22.9919 7.31931 23.0466 7.25371L23.6809 6.45526C23.7356 6.38978 23.834 6.37871 23.8996 6.43347C23.9653 6.48812 23.9871 6.58657 23.9323 6.65216L23.2981 7.45062C23.2435 7.51621 23.145 7.52716 23.0794 7.47252H23.0793Z" fill="#F3F3F3"/>
<path d="M23.067 7.47913C22.9904 7.42437 22.9795 7.31496 23.0342 7.23841L23.6685 6.44005C23.7231 6.36339 23.8325 6.35244 23.9091 6.41815C23.9856 6.47279 23.9966 6.5822 23.9418 6.65875L23.3076 7.45722C23.2529 7.53378 23.1435 7.54473 23.067 7.47913ZM23.8872 6.43994C23.8217 6.38529 23.7341 6.39624 23.6794 6.46184L23.0451 7.26032C23.0014 7.32591 23.0123 7.41342 23.0778 7.46806C23.1435 7.52282 23.231 7.51187 23.2857 7.44627L23.92 6.6478C23.9638 6.5822 23.9528 6.48375 23.8873 6.44005L23.8872 6.43994Z" fill="white"/>
<path d="M22.9711 9.10612C22.9055 9.04052 22.9055 8.94207 22.9711 8.88731L24.5897 7.2796C24.6554 7.214 24.7537 7.22484 24.8085 7.2796C24.8631 7.33424 24.8741 7.44364 24.8085 7.49829L23.2008 9.10612C23.1351 9.17171 23.0367 9.17171 22.9711 9.10612Z" fill="#F3F3F3"/>
<path d="M22.9555 9.11647C22.9239 9.08437 22.9062 9.04117 22.9062 8.99617C22.9062 8.95117 22.9239 8.90796 22.9555 8.87587L24.5742 7.26803C24.6063 7.23645 24.6495 7.21875 24.6946 7.21875C24.7396 7.21875 24.7828 7.23645 24.8149 7.26803C24.8465 7.30012 24.8641 7.34332 24.8641 7.38833C24.8641 7.43333 24.8465 7.47653 24.8149 7.50862L23.1961 9.11635C23.164 9.1479 23.1208 9.16558 23.0758 9.16558C23.0308 9.16558 22.9876 9.1479 22.9555 9.11635V9.11647ZM24.804 7.27898C24.7493 7.22422 24.6509 7.22422 24.5962 7.27898L22.9774 8.88671C22.9226 8.94147 22.9226 9.03992 22.9774 9.09456C23.032 9.14932 23.1305 9.14932 23.1851 9.09456L24.804 7.48683C24.8586 7.43208 24.8586 7.34458 24.804 7.27898Z" fill="white"/>
<path d="M24.61 9.01936C24.5554 8.95376 24.5554 8.85532 24.621 8.80056L25.3975 8.14439C25.4631 8.08974 25.5615 8.10058 25.6163 8.16629C25.6709 8.23188 25.6709 8.33033 25.6053 8.38498L24.8288 9.04126C24.7631 9.0959 24.6647 9.08495 24.61 9.01936Z" fill="#F3F3F3"/>
<path d="M24.5987 9.03371C24.5332 8.95716 24.5441 8.84776 24.6097 8.79311L25.3862 8.13681C25.4518 8.07122 25.5612 8.08217 25.6268 8.15872C25.6925 8.23526 25.6815 8.34467 25.6159 8.39931L24.8393 9.05561C24.7738 9.12109 24.6643 9.11026 24.5989 9.03371H24.5987ZM25.605 8.16967C25.5502 8.10407 25.4627 8.10407 25.3973 8.14776L24.6206 8.80406C24.566 8.85871 24.5551 8.94621 24.6097 9.0118C24.6643 9.0774 24.7519 9.0774 24.8174 9.03371L25.594 8.37741C25.6596 8.32276 25.6596 8.23526 25.605 8.16967Z" fill="white"/>
<path d="M24.171 10.5962C24.1163 10.5197 24.1382 10.4212 24.2148 10.3774L26.1178 9.10873C26.1943 9.06492 26.2928 9.08683 26.3365 9.15254C26.3912 9.22908 26.3693 9.32754 26.2928 9.37123L24.3898 10.6399C24.3241 10.6837 24.2256 10.6618 24.171 10.5962Z" fill="#F3F3F3"/>
<path d="M24.1632 10.5939C24.1085 10.5173 24.1304 10.4079 24.207 10.3533L26.1101 9.08446C26.1866 9.02982 26.296 9.05172 26.3506 9.13922C26.4054 9.21577 26.3834 9.32517 26.307 9.3797L24.4039 10.6486C24.3272 10.7034 24.2179 10.6815 24.1632 10.594V10.5939ZM26.3287 9.16112C26.2851 9.09541 26.1976 9.07351 26.132 9.11732L24.2287 10.386C24.1633 10.4298 24.1412 10.5173 24.196 10.5939C24.2397 10.6594 24.3272 10.6814 24.3929 10.6377L26.296 9.36886C26.3616 9.31422 26.3726 9.22661 26.3287 9.16112Z" fill="white"/>
<path d="M25.8036 10.8274C25.7598 10.7508 25.7817 10.6525 25.8582 10.6086L26.7442 10.1056C26.8207 10.0618 26.9192 10.0946 26.9629 10.171C27.0067 10.2477 26.9848 10.346 26.9082 10.3898L26.0223 10.893C25.9457 10.9367 25.8473 10.904 25.8035 10.8273L25.8036 10.8274Z" fill="#F3F3F3"/>
<path d="M25.788 10.8383C25.7441 10.7508 25.7661 10.6524 25.8426 10.6087L26.7286 10.1056C26.8051 10.0618 26.9145 10.0946 26.9582 10.1711C27.002 10.2587 26.9801 10.3571 26.9036 10.4008L26.0176 10.904C25.9411 10.9477 25.8317 10.9149 25.788 10.8383ZM26.9473 10.1821C26.9036 10.1056 26.8161 10.0837 26.7505 10.1274L25.8645 10.6306C25.7989 10.6743 25.777 10.7618 25.8097 10.8274C25.8536 10.9039 25.9411 10.9258 26.0067 10.8821L26.8926 10.3789C26.9582 10.3462 26.9801 10.2587 26.9473 10.1821Z" fill="white"/>
<path d="M25.0671 12.2813C25.0344 12.1938 25.0671 12.1063 25.1546 12.0735L27.2656 11.1986C27.3421 11.1657 27.4406 11.2094 27.4733 11.2859C27.5062 11.3734 27.4733 11.4609 27.3858 11.4937L25.275 12.3687C25.1983 12.4015 25.1 12.3687 25.0671 12.2813Z" fill="#F3F3F3"/>
<path d="M25.0593 12.2952C25.0266 12.2078 25.0593 12.1094 25.1468 12.0656L27.2578 11.1906C27.2998 11.1748 27.3464 11.1762 27.3874 11.1947C27.4284 11.2131 27.4604 11.2471 27.4764 11.2891C27.5093 11.3765 27.4764 11.475 27.3889 11.5187L25.2781 12.3936C25.2361 12.4095 25.1894 12.4081 25.1484 12.3897C25.1074 12.3713 25.0754 12.3373 25.0593 12.2953V12.2952ZM27.4547 11.3C27.4218 11.2235 27.3343 11.1906 27.2687 11.2125L25.1578 12.0875C25.0812 12.1202 25.0484 12.2078 25.0812 12.2844C25.114 12.3609 25.2015 12.3938 25.2672 12.3719L27.378 11.4969C27.4547 11.4642 27.4875 11.3765 27.4547 11.3Z" fill="white"/>
<path d="M26.6124 12.8317C26.5797 12.7441 26.6234 12.6567 26.7109 12.6238L27.6733 12.3066C27.7498 12.2738 27.8483 12.3285 27.8702 12.405C27.9029 12.4925 27.8592 12.58 27.7717 12.6129L26.8093 12.9301C26.7328 12.9629 26.6453 12.9192 26.6124 12.8316V12.8317Z" fill="#F3F3F3"/>
<path d="M26.5967 12.8424C26.5639 12.7549 26.6076 12.6565 26.7062 12.6237L27.6685 12.3065C27.756 12.2737 27.8544 12.3284 27.8873 12.416C27.92 12.5034 27.8763 12.6018 27.7777 12.6347L26.8155 12.952C26.728 12.9737 26.6295 12.9299 26.5967 12.8424ZM27.8654 12.4269C27.8435 12.3503 27.756 12.3065 27.6794 12.3284L26.717 12.6456C26.6405 12.6674 26.6076 12.7549 26.6295 12.8316C26.6514 12.9081 26.7389 12.9518 26.8155 12.9299L27.7779 12.6128C27.8544 12.58 27.8873 12.5034 27.8654 12.4268V12.4269Z" fill="white"/>
<path d="M25.622 14.1276C25.6001 14.0402 25.6548 13.9527 25.7423 13.9417L27.9844 13.5043C28.0717 13.4823 28.1484 13.5479 28.1702 13.6354C28.1921 13.7229 28.1375 13.8104 28.05 13.8214L25.8078 14.2588C25.7204 14.2698 25.6329 14.2151 25.6219 14.1276H25.622Z" fill="#F3F3F3"/>
<path d="M25.6058 14.1262C25.5839 14.0277 25.6495 13.9402 25.737 13.9183L27.9793 13.4808C28.0668 13.4589 28.1543 13.5246 28.176 13.6231C28.1979 13.7214 28.1323 13.8089 28.0448 13.8308L25.8026 14.2683C25.7152 14.2903 25.6276 14.2246 25.6058 14.1261V14.1262ZM28.1543 13.6339C28.1433 13.5573 28.0668 13.5027 27.9902 13.5136L25.748 13.9512C25.6714 13.9621 25.6168 14.0495 25.6386 14.1262C25.6495 14.2027 25.7261 14.2574 25.8027 14.2464L28.0448 13.8089C28.1214 13.787 28.176 13.7104 28.1543 13.6339Z" fill="white"/>
<path d="M27.0248 14.9684C27.0139 14.8809 27.0685 14.8044 27.156 14.7934L28.1622 14.673C28.2497 14.6622 28.3264 14.7278 28.3372 14.8153C28.3482 14.9028 28.2935 14.9794 28.206 14.9904L27.1997 15.1106C27.1232 15.1216 27.0357 15.056 27.0247 14.9684H27.0248Z" fill="#F3F3F3"/>
<path d="M27.0168 14.9746C27.0059 14.8761 27.0715 14.7886 27.159 14.7777L28.1651 14.6574C28.2526 14.6465 28.3401 14.7121 28.351 14.8105C28.362 14.909 28.2964 14.9965 28.2089 15.0074L27.2026 15.1277C27.1153 15.1386 27.0277 15.073 27.0168 14.9746ZM28.3401 14.8215C28.3293 14.7449 28.2527 14.6792 28.1761 14.6902L27.1699 14.8105C27.0934 14.8215 27.0386 14.898 27.0496 14.9746C27.0605 15.0511 27.1371 15.1168 27.2136 15.1059L28.2199 14.9855C28.2964 14.9746 28.351 14.898 28.3402 14.8215H28.3401Z" fill="white"/>
<path d="M25.7969 16.0312C25.7969 15.9437 25.8624 15.8672 25.95 15.8672H28.2359C28.3234 15.8672 28.389 15.9437 28.389 16.0312C28.389 16.1187 28.3234 16.1953 28.2359 16.1953H25.95C25.8625 16.1953 25.7969 16.1187 25.7969 16.0312Z" fill="#F3F3F3"/>
<path d="M25.7891 16.0344C25.7891 15.9359 25.8656 15.8594 25.9531 15.8594H28.2391C28.3266 15.8594 28.4031 15.9359 28.4031 16.0344C28.4031 16.1328 28.3266 16.2094 28.2391 16.2094H25.9531C25.8656 16.2094 25.7891 16.1328 25.7891 16.0344ZM28.3812 16.0453C28.3812 15.9688 28.3156 15.8922 28.2389 15.8922H25.9532C25.8767 15.8922 25.811 15.9577 25.811 16.0453C25.811 16.1219 25.8767 16.1984 25.9532 16.1984H28.2392C28.3157 16.1875 28.3813 16.1219 28.3813 16.0453H28.3812Z" fill="white"/>
<path d="M27.0157 17.1375C27.0266 17.05 27.0923 16.9844 27.1798 16.9844L28.197 17.0609C28.2844 17.0719 28.35 17.1484 28.339 17.2359C28.3282 17.3234 28.2625 17.389 28.175 17.389L27.1579 17.3125C27.0813 17.3015 27.0156 17.225 27.0156 17.1375H27.0157Z" fill="#F3F3F3"/>
<path d="M27 17.1406C27.011 17.0422 27.0875 16.9766 27.175 16.9766L28.1924 17.0531C28.2798 17.0641 28.3563 17.1406 28.3454 17.2391C28.3345 17.3375 28.2579 17.4031 28.1704 17.4031L27.1531 17.3266C27.0656 17.3156 27 17.2281 27 17.1406ZM28.3345 17.2391C28.3454 17.1625 28.2798 17.086 28.2032 17.086L27.1859 17.0094C27.1094 17.0094 27.0437 17.0641 27.0327 17.1517C27.0219 17.2281 27.0875 17.3047 27.1641 17.3047L28.1814 17.3812C28.2579 17.3812 28.3236 17.3157 28.3345 17.2391Z" fill="white"/>
<path d="M25.603 17.9373C25.6249 17.8498 25.7014 17.795 25.7889 17.8061L28.0311 18.2546C28.1186 18.2763 28.1733 18.3529 28.1514 18.4404C28.1295 18.5279 28.053 18.5827 27.9655 18.5717L25.7232 18.1232C25.6467 18.1123 25.592 18.0248 25.603 17.9373Z" fill="#F3F3F3"/>
<path d="M25.5951 17.9327C25.617 17.8342 25.7046 17.7796 25.7921 17.7904L28.0344 18.2389C28.1219 18.2607 28.1875 18.3482 28.1656 18.4467C28.1438 18.5451 28.0563 18.5999 27.9688 18.5889L25.7263 18.1405C25.6388 18.1186 25.5842 18.0311 25.5951 17.9328V17.9327ZM28.1438 18.4467C28.1547 18.3701 28.111 18.2936 28.0344 18.2717L25.7919 17.8233C25.7155 17.8124 25.6388 17.8561 25.6169 17.9436C25.6061 18.0202 25.6498 18.0967 25.7265 18.1186L27.9688 18.567C28.0563 18.578 28.1219 18.5232 28.1438 18.4467Z" fill="white"/>
<path d="M26.5838 19.2498C26.5888 19.229 26.5979 19.2094 26.6105 19.1921C26.6231 19.1747 26.639 19.1601 26.6573 19.1489C26.6755 19.1377 26.6958 19.1303 26.717 19.127C26.7381 19.1237 26.7597 19.1245 26.7806 19.1296L27.765 19.4029C27.8525 19.4248 27.8961 19.5125 27.8744 19.5998C27.8693 19.6207 27.8603 19.6403 27.8477 19.6577C27.8351 19.675 27.8192 19.6897 27.8009 19.7009C27.7826 19.712 27.7623 19.7195 27.7411 19.7228C27.7199 19.7261 27.6983 19.7253 27.6775 19.7202L26.6931 19.4467C26.6056 19.4248 26.5619 19.3373 26.5837 19.2498H26.5838Z" fill="#F3F3F3"/>
<path d="M26.5751 19.246C26.597 19.1585 26.6954 19.093 26.7829 19.1258L27.7673 19.3991C27.8548 19.421 27.9096 19.5194 27.8877 19.6069C27.8658 19.6944 27.7673 19.76 27.6798 19.7273L26.6954 19.4539C26.6079 19.432 26.5532 19.3445 26.5752 19.2461L26.5751 19.246ZM27.8548 19.6069C27.8767 19.5304 27.8329 19.4429 27.7564 19.421L26.772 19.1476C26.6954 19.1257 26.6189 19.1695 26.597 19.257C26.5752 19.3335 26.6189 19.421 26.6954 19.4429L27.6798 19.7163C27.7564 19.7273 27.8329 19.6836 27.8548 19.6069Z" fill="white"/>
<path d="M25.0437 19.7719C25.0765 19.6844 25.1751 19.6515 25.2515 19.6844L27.3625 20.5593C27.439 20.5921 27.4827 20.6906 27.45 20.7671C27.4171 20.8547 27.3187 20.8874 27.2421 20.8547L25.1312 19.9797C25.0437 19.947 25.0109 19.8484 25.0437 19.772V19.7719Z" fill="#F3F3F3"/>
<path d="M25.0359 19.7657C25.0519 19.7236 25.0839 19.6897 25.1249 19.6712C25.166 19.6528 25.2126 19.6513 25.2547 19.6672L27.3656 20.5422C27.4531 20.5751 27.4858 20.6736 27.4531 20.772C27.4371 20.814 27.405 20.848 27.364 20.8665C27.323 20.8849 27.2763 20.8864 27.2343 20.8705L25.1234 19.9954C25.0359 19.9516 25.0031 19.8532 25.0359 19.7657ZM27.4312 20.7611C27.4639 20.6845 27.4312 20.597 27.3546 20.5641L25.2437 19.6891C25.1672 19.6564 25.0906 19.7001 25.0578 19.7766C25.025 19.8532 25.0578 19.9407 25.1343 19.9735L27.2452 20.8486C27.3218 20.8705 27.4093 20.8376 27.4312 20.7611Z" fill="white"/>
<path d="M25.754 21.2533C25.7978 21.1768 25.8852 21.1439 25.9617 21.1768L26.8694 21.6362C26.946 21.6689 26.9788 21.7674 26.9351 21.8549C26.8913 21.9314 26.8038 21.9644 26.7273 21.9314L25.8197 21.4721C25.743 21.4283 25.7102 21.3299 25.754 21.2533Z" fill="#F3F3F3"/>
<path d="M25.7458 21.2364C25.7896 21.1489 25.8881 21.1162 25.9756 21.1599L26.8834 21.6193C26.9709 21.6631 27.0037 21.7616 26.9599 21.849C26.9162 21.9365 26.8176 21.9693 26.7303 21.9255L25.8225 21.4662C25.7349 21.4335 25.7021 21.324 25.7458 21.2364ZM26.9272 21.838C26.9599 21.7615 26.938 21.674 26.8615 21.6412L25.9537 21.1818C25.888 21.1491 25.8006 21.1818 25.7568 21.2474C25.724 21.324 25.7458 21.4115 25.8224 21.4443L26.7301 21.9037C26.8068 21.9365 26.8943 21.9147 26.9272 21.838Z" fill="white"/>
<path d="M24.1475 21.457C24.2023 21.3804 24.2898 21.3585 24.3663 21.4132L26.2695 22.682C26.346 22.7257 26.357 22.8242 26.3133 22.9007C26.2585 22.9773 26.171 22.9991 26.0945 22.9445L24.1913 21.6757C24.1148 21.621 24.0929 21.5226 24.1475 21.457Z" fill="#F3F3F3"/>
<path d="M24.135 21.4442C24.1897 21.3676 24.2991 21.3457 24.3757 21.3895L26.2788 22.6582C26.3554 22.7128 26.3773 22.8113 26.3225 22.8988C26.2679 22.9754 26.1585 22.9972 26.0821 22.9535L24.1788 21.6848C24.0913 21.6301 24.0803 21.5207 24.135 21.4442ZM26.2898 22.8878C26.3335 22.8223 26.3225 22.7238 26.2571 22.6801L24.3538 21.4113C24.2882 21.3676 24.2007 21.3895 24.1569 21.4551C24.1132 21.5207 24.1241 21.6192 24.1896 21.6629L26.0929 22.9316C26.1585 22.9754 26.246 22.9535 26.2898 22.8879V22.8878Z" fill="white"/>
<path d="M24.5507 23.0404C24.6053 22.9747 24.7038 22.9529 24.7694 23.0076L25.5678 23.631C25.6334 23.6856 25.6444 23.7841 25.5897 23.8498C25.5351 23.9153 25.4366 23.9373 25.3709 23.8825L24.5724 23.2591C24.507 23.2044 24.4959 23.106 24.5507 23.0404Z" fill="#F3F3F3"/>
<path d="M24.542 23.0357C24.5966 22.9592 24.706 22.9482 24.7826 23.003L25.581 23.6263C25.6575 23.681 25.6685 23.7904 25.6137 23.8669C25.5591 23.9436 25.4497 23.9544 25.3733 23.8998L24.5747 23.2763C24.4982 23.2217 24.4874 23.1123 24.542 23.0357ZM25.592 23.8561C25.6466 23.7904 25.6356 23.7029 25.57 23.6482L24.7716 23.0248C24.706 22.9811 24.6185 22.992 24.5639 23.0575C24.5091 23.1232 24.5201 23.2107 24.5857 23.2654L25.3841 23.8888C25.4497 23.9327 25.5372 23.9216 25.5918 23.8561H25.592Z" fill="white"/>
<path d="M22.9238 22.932C22.9895 22.8664 23.088 22.8664 23.1426 22.932L24.7613 24.5397C24.8271 24.6054 24.8161 24.7039 24.7613 24.7585C24.6959 24.8241 24.5973 24.8241 24.5426 24.7585L22.9238 23.1508C22.8692 23.0961 22.8692 22.9867 22.9238 22.932Z" fill="#F3F3F3"/>
<path d="M22.9246 22.9243C22.9567 22.8927 22.9999 22.875 23.045 22.875C23.09 22.875 23.1332 22.8927 23.1653 22.9243L24.7841 24.532C24.8157 24.5641 24.8334 24.6073 24.8334 24.6523C24.8334 24.6974 24.8157 24.7406 24.7841 24.7727C24.752 24.8042 24.7088 24.8219 24.6638 24.8219C24.6188 24.8219 24.5756 24.8042 24.5435 24.7727L22.9246 23.165C22.848 23.0993 22.848 22.99 22.9246 22.9243ZM24.7622 24.7508C24.8169 24.6961 24.8169 24.5977 24.7622 24.543L23.1434 22.9352C23.0888 22.8806 22.9903 22.8806 22.9357 22.9352C22.8809 22.9899 22.8809 23.0883 22.9357 23.143L24.5544 24.7508C24.6091 24.8165 24.6967 24.8165 24.7622 24.7508Z" fill="white"/>
<path d="M23.0256 24.5631C23.0913 24.5085 23.1897 24.5085 23.2444 24.5741L23.9117 25.3397C23.9663 25.4054 23.9554 25.5039 23.8897 25.5585C23.8242 25.6132 23.7257 25.6132 23.671 25.5476L23.0037 24.782C22.9491 24.7273 22.96 24.6289 23.0256 24.5631Z" fill="#F3F3F3"/>
<path d="M23.0137 24.5675C23.0903 24.502 23.1887 24.5128 23.2542 24.5784L23.9215 25.344C23.9871 25.4097 23.9761 25.519 23.8996 25.5847C23.823 25.6503 23.7246 25.6394 23.659 25.5738L22.9917 24.8082C22.9371 24.7316 22.9371 24.6222 23.0136 24.5675H23.0137ZM23.8887 25.5628C23.9542 25.5082 23.9542 25.4205 23.9105 25.3551L23.2433 24.5894C23.1886 24.5347 23.1011 24.5238 23.0355 24.5784C22.9699 24.6332 22.9699 24.7207 23.0136 24.7861L23.6809 25.5519C23.7355 25.6174 23.8231 25.6174 23.8886 25.5628H23.8887Z" fill="white"/>
<path d="M21.4494 24.1475C21.526 24.0929 21.6244 24.1148 21.6682 24.1913L22.9369 26.0834C22.9807 26.16 22.9588 26.2584 22.8932 26.3022C22.8167 26.3569 22.7182 26.335 22.6744 26.2584L21.4056 24.3662C21.3618 24.2898 21.3837 24.1912 21.4493 24.1475H21.4494Z" fill="#F3F3F3"/>
<path d="M21.4438 24.1397C21.5203 24.0851 21.6297 24.107 21.6844 24.1835L22.9531 26.0757C23.0077 26.1521 22.9858 26.2615 22.8984 26.3161C22.8218 26.3709 22.7125 26.349 22.6577 26.2724L21.3892 24.3803C21.3345 24.2929 21.3564 24.1945 21.4438 24.1398V24.1397ZM22.8875 26.2943C22.9531 26.2505 22.975 26.163 22.9312 26.0974L21.6626 24.2053C21.6188 24.1398 21.5313 24.1288 21.4549 24.1726C21.3892 24.2163 21.3673 24.3037 21.4111 24.3695L22.6797 26.2615C22.7235 26.3161 22.8219 26.338 22.8874 26.2942L22.8875 26.2943Z" fill="white"/>
<path d="M21.221 25.7644C21.2976 25.7207 21.396 25.7426 21.4397 25.8192L21.9429 26.7052C21.9866 26.7817 21.9537 26.8802 21.8772 26.9239C21.8006 26.9677 21.7022 26.9458 21.6585 26.8692L21.1554 25.9832C21.1226 25.9067 21.1445 25.8082 21.2209 25.7646L21.221 25.7644Z" fill="#F3F3F3"/>
<path d="M21.2203 25.7567C21.3078 25.7129 21.4063 25.7348 21.45 25.8114L21.9531 26.6974C21.9969 26.774 21.975 26.8834 21.8876 26.9271C21.8 26.9709 21.7015 26.949 21.6578 26.8724L21.1547 25.9864C21.1109 25.9098 21.1328 25.8114 21.2202 25.7567H21.2203ZM21.8765 26.9162C21.9422 26.8724 21.975 26.7849 21.9313 26.7193L21.4282 25.8333C21.3844 25.7677 21.2969 25.7458 21.2313 25.7785C21.1656 25.8223 21.1328 25.9098 21.1765 25.9754L21.6797 26.8615C21.7125 26.9271 21.8109 26.9599 21.8765 26.9161V26.9162Z" fill="white"/>
<path d="M19.7625 25.0439C19.85 25.0111 19.9375 25.0439 19.9704 25.1204L20.8563 27.2313C20.8891 27.3079 20.8454 27.4063 20.7688 27.4391C20.6923 27.4719 20.5938 27.4391 20.5611 27.3625L19.6751 25.2517C19.6423 25.1751 19.686 25.0767 19.7625 25.0439Z" fill="#F3F3F3"/>
<path d="M19.7655 25.0359C19.853 25.0031 19.9514 25.0359 19.9952 25.1234L20.8812 27.2343C20.897 27.2764 20.8956 27.323 20.8771 27.364C20.8586 27.405 20.8247 27.437 20.7827 27.453C20.6952 27.4859 20.5968 27.453 20.5531 27.3655L19.6672 25.2547C19.6343 25.178 19.6781 25.0797 19.7655 25.0359ZM20.7608 27.4312C20.8374 27.3984 20.8702 27.3109 20.8374 27.2453L19.9514 25.1343C19.9187 25.0578 19.8312 25.0249 19.7547 25.0578C19.6781 25.0905 19.6451 25.178 19.6781 25.2437L20.5639 27.3547C20.6077 27.4312 20.6843 27.464 20.7608 27.4312Z" fill="white"/>
<path d="M19.2264 26.5968C19.314 26.5641 19.4014 26.6078 19.4342 26.6953L19.7515 27.6578C19.7842 27.7343 19.7296 27.8328 19.6531 27.8547C19.5656 27.8874 19.4781 27.8437 19.4453 27.7562L19.1281 26.7937C19.0953 26.7172 19.139 26.6297 19.2265 26.5968H19.2264Z" fill="#F3F3F3"/>
<path d="M19.2166 26.589C19.2586 26.5732 19.3053 26.5747 19.3463 26.5931C19.3873 26.6116 19.4193 26.6455 19.4353 26.6875L19.7526 27.6499C19.7853 27.7374 19.7307 27.8359 19.6431 27.8687C19.601 27.8846 19.5544 27.8831 19.5134 27.8647C19.4724 27.8462 19.4404 27.8123 19.4243 27.7703L19.1071 26.8078C19.0852 26.7203 19.1291 26.6219 19.2166 26.589ZM19.6432 27.8467C19.7197 27.8249 19.7634 27.7374 19.7416 27.6609L19.4243 26.6984C19.4025 26.6219 19.315 26.589 19.2385 26.6109C19.1618 26.6328 19.1181 26.7203 19.14 26.7969L19.4572 27.7593C19.4628 27.7779 19.4722 27.7951 19.4849 27.8098C19.4975 27.8245 19.5131 27.8363 19.5307 27.8446C19.5482 27.8528 19.5673 27.8573 19.5867 27.8577C19.6061 27.8581 19.6253 27.8544 19.6432 27.8468V27.8467Z" fill="white"/>
<path d="M17.9375 25.6064C18.0249 25.5845 18.1125 25.6391 18.1234 25.7266L18.5828 27.969C18.6047 28.0564 18.539 28.133 18.4515 28.1548C18.3641 28.1767 18.2765 28.1221 18.2656 28.0346L17.8061 25.7922C17.7952 25.7157 17.8499 25.6282 17.9374 25.6063L17.9375 25.6064Z" fill="#F3F3F3"/>
<path d="M17.933 25.5901C18.0314 25.5684 18.1188 25.634 18.1407 25.7215L18.6001 27.9639C18.622 28.0513 18.5563 28.1498 18.4688 28.1607C18.3703 28.1826 18.2829 28.117 18.2611 28.0295L17.8016 25.7871C17.7798 25.6996 17.8346 25.6121 17.9329 25.5903L17.933 25.5901ZM18.4469 28.1388C18.5235 28.128 18.5782 28.0513 18.5672 27.9638L18.1079 25.7215C18.0971 25.6449 18.0096 25.5903 17.9329 25.6121C17.8564 25.623 17.8017 25.6996 17.8127 25.7871L18.272 28.0295C18.2938 28.1061 18.3703 28.1498 18.447 28.1389L18.4469 28.1388Z" fill="white"/>
<path d="M17.1043 27.0248C17.1918 27.0139 17.2683 27.0686 17.2902 27.1561L17.4214 28.1623C17.4324 28.2498 17.3668 28.3263 17.2791 28.3373C17.1918 28.3482 17.1152 28.2936 17.0933 28.2061L16.9621 27.1998C16.9512 27.1123 17.0168 27.0358 17.1043 27.0248Z" fill="#F3F3F3"/>
<path d="M17.1075 27.0168C17.206 27.006 17.2935 27.0716 17.3045 27.1591L17.4357 28.1653C17.4467 28.2528 17.3811 28.3403 17.2826 28.3513C17.1841 28.3622 17.0965 28.2966 17.0856 28.209L16.9543 27.2028C16.9434 27.1153 17.009 27.0278 17.1075 27.0168ZM17.2716 28.3294C17.3482 28.3185 17.4139 28.2419 17.403 28.1653L17.2716 27.1591C17.2607 27.0825 17.1841 27.0278 17.1075 27.0387C17.0309 27.0497 16.9652 27.1262 16.9761 27.2028L17.1075 28.2091C17.1184 28.2857 17.195 28.3403 17.2716 28.3294Z" fill="white"/>
<path d="M15.9765 25.7969C16.064 25.7969 16.1406 25.8626 16.1406 25.9501V28.236C16.1406 28.3235 16.064 28.3892 15.9765 28.3892C15.889 28.3892 15.8125 28.3235 15.8125 28.236V25.9501C15.8235 25.8626 15.889 25.7969 15.9765 25.7969Z" fill="#F3F3F3"/>
<path d="M15.9797 25.7891C16.0781 25.7891 16.1547 25.8656 16.1547 25.9531V28.2391C16.1547 28.3266 16.0781 28.4031 15.9797 28.4031C15.8812 28.4031 15.8047 28.3266 15.8047 28.2391V25.9532C15.8047 25.8657 15.8922 25.7891 15.9797 25.7891ZM15.9797 28.3813C16.0562 28.3813 16.1328 28.3157 16.1328 28.2391V25.9532C16.1328 25.8766 16.0672 25.811 15.9797 25.811C15.9031 25.811 15.8266 25.8766 15.8266 25.9532V28.2391C15.8374 28.3157 15.9031 28.3813 15.9797 28.3813Z" fill="white"/>
<path d="M14.8844 27.0246C14.9719 27.0356 15.0375 27.1012 15.0375 27.1887L14.9609 28.2059C14.9501 28.2934 14.8734 28.359 14.7859 28.3482C14.6984 28.3371 14.6328 28.2715 14.6328 28.184L14.7094 27.1668C14.7203 27.0794 14.7969 27.0137 14.8844 27.0246Z" fill="#F3F3F3"/>
<path d="M14.8875 27.0168C14.986 27.0277 15.0515 27.1043 15.0515 27.1918L14.975 28.2091C14.964 28.2966 14.8875 28.3732 14.789 28.3622C14.6907 28.3513 14.625 28.2747 14.625 28.1872L14.7015 27.1699C14.7125 27.0716 14.789 27.006 14.8875 27.0168ZM14.789 28.3403C14.8656 28.3403 14.9423 28.2857 14.9423 28.2091L15.0188 27.1918C15.0188 27.1152 14.964 27.0497 14.8765 27.0387C14.8 27.0387 14.7235 27.0933 14.7235 27.17L14.6469 28.1872C14.6469 28.2637 14.7125 28.3295 14.7892 28.3403H14.789Z" fill="white"/>
<path d="M14.0654 25.603C14.1529 25.6248 14.2076 25.7013 14.1966 25.7888L13.7482 28.0313C13.7263 28.1188 13.6498 28.1735 13.5623 28.1515C13.4748 28.1297 13.4201 28.0532 13.4311 27.9656L13.8795 25.7232C13.8905 25.6467 13.978 25.592 14.0654 25.603Z" fill="#F3F3F3"/>
<path d="M14.0639 25.5951C14.1623 25.617 14.217 25.7046 14.2061 25.792L13.7576 28.0343C13.7357 28.1218 13.6482 28.1874 13.5499 28.1655C13.4514 28.1436 13.3967 28.0561 13.4076 27.9686L13.8561 25.7264C13.878 25.6389 13.9655 25.5841 14.0638 25.5952L14.0639 25.5951ZM13.5499 28.1436C13.6264 28.1545 13.703 28.1109 13.7249 28.0343L14.1732 25.792C14.1842 25.7154 14.1405 25.6389 14.053 25.617C13.9764 25.6061 13.8999 25.6498 13.878 25.7265L13.4295 27.9686C13.4186 28.0561 13.4732 28.1218 13.5499 28.1436Z" fill="white"/>
<path d="M12.7483 26.5915C12.8359 26.6134 12.8905 26.7009 12.8686 26.7884L12.5952 27.7727C12.5734 27.8601 12.4859 27.9038 12.3984 27.8821C12.3775 27.877 12.3579 27.868 12.3406 27.8554C12.3232 27.8428 12.3085 27.8269 12.2974 27.8086C12.2862 27.7903 12.2787 27.77 12.2754 27.7488C12.2721 27.7276 12.273 27.706 12.278 27.6852L12.5515 26.7009C12.5734 26.6134 12.6609 26.5697 12.7484 26.5915H12.7483Z" fill="#F3F3F3"/>
<path d="M12.7554 26.5753C12.843 26.597 12.9086 26.6955 12.8757 26.783L12.6023 27.7674C12.5805 27.8549 12.482 27.9096 12.3945 27.8876C12.307 27.8658 12.2415 27.7674 12.2742 27.6799L12.5476 26.6955C12.5695 26.608 12.657 26.5532 12.7554 26.5751V26.5753ZM12.3945 27.8549C12.4711 27.8768 12.5586 27.833 12.5805 27.7564L12.8538 26.772C12.8757 26.6955 12.832 26.6189 12.7445 26.597C12.668 26.5751 12.5805 26.6189 12.5586 26.6955L12.2851 27.6799C12.2742 27.7564 12.3179 27.833 12.3945 27.8549Z" fill="white"/>
<path d="M12.2189 25.0487C12.3064 25.0814 12.3391 25.1798 12.3064 25.2564L11.4314 27.3674C11.3986 27.444 11.3001 27.4877 11.2236 27.444C11.147 27.4002 11.1032 27.3127 11.136 27.2362L12.011 25.1252C12.0438 25.0487 12.1423 25.0048 12.2187 25.0487H12.2189Z" fill="#F3F3F3"/>
<path d="M12.2173 25.0328C12.2593 25.0488 12.2933 25.0808 12.3117 25.1218C12.3302 25.1628 12.3316 25.2095 12.3157 25.2516L11.4407 27.3624C11.4078 27.4499 11.3094 27.4827 11.2109 27.4499C11.1689 27.4339 11.135 27.4019 11.1165 27.3609C11.0981 27.3199 11.0966 27.2732 11.1125 27.2312L11.9875 25.1203C12.0313 25.0328 12.1298 24.9891 12.2173 25.0328ZM11.2219 27.4281C11.2984 27.4608 11.3859 27.4281 11.4188 27.3515L12.2938 25.2406C12.3266 25.1641 12.2829 25.0874 12.2063 25.0547C12.1298 25.0219 12.0423 25.0547 12.0094 25.1312L11.1344 27.2421C11.1125 27.3077 11.1453 27.3952 11.2219 27.4281Z" fill="white"/>
<path d="M10.7377 25.7462C10.8143 25.7899 10.847 25.8773 10.8143 25.9539L10.3549 26.8616C10.3111 26.9381 10.2236 26.971 10.1361 26.9272C10.0595 26.8835 10.0268 26.796 10.0595 26.7195L10.519 25.8119C10.5627 25.7352 10.6502 25.7024 10.7377 25.7462Z" fill="#F3F3F3"/>
<path d="M10.7396 25.738C10.8271 25.7817 10.8599 25.8803 10.8162 25.9676L10.3568 26.8754C10.313 26.9629 10.2145 26.9958 10.1271 26.952C10.0396 26.9083 10.0068 26.8097 10.0506 26.7223L10.5099 25.8147C10.5537 25.7271 10.6521 25.6943 10.7396 25.738ZM10.1381 26.9302C10.2146 26.9629 10.3021 26.941 10.3349 26.8645L10.7943 25.9568C10.827 25.8911 10.7943 25.8036 10.7287 25.7599C10.6521 25.7272 10.5646 25.749 10.5318 25.8255L10.0724 26.7332C10.0396 26.7989 10.0724 26.8864 10.1381 26.9301V26.9302Z" fill="white"/>
<path d="M10.5178 24.1242C10.5944 24.1789 10.6163 24.2773 10.5616 24.3429L9.29284 26.2353C9.24914 26.3118 9.15058 26.3227 9.07414 26.279C8.9976 26.2243 8.97569 26.1259 9.03034 26.0602L10.2991 24.1678C10.3428 24.0914 10.4413 24.0694 10.5178 24.1241V24.1242Z" fill="#F3F3F3"/>
<path d="M10.5239 24.1163C10.6004 24.171 10.6223 24.2804 10.5785 24.357L9.3098 26.2493C9.25516 26.3257 9.1567 26.3476 9.0692 26.293C8.99265 26.2382 8.97074 26.1289 9.01444 26.0523L10.2833 24.1601C10.3379 24.0835 10.4473 24.0616 10.5239 24.1163ZM9.08015 26.2711C9.14564 26.3148 9.2442 26.3038 9.2879 26.2383L10.5567 24.346C10.6004 24.2804 10.5786 24.1929 10.5129 24.1491C10.4473 24.1054 10.3489 24.1164 10.3052 24.1819L9.03634 26.0632C8.99265 26.1289 9.01444 26.2273 9.08015 26.271V26.2711Z" fill="white"/>
<path d="M8.92307 24.535C8.98878 24.5897 9.01057 24.6881 8.95593 24.7537L8.32154 25.5521C8.26689 25.6177 8.16844 25.6287 8.10285 25.574C8.03725 25.5194 8.01535 25.4209 8.0701 25.3552L8.70438 24.5568C8.75903 24.4913 8.85748 24.4803 8.92307 24.535Z" fill="#F3F3F3"/>
<path d="M8.93257 24.5197C9.00912 24.5743 9.02007 24.6837 8.96531 24.7603L8.33101 25.5588C8.27637 25.6353 8.16696 25.6463 8.09041 25.5807C8.01386 25.5259 8.00291 25.4166 8.05767 25.3399L8.69197 24.5416C8.74662 24.4649 8.85602 24.4541 8.93257 24.5197ZM8.11232 25.5588C8.1778 25.6134 8.26542 25.6026 8.32006 25.5369L8.95447 24.7384C8.99828 24.6729 8.98722 24.5853 8.92173 24.5306C8.85602 24.4759 8.76852 24.4868 8.71387 24.5525L8.07946 25.3509C8.03577 25.4166 8.04672 25.5149 8.1122 25.5588H8.11232Z" fill="white"/>
<path d="M9.03106 22.893C9.09666 22.9585 9.09666 23.0571 9.03106 23.1117L7.41242 24.7195C7.34671 24.7852 7.24838 24.7742 7.19362 24.7195C7.13898 24.6648 7.12803 24.5554 7.19362 24.5008L8.80131 22.893C8.86702 22.8273 8.96547 22.8273 9.03106 22.893Z" fill="#F3F3F3"/>
<path d="M9.04132 22.8773C9.07283 22.9094 9.09049 22.9526 9.09049 22.9976C9.09049 23.0426 9.07283 23.0857 9.04132 23.1178L7.42257 24.7258C7.39048 24.7574 7.3473 24.775 7.30233 24.775C7.25735 24.775 7.21418 24.7574 7.18209 24.7258C7.15051 24.6937 7.13281 24.6505 7.13281 24.6055C7.13281 24.5605 7.15051 24.5172 7.18209 24.4851L8.80073 22.8773C8.83282 22.8458 8.87602 22.8281 8.92103 22.8281C8.96603 22.8281 9.00923 22.8458 9.04132 22.8773ZM7.19293 24.7148C7.24757 24.7694 7.34602 24.7694 7.40066 24.7148L9.01942 23.1069C9.07417 23.0522 9.07417 22.9538 9.01942 22.8991C8.96477 22.8444 8.86633 22.8444 8.81168 22.8991L7.19293 24.5069C7.13828 24.5616 7.13828 24.6492 7.19293 24.7147V24.7148Z" fill="white"/>
<path d="M7.38976 22.9788C7.44441 23.0443 7.44441 23.1429 7.37881 23.1976L6.60227 23.8539C6.53667 23.9086 6.43822 23.8976 6.38346 23.832C6.32881 23.7663 6.32881 23.668 6.39441 23.6132L7.17096 22.9569C7.23667 22.9022 7.33501 22.9131 7.38976 22.9788Z" fill="#F3F3F3"/>
<path d="M7.40039 22.9633C7.46598 23.0399 7.45503 23.1492 7.38944 23.204L6.61288 23.8601C6.54728 23.9258 6.43788 23.9149 6.37228 23.8383C6.30657 23.7617 6.31752 23.6524 6.38312 23.5976L7.15979 22.9415C7.22527 22.8759 7.33479 22.8869 7.40027 22.9634L7.40039 22.9633ZM6.39407 23.8274C6.44883 23.893 6.53633 23.893 6.60182 23.8493L7.37848 23.193C7.43313 23.1384 7.44408 23.0508 7.38944 22.9853C7.33468 22.9196 7.24718 22.9196 7.18169 22.9634L6.40503 23.6195C6.33943 23.6742 6.33943 23.7618 6.39407 23.8273V23.8274Z" fill="white"/>
<path d="M7.82882 21.4024C7.88346 21.479 7.86156 21.5774 7.78501 21.6212L5.88193 22.8899C5.80538 22.9336 5.70693 22.9117 5.66324 22.8461C5.60848 22.7696 5.63038 22.6711 5.70693 22.6273L7.61013 21.3587C7.67583 21.315 7.77417 21.3368 7.82893 21.4024H7.82882Z" fill="#F3F3F3"/>
<path d="M7.84285 21.4047C7.89749 21.4814 7.87559 21.5907 7.79904 21.6454L5.89598 22.9141C5.81944 22.9689 5.71004 22.9469 5.65539 22.8595C5.60064 22.7829 5.62265 22.6735 5.69909 22.6189L7.60226 21.3501C7.6788 21.2954 7.78809 21.3174 7.84273 21.4047H7.84285ZM5.6773 22.8376C5.72099 22.9032 5.80849 22.9251 5.87408 22.8814L7.77714 21.6126C7.84285 21.5689 7.86464 21.4814 7.80999 21.4048C7.7663 21.3391 7.6788 21.3174 7.61309 21.361L5.71004 22.6298C5.64444 22.6845 5.63349 22.772 5.6773 22.8376Z" fill="white"/>
<path d="M6.19726 21.1711C6.24107 21.2477 6.21917 21.3461 6.14262 21.3899L5.25665 21.893C5.1801 21.9367 5.08165 21.9039 5.03796 21.8274C4.99415 21.7509 5.01605 21.6524 5.0926 21.6086L5.97857 21.1056C6.05512 21.0618 6.15357 21.0946 6.19738 21.1711H6.19726Z" fill="#F3F3F3"/>
<path d="M6.2083 21.1633C6.25199 21.2508 6.23009 21.3493 6.15354 21.3931L5.2676 21.8961C5.19105 21.9398 5.08165 21.9071 5.03796 21.8305C4.99415 21.743 5.01605 21.6446 5.0926 21.6008L5.97854 21.0977C6.05509 21.0539 6.16449 21.0868 6.20818 21.1633H6.2083ZM5.04879 21.8196C5.0926 21.8961 5.1801 21.918 5.2457 21.8742L6.13164 21.3712C6.19723 21.3274 6.21913 21.2399 6.18639 21.1743C6.14259 21.0977 6.05509 21.0758 5.98949 21.1196L5.10355 21.6227C5.03796 21.6554 5.01605 21.743 5.04891 21.8196H5.04879Z" fill="white"/>
<path d="M6.93432 19.7171C6.96706 19.8046 6.93432 19.8921 6.84682 19.9249L4.73587 20.7999C4.65932 20.8327 4.56087 20.789 4.52812 20.7124C4.49527 20.6249 4.52812 20.5374 4.61562 20.5046L6.72658 19.6296C6.80312 19.5969 6.90158 19.6296 6.93432 19.7171Z" fill="#F3F3F3"/>
<path d="M6.94527 19.7109C6.97801 19.7984 6.94527 19.8969 6.85777 19.9406L4.74682 20.8156C4.70476 20.8314 4.65813 20.83 4.61714 20.8115C4.57615 20.7931 4.54414 20.7591 4.52812 20.7171C4.49527 20.6296 4.52812 20.5312 4.61562 20.4875L6.72658 19.6125C6.76864 19.5966 6.81527 19.5981 6.85626 19.6165C6.89724 19.635 6.92925 19.6689 6.94527 19.7109ZM4.54991 20.7062C4.58277 20.7828 4.67027 20.8157 4.73587 20.7937L6.84682 19.9187C6.92337 19.8859 6.95622 19.7984 6.92337 19.7219C6.89062 19.6453 6.80312 19.6125 6.73741 19.6344L4.62646 20.5094C4.54991 20.5421 4.51717 20.6296 4.54991 20.7063V20.7062Z" fill="white"/>
<path d="M5.39373 19.1718C5.42647 19.2593 5.38277 19.3468 5.29527 19.3796L4.33277 19.6968C4.25622 19.7295 4.15777 19.6749 4.13586 19.5984C4.10312 19.5109 4.14682 19.4234 4.23432 19.3906L5.19682 19.0734C5.27337 19.0406 5.36087 19.0843 5.39373 19.1718Z" fill="#F3F3F3"/>
<path d="M5.40288 19.1618C5.43574 19.2493 5.39205 19.3478 5.2936 19.3807L4.33111 19.6978C4.24361 19.7306 4.14516 19.6759 4.1123 19.5884C4.07956 19.5009 4.12325 19.4025 4.22182 19.3697L5.18419 19.0524C5.27169 19.0306 5.37014 19.0743 5.403 19.1619L5.40288 19.1618ZM4.13432 19.5776C4.15622 19.6541 4.24372 19.698 4.32027 19.6761L5.28276 19.3588C5.3593 19.337 5.39216 19.2495 5.37026 19.1729C5.34835 19.0963 5.26085 19.0525 5.18431 19.0744L4.22182 19.3917C4.14527 19.4245 4.11242 19.501 4.13432 19.5776Z" fill="white"/>
<path d="M6.37359 17.867C6.39538 17.9545 6.34073 18.042 6.25323 18.053L4.01099 18.4905C3.92349 18.5124 3.84694 18.4467 3.82515 18.3592C3.80325 18.2717 3.85789 18.1842 3.94539 18.1732L6.18763 17.7357C6.27513 17.7249 6.36263 17.7795 6.37347 17.867H6.37359Z" fill="#F3F3F3"/>
<path d="M6.39481 17.8729C6.41671 17.9714 6.35111 18.0589 6.26361 18.0807L4.02135 18.5182C3.93385 18.5401 3.84635 18.4745 3.82456 18.376C3.80266 18.2776 3.86826 18.1901 3.95576 18.1683L6.19802 17.7308C6.2854 17.7089 6.37302 17.7745 6.39481 17.8729ZM3.84635 18.3652C3.85731 18.4416 3.93385 18.4964 4.0104 18.4854L6.25266 18.0479C6.32921 18.037 6.38385 17.9495 6.36206 17.8729C6.35111 17.7964 6.27456 17.7416 6.1979 17.7526L3.95576 18.1901C3.87921 18.212 3.82456 18.2885 3.84635 18.3651V18.3652Z" fill="white"/>
<path d="M4.97795 17.0263C4.98879 17.1137 4.93415 17.1904 4.84665 17.2013L3.84045 17.3216C3.75284 17.3326 3.67629 17.2669 3.66545 17.1793C3.6545 17.0919 3.70915 17.0153 3.79665 17.0043L4.80295 16.884C4.8795 16.8731 4.967 16.9387 4.97795 17.0263Z" fill="#F3F3F3"/>
<path d="M4.98404 17.0294C4.99488 17.1277 4.92928 17.2152 4.84178 17.2261L3.83559 17.3465C3.74797 17.3574 3.66059 17.2918 3.64963 17.1934C3.63868 17.095 3.70428 17.0075 3.79178 16.9965L4.79809 16.8762C4.88547 16.8652 4.97309 16.9309 4.98392 17.0293L4.98404 17.0294ZM3.66047 17.1825C3.67142 17.259 3.74809 17.3247 3.82463 17.3136L4.83083 17.1934C4.90738 17.1825 4.96213 17.1059 4.95118 17.0294C4.94023 16.9527 4.86368 16.8871 4.78713 16.8981L3.78083 17.0184C3.70428 17.0294 3.64963 17.1059 3.66047 17.1825Z" fill="white"/>
<path d="M6.20139 15.9687C6.20139 16.0563 6.13591 16.1329 6.0483 16.1329H3.76247C3.67497 16.1329 3.60938 16.0563 3.60938 15.9688C3.60938 15.8813 3.67497 15.8047 3.76247 15.8047H6.04841C6.13591 15.8047 6.20162 15.8813 6.20162 15.9688L6.20139 15.9687Z" fill="#F3F3F3"/>
<path d="M6.2078 15.9641C6.2078 16.0626 6.13114 16.139 6.04364 16.139H3.7578C3.6703 16.139 3.59375 16.0625 3.59375 15.9641C3.59375 15.8657 3.6703 15.7891 3.7578 15.7891H6.04375C6.13125 15.7891 6.2078 15.8657 6.2078 15.9641ZM3.61554 15.9532C3.61554 16.0298 3.68114 16.1063 3.7578 16.1063H6.04364C6.12019 16.1063 6.1859 16.0407 6.1859 15.9532C6.1859 15.8767 6.12019 15.8 6.04364 15.8H3.7578C3.68125 15.811 3.61565 15.8767 3.61565 15.9532H3.61554Z" fill="white"/>
<path d="M4.98882 14.8609C4.97775 14.9484 4.91215 15.014 4.82465 15.014L3.80738 14.9375C3.71999 14.9265 3.6544 14.85 3.66524 14.7625C3.67619 14.675 3.7419 14.6094 3.8294 14.6094L4.84656 14.6859C4.92311 14.6969 4.98882 14.7734 4.98882 14.8609Z" fill="#E2E2E2"/>
<path d="M4.99472 14.8641C4.98377 14.9625 4.90722 15.0281 4.81972 15.0281L3.80247 14.9516C3.71508 14.9406 3.63853 14.8641 3.64949 14.7656C3.66032 14.6673 3.73698 14.6016 3.82448 14.6016L4.84162 14.6781C4.92912 14.6891 4.99472 14.7766 4.99472 14.8641ZM3.66032 14.7656C3.64949 14.8422 3.71508 14.9188 3.79163 14.9188L4.80888 14.9954C4.88532 14.9954 4.95103 14.9406 4.96198 14.8531C4.97293 14.7766 4.90722 14.7 4.83067 14.7L3.81342 14.6235C3.73698 14.6235 3.67128 14.6891 3.66032 14.7657V14.7656Z" fill="white"/>
<path d="M6.39703 14.0607C6.37513 14.1482 6.29858 14.2029 6.21108 14.192L3.96893 13.7326C3.88144 13.7107 3.82668 13.6342 3.84858 13.5467C3.87048 13.4592 3.94703 13.4044 4.03453 13.4155L6.27679 13.8639C6.35334 13.8857 6.40798 13.9732 6.39703 14.0607Z" fill="#F3F3F3"/>
<path d="M6.41041 14.0638C6.38851 14.1623 6.30101 14.217 6.21351 14.2061L3.97138 13.7576C3.88388 13.7357 3.81829 13.6482 3.84019 13.5499C3.86198 13.4513 3.94948 13.3967 4.03698 13.4076L6.27922 13.8561C6.36672 13.878 6.42137 13.9655 6.41041 14.0638ZM3.86198 13.5498C3.85103 13.6263 3.89472 13.7029 3.97138 13.7248L6.21363 14.1732C6.29017 14.1842 6.36672 14.1405 6.38862 14.0529C6.39946 13.9763 6.35577 13.8998 6.27911 13.8779L4.03709 13.4295C3.94959 13.4186 3.88399 13.4732 3.86209 13.5498H3.86198Z" fill="white"/>
<path d="M5.41346 12.7484C5.40843 12.7692 5.39936 12.7888 5.38674 12.8061C5.37412 12.8235 5.35822 12.8381 5.33993 12.8493C5.32164 12.8605 5.30133 12.8679 5.28016 12.8712C5.25899 12.8745 5.23737 12.8736 5.21655 12.8686L4.23213 12.5952C4.14463 12.5733 4.10094 12.4858 4.12273 12.3983C4.12775 12.3774 4.13683 12.3578 4.14945 12.3405C4.16206 12.3232 4.17797 12.3085 4.19626 12.2973C4.21454 12.2862 4.23485 12.2787 4.25602 12.2754C4.27719 12.2721 4.29881 12.273 4.31964 12.278L5.30405 12.5515C5.39155 12.5733 5.43525 12.6607 5.41346 12.7482V12.7484Z" fill="#F3F3F3"/>
<path d="M5.42673 12.7555C5.40494 12.8429 5.30648 12.9086 5.21898 12.8758L4.23456 12.6023C4.14706 12.5804 4.0923 12.482 4.11421 12.3946C4.13611 12.307 4.23456 12.2414 4.32206 12.2742L5.30648 12.5477C5.39399 12.5696 5.44875 12.6571 5.42673 12.7554V12.7555ZM4.14706 12.3944C4.12516 12.471 4.16896 12.5585 4.24551 12.5803L5.22994 12.8537C5.30648 12.8756 5.38303 12.8318 5.40494 12.7443C5.42673 12.6678 5.38303 12.5803 5.30648 12.5585L4.32206 12.2851C4.24551 12.2741 4.16896 12.3178 4.14706 12.3945V12.3944Z" fill="white"/>
<path d="M6.95636 12.2281C6.92362 12.3155 6.82505 12.3484 6.74862 12.3155L4.63755 11.4405C4.56101 11.4078 4.51731 11.3094 4.55005 11.2328C4.58291 11.1453 4.68136 11.1125 4.75791 11.1453L6.86886 12.0203C6.95636 12.053 6.98922 12.1515 6.95636 12.228V12.2281Z" fill="#F3F3F3"/>
<path d="M6.96879 12.2406C6.95277 12.2826 6.92074 12.3166 6.87973 12.335C6.83871 12.3535 6.79206 12.3549 6.74998 12.339L4.63901 11.464C4.55151 11.4313 4.51877 11.3329 4.55151 11.2344C4.56753 11.1924 4.59956 11.1584 4.64057 11.14C4.68159 11.1215 4.72825 11.1201 4.77032 11.136L6.88129 12.0109C6.96879 12.0546 7.00153 12.1532 6.96879 12.2406ZM4.57342 11.2454C4.54068 11.3219 4.57342 11.4094 4.64997 11.4421L6.76093 12.3171C6.83748 12.35 6.91403 12.3062 6.94688 12.2296C6.97963 12.1531 6.94688 12.0656 6.87034 12.0328L4.75937 11.1579C4.68282 11.136 4.59532 11.1688 4.57342 11.2454Z" fill="white"/>
<path d="M6.24769 10.7533C6.204 10.8299 6.1165 10.8627 6.03995 10.8299L5.1321 10.3706C5.05555 10.3377 5.02269 10.2392 5.0665 10.1517C5.11019 10.0752 5.19769 10.0423 5.27424 10.0752L6.18198 10.5346C6.25864 10.5783 6.2915 10.6769 6.24769 10.7533Z" fill="#F3F3F3"/>
<path d="M6.2568 10.7631C6.21299 10.8506 6.11454 10.8834 6.02704 10.8396L5.11931 10.3802C5.03181 10.3365 4.99895 10.2381 5.04276 10.1506C5.08645 10.0631 5.18502 10.0302 5.2724 10.074L6.18014 10.5334C6.26775 10.5662 6.30049 10.6757 6.2568 10.7631ZM5.0755 10.1615C5.04276 10.2381 5.06466 10.3256 5.14121 10.3584L6.04895 10.8178C6.11466 10.8506 6.20216 10.8178 6.24585 10.7521C6.27859 10.6756 6.2568 10.5881 6.18025 10.5552L5.26134 10.096C5.19574 10.0633 5.10824 10.0851 5.07539 10.1616L5.0755 10.1615Z" fill="white"/>
<path d="M7.85211 10.5459C7.79747 10.6226 7.70997 10.6445 7.63342 10.5898L5.74112 9.33201C5.66468 9.28821 5.65373 9.18976 5.69742 9.11321C5.74123 9.03666 5.83968 9.01476 5.91623 9.0694L7.81937 10.3382C7.88497 10.382 7.90687 10.4805 7.85211 10.5459Z" fill="#F3F3F3"/>
<path d="M7.86312 10.5551C7.80848 10.6317 7.69907 10.6535 7.62264 10.6098L5.73039 9.34101C5.65385 9.28636 5.63194 9.18791 5.68659 9.10052C5.74135 9.02386 5.85075 9.00196 5.9273 9.04576L7.81943 10.3145C7.90693 10.3692 7.91788 10.4785 7.86312 10.5551ZM5.70849 9.11136C5.6648 9.17696 5.67575 9.27541 5.74123 9.3191L7.64443 10.588C7.71003 10.6318 7.79752 10.6099 7.84133 10.5443C7.88502 10.4786 7.87407 10.3802 7.80859 10.3365L5.90528 9.06767C5.83968 9.02386 5.75218 9.04576 5.70838 9.11136H5.70849Z" fill="white"/>
<path d="M7.44904 8.9591C7.39439 9.0247 7.29594 9.0466 7.23034 8.99184L6.43188 8.36852C6.36628 8.31376 6.35533 8.21531 6.40998 8.14972C6.46462 8.08412 6.56308 8.06222 6.62879 8.11698L7.42714 8.7403C7.49285 8.79506 7.5038 8.89339 7.44904 8.9591Z" fill="#F3F3F3"/>
<path d="M7.45756 8.96834C7.40292 9.045 7.29352 9.05596 7.21697 9.0012L6.41854 8.37787C6.34199 8.32323 6.33104 8.21382 6.38579 8.13739C6.44044 8.06073 6.54984 8.04978 6.62627 8.10454L7.42471 8.72786C7.50137 8.78262 7.51232 8.89191 7.45756 8.96857V8.96834ZM6.40758 8.14812C6.35294 8.21371 6.36389 8.30121 6.42949 8.35585L7.22792 8.97941C7.29352 9.0231 7.38101 9.01215 7.43566 8.94655C7.49042 8.88096 7.47946 8.79346 7.41387 8.73882L6.61543 8.11526C6.54984 8.07157 6.46223 8.08252 6.4077 8.14812H6.40758Z" fill="white"/>
<path d="M9.07318 9.06318C9.0077 9.12889 8.90913 9.12889 8.85449 9.06318L7.22491 7.45542C7.15931 7.38982 7.17015 7.29137 7.22491 7.23661C7.29051 7.17113 7.38897 7.17113 7.44361 7.23661L9.06246 8.84448C9.12806 8.89913 9.12806 9.00853 9.07341 9.06329L9.07318 9.06318Z" fill="#F3F3F3"/>
<path d="M9.08054 9.07757C9.04845 9.10908 9.00527 9.12674 8.9603 9.12674C8.91533 9.12674 8.87215 9.10908 8.84006 9.07757L7.22115 7.46962C7.18957 7.43752 7.17187 7.39429 7.17188 7.34926C7.17188 7.30423 7.18957 7.26101 7.22115 7.22891C7.25325 7.19736 7.29645 7.17969 7.34145 7.17969C7.38645 7.17969 7.42965 7.19736 7.46175 7.22891L9.08054 8.83675C9.15709 8.90235 9.15709 9.01175 9.08054 9.07735V9.07757ZM7.24328 7.25081C7.18852 7.30557 7.18852 7.40402 7.24328 7.45855L8.86196 9.06639C8.91672 9.12115 9.01506 9.12115 9.0697 9.06639C9.12446 9.01175 9.12446 8.9133 9.0697 8.85865L7.45102 7.23997C7.39638 7.18533 7.30877 7.18533 7.24328 7.25093V7.25081Z" fill="white"/>
<path d="M8.97566 7.43348C8.91006 7.48824 8.81161 7.48824 8.75686 7.42253L8.08961 6.65694C8.03508 6.59134 8.04592 6.49289 8.11162 6.43824C8.17711 6.38348 8.27567 6.38348 8.33031 6.44908L8.99756 7.21479C9.05221 7.26944 9.04125 7.36789 8.97566 7.43348Z" fill="#F3F3F3"/>
<path d="M8.98998 7.4363C8.91343 7.5019 8.81498 7.49106 8.74927 7.42535L8.08213 6.65975C8.01653 6.59415 8.02748 6.48474 8.10403 6.41915C8.18058 6.35344 8.27903 6.36439 8.34463 6.4301L9.01188 7.19559C9.06653 7.27225 9.06653 7.38165 8.98998 7.4363ZM8.11498 6.44105C8.04927 6.4957 8.04927 6.5832 8.09308 6.64879L8.76033 7.4144C8.81498 7.46915 8.90248 7.48011 8.96808 7.42535C9.03367 7.3707 9.03367 7.28309 8.98998 7.2176L8.32272 6.45189C8.26808 6.38641 8.18046 6.38641 8.11498 6.44105Z" fill="white"/>
<path d="M10.5525 7.84914C10.4759 7.90379 10.3775 7.88188 10.3337 7.80534L9.05405 5.91309C9.01024 5.83654 9.03214 5.73809 9.09774 5.6944C9.17429 5.63976 9.27274 5.66166 9.31654 5.73821L10.5852 7.63034C10.64 7.70689 10.6181 7.80534 10.5525 7.84903V7.84914Z" fill="#F3F3F3"/>
<path d="M10.5547 7.86312C10.4782 7.91788 10.3688 7.89587 10.314 7.81943L9.0454 5.92716C8.99076 5.85061 9.01266 5.74132 9.10005 5.68667C9.17659 5.63192 9.28599 5.65382 9.34074 5.73037L10.6094 7.62253C10.664 7.71003 10.6421 7.80848 10.5547 7.86312ZM9.11088 5.70846C9.04529 5.75216 9.02339 5.83966 9.06719 5.90537L10.3358 7.79753C10.3796 7.86312 10.4671 7.87408 10.5436 7.83027C10.6093 7.78658 10.6312 7.69908 10.5874 7.63348L9.31884 5.75216C9.27504 5.68667 9.17659 5.66466 9.11111 5.70846H9.11088Z" fill="white"/>
<path d="M10.7805 6.23637C10.704 6.28006 10.6055 6.25827 10.5618 6.18172L10.0586 5.29577C10.0149 5.21922 10.0477 5.12077 10.1243 5.07696C10.2009 5.03327 10.2993 5.05506 10.343 5.13172L10.8461 6.01756C10.8789 6.09411 10.857 6.19256 10.7806 6.23637H10.7805Z" fill="#F3F3F3"/>
<path d="M10.7859 6.24733C10.6984 6.29102 10.6 6.26923 10.5563 6.19257L10.0531 5.30672C10.0094 5.23006 10.0313 5.12077 10.1188 5.07696C10.2063 5.03327 10.3047 5.05506 10.3484 5.13172L10.8515 6.01757C10.8953 6.09412 10.8734 6.19257 10.786 6.24733H10.7859ZM10.1297 5.08792C10.064 5.13161 10.0313 5.21911 10.075 5.28482L10.5782 6.17078C10.6219 6.23626 10.7094 6.25828 10.775 6.22542C10.8407 6.18173 10.8734 6.09412 10.8297 6.02852L10.3265 5.14256C10.2938 5.07708 10.1953 5.04411 10.1297 5.08792Z" fill="white"/>
<path d="M12.2374 6.95498C12.1501 6.98772 12.0625 6.95498 12.0297 6.87843L11.1438 4.76737C11.1111 4.69082 11.1548 4.59237 11.2313 4.55951C11.3188 4.52677 11.4063 4.55951 11.439 4.63606L12.3249 6.74702C12.3578 6.82356 12.3141 6.92202 12.2374 6.95476V6.95498Z" fill="#F3F3F3"/>
<path d="M12.2359 6.96876C12.1486 7.0015 12.0501 6.96876 12.0063 6.88114L11.1203 4.77032C11.1044 4.72824 11.1059 4.68159 11.1243 4.64057C11.1428 4.59956 11.1768 4.56753 11.2188 4.55151C11.3063 4.51877 11.4047 4.55151 11.4485 4.63901L12.3344 6.74995C12.3672 6.8265 12.3236 6.92495 12.2361 6.96876H12.2359ZM11.2407 4.57342C11.1641 4.60616 11.1313 4.69377 11.1641 4.75937L12.05 6.87019C12.0827 6.94674 12.1702 6.97948 12.2468 6.94674C12.3233 6.914 12.3563 6.82639 12.3233 6.76079L11.4375 4.64985C11.3937 4.5733 11.3171 4.54045 11.2406 4.5733L11.2407 4.57342Z" fill="white"/>
<path d="M12.7768 5.40504C12.6893 5.43778 12.6018 5.39397 12.5691 5.30659L12.2519 4.34398C12.2191 4.26744 12.2738 4.16899 12.3503 4.1472C12.4269 4.12529 12.5253 4.15815 12.558 4.24565L12.8753 5.20814C12.908 5.28468 12.8643 5.37218 12.7768 5.40492V5.40504Z" fill="#F3F3F3"/>
<path d="M12.7878 5.41556C12.7457 5.43142 12.6991 5.42996 12.6581 5.41151C12.6171 5.39305 12.5851 5.35911 12.5691 5.31711L12.2518 4.35461C12.219 4.26711 12.2737 4.16877 12.3613 4.13592C12.4034 4.12007 12.45 4.12152 12.491 4.13998C12.532 4.15843 12.564 4.19237 12.58 4.23437L12.8972 5.19687C12.9191 5.28437 12.8753 5.38282 12.7878 5.41556ZM12.3612 4.15782C12.2846 4.17961 12.2408 4.26711 12.2627 4.34366L12.58 5.30627C12.6018 5.38282 12.6893 5.41556 12.766 5.39366C12.8425 5.37187 12.8862 5.28437 12.8643 5.20782L12.5472 4.24521C12.5416 4.22664 12.5322 4.20946 12.5195 4.19477C12.5068 4.18009 12.4912 4.16823 12.4737 4.15998C12.4561 4.15172 12.4371 4.14726 12.4177 4.14687C12.3983 4.14647 12.3791 4.15017 12.3612 4.15771V4.15782Z" fill="white"/>
<path d="M14.0636 6.39702C13.9761 6.41893 13.8886 6.36428 13.8777 6.27667L13.4183 4.03454C13.3964 3.94704 13.4621 3.87049 13.5495 3.84859C13.6371 3.82668 13.7245 3.88133 13.7354 3.96894L14.1949 6.21118C14.2058 6.28762 14.1511 6.37512 14.0636 6.39702Z" fill="#F3F3F3"/>
<path d="M14.0621 6.41054C13.9637 6.43244 13.8762 6.36673 13.8543 6.27923L13.3949 4.03709C13.373 3.94959 13.4387 3.85113 13.5262 3.84018C13.6246 3.81828 13.7121 3.88399 13.7339 3.97149L14.1934 6.21375C14.2152 6.30113 14.1606 6.38875 14.0621 6.41054ZM13.5481 3.86209C13.4714 3.87304 13.4168 3.94959 13.4277 4.03709L13.8871 6.27934C13.8981 6.35578 13.9855 6.41054 14.0621 6.38863C14.1387 6.37768 14.1933 6.30113 14.1824 6.21363L13.723 3.97138C13.7012 3.89494 13.6246 3.85113 13.548 3.86209H13.5481Z" fill="white"/>
<path d="M14.8964 4.97797C14.809 4.98892 14.7324 4.93427 14.7105 4.84677L14.5793 3.84045C14.5684 3.75295 14.634 3.6764 14.7216 3.66545C14.809 3.6545 14.8855 3.70926 14.9074 3.79676L15.0386 4.80296C15.0495 4.89047 14.9839 4.96702 14.8964 4.97797Z" fill="#F3F3F3"/>
<path d="M14.8918 4.98402C14.7933 4.99497 14.7058 4.92938 14.6949 4.84176L14.5637 3.83556C14.5527 3.74806 14.6183 3.66056 14.7168 3.64961C14.8152 3.63877 14.9027 3.70437 14.9137 3.79187L15.0449 4.79807C15.0558 4.88557 14.9902 4.97307 14.8918 4.98402ZM14.7277 3.67151C14.6512 3.68247 14.5855 3.75901 14.5964 3.83556L14.7277 4.84188C14.7387 4.91842 14.8152 4.97307 14.8918 4.96212C14.9683 4.95128 15.034 4.87462 15.0231 4.79807L14.8918 3.79187C14.8808 3.71532 14.8043 3.66056 14.7277 3.67151Z" fill="white"/>
<path d="M16.075 28.9391C23.2271 28.9391 29.025 23.1411 29.025 15.9891C29.025 8.83697 23.2271 3.03906 16.075 3.03906C8.92291 3.03906 3.125 8.83697 3.125 15.9891C3.125 23.1411 8.92291 28.9391 16.075 28.9391Z" fill="url(#paint2_linear_23280_300065)" fill-opacity="0.2"/>
<path d="M25.0483 7.77344L14.603 14.4672H14.592V14.4781L14.5811 14.489L8.0625 25.2407L17.6437 17.5297L17.6546 17.5189V17.508L25.0485 7.77355L25.0483 7.77344Z" fill="black" fill-opacity="0.05"/>
<path d="M24.8484 7.14844L14.5234 14.4875L17.5859 17.5281L24.8484 7.14844Z" fill="#CD151E"/>
<path d="M14.5312 14.4657L16.0735 15.9859L24.8452 7.14844L14.5312 14.4657Z" fill="#FA5153"/>
<path d="M14.5359 14.4689L17.5984 17.5093L7.27344 24.8485L14.5359 14.4688V14.4689Z" fill="#ACACAC"/>
<path d="M7.27344 24.8485L16.0781 15.9891L14.5358 14.4688L7.27344 24.8485Z" fill="#EEEEEE"/>
<defs>
<linearGradient id="paint0_linear_23280_300065" x1="16" y1="30" x2="16" y2="2" gradientUnits="userSpaceOnUse">
<stop offset="0.25" stop-color="#DBDBDA"/>
<stop offset="1" stop-color="white"/>
</linearGradient>
<radialGradient id="paint1_radial_23280_300065" cx="0" cy="0" r="1" gradientUnits="userSpaceOnUse" gradientTransform="translate(17.8164 13.1523) scale(15.8073 15.8073)">
<stop stop-color="#2ABCE1"/>
<stop offset="0.11363" stop-color="#2ABBE1"/>
<stop offset="1" stop-color="#3375F8"/>
</radialGradient>
<linearGradient id="paint2_linear_23280_300065" x1="15.829" y1="12.2861" x2="9.78467" y2="23.1302" gradientUnits="userSpaceOnUse">
<stop stop-opacity="0"/>
<stop offset="1"/>
</linearGradient>
</defs>
</svg>
