<svg width="70" height="72" viewBox="0 0 70 72" fill="none" xmlns="http://www.w3.org/2000/svg">
<mask id="path-1-inside-1_23280_301028" fill="white">
<path d="M64.1203 14.8699C64.0689 11.8413 61.5724 9.44482 58.5442 9.51722L18.1664 10.4827C15.1382 10.5551 12.725 13.069 12.7764 16.0976L13.4561 56.1618C13.5075 59.1904 16.004 61.5868 19.0322 61.5144L59.41 60.5489C62.4382 60.4765 64.8514 57.9627 64.8 54.934L64.1203 14.8699Z"/>
</mask>
<path d="M59.41 60.5489L59.3928 59.8304L59.41 60.5489ZM64.8 54.934L65.5186 54.9218L64.8 54.934ZM13.4561 56.1618L14.1748 56.1496L13.4561 56.1618ZM19.0322 61.5144L19.0493 62.233L19.0322 61.5144ZM18.1664 10.4827L18.1836 11.2013L18.1664 10.4827ZM12.7764 16.0976L12.0578 16.1098L12.7764 16.0976ZM58.5442 9.51722L58.5271 8.79868L58.5442 9.51722ZM64.1203 14.8699L63.4016 14.8821L64.1203 14.8699ZM58.5614 10.2358L18.1836 11.2013L18.1492 9.76417L58.5271 8.79868L58.5614 10.2358ZM13.4951 16.0854L14.1748 56.1496L12.7375 56.1739L12.0578 16.1098L13.4951 16.0854ZM19.015 60.7959L59.3928 59.8304L59.4272 61.2675L19.0493 62.233L19.015 60.7959ZM64.0813 54.9462L63.4016 14.8821L64.8389 14.8577L65.5186 54.9218L64.0813 54.9462ZM59.3928 59.8304C62.0261 59.7674 64.126 57.5799 64.0813 54.9462L65.5186 54.9218C65.5767 58.3454 62.8503 61.1856 59.4272 61.2675L59.3928 59.8304ZM14.1748 56.1496C14.2194 58.7793 16.3856 60.8588 19.015 60.7959L19.0493 62.233C15.6224 62.3149 12.7956 59.6014 12.7375 56.1739L14.1748 56.1496ZM18.1836 11.2013C15.5503 11.2642 13.4504 13.4518 13.4951 16.0854L12.0578 16.1098C11.9997 12.6862 14.7261 9.84603 18.1492 9.76417L18.1836 11.2013ZM58.5271 8.79868C61.954 8.71673 64.7808 11.4302 64.8389 14.8577L63.4016 14.8821C63.357 12.2523 61.1908 10.1729 58.5614 10.2358L58.5271 8.79868Z" fill="#CFE0D9" mask="url(#path-1-inside-1_23280_301028)"/>
<path d="M0.910156 6.78145C0.910156 3.7524 3.36569 1.29688 6.39473 1.29688H47.4256C50.4546 1.29688 52.9102 3.7524 52.9102 6.78145V47.8123C52.9102 50.8413 50.4546 53.2969 47.4256 53.2969H6.39473C3.36568 53.2969 0.910156 50.8413 0.910156 47.8123V6.78145Z" fill="#CFE0D9"/>
<path d="M34.8849 41.1615L18.89 40.7544C18.5365 40.7454 18.2011 40.5964 17.9575 40.34C17.7139 40.0837 17.5821 39.7411 17.5911 39.3876C17.6001 39.0341 17.7491 38.6986 18.0055 38.455C18.2618 38.2114 18.6044 38.0796 18.9579 38.0886L34.9527 38.4957C35.3062 38.5047 35.6417 38.6538 35.8853 38.9101C36.1289 39.1665 36.2607 39.5091 36.2517 39.8626C36.2427 40.2161 36.0936 40.5515 35.8373 40.7951C35.581 41.0387 35.2384 41.1705 34.8849 41.1615Z" fill="url(#paint0_linear_23280_301028)"/>
<path d="M35.632 11.8346L19.6372 11.4274C18.762 11.4052 17.891 11.5555 17.0739 11.8698C16.2568 12.1842 15.5096 12.6564 14.875 13.2595C13.5933 14.4775 12.848 16.1548 12.803 17.9223L12.5316 28.5855C12.4866 30.3531 13.1456 32.0661 14.3636 33.3477C14.9667 33.9823 15.6889 34.492 16.489 34.8475C17.289 35.203 18.1513 35.3974 19.0265 35.4197L35.0213 35.8268C35.8965 35.8491 36.7675 35.6988 37.5846 35.3844C38.4017 35.0701 39.1489 34.5979 39.7835 33.9948C40.4181 33.3917 40.9277 32.6695 41.2832 31.8694C41.6387 31.0694 41.8332 30.2071 41.8554 29.3319L42.1269 18.6687C42.1491 17.7935 41.9988 16.9225 41.6845 16.1054C41.3701 15.2883 40.8979 14.5411 40.2948 13.9065C39.6917 13.2719 38.9695 12.7623 38.1695 12.4068C37.3694 12.0513 36.5072 11.8569 35.632 11.8346ZM24.2331 25.2689C24.3549 25.396 24.4503 25.5459 24.5138 25.7101C24.5774 25.8742 24.6078 26.0493 24.6033 26.2253C24.5988 26.4012 24.5595 26.5746 24.4877 26.7353C24.4159 26.896 24.313 27.0409 24.1849 27.1616C24.0578 27.2834 23.9079 27.3788 23.7438 27.4423C23.5796 27.5059 23.4045 27.5363 23.2285 27.5318C23.0526 27.5273 22.8793 27.488 22.7186 27.4162C22.5578 27.3444 22.413 27.2415 22.2922 27.1134L19.6943 24.3798C19.5725 24.2527 19.4771 24.1027 19.4136 23.9386C19.35 23.7744 19.3196 23.5993 19.3241 23.4234C19.3286 23.2474 19.3678 23.0741 19.4396 22.9134C19.5115 22.7527 19.6144 22.6078 19.7424 22.487L22.4761 19.8891C22.6035 19.768 22.7536 19.6732 22.9177 19.61C23.0818 19.5469 23.2567 19.5167 23.4324 19.5212C23.6082 19.5257 23.7814 19.5647 23.942 19.6361C24.1027 19.7075 24.2477 19.8098 24.3688 19.9373C24.4899 20.0647 24.5848 20.2148 24.6479 20.3788C24.711 20.5429 24.7412 20.7179 24.7367 20.8936C24.7323 21.0694 24.6932 21.2425 24.6218 21.4032C24.5504 21.5638 24.4481 21.7089 24.3206 21.83L22.5441 23.5053L24.2331 25.2689ZM34.916 24.7672L32.1824 27.3652C32.0553 27.4869 31.9053 27.5823 31.7412 27.6459C31.577 27.7094 31.4019 27.7398 31.226 27.7353C31.05 27.7309 30.8767 27.6916 30.716 27.6198C30.5553 27.548 30.4104 27.4451 30.2896 27.317C30.1679 27.1899 30.0724 27.0399 30.0089 26.8758C29.9454 26.7117 29.915 26.5365 29.9194 26.3606C29.9239 26.1846 29.9632 26.0113 30.035 25.8506C30.1068 25.6899 30.2097 25.545 30.3378 25.4243L32.1143 23.7489L30.4253 21.9854C30.1807 21.728 30.0484 21.384 30.0574 21.029C30.0619 20.8533 30.101 20.6801 30.1723 20.5195C30.2437 20.3588 30.3461 20.2138 30.4735 20.0927C30.601 19.9715 30.751 19.8767 30.9151 19.8136C31.0792 19.7505 31.2541 19.7203 31.4299 19.7248C31.7848 19.7338 32.1216 19.8835 32.3662 20.1408L34.9642 22.8745C35.086 23.0016 35.1814 23.1515 35.2449 23.3157C35.3084 23.4798 35.3388 23.6549 35.3344 23.8309C35.3299 24.0068 35.2906 24.1802 35.2188 24.3409C35.147 24.5016 35.0441 24.6465 34.916 24.7672Z" fill="url(#paint1_linear_23280_301028)"/>
<defs>
<linearGradient id="paint0_linear_23280_301028" x1="26.9553" y1="38.2922" x2="26.8875" y2="40.958" gradientUnits="userSpaceOnUse">
<stop stop-color="#3E8A8E"/>
<stop offset="1" stop-color="#5CBF90"/>
</linearGradient>
<linearGradient id="paint1_linear_23280_301028" x1="27.6346" y1="11.631" x2="27.0239" y2="35.6232" gradientUnits="userSpaceOnUse">
<stop stop-color="#3E8A8E"/>
<stop offset="1" stop-color="#5CBF90"/>
</linearGradient>
</defs>
</svg>
