<svg width="48" height="48" viewBox="0 0 48 48" fill="none" xmlns="http://www.w3.org/2000/svg">
<rect width="48" height="48" rx="4" fill="#F1F1F1"/>
<g clip-path="url(#clip0_23552_10763)">
<path d="M12.892 11.7734C12.8911 11.7734 12.8902 11.7734 12.8893 11.7734C12.5866 11.7734 12.302 11.8914 12.087 12.1058C11.8697 12.3226 11.75 12.6113 11.75 12.9185V30.0892C11.75 30.7189 12.2643 31.2324 12.8965 31.234C15.5619 31.2404 20.0275 31.7959 23.1081 35.0197V17.0501C23.1081 16.8367 23.0536 16.6362 22.9507 16.4702C20.4222 12.3984 15.5634 11.7797 12.892 11.7734Z" fill="#B4B4B4"/>
<path d="M36.2486 30.0893V12.9185C36.2486 12.6113 36.1289 12.3226 35.9116 12.1058C35.6966 11.8914 35.4118 11.7734 35.1094 11.7734C35.1085 11.7734 35.1075 11.7734 35.1066 11.7734C32.4353 11.7798 27.5765 12.3985 25.0479 16.4703C24.945 16.6363 24.8906 16.8368 24.8906 17.0502V35.0197C27.9713 31.7959 32.4368 31.2404 35.1022 31.234C35.7344 31.2324 36.2486 30.7189 36.2486 30.0893Z" fill="#B4B4B4"/>
<path d="M38.8554 15.7344H38.0252V30.0904C38.0252 31.698 36.7153 33.0089 35.1052 33.0129C32.8444 33.0183 29.1166 33.4604 26.4766 35.9591C31.0426 34.8411 35.8559 35.5679 38.5991 36.193C38.9416 36.271 39.2956 36.1904 39.57 35.9717C39.8435 35.7535 40.0003 35.4274 40.0003 35.0773V16.8793C40.0004 16.248 39.4867 15.7344 38.8554 15.7344Z" fill="#B4B4B4"/>
<path d="M9.97517 30.0904V15.7344H9.14489C8.51373 15.7344 8 16.248 8 16.8793V35.077C8 35.4272 8.15688 35.7532 8.43033 35.9714C8.70454 36.19 9.05816 36.2709 9.40122 36.1927C12.1444 35.5674 16.9579 34.8408 21.5237 35.9588C18.8837 33.4602 15.156 33.0182 12.8952 33.0128C11.2851 33.0089 9.97517 31.698 9.97517 30.0904Z" fill="#B4B4B4"/>
</g>
<defs>
<clipPath id="clip0_23552_10763">
<rect width="32" height="32" fill="white" transform="translate(8 8)"/>
</clipPath>
</defs>
</svg>
