<svg width="24" height="24" viewBox="0 0 24 24" fill="none" xmlns="http://www.w3.org/2000/svg">
<rect x="2.75" y="2.75" width="18.5" height="18.5" rx="3.25" stroke="#56c081" stroke-width="1.5"/>
<path d="M5.41883 12.4897L7.83214 14.903C7.88779 14.9606 7.95437 15.0066 8.02798 15.0382C8.10158 15.0698 8.18075 15.0864 8.26086 15.0871C8.34097 15.0878 8.42042 15.0726 8.49456 15.0422C8.56871 15.0119 8.63607 14.9671 8.69272 14.9104C8.74937 14.8538 8.79417 14.7864 8.8245 14.7123C8.85484 14.6381 8.8701 14.5587 8.86941 14.4786C8.86871 14.3985 8.85207 14.3193 8.82045 14.2457C8.78883 14.1721 8.74287 14.1055 8.68524 14.0499L6.69849 12.0631L8.68524 10.0764C8.74287 10.0207 8.78883 9.95413 8.82045 9.88052C8.85207 9.80691 8.86871 9.72774 8.86941 9.64763C8.8701 9.56752 8.85484 9.48808 8.8245 9.41393C8.79417 9.33978 8.74937 9.27242 8.69272 9.21577C8.63607 9.15912 8.56871 9.11433 8.49456 9.08399C8.42042 9.05365 8.34097 9.03839 8.26086 9.03909C8.18075 9.03978 8.10158 9.05642 8.02798 9.08804C7.95437 9.11966 7.88779 9.16563 7.83214 9.22325L5.41883 11.6366C5.30573 11.7497 5.24219 11.9031 5.24219 12.0631C5.24219 12.2231 5.30573 12.3765 5.41883 12.4897Z" fill="#56c081"/>
<path d="M15.9201 9.22325C15.8645 9.16563 15.7979 9.11966 15.7243 9.08804C15.6507 9.05642 15.5715 9.03978 15.4914 9.03909C15.4113 9.03839 15.3318 9.05365 15.2577 9.08399C15.1835 9.11433 15.1162 9.15912 15.0595 9.21577C15.0029 9.27242 14.9581 9.33978 14.9277 9.41393C14.8974 9.48808 14.8821 9.56752 14.8828 9.64763C14.8835 9.72774 14.9002 9.80691 14.9318 9.88052C14.9634 9.95413 15.0094 10.0207 15.067 10.0764L17.0538 12.0631L15.067 14.0499C15.0094 14.1055 14.9634 14.1721 14.9318 14.2457C14.9002 14.3193 14.8835 14.3985 14.8828 14.4786C14.8821 14.5587 14.8974 14.6381 14.9277 14.7123C14.9581 14.7864 15.0029 14.8538 15.0595 14.9104C15.1162 14.9671 15.1835 15.0119 15.2577 15.0422C15.3318 15.0726 15.4113 15.0878 15.4914 15.0871C15.5715 15.0864 15.6507 15.0698 15.7243 15.0382C15.7979 15.0066 15.8645 14.9606 15.9201 14.903L18.3334 12.4897C18.4465 12.3765 18.5101 12.2231 18.5101 12.0631C18.5101 11.9031 18.4465 11.7497 18.3334 11.6366L15.9201 9.22325Z" fill="#56c081"/>
<path d="M12.499 7.6785L10.0857 16.1251C10.0418 16.2788 10.0607 16.4438 10.1383 16.5836C10.2159 16.7234 10.3459 16.8267 10.4996 16.8708C10.5536 16.8857 10.6094 16.8934 10.6655 16.8937C10.7966 16.8936 10.9241 16.8508 11.0287 16.7718C11.1334 16.6927 11.2094 16.5818 11.2453 16.4557L13.6586 8.00912C13.6838 7.93199 13.6931 7.85057 13.6861 7.76974C13.679 7.68892 13.6558 7.61034 13.6177 7.53871C13.5795 7.46709 13.5274 7.40388 13.4643 7.35288C13.4012 7.30187 13.3285 7.26412 13.2504 7.24187C13.1724 7.21963 13.0907 7.21335 13.0102 7.22341C12.9297 7.23347 12.852 7.25966 12.7819 7.30042C12.7117 7.34118 12.6505 7.39567 12.6019 7.46064C12.5533 7.5256 12.5183 7.5997 12.499 7.6785Z" fill="#56c081"/>
</svg>
