<svg version="1.2" xmlns="http://www.w3.org/2000/svg" viewBox="0 0 24 24" width="24" height="24">
	<title>emoji-svg</title>
	<style>
		.s0 { fill: #56c081 } 
	</style>
	<path id="Layer" fill-rule="evenodd" class="s0" d="m23 12.2c0 6.2-4.8 10.8-11 10.8-6.2 0-11-4.6-11-10.8 0-6.2 4.6-11.2 10.8-11.2 6.2 0 11.2 5 11.2 11.2zm-1.6 0c0-5.3-4.3-9.6-9.6-9.6-5.2 0-9.2 4.3-9.2 9.6 0 5.3 4.1 9.2 9.4 9.2 5.3 0 9.4-3.9 9.4-9.2zm-3.3 0.8c0 0 0 5.3-6.1 5.5-6.2-0.3-6.1-5.8-6.1-5.5 0 0 6.1 1.4 12.2 0zm-10.4-3.4c0-1 0.7-1.9 1.5-1.9 0.7 0 1.4 0.9 1.4 1.9 0 1.1-0.7 2-1.4 2-0.8 0-1.5-0.9-1.5-2zm-1 4.5c0.2 0.8 2.1 1.9 5.6 1.9 4.3 0 5-1.9 5-1.9-4.7 1-10.6 0-10.6 0zm7-4.5c0-1 0.6-1.9 1.4-1.9 0.8 0 1.4 0.9 1.4 1.9 0 1.1-0.6 2-1.4 2-0.8 0-1.4-0.9-1.4-2z"/>
</svg>