<svg width="20" height="20" viewBox="0 0 20 20" fill="none" xmlns="http://www.w3.org/2000/svg">
<path d="M14.8933 14.982L16.1826 13.2274C16.2042 13.1979 16.2352 13.1756 16.2711 13.1638C16.307 13.1519 16.346 13.1511 16.3824 13.1614C16.4189 13.1717 16.4509 13.1926 16.4739 13.2211C16.497 13.2497 16.5098 13.2843 16.5106 13.3201C16.5106 14.2137 16.5106 15.107 16.5106 16.0002C16.5106 17.085 15.786 17.9692 14.6777 18.2495C14.4475 18.3055 14.2105 18.3328 13.9727 18.3306C11.272 18.3306 8.57137 18.3306 5.87069 18.3306C4.41583 18.3306 3.33435 17.3352 3.33384 15.9988C3.33143 12.0007 3.33143 8.00251 3.33384 4.00413C3.33384 2.65897 4.41686 1.66649 5.88203 1.66552C8.57618 1.66358 11.2705 1.66358 13.965 1.66552C15.4302 1.66552 16.5101 2.65946 16.5111 4.0051C16.5111 5.50231 16.5111 6.99919 16.5111 8.49575C16.511 8.52892 16.5002 8.56128 16.4802 8.58854L15.1909 10.3423C15.1692 10.3717 15.1382 10.394 15.1023 10.4058C15.0664 10.4177 15.0275 10.4185 14.991 10.4082C14.9546 10.3979 14.9226 10.377 14.8996 10.3485C14.8765 10.3199 14.8637 10.2853 14.8629 10.2495C14.8629 8.17675 14.8629 6.10517 14.8629 4.03472C14.8629 3.48189 14.5364 3.18264 13.9346 3.18264H5.90937C5.30958 3.18264 4.98106 3.48385 4.98106 4.03911V15.9604C4.98106 16.5128 5.30907 16.813 5.90937 16.813H13.933C14.5328 16.813 14.8582 16.5118 14.8582 15.9565V15.0743C14.8596 15.0409 14.8719 15.0087 14.8933 14.982Z" fill="#18232D"/>
<path d="M13.6636 15.8286L12.6471 16.1662C12.6211 16.1751 12.5933 16.1783 12.5658 16.1754C12.5383 16.1725 12.5119 16.1636 12.4887 16.1495C12.4655 16.1354 12.446 16.1164 12.4319 16.094C12.4178 16.0716 12.4093 16.0464 12.4073 16.0205L12.3557 15.0163C12.3538 14.9807 12.3645 14.9455 12.3861 14.9163L16.9353 8.73651C16.9627 8.7002 17.0039 8.67528 17.0504 8.66704C17.0969 8.65879 17.1449 8.66785 17.1844 8.6923L18.253 9.35784C18.2724 9.3697 18.2891 9.38509 18.3021 9.40315C18.3151 9.4212 18.324 9.44154 18.3285 9.46292C18.333 9.48431 18.3328 9.50632 18.3281 9.52765C18.3234 9.54899 18.3141 9.56921 18.301 9.58712L13.7528 15.7659C13.7307 15.795 13.6995 15.817 13.6636 15.8286Z" fill="#00C569"/>
<path d="M13.2157 4.57031H6.62579C6.45247 4.57026 6.28596 4.63386 6.16164 4.74762C6.10072 4.80327 6.05226 4.86986 6.01913 4.94346C5.986 5.01705 5.96887 5.09614 5.96875 5.17608C5.96886 5.25609 5.98598 5.33527 6.01911 5.40894C6.05224 5.48262 6.1007 5.5493 6.16164 5.60504C6.28596 5.7188 6.45247 5.7824 6.62579 5.78235H13.2157C13.389 5.7824 13.5556 5.7188 13.6799 5.60504C13.7409 5.54932 13.7894 5.48266 13.8226 5.40899C13.8558 5.33532 13.8731 5.25612 13.8733 5.17608C13.8731 5.09611 13.8558 5.017 13.8226 4.94341C13.7894 4.86982 13.7409 4.80325 13.6799 4.74762C13.5556 4.63386 13.389 4.57026 13.2157 4.57031ZM13.2157 7.2373H6.62579C6.45247 7.23725 6.28596 7.30085 6.16164 7.41461C6.10072 7.47026 6.05226 7.53685 6.01913 7.61045C5.986 7.68404 5.96887 7.76313 5.96875 7.84307C5.96886 7.92308 5.98598 8.00226 6.01911 8.07593C6.05224 8.14961 6.1007 8.21629 6.16164 8.27203C6.28596 8.38579 6.45247 8.44939 6.62579 8.44934H13.2157C13.389 8.44939 13.5556 8.38579 13.6799 8.27203C13.7409 8.21631 13.7894 8.14965 13.8226 8.07598C13.8558 8.00231 13.8731 7.92311 13.8733 7.84307C13.8731 7.7631 13.8558 7.68399 13.8226 7.6104C13.7894 7.53681 13.7409 7.47024 13.6799 7.41461C13.5556 7.30085 13.389 7.23725 13.2157 7.2373Z" fill="#18232D"/>
<path d="M12.1647 9.91413H6.6294C6.54377 9.91297 6.45874 9.92775 6.37918 9.95758C6.29961 9.98741 6.22708 10.0317 6.16572 10.088C6.10435 10.1443 6.05537 10.2114 6.02158 10.2855C5.98778 10.3596 5.96983 10.4393 5.96875 10.5199C5.97079 10.6826 6.04131 10.8378 6.1648 10.9515C6.2883 11.0651 6.45467 11.128 6.62733 11.1262H12.1626C12.2481 11.1271 12.333 11.1122 12.4125 11.0823C12.4919 11.0523 12.5643 11.0079 12.6255 10.9517C12.6867 10.8954 12.7355 10.8282 12.7692 10.7542C12.8028 10.6801 12.8207 10.6005 12.8217 10.5199C12.8195 10.3576 12.7492 10.2027 12.626 10.0892C12.5029 9.97567 12.337 9.9127 12.1647 9.91413Z" fill="#18232D"/>
</svg>
