<svg width="18" height="20" viewBox="0 0 18 20" fill="none" xmlns="http://www.w3.org/2000/svg">
<path fill-rule="evenodd" clip-rule="evenodd" d="M12.8186 1.0646C12.7751 0.741343 12.5001 0.492188 12.1674 0.492188C11.8045 0.492188 11.5102 0.788703 11.5102 1.15447V1.89017H5.74955V1.15447L5.74356 1.0646C5.70004 0.741343 5.42508 0.492188 5.09237 0.492188C4.72941 0.492188 4.43518 0.788703 4.43518 1.15447V1.9062C1.73855 2.08949 0.078125 3.83494 0.078125 6.65246V14.6437C0.078125 17.6654 1.93713 19.4812 4.91587 19.4812H12.3272C15.3095 19.4812 17.165 17.6958 17.165 14.7105V6.65246C17.1736 3.83692 15.522 2.09268 12.8246 1.90671V1.15447L12.8186 1.0646ZM11.5102 3.21767V4.06038L11.5162 4.15025C11.5598 4.47351 11.8347 4.72267 12.1674 4.72267C12.5304 4.72267 12.8246 4.42615 12.8246 4.06038V3.23761C14.7855 3.40233 15.8552 4.58458 15.8489 6.65336V7.03329H1.39079V6.6554C1.39079 4.5837 2.47072 3.39835 4.43518 3.23674V4.06038L4.44118 4.15025C4.48469 4.47351 4.75966 4.72267 5.09237 4.72267C5.45532 4.72267 5.74955 4.42615 5.74955 4.06038V3.21767H11.5102ZM1.39079 8.35785V14.6467C1.39079 16.9274 2.65229 18.1595 4.91417 18.1595H12.3255C14.5952 18.1595 15.8489 16.9532 15.8489 14.7135L15.8489 8.35785H1.39079ZM13.1813 11.1441C13.1813 10.7783 12.8871 10.4818 12.5241 10.4818L12.4268 10.4879C12.106 10.5317 11.8588 10.8088 11.8588 11.1441C11.8588 11.5099 12.153 11.8064 12.5241 11.8064L12.6133 11.8003C12.9341 11.7565 13.1813 11.4794 13.1813 11.1441ZM8.63802 10.4818C9.00097 10.4818 9.29521 10.7783 9.29521 11.1441C9.29521 11.4794 9.04797 11.7565 8.72719 11.8003L8.63802 11.8064C8.26694 11.8064 7.97271 11.5099 7.97271 11.1441C7.97271 10.8088 8.21995 10.5317 8.54072 10.4879L8.63802 10.4818ZM5.40169 11.1441C5.40169 10.7783 5.10746 10.4818 4.74451 10.4818L4.64721 10.4879C4.32644 10.5317 4.0792 10.8088 4.0792 11.1441C4.0792 11.5099 4.37343 11.8064 4.73639 11.8064L4.83368 11.8003C5.15446 11.7565 5.40169 11.4794 5.40169 11.1441ZM12.5241 13.9081C12.8871 13.9081 13.1813 14.2046 13.1813 14.5704C13.1813 14.9057 12.9341 15.1828 12.6133 15.2266L12.5241 15.2327C12.153 15.2327 11.8588 14.9362 11.8588 14.5704C11.8588 14.2351 12.106 13.958 12.4268 13.9142L12.5241 13.9081ZM9.29521 14.5704C9.29521 14.2046 9.00097 13.9081 8.63802 13.9081L8.54072 13.9142C8.21995 13.958 7.97271 14.2351 7.97271 14.5704C7.97271 14.9362 8.26694 15.2327 8.63802 15.2327L8.72719 15.2266C9.04797 15.1828 9.29521 14.9057 9.29521 14.5704ZM4.74451 13.9081C5.10746 13.9081 5.40169 14.2046 5.40169 14.5704C5.40169 14.9057 5.15446 15.1828 4.83368 15.2266L4.73639 15.2327C4.37343 15.2327 4.0792 14.9362 4.0792 14.5704C4.0792 14.2351 4.32644 13.958 4.64721 13.9142L4.74451 13.9081Z" fill="#0FA76F"/>
</svg>
