<svg width="20" height="20" viewBox="0 0 20 20" fill="none" xmlns="http://www.w3.org/2000/svg">
<path d="M16.4798 1.66406C16.4694 1.66406 16.4592 1.66416 16.4489 1.66436L5.18431 1.66406C4.16297 1.66406 3.33203 2.53984 3.33203 3.61631V15.0369C3.33203 16.1134 4.16297 16.9892 5.18431 16.9892H8.82369V18.3298L10.6758 17.5009L12.5282 18.3307V16.9892H14.0101C15.0314 16.9892 15.8623 16.1134 15.8623 15.0369V6.57721H16.4798C17.5011 6.57721 18.332 5.70143 18.332 4.62497V3.61631C18.332 2.53984 17.5011 1.66406 16.4798 1.66406ZM11.2934 16.3634L10.6761 16.0869L10.0585 16.3633V15.232C10.0628 15.232 10.0671 15.2321 10.0715 15.2321C10.1804 15.2321 10.2908 15.2128 10.3977 15.1728L10.676 15.0688L10.9541 15.1728C11.0653 15.2144 11.1802 15.2336 11.2934 15.232V16.3634ZM12.1952 12.4143C12.1848 12.4283 12.1749 12.4427 12.1656 12.4576C12.0299 12.6744 12.0299 12.892 12.0299 13.0089V13.2491L11.8188 13.313C11.6024 13.3787 11.413 13.5222 11.2854 13.7172L11.1812 13.8766L11.0033 13.8101C10.7921 13.7311 10.5597 13.7311 10.3489 13.81L10.1707 13.8766L10.0665 13.7172C9.93899 13.5222 9.74954 13.3787 9.53294 13.313L9.32209 13.2491V13.0924C9.32209 13.0786 9.32233 13.0652 9.32258 13.052C9.32487 12.9129 9.32919 12.6545 9.15321 12.4158L9.04733 12.2707L9.15407 12.1236C9.33021 11.8836 9.32499 11.618 9.32249 11.49C9.3223 11.4811 9.32209 11.4725 9.32209 11.4642V11.2778L9.48908 11.2409C9.50388 11.2376 9.51858 11.2338 9.53313 11.2294C9.74957 11.1637 9.93899 11.0202 10.0665 10.8252L10.1707 10.6658L10.3486 10.7323C10.5597 10.8113 10.7921 10.8113 11.003 10.7324L11.1812 10.6658L11.2854 10.8252C11.413 11.0202 11.6024 11.1637 11.819 11.2294L12.0299 11.2933V11.4503C12.0299 11.4606 12.0297 11.4714 12.0296 11.4825C12.0277 11.6361 12.0244 11.914 12.2117 12.1448L12.3029 12.2696L12.1952 12.4143ZM14.6275 3.61631V15.0369C14.6275 15.3958 14.3505 15.6877 14.0101 15.6877H12.5282V14.4524L12.5303 14.4518C12.9521 14.324 13.2725 13.86 13.2647 13.3913V13.0861L13.4018 12.9021C13.6776 12.5316 13.6783 12.0145 13.4039 11.6433L13.2647 11.4528V11.0606C13.2647 10.6065 12.9764 10.2259 12.5303 10.0907L12.2492 10.0055L12.0851 9.75469C11.8351 9.3724 11.37 9.21419 10.9542 9.36963L10.6759 9.47367L10.3978 9.36969C9.98189 9.214 9.51673 9.37236 9.26677 9.75465L9.10963 9.99492L8.84154 10.0541C8.82675 10.0574 8.81208 10.0612 8.7976 10.0657C8.36953 10.1954 8.07887 10.6068 8.08711 11.0689V11.4514L7.9473 11.6441C7.67424 12.0144 7.67449 12.5293 7.94801 12.8993L8.08711 13.0898V13.4885C8.07942 13.9367 8.36647 14.3139 8.8215 14.4517L8.8236 14.4524V15.6877H5.18431C4.84386 15.6877 4.56688 15.3957 4.56688 15.0369V3.61631C4.56688 3.25749 4.84386 2.96556 5.18431 2.96556H14.7333C14.6648 3.16917 14.6275 3.38825 14.6275 3.61631ZM17.0972 4.62497C17.0972 4.98379 16.8202 5.27572 16.4798 5.27572H15.8623V3.61631C15.8623 3.25749 16.1393 2.96556 16.4798 2.96556C16.8202 2.96556 17.0972 3.25749 17.0972 3.61631V4.62497Z" fill="black"/>
<path d="M12.7453 4.375H6.48669C6.12729 4.375 5.83594 4.66635 5.83594 5.02575C5.83594 5.38515 6.12729 5.6765 6.48669 5.6765H12.7453C13.1047 5.6765 13.396 5.38515 13.396 5.02575C13.396 4.66635 13.1047 4.375 12.7453 4.375Z" fill="#00C569"/>
<path d="M9.65813 6.97656H6.48669C6.12729 6.97656 5.83594 7.26791 5.83594 7.62731C5.83594 7.98671 6.12729 8.27806 6.48669 8.27806H9.65813C10.0175 8.27806 10.3089 7.98671 10.3089 7.62731C10.3089 7.26791 10.0175 6.97656 9.65813 6.97656Z" fill="#00C569"/>
</svg>
