<svg width="24" height="24" viewBox="0 0 24 24" fill="none" xmlns="http://www.w3.org/2000/svg">
<path d="M20.662 4.17483H19.1386C19.1357 4.14443 19.1311 4.11424 19.1246 4.08435C19.0249 3.54447 18.7457 3.05043 18.3291 2.6769C17.9125 2.30336 17.3811 2.07058 16.8151 2.01366C16.7216 2.00393 16.6275 1.99938 16.5334 2.00007H7.46286C6.84698 2.00236 6.25149 2.21287 5.78018 2.59492C5.30888 2.97697 4.99167 3.50632 4.88389 4.09065C4.87732 4.12052 4.87357 4.14679 4.86982 4.17666H3.33051C2.9652 4.19033 2.62037 4.34278 2.37136 4.60072C2.12235 4.85865 1.98939 5.20109 2.00157 5.55318V11.3272C1.9772 12.0156 2.23672 12.6853 2.72335 13.1899C3.20998 13.6944 3.88413 13.9927 4.5984 14.0196C4.814 14.0042 5.01557 13.9108 5.16268 13.7581C5.30979 13.6054 5.39154 13.4048 5.39154 13.1965C5.39154 12.9882 5.30979 12.7875 5.16268 12.6349C5.01557 12.4822 4.814 12.3888 4.5984 12.3734C4.3212 12.3623 4.05975 12.2461 3.871 12.0502C3.68226 11.8542 3.58151 11.5944 3.59067 11.3272V6.53056C3.58703 6.37856 3.63522 6.22964 3.72784 6.10655C3.82046 5.98346 3.95239 5.893 4.10345 5.84909H4.9609L6.01655 16.1599C6.07727 16.7847 6.37574 17.3659 6.85449 17.7913C7.33325 18.2167 7.95841 18.4564 8.60959 18.4641H11.1172V20.1393H7.87139C7.75879 20.1393 7.64731 20.1607 7.54328 20.2022C7.43925 20.2437 7.34472 20.3046 7.26509 20.3813C7.18547 20.458 7.12232 20.5491 7.07923 20.6494C7.03613 20.7496 7.01394 20.8571 7.01394 20.9656V21.1701C7.01356 21.2789 7.03548 21.3867 7.07839 21.4873C7.12131 21.5879 7.18439 21.6794 7.26403 21.7565C7.34368 21.8335 7.43831 21.8947 7.54253 21.9365C7.64676 21.9783 7.75851 21.9999 7.87139 22H16.2911C16.5195 22 16.7385 21.9126 16.9001 21.757C17.0616 21.6013 17.1523 21.3902 17.1523 21.1701V20.9656C17.1513 20.7461 17.0601 20.5359 16.8987 20.3811C16.7373 20.2262 16.5188 20.1393 16.2911 20.1393H13.0453V18.4641H15.3688C16.0248 18.4625 16.6565 18.2248 17.1399 17.7975C17.6233 17.3701 17.9235 16.7842 17.9816 16.1545L19.0551 5.84368H19.9003C20.0503 5.88876 20.1811 5.97961 20.2729 6.10252C20.3647 6.22543 20.4126 6.37374 20.4093 6.52514V11.3217C20.4182 11.5889 20.3174 11.8486 20.1287 12.0445C19.94 12.2404 19.6787 12.3566 19.4016 12.3679C19.186 12.3833 18.9844 12.4767 18.8373 12.6294C18.6902 12.7821 18.6085 12.9827 18.6085 13.1911C18.6085 13.3994 18.6902 13.6 18.8373 13.7527C18.9844 13.9053 19.186 13.9988 19.4016 14.0142C20.1159 13.9873 20.79 13.6889 21.2767 13.1844C21.7633 12.6798 22.0228 12.0101 21.9984 11.3217V5.54771C22.0096 5.19502 21.8751 4.85249 21.6246 4.59514C21.3741 4.33779 21.0279 4.18665 20.662 4.17483V4.17483ZM17.4688 4.63275L16.3005 15.9934C16.28 16.2173 16.1733 16.4256 16.0014 16.5774C15.8295 16.7291 15.6048 16.8133 15.3716 16.8133H8.60959C8.3798 16.8079 8.16007 16.7215 7.992 16.5704C7.82393 16.4192 7.71919 16.214 7.69765 15.9934L6.53214 4.63275C6.51915 4.5065 6.53339 4.37905 6.57396 4.25835C6.61452 4.13765 6.68054 4.02634 6.76788 3.9314C6.85266 3.83877 6.95663 3.76425 7.07309 3.71266C7.18955 3.66107 7.31592 3.63355 7.44408 3.63185H16.5353C16.7843 3.63185 17.0232 3.72715 17.1994 3.89688C17.3755 4.0666 17.4744 4.29684 17.4744 4.53686C17.4744 4.56673 17.4716 4.60108 17.4679 4.63275H17.4688Z" fill="#18232D"/>
<path d="M8.15626 6.48849C8.15564 6.38114 8.17706 6.27474 8.21926 6.1754C8.26146 6.07605 8.32363 5.98576 8.40218 5.90965C8.48073 5.83353 8.57412 5.77311 8.67698 5.73189C8.77984 5.69068 8.89011 5.66947 9.00151 5.66948L15.0019 5.66406C15.2252 5.66526 15.439 5.75156 15.5965 5.90418C15.754 6.0568 15.8425 6.2633 15.8425 6.47854V6.47854C15.8431 6.58589 15.8217 6.69229 15.7795 6.79163C15.7373 6.89097 15.6751 6.98132 15.5965 7.05743C15.518 7.13355 15.4246 7.19392 15.3217 7.23513C15.2189 7.27635 15.1086 7.29761 14.9972 7.29761L8.99684 7.30302C8.77348 7.30183 8.55968 7.21547 8.40218 7.06285C8.24467 6.91023 8.15626 6.70373 8.15626 6.48849V6.48849Z" fill="#00C569"/>
</svg>
