<svg width="20" height="20" viewBox="0 0 20 20" fill="none" xmlns="http://www.w3.org/2000/svg">
<path fill-rule="evenodd" clip-rule="evenodd" d="M9.9974 18.3307C5.3974 18.3307 1.66406 14.6057 1.66406 9.9974C1.66406 5.3974 5.3974 1.66406 9.9974 1.66406C14.6057 1.66406 18.3307 5.3974 18.3307 9.9974C18.3307 14.6057 14.6057 18.3307 9.9974 18.3307ZM12.6557 13.0891C12.7557 13.1474 12.8641 13.1807 12.9807 13.1807C13.1891 13.1807 13.3974 13.0724 13.5141 12.8724C13.6891 12.5807 13.5974 12.1974 13.2974 12.0141L10.3307 10.2474V6.3974C10.3307 6.0474 10.0474 5.7724 9.70573 5.7724C9.36406 5.7724 9.08073 6.0474 9.08073 6.3974V10.6057C9.08073 10.8224 9.19739 11.0224 9.38906 11.1391L12.6557 13.0891Z" fill="#32A3FC"/>
</svg>
