<svg width="471" height="186" viewBox="0 0 471 186" fill="none" xmlns="http://www.w3.org/2000/svg">
<g clip-path="url(#clip0_3397_34248)">
<path d="M185.113 44.0118C185.432 44.0118 185.649 43.8295 185.911 43.5055C185.453 43.1656 185.09 42.7358 184.851 42.25C184.62 42.4805 184.305 42.6312 183.961 42.6753C184.24 43.185 184.632 43.6396 185.113 44.0118Z" fill="#FF0B4F"/>
<path d="M178.848 131.438C178.315 131.643 177.74 131.749 177.159 131.748C177.14 132.026 177.23 132.3 177.414 132.525C178.008 132.532 178.6 132.46 179.17 132.31C178.848 131.975 178.741 131.772 178.848 131.438Z" fill="#FF0B4F"/>
<g filter="url(#filter0_f_3397_34248)">
<path d="M399.21 122.547C398.896 122.669 398.615 122.852 398.388 123.081C398.162 123.31 397.995 123.58 397.898 123.873C398.706 124.621 399.407 125.455 399.986 126.354C400.205 126.088 400.501 125.878 400.841 125.746C400.113 124.762 399.563 123.682 399.21 122.547Z" fill="#76C0FF"/>
</g>
<path d="M363.855 16.1745C364.681 15.5185 365.242 14.6399 365.452 13.6736C364.307 13.5745 363.227 13.1522 362.372 12.4688C361.565 13.0596 360.901 13.7899 360.422 14.6153C361.669 14.9343 362.834 15.4637 363.855 16.1745Z" fill="#163A76"/>
<path d="M316.891 15.9844C316.768 16.1448 316.694 16.3308 316.676 16.5242C316.658 16.7176 316.697 16.9118 316.789 17.088C317.177 17.2354 317.609 17.2674 318.02 17.1791C318.172 16.7256 318.47 16.321 318.876 16.0148C318.219 16.1209 317.544 16.1106 316.891 15.9844Z" fill="#FFAD3B"/>
<path d="M415.508 106.472C415.554 106.564 415.578 106.664 415.578 106.765C415.578 106.866 415.554 106.966 415.508 107.059C416.129 107.068 416.748 106.993 417.344 106.836C417.394 106.596 417.375 106.349 417.287 106.117C416.737 106.367 416.125 106.489 415.508 106.472Z" fill="#FFAD3B"/>
<path d="M294.885 20.6253C294.442 20.4895 293.96 20.4895 293.516 20.6253C293.38 20.8932 293.195 21.1394 292.969 21.3543C293.3 21.3543 293.471 21.4859 293.71 21.8302C294.028 21.376 294.424 20.9693 294.885 20.6253Z" fill="#76C0FF"/>
<path d="M256.031 24.4558C256.577 24.8793 257.26 25.1381 257.982 25.1949C257.974 24.518 258.205 23.8558 258.643 23.3016C258.153 22.8637 257.567 22.5192 256.921 22.2891C256.785 23.0556 256.483 23.7915 256.031 24.4558Z" fill="#163A76"/>
<g filter="url(#filter1_f_3397_34248)">
<path d="M456.461 20.9576C456.584 21.3389 456.619 21.7385 456.564 22.1321C457.373 21.829 458.225 21.6246 459.096 21.5246C459.254 21.1597 459.254 20.7556 459.096 20.3906C458.197 20.4939 457.313 20.684 456.461 20.9576Z" fill="#163A76"/>
</g>
<g filter="url(#filter2_f_3397_34248)">
<path d="M431.484 117.535C432.621 118.129 433.474 119.073 433.88 120.187C435.318 118.865 436.498 117.339 437.37 115.672C436.459 114.928 435.377 114.368 434.199 114.031C433.604 115.366 432.676 116.564 431.484 117.535Z" fill="#FF1D5C"/>
</g>
<path d="M179.164 151.029C179.665 151.273 180.038 151.657 180.214 152.109C180.878 151.573 181.43 150.953 181.849 150.273C181.444 149.957 180.958 149.717 180.427 149.57C180.146 150.127 179.714 150.626 179.164 151.029Z" fill="#76C0FF"/>
<g filter="url(#filter3_f_3397_34248)">
<path d="M420.857 152.849C420.708 152.386 420.666 151.9 420.732 151.422C419.743 151.789 418.703 152.037 417.641 152.161C417.443 152.603 417.443 153.096 417.641 153.538C418.74 153.422 419.82 153.191 420.857 152.849Z" fill="#163A76"/>
</g>
<g filter="url(#filter4_f_3397_34248)">
<path d="M197.934 126.117C198.561 125.935 198.881 125.56 199.36 124.922C197.618 123.853 196.114 122.507 194.923 120.953C194.543 121.411 194 121.743 193.383 121.895C194.544 123.574 196.095 125.013 197.934 126.117Z" fill="#163A76"/>
</g>
<g filter="url(#filter5_f_3397_34248)">
<path d="M450.253 173.281C449.911 172.896 449.476 172.583 448.981 172.364C448.487 172.145 447.943 172.026 447.391 172.016C446.426 173.405 445.277 174.686 443.969 175.833C444.522 176.036 445.008 176.36 445.383 176.774C446.802 175.402 448.444 174.225 450.253 173.281Z" fill="#FFAD3B"/>
</g>
<path d="M275.125 10.3281C275.031 10.5835 274.862 10.8119 274.635 10.9899C274.409 11.1679 274.133 11.289 273.836 11.3406C274.423 11.8769 275.141 12.2857 275.935 12.5354C276.193 12.4733 276.428 12.3516 276.617 12.1827C276.805 12.0137 276.94 11.8036 277.007 11.5735C276.257 11.3288 275.603 10.8961 275.125 10.3281Z" fill="#163A76"/>
<path d="M181.401 40.8828C181.436 40.4958 181.552 40.118 181.743 39.7691C181.542 39.6712 181.309 39.6356 181.082 39.6678C180.874 40.0174 180.728 40.3929 180.648 40.7816C180.991 40.6904 181.196 40.7006 181.401 40.8828Z" fill="#FFAD3B"/>
<path d="M405.026 88.1484C404.732 88.6145 404.528 89.121 404.422 89.6469C404.804 89.711 405.199 89.6795 405.563 89.5558C405.561 89.2222 405.685 88.8977 405.916 88.6344C405.735 88.6222 405.56 88.5717 405.405 88.4872C405.25 88.4026 405.12 88.2865 405.026 88.1484Z" fill="#FFAD3B"/>
<path d="M243.861 9.73438C243.828 10.0843 243.882 10.4365 244.02 10.7656C244.158 11.0947 244.376 11.3926 244.66 11.6379C245.937 11.3355 247.25 11.1656 248.572 11.1316C248.392 10.7834 248.317 10.3995 248.355 10.0179C246.85 10.1271 245.334 10.0315 243.861 9.73438Z" fill="#76C0FF"/>
<g filter="url(#filter6_f_3397_34248)">
<path d="M238.914 70.309C240.304 70.3264 241.639 70.7827 242.668 71.5922C243.207 69.756 243.391 67.8549 243.21 65.9667C241.934 65.7299 240.614 65.7299 239.337 65.9667C239.562 67.4236 239.417 68.9054 238.914 70.309Z" fill="#163A76"/>
</g>
<path d="M213.326 46.2584C213.964 45.2459 215.071 44.527 218.082 43.7676C217.47 42.6381 216.467 41.7121 215.219 41.125C213.339 41.7513 211.674 42.7975 210.383 44.1625C211.591 44.5639 212.622 45.2985 213.326 46.2584Z" fill="#FF1D5C"/>
<g filter="url(#filter7_f_3397_34248)">
<path d="M395.025 106.049C395.829 105.474 396.406 104.672 396.668 103.764C395.62 103.598 394.657 103.127 393.917 102.422C393.128 102.932 392.464 103.59 391.969 104.353C393.098 104.727 394.136 105.304 395.025 106.049Z" fill="#163A76"/>
</g>
<g filter="url(#filter8_f_3397_34248)">
<path d="M415.466 84.4118C415.457 84.0164 415.336 83.6298 415.116 83.2895C414.896 82.9491 414.583 82.6664 414.209 82.4688C413.386 82.622 412.645 83.0276 412.109 83.6185C412.445 84.5346 412.493 85.5186 412.248 86.4584C413.158 85.5838 414.253 84.8876 415.466 84.4118Z" fill="#76C0FF"/>
</g>
<g filter="url(#filter9_f_3397_34248)">
<path d="M413.285 36.4105C413.563 36.1919 413.741 35.8902 413.786 35.5624C412.67 35.2901 411.618 34.8402 410.682 34.2344C410.581 34.5306 410.375 34.7893 410.094 34.9709C411.029 35.6502 412.118 36.1412 413.285 36.4105Z" fill="#163A76"/>
</g>
<path d="M312.24 142.64C312.73 142.353 313.124 141.955 313.38 141.486C313.196 141.212 312.91 141.004 312.57 140.898C312.324 141.365 311.927 141.756 311.43 142.022C311.611 142.059 311.78 142.134 311.921 142.242C312.062 142.349 312.172 142.486 312.24 142.64Z" fill="#76C0FF"/>
<g filter="url(#filter10_f_3397_34248)">
<path d="M184.597 168.566C184.857 169.794 184.597 171.063 183.867 172.13C186.071 172.243 188.28 172.028 190.403 171.493C190.447 170.32 190.206 169.153 189.696 168.07C188.407 168.587 186.981 168.607 184.597 168.566Z" fill="#76C0FF"/>
</g>
<path d="M150.188 144.013C150.726 145.005 151.61 145.818 152.708 146.331C153.544 146.089 154.418 145.963 155.297 145.957C154.704 145.41 154.681 144.873 155.001 143.82C153.419 144.117 151.793 144.182 150.188 144.013Z" fill="#76C0FF"/>
<path d="M271.969 150.453C272.302 150.204 272.534 149.867 272.631 149.491C272.2 149.432 271.801 149.255 271.49 148.984C271.164 149.204 270.896 149.484 270.703 149.805C271.167 149.948 271.597 150.168 271.969 150.453Z" fill="#FF1D5C"/>
<g filter="url(#filter11_f_3397_34248)">
<path d="M405.531 132.844C404.993 133.181 404.592 133.664 404.391 134.221C405.069 134.364 405.677 134.698 406.124 135.172C406.67 134.885 407.137 134.494 407.493 134.028C406.757 133.753 406.09 133.351 405.531 132.844Z" fill="#FF1D5C"/>
</g>
<path d="M273.219 159.894C273.303 160.055 273.427 160.198 273.581 160.312C273.734 160.425 273.915 160.508 274.108 160.552C274.572 160.132 275.093 159.765 275.66 159.459C275.484 159.347 275.342 159.197 275.249 159.023C274.627 159.406 273.942 159.699 273.219 159.894Z" fill="#76C0FF"/>
<path d="M343.327 91.4944C343.205 91.3242 343.036 91.1839 342.837 91.0866C342.637 90.9893 342.414 90.9381 342.186 90.9375C341.86 91.2048 341.643 91.5611 341.57 91.95C341.993 92.2718 342.306 92.6929 342.471 93.165C342.623 92.5617 342.915 91.9928 343.327 91.4944Z" fill="#76C0FF"/>
<path d="M246.116 76.2684C246.218 76.1765 246.278 76.0726 246.292 75.9653C246.306 75.858 246.273 75.7505 246.196 75.6516C245.52 75.7161 244.826 75.691 244.172 75.5781C244.242 75.7968 244.161 76.0221 243.945 76.2097C244.654 76.3103 245.393 76.3302 246.116 76.2684Z" fill="#FFAD3B"/>
<path d="M407.414 47.1013C408.355 47.7182 409.133 48.5094 409.695 49.4199C410.864 47.6609 412.299 46.0528 413.961 44.641C413.694 43.6466 413.014 42.7785 412.056 42.2109C410.297 43.6725 408.738 45.3141 407.414 47.1013Z" fill="#76C0FF"/>
<g filter="url(#filter12_f_3397_34248)">
<path d="M152.78 6.80813C152.13 6.74738 151.491 6.46388 150.499 5.39062C150.035 5.88872 149.767 6.50708 149.734 7.15238C150.457 7.78206 151.348 8.23846 152.324 8.47876C152.266 7.8926 152.426 7.30582 152.78 6.80813Z" fill="#FF1D5C"/>
</g>
<g filter="url(#filter13_f_3397_34248)">
<path d="M448.575 76.0193C448.485 75.8422 448.455 75.6459 448.487 75.4538C448.52 75.2617 448.614 75.0819 448.758 74.9359C448.153 74.8877 447.544 74.964 446.978 75.1587C446.868 75.3072 446.803 75.479 446.791 75.6568C446.779 75.8345 446.82 76.012 446.91 76.1712C447.435 75.9732 448.016 75.9203 448.575 76.0193Z" fill="#FF0B4F"/>
</g>
<g filter="url(#filter14_f_3397_34248)">
<path d="M446.68 33.5179C447.729 33.8217 448.642 34.5305 449.908 36.6365C450.872 35.9742 451.571 35.0551 451.904 34.0141C450.972 32.7365 449.688 31.6911 448.174 30.9766C447.995 31.9439 447.471 32.8347 446.68 33.5179Z" fill="#FFAD3B"/>
</g>
<g filter="url(#filter15_f_3397_34248)">
<path d="M158.172 103.616C158.462 103.691 158.731 103.821 158.961 103.995C159.191 104.17 159.377 104.385 159.506 104.628C160.733 103.62 161.789 102.461 162.643 101.186C162.251 100.62 161.691 100.161 161.023 99.8594C160.462 101.313 159.479 102.609 158.172 103.616Z" fill="#FF1D5C"/>
</g>
<g filter="url(#filter16_f_3397_34248)">
<path d="M470.831 46.4977C470.309 46.2356 469.698 46.1494 469.109 46.2547C469.212 47.9235 468.968 49.5949 468.391 51.1856C468.955 51.1731 469.508 51.3261 469.965 51.621C470.662 49.9877 470.958 48.2408 470.831 46.4977Z" fill="#FF0B4F"/>
</g>
<g filter="url(#filter17_f_3397_34248)">
<path d="M180.727 4.31788C180.198 4.09784 179.614 4.00185 179.031 4.03908C178.448 4.0763 177.885 4.24548 177.397 4.5305C177.106 5.50221 177.19 6.53248 177.636 7.45664C179.049 7.6256 180.379 8.14897 181.469 8.96527C180.873 7.476 180.62 5.89548 180.727 4.31788Z" fill="#FF1D5C"/>
</g>
<g filter="url(#filter18_f_3397_34248)">
<path d="M219.266 5.8869C220.903 6.00172 222.538 5.64679 223.931 4.87439C224.173 3.86084 224.593 2.88718 225.174 1.98875C224.033 2.23176 223.36 1.89763 222.22 0.875C221.545 2.67563 220.547 4.36794 219.266 5.8869Z" fill="#FF0B4F"/>
</g>
<g filter="url(#filter19_f_3397_34248)">
<path d="M179.907 45.5625C179.907 46.4501 179.343 47.299 177.492 48.7268C178.382 49.3269 179.474 49.6652 180.606 49.6916C181.708 48.6967 182.485 47.4728 182.863 46.1413C181.83 46.2207 180.795 46.0181 179.907 45.5625Z" fill="#FF0B4F"/>
</g>
<g filter="url(#filter20_f_3397_34248)">
<path d="M381.902 4.69602C382.186 5.80663 382.087 6.9674 381.617 8.02716C381.855 8.03036 382.09 8.07798 382.306 8.16694C382.523 8.2559 382.715 8.38421 382.872 8.54354C383.472 7.41816 383.705 6.16593 383.545 4.9289C383.031 4.72244 382.463 4.64203 381.902 4.69602Z" fill="#FFAD3B"/>
</g>
<g filter="url(#filter21_f_3397_34248)">
<path d="M443.998 7.67239C444.367 7.27725 444.565 6.77822 444.557 6.26501C442.753 6.05446 441.006 5.55714 439.401 4.79688C439.319 5.27942 439.054 5.72248 438.648 6.05238C440.281 6.92581 442.105 7.47825 443.998 7.67239Z" fill="#FFAD3B"/>
</g>
<g filter="url(#filter22_f_3397_34248)">
<path d="M164.915 35.8823C164.126 35.3188 163.154 34.9958 162.143 34.9609C161.618 35.3988 161.022 35.764 160.375 36.0443C161.037 36.2671 161.265 36.6417 161.436 37.5226C162.489 36.8146 163.664 36.2608 164.915 35.8823Z" fill="#FF1D5C"/>
</g>
<g filter="url(#filter23_f_3397_34248)">
<path d="M157.749 74.6278C158.285 74.807 158.864 74.8573 159.429 74.7737C159.994 74.6902 160.524 74.4757 160.965 74.1519C161.141 73.1956 160.961 72.2146 160.452 71.3574C159.058 71.3099 157.708 70.9094 156.562 70.2031C157.292 71.5914 157.695 73.0968 157.749 74.6278Z" fill="#76C0FF"/>
</g>
<g filter="url(#filter24_f_3397_34248)">
<path d="M406.828 6.21485C407.483 5.11561 407.915 3.92307 408.106 2.69134C407.254 2.59439 406.388 2.69919 405.597 2.99509C405.623 3.77458 405.358 4.53996 404.844 5.17197C405.241 5.20372 405.626 5.31382 405.969 5.49424C406.312 5.67466 406.606 5.92085 406.828 6.21485Z" fill="#FFAD3B"/>
</g>
<path d="M203.336 97.6563C204.472 99.5357 206.28 101.019 208.472 101.869C209.264 99.8266 210.756 98.0592 212.734 96.8176C211.759 95.0166 210.381 93.414 208.685 92.1094C207.316 94.2481 205.5 96.1313 203.336 97.6563Z" fill="#76C0FF"/>
<path d="M390.178 85.0078C389.747 85.9399 389.102 86.7874 388.281 87.4995C388.691 87.8987 389.242 88.1703 389.849 88.2721C390.697 87.5531 391.413 86.7277 391.973 85.8239C391.025 85.7695 390.532 85.6171 390.178 85.0078Z" fill="#FF1D5C"/>
<g filter="url(#filter25_f_3397_34248)">
<path d="M430.906 70.9555C431.283 71.968 432.104 72.4642 433.609 72.9805C434.578 71.2541 435.983 69.7501 437.716 68.5863C436.588 68.0668 435.71 67.2041 435.241 66.1562C433.436 67.4713 431.96 69.1058 430.906 70.9555Z" fill="#FF0B4F"/>
</g>
</g>
<g clip-path="url(#clip1_3397_34248)">
<path d="M36.1757 44.0118C36.4692 44.0118 36.6683 43.8295 36.9094 43.5055C36.4882 43.1656 36.1545 42.7358 35.9347 42.25C35.7227 42.4805 35.4331 42.6312 35.1172 42.6753C35.3734 43.185 35.7334 43.6396 36.1757 44.0118Z" fill="#FF0B4F"/>
<path d="M30.422 131.438C29.9319 131.643 29.4035 131.749 28.8695 131.748C28.852 132.026 28.9348 132.3 29.1036 132.525C29.6497 132.532 30.1938 132.46 30.7177 132.31C30.422 131.975 30.3234 131.772 30.422 131.438Z" fill="#FF0B4F"/>
<g filter="url(#filter26_f_3397_34248)">
<path d="M232.908 122.547C232.619 122.669 232.362 122.852 232.153 123.081C231.945 123.31 231.791 123.58 231.703 123.873C232.445 124.621 233.089 125.455 233.621 126.354C233.823 126.088 234.094 125.878 234.407 125.746C233.738 124.762 233.233 123.682 232.908 122.547Z" fill="#76C0FF"/>
</g>
<g filter="url(#filter27_f_3397_34248)">
<path d="M149.224 96.4375C149.513 96.315 149.771 96.1327 149.979 95.9035C150.188 95.6744 150.341 95.4039 150.43 95.1111C149.688 94.3629 149.044 93.5299 148.512 92.6305C148.31 92.8967 148.039 93.1063 147.726 93.238C148.395 94.2226 148.9 95.3021 149.224 96.4375Z" fill="#76C0FF"/>
</g>
<g filter="url(#filter28_f_3397_34248)">
<path d="M203.06 96.4375C203.349 96.315 203.607 96.1327 203.815 95.9035C204.024 95.6744 204.177 95.4039 204.266 95.1111C203.524 94.3629 202.88 93.5299 202.348 92.6305C202.146 92.8967 201.875 93.1063 201.562 93.238C202.231 94.2226 202.736 95.3021 203.06 96.4375Z" fill="#76C0FF"/>
</g>
<path d="M200.42 16.1745C201.18 15.5185 201.695 14.6399 201.888 13.6736C200.835 13.5745 199.844 13.1522 199.058 12.4688C198.316 13.0596 197.706 13.7899 197.266 14.6153C198.411 14.9343 199.482 15.4637 200.42 16.1745Z" fill="#163A76"/>
<path d="M157.264 15.9844C157.151 16.1448 157.083 16.3308 157.066 16.5242C157.05 16.7176 157.085 16.9118 157.17 17.088C157.527 17.2354 157.924 17.2674 158.302 17.1791C158.441 16.7256 158.714 16.321 159.088 16.0148C158.484 16.1209 157.864 16.1106 157.264 15.9844Z" fill="#FFAD3B"/>
<path d="M247.875 106.472C247.918 106.564 247.94 106.664 247.94 106.765C247.94 106.866 247.918 106.966 247.875 107.059C248.446 107.068 249.015 106.993 249.562 106.836C249.608 106.596 249.59 106.349 249.51 106.117C249.005 106.367 248.442 106.489 247.875 106.472Z" fill="#FFAD3B"/>
<path d="M134.25 112.513C134.207 112.42 134.185 112.32 134.185 112.219C134.185 112.118 134.207 112.018 134.25 111.926C133.679 111.916 133.11 111.992 132.563 112.148C132.517 112.388 132.535 112.636 132.615 112.867C133.12 112.618 133.683 112.496 134.25 112.513Z" fill="#FFAD3B"/>
<path d="M188.094 112.513C188.051 112.42 188.029 112.32 188.029 112.219C188.029 112.118 188.051 112.018 188.094 111.926C187.523 111.916 186.954 111.992 186.406 112.148C186.36 112.388 186.378 112.636 186.459 112.867C186.964 112.618 187.527 112.496 188.094 112.513Z" fill="#FFAD3B"/>
<path d="M137.042 20.6253C136.635 20.4895 136.192 20.4895 135.784 20.6253C135.659 20.8932 135.489 21.1394 135.281 21.3543C135.585 21.3543 135.742 21.4859 135.962 21.8302C136.254 21.376 136.619 20.9693 137.042 20.6253Z" fill="#76C0FF"/>
<path d="M101.344 24.4558C101.845 24.8793 102.473 25.1381 103.136 25.1949C103.129 24.518 103.341 23.8558 103.744 23.3016C103.293 22.8637 102.754 22.5192 102.161 22.2891C102.036 23.0556 101.759 23.7915 101.344 24.4558Z" fill="#163A76"/>
<g filter="url(#filter29_f_3397_34248)">
<path d="M285.508 20.9576C285.621 21.3389 285.653 21.7385 285.602 22.1321C286.346 21.829 287.128 21.6246 287.929 21.5246C288.074 21.1597 288.074 20.7556 287.929 20.3906C287.103 20.4939 286.291 20.684 285.508 20.9576Z" fill="#163A76"/>
</g>
<g filter="url(#filter30_f_3397_34248)">
<path d="M262.562 117.535C263.607 118.129 264.39 119.073 264.763 120.187C266.085 118.865 267.169 117.339 267.97 115.672C267.133 114.928 266.139 114.368 265.057 114.031C264.51 115.366 263.657 116.564 262.562 117.535Z" fill="#FF1D5C"/>
</g>
<g filter="url(#filter31_f_3397_34248)">
<path d="M119.57 101.45C118.526 100.855 117.743 99.9116 117.369 98.7971C116.047 100.119 114.963 101.645 114.162 103.313C114.999 104.057 115.993 104.616 117.076 104.953C117.623 103.618 118.476 102.421 119.57 101.45Z" fill="#FF1D5C"/>
</g>
<g filter="url(#filter32_f_3397_34248)">
<path d="M173.406 101.45C172.361 100.855 171.578 99.9116 171.205 98.7971C169.883 100.119 168.799 101.645 167.998 103.313C168.835 104.057 169.829 104.616 170.912 104.953C171.459 103.618 172.312 102.421 173.406 101.45Z" fill="#FF1D5C"/>
</g>
<path d="M30.7109 151.029C31.1708 151.273 31.514 151.657 31.6759 152.109C32.2857 151.573 32.7931 150.953 33.1783 150.273C32.8059 149.957 32.3598 149.717 31.8713 149.57C31.6133 150.127 31.2167 150.626 30.7109 151.029Z" fill="#76C0FF"/>
<g filter="url(#filter33_f_3397_34248)">
<path d="M252.795 152.849C252.658 152.386 252.619 151.9 252.68 151.422C251.771 151.789 250.816 152.037 249.84 152.161C249.658 152.603 249.658 153.096 249.84 153.538C250.85 153.422 251.842 153.191 252.795 152.849Z" fill="#163A76"/>
</g>
<g filter="url(#filter34_f_3397_34248)">
<path d="M129.338 66.1271C129.474 66.5907 129.514 67.0762 129.453 67.5547C130.362 67.1879 131.317 66.9393 132.293 66.8156C132.475 66.3734 132.475 65.8807 132.293 65.4386C131.283 65.5541 130.291 65.7852 129.338 66.1271Z" fill="#163A76"/>
</g>
<g filter="url(#filter35_f_3397_34248)">
<path d="M183.174 66.1271C183.31 66.5907 183.35 67.0762 183.289 67.5547C184.198 67.1879 185.153 66.9393 186.129 66.8156C186.311 66.3734 186.311 65.8807 186.129 65.4386C185.119 65.5541 184.127 65.7852 183.174 66.1271Z" fill="#163A76"/>
</g>
<g filter="url(#filter36_f_3397_34248)">
<path d="M47.9552 126.117C48.5317 125.935 48.8251 125.56 49.2653 124.922C47.665 123.853 46.2828 122.507 45.1883 120.953C44.8391 121.411 44.3409 121.743 43.7734 121.895C44.8402 123.574 46.2659 125.013 47.9552 126.117Z" fill="#163A76"/>
</g>
<g filter="url(#filter37_f_3397_34248)">
<path d="M279.806 173.281C279.491 172.896 279.092 172.583 278.637 172.364C278.183 172.145 277.683 172.026 277.175 172.016C276.289 173.405 275.233 174.686 274.031 175.833C274.539 176.036 274.986 176.36 275.331 176.774C276.635 175.402 278.143 174.225 279.806 173.281Z" fill="#FFAD3B"/>
</g>
<g filter="url(#filter38_f_3397_34248)">
<path d="M102.327 45.7031C102.642 46.0883 103.041 46.4014 103.496 46.6202C103.95 46.839 104.449 46.958 104.957 46.9688C105.844 45.5796 106.899 44.2981 108.102 43.1516C107.593 42.948 107.147 42.6242 106.802 42.21C105.498 43.5826 103.99 44.7599 102.327 45.7031Z" fill="#FFAD3B"/>
</g>
<g filter="url(#filter39_f_3397_34248)">
<path d="M156.163 45.7031C156.478 46.0883 156.877 46.4014 157.331 46.6202C157.786 46.839 158.285 46.958 158.793 46.9688C159.68 45.5796 160.735 44.2981 161.938 43.1516C161.429 42.948 160.983 42.6242 160.638 42.21C159.334 43.5826 157.826 44.7599 156.163 45.7031Z" fill="#FFAD3B"/>
</g>
<path d="M118.887 10.3281C118.801 10.5835 118.646 10.8119 118.438 10.9899C118.23 11.1679 117.976 11.289 117.703 11.3406C118.242 11.8769 118.902 12.2857 119.632 12.5354C119.869 12.4733 120.085 12.3516 120.258 12.1827C120.431 12.0137 120.555 11.8036 120.617 11.5735C119.928 11.3288 119.327 10.8961 118.887 10.3281Z" fill="#163A76"/>
<path d="M32.7698 40.8828C32.8015 40.4958 32.9082 40.118 33.0843 39.7691C32.8988 39.6712 32.685 39.6356 32.4764 39.6678C32.2858 40.0174 32.1515 40.3929 32.0781 40.7816C32.3925 40.6904 32.5812 40.7006 32.7698 40.8828Z" fill="#FFAD3B"/>
<path d="M238.251 88.1484C237.98 88.6145 237.793 89.121 237.695 89.6469C238.047 89.711 238.41 89.6795 238.743 89.5558C238.742 89.2222 238.856 88.8977 239.068 88.6344C238.902 88.6222 238.741 88.5717 238.599 88.4872C238.456 88.4026 238.337 88.2865 238.251 88.1484Z" fill="#FFAD3B"/>
<path d="M143.882 130.836C144.152 130.37 144.34 129.863 144.438 129.337C144.086 129.273 143.723 129.305 143.389 129.429C143.391 129.762 143.277 130.087 143.065 130.35C143.231 130.362 143.392 130.413 143.534 130.497C143.676 130.582 143.796 130.698 143.882 130.836Z" fill="#FFAD3B"/>
<path d="M197.718 130.836C197.988 130.37 198.176 129.863 198.273 129.337C197.922 129.273 197.559 129.305 197.225 129.429C197.227 129.762 197.113 130.087 196.901 130.35C197.067 130.362 197.228 130.413 197.37 130.497C197.512 130.582 197.632 130.698 197.718 130.836Z" fill="#FFAD3B"/>
<path d="M90.1572 9.73438C90.1265 10.0843 90.1764 10.4365 90.3032 10.7656C90.4301 11.0947 90.6308 11.3926 90.8909 11.6379C92.0649 11.3355 93.2713 11.1656 94.4858 11.1316C94.3205 10.7834 94.2518 10.3995 94.2866 10.0179C92.9033 10.1271 91.5107 10.0315 90.1572 9.73438Z" fill="#76C0FF"/>
<g filter="url(#filter40_f_3397_34248)">
<path d="M85.6094 70.309C86.8866 70.3264 88.1132 70.7827 89.0592 71.5922C89.5544 69.756 89.7227 67.8549 89.5572 65.9667C88.3841 65.7299 87.1712 65.7299 85.9981 65.9667C86.2045 67.4236 86.0718 68.9054 85.6094 70.309Z" fill="#163A76"/>
</g>
<path d="M62.1025 46.2584C62.6894 45.2459 63.706 44.527 66.4729 43.7676C65.9104 42.6381 64.9886 41.7121 63.8422 41.125C62.1152 41.7513 60.5845 42.7975 59.3984 44.1625C60.5085 44.5639 61.4562 45.2985 62.1025 46.2584Z" fill="#FF1D5C"/>
<g filter="url(#filter41_f_3397_34248)">
<path d="M229.058 106.049C229.797 105.474 230.327 104.672 230.568 103.764C229.605 103.598 228.72 103.127 228.04 102.422C227.315 102.932 226.705 103.59 226.25 104.353C227.288 104.727 228.242 105.304 229.058 106.049Z" fill="#163A76"/>
</g>
<g filter="url(#filter42_f_3397_34248)">
<path d="M153.067 112.936C152.328 113.51 151.798 114.313 151.557 115.22C152.52 115.387 153.405 115.857 154.085 116.562C154.81 116.053 155.42 115.395 155.875 114.631C154.837 114.257 153.883 113.681 153.067 112.936Z" fill="#163A76"/>
</g>
<g filter="url(#filter43_f_3397_34248)">
<path d="M206.903 112.936C206.164 113.51 205.634 114.313 205.393 115.22C206.356 115.387 207.241 115.857 207.921 116.562C208.646 116.053 209.256 115.395 209.711 114.631C208.673 114.257 207.719 113.681 206.903 112.936Z" fill="#163A76"/>
</g>
<g filter="url(#filter44_f_3397_34248)">
<path d="M247.842 84.4118C247.834 84.0164 247.723 83.6298 247.52 83.2895C247.318 82.9491 247.031 82.6664 246.687 82.4688C245.931 82.622 245.25 83.0276 244.758 83.6185C245.066 84.5346 245.11 85.5186 244.885 86.4584C245.721 85.5838 246.727 84.8876 247.842 84.4118Z" fill="#76C0FF"/>
</g>
<g filter="url(#filter45_f_3397_34248)">
<path d="M134.291 134.565C134.299 134.96 134.41 135.347 134.612 135.687C134.815 136.027 135.102 136.31 135.446 136.508C136.202 136.355 136.882 135.949 137.375 135.358C137.066 134.442 137.022 133.458 137.248 132.518C136.412 133.393 135.406 134.089 134.291 134.565Z" fill="#76C0FF"/>
</g>
<g filter="url(#filter46_f_3397_34248)">
<path d="M188.127 134.565C188.135 134.96 188.246 135.347 188.448 135.687C188.651 136.027 188.938 136.31 189.282 136.508C190.038 136.355 190.718 135.949 191.211 135.358C190.902 134.442 190.858 133.458 191.084 132.518C190.248 133.393 189.242 134.089 188.127 134.565Z" fill="#76C0FF"/>
</g>
<g filter="url(#filter47_f_3397_34248)">
<path d="M245.839 36.4105C246.094 36.1919 246.258 35.8902 246.299 35.5624C245.273 35.2901 244.307 34.8402 243.447 34.2344C243.354 34.5306 243.164 34.7893 242.906 34.9709C243.766 35.6502 244.766 36.1412 245.839 36.4105Z" fill="#163A76"/>
</g>
<path d="M152.986 142.64C153.437 142.353 153.799 141.955 154.034 141.486C153.866 141.212 153.602 141.004 153.29 140.898C153.064 141.365 152.699 141.756 152.242 142.022C152.409 142.059 152.564 142.134 152.694 142.242C152.823 142.349 152.924 142.486 152.986 142.64Z" fill="#76C0FF"/>
<g filter="url(#filter48_f_3397_34248)">
<path d="M35.702 168.566C35.9411 169.794 35.7022 171.063 35.0312 172.13C37.0559 172.243 39.0858 172.028 41.0367 171.493C41.0772 170.32 40.8556 169.153 40.3869 168.07C39.2026 168.587 37.8925 168.607 35.702 168.566Z" fill="#76C0FF"/>
</g>
<path d="M4.09375 144.013C4.58883 145.005 5.40076 145.818 6.40997 146.331C7.17832 146.089 7.98081 145.963 8.78908 145.957C8.24409 145.41 8.22313 144.873 8.51659 143.82C7.06302 144.117 5.56903 144.182 4.09375 144.013Z" fill="#76C0FF"/>
<path d="M115.984 150.453C116.289 150.204 116.503 149.867 116.592 149.491C116.196 149.432 115.829 149.255 115.543 148.984C115.244 149.204 114.997 149.484 114.82 149.805C115.247 149.948 115.641 150.168 115.984 150.453Z" fill="#FF1D5C"/>
<g filter="url(#filter49_f_3397_34248)">
<path d="M238.712 132.844C238.217 133.181 237.849 133.664 237.664 134.221C238.287 134.364 238.846 134.698 239.257 135.172C239.758 134.885 240.188 134.494 240.515 134.028C239.838 133.753 239.225 133.351 238.712 132.844Z" fill="#FF1D5C"/>
</g>
<g filter="url(#filter50_f_3397_34248)">
<path d="M143.421 86.1406C143.916 85.8037 144.283 85.3204 144.469 84.7636C143.846 84.6203 143.287 84.2865 142.876 83.8119C142.375 84.0995 141.945 84.4901 141.618 84.956C142.295 85.231 142.907 85.6338 143.421 86.1406Z" fill="#FF1D5C"/>
</g>
<g filter="url(#filter51_f_3397_34248)">
<path d="M197.257 86.1406C197.751 85.8037 198.119 85.3204 198.305 84.7636C197.681 84.6203 197.123 84.2865 196.712 83.8119C196.211 84.0995 195.781 84.4901 195.454 84.956C196.131 85.231 196.743 85.6338 197.257 86.1406Z" fill="#FF1D5C"/>
</g>
<path d="M117.133 159.894C117.21 160.055 117.324 160.198 117.465 160.312C117.607 160.425 117.772 160.508 117.95 160.552C118.377 160.132 118.855 159.765 119.376 159.459C119.214 159.347 119.084 159.197 118.998 159.023C118.427 159.406 117.798 159.699 117.133 159.894Z" fill="#76C0FF"/>
<path d="M181.559 91.4944C181.447 91.3242 181.292 91.1839 181.109 91.0866C180.926 90.9893 180.72 90.9381 180.511 90.9375C180.211 91.2048 180.012 91.5611 179.945 91.95C180.334 92.2718 180.621 92.6929 180.773 93.165C180.913 92.5617 181.181 91.9928 181.559 91.4944Z" fill="#76C0FF"/>
<path d="M92.237 76.2684C92.3302 76.1765 92.3855 76.0726 92.3983 75.9653C92.411 75.858 92.3809 75.7505 92.3105 75.6516C91.6895 75.7161 91.0518 75.691 90.4502 75.5781C90.5149 75.7968 90.4407 76.0221 90.2422 76.2097C90.8936 76.3103 91.5723 76.3302 92.237 76.2684Z" fill="#FFAD3B"/>
<path d="M240.438 47.1013C241.302 47.7182 242.017 48.5094 242.534 49.4199C243.607 47.6609 244.926 46.0528 246.453 44.641C246.208 43.6466 245.583 42.7785 244.703 42.2109C243.086 43.6725 241.654 45.3141 240.438 47.1013Z" fill="#76C0FF"/>
<path d="M141.695 171.875C140.831 171.258 140.116 170.467 139.599 169.557C138.526 171.316 137.207 172.924 135.679 174.336C135.925 175.33 136.55 176.198 137.43 176.766C139.047 175.304 140.478 173.662 141.695 171.875Z" fill="#76C0FF"/>
<path d="M195.531 171.875C194.667 171.258 193.952 170.467 193.435 169.557C192.361 171.316 191.043 172.924 189.515 174.336C189.76 175.33 190.386 176.198 191.266 176.766C192.882 175.304 194.314 173.662 195.531 171.875Z" fill="#76C0FF"/>
<g filter="url(#filter52_f_3397_34248)">
<path d="M6.47021 6.80813C5.87281 6.74738 5.2859 6.46388 4.37408 5.39062C3.94835 5.88872 3.70188 6.50708 3.67188 7.15238C4.33581 7.78206 5.15445 8.23846 6.05098 8.47876C5.99807 7.8926 6.14532 7.30582 6.47021 6.80813Z" fill="#FF1D5C"/>
</g>
<g filter="url(#filter53_f_3397_34248)">
<path d="M278.266 76.0115C278.184 75.8344 278.156 75.6381 278.185 75.446C278.215 75.2539 278.301 75.0741 278.434 74.9281C277.879 74.8799 277.319 74.9561 276.799 75.1509C276.697 75.2994 276.638 75.4712 276.627 75.649C276.616 75.8267 276.654 76.0042 276.736 76.1634C277.219 75.9654 277.752 75.9125 278.266 76.0115Z" fill="#FF0B4F"/>
</g>
<g filter="url(#filter54_f_3397_34248)">
<path d="M103.866 142.973C103.949 143.15 103.977 143.346 103.947 143.538C103.918 143.73 103.831 143.91 103.699 144.056C104.254 144.104 104.814 144.028 105.334 143.834C105.435 143.685 105.495 143.513 105.506 143.335C105.517 143.158 105.479 142.98 105.397 142.821C104.914 143.019 104.381 143.072 103.866 142.973Z" fill="#FF0B4F"/>
</g>
<g filter="url(#filter55_f_3397_34248)">
<path d="M157.702 142.973C157.785 143.15 157.813 143.346 157.783 143.538C157.754 143.73 157.667 143.91 157.535 144.056C158.09 144.104 158.65 144.028 159.17 143.834C159.271 143.685 159.331 143.513 159.342 143.335C159.353 143.158 159.315 142.98 159.233 142.821C158.75 143.019 158.217 143.072 157.702 142.973Z" fill="#FF0B4F"/>
</g>
<g filter="url(#filter56_f_3397_34248)">
<path d="M276.523 33.5101C277.488 33.8139 278.326 34.5226 279.489 36.6287C280.375 35.9664 281.018 35.0473 281.324 34.0063C280.467 32.7287 279.288 31.6833 277.896 30.9688C277.732 31.9361 277.251 32.8269 276.523 33.5101Z" fill="#FFAD3B"/>
</g>
<g filter="url(#filter57_f_3397_34248)">
<path d="M11.4219 103.616C11.6886 103.691 11.9358 103.821 12.1472 103.995C12.3585 104.17 12.5292 104.385 12.6481 104.628C13.7749 103.62 14.7456 102.461 15.5303 101.186C15.1702 100.62 14.6552 100.161 14.042 99.8594C13.5265 101.313 12.6226 102.609 11.4219 103.616Z" fill="#FF1D5C"/>
</g>
<g filter="url(#filter58_f_3397_34248)">
<path d="M298.719 46.4977C298.239 46.2356 297.677 46.1494 297.137 46.2547C297.231 47.9235 297.007 49.5949 296.477 51.1856C296.995 51.1731 297.503 51.3261 297.923 51.621C298.564 49.9877 298.836 48.2408 298.719 46.4977Z" fill="#FF0B4F"/>
</g>
<g filter="url(#filter59_f_3397_34248)">
<path d="M83.4134 172.487C83.8936 172.749 84.4554 172.835 84.996 172.73C84.9017 171.061 85.1255 169.39 85.6562 167.799C85.1377 167.811 84.6294 167.658 84.2099 167.363C83.5688 168.997 83.2972 170.744 83.4134 172.487Z" fill="#FF0B4F"/>
</g>
<g filter="url(#filter60_f_3397_34248)">
<path d="M137.249 172.487C137.73 172.749 138.291 172.835 138.832 172.73C138.738 171.061 138.961 169.39 139.492 167.799C138.974 167.811 138.465 167.658 138.046 167.363C137.405 168.997 137.133 170.744 137.249 172.487Z" fill="#FF0B4F"/>
</g>
<g filter="url(#filter61_f_3397_34248)">
<path d="M32.1541 4.31788C31.6677 4.09784 31.131 4.00185 30.5952 4.03908C30.0595 4.0763 29.5426 4.24548 29.0937 4.5305C28.8263 5.50221 28.9038 6.53248 29.3138 7.45664C30.6123 7.6256 31.834 8.14897 32.8353 8.96527C32.2877 7.476 32.056 5.89548 32.1541 4.31788Z" fill="#FF1D5C"/>
</g>
<g filter="url(#filter62_f_3397_34248)">
<path d="M67.5625 5.87908C69.0667 5.99391 70.5694 5.63898 71.8491 4.86658C72.0718 3.85303 72.4572 2.87937 72.9915 1.98094C71.9434 2.22394 71.3251 1.88982 70.277 0.867188C69.6567 2.66781 68.7401 4.36013 67.5625 5.87908Z" fill="#FF0B4F"/>
</g>
<g filter="url(#filter63_f_3397_34248)">
<path d="M31.3904 45.5625C31.3904 46.4501 30.8721 47.299 29.1719 48.7268C29.989 49.3269 30.9926 49.6652 32.0332 49.6915C33.0453 48.6967 33.7601 47.4728 34.1066 46.1413C33.1582 46.2207 32.2072 46.0181 31.3904 45.5625Z" fill="#FF0B4F"/>
</g>
<g filter="url(#filter64_f_3397_34248)">
<path d="M217.004 4.68821C217.265 5.79881 217.174 6.95959 216.742 8.01935C216.961 8.02254 217.177 8.07017 217.375 8.15913C217.574 8.24809 217.751 8.3764 217.895 8.53573C218.447 7.41035 218.661 6.15812 218.513 4.92109C218.041 4.71463 217.52 4.63422 217.004 4.68821Z" fill="#FFAD3B"/>
</g>
<g filter="url(#filter65_f_3397_34248)">
<path d="M274.056 7.67239C274.395 7.27725 274.577 6.77822 274.57 6.26501C272.912 6.05446 271.307 5.55714 269.832 4.79688C269.757 5.27942 269.513 5.72248 269.141 6.05238C270.64 6.92581 272.316 7.47825 274.056 7.67239Z" fill="#FFAD3B"/>
</g>
<g filter="url(#filter66_f_3397_34248)">
<path d="M17.6166 35.8823C16.8922 35.3188 15.9991 34.9958 15.0698 34.9609C14.5877 35.3988 14.04 35.764 13.4453 36.0443C14.0532 36.2671 14.2628 36.6417 14.42 37.5226C15.3882 36.8146 16.4673 36.2608 17.6166 35.8823Z" fill="#FF1D5C"/>
</g>
<g filter="url(#filter67_f_3397_34248)">
<path d="M11.0353 74.6278C11.5277 74.807 12.0603 74.8573 12.5793 74.7737C13.0983 74.6902 13.5852 74.4757 13.9908 74.1519C14.1524 73.1956 13.9868 72.2146 13.5192 71.3574C12.2383 71.3099 10.9982 70.9094 9.94531 70.2031C10.6153 71.5914 10.9862 73.0968 11.0353 74.6278Z" fill="#76C0FF"/>
</g>
<g filter="url(#filter68_f_3397_34248)">
<path d="M239.902 6.20704C240.503 5.1078 240.9 3.91526 241.076 2.68353C240.293 2.58658 239.497 2.69138 238.77 2.98728C238.794 3.76677 238.551 4.53215 238.078 5.16416C238.443 5.19591 238.796 5.30601 239.112 5.48643C239.427 5.66685 239.697 5.91304 239.902 6.20704Z" fill="#FFAD3B"/>
</g>
<path d="M52.9219 97.6563C53.9655 99.5357 55.6275 101.019 57.6412 101.869C58.3693 99.8266 59.7396 98.0592 61.5576 96.8176C60.6619 95.0166 59.3955 93.414 57.837 92.1094C56.5792 94.2481 54.9105 96.1313 52.9219 97.6563Z" fill="#76C0FF"/>
<path d="M224.602 85.0078C224.206 85.9399 223.614 86.7874 222.859 87.4995C223.236 87.8987 223.742 88.1703 224.3 88.2721C225.079 87.5531 225.737 86.7277 226.252 85.8239C225.381 85.7695 224.927 85.6171 224.602 85.0078Z" fill="#FF1D5C"/>
<path d="M157.531 133.969C157.926 133.037 158.519 132.189 159.273 131.477C158.897 131.078 158.391 130.806 157.833 130.704C157.054 131.423 156.396 132.249 155.881 133.153C156.752 133.207 157.205 133.359 157.531 133.969Z" fill="#FF1D5C"/>
<path d="M211.367 133.969C211.762 133.037 212.355 132.189 213.109 131.477C212.733 131.078 212.227 130.806 211.669 130.704C210.89 131.423 210.232 132.249 209.717 133.153C210.588 133.207 211.041 133.359 211.367 133.969Z" fill="#FF1D5C"/>
<g filter="url(#filter69_f_3397_34248)">
<path d="M262.031 70.9555C262.377 71.968 263.132 72.4642 264.515 72.9805C265.405 71.2541 266.696 69.7501 268.288 68.5863C267.252 68.0668 266.445 67.2041 266.014 66.1562C264.356 67.4713 262.999 69.1058 262.031 70.9555Z" fill="#FF0B4F"/>
</g>
<g filter="url(#filter70_f_3397_34248)">
<path d="M120.102 148.029C119.756 147.016 119.001 146.52 117.618 146.004C116.728 147.73 115.436 149.234 113.845 150.398C114.881 150.918 115.688 151.78 116.119 152.828C117.777 151.513 119.134 149.879 120.102 148.029Z" fill="#FF0B4F"/>
</g>
<g filter="url(#filter71_f_3397_34248)">
<path d="M173.938 148.029C173.592 147.016 172.837 146.52 171.454 146.004C170.564 147.73 169.272 149.234 167.681 150.398C168.716 150.918 169.524 151.78 169.955 152.828C171.613 151.513 172.97 149.879 173.938 148.029Z" fill="#FF0B4F"/>
</g>
</g>
<defs>
<filter id="filter0_f_3397_34248" x="394.483" y="119.132" width="9.77561" height="10.635" filterUnits="userSpaceOnUse" color-interpolation-filters="sRGB">
<feFlood flood-opacity="0" result="BackgroundImageFix"/>
<feBlend mode="normal" in="SourceGraphic" in2="BackgroundImageFix" result="shape"/>
<feGaussianBlur stdDeviation="1.70758" result="effect1_foregroundBlur_3397_34248"/>
</filter>
<filter id="filter1_f_3397_34248" x="453.046" y="16.9755" width="9.5803" height="8.57249" filterUnits="userSpaceOnUse" color-interpolation-filters="sRGB">
<feFlood flood-opacity="0" result="BackgroundImageFix"/>
<feBlend mode="normal" in="SourceGraphic" in2="BackgroundImageFix" result="shape"/>
<feGaussianBlur stdDeviation="1.70758" result="effect1_foregroundBlur_3397_34248"/>
</filter>
<filter id="filter2_f_3397_34248" x="428.069" y="110.616" width="12.7131" height="12.9866" filterUnits="userSpaceOnUse" color-interpolation-filters="sRGB">
<feFlood flood-opacity="0" result="BackgroundImageFix"/>
<feBlend mode="normal" in="SourceGraphic" in2="BackgroundImageFix" result="shape"/>
<feGaussianBlur stdDeviation="1.70758" result="effect1_foregroundBlur_3397_34248"/>
</filter>
<filter id="filter3_f_3397_34248" x="414.077" y="148.007" width="10.1975" height="8.94749" filterUnits="userSpaceOnUse" color-interpolation-filters="sRGB">
<feFlood flood-opacity="0" result="BackgroundImageFix"/>
<feBlend mode="normal" in="SourceGraphic" in2="BackgroundImageFix" result="shape"/>
<feGaussianBlur stdDeviation="1.70758" result="effect1_foregroundBlur_3397_34248"/>
</filter>
<filter id="filter4_f_3397_34248" x="189.968" y="117.538" width="12.8069" height="11.9944" filterUnits="userSpaceOnUse" color-interpolation-filters="sRGB">
<feFlood flood-opacity="0" result="BackgroundImageFix"/>
<feBlend mode="normal" in="SourceGraphic" in2="BackgroundImageFix" result="shape"/>
<feGaussianBlur stdDeviation="1.70758" result="effect1_foregroundBlur_3397_34248"/>
</filter>
<filter id="filter5_f_3397_34248" x="440.554" y="168.6" width="13.1116" height="11.5881" filterUnits="userSpaceOnUse" color-interpolation-filters="sRGB">
<feFlood flood-opacity="0" result="BackgroundImageFix"/>
<feBlend mode="normal" in="SourceGraphic" in2="BackgroundImageFix" result="shape"/>
<feGaussianBlur stdDeviation="1.70758" result="effect1_foregroundBlur_3397_34248"/>
</filter>
<filter id="filter6_f_3397_34248" x="235.499" y="62.3739" width="11.1975" height="12.635" filterUnits="userSpaceOnUse" color-interpolation-filters="sRGB">
<feFlood flood-opacity="0" result="BackgroundImageFix"/>
<feBlend mode="normal" in="SourceGraphic" in2="BackgroundImageFix" result="shape"/>
<feGaussianBlur stdDeviation="1.70758" result="effect1_foregroundBlur_3397_34248"/>
</filter>
<filter id="filter7_f_3397_34248" x="388.554" y="99.0067" width="11.5256" height="10.4553" filterUnits="userSpaceOnUse" color-interpolation-filters="sRGB">
<feFlood flood-opacity="0" result="BackgroundImageFix"/>
<feBlend mode="normal" in="SourceGraphic" in2="BackgroundImageFix" result="shape"/>
<feGaussianBlur stdDeviation="1.70758" result="effect1_foregroundBlur_3397_34248"/>
</filter>
<filter id="filter8_f_3397_34248" x="408.694" y="79.0536" width="10.1897" height="10.8225" filterUnits="userSpaceOnUse" color-interpolation-filters="sRGB">
<feFlood flood-opacity="0" result="BackgroundImageFix"/>
<feBlend mode="normal" in="SourceGraphic" in2="BackgroundImageFix" result="shape"/>
<feGaussianBlur stdDeviation="1.70758" result="effect1_foregroundBlur_3397_34248"/>
</filter>
<filter id="filter9_f_3397_34248" x="406.679" y="30.8192" width="10.5256" height="9.00999" filterUnits="userSpaceOnUse" color-interpolation-filters="sRGB">
<feFlood flood-opacity="0" result="BackgroundImageFix"/>
<feBlend mode="normal" in="SourceGraphic" in2="BackgroundImageFix" result="shape"/>
<feGaussianBlur stdDeviation="1.70758" result="effect1_foregroundBlur_3397_34248"/>
</filter>
<filter id="filter10_f_3397_34248" x="180.452" y="164.655" width="13.3694" height="10.9162" filterUnits="userSpaceOnUse" color-interpolation-filters="sRGB">
<feFlood flood-opacity="0" result="BackgroundImageFix"/>
<feBlend mode="normal" in="SourceGraphic" in2="BackgroundImageFix" result="shape"/>
<feGaussianBlur stdDeviation="1.70758" result="effect1_foregroundBlur_3397_34248"/>
</filter>
<filter id="filter11_f_3397_34248" x="400.975" y="129.429" width="9.93186" height="9.15843" filterUnits="userSpaceOnUse" color-interpolation-filters="sRGB">
<feFlood flood-opacity="0" result="BackgroundImageFix"/>
<feBlend mode="normal" in="SourceGraphic" in2="BackgroundImageFix" result="shape"/>
<feGaussianBlur stdDeviation="1.70758" result="effect1_foregroundBlur_3397_34248"/>
</filter>
<filter id="filter12_f_3397_34248" x="146.319" y="1.97547" width="9.87718" height="9.91624" filterUnits="userSpaceOnUse" color-interpolation-filters="sRGB">
<feFlood flood-opacity="0" result="BackgroundImageFix"/>
<feBlend mode="normal" in="SourceGraphic" in2="BackgroundImageFix" result="shape"/>
<feGaussianBlur stdDeviation="1.70758" result="effect1_foregroundBlur_3397_34248"/>
</filter>
<filter id="filter13_f_3397_34248" x="443.374" y="71.5067" width="8.79905" height="8.0803" filterUnits="userSpaceOnUse" color-interpolation-filters="sRGB">
<feFlood flood-opacity="0" result="BackgroundImageFix"/>
<feBlend mode="normal" in="SourceGraphic" in2="BackgroundImageFix" result="shape"/>
<feGaussianBlur stdDeviation="1.70758" result="effect1_foregroundBlur_3397_34248"/>
</filter>
<filter id="filter14_f_3397_34248" x="443.265" y="27.5614" width="12.0569" height="12.4866" filterUnits="userSpaceOnUse" color-interpolation-filters="sRGB">
<feFlood flood-opacity="0" result="BackgroundImageFix"/>
<feBlend mode="normal" in="SourceGraphic" in2="BackgroundImageFix" result="shape"/>
<feGaussianBlur stdDeviation="1.70758" result="effect1_foregroundBlur_3397_34248"/>
</filter>
<filter id="filter15_f_3397_34248" x="154.757" y="96.4442" width="11.2991" height="11.5959" filterUnits="userSpaceOnUse" color-interpolation-filters="sRGB">
<feFlood flood-opacity="0" result="BackgroundImageFix"/>
<feBlend mode="normal" in="SourceGraphic" in2="BackgroundImageFix" result="shape"/>
<feGaussianBlur stdDeviation="1.70758" result="effect1_foregroundBlur_3397_34248"/>
</filter>
<filter id="filter16_f_3397_34248" x="464.975" y="42.7958" width="9.29905" height="12.2366" filterUnits="userSpaceOnUse" color-interpolation-filters="sRGB">
<feFlood flood-opacity="0" result="BackgroundImageFix"/>
<feBlend mode="normal" in="SourceGraphic" in2="BackgroundImageFix" result="shape"/>
<feGaussianBlur stdDeviation="1.70758" result="effect1_foregroundBlur_3397_34248"/>
</filter>
<filter id="filter17_f_3397_34248" x="173.811" y="0.616099" width="11.0725" height="11.7678" filterUnits="userSpaceOnUse" color-interpolation-filters="sRGB">
<feFlood flood-opacity="0" result="BackgroundImageFix"/>
<feBlend mode="normal" in="SourceGraphic" in2="BackgroundImageFix" result="shape"/>
<feGaussianBlur stdDeviation="1.70758" result="effect1_foregroundBlur_3397_34248"/>
</filter>
<filter id="filter18_f_3397_34248" x="215.85" y="-2.54015" width="12.7366" height="11.8616" filterUnits="userSpaceOnUse" color-interpolation-filters="sRGB">
<feFlood flood-opacity="0" result="BackgroundImageFix"/>
<feBlend mode="normal" in="SourceGraphic" in2="BackgroundImageFix" result="shape"/>
<feGaussianBlur stdDeviation="1.70758" result="effect1_foregroundBlur_3397_34248"/>
</filter>
<filter id="filter19_f_3397_34248" x="174.077" y="42.1473" width="12.1975" height="10.9631" filterUnits="userSpaceOnUse" color-interpolation-filters="sRGB">
<feFlood flood-opacity="0" result="BackgroundImageFix"/>
<feBlend mode="normal" in="SourceGraphic" in2="BackgroundImageFix" result="shape"/>
<feGaussianBlur stdDeviation="1.70758" result="effect1_foregroundBlur_3397_34248"/>
</filter>
<filter id="filter20_f_3397_34248" x="378.202" y="1.26454" width="8.80686" height="10.6975" filterUnits="userSpaceOnUse" color-interpolation-filters="sRGB">
<feFlood flood-opacity="0" result="BackgroundImageFix"/>
<feBlend mode="normal" in="SourceGraphic" in2="BackgroundImageFix" result="shape"/>
<feGaussianBlur stdDeviation="1.70758" result="effect1_foregroundBlur_3397_34248"/>
</filter>
<filter id="filter21_f_3397_34248" x="435.233" y="1.38172" width="12.7366" height="9.7053" filterUnits="userSpaceOnUse" color-interpolation-filters="sRGB">
<feFlood flood-opacity="0" result="BackgroundImageFix"/>
<feBlend mode="normal" in="SourceGraphic" in2="BackgroundImageFix" result="shape"/>
<feGaussianBlur stdDeviation="1.70758" result="effect1_foregroundBlur_3397_34248"/>
</filter>
<filter id="filter22_f_3397_34248" x="156.96" y="31.5458" width="11.3694" height="9.3928" filterUnits="userSpaceOnUse" color-interpolation-filters="sRGB">
<feFlood flood-opacity="0" result="BackgroundImageFix"/>
<feBlend mode="normal" in="SourceGraphic" in2="BackgroundImageFix" result="shape"/>
<feGaussianBlur stdDeviation="1.70758" result="effect1_foregroundBlur_3397_34248"/>
</filter>
<filter id="filter23_f_3397_34248" x="153.147" y="66.788" width="11.2991" height="11.4397" filterUnits="userSpaceOnUse" color-interpolation-filters="sRGB">
<feFlood flood-opacity="0" result="BackgroundImageFix"/>
<feBlend mode="normal" in="SourceGraphic" in2="BackgroundImageFix" result="shape"/>
<feGaussianBlur stdDeviation="1.70758" result="effect1_foregroundBlur_3397_34248"/>
</filter>
<filter id="filter24_f_3397_34248" x="401.429" y="-0.758901" width="10.0959" height="10.3928" filterUnits="userSpaceOnUse" color-interpolation-filters="sRGB">
<feFlood flood-opacity="0" result="BackgroundImageFix"/>
<feBlend mode="normal" in="SourceGraphic" in2="BackgroundImageFix" result="shape"/>
<feGaussianBlur stdDeviation="1.70758" result="effect1_foregroundBlur_3397_34248"/>
</filter>
<filter id="filter25_f_3397_34248" x="427.491" y="62.7411" width="13.6428" height="13.6584" filterUnits="userSpaceOnUse" color-interpolation-filters="sRGB">
<feFlood flood-opacity="0" result="BackgroundImageFix"/>
<feBlend mode="normal" in="SourceGraphic" in2="BackgroundImageFix" result="shape"/>
<feGaussianBlur stdDeviation="1.70758" result="effect1_foregroundBlur_3397_34248"/>
</filter>
<filter id="filter26_f_3397_34248" x="228.288" y="119.132" width="9.53343" height="10.635" filterUnits="userSpaceOnUse" color-interpolation-filters="sRGB">
<feFlood flood-opacity="0" result="BackgroundImageFix"/>
<feBlend mode="normal" in="SourceGraphic" in2="BackgroundImageFix" result="shape"/>
<feGaussianBlur stdDeviation="1.70758" result="effect1_foregroundBlur_3397_34248"/>
</filter>
<filter id="filter27_f_3397_34248" x="144.311" y="89.2177" width="9.53343" height="10.635" filterUnits="userSpaceOnUse" color-interpolation-filters="sRGB">
<feFlood flood-opacity="0" result="BackgroundImageFix"/>
<feBlend mode="normal" in="SourceGraphic" in2="BackgroundImageFix" result="shape"/>
<feGaussianBlur stdDeviation="1.70758" result="effect1_foregroundBlur_3397_34248"/>
</filter>
<filter id="filter28_f_3397_34248" x="198.147" y="89.2177" width="9.53343" height="10.635" filterUnits="userSpaceOnUse" color-interpolation-filters="sRGB">
<feFlood flood-opacity="0" result="BackgroundImageFix"/>
<feBlend mode="normal" in="SourceGraphic" in2="BackgroundImageFix" result="shape"/>
<feGaussianBlur stdDeviation="1.70758" result="effect1_foregroundBlur_3397_34248"/>
</filter>
<filter id="filter29_f_3397_34248" x="282.093" y="16.9755" width="9.36155" height="8.57249" filterUnits="userSpaceOnUse" color-interpolation-filters="sRGB">
<feFlood flood-opacity="0" result="BackgroundImageFix"/>
<feBlend mode="normal" in="SourceGraphic" in2="BackgroundImageFix" result="shape"/>
<feGaussianBlur stdDeviation="1.70758" result="effect1_foregroundBlur_3397_34248"/>
</filter>
<filter id="filter30_f_3397_34248" x="259.147" y="110.616" width="12.2366" height="12.9866" filterUnits="userSpaceOnUse" color-interpolation-filters="sRGB">
<feFlood flood-opacity="0" result="BackgroundImageFix"/>
<feBlend mode="normal" in="SourceGraphic" in2="BackgroundImageFix" result="shape"/>
<feGaussianBlur stdDeviation="1.70758" result="effect1_foregroundBlur_3397_34248"/>
</filter>
<filter id="filter31_f_3397_34248" x="110.749" y="95.3817" width="12.2366" height="12.9866" filterUnits="userSpaceOnUse" color-interpolation-filters="sRGB">
<feFlood flood-opacity="0" result="BackgroundImageFix"/>
<feBlend mode="normal" in="SourceGraphic" in2="BackgroundImageFix" result="shape"/>
<feGaussianBlur stdDeviation="1.70758" result="effect1_foregroundBlur_3397_34248"/>
</filter>
<filter id="filter32_f_3397_34248" x="164.585" y="95.3817" width="12.2366" height="12.9866" filterUnits="userSpaceOnUse" color-interpolation-filters="sRGB">
<feFlood flood-opacity="0" result="BackgroundImageFix"/>
<feBlend mode="normal" in="SourceGraphic" in2="BackgroundImageFix" result="shape"/>
<feGaussianBlur stdDeviation="1.70758" result="effect1_foregroundBlur_3397_34248"/>
</filter>
<filter id="filter33_f_3397_34248" x="246.288" y="148.007" width="9.92405" height="8.94749" filterUnits="userSpaceOnUse" color-interpolation-filters="sRGB">
<feFlood flood-opacity="0" result="BackgroundImageFix"/>
<feBlend mode="normal" in="SourceGraphic" in2="BackgroundImageFix" result="shape"/>
<feGaussianBlur stdDeviation="1.70758" result="effect1_foregroundBlur_3397_34248"/>
</filter>
<filter id="filter34_f_3397_34248" x="125.921" y="62.0223" width="9.92405" height="8.94749" filterUnits="userSpaceOnUse" color-interpolation-filters="sRGB">
<feFlood flood-opacity="0" result="BackgroundImageFix"/>
<feBlend mode="normal" in="SourceGraphic" in2="BackgroundImageFix" result="shape"/>
<feGaussianBlur stdDeviation="1.70758" result="effect1_foregroundBlur_3397_34248"/>
</filter>
<filter id="filter35_f_3397_34248" x="179.757" y="62.0223" width="9.92405" height="8.94749" filterUnits="userSpaceOnUse" color-interpolation-filters="sRGB">
<feFlood flood-opacity="0" result="BackgroundImageFix"/>
<feBlend mode="normal" in="SourceGraphic" in2="BackgroundImageFix" result="shape"/>
<feGaussianBlur stdDeviation="1.70758" result="effect1_foregroundBlur_3397_34248"/>
</filter>
<filter id="filter36_f_3397_34248" x="40.3583" y="117.538" width="12.3225" height="11.9944" filterUnits="userSpaceOnUse" color-interpolation-filters="sRGB">
<feFlood flood-opacity="0" result="BackgroundImageFix"/>
<feBlend mode="normal" in="SourceGraphic" in2="BackgroundImageFix" result="shape"/>
<feGaussianBlur stdDeviation="1.70758" result="effect1_foregroundBlur_3397_34248"/>
</filter>
<filter id="filter37_f_3397_34248" x="270.616" y="168.6" width="12.6037" height="11.5881" filterUnits="userSpaceOnUse" color-interpolation-filters="sRGB">
<feFlood flood-opacity="0" result="BackgroundImageFix"/>
<feBlend mode="normal" in="SourceGraphic" in2="BackgroundImageFix" result="shape"/>
<feGaussianBlur stdDeviation="1.70758" result="effect1_foregroundBlur_3397_34248"/>
</filter>
<filter id="filter38_f_3397_34248" x="98.913" y="38.7958" width="12.6037" height="11.5881" filterUnits="userSpaceOnUse" color-interpolation-filters="sRGB">
<feFlood flood-opacity="0" result="BackgroundImageFix"/>
<feBlend mode="normal" in="SourceGraphic" in2="BackgroundImageFix" result="shape"/>
<feGaussianBlur stdDeviation="1.70758" result="effect1_foregroundBlur_3397_34248"/>
</filter>
<filter id="filter39_f_3397_34248" x="152.749" y="38.7958" width="12.6037" height="11.5881" filterUnits="userSpaceOnUse" color-interpolation-filters="sRGB">
<feFlood flood-opacity="0" result="BackgroundImageFix"/>
<feBlend mode="normal" in="SourceGraphic" in2="BackgroundImageFix" result="shape"/>
<feGaussianBlur stdDeviation="1.70758" result="effect1_foregroundBlur_3397_34248"/>
</filter>
<filter id="filter40_f_3397_34248" x="82.1942" y="62.3739" width="10.8381" height="12.635" filterUnits="userSpaceOnUse" color-interpolation-filters="sRGB">
<feFlood flood-opacity="0" result="BackgroundImageFix"/>
<feBlend mode="normal" in="SourceGraphic" in2="BackgroundImageFix" result="shape"/>
<feGaussianBlur stdDeviation="1.70758" result="effect1_foregroundBlur_3397_34248"/>
</filter>
<filter id="filter41_f_3397_34248" x="222.835" y="99.0067" width="11.1506" height="10.4553" filterUnits="userSpaceOnUse" color-interpolation-filters="sRGB">
<feFlood flood-opacity="0" result="BackgroundImageFix"/>
<feBlend mode="normal" in="SourceGraphic" in2="BackgroundImageFix" result="shape"/>
<feGaussianBlur stdDeviation="1.70758" result="effect1_foregroundBlur_3397_34248"/>
</filter>
<filter id="filter42_f_3397_34248" x="148.14" y="109.522" width="11.1506" height="10.4553" filterUnits="userSpaceOnUse" color-interpolation-filters="sRGB">
<feFlood flood-opacity="0" result="BackgroundImageFix"/>
<feBlend mode="normal" in="SourceGraphic" in2="BackgroundImageFix" result="shape"/>
<feGaussianBlur stdDeviation="1.70758" result="effect1_foregroundBlur_3397_34248"/>
</filter>
<filter id="filter43_f_3397_34248" x="201.975" y="109.522" width="11.1506" height="10.4553" filterUnits="userSpaceOnUse" color-interpolation-filters="sRGB">
<feFlood flood-opacity="0" result="BackgroundImageFix"/>
<feBlend mode="normal" in="SourceGraphic" in2="BackgroundImageFix" result="shape"/>
<feGaussianBlur stdDeviation="1.70758" result="effect1_foregroundBlur_3397_34248"/>
</filter>
<filter id="filter44_f_3397_34248" x="241.343" y="79.0536" width="9.91624" height="10.8225" filterUnits="userSpaceOnUse" color-interpolation-filters="sRGB">
<feFlood flood-opacity="0" result="BackgroundImageFix"/>
<feBlend mode="normal" in="SourceGraphic" in2="BackgroundImageFix" result="shape"/>
<feGaussianBlur stdDeviation="1.70758" result="effect1_foregroundBlur_3397_34248"/>
</filter>
<filter id="filter45_f_3397_34248" x="130.874" y="129.1" width="9.91624" height="10.8225" filterUnits="userSpaceOnUse" color-interpolation-filters="sRGB">
<feFlood flood-opacity="0" result="BackgroundImageFix"/>
<feBlend mode="normal" in="SourceGraphic" in2="BackgroundImageFix" result="shape"/>
<feGaussianBlur stdDeviation="1.70758" result="effect1_foregroundBlur_3397_34248"/>
</filter>
<filter id="filter46_f_3397_34248" x="184.71" y="129.1" width="9.91624" height="10.8225" filterUnits="userSpaceOnUse" color-interpolation-filters="sRGB">
<feFlood flood-opacity="0" result="BackgroundImageFix"/>
<feBlend mode="normal" in="SourceGraphic" in2="BackgroundImageFix" result="shape"/>
<feGaussianBlur stdDeviation="1.70758" result="effect1_foregroundBlur_3397_34248"/>
</filter>
<filter id="filter47_f_3397_34248" x="239.491" y="30.8192" width="10.2209" height="9.00999" filterUnits="userSpaceOnUse" color-interpolation-filters="sRGB">
<feFlood flood-opacity="0" result="BackgroundImageFix"/>
<feBlend mode="normal" in="SourceGraphic" in2="BackgroundImageFix" result="shape"/>
<feGaussianBlur stdDeviation="1.70758" result="effect1_foregroundBlur_3397_34248"/>
</filter>
<filter id="filter48_f_3397_34248" x="31.6161" y="164.655" width="12.8381" height="10.9162" filterUnits="userSpaceOnUse" color-interpolation-filters="sRGB">
<feFlood flood-opacity="0" result="BackgroundImageFix"/>
<feBlend mode="normal" in="SourceGraphic" in2="BackgroundImageFix" result="shape"/>
<feGaussianBlur stdDeviation="1.70758" result="effect1_foregroundBlur_3397_34248"/>
</filter>
<filter id="filter49_f_3397_34248" x="234.249" y="129.429" width="9.68186" height="9.15843" filterUnits="userSpaceOnUse" color-interpolation-filters="sRGB">
<feFlood flood-opacity="0" result="BackgroundImageFix"/>
<feBlend mode="normal" in="SourceGraphic" in2="BackgroundImageFix" result="shape"/>
<feGaussianBlur stdDeviation="1.70758" result="effect1_foregroundBlur_3397_34248"/>
</filter>
<filter id="filter50_f_3397_34248" x="138.202" y="80.3973" width="9.68186" height="9.15843" filterUnits="userSpaceOnUse" color-interpolation-filters="sRGB">
<feFlood flood-opacity="0" result="BackgroundImageFix"/>
<feBlend mode="normal" in="SourceGraphic" in2="BackgroundImageFix" result="shape"/>
<feGaussianBlur stdDeviation="1.70758" result="effect1_foregroundBlur_3397_34248"/>
</filter>
<filter id="filter51_f_3397_34248" x="192.038" y="80.3973" width="9.68186" height="9.15843" filterUnits="userSpaceOnUse" color-interpolation-filters="sRGB">
<feFlood flood-opacity="0" result="BackgroundImageFix"/>
<feBlend mode="normal" in="SourceGraphic" in2="BackgroundImageFix" result="shape"/>
<feGaussianBlur stdDeviation="1.70758" result="effect1_foregroundBlur_3397_34248"/>
</filter>
<filter id="filter52_f_3397_34248" x="0.256724" y="1.97547" width="9.62718" height="9.91624" filterUnits="userSpaceOnUse" color-interpolation-filters="sRGB">
<feFlood flood-opacity="0" result="BackgroundImageFix"/>
<feBlend mode="normal" in="SourceGraphic" in2="BackgroundImageFix" result="shape"/>
<feGaussianBlur stdDeviation="1.70758" result="effect1_foregroundBlur_3397_34248"/>
</filter>
<filter id="filter53_f_3397_34248" x="273.21" y="71.4989" width="8.6428" height="8.0803" filterUnits="userSpaceOnUse" color-interpolation-filters="sRGB">
<feFlood flood-opacity="0" result="BackgroundImageFix"/>
<feBlend mode="normal" in="SourceGraphic" in2="BackgroundImageFix" result="shape"/>
<feGaussianBlur stdDeviation="1.70758" result="effect1_foregroundBlur_3397_34248"/>
</filter>
<filter id="filter54_f_3397_34248" x="100.28" y="139.405" width="8.6428" height="8.0803" filterUnits="userSpaceOnUse" color-interpolation-filters="sRGB">
<feFlood flood-opacity="0" result="BackgroundImageFix"/>
<feBlend mode="normal" in="SourceGraphic" in2="BackgroundImageFix" result="shape"/>
<feGaussianBlur stdDeviation="1.70758" result="effect1_foregroundBlur_3397_34248"/>
</filter>
<filter id="filter55_f_3397_34248" x="154.116" y="139.405" width="8.6428" height="8.0803" filterUnits="userSpaceOnUse" color-interpolation-filters="sRGB">
<feFlood flood-opacity="0" result="BackgroundImageFix"/>
<feBlend mode="normal" in="SourceGraphic" in2="BackgroundImageFix" result="shape"/>
<feGaussianBlur stdDeviation="1.70758" result="effect1_foregroundBlur_3397_34248"/>
</filter>
<filter id="filter56_f_3397_34248" x="273.108" y="27.5536" width="11.6272" height="12.4866" filterUnits="userSpaceOnUse" color-interpolation-filters="sRGB">
<feFlood flood-opacity="0" result="BackgroundImageFix"/>
<feBlend mode="normal" in="SourceGraphic" in2="BackgroundImageFix" result="shape"/>
<feGaussianBlur stdDeviation="1.70758" result="effect1_foregroundBlur_3397_34248"/>
</filter>
<filter id="filter57_f_3397_34248" x="8.00672" y="96.4442" width="10.9397" height="11.5959" filterUnits="userSpaceOnUse" color-interpolation-filters="sRGB">
<feFlood flood-opacity="0" result="BackgroundImageFix"/>
<feBlend mode="normal" in="SourceGraphic" in2="BackgroundImageFix" result="shape"/>
<feGaussianBlur stdDeviation="1.70758" result="effect1_foregroundBlur_3397_34248"/>
</filter>
<filter id="filter58_f_3397_34248" x="293.061" y="42.7958" width="9.09593" height="12.2366" filterUnits="userSpaceOnUse" color-interpolation-filters="sRGB">
<feFlood flood-opacity="0" result="BackgroundImageFix"/>
<feBlend mode="normal" in="SourceGraphic" in2="BackgroundImageFix" result="shape"/>
<feGaussianBlur stdDeviation="1.70758" result="effect1_foregroundBlur_3397_34248"/>
</filter>
<filter id="filter59_f_3397_34248" x="79.9755" y="163.952" width="9.09593" height="12.2366" filterUnits="userSpaceOnUse" color-interpolation-filters="sRGB">
<feFlood flood-opacity="0" result="BackgroundImageFix"/>
<feBlend mode="normal" in="SourceGraphic" in2="BackgroundImageFix" result="shape"/>
<feGaussianBlur stdDeviation="1.70758" result="effect1_foregroundBlur_3397_34248"/>
</filter>
<filter id="filter60_f_3397_34248" x="133.811" y="163.952" width="9.09593" height="12.2366" filterUnits="userSpaceOnUse" color-interpolation-filters="sRGB">
<feFlood flood-opacity="0" result="BackgroundImageFix"/>
<feBlend mode="normal" in="SourceGraphic" in2="BackgroundImageFix" result="shape"/>
<feGaussianBlur stdDeviation="1.70758" result="effect1_foregroundBlur_3397_34248"/>
</filter>
<filter id="filter61_f_3397_34248" x="25.5223" y="0.616099" width="10.7287" height="11.7678" filterUnits="userSpaceOnUse" color-interpolation-filters="sRGB">
<feFlood flood-opacity="0" result="BackgroundImageFix"/>
<feBlend mode="normal" in="SourceGraphic" in2="BackgroundImageFix" result="shape"/>
<feGaussianBlur stdDeviation="1.70758" result="effect1_foregroundBlur_3397_34248"/>
</filter>
<filter id="filter62_f_3397_34248" x="64.1473" y="-2.54796" width="12.26" height="11.8616" filterUnits="userSpaceOnUse" color-interpolation-filters="sRGB">
<feFlood flood-opacity="0" result="BackgroundImageFix"/>
<feBlend mode="normal" in="SourceGraphic" in2="BackgroundImageFix" result="shape"/>
<feGaussianBlur stdDeviation="1.70758" result="effect1_foregroundBlur_3397_34248"/>
</filter>
<filter id="filter63_f_3397_34248" x="25.7567" y="42.1473" width="11.7678" height="10.9631" filterUnits="userSpaceOnUse" color-interpolation-filters="sRGB">
<feFlood flood-opacity="0" result="BackgroundImageFix"/>
<feBlend mode="normal" in="SourceGraphic" in2="BackgroundImageFix" result="shape"/>
<feGaussianBlur stdDeviation="1.70758" result="effect1_foregroundBlur_3397_34248"/>
</filter>
<filter id="filter64_f_3397_34248" x="213.327" y="1.25672" width="8.65061" height="10.6975" filterUnits="userSpaceOnUse" color-interpolation-filters="sRGB">
<feFlood flood-opacity="0" result="BackgroundImageFix"/>
<feBlend mode="normal" in="SourceGraphic" in2="BackgroundImageFix" result="shape"/>
<feGaussianBlur stdDeviation="1.70758" result="effect1_foregroundBlur_3397_34248"/>
</filter>
<filter id="filter65_f_3397_34248" x="265.725" y="1.38172" width="12.26" height="9.7053" filterUnits="userSpaceOnUse" color-interpolation-filters="sRGB">
<feFlood flood-opacity="0" result="BackgroundImageFix"/>
<feBlend mode="normal" in="SourceGraphic" in2="BackgroundImageFix" result="shape"/>
<feGaussianBlur stdDeviation="1.70758" result="effect1_foregroundBlur_3397_34248"/>
</filter>
<filter id="filter66_f_3397_34248" x="10.0302" y="31.5458" width="11.0022" height="9.3928" filterUnits="userSpaceOnUse" color-interpolation-filters="sRGB">
<feFlood flood-opacity="0" result="BackgroundImageFix"/>
<feBlend mode="normal" in="SourceGraphic" in2="BackgroundImageFix" result="shape"/>
<feGaussianBlur stdDeviation="1.70758" result="effect1_foregroundBlur_3397_34248"/>
</filter>
<filter id="filter67_f_3397_34248" x="6.53016" y="66.788" width="10.9397" height="11.4397" filterUnits="userSpaceOnUse" color-interpolation-filters="sRGB">
<feFlood flood-opacity="0" result="BackgroundImageFix"/>
<feBlend mode="normal" in="SourceGraphic" in2="BackgroundImageFix" result="shape"/>
<feGaussianBlur stdDeviation="1.70758" result="effect1_foregroundBlur_3397_34248"/>
</filter>
<filter id="filter68_f_3397_34248" x="234.663" y="-0.766714" width="9.8303" height="10.3928" filterUnits="userSpaceOnUse" color-interpolation-filters="sRGB">
<feFlood flood-opacity="0" result="BackgroundImageFix"/>
<feBlend mode="normal" in="SourceGraphic" in2="BackgroundImageFix" result="shape"/>
<feGaussianBlur stdDeviation="1.70758" result="effect1_foregroundBlur_3397_34248"/>
</filter>
<filter id="filter69_f_3397_34248" x="258.616" y="62.7411" width="13.0881" height="13.6584" filterUnits="userSpaceOnUse" color-interpolation-filters="sRGB">
<feFlood flood-opacity="0" result="BackgroundImageFix"/>
<feBlend mode="normal" in="SourceGraphic" in2="BackgroundImageFix" result="shape"/>
<feGaussianBlur stdDeviation="1.70758" result="effect1_foregroundBlur_3397_34248"/>
</filter>
<filter id="filter70_f_3397_34248" x="110.429" y="142.585" width="13.0881" height="13.6584" filterUnits="userSpaceOnUse" color-interpolation-filters="sRGB">
<feFlood flood-opacity="0" result="BackgroundImageFix"/>
<feBlend mode="normal" in="SourceGraphic" in2="BackgroundImageFix" result="shape"/>
<feGaussianBlur stdDeviation="1.70758" result="effect1_foregroundBlur_3397_34248"/>
</filter>
<filter id="filter71_f_3397_34248" x="164.265" y="142.585" width="13.0881" height="13.6584" filterUnits="userSpaceOnUse" color-interpolation-filters="sRGB">
<feFlood flood-opacity="0" result="BackgroundImageFix"/>
<feBlend mode="normal" in="SourceGraphic" in2="BackgroundImageFix" result="shape"/>
<feGaussianBlur stdDeviation="1.70758" result="effect1_foregroundBlur_3397_34248"/>
</filter>
<clipPath id="clip0_3397_34248">
<rect width="324.24" height="185.571" fill="white" transform="translate(146.609 0.140625)"/>
</clipPath>
<clipPath id="clip1_3397_34248">
<rect width="297.934" height="185.571" fill="white" transform="translate(0.796875 0.140625)"/>
</clipPath>
</defs>
</svg>
