<svg width="24" height="24" viewBox="0 0 24 24" fill="none" xmlns="http://www.w3.org/2000/svg">
<path d="M10.5218 15H10.445C10.2075 14.9542 10.0654 14.7962 10.0232 14.5191C10.0079 14.4231 10.0001 14.3258 10 14.2283C10 12.7401 10 11.2523 10 9.76471C10 9.59022 10.0173 9.41801 10.0974 9.26092C10.1253 9.19923 10.1656 9.14518 10.2154 9.10283C10.2653 9.06047 10.3233 9.03091 10.3851 9.01636C10.5105 8.98718 10.6409 8.99718 10.7613 9.04521C10.8818 9.10144 10.9981 9.16759 11.1093 9.24306C12.0426 9.82318 12.9756 10.4041 13.9083 10.9857C14.1698 11.1483 14.4351 11.3063 14.6907 11.479C14.8038 11.5527 14.8953 11.66 14.9543 11.7881C15.0421 11.9846 15.0007 12.2085 14.8535 12.3835C14.7502 12.5049 14.6194 12.5827 14.4904 12.6629C13.9133 13.0207 13.3369 13.3793 12.761 13.7387C12.1851 14.0981 11.6057 14.459 11.0228 14.8214C10.9447 14.8735 10.8633 14.9194 10.779 14.9588C10.721 14.9855 10.6582 14.9984 10.5951 14.9963C10.5715 14.9968 10.5462 14.9872 10.5218 15Z" fill="#00C569"/>
<path d="M10.3475 15.5823L10.3441 15.5944H10.2422C10.2746 15.5782 10.312 15.5739 10.3475 15.5823V15.5823Z" fill="#18232D"/>
<path d="M21.9976 7.69722C22.0003 7.44449 21.9676 7.19257 21.9003 6.94826C21.5639 5.77087 20.5034 5 19.2017 5C16.8034 5 14.4047 5 12.0056 5C9.6066 5 7.20774 5 4.80907 5C3.19535 5 2.00342 6.15055 2 7.70598C2 10.5688 2 13.4312 2 16.2929C2 17.8494 3.19193 18.9989 4.80623 19C9.60356 19 14.4011 19 19.1988 19C20.8011 19 21.9936 17.8494 21.9954 16.305C22.0007 13.4355 22.0014 10.5663 21.9976 7.69722ZM20.1761 16.26C20.1761 16.8994 19.8158 17.2462 19.1516 17.2462H4.84949C4.18351 17.2462 3.82205 16.9 3.82205 16.26V7.7394C3.82205 7.09893 4.18123 6.75322 4.84664 6.75322C9.61551 6.75322 14.384 6.75322 19.1521 6.75322C19.8181 6.75322 20.1767 7.09893 20.1767 7.73612C20.1779 10.5774 20.178 13.4187 20.1773 16.26H20.1761Z" fill="#18232D"/>
</svg>
