<svg width="19" height="19" viewBox="0 0 19 19" fill="none" xmlns="http://www.w3.org/2000/svg">
<path d="M2.67931 3.15625H16.2656C16.874 3.15625 17.3672 3.64273 17.3672 4.24283C17.3672 4.84294 16.874 5.32942 16.2656 5.32942H2.67931C2.07091 5.32942 1.57771 4.84294 1.57771 4.24283C1.57771 3.64273 2.07091 3.15625 2.67931 3.15625Z" fill="white"/>
<path d="M2.67931 8.39062H16.2656C16.874 8.39062 17.3672 8.8771 17.3672 9.47721C17.3672 10.0773 16.874 10.5638 16.2656 10.5638H2.67931C2.07091 10.5638 1.57771 10.0773 1.57771 9.47721C1.57771 8.8771 2.07091 8.39062 2.67931 8.39062Z" fill="white"/>
<path d="M7.45287 13.6172H16.2656C16.874 13.6172 17.3672 14.1037 17.3672 14.7038C17.3672 15.3039 16.874 15.7904 16.2656 15.7904H7.45287C6.84448 15.7904 6.35128 15.3039 6.35128 14.7038C6.35128 14.1037 6.84448 13.6172 7.45287 13.6172Z" fill="white"/>
</svg>
