<svg width="24" height="24" viewBox="0 0 24 24" fill="none" xmlns="http://www.w3.org/2000/svg">
<path d="M14.6476 11.0006H9.33333C9.15949 10.9993 8.9871 11.0341 8.826 11.103C8.66491 11.172 8.51827 11.2737 8.39446 11.4024C8.27065 11.5311 8.17209 11.6843 8.1044 11.8532C8.03672 12.0221 8.00125 12.2034 8 12.3868V20.6137C8.00125 20.7971 8.03672 20.9784 8.1044 21.1473C8.17209 21.3162 8.27065 21.4694 8.39446 21.5981C8.51827 21.7268 8.66491 21.8286 8.826 21.8975C8.9871 21.9665 9.15949 22.0013 9.33333 22H11.9905C12.0915 22 12.1884 21.9576 12.2599 21.8823C12.3313 21.8069 12.3714 21.7047 12.3714 21.5982V20.6941C12.3714 20.5875 12.3313 20.4853 12.2599 20.41C12.1884 20.3346 12.0915 20.2923 11.9905 20.2923H10.4095C10.3174 20.2936 10.226 20.2756 10.1405 20.2394C10.0551 20.2031 9.97732 20.1493 9.91175 20.0811C9.84618 20.0129 9.79411 19.9316 9.75858 19.842C9.72305 19.7523 9.70475 19.6562 9.70476 19.559V13.4415C9.70475 13.3444 9.72305 13.2482 9.75858 13.1586C9.79411 13.069 9.84618 12.9877 9.91175 12.9194C9.97732 12.8512 10.0551 12.7974 10.1405 12.7612C10.226 12.7249 10.3174 12.7069 10.4095 12.7082H13.6095C13.7948 12.7082 13.9726 12.7852 14.1045 12.9224C14.2364 13.0596 14.3118 13.2461 14.3143 13.4415V21.5982C14.313 21.6504 14.3217 21.7025 14.3398 21.7512C14.3579 21.7999 14.385 21.8442 14.4196 21.8817C14.4543 21.9191 14.4956 21.9489 14.5413 21.9692C14.587 21.9895 14.6361 22 14.6857 22C15.0343 22 15.3686 21.8539 15.6151 21.594C15.8615 21.334 16 20.9814 16 20.6137V12.3868C16.0001 12.2013 15.9649 12.0177 15.8964 11.8469C15.828 11.676 15.7278 11.5214 15.6017 11.3921C15.4756 11.2629 15.3262 11.1616 15.1623 11.0943C14.9984 11.0271 14.8234 10.9952 14.6476 11.0006Z" fill="#18232D"/>
<path d="M15.9606 4.98629C15.9179 4.86101 15.8384 4.7515 15.7323 4.67211C15.6262 4.59272 15.4985 4.54716 15.3661 4.54138L13.3595 4.42486L12.595 2.43336C12.5473 2.30608 12.4617 2.19638 12.3498 2.11894C12.2378 2.0415 12.1049 2 11.9686 2C11.8324 2 11.6995 2.0415 11.5875 2.11894C11.4756 2.19638 11.39 2.30608 11.3423 2.43336L10.6097 4.42486L8.63494 4.54138C8.50116 4.54611 8.37199 4.59143 8.26469 4.67129C8.15738 4.75115 8.07703 4.86176 8.03435 4.98836C7.99167 5.11496 7.98869 5.25153 8.02581 5.37986C8.06293 5.5082 8.13839 5.62219 8.24212 5.70663L9.82403 7.05195L9.30381 9.17057C9.26809 9.30066 9.27339 9.43857 9.31898 9.56555C9.36457 9.69253 9.44824 9.80243 9.55861 9.88031C9.67077 9.95823 9.80415 10 9.94082 10C10.0775 10 10.2109 9.95823 10.323 9.88031L12.0005 8.74685L13.6567 9.84853C13.768 9.92797 13.9022 9.96889 14.0389 9.96505C14.1747 9.96231 14.307 9.92197 14.4212 9.84853C14.5359 9.77317 14.6254 9.66538 14.6784 9.53894C14.7313 9.41251 14.7453 9.27318 14.7184 9.13879L14.1876 7.02017L15.7801 5.70663C15.8783 5.61789 15.9479 5.50206 15.98 5.37382C16.0122 5.24557 16.0054 5.1107 15.9606 4.98629V4.98629ZM13.9009 5.84434L13.094 6.52229L13.3595 7.58161C13.3795 7.64576 13.3778 7.71468 13.3548 7.77782C13.3318 7.84096 13.2887 7.89483 13.2321 7.93118C13.1763 7.97115 13.1096 7.99331 13.041 7.99474C12.9782 8.01043 12.9126 8.01043 12.8498 7.99474L12.0005 7.41212L11.1511 7.99474C11.0948 8.03299 11.0282 8.05345 10.96 8.05345C10.8919 8.05345 10.8253 8.03299 10.7689 7.99474C10.7123 7.95838 10.6692 7.90451 10.6462 7.84138C10.6232 7.77824 10.6215 7.70932 10.6415 7.64516L10.907 6.58585L10.1001 5.9079C10.0506 5.86373 10.0152 5.80609 9.99826 5.74208C9.98128 5.67808 9.98346 5.61051 10.0045 5.54773C10.0241 5.48311 10.0631 5.42607 10.1163 5.38437C10.1695 5.34267 10.2342 5.31834 10.3018 5.31468H11.3635L11.7245 4.25537C11.7486 4.1905 11.792 4.13455 11.849 4.09504C11.9059 4.05553 11.9736 4.03435 12.043 4.03435C12.1123 4.03435 12.18 4.05553 12.2369 4.09504C12.2939 4.13455 12.3373 4.1905 12.3615 4.25537L12.7224 5.31468H13.7841C13.8517 5.31834 13.9165 5.34267 13.9697 5.38437C14.0228 5.42607 14.0619 5.48311 14.0814 5.54773C14.0809 5.60881 14.0639 5.66861 14.0321 5.72082C14.0003 5.77303 13.955 5.81571 13.9009 5.84434V5.84434Z" fill="#00C569"/>
<path d="M2 14.64V21.36C2 21.5297 2.06321 21.6925 2.17574 21.8125C2.28826 21.9326 2.44087 22 2.6 22H6.4C6.55913 22 6.71174 21.9326 6.82426 21.8125C6.93679 21.6925 7 21.5297 7 21.36V14.64C7 14.4703 6.93679 14.3075 6.82426 14.1875C6.71174 14.0674 6.55913 14 6.4 14H2.6C2.44087 14 2.28826 14.0674 2.17574 14.1875C2.06321 14.3075 2 14.4703 2 14.64V14.64ZM4.95 20.2222H4.05C3.949 20.22 3.85273 20.1761 3.7813 20.1C3.70986 20.0238 3.66879 19.9211 3.66667 19.8133V16.1867C3.66879 16.0789 3.70986 15.9762 3.7813 15.9C3.85273 15.8239 3.949 15.78 4.05 15.7778H4.95C5.051 15.78 5.14727 15.8239 5.2187 15.9C5.29014 15.9762 5.33121 16.0789 5.33333 16.1867V19.8133C5.33121 19.9211 5.29014 20.0238 5.2187 20.1C5.14727 20.1761 5.051 20.22 4.95 20.2222V20.2222Z" fill="#18232D"/>
<path d="M17 16.6171V21.3829C17 21.5465 17.0632 21.7035 17.1757 21.8192C17.2883 21.935 17.4409 22 17.6 22H21.4C21.5591 22 21.7117 21.935 21.8243 21.8192C21.9368 21.7035 22 21.5465 22 21.3829V16.6171C22 16.4535 21.9368 16.2965 21.8243 16.1808C21.7117 16.065 21.5591 16 21.4 16H17.6C17.4409 16 17.2883 16.065 17.1757 16.1808C17.0632 16.2965 17 16.4535 17 16.6171ZM19.95 20.2857H19.05C18.949 20.2835 18.8527 20.2413 18.7813 20.1678C18.7099 20.0943 18.6688 19.9953 18.6667 19.8914V18.1086C18.6688 18.0047 18.7099 17.9057 18.7813 17.8322C18.8527 17.7587 18.949 17.7165 19.05 17.7143H19.95C20.051 17.7165 20.1473 17.7587 20.2187 17.8322C20.2901 17.9057 20.3312 18.0047 20.3333 18.1086V19.8914C20.3312 19.9953 20.2901 20.0943 20.2187 20.1678C20.1473 20.2413 20.051 20.2835 19.95 20.2857Z" fill="#18232D"/>
</svg>
