<svg width="52" height="50" viewBox="0 0 52 50" fill="none" xmlns="http://www.w3.org/2000/svg">
<rect x="0.695312" width="50.6024" height="50" rx="25" fill="white"/>
<path fill-rule="evenodd" clip-rule="evenodd" d="M32.5179 19.245V21.1617C34.5515 21.8337 36.0332 23.7827 36.0332 26.1105V32.2816C36.0332 35.1635 33.7764 37.5 30.9942 37.5H21.0012C18.2177 37.5 15.9609 35.1635 15.9609 32.2816V26.1105C15.9609 23.7827 17.4439 21.8337 19.4763 21.1617V19.245C19.4883 15.5185 22.4037 12.5 25.9791 12.5C29.6024 12.5 32.5179 15.5185 32.5179 19.245ZM26.0031 14.6738C28.4386 14.6738 30.4183 16.7234 30.4183 19.245V20.8921H21.5759V19.2202C21.5879 16.711 23.5675 14.6738 26.0031 14.6738ZM27.0469 30.5687C27.0469 31.1773 26.579 31.6618 25.9911 31.6618C25.4152 31.6618 24.9473 31.1773 24.9473 30.5687V27.811C24.9473 27.2148 25.4152 26.7303 25.9911 26.7303C26.579 26.7303 27.0469 27.2148 27.0469 27.811V30.5687Z" fill="#656565"/>
</svg>
