<svg width="26" height="36" viewBox="0 0 26 36" fill="none" xmlns="http://www.w3.org/2000/svg">
<path d="M24.5334 1.40102L20.2251 13.0389C20.1506 13.2402 20.0149 13.4141 19.8364 13.537C19.6579 13.6598 19.4453 13.7257 19.2274 13.7257C19.0248 13.7257 19.5005 13.8366 13.0434 12.1055C12.9411 12.1387 13.7188 11.9158 7.17302 13.7551C6.91475 13.8279 6.63798 13.8018 6.39856 13.6819C6.15914 13.562 5.97488 13.3573 5.88296 13.1091L1.54866 1.40102C1.49014 1.24333 1.47118 1.07409 1.4934 0.907662C1.51561 0.741232 1.57835 0.582527 1.67627 0.445018C1.7742 0.307509 1.90442 0.195254 2.05589 0.117782C2.20736 0.0403092 2.37562 -9.41763e-05 2.54636 6.81649e-07H9.17806C9.39596 -4.94189e-05 9.6086 0.0658309 9.78709 0.188695C9.96558 0.311558 10.1013 0.485452 10.1758 0.686758L13.0376 8.4308L15.9082 0.686758C15.9827 0.485299 16.1186 0.311299 16.2973 0.188422C16.4759 0.0655454 16.6888 -0.000244291 16.9068 6.81649e-07H23.5357C23.7064 -9.41763e-05 23.8747 0.0403092 24.0261 0.117782C24.1776 0.195254 24.3078 0.307509 24.4058 0.445018C24.5037 0.582527 24.5664 0.741232 24.5886 0.907662C24.6108 1.07409 24.5919 1.24333 24.5334 1.40102Z" fill="#4A696F"/>
<path d="M24.532 1.40102L20.2238 13.0389C20.1493 13.2402 20.0136 13.4141 19.8351 13.537C19.6566 13.6598 19.444 13.7257 19.2261 13.7257C19.0234 13.7257 19.4991 13.8366 13.0421 12.1055C13.0353 12.1055 13.0421 12.2706 13.0421 8.4308L15.9078 0.686758C15.9823 0.485451 16.118 0.311558 16.2965 0.188694C16.475 0.0658304 16.6876 -4.99339e-05 16.9055 1.66643e-07H23.5343C23.7051 -9.46913e-05 23.8733 0.0403087 24.0248 0.117781C24.1762 0.195254 24.3065 0.307508 24.4044 0.445017C24.5023 0.582527 24.5651 0.741231 24.5873 0.907661C24.6095 1.07409 24.5905 1.24333 24.532 1.40102Z" fill="#384949"/>
<path d="M26.0011 22.7492C26.0013 25.275 25.2374 27.7438 23.8066 29.8417C22.3758 31.9396 20.3428 33.5718 17.9659 34.5308C15.5891 35.4898 12.9758 35.7323 10.4584 35.2275C7.94095 34.7227 5.6331 33.4933 3.82825 31.6957C2.02339 29.8981 0.80307 27.6135 0.322436 25.1323C-0.158198 22.6511 0.122564 20.0854 1.12903 17.7615C2.1355 15.4376 3.82221 13.4604 5.9747 12.0814C8.12718 10.7023 10.6482 9.98361 13.2173 10.0167C15.5303 10.0047 17.8026 10.6159 19.7872 11.7839C21.6699 12.9584 23.2244 14.5765 24.3095 16.4914C25.3947 18.4063 25.9761 20.5574 26.0011 22.7492Z" fill="#E6E6E6"/>
<path d="M13.0391 35.4828V10.0263C15.4 9.97638 17.727 10.5859 19.7497 11.7841C21.7724 12.9822 23.4079 14.7199 24.4663 16.7952C25.5148 18.7334 26.0352 20.9054 25.9766 23.0999C25.918 25.2944 25.2826 27.4366 24.1321 29.318C22.9816 31.1995 21.3553 32.7561 19.4113 33.8364C17.4674 34.9167 15.2721 35.4839 13.0391 35.4828Z" fill="#C4C4C2"/>
<path d="M20.4441 21.5252L16.874 24.1091L18.2384 28.2942C18.3071 28.5043 18.3062 28.7304 18.236 28.94C18.1657 29.1496 18.0297 29.3319 17.8474 29.4607C17.6651 29.5895 17.446 29.6582 17.2215 29.6569C16.997 29.6555 16.7787 29.5843 16.5981 29.4533L13.0444 26.8808L9.49066 29.4533C9.30997 29.5843 9.09169 29.6555 8.8672 29.6569C8.64271 29.6582 8.42358 29.5895 8.24129 29.4607C8.05901 29.3319 7.92297 29.1496 7.85272 28.94C7.78247 28.7304 7.78164 28.5043 7.85034 28.2942L9.21469 24.1091L5.6446 21.5252C5.46409 21.3951 5.33006 21.2122 5.26168 21.0026C5.19329 20.7931 5.19405 20.5676 5.26384 20.3585C5.33363 20.1495 5.46889 19.9674 5.65026 19.8384C5.83164 19.7095 6.04986 19.6402 6.27371 19.6404H10.6698L12.0312 15.4668C12.0987 15.2545 12.2333 15.0689 12.4156 14.9372C12.5978 14.8054 12.8181 14.7344 13.0444 14.7344C13.2706 14.7344 13.4909 14.8054 13.6731 14.9372C13.8554 15.0689 13.9901 15.2545 14.0575 15.4668L15.419 19.6404H19.815C20.0389 19.6402 20.2571 19.7095 20.4384 19.8384C20.6198 19.9674 20.7551 20.1495 20.8249 20.3585C20.8947 20.5676 20.8954 20.7931 20.827 21.0026C20.7586 21.2122 20.6246 21.3951 20.4441 21.5252Z" fill="#BFBEB8"/>
<path d="M20.4369 21.5291L16.8668 24.113L18.2312 28.2981C18.2999 28.5082 18.299 28.7343 18.2288 28.9439C18.1585 29.1535 18.0225 29.3358 17.8402 29.4646C17.6579 29.5934 17.4388 29.6621 17.2143 29.6608C16.9898 29.6594 16.7715 29.5882 16.5908 29.4572L13.0391 26.8838V14.7422C13.264 14.7421 13.4831 14.8122 13.6649 14.9425C13.8466 15.0727 13.9816 15.2564 14.0503 15.4669L15.4117 19.6406H19.8078C20.0327 19.6392 20.2522 19.708 20.4346 19.8372C20.6171 19.9663 20.7532 20.1491 20.8232 20.3592C20.8931 20.5693 20.8934 20.7958 20.824 21.0061C20.7546 21.2164 20.619 21.3995 20.4369 21.5291Z" fill="#ADAA9E"/>
</svg>
