<svg width="18" height="20" viewBox="0 0 18 20" fill="none" xmlns="http://www.w3.org/2000/svg">
<g id="Group 3465052">
<path id="Vector" d="M13.8735 15.9816L15.4207 13.8759C15.4467 13.8406 15.4838 13.8139 15.5269 13.7996C15.57 13.7854 15.6168 13.7844 15.6605 13.7968C15.7042 13.8092 15.7426 13.8343 15.7703 13.8685C15.7979 13.9027 15.8133 13.9443 15.8143 13.9873C15.8143 15.0595 15.8143 16.1316 15.8143 17.2034C15.8143 18.5052 14.9448 19.5661 13.6148 19.9025C13.3386 19.9698 13.0541 20.0025 12.7688 19.9998C9.52802 19.9998 6.28721 19.9998 3.04639 19.9998C1.30056 19.9998 0.00278491 18.8054 0.00216604 17.2017C-0.000722015 12.404 -0.000722015 7.60614 0.00216604 2.80808C0.00216604 1.19389 1.30179 0.00291475 3.06 0.00174885C6.29298 -0.000582949 9.52616 -0.000582949 12.7595 0.00174885C14.5178 0.00174885 15.8137 1.19447 15.8149 2.80924C15.8149 4.60589 15.8149 6.40215 15.8149 8.19802C15.8148 8.23782 15.8019 8.27666 15.7778 8.30938L14.2306 10.4138C14.2047 10.4492 14.1675 10.4759 14.1244 10.4901C14.0813 10.5043 14.0345 10.5054 13.9908 10.493C13.9471 10.4806 13.9087 10.4555 13.881 10.4213C13.8534 10.3871 13.838 10.3455 13.837 10.3025C13.837 7.81523 13.837 5.32932 13.837 2.84479C13.837 2.1814 13.4453 1.8223 12.723 1.8223H3.09281C2.37306 1.8223 1.97884 2.18375 1.97884 2.85006V17.1556C1.97884 17.8184 2.37244 18.1787 3.09281 18.1787H12.7212C13.4409 18.1787 13.8314 17.8173 13.8314 17.151V16.0923C13.8331 16.0522 13.8478 16.0136 13.8735 15.9816Z" fill="#18232D"/>
<path id="Vector_2" d="M12.3978 16.9958L11.1781 17.401C11.1469 17.4117 11.1135 17.4155 11.0805 17.412C11.0475 17.4085 11.0159 17.3979 10.988 17.381C10.9601 17.364 10.9368 17.3412 10.9198 17.3144C10.9029 17.2875 10.8928 17.2573 10.8903 17.2261L10.8284 16.0212C10.8261 15.9784 10.8389 15.9362 10.8649 15.9011L16.3239 8.48538C16.3568 8.4418 16.4063 8.4119 16.462 8.402C16.5178 8.39211 16.5754 8.40298 16.6229 8.43232L17.9052 9.23097C17.9285 9.2452 17.9485 9.26368 17.9641 9.28534C17.9796 9.307 17.9904 9.3314 17.9958 9.35707C18.0011 9.38273 18.001 9.40914 17.9953 9.43475C17.9896 9.46035 17.9785 9.48461 17.9627 9.50611L12.5049 16.9206C12.4784 16.9556 12.441 16.9819 12.3978 16.9958Z" fill="#00C569"/>
<path id="Vector_3" d="M11.8604 3.48438H3.95251C3.74452 3.48431 3.54471 3.56063 3.39553 3.69715C3.32242 3.76393 3.26427 3.84383 3.22451 3.93215C3.18476 4.02046 3.1642 4.11537 3.16406 4.2113C3.16419 4.30731 3.18474 4.40232 3.22449 4.49073C3.26424 4.57914 3.3224 4.65916 3.39553 4.72605C3.54471 4.86256 3.74452 4.93888 3.95251 4.93882H11.8604C12.0684 4.93888 12.2682 4.86256 12.4174 4.72605C12.4906 4.65919 12.5489 4.57919 12.5887 4.49079C12.6286 4.40238 12.6492 4.30735 12.6495 4.2113C12.6492 4.11534 12.6286 4.0204 12.5887 3.93209C12.5488 3.84378 12.4906 3.7639 12.4174 3.69715C12.2682 3.56063 12.0684 3.48431 11.8604 3.48438ZM11.8604 6.68476H3.95251C3.74452 6.68469 3.54471 6.76102 3.39553 6.89753C3.32242 6.96431 3.26427 7.04422 3.22451 7.13253C3.18476 7.22085 3.1642 7.31576 3.16406 7.41168C3.16419 7.5077 3.18474 7.60271 3.22449 7.69112C3.26424 7.77953 3.3224 7.85954 3.39553 7.92643C3.54471 8.06294 3.74452 8.13927 3.95251 8.1392H11.8604C12.0684 8.13927 12.2682 8.06294 12.4174 7.92643C12.4906 7.85957 12.5489 7.77958 12.5887 7.69117C12.6286 7.60277 12.6492 7.50773 12.6495 7.41168C12.6492 7.31572 12.6286 7.22079 12.5887 7.13248C12.5488 7.04417 12.4906 6.96428 12.4174 6.89753C12.2682 6.76102 12.0684 6.68469 11.8604 6.68476Z" fill="#18232D"/>
<path id="Vector_4" d="M10.5992 9.89851H3.95684C3.85409 9.89713 3.75205 9.91486 3.65657 9.95066C3.5611 9.98646 3.47406 10.0396 3.40042 10.1072C3.32679 10.1747 3.26801 10.2552 3.22745 10.3441C3.1869 10.4331 3.16535 10.5287 3.16406 10.6255C3.16651 10.8206 3.25113 11.0069 3.39933 11.1433C3.54752 11.2797 3.74716 11.3552 3.95436 11.353H10.5967C10.6993 11.3541 10.8012 11.3362 10.8965 11.3003C10.9918 11.2644 11.0787 11.2111 11.1521 11.1435C11.2256 11.076 11.2842 10.9954 11.3246 10.9065C11.365 10.8177 11.3864 10.7222 11.3876 10.6255C11.385 10.4307 11.3006 10.2449 11.1528 10.1086C11.005 9.97236 10.8059 9.8968 10.5992 9.89851Z" fill="#18232D"/>
</g>
</svg>
