<svg width="20" height="20" viewBox="0 0 20 20" fill="none" xmlns="http://www.w3.org/2000/svg">
<path d="M10.5346 1.67746C10.4158 1.67091 10.2977 1.66438 10.1788 1.66438H9.81695C8.95495 1.65252 8.12336 1.9722 7.50502 2.55314C6.88668 3.13408 6.53221 3.92872 6.51953 4.76235C6.51939 4.8742 6.52617 4.98596 6.53985 5.09703L6.7204 6.69768C6.78648 7.25015 7.00531 7.77519 7.35386 8.21756L8.55756 9.15392C9.00767 9.36094 9.49984 9.46835 9.99825 9.46835C10.4967 9.46835 10.9888 9.36094 11.4389 9.15392L12.6426 8.21756C12.7043 8.14776 12.7602 8.07331 12.8097 7.99492C13.0659 7.60225 13.2276 7.15892 13.2829 6.69768L13.4642 5.09703C13.5051 4.68627 13.4617 4.27175 13.3364 3.87727C13.2112 3.4828 13.0066 3.11614 12.7343 2.79838C12.4621 2.48062 12.1276 2.21802 11.7502 2.02565C11.3727 1.83329 10.9596 1.71495 10.5346 1.67746ZM11.9889 4.94569L11.8076 6.55071C11.7495 6.97407 11.5344 7.3626 11.2023 7.64404C10.8701 7.92547 10.4436 8.08065 10.002 8.08065C9.56043 8.08065 9.13387 7.92547 8.80173 7.64404C8.46959 7.3626 8.25449 6.97407 8.19645 6.55071L8.01589 4.94569C7.98557 4.70555 8.0103 4.4619 8.08832 4.23204C8.16633 4.00218 8.29571 3.79175 8.46729 3.61569C8.64013 3.43759 8.84935 3.29617 9.08168 3.20036C9.31401 3.10454 9.56439 3.05645 9.81695 3.05912H10.1863C10.4214 3.05498 10.655 3.09581 10.8737 3.17928C11.0924 3.26276 11.2918 3.38722 11.4606 3.54551C11.6294 3.7038 11.7641 3.89279 11.8571 4.10162C11.9501 4.31045 11.9995 4.535 12.0024 4.76235C12.0024 4.82128 11.9949 4.88677 11.9889 4.94788V4.94569Z" fill="#18232D"/>
<path d="M11.7344 14.3889L13.5099 14.0251C13.7285 13.9672 13.9613 13.9861 14.1669 14.0784C14.3725 14.1707 14.5377 14.3304 14.6331 14.5293C14.6574 14.6287 14.6592 14.7321 14.6386 14.8322C14.6179 14.9324 14.5751 15.0272 14.5133 15.11C14.4514 15.1928 14.3718 15.2617 14.28 15.3122C14.1881 15.3626 14.0861 15.3934 13.9808 15.4024L12.2061 15.7661C11.9873 15.8241 11.7543 15.8052 11.5485 15.7128C11.3427 15.6203 11.1775 15.4603 11.0822 15.2612C11.0579 15.1618 11.0561 15.0585 11.0768 14.9584C11.0974 14.8582 11.1402 14.7636 11.202 14.6808C11.2639 14.598 11.3435 14.5291 11.4354 14.4788C11.5272 14.4284 11.6292 14.3977 11.7344 14.3889Z" fill="#00C569"/>
<path d="M16.0966 9.12629C15.9126 9.02654 15.7086 8.96638 15.4984 8.94993C15.2881 8.93348 15.0768 8.96112 14.8786 9.03097L10.0969 10.7677L5.10449 9.03608C4.90708 8.96708 4.69652 8.94037 4.48738 8.95783C4.27825 8.97529 4.07553 9.03649 3.89326 9.13719C3.72413 9.22522 3.58271 9.35579 3.48393 9.5151C3.38515 9.6744 3.33266 9.85654 3.33203 10.0423L3.4825 15.7369C3.50191 15.9654 3.59442 16.1823 3.74717 16.3575C3.89993 16.5328 4.10535 16.6577 4.33488 16.7148L9.67633 18.2718C9.81475 18.3119 9.95838 18.3327 10.1029 18.3336C10.2474 18.3324 10.391 18.3116 10.5295 18.2718L15.6708 16.765C15.9018 16.7085 16.1084 16.5831 16.2615 16.4065C16.4145 16.2299 16.5061 16.0111 16.5232 15.7813L16.6654 10.0336C16.6651 9.84657 16.6119 9.66321 16.5117 9.50331C16.4114 9.3434 16.2679 9.21303 16.0966 9.12629ZM15.1698 15.7202L10.1232 17.2161L4.83366 15.67L4.69147 10.11L9.57552 11.8074C9.89988 11.9179 10.2539 11.9158 10.5768 11.8016L15.3052 10.1041L15.1698 15.7202Z" fill="#18232D"/>
</svg>
