<svg width="24" height="24" viewBox="0 0 24 24" fill="none" xmlns="http://www.w3.org/2000/svg">
<path d="M18.7722 4.00268H18.0038V3.00009C18.0038 2.73485 17.8985 2.48047 17.7109 2.29292C17.5234 2.10537 17.269 2 17.0038 2C16.7385 2 16.4842 2.10537 16.2967 2.29292C16.1091 2.48047 16.0038 2.73485 16.0038 3.00009V3.00009V3.99965H8.00433V3.00009C8.00433 2.73485 7.89897 2.48047 7.71142 2.29292C7.52388 2.10537 7.26956 2 7.00433 2C6.7391 2 6.48472 2.10537 6.29718 2.29292C6.10963 2.48047 6.00427 2.73485 6.00427 3.00009V3.99965H5.23079C4.37384 3.99992 3.55209 4.34055 2.94623 4.94661C2.34037 5.55268 2 6.37454 2 7.23151V18.7681C2 19.6253 2.34046 20.4473 2.94654 21.0534C3.55262 21.6595 4.37465 22 5.23178 22H18.7682C19.6253 22 20.4473 21.6595 21.0534 21.0534C21.6595 20.4473 22 19.6253 22 18.7681V7.23151C21.9992 6.37559 21.6589 5.55497 21.0538 4.94965C20.4487 4.34433 19.6281 4.00375 18.7722 4.00268V4.00268ZM20.004 18.7712C20.004 19.0978 19.8742 19.4111 19.6432 19.6421C19.4122 19.8731 19.0989 20.0029 18.7722 20.0029H5.23079C4.90412 20.0029 4.59084 19.8731 4.35986 19.6421C4.12887 19.4111 3.99907 19.0978 3.99907 18.7712V18.7712V7.23457C3.99907 6.9079 4.12887 6.59461 4.35986 6.36362C4.59084 6.13262 4.90412 6.00285 5.23079 6.00285H5.9992V7.00241C5.9992 7.26765 6.10456 7.52203 6.2921 7.70958C6.47965 7.89713 6.73403 8.00247 6.99926 8.00247C7.26449 8.00247 7.51886 7.89713 7.70641 7.70958C7.89396 7.52203 7.99932 7.26765 7.99932 7.00241V6.00285H15.9987V7.00241C15.9987 7.26765 16.1041 7.52203 16.2916 7.70958C16.4792 7.89713 16.7335 8.00247 16.9987 8.00247C17.2639 8.00247 17.5183 7.89713 17.7059 7.70958C17.8934 7.52203 17.9988 7.26765 17.9988 7.00241V6.00285H18.7672C19.0938 6.00285 19.4071 6.13262 19.6381 6.36362C19.8691 6.59461 19.9989 6.9079 19.9989 7.23457V7.23457L20.004 18.7712Z" fill="#18232D"/>
<path d="M16.6787 11.1486C16.5878 11.0704 16.476 11.0205 16.3571 11.0052C16.2382 10.9899 16.1173 11.0098 16.0096 11.0624L14.2022 11.9434L12.4727 9.94627C12.4197 9.88531 12.3551 9.83539 12.2827 9.79938C12.2104 9.76338 12.1316 9.74199 12.051 9.73642C11.9701 9.72973 11.8887 9.73946 11.8117 9.76507C11.7347 9.79068 11.6637 9.83165 11.6029 9.88545C11.5806 9.90426 11.5596 9.92458 11.54 9.94627L9.80963 11.9434L8.00212 11.0624C7.89435 11.0102 7.77371 10.9906 7.65495 11.0058C7.53618 11.0211 7.42446 11.0706 7.33339 11.1484C7.24232 11.2261 7.17586 11.3287 7.14214 11.4436C7.10842 11.5585 7.10888 11.6807 7.1435 11.7953L8.52012 16.3218C8.55744 16.449 8.63532 16.5605 8.74182 16.6393C8.84831 16.7182 8.97764 16.7601 9.11015 16.7587H14.9026C15.0351 16.7601 15.1645 16.7182 15.271 16.6393C15.3775 16.5605 15.4553 16.449 15.4927 16.3218L16.8693 11.7953C16.904 11.6807 16.9045 11.5584 16.8706 11.4435C16.8368 11.3286 16.7701 11.2261 16.6787 11.1486V11.1486ZM15.2788 12.7878L14.4464 15.525H9.56832L8.73606 12.7878L9.69813 13.2562C9.82001 13.3155 9.95796 13.333 10.0908 13.3061C10.2236 13.2791 10.3439 13.2092 10.4331 13.1072L12.0084 11.2905L13.5837 13.1072C13.6729 13.2092 13.7932 13.2791 13.926 13.3061C14.0588 13.333 14.1968 13.3155 14.3187 13.2562L15.2788 12.7878Z" fill="#00C569"/>
</svg>
