<svg width="24" height="24" viewBox="0 0 24 24" fill="none" xmlns="http://www.w3.org/2000/svg">
<path d="M6.55656 11.3141C6.36536 11.115 6.13673 10.9569 5.88426 10.8492C5.63179 10.7416 5.36061 10.6866 5.08682 10.6875H3.78602C3.57848 10.6925 3.38003 10.775 3.22854 10.9193C3.08659 11.0732 3.00541 11.2749 3.00048 11.4858V15.5287C2.99425 15.8231 3.04893 16.1155 3.16097 16.3871C3.26458 16.6461 3.41661 16.8822 3.60864 17.0824C3.80382 17.2779 4.03293 17.4351 4.28438 17.5459C4.50519 17.6375 4.73904 17.6926 4.97701 17.709H5.08682C5.36114 17.7083 5.63254 17.6517 5.88498 17.5426C6.13742 17.4335 6.36577 17.2741 6.55656 17.0738C6.7529 16.8744 6.90848 16.6375 7.0143 16.3768C7.12013 16.116 7.17413 15.8365 7.17317 15.5545V12.8334C7.16963 12.2648 6.94848 11.7199 6.55656 11.3141ZM5.71188 15.5287C5.699 15.6964 5.62368 15.8528 5.50127 15.9661C5.37885 16.0793 5.21855 16.1409 5.05304 16.1382C4.89097 16.137 4.73484 16.076 4.61381 15.9665C4.4931 15.8517 4.41797 15.696 4.40264 15.5287V12.1553H5.05304C5.13957 12.1547 5.22533 12.1719 5.30516 12.2058C5.385 12.2397 5.45726 12.2897 5.51761 12.3527C5.63961 12.4824 5.70899 12.6541 5.71188 12.8334V15.5287Z" fill="#18232D"/>
<path d="M20.7352 11.1997C20.6227 11.0798 20.4741 11.0013 20.3128 10.9766H18.8769C18.6032 10.9766 18.3324 11.0321 18.08 11.1396C17.8277 11.2472 17.5989 11.4048 17.4072 11.6032C17.212 11.803 17.0577 12.0401 16.9533 12.3009C16.8489 12.5617 16.7965 12.841 16.799 13.1225V15.8178C16.7965 16.0993 16.8489 16.3785 16.9533 16.6393C17.0577 16.9001 17.212 17.1373 17.4072 17.3371C17.5985 17.5366 17.827 17.6955 18.0793 17.8046C18.3316 17.9136 18.6027 17.9706 18.8769 17.9723C18.9991 17.9714 19.1209 17.957 19.2401 17.9294C19.1228 18.2313 18.9236 18.4932 18.6657 18.6847C18.3539 18.9302 17.9705 19.0631 17.5761 19.0624H14.2988C14.1369 18.6292 13.8403 18.2615 13.4541 18.0152C13.0315 17.759 12.5327 17.6649 12.0478 17.7499C11.5629 17.8349 11.1239 18.0935 10.8103 18.4787C10.4908 18.8691 10.3173 19.3616 10.3204 19.8693C10.3179 20.3743 10.4914 20.8639 10.8103 21.2512C11.1243 21.6383 11.5652 21.8973 12.0519 21.9809C12.167 21.994 12.2832 21.994 12.3982 21.9809C12.7537 21.9929 13.1061 21.91 13.4203 21.7405C13.8065 21.4942 14.1031 21.1265 14.265 20.6933H17.5677C18.0138 20.6936 18.4554 20.6026 18.8661 20.4256C19.2768 20.2487 19.6482 19.9894 19.9581 19.6633C20.2773 19.3408 20.5299 18.9568 20.7011 18.5337C20.8723 18.1107 20.9585 17.6571 20.9548 17.1997V11.7663C20.9574 11.6617 20.9393 11.5577 20.9015 11.4604C20.8638 11.363 20.8072 11.2744 20.7352 11.1997ZM12.8375 20.3156C12.7787 20.3784 12.7079 20.4283 12.6295 20.4623C12.5511 20.4962 12.4666 20.5135 12.3814 20.513C12.2516 20.5168 12.1241 20.4776 12.0181 20.4015C11.9103 20.3268 11.8254 20.2226 11.7732 20.101C11.7356 19.9722 11.7356 19.835 11.7732 19.7062C11.7977 19.5765 11.8594 19.457 11.9506 19.3628C12.042 19.2679 12.1596 19.2031 12.2878 19.177C12.416 19.151 12.549 19.1648 12.6694 19.2167C12.7898 19.2686 12.892 19.3562 12.9627 19.468C13.0333 19.5798 13.0692 19.7107 13.0655 19.8435C13.0609 19.9338 13.0382 20.0221 12.999 20.1033C12.9598 20.1844 12.9049 20.2566 12.8375 20.3156ZM19.5949 15.8006C19.576 15.9668 19.5014 16.1214 19.3837 16.2384C19.2652 16.3389 19.1157 16.394 18.9614 16.394C18.807 16.394 18.6575 16.3389 18.539 16.2384C18.4183 16.1236 18.3432 15.9679 18.3279 15.8006V13.1053C18.3276 12.9269 18.394 12.7551 18.5137 12.6246C18.6367 12.4989 18.8038 12.4279 18.9783 12.4272H19.6371L19.5949 15.8006Z" fill="#18232D"/>
<path d="M21.0002 5.79399V8.30043C20.9957 8.40668 20.9729 8.5113 20.9326 8.60944C20.8845 8.70705 20.8186 8.79445 20.7383 8.86695C20.6597 8.93682 20.5715 8.99466 20.4765 9.03863C20.3844 9.07258 20.2872 9.09001 20.1893 9.09013C20.089 9.09378 19.9889 9.07925 19.8936 9.04721C19.7975 9.00537 19.7089 8.94733 19.6318 8.87554C19.5567 8.79898 19.4965 8.7087 19.4544 8.60944C19.4141 8.5113 19.3912 8.40668 19.3868 8.30043V5.78541C19.397 5.50733 19.353 5.22994 19.2573 4.9692C19.1616 4.70847 19.0162 4.46952 18.8293 4.26609C18.6418 4.05916 18.4147 3.89312 18.1621 3.77803C17.9095 3.66293 17.6364 3.6012 17.3596 3.59657H6.59847C6.32882 3.60689 6.06385 3.67137 5.81884 3.78628C5.57384 3.9012 5.35364 4.06427 5.17097 4.26609C4.98411 4.46952 4.83867 4.70847 4.743 4.9692C4.64732 5.22994 4.60331 5.50733 4.61348 5.78541V8.30043C4.59948 8.51603 4.50597 8.71833 4.35163 8.86695C4.19924 8.99767 4.00624 9.06937 3.80682 9.06937C3.60739 9.06937 3.4144 8.99767 3.262 8.86695C3.10957 8.72047 3.01623 8.52158 3.00016 8.30901V5.78541C2.99126 4.79459 3.36415 3.83955 4.0391 3.12446C4.37335 2.77469 4.7722 2.49533 5.21282 2.30238C5.65344 2.10943 6.12717 2.00668 6.60691 2H17.3596C17.8342 2.00742 18.3027 2.11065 18.7377 2.30369C19.1727 2.49673 19.5657 2.77573 19.8936 3.12446C20.2422 3.47326 20.5195 3.8887 20.7094 4.34686C20.8993 4.80503 20.9981 5.29685 21.0002 5.79399Z" fill="#18232D"/>
<path d="M16.6172 6.4311C16.6187 6.53422 16.6 6.63662 16.5623 6.73239C16.5246 6.82815 16.4687 6.91538 16.3976 6.98904C16.2585 7.13863 16.0678 7.22782 15.8655 7.23796H7.90864C7.70397 7.2291 7.5106 7.1402 7.36892 6.98983C7.22725 6.83947 7.14825 6.63927 7.14844 6.4311C7.15038 6.22629 7.22889 6.0299 7.36805 5.88174C7.50615 5.73063 7.69744 5.64115 7.9002 5.63281H15.8655C16.0672 5.64372 16.2572 5.73236 16.3969 5.88067C16.5366 6.02898 16.6154 6.22582 16.6172 6.4311Z" fill="#00C569"/>
</svg>
