<svg width="20" height="20" viewBox="0 0 20 20" fill="none" xmlns="http://www.w3.org/2000/svg">
<path d="M15.6413 1.66406H4.3613C3.64699 1.66406 2.96193 1.94782 2.45683 2.45292C1.95173 2.95802 1.66797 3.64308 1.66797 4.3574L1.66797 15.6374C1.66797 16.3517 1.95173 17.0368 2.45683 17.5419C2.96193 18.047 3.64699 18.3307 4.3613 18.3307H15.6413C16.3556 18.3307 17.0407 18.047 17.5458 17.5419C18.0509 17.0368 18.3346 16.3517 18.3346 15.6374V4.3574C18.3346 3.64308 18.0509 2.95802 17.5458 2.45292C17.0407 1.94782 16.3556 1.66406 15.6413 1.66406V1.66406ZM16.668 15.6374C16.668 15.9097 16.5598 16.1708 16.3673 16.3634C16.1747 16.5559 15.9136 16.6641 15.6413 16.6641H4.3613C4.08901 16.6641 3.82788 16.5559 3.63534 16.3634C3.4428 16.1708 3.33464 15.9097 3.33464 15.6374V4.3574C3.33464 4.08511 3.4428 3.82397 3.63534 3.63143C3.82788 3.4389 4.08901 3.33073 4.3613 3.33073H15.6413C15.9136 3.33073 16.1747 3.4389 16.3673 3.63143C16.5598 3.82397 16.668 4.08511 16.668 4.3574V15.6374Z" fill="#18232D"/>
<path d="M14.1667 5.66406H5.83333C5.61232 5.66406 5.40036 5.75186 5.24408 5.90814C5.0878 6.06442 5 6.27638 5 6.4974C5 6.71841 5.0878 6.93037 5.24408 7.08665C5.40036 7.24293 5.61232 7.33073 5.83333 7.33073H14.1667C14.3877 7.33073 14.5996 7.24293 14.7559 7.08665C14.9122 6.93037 15 6.71841 15 6.4974C15 6.27638 14.9122 6.06442 14.7559 5.90814C14.5996 5.75186 14.3877 5.66406 14.1667 5.66406ZM14.1667 9.33073H5.83333C5.61232 9.33073 5.40036 9.41853 5.24408 9.57481C5.0878 9.73109 5 9.94305 5 10.1641C5 10.3851 5.0878 10.597 5.24408 10.7533C5.40036 10.9096 5.61232 10.9974 5.83333 10.9974H14.1667C14.3877 10.9974 14.5996 10.9096 14.7559 10.7533C14.9122 10.597 15 10.3851 15 10.1641C15 9.94305 14.9122 9.73109 14.7559 9.57481C14.5996 9.41853 14.3877 9.33073 14.1667 9.33073Z" fill="#18232D"/>
<path d="M12.8333 13H5.83333C5.3731 13 5 13.3731 5 13.8333C5 14.2936 5.3731 14.6667 5.83333 14.6667H12.8333C13.2936 14.6667 13.6667 14.2936 13.6667 13.8333C13.6667 13.3731 13.2936 13 12.8333 13Z" fill="#00C569"/>
</svg>
