<svg width="24" height="24" viewBox="0 0 24 24" fill="none" xmlns="http://www.w3.org/2000/svg">
<mask id="mask0_22163_15278" style="mask-type:luminance" maskUnits="userSpaceOnUse" x="0" y="0" width="24" height="24">
<path d="M0 24H24V0H0V24Z" fill="white"/>
</mask>
<g mask="url(#mask0_22163_15278)">
<path d="M8.875 12C8.875 13.7259 10.2741 15.125 12 15.125C13.7259 15.125 15.125 13.7259 15.125 12C15.125 10.2741 13.7259 8.875 12 8.875C10.2741 8.875 8.875 10.2741 8.875 12ZM10.8281 5.75H13.1719V6.86172C13.7596 6.99531 14.3086 7.22742 14.8036 7.53918L15.5908 6.75191L17.2481 8.40922L16.4608 9.19644C16.7726 9.69141 17.0047 10.2404 17.1382 10.8281H18.25V13.1719H17.1382C17.0047 13.7596 16.7726 14.3086 16.4608 14.8036L17.2481 15.5908L15.5908 17.2481L14.8036 16.4608C14.3086 16.7726 13.7596 17.0047 13.1719 17.1382V18.25H10.8281V17.1382C10.2404 17.0047 9.69141 16.7726 9.19645 16.4608L8.40922 17.2481L6.75195 15.5908L7.53918 14.8036C7.22738 14.3086 6.99531 13.7596 6.86176 13.1719H5.75V10.8281H6.86176C6.99531 10.2404 7.22738 9.69137 7.53918 9.19644L6.75195 8.40922L8.40922 6.75191L9.19645 7.53918C9.69141 7.22742 10.2404 6.99531 10.8281 6.86176V5.75Z" stroke="#00C569" stroke-width="1.5" stroke-miterlimit="10" stroke-linecap="round" stroke-linejoin="round"/>
<path d="M20.2187 5.34375H18.6562V6.90625" stroke="#18232D" stroke-width="1.5" stroke-miterlimit="10" stroke-linecap="round" stroke-linejoin="round"/>
<path d="M3.78125 18.6562H5.34375V17.0938" stroke="#18232D" stroke-width="1.5" stroke-miterlimit="10" stroke-linecap="round" stroke-linejoin="round"/>
<path d="M15.6644 3.32574C14.5381 2.84937 13.2998 2.58594 12 2.58594C6.80078 2.58594 2.58594 6.80074 2.58594 12C2.58594 14.5996 3.63965 16.9531 5.34324 18.6568" stroke="#18232D" stroke-width="1.5" stroke-miterlimit="10" stroke-linecap="round" stroke-linejoin="round"/>
<path d="M8.33594 20.6748C9.46219 21.1511 10.7005 21.4146 12.0003 21.4146C17.1995 21.4146 21.4144 17.1998 21.4144 12.0005C21.4144 9.4009 20.3607 7.04738 18.6571 5.34375" stroke="#18232D" stroke-width="1.5" stroke-miterlimit="10" stroke-linecap="round" stroke-linejoin="round"/>
</g>
</svg>
