<svg width="42" height="40" viewBox="0 0 42 40" fill="none" xmlns="http://www.w3.org/2000/svg">
<path d="M40 20C40 31.0457 31.0457 40 20 40C8.9543 40 0 31.0457 0 20C0 8.9543 8.9543 0 20 0C31.0457 0 40 8.9543 40 20ZM3.72465 20C3.72465 28.9886 11.0114 36.2754 20 36.2754C28.9886 36.2754 36.2754 28.9886 36.2754 20C36.2754 11.0114 28.9886 3.72465 20 3.72465C11.0114 3.72465 3.72465 11.0114 3.72465 20Z" fill="#8BC38F"/>
<path d="M12.3828 18.0194L20.328 25.7117L40.0019 6.66406" stroke="#0FA76F" stroke-width="4" stroke-linecap="round"/>
</svg>
