<svg width="20" height="20" viewBox="0 0 20 20" fill="none" xmlns="http://www.w3.org/2000/svg">
<path d="M10.6087 10.8719L13.6087 9.24192C13.7015 9.18409 13.782 9.10851 13.8454 9.01951C13.9089 8.93051 13.9542 8.82985 13.9787 8.7233C14.0031 8.61675 14.0063 8.50642 13.988 8.39864C13.9697 8.29086 13.9303 8.18776 13.8721 8.09525C13.7552 7.90801 13.5689 7.77478 13.3539 7.72479C13.1389 7.67479 12.9129 7.71212 12.7254 7.82858L9.72541 9.45858C9.63237 9.51614 9.55161 9.59152 9.48781 9.6804C9.424 9.76927 9.37839 9.86989 9.3536 9.97646C9.32882 10.083 9.32535 10.1934 9.3434 10.3013C9.36144 10.4093 9.40064 10.5125 9.45875 10.6052C9.51631 10.6988 9.59185 10.7799 9.68099 10.844C9.77013 10.9081 9.87111 10.9539 9.97807 10.9787C10.085 11.0035 10.1959 11.0068 10.3041 10.9885C10.4124 10.9702 10.5159 10.9305 10.6087 10.8719Z" fill="#00C569"/>
<path d="M10.0013 1.66406C8.35313 1.66406 6.74196 2.1528 5.37155 3.06848C4.00114 3.98416 2.93304 5.28565 2.30231 6.80837C1.67158 8.33108 1.50655 10.0066 1.8281 11.6231C2.14964 13.2397 2.94331 14.7245 4.10875 15.89C5.27419 17.0554 6.75904 17.8491 8.37555 18.1706C9.99206 18.4921 11.6676 18.3271 13.1903 17.6964C14.7131 17.0657 16.0145 15.9976 16.9302 14.6271C17.8459 13.2567 18.3346 11.6456 18.3346 9.9974C18.3346 7.78726 17.4567 5.66764 15.8939 4.10484C14.3311 2.54204 12.2114 1.66406 10.0013 1.66406V1.66406ZM10.0013 16.6641C8.68276 16.6641 7.39383 16.2731 6.2975 15.5405C5.20118 14.808 4.34669 13.7668 3.84211 12.5486C3.33752 11.3304 3.2055 9.99 3.46274 8.69679C3.71997 7.40359 4.35491 6.2157 5.28726 5.28335C6.21961 4.351 7.4075 3.71606 8.7007 3.45883C9.99391 3.20159 11.3344 3.33361 12.5525 3.8382C13.7707 4.34278 14.8119 5.19727 15.5444 6.29359C16.277 7.38992 16.668 8.67885 16.668 9.9974C16.668 11.7655 15.9656 13.4612 14.7154 14.7114C13.4651 15.9617 11.7694 16.6641 10.0013 16.6641Z" fill="#18232D"/>
<path d="M7.27274 6.23071C7.10862 6.09065 6.89658 6.0197 6.68123 6.03279C6.46587 6.04587 6.26398 6.14198 6.11803 6.30088C5.97208 6.45978 5.89345 6.66909 5.89868 6.88478C5.90391 7.10048 5.99259 7.30573 6.14607 7.45738L9.60274 10.7907C9.6824 10.8694 9.77712 10.9313 9.88122 10.9726C9.98532 11.0138 10.0967 11.0337 10.2086 11.031C10.3206 11.0283 10.4309 11.003 10.5328 10.9568C10.6348 10.9105 10.7264 10.8441 10.8022 10.7616C10.8779 10.6791 10.9363 10.5822 10.9738 10.4767C11.0112 10.3712 11.027 10.2592 11.0202 10.1474C11.0134 10.0356 10.9842 9.92632 10.9342 9.82609C10.8842 9.72587 10.8146 9.63674 10.7294 9.56404L7.27274 6.23071Z" fill="#18232D"/>
</svg>
