<svg width="161" height="145" viewBox="0 0 161 145" fill="none" xmlns="http://www.w3.org/2000/svg">
<path d="M33 144.965C43.4934 144.965 52 136.466 52 125.982C52 115.499 43.4934 107 33 107C22.5066 107 14 115.499 14 125.982C14 136.466 22.5066 144.965 33 144.965Z" fill="#E1F5E0"/>
<path d="M120 83.926C142.091 83.926 160 66.0339 160 43.963C160 21.892 142.091 4 120 4C97.9086 4 80 21.892 80 43.963C80 66.0339 97.9086 83.926 120 83.926Z" fill="#E1F5E0"/>
<circle cx="80.5" cy="72.5" r="66.5" fill="white"/>
<path d="M136 72.5C136 103.152 111.152 128 80.5 128C49.8482 128 25 103.152 25 72.5C25 41.8482 49.8482 17 80.5 17C111.152 17 136 41.8482 136 72.5ZM31.7246 72.5C31.7246 99.4379 53.5621 121.275 80.5 121.275C107.438 121.275 129.275 99.4379 129.275 72.5C129.275 45.5621 107.438 23.7246 80.5 23.7246C53.5621 23.7246 31.7246 45.5621 31.7246 72.5Z" fill="#0FA76F" fill-opacity="0.4"/>
<path d="M138 72.5C138 104.256 112.256 130 80.5 130C48.7436 130 23 104.256 23 72.5C23 40.7436 48.7436 15 80.5 15C112.256 15 138 40.7436 138 72.5ZM33.4642 72.5C33.4642 98.4771 54.5229 119.536 80.5 119.536C106.477 119.536 127.536 98.4771 127.536 72.5C127.536 46.5229 106.477 25.4642 80.5 25.4642C54.5229 25.4642 33.4642 46.5229 33.4642 72.5Z" fill="#0FA76F"/>
</svg>
