<svg width="18" height="20" viewBox="0 0 18 20" fill="none" xmlns="http://www.w3.org/2000/svg">
<path fill-rule="evenodd" clip-rule="evenodd" d="M11.607 0.0820125C11.5639 0.0743245 11.5196 0.0703125 11.4743 0.0703125C11.429 0.0703125 11.3847 0.0743245 11.3416 0.0820125H5.084C2.5967 0.0820125 0.5 2.09984 0.5 4.56101V15.274C0.5 17.8746 2.5046 19.935 5.084 19.935H13.073C15.5263 19.935 17.552 17.7731 17.552 15.274V6.10801C17.552 5.9144 17.4771 5.72828 17.343 5.58861L12.278 0.312612C12.1366 0.16529 11.9412 0.0820125 11.737 0.0820125H11.607ZM10.7243 1.58121L5.084 1.58201C3.41254 1.58201 2 2.94141 2 4.56101V15.274C2 17.0552 3.34239 18.435 5.084 18.435H13.073C14.6753 18.435 16.052 16.9657 16.052 15.274L16.0513 7.0534L15.1759 7.05638C14.8422 7.05598 14.4627 7.05527 14.0407 7.05431C12.2712 7.05057 10.827 5.6636 10.7295 3.9177L10.7243 3.72931V1.58121ZM15.2305 5.55415L14.044 5.55431C13.0385 5.55219 12.2243 4.73577 12.2243 3.72931V2.42276L15.2305 5.55415ZM11.2843 12.8779C11.6985 12.8779 12.0343 13.2137 12.0343 13.6279C12.0343 14.0076 11.7521 14.3214 11.3861 14.3711L11.2843 14.3779H5.8873C5.47309 14.3779 5.1373 14.0421 5.1373 13.6279C5.1373 13.2482 5.41945 12.9344 5.78553 12.8848L5.8873 12.8779H11.2843ZM9.9928 8.67571C9.9928 8.2615 9.65701 7.92571 9.2428 7.92571H5.8868L5.78503 7.93256C5.41895 7.98222 5.1368 8.29602 5.1368 8.67571C5.1368 9.08993 5.47259 9.42571 5.8868 9.42571H9.2428L9.34457 9.41887C9.71065 9.3692 9.9928 9.05541 9.9928 8.67571Z" fill="#0FA76F"/>
</svg>
