<svg width="20" height="20" viewBox="0 0 20 20" fill="none" xmlns="http://www.w3.org/2000/svg">
<path d="M11.6654 1.88867V5.33079C11.6654 5.7975 11.6654 6.03085 11.7562 6.20911C11.8361 6.36592 11.9636 6.4934 12.1204 6.57329C12.2986 6.66412 12.532 6.66412 12.9987 6.66412H16.4408M7.4987 12.4974L9.9987 14.9974M9.9987 14.9974L12.4987 12.4974M9.9987 14.9974L9.9987 9.9974M11.6654 1.66406H7.33203C5.9319 1.66406 5.23183 1.66406 4.69705 1.93655C4.22665 2.17623 3.8442 2.55868 3.60451 3.02909C3.33203 3.56387 3.33203 4.26393 3.33203 5.66406V14.3307C3.33203 15.7309 3.33203 16.4309 3.60451 16.9657C3.8442 17.4361 4.22665 17.8186 4.69705 18.0582C5.23183 18.3307 5.9319 18.3307 7.33203 18.3307H12.6654C14.0655 18.3307 14.7656 18.3307 15.3003 18.0582C15.7707 17.8186 16.1532 17.4361 16.3929 16.9657C16.6654 16.4309 16.6654 15.7309 16.6654 14.3307V6.66406L11.6654 1.66406Z" stroke="#475467" stroke-width="1.66667" stroke-linecap="round" stroke-linejoin="round"/>
</svg>
