<svg width="24" height="28" viewBox="0 0 24 28" fill="none" xmlns="http://www.w3.org/2000/svg">
<path d="M11.9987 2.33594C10.4666 2.33594 8.94952 2.6377 7.53406 3.22401C6.11859 3.81031 4.83247 4.66967 3.74912 5.75303C1.56119 7.94095 0.332031 10.9084 0.332031 14.0026C0.332031 19.1593 3.68036 23.5343 8.31203 25.0859C8.89537 25.1793 9.08203 24.8176 9.08203 24.5026V22.5309C5.85037 23.2309 5.16203 20.9676 5.16203 20.9676C4.62536 19.6143 3.86703 19.2526 3.86703 19.2526C2.80536 18.5293 3.9487 18.5526 3.9487 18.5526C5.11537 18.6343 5.7337 19.7543 5.7337 19.7543C6.7487 21.5276 8.4637 21.0026 9.1287 20.7226C9.2337 19.9643 9.53703 19.4509 9.8637 19.1593C7.2737 18.8676 4.55536 17.8643 4.55536 13.4193C4.55536 12.1243 4.9987 11.0859 5.75703 10.2576C5.64037 9.96594 5.23203 8.7526 5.8737 7.1776C5.8737 7.1776 6.8537 6.8626 9.08203 8.3676C10.0037 8.11094 11.007 7.9826 11.9987 7.9826C12.9904 7.9826 13.9937 8.11094 14.9154 8.3676C17.1437 6.8626 18.1237 7.1776 18.1237 7.1776C18.7654 8.7526 18.357 9.96594 18.2404 10.2576C18.9987 11.0859 19.442 12.1243 19.442 13.4193C19.442 17.8759 16.712 18.8559 14.1104 19.1476C14.5304 19.5093 14.9154 20.2209 14.9154 21.3059V24.5026C14.9154 24.8176 15.102 25.1909 15.697 25.0859C20.3287 23.5226 23.6654 19.1593 23.6654 14.0026C23.6654 12.4705 23.3636 10.9534 22.7773 9.53796C22.191 8.1225 21.3316 6.83638 20.2483 5.75303C19.1649 4.66967 17.8788 3.81031 16.4633 3.22401C15.0479 2.6377 13.5308 2.33594 11.9987 2.33594Z" fill="#202020"/>
</svg>
