<svg width="108" height="108" viewBox="0 0 108 108" fill="none" xmlns="http://www.w3.org/2000/svg">
<path d="M48 3.4641C51.7128 1.32051 56.2872 1.32051 60 3.4641L94.7654 23.5359C98.4782 25.6795 100.765 29.641 100.765 33.9282V74.0718C100.765 78.359 98.4782 82.3205 94.7654 84.4641L60 104.536C56.2872 106.679 51.7128 106.679 48 104.536L13.2346 84.4641C9.52181 82.3205 7.23463 78.359 7.23463 74.0718V33.9282C7.23463 29.641 9.52181 25.6795 13.2346 23.5359L48 3.4641Z" fill="white"/>
<path d="M49 11.3301C52.4034 9.36517 56.5966 9.36517 60 11.3301L89.1362 28.1519C92.5396 30.1169 94.6362 33.7483 94.6362 37.6782V71.3218C94.6362 75.2517 92.5396 78.8831 89.1362 80.8481L60 97.6699C56.5966 99.6348 52.4034 99.6348 49 97.6699L19.8638 80.8481C16.4604 78.8831 14.3638 75.2517 14.3638 71.3218V37.6782C14.3638 33.7483 16.4604 30.1169 19.8638 28.1519L49 11.3301Z" stroke="#0FA76F" stroke-width="2"/>
</svg>
