<svg width="24" height="24" viewBox="0 0 24 24" fill="none" xmlns="http://www.w3.org/2000/svg">
<path d="M18.712 6.68182H14V6.36273C14 5.47088 13.6536 4.61555 13.037 3.98492C12.4203 3.35429 11.584 3 10.712 3H5.288C4.41597 3 3.57965 3.35429 2.96303 3.98492C2.34641 4.61555 2 5.47088 2 6.36273L2 17.6373C2 18.5291 2.34641 19.3844 2.96303 20.0151C3.57965 20.6457 4.41597 21 5.288 21H18.712C19.584 21 20.4203 20.6457 21.037 20.0151C21.6536 19.3844 22 18.5291 22 17.6373V10.0445C22 9.15269 21.6536 8.29737 21.037 7.66674C20.4203 7.0361 19.584 6.68182 18.712 6.68182ZM20 17.6373C20 17.9866 19.8643 18.3217 19.6228 18.5687C19.3812 18.8158 19.0536 18.9545 18.712 18.9545H5.288C4.9464 18.9545 4.61879 18.8158 4.37725 18.5687C4.1357 18.3217 4 17.9866 4 17.6373V6.36273C4 6.01336 4.1357 5.67831 4.37725 5.43127C4.61879 5.18424 4.9464 5.04545 5.288 5.04545H10.712C11.0536 5.04545 11.3812 5.18424 11.6228 5.43127C11.8643 5.67831 12 6.01336 12 6.36273V6.68182H8.6C8.33478 6.68182 8.08043 6.78957 7.89289 6.98137C7.70536 7.17317 7.6 7.4333 7.6 7.70455C7.6 7.97579 7.70536 8.23592 7.89289 8.42772C8.08043 8.61952 8.33478 8.72727 8.6 8.72727H18.712C19.0536 8.72727 19.3812 8.86606 19.6228 9.11309C19.8643 9.36013 20 9.69518 20 10.0445V17.6373Z" fill="black"/>
<path d="M17.0016 10.7734H8.60156C8.04928 10.7734 7.60156 11.2313 7.60156 11.7962C7.60156 12.361 8.04928 12.8189 8.60156 12.8189H17.0016C17.5538 12.8189 18.0016 12.361 18.0016 11.7962C18.0016 11.2313 17.5538 10.7734 17.0016 10.7734Z" fill="#00C569"/>
</svg>
