<svg width="21" height="18" viewBox="0 0 21 18" fill="none" xmlns="http://www.w3.org/2000/svg">
<path d="M18.3261 0H2.67391C2.09756 0.000669208 1.54501 0.226654 1.13747 0.628382C0.729933 1.03011 0.500679 1.57478 0.5 2.14291V11.5717C0.500679 12.1398 0.729933 12.6845 1.13747 13.0862C1.54501 13.488 2.09756 13.7139 2.67391 13.7146H3.54348V17.124C3.54186 17.2987 3.5936 17.4699 3.69196 17.6152C3.79033 17.7605 3.93078 17.8733 4.09504 17.9389C4.25406 18.0022 4.42872 18.0167 4.59624 17.9806C4.76377 17.9446 4.91638 17.8596 5.03417 17.7368L8.94643 13.7146H18.3261C18.9024 13.7139 19.455 13.488 19.8625 13.0862C20.2701 12.6845 20.4993 12.1398 20.5 11.5717V2.14291C20.4993 1.57478 20.2701 1.03011 19.8625 0.628382C19.455 0.226654 18.9024 0.000669208 18.3261 0ZM19.6304 11.5717C19.6301 11.9126 19.4925 12.2394 19.248 12.4804C19.0035 12.7215 18.6719 12.8571 18.3261 12.8574H8.76087C8.70226 12.8575 8.64425 12.8691 8.59033 12.8918C8.53641 12.9144 8.48769 12.9476 8.44709 12.9893L4.41304 17.124V13.286C4.41308 13.2297 4.40185 13.174 4.38002 13.122C4.35818 13.07 4.32616 13.0227 4.28578 12.9829C4.24539 12.9431 4.19745 12.9115 4.14469 12.89C4.09192 12.8685 4.03537 12.8574 3.97826 12.8574H2.67391C2.32809 12.8571 1.99655 12.7215 1.75202 12.4804C1.50749 12.2394 1.36994 11.9126 1.36957 11.5717V2.14291C1.36994 1.80202 1.50749 1.4752 1.75202 1.23416C1.99655 0.993119 2.32809 0.857537 2.67391 0.857163H18.3261C18.6719 0.857537 19.0035 0.993119 19.248 1.23416C19.4925 1.4752 19.6301 1.80202 19.6304 2.14291V11.5717ZM4.84783 4.28581C4.84779 4.22952 4.85901 4.17378 4.88085 4.12176C4.90269 4.06975 4.93471 4.02249 4.97509 3.98269C5.01547 3.94288 5.06342 3.91131 5.11618 3.88979C5.16895 3.86826 5.2255 3.8572 5.28261 3.85723H9.63043C9.74575 3.85723 9.85633 3.90239 9.93787 3.98276C10.0194 4.06314 10.0652 4.17215 10.0652 4.28581C10.0652 4.39948 10.0194 4.50849 9.93787 4.58887C9.85633 4.66924 9.74575 4.7144 9.63043 4.7144H5.28261C5.2255 4.71443 5.16895 4.70337 5.11618 4.68184C5.06342 4.66031 5.01547 4.62875 4.97509 4.58894C4.93471 4.54914 4.90269 4.50188 4.88085 4.44986C4.85901 4.39785 4.84779 4.34211 4.84783 4.28581ZM14.413 9.42879C14.4131 9.48508 14.4019 9.54083 14.38 9.59284C14.3582 9.64485 14.3262 9.69211 14.2858 9.73192C14.2454 9.77172 14.1975 9.80329 14.1447 9.82482C14.0919 9.84634 14.0354 9.85741 13.9783 9.85737H5.28261C5.1673 9.85737 5.05671 9.81222 4.97517 9.73184C4.89363 9.65147 4.84783 9.54246 4.84783 9.42879C4.84783 9.31512 4.89363 9.20611 4.97517 9.12574C5.05671 9.04536 5.1673 9.00021 5.28261 9.00021H13.9783C14.0354 9.00018 14.0919 9.01124 14.1447 9.03276C14.1975 9.05429 14.2454 9.08586 14.2858 9.12566C14.3262 9.16547 14.3582 9.21273 14.38 9.26474C14.4019 9.31675 14.4131 9.3725 14.413 9.42879ZM16.1522 6.8573C16.1522 6.91359 16.141 6.96934 16.1191 7.02135C16.0973 7.07337 16.0653 7.12063 16.0249 7.16043C15.9845 7.20023 15.9366 7.2318 15.8838 7.25333C15.831 7.27485 15.7745 7.28592 15.7174 7.28588H5.28261C5.1673 7.28588 5.05671 7.24073 4.97517 7.16036C4.89363 7.07998 4.84783 6.97097 4.84783 6.8573C4.84783 6.74364 4.89363 6.63462 4.97517 6.55425C5.05671 6.47387 5.1673 6.42872 5.28261 6.42872H15.7174C15.7745 6.42869 15.831 6.43975 15.8838 6.46128C15.9366 6.4828 15.9845 6.51437 16.0249 6.55417C16.0653 6.59398 16.0973 6.64124 16.1191 6.69325C16.141 6.74526 16.1522 6.80101 16.1522 6.8573Z" fill="white"/>
</svg>
