<svg width="21" height="20" viewBox="0 0 21 20" fill="none" xmlns="http://www.w3.org/2000/svg">
<path fill-rule="evenodd" clip-rule="evenodd" d="M20.2048 2.59252C20.5164 1.18685 19.2092 -0.0815433 17.7939 0.328054L2.13738 4.88379L1.98628 4.93402C0.516697 5.48709 0.291214 7.53384 1.66768 8.38121L8.14322 12.3671L12.039 18.8211L12.1265 18.9544C13.0398 20.2339 15.062 19.924 15.5231 18.373L20.1682 2.73348L20.2048 2.59252ZM18.2849 1.7542C18.5737 1.7232 18.8204 2.0041 18.7305 2.30571L14.0852 17.9457L14.0547 18.0224C13.9096 18.3079 13.4988 18.337 13.3232 18.0461L9.63522 11.9371L14.8877 6.65073L14.96 6.56637C15.1769 6.27203 15.1513 5.85545 14.8842 5.59007L14.7998 5.51773C14.5055 5.30086 14.0889 5.32645 13.8235 5.5936L8.57822 10.8731L2.45398 7.10381L2.38786 7.05416C2.15003 6.8375 2.23008 6.41879 2.55598 6.3242L18.2119 1.76862L18.2849 1.7542Z" fill="white"/>
</svg>
