<svg width="21" height="16" viewBox="0 0 21 16" fill="none" xmlns="http://www.w3.org/2000/svg">
<path fill-rule="evenodd" clip-rule="evenodd" d="M10.7882 0.00481888L10.502 0C6.36108 0 2.62926 2.92308 0.560915 7.70583C0.479695 7.89364 0.479695 8.10636 0.560915 8.29416L0.704239 8.61679C2.74638 13.0931 6.27544 15.8644 10.2118 15.9952L10.498 16C14.6389 16 18.3707 13.0769 20.4391 8.29416C20.5213 8.10399 20.5202 7.88839 20.4361 7.69904L20.2968 7.38563C18.2497 2.90091 14.7192 0.135466 10.7882 0.00481888ZM10.509 1.48942L10.7479 1.49456L11.0149 1.50845C14.2122 1.73484 17.1525 4.10553 18.929 7.99911L18.9197 8.02313C17.0987 12.0005 14.0569 14.3853 10.7589 14.505L10.504 14.5088L10.2469 14.5054L9.98061 14.4915C6.88271 14.2721 4.02637 12.0344 2.23914 8.3597L2.07 7.99911L2.22658 7.66619C4.11117 3.77315 7.19148 1.49027 10.509 1.48942ZM10.4995 4.11346C8.33909 4.11346 6.5885 5.85313 6.5885 8.0002C6.5885 10.1465 8.33929 11.8859 10.4995 11.8859C12.6598 11.8859 14.4115 10.1463 14.4115 8.0002C14.4115 5.85325 12.66 4.11346 10.4995 4.11346ZM10.4995 5.60378C11.8317 5.60378 12.9115 6.6764 12.9115 8.0002C12.9115 9.32312 11.8315 10.3956 10.4995 10.3956C9.16771 10.3956 8.0885 9.32338 8.0885 8.0002C8.0885 6.67614 9.16759 5.60378 10.4995 5.60378Z" fill="#0FA76F"/>
</svg>
