<svg width="24" height="24" viewBox="0 0 24 24" fill="none" xmlns="http://www.w3.org/2000/svg">
<path d="M18.375 0H5.625C2.5184 0 0 2.5184 0 5.625V18.375C0 21.4816 2.5184 24 5.625 24H18.375C21.4816 24 24 21.4816 24 18.375V5.625C24 2.5184 21.4816 0 18.375 0Z" fill="#242938"/>
<mask id="mask0_32227_99373" style="mask-type:luminance" maskUnits="userSpaceOnUse" x="5" y="2" width="14" height="20">
<path d="M5.71875 2.625H18.2213V21.375H5.71875V2.625Z" fill="white"/>
</mask>
<g mask="url(#mask0_32227_99373)">
<path d="M8.84381 21.375C10.5688 21.375 11.9688 19.9751 11.9688 18.2501V15.125H8.84381C7.11881 15.125 5.71875 16.5251 5.71875 18.2501C5.71875 19.9751 7.11881 21.375 8.84381 21.375Z" fill="#0ACF83"/>
<path d="M5.71875 12C5.71875 10.275 7.11881 8.875 8.84381 8.875H11.9688V15.1249H8.84381C7.11881 15.1249 5.71875 13.725 5.71875 12Z" fill="#A259FF"/>
<path d="M5.71875 5.74997C5.71875 4.02497 7.11881 2.625 8.84381 2.625H11.9688V8.87503H8.84381C7.11881 8.87503 5.71875 7.47497 5.71875 5.74997Z" fill="#F24E1E"/>
<path d="M11.9688 2.625H15.0937C16.8187 2.625 18.2188 4.02497 18.2188 5.74997C18.2188 7.47497 16.8187 8.87503 15.0937 8.87503H11.9688V2.625Z" fill="#FF7262"/>
<path d="M18.2188 12C18.2188 13.725 16.8187 15.1249 15.0937 15.1249C13.3687 15.1249 11.9688 13.725 11.9688 12C11.9688 10.275 13.3687 8.875 15.0937 8.875C16.8187 8.875 18.2188 10.275 18.2188 12Z" fill="#1ABCFE"/>
</g>
</svg>
