<svg width="142" height="141" viewBox="0 0 142 141" fill="none" xmlns="http://www.w3.org/2000/svg">
<path d="M18.3782 140.965C28.5283 140.965 36.7565 132.466 36.7565 121.982C36.7565 111.499 28.5283 103 18.3782 103C8.22822 103 0 111.499 0 121.982C0 132.466 8.22822 140.965 18.3782 140.965Z" fill="#F9A825" fill-opacity="0.6"/>
<path d="M102.531 79.926C123.899 79.926 141.222 62.0339 141.222 39.963C141.222 17.892 123.899 0 102.531 0C81.1624 0 63.8398 17.892 63.8398 39.963C63.8398 62.0339 81.1624 79.926 102.531 79.926Z" fill="#F9A825" fill-opacity="0.6"/>
<ellipse cx="64.3239" cy="68.5" rx="64.3239" ry="66.5" fill="white"/>
<path d="M118.008 68.5C118.008 99.1518 93.9732 124 64.3245 124C34.6757 124 10.6406 99.1518 10.6406 68.5C10.6406 37.8482 34.6757 13 64.3245 13C93.9732 13 118.008 37.8482 118.008 68.5ZM17.1452 68.5C17.1452 95.4379 38.268 117.275 64.3245 117.275C90.3809 117.275 111.504 95.4379 111.504 68.5C111.504 41.5621 90.3809 19.7246 64.3245 19.7246C38.268 19.7246 17.1452 41.5621 17.1452 68.5Z" fill="#F9DE9E"/>
<path d="M81.7982 53.3257V48.8217C83.0706 48.0798 83.9371 46.7155 83.9371 45.1388V44.0695C83.9371 43.4783 83.4587 43 82.8676 43H46.507C45.9158 43 45.4375 43.4783 45.4375 44.0695V45.1389C45.4375 46.7155 46.3039 48.0798 47.5763 48.8218V53.3257C47.5763 57.5638 49.3831 61.6201 52.533 64.4545L57.2128 68.6664L52.533 72.8783C49.3831 75.7127 47.5763 79.769 47.5763 84.0071V88.511C46.3039 89.2529 45.4375 90.6173 45.4375 92.1939V93.2634C45.4375 93.8544 45.9158 94.3328 46.507 94.3328H82.8677C83.4588 94.3328 83.9372 93.8544 83.9372 93.2633V92.1938C83.9372 90.6173 83.0707 89.2529 81.7983 88.511V84.0071C81.7983 79.769 79.9916 75.7127 76.8417 72.8783L72.1618 68.6664L76.8416 64.4545C79.9915 61.6201 81.7982 57.5637 81.7982 53.3257ZM73.9801 61.2754L67.5343 67.0769C67.0831 67.4821 66.8261 68.0596 66.8261 68.6664C66.8261 69.2732 67.0831 69.8507 67.5343 70.2559L73.9801 76.0574C76.2296 78.0824 77.5205 80.9805 77.5205 84.0071V87.9162H74.8464L65.5426 75.5112C65.1395 74.9723 64.235 74.9723 63.8319 75.5112L54.5282 87.9162H51.8541V84.0071C51.8541 80.9804 53.1449 78.0823 55.3946 76.0573L61.8404 70.2558C62.2916 69.8505 62.5486 69.2731 62.5486 68.6663C62.5486 68.0595 62.2916 67.4819 61.8404 67.0768L55.3946 61.2753C53.1449 59.2503 51.8541 56.3522 51.8541 53.3257V49.4166H77.5205V53.3257C77.5205 56.3522 76.2296 59.2503 73.9801 61.2754Z" fill="#F9A825"/>
</svg>
