<svg width="24" height="28" viewBox="0 0 24 28" fill="none" xmlns="http://www.w3.org/2000/svg">
<path d="M5.14405 0C4.68977 0.00130991 4.25448 0.18235 3.93326 0.50357C3.61204 0.824791 3.431 1.26008 3.42969 1.71436V25.7144C3.431 26.1686 3.61204 26.6039 3.93326 26.9251C4.25448 27.2464 4.68977 27.4274 5.14405 27.4287H22.2871C22.7414 27.4274 23.1767 27.2464 23.4979 26.9251C23.8191 26.6039 24.0002 26.1686 24.0015 25.7144V6.85693L17.144 0H5.14405Z" fill="#E2E5E7"/>
<path d="M18.8589 6.85693H24.002L17.1445 0V5.14307C17.146 5.59726 17.3271 6.03242 17.6483 6.35354C17.9695 6.67465 18.4047 6.85562 18.8589 6.85693Z" fill="#B0B7BD"/>
<path d="M24.0024 12.0024L18.8594 6.85938H24.0024V12.0024Z" fill="#CAD1D8"/>
<path d="M20.5713 22.2881C20.5705 22.5151 20.48 22.7326 20.3194 22.8932C20.1589 23.0537 19.9414 23.1442 19.7144 23.145H0.856931C0.629901 23.1442 0.412393 23.0537 0.251857 22.8932C0.0913215 22.7326 0.000785127 22.5151 0 22.2881V13.7163C0.000785127 13.4893 0.0913215 13.2718 0.251857 13.1112C0.412393 12.9507 0.629901 12.8602 0.856931 12.8594H19.7144C19.9414 12.8602 20.1589 12.9507 20.3194 13.1112C20.48 13.2718 20.5705 13.4893 20.5713 13.7163V22.2881Z" fill="#84BD5A"/>
<path d="M19.7143 23.1382H3.42969V23.9956H19.7143C19.9415 23.9948 20.159 23.9042 20.3196 23.7436C20.4801 23.5829 20.5706 23.3653 20.5713 23.1382V22.2812C20.5706 22.5083 20.4801 22.7259 20.3196 22.8865C20.159 23.047 19.9414 23.1375 19.7143 23.1382Z" fill="#CAD1D8"/>
<path d="M5.1406 20.2346C5.0695 20.1735 5.01257 20.0976 4.97378 20.0122C4.93042 19.9176 4.90871 19.8144 4.91023 19.7103C4.91067 19.6026 4.93653 19.4964 4.9857 19.4005C5.03808 19.2966 5.10061 19.1982 5.17237 19.1066L7.39662 16.2548H5.08499C5.05489 16.1988 5.02964 16.1404 5.00953 16.0801C4.98445 16.0032 4.97237 15.9226 4.97378 15.8417C4.9647 15.7221 5.00005 15.6033 5.07308 15.5081C5.1091 15.4701 5.15302 15.4404 5.20174 15.4212C5.25047 15.402 5.3028 15.3937 5.35508 15.3969H8.39952C8.48034 15.4615 8.54529 15.5438 8.58935 15.6375C8.63342 15.7311 8.65544 15.8336 8.65371 15.9371C8.65405 16.0415 8.63098 16.1446 8.58619 16.2389C8.53727 16.3405 8.47733 16.4364 8.40746 16.5249L6.17328 19.3846H8.58818C8.61864 19.441 8.64518 19.4994 8.66762 19.5594C8.69538 19.6357 8.70884 19.7165 8.70733 19.7977C8.71691 19.9162 8.68145 20.0339 8.60804 20.1274C8.57268 20.1638 8.52992 20.1922 8.48265 20.2107C8.43537 20.2292 8.38467 20.2374 8.33398 20.2346H5.1406ZM10.1869 20.2902C10.0353 20.3044 9.88349 20.2651 9.75789 20.179C9.71118 20.1295 9.67566 20.0706 9.65373 20.0062C9.6318 19.9418 9.62398 19.8734 9.63079 19.8057V15.4128C9.67846 15.4022 9.7473 15.389 9.83733 15.3731C9.92649 15.3573 10.0169 15.3493 10.1074 15.3492C10.2552 15.3379 10.4027 15.3741 10.5284 15.4525C10.5788 15.5014 10.6172 15.5612 10.6406 15.6273C10.6641 15.6935 10.6719 15.7641 10.6635 15.8338V20.2267C10.6158 20.2373 10.5483 20.2505 10.4609 20.2664C10.3705 20.2826 10.2787 20.2905 10.1869 20.2902ZM12.9175 18.63V20.2267C12.8699 20.2373 12.8023 20.2505 12.7149 20.2664C12.6219 20.2828 12.5275 20.2908 12.4329 20.2902C12.2826 20.305 12.1319 20.2655 12.008 20.179C11.9624 20.1289 11.9279 20.0697 11.9067 20.0054C11.8855 19.9411 11.8781 19.8731 11.8848 19.8057V15.8159C11.8819 15.7742 11.8875 15.7322 11.9011 15.6927C11.9148 15.6531 11.9362 15.6167 11.9643 15.5856C12.0276 15.5265 12.1037 15.483 12.1867 15.4585C12.2801 15.4305 12.3749 15.4073 12.4707 15.389C12.5739 15.3678 12.6812 15.3512 12.7924 15.3393C12.9036 15.3274 13.0148 15.3181 13.126 15.3115C13.2372 15.3062 13.3432 15.3036 13.4438 15.3036C14.0057 15.2614 14.5644 15.4197 15.0206 15.7504C15.1949 15.8989 15.333 16.0852 15.4245 16.2951C15.5161 16.505 15.5586 16.733 15.5489 16.9618C15.5587 17.1901 15.5174 17.4176 15.4281 17.6279C15.3387 17.8381 15.2036 18.0258 15.0325 18.1772C14.6068 18.5056 14.0755 18.6667 13.5391 18.63H12.9175ZM13.4736 17.8019C13.7396 17.8168 14.0033 17.7443 14.2243 17.5953C14.318 17.5195 14.3919 17.422 14.4396 17.3113C14.4873 17.2007 14.5075 17.08 14.4983 16.9598C14.5068 16.8435 14.4878 16.7269 14.443 16.6193C14.3982 16.5117 14.3287 16.4161 14.2401 16.3402C14.0205 16.1884 13.7559 16.1155 13.4895 16.1337C13.295 16.1315 13.1008 16.1481 12.9096 16.1833V17.8019H13.4736Z" fill="white"/>
</svg>
