<svg width="100" height="100" viewBox="0 0 100 100" fill="none" xmlns="http://www.w3.org/2000/svg">
<rect width="100" height="100" fill="#E9E1F4"/>
<path d="M75.216 68.241C75.2161 69.1569 75.0358 70.0638 74.6854 70.91C74.335 71.7562 73.8213 72.525 73.1737 73.1727C72.526 73.8203 71.7572 74.334 70.911 74.6844C70.0648 75.0348 69.1579 75.2151 68.242 75.215H31.974C31.0582 75.215 30.1513 75.0346 29.3052 74.6841C28.459 74.3337 27.6902 73.82 27.0426 73.1724C26.395 72.5248 25.8813 71.756 25.5309 70.9098C25.1804 70.0637 25 69.1568 25 68.241V31.974C25 30.1244 25.7348 28.3505 27.0426 27.0426C28.3505 25.7348 30.1244 25 31.974 25H68.241C69.1569 24.9999 70.0638 25.1802 70.91 25.5306C71.7562 25.881 72.525 26.3947 73.1727 27.0423C73.8203 27.69 74.334 28.4588 74.6844 29.305C75.0348 30.1512 75.2151 31.0581 75.215 31.974L75.216 68.241Z" fill="#673AB7"/>
<path d="M62.7047 52.339C61.7447 51.0482 60.3625 50.1349 58.7987 49.758C59.9222 49.2298 60.8638 48.3803 61.5047 47.317C62.3044 45.9784 62.706 44.4397 62.6627 42.881C62.7351 41.5535 62.4745 40.2289 61.9044 39.0278C61.3343 37.8268 60.473 36.7873 59.3987 36.004C56.8546 34.1405 53.7463 33.21 50.5967 33.369H37.5547V66.846H52.1037C56.0517 66.818 59.0227 65.967 61.0447 64.335C63.0537 62.675 64.0577 60.22 64.0577 56.942C64.112 55.3023 63.6377 53.6886 62.7047 52.339ZM45.9237 38.949H51.8547C52.8721 38.949 53.8478 39.3532 54.5672 40.0726C55.2865 40.792 55.6907 41.7677 55.6907 42.785C55.6907 43.8024 55.2865 44.7781 54.5672 45.4975C53.8478 46.2169 52.8721 46.621 51.8547 46.621H45.9237V38.949ZM52.8987 61.269H45.9237V52.897H52.8977C53.9963 52.914 55.0441 53.3624 55.815 54.1453C56.5859 54.9282 57.018 55.9828 57.018 57.0815C57.018 58.1803 56.5859 59.2349 55.815 60.0178C55.0441 60.8007 53.9963 61.2491 52.8977 61.266L52.8987 61.269Z" fill="white"/>
</svg>
