<svg width="100" height="100" viewBox="0 0 100 100" fill="none" xmlns="http://www.w3.org/2000/svg">
<rect width="100" height="100" fill="#FBE5DC"/>
<rect width="100" height="100" fill="#D9EAF5"/>
<path d="M73.591 24H27L31.111 70.591L50.3 76.072L69.48 70.591L73.591 24Z" fill="#0277BD"/>
<path d="M50.2969 28.1094V71.8224L65.6449 67.4374L69.0699 28.1094H50.2969Z" fill="#039BE5"/>
<path d="M62.7669 34.9609H50.2969V40.4419H57.0119L56.5969 45.9239H50.2969V51.4049H56.3259L55.9149 57.5709L50.2969 59.4899V65.2449L61.1229 61.6819L62.0819 45.9229L62.7669 34.9609Z" fill="white"/>
<path d="M50.2945 34.9609V40.4419H38.0945L37.6875 34.9609H50.2945ZM43.9875 45.9239L44.2615 51.4049H50.2905V45.9239H43.9875ZM44.5355 54.1459H39.0575L39.4685 61.6829L50.2945 65.2459V59.4899L44.6765 57.5709L44.5355 54.1459Z" fill="#EEEEEE"/>
</svg>
