<svg width="100" height="100" viewBox="0 0 100 100" fill="none" xmlns="http://www.w3.org/2000/svg">
<rect width="100" height="100" fill="#FBE5DC"/>
<path d="M72.675 24H27L31.03 69.675L49.837 75.049L68.644 69.675L72.675 24Z" fill="#E65100"/>
<path d="M49.8359 28.0312V70.8853L64.8819 66.5853L68.2359 28.0312H49.8359Z" fill="#FF6D00"/>
<path d="M49.8359 50.871V45.497H61.3889L60.4489 60.95L49.8359 64.439V58.797L55.3439 56.916L55.7439 50.871H49.8359ZM61.7919 40.124L62.1919 34.75H49.8359V40.124H61.7919Z" fill="white"/>
<path d="M49.8344 58.797V64.439L39.2214 60.95L38.6844 53.561H44.0584L44.3274 56.919L49.8344 58.797ZM43.2514 40.124H49.8344V34.75H37.6094L38.5494 50.871H49.8344V45.497H43.6544L43.2514 40.124Z" fill="#EEEEEE"/>
</svg>
