<svg width="100" height="100" viewBox="0 0 100 100" fill="none" xmlns="http://www.w3.org/2000/svg">
<rect width="100" height="100" fill="#FBE5DC"/>
<rect width="100" height="100" fill="#DFECF5"/>
<path d="M55.8809 25.0142C55.7567 25.0329 55.6358 25.0693 55.5219 25.1222C54.6154 25.7158 53.827 26.4726 53.1969 27.3542C53.1834 27.3711 53.1713 27.3892 53.1609 27.4082C52.0508 29.0776 51.4516 31.0345 51.4369 33.0392C51.4265 34.5744 51.7275 36.0957 52.3219 37.5112C53.0525 39.2105 54.1173 40.7456 55.4529 42.0253C56.7886 43.3049 58.3678 44.303 60.0969 44.9602L60.5279 45.1132C60.5459 45.1222 60.7169 45.1762 60.7439 45.1802L60.8699 45.2252C61.0478 45.2866 61.2291 45.3376 61.4129 45.3782C62.2813 45.5557 63.163 45.6608 64.0489 45.6922C64.1929 45.6922 64.3359 45.6922 64.4799 45.6922C66.4743 45.7299 68.4371 45.1905 70.1322 44.1391C71.8274 43.0876 73.1826 41.5687 74.0349 39.7652C74.0935 39.6513 74.158 39.5405 74.2279 39.4332C74.2279 39.4332 74.2279 39.4332 74.2279 39.4242C74.3128 39.2995 74.3723 39.1592 74.403 39.0114C74.4337 38.8637 74.435 38.7113 74.4068 38.5631C74.3786 38.4149 74.3215 38.2736 74.2387 38.1474C74.156 38.0212 74.0492 37.9126 73.9244 37.8277C73.7996 37.7428 73.6594 37.6833 73.5116 37.6526C73.3639 37.6219 73.2115 37.6206 73.0633 37.6488C72.915 37.677 72.7738 37.7341 72.6476 37.8169C72.5214 37.8996 72.4128 38.0064 72.3279 38.1312C70.6489 40.6052 67.7749 41.3552 63.7919 40.3672C63.4842 40.2875 63.1813 40.19 62.8849 40.0752C62.5101 39.9409 62.1429 39.7864 61.7849 39.6122C61.0987 39.2711 60.4476 38.8634 59.8409 38.3952C56.3409 35.6782 54.9689 30.0252 57.0169 26.7612C57.133 26.5761 57.194 26.3618 57.1927 26.1434C57.1915 25.9249 57.128 25.7113 57.0098 25.5276C56.8915 25.3439 56.7234 25.1977 56.5251 25.106C56.3268 25.0144 56.1064 24.9812 55.8899 25.0102L55.8809 25.0142ZM45.6969 27.3052C45.4267 27.3001 45.1636 27.3923 44.9559 27.5652C43.6382 28.7219 42.4353 30.0032 41.3639 31.3912C41.3552 31.4085 41.3448 31.4249 41.3329 31.4402C38.1899 36.0162 37.9519 42.5272 40.7329 48.0272C41.1604 48.8815 41.6466 49.7051 42.1879 50.4922L42.3449 50.7172C42.7928 51.4311 43.3235 52.0897 43.9259 52.6792C44.1459 52.9302 44.3839 53.1732 44.6179 53.4062L44.7299 53.5232L44.8239 53.6172C45.0619 53.8462 45.3039 54.0802 45.5559 54.3042C45.576 54.3287 45.5984 54.3512 45.6229 54.3712C45.9059 54.6222 46.1929 54.8602 46.5749 55.1612L46.6749 55.2372C46.9749 55.4752 47.2749 55.7002 47.5819 55.9202L47.6759 55.9872C47.7839 56.0592 47.8919 56.1262 47.9989 56.2032L48.1069 56.2752L48.2329 56.3562C48.4619 56.5092 48.6869 56.6482 49.0049 56.8322C49.2119 56.9582 49.4319 57.0832 49.5749 57.1552C49.6379 57.1912 49.7049 57.2272 49.8619 57.3122L50.2119 57.4962L50.3289 57.5502C50.5579 57.6672 50.7959 57.7792 51.0289 57.8872L51.3929 58.0492C51.6309 58.1492 51.8729 58.2492 52.1699 58.3632L52.3049 58.4122C52.3139 58.4212 52.4259 58.4612 52.4349 58.4662C52.6509 58.5422 52.8709 58.6192 53.0909 58.6912L53.5909 58.8572C53.8713 58.9597 54.1596 59.0393 54.4529 59.0952C55.9498 59.3522 57.4652 59.486 58.9839 59.4952C59.1549 59.4952 59.3249 59.4952 59.4909 59.4952C62.9953 59.537 66.4251 58.4821 69.3003 56.4782C72.1755 54.4742 74.3522 51.6215 75.5259 48.3192C75.6044 48.0562 75.5861 47.7738 75.4743 47.5232C75.3625 47.2725 75.1646 47.0702 74.9165 46.9529C74.6684 46.8356 74.3864 46.8111 74.1218 46.8838C73.8571 46.9565 73.6273 47.1216 73.4739 47.3492C70.2589 52.0492 64.1789 54.0312 57.9869 52.3962C57.6999 52.3242 57.4209 52.2432 57.0749 52.1312C57.0169 52.1132 56.9669 52.0952 56.8749 52.0592C56.6749 51.9962 56.4749 51.9292 56.2509 51.8432L55.9319 51.7222C55.7479 51.6502 55.5639 51.5782 55.3389 51.4802L55.1909 51.4132C54.9169 51.2962 54.6519 51.1662 54.4139 51.0492L53.7569 50.7052C53.6089 50.6332 53.4789 50.5522 53.2769 50.4312L53.1649 50.3682L53.0529 50.3012C52.8869 50.2012 52.7209 50.1012 52.5679 49.9912L52.4599 49.9242C52.4509 49.9242 52.3599 49.8572 52.3519 49.8482C52.2169 49.7632 52.0869 49.6772 51.9609 49.5972C51.6829 49.3972 51.4089 49.1972 51.0899 48.9412L50.9639 48.8412C48.0559 46.5552 45.9018 43.4482 44.7809 39.9232C43.8249 36.8112 44.5339 32.7382 46.6809 29.0292C46.8163 28.7966 46.8654 28.5237 46.8195 28.2585C46.7736 27.9933 46.6356 27.7528 46.4299 27.5792C46.2259 27.4036 45.966 27.3065 45.6969 27.3052ZM33.0469 30.7532C32.7614 30.7545 32.4864 30.8614 32.2749 31.0532C30.74 32.4857 29.3899 34.1042 28.2559 35.8712C23.5559 42.7102 24.4659 53.3382 27.6899 59.8362C27.7529 59.9712 27.8199 60.1012 27.8899 60.2362L27.9349 60.3082C27.9772 60.409 28.0266 60.5065 28.0829 60.6002C28.1128 60.673 28.1504 60.7424 28.1949 60.8072C28.2489 60.9192 28.3029 61.0182 28.4019 61.1892L28.7699 61.8222C28.8239 61.9072 28.8779 61.9972 28.8959 62.0292C28.9679 62.1462 29.0439 62.2672 29.1209 62.3882L29.3009 62.6752C29.3454 62.7466 29.3934 62.8157 29.4449 62.8822C29.6249 63.1602 29.8039 63.4392 30.0019 63.7042C30.0098 63.7154 30.0189 63.7258 30.0289 63.7352L30.1009 63.8352C30.2629 64.0682 30.4289 64.2932 30.5769 64.4772L31.2329 65.3082C31.2419 65.3172 31.3139 65.4022 31.3179 65.4082L31.4119 65.5162C31.6119 65.7582 31.8209 66.0012 32.0319 66.2342C32.0629 66.2702 32.0949 66.3012 32.1259 66.3342C32.3259 66.5542 32.5349 66.7742 32.7499 67.0032L32.9569 67.2032C33.1279 67.3832 33.2979 67.5582 33.4779 67.7242L33.5629 67.8092L33.7429 67.9752C33.9589 68.1822 34.1829 68.3882 34.3539 68.5322C34.3629 68.5452 34.5249 68.6852 34.5379 68.6942C34.7489 68.8832 34.9599 69.0622 35.1759 69.2372L36.2759 70.1082C36.4599 70.2432 36.6489 70.3772 36.8639 70.5352C36.9359 70.5892 37.0119 70.6432 37.0889 70.6922C37.1172 70.7167 37.1473 70.7391 37.1789 70.7592L37.9969 71.3052C38.2969 71.5052 38.5969 71.6872 38.9669 71.9052L39.1669 72.0172C39.3959 72.1522 39.6299 72.2862 39.8499 72.4032C39.9799 72.4752 40.1099 72.5382 40.2229 72.5962C40.3799 72.6812 40.5509 72.7762 40.8109 72.9012C40.8329 72.9142 41.0179 73.0012 41.0399 73.0132C41.2999 73.1432 41.5649 73.2642 41.8979 73.4132C41.933 73.433 41.969 73.451 42.0059 73.4672C42.3109 73.5972 42.6059 73.7232 42.9979 73.8802C43.0609 73.9072 43.1239 73.9292 43.1369 73.9342C43.4149 74.0422 43.7069 74.1502 43.9449 74.2342L44.1109 74.3012C44.4299 74.4092 44.7439 74.5122 45.1479 74.6382C45.2149 74.6602 45.2869 74.6832 45.2959 74.6832L45.5249 74.7552C45.8065 74.8482 46.0929 74.926 46.3829 74.9882C48.4276 75.3714 50.5026 75.5699 52.5829 75.5812C69.0489 75.5812 74.2939 62.3302 74.3479 62.1952C74.4427 61.9368 74.4419 61.6531 74.3456 61.3952C74.2493 61.1374 74.0638 60.9226 73.8229 60.7897C73.5819 60.6567 73.3013 60.6145 73.0318 60.6705C72.7624 60.7265 72.5219 60.8772 72.3539 61.0952C68.1289 66.6592 60.1539 68.7242 51.0339 66.6272C50.8139 66.5732 50.5889 66.5102 50.3689 66.4432L49.9379 66.3132C49.6459 66.2232 49.3539 66.1242 49.0709 66.0262L48.9359 65.9772C48.6849 65.8922 48.4359 65.7932 48.2129 65.7082L47.9619 65.6082C47.6839 65.4962 47.4049 65.3792 47.1359 65.2582L46.9789 65.1912C46.7369 65.0792 46.5029 64.9712 46.2699 64.8542C46.2519 64.8452 46.0699 64.7542 46.0499 64.7542C45.8879 64.6732 45.7269 64.5882 45.5199 64.4762L44.5819 63.9762C44.4893 63.9143 44.3935 63.8572 44.2949 63.8052C44.0119 63.6302 43.7199 63.4552 43.4329 63.2712C43.3659 63.2312 43.3069 63.1862 43.1949 63.1092C42.9949 62.9832 42.8039 62.8532 42.5209 62.6552L42.4089 62.5742C42.2159 62.4392 42.0269 62.2962 41.8699 62.1742C41.7699 62.1022 41.6699 62.0212 41.5109 61.9002C41.3669 61.7882 41.2239 61.6802 41.0889 61.5722L40.8379 61.3652C40.6269 61.1942 40.4289 61.0152 40.2229 60.8402C40.198 60.8155 40.1709 60.7931 40.1419 60.7732C39.9129 60.5622 39.6789 60.3512 39.4009 60.0862L38.5969 59.2752C38.3969 59.0752 38.1969 58.8662 37.9769 58.6192C37.7699 58.3902 37.5769 58.1612 37.3079 57.8472L36.8229 57.2542C36.7609 57.164 36.6941 57.0772 36.6229 56.9942C36.4569 56.7692 36.2909 56.5492 36.1229 56.3162C31.6509 50.1552 30.4829 37.2952 33.9679 32.5852C34.0946 32.4145 34.1713 32.2119 34.1897 32.0001C34.208 31.7883 34.1671 31.5755 34.0716 31.3856C33.9761 31.1956 33.8297 31.0359 33.6488 30.9243C33.4679 30.8126 33.2595 30.7534 33.0469 30.7532Z" fill="#0868AC"/>
</svg>
