<svg width="100" height="100" viewBox="0 0 100 100" fill="none" xmlns="http://www.w3.org/2000/svg">
<rect width="100" height="100" fill="#FBE5DC"/>
<rect width="100" height="100" fill="#FFF4BB"/>
<path d="M25 75.7V25H75.7V75.7H25Z" fill="#FFD600"/>
<path d="M58.1554 62.9542C59.1304 64.5372 60.1894 66.0542 62.4324 66.0542C64.3164 66.0542 65.3054 65.1172 65.3054 63.8222C65.3054 62.2712 64.2824 61.7222 62.2054 60.8222L61.0734 60.3362C57.7934 58.9442 55.6114 57.2012 55.6114 53.5182C55.6114 50.1242 58.2114 47.5412 62.2704 47.5412C63.5848 47.4455 64.8984 47.7379 66.0481 48.3822C67.1978 49.0264 68.1329 49.9942 68.7374 51.1652L65.1964 53.4282C64.9627 52.8463 64.5576 52.3493 64.0348 52.003C63.5121 51.6567 62.8964 51.4775 62.2694 51.4892C61.9967 51.4611 61.7211 51.4902 61.4601 51.5745C61.1992 51.6589 60.9587 51.7966 60.754 51.9791C60.5493 52.1615 60.3848 52.3845 60.2711 52.6341C60.1574 52.8836 60.0969 53.154 60.0934 53.4282C60.0934 54.7862 60.9384 55.3352 62.8934 56.1762L64.0304 56.6602C67.8964 58.3062 70.0764 59.9882 70.0764 63.7682C70.0764 67.8412 66.8594 70.0742 62.5414 70.0742C60.8939 70.1628 59.2572 69.759 57.84 68.9141C56.4227 68.0693 55.2891 66.8216 54.5834 65.3302L58.1554 62.9542ZM41.8374 63.0692C42.1317 63.7197 42.6012 64.2755 43.1934 64.6743C43.7855 65.0731 44.477 65.2991 45.1904 65.3272C46.6804 65.3272 47.5384 64.7382 47.5384 62.4502V47.5362H52.2324V63.1712C52.2324 67.9132 49.4814 70.0712 45.4654 70.0712C43.9241 70.0444 42.4212 69.5856 41.1277 68.7469C39.8341 67.9083 38.8019 66.7234 38.1484 65.3272L41.8374 63.0692Z" fill="#000001"/>
</svg>
