<svg width="100" height="100" viewBox="0 0 100 100" fill="none" xmlns="http://www.w3.org/2000/svg">
<rect width="100" height="100" fill="#DFF4FD"/>
<path d="M50 63.0234C33.467 63.0234 21 57.4344 21 50.0234C21 42.6124 33.467 37.0234 50 37.0234C66.533 37.0234 79 42.6124 79 50.0234C79 57.4344 66.532 63.0234 50 63.0234ZM50 41.0234C35.691 41.0234 25 45.7744 25 50.0234C25 54.2724 35.691 59.0234 50 59.0234C64.309 59.0234 75 54.2714 75 50.0234C75 45.7754 64.309 41.0234 50 41.0234Z" fill="#2CB1EF"/>
<path d="M60.9686 76.048C58.2246 76.048 55.0066 74.687 51.5826 72.027C47.0336 68.494 42.4736 62.989 38.7406 56.527C30.4746 42.207 29.0806 28.616 35.4996 24.91C41.9166 21.204 52.9916 29.21 61.2586 43.524C64.9906 49.989 67.4786 56.691 68.2636 62.396C69.1326 68.71 67.7956 73.236 64.4996 75.138C63.4248 75.7507 62.2057 76.0649 60.9686 76.048ZM37.4996 28.375C33.8196 30.499 35.0506 42.134 42.1996 54.526C45.6796 60.553 49.8816 65.647 54.0306 68.87C57.5896 71.633 60.7516 72.685 62.4936 71.676C64.2356 70.667 64.9086 67.406 64.2936 62.944C63.5776 57.744 61.2676 51.554 57.7866 45.527C50.6396 33.135 41.1826 26.254 37.4996 28.375Z" fill="#2CB1EF"/>
<path d="M39.0097 76.0388C37.7802 76.0562 36.5682 75.7456 35.4987 75.1388C32.1987 73.2388 30.8667 68.7108 31.7357 62.3968C32.5207 56.6908 35.0077 49.9888 38.7407 43.5248C42.4727 37.0608 47.0337 31.5548 51.5827 28.0248C56.6147 24.1118 61.1997 23.0058 64.4997 24.9098C67.7997 26.8138 69.1327 31.3378 68.2637 37.6518C67.4787 43.3578 64.9917 50.0598 61.2587 56.5238C54.3507 68.4848 45.4837 76.0388 39.0097 76.0388ZM42.1997 45.5218C38.7207 51.5478 36.4097 57.7338 35.6937 62.9388C35.0797 67.4018 35.7527 70.6668 37.4937 71.6708C41.1797 73.8008 50.6397 66.9138 57.7927 54.5218C61.2727 48.4948 63.5837 42.3098 64.2997 37.1048C64.9137 32.6428 64.2407 29.3778 62.4997 28.3718C60.7587 27.3658 57.5997 28.4158 54.0367 31.1788C49.8867 34.4018 45.6847 39.4958 42.1997 45.5218Z" fill="#2CB1EF"/>
<path d="M50 55.0234C52.7614 55.0234 55 52.7849 55 50.0234C55 47.262 52.7614 45.0234 50 45.0234C47.2386 45.0234 45 47.262 45 50.0234C45 52.7849 47.2386 55.0234 50 55.0234Z" fill="#2CB1EF"/>
</svg>
