<svg width="100" height="100" viewBox="0 0 100 100" fill="none" xmlns="http://www.w3.org/2000/svg">
<rect width="100" height="100" fill="#FDE8EF"/>
<path d="M71.3002 53.1815C69.4641 53.182 67.6527 53.6039 66.0052 54.4145C65.4886 53.5578 65.0903 52.6351 64.8212 51.6715C64.6662 50.915 64.6324 50.1387 64.7212 49.3715C64.8986 48.5296 65.1297 47.6999 65.4132 46.8875C65.4052 46.7875 65.2852 46.2815 64.1072 46.2725C62.9292 46.2635 61.9202 46.4995 61.8072 46.8105C61.6003 47.3777 61.4378 47.9601 61.3212 48.5525C61.1152 49.6205 58.9682 53.4315 57.7502 55.4245C57.3808 54.8007 57.1084 54.1243 56.9422 53.4185C56.7872 52.662 56.7534 51.8857 56.8422 51.1185C57.0196 50.2766 57.2507 49.4469 57.5342 48.6345C57.5262 48.5345 57.4062 48.0285 56.2282 48.0195C55.0502 48.0105 54.0412 48.2465 53.9282 48.5575C53.8152 48.8685 53.6822 49.5945 53.4422 50.2995C53.2022 51.0045 50.3382 57.3475 49.5902 59.0005C49.2092 59.8405 48.8782 60.5145 48.6442 60.9745L48.6052 61.0565C48.4052 61.4485 48.2862 61.6645 48.2862 61.6645V61.6725C48.1272 61.9605 47.9572 62.2275 47.8732 62.2275C47.7293 61.6259 47.7386 60.9977 47.9002 60.4005C48.3252 58.1955 49.3442 54.7575 49.3352 54.6375C49.3302 54.5765 49.5252 53.9775 48.6692 53.6635C48.4728 53.5701 48.2524 53.5391 48.0378 53.5749C47.8232 53.6107 47.6247 53.7114 47.4692 53.8635C47.3962 53.8635 47.3412 54.0425 47.3412 54.0425C47.3412 54.0425 48.2672 50.1755 45.5742 50.1755C43.8902 50.1755 41.5572 52.0175 40.4082 53.6875C39.6832 54.0875 38.1302 54.9305 36.4842 55.8355L34.5942 56.8755C34.5532 56.8295 34.5102 56.7835 34.4682 56.7375C31.2002 53.2615 25.1632 50.8005 25.4182 46.1125C25.5112 44.4125 26.1032 39.9245 37.0182 34.4865C45.9592 30.0315 53.1182 31.2575 54.3552 33.9735C56.1222 37.8565 50.5292 45.0735 41.2442 46.1125C37.7062 46.5125 35.8442 45.1375 35.3792 44.6275C34.8912 44.0895 34.8182 44.0655 34.6362 44.1665C34.3362 44.3315 34.5272 44.8055 34.6362 45.0885C34.9917 45.7292 35.4715 46.2926 36.0474 46.7455C36.6233 47.1985 37.2838 47.532 37.9902 47.7265C39.6972 48.2875 43.8512 48.5935 48.8742 46.6505C54.5002 44.4745 58.9002 38.4195 57.6002 33.3595C56.2922 28.2135 47.7582 26.5205 39.6812 29.3905C34.6211 31.0895 29.9458 33.77 25.9232 37.2785C21.4742 41.4395 20.7652 45.0615 21.0572 46.5785C22.0962 51.9555 29.5072 55.4575 32.4752 58.0515L32.0662 58.2775C30.5782 59.0135 24.9292 61.9705 23.5152 65.0935C21.9152 68.6365 23.7702 71.1785 25.0002 71.5215C26.8487 71.9643 28.7894 71.8184 30.5509 71.1043C32.3125 70.3902 33.8069 69.1435 34.8252 67.5385C35.6908 66.2076 36.2228 64.6876 36.3762 63.1073C36.5295 61.527 36.2997 59.9331 35.7062 58.4605C35.6942 58.4375 35.6812 58.4155 35.6692 58.3915L36.8332 57.7045C37.5902 57.2595 38.3332 56.8455 38.9782 56.4945C38.5461 57.7488 38.2897 59.0569 38.2162 60.3815C38.0667 62.4119 38.6888 64.4239 39.9582 66.0155C40.1504 66.1822 40.374 66.3089 40.6157 66.388C40.8575 66.4672 41.1127 66.4973 41.3662 66.4765C42.6212 66.4765 43.1942 65.4325 43.8252 64.1965C44.5982 62.6825 45.2852 60.9185 45.2852 60.9185C45.2852 60.9185 44.4242 65.6825 46.7702 65.6825C47.6252 65.6825 48.4852 64.5735 48.8702 64.0085C48.8705 64.0115 48.8705 64.0145 48.8702 64.0175L48.9362 63.9075C49.0252 63.7725 49.0752 63.6855 49.0752 63.6855V63.6605C49.4192 63.0605 50.1822 61.7035 51.3242 59.4605C52.8012 56.5605 54.2172 52.9305 54.2172 52.9305C54.3556 53.7272 54.5436 54.5144 54.7802 55.2875C55.1244 56.2242 55.532 57.1363 56.0002 58.0175C55.6572 58.4935 55.4472 58.7655 55.4472 58.7655C55.4485 58.7706 55.4502 58.7757 55.4522 58.7805C55.1782 59.1445 54.8712 59.5365 54.5522 59.9185C53.5637 61.0001 52.6483 62.1463 51.8122 63.3495C51.689 63.552 51.6472 63.7937 51.695 64.0258C51.7429 64.2579 51.877 64.4633 52.0702 64.6005C52.511 64.8306 53.0145 64.9117 53.5052 64.8315C54.2437 64.7913 54.9701 64.6259 55.6532 64.3425C56.3124 64.1101 56.9342 63.783 57.4992 63.3715C58.0824 62.9692 58.5516 62.4228 58.8612 61.7855C59.1708 61.1482 59.3103 60.4417 59.2662 59.7345C59.2 58.8446 58.9726 57.9742 58.5952 57.1655C58.6952 57.0165 58.8022 56.8655 58.9072 56.7135C60.0934 54.9416 61.1623 53.094 62.1072 51.1825C62.2456 51.9792 62.4336 52.7664 62.6702 53.5395C62.9537 54.3485 63.3005 55.134 63.7072 55.8885C62.3429 56.9434 61.2729 58.3316 60.6002 59.9195C59.9252 61.8615 60.4542 62.7415 61.4452 62.9415C61.9825 62.9742 62.5189 62.8645 63.0002 62.6235C63.7066 62.3889 64.3725 62.0466 64.9742 61.6085C65.6091 61.2359 66.141 60.7108 66.5218 60.0808C66.9026 59.4508 67.1203 58.7358 67.1552 58.0005C67.1077 57.2664 66.9408 56.545 66.6612 55.8645C68.4616 55.1591 70.4144 54.9334 72.3282 55.2095C77.4122 55.8035 78.4082 58.9765 78.2182 60.3095C78.1289 60.7832 77.9384 61.2321 77.6599 61.6256C77.3814 62.019 77.0213 62.3478 76.6042 62.5895C76.2482 62.8105 76.1392 62.8895 76.1682 63.0505C76.2122 63.2885 76.3772 63.2805 76.6812 63.2285C77.4451 62.9881 78.1182 62.5219 78.6119 61.8915C79.1057 61.261 79.3969 60.4958 79.4472 59.6965C79.5682 56.5735 76.5852 53.1535 71.3002 53.1815ZM32.1192 66.3915C30.4352 68.2285 28.0832 68.9225 27.0742 68.3375C25.9842 67.7065 26.4162 65.0005 28.4822 63.0515C29.7093 61.9476 31.0359 60.9597 32.4452 60.1005L33.4892 59.4735L33.6002 59.4005L33.8602 59.2435C34.2289 60.4824 34.2619 61.797 33.956 63.0529C33.6501 64.3088 33.0163 65.4609 32.1192 66.3915ZM44.3872 58.0535C43.8012 59.4825 42.5742 63.1415 41.8262 62.9445C41.1842 62.7755 40.7942 59.9955 41.6982 57.2585C42.1577 55.9356 42.8336 54.6982 43.6982 53.5965C44.6172 52.5685 45.6292 52.2325 45.8752 52.6495C46.1852 53.1805 44.7542 57.1565 44.3862 58.0525L44.3872 58.0535ZM54.5212 62.8885C54.2732 63.0185 54.0442 63.0995 53.9392 63.0375C53.8612 62.9915 54.0392 62.8195 54.0392 62.8195C54.0392 62.8195 55.3062 61.4555 55.8062 60.8345C56.0972 60.4735 56.4332 60.0445 56.8002 59.5655C56.8002 59.6135 56.8002 59.6655 56.8002 59.7075C56.8002 61.3425 55.2252 62.4445 54.5212 62.8885ZM62.3282 61.1085C62.1422 60.9765 62.1742 60.5505 62.7842 59.2205C63.207 58.3654 63.797 57.6037 64.5192 56.9805C64.6627 57.3948 64.7193 57.8342 64.6854 58.2713C64.6515 58.7084 64.528 59.1339 64.3224 59.5211C64.1168 59.9084 63.8336 60.2491 63.4905 60.522C63.1474 60.795 62.7518 60.9943 62.3282 61.1075V61.1085Z" fill="#F06292"/>
</svg>
