<svg width="13" height="9" viewBox="0 0 13 9" fill="none" xmlns="http://www.w3.org/2000/svg">
<path d="M10.4516 4.70399C10.4764 4.57379 10.4898 4.43949 10.4898 4.30209C10.4898 3.12059 9.53198 2.1628 8.35058 2.1628C8.05528 2.1628 7.77388 2.22262 7.51808 2.33082C7.29838 1.56254 6.59148 1 5.75278 1C4.73858 1 3.91642 1.82212 3.91642 2.83629V3.32769H3.38352C2.06714 3.32769 1 4.39479 1 5.71119C1 7.02759 2.06714 8.09469 3.38352 8.09469H10.1261C11.0711 8.09469 11.8371 7.32859 11.8371 6.38369C11.8371 5.54999 11.2409 4.85599 10.4516 4.70399Z" stroke="#595958" stroke-miterlimit="10"/>
</svg>
