<svg width="50" height="50" viewBox="0 0 50 50" fill="none" xmlns="http://www.w3.org/2000/svg">
<rect width="50" height="50" rx="25" fill="white"/>
<path fill-rule="evenodd" clip-rule="evenodd" d="M25 35C19.48 35 15 30.53 15 25C15 19.48 19.48 15 25 15C30.53 15 35 19.48 35 25C35 30.53 30.53 35 25 35ZM28.19 28.71C28.31 28.78 28.44 28.82 28.58 28.82C28.83 28.82 29.08 28.69 29.22 28.45C29.43 28.1 29.32 27.64 28.96 27.42L25.4 25.3V20.68C25.4 20.26 25.06 19.93 24.65 19.93C24.24 19.93 23.9 20.26 23.9 20.68V25.73C23.9 25.99 24.04 26.23 24.27 26.37L28.19 28.71Z" fill="#FFAD3B"/>
</svg>
