<svg width="149" height="152" viewBox="0 0 149 152" fill="none" xmlns="http://www.w3.org/2000/svg">
<path d="M110.314 117.356C109.799 117.869 109.175 118.257 108.447 118.523L107.713 118.744C107.713 118.744 8.67825 158.746 0.977661 151.009C-6.72293 143.271 33.5955 44.274 33.5955 44.274L33.8187 43.5396C34.0867 42.8118 34.4764 42.1886 34.9914 41.6748C41.152 35.5298 63.0093 47.4889 83.8089 68.3874C104.608 89.2858 116.475 111.211 110.314 117.356Z" fill="url(#paint0_linear_7158_78221)"/>
<path d="M104.153 120.161C98.9412 122.23 88.5052 126.325 76.1824 130.909C68.6455 133.714 60.4022 136.701 52.2167 139.517C45.0636 141.978 37.9533 144.312 31.4016 146.279C26.9002 142.492 22.4268 138.384 18.0442 133.981C13.6616 129.578 9.57523 125.084 5.80859 120.564C7.797 114.013 10.1546 106.903 12.639 99.7509C15.4812 91.5665 18.4955 83.3251 21.3247 75.7904C25.9487 63.4707 30.0777 53.0384 32.1632 47.8281C45.4512 55.0418 59.6505 65.7101 73.0207 79.1439C86.3912 92.578 96.9959 106.832 104.153 120.161Z" fill="url(#paint1_linear_7158_78221)"/>
<path d="M110.312 117.355C109.798 117.87 109.173 118.256 108.445 118.523L107.712 118.743C107.712 118.743 106.431 119.26 104.151 120.165C98.9392 122.234 88.5033 126.329 76.1804 130.913C68.6436 133.718 60.4003 136.706 52.2147 139.521C45.1 134.149 37.9689 127.944 31.0594 121.001C24.1498 114.059 17.9771 106.897 12.6367 99.7551C15.479 91.5706 18.4933 83.3293 21.3224 75.7946C25.9465 63.4749 30.0754 53.0426 32.1609 47.8323C33.0734 45.5532 33.5947 44.2734 33.5947 44.2734L33.8162 43.5397C34.0862 42.8122 34.4735 42.1875 34.9903 41.6748C41.1512 35.5296 63.0064 47.4896 83.8075 68.3862C104.606 89.2868 116.473 111.21 110.312 117.355Z" fill="url(#paint2_linear_7158_78221)"/>
<path d="M110.314 117.355C109.8 117.87 109.174 118.256 108.447 118.523L107.713 118.742C107.713 118.742 106.433 119.259 104.153 120.164C98.9407 122.233 88.5047 126.329 76.1819 130.913C66.1517 124.3 55.8771 115.92 46.0521 106.048C36.227 96.1759 27.8932 85.8596 21.3242 75.7946C25.9483 63.4749 30.0772 53.0426 32.1627 47.8323C33.0752 45.5532 33.5965 44.2734 33.5965 44.2734L33.818 43.5397C34.088 42.8122 34.4753 42.1875 34.9921 41.6748C41.153 35.5296 63.0082 47.4896 83.8093 68.3862C104.607 89.2865 116.474 111.209 110.314 117.355Z" fill="url(#paint3_linear_7158_78221)"/>
<path d="M110.318 117.356C104.156 123.502 82.2994 111.543 61.4999 90.6446C40.7003 69.7459 28.8335 47.8219 34.9952 41.6754C41.157 35.529 63.014 47.4884 83.8136 68.3871C104.613 89.2859 116.48 111.21 110.318 117.356Z" fill="url(#paint4_linear_7158_78221)"/>
<path d="M106.467 111.72C101.915 116.261 83.4796 105.126 65.2904 86.8501C47.1011 68.5744 36.0459 50.0781 40.5979 45.5375C45.1499 40.9969 63.5857 52.1316 81.7749 70.4073C99.9641 88.683 111.02 107.179 106.467 111.72Z" fill="url(#paint5_linear_7158_78221)"/>
<path d="M110.322 117.355C116.482 111.21 104.616 89.2853 83.8161 68.3868C71.6198 56.1327 59.0614 46.9546 49.5156 42.6953C49.8884 43.382 50.3043 44.0627 50.769 44.7339C51.5243 45.8247 52.4085 46.819 53.404 47.7155L58.6857 53.0396C58.0769 53.3162 57.5175 53.535 57.0471 53.701C56.2049 53.9981 55.7119 54.8702 55.8881 55.7464L57.7572 65.0405C57.9224 65.8621 58.4982 66.4862 59.2177 66.7589L109.925 117.707C110.063 117.597 110.196 117.48 110.322 117.355Z" fill="url(#paint6_linear_7158_78221)"/>
<path d="M76.599 88.4805L81.7858 94.6878L105.947 118.964C107.794 118.912 109.278 118.392 110.315 117.357C115.699 111.987 107.317 94.5674 91.2366 76.3125C86.2258 78.4074 81.4491 81.1497 77.0379 84.5214C75.7917 85.4733 75.5931 87.2767 76.599 88.4805Z" fill="url(#paint7_linear_7158_78221)"/>
<path d="M81.7858 94.6801L76.5991 88.4729C75.5931 87.2691 75.7917 85.466 77.0376 84.5134C93.1119 72.2277 114.02 68.2373 133.548 73.8598C138.462 75.2746 143.168 77.2586 147.573 79.7702C148.936 80.5471 149.372 82.3089 148.535 83.6363L144.22 90.4796C143.438 91.7203 141.824 92.1256 140.546 91.4086C137.164 89.5124 133.559 88.0077 129.795 86.924C114.524 82.527 98.1792 85.595 85.5506 95.1114C84.38 95.9933 82.7257 95.8049 81.7858 94.6801Z" fill="url(#paint8_linear_7158_78221)"/>
<path d="M36.966 30.2467L32.2565 25.3956C30.1219 23.1966 29.4791 19.6571 30.7256 16.9658C32.1728 13.8409 35.6459 12.925 38.4432 14.9305C40.8526 16.658 42.0351 20.055 41.2595 23.0214L39.5489 29.5657C39.2467 30.7221 37.7984 31.1042 36.966 30.2467Z" fill="url(#paint9_linear_7158_78221)"/>
<path d="M28.6308 35.5089L21.9436 34.5361C18.9126 34.0953 16.2481 31.6812 15.5979 28.7869C14.8429 25.4262 17.0388 22.5811 20.4774 22.4646C23.439 22.3642 26.4447 24.3357 27.6358 27.1608L30.2637 33.3931C30.7284 34.4943 29.8124 35.6808 28.6308 35.5089Z" fill="url(#paint10_linear_7158_78221)"/>
<path d="M118.171 113.326L124.9 112.716C127.951 112.44 131.103 114.168 132.407 116.832C133.921 119.924 132.446 123.203 129.129 124.116C126.271 124.903 122.891 123.685 121.076 121.214L117.073 115.764C116.366 114.801 116.981 113.434 118.171 113.326Z" fill="url(#paint11_linear_7158_78221)"/>
<path d="M119.326 103.531L124.29 98.942C126.54 96.8616 130.091 96.3088 132.747 97.6246C135.831 99.1527 136.657 102.652 134.583 105.4C132.796 107.767 129.374 108.864 126.432 108.013L119.94 106.134C118.793 105.802 118.449 104.342 119.326 103.531Z" fill="url(#paint12_linear_7158_78221)"/>
<path d="M60.7327 66.7974C59.4159 67.2224 58.0244 66.3968 57.7514 65.0389L55.8824 55.7449C55.7061 54.8684 56.1992 53.9966 57.0414 53.6995C58.0256 53.3522 59.3933 52.7809 60.8071 51.9106C56.5371 50.4994 53.0625 48.0525 50.7635 44.7324C46.4295 38.4727 46.0898 31.4169 49.8543 25.8582C53.5796 20.3576 60.463 17.6741 66.9843 19.1812C74.1136 20.8288 79.1214 27.0736 80.3801 35.8866C80.4325 36.2535 80.479 36.6186 80.5191 36.9822C82.2682 35.9563 83.6814 34.6909 84.5665 33.2743C86.8071 29.6892 87.0197 24.3388 85.109 19.6438C83.8961 16.664 82.0238 14.3852 79.9121 13.239C78.9702 12.7278 78.4682 11.6671 78.7207 10.6249L80.8618 1.78593C81.1899 0.432238 82.6302 -0.346835 83.9297 0.151485C89.9223 2.44906 94.853 7.55893 97.684 14.514C101.242 23.2548 100.627 33.2057 96.0784 40.4838C92.48 46.2419 85.8434 50.537 78.1696 52.3526C76.4459 55.9607 73.8662 59.1303 70.4827 61.7271C66.8697 64.4995 63.1266 66.0248 60.7327 66.7974ZM63.3942 32.3671C62.5062 32.3656 61.5526 32.8082 61.0935 33.4865C60.4076 34.4992 61.3192 36.1155 61.9235 36.9884C62.7524 38.1857 64.6821 39.0789 67.1129 39.4789C67.0778 38.937 67.0195 38.3812 66.9379 37.8107C66.5041 34.7743 65.3797 32.7617 63.9298 32.4267C63.7574 32.3867 63.5773 32.3674 63.3942 32.3671Z" fill="url(#paint13_radial_7158_78221)"/>
<path d="M90.2512 46.7639L80.5178 36.9844C80.5178 36.9844 81.1394 46.4274 78.168 52.3551C82.6935 51.2846 86.8576 49.3509 90.2512 46.7639Z" fill="url(#paint14_linear_7158_78221)"/>
<path d="M61.9224 36.9924C61.4797 36.3528 60.8748 35.3154 60.851 34.4075L47.2539 34.3828C47.275 37.8284 48.4495 41.3957 50.7624 44.7364C53.0613 48.0568 56.5356 50.5037 60.806 51.9146C60.806 51.9146 67.7748 49.7983 67.1121 39.4828C64.681 39.0829 62.7512 38.1897 61.9224 36.9924Z" fill="url(#paint15_linear_7158_78221)"/>
<path d="M90.7533 67.9493C87.597 70.0084 84.9036 72.7209 82.8642 75.8938C82.4055 76.6073 81.3471 76.6055 80.891 75.8902C78.863 72.7098 76.18 69.9875 73.0309 67.9168C72.3318 67.4572 72.3339 66.412 73.0344 65.9551C76.1908 63.8959 78.8838 61.1835 80.9235 58.0106C81.3819 57.2971 82.4406 57.2989 82.8967 58.0142C84.9247 61.1945 87.608 63.9168 90.7569 65.9876C91.4559 66.4472 91.4538 67.4924 90.7533 67.9493Z" fill="url(#paint16_linear_7158_78221)"/>
<path d="M148.472 63.793C145.316 65.8522 142.622 68.5646 140.583 71.7375C140.125 72.451 139.066 72.4492 138.61 71.734C136.582 68.5536 133.899 65.8313 130.75 63.7605C130.051 63.301 130.053 62.2557 130.753 61.7988C133.91 59.7397 136.603 57.0272 138.642 53.8543C139.101 53.1408 140.159 53.1426 140.615 53.8579C142.643 57.0383 145.327 59.7606 148.476 61.8313C149.175 62.2906 149.173 63.3358 148.472 63.793Z" fill="url(#paint17_linear_7158_78221)"/>
<path d="M121.445 17.6368C118.288 19.6959 115.595 22.4084 113.556 25.5813C113.097 26.2948 112.039 26.293 111.582 25.5777C109.554 22.3973 106.871 19.6751 103.722 17.6043C103.023 17.1447 103.025 16.0995 103.726 15.6426C106.882 13.5834 109.575 10.871 111.615 7.69808C112.073 6.98457 113.132 6.98636 113.588 7.70165C115.616 10.882 118.299 13.6043 121.448 15.6751C122.147 16.1347 122.145 17.1799 121.445 17.6368Z" fill="url(#paint18_linear_7158_78221)"/>
<path d="M118.515 49.4624C116.214 50.9636 114.251 52.9408 112.764 55.2536C112.43 55.7737 111.658 55.7722 111.326 55.2509C109.848 52.9325 107.892 50.9481 105.596 49.4386C105.087 49.1036 105.088 48.3418 105.599 48.0086C107.9 46.5074 109.863 44.5302 111.35 42.2174C111.684 41.6973 112.456 41.6985 112.788 42.2201C114.266 44.5385 116.222 46.5229 118.518 48.0324C119.027 48.3674 119.026 49.1292 118.515 49.4624Z" fill="url(#paint19_linear_7158_78221)"/>
<path d="M127.89 31.5874C125.589 33.0886 123.626 35.0658 122.139 37.3786C121.805 37.8987 121.033 37.8972 120.701 37.3759C119.223 35.0575 117.267 33.0731 114.971 31.5636C114.462 31.2286 114.463 30.4668 114.974 30.1336C117.275 28.6324 119.238 26.6552 120.725 24.3424C121.059 23.8223 121.831 23.8235 122.163 24.3451C123.641 26.6635 125.597 28.6479 127.893 30.1574C128.402 30.4924 128.401 31.2542 127.89 31.5874Z" fill="url(#paint20_linear_7158_78221)"/>
<defs>
<linearGradient id="paint0_linear_7158_78221" x1="19.5663" y1="74.3573" x2="63.7006" y2="137.802" gradientUnits="userSpaceOnUse">
<stop stop-color="#FFE548"/>
<stop offset="0.1758" stop-color="#FFDE50"/>
<stop offset="0.4446" stop-color="#FFCA65"/>
<stop offset="0.7709" stop-color="#FFAA87"/>
<stop offset="1" stop-color="#FF90A4"/>
</linearGradient>
<linearGradient id="paint1_linear_7158_78221" x1="53.8945" y1="124.126" x2="45.3685" y2="154.111" gradientUnits="userSpaceOnUse">
<stop stop-color="#FBA5C2" stop-opacity="0"/>
<stop offset="0.3857" stop-color="#FCA0BA" stop-opacity="0.386"/>
<stop offset="0.9737" stop-color="#FF91A5" stop-opacity="0.974"/>
<stop offset="1" stop-color="#FF90A4"/>
</linearGradient>
<linearGradient id="paint2_linear_7158_78221" x1="62.4405" y1="106.243" x2="51.8826" y2="144.077" gradientUnits="userSpaceOnUse">
<stop stop-color="#FBA5C2" stop-opacity="0"/>
<stop offset="0.3857" stop-color="#FCA0BA" stop-opacity="0.386"/>
<stop offset="0.9737" stop-color="#FF91A5" stop-opacity="0.974"/>
<stop offset="1" stop-color="#FF90A4"/>
</linearGradient>
<linearGradient id="paint3_linear_7158_78221" x1="69.4384" y1="85.6916" x2="56.2501" y2="128.754" gradientUnits="userSpaceOnUse">
<stop stop-color="#FBA5C2" stop-opacity="0"/>
<stop offset="0.3857" stop-color="#FCA0BA" stop-opacity="0.386"/>
<stop offset="0.9737" stop-color="#FF91A5" stop-opacity="0.974"/>
<stop offset="1" stop-color="#FF90A4"/>
</linearGradient>
<linearGradient id="paint4_linear_7158_78221" x1="76.9312" y1="69.8744" x2="62.9623" y2="101.252" gradientUnits="userSpaceOnUse">
<stop stop-color="#FFE548"/>
<stop offset="0.1758" stop-color="#FFDE50"/>
<stop offset="0.4446" stop-color="#FFCA65"/>
<stop offset="0.7709" stop-color="#FFAA87"/>
<stop offset="1" stop-color="#FF90A4"/>
</linearGradient>
<linearGradient id="paint5_linear_7158_78221" x1="63.7699" y1="93.5911" x2="83.4744" y2="63.4423" gradientUnits="userSpaceOnUse">
<stop stop-color="#FFD00D" stop-opacity="0"/>
<stop offset="1" stop-color="#DB722B"/>
</linearGradient>
<linearGradient id="paint6_linear_7158_78221" x1="82.0092" y1="80.3639" x2="69.6885" y2="42.5868" gradientUnits="userSpaceOnUse">
<stop stop-color="#FFD00D" stop-opacity="0"/>
<stop offset="1" stop-color="#DB722B"/>
</linearGradient>
<linearGradient id="paint7_linear_7158_78221" x1="96.6175" y1="101.208" x2="86.6763" y2="84.8854" gradientUnits="userSpaceOnUse">
<stop stop-color="#A34A9E" stop-opacity="0"/>
<stop offset="1" stop-color="#343168"/>
</linearGradient>
<linearGradient id="paint8_linear_7158_78221" x1="112.243" y1="96.0943" x2="112.696" y2="71.194" gradientUnits="userSpaceOnUse">
<stop stop-color="#A34A9E"/>
<stop offset="1" stop-color="#343168"/>
</linearGradient>
<linearGradient id="paint9_linear_7158_78221" x1="34.5644" y1="21.2259" x2="40.034" y2="23.6034" gradientUnits="userSpaceOnUse">
<stop stop-color="#3FA9F5"/>
<stop offset="1" stop-color="#666AD6"/>
</linearGradient>
<linearGradient id="paint10_linear_7158_78221" x1="21.3627" y1="29.7678" x2="27.1453" y2="28.3247" gradientUnits="userSpaceOnUse">
<stop stop-color="#A34A9E"/>
<stop offset="1" stop-color="#343168"/>
</linearGradient>
<linearGradient id="paint11_linear_7158_78221" x1="126.147" y1="117.264" x2="111.838" y2="125.881" gradientUnits="userSpaceOnUse">
<stop stop-color="#FF4974"/>
<stop offset="0.4497" stop-color="#FE4773"/>
<stop offset="0.6292" stop-color="#FC406D"/>
<stop offset="0.7605" stop-color="#F73464"/>
<stop offset="0.8683" stop-color="#F12257"/>
<stop offset="0.9606" stop-color="#E80C46"/>
<stop offset="1" stop-color="#E4003D"/>
</linearGradient>
<linearGradient id="paint12_linear_7158_78221" x1="128.724" y1="99.5271" x2="122.034" y2="118.641" gradientUnits="userSpaceOnUse">
<stop stop-color="#C4F8B6"/>
<stop offset="1" stop-color="#3B8EAC"/>
</linearGradient>
<radialGradient id="paint13_radial_7158_78221" cx="0" cy="0" r="1" gradientUnits="userSpaceOnUse" gradientTransform="translate(49.3316 11.1172) rotate(0.114718) scale(59.768 59.8337)">
<stop stop-color="#FF4974"/>
<stop offset="0.4497" stop-color="#FE4773"/>
<stop offset="0.6292" stop-color="#FC406D"/>
<stop offset="0.7605" stop-color="#F73464"/>
<stop offset="0.8683" stop-color="#F12257"/>
<stop offset="0.9606" stop-color="#E80C46"/>
<stop offset="1" stop-color="#E4003D"/>
</radialGradient>
<linearGradient id="paint14_linear_7158_78221" x1="91.8944" y1="53.7793" x2="70.3341" y2="38.2013" gradientUnits="userSpaceOnUse">
<stop stop-color="#E4003D" stop-opacity="0"/>
<stop offset="0.3434" stop-color="#CD0E2D" stop-opacity="0.343"/>
<stop offset="1" stop-color="#972E07"/>
</linearGradient>
<linearGradient id="paint15_linear_7158_78221" x1="59.198" y1="42.6402" x2="65.2282" y2="48.2342" gradientUnits="userSpaceOnUse">
<stop stop-color="#E4003D" stop-opacity="0"/>
<stop offset="0.3434" stop-color="#CD0E2D" stop-opacity="0.343"/>
<stop offset="1" stop-color="#972E07"/>
</linearGradient>
<linearGradient id="paint16_linear_7158_78221" x1="78.8223" y1="62.8667" x2="88.7676" y2="76.1678" gradientUnits="userSpaceOnUse">
<stop stop-color="#3FA9F5"/>
<stop offset="1" stop-color="#666AD6"/>
</linearGradient>
<linearGradient id="paint17_linear_7158_78221" x1="136.542" y1="58.7205" x2="146.487" y2="72.0216" gradientUnits="userSpaceOnUse">
<stop stop-color="#3FA9F5"/>
<stop offset="1" stop-color="#666AD6"/>
</linearGradient>
<linearGradient id="paint18_linear_7158_78221" x1="109.523" y1="12.5598" x2="119.468" y2="25.8608" gradientUnits="userSpaceOnUse">
<stop stop-color="#A34A9E"/>
<stop offset="1" stop-color="#343168"/>
</linearGradient>
<linearGradient id="paint19_linear_7158_78221" x1="109.818" y1="45.767" x2="117.068" y2="55.4631" gradientUnits="userSpaceOnUse">
<stop stop-color="#C4F8B6"/>
<stop offset="1" stop-color="#3B8EAC"/>
</linearGradient>
<linearGradient id="paint20_linear_7158_78221" x1="119.196" y1="27.8934" x2="126.446" y2="37.5895" gradientUnits="userSpaceOnUse">
<stop stop-color="#FFE548"/>
<stop offset="0.1758" stop-color="#FFDE50"/>
<stop offset="0.4446" stop-color="#FFCA65"/>
<stop offset="0.7709" stop-color="#FFAA87"/>
<stop offset="1" stop-color="#FF90A4"/>
</linearGradient>
</defs>
</svg>
