<svg xmlns="http://www.w3.org/2000/svg" width="53" height="51" viewBox="0 0 53 51">
  <g id="Academic_Mentoring" data-name="Academic Mentoring" transform="translate(-152 -1664)">
    <rect id="Rectangle_14745" data-name="Rectangle 14745" width="53" height="51" rx="6" transform="translate(152 1664)" fill="#fff4f3"/>
    <g id="Layer_2" data-name="Layer 2" transform="translate(168.004 1678)">
      <g id="Avatar" transform="translate(-0.001 0)">
        <path id="Path_94125" data-name="Path 94125" d="M21.748,19.565l-.595-2.82a5.574,5.574,0,0,0-2.532-3.609L15.05,10.925a5.147,5.147,0,0,0,1-2.536l.283-2.671A5.17,5.17,0,0,0,11.194,0h-.571A5.17,5.17,0,0,0,5.481,5.718l.288,2.671a5.147,5.147,0,0,0,1,2.536L3.191,13.136A5.574,5.574,0,0,0,.659,16.746l-.595,2.82a3.033,3.033,0,0,0,2.968,3.66H18.78a3.033,3.033,0,0,0,2.968-3.66ZM8.5,3.252a2.82,2.82,0,0,1,2.118-.929h.571a2.843,2.843,0,0,1,2.829,3.149L13.74,8.138a2.847,2.847,0,0,1-5.662,0L7.794,5.472A2.787,2.787,0,0,1,8.5,3.252ZM19.332,20.624a.687.687,0,0,1-.553.265H3.033a.687.687,0,0,1-.553-.265.706.706,0,0,1-.158-.581l.595-2.82a3.293,3.293,0,0,1,1.5-2.109l4.241-2.629a5.137,5.137,0,0,0,4.506,0L17.4,15.115a3.293,3.293,0,0,1,1.482,2.109l.595,2.82a.706.706,0,0,1-.144.595Z" transform="translate(0.001 0)" fill="#ff5663"/>
        <rect id="Rectangle_15007" data-name="Rectangle 15007" width="4.466" height="1.787" rx="0.893" transform="translate(11.8 16.973)" fill="#ff5663"/>
      </g>
    </g>
  </g>
</svg>
