<svg id="coming_Soon" data-name="coming Soon" xmlns="http://www.w3.org/2000/svg" width="353" height="230" viewBox="0 0 353 230">
  <g id="b4a10e95bab345c7bdb5bad6aeb275dd" fill="#d1d1d1" stroke="rgba(112,112,112,0.13)" stroke-width="1">
    <rect width="353" height="230" stroke="none"/>
    <rect x="0.5" y="0.5" width="352" height="229" fill="none"/>
  </g>
  <path id="Path_96197" data-name="Path 96197" d="M12.376.252a11.023,11.023,0,0,0,6.888-2.24,9.868,9.868,0,0,0,3.248-4.368L19.376-7.784a7.314,7.314,0,0,1-2.744,3.5A7.229,7.229,0,0,1,12.46-2.968,7.226,7.226,0,0,1,7.2-5.208,7.919,7.919,0,0,1,4.984-11a7.785,7.785,0,0,1,2.24-5.768,7.21,7.21,0,0,1,5.236-2.24,7.013,7.013,0,0,1,6.832,4.788L22.4-15.652a9.411,9.411,0,0,0-3.108-4.368,10.509,10.509,0,0,0-6.776-2.212,10.874,10.874,0,0,0-7.868,3.248,10.808,10.808,0,0,0-3.3,8.092,10.952,10.952,0,0,0,3.444,8.26A11.63,11.63,0,0,0,12.376.252ZM32.48-15.26a7.8,7.8,0,0,0-5.6,2.24A7.379,7.379,0,0,0,24.556-7.5a7.355,7.355,0,0,0,2.3,5.516,7.8,7.8,0,0,0,5.6,2.24,7.645,7.645,0,0,0,5.572-2.24,7.478,7.478,0,0,0,2.3-5.572,7.294,7.294,0,0,0-2.3-5.488A7.693,7.693,0,0,0,32.48-15.26Zm-3.276,4.4a4.192,4.192,0,0,1,3.248-1.372,4.093,4.093,0,0,1,3.22,1.372,4.817,4.817,0,0,1,1.26,3.36A4.924,4.924,0,0,1,35.7-4.144a4.093,4.093,0,0,1-3.22,1.372,4.215,4.215,0,0,1-3.248-1.4,4.935,4.935,0,0,1-1.26-3.388A4.735,4.735,0,0,1,29.2-10.864ZM56.924,0V-8.344c0-2.268,1.26-3.78,3.3-3.78,2.212,0,3.192,1.428,3.192,3.7V0h3.332V-9.24c0-3.584-1.82-6.048-5.432-6.048a6.464,6.464,0,0,0-5.208,2.464,4.86,4.86,0,0,0-4.62-2.464,5.358,5.358,0,0,0-4.452,2.352v-2.016H43.792V0h3.332V-8.316c0-2.268,1.26-3.808,3.276-3.808,2.212,0,3.22,1.484,3.22,3.724V0ZM71.176-18.256a2.147,2.147,0,0,0,3.08,0,2.147,2.147,0,0,0,0-3.08,2.1,2.1,0,0,0-3.08,0A2.147,2.147,0,0,0,71.176-18.256Zm3.22,3.3H71.064V0H74.4ZM92.26,0V-9.212c0-3.584-1.932-6.048-5.6-6.048A5.419,5.419,0,0,0,82.1-12.936v-2.016H78.848V0H82.18V-8.316c0-2.268,1.344-3.78,3.444-3.78,2.212,0,3.3,1.484,3.3,3.724V0Zm10.556.112A6.713,6.713,0,0,0,105.448-.5a4.749,4.749,0,0,0,2.268-1.9V-.056a4.226,4.226,0,0,1-4.536,4.564,5.018,5.018,0,0,1-4.7-3.164L95.7,2.94c1.372,3.024,3.892,4.536,7.532,4.536A7.815,7.815,0,0,0,108.892,5.4a7.424,7.424,0,0,0,2.156-5.6V-14.952H107.8v2.268a4.92,4.92,0,0,0-2.24-1.876,6.575,6.575,0,0,0-2.632-.644,6.8,6.8,0,0,0-5.376,2.352,7.938,7.938,0,0,0-2.016,5.32A7.721,7.721,0,0,0,97.58-2.156,6.787,6.787,0,0,0,102.816.112Zm4.956-7.7a4.817,4.817,0,0,1-1.26,3.36,4.1,4.1,0,0,1-3.192,1.344,4.205,4.205,0,0,1-3.22-1.344,4.924,4.924,0,0,1-1.232-3.36,4.687,4.687,0,0,1,1.232-3.3,4.164,4.164,0,0,1,3.22-1.344,4.164,4.164,0,0,1,3.22,1.344A4.735,4.735,0,0,1,107.772-7.588ZM129.836.252a7.631,7.631,0,0,0,5.432-1.876,5.912,5.912,0,0,0,2.016-4.452A5.252,5.252,0,0,0,135.716-10a13.7,13.7,0,0,0-5.628-2.772c-2.688-.812-4.06-1.708-4.06-3.36,0-1.764,1.54-3,3.668-3a4.489,4.489,0,0,1,4.424,3.08l2.856-1.54a7.242,7.242,0,0,0-7.2-4.648,7.627,7.627,0,0,0-5.18,1.848,5.648,5.648,0,0,0-2.1,4.452,5.06,5.06,0,0,0,1.68,4,14.36,14.36,0,0,0,5.152,2.548c3.136.98,4.4,1.9,4.4,3.5,0,1.82-1.6,3-3.836,3a5.389,5.389,0,0,1-5.208-3.64l-2.912,1.512C123-1.652,126,.252,129.836.252Zm17.92-15.512a7.8,7.8,0,0,0-5.6,2.24A7.379,7.379,0,0,0,139.832-7.5a7.355,7.355,0,0,0,2.3,5.516,7.8,7.8,0,0,0,5.6,2.24,7.645,7.645,0,0,0,5.572-2.24,7.478,7.478,0,0,0,2.3-5.572,7.293,7.293,0,0,0-2.3-5.488A7.693,7.693,0,0,0,147.756-15.26Zm-3.276,4.4a4.192,4.192,0,0,1,3.248-1.372,4.093,4.093,0,0,1,3.22,1.372,4.817,4.817,0,0,1,1.26,3.36,4.924,4.924,0,0,1-1.232,3.36,4.093,4.093,0,0,1-3.22,1.372,4.215,4.215,0,0,1-3.248-1.4,4.935,4.935,0,0,1-1.26-3.388A4.735,4.735,0,0,1,144.48-10.864Zm21.476-4.4a7.8,7.8,0,0,0-5.6,2.24A7.379,7.379,0,0,0,158.032-7.5a7.355,7.355,0,0,0,2.3,5.516,7.8,7.8,0,0,0,5.6,2.24,7.645,7.645,0,0,0,5.572-2.24,7.478,7.478,0,0,0,2.3-5.572,7.293,7.293,0,0,0-2.3-5.488A7.693,7.693,0,0,0,165.956-15.26Zm-3.276,4.4a4.192,4.192,0,0,1,3.248-1.372,4.093,4.093,0,0,1,3.22,1.372,4.817,4.817,0,0,1,1.26,3.36,4.924,4.924,0,0,1-1.232,3.36,4.093,4.093,0,0,1-3.22,1.372,4.215,4.215,0,0,1-3.248-1.4,4.935,4.935,0,0,1-1.26-3.388A4.735,4.735,0,0,1,162.68-10.864ZM190.68,0V-9.212c0-3.584-1.932-6.048-5.6-6.048a5.419,5.419,0,0,0-4.564,2.324v-2.016h-3.248V0H180.6V-8.316c0-2.268,1.344-3.78,3.444-3.78,2.212,0,3.3,1.484,3.3,3.724V0Z" transform="translate(80.656 122.232)" fill="#fff"/>
</svg>
