<svg id="company" xmlns="http://www.w3.org/2000/svg" width="62" height="59.66" viewBox="0 0 62 59.66">
  <rect id="Rectangle_14747" data-name="Rectangle 14747" width="62" height="59.66" rx="6" fill="#fff5e0"/>
  <g id="Group_38771" data-name="Group 38771" transform="translate(18.598 17.323)">
    <g id="Layer_2" data-name="Layer 2">
      <g id="Menu">
        <path id="Path_94127" data-name="Path 94127" d="M736.2,464.225H722.1a3.368,3.368,0,0,0-3.367,3.367v14.1a3.368,3.368,0,0,0,3.367,3.367h10.346a5.653,5.653,0,0,1-.912-.763,5.467,5.467,0,0,1-.95-1.32H722.1a1.284,1.284,0,0,1-1.283-1.284v-14.1a1.284,1.284,0,0,1,1.283-1.283h14.1a1.284,1.284,0,0,1,1.283,1.283v7.537a5.507,5.507,0,0,1,2.083,1.342v-8.879A3.368,3.368,0,0,0,736.2,464.225Z" transform="translate(-718.736 -464.225)" fill="#ffab00"/>
        <path id="Path_94128" data-name="Path 94128" d="M740.194,480.808H729.778a1.042,1.042,0,1,0,0,2.083h8.279a5.585,5.585,0,0,1,3.175-1.1A1.041,1.041,0,0,0,740.194,480.808Zm0-4.583H729.778a1.042,1.042,0,1,0,0,2.083h10.417a1.042,1.042,0,0,0,0-2.083Z" transform="translate(-724.569 -471.225)" fill="#ffab00"/>
        <path id="Path_94127-2" data-name="Path 94127" d="M736.161,498.225a5.666,5.666,0,0,0-.371,2.083h-6.012a1.042,1.042,0,1,1,0-2.083Z" transform="translate(-724.569 -484.059)" fill="#ffab00"/>
      </g>
    </g>
    <g id="Layer_2-2" data-name="Layer 2-2" transform="translate(9.583 8.946)">
      <g id="Search" transform="translate(0)">
        <path id="Path_94128-2" data-name="Path 94128" d="M757.519,501.47a.8.8,0,0,1-1.138,0l-2.908-2.9A7.228,7.228,0,0,1,741.736,493a7.355,7.355,0,0,1,.246-1.934c.012-.05.029-.1.045-.15a7.131,7.131,0,0,1,1.287-2.5,7.231,7.231,0,0,1,7.508-2.475.523.523,0,0,1,.079.025,7.033,7.033,0,0,1,2.083.954,7.215,7.215,0,0,1,2.963,7.862.143.143,0,0,1-.008.033.8.8,0,0,1-1.542-.445,5.7,5.7,0,0,0,.058-2.663,5.622,5.622,0,0,0-1.446-2.687l-.025-.025a5.507,5.507,0,0,0-2.083-1.342,5.608,5.608,0,0,0-5.262.763,5.828,5.828,0,0,0-.558.475,5.573,5.573,0,0,0-1.337,2.025,5.664,5.664,0,0,0-.371,2.083,5.594,5.594,0,0,0,.629,2.5,5.471,5.471,0,0,0,.95,1.32,5.6,5.6,0,0,0,7.929.129.883.883,0,0,1,1.25,0l3.383,3.384A.8.8,0,0,1,757.519,501.47Z" transform="translate(-741.736 -485.695)" fill="#ffab00"/>
        <path id="Path_94129" data-name="Path 94129" d="M757.878,509.776a4.352,4.352,0,0,1-4.487.087.632.632,0,0,1-.163-.129.766.766,0,0,1-.017-1.042.216.216,0,0,1,.042-.05l.05-.045a.773.773,0,0,1,.921-.1,3.128,3.128,0,0,0,.45.2,2.728,2.728,0,0,0,2.325-.254.79.79,0,0,1,.963.083l.045.055a.545.545,0,0,1,.108.133A.774.774,0,0,1,757.878,509.776Z" transform="translate(-748.315 -498.889)" fill="#ffab00"/>
      </g>
    </g>
  </g>
</svg>
