<svg xmlns="http://www.w3.org/2000/svg" xmlns:xlink="http://www.w3.org/1999/xlink" width="103" height="103" viewBox="0 0 103 103">
  <defs>
    <clipPath id="clip-path">
      <rect id="Rectangle_16683" data-name="Rectangle 16683" width="103" height="103" transform="translate(-16741 -4124)" fill="#fff"/>
    </clipPath>
    <linearGradient id="linear-gradient" x1="0.5" x2="-0.086" y2="1.256" gradientUnits="objectBoundingBox">
      <stop offset="0" stop-color="#15bf81"/>
      <stop offset="1" stop-color="#0b6041"/>
    </linearGradient>
  </defs>
  <g id="Mask_Group_230" data-name="Mask Group 230" transform="translate(16741 4124)" clip-path="url(#clip-path)">
    <path id="Union_4" data-name="Union 4" d="M14318.9,7134.9h-67.381c-.168,0-.331-.011-.5-.025h0a.254.254,0,0,0-.043,0h-.011a.2.2,0,0,1-.038,0h-.061a.063.063,0,0,0-.023,0h-.042l-.027-.006h-.06a7.175,7.175,0,0,1-1.11-.236c-.007,0-.011,0-.014-.007a.037.037,0,0,1-.026-.005h-.021a.048.048,0,0,0-.018-.007.079.079,0,0,0-.025-.008l-.019-.007-.028-.007h-.014l-.028-.011h-.014l-.031-.011h-.01l-.034-.011a.012.012,0,0,1-.011-.008l-.032-.009h-.007l-.04-.011h0a.162.162,0,0,1-.038-.015h0c-.128-.047-.261-.1-.389-.154h-.01c-.01,0-.021-.01-.031-.014s-.009,0-.014-.006l-.024-.011a.043.043,0,0,0-.021-.008.051.051,0,0,1-.018-.01.122.122,0,0,1-.026-.011.054.054,0,0,1-.013-.007.056.056,0,0,1-.029-.015.011.011,0,0,1-.009,0c-.012,0-.022-.012-.033-.015h0c-.088-.042-.177-.085-.268-.131-.073-.042-.152-.081-.227-.128h-.009c-.02-.015-.045-.025-.065-.04h0a6.635,6.635,0,0,1-.72-.486c-.032-.025-.06-.05-.093-.072h0a.123.123,0,0,1-.023-.021.049.049,0,0,1-.015-.011l-.019-.015a.094.094,0,0,0-.021-.018l-.011-.011-.035-.025h0a7.226,7.226,0,0,1-1.426-1.61h0c-.1-.161-.2-.321-.292-.487a6.053,6.053,0,0,1-.279-.583.016.016,0,0,1,0-.006.074.074,0,0,0-.011-.033c0-.011,0,0,0-.006a.082.082,0,0,1-.016-.032s0-.007-.006-.011-.008-.018-.011-.028a.071.071,0,0,0-.007-.019.037.037,0,0,0-.007-.022.093.093,0,0,0-.012-.02.024.024,0,0,0-.006-.018.144.144,0,0,0-.012-.028.063.063,0,0,0,0-.015s-.011-.025-.015-.039a7.243,7.243,0,0,1-.378-1.4v-.011a.345.345,0,0,0-.01-.054v-.008a.206.206,0,0,0-.009-.054v-.06a.025.025,0,0,1,0-.015.114.114,0,0,0-.007-.054.083.083,0,0,0,0-.022.149.149,0,0,0,0-.036.049.049,0,0,0,0-.024c0-.015,0-.029,0-.042a.1.1,0,0,0,0-.024v-.036a.072.072,0,0,0,0-.029v-.036a.03.03,0,0,1,0-.019v-.111a.042.042,0,0,1,0-.022v-.2a.163.163,0,0,0,0-.049v-.008a.279.279,0,0,0,0-.057v-.079a.36.36,0,0,0,0-.056v-4.076a28.782,28.782,0,0,1,4.021-14.037h0c.042-.071.085-.146.128-.216a.078.078,0,0,0,.019-.029c.021-.033.042-.068.064-.1.007-.015.013-.025.021-.04s.023-.038.034-.058a.184.184,0,0,1,.026-.035c.013-.026.029-.05.042-.073s.025-.042.04-.063.018-.028.028-.043.028-.049.043-.071a.2.2,0,0,1,.018-.024c.018-.033.039-.065.056-.1.008-.011.015-.021.021-.033.019-.029.037-.057.055-.085a.046.046,0,0,0,.011-.015c.017-.033.043-.063.061-.1a.066.066,0,0,0,.017-.024c.047-.068.091-.137.137-.2a.017.017,0,0,0,.006-.015l.146-.214a28.657,28.657,0,0,1,10.341-9.207h0c.12-.063.242-.124.363-.185h0c.039-.018.075-.036.114-.058a.022.022,0,0,0,.014-.006l.111-.054h.007l.239-.118c.007,0,.011,0,.014-.007.036-.018.071-.032.1-.049l.021-.01c.037-.016.071-.033.107-.05h.012c.081-.037.159-.076.238-.111a.189.189,0,0,0,.028-.014c.028-.011.057-.025.09-.04.011,0,.021-.011.032-.015a.815.815,0,0,0,.1-.046h.015l.12-.054a.073.073,0,0,1,.019-.011l.1-.042a.119.119,0,0,0,.032-.015l.086-.037.035-.015.1-.042a.033.033,0,0,1,.019-.006c.039-.018.078-.037.116-.05.013,0,.023-.011.033-.015a.547.547,0,0,0,.081-.036.18.18,0,0,0,.044-.018c.024-.011.054-.021.082-.033l.035-.014c.039-.015.075-.033.114-.046h0c.038-.019.078-.032.117-.047.015-.006.025-.011.039-.018l.082-.033a.146.146,0,0,0,.042-.014l.082-.032c.012,0,.025-.011.036-.015.039-.015.079-.032.121-.046a27.146,27.146,0,0,1,5.1-1.4,4.321,4.321,0,0,1,.925-1.655,17.343,17.343,0,0,1,5.977-4.261v-1.111l.159.085q.625.341,1.314.663c.316.144.64.285.973.422l-.291-.147h0a.266.266,0,0,0-.037-.019s-.007-.006-.01-.006l-.028-.014-.022-.014a.028.028,0,0,1-.012-.006c-.166-.09-.326-.175-.471-.26v-.021a.879.879,0,0,0-.079-.047q-.466-.278-.909-.57c-.018-.015-.039-.028-.057-.043a.024.024,0,0,1-.016-.008.106.106,0,0,0-.022-.014.415.415,0,0,0-.051-.036c-.131-.089-.256-.177-.378-.267a.045.045,0,0,1-.015-.011.406.406,0,0,1-.057-.04l-.082-.058a.166.166,0,0,1-.032-.025,17.415,17.415,0,0,1-6.607-10.564,6.943,6.943,0,0,1-5.508-6.794v-13.34a21.423,21.423,0,0,1,6.229-15.1l.095-.1a.094.094,0,0,0,.017-.015c.027-.028.056-.054.08-.079a.062.062,0,0,0,.019-.017c.028-.025.053-.054.081-.08,0-.007.01-.011.018-.017.024-.025.054-.051.078-.076.008-.006.011-.014.019-.018.028-.024.054-.049.082-.075a.036.036,0,0,1,.019-.017c.023-.025.053-.05.081-.08a.039.039,0,0,0,.014-.015.894.894,0,0,0,.082-.079c.008,0,.011-.006.019-.011.027-.028.056-.056.084-.082,0,0,.009-.007.012-.007l.1-.086v-.006c.235-.209.476-.417.717-.616h0c.032-.025.064-.053.1-.079,0-.007.007-.007.01-.011.028-.025.062-.049.089-.071a.064.064,0,0,0,.017-.018,1,1,0,0,0,.084-.064.094.094,0,0,0,.024-.017c.028-.022.054-.043.078-.065a.214.214,0,0,1,.028-.018c.025-.021.052-.039.075-.06l.029-.021c.025-.019.051-.04.071-.058a.179.179,0,0,0,.035-.025c.026-.019.047-.036.071-.053s.021-.018.032-.024c.026-.018.054-.039.078-.058a.229.229,0,0,0,.026-.02c.032-.022.063-.043.1-.068s.046-.033.068-.05l.043-.032c.023-.015.045-.032.071-.049l.032-.021.071-.054.03-.021.076-.054a.091.091,0,0,0,.025-.019.744.744,0,0,0,.08-.057l.023-.011.083-.06.017-.011a.709.709,0,0,0,.087-.061.018.018,0,0,0,.015-.006l.094-.061h.007a20.765,20.765,0,0,1,3.082-1.685c.186-.082.374-.161.56-.24a.184.184,0,0,0,.03-.01l.072-.032.055-.022a.227.227,0,0,0,.045-.018.421.421,0,0,0,.065-.025.024.024,0,0,0,.021-.007c.051-.021.1-.04.158-.06h.011l.084-.032a.023.023,0,0,0,.015-.007q.93-.346,1.882-.606a21.153,21.153,0,0,1,20.593,5.516l.86.863.068.021a.025.025,0,0,1,.021.007.282.282,0,0,0,.057.018h.015l.064.021a.175.175,0,0,0,.023.007c.016,0,.029.01.046.014a.062.062,0,0,0,.024.008l.06.021.029.011a.163.163,0,0,1,.039.014l.032.012c.018.007.035.011.054.018a.186.186,0,0,1,.035.015l.032.01.032.011c.014.008.029.011.042.019l.046.018.033.011a.088.088,0,0,1,.03.015l.033.011.059.021a.239.239,0,0,1,.032.014l.03.011a.114.114,0,0,0,.031.015l.051.021.036.015c.011,0,.021.011.036.014l.029.011a.281.281,0,0,0,.05.021c.009.007.023.011.034.019a.16.16,0,0,0,.036.015c.011,0,.017.007.028.011a.239.239,0,0,0,.035.019.3.3,0,0,1,.051.023l.031.012.031.015c.012.006.023.011.033.018a.436.436,0,0,1,.053.025.171.171,0,0,0,.028.011.36.36,0,0,1,.033.018.118.118,0,0,0,.032.015.147.147,0,0,1,.034.019l.044.021.035.019a.2.2,0,0,1,.029.014l.043.021a.122.122,0,0,1,.027.014.231.231,0,0,1,.046.025l.026.011.045.025a.021.021,0,0,1,.016.007.679.679,0,0,1,.06.033l.019.009c.018.007.032.018.049.025a.024.024,0,0,0,.016.006.381.381,0,0,0,.061.036l.015.007a.217.217,0,0,0,.051.029s.009,0,.012.008a.6.6,0,0,1,.062.036h.007c.021.012.039.025.062.037h.007c.047.025.09.054.132.079h0c.045.025.089.054.132.082h0a10.783,10.783,0,0,1,3.28,3.2l.009.006c.011.019.023.039.036.058h0a.469.469,0,0,0,.04.061s0,.007,0,.015.021.031.032.046,0,.011.006.014a.255.255,0,0,1,.037.058.109.109,0,0,0,.016.018.122.122,0,0,0,.021.036c0,.011.009.019.013.028l.021.033.029.049c0,.007.011.015.015.021s.014.022.021.037,0,0,0,.007c.018.028.032.058.049.085a10.536,10.536,0,0,1,.809,1.728c.083.221.154.446.223.67a.063.063,0,0,0,.006.031c.007.011,0,.011.009.019s.008.028.011.043,0,.011.007.019.01.036.014.054h0a10.932,10.932,0,0,1,.389,2.782v17.484a.112.112,0,0,0,0,.036v.024a.329.329,0,0,0,0,.062v.011a5.872,5.872,0,0,1-.087.795.047.047,0,0,1,0,.017.291.291,0,0,1-.007.058.149.149,0,0,1-.007.028.107.107,0,0,1-.007.046.135.135,0,0,0-.008.04.066.066,0,0,1-.006.037.261.261,0,0,0-.012.042.071.071,0,0,0,0,.029.24.24,0,0,1-.01.046.1.1,0,0,1-.006.024.306.306,0,0,1-.013.056.025.025,0,0,0,0,.015c-.006.022-.009.042-.017.064v.007c-.022.082-.043.167-.067.249-.016.058-.032.11-.047.164a.052.052,0,0,0-.008.021c0,.015-.011.026-.014.04s-.008.025-.011.036a.039.039,0,0,0-.009.021c-.006.018-.01.037-.017.054h0a7.068,7.068,0,0,1-.37.884h0c-.008.018-.019.032-.025.049a.089.089,0,0,1-.018.033.109.109,0,0,0-.012.024c-.035.061-.066.125-.1.186h0c-.01.018-.021.039-.032.058l-.01.018c-.007.014-.016.027-.023.041a.074.074,0,0,1-.019.027.058.058,0,0,1-.015.025l-.025.042v.007a7.064,7.064,0,0,1-.973,1.24l-.04.039-.011.011a.3.3,0,0,1-.041.042.015.015,0,0,1-.009,0l-.042.043a.013.013,0,0,1-.008.011.454.454,0,0,0-.041.04.028.028,0,0,1-.012.006.272.272,0,0,1-.038.041.047.047,0,0,0-.016.011.31.31,0,0,1-.028.028,6.963,6.963,0,0,1-.594.481c-.133.1-.272.188-.41.278a4.2,4.2,0,0,1-.45.252.093.093,0,0,1-.029.015.072.072,0,0,1-.028.015.246.246,0,0,1-.039.021l-.013.006a7.084,7.084,0,0,1-.9.371h0l-.053.017h-.018c-.019.007-.031.011-.046.018s-.019,0-.026,0a.187.187,0,0,1-.041.015l-.022.007c-.1.027-.185.053-.282.078s-.181.042-.272.06c-.045.214-.087.424-.136.635a.118.118,0,0,1-.008.024.13.13,0,0,0-.009.039c-.013.05-.023.1-.037.149-.036.142-.072.285-.111.427v.006c-.008.024-.015.049-.021.075l-.011.04a.167.167,0,0,1-.013.043.228.228,0,0,1-.013.043c-.008.024-.014.048-.021.074s-.007.021-.011.033a.519.519,0,0,1-.019.063.063.063,0,0,1,0,.015l-.1.306c-.056.178-.118.356-.182.53a17.507,17.507,0,0,1-1.03,2.334l-.074.138c-.021.036-.044.076-.064.115s-.034.064-.054.1a.045.045,0,0,1-.009.02c-.008.014-.02.027-.025.041a.178.178,0,0,1-.026.043.055.055,0,0,1-.013.023.629.629,0,0,1-.039.071c0,.008-.011.015-.015.021s-.021.04-.033.057l-.021.04c-.011.014-.017.027-.028.042a.387.387,0,0,0-.024.046h0q-.407.678-.876,1.322a.07.07,0,0,0-.011.015c-.02.024-.037.05-.057.075l-.019.023c-.018.025-.035.047-.053.068s-.028.042-.043.061a.263.263,0,0,0-.035.049.746.746,0,0,0-.05.061c0,.008-.011.015-.015.021l-.054.067v.006c-.042.05-.083.1-.124.157a.909.909,0,0,0-.058.071h0a.721.721,0,0,1-.049.063c-.011.015-.021.025-.032.04a.27.27,0,0,1-.039.046c-.021.029-.05.06-.072.089a.116.116,0,0,0-.009.015.977.977,0,0,0-.078.09s0,.006-.009.01a17.941,17.941,0,0,1-2.02,2.017c-.1.085-.2.17-.308.253a.061.061,0,0,0-.018.018,1,1,0,0,0-.1.071l-.006.007c-.032.025-.067.05-.1.076a.1.1,0,0,1-.023.021l-.074.058-.03.021-.1.075a.485.485,0,0,1-.109.067l-.033.033c-.082.054-.159.107-.242.161l-.092.061-.029.018a.059.059,0,0,1-.019.011l-.063.043c-.008,0-.015.011-.021.015a.48.48,0,0,1-.043.024l-.033.021a.1.1,0,0,1-.027.018c-.047.027-.093.06-.14.089a.013.013,0,0,0-.011.006.377.377,0,0,0-.05.03h0c-.3.185-.6.364-.9.527l-.018.011c-.01.006-.025.011-.035.018a.351.351,0,0,1-.039.021l-.022.011c-.088.054-.181.1-.274.15l-.292.148c-.181.1-.359.18-.537.264-.028.015-.057.024-.085.039-.136.064-.268.124-.4.182h0l-.054.021c-.139.061-.279.122-.421.178h-.014a.079.079,0,0,0-.025.011c-.008,0-.017.007-.028.014-.239.1-.486.188-.721.271q-.554.194-1.1.353h-.011l-.035.011-.042.011h-.012c-.032.011-.066.019-.1.028a.049.049,0,0,0-.029.006c-.012.007-.008,0-.011,0a.3.3,0,0,0-.039.012,17.513,17.513,0,0,1-1.925.395c-.075.01-.148.021-.224.028l-.25.032h-.021l-.036.007c-.156.015-.31.033-.463.043-.2.015-.389.024-.583.036a1.737,1.737,0,0,0-.188.007c-.114.007-.225.011-.339.014h-.767c-.267-.011-.526-.028-.786-.049-.118-.007-.239-.021-.354-.036a1.2,1.2,0,0,0-.121-.019h0c-.217-.015-.435-.046-.651-.079-.246-.039-.487-.082-.734-.127a.119.119,0,0,0-.04-.007.022.022,0,0,1-.02-.008l-.064-.011a.537.537,0,0,1-.061-.015c-.02,0-.015,0-.025,0a.033.033,0,0,1-.024-.008c-.089-.017-.182-.039-.271-.06a6.126,6.126,0,0,1-.651-.167c-.161-.028-.324-.085-.478-.128-.044-.011-.075-.025-.107-.033l-.033-.011a.139.139,0,0,1-.042-.015,17.244,17.244,0,0,1-1.832-.691h-.006a.456.456,0,0,1-.047-.018c-.014-.006-.011-.007-.018-.007l-.036-.018a.1.1,0,0,0-.025-.01.026.026,0,0,1-.013-.008c-.008-.008-.012,0-.015-.007l-.021-.011c-.016-.007-.031-.013-.046-.019-.076-.035-.153-.069-.226-.1v.746a5.268,5.268,0,0,1-.446,1.411,3.675,3.675,0,0,0-.245,1.3,3.745,3.745,0,0,0,1.243,2.79l6.849,6.1,1.74-1.546.134-.124,4.974-4.43a3.7,3.7,0,0,0,.994-4.094,4.4,4.4,0,0,1-.444-1.411v-.5a24.662,24.662,0,0,0,2.8-1.155v.682a17.013,17.013,0,0,1,5.981,4.25,4.465,4.465,0,0,1,.93,1.654,30.75,30.75,0,0,1,5.018,1.361.234.234,0,0,0,.082.039c.039.015.078.033.118.047l.028.011c.032.014.067.024.1.04a.016.016,0,0,1,.012.007l.109.043a.193.193,0,0,1,.038.014.647.647,0,0,1,.09.035.058.058,0,0,0,.025.008l.106.045a.4.4,0,0,1,.037.015.765.765,0,0,1,.083.035l.033.012.1.042c.015.008.025.011.039.019l.079.032a.2.2,0,0,0,.033.015c.037.015.07.032.105.045a.123.123,0,0,1,.038.018.484.484,0,0,1,.07.029.23.23,0,0,0,.05.017l.1.043.043.021a.459.459,0,0,0,.071.028l.044.021.1.042.053.021c.017.011.038.019.055.028l.055.021a.4.4,0,0,0,.074.037l.068.032c.017.007.035.019.054.025s.039.019.057.024a.241.241,0,0,0,.053.026c.033.017.064.031.1.045.014.007.033.015.047.021l.061.029a.3.3,0,0,1,.039.021c.04.018.075.036.112.054a.191.191,0,0,1,.034.018l.065.033c.011,0,.021.011.032.015l.127.064.021.011c.023.011.046.023.068.036a.141.141,0,0,1,.029.016c.041.021.088.042.131.066l.018.007a.611.611,0,0,0,.071.036.136.136,0,0,0,.021.014l.229.118a.036.036,0,0,0,.014.007c.077.042.153.084.231.124a.011.011,0,0,1,.01.007c.079.043.154.085.236.128h0a28.689,28.689,0,0,1,13.4,16.577c.021.06.039.124.063.184q.116.395.227.8c.1.371.194.749.282,1.129v.019q.3,1.319.478,2.676v.042a.36.36,0,0,1,.009.064.53.53,0,0,1,.006.054.063.063,0,0,0,.008.037,29.216,29.216,0,0,1,.213,3.253v3.527c0,.175-.007.353-.021.527v.019a.1.1,0,0,1,0,.024v.036c-.015.139-.028.275-.049.409v.018a.038.038,0,0,1-.008.029.128.128,0,0,1,0,.027v.012c-.019.1-.033.194-.055.292v.039l-.021.1a.094.094,0,0,0-.008.032v.011c-.014.071-.032.142-.049.214h0a.225.225,0,0,0-.007.036.063.063,0,0,0-.01.025c0,.007,0,.014-.006.018a7.047,7.047,0,0,1-.513,1.347h0a.243.243,0,0,0-.014.033c-.015.032-.033.061-.047.089h0c-.025.042-.051.089-.074.136a.052.052,0,0,1-.016.021.032.032,0,0,1-.008.015c-.006.012-.011.024-.016.037v.007c-.054.1-.111.185-.168.275l-.021.032h0c-.011.019-.025.04-.037.058h0c-.124.185-.253.367-.389.539-.085.109-.179.221-.271.328h0l-.011.007a6.239,6.239,0,0,1-.451.465c-.033.027-.061.056-.1.084-.154.135-.315.267-.476.389h0a.149.149,0,0,1-.03.025c-.036.025-.072.05-.1.075a.7.7,0,0,1-.063.046.106.106,0,0,0-.035.024,6.928,6.928,0,0,1-1.184.663h0l-.054.021a.033.033,0,0,1-.02.007.158.158,0,0,1-.028.015l-.106.043-.116.042h-.007a.189.189,0,0,1-.039.015c-.016.006-.029.011-.044.018h-.014c-.153.058-.312.107-.466.153h-.007a.308.308,0,0,0-.063.019h-.009a.488.488,0,0,1-.062.017h-.009a.457.457,0,0,0-.057.016h-.018c-.006,0-.035.011-.055.015a.059.059,0,0,1-.024,0,.162.162,0,0,1-.043.01.065.065,0,0,1-.026.009l-.041.011a.075.075,0,0,0-.028.007l-.05.011h-.028a.118.118,0,0,1-.036.007l-.039.01a.175.175,0,0,0-.038.007h-.025l-.054.011h-.022l-.06.011h-.011l-.063.011h-.008l-.07.011h-.009l-.074.011c-.154.018-.307.036-.463.046h-.082a.964.964,0,0,0-.148.008h-.007a.511.511,0,0,0-.072,0Zm-7.439-12.507v9.7h7.286a4.378,4.378,0,0,0,4.357-4.377V7124.4a25.88,25.88,0,0,0-15.672-23.772l-13.971,22.285a.309.309,0,0,0-.032.05.061.061,0,0,1-.01.014.213.213,0,0,1-.024.041s-.009.01-.012.014a.2.2,0,0,1-.025.039.077.077,0,0,1-.01.015c-.013.019-.022.033-.033.051a.014.014,0,0,1-.007.011.232.232,0,0,0-.028.039.054.054,0,0,1-.01.017c-.008.012-.017.023-.024.033a.077.077,0,0,1-.017.021.166.166,0,0,0-.018.028c-.007.008-.01.015-.018.025a.068.068,0,0,0-.014.021.359.359,0,0,1-.039.05l-.011.017a.193.193,0,0,1-.021.028.046.046,0,0,0-.016.021.306.306,0,0,1-.021.029c-.007.009-.011.011-.013.017-.025.031-.049.064-.072.1a.241.241,0,0,1-.021.024.1.1,0,0,1-.019.023.049.049,0,0,1-.017.024l-.02.023c-.007.01-.017.021-.024.033l-.013.014c-.013.014-.023.032-.037.046s0,0,0,.007-.026.031-.039.047h0c-.12.146-.241.285-.367.427a10.376,10.376,0,0,1-1.909,1.635c-.019.015-.035.026-.053.04a9.8,9.8,0,0,1-4.416,1.5h-.081a9.892,9.892,0,0,1-1.334.016s-.007,0-.013,0a.243.243,0,0,1-.05,0h-.042a.053.053,0,0,0-.02,0h-.077a.138.138,0,0,1-.051-.007h-.021a.329.329,0,0,0-.054,0h-.075a.049.049,0,0,0-.021,0h-.055a.038.038,0,0,0-.017,0,.156.156,0,0,1-.058-.006h-.019l-.059-.011H14284l-.225-.028a.016.016,0,0,0-.011,0,.365.365,0,0,0-.061-.007.046.046,0,0,0-.021,0,.405.405,0,0,1-.053-.01.058.058,0,0,1-.021,0,.287.287,0,0,1-.052-.007h-.021l-.051-.011a.047.047,0,0,1-.023,0,.1.1,0,0,1-.047-.008l-.023-.006a.119.119,0,0,1-.051-.007.11.11,0,0,0-.025-.007.186.186,0,0,1-.046-.007.034.034,0,0,1-.025-.006c-.006-.007-.031,0-.05-.007s-.014,0-.021-.007l-.055-.011h-.021l-.053-.014h-.018a.43.43,0,0,1-.063-.015h-.009c-.071-.019-.146-.037-.217-.058h0a.3.3,0,0,1-.067-.018.009.009,0,0,1-.01,0,.457.457,0,0,1-.061-.014.022.022,0,0,0-.015,0c-.017-.007-.038-.011-.057-.019s-.01,0-.018,0a.258.258,0,0,1-.054-.019c-.018-.007-.011,0-.018,0a.269.269,0,0,1-.053-.018.034.034,0,0,1-.019,0l-.055-.017h-.017a.333.333,0,0,1-.055-.018h-.018a.514.514,0,0,0-.056-.021.012.012,0,0,1-.011,0l-.064-.021h-.007c-.143-.05-.286-.1-.425-.154h0l-.068-.024h0c-.021-.012-.043-.018-.064-.028h-.007a.319.319,0,0,1-.061-.024.008.008,0,0,1-.01,0c-.021-.007-.04-.018-.06-.025h-.008l-.064-.024h0a.709.709,0,0,1-.065-.028h0a.343.343,0,0,1-.068-.027h0c-.206-.1-.409-.195-.613-.3a.415.415,0,0,0-.068-.036c-.02-.015-.041-.024-.063-.039h0a9.575,9.575,0,0,1-1.631-1.146.519.519,0,0,0-.062-.051h0c-.017-.015-.039-.033-.056-.05s-.039-.036-.058-.054c-.174-.157-.342-.321-.507-.491h0l-.054-.053h0c-.014-.019-.031-.036-.046-.054a.007.007,0,0,1-.007-.007.475.475,0,0,1-.045-.049l-.009-.007a.637.637,0,0,0-.046-.049.014.014,0,0,0-.008-.012.335.335,0,0,1-.042-.049.022.022,0,0,0-.011-.007l-.043-.053-.007-.007a.584.584,0,0,1-.042-.054.008.008,0,0,1-.008-.008.559.559,0,0,1-.051-.057l-.2-.249h0l-.046-.058c0-.007-.008-.011-.008-.015a.325.325,0,0,1-.038-.049.042.042,0,0,0-.011-.016l-.035-.044a.126.126,0,0,1-.016-.021c-.011-.015-.021-.029-.032-.043a.06.06,0,0,1-.014-.021l-.032-.042-.017-.021-.029-.042a.078.078,0,0,0-.019-.021.164.164,0,0,0-.026-.043.132.132,0,0,1-.018-.024.172.172,0,0,1-.028-.04c-.006-.007-.01-.018-.016-.026a.151.151,0,0,0-.028-.039.168.168,0,0,0-.016-.024.222.222,0,0,1-.027-.042c-.007-.007-.011-.019-.019-.025a.419.419,0,0,0-.028-.047.156.156,0,0,1-.015-.021l-.043-.063-6.249-9.984a1.381,1.381,0,0,1-.225-.754,1.4,1.4,0,0,1,1.383-1.4h.068a1.385,1.385,0,0,1,1.1.595l.043.063,6.256,9.969a6.959,6.959,0,0,0,10.716,1.3,7.162,7.162,0,0,0,.824-.945s0,0,0-.007.018-.021.024-.032a.085.085,0,0,1,.011-.015.071.071,0,0,1,.018-.028.127.127,0,0,1,.015-.018.142.142,0,0,1,.018-.029c0-.007.01-.015.014-.021a.234.234,0,0,1,.019-.022.163.163,0,0,1,.018-.027l.011-.018.021-.033a.124.124,0,0,1,.011-.015c.008-.013.016-.027.024-.04s0,0,0-.007.022-.033.033-.051l1.882-3,.38-.606,6.525-10.395.024-.036,4.846-7.718a24.37,24.37,0,0,0-2.511-.612,4.6,4.6,0,0,1-.47.908c0,.012-.777,1.066-3.49,5.2-1.015,1.55-2.3,3.527-3.923,6.046-1.07,1.668-2.29,3.567-3.674,5.74-.152.243-.311.487-.465.733a.854.854,0,0,0-.061.1q-.668,1.043-1.378,2.167c-.012.017-.02.032-.029.046a4.354,4.354,0,0,1-1.245,1.256.287.287,0,0,1-.037.024.608.608,0,0,0-.078.05,4.241,4.241,0,0,1-2.15.6h-.054a4.254,4.254,0,0,1-3.5-1.907l-.047-.075c-.851-1.344-1.654-2.595-2.394-3.763-.149-.235-.292-.466-.441-.694-.731-1.144-1.408-2.2-2.035-3.179l-.007-.006-.014-.025c-3.043-4.735-4.95-7.625-6.165-9.436a.026.026,0,0,1-.008-.014c-.014-.019-.028-.041-.039-.058l-.01-.011a.539.539,0,0,0-.04-.061c-2.105-3.14-2.031-2.894-2.3-3.645-.265.061-1.179.214-2.5.613l3.884,6.189a1.434,1.434,0,0,1,.211.766,1.407,1.407,0,0,1-.656,1.184.315.315,0,0,1-.044.024.364.364,0,0,1-.063.036h0a1.368,1.368,0,0,1-.61.154h-.023a.639.639,0,0,1-.068,0,1.39,1.39,0,0,1-1.06-.566c-.02-.033-.042-.061-.062-.1l-4.226-6.712c-.036.015-.067.028-.1.042l-.021.011-.1.042a25.6,25.6,0,0,0-7.179,4.724c-.059.054-.114.107-.168.161h-.007c-.025.024-.05.049-.075.071l-.007.006c-.028.029-.058.054-.083.079l-.07.071a.036.036,0,0,0-.018.019c-.022.02-.047.042-.068.063l-.011.011-.071.071a.165.165,0,0,0-.024.024c-.015.015-.032.032-.049.047a.1.1,0,0,0-.026.028c-.024.021-.046.045-.067.067l-.028.029-.04.039-.039.039-.032.032a.832.832,0,0,1-.066.071.2.2,0,0,0-.029.032l-.043.042a.192.192,0,0,0-.024.03l-.043.042-.021.021-.083.086-.021.02a.355.355,0,0,1-.046.051c0,.006-.012.01-.016.017-.036.037-.067.075-.1.11-.015.016-.028.032-.043.046a.077.077,0,0,1-.017.019c-.029.036-.061.067-.089.1h0a.531.531,0,0,0-.051.054,25.946,25.946,0,0,0-6.616,15.713h0c-.006.075-.01.15-.014.225v.015c0,.071-.008.143-.012.214a.183.183,0,0,1,0,.033.806.806,0,0,1,0,.1v.042a.548.548,0,0,0,0,.057v.058a.563.563,0,0,0,0,.07c0,.022,0,.041,0,.058v.049a.575.575,0,0,1,0,.082v.111a.1.1,0,0,1,0,.042v.133a.319.319,0,0,1,0,.075v3.566a4.359,4.359,0,0,0,4.35,4.371h7.3v-9.787a.065.065,0,0,0,0-.027h0a.092.092,0,0,1,0-.028c0-.011,0-.021,0-.028v-.038a.032.032,0,0,1,.008-.025v-.066a.081.081,0,0,1,.007-.021.03.03,0,0,1,0-.01v-.029a.179.179,0,0,0,.008-.024v-.007a.032.032,0,0,0,.008-.021v-.011a.028.028,0,0,1,.006-.019v-.006l.006-.022s0-.007,0-.007a.031.031,0,0,1,.008-.021c.008-.007,0-.007,0-.011a.1.1,0,0,0,.007-.017.023.023,0,0,1,.007-.015c.008-.007,0-.007,0-.011s.008-.011.008-.019,0-.007.008-.011a.074.074,0,0,1,.006-.016c0-.006,0-.01.008-.014s0-.006.008-.015a.024.024,0,0,1,.007-.014.018.018,0,0,1,.008-.015v-.007l.01-.021v-.006a.055.055,0,0,1,.014-.019v-.007a.094.094,0,0,1,.012-.024h0s0-.011.007-.015a.07.07,0,0,1,.019-.026v-.006c0-.006.011-.015.019-.021h0a.086.086,0,0,0,.02-.025h0a.573.573,0,0,1,.049-.064h0a.077.077,0,0,0,.021-.024,1.408,1.408,0,0,1,.8-.439.3.3,0,0,1,.065-.007.863.863,0,0,1,.144-.012h.147a.086.086,0,0,1,.025,0h.008a.056.056,0,0,1,.025,0h.06a.026.026,0,0,1,.021.007h.024a.014.014,0,0,1,.011,0,.034.034,0,0,1,.019,0,.018.018,0,0,1,.011,0,.042.042,0,0,1,.021,0s.006,0,.011,0h.064a.031.031,0,0,1,.021.006c.007.007,0,0,.008,0a.062.062,0,0,1,.026.007h0a.027.027,0,0,1,.018,0l.028.01.028.011a1.52,1.52,0,0,1,.225.125.372.372,0,0,1,.04.028h0l.021.018h0l.02.014.009.007a.012.012,0,0,1,.011.007c0,.008,0,0,.008.007s.01.006.013.011l.012.009h.006c0,.007.013.011.016.015s0,.008.008.008a.067.067,0,0,0,.017.014h0a.2.2,0,0,1,.015.018h0a.125.125,0,0,0,.017.021,1.394,1.394,0,0,1,.391.866.076.076,0,0,1,0,.021v.049a.053.053,0,0,0,0,.018v9.712h46.9v-9.688a1.408,1.408,0,0,1,2.815,0Zm-28.708-5.915,1.238,1.946a1.3,1.3,0,0,0,.45.449.25.25,0,0,0,.046.029,1.432,1.432,0,0,0,.63.188h.1a1.438,1.438,0,0,0,1.12-.573.428.428,0,0,1,.033-.055c.007-.014.018-.025.024-.04l1.229-1.945-1.543-4.486h-1.777Zm5.893-5.657.905,2.615,2.1-3.308a5.85,5.85,0,0,1-1.878-.865Zm-9.915-.688,2.1,3.308.894-2.615-1.125-1.557a5.71,5.71,0,0,1-1.869.859Zm4.257-2.379,1.026,1.422h2.358l1.023-1.422-2.2-1.369Zm-11.89-11.348a1.709,1.709,0,0,0-.405,1.094,1.654,1.654,0,0,0,.262.888l.013.021,5.537,8.294c.024.04.054.075.078.111a1.552,1.552,0,0,0,1.212.6h.038a1.573,1.573,0,0,0,.806-.24c2.206-1.4,3.343-2.115,4.208-2.647l-6.359-5.658a6.514,6.514,0,0,1-2.187-4.853v-.224a13.592,13.592,0,0,0-3.2,2.609Zm24.987-2.432a6.575,6.575,0,0,1-2.173,4.9l-6.375,5.658,4.208,2.637a1.556,1.556,0,0,0,2.146-.46l5.525-8.306.012-.011a1.609,1.609,0,0,0,.266-.887,1.651,1.651,0,0,0-.415-1.095,13.351,13.351,0,0,0-3.192-2.613Zm-13.425-33.24a18.192,18.192,0,0,1-11.277,5.344v8.756c0,.189,0,.378.011.567v.063a13.922,13.922,0,0,0,.4,2.758c.008.025.011.054.02.082h0a.549.549,0,0,0,.017.079v.007c.007.025.012.05.018.071v.015c.007.021.011.043.019.064a.029.029,0,0,0,.009.018.38.38,0,0,0,.013.064c0,.021,0,.015.008.018a.44.44,0,0,0,.019.061.229.229,0,0,0,0,.025.218.218,0,0,0,.018.049c.008.017,0,.021.007.032a.167.167,0,0,1,.014.046.19.19,0,0,0,.012.036c0,.011.01.025.015.04s.007.028.011.042a.055.055,0,0,1,.007.025.22.22,0,0,1,.019.057h0a13.856,13.856,0,0,0,10.959,9.492h0l.074.009h.011a.347.347,0,0,0,.065.007.033.033,0,0,0,.02,0l.063.011a.04.04,0,0,1,.021,0,.159.159,0,0,1,.058.007c.017.006.021,0,.028,0a.212.212,0,0,1,.057.006c.018.007.018,0,.029,0a.269.269,0,0,0,.053.007.084.084,0,0,0,.031,0,.147.147,0,0,1,.051.007c.013.007.025,0,.035,0a.12.12,0,0,1,.051.008.106.106,0,0,1,.035,0h.086a.111.111,0,0,1,.049.007.209.209,0,0,1,.039,0h.133a.131.131,0,0,0,.039,0,.18.18,0,0,0,.046,0,.122.122,0,0,0,.04,0,.207.207,0,0,0,.046,0,.158.158,0,0,0,.043,0h.042l.087.007h.042a.158.158,0,0,0,.043,0h.175a.18.18,0,0,0,.046,0h.039a.216.216,0,0,0,.047,0h.041a.22.22,0,0,1,.044,0h.834a.8.8,0,0,0,.1,0h.125a.458.458,0,0,1,.073,0h.029a.366.366,0,0,0,.065,0h.039a.243.243,0,0,0,.067-.006h.028c.064,0,.132-.011.2-.015h.014a.578.578,0,0,0,.081-.006h.026l.077-.011h.022l.085-.011h.014c.064-.006.133-.015.2-.024h.011l.089-.011h.018l.082-.011h.019c.028-.007.062-.01.089-.015h.007c.1-.018.2-.032.3-.05h0c.035-.007.067-.011.1-.017h0a13.737,13.737,0,0,0,7.074-3.586.011.011,0,0,0,.01-.007l.055-.054a.075.075,0,0,0,.018-.018c.018-.018.035-.032.053-.049a.128.128,0,0,0,.018-.019l.054-.054.011-.011c.025-.021.042-.042.065-.064a.144.144,0,0,0,.028-.031.218.218,0,0,0,.034-.033.3.3,0,0,0,.035-.039l.026-.021c.014-.014.024-.027.038-.042a.046.046,0,0,1,.019-.019,13.879,13.879,0,0,0,3.795-8.3h0a.408.408,0,0,1,.007-.077v-.011c.007-.086.014-.171.021-.257v-.082a.062.062,0,0,1,0-.019q0-.034,0-.07v-.015c0-.054.007-.11.007-.167v-.018c0-.021,0-.042,0-.063v-.025a.243.243,0,0,0,0-.06v-.022a.568.568,0,0,0,0-.082v-.085a.053.053,0,0,1,0-.021v-8.93h-2.02a18.425,18.425,0,0,1-13.639-6.1Zm19.79,8.433v5.181a3.458,3.458,0,0,0,0-5.978Zm-35.8.481a3.478,3.478,0,0,0-.452,1.713,3.437,3.437,0,0,0,1.726,2.987v-5.988a3.432,3.432,0,0,0-1.267,1.281Zm18.365-12.966a15.012,15.012,0,0,0,11.955,6h5.476v1.987a6.943,6.943,0,0,1,1.728.709v-11.167a7.413,7.413,0,0,0-5.608-7.2l-.455-.121-1.522-1.529a17.782,17.782,0,0,0-30.382,12.651v7.362a6.625,6.625,0,0,1,1.718-.709v-1.987h2.132a14.824,14.824,0,0,0,9.949-4.184l.2-.2,3.436-3.452Z" transform="translate(-30974.781 -11158.229)" stroke="rgba(0,0,0,0)" stroke-miterlimit="10" stroke-width="1.008" fill="url(#linear-gradient)"/>
  </g>
</svg>
