<svg xmlns="http://www.w3.org/2000/svg" width="53" height="51" viewBox="0 0 53 51">
  <g id="Interview" transform="translate(-0.254)">
    <rect id="Rectangle_14749" data-name="Rectangle 14749" width="53" height="51" rx="6" transform="translate(0.254)" fill="#e9f7f2"/>
    <path id="_044-speech_bubble" data-name="044-speech bubble" d="M26.437,12.185a11.467,11.467,0,0,1-2.1,6.589,1.033,1.033,0,0,1-1.693-1.182,9.412,9.412,0,0,0,1.724-5.407c0-5.58-5-10.12-11.153-10.12S2.066,6.605,2.066,12.185A9.44,9.44,0,0,0,4.392,18.37a1.033,1.033,0,0,1,.171,1.057l-1.62,4.006L7.66,21.354a1.032,1.032,0,0,1,.822,0,12.183,12.183,0,0,0,10.173-.325,1.033,1.033,0,1,1,.935,1.841,14.259,14.259,0,0,1-11.5.555L1.45,26.348A1.033,1.033,0,0,1,.076,25.016l2.345-5.8A11.42,11.42,0,0,1,0,12.185,11.647,11.647,0,0,1,3.9,3.537,13.726,13.726,0,0,1,13.218,0a13.726,13.726,0,0,1,9.314,3.537,11.647,11.647,0,0,1,3.9,8.648ZM21.273,9.41a1.737,1.737,0,0,1-1.24,1.615l-1.82.651a15.491,15.491,0,0,1,.478,4.353,1.033,1.033,0,0,1-.933,1.028,10.708,10.708,0,0,0-3.88,1.352,1.036,1.036,0,0,1-.65.23H13.21a1.036,1.036,0,0,1-.648-.228,10.712,10.712,0,0,0-3.885-1.354,1.03,1.03,0,0,1-.93-1.028,15.515,15.515,0,0,1,.477-4.349L6.4,11.025A1.737,1.737,0,0,1,5.164,9.41,1.737,1.737,0,0,1,6.4,7.8l5.164-1.888a4.879,4.879,0,0,1,3.259,0L20.035,7.8A1.736,1.736,0,0,1,21.273,9.41Zm-5.007,2.963-1.441.516a4.876,4.876,0,0,1-3.253,0h0l-1.4-.505a12.628,12.628,0,0,0-.344,2.779,13.044,13.044,0,0,1,3.392,1.248,13.039,13.039,0,0,1,3.392-1.248,12.52,12.52,0,0,0-.345-2.789Zm2.157-2.965-4.3-1.56a2.856,2.856,0,0,0-1.852,0L8.007,9.408l4.265,1.537h0a2.858,2.858,0,0,0,1.855,0Z" transform="translate(13.254 12)" fill="#0fa76f"/>
  </g>
</svg>
