<svg xmlns="http://www.w3.org/2000/svg" width="53" height="51" viewBox="0 0 53 51">
  <g id="_internship" data-name=" internship" transform="translate(-0.254 -0.25)">
    <rect id="Rectangle_14749" data-name="Rectangle 14749" width="53" height="51" rx="6" transform="translate(0.254 0.25)" fill="#fff4f3"/>
    <g id="launch" transform="translate(-72.746 11.25)">
      <path id="Path_94131" data-name="Path 94131" d="M99.943,27.751a.813.813,0,0,0,.813-.813V24.5H102.7a6.072,6.072,0,0,0,5.378,3.252.813.813,0,0,0,.813-.813V24.307a9.378,9.378,0,0,0-2.8-6.683c1-3.035,1.177-3.9,1.177-5.579A11.261,11.261,0,0,0,105.5,5.769a26.189,26.189,0,0,0-3.99-4.55c-.324-.318-.659-.647-.993-.981a.813.813,0,0,0-1.15,0c-.335.335-.668.662-.99.979a26.627,26.627,0,0,0-4.033,4.6,11.212,11.212,0,0,0-1.719,6.227c0,1.677.2,2.618,1.176,5.58A9.375,9.375,0,0,0,91,24.305v2.633a.813.813,0,0,0,.813.813A6.072,6.072,0,0,0,97.191,24.5H99.13v2.439A.813.813,0,0,0,99.943,27.751Zm7.317-3.445v1.745a4.479,4.479,0,0,1-3.187-2.428c.411-1.231,1.316-3.92,1.423-4.238A7.824,7.824,0,0,1,107.261,24.307ZM99.519,2.376l.425-.418.429.422a25.271,25.271,0,0,1,3.7,4.179H95.8a25.967,25.967,0,0,1,3.718-4.182ZM92.626,26.052V24.305a7.821,7.821,0,0,1,1.764-4.919c.1.3,1,2.983,1.423,4.238A4.635,4.635,0,0,1,92.626,26.052Zm4.651-3.179c-.386-1.156-.723-2.155-1.024-3.05-1.726-5.124-2-5.934-2-7.779a10.077,10.077,0,0,1,.7-3.86h9.977a10.054,10.054,0,0,1,.708,3.86c0,2.054-.585,3.572-2.02,7.834-.3.88-.627,1.862-1.005,2.995h-1.853V20.38a.813.813,0,0,0-1.626,0v2.493Z" transform="translate(0 0)" fill="#ff606c"/>
    </g>
  </g>
</svg>
