<svg xmlns="http://www.w3.org/2000/svg" width="53" height="51" viewBox="0 0 53 51">
  <g id="Lets_join" data-name="Lets join" transform="translate(-0.254 -0.25)">
    <rect id="Rectangle_14749" data-name="Rectangle 14749" width="53" height="51" rx="6" transform="translate(0.254 0.25)" fill="#f0eaf9"/>
    <g id="shake-hands" transform="translate(10.254 -47.566)">
      <path id="Path_96202" data-name="Path 96202" d="M32.554,67.444,26.113,61a.64.64,0,0,0-.9,0l-2.978,2.978a1.978,1.978,0,0,1-1.331.577,7.785,7.785,0,0,0-4.86,1.931,7.733,7.733,0,0,0-4.2-1.405,1.978,1.978,0,0,1-1.335-.577l-2.97-2.97a.64.64,0,0,0-.9,0L.188,67.978a.64.64,0,0,0,0,.9l2.989,2.989A1.979,1.979,0,0,1,3.754,73.2a7.8,7.8,0,0,0,2.011,4.934A2.013,2.013,0,0,0,7.7,79.926a2.013,2.013,0,0,0,1.95,1.95,2.013,2.013,0,0,0,1.95,1.95,2.018,2.018,0,0,0,3.443,1.362l.614-.614.406.406a2.018,2.018,0,0,0,3.3-.682,2.017,2.017,0,0,0,3.057-1.664,2.014,2.014,0,0,0,1.949-2.126,2.009,2.009,0,0,0,1.2-.577,2.15,2.15,0,0,0,.59-1.489c0-.021,0,.021,0,0l.549-.55A7.789,7.789,0,0,0,29,72.657a1.978,1.978,0,0,1,.577-1.331l2.978-2.978A.639.639,0,0,0,32.554,67.444ZM7.247,77.387l.859-.859a.74.74,0,0,1,1.046,1.046l-.859.858a.74.74,0,1,1-1.046-1.046ZM8.981,79.86a.735.735,0,0,1,.217-.523l.859-.858h0A.74.74,0,1,1,11.1,79.525l-.859.858a.74.74,0,0,1-1.263-.523Zm1.95,1.95a.735.735,0,0,1,.217-.523l.859-.858a.74.74,0,1,1,1.046,1.046l-.859.858a.74.74,0,0,1-1.263-.523Zm3.213,2.473A.74.74,0,0,1,13.1,83.238l.859-.859A.74.74,0,0,1,15,83.425Zm10.528-5.257a.74.74,0,0,1-1.045,0L19.6,75a.64.64,0,1,0-.9.9l4.024,4.024h0l.163.163a.74.74,0,0,1-1.046,1.046l-4.024-4.024a.64.64,0,0,0-.9.9l4.024,4.024a.74.74,0,1,1-1.046,1.046l-3.741-3.741a.64.64,0,0,0-.9.9l2.776,2.776a.74.74,0,0,1-1.047,1.045l-.569-.569a2.016,2.016,0,0,0-1.859-2.621,2.013,2.013,0,0,0-1.95-1.95,2.015,2.015,0,0,0-1.95-1.951A2.017,2.017,0,0,0,7.2,75.624s-.953.958-1,1.011a6.524,6.524,0,0,1-1.173-3.486,3.254,3.254,0,0,0-.951-2.182L1.544,68.43,7.08,62.894,9.6,65.411a3.253,3.253,0,0,0,2.195.951A6.468,6.468,0,0,1,15.105,67.4l-2.87,2.87A2.282,2.282,0,0,0,15.462,73.5a4.247,4.247,0,0,1,2.791-1.24,4.489,4.489,0,0,0,.62-.075l5.8,5.8a.74.74,0,0,1,0,1.046Zm4-8.605a3.252,3.252,0,0,0-.951,2.188,6.514,6.514,0,0,1-1.91,4.379l-.164.164C25.624,77.126,20.2,71.7,20.2,71.7a4.476,4.476,0,0,0,.988-.746.64.64,0,0,0-.9-.9,3.188,3.188,0,0,1-2.1.931,5.524,5.524,0,0,0-3.63,1.613,1,1,0,0,1-1.418-1.418l3.448-3.447a6.513,6.513,0,0,1,4.36-1.892,3.252,3.252,0,0,0,2.188-.951l2.525-2.525L31.2,67.9Z" transform="translate(0 0)" fill="#8a62d6" stroke="#8a62d6" stroke-width="0.5"/>
    </g>
  </g>
</svg>
