<svg id="Group_39405" data-name="Group 39405" xmlns="http://www.w3.org/2000/svg" width="53" height="51" viewBox="0 0 53 51">
  <g id="_selection" data-name=" selection" transform="translate(-0.254)">
    <rect id="Rectangle_14749" data-name="Rectangle 14749" width="53" height="51" rx="6" transform="translate(0.254)" fill="#e8f5ff"/>
  </g>
  <g id="tap" transform="translate(-73 12)">
    <path id="Path_96200" data-name="Path 96200" d="M91.768,6.143a.768.768,0,0,0,.768-.768,3.839,3.839,0,1,1,7.678,0,.768.768,0,1,0,1.536,0,5.375,5.375,0,1,0-10.75,0A.768.768,0,0,0,91.768,6.143Z" fill="#158cc1"/>
    <path id="Path_96201" data-name="Path 96201" d="M95.65,84.016a1.259,1.259,0,0,0,.457.084h14.3a1.18,1.18,0,0,0,.722-.234,5.632,5.632,0,0,0,2.342-4.427V72.1c0-1.323-1.374-2.4-3.064-2.4a3.8,3.8,0,0,0-1.129.17,3.042,3.042,0,0,0-2.956-1.769,3.8,3.8,0,0,0-1.129.17,3.042,3.042,0,0,0-2.956-1.769,3.818,3.818,0,0,0-1.021.138V62.4c0-1.323-1.374-2.4-3.064-2.4s-3.064,1.076-3.064,2.4v8.9H94.064C92.374,71.3,91,72.38,91,73.7v4.421a5.572,5.572,0,0,0,1.256,3.463A8.006,8.006,0,0,0,95.65,84.016ZM93.043,73.7a.932.932,0,0,1,1.021-.8h1.021v3.438a1.052,1.052,0,0,0,2.043,0V62.4a1.052,1.052,0,0,1,2.043,0V73.7a1.052,1.052,0,0,0,2.043,0V68.9a1.052,1.052,0,0,1,2.043,0v4.8a1.052,1.052,0,0,0,2.043,0V70.5a1.052,1.052,0,0,1,2.043,0v3.2a1.052,1.052,0,0,0,2.043,0V72.1a1.052,1.052,0,0,1,2.043,0v7.335a4.1,4.1,0,0,1-1.464,3.062h-13.6a4.932,4.932,0,0,1-3.314-4.377Z" transform="translate(0 -56.929)" fill="#158cc1"/>
  </g>
</svg>
