<svg xmlns="http://www.w3.org/2000/svg" width="53" height="51" viewBox="0 0 53 51">
  <g id="Time_slot_selection" data-name="Time slot selection" transform="translate(-152 -1458)">
    <rect id="Rectangle_14744" data-name="Rectangle 14744" width="53" height="51" rx="6" transform="translate(152 1458)" fill="#f4f5fc"/>
    <g id="Group_39402" data-name="Group 39402" transform="translate(-4063.035 650.974)">
      <path id="Path_96223" data-name="Path 96223" d="M4229.035,831.644c.063-.467.107-.938.192-1.4a12.186,12.186,0,0,1,5.333-8.152,11.872,11.872,0,0,1,5.56-2,12.278,12.278,0,0,1,5.54.71,12.542,12.542,0,0,1,3.312,1.84,1.024,1.024,0,0,1,.379,1.235.978.978,0,0,1-1.078.626,1.45,1.45,0,0,1-.6-.274,10.827,10.827,0,0,0-2.729-1.509,10.269,10.269,0,0,0-4.858-.553,9.926,9.926,0,0,0-5.212,2.248,10.063,10.063,0,0,0-3.611,6.109,9.83,9.83,0,0,0,1.014,6.608,10.044,10.044,0,0,0,7.337,5.355,9.809,9.809,0,0,0,7.484-1.592,10.032,10.032,0,0,0,4.4-6.773,10.187,10.187,0,0,0-.777-6.069,1.652,1.652,0,0,1-.158-.759.966.966,0,0,1,.822-.857.983.983,0,0,1,1.117.6,18.105,18.105,0,0,1,.812,2.234,12.333,12.333,0,0,1-7.679,14.671,11.787,11.787,0,0,1-3.328.721,1.665,1.665,0,0,0-.21.041h-1.446a1.331,1.331,0,0,0-.187-.04,11.747,11.747,0,0,1-5.364-1.686,12.182,12.182,0,0,1-5.876-8.492c-.086-.463-.129-.933-.192-1.4Z" fill="#7483d6" stroke="#7382d5" stroke-width="0.6"/>
      <path id="Path_96224" data-name="Path 96224" d="M4277.133,843.988h.3c1.237,0,2.473,0,3.71,0a1.038,1.038,0,0,1,1.014.559,1.016,1.016,0,0,1-.833,1.486c-.063,0-.128.007-.192.007q-2.458,0-4.915,0a1.026,1.026,0,0,1-1.134-1.133q0-3.493,0-6.987a1.023,1.023,0,0,1,1.21-1.108,1,1,0,0,1,.829.907c.009.112.009.225.009.337q0,2.807,0,5.614Z" transform="translate(-34.731 -12.646)" fill="#7483d6" stroke="#7382d5" stroke-width="0.6"/>
    </g>
  </g>
</svg>
