<svg width="14" height="14" viewBox="0 0 14 14" fill="none" xmlns="http://www.w3.org/2000/svg">
<g clip-path="url(#clip0_34972_326642)">
<path d="M10.8086 2.48078C10.9416 2.80235 11.1968 3.05796 11.5182 3.19141L12.6451 3.65819C12.9667 3.7914 13.2222 4.04691 13.3554 4.36851C13.4886 4.69011 13.4886 5.05146 13.3554 5.37306L12.889 6.49915C12.7557 6.82089 12.7555 7.1826 12.8894 7.50419L13.355 8.62995C13.4211 8.78923 13.4551 8.95997 13.4551 9.1324C13.4551 9.30483 13.4212 9.47557 13.3552 9.63488C13.2892 9.79419 13.1925 9.93893 13.0705 10.0608C12.9486 10.1827 12.8038 10.2794 12.6445 10.3454L11.5184 10.8118C11.1968 10.9448 10.9412 11.2 10.8078 11.5214L10.341 12.6483C10.2078 12.9699 9.95225 13.2254 9.63066 13.3586C9.30906 13.4918 8.94771 13.4918 8.62611 13.3586L7.50002 12.8921C7.17841 12.7593 6.81719 12.7595 6.49579 12.8929L5.36888 13.359C5.04746 13.4919 4.68643 13.4918 4.36509 13.3587C4.04376 13.2256 3.78839 12.9704 3.65509 12.6491L3.18817 11.5219C3.05521 11.2003 2.79998 10.9447 2.47861 10.8113L1.3517 10.3445C1.03024 10.2113 0.774811 9.95598 0.641551 9.63457C0.508291 9.31316 0.50811 8.95198 0.641049 8.63043L1.10749 7.50434C1.24037 7.18273 1.2401 6.82151 1.10674 6.5001L0.640963 5.37239C0.574926 5.21311 0.540922 5.04237 0.540894 4.86994C0.540867 4.69751 0.574816 4.52677 0.640802 4.36746C0.706789 4.20816 0.803519 4.06341 0.925465 3.94151C1.04741 3.8196 1.19218 3.72292 1.35151 3.65698L2.4776 3.19054C2.7989 3.05769 3.05436 2.80279 3.1879 2.48178L3.65468 1.35488C3.78789 1.03328 4.0434 0.77777 4.365 0.64456C4.6866 0.511349 5.04795 0.511349 5.36954 0.644559L6.49564 1.111C6.81725 1.24389 7.17846 1.24361 7.49987 1.11025L8.62725 0.645283C8.9488 0.512147 9.31007 0.512174 9.63161 0.645358C9.95314 0.778543 10.2086 1.03398 10.3419 1.3555L10.8088 2.48273L10.8086 2.48078Z" fill="#059664"/>
<path fill-rule="evenodd" clip-rule="evenodd" d="M9.7416 5.16548C9.83513 5.01858 9.86646 4.84055 9.82872 4.67055C9.79098 4.50054 9.68725 4.3525 9.54035 4.25898C9.39346 4.16545 9.21543 4.13412 9.04542 4.17186C8.87542 4.2096 8.72738 4.31333 8.63385 4.46023L6.06398 8.49835L4.88798 7.02835C4.77926 6.89236 4.62097 6.80513 4.44793 6.78585C4.27489 6.76657 4.10128 6.81682 3.96529 6.92554C3.8293 7.03426 3.74207 7.19255 3.72279 7.36559C3.70351 7.53863 3.75376 7.71224 3.86248 7.84823L5.61248 10.0357C5.6777 10.1174 5.76146 10.1822 5.85681 10.225C5.95216 10.2677 6.05633 10.287 6.16065 10.2814C6.26498 10.2757 6.36646 10.2452 6.45663 10.1925C6.54681 10.1397 6.62308 10.0662 6.6791 9.97798L9.7416 5.16548Z" fill="white"/>
</g>
<defs>
<clipPath id="clip0_34972_326642">
<rect width="14" height="14" fill="white"/>
</clipPath>
</defs>
</svg>
