<svg width="24" height="24" viewBox="0 0 24 24" fill="none" xmlns="http://www.w3.org/2000/svg">
<mask id="path-1-outside-1_34856_312688" maskUnits="userSpaceOnUse" x="0" y="5" width="24" height="18" fill="black">
<rect fill="white" y="5" width="24" height="18"/>
<path d="M12.9248 16.1316C13.1888 14.896 14.341 14 15.6654 14C16.9899 14 18.1421 14.8969 18.406 16.1316C18.4574 16.3724 18.2044 16.616 17.9569 16.6667C17.7443 16.6667 17.5527 16.5218 17.5078 16.3129C17.3318 15.488 16.5564 14.8889 15.6654 14.8889C14.7745 14.8889 13.9991 15.4871 13.8231 16.3129C13.7718 16.5529 13.528 16.7031 13.2814 16.6578C13.0339 16.608 12.8744 16.3724 12.9258 16.1324L12.9248 16.1316ZM8.33272 13.1111C7.32172 13.1111 6.49954 12.3138 6.49954 11.3333C6.49954 10.3529 7.32172 9.55556 8.33272 9.55556C9.34372 9.55556 10.1659 10.3529 10.1659 11.3333C10.1659 12.3138 9.34372 13.1111 8.33272 13.1111ZM8.33272 12.2222C8.83776 12.2222 9.24931 11.8231 9.24931 11.3333C9.24931 10.8436 8.83776 10.4444 8.33272 10.4444C7.82768 10.4444 7.41613 10.8436 7.41613 11.3333C7.41613 11.8231 7.82768 12.2222 8.33272 12.2222ZM15.6654 13.1111C14.6544 13.1111 13.8323 12.3138 13.8323 11.3333C13.8323 10.3529 14.6544 9.55556 15.6654 9.55556C16.6764 9.55556 17.4986 10.3529 17.4986 11.3333C17.4986 12.3138 16.6764 13.1111 15.6654 13.1111ZM15.6654 12.2222C16.1705 12.2222 16.582 11.8231 16.582 11.3333C16.582 10.8436 16.1705 10.4444 15.6654 10.4444C15.1604 10.4444 14.7489 10.8436 14.7489 11.3333C14.7489 11.8231 15.1604 12.2222 15.6654 12.2222ZM17.9569 16.6667C17.9258 16.6729 17.9881 16.6667 17.9569 16.6667V16.6667ZM11.0733 16.1316C10.8093 14.896 9.6572 14 8.33272 14C7.00825 14 5.8561 14.8969 5.59212 16.1316C5.54079 16.3724 5.70027 16.6071 5.94775 16.6569C6.19157 16.7022 6.43813 16.5511 6.48946 16.312C6.66544 15.4871 7.44088 14.888 8.33181 14.888C9.22273 14.888 9.99817 15.4862 10.1742 16.312C10.2191 16.5218 10.4106 16.6658 10.6233 16.6658C10.8708 16.616 11.1228 16.3716 11.0724 16.1307L11.0733 16.1316ZM10.6242 16.6667C10.593 16.6729 10.6554 16.6667 10.6242 16.6667V16.6667ZM22.9982 19.7778C22.9982 21.0027 21.9698 22 20.7067 22H3.29148C2.02841 22 1 21.0027 1 19.7778C1 18.7049 1.78827 17.8071 2.83318 17.6V10C2.83318 7.79467 4.68378 6 6.95784 6H11.5408C11.7938 6 11.9991 6.19911 11.9991 6.44444C11.9991 6.68978 11.7938 6.88889 11.5408 6.88889H6.95784C5.18882 6.88889 3.74977 8.28444 3.74977 10V17.5556H8.79102C8.91292 17.5556 9.02933 17.6027 9.11549 17.6853L9.89826 18.4444H14.1017L14.8845 17.6853C14.9707 17.6018 15.0871 17.5556 15.209 17.5556H20.2502V10.8889C20.2502 10.6436 20.4555 10.4444 20.7085 10.4444C20.9615 10.4444 21.1668 10.6436 21.1668 10.8889V17.6C22.2117 17.8062 23 18.704 23 19.7778H22.9982ZM22.0816 19.7778C22.0816 19.0427 21.4647 18.4444 20.7067 18.4444H15.3969L14.6141 19.2036C14.528 19.2871 14.4115 19.3333 14.2896 19.3333H9.70669C9.58478 19.3333 9.46838 19.2862 9.38222 19.2036L8.59945 18.4444H3.29148C2.53346 18.4444 1.91659 19.0427 1.91659 19.7778C1.91659 20.5129 2.53346 21.1111 3.29148 21.1111H20.7067C21.4647 21.1111 22.0816 20.5129 22.0816 19.7778Z"/>
</mask>
<path d="M12.9248 16.1316C13.1888 14.896 14.341 14 15.6654 14C16.9899 14 18.1421 14.8969 18.406 16.1316C18.4574 16.3724 18.2044 16.616 17.9569 16.6667C17.7443 16.6667 17.5527 16.5218 17.5078 16.3129C17.3318 15.488 16.5564 14.8889 15.6654 14.8889C14.7745 14.8889 13.9991 15.4871 13.8231 16.3129C13.7718 16.5529 13.528 16.7031 13.2814 16.6578C13.0339 16.608 12.8744 16.3724 12.9258 16.1324L12.9248 16.1316ZM8.33272 13.1111C7.32172 13.1111 6.49954 12.3138 6.49954 11.3333C6.49954 10.3529 7.32172 9.55556 8.33272 9.55556C9.34372 9.55556 10.1659 10.3529 10.1659 11.3333C10.1659 12.3138 9.34372 13.1111 8.33272 13.1111ZM8.33272 12.2222C8.83776 12.2222 9.24931 11.8231 9.24931 11.3333C9.24931 10.8436 8.83776 10.4444 8.33272 10.4444C7.82768 10.4444 7.41613 10.8436 7.41613 11.3333C7.41613 11.8231 7.82768 12.2222 8.33272 12.2222ZM15.6654 13.1111C14.6544 13.1111 13.8323 12.3138 13.8323 11.3333C13.8323 10.3529 14.6544 9.55556 15.6654 9.55556C16.6764 9.55556 17.4986 10.3529 17.4986 11.3333C17.4986 12.3138 16.6764 13.1111 15.6654 13.1111ZM15.6654 12.2222C16.1705 12.2222 16.582 11.8231 16.582 11.3333C16.582 10.8436 16.1705 10.4444 15.6654 10.4444C15.1604 10.4444 14.7489 10.8436 14.7489 11.3333C14.7489 11.8231 15.1604 12.2222 15.6654 12.2222ZM17.9569 16.6667C17.9258 16.6729 17.9881 16.6667 17.9569 16.6667V16.6667ZM11.0733 16.1316C10.8093 14.896 9.6572 14 8.33272 14C7.00825 14 5.8561 14.8969 5.59212 16.1316C5.54079 16.3724 5.70027 16.6071 5.94775 16.6569C6.19157 16.7022 6.43813 16.5511 6.48946 16.312C6.66544 15.4871 7.44088 14.888 8.33181 14.888C9.22273 14.888 9.99817 15.4862 10.1742 16.312C10.2191 16.5218 10.4106 16.6658 10.6233 16.6658C10.8708 16.616 11.1228 16.3716 11.0724 16.1307L11.0733 16.1316ZM10.6242 16.6667C10.593 16.6729 10.6554 16.6667 10.6242 16.6667V16.6667ZM22.9982 19.7778C22.9982 21.0027 21.9698 22 20.7067 22H3.29148C2.02841 22 1 21.0027 1 19.7778C1 18.7049 1.78827 17.8071 2.83318 17.6V10C2.83318 7.79467 4.68378 6 6.95784 6H11.5408C11.7938 6 11.9991 6.19911 11.9991 6.44444C11.9991 6.68978 11.7938 6.88889 11.5408 6.88889H6.95784C5.18882 6.88889 3.74977 8.28444 3.74977 10V17.5556H8.79102C8.91292 17.5556 9.02933 17.6027 9.11549 17.6853L9.89826 18.4444H14.1017L14.8845 17.6853C14.9707 17.6018 15.0871 17.5556 15.209 17.5556H20.2502V10.8889C20.2502 10.6436 20.4555 10.4444 20.7085 10.4444C20.9615 10.4444 21.1668 10.6436 21.1668 10.8889V17.6C22.2117 17.8062 23 18.704 23 19.7778H22.9982ZM22.0816 19.7778C22.0816 19.0427 21.4647 18.4444 20.7067 18.4444H15.3969L14.6141 19.2036C14.528 19.2871 14.4115 19.3333 14.2896 19.3333H9.70669C9.58478 19.3333 9.46838 19.2862 9.38222 19.2036L8.59945 18.4444H3.29148C2.53346 18.4444 1.91659 19.0427 1.91659 19.7778C1.91659 20.5129 2.53346 21.1111 3.29148 21.1111H20.7067C21.4647 21.1111 22.0816 20.5129 22.0816 19.7778Z" fill="#18232D"/>
<path d="M12.9248 16.1316L12.7293 16.0898L12.7061 16.198L12.7856 16.2751L12.9248 16.1316ZM18.406 16.1316L18.6017 16.0899L18.6016 16.0897L18.406 16.1316ZM17.5078 16.3129L17.3122 16.3546L17.3123 16.3549L17.5078 16.3129ZM13.8231 16.3129L14.0187 16.3547L14.0187 16.3546L13.8231 16.3129ZM13.2814 16.6578L13.242 16.8539L13.2452 16.8545L13.2814 16.6578ZM12.9258 16.1324L13.1213 16.1743L13.1445 16.066L13.065 15.9889L12.9258 16.1324ZM11.0733 16.1316L10.934 16.275L11.4066 16.7342L11.2689 16.0898L11.0733 16.1316ZM5.59212 16.1316L5.39654 16.0897L5.39651 16.0899L5.59212 16.1316ZM5.94775 16.6569L5.90831 16.853L5.91119 16.8535L5.94775 16.6569ZM6.48946 16.312L6.685 16.354L6.68506 16.3537L6.48946 16.312ZM10.1742 16.312L9.97854 16.3537L9.97858 16.3539L10.1742 16.312ZM10.6233 16.6658V16.8658H10.6432L10.6627 16.8619L10.6233 16.6658ZM11.0724 16.1307L11.2118 15.9872L10.7427 15.5314L10.8767 16.1716L11.0724 16.1307ZM10.6242 16.6667V16.4667H10.6044L10.585 16.4705L10.6242 16.6667ZM22.9982 19.7778V19.5778H22.7982V19.7778H22.9982ZM2.83318 17.6L2.87207 17.7962L3.03318 17.7642V17.6H2.83318ZM3.74977 17.5556H3.54977V17.7556H3.74977V17.5556ZM9.11549 17.6853L9.25473 17.5418L9.25396 17.541L9.11549 17.6853ZM9.89826 18.4444L9.75902 18.588L9.81721 18.6444H9.89826V18.4444ZM14.1017 18.4444V18.6444H14.1828L14.241 18.588L14.1017 18.4444ZM14.8845 17.6853L14.7453 17.5418L14.8845 17.6853ZM20.2502 17.5556V17.7556H20.4502V17.5556H20.2502ZM21.1668 17.6H20.9668V17.7644L21.1281 17.7962L21.1668 17.6ZM23 19.7778V19.9778H23.2V19.7778H23ZM15.3969 18.4444V18.2444H15.3158L15.2576 18.3009L15.3969 18.4444ZM9.38222 19.2036L9.24298 19.3471L9.24375 19.3479L9.38222 19.2036ZM8.59945 18.4444L8.73869 18.3009L8.6805 18.2444H8.59945V18.4444ZM13.1204 16.1733C13.3633 15.0364 14.4287 14.2 15.6654 14.2V13.8C14.2533 13.8 13.0143 14.7556 12.7293 16.0898L13.1204 16.1733ZM15.6654 14.2C16.9021 14.2 17.9676 15.0372 18.2105 16.1734L18.6016 16.0897C18.3166 14.7565 17.0777 13.8 15.6654 13.8V14.2ZM18.2104 16.1732C18.2182 16.2098 18.2068 16.268 18.145 16.3365C18.0841 16.4041 17.9962 16.4545 17.9168 16.4707L17.997 16.8626C18.1651 16.8282 18.3275 16.7315 18.4421 16.6044C18.5558 16.4782 18.6452 16.2942 18.6017 16.0899L18.2104 16.1732ZM17.9569 16.4667C17.8322 16.4667 17.7271 16.3816 17.7033 16.2708L17.3123 16.3549C17.3783 16.662 17.6563 16.8667 17.9569 16.8667V16.4667ZM17.7034 16.2712C17.5061 15.3466 16.643 14.6889 15.6654 14.6889V15.0889C16.4698 15.0889 17.1575 15.6294 17.3122 16.3546L17.7034 16.2712ZM15.6654 14.6889C14.688 14.6889 13.8247 15.3456 13.6275 16.2712L14.0187 16.3546C14.1734 15.6286 14.861 15.0889 15.6654 15.0889V14.6889ZM13.6275 16.2711C13.6009 16.3957 13.4676 16.4887 13.3176 16.4611L13.2452 16.8545C13.5883 16.9176 13.9427 16.7101 14.0187 16.3547L13.6275 16.2711ZM13.3208 16.4617C13.1772 16.4328 13.0944 16.3 13.1213 16.1743L12.7302 16.0906C12.6544 16.4448 12.8906 16.7832 13.242 16.8539L13.3208 16.4617ZM13.065 15.9889L13.0641 15.988L12.7856 16.2751L12.7865 16.276L13.065 15.9889ZM8.33272 12.9111C7.42635 12.9111 6.69954 12.1976 6.69954 11.3333H6.29954C6.29954 12.43 7.2171 13.3111 8.33272 13.3111V12.9111ZM6.69954 11.3333C6.69954 10.4691 7.42635 9.75556 8.33272 9.75556V9.35556C7.2171 9.35556 6.29954 10.2367 6.29954 11.3333H6.69954ZM8.33272 9.75556C9.23909 9.75556 9.9659 10.4691 9.9659 11.3333H10.3659C10.3659 10.2367 9.44835 9.35556 8.33272 9.35556V9.75556ZM9.9659 11.3333C9.9659 12.1976 9.23909 12.9111 8.33272 12.9111V13.3111C9.44835 13.3111 10.3659 12.43 10.3659 11.3333H9.9659ZM8.33272 12.4222C8.94239 12.4222 9.44931 11.9393 9.44931 11.3333H9.04931C9.04931 11.7069 8.73314 12.0222 8.33272 12.0222V12.4222ZM9.44931 11.3333C9.44931 10.7274 8.94239 10.2444 8.33272 10.2444V10.6444C8.73314 10.6444 9.04931 10.9598 9.04931 11.3333H9.44931ZM8.33272 10.2444C7.72305 10.2444 7.21613 10.7274 7.21613 11.3333H7.61613C7.61613 10.9598 7.93231 10.6444 8.33272 10.6444V10.2444ZM7.21613 11.3333C7.21613 11.9393 7.72305 12.4222 8.33272 12.4222V12.0222C7.93231 12.0222 7.61613 11.7069 7.61613 11.3333H7.21613ZM15.6654 12.9111C14.7591 12.9111 14.0323 12.1976 14.0323 11.3333H13.6323C13.6323 12.43 14.5498 13.3111 15.6654 13.3111V12.9111ZM14.0323 11.3333C14.0323 10.4691 14.7591 9.75556 15.6654 9.75556V9.35556C14.5498 9.35556 13.6323 10.2367 13.6323 11.3333H14.0323ZM15.6654 9.75556C16.5718 9.75556 17.2986 10.4691 17.2986 11.3333H17.6986C17.6986 10.2367 16.7811 9.35556 15.6654 9.35556V9.75556ZM17.2986 11.3333C17.2986 12.1976 16.5718 12.9111 15.6654 12.9111V13.3111C16.7811 13.3111 17.6986 12.43 17.6986 11.3333H17.2986ZM15.6654 12.4222C16.2751 12.4222 16.782 11.9393 16.782 11.3333H16.382C16.382 11.7069 16.0659 12.0222 15.6654 12.0222V12.4222ZM16.782 11.3333C16.782 10.7274 16.2751 10.2444 15.6654 10.2444V10.6444C16.0659 10.6444 16.382 10.9598 16.382 11.3333H16.782ZM15.6654 10.2444C15.0558 10.2444 14.5489 10.7274 14.5489 11.3333H14.9489C14.9489 10.9598 15.265 10.6444 15.6654 10.6444V10.2444ZM14.5489 11.3333C14.5489 11.9393 15.0558 12.4222 15.6654 12.4222V12.0222C15.265 12.0222 14.9489 11.7069 14.9489 11.3333H14.5489ZM17.9178 16.4705C17.9144 16.4712 17.9105 16.472 17.9065 16.473C17.903 16.4738 17.8964 16.4754 17.8887 16.4778C17.8849 16.479 17.878 16.4813 17.8697 16.4849C17.8655 16.4867 17.8592 16.4895 17.852 16.4935C17.8454 16.4971 17.8337 16.504 17.8207 16.5148C17.8139 16.5203 17.8052 16.5283 17.7961 16.5389C17.7871 16.5494 17.7759 16.5646 17.7665 16.585C17.7568 16.6058 17.7487 16.6328 17.748 16.6645C17.7472 16.6969 17.7544 16.7277 17.7672 16.7548C17.7795 16.7809 17.7955 16.8 17.8093 16.8133C17.8229 16.8264 17.8361 16.8354 17.8461 16.8413C17.8563 16.8473 17.8654 16.8515 17.8724 16.8544C17.8795 16.8573 17.8858 16.8594 17.8908 16.8609C17.9005 16.8638 17.9087 16.8654 17.9139 16.8664C17.9195 16.8673 17.9242 16.8679 17.9277 16.8683C17.9345 16.869 17.9401 16.8692 17.9435 16.8693C17.9503 16.8695 17.9559 16.8694 17.9591 16.8693C17.9659 16.869 17.9721 16.8685 17.9768 16.868C17.9815 16.8675 17.9876 16.8668 17.9942 16.8658C17.9974 16.8652 18.0028 16.8643 18.0092 16.8629C18.0124 16.8621 18.0174 16.8609 18.0235 16.859C18.0267 16.8581 18.0308 16.8567 18.0356 16.8549C18.0402 16.8532 18.047 16.8505 18.055 16.8465C18.0622 16.8429 18.0754 16.8358 18.09 16.8243C18.0975 16.8183 18.1074 16.8096 18.1175 16.7979C18.1275 16.7862 18.1397 16.7693 18.1495 16.7468C18.1595 16.7236 18.1666 16.695 18.1659 16.6627C18.1651 16.6301 18.1565 16.6008 18.144 16.5763C18.1319 16.5527 18.1172 16.5354 18.1049 16.5235C18.0927 16.5116 18.0809 16.5033 18.072 16.4977C18.0629 16.492 18.0547 16.4879 18.0483 16.485C18.0419 16.4821 18.0361 16.4799 18.0315 16.4783C18.0226 16.4752 18.015 16.4732 18.01 16.4721C18.0002 16.4698 17.9922 16.4688 17.988 16.4683C17.9794 16.4673 17.9723 16.467 17.9687 16.4669C17.9644 16.4667 17.9604 16.4667 17.9569 16.4667V16.8667C17.9574 16.8667 17.9565 16.8667 17.9547 16.8666C17.9537 16.8666 17.9484 16.8664 17.9412 16.8655C17.9377 16.8651 17.9302 16.8642 17.9208 16.862C17.916 16.8609 17.9086 16.859 17.8998 16.856C17.8952 16.8544 17.8896 16.8522 17.8832 16.8493C17.8769 16.8465 17.8687 16.8424 17.8597 16.8367C17.8508 16.8311 17.8391 16.8228 17.8268 16.811C17.8146 16.7992 17.7999 16.7819 17.7878 16.7583C17.7753 16.7338 17.7667 16.7045 17.766 16.672C17.7652 16.6397 17.7723 16.6111 17.7823 16.588C17.7921 16.5655 17.8043 16.5486 17.8143 16.537C17.8244 16.5252 17.8342 16.5166 17.8417 16.5106C17.8562 16.4992 17.8692 16.4921 17.8764 16.4886C17.8842 16.4847 17.8909 16.482 17.8953 16.4803C17.9 16.4786 17.9039 16.4773 17.9068 16.4764C17.9125 16.4747 17.9171 16.4736 17.9197 16.473C17.925 16.4718 17.929 16.4711 17.9306 16.4709C17.934 16.4703 17.9362 16.4701 17.9371 16.47C17.9379 16.4699 17.9402 16.4697 17.9438 16.4695C17.9454 16.4695 17.9496 16.4693 17.9553 16.4695C17.9582 16.4696 17.9632 16.4698 17.9696 16.4705C17.9729 16.4708 17.9774 16.4714 17.9828 16.4723C17.9879 16.4732 17.9959 16.4748 18.0055 16.4777C18.0105 16.4792 18.0167 16.4813 18.0238 16.4841C18.0307 16.487 18.0398 16.4911 18.0499 16.4971C18.0598 16.503 18.073 16.512 18.0867 16.5251C18.1004 16.5383 18.1163 16.5575 18.1287 16.5836C18.1415 16.6106 18.1486 16.6414 18.1479 16.6738C18.1471 16.7054 18.139 16.7324 18.1294 16.7532C18.12 16.7735 18.1088 16.7887 18.0998 16.7992C18.0908 16.8097 18.0821 16.8177 18.0754 16.8232C18.0624 16.8339 18.0508 16.8407 18.0444 16.8442C18.0373 16.8481 18.0312 16.8509 18.0272 16.8526C18.0193 16.856 18.0129 16.8581 18.0098 16.8591C18.0034 16.8611 17.9987 16.8622 17.9978 16.8624C17.9962 16.8628 17.9955 16.8629 17.9961 16.8628L17.9178 16.4705ZM11.2689 16.0898C10.9839 14.7556 9.74491 13.8 8.33272 13.8V14.2C9.56948 14.2 10.6348 15.0364 10.8777 16.1733L11.2689 16.0898ZM8.33272 13.8C6.92047 13.8 5.68158 14.7565 5.39654 16.0897L5.7877 16.1734C6.03061 15.0372 7.09603 14.2 8.33272 14.2V13.8ZM5.39651 16.0899C5.32084 16.445 5.5571 16.7823 5.90832 16.853L5.98719 16.4608C5.84345 16.4319 5.76074 16.2999 5.78773 16.1732L5.39651 16.0899ZM5.91119 16.8535C6.25181 16.9169 6.60893 16.7084 6.685 16.354L6.29391 16.27C6.26733 16.3939 6.13133 16.4876 5.98431 16.4603L5.91119 16.8535ZM6.68506 16.3537C6.83977 15.6285 7.52748 15.088 8.33181 15.088V14.688C7.35428 14.688 6.49111 15.3457 6.29386 16.2703L6.68506 16.3537ZM8.33181 15.088C9.13622 15.088 9.82383 15.6277 9.97854 16.3537L10.3698 16.2703C10.1725 15.3447 9.30924 14.688 8.33181 14.688V15.088ZM9.97858 16.3539C10.0446 16.6623 10.3231 16.8658 10.6233 16.8658V16.4658C10.4982 16.4658 10.3935 16.3812 10.3697 16.2701L9.97858 16.3539ZM10.6627 16.8619C10.8315 16.8279 10.9938 16.7309 11.1083 16.6036C11.2219 16.4773 11.3108 16.2935 11.2682 16.0897L10.8767 16.1716C10.8844 16.2087 10.8725 16.2676 10.8109 16.3361C10.75 16.4038 10.6626 16.4539 10.5838 16.4697L10.6627 16.8619ZM10.933 16.2741L10.934 16.275L11.2127 15.9881L11.2118 15.9872L10.933 16.2741ZM10.585 16.4705C10.5817 16.4712 10.5778 16.472 10.5737 16.473C10.5703 16.4738 10.5637 16.4754 10.556 16.4778C10.5522 16.479 10.5453 16.4813 10.537 16.4849C10.5327 16.4867 10.5265 16.4895 10.5193 16.4935C10.5127 16.4971 10.501 16.504 10.4879 16.5148C10.4812 16.5203 10.4725 16.5283 10.4634 16.5389C10.4544 16.5494 10.4432 16.5646 10.4338 16.585C10.4241 16.6058 10.416 16.6328 10.4153 16.6645C10.4145 16.6969 10.4216 16.7277 10.4345 16.7548C10.4468 16.7809 10.4628 16.8 10.4765 16.8133C10.4902 16.8264 10.5034 16.8354 10.5134 16.8413C10.5236 16.8473 10.5327 16.8515 10.5397 16.8544C10.5468 16.8573 10.5531 16.8594 10.5581 16.8609C10.5678 16.8638 10.5759 16.8654 10.5812 16.8664C10.5868 16.8673 10.5915 16.8679 10.595 16.8683C10.6018 16.869 10.6073 16.8692 10.6107 16.8693C10.6176 16.8695 10.6232 16.8694 10.6264 16.8693C10.6332 16.869 10.6394 16.8685 10.6441 16.868C10.6488 16.8675 10.6549 16.8668 10.6615 16.8658C10.6647 16.8652 10.67 16.8643 10.6764 16.8629C10.6796 16.8621 10.6847 16.8609 10.6908 16.859C10.6939 16.8581 10.6981 16.8567 10.7029 16.8549C10.7075 16.8532 10.7143 16.8505 10.7223 16.8465C10.7295 16.8429 10.7427 16.8358 10.7572 16.8243C10.7648 16.8183 10.7747 16.8096 10.7848 16.7979C10.7948 16.7862 10.807 16.7693 10.8167 16.7468C10.8268 16.7236 10.8339 16.695 10.8331 16.6627C10.8324 16.6301 10.8238 16.6008 10.8113 16.5763C10.7992 16.5527 10.7845 16.5354 10.7722 16.5235C10.7599 16.5116 10.7482 16.5033 10.7392 16.4977C10.7302 16.492 10.722 16.4879 10.7156 16.485C10.7092 16.4821 10.7034 16.4799 10.6988 16.4783C10.6898 16.4752 10.6822 16.4732 10.6772 16.4721C10.6674 16.4698 10.6594 16.4688 10.6553 16.4683C10.6467 16.4673 10.6395 16.467 10.636 16.4669C10.6317 16.4667 10.6276 16.4667 10.6242 16.4667V16.8667C10.6247 16.8667 10.6238 16.8667 10.622 16.8666C10.621 16.8666 10.6157 16.8664 10.6084 16.8655C10.605 16.8651 10.5975 16.8642 10.5881 16.862C10.5833 16.8609 10.5759 16.859 10.567 16.856C10.5625 16.8544 10.5568 16.8522 10.5504 16.8493C10.5441 16.8465 10.536 16.8424 10.527 16.8367C10.5181 16.8311 10.5063 16.8228 10.4941 16.811C10.4819 16.7992 10.4671 16.7819 10.4551 16.7583C10.4426 16.7338 10.434 16.7045 10.4332 16.672C10.4325 16.6397 10.4396 16.6111 10.4496 16.588C10.4593 16.5655 10.4715 16.5486 10.4816 16.537C10.4916 16.5252 10.5014 16.5166 10.509 16.5106C10.5235 16.4992 10.5365 16.4921 10.5436 16.4886C10.5515 16.4847 10.5582 16.482 10.5626 16.4803C10.5673 16.4786 10.5712 16.4773 10.5741 16.4764C10.5798 16.4747 10.5844 16.4736 10.587 16.473C10.5923 16.4718 10.5963 16.4711 10.5978 16.4709C10.6013 16.4703 10.6035 16.4701 10.6043 16.47C10.6051 16.4699 10.6074 16.4697 10.611 16.4695C10.6127 16.4695 10.6169 16.4693 10.6226 16.4695C10.6254 16.4696 10.6305 16.4698 10.6369 16.4705C10.6401 16.4708 10.6447 16.4714 10.6501 16.4723C10.6552 16.4732 10.6632 16.4748 10.6728 16.4777C10.6778 16.4792 10.684 16.4813 10.691 16.4841C10.698 16.487 10.7071 16.4911 10.7172 16.4971C10.7271 16.503 10.7403 16.512 10.7539 16.5251C10.7677 16.5383 10.7836 16.5575 10.796 16.5836C10.8088 16.6106 10.8159 16.6414 10.8151 16.6738C10.8144 16.7054 10.8063 16.7324 10.7967 16.7532C10.7873 16.7735 10.7761 16.7887 10.7671 16.7992C10.7581 16.8097 10.7494 16.8177 10.7427 16.8232C10.7297 16.8339 10.7181 16.8407 10.7117 16.8442C10.7046 16.8481 10.6985 16.8509 10.6945 16.8526C10.6866 16.856 10.6802 16.8581 10.6771 16.8591C10.6707 16.8611 10.666 16.8622 10.6651 16.8624C10.6635 16.8628 10.6628 16.8629 10.6634 16.8628L10.585 16.4705ZM22.7982 19.7778C22.7982 20.8865 21.8651 21.8 20.7067 21.8V22.2C22.0744 22.2 23.1982 21.1189 23.1982 19.7778H22.7982ZM20.7067 21.8H3.29148V22.2H20.7067V21.8ZM3.29148 21.8C2.13304 21.8 1.2 20.8865 1.2 19.7778H0.8C0.8 21.1189 1.92379 22.2 3.29148 22.2V21.8ZM1.2 19.7778C1.2 18.8066 1.91454 17.986 2.87207 17.7962L2.7943 17.4038C1.662 17.6282 0.8 18.6032 0.8 19.7778H1.2ZM3.03318 17.6V10H2.63318V17.6H3.03318ZM3.03318 10C3.03318 7.91086 4.7884 6.2 6.95784 6.2V5.8C4.57915 5.8 2.63318 7.67847 2.63318 10H3.03318ZM6.95784 6.2H11.5408V5.8H6.95784V6.2ZM11.5408 6.2C11.6891 6.2 11.7991 6.31531 11.7991 6.44444H12.1991C12.1991 6.08291 11.8984 5.8 11.5408 5.8V6.2ZM11.7991 6.44444C11.7991 6.57358 11.6891 6.68889 11.5408 6.68889V7.08889C11.8984 7.08889 12.1991 6.80598 12.1991 6.44444H11.7991ZM11.5408 6.68889H6.95784V7.08889H11.5408V6.68889ZM6.95784 6.68889C5.08419 6.68889 3.54977 8.16825 3.54977 10H3.94977C3.94977 8.40064 5.29344 7.08889 6.95784 7.08889V6.68889ZM3.54977 10V17.5556H3.94977V10H3.54977ZM3.74977 17.7556H8.79102V17.3556H3.74977V17.7556ZM8.79102 17.7556C8.86154 17.7556 8.92827 17.7829 8.97702 17.8296L9.25396 17.541C9.13039 17.4225 8.9643 17.3556 8.79102 17.3556V17.7556ZM8.97626 17.8289L9.75902 18.588L10.0375 18.3009L9.25473 17.5418L8.97626 17.8289ZM9.89826 18.6444H14.1017V18.2444H9.89826V18.6444ZM14.241 18.588L15.0237 17.8289L14.7453 17.5418L13.9625 18.3009L14.241 18.588ZM15.0237 17.8289C15.0715 17.7826 15.1375 17.7556 15.209 17.7556V17.3556C15.0366 17.3556 14.8698 17.421 14.7453 17.5418L15.0237 17.8289ZM15.209 17.7556H20.2502V17.3556H15.209V17.7556ZM20.4502 17.5556V10.8889H20.0502V17.5556H20.4502ZM20.4502 10.8889C20.4502 10.7598 20.5602 10.6444 20.7085 10.6444V10.2444C20.3509 10.2444 20.0502 10.5274 20.0502 10.8889H20.4502ZM20.7085 10.6444C20.8569 10.6444 20.9668 10.7598 20.9668 10.8889H21.3668C21.3668 10.5274 21.0661 10.2444 20.7085 10.2444V10.6444ZM20.9668 10.8889V17.6H21.3668V10.8889H20.9668ZM21.1281 17.7962C22.0854 17.9851 22.8 18.8056 22.8 19.7778H23.2C23.2 18.6024 22.3381 17.6273 21.2055 17.4038L21.1281 17.7962ZM23 19.5778H22.9982V19.9778H23V19.5778ZM22.2816 19.7778C22.2816 18.9265 21.5693 18.2444 20.7067 18.2444V18.6444C21.3601 18.6444 21.8816 19.1589 21.8816 19.7778H22.2816ZM20.7067 18.2444H15.3969V18.6444H20.7067V18.2444ZM15.2576 18.3009L14.4749 19.06L14.7534 19.3471L15.5361 18.588L15.2576 18.3009ZM14.4749 19.06C14.4271 19.1063 14.3611 19.1333 14.2896 19.1333V19.5333C14.462 19.5333 14.6288 19.4679 14.7534 19.3471L14.4749 19.06ZM14.2896 19.1333H9.70669V19.5333H14.2896V19.1333ZM9.70669 19.1333C9.63617 19.1333 9.56944 19.106 9.52068 19.0592L9.24375 19.3479C9.36732 19.4664 9.5334 19.5333 9.70669 19.5333V19.1333ZM9.52145 19.06L8.73869 18.3009L8.46022 18.588L9.24298 19.3471L9.52145 19.06ZM8.59945 18.2444H3.29148V18.6444H8.59945V18.2444ZM3.29148 18.2444C2.42883 18.2444 1.71659 18.9265 1.71659 19.7778H2.11659C2.11659 19.1589 2.63808 18.6444 3.29148 18.6444V18.2444ZM1.71659 19.7778C1.71659 20.6291 2.42883 21.3111 3.29148 21.3111V20.9111C2.63808 20.9111 2.11659 20.3967 2.11659 19.7778H1.71659ZM3.29148 21.3111H20.7067V20.9111H3.29148V21.3111ZM20.7067 21.3111C21.5693 21.3111 22.2816 20.6291 22.2816 19.7778H21.8816C21.8816 20.3967 21.3601 20.9111 20.7067 20.9111V21.3111Z" fill="#18232D" mask="url(#path-1-outside-1_34856_312688)"/>
<path d="M22.1 3.18189V2.93137L22.0874 2.9446C21.9738 1.80133 21.0517 0.9 19.9256 0.9H16.0736C14.8704 0.9 13.9 1.92904 13.9 3.18274V5.55326C13.9 6.80696 14.8704 7.836 16.0736 7.836C16.1417 7.836 16.2096 7.86145 16.2629 7.90809L16.2631 7.90825L17.3506 8.85534C17.526 9.0186 17.746 9.1 17.9656 9.1C18.181 9.1 18.3946 9.02043 18.5622 8.86461L19.6609 7.9074L19.6611 7.90725C19.6642 7.90446 19.678 7.8957 19.7087 7.88489C19.737 7.87491 19.7719 7.86584 19.8094 7.8582C19.8855 7.84272 19.962 7.83516 20 7.83516C21.2077 7.83516 22.1 6.80122 22.1 5.55242V3.18189ZM21.1 3.18189V3.18193L21.1008 5.55242C21.1008 5.55243 21.1008 5.55244 21.1008 5.55245C21.1008 6.24963 20.6358 6.79305 20.0008 6.79305C19.8505 6.79305 19.6658 6.82045 19.4907 6.87184C19.3174 6.92272 19.1433 7.00011 19.0207 7.10666L17.9405 8.00959L16.9049 7.10737C16.9049 7.10736 16.9049 7.10735 16.9049 7.10734C16.6726 6.90484 16.3774 6.79305 16.0744 6.79305C15.432 6.79305 14.9008 6.24146 14.9008 5.55242V3.18189C14.9008 2.49286 15.432 1.94126 16.0744 1.94126H19.9264C20.5688 1.94126 21.1 2.49286 21.1 3.18189Z" fill="#00C569" stroke="#00C569" stroke-width="0.2"/>
</svg>
