<svg width="32" height="32" viewBox="0 0 32 32" fill="none" xmlns="http://www.w3.org/2000/svg">
<path fill-rule="evenodd" clip-rule="evenodd" d="M4.94288 14.9029C4.41041 14.9762 4 15.4394 4 15.9999C4 16.6113 4.48842 17.1069 5.09091 17.1069H24.2666L17.3396 24.1085L17.2337 24.2324C16.9159 24.6651 16.9499 25.2803 17.3364 25.6741C17.7615 26.1074 18.4523 26.1088 18.8792 25.6774L27.6636 16.7994C27.7159 16.7486 27.7633 16.6925 27.8048 16.632C28.1022 16.1997 28.0603 15.5999 27.6791 15.2147L18.8791 6.32257L18.7565 6.21565C18.3288 5.895 17.7228 5.93206 17.3363 6.32595C16.9112 6.75922 16.9127 7.46019 17.3397 7.89161L24.2683 14.8928L5.09091 14.8928L4.94288 14.9029Z" fill="white"/>
</svg>
