<svg width="100" height="100" viewBox="0 0 100 100" fill="none" xmlns="http://www.w3.org/2000/svg">
<path d="M0 50C0 22.3858 22.3858 0 50 0C77.6142 0 100 22.3858 100 50C100 77.6142 77.6142 100 50 100C22.3858 100 0 77.6142 0 50Z" fill="#F6F6F6"/>
<path fill-rule="evenodd" clip-rule="evenodd" d="M49.2464 20.6875H50.9339H76.0547L50.9536 20.6875C52.5413 20.6901 54.1131 21.0103 55.5792 21.6299C57.0574 22.2546 58.3987 23.1712 59.5253 24.3266L59.5638 24.3788L59.6088 24.4244L59.6537 24.4701L59.6987 24.5157V25.2527L59.7629 25.344C61.7172 27.4539 62.8885 30.1882 63.0763 33.0786V40.9046C63.0657 41.8233 62.7479 42.7111 62.175 43.4222C61.602 44.1332 60.8081 44.6253 59.9234 44.8176C59.5045 46.9739 58.4097 48.9346 56.8026 50.4066C58.2385 51.0399 59.5255 51.9758 60.5784 53.1523C60.8508 53.46 61.0525 53.8253 61.1692 54.2218C62.2831 54.4179 63.3756 54.7237 64.4312 55.1348C67.906 56.4732 70.8981 58.8527 73.0105 61.958C74.6041 64.3005 75.6404 66.9724 76.0547 69.764L76.0547 70.8911C76.0516 70.928 76.0516 70.9651 76.0547 71.002V71.2368V71.5954L76.0547 79.3105H76.0483V74.8497C76.0458 74.8971 76.0331 74.9434 76.0108 74.9851C75.9886 75.0268 75.9575 75.063 75.9198 75.091C75.923 75.1497 75.923 75.2085 75.9198 75.2671V75.3258C75.8791 75.6478 75.806 75.9647 75.7015 76.2715L75.5667 76.6106C75.5677 76.6323 75.5677 76.6541 75.5667 76.6758L75.5666 76.6759C75.5024 76.7998 75.4382 76.9237 75.3676 77.0475L75.3162 77.1323C75.3147 77.1407 75.3139 77.1492 75.3139 77.1577C75.3138 77.1667 75.3146 77.1756 75.3162 77.1845C75.0342 77.6057 74.6848 77.9761 74.2824 78.2801C73.9924 78.5157 73.6754 78.715 73.3384 78.8736L73.0174 79.004L72.7477 79.0888H72.6963C72.5021 79.1411 72.3048 79.1803 72.1055 79.2062H71.9771H71.5726L71.4056 79.3105L28.421 79.3105C28.1886 79.305 27.9569 79.2832 27.7275 79.2453L27.7532 78.8279H27.4257L27.156 78.7497H26.7579H26.7001H26.6616H26.5781H26.4753H26.4175H26.3341H26.302L26.1607 78.6779L25.9359 78.5475C25.8332 78.4823 25.7369 78.4106 25.6406 78.3388C25.1656 77.9521 24.7712 77.4732 24.4801 76.9302C24.1891 76.3872 24.0073 75.7909 23.9453 75.1758C23.9478 75.152 23.9478 75.1279 23.9453 75.1041V72.5215C23.9486 68.7472 25.0817 65.0631 27.1941 61.9579C29.3066 58.8527 32.2987 56.4731 35.7735 55.1348C36.8291 54.7236 37.9216 54.4179 39.0355 54.2218C39.1521 53.8253 39.3539 53.46 39.6263 53.1522C40.6792 51.9758 41.9662 51.0399 43.402 50.4066C41.795 48.9346 40.7002 46.9739 40.2813 44.8176C39.3966 44.6253 38.6027 44.1332 38.0297 43.4222C37.4568 42.7111 37.1389 41.8233 37.1284 40.9046V33.0786C37.3162 30.1881 38.4875 27.4539 40.4418 25.3439L40.506 25.2526V24.5157L40.551 24.47L40.5959 24.4244L40.6409 24.3787L40.6794 24.3266C41.806 23.1712 43.1473 22.2546 44.6255 21.6299C46.0902 21.0109 47.6603 20.6907 49.2464 20.6875ZM39.3566 39.8024C39.5292 39.4914 39.7824 39.2343 40.0886 39.059V42.535C39.6373 42.2688 39.3074 41.8328 39.1703 41.3213C39.0333 40.8099 39.1002 40.2641 39.3566 39.8024ZM47.7044 63.6716L47.0109 62.6608C46.6482 62.9216 46.2411 63.1118 45.8101 63.2217L47.1329 65.3673L47.7044 63.6716ZM42.9782 52.6044V52.7479C42.981 53.3442 43.107 53.9334 43.3481 54.4771C43.5893 55.0209 43.9402 55.5071 44.3781 55.9044L48.4492 59.5826L45.778 61.2978H45.733C45.5921 61.3645 45.4389 61.4 45.2835 61.4021C45.1346 61.3988 44.9882 61.3619 44.855 61.2943C44.7218 61.2266 44.6049 61.1298 44.5129 61.0108C44.5111 60.9978 44.5111 60.9847 44.5129 60.9717L40.9683 55.5848C40.8594 55.4138 40.8014 55.2146 40.8014 55.0109C40.8005 54.7504 40.8917 54.4982 41.0582 54.3C41.6144 53.6438 42.2611 53.0727 42.9782 52.6044ZM48.5327 61.676L49.1941 62.5956H50.7031L51.3581 61.676L49.9454 60.7826L48.5327 61.676ZM48.385 67.3433L49.3739 64.4282H50.5105L51.4994 67.3433L50.716 68.602L50.671 68.6607C50.5876 68.7729 50.48 68.8641 50.3564 68.9274C50.2329 68.9907 50.0966 69.0244 49.9583 69.0259C49.7943 69.0206 49.6348 68.9711 49.4959 68.8824C49.379 68.8102 49.2818 68.7093 49.2134 68.589L48.385 67.3433ZM52.88 62.6543L52.1544 63.6651L52.7323 65.3608L54.0808 63.2151C53.6502 63.104 53.2433 62.9139 52.88 62.6543ZM49.9454 58.513L45.566 54.5544C45.2053 54.2298 44.9505 53.8013 44.8358 53.3258C44.721 52.8504 44.7518 52.3508 44.9239 51.8936C44.9624 51.7958 45.0074 51.698 45.0523 51.6002L45.0523 51.6001C45.1808 51.6718 45.322 51.7501 45.4697 51.8218L45.8486 52.0044C46.2421 52.1818 46.6477 52.33 47.0622 52.4479H47.1072H47.1714L47.4411 52.5196C47.5631 52.5588 47.6915 52.5914 47.8135 52.6175H47.8906H47.9227H47.9997L48.1731 52.6566L48.4749 52.7088L48.8474 52.7479H48.8923C48.9671 52.7546 49.0423 52.7546 49.1171 52.7479H49.1941H49.772H50.2023H50.6453H50.838L51.0884 52.7153C51.2112 52.7153 51.334 52.6882 51.4605 52.6604L51.501 52.6515L51.5379 52.6436H51.6985H51.737H51.8012C51.9896 52.6044 52.1758 52.5588 52.3598 52.5066L52.6552 52.4218H52.6938H52.7837L52.9185 52.3762L53.0598 52.3305H53.1304H53.1625C53.3744 52.2523 53.5928 52.1609 53.8047 52.0631L53.9459 51.9979C54.1193 51.9196 54.2927 51.8349 54.4661 51.737L54.6073 51.6653L54.7036 51.6131C54.7414 51.7258 54.7886 51.8349 54.8449 51.9392C54.9478 52.2096 55.0001 52.4971 54.999 52.787C54.9989 53.129 54.9279 53.4672 54.7907 53.7795C54.6536 54.0919 54.4532 54.3714 54.2028 54.6L49.9454 58.513ZM42.0407 37.7286V42.8154C42.1899 44.8419 43.0884 46.7361 44.5558 48.1175C46.0233 49.499 47.9509 50.2655 49.9518 50.2631H50.594C50.5998 50.2597 50.6065 50.2579 50.6132 50.2579C50.617 50.2579 50.6207 50.2585 50.6243 50.2596C50.6272 50.2604 50.6299 50.2616 50.6325 50.2631H51.1205H51.1655H51.2682H51.3581H51.4609H51.5572H51.8718H51.9104H52.0067H52.058H52.103H52.1929H52.2443H52.2892H52.3855H52.4241L52.5589 50.2175H52.6039C53.6074 49.888 54.537 49.3605 55.3394 48.6653C56.1399 47.9673 56.7949 47.1136 57.2658 46.1545V46.1154L57.3043 46.0306V45.9915V45.9523V45.9197L57.3428 45.8154L57.452 45.5219C57.5937 45.0789 57.701 44.6254 57.7731 44.1654C57.7799 44.1199 57.7872 44.0741 57.7946 44.0281L57.7946 44.028L57.7946 44.028C57.8222 43.8566 57.8501 43.6829 57.8501 43.5133V43.435V43.3372V37.8459H56.6943C55.2165 37.8459 53.7552 37.5301 52.4055 36.9188C51.0558 36.3076 49.8478 35.4147 48.8602 34.2982L48.5006 34.6177C46.7752 36.3949 44.4875 37.4965 42.0407 37.7286ZM54.1257 61.2912L51.4352 59.5761L55.5256 55.9044C55.9646 55.5045 56.3151 55.0147 56.5542 54.4673C56.7933 53.9199 56.9154 53.3272 56.9126 52.7283V52.6109C57.6744 53.0671 58.363 53.639 58.9546 54.3066C59.1278 54.5042 59.2237 54.7594 59.2243 55.0239C59.222 55.2282 59.1618 55.4274 59.0509 55.5979L55.5063 60.9913C55.4173 61.1336 55.2938 61.2503 55.1476 61.3302C55.0015 61.4101 54.8375 61.4506 54.6715 61.4478C54.4785 61.4508 54.2887 61.3964 54.1257 61.2912ZM60.7955 40.5322C60.7615 40.2704 60.6771 40.018 60.5471 39.7894C60.3717 39.4861 60.1216 39.2344 59.8215 39.059V42.535C60.0468 42.4033 60.2443 42.2277 60.4027 42.0183C60.5611 41.809 60.6774 41.57 60.7448 41.315C60.8122 41.06 60.8294 40.794 60.7955 40.5322ZM40.0629 36.9068C39.718 36.9961 39.3873 37.1344 39.0805 37.3177V33.0395C39.0689 30.9875 39.6585 28.9785 40.7744 27.2678C41.8902 25.5572 43.4819 24.2222 45.3468 23.4329C47.2118 22.6435 49.2658 22.4353 51.2475 22.8349C53.2293 23.2344 55.0493 24.2236 56.4759 25.6766L57.3364 26.557L57.5933 26.6222C58.5121 26.8554 59.3276 27.3944 59.9095 28.1533C60.4915 28.9122 60.8064 29.8472 60.8039 30.8091V37.3307C60.4944 37.1485 60.1616 37.0102 59.8151 36.9199V35.7525H56.6943C55.3656 35.7467 54.0562 35.4287 52.8687 34.8234C51.6812 34.2181 50.6477 33.3419 49.8491 32.2634L49.0657 31.1873L47.0943 33.196C46.3089 34.003 45.374 34.6443 44.3436 35.083C43.3133 35.5218 42.2076 35.7493 41.0904 35.7525H40.0629V36.9068ZM66.7501 71.1846V77.4845H71.4056C71.7733 77.4836 72.1372 77.4092 72.4765 77.2655C72.8159 77.1219 73.1241 76.9117 73.3834 76.647C73.6428 76.3824 73.8483 76.0685 73.9883 75.7232C74.1282 75.3778 74.1998 75.0079 74.1989 74.6345V72.4954C74.1949 69.2127 73.2441 66.0031 71.4638 63.2631C69.6835 60.5232 67.1518 58.373 64.1816 57.0783L55.243 71.5563C54.7429 72.3383 54.0866 73.0048 53.3166 73.5128H53.2845C52.2776 74.1714 51.1046 74.5202 49.9069 74.5171C48.8612 74.5159 47.8325 74.2484 46.9149 73.7392C45.9973 73.2299 45.22 72.4951 44.6542 71.602V71.5563L40.6409 65.0347C40.5645 64.884 40.5333 64.714 40.551 64.5455C40.5535 64.3924 40.5928 64.2423 40.6656 64.1081C40.7383 63.974 40.8423 63.86 40.9684 63.776H41.0069C41.1378 63.6988 41.2858 63.6562 41.4371 63.6521C41.5887 63.6542 41.7373 63.6947 41.8696 63.7698C42.0019 63.845 42.1137 63.9524 42.1948 64.0825L46.1953 70.5585C46.5404 71.1197 47.0057 71.5945 47.5567 71.9476L47.653 72.0063C48.3452 72.4354 49.1409 72.6611 49.9518 72.6585C50.6794 72.6536 51.3949 72.4695 52.0369 72.1219C52.6789 71.7743 53.2282 71.2736 53.6377 70.6628C53.6589 70.6223 53.6825 70.5831 53.7083 70.5455L62.4478 56.4131C61.9213 56.2565 61.3883 56.1196 60.8425 56.0152C60.7661 56.2236 60.667 56.4227 60.5471 56.6087C60.5471 56.61 60.532 56.6318 60.498 56.681L60.4978 56.6812C60.1926 57.1219 58.3667 59.7585 52.1993 69.5998C51.9888 69.9543 51.7037 70.2572 51.3645 70.4868L51.249 70.552C50.8571 70.7777 50.4152 70.8989 49.9647 70.9041H49.9326C49.4873 70.901 49.0495 70.787 48.6577 70.5721C48.2659 70.3572 47.9319 70.048 47.6851 69.6716L47.6337 69.5868C42.3947 61.1997 40.4588 58.3149 39.6795 57.1537L39.6795 57.1537C39.1626 56.3835 39.1546 56.3715 39.0291 56.0152C38.4896 56.1193 37.9559 56.2521 37.4302 56.4131L39.8767 60.4239C39.9628 60.5699 40.0093 60.7363 40.0116 60.9065C40.0116 61.0626 39.9728 61.2163 39.8987 61.3531C39.8246 61.4899 39.7176 61.6055 39.5878 61.6891C39.4523 61.7722 39.2965 61.8151 39.1383 61.813C39.0038 61.8125 38.8712 61.7804 38.7509 61.7193C38.6306 61.6583 38.5258 61.5698 38.4448 61.4608L38.4126 61.4152L35.7093 57.0522C32.7372 58.3511 30.2051 60.506 28.4259 63.2507C26.6467 65.9953 25.6984 69.2094 25.6983 72.4954V74.641C25.6966 75.3923 25.9884 76.1136 26.5097 76.6467C27.0309 77.1797 27.7391 77.481 28.4788 77.4845H33.1471V71.1911C33.1387 71.0712 33.1536 70.9508 33.191 70.8367C33.2284 70.7227 33.2875 70.6172 33.365 70.5264C33.4425 70.4356 33.5369 70.3611 33.6428 70.3073C33.7486 70.2535 33.8638 70.2214 33.9819 70.2129C34.1 70.2043 34.2185 70.2194 34.3308 70.2574C34.4431 70.2954 34.547 70.3554 34.6364 70.4342C34.7258 70.5129 34.7991 70.6087 34.8521 70.7162C34.9051 70.8237 34.9367 70.9408 34.9451 71.0607V77.478H64.9522V71.1846C64.9522 70.9424 65.0469 70.7102 65.2155 70.539C65.3841 70.3677 65.6127 70.2715 65.8511 70.2715C66.0896 70.2715 66.3182 70.3677 66.4868 70.539C66.6554 70.7102 66.7501 70.9424 66.7501 71.1846Z" fill="url(#paint0_linear_6149_73655)"/>
<defs>
<linearGradient id="paint0_linear_6149_73655" x1="71.1957" y1="24.5962" x2="18.2475" y2="69.2494" gradientUnits="userSpaceOnUse">
<stop stop-color="#15BF81"/>
<stop offset="1" stop-color="#0B6041"/>
</linearGradient>
</defs>
</svg>
