<svg width="100" height="100" viewBox="0 0 100 100" fill="none" xmlns="http://www.w3.org/2000/svg">
<path d="M0 50C0 22.3858 22.3858 0 50 0C77.6142 0 100 22.3858 100 50C100 77.6142 77.6142 100 50 100C22.3858 100 0 77.6142 0 50Z" fill="#F6F6F6"/>
<path d="M66.7779 59.1989L63.3669 58.165L55.9441 53.1609V52.0142C57.0389 51.1645 57.9506 50.089 58.6213 48.856C59.2919 47.623 59.7068 46.2595 59.8396 44.8522C60.3703 44.7628 60.853 44.4817 61.2016 44.059C61.5502 43.6363 61.7419 43.0995 61.7427 42.5444V39.3934C61.7427 39.3811 61.7427 39.3694 61.7427 39.3571V35.3616C61.9604 35.2008 62.1377 34.9885 62.2598 34.7425C62.3819 34.4966 62.4452 34.224 62.4445 33.9476V30.292L67.5658 29.3918C67.9662 29.3205 68.3319 29.1126 68.6044 28.8014C68.8768 28.4901 69.0403 28.0936 69.0686 27.6751C69.0969 27.2566 68.9884 26.8405 68.7605 26.4932C68.5326 26.1459 68.1984 25.8876 67.8115 25.7595L50.5469 20.0887C50.1889 19.9704 49.8041 19.9704 49.4462 20.0887L32.1804 25.7576C31.8652 25.8621 31.5836 26.0533 31.3657 26.3106C31.1479 26.5679 31.0021 26.8816 30.9439 27.2181C30.8858 27.5545 30.9175 27.9009 31.0357 28.2201C31.154 28.5393 31.3542 28.8193 31.6149 29.0298V33.8095H31.5728C31.105 33.81 30.6565 34.0022 30.3258 34.3438C29.9951 34.6854 29.8093 35.1485 29.8091 35.6314V38.0041L28.6707 44.8995C28.6244 45.1801 28.638 45.4678 28.7106 45.7424C28.7831 46.0171 28.9129 46.272 29.0907 46.4896C29.2686 46.7071 29.4903 46.8819 29.7404 47.0018C29.9904 47.1218 30.2629 47.1839 30.5386 47.1839H34.3926C34.6684 47.1838 34.9408 47.1216 35.1909 47.0016C35.441 46.8816 35.6627 46.7067 35.8405 46.4891C36.0184 46.2715 36.1481 46.0165 36.2206 45.7419C36.2932 45.4672 36.3068 45.1795 36.2606 44.8989L35.1227 38.0028V35.6314C35.122 35.149 34.9361 34.6864 34.6056 34.3453C34.2751 34.0041 33.8271 33.8121 33.3597 33.8114H33.3176V29.55L37.5511 30.2946V33.945C37.5505 34.2207 37.6136 34.4925 37.7351 34.738C37.8566 34.9834 38.0331 35.1954 38.2498 35.3564V39.3902V42.5431C38.2504 43.0983 38.4421 43.6351 38.7907 44.0579C39.1393 44.4806 39.6221 44.7617 40.1529 44.8509C40.2861 46.2578 40.7011 47.6208 41.3717 48.8532C42.0423 50.0857 42.9539 51.1608 44.0484 52.0103V53.1635L36.6294 58.167L33.2208 59.1995C31.425 59.7434 29.8482 60.8735 28.7268 62.4203C27.6054 63.9671 26.9998 65.8474 27.0006 67.7794V70.3972C27.0006 70.6303 27.0903 70.8539 27.25 71.0187C27.4096 71.1835 27.6262 71.2761 27.852 71.2761C28.0778 71.2761 28.2943 71.1835 28.454 71.0187C28.6136 70.8539 28.7033 70.6303 28.7033 70.3972V67.7794C28.7094 66.2286 29.1987 64.7209 30.0991 63.4795C30.9995 62.238 32.263 61.3287 33.7027 60.8859L36.8788 59.9234L49.5662 67.7068C49.6981 67.7864 49.8481 67.8284 50.0009 67.8284C50.1538 67.8284 50.3038 67.7864 50.4357 67.7068L63.1243 59.9234L66.2998 60.8859C67.7394 61.3289 69.0027 62.2383 69.9029 63.4797C70.8031 64.7212 71.2925 66.2287 71.2986 67.7794V76.2679C71.2979 76.7913 71.0962 77.2931 70.7376 77.6632C70.3791 78.0333 69.893 78.2416 69.386 78.2423H65.6331V74.4543C65.6331 74.3389 65.6111 74.2246 65.5683 74.118C65.5256 74.0114 65.4628 73.9145 65.3838 73.8329C65.3047 73.7513 65.2109 73.6865 65.1076 73.6424C65.0043 73.5982 64.8936 73.5755 64.7818 73.5755C64.67 73.5755 64.5593 73.5982 64.456 73.6424C64.3527 73.6865 64.2589 73.7513 64.1798 73.8329C64.1007 73.9145 64.038 74.0114 63.9952 74.118C63.9525 74.2246 63.9304 74.3389 63.9304 74.4543V78.2455H36.0652V74.4543C36.0652 74.3389 36.0431 74.2246 36.0004 74.118C35.9576 74.0114 35.8949 73.9145 35.8158 73.8329C35.7368 73.7513 35.6429 73.6865 35.5396 73.6424C35.4363 73.5982 35.3256 73.5755 35.2138 73.5755C35.102 73.5755 34.9913 73.5982 34.888 73.6424C34.7847 73.6865 34.6909 73.7513 34.6118 73.8329C34.5328 73.9145 34.4701 74.0114 34.4273 74.118C34.3845 74.2246 34.3625 74.3389 34.3625 74.4543V78.2455H30.614C30.1066 78.2445 29.6204 78.0356 29.2621 77.6649C28.9037 77.2941 28.7025 76.7916 28.7027 76.2679V74.5075C28.7027 74.2744 28.613 74.0509 28.4533 73.8861C28.2937 73.7212 28.0771 73.6287 27.8514 73.6287C27.6256 73.6287 27.409 73.7212 27.2494 73.8861C27.0897 74.0509 27 74.2744 27 74.5075V76.2679C27.0012 77.2573 27.3824 78.2059 28.0602 78.9056C28.7379 79.6052 29.6568 79.9988 30.6153 80H69.3847C70.3432 79.9988 71.2621 79.6052 71.9398 78.9056C72.6176 78.2059 72.9988 77.2573 73 76.2679V67.7788C73.0008 65.8468 72.3951 63.9665 71.2737 62.4197C70.1523 60.8729 68.5756 59.7429 66.7798 59.1989H66.7779ZM34.3926 45.4255H30.5392C30.5113 45.4255 30.4838 45.4192 30.4585 45.407C30.4332 45.3948 30.4108 45.377 30.3929 45.355C30.3749 45.3329 30.3618 45.3071 30.3546 45.2793C30.3473 45.2515 30.346 45.2224 30.3507 45.194L31.3805 38.9556H33.5545L34.5843 45.194C34.5891 45.2224 34.5879 45.2516 34.5807 45.2795C34.5734 45.3074 34.5604 45.3333 34.5424 45.3554C34.5245 45.3776 34.502 45.3954 34.4767 45.4076C34.4514 45.4198 34.4237 45.4262 34.3958 45.4262L34.3926 45.4255ZM33.42 35.6314V37.1998H31.5118V35.6314C31.5118 35.6142 31.5185 35.5977 31.5303 35.5856C31.542 35.5734 31.558 35.5666 31.5747 35.5666H33.3616C33.3775 35.5677 33.3923 35.5751 33.4032 35.5871C33.414 35.5992 33.42 35.615 33.42 35.6314ZM46.9537 63.7327L47.2923 64.2704L38.6004 58.9388L44.1175 55.2196C44.3682 58.2548 45.3426 61.1787 46.9537 63.7308V63.7327ZM46.948 59.939C48.9719 60.233 51.0256 60.233 53.0495 59.939C52.6603 60.9291 52.1804 61.8787 51.6163 62.7747L49.9984 65.338L48.3805 62.7715C47.8165 61.8755 47.3366 60.9259 46.9474 59.9357L46.948 59.939ZM53.0426 63.7327C54.6542 61.1802 55.6288 58.2555 55.8794 55.2196L61.3965 58.9394L52.7039 64.2685L53.0426 63.7327ZM58.0225 35.6905H60.0406V38.5145H59.0391C58.7696 38.5142 58.5112 38.4035 58.3206 38.2068C58.13 38.01 58.0228 37.7433 58.0225 37.4651V35.6885V35.6905ZM32.6962 27.4329L49.9626 21.7634C49.9849 21.756 50.0088 21.756 50.0311 21.7634L67.2975 27.4329C67.3105 27.4349 67.323 27.4397 67.3341 27.4469C67.3452 27.4541 67.3548 27.4636 67.3622 27.4748C67.3696 27.486 67.3746 27.4987 67.377 27.512C67.3794 27.5254 67.3791 27.5391 67.3761 27.5523C67.3698 27.6437 67.3195 27.6522 67.2824 27.6593L61.5737 28.6627L59.4305 28.389C59.2064 28.3604 58.9805 28.425 58.8024 28.5684C58.6244 28.7118 58.5088 28.9224 58.4812 29.1537C58.4535 29.3851 58.516 29.6183 58.6549 29.8021C58.7938 29.9859 58.9978 30.1052 59.2219 30.1338L60.7443 30.3284V33.9314H39.2563V30.3277L48.0664 29.2024C49.3504 29.0386 50.649 29.0386 51.933 29.2024L55.2674 29.6279C55.3784 29.642 55.491 29.6335 55.5987 29.6028C55.7065 29.572 55.8074 29.5197 55.8956 29.4487C55.9838 29.3777 56.0575 29.2895 56.1127 29.1891C56.1679 29.0887 56.2033 28.978 56.2171 28.8635C56.2308 28.7489 56.2226 28.6327 56.1928 28.5214C56.163 28.4101 56.1123 28.306 56.0435 28.215C55.9748 28.1239 55.8893 28.0478 55.792 27.9908C55.6948 27.9339 55.5876 27.8973 55.4766 27.8831L52.1384 27.4589C50.7157 27.2774 49.2768 27.2774 47.854 27.4589L38.4219 28.6627L32.7113 27.6587C32.6742 27.6522 32.6239 27.6431 32.6177 27.5516C32.6147 27.5384 32.6143 27.5247 32.6167 27.5114C32.6191 27.4981 32.6242 27.4854 32.6315 27.4742C32.6389 27.4629 32.6485 27.4534 32.6596 27.4462C32.6707 27.439 32.6832 27.4349 32.6962 27.4329ZM39.9531 38.5126V35.6885H41.9744V37.4631C41.9743 37.6012 41.9478 37.7379 41.8965 37.8654C41.8452 37.9929 41.77 38.1087 41.6753 38.2062C41.5806 38.3037 41.4682 38.3809 41.3445 38.4335C41.2209 38.486 41.0884 38.5129 40.9546 38.5126H39.9493H39.9531ZM41.8267 44.4007C41.8057 44.0559 41.6585 43.7321 41.4149 43.4951C41.1713 43.2581 40.8495 43.1255 40.5148 43.1243C40.3661 43.1232 40.2238 43.0618 40.1187 42.9533C40.0136 42.8448 39.9541 42.6979 39.9531 42.5444V40.2703H40.9584C41.6793 40.2695 42.3705 39.9735 42.8803 39.4472C43.3901 38.9209 43.6769 38.2074 43.6777 37.4631V35.6885H56.3223V37.4631C56.3231 38.2074 56.6099 38.9209 57.1197 39.4472C57.6295 39.9735 58.3207 40.2695 59.0416 40.2703H60.0469V42.5444C60.0459 42.6979 59.9864 42.8448 59.8813 42.9533C59.7762 43.0618 59.6339 43.1232 59.4852 43.1243C59.1499 43.1247 58.8274 43.2569 58.5831 43.494C58.3389 43.7311 58.1912 44.0553 58.1702 44.4007C58.0363 46.544 57.1172 48.5542 55.5995 50.0232C54.0819 51.4921 52.0795 52.3097 49.9991 52.3097C47.9186 52.3097 45.9162 51.4921 44.3986 50.0232C42.8809 48.5542 41.9618 46.544 41.828 44.4007H41.8267ZM49.9984 54.0729C51.4669 54.0731 52.9167 53.7335 54.2414 53.0792V53.6364C54.2412 55.1277 54.048 56.6123 53.6671 58.0508C51.242 58.5154 48.7548 58.5154 46.3298 58.0508C45.9488 56.6123 45.7557 55.1277 45.7555 53.6364C45.7555 53.6176 45.7555 53.5994 45.7517 53.5812C45.7517 53.5773 45.7517 53.5741 45.7517 53.5702V53.0792C47.0774 53.7345 48.5286 54.0745 49.9984 54.0742V54.0729Z" fill="url(#paint0_linear_6149_73653)"/>
<defs>
<linearGradient id="paint0_linear_6149_73653" x1="63.938" y1="20" x2="3.8841" y2="77.1872" gradientUnits="userSpaceOnUse">
<stop stop-color="#15BF81"/>
<stop offset="1" stop-color="#0B6041"/>
</linearGradient>
</defs>
</svg>
