<svg width="100" height="100" viewBox="0 0 100 100" fill="none" xmlns="http://www.w3.org/2000/svg">
<path d="M0 50C0 22.3858 22.3858 0 50 0C77.6142 0 100 22.3858 100 50C100 77.6142 77.6142 100 50 100C22.3858 100 0 77.6142 0 50Z" fill="#F6F6F6"/>
<path d="M68.3659 59.6282V53.3823L65.73 54.4076L65.7223 54.3904L65.6593 54.2764C65.157 53.4964 64.5 52.8277 63.7289 52.3117C62.9579 51.7957 62.0892 51.4433 61.1766 51.2764L54.8344 50.1221V49.6213C56.0279 48.9306 57.0602 47.993 57.862 46.8712C58.6639 45.7494 59.2169 44.4692 59.4841 43.1164C60.3544 42.935 61.1358 42.4597 61.6971 41.7703C62.2584 41.081 62.5655 40.2194 62.5667 39.3304V29.7845C62.5685 28.4778 62.1479 27.2056 61.3675 26.1575C60.5872 25.1094 59.4889 24.3416 58.2366 23.9687L57.7536 23.4857C56.0892 21.8213 53.9686 20.6879 51.66 20.2287C49.3513 19.7695 46.9584 20.0052 44.7838 20.9059C42.6091 21.8067 40.7504 23.3321 39.4426 25.2892C38.1349 27.2464 37.4369 29.5473 37.4368 31.9012V39.331C37.438 40.22 37.745 41.0814 38.3061 41.7708C38.8673 42.4601 39.6486 42.9355 40.5188 43.117C40.786 44.4698 41.339 45.75 42.1409 46.8718C42.9427 47.9936 43.975 48.9312 45.1685 49.6219V50.1227L38.8293 51.2752C37.9173 51.4421 37.0491 51.7942 36.2785 52.3097C35.5078 52.8251 34.8509 53.493 34.3483 54.2722L34.2889 54.4136L31.6376 53.3823V59.6282C30.8696 59.6303 30.1337 59.9365 29.591 60.48C29.0484 61.0235 28.7431 61.7598 28.7422 62.5278V66.3963C28.7431 67.1651 29.0489 67.902 29.5925 68.4456C30.1361 68.9892 30.8731 69.295 31.6418 69.2959V72.8567L50.0059 79.9997L68.3659 72.8543V69.2935C69.1346 69.2926 69.8716 68.9868 70.4151 68.4432C70.9587 67.8997 71.2645 67.1627 71.2654 66.3939V62.5278C71.2645 61.7591 70.9587 61.0221 70.4151 60.4785C69.8716 59.935 69.1346 59.6292 68.3659 59.6282ZM56.6475 52.417L60.8326 53.1773C62.0633 53.4079 63.1568 54.1063 63.8837 55.1259L54.5326 58.7621L56.6475 52.417ZM47.1859 50.5082C49.0221 51.0701 50.9843 51.0701 52.8205 50.5082L50.0029 52.6213L47.1859 50.5082ZM48.532 53.9336L46.5592 55.9053L45.2796 52.067L45.895 51.956L48.532 53.9336ZM54.1085 51.9566L54.7239 52.0676L53.4443 55.9059L51.4714 53.9342L54.1085 51.9566ZM59.6659 40.995V37.6683C59.9589 37.836 60.2025 38.0781 60.3719 38.3702C60.5413 38.6623 60.6305 38.994 60.6305 39.3316C60.6305 39.6693 60.5413 40.001 60.3719 40.293C60.2025 40.5851 59.9589 40.8273 59.6659 40.995ZM40.3352 40.995C40.0422 40.8273 39.7986 40.5851 39.6292 40.293C39.4598 40.001 39.3706 39.6693 39.3706 39.3316C39.3706 38.994 39.4598 38.6623 39.6292 38.3702C39.7986 38.0781 40.0422 37.836 40.3352 37.6683V40.995ZM40.3352 34.4978V35.6015C39.9963 35.6902 39.6711 35.8249 39.3687 36.0019V31.9029C39.3676 29.9306 39.9518 28.0023 41.0471 26.3621C42.1424 24.7218 43.6998 23.4434 45.522 22.6887C47.3442 21.9339 49.3494 21.7367 51.2837 22.122C53.218 22.5073 54.9946 23.4578 56.3885 24.8532L57.2409 25.7069L57.5011 25.7705C58.397 25.9931 59.1924 26.5094 59.7605 27.237C60.3286 27.9645 60.6366 28.8614 60.6354 29.7845V36.0025C60.3332 35.8251 60.0079 35.6904 59.6688 35.6021V34.4954H56.6035C55.3053 34.4924 54.0254 34.1889 52.8642 33.6085C51.703 33.0282 50.6919 32.1868 49.9103 31.1503L49.1421 30.1237L47.2215 32.0449C46.4461 32.824 45.524 33.4417 44.5084 33.8622C43.4928 34.2827 42.4039 34.4977 41.3047 34.4948L40.3352 34.4978ZM42.2683 41.2635V36.3863C44.6571 36.1675 46.8931 35.1161 48.5855 33.416L48.9615 33.04C49.9292 34.1054 51.1083 34.9574 52.4237 35.5416C53.7391 36.1257 55.1619 36.4292 56.6011 36.4326H57.7328V41.2653C57.7328 43.316 56.9182 45.2827 55.4681 46.7328C54.018 48.1829 52.0513 48.9976 50.0005 48.9976C47.9498 48.9976 45.9831 48.1829 44.533 46.7328C43.0829 45.2827 42.2683 43.316 42.2683 41.2653V41.2635ZM39.1744 53.1773L43.3596 52.417L45.4744 58.7621L36.121 55.1253C36.8484 54.1053 37.9429 53.4071 39.1744 53.1773ZM30.6729 66.3963V62.5278C30.6732 62.2716 30.7751 62.0259 30.9563 61.8447C31.1375 61.6635 31.3832 61.5616 31.6394 61.5613C32.0202 61.5613 32.3972 61.6363 32.749 61.782C33.1008 61.9277 33.4205 62.1413 33.6897 62.4106C33.959 62.6798 34.1726 62.9995 34.3183 63.3513C34.464 63.703 34.539 64.0801 34.539 64.4609C34.539 64.8417 34.464 65.2187 34.3183 65.5705C34.1726 65.9223 33.959 66.242 33.6897 66.5112C33.4205 66.7805 33.1008 66.994 32.749 67.1398C32.3972 67.2855 32.0202 67.3605 31.6394 67.3605C31.3836 67.3602 31.1383 67.2586 30.9572 67.0779C30.776 66.8972 30.6738 66.6522 30.6729 66.3963ZM49.037 77.548L33.5725 71.5331V68.8836C34.4339 68.5089 35.1672 67.8907 35.6822 67.105C36.1972 66.3193 36.4716 65.4003 36.4716 64.4609C36.4716 63.5214 36.1972 62.6024 35.6822 61.8168C35.1672 61.0311 34.4339 60.4129 33.5725 60.0381V56.2088L49.037 62.2225V77.548ZM46.1671 59.03L50.0035 55.193L53.8399 59.0294L50.0035 60.5217L46.1671 59.03ZM66.4346 71.529L50.9701 77.545V62.2225L66.4346 56.2088V60.0399C65.5731 60.4147 64.8399 61.0329 64.3248 61.8185C63.8098 62.6042 63.5355 63.5232 63.5355 64.4627C63.5355 65.4021 63.8098 66.3211 64.3248 67.1068C64.8399 67.8925 65.5731 68.5107 66.4346 68.8854V71.529ZM69.3342 66.3963C69.3332 66.6525 69.2308 66.8978 69.0493 67.0785C68.8678 67.2592 68.622 67.3606 68.3659 67.3605C67.9851 67.3605 67.608 67.2855 67.2562 67.1398C66.9044 66.994 66.5848 66.7805 66.3155 66.5112C66.0463 66.242 65.8327 65.9223 65.687 65.5705C65.5413 65.2187 65.4663 64.8417 65.4663 64.4609C65.4663 64.0801 65.5413 63.703 65.687 63.3513C65.8327 62.9995 66.0463 62.6798 66.3155 62.4106C66.5848 62.1413 66.9044 61.9277 67.2562 61.782C67.608 61.6363 67.9851 61.5613 68.3659 61.5613C68.6221 61.5616 68.8678 61.6635 69.0489 61.8447C69.2301 62.0259 69.3321 62.2716 69.3324 62.5278L69.3342 66.3963Z" fill="url(#paint0_linear_6149_73650)"/>
<defs>
<linearGradient id="paint0_linear_6149_73650" x1="61.8253" y1="20" x2="2.6845" y2="69.1543" gradientUnits="userSpaceOnUse">
<stop stop-color="#15BF81"/>
<stop offset="1" stop-color="#0B6041"/>
</linearGradient>
</defs>
</svg>
