<svg width="166" height="169" viewBox="0 0 166 169" fill="none" xmlns="http://www.w3.org/2000/svg">
<path d="M122.637 129.941C122.067 130.51 121.376 130.939 120.571 131.233L119.758 131.478C119.758 131.478 10.1551 175.77 1.63277 167.203C-6.88956 158.636 37.7313 49.0225 37.7313 49.0225L37.9784 48.2093C38.2749 47.4035 38.7062 46.7135 39.2762 46.1445C46.0941 39.3406 70.2839 52.5822 93.303 75.7217C116.322 98.8612 129.455 123.138 122.637 129.941Z" fill="url(#paint0_linear_20942_162229)"/>
<path d="M115.82 133.05C110.051 135.341 98.5018 139.875 84.864 144.951C76.5228 148.057 67.3999 151.365 58.3408 154.482C50.4244 157.207 42.5554 159.792 35.3046 161.969C30.3228 157.776 25.372 153.228 20.5218 148.352C15.6715 143.477 11.1491 138.502 6.98047 133.497C9.18107 126.243 11.7902 118.37 14.5397 110.452C17.6853 101.39 21.0213 92.2645 24.1523 83.9218C29.2698 70.2809 33.8394 58.73 36.1474 52.9609C50.8534 60.9482 66.5679 72.7605 81.3649 87.6349C96.1622 102.51 107.899 118.292 115.82 133.05Z" fill="url(#paint1_linear_20942_162229)"/>
<path d="M122.634 129.94C122.065 130.511 121.373 130.938 120.567 131.234L119.756 131.477C119.756 131.477 118.339 132.049 115.815 133.052C110.047 135.342 98.4976 139.877 84.8597 144.953C76.5186 148.058 67.3956 151.366 58.3366 154.484C50.4627 148.536 42.5706 141.664 34.9237 133.977C27.2768 126.29 20.4454 118.361 14.5352 110.453C17.6807 101.391 21.0167 92.2659 24.1477 83.9232C29.2652 70.2824 33.8348 58.7314 36.1428 52.9624C37.1526 50.4389 37.7296 49.0219 37.7296 49.0219L37.9747 48.2094C38.2735 47.4039 38.7022 46.7122 39.2742 46.1446C46.0924 39.3404 70.2799 52.5829 93.3007 75.7204C116.318 98.8623 129.452 123.136 122.634 129.94Z" fill="url(#paint2_linear_20942_162229)"/>
<path d="M122.634 129.94C122.065 130.511 121.373 130.938 120.568 131.234L119.756 131.476C119.756 131.476 118.339 132.049 115.816 133.051C110.048 135.342 98.4979 139.877 84.8601 144.952C73.7596 137.63 62.3886 128.351 51.5151 117.421C40.6416 106.49 31.4184 95.0676 24.1484 83.9232C29.2659 70.2824 33.8355 58.7314 36.1435 52.9624C37.1533 50.4389 37.7303 49.0219 37.7303 49.0219L37.9754 48.2094C38.2742 47.4039 38.7029 46.7122 39.2749 46.1446C46.0931 39.3404 70.2806 52.5829 93.3014 75.7205C116.319 98.862 129.452 123.136 122.634 129.94Z" fill="url(#paint3_linear_20942_162229)"/>
<path d="M122.639 129.942C115.82 136.747 91.6304 123.506 68.6113 100.366C45.5922 77.2259 32.4591 52.9508 39.2784 46.1452C46.0976 39.3397 70.2871 52.5815 93.3062 75.7214C116.325 98.8613 129.458 123.137 122.639 129.942Z" fill="url(#paint4_linear_20942_162229)"/>
<path d="M118.379 123.699C113.341 128.727 92.9383 116.398 72.808 96.1625C52.6778 75.9269 40.4428 55.4472 45.4806 50.4197C50.5184 45.3921 70.9214 57.7209 91.0517 77.9564C111.182 98.192 123.417 118.672 118.379 123.699Z" fill="url(#paint5_linear_20942_162229)"/>
<path d="M122.642 129.939C129.46 123.135 116.328 98.8596 93.3084 75.72C79.8106 62.1518 65.9121 51.9895 55.3477 47.2734C55.7602 48.0338 56.2205 48.7875 56.7348 49.5306C57.5707 50.7384 58.5492 51.8393 59.651 52.8319L65.4963 58.727C64.8225 59.0333 64.2034 59.2755 63.6828 59.4593C62.7507 59.7883 62.2051 60.7539 62.4002 61.7241L64.4687 72.0148C64.6515 72.9246 65.2887 73.6156 66.0851 73.9176L122.203 130.329C122.357 130.208 122.503 130.078 122.642 129.939Z" fill="url(#paint6_linear_20942_162229)"/>
<path d="M85.3199 97.9651L91.0601 104.838L117.8 131.717C119.843 131.66 121.486 131.084 122.634 129.939C128.593 123.992 119.315 104.705 101.519 84.4922C95.974 86.8118 90.6875 89.8481 85.8056 93.5814C84.4263 94.6354 84.2066 96.6322 85.3199 97.9651Z" fill="url(#paint7_linear_20942_162229)"/>
<path d="M91.0601 104.837L85.3199 97.9643C84.2066 96.6315 84.4264 94.635 85.8053 93.5803C103.595 79.9771 126.735 75.5587 148.346 81.7841C153.785 83.3507 158.993 85.5474 163.868 88.3284C165.376 89.1887 165.859 91.1393 164.933 92.6091L160.157 100.186C159.291 101.56 157.505 102.009 156.09 101.215C152.348 99.1154 148.358 97.4492 144.192 96.2493C127.291 91.3808 109.203 94.7779 95.2267 105.315C93.9312 106.291 92.1003 106.083 91.0601 104.837Z" fill="url(#paint8_linear_20942_162229)"/>
<path d="M41.461 33.4876L36.249 28.1162C33.8866 25.6815 33.1753 21.7624 34.5548 18.7825C36.1564 15.3225 40.0001 14.3084 43.0959 16.5289C45.7624 18.4416 47.0711 22.2029 46.2128 25.4874L44.3196 32.7335C43.9852 34.0139 42.3822 34.437 41.461 33.4876Z" fill="url(#paint9_linear_20942_162229)"/>
<path d="M32.2366 39.3143L24.8358 38.2372C21.4814 37.7491 18.5326 35.0761 17.813 31.8715C16.9774 28.1505 19.4077 25.0003 23.2131 24.8713C26.4908 24.76 29.8172 26.943 31.1355 30.071L34.0438 36.9717C34.5581 38.191 33.5443 39.5047 32.2366 39.3143Z" fill="url(#paint10_linear_20942_162229)"/>
<path d="M131.331 125.481L138.779 124.805C142.155 124.5 145.643 126.413 147.087 129.362C148.763 132.786 147.13 136.416 143.459 137.428C140.297 138.299 136.555 136.95 134.547 134.215L130.117 128.18C129.334 127.113 130.015 125.6 131.331 125.481Z" fill="url(#paint11_linear_20942_162229)"/>
<path d="M132.609 114.64L138.103 109.558C140.593 107.254 144.523 106.642 147.462 108.099C150.875 109.791 151.789 113.665 149.494 116.709C147.517 119.33 143.729 120.544 140.473 119.601L133.289 117.521C132.02 117.153 131.638 115.537 132.609 114.64Z" fill="url(#paint12_linear_20942_162229)"/>
<path d="M67.7648 73.9605C66.3075 74.4311 64.7675 73.517 64.4654 72.0135L62.3969 61.7228C62.2018 60.7523 62.7475 59.787 63.6796 59.458C64.7688 59.0736 66.2825 58.4409 67.8472 57.4774C63.1214 55.9148 59.2761 53.2055 56.7318 49.5293C51.9352 42.5984 51.5593 34.786 55.7256 28.6311C59.8484 22.5407 67.4663 19.5694 74.6835 21.2382C82.5736 23.0624 88.1158 29.9769 89.5088 39.735C89.5668 40.1412 89.6182 40.5454 89.6627 40.948C91.5984 39.8122 93.1624 38.411 94.142 36.8425C96.6217 32.8729 96.8569 26.9488 94.7423 21.7503C93.4 18.451 91.3279 15.9278 88.9909 14.6587C87.9484 14.0927 87.3929 12.9182 87.6723 11.7642L90.0419 1.97745C90.405 0.478589 91.999 -0.384028 93.4372 0.16773C100.069 2.71169 105.526 8.36953 108.659 16.0704C112.597 25.7486 111.916 36.7666 106.882 44.8252C102.9 51.2008 95.5551 55.9564 87.0624 57.9667C85.1548 61.9617 82.2998 65.4712 78.5553 68.3465C74.5567 71.4162 70.4141 73.1051 67.7648 73.9605ZM70.7103 35.838C69.7275 35.8363 68.6722 36.3264 68.1641 37.0775C67.405 38.1988 68.4139 39.9884 69.0827 40.955C70 42.2806 72.1357 43.2696 74.8259 43.7124C74.787 43.1125 74.7224 42.497 74.6321 41.8654C74.1521 38.5034 72.9076 36.2749 71.3031 35.904C71.1123 35.8598 70.913 35.8383 70.7103 35.838Z" fill="url(#paint13_radial_20942_162229)"/>
<path d="M100.435 51.7736L89.6631 40.9453C89.6631 40.9453 90.351 51.401 87.0625 57.9644C92.0709 56.779 96.6794 54.638 100.435 51.7736Z" fill="url(#paint14_linear_20942_162229)"/>
<path d="M69.0815 40.9598C68.5915 40.2516 67.922 39.1029 67.8957 38.0977L52.8477 38.0703C52.871 41.8854 54.1708 45.8352 56.7306 49.5342C59.2748 53.2107 63.1199 55.92 67.8459 57.4822C67.8459 57.4822 75.5584 55.1389 74.825 43.7173C72.1344 43.2744 69.9987 42.2854 69.0815 40.9598Z" fill="url(#paint15_linear_20942_162229)"/>
<path d="M100.989 75.2364C97.4962 77.5163 94.5154 80.5197 92.2585 84.0328C91.7507 84.8229 90.5794 84.8209 90.0747 84.0289C87.8303 80.5075 84.861 77.4932 81.3757 75.2004C80.6021 74.6916 80.6044 73.5342 81.3797 73.0284C84.8728 70.7484 87.8533 67.7451 90.1106 64.2319C90.618 63.4419 91.7896 63.4439 92.2944 64.2359C94.5388 67.7573 97.5084 70.7715 100.993 73.0643C101.767 73.5732 101.765 74.7305 100.989 75.2364Z" fill="url(#paint16_linear_20942_162229)"/>
<path d="M164.868 70.627C161.375 72.907 158.394 75.9103 156.137 79.4235C155.63 80.2135 154.458 80.2115 153.954 79.4195C151.709 75.8981 148.74 72.8839 145.255 70.591C144.481 70.0822 144.483 68.9249 145.259 68.419C148.752 66.139 151.732 63.1357 153.989 59.6225C154.497 58.8325 155.669 58.8345 156.173 59.6265C158.418 63.1479 161.387 66.1621 164.872 68.455C165.646 68.9635 165.644 70.1208 164.868 70.627Z" fill="url(#paint17_linear_20942_162229)"/>
<path d="M134.95 19.5333C131.457 21.8132 128.476 24.8165 126.219 28.3297C125.712 29.1197 124.54 29.1178 124.036 28.3258C121.791 24.8043 118.822 21.7901 115.337 19.4973C114.563 18.9884 114.565 17.8311 115.341 17.3252C118.834 15.0453 121.814 12.0419 124.072 8.52878C124.579 7.73876 125.751 7.74074 126.255 8.53274C128.5 12.0542 131.469 15.0684 134.954 17.3612C135.728 17.8701 135.726 19.0274 134.95 19.5333Z" fill="url(#paint18_linear_20942_162229)"/>
<path d="M131.712 54.7655C129.165 56.4277 126.992 58.6169 125.347 61.1777C124.977 61.7535 124.123 61.7519 123.755 61.1747C122.119 58.6076 119.955 56.4105 117.414 54.7391C116.85 54.3681 116.852 53.5247 117.417 53.1557C119.964 51.4935 122.136 49.3043 123.782 46.7435C124.152 46.1677 125.006 46.169 125.373 46.7465C127.01 49.3136 129.174 51.5107 131.715 53.1821C132.279 53.5531 132.277 54.3965 131.712 54.7655Z" fill="url(#paint19_linear_20942_162229)"/>
<path d="M142.087 34.9764C139.54 36.6386 137.367 38.8278 135.722 41.3886C135.352 41.9645 134.498 41.9628 134.13 41.3856C132.494 38.8186 130.33 36.6214 127.789 34.95C127.225 34.5791 127.227 33.7356 127.792 33.3667C130.339 31.7045 132.511 29.5153 134.157 26.9545C134.527 26.3786 135.381 26.3799 135.748 26.9574C137.385 29.5245 139.549 31.7216 142.09 33.3931C142.653 33.764 142.652 34.6075 142.087 34.9764Z" fill="url(#paint20_linear_20942_162229)"/>
<defs>
<linearGradient id="paint0_linear_20942_162229" x1="22.205" y1="82.3318" x2="71.0802" y2="152.558" gradientUnits="userSpaceOnUse">
<stop stop-color="#FFE548"/>
<stop offset="0.1758" stop-color="#FFDE50"/>
<stop offset="0.4446" stop-color="#FFCA65"/>
<stop offset="0.7709" stop-color="#FFAA87"/>
<stop offset="1" stop-color="#FF90A4"/>
</linearGradient>
<linearGradient id="paint1_linear_20942_162229" x1="60.1977" y1="137.44" x2="50.7536" y2="170.638" gradientUnits="userSpaceOnUse">
<stop stop-color="#FBA5C2" stop-opacity="0"/>
<stop offset="0.3857" stop-color="#FCA0BA" stop-opacity="0.386"/>
<stop offset="0.9737" stop-color="#FF91A5" stop-opacity="0.974"/>
<stop offset="1" stop-color="#FF90A4"/>
</linearGradient>
<linearGradient id="paint2_linear_20942_162229" x1="69.6535" y1="117.637" x2="57.9588" y2="159.525" gradientUnits="userSpaceOnUse">
<stop stop-color="#FBA5C2" stop-opacity="0"/>
<stop offset="0.3857" stop-color="#FCA0BA" stop-opacity="0.386"/>
<stop offset="0.9737" stop-color="#FF91A5" stop-opacity="0.974"/>
<stop offset="1" stop-color="#FF90A4"/>
</linearGradient>
<linearGradient id="paint3_linear_20942_162229" x1="77.397" y1="94.8815" x2="62.7887" y2="142.558" gradientUnits="userSpaceOnUse">
<stop stop-color="#FBA5C2" stop-opacity="0"/>
<stop offset="0.3857" stop-color="#FCA0BA" stop-opacity="0.386"/>
<stop offset="0.9737" stop-color="#FF91A5" stop-opacity="0.974"/>
<stop offset="1" stop-color="#FF90A4"/>
</linearGradient>
<linearGradient id="paint4_linear_20942_162229" x1="85.6893" y1="77.3681" x2="70.2176" y2="112.105" gradientUnits="userSpaceOnUse">
<stop stop-color="#FFE548"/>
<stop offset="0.1758" stop-color="#FFDE50"/>
<stop offset="0.4446" stop-color="#FFCA65"/>
<stop offset="0.7709" stop-color="#FFAA87"/>
<stop offset="1" stop-color="#FF90A4"/>
</linearGradient>
<linearGradient id="paint5_linear_20942_162229" x1="71.1253" y1="103.626" x2="92.947" y2="70.254" gradientUnits="userSpaceOnUse">
<stop stop-color="#FFD00D" stop-opacity="0"/>
<stop offset="1" stop-color="#DB722B"/>
</linearGradient>
<linearGradient id="paint6_linear_20942_162229" x1="91.3087" y1="88.9815" x2="77.6616" y2="47.1571" gradientUnits="userSpaceOnUse">
<stop stop-color="#FFD00D" stop-opacity="0"/>
<stop offset="1" stop-color="#DB722B"/>
</linearGradient>
<linearGradient id="paint7_linear_20942_162229" x1="107.475" y1="112.058" x2="96.4649" y2="93.9891" gradientUnits="userSpaceOnUse">
<stop stop-color="#A34A9E" stop-opacity="0"/>
<stop offset="1" stop-color="#343168"/>
</linearGradient>
<linearGradient id="paint8_linear_20942_162229" x1="124.767" y1="106.403" x2="125.27" y2="78.8325" gradientUnits="userSpaceOnUse">
<stop stop-color="#A34A9E"/>
<stop offset="1" stop-color="#343168"/>
</linearGradient>
<linearGradient id="paint9_linear_20942_162229" x1="38.8032" y1="23.4994" x2="44.8573" y2="26.1298" gradientUnits="userSpaceOnUse">
<stop stop-color="#3FA9F5"/>
<stop offset="1" stop-color="#666AD6"/>
</linearGradient>
<linearGradient id="paint10_linear_20942_162229" x1="24.1929" y1="32.9576" x2="30.593" y2="31.3611" gradientUnits="userSpaceOnUse">
<stop stop-color="#A34A9E"/>
<stop offset="1" stop-color="#343168"/>
</linearGradient>
<linearGradient id="paint11_linear_20942_162229" x1="140.159" y1="129.841" x2="124.32" y2="139.375" gradientUnits="userSpaceOnUse">
<stop stop-color="#FF4974"/>
<stop offset="0.4497" stop-color="#FE4773"/>
<stop offset="0.6292" stop-color="#FC406D"/>
<stop offset="0.7605" stop-color="#F73464"/>
<stop offset="0.8683" stop-color="#F12257"/>
<stop offset="0.9606" stop-color="#E80C46"/>
<stop offset="1" stop-color="#E4003D"/>
</linearGradient>
<linearGradient id="paint12_linear_20942_162229" x1="143.01" y1="110.206" x2="135.6" y2="131.367" gradientUnits="userSpaceOnUse">
<stop stop-color="#C4F8B6"/>
<stop offset="1" stop-color="#3B8EAC"/>
</linearGradient>
<radialGradient id="paint13_radial_20942_162229" cx="0" cy="0" r="1" gradientUnits="userSpaceOnUse" gradientTransform="translate(55.1471 12.3094) rotate(0.114772) scale(66.1459 66.2501)">
<stop stop-color="#FF4974"/>
<stop offset="0.4497" stop-color="#FE4773"/>
<stop offset="0.6292" stop-color="#FC406D"/>
<stop offset="0.7605" stop-color="#F73464"/>
<stop offset="0.8683" stop-color="#F12257"/>
<stop offset="0.9606" stop-color="#E80C46"/>
<stop offset="1" stop-color="#E4003D"/>
</radialGradient>
<linearGradient id="paint14_linear_20942_162229" x1="102.254" y1="59.5412" x2="78.3849" y2="42.3035" gradientUnits="userSpaceOnUse">
<stop stop-color="#E4003D" stop-opacity="0"/>
<stop offset="0.3434" stop-color="#CD0E2D" stop-opacity="0.343"/>
<stop offset="1" stop-color="#972E07"/>
</linearGradient>
<linearGradient id="paint15_linear_20942_162229" x1="66.0663" y1="47.2132" x2="72.7429" y2="53.4039" gradientUnits="userSpaceOnUse">
<stop stop-color="#E4003D" stop-opacity="0"/>
<stop offset="0.3434" stop-color="#CD0E2D" stop-opacity="0.343"/>
<stop offset="1" stop-color="#972E07"/>
</linearGradient>
<linearGradient id="paint16_linear_20942_162229" x1="87.7852" y1="69.6088" x2="98.7985" y2="84.3313" gradientUnits="userSpaceOnUse">
<stop stop-color="#3FA9F5"/>
<stop offset="1" stop-color="#666AD6"/>
</linearGradient>
<linearGradient id="paint17_linear_20942_162229" x1="151.665" y1="65.0106" x2="162.678" y2="79.733" gradientUnits="userSpaceOnUse">
<stop stop-color="#3FA9F5"/>
<stop offset="1" stop-color="#666AD6"/>
</linearGradient>
<linearGradient id="paint18_linear_20942_162229" x1="121.756" y1="13.9118" x2="132.769" y2="28.6342" gradientUnits="userSpaceOnUse">
<stop stop-color="#A34A9E"/>
<stop offset="1" stop-color="#343168"/>
</linearGradient>
<linearGradient id="paint19_linear_20942_162229" x1="122.087" y1="50.6737" x2="130.115" y2="61.406" gradientUnits="userSpaceOnUse">
<stop stop-color="#C4F8B6"/>
<stop offset="1" stop-color="#3B8EAC"/>
</linearGradient>
<linearGradient id="paint20_linear_20942_162229" x1="132.465" y1="30.8862" x2="140.493" y2="41.6185" gradientUnits="userSpaceOnUse">
<stop stop-color="#FFE548"/>
<stop offset="0.1758" stop-color="#FFDE50"/>
<stop offset="0.4446" stop-color="#FFCA65"/>
<stop offset="0.7709" stop-color="#FFAA87"/>
<stop offset="1" stop-color="#FF90A4"/>
</linearGradient>
</defs>
</svg>
