<svg width="21" height="21" viewBox="0 0 21 21" fill="none" xmlns="http://www.w3.org/2000/svg">
<path d="M10.5916 0.375C5.07156 0.375 0.601562 4.855 0.601562 10.375C0.601562 15.895 5.07156 20.375 10.5916 20.375C16.1216 20.375 20.6016 15.895 20.6016 10.375C20.6016 4.855 16.1216 0.375 10.5916 0.375ZM10.6016 18.375C6.18156 18.375 2.60156 14.795 2.60156 10.375C2.60156 5.955 6.18156 2.375 10.6016 2.375C15.0216 2.375 18.6016 5.955 18.6016 10.375C18.6016 14.795 15.0216 18.375 10.6016 18.375ZM11.1016 5.375H9.60156V11.375L14.8516 14.525L15.6016 13.295L11.1016 10.625V5.375Z" fill="#497571"/>
</svg>
