<svg xmlns="http://www.w3.org/2000/svg" width="48.34" height="55.246" viewBox="0 0 48.34 55.246">
  <g id="zip_file" data-name="zip file" transform="translate(-1640.66 -1280.254)">
    <g id="xls" transform="translate(1640.66 1280.254)">
      <path id="Path_22219" data-name="Path 22219" d="M99.453,0A3.463,3.463,0,0,0,96,3.453v48.34a3.463,3.463,0,0,0,3.453,3.453h34.529a3.463,3.463,0,0,0,3.453-3.453V13.811L123.623,0Z" transform="translate(-89.094)" fill="#e2e5e7"/>
      <path id="Path_22220" data-name="Path 22220" d="M355.453,13.811h10.359L352,0V10.359A3.463,3.463,0,0,0,355.453,13.811Z" transform="translate(-317.471)" fill="#b0b7bd"/>
      <path id="Path_22221" data-name="Path 22221" d="M394.359,138.359,384,128h10.359Z" transform="translate(-346.018 -114.189)" fill="#cad1d8"/>
      <path id="Path_22222" data-name="Path 22222" d="M73.434,258.991a1.732,1.732,0,0,1-1.726,1.726H33.726A1.732,1.732,0,0,1,32,258.991V241.726A1.732,1.732,0,0,1,33.726,240H71.708a1.732,1.732,0,0,1,1.726,1.726Z" transform="translate(-32 -214.103)" fill="#84bd5a"/>
      <path id="Path_22226" data-name="Path 22226" d="M128.8,417.726H96v1.727h32.8a1.732,1.732,0,0,0,1.726-1.727V416A1.731,1.731,0,0,1,128.8,417.726Z" transform="translate(-89.094 -371.113)" fill="#cad1d8"/>
      <path id="Path_92341" data-name="Path 92341" d="M1.136,0A1.3,1.3,0,0,1,.8-.448a1.41,1.41,0,0,1-.128-.608A1.38,1.38,0,0,1,.824-1.68,3.553,3.553,0,0,1,1.2-2.272L5.68-8.016H1.024a2.239,2.239,0,0,1-.152-.352A1.466,1.466,0,0,1,.8-8.848.982.982,0,0,1,1-9.52a.722.722,0,0,1,.568-.224H7.7a1.364,1.364,0,0,1,.512,1.088,1.407,1.407,0,0,1-.136.608,3.1,3.1,0,0,1-.36.576l-4.5,5.76H8.08a2.81,2.81,0,0,1,.16.352,1.332,1.332,0,0,1,.08.48.951.951,0,0,1-.2.664A.715.715,0,0,1,7.568,0ZM11.3.112a1.312,1.312,0,0,1-.864-.224.956.956,0,0,1-.256-.752V-9.712q.144-.032.416-.08a3.125,3.125,0,0,1,.544-.048,1.4,1.4,0,0,1,.848.208.917.917,0,0,1,.272.768V-.016q-.144.032-.408.08A3.082,3.082,0,0,1,11.3.112Zm5.5-3.344V-.016q-.144.032-.408.08a3.177,3.177,0,0,1-.568.048,1.278,1.278,0,0,1-.856-.224.974.974,0,0,1-.248-.752V-8.9a.628.628,0,0,1,.16-.464,1.126,1.126,0,0,1,.448-.256A5.858,5.858,0,0,1,15.9-9.76q.312-.064.648-.1t.672-.056q.336-.016.64-.016a4.8,4.8,0,0,1,3.176.9A3.037,3.037,0,0,1,22.1-6.592a3.092,3.092,0,0,1-1.04,2.448,4.429,4.429,0,0,1-3.008.912ZM17.92-4.9a2.459,2.459,0,0,0,1.512-.416,1.5,1.5,0,0,0,.552-1.28,1.5,1.5,0,0,0-.52-1.248,2.375,2.375,0,0,0-1.512-.416,6.063,6.063,0,0,0-1.168.1V-4.9Z" transform="translate(9.217 40.755)" fill="#fff"/>
    </g>
  </g>
</svg>
