<svg width="65" height="46" viewBox="0 0 65 46" fill="none" xmlns="http://www.w3.org/2000/svg">
<path d="M23.3789 0.800781C26.8242 0.800781 29.5664 1.99609 31.6055 4.38672C33.6445 6.77734 34.6641 9.98828 34.6641 14.0195C34.6641 19.0352 33.6094 24.1211 31.5 29.2773C29.4141 34.4336 26.7773 38.3945 23.5898 41.1602C20.4727 43.8789 16.7695 45.2383 12.4805 45.2383C8.77734 45.2383 5.85938 44.1367 3.72656 41.9336C1.61719 39.707 0.5625 36.6719 0.5625 32.8281C0.5625 28.0234 1.66406 23.0195 3.86719 17.8164C6.07031 12.6133 8.83594 8.5 12.1641 5.47656C15.5859 2.35937 19.3242 0.800781 23.3789 0.800781ZM22.5 8.32422C19.7109 8.32422 16.8984 10.8438 14.0625 15.8828C12.6328 18.4609 11.4492 21.25 10.5117 24.25C9.57422 27.25 9.10547 29.7812 9.10547 31.8438C9.10547 33.5312 9.49219 34.8906 10.2656 35.9219C11.0625 36.9297 12.1055 37.4336 13.3945 37.4336C16.1602 37.4336 18.7734 35.2891 21.2344 31C22.7109 28.4453 23.9297 25.5391 24.8906 22.2812C25.875 19.0234 26.3672 16.1992 26.3672 13.8086C26.3672 10.1523 25.0781 8.32422 22.5 8.32422ZM54.1055 9.09766H51.6797C48.6797 9.09766 47.1797 8.03125 47.1797 5.89844C47.1797 4.44531 47.707 3.32031 48.7617 2.52344C49.8164 1.70313 51.293 1.29297 53.1914 1.29297H60.2227C63.0352 1.29297 64.4414 2.42969 64.4414 4.70312C64.4414 5.3125 64.2539 6.07422 63.8789 6.98828L50.4492 40.1055C49.1133 43.3633 47.2734 44.9922 44.9297 44.9922C43.9219 44.9922 43.0664 44.6641 42.3633 44.0078C41.6836 43.3516 41.3438 42.5664 41.3438 41.6523C41.3438 40.9492 41.5195 40.1406 41.8711 39.2266L42.2578 38.2773L54.1055 9.09766Z" fill="#B6D8EE"/>
</svg>
