<svg width="67" height="46" viewBox="0 0 67 46" fill="none" xmlns="http://www.w3.org/2000/svg">
<path d="M23.3789 0.800781C26.8242 0.800781 29.5664 1.99609 31.6055 4.38672C33.6445 6.77734 34.6641 9.98828 34.6641 14.0195C34.6641 19.0352 33.6094 24.1211 31.5 29.2773C29.4141 34.4336 26.7773 38.3945 23.5898 41.1602C20.4727 43.8789 16.7695 45.2383 12.4805 45.2383C8.77734 45.2383 5.85938 44.1367 3.72656 41.9336C1.61719 39.707 0.5625 36.6719 0.5625 32.8281C0.5625 28.0234 1.66406 23.0195 3.86719 17.8164C6.07031 12.6133 8.83594 8.5 12.1641 5.47656C15.5859 2.35937 19.3242 0.800781 23.3789 0.800781ZM22.5 8.32422C19.7109 8.32422 16.8984 10.8438 14.0625 15.8828C12.6328 18.4609 11.4492 21.25 10.5117 24.25C9.57422 27.25 9.10547 29.7812 9.10547 31.8438C9.10547 33.5312 9.49219 34.8906 10.2656 35.9219C11.0625 36.9297 12.1055 37.4336 13.3945 37.4336C16.1602 37.4336 18.7734 35.2891 21.2344 31C22.7109 28.4453 23.9297 25.5391 24.8906 22.2812C25.875 19.0234 26.3672 16.1992 26.3672 13.8086C26.3672 10.1523 25.0781 8.32422 22.5 8.32422ZM47.2148 36.7656H57.6562C60.6328 36.7656 62.1211 37.8203 62.1211 39.9297C62.1211 41.3594 61.5938 42.4844 60.5391 43.3047C59.4844 44.1016 58.0195 44.5 56.1445 44.5H38.707C37.2773 44.5 36.1289 44.1367 35.2617 43.4102C34.418 42.6836 33.9961 41.7109 33.9961 40.4922C33.9961 39.2031 34.582 37.9609 35.7539 36.7656L55.4414 16.5156C56.5664 15.3672 57.1289 14.1719 57.1289 12.9297C57.1289 11.7812 56.6953 10.7969 55.8281 9.97656C54.9609 9.15625 53.918 8.74609 52.6992 8.74609C51.4336 8.74609 50.3555 9.16797 49.4648 10.0117C48.5742 10.8555 48.1289 11.875 48.1289 13.0703C48.1289 13.9844 48.4336 15.0039 49.043 16.1289C49.582 17.1133 49.8516 17.9922 49.8516 18.7656C49.8516 19.9375 49.4766 20.8984 48.7266 21.6484C47.9766 22.3984 47.0039 22.7734 45.8086 22.7734C44.0273 22.7734 42.5156 21.918 41.2734 20.207C40.0312 18.4727 39.4102 16.3516 39.4102 13.8438C39.4102 10.1641 40.7344 7.08203 43.3828 4.59766C46.0312 2.08984 49.3125 0.835938 53.2266 0.835938C56.9766 0.835938 60.0469 1.94922 62.4375 4.17578C64.8281 6.37891 66.0234 9.22656 66.0234 12.7188C66.0234 16 64.7695 18.918 62.2617 21.4727L47.2148 36.7656Z" fill="#A8EFD3"/>
</svg>
