<svg width="69" height="46" viewBox="0 0 69 46" fill="none" xmlns="http://www.w3.org/2000/svg">
<path d="M23.3789 0.800781C26.8242 0.800781 29.5664 1.99609 31.6055 4.38672C33.6445 6.77734 34.6641 9.98828 34.6641 14.0195C34.6641 19.0352 33.6094 24.1211 31.5 29.2773C29.4141 34.4336 26.7773 38.3945 23.5898 41.1602C20.4727 43.8789 16.7695 45.2383 12.4805 45.2383C8.77734 45.2383 5.85938 44.1367 3.72656 41.9336C1.61719 39.707 0.5625 36.6719 0.5625 32.8281C0.5625 28.0234 1.66406 23.0195 3.86719 17.8164C6.07031 12.6133 8.83594 8.5 12.1641 5.47656C15.5859 2.35937 19.3242 0.800781 23.3789 0.800781ZM22.5 8.32422C19.7109 8.32422 16.8984 10.8438 14.0625 15.8828C12.6328 18.4609 11.4492 21.25 10.5117 24.25C9.57422 27.25 9.10547 29.7812 9.10547 31.8438C9.10547 33.5312 9.49219 34.8906 10.2656 35.9219C11.0625 36.9297 12.1055 37.4336 13.3945 37.4336C16.1602 37.4336 18.7734 35.2891 21.2344 31C22.7109 28.4453 23.9297 25.5391 24.8906 22.2812C25.875 19.0234 26.3672 16.1992 26.3672 13.8086C26.3672 10.1523 25.0781 8.32422 22.5 8.32422ZM58.7109 18.1328C62.3203 20.5469 64.125 23.8633 64.125 28.082C64.125 31.3398 63.2109 34.4805 61.3828 37.5039C58.2891 42.6367 53.7305 45.2031 47.707 45.2031C43.8164 45.2031 40.6758 44.1602 38.2852 42.0742C35.918 39.9883 34.7344 37.2344 34.7344 33.8125C34.7344 31.4219 35.332 29.3828 36.5273 27.6953C37.7227 26.0078 39.1641 25.1641 40.8516 25.1641C41.8359 25.1641 42.6914 25.5156 43.418 26.2188C44.1445 26.8984 44.5078 27.707 44.5078 28.6445C44.5078 29.1367 44.3203 30.0273 43.9453 31.3164C43.6406 32.3477 43.4883 33.0859 43.4883 33.5312C43.4883 34.6797 43.875 35.6055 44.6484 36.3086C45.4453 37.0117 46.4648 37.3633 47.707 37.3633C49.6758 37.3633 51.4453 36.4141 53.0156 34.5156C54.5859 32.6172 55.3711 30.4961 55.3711 28.1523C55.3711 25.3164 53.9414 23.4062 51.082 22.4219C49.1133 21.7656 48.1289 20.6406 48.1289 19.0469C48.1289 18.0391 48.5039 17.1133 49.2539 16.2695L49.957 15.4961L55.8281 8.99219H47.8477C44.8711 8.99219 43.3828 7.94922 43.3828 5.86328C43.3828 4.59766 43.875 3.51953 44.8594 2.62891C45.8438 1.73828 47.0508 1.29297 48.4805 1.29297H49.3242H62.8945C66.6211 1.29297 68.4844 2.69922 68.4844 5.51172C68.4844 6.84766 68.0273 8.00781 67.1133 8.99219L58.7109 18.1328Z" fill="#FDE8B3"/>
</svg>
