<svg width="99" height="47" viewBox="0 0 99 47" fill="none" xmlns="http://www.w3.org/2000/svg">
<path d="M58.4748 34.8361C45.8685 44.0282 27.7733 41.0211 9.96698 26.9572C13.9064 25.9986 18.0297 30.135 21.4439 26.5239C21.3651 25.8279 21.4439 25.2107 21.2601 25.0663C15.5741 22.44 9.9276 19.7217 4.18912 17.3581C3.7492 17.1337 3.25831 17.0281 2.76504 17.0517C2.27178 17.0753 1.79321 17.2272 1.37669 17.4925C0.960181 17.7578 0.620154 18.1273 0.390242 18.5643C0.160322 19.0013 0.0484907 19.4908 0.065817 19.9844C0.0658166 24.8956 -0.131152 29.8987 2.04868 35.4796L5.72551 30.529C11.2145 34.1401 16.3358 38.2109 22.0217 41.218C35.4027 48.2828 49.007 48.7424 62.2173 40.4827C64.3052 39.1695 65.9204 39.419 68.0608 40.1281C72.2386 41.6536 76.7285 42.1234 81.1316 41.4957C85.5347 40.868 89.7145 39.1623 93.2996 36.5301C96.1097 34.5472 99.0643 32.223 98.3158 26.931C96.7212 29.344 94.6663 31.4188 92.2688 33.0366C89.8713 34.6545 87.1783 35.7836 84.3439 36.3594C78.8943 37.5675 73.5498 37.6725 68.5861 35.0462C69.4921 30.0169 70.9366 25.3158 71.0154 20.6016C71.0689 15.7929 70.3597 11.0061 68.9143 6.41952C68.3014 4.34942 66.9704 2.5657 65.1605 1.38876C63.3505 0.211818 61.1802 -0.281216 59.0395 -0.00178496C54.9162 0.444686 51.7909 3.4912 50.8979 8.45491C49.5686 16.0176 51.1698 23.8027 55.3758 30.227C56.3081 31.8553 57.4243 33.326 58.4748 34.8361ZM62.4142 31.028C59.9536 28.3276 58.1002 25.1313 56.9789 21.6543C55.8576 18.1772 55.4946 14.5003 55.9141 10.8711C56.1374 8.4943 56.8071 6.10437 59.7486 5.95992C62.2698 5.84174 63.3991 7.86399 63.9769 9.89938C65.9619 16.9109 65.3895 24.3997 62.3617 31.028L62.4142 31.028Z" fill="#0BDFE9"/>
</svg>
