<svg width="48" height="49" viewBox="0 0 48 49" fill="none" xmlns="http://www.w3.org/2000/svg">
<path d="M8 43.1346V44.1611C7.9986 44.5293 8.2959 44.829 8.66409 44.8305H39.3346C39.7028 44.829 40.0001 44.5293 39.9987 44.1611V43.1346C39.9987 37.6614 35.8953 33.171 30.6637 32.847C30.6488 32.8466 30.6342 32.8466 30.6194 32.847H17.3806C17.3658 32.8466 17.3511 32.8466 17.3363 32.847C12.1047 33.171 8.00001 37.6614 8.00001 43.1346H8Z" fill="#5299D3"/>
<path d="M20.6686 28.4981C20.2999 28.4959 19.9995 28.7935 19.998 29.1622V35.4635C19.9995 35.8322 20.2999 36.1297 20.6686 36.1276H27.3317C27.6999 36.129 27.9995 35.8317 28.001 35.4635C28.001 33.4969 28.001 31.497 28.001 29.1622C27.9995 28.794 27.6999 28.4967 27.3317 28.4981H20.6686Z" fill="#FFCCAA"/>
<path d="M20.6686 28.4981C20.581 28.4976 20.4941 28.5143 20.4129 28.5475C20.3318 28.5806 20.258 28.6294 20.1957 28.691C20.1334 28.7527 20.0839 28.826 20.05 28.9069C20.0161 28.9877 19.9984 29.0744 19.998 29.1621V31.0877C21.1223 31.9039 22.5024 32.391 23.9993 32.391C25.4963 32.391 26.8761 31.9039 28.0006 31.0877V29.1621C27.9999 28.9853 27.929 28.816 27.8035 28.6915C27.678 28.567 27.5082 28.4974 27.3314 28.4981H20.6686Z" fill="#FFB889"/>
<path d="M17.3372 32.847C12.1056 33.171 8 37.6622 8 43.1354V44.1615C7.99866 44.5297 8.29593 44.8292 8.66407 44.8307H9.9974C9.62927 44.8292 9.332 44.5297 9.33334 44.1615V43.1354C9.33334 37.6622 13.4389 33.171 18.6706 32.847H17.3815C17.3667 32.8466 17.352 32.8466 17.3372 32.847H17.3372Z" fill="#3385C8"/>
<path d="M18.8606 31.0277L16.858 33.0253C16.5994 33.2854 16.5994 33.7055 16.858 33.9655L21.5287 38.6314C21.7888 38.8899 22.2088 38.8899 22.4689 38.6314L23.9989 37.1052L25.5302 38.6314C25.7902 38.8899 26.2103 38.8899 26.4703 38.6314L31.1359 33.9655C31.3944 33.7055 31.3944 33.2854 31.1359 33.0253L29.1371 31.0277C29.0098 30.8996 28.8359 30.8287 28.6553 30.8311C28.481 30.8335 28.3146 30.9041 28.1918 31.0277L23.9989 35.2209L19.8008 31.0277C19.6747 30.9009 19.503 30.8301 19.3242 30.8311C19.1499 30.8335 18.9835 30.9041 18.8606 31.0277V31.0277Z" fill="#A0C7E7"/>
<path d="M23.665 4.91402L6.33227 14.1392C5.87434 14.3831 5.89362 14.9963 6.36613 15.2155L16.4303 19.8293L16.7285 19.2792L16.7311 19.2804H31.2656L31.5638 19.8294L41.6332 15.2156C42.106 14.9968 42.126 14.3836 41.6683 14.1392L24.3343 4.91405C24.238 4.86271 24.1398 4.82854 24 4.8312C23.8602 4.83386 23.7521 4.86746 23.665 4.91402Z" fill="#5299D3"/>
<path d="M17.4311 21.3555C16.0402 21.3555 14.9453 22.5603 14.9453 23.9742C14.9453 25.3882 16.0402 26.5969 17.4311 26.5969C17.6248 26.5969 17.8153 26.5643 18.0027 26.5162C18.0026 26.5111 18.0001 26.5069 18.0001 26.5018V21.4271C17.8139 21.3809 17.6229 21.3555 17.4311 21.3555Z" fill="#FFB889"/>
<path d="M33.0574 23.9742C33.0574 25.3882 31.9625 26.5969 30.5716 26.5969C30.378 26.5969 30.1874 26.5643 30 26.5162C30.0001 26.5111 30.0025 26.5069 30.0025 26.5019V21.4271C30.1888 21.3809 30.3797 21.3555 30.5716 21.3555C31.9625 21.3555 33.0574 22.5603 33.0574 23.9742Z" fill="#FFCCAA"/>
<path d="M23.9996 14.7412C21.9273 14.7412 20.0573 14.9273 18.6556 15.2582C17.9548 15.4237 17.3716 15.6177 16.9081 15.8833C16.4499 16.1458 16.017 16.5483 16.0071 17.149C15.9682 17.3442 15.5097 19.7654 17.3756 21.6274L17.5722 21.824H30.4269L30.6196 21.6274C32.4855 19.7654 32.0309 17.3442 31.9921 17.149C31.9822 16.5483 31.5505 16.1458 31.0923 15.8833C30.6289 15.6177 30.0457 15.4237 29.3448 15.2582C27.9432 14.9273 26.0718 14.7412 23.9996 14.7412Z" fill="#356287"/>
<path d="M18.6565 15.2581C17.9556 15.4236 17.3725 15.6175 16.9091 15.8831C16.4509 16.1456 16.0166 16.5479 16.0067 17.1486C15.9679 17.3438 15.5106 19.7655 17.3765 21.6275L17.5731 21.8241H18.9065L18.7098 21.6275C16.844 19.7655 17.3012 17.3438 17.3401 17.1486C17.35 16.5479 17.7842 16.1456 18.2424 15.8831C18.7058 15.6175 19.289 15.4236 19.9898 15.2581C21.237 14.9636 22.8654 14.7916 24.6669 14.7555C24.4437 14.7511 24.2287 14.7412 24.0002 14.7412C21.928 14.7412 20.0581 14.9272 18.6565 15.2581V15.2581Z" fill="#2C5170"/>
<path d="M22.3505 16.8916C22.2628 16.8906 22.1758 16.9069 22.0944 16.9395C22.0131 16.9722 21.939 17.0205 21.8763 17.0819C21.8137 17.1432 21.7637 17.2163 21.7293 17.2969C21.695 17.3776 21.6768 17.4642 21.676 17.5519C21.6602 19.0478 20.4583 20.2436 18.9649 20.2436H17.8477C17.6718 20.2443 17.5033 20.3145 17.3789 20.4389C17.2545 20.5633 17.1843 20.7318 17.1836 20.9077V24.2544C17.1836 28.0135 20.2344 31.0572 23.999 31.0572C27.7636 31.0572 30.8157 28.0135 30.8157 24.2544V20.9077C30.815 20.7318 30.7448 20.5633 30.6204 20.4389C30.496 20.3145 30.3275 20.2443 30.1516 20.2436H26.2334C24.6113 20.2436 23.2457 19.0595 23.0002 17.4581C22.9765 17.3021 22.8982 17.1595 22.7792 17.0558C22.6602 16.952 22.5083 16.8939 22.3505 16.8916Z" fill="#FFCCAA"/>
<path d="M11.3327 11.4785L9.99805 12.1889V21.4973H11.3327V11.4785Z" fill="#EEEEEE"/>
<path d="M10.0033 20.1631C9.6351 20.1617 9.33546 20.459 9.33399 20.8272V26.8469C9.33258 27.2172 9.63306 27.5177 10.0033 27.5163H11.334C11.7022 27.5148 11.9995 27.2151 11.9981 26.8469V20.8272C11.9966 20.461 11.7001 20.1646 11.334 20.1631H10.0033Z" fill="#FFCA28"/>
<path d="M23.9992 10.833C21.927 10.833 20.0568 11.0219 18.6592 11.3409C17.9604 11.5004 17.3819 11.687 16.9221 11.936C16.6922 12.0605 16.4891 12.201 16.3166 12.3944C16.1441 12.5878 15.9976 12.8651 15.9976 13.177V17.0798C15.9981 17.1012 16.0057 17.119 16.008 17.1397C16.008 17.1429 16.0068 17.1455 16.0067 17.1488C15.9887 17.2393 15.8809 17.8167 15.9559 18.5864C16.4614 18.0915 16.7106 17.8268 17.1474 17.5225C17.5139 17.2671 18.0554 16.9192 19.2308 16.6084C20.0383 16.3948 21.0638 16.2206 22.2582 16.1291C22.8177 16.0972 23.3947 16.0758 23.9992 16.0758C24.6037 16.0758 25.1807 16.0972 25.7402 16.1291C26.9346 16.2206 27.9601 16.3948 28.7676 16.6084C29.943 16.9192 30.4845 17.2671 30.851 17.5225C31.2878 17.8268 31.537 18.0915 32.0425 18.5864C32.1175 17.8167 32.0096 17.2393 31.9917 17.1488C31.9917 17.1455 31.9905 17.1429 31.9904 17.1397C31.9927 17.119 32.0002 17.1012 32.0007 17.0798V13.177C32.0007 12.8651 31.8542 12.5878 31.6817 12.3944C31.5093 12.201 31.3062 12.0605 31.0763 11.936C30.6165 11.687 30.0381 11.5004 29.3393 11.3409C27.9417 11.0219 26.0715 10.833 23.9992 10.833Z" fill="#A0C7E7"/>
<path d="M10.0033 20.1631C9.63507 20.1617 9.33546 20.4589 9.33399 20.8271V26.8475C9.33258 27.2178 9.63303 27.5182 10.0033 27.5168H11.334C10.965 27.5167 10.6659 27.2169 10.6673 26.8475V20.8271C10.6688 20.4598 10.967 20.1631 11.334 20.1631H10.0033Z" fill="#ECB200"/>
<path d="M16.9234 11.9358C16.6935 12.0603 16.4891 12.2007 16.3166 12.3941C16.1441 12.5875 15.9976 12.866 15.9976 13.1779V17.08C15.9981 17.1014 16.0056 17.1192 16.008 17.1399C16.008 17.1431 16.0068 17.1457 16.0067 17.149C15.9887 17.2395 15.8809 17.8167 15.9559 18.5864C16.4614 18.0915 16.7106 17.8269 17.1473 17.5227C17.1932 17.4907 17.2526 17.4531 17.3049 17.4185C17.3186 17.3176 17.3348 17.1752 17.34 17.149C17.3401 17.1457 17.3412 17.1431 17.3414 17.1399C17.339 17.1192 17.3315 17.1014 17.3309 17.08V13.1779C17.3309 12.866 17.4775 12.5875 17.6499 12.3941C17.8224 12.2007 18.0268 12.0603 18.2567 11.9358C18.7165 11.6868 19.2949 11.5003 19.9937 11.3408C21.2373 11.0569 22.8654 10.8763 24.6669 10.8399C24.4437 10.8354 24.2287 10.833 24.0002 10.833C21.928 10.833 20.0579 11.0218 18.6604 11.3408C17.9616 11.5003 17.3832 11.6868 16.9234 11.9358Z" fill="#74ADDC"/>
<path d="M17.8496 20.2441C17.4835 20.2456 17.1871 20.542 17.1855 20.9082V24.2543C17.1855 27.2441 19.1175 29.7754 21.8014 30.6887C19.5363 29.4438 18.0006 27.0402 18.0006 24.2751V20.6751C18.0012 20.5194 18.0524 20.3682 18.1465 20.2441H17.8496Z" fill="#FFB889"/>
<path d="M14.6965 40.8337C14.2945 40.8158 13.9683 41.1554 14.0025 41.5563V44.8243H15.3306V41.5563C15.3627 41.1791 15.0747 40.8508 14.6965 40.8337Z" fill="#3385C8"/>
<path d="M33.3625 40.8337C32.9605 40.8158 32.6343 41.1554 32.6685 41.5563V44.8243H33.9966V41.5563C34.0288 41.1791 33.7407 40.8508 33.3625 40.8337Z" fill="#3385C8"/>
</svg>
