<svg width="59" height="51" viewBox="0 0 59 51" fill="none" xmlns="http://www.w3.org/2000/svg">
<path d="M38.8142 47.0955C39.5987 47.3711 40.0112 48.2306 39.7355 49.0151C39.4599 49.7996 38.6005 50.2121 37.816 49.9364C31.2051 47.6137 14.825 39.6373 1.47523 26.0757C0.891913 25.4831 0.89942 24.5298 1.492 23.9465C2.08458 23.3632 3.03784 23.3707 3.62116 23.9633C16.5875 37.1354 32.5455 44.893 38.8142 47.0955Z" fill="#EEC749" stroke="#EEC749" stroke-width="0.922598"/>
<path fill-rule="evenodd" clip-rule="evenodd" d="M20.5365 3.48575C34.2881 7.45137 43.8448 7.44755 57.2767 5.34058C57.8464 5.2512 58.2359 4.71685 58.1465 4.14708C58.0571 3.5773 57.5228 3.18786 56.953 3.27724C43.7555 5.34745 34.515 5.3431 21.1152 1.47894C20.561 1.31914 19.9822 1.63883 19.8224 2.19299C19.6626 2.74715 19.9823 3.32594 20.5365 3.48575Z" fill="#EEC749" stroke="#EEC749" stroke-width="0.922598"/>
<path fill-rule="evenodd" clip-rule="evenodd" d="M40.1386 24.0864C40.2001 23.5129 39.785 22.9983 39.2115 22.9368C32.0082 22.165 25.0781 20.6281 15.5385 15.9871C15.0198 15.7348 14.3949 15.9507 14.1426 16.4694C13.8903 16.988 14.1062 17.613 14.6248 17.8653C24.4045 22.623 31.5723 24.2188 38.989 25.0135C39.5625 25.0749 40.0772 24.6599 40.1386 24.0864Z" fill="#EEC749"/>
</svg>
