<svg width="24" height="28" viewBox="0 0 24 28" fill="none" xmlns="http://www.w3.org/2000/svg">
<path fill-rule="evenodd" clip-rule="evenodd" d="M17.8915 1.68486C17.8303 1.23082 17.4441 0.880859 16.9768 0.880859C16.467 0.880859 16.0537 1.29734 16.0537 1.81109V2.83955H7.95752V1.81109L7.94909 1.68486C7.88797 1.23082 7.50176 0.880859 7.03444 0.880859C6.52464 0.880859 6.11137 1.29734 6.11137 1.81109V2.86265C2.32873 3.12317 0 5.57409 0 9.52858V20.7529C0 24.9972 2.61112 27.5475 6.79501 27.5475H17.2049C21.3937 27.5475 23.9999 25.0399 23.9999 20.8468V9.52858C24.012 5.57268 21.6907 3.12244 17.8999 2.86254V1.81109L17.8915 1.68486ZM16.0537 4.70002V5.89268L16.0622 6.01891C16.1233 6.47295 16.5095 6.82291 16.9768 6.82291C17.4866 6.82291 17.8999 6.40643 17.8999 5.89268V4.72751C20.658 4.95699 22.1626 6.61785 22.1538 9.52572V10.0644H1.84615V9.52858C1.84615 6.62254 3.359 4.95816 6.11137 4.7277V5.89268L6.1198 6.01891C6.18092 6.47295 6.56713 6.82291 7.03444 6.82291C7.54424 6.82291 7.95752 6.40643 7.95752 5.89268V4.70002H16.0537ZM1.84615 11.9249V20.7529C1.84615 23.9564 3.61802 25.6871 6.79501 25.6871H17.2049C20.3928 25.6871 22.1538 23.9926 22.1538 20.8468L22.1538 11.9249H1.84615ZM18.4016 15.8386C18.4016 15.3249 17.9883 14.9084 17.4785 14.9084L17.3418 14.9169C16.8913 14.9785 16.544 15.3677 16.544 15.8386C16.544 16.3524 16.9573 16.7688 17.4785 16.7688L17.6038 16.7604C18.0543 16.6988 18.4016 16.3096 18.4016 15.8386ZM12.017 14.9084C12.5268 14.9084 12.9401 15.3249 12.9401 15.8386C12.9401 16.3096 12.5928 16.6988 12.1423 16.7604L12.017 16.7688C11.4958 16.7688 11.0826 16.3524 11.0826 15.8386C11.0826 15.3677 11.4298 14.9785 11.8804 14.9169L12.017 14.9084ZM7.46724 15.8386C7.46724 15.3249 7.05396 14.9084 6.54416 14.9084L6.40751 14.9169C5.95695 14.9785 5.60969 15.3677 5.60969 15.8386C5.60969 16.3524 6.02296 16.7688 6.53276 16.7688L6.66942 16.7604C7.11997 16.6988 7.46724 16.3096 7.46724 15.8386ZM17.4785 19.7289C17.9883 19.7289 18.4016 20.1454 18.4016 20.6591C18.4016 21.1301 18.0543 21.5193 17.6038 21.5809L17.4785 21.5893C16.9573 21.5893 16.544 21.1729 16.544 20.6591C16.544 20.1882 16.8913 19.799 17.3418 19.7374L17.4785 19.7289ZM12.9401 20.6591C12.9401 20.1454 12.5268 19.7289 12.017 19.7289L11.8804 19.7374C11.4298 19.799 11.0826 20.1882 11.0826 20.6591C11.0826 21.1729 11.4958 21.5893 12.017 21.5893L12.1423 21.5809C12.5928 21.5193 12.9401 21.1301 12.9401 20.6591ZM6.54416 19.7289C7.05396 19.7289 7.46724 20.1454 7.46724 20.6591C7.46724 21.1301 7.11997 21.5193 6.66942 21.5809L6.53276 21.5893C6.02296 21.5893 5.60969 21.1729 5.60969 20.6591C5.60969 20.1882 5.95695 19.799 6.40751 19.7374L6.54416 19.7289Z" fill="#424242"/>
</svg>
