<svg width="131" height="99" viewBox="0 0 131 99" fill="none" xmlns="http://www.w3.org/2000/svg">
<path d="M117.619 33.3829L62.2929 56.1157C59.1204 57.5839 55.5769 58.0547 52.1311 57.4659L9.30593 50.1443C5.47265 49.4901 4.78133 44.2839 8.3082 42.6515L62.2325 17.7032C65.4051 16.235 68.9485 15.7641 72.3944 16.353L115.224 23.6736C119.052 24.329 121.146 31.7505 117.619 33.3829Z" fill="url(#paint0_linear_13470_136981)"/>
<path d="M117.108 33.6679L63.1838 58.6169C60.0104 60.0837 56.4665 60.5532 53.0206 59.9633L10.1966 52.6449C6.36352 51.9913 5.67198 46.7845 9.19996 45.1552L63.1232 20.2037C66.2957 18.7353 69.8394 18.2646 73.2852 18.8542L116.115 26.1742C119.943 26.8295 120.634 32.0364 117.108 33.6679Z" fill="url(#paint1_linear_13470_136981)"/>
<path d="M94.2332 48.4241C88.5735 40.1657 48.3443 47.7824 41.1281 60.0165C39.9118 54.4443 38.6954 48.8724 37.4788 43.3008C36.4277 38.4912 52.8803 32.3096 62.1138 30.2568C71.5007 28.1693 89.5548 27.1419 90.5839 31.7084C91.8 37.2788 93.0165 42.8507 94.2332 48.4241Z" fill="url(#paint2_linear_13470_136981)"/>
<path d="M94.2349 48.4246C93.2762 44.0319 80.6109 43.0655 65.9462 46.2661C51.2815 49.4667 40.1706 55.6223 41.1293 60.015C42.088 64.4078 54.7533 65.3741 69.418 62.1735C84.0827 58.9729 95.1936 52.8173 94.2349 48.4246Z" fill="url(#paint3_linear_13470_136981)"/>
<path d="M92.6525 49.0792C91.822 45.2739 80.0546 44.6104 66.3694 47.5972C52.6842 50.5841 42.2633 56.0902 43.0939 59.8955C43.9244 63.7008 55.6917 64.3643 69.377 61.3775C83.0622 58.3907 93.483 52.8845 92.6525 49.0792Z" fill="url(#paint4_linear_13470_136981)"/>
<path d="M18.5649 71.9712C18.0108 72.1665 17.4052 72.1578 16.857 71.9466C16.3088 71.7354 15.8539 71.3356 15.5741 70.8191C15.5288 70.735 10.9678 62.3043 6.64966 53.9024C4.0865 48.9141 3.57158 45.4147 5.02094 42.8929C6.60889 40.1338 9.881 39.6557 12.2034 39.536C12.808 39.5041 13.4031 39.6964 13.8746 40.0762L10.9257 41.4425C10.9257 41.4425 9.14947 42.5468 8.92815 45.0105C8.8269 46.1167 8.63269 46.9607 11.0381 51.6469C15.3314 60.0005 19.8689 68.3889 19.913 68.4698C20.0828 68.7834 20.1826 69.13 20.2055 69.4859C20.2285 69.8418 20.174 70.1984 20.0459 70.5312C19.9177 70.864 19.719 71.165 19.4633 71.4136C19.2076 71.6622 18.9011 71.8524 18.5649 71.9712Z" fill="url(#paint5_linear_13470_136981)"/>
<path d="M19.0968 83.8628C21.0214 88.2261 24.8929 94.0551 24.8929 94.0551C24.8929 94.0551 26.4628 93.7567 27.3551 93.1826C28.2474 92.6085 28.6043 92.16 28.6043 92.16L29.1091 92.6759C29.1091 92.6759 30.1041 92.2085 31.0738 91.6718C32.0435 91.1351 33.5813 89.1076 33.5813 89.1076L32.8763 88.3906C32.8763 88.3906 34.121 87.1744 34.613 86.7436C34.903 86.4931 35.1222 86.171 35.2488 85.8094C35.2488 85.8094 32.9213 80.7045 31.1603 79.0081C29.3993 77.3117 23.9503 73.0007 22.6079 71.9565C21.2654 70.9123 19.891 71.3507 18.9199 71.816C17.9489 72.2813 16.6344 73.537 16.7825 75.4744C16.9307 77.4118 17.1799 79.515 19.0968 83.8628Z" fill="url(#paint6_radial_13470_136981)"/>
<path d="M33.9257 77.5078C36.0825 79.9849 37.4466 83.2362 37.1045 86.4903C37.061 86.9025 36.9888 87.3191 36.8012 87.6886C36.2892 88.7036 35.5327 89.6609 34.53 89.0127C34.0981 88.7345 33.4894 88.3949 32.8753 88.3899C31.2172 86.1983 29.4096 84.1217 27.7099 81.966C26.5803 80.5341 22.3034 74.6311 21.1012 73.2588C19.7249 71.6854 18.9834 71.0603 18.7961 68.8436C18.6364 66.9828 22.9827 70.9503 23.9533 71.3089C27.3413 72.5619 30.669 74.2014 33.2246 76.7542C33.466 76.9966 33.6997 77.2478 33.9257 77.5078Z" fill="url(#paint7_linear_13470_136981)"/>
<path d="M17.6309 88.6003C19.3539 91.828 22.0789 94.5844 25.3497 95.6238C25.7646 95.7587 26.1917 95.8603 26.6098 95.8291C27.7613 95.7438 28.9277 95.3904 28.6197 94.1078C28.4864 93.5547 28.4144 92.7826 28.6027 92.1606C26.9996 89.5577 25.0413 86.9046 23.4873 84.273C22.4545 82.5278 19.5466 76.5646 18.7111 74.6501C17.7807 72.5178 18.7446 73.675 16.6526 72.5398C14.8949 71.5864 14.7428 74.7943 14.7829 75.9237C14.9218 79.8671 15.4556 83.9129 17.123 87.5725C17.281 87.9191 17.4504 88.2617 17.6309 88.6003Z" fill="url(#paint8_linear_13470_136981)"/>
<path d="M21.5264 65.8026C22.4821 66.6781 23.0347 67.776 23.2928 69.1291C23.4926 70.178 23.8155 71.833 22.8021 72.5684C22.4351 72.8393 21.9816 72.9098 21.5649 73.066C21.0717 73.2513 20.6076 73.5243 20.1557 73.7922C19.1545 74.3851 18.0973 75.1283 16.9311 75.333C15.8197 75.5274 14.8568 74.8743 14.3772 73.9027C13.7054 72.5398 13.1085 70.9784 12.8707 69.4702C12.7062 68.4292 13.105 67.1823 14.2638 66.9746C15.486 66.7529 16.9149 65.7759 17.6652 64.7891C18.4817 63.7127 19.9113 64.6471 20.7411 65.1952C21.0184 65.3767 21.281 65.5798 21.5264 65.8026Z" fill="url(#paint9_radial_13470_136981)"/>
<defs>
<linearGradient id="paint0_linear_13470_136981" x1="9.13083" y1="55.7372" x2="115.611" y2="18.0058" gradientUnits="userSpaceOnUse">
<stop offset="0.09" stop-color="#CF8AFF"/>
<stop offset="0.36" stop-color="#C986FA"/>
<stop offset="0.5" stop-color="#A26CD9"/>
<stop offset="0.63" stop-color="#8357BE"/>
<stop offset="0.74" stop-color="#704AAE"/>
<stop offset="0.82" stop-color="#6945A8"/>
<stop offset="0.87" stop-color="#6B47AB"/>
<stop offset="0.91" stop-color="#724CB5"/>
<stop offset="0.95" stop-color="#7D55C5"/>
<stop offset="0.98" stop-color="#8D61DC"/>
<stop offset="1" stop-color="#9A6CF0"/>
</linearGradient>
<linearGradient id="paint1_linear_13470_136981" x1="56.5261" y1="24.4292" x2="70.1323" y2="55.1864" gradientUnits="userSpaceOnUse">
<stop stop-color="#412B69"/>
<stop offset="0.24" stop-color="#472F72"/>
<stop offset="0.63" stop-color="#56398B"/>
<stop offset="1" stop-color="#6945A8"/>
</linearGradient>
<linearGradient id="paint2_linear_13470_136981" x1="38.6346" y1="47.7576" x2="89.5146" y2="37.4624" gradientUnits="userSpaceOnUse">
<stop stop-color="#9A6CF0"/>
<stop offset="0.02" stop-color="#A472F3"/>
<stop offset="0.06" stop-color="#BF81FA"/>
<stop offset="0.09" stop-color="#CD89FD"/>
<stop offset="0.29" stop-color="#A26CD9"/>
<stop offset="0.47" stop-color="#8357BE"/>
<stop offset="0.62" stop-color="#704AAE"/>
<stop offset="0.73" stop-color="#6945A8"/>
<stop offset="0.8" stop-color="#6B47AB"/>
<stop offset="0.86" stop-color="#724CB5"/>
<stop offset="0.92" stop-color="#7D55C5"/>
<stop offset="0.97" stop-color="#8D61DC"/>
<stop offset="1" stop-color="#9A6CF0"/>
</linearGradient>
<linearGradient id="paint3_linear_13470_136981" x1="46.4692" y1="50.8285" x2="94.1166" y2="57.8007" gradientUnits="userSpaceOnUse">
<stop stop-color="#9A6CF0"/>
<stop offset="0.02" stop-color="#A472F3"/>
<stop offset="0.06" stop-color="#BF81FA"/>
<stop offset="0.09" stop-color="#CD89FD"/>
<stop offset="0.29" stop-color="#A26CD9"/>
<stop offset="0.47" stop-color="#8357BE"/>
<stop offset="0.62" stop-color="#704AAE"/>
<stop offset="0.73" stop-color="#6945A8"/>
<stop offset="0.8" stop-color="#6B47AB"/>
<stop offset="0.86" stop-color="#724CB5"/>
<stop offset="0.92" stop-color="#7D55C5"/>
<stop offset="0.97" stop-color="#8D61DC"/>
<stop offset="1" stop-color="#9A6CF0"/>
</linearGradient>
<linearGradient id="paint4_linear_13470_136981" x1="48.0831" y1="52.0382" x2="91.8486" y2="59.5421" gradientUnits="userSpaceOnUse">
<stop stop-color="#432C6B"/>
<stop offset="0.18" stop-color="#452D6E"/>
<stop offset="0.32" stop-color="#4B3278"/>
<stop offset="0.44" stop-color="#563A88"/>
<stop offset="0.56" stop-color="#6645A0"/>
<stop offset="0.67" stop-color="#7954BE"/>
<stop offset="0.78" stop-color="#9165E2"/>
<stop offset="0.81" stop-color="#9A6CF0"/>
<stop offset="1" stop-color="#CF8AFF"/>
</linearGradient>
<linearGradient id="paint5_linear_13470_136981" x1="8.86609" y1="58.1588" x2="19.9533" y2="53.1582" gradientUnits="userSpaceOnUse">
<stop stop-color="#EFAB26"/>
<stop offset="0.13" stop-color="#ECA526"/>
<stop offset="0.3" stop-color="#E49524"/>
<stop offset="0.42" stop-color="#DD8523"/>
<stop offset="0.63" stop-color="#DE8823"/>
<stop offset="0.78" stop-color="#E39124"/>
<stop offset="0.91" stop-color="#EAA025"/>
<stop offset="0.98" stop-color="#EFAB26"/>
</linearGradient>
<radialGradient id="paint6_radial_13470_136981" cx="0" cy="0" r="1" gradientUnits="userSpaceOnUse" gradientTransform="translate(6.91134 96.4308) rotate(-19.5119) scale(31.8929 31.8929)">
<stop offset="0.45" stop-color="#EFAF2C"/>
<stop offset="0.49" stop-color="#F2CB57"/>
<stop offset="0.51" stop-color="#F4DD71"/>
<stop offset="0.53" stop-color="#F5E37B"/>
<stop offset="0.6" stop-color="#F2CA55"/>
<stop offset="0.67" stop-color="#F0B433"/>
<stop offset="0.71" stop-color="#EFAB26"/>
<stop offset="0.75" stop-color="#ECA526"/>
<stop offset="0.8" stop-color="#E49524"/>
<stop offset="0.84" stop-color="#DD8523"/>
<stop offset="0.88" stop-color="#DE8823"/>
<stop offset="0.92" stop-color="#E39124"/>
<stop offset="0.95" stop-color="#EAA025"/>
<stop offset="0.96" stop-color="#EFAB26"/>
</radialGradient>
<linearGradient id="paint7_linear_13470_136981" x1="29.3523" y1="77.7962" x2="25.9896" y2="80.8046" gradientUnits="userSpaceOnUse">
<stop stop-color="#C46700"/>
<stop offset="0.86" stop-color="#C46700"/>
<stop offset="1" stop-color="#C46700"/>
</linearGradient>
<linearGradient id="paint8_linear_13470_136981" x1="20.2044" y1="84.7768" x2="24.3692" y2="82.8675" gradientUnits="userSpaceOnUse">
<stop offset="0.13" stop-color="#E09003"/>
<stop offset="1" stop-color="#E09003"/>
</linearGradient>
<radialGradient id="paint9_radial_13470_136981" cx="0" cy="0" r="1" gradientUnits="userSpaceOnUse" gradientTransform="translate(14.5104 69.7784) rotate(-19.5119) scale(8.6497 8.6497)">
<stop stop-color="#EFAB26"/>
<stop offset="0.24" stop-color="#ECA526"/>
<stop offset="0.56" stop-color="#E49524"/>
<stop offset="0.78" stop-color="#DD8523"/>
<stop offset="0.86" stop-color="#DE8823"/>
<stop offset="0.91" stop-color="#E39124"/>
<stop offset="0.96" stop-color="#EAA025"/>
<stop offset="0.98" stop-color="#EFAB26"/>
</radialGradient>
</defs>
</svg>
