<svg width="50" height="36" viewBox="0 0 50 36" fill="none" xmlns="http://www.w3.org/2000/svg">
<path d="M8.9487 9.38279C8.92813 9.64471 8.88623 9.9047 8.8234 10.1604C8.29834 11.9324 4.92523 13.5826 2.93637 13.0655C0.947504 12.5484 -0.420833 10.1205 0.118149 8.04431C0.611386 6.14307 1.89619 5.21526 3.99245 5.22667C6.57996 5.24188 8.88505 7.1051 8.9487 9.38279Z" fill="#47BFC7"/>
<path d="M29.1375 5.92128C29.0659 8.54689 27.3475 10.3303 25.0882 10.104C22.9004 9.89297 21.371 7.75408 21.6753 5.31478C22.0114 2.61311 24.3483 1.02747 26.6753 1.92296C28.2087 2.51995 29.1872 4.10559 29.1375 5.92128Z" fill="#47BFC7"/>
<path d="M8.60157 31.6523C8.60157 29.3936 9.8824 27.9373 11.8713 27.9221C14.2798 27.903 16.0598 29.4259 16.0896 31.5344C16.0944 32.0545 15.9913 32.5704 15.7865 33.0523C15.5817 33.5342 15.2791 33.9726 14.8962 34.3421C14.5133 34.7117 14.0577 35.0051 13.5556 35.2056C13.0535 35.406 12.5148 35.5094 11.9707 35.5099C9.9182 35.5175 8.59759 34.0041 8.60157 31.6523Z" fill="#47BFC7"/>
<path d="M37.5492 25.1934C37.5654 25.5554 37.5059 25.9169 37.374 26.2566C37.2421 26.5963 37.0406 26.9074 36.7812 27.1716C36.5218 27.4358 36.2099 27.6479 35.8636 27.7953C35.5173 27.9427 35.1438 28.0225 34.7648 28.03C33.1299 28.0699 31.7974 26.7144 31.7258 24.9405C31.6542 23.1666 32.8078 21.8871 34.4486 21.8985C36.1431 21.9137 37.5074 23.3663 37.5492 25.1934Z" fill="#47BFC7"/>
<path d="M47.468 0.50581C47.8321 0.532952 48.187 0.629316 48.5117 0.789254C48.8364 0.949191 49.1245 1.16948 49.359 1.43722C49.5935 1.70496 49.7697 2.01475 49.8774 2.34844C49.985 2.68213 50.0219 3.033 49.9859 3.38049C49.8327 4.95852 48.4465 6.12969 46.9091 5.97949C45.4831 5.8388 44.4349 4.63341 44.4946 3.19987C44.5583 1.62754 45.9087 0.405044 47.468 0.50581Z" fill="#47BFC7"/>
</svg>
