<svg width="107" height="109" viewBox="0 0 107 109" fill="none" xmlns="http://www.w3.org/2000/svg">
<g clip-path="url(#clip0_13481_146410)">
<path d="M21.0722 77.1962C29.713 78.3422 38.4797 78.1188 47.0489 76.5342C55.4524 74.9818 63.5879 72.229 71.2054 68.3606C86.2523 60.8588 98.6751 48.9844 106.844 34.2955C97.5182 47.6588 84.3569 57.8805 69.0956 63.6127C54.4159 69.369 38.3324 70.5436 22.9647 66.9817L21.0722 77.1962Z" fill="#31A5C4"/>
<path d="M28.3402 59.6005L2.9848 68.5644L23.4326 86.0294L28.3402 59.6005Z" fill="#31A5C4"/>
<path d="M26.3877 81.5292C31.0811 82.4925 35.8767 82.8611 40.6615 82.6266C45.4662 82.437 50.2388 81.76 54.9059 80.606C57.257 80.0523 59.535 79.291 61.8186 78.5181C62.9485 78.1115 64.0418 77.6012 65.1534 77.1428L66.8011 76.4961L68.3992 75.653C69.4509 75.0797 70.532 74.5348 71.5775 73.9441L74.5832 71.9655C75.0645 71.6216 75.581 71.2944 76.0507 70.9449L77.4465 69.8037C78.3615 69.0355 79.2648 68.2616 80.162 67.4705C79.0929 68.0403 78.0529 68.6193 77.0421 69.2074L75.5086 70.0958C74.9912 70.365 74.456 70.6112 73.9268 70.8748L70.775 72.4384L67.5613 73.7712C63.2594 75.5755 58.8168 77.0254 54.278 78.1063C49.7403 79.2325 45.137 80.0771 40.4945 80.6354C35.8108 81.1747 31.1023 81.473 26.3877 81.5292Z" fill="url(#paint0_linear_13481_146410)"/>
<path d="M103.743 32.5561C97.6918 38.276 91.7055 43.7108 85.2887 48.7236C82.1006 51.2326 78.7642 53.5411 75.3622 55.7464C71.8765 57.8886 68.2708 59.8297 64.5628 61.5601C68.6671 60.7695 72.6387 59.404 76.3604 57.5039C80.0622 55.5766 83.5838 53.322 86.8832 50.7672C90.1494 48.1821 93.2226 45.3623 96.0783 42.3304C98.9407 39.3254 101.507 36.0523 103.743 32.5561Z" fill="url(#paint1_linear_13481_146410)"/>
</g>
<defs>
<linearGradient id="paint0_linear_13481_146410" x1="80.3682" y1="67.0029" x2="68.7466" y2="97.6877" gradientUnits="userSpaceOnUse">
<stop stop-color="#0F79A7"/>
<stop offset="1" stop-color="#42DFE9"/>
</linearGradient>
<linearGradient id="paint1_linear_13481_146410" x1="104" y1="32" x2="94.0645" y2="69.5071" gradientUnits="userSpaceOnUse">
<stop stop-color="#0F79A7"/>
<stop offset="1" stop-color="#42DFE9"/>
</linearGradient>
<clipPath id="clip0_13481_146410">
<rect width="82.9492" height="78.8371" fill="white" transform="matrix(-0.432412 0.901676 0.901676 0.432412 35.8691 0)"/>
</clipPath>
</defs>
</svg>
