<svg width="152" height="206" viewBox="0 0 152 206" fill="none" xmlns="http://www.w3.org/2000/svg">
<g clip-path="url(#clip0_14950_129770)">
<path d="M15.0712 17.8594H136.929C144.973 17.8594 151.5 23.0222 151.5 29.385V184.97C151.5 191.333 144.973 196.496 136.929 196.496H15.0712C7.02715 196.496 0.5 191.333 0.5 184.97V29.385C0.5 23.0222 7.02715 17.8594 15.0712 17.8594Z" fill="#1C69A7"/>
<path d="M151.497 29.3884V184.974C151.497 191.337 144.979 196.499 136.926 196.499H15.0686C11.6274 196.499 8.47215 195.553 5.98438 193.969L144.771 19.6797C148.819 21.7229 151.497 25.3088 151.497 29.3884Z" fill="#1C69A7"/>
<path d="M131.79 27.9531H20.204C15.1726 27.9531 11.0938 31.0383 11.0938 34.844V176.603C11.0938 180.408 15.1726 183.493 20.204 183.493H131.79C136.821 183.493 140.9 180.408 140.9 176.603V34.844C140.9 31.0383 136.821 27.9531 131.79 27.9531Z" fill="#EFEFEF"/>
<path d="M140.899 34.843V176.608C140.899 180.417 136.825 183.499 131.797 183.499H20.2029C17.1344 183.499 14.4213 182.352 12.7656 180.581L138.203 29.9453C139.867 31.1911 140.899 32.9285 140.899 34.843Z" fill="#EFEFEF"/>
<path d="M44.7744 79H26.2256C23.3461 79 21 76.4113 21 73.2338V52.7662C21 49.5887 23.3461 47 26.2256 47H44.7744C47.654 47 50 49.5887 50 52.7662V73.2338C50 76.4113 47.654 79 44.7744 79ZM26.2256 49.9784C24.829 49.9784 23.6991 51.2338 23.6991 52.7662V73.2338C23.6991 74.7749 24.8369 76.0216 26.2256 76.0216H44.7744C46.171 76.0216 47.3009 74.7662 47.3009 73.2338V52.7662C47.3009 51.2251 46.1632 49.9784 44.7744 49.9784H26.2256Z" fill="#D4D4D4"/>
<path d="M128.897 53.7135H66.9284C66.105 53.7135 65.4375 53.0467 65.4375 52.224C65.4375 51.4012 66.105 50.7344 66.9284 50.7344H128.889C129.712 50.7344 130.38 51.4012 130.38 52.224C130.38 53.0467 129.712 53.7135 128.889 53.7135H128.897Z" fill="#D4D4D4"/>
<path d="M128.897 64.3854H66.9284C66.105 64.3854 65.4375 63.7186 65.4375 62.8958C65.4375 62.0731 66.105 61.4062 66.9284 61.4062H128.889C129.712 61.4062 130.38 62.0731 130.38 62.8958C130.38 63.7186 129.712 64.3854 128.889 64.3854H128.897Z" fill="#D4D4D4"/>
<path d="M114.075 75.0573H66.9284C66.105 75.0573 65.4375 74.3904 65.4375 73.5677C65.4375 72.745 66.105 72.0781 66.9284 72.0781H114.075C114.898 72.0781 115.566 72.745 115.566 73.5677C115.566 74.3904 114.898 75.0573 114.075 75.0573Z" fill="#D4D4D4"/>
<path d="M47.2178 121.891H26.7261C23.5449 121.891 20.9531 119.302 20.9531 116.124V95.6506C20.9531 92.4723 23.5449 89.8828 26.7261 89.8828H47.2178C50.399 89.8828 52.9908 92.4723 52.9908 95.6506V116.124C52.9908 119.302 50.399 121.891 47.2178 121.891ZM26.7261 92.862C25.1832 92.862 23.935 94.1177 23.935 95.6506V116.124C23.935 117.665 25.1919 118.912 26.7261 118.912H47.2178C48.7607 118.912 50.0089 117.656 50.0089 116.124V95.6506C50.0089 94.1091 48.752 92.862 47.2178 92.862H26.7261Z" fill="#D4D4D4"/>
<path d="M128.905 96.7057H66.9362C66.1128 96.7057 65.4453 96.0389 65.4453 95.2161C65.4453 94.3934 66.1128 93.7266 66.9362 93.7266H128.897C129.72 93.7266 130.387 94.3934 130.387 95.2161C130.387 96.0389 129.72 96.7057 128.897 96.7057H128.905Z" fill="#D4D4D4"/>
<path d="M128.905 107.378H66.9362C66.1128 107.378 65.4453 106.711 65.4453 105.888C65.4453 105.065 66.1128 104.398 66.9362 104.398H128.897C129.72 104.398 130.387 105.065 130.387 105.888C130.387 106.711 129.72 107.378 128.897 107.378H128.905Z" fill="#D4D4D4"/>
<path d="M114.083 118.042H66.9362C66.1128 118.042 65.4453 117.375 65.4453 116.552C65.4453 115.729 66.1128 115.062 66.9362 115.062H114.083C114.906 115.062 115.574 115.729 115.574 116.552C115.574 117.375 114.906 118.042 114.083 118.042Z" fill="#D4D4D4"/>
<path d="M47.2178 164.884H26.7261C23.5449 164.884 20.9531 162.294 20.9531 159.116V138.643C20.9531 135.464 23.5449 132.875 26.7261 132.875H47.2178C50.399 132.875 52.9908 135.464 52.9908 138.643V159.116C52.9908 162.294 50.399 164.884 47.2178 164.884ZM26.7261 135.854C25.1832 135.854 23.935 137.11 23.935 138.643V159.116C23.935 160.657 25.1919 161.904 26.7261 161.904H47.2178C48.7607 161.904 50.0089 160.649 50.0089 159.116V138.643C50.0089 137.101 48.752 135.854 47.2178 135.854H26.7261Z" fill="#D4D4D4"/>
<path d="M128.905 139.698H66.9362C66.1128 139.698 65.4453 139.031 65.4453 138.208C65.4453 137.386 66.1128 136.719 66.9362 136.719H128.897C129.72 136.719 130.387 137.386 130.387 138.208C130.387 139.031 129.72 139.698 128.897 139.698H128.905Z" fill="#D4D4D4"/>
<path d="M128.905 150.37H66.9362C66.1128 150.37 65.4453 149.703 65.4453 148.88C65.4453 148.057 66.1128 147.391 66.9362 147.391H128.897C129.72 147.391 130.387 148.057 130.387 148.88C130.387 149.703 129.72 150.37 128.897 150.37H128.905Z" fill="#D4D4D4"/>
<path d="M114.083 161.042H66.9362C66.1128 161.042 65.4453 160.375 65.4453 159.552C65.4453 158.729 66.1128 158.062 66.9362 158.062H114.083C114.906 158.062 115.574 158.729 115.574 159.552C115.574 160.375 114.906 161.042 114.083 161.042Z" fill="#D4D4D4"/>
<path d="M54.8906 17.8594H97.1134V24.6404C97.1134 29.75 92.9613 33.907 87.8384 33.907H64.1656C59.0514 33.907 54.8906 29.7587 54.8906 24.6404V17.8594Z" fill="#3189C1"/>
<path d="M92.5492 16.7035V17.8639H75.9929C78.8794 17.8639 81.2112 15.5257 81.2112 12.6591C81.2112 9.79253 78.8707 7.45424 75.9929 7.45424C73.1151 7.45424 70.7833 9.78387 70.7833 12.6591C70.7833 15.5343 73.1237 17.8639 75.9929 17.8639H59.4453V16.7035C59.4453 7.75735 66.7006 0.5 75.6635 0.5H76.3223C85.2852 0.5 92.5405 7.75735 92.5405 16.7035H92.5492Z" fill="#3B97CD"/>
<path d="M97.1134 18.8281V24.6479C97.1134 29.7575 92.9613 33.9057 87.8384 33.9057H64.1656C59.0427 33.9057 54.8906 29.7575 54.8906 24.6479V18.8281C54.8906 23.9464 59.0427 28.0947 64.1656 28.0947H87.8384C92.9613 28.0947 97.1134 23.9464 97.1134 18.8281Z" fill="#348CC4"/>
</g>
<defs>
<clipPath id="clip0_14950_129770">
<rect width="151" height="205" fill="white" transform="translate(0.5 0.5)"/>
</clipPath>
</defs>
</svg>
