<svg width="33" height="33" viewBox="0 0 33 33" fill="none" xmlns="http://www.w3.org/2000/svg">
<path d="M16.5 2.94531C13.7311 2.94531 11.0243 3.7664 8.72202 5.30474C6.41973 6.84308 4.62532 9.02958 3.56569 11.5877C2.50607 14.1459 2.22882 16.9608 2.76901 19.6766C3.30921 22.3923 4.64258 24.8869 6.60051 26.8448C8.55845 28.8027 11.053 30.1361 13.7687 30.6763C16.4845 31.2165 19.2994 30.9392 21.8576 29.8796C24.4157 28.82 26.6022 27.0256 28.1406 24.7233C29.6789 22.421 30.5 19.7142 30.5 16.9453C30.4929 13.2345 29.0156 9.67764 26.3916 7.05368C23.7677 4.42971 20.2108 2.95243 16.5 2.94531ZM16.5 28.7915C14.1571 28.7915 11.8667 28.0967 9.91863 26.795C7.97054 25.4934 6.45219 23.6432 5.55559 21.4786C4.65898 19.314 4.42439 16.9322 4.88147 14.6342C5.33856 12.3363 6.4668 10.2255 8.12351 8.56882C9.78022 6.9121 11.891 5.78387 14.1889 5.32678C16.4869 4.86969 18.8687 5.10429 21.0333 6.00089C23.1979 6.8975 25.048 8.41585 26.3497 10.3639C27.6514 12.312 28.3462 14.6024 28.3462 16.9453C28.3426 20.086 27.0934 23.0971 24.8726 25.3179C22.6518 27.5387 19.6407 28.7879 16.5 28.7915ZM14.3462 12.6376V21.253C14.3462 21.5386 14.2327 21.8125 14.0307 22.0145C13.8288 22.2165 13.5549 22.3299 13.2692 22.3299C12.9836 22.3299 12.7097 22.2165 12.5077 22.0145C12.3058 21.8125 12.1923 21.5386 12.1923 21.253V12.6376C12.1923 12.352 12.3058 12.0781 12.5077 11.8761C12.7097 11.6742 12.9836 11.5607 13.2692 11.5607C13.5549 11.5607 13.8288 11.6742 14.0307 11.8761C14.2327 12.0781 14.3462 12.352 14.3462 12.6376ZM20.8077 12.6376V21.253C20.8077 21.5386 20.6942 21.8125 20.4923 22.0145C20.2903 22.2165 20.0164 22.3299 19.7308 22.3299C19.4452 22.3299 19.1712 22.2165 18.9693 22.0145C18.7673 21.8125 18.6538 21.5386 18.6538 21.253V12.6376C18.6538 12.352 18.7673 12.0781 18.9693 11.8761C19.1712 11.6742 19.4452 11.5607 19.7308 11.5607C20.0164 11.5607 20.2903 11.6742 20.4923 11.8761C20.6942 12.0781 20.8077 12.352 20.8077 12.6376Z" fill="#E02B1D"/>
</svg>
