<svg width="529" height="133" viewBox="0 0 529 133" fill="none" xmlns="http://www.w3.org/2000/svg">
<path d="M245.888 66.8413C242.954 66.0781 240.186 64.7773 237.727 63.005L241.331 55.0026C243.467 56.5303 245.835 57.7058 248.344 58.4846C250.971 59.3406 253.717 59.7817 256.48 59.7918C258.788 59.9505 261.096 59.4864 263.163 58.4479C263.813 58.1049 264.357 57.5918 264.738 56.9635C265.119 56.3351 265.322 55.6152 265.326 54.8804C265.342 54.3633 265.241 53.8493 265.029 53.3773C264.817 52.9052 264.501 52.4876 264.104 52.1559C263.116 51.3689 261.982 50.7836 260.769 50.4333C259.437 49.9934 257.629 49.5169 255.356 48.9916C252.459 48.3487 249.603 47.5327 246.804 46.5481C244.581 45.7276 242.604 44.3523 241.062 42.553C239.372 40.4939 238.502 37.8836 238.618 35.2225C238.592 32.6485 239.346 30.127 240.781 27.9898C242.406 25.6712 244.674 23.8789 247.305 22.834C250.689 21.4795 254.315 20.8349 257.959 20.9403C260.842 20.935 263.715 21.2879 266.511 21.991C269.096 22.6037 271.57 23.6178 273.841 24.9965L270.567 33.06C266.715 30.7684 262.33 29.5257 257.849 29.4559C255.557 29.2969 253.268 29.7972 251.251 30.8976C250.63 31.3004 250.12 31.8526 249.768 32.5036C249.416 33.1547 249.233 33.8837 249.235 34.6239C249.234 35.3884 249.467 36.1349 249.904 36.7622C250.342 37.3895 250.961 37.8671 251.679 38.1303C254.102 39.133 256.619 39.8902 259.193 40.3905C262.089 41.0358 264.945 41.8517 267.745 42.834C269.956 43.6471 271.93 44.9993 273.487 46.768C275.204 48.8118 276.078 51.4332 275.931 54.0985C275.95 56.6617 275.182 59.1692 273.731 61.2824C272.078 63.5954 269.791 65.3815 267.146 66.4259C263.75 67.7819 260.112 68.4304 256.456 68.3318C252.88 68.3443 249.321 67.8423 245.888 66.8413Z" fill="#3483D8"/>
<path d="M292.438 65.2647C288.747 63.3176 285.661 60.3929 283.52 56.8103C281.336 53.1136 280.216 48.8857 280.282 44.5928C280.217 40.3001 281.338 36.0727 283.52 32.3754C285.661 28.7928 288.747 25.868 292.438 23.9209C296.369 21.8553 300.754 20.8093 305.193 20.8787C308.895 20.8248 312.568 21.5361 315.981 22.9679C319.114 24.3165 321.885 26.3842 324.069 29.0033L317.252 35.2953C315.857 33.5904 314.096 32.2217 312.099 31.291C310.102 30.3604 307.922 29.8916 305.719 29.9196C303.065 29.8659 300.442 30.5015 298.107 31.7645C295.913 32.981 294.109 34.7939 292.903 36.9936C291.631 39.3217 290.987 41.9405 291.033 44.5928C290.987 47.249 291.631 49.8717 292.903 52.2043C294.117 54.3888 295.92 56.188 298.107 57.3967C300.44 58.6681 303.063 59.3122 305.719 59.266C307.927 59.292 310.113 58.8162 312.111 57.8744C314.109 56.9326 315.867 55.5494 317.252 53.8292L324.069 60.1212C321.894 62.7838 319.107 64.8798 315.945 66.2299C312.521 67.6709 308.835 68.3865 305.12 68.3313C300.702 68.3919 296.341 67.3372 292.438 65.2647Z" fill="#3483D8"/>
<path d="M373.304 21.6367V67.5377H362.687V48.7106H341.832V67.5377H331.215V21.6367H341.832V39.7308H362.687V21.6367H373.304Z" fill="#3483D8"/>
<path d="M393.534 65.2401C389.78 63.271 386.648 60.2951 384.49 56.646C382.332 52.997 381.234 48.8189 381.317 44.5804C381.257 40.3075 382.377 36.1009 384.555 32.424C386.707 28.7998 389.819 25.8404 393.547 23.8718C397.533 21.8478 401.941 20.793 406.412 20.793C410.882 20.793 415.29 21.8478 419.277 23.8718C423.019 25.852 426.141 28.8286 428.297 32.4726C430.453 36.1165 431.56 40.2857 431.494 44.5193C431.566 48.8178 430.432 53.0504 428.22 56.7367C426.046 60.3242 422.943 63.2579 419.24 65.2279C415.253 67.2518 410.846 68.3067 406.375 68.3067C401.904 68.3067 397.496 67.2518 393.51 65.2279L393.534 65.2401ZM413.754 57.3965C415.917 56.1707 417.698 54.3691 418.898 52.1918C420.169 49.8593 420.813 47.2366 420.767 44.5804C420.811 41.9322 420.167 39.3179 418.898 36.9933C417.703 34.8093 415.921 33.0024 413.754 31.7765C411.504 30.5543 408.984 29.914 406.424 29.914C403.863 29.914 401.343 30.5543 399.093 31.7765C396.917 32.9988 395.127 34.806 393.925 36.9933C392.654 39.3215 392.01 41.9403 392.056 44.5926C392.01 47.2488 392.654 49.8715 393.925 52.2041C395.125 54.3813 396.906 56.183 399.069 57.4087C401.319 58.6309 403.839 59.2711 406.399 59.2711C408.96 59.2711 411.48 58.6309 413.73 57.4087L413.754 57.3965Z" fill="#3483D8"/>
<path d="M448.868 65.2405C445.114 63.2714 441.982 60.2955 439.824 56.6465C437.666 52.9974 436.568 48.8194 436.651 44.5808C436.57 40.3443 437.67 36.1689 439.828 32.5222C441.985 28.8754 445.116 25.9015 448.868 23.9333C452.855 21.9093 457.263 20.8545 461.733 20.8545C466.204 20.8545 470.612 21.9093 474.598 23.9333C478.341 25.9135 481.463 28.8901 483.619 32.5341C485.775 36.178 486.881 40.3473 486.816 44.5808C486.888 48.8793 485.754 53.112 483.541 56.7983C481.368 60.3858 478.265 63.3195 474.562 65.2894C470.575 67.3134 466.167 68.3682 461.697 68.3682C457.226 68.3682 452.818 67.3134 448.832 65.2894L448.868 65.2405ZM469.149 57.3969C471.312 56.1712 473.093 54.3695 474.293 52.1923C475.564 49.8597 476.208 47.237 476.162 44.5808C476.188 41.9272 475.522 39.3125 474.232 36.9938C473.055 34.8134 471.295 33.003 469.149 31.7647C466.899 30.5425 464.379 29.9023 461.819 29.9023C459.258 29.9023 456.738 30.5425 454.488 31.7647C452.288 32.9813 450.476 34.7937 449.259 36.9938C447.988 39.3219 447.344 41.9407 447.39 44.593C447.344 47.2492 447.988 49.8719 449.259 52.2045C450.459 54.3817 452.24 56.1834 454.403 57.4091C456.653 58.6314 459.173 59.2716 461.733 59.2716C464.294 59.2716 466.814 58.6314 469.064 57.4091L469.149 57.3969Z" fill="#3483D8"/>
<path d="M494.807 21.6367H505.424V58.8755H528.441V67.5377H494.807V21.6367Z" fill="#3483D8"/>
<path d="M246.376 118.105C243.976 117.475 241.711 116.41 239.693 114.966L242.65 108.405C244.397 109.658 246.337 110.62 248.392 111.251C250.545 111.959 252.797 112.322 255.063 112.327C256.953 112.455 258.843 112.075 260.536 111.227C261.069 110.947 261.516 110.528 261.828 110.013C262.14 109.499 262.306 108.909 262.308 108.307C262.318 107.88 262.229 107.456 262.049 107.068C261.869 106.68 261.602 106.339 261.269 106.071C260.469 105.434 259.558 104.949 258.582 104.642C257.482 104.283 256.004 103.876 254.147 103.42C251.763 102.877 249.414 102.196 247.109 101.38C245.286 100.705 243.667 99.5732 242.406 98.0933C241.031 96.4011 240.33 94.26 240.439 92.0823C240.419 89.9682 241.041 87.8977 242.222 86.1446C243.552 84.2486 245.408 82.7833 247.561 81.9296C250.335 80.8154 253.309 80.2832 256.297 80.3658C258.669 80.365 261.033 80.6564 263.334 81.2332C265.456 81.7198 267.486 82.5449 269.345 83.6767L266.669 90.2863C263.51 88.406 259.912 87.3865 256.236 87.3297C254.359 87.2047 252.487 87.6292 250.848 88.5514C250.309 88.8723 249.865 89.329 249.558 89.8757C249.251 90.4224 249.094 91.0401 249.101 91.6669C249.1 92.2931 249.292 92.9045 249.65 93.418C250.009 93.9316 250.516 94.3226 251.104 94.538C253.074 95.359 255.12 95.9811 257.213 96.3951C259.599 96.9268 261.95 97.6082 264.25 98.4354C266.09 99.1182 267.725 100.258 269.003 101.746C270.379 103.418 271.077 105.546 270.958 107.708C270.973 109.805 270.347 111.856 269.162 113.585C267.809 115.488 265.933 116.956 263.762 117.812C260.978 118.921 257.997 119.449 255.002 119.364C252.082 119.355 249.177 118.931 246.376 118.105Z" fill="#0DCAD3"/>
<path d="M284.531 116.822C281.497 115.226 278.961 112.825 277.201 109.883C275.455 106.833 274.537 103.379 274.537 99.8646C274.537 96.3501 275.455 92.8966 277.201 89.8463C278.958 86.9043 281.495 84.5066 284.531 82.919C287.753 81.2395 291.345 80.3991 294.977 80.4755C298.013 80.433 301.025 81.0195 303.823 82.1981C306.386 83.2851 308.659 84.959 310.457 87.0851L304.861 92.2531C303.719 90.8527 302.276 89.7285 300.638 88.9648C299.001 88.201 297.212 87.8174 295.405 87.8426C293.231 87.8081 291.085 88.3341 289.174 89.3698C287.381 90.3693 285.904 91.8505 284.91 93.6459C283.904 95.5687 283.378 97.7066 283.378 99.8768C283.378 102.047 283.904 104.185 284.91 106.108C285.899 107.907 287.377 109.39 289.174 110.384C291.085 111.42 293.231 111.945 295.405 111.911C297.216 111.935 299.009 111.546 300.648 110.773C302.286 110 303.727 108.864 304.861 107.452L310.457 112.607C308.677 114.796 306.392 116.519 303.798 117.629C300.992 118.807 297.972 119.393 294.928 119.351C291.306 119.393 287.73 118.524 284.531 116.822Z" fill="#0DCAD3"/>
<path d="M316.311 81.062H324.985V118.667H316.311V81.062Z" fill="#0DCAD3"/>
<path d="M363.054 111.691V118.667H333.939V81.062H362.357V88.0504H342.577V96.2117H360.048V102.968H342.577V111.679L363.054 111.691Z" fill="#0DCAD3"/>
<path d="M404.483 81.062V118.667H397.335L378.582 95.8329V118.667H370.029V81.062H377.238L395.845 103.896V81.062H404.483Z" fill="#0DCAD3"/>
<path d="M421.185 88.1481H409.15V81.062H441.93V88.1481H429.896V118.692H421.185V88.1481Z" fill="#0DCAD3"/>
<path d="M446.609 81.062H455.308V118.667H446.609V81.062Z" fill="#0DCAD3"/>
<path d="M467.928 118.105C465.523 117.477 463.253 116.412 461.232 114.965L464.262 108.405C466.013 109.66 467.956 110.622 470.017 111.251C472.165 111.96 474.413 112.323 476.675 112.326C478.569 112.453 480.462 112.073 482.161 111.227C482.692 110.945 483.137 110.525 483.449 110.011C483.761 109.497 483.928 108.908 483.932 108.307C483.94 107.879 483.849 107.454 483.667 107.067C483.485 106.679 483.216 106.338 482.882 106.071C482.083 105.431 481.171 104.947 480.194 104.642C479.111 104.283 477.632 103.876 475.759 103.42C473.377 102.873 471.027 102.192 468.722 101.38C466.9 100.702 465.281 99.5705 464.018 98.093C462.647 96.3991 461.951 94.2582 462.063 92.082C462.039 89.9691 462.657 87.8985 463.835 86.1444C465.168 84.2726 467.013 82.8258 469.149 81.9782C471.924 80.8651 474.897 80.3328 477.885 80.4144C480.257 80.4122 482.621 80.7035 484.922 81.2818C487.047 81.7706 489.08 82.5955 490.945 83.7253L488.257 90.335C485.102 88.4551 481.509 87.4356 477.836 87.3783C475.955 87.2516 474.079 87.6762 472.436 88.6001C471.903 88.9273 471.463 89.3853 471.157 89.9306C470.851 90.4759 470.69 91.0903 470.689 91.7155C470.687 92.3437 470.88 92.9569 471.241 93.4709C471.602 93.985 472.113 94.3747 472.705 94.5866C474.674 95.4069 476.721 96.029 478.813 96.4437C481.2 96.9754 483.55 97.6569 485.851 98.484C487.676 99.1566 489.302 100.279 490.579 101.746C491.959 103.416 492.661 105.544 492.546 107.708C492.563 109.807 491.932 111.859 490.738 113.585C489.388 115.49 487.511 116.959 485.337 117.812C482.557 118.919 479.581 119.447 476.59 119.364C473.657 119.36 470.74 118.936 467.928 118.105Z" fill="#0DCAD3"/>
<path d="M505.804 88.1481H493.77V81.062H526.549V88.1481H514.515V118.692H505.804V88.1481Z" fill="#0DCAD3"/>
<path fill-rule="evenodd" clip-rule="evenodd" d="M30.0779 57.6047C30.2122 51.3249 30.762 45.094 31.2996 38.8387C31.4996 36.0248 31.8462 33.2231 32.3381 30.4453C30.0779 30.7996 25.3863 31.9358 24.7266 35.6011C23.7215 41.8801 23.1297 48.2183 22.9551 54.5748C22.9551 57.5558 27.3534 59.9138 30.2855 61.1478C30.1023 59.9505 30.0534 58.7654 30.0779 57.6047Z" fill="#0DCAD3"/>
<path d="M144.166 38.8385C143.714 33.0596 142.944 26.8165 140.501 21.4897C135.284 10.1153 123.995 5.32603 112.474 2.96806C104.327 1.37902 96.0572 0.500134 87.758 0.341309L87.6603 0.341309C79.3612 0.500134 71.0915 1.37902 62.9444 2.96806C51.4233 5.32603 40.1344 10.1153 34.9664 21.4897C32.5229 26.8165 31.7044 33.0596 31.3012 38.8385C30.8125 45.0938 30.2627 51.3247 30.0795 57.6045C29.9328 64.3607 31.5333 72.1921 36.0416 77.409C37.0982 78.633 38.2956 79.7279 39.6091 80.671C43.9829 83.7987 49.1509 85.4236 54.27 86.6332C61.2504 88.1629 68.3603 89.0261 75.5039 89.211C76.3103 89.211 87.0983 89.7486 87.6481 89.6631C88.1979 89.5776 98.9859 89.2477 99.7922 89.211C106.936 89.0261 114.046 88.1629 121.026 86.6332C126.206 85.4114 131.374 83.7987 135.76 80.671C137.067 79.7245 138.26 78.6298 139.316 77.409C143.824 72.1921 145.424 64.3607 145.278 57.6045C145.204 51.3247 144.655 45.0938 144.166 38.8385ZM131.069 61.8806C127.302 66.2144 122.095 69.0394 116.408 69.8342C111.415 70.6233 106.302 69.7065 101.894 67.2318C101.332 66.902 100.77 66.5477 100.244 66.1689L100.073 66.0468C97.4954 64.153 95.6139 61.5263 93.0482 59.6326C91.4788 58.4204 89.6523 57.5845 87.7092 57.1891C85.766 57.5845 83.9395 58.4204 82.3701 59.6326C79.8045 61.5263 77.923 64.153 75.3451 66.0468L75.1741 66.1689C74.6487 66.5477 74.0867 66.902 73.5247 67.2318C69.1237 69.701 64.02 70.6177 59.0348 69.8342C53.3481 69.0394 48.1407 66.2144 44.3739 61.8806C37.2144 53.4872 36.6524 38.8018 44.8259 30.8849C49.015 27.0388 54.0307 24.205 59.4869 22.6015C64.1912 21.2167 69.013 20.2679 73.8912 19.7671C78.4361 19.2417 83.1032 18.6675 87.697 18.5453C92.2907 18.4231 96.9578 19.2051 101.503 19.7671C106.381 20.2679 111.203 21.2167 115.907 22.6015C121.363 24.205 126.379 27.0388 130.568 30.8849C138.803 38.8018 138.204 53.4872 131.069 61.8806Z" fill="#3483D8"/>
<path fill-rule="evenodd" clip-rule="evenodd" d="M145.387 57.6047C145.253 51.3249 144.703 45.094 144.165 38.8387C143.965 36.0248 143.619 33.2231 143.127 30.4453C145.387 30.7996 150.079 31.9358 150.738 35.6011C151.744 41.8801 152.335 48.2183 152.51 54.5748C152.51 57.5558 148.112 59.9138 145.179 61.1478C145.314 59.9505 145.387 58.7654 145.387 57.6047Z" fill="#0DCAD3"/>
<path d="M0 81.978C0 81.978 61.9669 89.3085 98.1183 128.099H77.3487C77.3487 128.099 48.6377 93.719 0 81.978Z" fill="#3483D8"/>
<path d="M1.00195 96.5049C1.00195 96.5049 43.4576 101.514 68.1979 128.099H53.9646C39.7744 112.622 21.3626 101.638 1.00195 96.5049Z" fill="#0DCAD3"/>
<path d="M175.417 81.978C175.417 81.978 113.45 89.3085 77.2988 128.099H98.0685C98.0685 128.099 126.78 93.719 175.417 81.978Z" fill="#3483D8"/>
<path d="M174.417 96.5049C174.417 96.5049 131.961 101.514 107.221 128.099H121.454C135.644 112.622 154.056 101.638 174.417 96.5049Z" fill="#0DCAD3"/>
<path d="M207.051 2.89453V132.79" stroke="#E6E7E8" stroke-width="1.06292" stroke-miterlimit="10"/>
</svg>
