<svg width="118" height="49" viewBox="0 0 118 49" fill="none" xmlns="http://www.w3.org/2000/svg">
<path d="M0.974609 8.38372C0.974609 3.34014 4.44291 0.818359 11.3795 0.818359C18.3334 0.818359 21.8104 3.34014 21.8104 8.38372V13.2307H14.5581V8.38273C14.5581 6.76674 13.5073 5.95275 11.4055 5.94077H11.3546C9.27011 5.94077 8.22788 6.75476 8.22788 8.38273V11.651C8.22788 13.255 10.4921 15.2199 15.0206 17.5458C19.5492 19.859 21.8134 22.632 21.8134 25.8646V30.4182C21.8134 35.4744 18.3451 38.0025 11.4085 38.0025C4.45458 37.9899 0.977612 35.4618 0.977612 30.4182V25.5702H8.22988V30.4182C8.22988 32.0468 9.28908 32.8608 11.4075 32.8602C13.5093 32.8602 14.5601 32.0462 14.5601 30.4182V26.3037C14.5601 24.566 12.2959 22.5338 7.76737 20.2073C3.23887 17.8934 0.974609 15.0779 0.974609 11.7607V8.38372Z" fill="#1A987C"/>
<path d="M95.3622 0.791504V20.2703C95.3622 21.84 94.3104 23.2641 92.6102 24.2899C91.5777 24.8954 90.4556 25.3332 89.2857 25.5873V38.0415H82.6498V25.5873C79.0996 24.7749 76.5723 22.7002 76.5723 20.2663V0.791504H83.3411V20.2383C83.3411 21.1165 84.5178 21.829 85.9712 21.829C87.4247 21.829 88.6025 21.1165 88.6025 20.2383V0.791504H95.3622Z" fill="#1A987C"/>
<path d="M108.506 0.791504C103.452 0.791504 99.3555 3.07179 99.3555 5.88698V38.0485H105.942V25.5893C106.79 25.7246 107.648 25.7913 108.507 25.7888C110.754 25.8347 112.977 25.3221 114.976 24.2969C116.631 23.3758 117.655 22.1015 117.655 20.6934V5.88698C117.655 3.07179 113.558 0.791504 108.506 0.791504ZM111.068 16.7016C111.068 16.7096 111.068 16.7166 111.068 16.7246C111.068 16.7326 111.068 16.7395 111.068 16.7475V20.895C111.068 21.6823 109.919 22.32 108.506 22.32C107.876 22.3337 107.254 22.1903 106.694 21.9029C106.49 21.8173 106.312 21.6787 106.18 21.5015C106.048 21.3242 105.965 21.1148 105.941 20.895V5.77321C105.941 4.98584 107.09 4.34815 108.506 4.34815C109.134 4.33479 109.757 4.47815 110.316 4.76529C110.52 4.85075 110.697 4.98935 110.83 5.16662C110.962 5.34389 111.044 5.55337 111.068 5.77321V16.7016Z" fill="#1A987C"/>
<path d="M47.39 0.791504V5.85005H39.6702V38.0465H33.0343V5.85005H25.3145V0.791504H47.39Z" fill="#1A987C"/>
<path d="M72.5506 8.02861C72.3019 4.0129 67.6808 0.811523 62.0149 0.811523C56.3489 0.811523 51.7258 4.0129 51.479 8.02861H51.4671V13.3047L48.5332 12.0673C48.5379 13.9301 48.5429 15.7929 48.5482 17.6557L51.4671 18.8632V30.3485C51.4671 34.5229 56.1891 37.9059 62.0149 37.9059C67.8397 37.9059 72.5626 34.5229 72.5626 30.3485V25.4376H64.9707V30.591C64.9707 31.7596 63.6481 32.7066 62.0179 32.7066C60.3866 32.7066 59.065 31.7596 59.065 30.591V24.4876C59.065 24.4756 59.065 24.4646 59.065 24.4537C59.065 24.4427 59.065 24.4367 59.065 24.4287C59.065 24.4207 59.065 24.4128 59.065 24.4038C59.065 24.3948 59.065 24.3818 59.065 24.3698V22.2822C60.0364 22.483 61.0259 22.5833 62.0179 22.5815V22.5815C66.8497 22.5815 70.9194 20.2533 72.168 17.0779H72.179V17.047C72.4314 16.4026 72.5618 15.7171 72.5636 15.0252V8.0296L72.5506 8.02861ZM62.0149 17.4312C61.6014 17.4322 61.1904 17.3679 60.7971 17.2406L60.1628 16.9731L59.064 16.4582V9.16227C59.064 9.15129 59.064 9.14031 59.064 9.12834C59.064 9.11636 59.064 9.10637 59.064 9.0944V8.20224C59.064 7.03366 60.3866 6.08562 62.0168 6.08562C63.6481 6.08562 64.9697 7.03266 64.9697 8.20224V9.09341C64.9697 9.10538 64.9697 9.11536 64.9697 9.12733C64.9697 9.13931 64.9697 9.15028 64.9697 9.16126V15.3145C64.9687 16.4851 63.6471 17.4312 62.0158 17.4312H62.0149Z" fill="url(#paint0_linear_13865_173584)"/>
<path d="M27.6915 46.5831L27.1241 45.0064H24.9504L24.394 46.5831H23.4141L25.5408 40.8799H26.5567L28.6835 46.5831H27.6915ZM26.8794 44.206L26.347 42.6601C26.3083 42.557 26.2547 42.394 26.1861 42.1712C26.1175 41.9483 26.0702 41.7853 26.0443 41.6822C25.9639 42.0365 25.8615 42.3855 25.7376 42.727L25.2241 44.207L26.8794 44.206Z" fill="#4D4D4D"/>
<path d="M33.1179 46.5715H32.1999V43.93C32.2199 43.6673 32.1494 43.4057 32.0001 43.1885C31.9199 43.1021 31.821 43.0351 31.7108 42.9927C31.6007 42.9504 31.4824 42.9337 31.3648 42.944C31.2066 42.9303 31.0473 42.954 30.8999 43.0133C30.7526 43.0726 30.6213 43.1659 30.5167 43.2853C30.3073 43.6289 30.2131 44.0302 30.248 44.4309V46.5715H29.334V42.2803H30.0492L30.1771 42.8431H30.224C30.358 42.6347 30.55 42.47 30.7764 42.3691C31.0252 42.2557 31.2961 42.1988 31.5696 42.2025C31.7818 42.1743 31.9977 42.1958 32.2002 42.2652C32.4028 42.3347 32.5863 42.4504 32.7364 42.6029C32.8865 42.7555 32.999 42.9408 33.065 43.1443C33.1311 43.3478 33.1489 43.5638 33.1169 43.7753L33.1179 46.5715Z" fill="#4D4D4D"/>
<path d="M36.4035 41.1439C36.3989 41.0752 36.4084 41.0063 36.4314 40.9414C36.4544 40.8765 36.4904 40.817 36.5373 40.7666C36.5891 40.7203 36.6496 40.6849 36.7153 40.6623C36.781 40.6397 36.8506 40.6304 36.9199 40.6349C36.9882 40.6307 37.0565 40.6402 37.121 40.6628C37.1855 40.6854 37.2449 40.7207 37.2955 40.7666C37.3424 40.817 37.3784 40.8765 37.4014 40.9414C37.4244 41.0063 37.4339 41.0752 37.4294 41.1439C37.4329 41.2109 37.423 41.278 37.4 41.3411C37.377 41.4042 37.3414 41.4621 37.2955 41.5112C37.2452 41.5576 37.1859 41.5934 37.1214 41.6164C37.0568 41.6394 36.9883 41.649 36.9199 41.6448C36.8505 41.6493 36.7808 41.6399 36.715 41.6169C36.6493 41.5939 36.5888 41.558 36.5373 41.5112C36.4914 41.4621 36.4559 41.4042 36.4329 41.3411C36.4099 41.278 36.3999 41.2109 36.4035 41.1439V41.1439ZM37.3714 46.5787H36.4574V42.2825H37.3714V46.5787Z" fill="#4D4D4D"/>
<path d="M42.4598 46.5717H41.5417V43.9302C41.5617 43.6675 41.4912 43.4059 41.3419 43.1887C41.2617 43.1022 41.1628 43.0353 41.0526 42.9929C40.9425 42.9505 40.8242 42.9339 40.7066 42.9442C40.5484 42.9305 40.3891 42.9542 40.2417 43.0135C40.0944 43.0728 39.9631 43.1661 39.8585 43.2855C39.649 43.629 39.5549 44.0304 39.5898 44.4311V46.5717H38.6758V42.2805H39.391L39.5189 42.8433H39.5658C39.6998 42.6349 39.8918 42.4702 40.1183 42.3693C40.3671 42.2559 40.638 42.199 40.9114 42.2027C41.1237 42.1742 41.3397 42.1955 41.5423 42.2649C41.7449 42.3343 41.9286 42.45 42.0787 42.6026C42.2288 42.7552 42.3414 42.9406 42.4073 43.1442C42.4733 43.3478 42.4909 43.5639 42.4587 43.7755L42.4598 46.5717Z" fill="#4D4D4D"/>
<path d="M43.6749 41.1439C43.6704 41.0752 43.6799 41.0064 43.7029 40.9416C43.7259 40.8767 43.7619 40.8171 43.8088 40.7666C43.8607 40.7203 43.9214 40.6849 43.9873 40.6622C44.0531 40.6396 44.1229 40.6303 44.1924 40.635C44.2605 40.6309 44.3287 40.6405 44.393 40.6631C44.4573 40.6857 44.5165 40.7209 44.567 40.7666C44.6138 40.8171 44.6499 40.8766 44.6729 40.9414C44.6959 41.0063 44.7054 41.0752 44.7008 41.1439C44.7044 41.211 44.6944 41.278 44.6714 41.3411C44.6484 41.4042 44.6129 41.4621 44.567 41.5112C44.5168 41.5575 44.4577 41.5932 44.3933 41.6162C44.329 41.6392 44.2606 41.6489 44.1924 41.6448C44.1227 41.6495 44.0528 41.6402 43.9869 41.6172C43.921 41.5942 43.8604 41.5581 43.8088 41.5112C43.7629 41.4621 43.7274 41.4042 43.7044 41.3411C43.6814 41.278 43.6714 41.211 43.6749 41.1439V41.1439ZM44.6429 46.5787H43.7339V42.2825H44.6479L44.6429 46.5787Z" fill="#4D4D4D"/>
<path d="M47.5531 45.9191C47.7799 45.9185 48.0052 45.883 48.2213 45.8142V46.5019C48.0957 46.5531 47.9647 46.5902 47.8308 46.6126C47.666 46.6431 47.4988 46.6581 47.3313 46.6576C46.4656 46.6576 46.0327 46.2019 46.0327 45.2904V42.9751H45.4453V42.5759L46.0757 42.2417L46.3863 41.3325H46.9498V42.2876H48.1744V42.9791H46.9498V45.2744C46.9422 45.3627 46.953 45.4516 46.9813 45.5355C47.0097 45.6195 47.055 45.6968 47.1146 45.7625C47.1735 45.8165 47.2426 45.8581 47.318 45.885C47.3933 45.9119 47.4732 45.9235 47.5531 45.9191V45.9191Z" fill="#4D4D4D"/>
<path d="M49.0324 41.1439C49.0278 41.0752 49.0373 41.0064 49.0603 40.9415C49.0834 40.8767 49.1194 40.8171 49.1662 40.7666C49.218 40.7204 49.2785 40.6849 49.3442 40.6623C49.4099 40.6397 49.4794 40.6304 49.5488 40.6349C49.617 40.6307 49.6854 40.6402 49.7499 40.6628C49.8144 40.6854 49.8738 40.7207 49.9244 40.7666C49.9713 40.817 50.0073 40.8765 50.0303 40.9414C50.0533 41.0063 50.0628 41.0752 50.0582 41.1439C50.0618 41.2109 50.0518 41.278 50.0288 41.3411C50.0058 41.4042 49.9703 41.4621 49.9244 41.5111C49.8741 41.5576 49.8148 41.5934 49.7503 41.6164C49.6857 41.6394 49.6172 41.649 49.5488 41.6448C49.4793 41.6493 49.4096 41.6398 49.3438 41.6169C49.2781 41.5939 49.2177 41.558 49.1662 41.5111C49.1203 41.4621 49.0848 41.4042 49.0618 41.3411C49.0388 41.278 49.0288 41.2109 49.0324 41.1439V41.1439ZM50.0003 46.5787H49.0863V42.2825H50.0003V46.5787Z" fill="#4D4D4D"/>
<path d="M53.9973 46.5766L53.8145 45.9779H53.7835C53.6199 46.2028 53.4052 46.3856 53.1572 46.5117C52.9003 46.6149 52.6247 46.6633 52.348 46.6535C52.1686 46.6641 51.9889 46.6393 51.819 46.5806C51.6491 46.5219 51.4925 46.4304 51.3581 46.3111C51.2349 46.1834 51.1397 46.0314 51.0785 45.8649C51.0173 45.6985 50.9914 45.5212 51.0025 45.3442C50.9922 45.1495 51.0322 44.9554 51.1186 44.7806C51.205 44.6059 51.3349 44.4563 51.4959 44.3462C51.9539 44.0865 52.475 43.9586 53.0013 43.977L53.7435 43.954V43.7245C53.7608 43.5021 53.6918 43.2817 53.5507 43.1088C53.4701 43.0359 53.3752 42.9804 53.272 42.946C53.1689 42.9117 53.0597 42.8991 52.9514 42.9091C52.7364 42.9092 52.5226 42.9428 52.318 43.0089C52.1188 43.0725 51.9239 43.1493 51.7347 43.2385L51.435 42.5858C51.6774 42.4609 51.9349 42.3677 52.2012 42.3084C52.4583 42.2458 52.7217 42.2122 52.9863 42.2085C53.4287 42.1763 53.868 42.303 54.225 42.5658C54.3737 42.7103 54.4885 42.886 54.5609 43.0802C54.6333 43.2743 54.6615 43.4821 54.6436 43.6885V46.5826L53.9973 46.5766ZM52.6357 45.9548C52.928 45.969 53.2144 45.8696 53.4349 45.6774C53.5377 45.5765 53.6177 45.4547 53.6694 45.3203C53.7211 45.1858 53.7433 45.0418 53.7346 44.8981V44.5248L53.1821 44.5477C52.8557 44.5374 52.5322 44.6117 52.2431 44.7633C52.1465 44.8268 52.0685 44.9148 52.0169 45.0182C51.9653 45.1216 51.9421 45.2368 51.9495 45.3521C51.9444 45.4342 51.957 45.5164 51.9864 45.5932C52.0159 45.6699 52.0615 45.7396 52.1203 45.7972C52.2648 45.914 52.4483 45.9717 52.6337 45.9589L52.6357 45.9548Z" fill="#4D4D4D"/>
<path d="M57.5247 45.9191C57.7519 45.9186 57.9776 45.8831 58.1941 45.8142V46.5019C58.0684 46.5531 57.9373 46.5902 57.8034 46.6126C57.6386 46.6431 57.4714 46.6581 57.3039 46.6576C56.4382 46.6576 56.0054 46.2019 56.0054 45.2904V42.9751H55.418V42.5759L56.0483 42.2417L56.359 41.3325H56.9233V42.2876H58.1481V42.9791H56.9233V45.2744C56.9158 45.3627 56.9265 45.4516 56.9549 45.5355C56.9833 45.6195 57.0287 45.6968 57.0882 45.7625C57.1469 45.8162 57.2157 45.8577 57.2906 45.8846C57.3656 45.9115 57.4452 45.9233 57.5247 45.9191V45.9191Z" fill="#4D4D4D"/>
<path d="M58.9972 41.1439C58.9927 41.0752 59.0022 41.0064 59.0252 40.9415C59.0483 40.8767 59.0843 40.8171 59.1311 40.7666C59.1829 40.7204 59.2434 40.6849 59.3091 40.6623C59.3748 40.6397 59.4444 40.6304 59.5137 40.6349C59.582 40.6307 59.6503 40.6402 59.7148 40.6628C59.7793 40.6854 59.8387 40.7207 59.8893 40.7666C59.9361 40.8171 59.972 40.8767 59.995 40.9415C60.018 41.0064 60.0276 41.0752 60.0231 41.1439C60.0267 41.2109 60.0167 41.278 59.9937 41.3411C59.9707 41.4042 59.9352 41.4621 59.8893 41.5111C59.839 41.5576 59.7797 41.5933 59.7152 41.6163C59.6506 41.6392 59.5821 41.6489 59.5137 41.6448C59.4442 41.6493 59.3745 41.6398 59.3088 41.6169C59.243 41.5939 59.1826 41.558 59.1311 41.5111C59.0852 41.4621 59.0497 41.4042 59.0267 41.3411C59.0037 41.278 58.9936 41.2109 58.9972 41.1439V41.1439ZM59.9652 46.5787H59.0512V42.2825H59.9652V46.5787Z" fill="#4D4D4D"/>
<path d="M62.2563 46.5794L60.623 42.2832H61.587L62.462 44.778C62.5885 45.1068 62.6795 45.448 62.7337 45.796H62.7647C62.8289 45.4502 62.9197 45.1099 63.0364 44.778L63.9115 42.2832H64.8835L63.2422 46.5794H62.2563Z" fill="#4D4D4D"/>
<path d="M67.4123 46.6539C67.1244 46.6703 66.8362 46.6267 66.566 46.5261C66.2958 46.4254 66.0496 46.2698 65.8429 46.069C65.647 45.8512 65.4962 45.5968 65.3992 45.3206C65.3021 45.0443 65.2608 44.7516 65.2775 44.4593C65.2431 43.862 65.4301 43.273 65.8029 42.8048C65.9835 42.6039 66.2067 42.4458 66.4563 42.3422C66.7058 42.2386 66.9755 42.1921 67.2454 42.206C67.4935 42.1932 67.7414 42.2326 67.9732 42.3216C68.205 42.4107 68.4154 42.5473 68.5909 42.7229C68.9372 43.1131 69.115 43.6244 69.0854 44.145V44.638H66.2194C66.2085 44.9893 66.3292 45.3321 66.5581 45.599C66.6759 45.715 66.8169 45.8048 66.9718 45.8628C67.1267 45.9207 67.292 45.9454 67.4571 45.9353C67.6955 45.9369 67.9333 45.9128 68.1665 45.8634C68.4093 45.8077 68.6458 45.7279 68.8726 45.625V46.3673C68.6577 46.4709 68.4304 46.5467 68.1963 46.593C67.9375 46.638 67.675 46.6585 67.4123 46.6539ZM67.2454 42.8936C67.116 42.8876 66.9867 42.9091 66.8662 42.9565C66.7457 43.004 66.6366 43.0764 66.5461 43.169C66.3543 43.3944 66.2442 43.6778 66.2335 43.9734H68.1854C68.2017 43.6822 68.1104 43.3953 67.9287 43.167C67.8414 43.0748 67.7351 43.0025 67.6171 42.9553C67.4992 42.9081 67.3724 42.887 67.2454 42.8936V42.8936Z" fill="#4D4D4D"/>
<path d="M74.3471 42.9739H73.2972V46.5795H72.3791V42.9739H71.6719V42.5468L72.3791 42.2673V41.988C72.3457 41.5795 72.4741 41.1741 72.7368 40.8592C72.8845 40.7272 73.0575 40.6267 73.2454 40.5636C73.4333 40.5004 73.632 40.4761 73.8296 40.4921C74.1525 40.4921 74.4732 40.5457 74.7786 40.6507L74.5378 41.3422C74.3297 41.2726 74.112 41.2359 73.8925 41.2334C73.8071 41.2262 73.7212 41.2401 73.6423 41.2736C73.5634 41.3072 73.494 41.3596 73.44 41.4262C73.3334 41.5988 73.2838 41.8005 73.2982 42.0029V42.2823H74.3481L74.3471 42.9739Z" fill="#4D4D4D"/>
<path d="M77.2635 42.204C77.416 42.2013 77.5684 42.2144 77.7181 42.2429L77.6282 43.0931C77.4972 43.0621 77.3632 43.0463 77.2287 43.0462C77.0638 43.0398 76.8993 43.0683 76.7463 43.1299C76.5932 43.1915 76.455 43.2848 76.3406 43.4035C76.2256 43.5283 76.1362 43.6744 76.0778 43.8336C76.0194 43.9929 75.9929 44.1621 75.9999 44.3315V46.5769H75.0859V42.2828H75.8011L75.922 43.0402H75.9689C76.1022 42.7943 76.294 42.5849 76.5274 42.4305C76.7449 42.2839 77.0011 42.205 77.2635 42.204V42.204Z" fill="#4D4D4D"/>
<path d="M82.3278 44.4255C82.3636 45.0218 82.1703 45.6093 81.7873 46.0681C81.594 46.269 81.3595 46.4258 81.0998 46.5277C80.8402 46.6297 80.5615 46.6745 80.283 46.6589C79.9095 46.6662 79.5411 46.572 79.2171 46.3864C78.9068 46.2035 78.6586 45.9316 78.5048 45.606C78.3325 45.2367 78.2475 44.8329 78.2562 44.4255C78.2204 43.8332 78.4123 43.2496 78.7926 42.7939C78.9876 42.5931 79.2236 42.4367 79.4846 42.3355C79.7456 42.2342 80.0254 42.1904 80.3049 42.2071C80.5799 42.1938 80.8546 42.2406 81.1097 42.344C81.3648 42.4474 81.5943 42.6049 81.7823 42.8058C82.1639 43.2567 82.359 43.8359 82.3278 44.4255V44.4255ZM79.1971 44.4255C79.1971 45.4175 79.5635 45.9134 80.296 45.9134C81.0286 45.9134 81.3915 45.4175 81.3848 44.4255C81.3848 43.4442 81.0186 42.9536 80.286 42.9536C80.126 42.9401 79.9652 42.9679 79.8191 43.0345C79.673 43.101 79.5465 43.2042 79.4518 43.3338C79.262 43.6649 79.1745 44.0448 79.2001 44.4255H79.1971Z" fill="#4D4D4D"/>
<path d="M87.0022 46.5766H86.0841V43.927C86.103 43.6678 86.0376 43.4094 85.8974 43.1905C85.8265 43.1066 85.7366 43.0408 85.6351 42.9987C85.5336 42.9565 85.4234 42.9391 85.3139 42.9481C85.1661 42.9361 85.0178 42.9612 84.8822 43.0212C84.7466 43.0812 84.6282 43.1741 84.5377 43.2914C84.3443 43.6399 84.2585 44.0378 84.291 44.435V46.5756H83.377V42.2854H84.0923L84.221 42.8482H84.268C84.3891 42.6417 84.5698 42.4765 84.7865 42.3742C85.0199 42.2615 85.2764 42.2044 85.5357 42.2076C85.7975 42.1745 86.0631 42.2214 86.2977 42.3419C86.5323 42.4625 86.725 42.6512 86.8504 42.8832H86.9123C87.0401 42.6694 87.2261 42.4963 87.4487 42.3842C87.6947 42.2614 87.9669 42.2001 88.2418 42.2056C88.4457 42.1872 88.6512 42.2123 88.8446 42.2792C89.038 42.3461 89.2149 42.4534 89.3637 42.5939C89.6238 42.9315 89.749 43.3536 89.7153 43.7783V46.5795H88.8013V43.9301C88.8201 43.6706 88.7538 43.4121 88.6124 43.1936C88.5408 43.11 88.4506 43.0445 88.3489 43.0023C88.2472 42.9602 88.1369 42.9425 88.0271 42.951C87.8798 42.9387 87.7316 42.9625 87.5957 43.0205C87.4597 43.0784 87.34 43.1686 87.2469 43.2833C87.0598 43.5891 86.9735 43.9458 87.0002 44.3032L87.0022 46.5766Z" fill="#4D4D4D"/>
<path d="M95.3193 46.5752H94.1137V41.8978H92.5703V40.8999H96.8658V41.8978H95.3224L95.3193 46.5752Z" fill="#1A987C"/>
<path d="M100.401 46.58L100.171 45.9892H100.14C99.9785 46.209 99.7676 46.3881 99.5242 46.5122C99.2623 46.6186 98.9807 46.6683 98.6981 46.6579C98.5181 46.6679 98.338 46.6413 98.1685 46.5799C97.9991 46.5185 97.8439 46.4235 97.7122 46.3006C97.5865 46.164 97.4898 46.0034 97.428 45.8284C97.3662 45.6534 97.3406 45.4678 97.3526 45.2827C97.3383 45.0854 97.3752 44.8879 97.4599 44.7091C97.5447 44.5304 97.6742 44.3766 97.836 44.2628C98.2806 44.0111 98.7856 43.8855 99.2964 43.8995L100.051 43.8765V43.686C100.063 43.5951 100.053 43.5027 100.023 43.416C99.9931 43.3294 99.9433 43.251 99.8777 43.1869C99.8121 43.1228 99.7325 43.0748 99.6452 43.0468C99.5578 43.0188 99.4651 43.0114 99.3744 43.0254C98.9488 43.0445 98.5318 43.1514 98.1497 43.3396L97.7571 42.5414C98.2713 42.2765 98.8428 42.1418 99.4213 42.1491C99.899 42.1173 100.373 42.2517 100.763 42.5293C100.924 42.6734 101.051 42.8528 101.132 43.0536C101.213 43.2544 101.246 43.4711 101.229 43.6869V46.581L100.401 46.58ZM100.052 44.5671L99.5931 44.583C99.3241 44.5738 99.0578 44.6383 98.823 44.7697C98.7393 44.8272 98.672 44.9055 98.6277 44.9969C98.5834 45.0882 98.5637 45.1894 98.5703 45.2907C98.5703 45.6233 98.762 45.7897 99.1456 45.7897C99.2657 45.7955 99.3858 45.7774 99.499 45.7367C99.6121 45.6959 99.7161 45.6332 99.8049 45.5521C99.8877 45.4704 99.9525 45.3722 99.995 45.2639C100.038 45.1556 100.057 45.0396 100.052 44.9234V44.5671Z" fill="#1A987C"/>
<path d="M103.637 46.5787H102.451V40.5342H103.637V46.5787Z" fill="#1A987C"/>
<path d="M107.308 42.1507C107.442 42.1483 107.576 42.16 107.708 42.1857L107.618 43.2964C107.504 43.2683 107.386 43.2552 107.268 43.2574C106.947 43.2378 106.63 43.342 106.383 43.5488C106.275 43.6541 106.191 43.7814 106.136 43.9221C106.082 44.0627 106.058 44.2135 106.067 44.3641V46.5747H104.881V42.2316H105.78L105.955 42.9621H106.013C106.143 42.7235 106.331 42.521 106.559 42.3733C106.781 42.2267 107.042 42.1492 107.308 42.1507Z" fill="#1A987C"/>
<path d="M112.457 44.4068C112.493 45.0113 112.292 45.6062 111.897 46.0654C111.694 46.27 111.45 46.4291 111.182 46.5324C110.913 46.6356 110.625 46.6805 110.337 46.6642C109.951 46.6722 109.57 46.5778 109.233 46.3907C108.914 46.2085 108.658 45.9344 108.498 45.6044C108.319 45.2308 108.231 44.8205 108.241 44.4068C108.204 43.8039 108.403 43.2104 108.797 42.7522C109.001 42.5491 109.246 42.3915 109.516 42.2897C109.785 42.1878 110.073 42.1441 110.36 42.1614C110.746 42.1534 111.127 42.2471 111.465 42.4329C111.783 42.6133 112.039 42.8852 112.199 43.2133C112.378 43.5853 112.467 43.9942 112.457 44.4068V44.4068ZM109.451 44.4068C109.43 44.7451 109.503 45.0828 109.663 45.3818C109.739 45.4931 109.842 45.5822 109.964 45.6403C110.085 45.6983 110.219 45.7232 110.353 45.7122C110.486 45.7232 110.619 45.6985 110.739 45.6408C110.859 45.583 110.962 45.4943 111.036 45.3837C111.194 45.0833 111.265 44.7453 111.244 44.4068C111.266 44.0712 111.193 43.7361 111.034 43.4398C110.95 43.3392 110.845 43.2583 110.726 43.2028C110.608 43.1473 110.478 43.1185 110.347 43.1185C110.216 43.1185 110.087 43.1473 109.969 43.2028C109.85 43.2583 109.745 43.3392 109.661 43.4398C109.502 43.7361 109.429 44.0712 109.451 44.4068Z" fill="#1A987C"/>
<path d="M115.816 46.6548C115.586 46.6644 115.358 46.6189 115.149 46.5222C114.941 46.4255 114.758 46.2804 114.617 46.099H114.555C114.597 46.4616 114.617 46.6714 114.617 46.7287V48.488H113.432V42.2339H114.396L114.563 42.7967H114.616C114.746 42.5893 114.928 42.4202 115.145 42.3069C115.362 42.1935 115.605 42.14 115.849 42.1521C116.084 42.1435 116.317 42.1939 116.528 42.2985C116.739 42.4031 116.92 42.5586 117.055 42.7509C117.372 43.241 117.524 43.819 117.49 44.4014C117.501 44.8133 117.433 45.2234 117.291 45.61C117.177 45.9212 116.975 46.1925 116.709 46.3904C116.447 46.5716 116.135 46.6643 115.816 46.6548V46.6548ZM115.467 43.1002C115.346 43.09 115.224 43.1093 115.112 43.1564C115.001 43.2036 114.902 43.277 114.825 43.3706C114.667 43.6398 114.594 43.9503 114.615 44.2617V44.3895C114.589 44.7351 114.661 45.0812 114.823 45.3874C114.898 45.4894 114.998 45.5705 115.114 45.6229C115.229 45.6753 115.356 45.6974 115.483 45.6869C116.015 45.6869 116.282 45.2491 116.282 44.3735C116.302 44.0408 116.233 43.7088 116.082 43.4115C116.017 43.3088 115.926 43.2255 115.817 43.1707C115.709 43.1159 115.588 43.0915 115.467 43.1002V43.1002Z" fill="#1A987C"/>
<defs>
<linearGradient id="paint0_linear_13865_173584" x1="51.8494" y1="13.572" x2="74.2642" y2="18.9252" gradientUnits="userSpaceOnUse">
<stop stop-color="#89C739"/>
<stop offset="0.414" stop-color="#6DBE4D"/>
<stop offset="1" stop-color="#1A987C"/>
</linearGradient>
</defs>
</svg>
