<svg width="40" height="41" viewBox="0 0 40 41" fill="none" xmlns="http://www.w3.org/2000/svg">
<path d="M17.2148 35.0115C17.2148 35.9633 17.9832 36.735 18.9316 36.735H21.2205C22.1685 36.735 22.9372 35.9633 22.9372 35.0115V31.5645H17.2148V35.0115Z" fill="#EBEBEB"/>
<path d="M14.5192 25.3347C14.0188 25.0109 13.547 24.644 13.1096 24.2387C12.7361 25.6808 11.3245 26.5953 9.86212 26.3429C8.39944 26.0904 7.37311 24.7554 7.50021 23.2706C7.62732 21.7858 8.86567 20.6463 10.3499 20.6485C10.4373 20.6485 10.5214 20.6668 10.6049 20.6743C10.0627 19.3943 9.78306 18.0178 9.78334 16.627H9.05507L8.65979 18.5152C8.6204 18.7034 8.48995 18.8594 8.31228 18.9306C8.13434 19.0021 7.93292 18.9794 7.77537 18.8703L6.19453 17.776L4.4782 19.4995L5.56515 21.0867C5.67382 21.2452 5.69645 21.4475 5.62521 21.6259C5.55426 21.8046 5.39894 21.9356 5.21178 21.9748L3.33398 22.3721V24.6701L5.21401 25.067C5.40117 25.1066 5.55649 25.2376 5.62773 25.416C5.69868 25.5944 5.67606 25.797 5.56739 25.9552L4.4782 27.5426L6.19453 29.2662L7.77537 28.1744C7.93292 28.0653 8.13461 28.0423 8.31256 28.1138C8.49051 28.185 8.62096 28.3413 8.66035 28.5295L9.05507 30.4152H11.3435L11.7382 28.5267C11.7776 28.3382 11.9081 28.1822 12.086 28.111C12.264 28.0395 12.4657 28.0622 12.6232 28.1716L14.2041 29.2662L16 27.4627C15.8117 26.5821 15.2779 25.8149 14.5192 25.3347Z" fill="#C9DFFF"/>
<path d="M30.3725 16.6254C30.372 11.6672 26.867 7.4069 22.0183 6.47107C17.1696 5.53525 12.3416 8.18675 10.5107 12.7915C8.67987 17.3963 10.361 22.6581 14.518 25.3331C15.4706 25.9261 16.0558 26.9666 16.0698 28.0921V30.4137C16.0698 31.3655 16.838 32.1372 17.7861 32.1372H22.363C23.3108 32.1372 24.0793 31.3655 24.0793 30.4137V28.1397C24.0939 26.9876 24.6908 25.9222 25.6641 25.3118C28.6012 23.4076 30.3745 20.1362 30.3725 16.6254Z" fill="#FFB41F"/>
<path d="M33.9156 10.5478L35.7144 9.19311L33.6547 6.43529L31.856 7.78993C31.4858 8.06849 30.985 8.0957 30.5869 7.85894C30.1888 7.62218 29.972 7.16801 30.0371 6.70824L30.3547 4.47388L26.9565 3.98633L26.6388 6.22041C26.5737 6.68075 26.2388 7.05609 25.7904 7.17138C25.3421 7.28696 24.8686 7.11976 24.5909 6.74779L23.2422 4.94151L20.4962 7.0098L21.8446 8.81608C22.122 9.18806 22.1491 9.69075 21.9133 10.0905C21.6776 10.4902 21.2253 10.7079 20.7675 10.6426L18.5424 10.3236L18.0566 13.7362L20.2822 14.0551C20.7404 14.1208 21.1141 14.4571 21.2289 14.9074C21.3438 15.3576 21.1773 15.8331 20.8068 16.1119L19.0087 17.4666L21.0683 20.2241L22.8665 18.87C23.2366 18.5912 23.7378 18.5637 24.1361 18.8004C24.5342 19.0372 24.7513 19.4917 24.6859 19.9517L24.3655 22.1855L27.7638 22.6733L28.0842 20.4384C28.1496 19.9784 28.4845 19.6033 28.9329 19.488C29.3812 19.3724 29.8547 19.5399 30.1321 19.9116L31.4814 21.7173L34.2274 19.649L32.8778 17.8433C32.6002 17.4716 32.5728 16.9684 32.8086 16.5683C33.0443 16.1686 33.4969 15.9506 33.955 16.0165L36.18 16.3358L36.6658 12.9232L34.4408 12.604C33.9829 12.5381 33.6095 12.202 33.4944 11.7518C33.3795 11.3018 33.5458 10.8266 33.9156 10.5478ZM27.3615 17.351C25.1496 17.351 23.3567 15.5506 23.3567 13.3294C23.3567 11.1085 25.1496 9.30784 27.3615 9.30784C29.5734 9.30784 31.3663 11.1085 31.3663 13.3294C31.3663 15.5506 29.5734 17.351 27.3615 17.351Z" fill="#1CC8EB"/>
<path d="M17.2148 33.2871H22.9372V34.4361H17.2148V33.2871Z" fill="#9E9E9E"/>
<path d="M19.5059 28.6904H20.6503V30.414H19.5059V28.6904Z" fill="#FFAA00"/>
<path d="M20.6474 27.5427H19.5031C19.5026 26.0237 18.5698 24.6621 17.1574 24.1184C14.3419 23.0129 12.3859 20.4096 12.1004 17.3873C11.8149 14.3649 13.2482 11.4388 15.8065 9.82129L16.4135 10.7933C14.2201 12.1794 12.9907 14.6878 13.2354 17.279C13.4798 19.8699 15.1565 22.1017 17.5703 23.0493C19.4246 23.7616 20.6488 25.5491 20.6474 27.5427Z" fill="#FFAA00"/>
<path d="M31.5195 24.6699H34.3807C34.6967 24.6699 34.9529 24.9269 34.9529 25.2444C34.9529 25.5617 34.6967 25.8189 34.3807 25.8189H31.5195C31.2035 25.8189 30.9473 25.5617 30.9473 25.2444C30.9473 24.9269 31.2035 24.6699 31.5195 24.6699Z" fill="#FFAA00"/>
<path d="M30.3729 28.118C30.5752 27.8742 30.9359 27.8411 31.1787 28.0442L33.7331 30.181C33.9759 30.3841 34.0089 30.7462 33.8066 30.99C33.604 31.2338 33.2433 31.2669 33.0005 31.0638L30.4461 28.927C30.2033 28.7239 30.1706 28.3618 30.3729 28.118Z" fill="#FFAA00"/>
<path d="M28.0859 29.2656C28.4019 29.2656 28.6581 29.5226 28.6581 29.8401V32.7127C28.6581 33.03 28.4019 33.2872 28.0859 33.2872C27.7699 33.2872 27.5137 33.03 27.5137 32.7127V29.8401C27.5137 29.5226 27.7699 29.2656 28.0859 29.2656Z" fill="#FFAA00"/>
<path d="M3.90059 13.0568L7.3681 12.1872C7.67489 12.1103 7.98532 12.2974 8.06188 12.6052C8.13844 12.9129 7.95207 13.2246 7.64527 13.3014L4.17777 14.171C3.87097 14.2479 3.56054 14.0608 3.48398 13.7531C3.40743 13.4453 3.59379 13.1337 3.90059 13.0568Z" fill="#FFAA00"/>
<path d="M4.62803 6.85947C4.81161 6.60139 5.16897 6.54192 5.42603 6.72622L8.50013 8.93085C8.75747 9.11515 8.81698 9.47394 8.63341 9.73202C8.44983 9.9901 8.09247 10.0499 7.83541 9.86527L4.76131 7.66064C4.50397 7.47634 4.44446 7.11755 4.62803 6.85947Z" fill="#FFAA00"/>
<path d="M9.75096 3.41256C10.0572 3.33401 10.3687 3.51944 10.447 3.82689L11.3338 7.30958C11.4121 7.61703 11.2274 7.93009 10.9211 8.00864C10.6149 8.08718 10.3034 7.90148 10.2251 7.59431L9.33827 4.11162C9.26003 3.80417 9.44472 3.4911 9.75096 3.41256Z" fill="#FFAA00"/>
</svg>
