<svg width="40" height="41" viewBox="0 0 40 41" fill="none" xmlns="http://www.w3.org/2000/svg">
<path d="M30.6677 17.0621V10.3564H22.4546V17.0621C18.9196 18.6622 16.4551 22.2645 16.4551 26.4522C16.4551 32.1265 20.9796 36.7263 26.561 36.7263C32.1424 36.7263 36.6672 32.1265 36.6672 26.4522C36.6672 22.2645 34.2024 18.6622 30.6677 17.0621Z" fill="#C9FFF7"/>
<path d="M34.6217 26.4522C34.6217 30.9711 31.0059 34.6468 26.5605 34.6468C25.0982 34.6468 23.7259 34.2492 22.5426 33.554C20.1279 32.1374 18.5 29.4845 18.5 26.4522C18.5 24.1853 19.4237 22.0639 20.9765 20.5439H32.1449C33.698 22.0639 34.6217 24.1853 34.6217 26.4522Z" fill="#F7D360"/>
<path d="M24.3009 17.0615V15.2056C24.3009 14.2002 25.1025 13.3852 26.0913 13.3852H30.6677V11.3952L29.039 9.8884L27.5053 9.47266L22.4548 11.3949V17.0615C18.9194 18.6616 16.4551 22.2634 16.4551 26.4516C16.4551 32.1013 20.9407 36.6859 26.4898 36.7246C23.4507 36.6533 20.9994 32.0812 20.9994 26.4516C20.9994 22.2634 22.3559 18.6616 24.3009 17.0615Z" fill="#72CEC0"/>
<path d="M22.5426 33.554C20.1279 32.1374 18.5 29.4845 18.5 26.4522C18.5 24.1853 19.4237 22.0639 20.9765 20.5439H22.0108C21.3732 22.2149 20.9991 24.2525 20.9991 26.4522C20.9991 29.207 21.5861 31.7085 22.5426 33.554Z" fill="#E58E13"/>
<path d="M23.0943 32.2597L16.5312 20.703V14.7236H10.2939V20.703L3.73087 32.2597C2.60324 34.2454 4.01265 36.7274 6.26816 36.7274H20.5573C22.8125 36.7274 24.2222 34.2454 23.0943 32.2597Z" fill="#E6E6E6"/>
<path d="M16.5316 14.7236L14.622 13.6328L10.9621 13.6716L10.2941 14.7236V20.7027L3.73123 32.26C2.60284 34.2456 4.01276 36.7274 6.26776 36.7274H10.1687C9.14456 36.7274 8.50445 34.2456 9.01638 32.26L11.9969 20.7027V17.633C11.9969 17.0022 12.5 16.491 13.1205 16.491H16.5316V14.7236Z" fill="#CCCCCC"/>
<path d="M18.7915 13.3709C18.7915 14.1174 18.1964 14.7224 17.4622 14.7224H9.36055C8.99383 14.7224 8.66119 14.5714 8.4206 14.3265C8.18002 14.0819 8.03125 13.7438 8.03125 13.3709C8.03125 12.6245 8.62634 12.0195 9.36055 12.0195H17.4622C17.8289 12.0195 18.1616 12.1705 18.4022 12.4151C18.6427 12.6599 18.7915 12.9981 18.7915 13.3709Z" fill="#CCCCCC"/>
<path d="M18.7941 13.3709C18.7941 14.1174 18.1991 14.7224 17.4648 14.7224H12.5871C12.2196 14.7224 11.8877 14.5714 11.6469 14.3265C11.4063 14.0819 11.2578 13.7438 11.2578 13.3709C11.2578 12.6245 11.8529 12.0195 12.5871 12.0195H17.4648C17.8316 12.0195 18.1642 12.1705 18.4048 12.4151C18.6454 12.6599 18.7941 12.9981 18.7941 13.3709Z" fill="#E6E6E6"/>
<path d="M32.9579 10.0448C32.9579 10.7912 32.3628 11.3962 31.6286 11.3962H21.6069C21.2394 11.3962 20.9073 11.2452 20.6667 11.0006C20.4261 10.7558 20.2773 10.4176 20.2773 10.0448C20.2773 9.29836 20.8727 8.69336 21.6069 8.69336H31.6286C31.9954 8.69336 32.328 8.84435 32.5686 9.08919C32.8094 9.33378 32.9579 9.67195 32.9579 10.0448Z" fill="#72CEC0"/>
<path d="M32.9567 10.0448C32.9567 10.7912 32.3616 11.3962 31.6274 11.3962H24.7121C24.3454 11.3962 24.0127 11.2452 23.7719 11.0006C23.5313 10.7558 23.3828 10.4176 23.3828 10.0448C23.3828 9.29836 23.9779 8.69336 24.7121 8.69336H31.6274C31.9941 8.69336 32.3268 8.84435 32.5674 9.08919C32.8082 9.33378 32.9567 9.67195 32.9567 10.0448Z" fill="#C9FFF7"/>
<path d="M21.3236 34.1973C21.2282 34.3656 21.0019 34.6469 20.5581 34.6469H6.2687C5.82416 34.6469 5.59782 34.3656 5.50245 34.1973C5.40708 34.0295 5.28018 33.6893 5.50245 33.2984L10.3255 24.8057H16.5013L21.3236 33.2984C21.5458 33.6893 21.4189 34.0295 21.3236 34.1973Z" fill="#FC5F61"/>
<path d="M9.01851 32.2588C8.8176 33.0385 8.79421 33.8943 8.90203 34.6469H6.27065C5.82611 34.6469 5.59977 34.3656 5.5044 34.1973C5.40904 34.0295 5.28213 33.6893 5.5044 33.2984L10.3275 24.8057H10.9404L9.01851 32.2588Z" fill="#E83842"/>
<path d="M14.514 30.731C14.0496 30.731 13.8286 30.1242 14.1823 29.8163C14.5341 29.5101 15.0862 29.8225 15.0198 30.2878C14.9839 30.5397 14.7637 30.731 14.514 30.731Z" fill="#E83842"/>
<path d="M12.2607 9.42104C11.8144 9.42104 11.585 8.85379 11.8993 8.53319C12.0692 8.36023 12.3446 8.33334 12.5443 8.46882C12.7192 8.58723 12.8065 8.8101 12.7584 9.01822C12.705 9.25066 12.496 9.42104 12.2607 9.42104Z" fill="#E83842"/>
<path d="M14.2964 7.44662C13.8338 7.44662 13.6077 6.83749 13.9643 6.53137C14.1339 6.38555 14.3814 6.36694 14.5698 6.48768C14.7509 6.60377 14.8432 6.8318 14.7944 7.04407C14.741 7.27598 14.5319 7.44662 14.2964 7.44662Z" fill="#E83842"/>
<path d="M13.1869 4.43131C12.9636 4.43131 12.7627 4.27877 12.6973 4.06237C12.6325 3.84648 12.7179 3.60422 12.9025 3.47909C13.282 3.22158 13.7954 3.58561 13.6823 4.03781C13.625 4.26584 13.4188 4.43131 13.1869 4.43131Z" fill="#E83842"/>
<path d="M31.0511 23.7676C30.5966 23.7676 30.37 23.1776 30.7052 22.8648C31.0264 22.5651 31.5625 22.8043 31.5625 23.2477C31.5625 23.5303 31.3296 23.7676 31.0511 23.7676Z" fill="white"/>
<path d="M31.4064 27.2331C30.9611 27.2331 30.7276 26.6656 31.045 26.346C31.2037 26.1862 31.4504 26.1493 31.6475 26.2555C31.8364 26.3576 31.9427 26.5751 31.9122 26.7899C31.8761 27.042 31.6559 27.2331 31.4064 27.2331Z" fill="white"/>
<path d="M24.7371 31.1482C24.5184 31.1482 24.3206 31.0021 24.2519 30.7914C24.1792 30.569 24.2674 30.3167 24.4614 30.1905C24.8465 29.94 25.352 30.3167 25.2297 30.7663C25.1695 30.9887 24.9645 31.1482 24.7371 31.1482Z" fill="white"/>
<path d="M22.3896 26.7808C21.9275 26.7808 21.7032 26.175 22.0555 25.8681C22.2246 25.7205 22.4723 25.7021 22.6612 25.8213C22.8405 25.9348 22.9336 26.1579 22.8899 26.3681C22.8405 26.6055 22.6287 26.7808 22.3896 26.7808Z" fill="white"/>
<path d="M28.6221 25.5337C28.1651 25.5337 27.9388 24.9403 28.2791 24.6293C28.4487 24.4741 28.7025 24.4524 28.8958 24.5752C29.0725 24.688 29.1643 24.9077 29.1239 25.1159C29.0771 25.3558 28.8625 25.5337 28.6221 25.5337Z" fill="white"/>
<path d="M10.9344 31.8086C10.7292 31.8086 10.5407 31.6798 10.4619 31.4877C10.3754 31.2762 10.44 31.0221 10.6175 30.8807C10.982 30.5908 11.5292 30.9249 11.4354 31.3905C11.3871 31.6304 11.176 31.8086 10.9344 31.8086Z" fill="#E83842"/>
<path d="M12.2665 28.4446C12.0526 28.4446 11.8573 28.3048 11.7851 28.1C11.7083 27.8823 11.7869 27.6305 11.974 27.4986C12.338 27.2424 12.8484 27.5674 12.7698 28.0139C12.7265 28.2595 12.5127 28.4446 12.2665 28.4446Z" fill="#E83842"/>
</svg>
