<svg width="48" height="48" viewBox="0 0 48 48" fill="none" xmlns="http://www.w3.org/2000/svg">
<path d="M5.71484 33.2969L5.94252 7.99998L42.5209 8.32918L42.2932 33.6261L5.71484 33.2969Z" fill="#FFA75F"/>
<path d="M7.98047 33.3203L8.18816 10.2432L40.2378 10.5316L40.0301 33.6088L7.98047 33.3203Z" fill="#4D5E80"/>
<path d="M10.0859 33.3438L10.1142 30.2085L18.9975 30.2884L18.9693 33.4237L10.0859 33.3438Z" fill="#0094CE"/>
<path d="M10.0859 33.3438L10.1142 30.2085L16.646 30.2673L16.6178 33.4025L10.0859 33.3438Z" fill="#FB3D80"/>
<path d="M4 36.0703L4.02508 33.2834L44 33.6432L43.9749 36.4301L4 36.0703Z" fill="#FFBE82"/>
<path d="M12.5732 20.5679L14.0575 24.1633C14.1033 24.274 14.1806 24.3688 14.2799 24.4358C14.3791 24.5029 14.4959 24.5392 14.6157 24.5402C14.7355 24.5412 14.8529 24.507 14.9533 24.4417C15.0537 24.3764 15.1327 24.283 15.1803 24.1731L18.1104 17.412L28.6133 17.5026C28.775 17.504 28.9306 17.4412 29.046 17.3279C29.1613 17.2145 29.2269 17.06 29.2283 16.8984C29.2298 16.7367 29.1669 16.581 29.0536 16.4657C28.9403 16.3504 28.7858 16.2848 28.6241 16.2833L17.7178 16.1875C17.598 16.1865 17.4806 16.2207 17.3802 16.286C17.2797 16.3513 17.2008 16.4448 17.1531 16.5547L14.6344 22.3644L13.5461 19.729C13.5004 19.6184 13.4232 19.5238 13.3241 19.4567C13.225 19.3897 13.1084 19.3533 12.9888 19.3521L12.0875 19.3441C11.9259 19.3427 11.7702 19.4056 11.6549 19.5189C11.5396 19.6323 11.4741 19.7868 11.4727 19.9485C11.4713 20.1102 11.5342 20.2658 11.6475 20.3811C11.7609 20.4964 11.9154 20.562 12.0771 20.5633L12.5732 20.5679Z" fill="#FFF5F5"/>
<path d="M18.3514 23.3618C18.4075 23.4189 18.4743 23.4645 18.548 23.4958C18.6217 23.5271 18.7008 23.5436 18.7809 23.5443C18.861 23.545 18.9404 23.53 19.0147 23.4999C19.0889 23.4699 19.1565 23.4256 19.2136 23.3694L20.3179 22.2839L21.4034 23.3882C21.5167 23.5037 21.6713 23.5695 21.8331 23.571C21.9949 23.5725 22.1507 23.5097 22.2661 23.3964C22.3816 23.2831 22.4474 23.1285 22.4489 22.9668C22.4504 22.805 22.3876 22.6492 22.2743 22.5337L21.1888 21.4294L22.2931 20.3439C22.4086 20.2305 22.4744 20.076 22.4759 19.9142C22.4774 19.7524 22.4146 19.5966 22.3013 19.4811C22.188 19.3657 22.0335 19.2999 21.8717 19.2984C21.7099 19.2968 21.5541 19.3596 21.4386 19.473L20.3318 20.5606L19.2463 19.4562C19.1902 19.399 19.1234 19.3535 19.0497 19.3221C18.976 19.2908 18.8968 19.2742 18.8167 19.2735C18.7366 19.2727 18.6571 19.2877 18.5828 19.3177C18.5085 19.3476 18.4408 19.3919 18.3836 19.448C18.3264 19.5042 18.2809 19.571 18.2495 19.6447C18.2181 19.7184 18.2016 19.7976 18.2008 19.8777C18.2001 19.9578 18.2151 20.0373 18.2451 20.1116C18.275 20.1859 18.3193 20.2536 18.3754 20.3108L19.4609 21.4151L18.3566 22.5006C18.2418 22.6141 18.1768 22.7686 18.1758 22.9301C18.1748 23.0916 18.238 23.2468 18.3514 23.3618Z" fill="#FFF5F5"/>
<path d="M26.2045 23.4352C26.2606 23.4924 26.3274 23.5379 26.4011 23.5692C26.4748 23.6006 26.554 23.6171 26.634 23.6178C26.7141 23.6185 26.7935 23.6034 26.8678 23.5734C26.942 23.5434 27.0096 23.499 27.0667 23.4429L28.171 22.3574L29.2565 23.4617C29.3699 23.5772 29.5244 23.6429 29.6862 23.6445C29.848 23.646 30.0038 23.5832 30.1193 23.4699C30.2348 23.3565 30.3005 23.202 30.302 23.0402C30.3036 22.8784 30.2408 22.7226 30.1275 22.6071L29.0395 21.5018L30.1438 20.4163C30.2593 20.303 30.3251 20.1484 30.3266 19.9866C30.3281 19.8248 30.2653 19.669 30.152 19.5535C30.0387 19.4381 29.8841 19.3723 29.7224 19.3708C29.5606 19.3692 29.4048 19.432 29.2893 19.5454L28.185 20.6309L27.0995 19.5265C27.0434 19.4694 26.9765 19.4238 26.9028 19.3924C26.8291 19.3611 26.7499 19.3445 26.6698 19.3438C26.5897 19.343 26.5102 19.358 26.4359 19.388C26.3616 19.418 26.2939 19.4623 26.2367 19.5184C26.1796 19.5745 26.134 19.6413 26.1026 19.715C26.0713 19.7887 26.0547 19.8679 26.054 19.948C26.0532 20.0281 26.0682 20.1076 26.0982 20.1819C26.1282 20.2562 26.1724 20.3239 26.2286 20.3811L27.3141 21.4854L26.2097 22.5709C26.1524 22.6272 26.1068 22.6943 26.0755 22.7682C26.0442 22.8422 26.0278 22.9216 26.0274 23.002C26.0269 23.0823 26.0423 23.1619 26.0727 23.2363C26.1031 23.3106 26.1479 23.3782 26.2045 23.4352Z" fill="#FFF5F5"/>
<path d="M25.066 22.0695C25.2277 22.0709 25.3833 22.008 25.4986 21.8947C25.6139 21.7813 25.6795 21.6268 25.6808 21.4651C25.6822 21.3034 25.6193 21.1478 25.506 21.0325C25.3926 20.9172 25.2381 20.8516 25.0764 20.8502L23.4391 20.836C23.359 20.8353 23.2796 20.8504 23.2054 20.8804C23.1312 20.9104 23.0636 20.9547 23.0065 21.0108C22.8912 21.1242 22.8256 21.2787 22.8242 21.4404C22.8229 21.6021 22.8858 21.7577 22.9991 21.873C23.1125 21.9883 23.267 22.0539 23.4287 22.0552L25.066 22.0695Z" fill="#FFF5F5"/>
<path d="M19.832 38.3871L36.9531 38.5352L37.1012 21.4141L19.832 38.3871ZM33.7457 35.272L27.5152 35.218L33.7997 29.0415L33.7457 35.272Z" fill="#FB3D80"/>
<path d="M37.0052 32.7379L37.0157 31.5186L35.7633 31.5078C35.6016 31.5064 35.446 31.5693 35.3307 31.6827C35.2154 31.796 35.1498 31.9506 35.1485 32.1122C35.1471 32.2739 35.21 32.4295 35.3233 32.5449C35.4367 32.6602 35.5912 32.7257 35.7529 32.7271L37.0052 32.7379Z" fill="#E21E69"/>
<path d="M37.0232 30.6285L37.0337 29.4093L35.783 29.3985C35.6213 29.397 35.4657 29.4599 35.3504 29.5732C35.235 29.6865 35.1694 29.841 35.168 30.0027C35.1666 30.1644 35.2294 30.32 35.3427 30.4354C35.4561 30.5507 35.6105 30.6163 35.7722 30.6177L37.0232 30.6285Z" fill="#E21E69"/>
<path d="M37.0429 28.5113L37.0534 27.2921L35.8024 27.2813C35.7223 27.2806 35.6429 27.2957 35.5687 27.3257C35.4945 27.3557 35.4269 27.4 35.3698 27.4561C35.2545 27.5695 35.1889 27.724 35.1875 27.8857C35.1861 28.0474 35.249 28.203 35.3624 28.3183C35.4757 28.4336 35.6303 28.4992 35.7919 28.5006L37.0429 28.5113Z" fill="#E21E69"/>
<path d="M36.9683 36.9645L36.9788 35.7452L35.7282 35.7344C35.6481 35.7337 35.5687 35.7488 35.4945 35.7788C35.4202 35.8088 35.3527 35.8531 35.2956 35.9093C35.1802 36.0226 35.1147 36.1771 35.1133 36.3388C35.1119 36.5005 35.1748 36.6561 35.2882 36.7714C35.4015 36.8867 35.556 36.9523 35.7177 36.9537L36.9683 36.9645Z" fill="#E21E69"/>
<path d="M36.9879 34.8551L36.9983 33.6358L35.7477 33.625C35.6676 33.6243 35.5882 33.6394 35.514 33.6694C35.4398 33.6994 35.3722 33.7438 35.3151 33.7999C35.1998 33.9132 35.1342 34.0677 35.1328 34.2294C35.1314 34.3911 35.1944 34.5467 35.3077 34.662C35.4211 34.7774 35.5756 34.8429 35.7372 34.8443L36.9879 34.8551Z" fill="#E21E69"/>
<path d="M37.0584 26.402L37.0688 25.1827L35.8182 25.1719C35.7381 25.1712 35.6587 25.1863 35.5845 25.2162C35.5102 25.2462 35.4426 25.2905 35.3855 25.3466C35.3284 25.4027 35.2829 25.4696 35.2516 25.5433C35.2203 25.6169 35.2039 25.6961 35.2031 25.7761C35.2024 25.8562 35.2175 25.9356 35.2475 26.0098C35.2775 26.0841 35.3218 26.1517 35.3779 26.2088C35.434 26.2659 35.5008 26.3114 35.5745 26.3427C35.6482 26.374 35.7273 26.3905 35.8074 26.3912L37.0584 26.402Z" fill="#E21E69"/>
</svg>
