<svg width="40" height="41" viewBox="0 0 40 41" fill="none" xmlns="http://www.w3.org/2000/svg">
<path d="M31.3715 21.0349H29.9865C29.7595 20.2365 29.438 19.4668 29.025 18.7343L30.0103 17.749C30.3918 17.3674 30.3918 16.7493 30.0103 16.3678L27.248 13.6055C26.8665 13.224 26.2483 13.224 25.8668 13.6055L24.8815 14.5908C24.1489 14.1778 23.3792 13.8564 22.5808 13.6293V12.2443C22.5808 11.7044 22.144 11.2676 21.6041 11.2676H19.6507H17.6972C17.1573 11.2676 16.7205 11.7044 16.7205 12.2443V13.6293C15.9221 13.8563 15.1524 14.1778 14.4198 14.5908L13.4345 13.6055C13.053 13.224 12.4349 13.224 12.0533 13.6055L9.29102 16.3678C8.90951 16.7493 8.90951 17.3674 9.29102 17.749L10.2763 18.7343C9.86332 19.4668 9.54191 20.2365 9.31485 21.0349H7.92985C7.38998 21.0349 6.95312 21.4718 6.95312 22.0117V25.9186C6.95312 26.4584 7.38998 26.8953 7.92985 26.8953H9.31485C9.54185 27.6937 9.86332 28.4634 10.2763 29.1959L9.29102 30.1813C8.90951 30.5628 8.90951 31.1809 9.29102 31.5624L12.0533 34.3247C12.4349 34.7063 13.053 34.7063 13.4345 34.3247L14.4198 33.3394C15.1524 33.7525 15.9221 34.0739 16.7205 34.3009V35.751C16.7205 36.2909 17.1573 36.7278 17.6972 36.7278H19.6507H21.6041C22.144 36.7278 22.5808 36.2909 22.5808 35.751V34.3009C23.3792 34.0739 24.1489 33.7525 24.8815 33.3394L25.8668 34.3247C26.2483 34.7063 26.8665 34.7063 27.248 34.3247L30.0103 31.5624C30.3918 31.1809 30.3918 30.5628 30.0103 30.1813L29.025 29.1959C29.438 28.4634 29.7594 27.6937 29.9865 26.8953H31.3715C31.9113 26.8953 32.3482 26.4584 32.3482 25.9186V22.0117C32.3482 21.4718 31.9113 21.0349 31.3715 21.0349ZM19.6507 29.8255C16.4141 29.8255 13.7904 27.2017 13.7904 23.9651C13.7904 20.7285 16.4141 18.1047 19.6507 18.1047C22.8873 18.1047 25.5111 20.7285 25.5111 23.9651C25.5111 27.2017 22.8873 29.8255 19.6507 29.8255Z" fill="#99CCFF"/>
<path d="M22.5806 35.751V34.3009C23.379 34.0739 24.1487 33.7525 24.8812 33.3394L25.8666 34.3248C26.2481 34.7063 26.8662 34.7063 27.2477 34.3248L30.01 31.5624C30.3915 31.1809 30.3915 30.5628 30.01 30.1813L29.0247 29.196C29.4377 28.4634 29.7591 27.6937 29.9862 26.8953H31.3712C31.9111 26.8953 32.3479 26.4584 32.3479 25.9186V22.0117C32.3479 21.4718 31.9111 21.0349 31.3712 21.0349H29.9862C29.7592 20.2366 29.4377 19.4668 29.0247 18.7343L30.01 17.749C30.3915 17.3674 30.3915 16.7493 30.01 16.3678L27.2477 13.6055C26.8662 13.224 26.2481 13.224 25.8666 13.6055L24.8812 14.5908C24.1487 14.1778 23.379 13.8564 22.5806 13.6293V12.2443C22.5806 11.7044 22.1437 11.2676 21.6038 11.2676H19.6504V18.1047C22.887 18.1047 25.5108 20.7284 25.5108 23.965C25.5108 27.2017 22.887 29.8254 19.6504 29.8254V36.7276H21.6038C22.1437 36.7278 22.5806 36.2909 22.5806 35.751Z" fill="#80AAFF"/>
<path d="M19.6496 17.1279C15.8736 17.1279 12.8125 20.189 12.8125 23.965C12.8125 27.7411 15.8736 30.8021 19.6496 30.8021C23.4256 30.8021 26.4867 27.7411 26.4867 23.965C26.4867 20.189 23.4256 17.1279 19.6496 17.1279ZM19.6496 28.8487C16.9569 28.8487 14.766 26.6577 14.766 23.965C14.766 21.2723 16.9569 19.0814 19.6496 19.0814C22.3423 19.0814 24.5332 21.2723 24.5332 23.965C24.5332 26.6577 22.3423 28.8487 19.6496 28.8487Z" fill="#80AAFF"/>
<path d="M26.4875 23.965C26.4875 20.189 23.4264 17.1279 19.6504 17.1279V19.0814C22.3431 19.0814 24.534 21.2723 24.534 23.965C24.534 26.6577 22.3431 28.8487 19.6504 28.8487V30.8021C23.4264 30.8021 26.4875 27.7411 26.4875 23.965Z" fill="#6680FF"/>
<path d="M24.6628 6.37261L25.0627 5.48613C23.3525 4.7459 21.5306 4.37012 19.6506 4.37012C17.7706 4.37012 15.9487 4.7459 14.2385 5.48613L14.6388 6.37235C10.1194 8.31662 6.95312 12.8717 6.95312 18.1037V19.0804H19.6506H32.3481V18.1037C32.3481 12.8718 29.1819 8.31695 24.6628 6.37261Z" fill="#FFE666"/>
<path d="M32.3479 18.1037C32.3479 12.8718 29.1817 8.31695 24.6626 6.37254L25.0624 5.48606C23.3523 4.7459 21.5304 4.37012 19.6504 4.37012V19.0804H32.3479V18.1037Z" fill="#FFC34D"/>
<path d="M33.3251 16.1494H19.6509H5.97673C5.43686 16.1494 5 16.5863 5 17.1261V20.0563C5 20.4922 5.28898 20.8757 5.70871 20.9959C5.99294 21.0769 12.7566 22.9865 19.6509 22.9865C26.5453 22.9865 33.3089 21.0769 33.5931 20.9959C34.0128 20.8757 34.3019 20.4923 34.3019 20.0563V17.1261C34.3019 16.5863 33.865 16.1494 33.3251 16.1494Z" fill="#FFC34D"/>
<path d="M34.3013 20.0563V17.1261C34.3013 16.5863 33.8645 16.1494 33.3246 16.1494H19.6504V22.9865C26.5447 22.9865 33.3084 21.0769 33.5926 20.9959C34.0123 20.8757 34.3013 20.4922 34.3013 20.0563Z" fill="#FF9933"/>
<path d="M25.9753 5.13337C25.8809 4.89016 25.692 4.69365 25.4527 4.58966C23.6098 3.79226 21.6311 3.39355 19.6523 3.39355C17.6736 3.39355 15.6949 3.79226 13.8521 4.58966C13.6126 4.69365 13.4238 4.8901 13.3294 5.13337C13.235 5.37755 13.2426 5.64941 13.3504 5.88786L16.8089 13.6218C17.0283 14.113 17.6016 14.3324 18.1004 14.1102C18.5926 13.8889 18.811 13.3109 18.5888 12.8187L15.5537 6.0233C16.8729 5.57023 18.2626 5.34369 19.6523 5.34369C21.042 5.34369 22.4318 5.57023 23.7509 6.0233L20.7159 12.8187C20.4936 13.3109 20.712 13.8889 21.2042 14.1102C21.6957 14.3325 22.2755 14.1128 22.4957 13.6218L25.9543 5.88786C26.0621 5.64941 26.0698 5.37755 25.9753 5.13337Z" fill="#FFC34D"/>
<path d="M20.7139 12.8187C20.4917 13.3109 20.7101 13.8889 21.2023 14.1102C21.6938 14.3325 22.2736 14.1128 22.4938 13.6218L25.9524 5.88786C26.0601 5.64941 26.0678 5.37755 25.9733 5.13337C25.8789 4.89016 25.69 4.69365 25.4507 4.58966C23.6078 3.79226 21.6291 3.39355 19.6504 3.39355V5.34369C21.0401 5.34369 22.4299 5.57023 23.749 6.0233L20.7139 12.8187Z" fill="#FF9933"/>
</svg>
