<svg width="27" height="27" viewBox="0 0 27 27" fill="none" xmlns="http://www.w3.org/2000/svg">
<path fill-rule="evenodd" clip-rule="evenodd" d="M13.4974 3.10938C7.51391 3.10938 2.66406 7.95923 2.66406 13.9427C2.66406 19.9262 7.51391 24.776 13.4974 24.776C19.4809 24.776 24.3307 19.9262 24.3307 13.9427C24.3307 7.95923 19.4809 3.10938 13.4974 3.10938ZM13.4974 4.73438C18.5834 4.73438 22.7057 8.85669 22.7057 13.9427C22.7057 19.0287 18.5834 23.151 13.4974 23.151C8.41138 23.151 4.28906 19.0287 4.28906 13.9427C4.28906 8.85669 8.41138 4.73438 13.4974 4.73438ZM13.9359 9.33272C13.8821 8.93614 13.5421 8.63048 13.1308 8.63048C12.6821 8.63048 12.3183 8.99424 12.3183 9.44298V14.6939L12.3274 14.8149C12.3632 15.0533 12.5039 15.266 12.7145 15.3917L16.7987 17.8281L16.8972 17.8782C17.2653 18.0352 17.702 17.8998 17.9127 17.5466L17.9628 17.4481C18.1198 17.0799 17.9845 16.6433 17.6312 16.4325L13.9429 14.2314L13.9433 9.44298L13.9359 9.33272Z" fill="url(#paint0_linear_15122_130872)"/>
<defs>
<linearGradient id="paint0_linear_15122_130872" x1="-2.14594" y1="4.86437" x2="31.5674" y2="30.2794" gradientUnits="userSpaceOnUse">
<stop stop-color="#0FA76F"/>
<stop offset="1" stop-color="#0F9EA7"/>
</linearGradient>
</defs>
</svg>
