<svg width="96" height="58" viewBox="0 0 96 58" fill="none" xmlns="http://www.w3.org/2000/svg">
<path d="M60.6207 34.178C52.904 47.7377 35.171 52.4304 13.1588 46.9239C16.3566 44.4315 21.8153 46.5086 23.4444 41.8136C23.0866 41.2115 22.9049 40.6164 22.6779 40.5602C16.415 40.5019 10.1503 40.3435 3.94737 40.5461C3.45411 40.5223 2.96318 40.6277 2.52315 40.8519C2.08312 41.076 1.70924 41.4112 1.43849 41.8242C1.16775 42.2372 1.00953 42.7137 0.979477 43.2066C0.949415 43.6995 1.04857 44.1918 1.26712 44.6346C3.28486 49.1121 5.16077 53.7544 9.44101 57.947L10.7593 51.9229C17.2472 52.9601 23.5888 54.5674 30.0082 54.973C45.1102 55.9165 57.7021 50.7463 66.3526 37.7884C67.7166 35.7334 69.2917 35.2973 71.5345 35.0644C75.9701 34.7388 80.2567 33.3225 84.0131 30.9412C87.7695 28.56 90.8795 25.2876 93.0666 21.4149C94.8139 18.4526 96.5527 15.1196 93.6962 10.6024C93.2337 13.4575 92.2127 16.1934 90.6916 18.6534C89.1705 21.1134 87.1791 23.2492 84.8315 24.9386C80.3594 28.279 75.5299 30.5705 69.9255 30.2154C68.6853 25.2579 68.0708 20.3784 66.2058 16.0481C64.279 11.642 61.6658 7.56924 58.4637 3.98144C57.0544 2.34594 55.1081 1.26654 52.9744 0.937122C50.8407 0.6077 48.6595 1.04984 46.8225 2.18413C43.2467 4.28522 41.649 8.34675 42.8742 13.2391C44.7694 20.6801 49.4276 27.12 55.9016 31.2491C57.4206 32.3506 59.0425 33.2328 60.6207 34.178ZM62.6477 29.0876C59.2949 27.6367 56.2919 25.484 53.8412 22.7746C51.3904 20.0653 49.5487 16.8621 48.4402 13.381C47.6673 11.1224 47.296 8.6683 49.9184 7.32812C52.1684 6.18454 54.0289 7.56427 55.3919 9.18256C60.0823 14.7594 62.6371 21.8222 62.5999 29.1092L62.6477 29.0876Z" fill="#E7BE15"/>
</svg>
