<svg width="40" height="40" viewBox="0 0 40 40" fill="none" xmlns="http://www.w3.org/2000/svg">
<path d="M0 20.0027C0 8.95522 8.9416 0 19.9628 0C30.9883 0 39.9257 8.95522 39.9257 20.0027C39.9257 31.0501 30.9883 40.0011 19.9628 40.0011C8.93739 40.0011 0 31.0501 0 20.0027Z" fill="url(#paint0_linear_22159_10421)"/>
<path d="M36.1426 11.1405C36.1426 16.8604 28.8849 21.492 19.9307 21.492C10.9764 21.492 3.71875 16.8604 3.71875 11.1405C3.71875 5.42064 10.9764 0.789062 19.9307 0.789062C28.8849 0.789062 36.1426 5.42486 36.1426 11.1447V11.1405Z" fill="url(#paint1_linear_22159_10421)"/>
<path d="M25.7348 35.4645C25.2928 35.7007 24.8129 35.7513 24.3414 35.8863C23.9498 35.996 23.7646 36.2069 23.5289 36.519C22.9269 37.312 21.7102 36.8607 20.8977 36.7299C20.4515 36.6582 20.0011 36.6371 19.5506 36.616C19.0623 36.5907 18.5192 36.5401 18.0477 36.7088C17.7025 36.8312 17.4457 37.0843 17.071 37.1602C16.4396 37.2867 15.766 37.1602 15.1345 37.1011C14.1873 37.0126 13.2486 37.0843 12.3014 37.1813C11.8341 37.2319 11.3668 37.2867 10.9037 37.35C13.6906 38.8559 16.8774 39.708 20.2663 39.708C22.207 39.708 24.0846 39.4211 25.8569 38.8981C25.6801 38.839 25.5033 38.7842 25.3138 38.7462C25.1244 38.7083 24.4003 38.6956 24.3414 38.4383C24.2698 38.1135 25.1202 37.8688 25.3138 37.8056C25.8442 37.6326 26.4084 37.5736 26.9346 37.3838C27.6966 37.1096 28.2059 35.9496 27.9534 35.1861C27.5703 34.0303 26.2989 35.1608 25.7306 35.4603L25.7348 35.4645ZM11.3752 7.40084C12.0025 8.26135 12.2719 9.30325 12.7265 10.2481C13.177 11.1761 13.859 11.8721 14.6252 12.547C15.4755 13.2937 16.2712 14.0782 17.071 14.8755C17.7657 15.5715 18.2835 15.8794 19.0917 15.9385C19.6053 15.9764 20.1063 16.1747 20.4894 16.3054C20.923 16.4573 21.285 16.9635 21.5503 17.263C21.8997 17.6595 22.548 17.9843 22.889 17.7354C23.2258 17.4865 22.3459 17.1786 22.2996 16.7821C22.2617 16.4151 22.0723 16.0186 21.8155 15.9216C21.5545 15.8246 21.024 15.7824 20.8725 15.7022C20.4305 15.466 20.0221 14.9472 19.5927 14.673C19.2559 14.4579 17.9467 13.8083 18.7423 13.3611C19.1254 13.146 19.6306 13.1165 20.0558 13.0574C20.5904 12.9857 21.1335 12.9267 21.6513 12.7537C22.628 12.4289 23.0237 11.6401 23.5752 10.8471C24.2572 9.86005 25.217 9.25685 26.341 8.88143C26.8083 8.72535 27.3008 8.62412 27.7555 8.43852C27.987 8.34572 28.2396 8.21495 28.2017 7.92812C28.1596 7.61175 27.8692 7.30382 27.6881 7.05495C27.4103 6.67531 27.1409 6.29567 26.9093 5.88651C26.5052 5.15676 26.3536 4.2836 25.8737 3.59603C25.2886 2.75661 24.2193 2.46134 23.251 2.37697C22.026 2.27152 20.8472 2.54148 19.6474 2.74396C18.696 2.90425 17.8625 2.83676 17.0205 2.34323C16.1407 1.82439 15.3619 1.17479 14.3221 1.01872C11.371 1.95094 8.72303 3.55807 6.55078 5.65873C8.33152 5.71778 10.2554 5.87807 11.371 7.40928L11.3752 7.40084ZM31.6243 20.2495C30.917 19.874 30.1803 19.4817 29.5404 19.0009C28.408 18.1488 27.2587 17.1913 25.8022 17.0014C25.1875 16.9213 24.5561 17.0141 24.0593 17.398C23.5247 17.8071 23.1879 18.4483 22.9563 19.0641C22.7037 19.7348 22.5354 20.4899 22.6574 21.207C22.7711 21.8777 23.1795 22.3923 23.6383 22.8647C24.1014 23.3414 24.5982 23.8138 24.8339 24.455C25.0696 25.0962 24.9855 25.7795 24.7834 26.4165C24.5645 27.1082 24.2361 27.7621 24.0593 28.4707C23.8614 29.2637 23.8572 30.0947 24.034 30.892C24.1477 31.3981 24.3835 32.305 24.9391 32.5202C25.4359 32.71 25.6801 31.9718 25.7937 31.6344C26.0211 30.9637 26.1684 30.255 26.5599 29.656C26.9641 29.0317 27.5913 28.6183 28.1975 28.2134C28.8164 27.8 29.4268 27.3655 29.9067 26.7834C30.294 26.3194 30.5676 25.7837 30.9128 25.2902C31.2538 24.8009 31.7211 24.3791 32.0916 23.9108C32.4662 23.4342 32.8535 22.928 33.0851 22.3628C33.2535 21.9494 33.304 21.5023 33.0009 21.1395C32.6557 20.7261 32.0916 20.5025 31.6285 20.2579L31.6243 20.2495ZM38.7388 12.8381C38.5747 13.0785 38.4231 13.3316 38.2673 13.5805C37.8295 14.2891 37.4422 15.1539 37.5096 16.0102C37.5769 16.8876 38.5241 17.7312 39.1851 18.2289C39.4377 18.4188 39.7197 18.5453 39.9976 18.6845C39.8755 16.6345 39.4377 14.673 38.7388 12.8381ZM25.217 1.74003C26.1558 2.08592 27.2461 1.81595 28.2102 2.13654C29.3468 2.51617 29.0184 3.50323 29.2794 4.4228C29.5868 5.50266 30.7402 5.43516 31.578 5.05131C31.9442 4.88258 32.3063 4.68854 32.6515 4.4692C30.5382 2.76505 28.0628 1.48272 25.3643 0.765625C24.8886 1.09464 24.5687 1.49959 25.2212 1.74003H25.217Z" fill="url(#paint2_linear_22159_10421)"/>
<defs>
<linearGradient id="paint0_linear_22159_10421" x1="19.9628" y1="40.0011" x2="19.9628" y2="0" gradientUnits="userSpaceOnUse">
<stop stop-color="#266B97"/>
<stop offset="0.03" stop-color="#2774A5"/>
<stop offset="0.06" stop-color="#297DB2"/>
<stop offset="0.1" stop-color="#2A80B7"/>
<stop offset="1" stop-color="#82CEEC"/>
</linearGradient>
<linearGradient id="paint1_linear_22159_10421" x1="19.9307" y1="4.47576" x2="19.9307" y2="32.2273" gradientUnits="userSpaceOnUse">
<stop stop-color="#79C0E5"/>
<stop offset="1" stop-color="#E4F2F5"/>
</linearGradient>
<linearGradient id="paint2_linear_22159_10421" x1="6.55499" y1="20.2368" x2="39.9976" y2="20.2368" gradientUnits="userSpaceOnUse">
<stop offset="0.04" stop-color="#D6DE23"/>
<stop offset="0.51" stop-color="#8BC53F"/>
<stop offset="0.89" stop-color="#37B34A"/>
</linearGradient>
</defs>
</svg>
