<svg xmlns="http://www.w3.org/2000/svg" width="53" height="51" viewBox="0 0 53 51">
  <g id="Day_Planner" data-name="Day Planner" transform="translate(-152 -1252)">
    <rect id="Rectangle_14743" data-name="Rectangle 14743" width="53" height="51" rx="6" transform="translate(152 1252)" fill="rgba(3,169,244,0.07)"/>
    <g id="Layer_2" data-name="Layer 2" transform="translate(167 1266)">
      <g id="Сalendar">
        <path id="Path_94122" data-name="Path 94122" d="M18.876,2.251h-.865V1.126a1.126,1.126,0,1,0-2.251,0V2.251H6.754V1.126a1.126,1.126,0,0,0-2.251,0V2.251H3.638A3.638,3.638,0,0,0,0,5.89V18.876a3.638,3.638,0,0,0,3.638,3.638H18.876a3.638,3.638,0,0,0,3.638-3.638V5.89A3.638,3.638,0,0,0,18.876,2.251Zm1.387,16.624a1.387,1.387,0,0,1-1.387,1.387H3.638a1.387,1.387,0,0,1-1.387-1.387V5.89A1.387,1.387,0,0,1,3.638,4.5H4.5V5.629a1.126,1.126,0,0,0,2.251,0V4.5H15.76V5.629a1.126,1.126,0,1,0,2.251,0V4.5h.865A1.387,1.387,0,0,1,20.263,5.89Z" fill="#0483bc"/>
        <circle id="Ellipse_4335" data-name="Ellipse 4335" cx="1.126" cy="1.126" r="1.126" transform="translate(10.131 10.357)" fill="#0483bc"/>
        <circle id="Ellipse_4336" data-name="Ellipse 4336" cx="1.126" cy="1.126" r="1.126" transform="translate(10.131 14.409)" fill="#0483bc"/>
        <circle id="Ellipse_4337" data-name="Ellipse 4337" cx="1.126" cy="1.126" r="1.126" transform="translate(6.079 14.409)" fill="#0483bc"/>
        <g id="Group_38759" data-name="Group 38759" transform="translate(14.184 10.357)">
          <circle id="Ellipse_4338" data-name="Ellipse 4338" cx="1.126" cy="1.126" r="1.126" fill="#0483bc"/>
          <circle id="Ellipse_4339" data-name="Ellipse 4339" cx="1.126" cy="1.126" r="1.126" transform="translate(0 4.053)" fill="#0483bc"/>
        </g>
      </g>
    </g>
  </g>
</svg>
