<svg xmlns="http://www.w3.org/2000/svg" width="53" height="51" viewBox="0 0 53 51">
  <g id="Group_Activities" data-name="Group Activities" transform="translate(-152.5 -1252)">
    <rect id="Rectangle_14743" data-name="Rectangle 14743" width="53" height="51" rx="6" transform="translate(152.5 1252)" fill="#e8f7f5"/>
    <g id="Group_39403" data-name="Group 39403" transform="translate(-4422.8 629.976)">
      <path id="Path_96225" data-name="Path 96225" d="M4588.3,827.534a7.856,7.856,0,0,1,.353-1.141,3.508,3.508,0,0,1,3.122-2.123,24.477,24.477,0,0,1,3.092.034.789.789,0,0,0,.861-.393,3.411,3.411,0,0,1,2.874-1.534c1.555-.022,3.112-.037,4.667.01a3.433,3.433,0,0,1,2.911,1.733c.133.213.253.276.483.2a1.345,1.345,0,0,1,.413-.052c1.063,0,2.133-.058,3.189.036a3.589,3.589,0,0,1,3.184,3.418c.039,1.391.034,2.784.005,4.175a2.183,2.183,0,0,1-2.178,2.177c-.065,0-.131,0-.2,0q-10.2,0-20.394,0a2.3,2.3,0,0,1-1.947-.9,2.623,2.623,0,0,1-.439-1.077Zm8.209,5.053h8.746c0-.088.01-.16.01-.232q0-3.093,0-6.185a2.206,2.206,0,0,0-2.345-2.331q-2.039-.005-4.077,0a2.67,2.67,0,0,0-.7.079,2.162,2.162,0,0,0-1.637,2.178c-.01,2.111,0,4.221,0,6.332C4596.5,832.478,4596.5,832.526,4596.509,832.587Zm-1.495-6.8c-.206-.022-.415-.062-.624-.065q-1.154-.012-2.308,0a2.493,2.493,0,0,0-.63.078,2.19,2.19,0,0,0-1.677,2.224c0,1.227,0,2.454,0,3.681,0,.628.265.895.894.9h4.075c.086,0,.173-.008.271-.012Zm11.735,6.789a.4.4,0,0,0,.075.022c1.489,0,2.979.006,4.469,0a.7.7,0,0,0,.693-.741c.006-1.309.012-2.618,0-3.926a2.151,2.151,0,0,0-1.988-2.17c-.963-.046-1.93-.019-2.895-.018a1.966,1.966,0,0,0-.353.064Z" transform="translate(0 -176.208)" fill="#40bfad" stroke="#40bfad" stroke-width="0.8"/>
      <path id="Path_96226" data-name="Path 96226" d="M4759.385,637.024a4.372,4.372,0,1,1-4.37,4.372A4.377,4.377,0,0,1,4759.385,637.024Zm0,1.474a2.9,2.9,0,1,0,2.907,2.893A2.9,2.9,0,0,0,4759.381,638.5Z" transform="translate(-158.508)" fill="#40bfad" stroke="#40bfad" stroke-width="0.8"/>
      <path id="Path_96227" data-name="Path 96227" d="M4621.644,722.834a3.277,3.277,0,1,1,3.257,3.282A3.283,3.283,0,0,1,4621.644,722.834Zm3.238-1.785a1.8,1.8,0,1,0,.076,3.591,1.8,1.8,0,1,0-.076-3.591Z" transform="translate(-31.702 -78.482)" fill="#40bfad" stroke="#40bfad" stroke-width="0.8"/>
      <path id="Path_96228" data-name="Path 96228" d="M4939.491,722.841a3.277,3.277,0,1,1-3.269-3.266A3.291,3.291,0,0,1,4939.491,722.841Zm-3.279-1.79a1.8,1.8,0,1,0,1.8,1.791A1.811,1.811,0,0,0,4936.212,721.052Z" transform="translate(-327.67 -78.487)" fill="#40bfad" stroke="#40bfad" stroke-width="0.8"/>
    </g>
  </g>
</svg>
