<svg xmlns="http://www.w3.org/2000/svg" width="53" height="51" viewBox="0 0 53 51">
  <g id="Innovation_Motivation" data-name="Innovation &amp; Motivation" transform="translate(-152.5 -1252)">
    <rect id="Rectangle_14743" data-name="Rectangle 14743" width="53" height="51" rx="6" transform="translate(152.5 1252)" fill="rgba(3,169,244,0.07)"/>
    <g id="Group_39401" data-name="Group 39401" transform="translate(-3522.522 445.557)">
      <path id="Path_96212" data-name="Path 96212" d="M3998.112,818.443a.985.985,0,0,1,.483,1c-.028.393,0,.791-.013,1.186a.72.72,0,0,1-1.438.064,7.18,7.18,0,0,1,.012-1.547c.04-.254.325-.469.5-.7Z" transform="translate(-296.465 0)" fill="#6c7cd4" stroke="#6c7cd5" stroke-width="0.8"/>
      <path id="Path_96213" data-name="Path 96213" d="M3932.805,888.285c-.472,0-.945.007-1.416,0a2.2,2.2,0,0,1-2.229-2.144,2.572,2.572,0,0,1,0-.5c.044-.307-.1-.441-.359-.589a2.175,2.175,0,0,1-.313-3.562,1.163,1.163,0,0,0-.056-1.684,7.565,7.565,0,0,1-.246-11.755,7.239,7.239,0,0,1,11.732,4.006,7.389,7.389,0,0,1-2.666,7.716,1.129,1.129,0,0,0-.032,1.769,2.178,2.178,0,0,1-.407,3.528.552.552,0,0,0-.342.6,2.375,2.375,0,0,1-.543,1.873,2.167,2.167,0,0,1-1.614.739C3933.811,888.293,3933.308,888.285,3932.805,888.285Zm2.551-7.337a2.659,2.659,0,0,0,.017-.31,2.3,2.3,0,0,1,.98-2.036,5.933,5.933,0,0,0,2.2-5.982,5.868,5.868,0,0,0-6.426-4.773,6.052,6.052,0,0,0-3.287,10.344c.812.785,1.682,1.441,1.383,2.756Zm-2.551,2.948c.93,0,1.859,0,2.789,0,.553,0,.864-.263.872-.715.009-.474-.3-.745-.887-.746q-2.766,0-5.531,0c-.538,0-.875.28-.885.714-.011.45.337.744.9.747C3930.978,883.9,3931.892,883.9,3932.806,883.9Zm-2.181,1.487c0,.265-.017.492,0,.716a.715.715,0,0,0,.741.717c.974.015,1.951.018,2.924,0a.671.671,0,0,0,.707-.688c.018-.239,0-.479,0-.742Z" transform="translate(-231.422 -43.508)" fill="#6c7cd4" stroke="#6c7cd5" stroke-width="0.8"/>
      <path id="Path_96214" data-name="Path 96214" d="M3903.749,860.1a2,2,0,0,1,.467.194c.417.354.841.707,1.223,1.1a.717.717,0,0,1-.944,1.066,7.915,7.915,0,0,1-1.21-1.107.924.924,0,0,1-.1-.784C3903.266,860.356,3903.57,860.234,3903.749,860.1Z" transform="translate(-211.111 -37.835)" fill="#6c7cd4" stroke="#6c7cd5" stroke-width="0.8"/>
      <path id="Path_96215" data-name="Path 96215" d="M3947.52,831.434a3.155,3.155,0,0,1-.614.621.586.586,0,0,1-.822-.264,12.869,12.869,0,0,1-.7-1.573.641.641,0,0,1,.355-.8.587.587,0,0,1,.823.115C3946.913,830.108,3947.176,830.736,3947.52,831.434Z" transform="translate(-249.443 -9.867)" fill="#6c7cd4" stroke="#6c7cd5" stroke-width="0.8"/>
      <path id="Path_96216" data-name="Path 96216" d="M4105.911,905.748a2.9,2.9,0,0,1,.583.653.568.568,0,0,1-.316.769,11.711,11.711,0,0,1-1.73.553.7.7,0,0,1-.449-1.284C4104.58,906.184,4105.194,906,4105.911,905.748Z" transform="translate(-393.269 -79.304)" fill="#6c7cd4" stroke="#6c7cd5" stroke-width="0.8"/>
      <path id="Path_96217" data-name="Path 96217" d="M3871.306,959.606c-.62.029-.944-.193-1-.615s.244-.77.769-.834c.438-.054.878-.1,1.317-.122a.721.721,0,0,1,.823.667.745.745,0,0,1-.684.776C3872.1,959.541,3871.654,959.571,3871.306,959.606Z" transform="translate(-181.279 -126.797)" fill="#6c7cd4" stroke="#6c7cd5" stroke-width="0.8"/>
      <path id="Path_96218" data-name="Path 96218" d="M4110.527,959.6c-.319-.032-.714-.063-1.105-.111-.511-.062-.781-.354-.752-.8s.343-.687.864-.657c.394.023.787.069,1.18.109.579.06.882.351.848.808S4111.193,959.64,4110.527,959.6Z" transform="translate(-397.8 -126.799)" fill="#6c7cd4" stroke="#6c7cd5" stroke-width="0.8"/>
      <path id="Path_96219" data-name="Path 96219" d="M4041.663,832.276a19.383,19.383,0,0,1,.97-1.885c.1-.15.528-.176.772-.118a.551.551,0,0,1,.392.726,11.612,11.612,0,0,1-.751,1.7.565.565,0,0,1-.806.2A3.154,3.154,0,0,1,4041.663,832.276Z" transform="translate(-336.936 -10.72)" fill="#6c7cd4" stroke="#6c7cd5" stroke-width="0.8"/>
      <path id="Path_96220" data-name="Path 96220" d="M4083.494,861.742c0,.656-1.4,1.955-1.881,1.839a.9.9,0,0,1-.566-.445.813.813,0,0,1,.1-.707,7.466,7.466,0,0,1,1.248-1.122.845.845,0,0,1,.715-.023C4083.309,861.374,4083.419,861.647,4083.494,861.742Z" transform="translate(-372.675 -38.854)" fill="#6c7cd4" stroke="#6c7cd5" stroke-width="0.8"/>
      <path id="Path_96221" data-name="Path 96221" d="M3878.755,907.787c0,.572-.375.94-.82.842a10.476,10.476,0,0,1-1.647-.525.643.643,0,0,1-.343-.849.628.628,0,0,1,.773-.483,9.816,9.816,0,0,1,1.646.537C3878.56,907.395,3878.673,907.68,3878.755,907.787Z" transform="translate(-186.367 -80.216)" fill="#6c7cd4" stroke="#6c7cd5" stroke-width="0.8"/>
      <path id="Path_96222" data-name="Path 96222" d="M4013.937,900.627c.271.1.417.139.554.2a4.722,4.722,0,0,1,2.536,2.854.75.75,0,0,1-.41,1.055c-.415.154-.786-.054-.967-.572a3.38,3.38,0,0,0-1.84-2.043c-.37-.17-.613-.477-.442-.877C4013.476,900.994,4013.758,900.815,4013.937,900.627Z" transform="translate(-311.184 -74.652)" fill="#6c7cd4" stroke="#6c7cd5" stroke-width="0.8"/>
    </g>
  </g>
</svg>
