<svg xmlns="http://www.w3.org/2000/svg" width="25" height="25" viewBox="0 0 25 25"><defs><style>.a,.d{fill:none;}.a{stroke:#0fa76f;}.b{fill:#0fa76f;}.c{stroke:none;}</style></defs><g class="a"><rect class="c" width="25" height="25" rx="12.5"/><rect class="d" x="0.5" y="0.5" width="24" height="24" rx="12"/></g><g transform="translate(6.298 6.296)"><path class="b" d="M918.627,223.3a3.142,3.142,0,0,1-1.009-.166l-2.307-.784A1.877,1.877,0,0,1,914,220.362l.192-1.635a.493.493,0,0,1,.551-.415.479.479,0,0,1,.439.52l-.192,1.635a.939.939,0,0,0,.654.993l2.307.784a2.107,2.107,0,0,0,1.309.012l2.532-.821a1.04,1.04,0,0,0,.317-.171.518.518,0,0,1,.7.047.455.455,0,0,1-.05.666l0,0a2.068,2.068,0,0,1-.633.344l-2.545.825a3.145,3.145,0,0,1-.957.148Zm1.278-4.861.609-.282a.477.477,0,1,0-.437-.848l-.609.282a2.063,2.063,0,0,1-1.732,0l-4.014-1.852a.825.825,0,0,1-.407-1.131.87.87,0,0,1,.405-.385l4.011-1.865a2.063,2.063,0,0,1,1.743,0l4.011,1.865a.84.84,0,0,1,.107,1.483.458.458,0,0,0-.162.649.514.514,0,0,0,.685.153l.006,0a1.762,1.762,0,0,0-.2-3.129l-4.011-1.865a3.1,3.1,0,0,0-2.621,0l-4.011,1.865a1.747,1.747,0,0,0-.859,2.4,1.843,1.843,0,0,0,.864.816l4.014,1.852a3.1,3.1,0,0,0,2.606,0Z" transform="translate(-912.226 -211.217)"/><path class="b" d="M946.62,230.334,944.3,229.1a.743.743,0,0,0-1.471.2.759.759,0,0,0,1.013.752l2.342,1.244a1.077,1.077,0,0,1,.555.962v2.486a.5.5,0,1,0,1,0v-2.486a2.154,2.154,0,0,0-1.111-1.924Z" transform="translate(-937.172 -225.878)"/></g></svg>