<svg xmlns="http://www.w3.org/2000/svg" width="25" height="25" viewBox="0 0 25 25"><defs><style>.a,.d{fill:none;}.a{stroke:#0fa76f;}.b{fill:#0fa76f;}.c{stroke:none;}</style></defs><g class="a"><rect class="c" width="25" height="25" rx="12.5"/><rect class="d" x="0.5" y="0.5" width="24" height="24" rx="12"/></g><g transform="translate(7.085 6.125)"><path class="b" d="M11.148,10.03l-.3-1.445a2.857,2.857,0,0,0-1.3-1.85L7.714,5.6a2.638,2.638,0,0,0,.512-1.3l.145-1.369A2.65,2.65,0,0,0,5.738,0H5.445A2.65,2.65,0,0,0,2.809,2.931L2.957,4.3a2.638,2.638,0,0,0,.512,1.3L1.635,6.734a2.857,2.857,0,0,0-1.3,1.85l-.3,1.445a1.555,1.555,0,0,0,1.522,1.876H9.626a1.555,1.555,0,0,0,1.522-1.876ZM4.359,1.667a1.445,1.445,0,0,1,1.086-.476h.293a1.457,1.457,0,0,1,1.45,1.614L7.043,4.172a1.46,1.46,0,0,1-2.9,0L3.995,2.805A1.429,1.429,0,0,1,4.359,1.667ZM9.91,10.573a.352.352,0,0,1-.283.136H1.554a.352.352,0,0,1-.283-.136.362.362,0,0,1-.081-.3l.3-1.445a1.688,1.688,0,0,1,.767-1.081L4.435,6.4a2.634,2.634,0,0,0,2.31,0L8.919,7.748a1.688,1.688,0,0,1,.76,1.081l.3,1.445a.362.362,0,0,1-.074.3Z" transform="translate(0.001 0)"/><rect class="b" width="2.381" height="1.191" rx="0.595" transform="translate(6.068 8.572)"/></g></svg>