<svg xmlns="http://www.w3.org/2000/svg" width="25" height="25" viewBox="0 0 25 25"><defs><style>.a,.d{fill:none;}.a{stroke:#0fa76f;}.b{fill:#0fa76f;}.c{stroke:none;}</style></defs><g class="a"><rect class="c" width="25" height="25" rx="12.5"/><rect class="d" x="0.5" y="0.5" width="24" height="24" rx="12"/></g><g transform="translate(7.271 7.026)"><path class="b" d="M9.356,1.116h-.43V.558a.558.558,0,1,0-1.116,0v.558H3.347V.558a.558.558,0,1,0-1.116,0v.558H1.8A1.8,1.8,0,0,0,0,2.919V9.356a1.8,1.8,0,0,0,1.8,1.8H9.356a1.8,1.8,0,0,0,1.8-1.8V2.919a1.8,1.8,0,0,0-1.8-1.8Zm.685,8.24a.688.688,0,0,1-.685.685H1.8a.688.688,0,0,1-.688-.685V2.919A.688.688,0,0,1,1.8,2.231h.428v.558a.558.558,0,1,0,1.116,0V2.231H7.81v.558a.558.558,0,1,0,1.116,0V2.231h.429a.688.688,0,0,1,.687.688Z" transform="translate(0)"/><circle class="b" cx="0.558" cy="0.558" r="0.558" transform="translate(5.314 5.133)"/><circle class="b" cx="0.558" cy="0.558" r="0.558" transform="translate(5.314 7.142)"/><circle class="b" cx="0.558" cy="0.558" r="0.558" transform="translate(3.305 7.142)"/><g transform="translate(7.323 5.133)"><circle class="b" cx="0.558" cy="0.558" r="0.558" transform="translate(0 0)"/><circle class="b" cx="0.558" cy="0.558" r="0.558" transform="translate(0 2.009)"/></g></g></svg>