<svg xmlns="http://www.w3.org/2000/svg" width="25" height="25" viewBox="0 0 25 25"><defs><style>.a,.c,.d,.f{fill:none;}.a,.b,.c,.d{stroke:#0fa76f;}.b{fill:#fff;}.c,.d{stroke-linecap:round;}.c{stroke-linejoin:round;}.e{stroke:none;}</style></defs><g class="a"><rect class="e" width="25" height="25" rx="12.5"/><rect class="f" x="0.5" y="0.5" width="24" height="24" rx="12"/></g><g transform="translate(7.8 7.077)"><g transform="translate(0)"><g class="b" transform="translate(1.242 0.896)"><circle class="e" cx="4.184" cy="4.184" r="4.184"/><circle class="f" cx="4.184" cy="4.184" r="3.684"/></g><g transform="matrix(-0.017, -1, 1, -0.017, 8.411, 2.484)"><path class="c" d="M0,0,2.442,2.442" transform="translate(0 0)"/><path class="c" d="M2.442,0V2.442H0" transform="translate(0 0)"/></g><g transform="matrix(0.017, -1, 1, 0.017, 0, 2.442)"><path class="c" d="M0,2.442,2.442,0" transform="translate(0)"/><path class="c" d="M2.442,2.442V0H0" transform="translate(0 0)"/></g></g><line class="d" y2="3.484" transform="translate(5.427 8.772)"/><line class="d" x2="3.484" transform="translate(3.686 10.515)"/></g></svg>