<svg xmlns="http://www.w3.org/2000/svg" xmlns:xlink="http://www.w3.org/1999/xlink" width="601" height="291" viewBox="0 0 601 291"><defs><style>.a,.c,.d{fill:#15bf81;}.b{opacity:0.223;clip-path:url(#a);}.c{opacity:0.15;}.d{opacity:0.2;}.e{opacity:0.08;}.f{fill:#cccccb;}.g{fill:#999;}.h{opacity:0.07;}.i{fill:#fff;}.j{fill:#666766;}</style><clipPath id="a"><rect class="a" width="601" height="291" rx="10" transform="translate(774 116)"/></clipPath></defs><g class="b" transform="translate(-774 -116)"><g transform="translate(675.621 88.731)"><path class="c" d="M1051.147,118.44V389.094c-59.16-5.6-121.26-15.137-183.342-30.511-98.517-24.407-128.937-46.671-210.573-58.851-69.51-10.369-167.893-12.189-305.232,18.53V118.44Z" transform="translate(-352 -118.44)"/><path class="d" d="M1051.147,392.1v9.289c-58.3-4.123-119.695-11.962-181.642-25.326-101-21.781-133.73-43.212-216.55-53.23-70.178-8.493-168.046-7.763-300.955,26.047V285.752c142.476-32.35,275.423-.294,322.018,14.4,75.181,23.705,101.782,38.766,200.3,63.173C936.4,378.7,991.987,386.5,1051.147,392.1Z" transform="translate(-352 -126.44)"/><g class="e" transform="translate(443.829)"><path class="f" d="M839.737,118.44V317.912c-70.083-9.308-134.819-29.269-182.75-59.145-66.645-41.525-86.448-93.229-63.265-140.327H839.737Z" transform="translate(-584.418 -118.44)"/><path class="g" d="M816.684,118.44v175.2C761.3,285,710.49,268.492,672.145,244.616c-59.924-37.345-75.793-84.244-51.407-126.176Z" transform="translate(-561.365 -118.44)"/><path class="f" d="M760.747,118.44V232.266c-19.478-5.478-37.161-12.824-51.808-21.952-43.883-27.345-48.657-63.192-18.39-91.874Z" transform="translate(-505.428 -118.44)"/></g><g class="h" transform="translate(0 239.134)"><path class="f" d="M591.351,489.883H352V382.142c65.519-18.644,151.375-14.436,207.67,12.635C613.216,420.52,623.776,459.087,591.351,489.883Z" transform="translate(-352 -370.735)"/><path class="g" d="M563.852,490.517H352v-93.94c57.46-20.331,138.733-18,190.713,6.986C591.809,427.154,598.875,463.314,563.852,490.517Z" transform="translate(-352 -371.369)"/><path class="f" d="M501.618,485.136a111.867,111.867,0,0,1-18.867,6.919h-87.67a111.873,111.873,0,0,1-18.867-6.919c-12.813-6.161-20.891-13.744-24.214-21.7V446.559c3.323-7.952,11.4-15.535,24.214-21.7,34.64-16.644,90.764-16.644,125.4,0C536.239,441.507,536.239,468.492,501.618,485.136Z" transform="translate(-352 -372.907)"/><path class="i" d="M416.256,477.034H405.1c-.649-.009-1.184-.265-1.184-.578V439.784c0-.152-.134-.3-.363-.417a2.105,2.105,0,0,0-.84-.171H384.4a1.4,1.4,0,0,1-1.146-.417l-5.843-9.99c-.191-.3.172-.616.783-.711a1.875,1.875,0,0,1,.325-.028h37.715v48.984Z" transform="translate(-328.929 -373.725)"/><path class="j" d="M410.2,477.035H397.73V428.07h31.719a1.375,1.375,0,0,1,1.146.427l5.633,9.99c.172.3-.191.616-.821.7-.1.009-.21.019-.325.019H412.606c-.668,0-1.2.256-1.2.578h0v36.672c0,.152-.115.3-.344.408A2.276,2.276,0,0,1,410.2,477.035Z" transform="translate(-310.403 -373.726)"/></g></g></g></svg>