<svg xmlns="http://www.w3.org/2000/svg" width="29.922" height="21.275" viewBox="0 0 29.922 21.275"><defs><style>.a{fill:#00c569;}.b{fill:#ffda2d;}.c{fill:#f3c900;}.d{fill:#ac8e00;}.e{fill:#fdd61e;}.f{fill:#d8b200;}</style></defs><path class="a" d="M221.586,412.594a1.323,1.323,0,0,0-.725.231c-4.93,3.332-11,4.012-14.59,4l-1.134,0a1.24,1.24,0,0,0-1.272,1.2l-.016,5.024a1.238,1.238,0,0,0,1.264,1.211h.06c.325,0,.684-.022,1.074-.02h.05l.819,7.8a2.1,2.1,0,0,0,2.111,1.822l3.216.01a2.074,2.074,0,0,0,2.13-2.012,1.872,1.872,0,0,0-.01-.211l-.669-6.394a22.463,22.463,0,0,1,6.917,3.086,1.328,1.328,0,0,0,.749.24,1.239,1.239,0,0,0,1.253-1.2l.044-13.569a1.233,1.233,0,0,0-1.254-1.211Zm-9.55,18.893-2.5-.008-.7-7.122c.789.074,1.633.176,2.5.33Zm8.286-6.254a30.654,30.654,0,0,0-13.973-3.368l.009-2.661a30.8,30.8,0,0,0,13.994-3.286Z" transform="translate(-203.848 -412.594)"/><g transform="translate(20.651 3.575)"><g transform="translate(0 0)"><path class="b" d="M252.1,421.708a4.791,4.791,0,0,0-6.556,0,4.289,4.289,0,0,0,0,6.262,4.791,4.791,0,0,0,6.556,0A4.289,4.289,0,0,0,252.1,421.708Z" transform="translate(-244.182 -420.411)"/><path class="c" d="M252.035,422.639a4.052,4.052,0,0,0-5.583.038,3.709,3.709,0,0,0,0,5.344,4.052,4.052,0,0,0,5.583-.038A3.711,3.711,0,0,0,252.035,422.639Z" transform="translate(-244.608 -420.903)"/><path class="d" d="M251.848,424.85a2.274,2.274,0,0,0-3.23,0,2.309,2.309,0,0,0,0,3.251,2.274,2.274,0,0,0,3.23,0A2.309,2.309,0,0,0,251.848,424.85Z" transform="translate(-245.597 -422.048)"/><g transform="translate(3.533 3.108)"><path class="e" d="M251.363,428.55h-.32a.032.032,0,0,1-.034-.031v-1.977a.032.032,0,0,0-.01-.023.037.037,0,0,0-.024-.009h-.524a.034.034,0,0,1-.033-.023l-.167-.539a.03.03,0,0,1,.022-.038h1.09Z" transform="translate(-250.249 -425.909)"/><path class="f" d="M252.391,428.551h-.357v-2.642h.908a.034.034,0,0,1,.033.023l.161.539a.03.03,0,0,1-.023.038h-.653a.033.033,0,0,0-.034.031v1.978a.03.03,0,0,1-.01.022A.04.04,0,0,1,252.391,428.551Z" transform="translate(-250.92 -425.909)"/></g></g></g></svg>