<svg xmlns="http://www.w3.org/2000/svg" width="25" height="25" viewBox="0 0 25 25"><defs><style>.a,.d{fill:none;}.a{stroke:#0fa76f;}.b{fill:#0fa76f;}.c{stroke:none;}</style></defs><g class="a"><rect class="c" width="25" height="25" rx="12.5"/><rect class="d" x="0.5" y="0.5" width="24" height="24" rx="12"/></g><g transform="translate(6.034 8.297)"><g transform="translate(0 0)"><path class="b" d="M22.981,13.642l2.845-2.323a.654.654,0,0,0,.2-.9.643.643,0,0,0-.89-.209L22.3,12.534a.656.656,0,0,0,.2,1.191.639.639,0,0,0,.489-.084Z" transform="translate(-16.302 -7.471)"/><path class="b" d="M14.831,12.534l-2.845-2.323a.643.643,0,0,0-.89.209.654.654,0,0,0,.2.9l2.845,2.323a.643.643,0,0,0,.865-.225.657.657,0,0,0-.182-.883Z" transform="translate(-8.153 -7.471)"/><path class="b" d="M10.806,0H2.126A2.137,2.137,0,0,0,0,2.148v5.11A2.137,2.137,0,0,0,2.126,9.406h8.68a2.137,2.137,0,0,0,2.126-2.148V2.148A2.137,2.137,0,0,0,10.806,0Zm.833,7.258a.837.837,0,0,1-.833.841H2.126a.837.837,0,0,1-.833-.841V2.148a.837.837,0,0,1,.833-.841h8.68a.837.837,0,0,1,.833.841Z" transform="translate(0)"/></g></g></svg>