<svg xmlns="http://www.w3.org/2000/svg" width="25" height="25" viewBox="0 0 25 25"><defs><style>.a,.d{fill:none;}.a{stroke:#0fa76f;}.b{fill:#0fa76f;}.c{stroke:none;}</style></defs><g class="a"><rect class="c" width="25" height="25" rx="12.5"/><rect class="d" x="0.5" y="0.5" width="24" height="24" rx="12"/></g><g transform="translate(8.379 5.742)"><path class="b" d="M7.923,10.338,5.678,7.617a.981.981,0,0,0-1.007-.341l-.185.047A.415.415,0,0,1,4,7.063,5.409,5.409,0,0,1,3.681,5.9a.338.338,0,0,1,.243-.38,1.031,1.031,0,0,0,.7-.61,1.162,1.162,0,0,0,.08-.517L4.472,1.208A1.325,1.325,0,0,0,3.933.213,1.167,1.167,0,0,0,2.864.054L1.218.727A1.768,1.768,0,0,0,.065,2.25,13.059,13.059,0,0,0,3.353,12.272a.535.535,0,0,0,.488.155.563.563,0,0,0,.4-.331l.015-.028a.625.625,0,0,0-.122-.68A11.826,11.826,0,0,1,1.179,2.633.937.937,0,0,1,1.8,1.8L2.92,1.314a.314.314,0,0,1,.282.046.357.357,0,0,1,.144.262l.175,2.392a.409.409,0,0,1-.294.432l-.379.1a.628.628,0,0,0-.443.7A8.168,8.168,0,0,0,3.589,8.672a.567.567,0,0,0,.7.23l.513-.22a.37.37,0,0,1,.438.119l1.625,2.054a.366.366,0,0,1,.068.317.342.342,0,0,1-.207.239l-.91.341a.59.59,0,0,0-.341.342.646.646,0,0,0,.013.5.559.559,0,0,0,.713.31l1.216-.466a1.265,1.265,0,0,0,.787-.9A1.352,1.352,0,0,0,7.923,10.338Z" transform="translate(-0.002 0.011)"/><path class="b" d="M22.515,1.349a.63.63,0,0,0,.443.569,1.274,1.274,0,0,1,.915,1.154,1.3,1.3,0,0,1-.737,1.29A.648.648,0,0,0,22.78,5a.657.657,0,0,0,.3.506.581.581,0,0,0,.563.029,2.611,2.611,0,0,0,1.437-2.562,2.552,2.552,0,0,0-1.789-2.3.582.582,0,0,0-.554.12.669.669,0,0,0-.224.553Z" transform="translate(-17.038 -0.48)"/></g></svg>