<svg xmlns="http://www.w3.org/2000/svg" width="25" height="25" viewBox="0 0 25 25"><defs><style>.a,.d{fill:none;}.a,.b{stroke:#0fa76f;}.b{fill:#0fa76f;stroke-miterlimit:10;stroke-width:0.5px;}.c{stroke:none;}</style></defs><g class="a"><rect class="c" width="25" height="25" rx="12.5"/><rect class="d" x="0.5" y="0.5" width="24" height="24" rx="12"/></g><path class="b" d="M6.846,9.82v-3.1l-.52.425A.477.477,0,0,1,5.713,7.1a.328.328,0,0,1,.047-.51L6.846,5.7a.694.694,0,0,1,.8,0l1.087.893a.327.327,0,0,1,.047.51.453.453,0,0,1-.331.128.383.383,0,0,1-.236-.085l-.567-.425v3.1a.365.365,0,0,1-.4.351A.365.365,0,0,1,6.846,9.82Zm2.681-.85a.363.363,0,1,1,0-.723H11.19a2.115,2.115,0,0,0,2.219-2,2.144,2.144,0,0,0-2.455-2,.388.388,0,0,1-.425-.425,3.092,3.092,0,0,0-3.21-3.1,3.2,3.2,0,0,0-3.21,2.508c0,.213-.189.341-.425.341A2.541,2.541,0,0,0,.8,5.91,2.513,2.513,0,0,0,3.446,8.247H4.968a.363.363,0,1,1,0,.723H3.446A3.274,3.274,0,0,1,0,5.91a3.292,3.292,0,0,1,3.4-3.1A3.928,3.928,0,0,1,7.318,0a3.847,3.847,0,0,1,4.013,3.486A2.941,2.941,0,0,1,14.259,6.25,2.918,2.918,0,0,1,11.19,8.97Z" transform="translate(5.937 7.29)"/></svg>