<svg xmlns="http://www.w3.org/2000/svg" width="13.953" height="14.676" viewBox="0 0 13.953 14.676"><defs><style>.a{fill:#fff;}</style></defs><path class="a" d="M5.55,109.42a2.652,2.652,0,0,0-2.7,2.6v6.269H1.745A1.716,1.716,0,0,1,0,116.607v-8.254a1.716,1.716,0,0,1,1.745-1.683h7.93a1.716,1.716,0,0,1,1.74,1.683v1.07Zm0,0" transform="translate(0 -106.67)"/><path class="a" d="M138.147,9.326a1.713,1.713,0,0,1-1.743,1.681h-6.659A1.713,1.713,0,0,1,128,9.326V1.679A1.714,1.714,0,0,1,129.745,0H136.4a1.777,1.777,0,0,1,1.231.492,1.652,1.652,0,0,1,.511,1.19Zm0,0" transform="translate(-124.194 3.669)"/></svg>