<svg xmlns="http://www.w3.org/2000/svg" xmlns:xlink="http://www.w3.org/1999/xlink" width="199" height="86" viewBox="0 0 199 86"><defs><style>.a{fill:#fff;stroke:#707070;opacity:0.697;}.b{clip-path:url(#a);}</style><clipPath id="a"><rect class="a" width="199" height="86" transform="translate(582 1161)"/></clipPath></defs><g class="b" transform="translate(-582 -1161)"><g transform="translate(499.22 1147.117) rotate(-14)"><path d="M127.883,103.691a4.179,4.179,0,0,0-.508-.376,1.65,1.65,0,0,0-1.968.448c-.941.916-1.894,1.828-2.767,2.809A17.054,17.054,0,0,0,121,108.832a.728.728,0,0,0,.64,1.179,4.5,4.5,0,0,0,2.341-.785,20.926,20.926,0,0,0,1.979-1.215,3.957,3.957,0,0,0,.746-.621,10.633,10.633,0,0,0,2.34-3.445,12.7,12.7,0,0,0,.515-1.845c.118-.563.146-1.144.233-1.714a.9.9,0,0,0-.539-.976,15.463,15.463,0,0,0-1.475-.521c-.26-.1-.489-.276-.742-.4-.9-.438-.526-1.245-.567-1.931a.225.225,0,0,1,.074-.181c.518-.249,1.036-.5,1.568-.719a3.356,3.356,0,0,1,.712-.121c-.133.369-.262.725-.364,1.007a18.68,18.68,0,0,1,1.781,1.122,2.214,2.214,0,0,1,.768,1.043,6.616,6.616,0,0,1,.239,2.019,10.058,10.058,0,0,1-.377,1.988,24.683,24.683,0,0,1-.735,2.571,4.732,4.732,0,0,1-.834,1.381c-.776.915-1.61,1.783-2.421,2.669-.058.063-.156.115-.174.188a1.125,1.125,0,0,0-.048.539c.023.08.256.143.393.143,1.715,0,3.432.015,5.146-.025a13.373,13.373,0,0,0,2.6-.241,4.716,4.716,0,0,0,1.655-.83,19.464,19.464,0,0,0,1.823-1.585,3.778,3.778,0,0,0,1.2-2.522c.075-.941-.671-1.389-1.536-.973s-1.7.832-2.537,1.276a2.591,2.591,0,0,0-1.028,1.49.758.758,0,0,1-1.063.428,1.057,1.057,0,0,1-.623-.749c-.018-.831.133-1.663.17-2.5.016-.351.217-.813-.35-1.015a1.724,1.724,0,0,1,.243-.886,4.567,4.567,0,0,0,1.02-3.071c.047-.959.118-1.918.225-2.871.115-1.031.3-2.053.424-3.083.1-.778.109-1.567.234-2.34.115-.713.33-1.41.5-2.113.011-.047.082-.089.079-.13-.072-.875.58-1.457.872-2.185.134-.336.01-.743.388-1.023.415-.309.548-.263.74.2a2.179,2.179,0,0,1-.182,2.088,3.935,3.935,0,0,0-.277,1.231c-.144.781-.284,1.564-.414,2.347-.089.538-.165,1.079-.233,1.62-.165,1.319-.313,2.641-.486,3.959-.117.892-.29,1.777-.388,2.671-.055.5.113.616.5.29a24.923,24.923,0,0,0,1.973-1.908,7.7,7.7,0,0,0,.869-1.135c.8-1.235,1.6-2.474,2.369-3.729a4.918,4.918,0,0,0,.451-1.126,1.734,1.734,0,0,0,.023-.615c-.057-.886-.185-1.774-.159-2.658a2.49,2.49,0,0,1,.5-1.2c.332-.492.771-.911,1.138-1.381.448-.574.895-1.154,1.294-1.761a.759.759,0,0,0-.145-1.066c-.258-.229-.474-.509-.746-.719a.9.9,0,0,1-.294-1.025c.051-.184.341-.342.556-.435.682-.292,1.386-.534,2.069-.823a1.625,1.625,0,0,1,1.62.2c-.3.191-.594.386-.895.573s-.594.362-.8.486c.085.677.186,1.37.259,2.067a3.449,3.449,0,0,1-.905,2.425c-.756,1.042-1.855,1.838-2.279,3.119a1.586,1.586,0,0,0-.109.539,31.4,31.4,0,0,1,.138,3.332,5.028,5.028,0,0,1-.727,1.656,21.477,21.477,0,0,1-5.136,6.225c-.4.371-.856.688-1.247,1.069a2.058,2.058,0,0,0-.3.623c.266.011.611.136.784.016,1.089-.756,2.283-.219,3.419-.342a6.775,6.775,0,0,1,1.242,1.431,6.35,6.35,0,0,1,.268,1.8,3.948,3.948,0,0,1-1.066,2.893c-.35.482-.764.918-1.224,1.464.238.12.435.3.627.3.542-.012,1.082-.105,1.624-.16.189-.019.38-.025.57-.026,2.34-.006,4.692.135,7.015-.061,1.916-.161,3.822-.136,5.731-.147,6.144-.032,12.29.07,18.429-.091,2.029-.053,4.063-.049,6.092-.146a.806.806,0,0,0,.9-.844c.082-.886.114-1.777.221-2.66.077-.636.264-1.258.356-1.891.071-.492.071-.994.1-1.493l-.252-.125c-.239.288-.465.589-.72.862a11.135,11.135,0,0,1-4,2.89,5.867,5.867,0,0,1-2.79.3.77.77,0,0,1-.381-.24c-.363-.346-.683-.742-1.075-1.052-.454-.36-.523-.893-.749-1.358-.376-.774-.763-1.544-1.168-2.3a.7.7,0,0,0-.408.095c-.2,1.711-1.281,3.032-1.991,4.514a12.087,12.087,0,0,1-.868,1.31c-.33.5-.835.411-1.31.373-.086-.007-.224-.209-.225-.322-.007-1.177,0-2.354.027-3.531a2.583,2.583,0,0,1,.209-.672c.3-.925.606-1.849.9-2.775.151-.48.265-.971.421-1.448a3.493,3.493,0,0,1,1.3-1.621,1.625,1.625,0,0,1,.883-.143c.356-.009.627.045.722-.481a5.171,5.171,0,0,1,.676-1.277c.139-.266.242-.552.365-.827a1.57,1.57,0,0,1,1.791-.709.33.33,0,0,1,.152.186,9.462,9.462,0,0,1,.383,1.516c.019.174-.329.57-.443.547-.831-.173-.98.464-1.243.964-.1.191-.12.426-.227.612a1.977,1.977,0,0,0,.026,2c.729,1.457,1.451,2.918,2.191,4.37a1.112,1.112,0,0,0,1.711.36.954.954,0,0,1,.558-.193,3.217,3.217,0,0,0,2.457-1.07,23.287,23.287,0,0,0,2.215-2.5,5.916,5.916,0,0,0,1.286-3.409c-.063-4.829-.019-9.659.019-14.488a11.537,11.537,0,0,1,.331-1.789c.05-.287.056-.58.08-.872a1,1,0,0,1,1.032-.8c.468-.031.818.006.914.622.161,1.032.4,2.056.658,3.069a18.843,18.843,0,0,1,.431,5,2.14,2.14,0,0,0,.011.517c.026.107.149.19.228.284.082-.093.219-.176.237-.279a14.9,14.9,0,0,0,.215-1.618c.095-1.628.2-3.258.229-4.888q.053-3.141-.021-6.282a2.559,2.559,0,0,1,.524-1.56.994.994,0,0,1,.895-.079c.367.615.953,1.16.59,2.062a5.677,5.677,0,0,0-.25,1.966c-.037,1.8,0,3.6-.043,5.4-.034,1.41-.141,2.818-.227,4.226-.063,1.062-.171,2.122-.21,3.185-.091,2.41-.144,4.822-.233,7.232-.02.525-.133,1.047-.188,1.571a2.8,2.8,0,0,0,.03.482l.14.032c.227-.454.457-.905.68-1.36.342-.695.688-1.388,1.016-2.089.3-.64.565-1.3.872-1.934.386-.8.827-1.576,1.192-2.385a16.2,16.2,0,0,0,.546-1.606c.021-.064-.008-.161.029-.2a7.727,7.727,0,0,0,1.142-2.533,19.029,19.029,0,0,0,.6-1.924c.173-.546.379-1.082.541-1.631.275-.922.541-1.846.783-2.778.229-.879.428-1.765.625-2.652.1-.431.163-.868.241-1.3q.2-1.1.387-2.2c.021-.119.016-.24.031-.36.143-1.081.3-2.16.425-3.243.048-.411-.01-.836.054-1.243a12.224,12.224,0,0,1,.46-2.121,2.321,2.321,0,0,1,.8-.921c.307-.241.562-.083.639.315q.17.872.338,1.745a.256.256,0,0,1,0,.146,14.544,14.544,0,0,0-.605,2.868,33.828,33.828,0,0,0-.605,3.711c-.079.78-.184,1.558-.232,2.34-.095,1.544-.161,3.089-.232,4.633-.059,1.287-.124,2.573-.149,3.86-.008.437.148.878.139,1.315-.018.888-.144,1.777-.136,2.664.009,1.235.155,2.47.141,3.7-.021,1.876-.128,3.749-.2,5.624-.073,1.857-.141,3.715-.229,5.571-.03.648-.113,1.294-.167,1.941-.074.877.423,1.324,1.282,1.32,3.171-.012,6.343,0,9.513.016.248,0,.492.111.742.137a7.206,7.206,0,0,0,.765.011c.475,0,.951-.008,1.427-.009.049,0,.1.046.147.042,1.13-.1,2.266.165,3.384.005a26.122,26.122,0,0,1,3.075.049,12.759,12.759,0,0,1,2.913.219c2.314.479,4.666.23,6.978.468,1.988.2,3.976-.03,5.937.2,2.727.327,5.452.061,8.174.195a35.031,35.031,0,0,1,3.642.234,60.9,60.9,0,0,0,7.236.17.835.835,0,0,0,.58-.249,1.122,1.122,0,0,1,.955-.392,4.011,4.011,0,0,1,2.091.387,3.243,3.243,0,0,0,1.443.258,17.782,17.782,0,0,0,2.39,0,1.975,1.975,0,0,1,1.4.508.63.63,0,0,1,.1.558.661.661,0,0,1-.4.4c-.547.121-1.109.172-1.663.258-.2.031-.394.09-.593.128a.909.909,0,0,1-.4.04,4.962,4.962,0,0,0-2.681-.05c-.043.01-.095-.021-.143-.024-.37-.022-.74-.042-1.235-.069-.234-.438-.732-.241-1.236-.15a5.393,5.393,0,0,1-1.173.055c-.3-.012-.6-.147-.9-.149-2.652-.016-5.3-.025-7.954-.007a8.676,8.676,0,0,0-1.239.227.717.717,0,0,1-.5-.115l.974-.105c-.005-.079-.009-.158-.015-.236-.426.023-.853.06-1.281.067-.686.01-1.371.005-2.057,0-.153,0-.3-.056-.458-.057-1.023-.008-2.045.015-3.067-.019a46,46,0,0,1-5.145-.265c-1.315-.192-2.627.008-3.91-.193a48,48,0,0,0-5.574-.2c-.54-.022-1.075-.191-1.613-.2-1.661-.02-3.3-.319-4.976-.254s-3.362.033-5.042,0a24.081,24.081,0,0,1-2.924-.214c-2.789-.4-5.59-.074-8.383-.189-.671-.028-.34.639-.579.922-.06.071-.01.235-.011.356-.011,2.008.026,4.018-.053,6.023-.047,1.185-.27,2.363-.435,3.543a2.715,2.715,0,0,1-.238.717.553.553,0,0,1-.731.316.637.637,0,0,1-.265-.5c-.025-.708-.018-1.419.006-2.128q.1-2.94.221-5.88c.014-.3.172-.6.159-.895a9.218,9.218,0,0,0-.2-1.826.91.91,0,0,0-.977-.674c-3.206.011-6.412,0-9.617,0q-12.607.011-25.214.035c-.491,0-.981.126-1.474.15-.21.01-.428-.137-.64-.131-.648.02-1.3.08-1.943.125-.207.015-.413.037-.62.038-3.466.015-6.931,0-10.4.047-2.051.025-4.1.124-6.151.212a3.747,3.747,0,0,0-1.1.228,3.163,3.163,0,0,1-2.3-.006,1.175,1.175,0,0,0-.412-.027c-1.647.006-3.293-.01-4.938.03-1.289.031-2.577.123-3.865.208a14.444,14.444,0,0,0-2.24.236c-.447.1-1.077.05-1.244.708-.007.03-.04.074-.062.076-.93.067-.528.776-.528,1.21,0,.8.141,1.6.19,2.4a9.308,9.308,0,0,1-.016,1.5,2.867,2.867,0,0,1-.3,1.065,1.049,1.049,0,0,1-.88.527,8.666,8.666,0,0,1-3.922-.652,16.985,16.985,0,0,0-2.875-.731,1.946,1.946,0,0,1-1.077-.614,9.5,9.5,0,0,0-3.468-2.215,29.967,29.967,0,0,0-3.032-1.286,3.87,3.87,0,0,0-1.239-.021c.059-.553-.279-.694-.786-.644-.905.088-1.824.032-2.737.03-.153,0-.3-.05-.459-.053-.45-.008-.9.01-1.351-.009-1.7-.078-3.4-.133-5.092-.262-1.5-.114-3,.073-4.5.061-.92-.007-1.839.134-2.76.2-1.061.078-2.122.149-3.183.223-1.024.072-2.047.141-3.071.217-.974.072-1.949.119-2.918.233-.669.079-1.324.263-1.99.38a1.82,1.82,0,0,1-.447-.067,7.741,7.741,0,0,0-1.014-.069c-.317.014-.631.141-.948.147-1.767.025-3.535.01-5.3.048a13.893,13.893,0,0,0-1.826.217.412.412,0,0,0-.353.289l-.91.11c-.509.063-1.525-.853-1.556-1.372-.066-1.083.162-1.267,1.277-1.628.4-.129.78-.325,1.184-.438a12.4,12.4,0,0,1,1.765-.409c.933-.121,1.878-.15,2.813-.252.418-.046.826-.178,1.24-.264a16.631,16.631,0,0,1,1.881-.368c1.364-.121,2.741-.122,4.1-.278a23.2,23.2,0,0,0,2.4-.585,1.665,1.665,0,0,1,.771-.008,5.69,5.69,0,0,0,3.031,0,4.608,4.608,0,0,1,1.139-.034c.854-.007,1.174-.5.863-1.294a4.284,4.284,0,0,1-.368-1.2c-.11-1.558-.2-3.12-.222-4.681a7.118,7.118,0,0,1,.237-2.283c.258-.793.026-1.66.552-2.421.269-.39.164-1.023.3-1.526.128-.476.353-.926.527-1.39.077-.2.121-.422.2-.622.551-1.3,1.163-2.586,1.642-3.916a2.445,2.445,0,0,1,1.037-1.48,8.209,8.209,0,0,0,1.39-1.312A20.732,20.732,0,0,1,91.832,85.6c1.142-.879,2.345-1.683,3.566-2.45a3.919,3.919,0,0,1,1.284-.287c.347-.069.737-.262,1.036-.17.585.181,1.259.16,1.729.675.4.434.84.823,1.249,1.244a.636.636,0,0,0,.793.136,5.3,5.3,0,0,1,1.066-.315c.987-.178,1.987-.287,2.967-.5a13.975,13.975,0,0,0,2.176-.666c.2-.077.339-.4.421-.647.247-.73.415-1.489.689-2.207a1.868,1.868,0,0,1,.657-.862,1.539,1.539,0,0,1,2.146.855c.286.582.573,1.163.873,1.738.055.105.175.258.258.254.542-.028,1.083-.092,1.624-.147.068-.007.133-.038.2-.045.886-.08,1.776-.136,2.66-.24.929-.11,1.853-.266,2.78-.4.1-.015.207-.014.311-.021,1.2-.084,2.4-.16,3.593-.258.387-.032.771-.177,1.155-.17a3.832,3.832,0,0,1,1.036.245.515.515,0,0,1,.251.253,1.331,1.331,0,0,1-.568,1.62,15.532,15.532,0,0,1-2.976,1.242c-1.058.347-2.134.641-3.2.967-.324.1-.634.242-.957.343-.6.186-1.2.35-1.8.538-.274.086-.536.209-.8.314a4.256,4.256,0,0,1-.851.321c-.689.106-.9.474-.668,1.122.374,1.029.722,2.069,1.051,3.115.186.594.283,1.216.474,1.809.123.38.365.719.518,1.091a9.672,9.672,0,0,0,.358,1.047,2.63,2.63,0,0,0,.939,1.21c1.188.687,2.288,1.524,3.463,2.236a7.688,7.688,0,0,1,2.279,2.76,2.616,2.616,0,0,1,.322.791c.117.477.434.41.711.249a21.51,21.51,0,0,0,1.842-1.186,1.743,1.743,0,0,1,2.158.089,1.33,1.33,0,0,1-.163,1.833A6.3,6.3,0,0,0,127.883,103.691Zm-41.892,2.385c.072.105.146.216.224.326.35.488.206,1.051.255,1.587a1.891,1.891,0,0,0,1.4,1.551c.972.08,1.943.156,2.915.219,1.318.085,2.637.156,3.956.235a1.708,1.708,0,0,1,.2.03c.748.136,1.5.276,2.246.409.135.024.277.014.413.035a13.37,13.37,0,0,0,2.356.373c3.086-.061,6.18.278,9.259-.176.673-.1,1.351-.18,2.031-.211,1.3-.059,2.368-.835,3.585-1.148a8.99,8.99,0,0,1,1.405-.4,1.443,1.443,0,0,0,1.39-1.562c-.055-.421-.162-.838-.187-1.261a17.919,17.919,0,0,0-.65-3.861,26.227,26.227,0,0,1-.672-3.333,2.481,2.481,0,0,0-1.569-2.109,15.317,15.317,0,0,0-2.554-.982c-.689-.167-1.381-.328-2.059-.535-.4-.122-.885-.017-.974.379a17.615,17.615,0,0,0-.406,2.5c-.119,1.593-.162,3.191-.235,4.786a1.393,1.393,0,0,0,.025.308,12.227,12.227,0,0,1,.365,1.991,22,22,0,0,1-.219,2.55c0,.048-.052.089-.064.138a10.615,10.615,0,0,0-.327,1.322,1.118,1.118,0,0,1-1.41.838.609.609,0,0,1-.3-.388c-.1-.742-.176-1.489-.225-2.236-.1-1.489-.17-2.978-.256-4.467a2.015,2.015,0,0,0-.068-.3c-.189-.875-.383-1.749-.565-2.626-.042-.2,0-.422-.064-.615-.262-.851-.552-1.694-.822-2.542-.244-.77-.464-1.549-.721-2.315-.066-.2-.2-.468-.358-.519a4.656,4.656,0,0,0-2.126-.486,1.392,1.392,0,0,1-.413-.03c-.875-.132-1.748-.273-2.624-.4-.238-.034-.486-.014-.724-.049-.806-.122-1.61-.263-2.417-.386-.187-.028-.382,0-.57-.024-1.1-.138-2.194-.277-3.288-.436a1.549,1.549,0,0,1-.594-.241c-.352-.229-1.274-.29-1.505-.019A5.583,5.583,0,0,0,88.2,93.2c-.416.883-.756,1.8-1.121,2.709a15.434,15.434,0,0,0-.829,2.162c-.232.987-.312,2.01-.453,3.017a.818.818,0,0,0,.033.2c.054.418.125.836.146,1.256a.394.394,0,0,1-.25.3c-.343.019-.383.213-.383.487,0,.8-.018,1.593-.02,2.388C85.328,106.287,85.417,106.337,85.991,106.077Zm107.962-20-.131.059c-.182.592-.343,1.19-.551,1.773-.173.485-.4.951-.6,1.426-.02.047-.012.1-.029.152-.193.572-.386,1.145-.585,1.715-.095.272-.2.537-.309.805-.182.465-.346.937-.553,1.391-.231.509-.531.987-.747,1.5-.385.913-.713,1.851-1.1,2.764-.27.639-.672,1.229-.887,1.883-.362,1.1-.618,2.237-.927,3.356a4.731,4.731,0,0,1-.356,1.094c-.385.674-.85,1.3-1.261,1.962a2.113,2.113,0,0,0-.338.781,1.292,1.292,0,0,1-1.909.886.59.59,0,0,1-.239-.422q.094-1.635.25-3.269a10.141,10.141,0,0,1,.227-1.143,15.641,15.641,0,0,0,.379-1.778c.126-1.332.188-2.668.264-4a2.5,2.5,0,0,0-.084-.538,10.523,10.523,0,0,0-.665,1.869c-.132.56-.12,1.155-.262,1.711a9.393,9.393,0,0,0-.428,2.654,1.385,1.385,0,0,1-.046.3c-.127.646-.27,1.289-.38,1.938-.1.569-.131,1.148-.245,1.713a1.389,1.389,0,0,1-.357.662,2.072,2.072,0,0,0-.485,1.72.38.38,0,0,0,.237.267,5.9,5.9,0,0,0,1.252.208c3.29.023,6.582.025,9.872.025a.919.919,0,0,0,.833-.825c.073-1.786.147-3.573.207-5.361.027-.795.009-1.593.042-2.387.014-.335.218-.7.139-.994a3.281,3.281,0,0,1,.024-2.107.96.96,0,0,0-.033-.455,3.071,3.071,0,0,1-.128-.637c.045-.78.141-1.558.188-2.339.079-1.3.185-2.6.186-3.907s-.1-2.607-.187-3.908C194.219,86.44,194.05,86.262,193.953,86.08Zm-93.812.522c-.5.11-.937.184-1.36.3-1.123.309-2.237.654-3.363.949a11.177,11.177,0,0,0-3.022.984,2.488,2.488,0,0,0-1.241,1.287c-.043.122.04.41.12.434a20.607,20.607,0,0,0,2.548.664c.959.154,1.939.183,2.911.246.5.032,1.009-.024,1.5.037.8.1,1.6.263,2.4.4a4.28,4.28,0,0,1,.69.158c.664.238,1.2-.074,1.061-.751a8.751,8.751,0,0,0-.784-2.12C101.164,88.3,100.632,87.46,100.142,86.6ZM110.6,88.308l-.084-.223a3,3,0,0,0,.513-.388c.38-.44.913-.86,1.039-1.372.105-.425-.253-.986-.463-1.461a1.206,1.206,0,0,0-1.169-.485,2.969,2.969,0,0,0-1.474,2.1c.037,2.093,0,4.187,0,6.281V93.3c.328.081.571.134.81.2.129.037.267.171.372.145.776-.192,1.333.422,2.038.536a19.714,19.714,0,0,1,2.461.77c.083.025.318-.148.329-.247a1.657,1.657,0,0,0-.093-.647c-.172-.564-.359-1.123-.552-1.68-.277-.795-.576-1.581-.845-2.378-.183-.542-.3-1.108-.508-1.639-.076-.195-.332-.447-.506-.447-.284,0-.562.216-.856.282A9.3,9.3,0,0,1,110.6,88.308Zm8.143,28c-.075-.972-.119-2-.255-3.018a1.383,1.383,0,0,0-.524-.886,2.245,2.245,0,0,0-1.126-.256c-.366-.01-.733.146-1.1.166-1.595.092-3.192.147-4.786.242-.8.048-1.6.14-2.395.239a1.031,1.031,0,0,0-.552.245.451.451,0,0,0-.009.433,8.293,8.293,0,0,0,1.234.7c1.532.677,3.067,1.351,4.619,1.98a5.539,5.539,0,0,0,1.711.429,3.765,3.765,0,0,1,2.071.857,1.38,1.38,0,0,0,.985.195,2.279,2.279,0,0,0,.127-.7A6.126,6.126,0,0,0,118.74,116.307ZM102.1,86.142c.39.823.77,1.565,1.1,2.329s.629,1.565.9,2.36c.306.887.625,1.737,1.711,1.924a4.581,4.581,0,0,0,1.089.194,1,1,0,0,0,.791-1.08c.011-1.141-.006-2.282.032-3.422.029-.869.136-1.734.176-2.6a.537.537,0,0,0-.258-.4c-.689-.34-1.384.012-2.072.052a15.774,15.774,0,0,0-2.039.378C103.067,85.96,102.606,86.045,102.1,86.142Zm17.011,20.536a5.61,5.61,0,0,0,.575-.235,7.237,7.237,0,0,0,1.167-.715,3.914,3.914,0,0,0,.789-.992,2.919,2.919,0,0,0,.673-1.385,3.894,3.894,0,0,0-1.261-2.864,7.234,7.234,0,0,0-3.32-2c.095.354.174.675.267.991a5.051,5.051,0,0,1,.218.656c.057.39.037.792.1,1.18.1.582.239,1.156.358,1.734.031.151.034.307.067.457.118.559.281,1.112.352,1.677A12.347,12.347,0,0,1,119.108,106.678Zm2.081-23.6a2.339,2.339,0,0,0-.493-.06c-.574.062-1.146.145-1.72.221-.454.06-.908.112-1.359.188-.35.059-.691.181-1.042.221-.867.1-1.735.164-2.6.238-.417.035-.675.256-.593.669a6.112,6.112,0,0,0,.443,1.335.588.588,0,0,0,.5.243,5.405,5.405,0,0,0,.941-.353q1.18-.465,2.361-.927A8.979,8.979,0,0,0,121.188,83.083ZM85.619,111.509c0-.063-.005-.126-.008-.189a1.1,1.1,0,0,0-.316-.089q-3.9.117-7.808.248a.631.631,0,0,0-.154.02,9.661,9.661,0,0,1-3.653.615,2.01,2.01,0,0,0-.458.07l0,.154c.5.1,1,.222,1.5.276a4.357,4.357,0,0,0,1.084-.043c.684-.1,1.359-.3,2.044-.343,1-.066,2.009-.008,3.012-.049s1.986-.1,2.97-.224A14.4,14.4,0,0,0,85.619,111.509Zm96.7-17.891.232.032a15.381,15.381,0,0,0,.4-2.3c.056-2.141.035-4.285.01-6.427a10.129,10.129,0,0,0-.229-1.715,2.683,2.683,0,0,0-.293-.622l-.121.02Zm-76.752.926c.4,1.533.795,3.06,1.2,4.583.028.105.156.183.238.274a1.145,1.145,0,0,0,.231-.283,1.51,1.51,0,0,0,.017-.36c.069-.676.171-1.351.2-2.03a3.663,3.663,0,0,0-.087-1.525A1.486,1.486,0,0,0,105.565,94.544ZM94.164,86.2a1.269,1.269,0,0,0,1.184.082c.594-.225,1.218-.372,1.831-.549.292-.084.592-.15.878-.251a.3.3,0,0,0,.151-.233c0-.078-.1-.223-.156-.222a7.183,7.183,0,0,0-2.046.08A8.8,8.8,0,0,0,94.164,86.2ZM71.028,112.408v.16h1.765v-.16Z" transform="translate(0)"/><path d="M938.624,89.742c.134.861-.4,1.553-.744,2.352a9.67,9.67,0,0,1-2.393,2.961,2.262,2.262,0,0,1-1.026.7c-.854.154-1.322-.184-1.728-1.008-.059-.121-.131-.236-.193-.356-.411-.793-.757-.9-1.583-.537a1.264,1.264,0,0,1-.627.15,2.488,2.488,0,0,0-1.758.683,11.783,11.783,0,0,1-3.162,1.59,8.7,8.7,0,0,1-2.77.392c-.2-.005-.532.114-.578.038a2.653,2.653,0,0,1-.35-.93,3.383,3.383,0,0,0-.348-1.616,1.6,1.6,0,0,1,0-1.506,8.763,8.763,0,0,0,.715-1.179,8.584,8.584,0,0,0,.258-.857.575.575,0,0,1,.4-.273c.535-.056.889.319,1.11.832.48,1.113.016,2.13-.2,3.182a3.293,3.293,0,0,0,.022.755,3.071,3.071,0,0,0,.706-.109,16.934,16.934,0,0,0,2.049-.9,24.464,24.464,0,0,0,2.382-1.564,11.355,11.355,0,0,0,1.673-1.441,11.382,11.382,0,0,1,3.22-2.052.985.985,0,0,1,1.122.312,2.339,2.339,0,0,1,.34,2.941c-.015.031-.048.062-.045.092.025.261-.022.692.1.748.335.152.45-.2.608-.448a3.39,3.39,0,0,0,.638-2.37,1.223,1.223,0,0,0-.046-.357,1.341,1.341,0,0,1,.377-1.6c.4-.464.973-.233,1.467-.181.135.015.308.312.341.5A6.691,6.691,0,0,1,938.624,89.742Z" transform="translate(-769.608 -18.29)"/><path d="M897.458,368.111a6.6,6.6,0,0,1-.732-.335,2.414,2.414,0,0,1-.375-.356,2.09,2.09,0,0,1-.353-2.593,2.358,2.358,0,0,1,1.217-.7,3.045,3.045,0,0,1,2.878.939c.04.032.079.065.122.094a.905.905,0,0,0,.172.032c.087-.254.188-.522.274-.8.21-.673.4-1.354.626-2.02a8.985,8.985,0,0,1,.679-1.626.919.919,0,0,1,.776-.333c.185.03.361.4.456.645.357.935-.2,1.7-.5,2.519a20.5,20.5,0,0,0-.591,2.237c-.161.7-.317,1.413-.41,2.128a3.864,3.864,0,0,1-.427,1.5c-.211.369-.538.586-.839.489a1.007,1.007,0,0,1-.465-.785,3.387,3.387,0,0,0-.462-1.806,1.67,1.67,0,0,0-1.353-.879.6.6,0,0,0-.7.689C897.463,367.414,897.458,367.671,897.458,368.111Z" transform="translate(-746.775 -262.288)"/><path d="M842.09,381.861q.36-1.39.72-2.782c.084-.327.2-.649.249-.981.11-.7.174-1.413.291-2.114.045-.266.161-.723.282-.735a2.141,2.141,0,0,1,1.1.195c.357.174.31.575.236.925-.128.609-.254,1.218-.391,1.826-.059.262-.137.519-.215.776-.264.871-.537,1.739-.8,2.611a3.366,3.366,0,0,0-.078.5c-.081.606-.155,1.213-.246,1.817-.013.083-.125.227-.152.218-.123-.038-.3-.1-.333-.191-.2-.568-.365-1.147-.532-1.726a1.142,1.142,0,0,1,0-.31Z" transform="translate(-698.75 -275.572)"/><path d="M882.439,294.888c0-.173-.008-.345,0-.517.034-.64.549-.94,1.066-.543a12.111,12.111,0,0,1,1.457,1.455c.251.273.425.613.674.888a1.768,1.768,0,0,1,.5,1.343c-.017.3-.111.359-.388.236a12.354,12.354,0,0,1-3.045-1.789c-.248-.21-.273-.682-.4-1.034Z" transform="translate(-734.786 -202.469)"/><path d="M1027.424,344.437c.425.1.853.186,1.273.3a.324.324,0,0,1,.194.24.415.415,0,0,1-.171.319,2.182,2.182,0,0,0-1.382,1.39c-.11.313-.854.2-.991-.2a2.751,2.751,0,0,1-.177-1.429C1026.3,344.494,1026.874,344.43,1027.424,344.437Z" transform="translate(-863.646 -247.973)"/></g></g></svg>