<svg xmlns="http://www.w3.org/2000/svg" xmlns:xlink="http://www.w3.org/1999/xlink" width="333.711" height="136.412" viewBox="0 0 333.711 136.412"><defs><style>.a,.c{fill:#18997d;}.b{fill:url(#a);}.c{stroke:#18997d;stroke-miterlimit:10;}.d{fill:#4e4e4e;}</style><linearGradient id="a" x1="0.138" y1="0.344" x2="1.006" y2="0.664" gradientUnits="objectBoundingBox"><stop offset="0" stop-color="#8ac640"/><stop offset="0.414" stop-color="#6fbf4e"/><stop offset="1" stop-color="#18997d"/></linearGradient></defs><g transform="translate(-11.87 -13.77)"><g transform="translate(11.87 13.77)"><g transform="translate(0 0.081)"><path class="a" d="M11.875,35.6q0-21.66,29.758-21.662,29.831,0,29.833,21.662v13.88H50.719V35.6q0-6.94-9.016-6.99h-.147q-8.94,0-8.94,6.99V44.96q0,6.89,19.422,16.874Q71.463,71.77,71.461,85.65V98.69q0,21.717-29.758,21.714-29.831-.05-29.833-21.714V84.81H32.612V98.69q0,6.99,9.087,6.995,9.018,0,9.016-6.995V86.913q0-7.467-19.422-17.453Q11.868,59.523,11.87,45.278V35.6Z" transform="translate(-11.87 -13.94)"/></g><path class="a" d="M521.265,13.77V69.546c0,4.494-3.008,8.56-7.872,11.507a32.373,32.373,0,0,1-9.509,3.725v35.656H484.9V84.778c-10.155-2.325-17.382-8.266-17.382-15.232V13.77h19.351V69.446c0,2.515,3.364,4.555,7.521,4.555s7.526-2.04,7.526-4.555V13.77Z" transform="translate(-251.302 -13.77)"/><path class="a" d="M631,13.77c-14.454,0-26.17,6.529-26.17,14.587v92.077h18.839V84.764a45.617,45.617,0,0,0,7.331.584c7.227,0,13.766-1.632,18.5-4.271s7.664-6.287,7.664-10.316v-42.4C657.166,20.3,645.449,13.77,631,13.77Zm7.327,45.55c0,.024-.01.043-.01.066s.01.043.01.066V71.325c0,2.254-3.284,4.081-7.327,4.081a10.832,10.832,0,0,1-5.182-1.2,3.539,3.539,0,0,1-2.15-2.885V28.034c0-2.254,3.284-4.081,7.331-4.081a10.826,10.826,0,0,1,5.177,1.2,3.539,3.539,0,0,1,2.15,2.885Z" transform="translate(-323.455 -13.77)"/><path class="a" d="M221.69,13.78V28.263h-22.08v92.177H180.63V28.263H158.55V13.78Z" transform="translate(-88.947 -13.775)"/><path class="b" d="M367.218,34.536c-.712-11.5-13.927-20.666-30.132-20.666h0c-16.205,0-29.421,9.168-30.132,20.666h-.033v15.1L298.53,46.1q.021,7.993.043,15.987l8.352,3.459V98.426c0,11.949,13.505,21.638,30.166,21.638h0c16.661,0,30.166-9.685,30.166-21.638V84.361H345.537V99.114c0,3.345-3.782,6.06-8.447,6.06h0c-4.665,0-8.447-2.714-8.447-6.06V81.647c0-.033,0-.066,0-.095s0-.047,0-.071,0-.047,0-.071,0-.062,0-.095V75.335a41.341,41.341,0,0,0,8.447.868h0c13.818,0,25.458-6.667,29.032-15.759h.033c0-.028,0-.057,0-.09a15.988,15.988,0,0,0,1.1-5.789V34.54h-.043Zm-30.132,26.92h0a11.255,11.255,0,0,1-3.483-.546c-.6-.256-1.21-.512-1.813-.764l-3.151-1.476V37.781c0-.033,0-.066,0-.095s0-.062,0-.095V35.039c0-3.345,3.782-6.06,8.447-6.06h0c4.665,0,8.447,2.714,8.447,6.06v2.553c0,.033,0,.062,0,.095s0,.062,0,.095V55.4C345.532,58.746,341.75,61.455,337.085,61.455Z" transform="translate(-162.502 -13.823)"/></g><g transform="translate(119.065 127.428)"><path class="c" d="M579.671,271.078V257.441H575.03V254.47h12.409v2.971H582.8v13.638Z" transform="translate(-414.991 -253.91)"/><path class="c" d="M608.2,275.275h-.185a5.128,5.128,0,0,1-1.286,1.115,3.655,3.655,0,0,1-1.936.465,4.7,4.7,0,0,1-1.661-.289,4.3,4.3,0,0,1-1.357-.8,3.648,3.648,0,0,1-.906-1.229,3.759,3.759,0,0,1-.323-1.575,3.5,3.5,0,0,1,1.319-2.809,4.4,4.4,0,0,1,1.471-.778,6.174,6.174,0,0,1,1.846-.266,7.838,7.838,0,0,1,1.832.176,8.556,8.556,0,0,1,1.182.361V269.3a1.855,1.855,0,0,0-.721-1.495,2.716,2.716,0,0,0-1.784-.593,3.33,3.33,0,0,0-2.667,1.324l-2.2-1.509a5.976,5.976,0,0,1,4.94-2.273,5.877,5.877,0,0,1,4.038,1.243,4.663,4.663,0,0,1,1.39,3.678v6.819H608.2v-1.215Zm0-3.407a6.123,6.123,0,0,0-1.1-.4,4.867,4.867,0,0,0-1.239-.152,2.613,2.613,0,0,0-1.68.475,1.454,1.454,0,0,0-.593,1.172,1.317,1.317,0,0,0,.569,1.115,2.147,2.147,0,0,0,1.31.418,2.78,2.78,0,0,0,1.984-.8,2.5,2.5,0,0,0,.555-.835A2.675,2.675,0,0,0,608.2,271.868Z" transform="translate(-428.401 -259.312)"/><path class="c" d="M628.56,271.078V254.47H631.6v16.608Z" transform="translate(-443.12 -253.91)"/><path class="c" d="M640.92,265.1h2.852v1.575h.185a2.787,2.787,0,0,1,.555-.764,4.081,4.081,0,0,1,.778-.607,4.242,4.242,0,0,1,.93-.418,3.279,3.279,0,0,1,.987-.161,3.664,3.664,0,0,1,1.034.128,2.605,2.605,0,0,1,.731.337l-.812,2.714a2.664,2.664,0,0,0-.612-.218,3.675,3.675,0,0,0-.826-.081,2.534,2.534,0,0,0-1.134.247,2.452,2.452,0,0,0-.868.688,3.119,3.119,0,0,0-.555,1.039,4.05,4.05,0,0,0-.2,1.3v5.595H640.93V265.1Z" transform="translate(-449.615 -259.301)"/><path class="c" d="M664.5,264.74a6.376,6.376,0,0,1,2.425.451,5.826,5.826,0,0,1,1.9,1.253,5.7,5.7,0,0,1,1.253,1.912,6.352,6.352,0,0,1,.451,2.434,6.443,6.443,0,0,1-.451,2.434,5.624,5.624,0,0,1-3.156,3.165,6.287,6.287,0,0,1-2.425.451,6.376,6.376,0,0,1-2.425-.451,5.624,5.624,0,0,1-3.156-3.165,6.37,6.37,0,0,1-.451-2.434,6.462,6.462,0,0,1,.451-2.434,5.626,5.626,0,0,1,1.253-1.912,5.826,5.826,0,0,1,1.9-1.253A6.376,6.376,0,0,1,664.5,264.74Zm0,9.3a2.909,2.909,0,0,0,2.748-1.874,3.98,3.98,0,0,0,0-2.733,3.053,3.053,0,0,0-.66-1.02,2.841,2.841,0,0,0-.963-.636,2.983,2.983,0,0,0-1.125-.218,2.89,2.89,0,0,0-2.083.854,2.983,2.983,0,0,0-.66,1.02,3.98,3.98,0,0,0,0,2.733,3.054,3.054,0,0,0,.66,1.02,2.806,2.806,0,0,0,.949.636A2.926,2.926,0,0,0,664.5,274.041Z" transform="translate(-458.837 -259.307)"/><path class="c" d="M688.04,265.1h2.852v1.367h.185a3.47,3.47,0,0,1,1.3-1.229,4.276,4.276,0,0,1,2.178-.512,4.943,4.943,0,0,1,2.074.451,5.659,5.659,0,0,1,1.742,1.253,5.944,5.944,0,0,1,1.2,1.912,6.934,6.934,0,0,1,0,4.869,5.944,5.944,0,0,1-1.2,1.912,5.605,5.605,0,0,1-1.742,1.253,4.887,4.887,0,0,1-2.074.451,4.252,4.252,0,0,1-2.178-.512,3.469,3.469,0,0,1-1.3-1.229h-.185l.185,1.623v4.755H688.04Zm5.894,8.931a2.872,2.872,0,0,0,1.148-.232,3.081,3.081,0,0,0,.963-.65,3.16,3.16,0,0,0,.674-1.02,3.647,3.647,0,0,0,0-2.686,3.16,3.16,0,0,0-.674-1.02,3.026,3.026,0,0,0-.963-.65,2.872,2.872,0,0,0-1.148-.232,3.032,3.032,0,0,0-1.148.218,2.912,2.912,0,0,0-.963.636,3.161,3.161,0,0,0-.674,1.02,3.773,3.773,0,0,0,0,2.733,3.162,3.162,0,0,0,.674,1.02,2.772,2.772,0,0,0,.963.636A2.868,2.868,0,0,0,693.934,274.035Z" transform="translate(-474.375 -259.301)"/><g transform="translate(0)"><path class="d" d="M240.238,271.03H237.77L244.3,253.7h2.515l6.534,17.33h-2.468l-1.67-4.693h-7.284Zm5.272-14.592-2.833,7.815h5.761l-2.833-7.815Z" transform="translate(-237.77 -253.505)"/><path class="d" d="M293.721,273.359a3.211,3.211,0,0,1-1.357,2.615,5.337,5.337,0,0,1-3.412,1.063,5.439,5.439,0,0,1-3.146-.93,5.148,5.148,0,0,1-1.936-2.458l1.984-.849a3.634,3.634,0,0,0,1.272,1.656,3.11,3.11,0,0,0,1.827.593,3.2,3.2,0,0,0,1.779-.46,1.307,1.307,0,0,0,.712-1.087q0-1.139-1.742-1.67l-2.031-.508q-3.459-.868-3.459-3.341a3.08,3.08,0,0,1,1.319-2.6,6.037,6.037,0,0,1,6.216-.233,4.089,4.089,0,0,1,1.779,2.007l-1.984.821a2.5,2.5,0,0,0-1.1-1.172,3.48,3.48,0,0,0-1.708-.422,2.877,2.877,0,0,0-1.561.437,1.25,1.25,0,0,0-.688,1.063q0,1.018,1.912,1.452l1.789.46Q293.716,270.678,293.721,273.359Z" transform="translate(-261.994 -259.128)"/><path class="d" d="M312.391,273.268A3.222,3.222,0,0,1,309,269.88v-6.629H306.92V261.22H309v-3.63h2.226v3.63h2.9v2.031h-2.9v5.9a2.149,2.149,0,0,0,.46,1.609,1.51,1.51,0,0,0,1.039.422,2.15,2.15,0,0,0,.522-.062,3.031,3.031,0,0,0,.47-.157l.7,1.984A5.985,5.985,0,0,1,312.391,273.268Z" transform="translate(-274.107 -255.55)"/><path class="d" d="M329.947,264.41a5.526,5.526,0,0,1,3.9,1.319,4.669,4.669,0,0,1,1.428,3.616v7.308h-2.131v-1.647h-.095a4.241,4.241,0,0,1-3.678,2.031,4.787,4.787,0,0,1-3.279-1.163,3.712,3.712,0,0,1-1.319-2.9,3.533,3.533,0,0,1,1.39-2.928,5.865,5.865,0,0,1,3.715-1.087,6.591,6.591,0,0,1,3.27.726v-.508a2.543,2.543,0,0,0-.921-1.974,3.155,3.155,0,0,0-2.154-.811,3.411,3.411,0,0,0-2.952,1.575l-1.96-1.234A5.459,5.459,0,0,1,329.947,264.41Zm-2.88,8.617a1.781,1.781,0,0,0,.74,1.452,2.706,2.706,0,0,0,1.732.579,3.557,3.557,0,0,0,2.505-1.039,3.253,3.253,0,0,0,1.1-2.444,4.558,4.558,0,0,0-2.9-.821,3.778,3.778,0,0,0-2.263.655A1.935,1.935,0,0,0,327.067,273.027Z" transform="translate(-283.486 -259.133)"/><path class="d" d="M352.31,261.215h2.131v1.936h.095q.989-2.278,4.09-2.273l.46.047v2.325l-.992-.095a3.554,3.554,0,0,0-2.553.954,3.213,3.213,0,0,0-1.006,2.434v6.534H352.31ZM366.2,273.268a3.222,3.222,0,0,1-3.388-3.388v-6.629h-2.083V261.22h2.083v-3.63h2.226v3.63h2.9v2.031h-2.9v5.9a2.149,2.149,0,0,0,.46,1.609,1.51,1.51,0,0,0,1.039.422,2.15,2.15,0,0,0,.522-.062,3.031,3.031,0,0,0,.47-.157l.7,1.984A5.965,5.965,0,0,1,366.2,273.268Z" transform="translate(-297.958 -255.55)"/><path class="d" d="M400.151,277.083h-2.131v-1.647h-.095a3.971,3.971,0,0,1-1.561,1.452,4.458,4.458,0,0,1-2.192.579,4.374,4.374,0,0,1-3.35-1.248,4.969,4.969,0,0,1-1.172-3.545V265.22h2.226v7.308q.071,2.9,2.928,2.9a2.787,2.787,0,0,0,2.226-1.077,3.891,3.891,0,0,0,.9-2.577V265.22h2.226v11.863Z" transform="translate(-317.579 -259.559)"/><path class="d" d="M423.654,277.047a5.108,5.108,0,0,1-2.382-.555,4.155,4.155,0,0,1-1.656-1.476h-.095l.095,1.647v5.229H417.39V264.8h2.131v1.647h.095a4.188,4.188,0,0,1,1.656-1.476,5.259,5.259,0,0,1,6.349,1.286,6.835,6.835,0,0,1,0,8.954A5.1,5.1,0,0,1,423.654,277.047Zm-.361-2.031a3.474,3.474,0,0,0,2.686-1.21,4.373,4.373,0,0,0,1.087-3.075,4.421,4.421,0,0,0-1.087-3.075,3.612,3.612,0,0,0-5.4,0,4.473,4.473,0,0,0-1.063,3.075,4.533,4.533,0,0,0,1.063,3.1A3.52,3.52,0,0,0,423.293,275.016Z" transform="translate(-332.156 -259.139)"/><path class="d" d="M461.775,253.29a4.2,4.2,0,0,1,1.983.413l-.607,1.96a2.867,2.867,0,0,0-1.3-.289,1.732,1.732,0,0,0-1.343.569,2.157,2.157,0,0,0-.522,1.514v1.5h3.1v2.031h-3.1v9.827h-2.226v-9.827H455.53v-2.031h2.226v-1.718a3.8,3.8,0,0,1,1.125-2.857A4,4,0,0,1,461.775,253.29Z" transform="translate(-352.197 -253.29)"/><path class="d" d="M478.266,276.715H476.04V264.857h2.131v1.936h.095a3.2,3.2,0,0,1,1.39-1.609,3.879,3.879,0,0,1,2.069-.664,4.158,4.158,0,0,1,1.647.289l-.679,2.154a3.666,3.666,0,0,0-1.3-.171,2.881,2.881,0,0,0-2.192,1.015,3.4,3.4,0,0,0-.93,2.373Z" transform="translate(-362.975 -259.191)"/><path class="d" d="M491.69,270.726a6.289,6.289,0,0,1,1.718-4.527,5.853,5.853,0,0,1,4.38-1.789,5.781,5.781,0,0,1,4.356,1.789,6.755,6.755,0,0,1,0,9.054,5.764,5.764,0,0,1-4.356,1.789,5.863,5.863,0,0,1-4.38-1.789A6.281,6.281,0,0,1,491.69,270.726Zm2.226,0a4.334,4.334,0,0,0,1.115,3.1,3.8,3.8,0,0,0,5.514,0,4.354,4.354,0,0,0,1.115-3.1,4.306,4.306,0,0,0-1.115-3.075,3.746,3.746,0,0,0-5.514,0A4.306,4.306,0,0,0,493.916,270.726Z" transform="translate(-371.198 -259.133)"/><path class="d" d="M523.5,276.663H521.27V264.8H523.4v1.647h.095A3.97,3.97,0,0,1,525.057,265a4.367,4.367,0,0,1,4.389.024,3.581,3.581,0,0,1,1.452,1.67,4.621,4.621,0,0,1,4.09-2.273,4,4,0,0,1,3.17,1.258,5.242,5.242,0,0,1,1.115,3.583v7.407h-2.226V269.6a3.812,3.812,0,0,0-.607-2.411,2.486,2.486,0,0,0-2.031-.74,2.668,2.668,0,0,0-2.154,1.091,4,4,0,0,0-.873,2.567v6.558h-2.226V269.6a3.812,3.812,0,0,0-.607-2.411,2.486,2.486,0,0,0-2.031-.74,2.668,2.668,0,0,0-2.154,1.091,4,4,0,0,0-.873,2.567v6.553Z" transform="translate(-386.742 -259.139)"/></g></g></g></svg>