<svg xmlns="http://www.w3.org/2000/svg" width="18.757" height="18.757" viewBox="0 0 18.757 18.757"><defs><style>.a{fill:#0fa76f;}</style></defs><g transform="translate(0)"><g transform="translate(6.082 0)"><path class="a" d="M208,1012.477a6.894,6.894,0,0,0-6.38,2.842.913.913,0,0,0,.1,1.176h0a.911.911,0,0,0,1.383-.107,5.068,5.068,0,1,1,7.07,7.068.911.911,0,0,0-.107,1.383h0a.913.913,0,0,0,1.177.1A6.9,6.9,0,0,0,208,1012.477Z" transform="translate(-201.451 -1012.435)"/></g><g transform="translate(0 6.082)"><path class="a" d="M177.664,1054.981a6.893,6.893,0,0,0,6.379-2.842.913.913,0,0,0-.1-1.176h0a.911.911,0,0,0-1.383.107,5.068,5.068,0,1,1-7.07-7.068.911.911,0,0,0,.107-1.383h0a.913.913,0,0,0-1.177-.1,6.9,6.9,0,0,0,3.245,12.463Z" transform="translate(-171.537 -1042.349)"/></g><rect class="a" width="9.898" height="2.282" rx="1.141" transform="translate(5.105 11.847) rotate(-45)"/></g></svg>