<svg xmlns="http://www.w3.org/2000/svg" width="222" height="71" viewBox="0 0 222 71">
  <g id="Frame_50125" data-name="Frame 50125" transform="translate(-0.111)">
    <rect id="Rectangle_16947" data-name="Rectangle 16947" width="222" height="71" rx="6" transform="translate(0.111)" fill="#013c3c"/>
    <g id="Group_42523" data-name="Group 42523" transform="translate(27.179 15.275)">
      <path id="Path_100325" data-name="Path 100325" d="M15.2,54.123a3.1,3.1,0,0,1-1.142-.2l18.4-18.422,6.09,6.1L17.4,53.5a4.562,4.562,0,0,1-2.2.626ZM12.541,52.6A4.347,4.347,0,0,1,12,50.385V16.763a4.869,4.869,0,0,1,.228-1.5L31.037,34.088l-18.5,18.52.007,0Zm27.82-12.022-6.49-6.491,7.157-7.161L47.385,30.5a3.6,3.6,0,0,1,2.12,3.061,3.6,3.6,0,0,1-2.122,3.064Zm-7.906-7.918L13.4,13.6a3.041,3.041,0,0,1,1.807-.6,4.65,4.65,0,0,1,2.181.633L39.21,25.907l-6.752,6.756Z" transform="translate(-12 -13)" fill="#fff"/>
      <path id="Path_100326" data-name="Path 100326" d="M68,34.113A6.578,6.578,0,0,0,65.5,30.871a7.454,7.454,0,0,0-4.488-1.345,7.9,7.9,0,0,0-7.889,7.988,7.737,7.737,0,0,0,2.195,5.655A7.641,7.641,0,0,0,61,45.4a6.843,6.843,0,0,0,7.216-7.078v-.85H60.028v2.214h5.556c-.376,2.036-2,3.48-4.607,3.48a4.98,4.98,0,0,1-3.816-1.641,6.214,6.214,0,0,1,.02-8.126A5.022,5.022,0,0,1,61,31.78,4.971,4.971,0,0,1,65.841,35.1Zm7.484.336a5.509,5.509,0,0,0-3.954,1.582,5.466,5.466,0,0,0-.02,7.79A5.509,5.509,0,0,0,75.46,45.4a5.4,5.4,0,0,0,3.934-1.582,5.28,5.28,0,0,0,1.621-3.934,5.15,5.15,0,0,0-1.621-3.875A5.432,5.432,0,0,0,75.48,34.449Zm-2.313,3.1a2.96,2.96,0,0,1,2.294-.969,2.89,2.89,0,0,1,2.274.969,3.4,3.4,0,0,1,.89,2.372,3.477,3.477,0,0,1-.87,2.372,2.89,2.89,0,0,1-2.274.969,2.976,2.976,0,0,1-2.293-.989,3.485,3.485,0,0,1-.89-2.392A3.343,3.343,0,0,1,73.167,37.554Zm15.172-3.1a5.509,5.509,0,0,0-3.954,1.582,5.466,5.466,0,0,0-.02,7.79A5.509,5.509,0,0,0,88.319,45.4a5.4,5.4,0,0,0,3.934-1.582,5.28,5.28,0,0,0,1.621-3.934,5.15,5.15,0,0,0-1.621-3.875A5.433,5.433,0,0,0,88.339,34.449Zm-2.313,3.1a2.96,2.96,0,0,1,2.293-.969,2.89,2.89,0,0,1,2.274.969,3.4,3.4,0,0,1,.89,2.372,3.477,3.477,0,0,1-.87,2.372,2.89,2.89,0,0,1-2.274.969,2.976,2.976,0,0,1-2.293-.989,3.484,3.484,0,0,1-.89-2.392A3.343,3.343,0,0,1,86.026,37.554Zm14.717,7.75a4.741,4.741,0,0,0,1.859-.435,3.353,3.353,0,0,0,1.6-1.344v1.661a2.984,2.984,0,0,1-3.2,3.223,3.543,3.543,0,0,1-3.322-2.234L95.721,47.3a5.332,5.332,0,0,0,5.318,3.2,5.518,5.518,0,0,0,3.994-1.463,5.242,5.242,0,0,0,1.522-3.954V34.667h-2.293v1.6a3.474,3.474,0,0,0-1.582-1.325,4.643,4.643,0,0,0-1.859-.455,4.8,4.8,0,0,0-3.8,1.661A5.605,5.605,0,0,0,95.6,39.906a5.452,5.452,0,0,0,1.443,3.8A4.792,4.792,0,0,0,100.743,45.3Zm3.5-5.437a3.4,3.4,0,0,1-.89,2.373,2.9,2.9,0,0,1-2.254.949,2.969,2.969,0,0,1-2.274-.949,3.477,3.477,0,0,1-.87-2.373,3.309,3.309,0,0,1,.87-2.333,3.2,3.2,0,0,1,4.547,0A3.343,3.343,0,0,1,104.243,39.867Zm5.472,5.358h2.352V29.131h-2.352Zm15.21-4.587a6.387,6.387,0,0,0,.04-.732,5.656,5.656,0,0,0-1.364-3.954,4.83,4.83,0,0,0-3.776-1.5,5,5,0,0,0-3.8,1.6,5.438,5.438,0,0,0-1.523,3.875,5.367,5.367,0,0,0,1.583,3.934,5.426,5.426,0,0,0,3.954,1.562,5.008,5.008,0,0,0,4.508-2.55l-1.7-1.127A2.977,2.977,0,0,1,120,43.386a3.223,3.223,0,0,1-2.135-.771,2.6,2.6,0,0,1-.949-1.977Zm-5.1-4.172a2.539,2.539,0,0,1,2.748,2.392h-5.536A2.731,2.731,0,0,1,119.824,36.466Zm24.06-1.918a4.7,4.7,0,0,0-1.364-3.4,5.394,5.394,0,0,0-4.054-1.4h-5.477V45.225h2.432V39.491h2.748a5.932,5.932,0,0,0,4.191-1.4A4.682,4.682,0,0,0,143.884,34.548ZM138.248,32a3.2,3.2,0,0,1,2.432.771,2.554,2.554,0,0,1,.731,1.839c0,1.423-1.008,2.649-3.163,2.649h-2.827V32Zm7.842,13.227h2.352V29.131H146.09Zm11.532-7.157c0,.593-.336.89-.988.89h-1.305c-1.858,0-4.388.771-4.388,3.223V42.3a2.808,2.808,0,0,0,1.008,2.234,3.8,3.8,0,0,0,2.551.87,3.341,3.341,0,0,0,3.1-1.621v1.443h2.312V38.5a4.644,4.644,0,0,0-.356-1.9c-.652-1.443-1.976-2.155-3.954-2.155a4.517,4.517,0,0,0-4.488,2.689l1.8,1.028a2.72,2.72,0,0,1,2.63-1.681C156.872,36.486,157.622,37.2,157.622,38.068Zm-.019,2.887a2.424,2.424,0,0,1-2.63,2.57,1.486,1.486,0,0,1-1.681-1.443,1.205,1.205,0,0,1,.633-1.068,2.738,2.738,0,0,1,1.4-.4H157.6Zm6.418-6.287h-2.688l4.706,9.372-2.907,6.386h2.511L172.9,34.667h-2.551l-3.044,6.92Z" transform="translate(-4.804 -10.178)" fill="#fff"/>
      <path id="Path_100327" data-name="Path 100327" d="M61.765,16.779A4.1,4.1,0,0,0,60.294,14.8a4.193,4.193,0,0,0-2.669-.83,4.474,4.474,0,0,0-3.333,1.376,4.69,4.69,0,0,0-1.341,3.393A4.675,4.675,0,0,0,54.233,22.1a4.44,4.44,0,0,0,3.357,1.341,4.2,4.2,0,0,0,3.155-1.21,4.131,4.131,0,0,0,1.186-3.025v-.356H57.008v.9h3.879a2.631,2.631,0,0,1-1.032,2.028,3.5,3.5,0,0,1-2.242.747,3.429,3.429,0,0,1-2.657-1.1,3.987,3.987,0,0,1-1-2.752,3.711,3.711,0,0,1,1.056-2.717A3.529,3.529,0,0,1,57.6,14.892a3.259,3.259,0,0,1,2.135.664,3.593,3.593,0,0,1,1.151,1.625Zm7.822-2.717H63.775V23.35h5.86v-.9H64.748V19.08h4.425v-.9H64.748V14.963h4.84Zm4.129,9.288H74.7V14.975h3.1v-.913H70.609v.913h3.108ZM83.2,14.062h-.973V23.35H83.2ZM87.85,23.35h.985V14.975h3.1v-.913H84.742v.913H87.85Zm17.2-4.674a4.58,4.58,0,0,0-1.34-3.345,4.43,4.43,0,0,0-3.31-1.364,4.482,4.482,0,0,0-3.345,1.376,4.69,4.69,0,0,0-1.341,3.393,4.617,4.617,0,0,0,1.329,3.357,4.755,4.755,0,0,0,6.667-.024A4.69,4.69,0,0,0,105.046,18.676Zm-1.008.059a3.823,3.823,0,0,1-1.032,2.693,3.414,3.414,0,0,1-2.61,1.1A3.462,3.462,0,0,1,97.763,21.4a3.847,3.847,0,0,1-1.044-2.729A3.774,3.774,0,0,1,97.751,16a3.384,3.384,0,0,1,2.61-1.115,3.462,3.462,0,0,1,2.634,1.127A3.847,3.847,0,0,1,104.038,18.736Zm10.5-4.674h-.961V21.82l-5.48-7.758h-1.127V23.35h.961V15.438L113.5,23.35h1.045Z" transform="translate(-4.835 -12.831)" fill="#fff"/>
    </g>
  </g>
</svg>
