<svg id="Frame_50124" data-name="Frame 50124" xmlns="http://www.w3.org/2000/svg" width="224" height="71" viewBox="0 0 224 71">
  <rect id="Rectangle_16946" data-name="Rectangle 16946" width="224" height="71" rx="6" fill="#013c3c"/>
  <g id="Group_42522" data-name="Group 42522" transform="translate(28.199 15.275)">
    <path id="Path_100322" data-name="Path 100322" d="M33.726,54.124A20.563,20.563,0,1,1,54.453,33.562,20.644,20.644,0,0,1,33.726,54.124ZM24.87,39.293a3.449,3.449,0,0,0-.794.095l-.311.084-1.231,2.091a1.684,1.684,0,0,0,.513,2.275,1.715,1.715,0,0,0,2.317-.392l.128-.191,1.637-2.819a2.88,2.88,0,0,0-2.28-1.143Zm11.366-12.6a3.989,3.989,0,0,0-1.217,2.262,4.9,4.9,0,0,0,.622,3.473l6.3,10.828A1.707,1.707,0,0,0,45,43.007a1.679,1.679,0,0,0-.009-1.234l-.1-.206-1.658-2.86H45.7a1.713,1.713,0,0,0,1.16-.465,1.683,1.683,0,0,0,.142-2.3,1.709,1.709,0,0,0-1.094-.6l-.207-.012H41.263l-4.547-7.814-.475-.822ZM21.829,35.31a1.7,1.7,0,0,0-1.2.5A1.673,1.673,0,0,0,20.14,37a1.7,1.7,0,0,0,1.49,1.68l.207.01h15.5a2.368,2.368,0,0,0-.035-2.194,2.129,2.129,0,0,0-.673-.792,2.153,2.153,0,0,0-.97-.382l-.251-.012H30.124l7.312-12.561a1.682,1.682,0,0,0-.312-2.081,1.716,1.716,0,0,0-2.517.2l-.129.189-.752,1.3-.744-1.3a1.707,1.707,0,0,0-3.06.251,1.684,1.684,0,0,0,.009,1.235l.1.206,1.72,3L26.188,35.31Z" transform="translate(-13 -13)" fill="#fff"/>
    <path id="Path_100323" data-name="Path 100323" d="M56.68,45.688h2.865L61.182,41.5h8.731l1.614,4.184h2.91l-7.208-17.8h-3.3Zm8.867-15.12,3.388,8.458H62.182Zm23.423,9a6.415,6.415,0,0,0-1.66-4.343,5.386,5.386,0,0,0-4.3-1.91,5.581,5.581,0,0,0-2.205.5,3.906,3.906,0,0,0-1.864,1.614V33.547H76.306V51.668h2.706V43.915a3.929,3.929,0,0,0,1.819,1.478,5.8,5.8,0,0,0,2.115.478,5.564,5.564,0,0,0,4.32-1.864A6.373,6.373,0,0,0,88.97,39.572Zm-9-2.706A3.4,3.4,0,0,1,82.6,35.752a3.324,3.324,0,0,1,2.615,1.114,4.15,4.15,0,0,1,0,5.457A3.381,3.381,0,0,1,82.6,43.415a3.464,3.464,0,0,1-2.637-1.091,4.221,4.221,0,0,1,0-5.457Zm24.48,2.706a6.415,6.415,0,0,0-1.66-4.343,5.386,5.386,0,0,0-4.3-1.91,5.581,5.581,0,0,0-2.205.5,3.906,3.906,0,0,0-1.864,1.614V33.547H91.782V51.668h2.706V43.915a3.929,3.929,0,0,0,1.819,1.478,5.8,5.8,0,0,0,2.115.478,5.564,5.564,0,0,0,4.32-1.864A6.373,6.373,0,0,0,104.447,39.572Zm-9-2.706a3.4,3.4,0,0,1,2.637-1.114,3.324,3.324,0,0,1,2.615,1.114,4.15,4.15,0,0,1,0,5.457,3.381,3.381,0,0,1-2.615,1.091,3.464,3.464,0,0,1-2.637-1.091,4.221,4.221,0,0,1,0-5.457Zm23.426,9.027a6.2,6.2,0,0,0,4.412-1.523,4.8,4.8,0,0,0,1.637-3.615,4.265,4.265,0,0,0-1.274-3.183,11.122,11.122,0,0,0-4.569-2.251c-2.183-.659-3.3-1.387-3.3-2.729,0-1.432,1.25-2.433,2.979-2.433a3.644,3.644,0,0,1,3.592,2.5l2.319-1.251a5.881,5.881,0,0,0-5.843-3.774,6.193,6.193,0,0,0-4.206,1.5,4.584,4.584,0,0,0-1.7,3.615A4.109,4.109,0,0,0,114.277,36a11.65,11.65,0,0,0,4.183,2.069c2.546.8,3.57,1.546,3.57,2.842,0,1.478-1.3,2.433-3.115,2.433a4.376,4.376,0,0,1-4.229-2.956l-2.365,1.228A6.567,6.567,0,0,0,118.869,45.893Zm15.456-9.913V33.547h-2.979V29.8H128.64v3.752h-2.228V35.98h2.228v5.8c0,2.637,1.546,4.047,4.206,4.047a4.251,4.251,0,0,0,1.456-.25v-2.3a3.854,3.854,0,0,1-.865.091c-1.386,0-2.091-.568-2.091-2.024V35.98Zm8.237-2.683a6.338,6.338,0,0,0-4.548,1.819,6.286,6.286,0,0,0-.022,8.958,6.335,6.335,0,0,0,4.547,1.819,6.208,6.208,0,0,0,4.525-1.819,6.074,6.074,0,0,0,1.865-4.525,5.924,5.924,0,0,0-1.865-4.456A6.245,6.245,0,0,0,142.561,33.3Zm-2.66,3.57a3.4,3.4,0,0,1,2.637-1.114,3.325,3.325,0,0,1,2.615,1.114,3.914,3.914,0,0,1,1.022,2.728,4,4,0,0,1-1,2.729,3.323,3.323,0,0,1-2.614,1.114,3.421,3.421,0,0,1-2.638-1.137,4.005,4.005,0,0,1-1.023-2.751A3.841,3.841,0,0,1,139.9,36.866ZM158.393,33.5a2.421,2.421,0,0,0-.659-.068,3.6,3.6,0,0,0-3.342,2.046V33.547h-2.638V45.688h2.706V39.527c0-2.115,1.092-3.32,3.16-3.32a3.9,3.9,0,0,1,.773.068Zm13.184,6.912a7.226,7.226,0,0,0,.046-.841,6.5,6.5,0,0,0-1.569-4.547,5.554,5.554,0,0,0-4.343-1.728,5.754,5.754,0,0,0-4.366,1.842,6.251,6.251,0,0,0-1.751,4.456,6.174,6.174,0,0,0,1.819,4.525,6.243,6.243,0,0,0,4.548,1.8,5.758,5.758,0,0,0,5.184-2.933l-1.956-1.3a3.424,3.424,0,0,1-3.273,1.887,3.706,3.706,0,0,1-2.456-.887,2.992,2.992,0,0,1-1.092-2.274Zm-5.865-4.8a2.92,2.92,0,0,1,3.159,2.751h-6.366A3.141,3.141,0,0,1,165.712,35.616Z" transform="translate(-5.358 -10.439)" fill="#fff"/>
    <path id="Path_100324" data-name="Path 100324" d="M57.874,22.515h2.764a4.949,4.949,0,0,0,3.488-1.3,4.4,4.4,0,0,0,1.412-3.357,4.395,4.395,0,0,0-1.376-3.3,4.834,4.834,0,0,0-3.523-1.329H57.874Zm.973-8.375H60.59A3.9,3.9,0,0,1,63.449,15.2a3.575,3.575,0,0,1,1.08,2.681,3.567,3.567,0,0,1-1.091,2.681A3.89,3.89,0,0,1,60.6,21.6H58.847Zm17.3,3.7A4.58,4.58,0,0,0,74.809,14.5a4.429,4.429,0,0,0-3.31-1.364,4.481,4.481,0,0,0-3.345,1.376A4.69,4.69,0,0,0,66.814,17.9a4.617,4.617,0,0,0,1.329,3.357,4.755,4.755,0,0,0,6.667-.024A4.69,4.69,0,0,0,76.149,17.841Zm-1.008.059a3.823,3.823,0,0,1-1.032,2.693,3.414,3.414,0,0,1-2.61,1.1,3.461,3.461,0,0,1-2.633-1.127,3.846,3.846,0,0,1-1.044-2.728,3.774,3.774,0,0,1,1.032-2.681,3.383,3.383,0,0,1,2.61-1.115A3.462,3.462,0,0,1,74.1,15.172,3.847,3.847,0,0,1,75.141,17.9Zm1.975-4.674,2.906,9.288h1.068l2.491-7.972,2.479,7.972h1.091l2.918-9.288h-.985L86.642,21.15h-.024l-2.467-7.924h-1.1L80.592,21.1h-.024l-2.432-7.877Zm22.141,0H98.3v7.758l-5.481-7.758H91.689v9.288h.961V14.6l5.564,7.912h1.044Zm3.564,0h-.973v9.288h5.374V21.6h-4.4Zm14.025,4.615a4.581,4.581,0,0,0-1.341-3.345,4.433,4.433,0,0,0-3.31-1.364,4.481,4.481,0,0,0-3.345,1.376A4.686,4.686,0,0,0,107.51,17.9a4.613,4.613,0,0,0,1.329,3.357,4.755,4.755,0,0,0,6.667-.024A4.691,4.691,0,0,0,116.847,17.841Zm-1.009.059a3.82,3.82,0,0,1-1.032,2.693,3.416,3.416,0,0,1-2.61,1.1,3.463,3.463,0,0,1-2.634-1.127,3.85,3.85,0,0,1-1.043-2.728,3.777,3.777,0,0,1,1.032-2.681,3.385,3.385,0,0,1,2.611-1.115,3.462,3.462,0,0,1,2.633,1.127A3.844,3.844,0,0,1,115.837,17.9Zm3.7,2.242H124.6l1.008,2.372h1.032l-4.009-9.288h-1.1l-4.01,9.288h1Zm.368-.89,2.158-5.018,2.16,5.018Zm8.071,3.262h2.764a4.951,4.951,0,0,0,3.488-1.3,4.4,4.4,0,0,0,1.411-3.357,4.4,4.4,0,0,0-1.376-3.3,4.836,4.836,0,0,0-3.524-1.329h-2.764Zm.973-8.375h1.744a3.9,3.9,0,0,1,2.859,1.056,3.575,3.575,0,0,1,1.08,2.681,3.566,3.566,0,0,1-1.092,2.681A3.889,3.889,0,0,1,130.7,21.6h-1.755Zm20.616,3.7a4.581,4.581,0,0,0-1.341-3.345,4.429,4.429,0,0,0-3.31-1.364,4.481,4.481,0,0,0-3.345,1.376,4.691,4.691,0,0,0-1.341,3.393,4.618,4.618,0,0,0,1.329,3.357,4.755,4.755,0,0,0,6.667-.024A4.691,4.691,0,0,0,149.561,17.841Zm-1.008.059a3.821,3.821,0,0,1-1.033,2.693,3.412,3.412,0,0,1-2.61,1.1,3.461,3.461,0,0,1-2.633-1.127,3.845,3.845,0,0,1-1.045-2.728,3.773,3.773,0,0,1,1.033-2.681,3.381,3.381,0,0,1,2.61-1.115,3.462,3.462,0,0,1,2.633,1.127A3.845,3.845,0,0,1,148.553,17.9Zm10.5-4.674H158.1v7.758l-5.48-7.758h-1.127v9.288h.961V14.6l5.563,7.912h1.043Z" transform="translate(-5.149 -12.977)" fill="#fff"/>
  </g>
</svg>
