<svg width="492" height="316" viewBox="0 0 492 316" fill="none" xmlns="http://www.w3.org/2000/svg">
<g filter="url(#filter0_d_6580_74210)">
<rect x="64" y="60" width="364" height="188" rx="8" fill="white"/>
<rect x="64.5" y="60.5" width="363" height="187" rx="7.5" stroke="#D9D9D9"/>
</g>
<path d="M64.5 68C64.5 63.8579 67.8579 60.5 72 60.5H420C424.142 60.5 427.5 63.8579 427.5 68V94.5H64.5V68Z" stroke="#D9D9D9"/>
<circle cx="84" cy="78" r="4" fill="#D9D9D9"/>
<circle cx="97" cy="78" r="4" fill="#D9D9D9"/>
<circle cx="110" cy="78" r="4" fill="#D9D9D9"/>
<g filter="url(#filter1_d_6580_74210)">
<path d="M399 263.5L394 231.5L421 247.5L406.5 251L399 263.5Z" fill="url(#paint0_linear_6580_74210)"/>
<path d="M399 263.5L394 231.5L421 247.5L406.5 251L399 263.5Z" stroke="white" stroke-width="2"/>
</g>
<rect x="170" y="129" width="184" height="32" rx="3" fill="#8BC38F"/>
<path d="M186.281 140.632H189.753V149.998H191.475V140.632H194.961V139.036H186.281V140.632Z" fill="white"/>
<path d="M202.082 146.75C202.096 146.624 202.11 146.456 202.11 146.232C202.11 145.07 201.788 144.146 201.144 143.432C200.5 142.718 199.604 142.368 198.47 142.368C197.392 142.368 196.496 142.746 195.782 143.502C195.068 144.258 194.704 145.168 194.704 146.246C194.704 147.352 195.082 148.29 195.824 149.032C196.58 149.774 197.518 150.138 198.624 150.138C199.968 150.138 201.186 149.494 201.816 148.332L200.612 147.534C200.206 148.304 199.534 148.696 198.596 148.696C198.022 148.696 197.518 148.514 197.084 148.15C196.65 147.772 196.426 147.31 196.412 146.75H202.082ZM198.47 143.796C199.534 143.796 200.36 144.44 200.416 145.49H196.496C196.65 144.468 197.448 143.796 198.47 143.796Z" fill="white"/>
<path d="M207.489 150.124C208.399 150.124 209.141 149.9 209.715 149.452C210.289 149.004 210.695 148.472 210.905 147.87L209.449 147.226C209.099 148.15 208.455 148.612 207.517 148.612C206.887 148.612 206.355 148.388 205.935 147.94C205.515 147.492 205.305 146.918 205.305 146.218C205.305 145.532 205.515 144.972 205.935 144.538C206.369 144.104 206.887 143.88 207.503 143.88C208.455 143.88 209.099 144.342 209.421 145.252L210.849 144.608C210.401 143.278 209.169 142.368 207.489 142.368C206.383 142.368 205.459 142.746 204.717 143.516C203.975 144.286 203.597 145.196 203.597 146.246C203.597 147.352 203.975 148.276 204.717 149.018C205.459 149.76 206.383 150.124 207.489 150.124Z" fill="white"/>
<path d="M219.495 149.998V145.392C219.495 143.6 218.529 142.368 216.695 142.368C215.785 142.368 215.029 142.732 214.455 143.474V138.602H212.789V149.998H214.455V145.84C214.455 144.706 215.127 143.95 216.177 143.95C217.283 143.95 217.829 144.692 217.829 145.812V149.998H219.495Z" fill="white"/>
<path d="M235.504 144.524C235.504 143.138 234.902 141.472 233.544 140.31C232.662 139.54 231.276 139.036 229.652 139.036H226.18V149.998H229.68C231.626 149.998 233.222 149.27 234.118 148.206C235.028 147.128 235.504 145.826 235.504 144.524ZM233.698 144.524C233.698 145.476 233.376 146.386 232.746 147.156C232.116 147.898 230.996 148.402 229.61 148.402H227.902V140.632H229.624C231.01 140.632 232.13 141.164 232.746 141.948C233.376 142.718 233.698 143.628 233.698 144.524Z" fill="white"/>
<path d="M244.443 146.75C244.457 146.624 244.471 146.456 244.471 146.232C244.471 145.07 244.149 144.146 243.505 143.432C242.861 142.718 241.965 142.368 240.831 142.368C239.753 142.368 238.857 142.746 238.143 143.502C237.429 144.258 237.065 145.168 237.065 146.246C237.065 147.352 237.443 148.29 238.185 149.032C238.941 149.774 239.879 150.138 240.985 150.138C242.329 150.138 243.547 149.494 244.177 148.332L242.973 147.534C242.567 148.304 241.895 148.696 240.957 148.696C240.383 148.696 239.879 148.514 239.445 148.15C239.011 147.772 238.787 147.31 238.773 146.75H244.443ZM240.831 143.796C241.895 143.796 242.721 144.44 242.777 145.49H238.857C239.011 144.468 239.809 143.796 240.831 143.796Z" fill="white"/>
<path d="M249.584 150.054C249.976 150.054 250.41 149.956 250.9 149.746C251.39 149.536 251.768 149.228 252.034 148.794V149.97C252.034 151.468 251.068 152.252 249.766 152.252C248.716 152.252 247.932 151.72 247.414 150.67L246.028 151.468C246.714 152.98 247.974 153.736 249.794 153.736C250.97 153.736 251.908 153.386 252.622 152.7C253.336 152.014 253.7 151.076 253.7 149.9V142.522H252.076V143.656C251.81 143.236 251.432 142.928 250.956 142.718C250.48 142.508 250.046 142.396 249.64 142.396C248.534 142.396 247.638 142.788 246.952 143.572C246.28 144.356 245.944 145.238 245.944 146.232C245.944 147.268 246.28 148.164 246.966 148.92C247.652 149.676 248.534 150.054 249.584 150.054ZM252.062 146.204C252.062 146.862 251.852 147.422 251.432 147.884C251.026 148.332 250.494 148.556 249.836 148.556C249.178 148.556 248.646 148.332 248.226 147.884C247.82 147.422 247.61 146.862 247.61 146.204C247.61 145.546 247.82 144.986 248.226 144.552C248.632 144.104 249.178 143.88 249.836 143.88C250.494 143.88 251.04 144.104 251.446 144.552C251.852 145 252.062 145.546 252.062 146.204Z" fill="white"/>
<path d="M260.305 142.494C260.207 142.466 260.081 142.452 259.899 142.452C258.989 142.452 258.303 142.872 257.841 143.712V142.522H256.217V149.998H257.883V146.204C257.883 144.902 258.555 144.16 259.829 144.16C260.011 144.16 260.165 144.174 260.305 144.202V142.494Z" fill="white"/>
<path d="M268.703 146.75C268.717 146.624 268.731 146.456 268.731 146.232C268.731 145.07 268.409 144.146 267.765 143.432C267.121 142.718 266.225 142.368 265.091 142.368C264.013 142.368 263.117 142.746 262.403 143.502C261.689 144.258 261.325 145.168 261.325 146.246C261.325 147.352 261.703 148.29 262.445 149.032C263.201 149.774 264.139 150.138 265.245 150.138C266.589 150.138 267.807 149.494 268.437 148.332L267.233 147.534C266.827 148.304 266.155 148.696 265.217 148.696C264.643 148.696 264.139 148.514 263.705 148.15C263.271 147.772 263.047 147.31 263.033 146.75H268.703ZM265.091 143.796C266.155 143.796 266.981 144.44 267.037 145.49H263.117C263.271 144.468 264.069 143.796 265.091 143.796Z" fill="white"/>
<path d="M277.596 146.75C277.61 146.624 277.624 146.456 277.624 146.232C277.624 145.07 277.302 144.146 276.658 143.432C276.014 142.718 275.118 142.368 273.984 142.368C272.906 142.368 272.01 142.746 271.296 143.502C270.582 144.258 270.218 145.168 270.218 146.246C270.218 147.352 270.596 148.29 271.338 149.032C272.094 149.774 273.032 150.138 274.138 150.138C275.482 150.138 276.7 149.494 277.33 148.332L276.126 147.534C275.72 148.304 275.048 148.696 274.11 148.696C273.536 148.696 273.032 148.514 272.598 148.15C272.164 147.772 271.94 147.31 271.926 146.75H277.596ZM273.984 143.796C275.048 143.796 275.874 144.44 275.93 145.49H272.01C272.164 144.468 272.962 143.796 273.984 143.796Z" fill="white"/>
<rect x="124" y="167" width="184" height="32" rx="3" fill="#8BC38F"/>
<path d="M136.281 177.632H139.753V186.998H141.475V177.632H144.961V176.036H136.281V177.632Z" fill="white"/>
<path d="M152.082 183.75C152.096 183.624 152.11 183.456 152.11 183.232C152.11 182.07 151.788 181.146 151.144 180.432C150.5 179.718 149.604 179.368 148.47 179.368C147.392 179.368 146.496 179.746 145.782 180.502C145.068 181.258 144.704 182.168 144.704 183.246C144.704 184.352 145.082 185.29 145.824 186.032C146.58 186.774 147.518 187.138 148.624 187.138C149.968 187.138 151.186 186.494 151.816 185.332L150.612 184.534C150.206 185.304 149.534 185.696 148.596 185.696C148.022 185.696 147.518 185.514 147.084 185.15C146.65 184.772 146.426 184.31 146.412 183.75H152.082ZM148.47 180.796C149.534 180.796 150.36 181.44 150.416 182.49H146.496C146.65 181.468 147.448 180.796 148.47 180.796Z" fill="white"/>
<path d="M157.489 187.124C158.399 187.124 159.141 186.9 159.715 186.452C160.289 186.004 160.695 185.472 160.905 184.87L159.449 184.226C159.099 185.15 158.455 185.612 157.517 185.612C156.887 185.612 156.355 185.388 155.935 184.94C155.515 184.492 155.305 183.918 155.305 183.218C155.305 182.532 155.515 181.972 155.935 181.538C156.369 181.104 156.887 180.88 157.503 180.88C158.455 180.88 159.099 181.342 159.421 182.252L160.849 181.608C160.401 180.278 159.169 179.368 157.489 179.368C156.383 179.368 155.459 179.746 154.717 180.516C153.975 181.286 153.597 182.196 153.597 183.246C153.597 184.352 153.975 185.276 154.717 186.018C155.459 186.76 156.383 187.124 157.489 187.124Z" fill="white"/>
<path d="M169.495 186.998V182.392C169.495 180.6 168.529 179.368 166.695 179.368C165.785 179.368 165.029 179.732 164.455 180.474V175.602H162.789V186.998H164.455V182.84C164.455 181.706 165.127 180.95 166.177 180.95C167.283 180.95 167.829 181.692 167.829 182.812V186.998H169.495Z" fill="white"/>
<path d="M185.98 179.13C185.672 178.22 185.084 177.464 184.216 176.834C183.348 176.204 182.284 175.882 181.038 175.882C179.512 175.882 178.21 176.428 177.104 177.506C175.998 178.584 175.452 179.928 175.452 181.538C175.452 183.148 175.97 184.492 177.006 185.542C178.042 186.592 179.386 187.124 181.024 187.124C182.578 187.124 183.81 186.648 184.734 185.696C185.672 184.73 186.134 183.54 186.134 182.112V181.51H180.338V183.078H184.272C184.006 184.52 182.858 185.542 181.01 185.542C179.918 185.542 179.022 185.15 178.308 184.38C177.594 183.61 177.244 182.644 177.244 181.496C177.244 180.348 177.608 179.396 178.322 178.626C179.05 177.856 179.946 177.478 181.024 177.478C182.76 177.478 183.88 178.43 184.454 179.83L185.98 179.13Z" fill="white"/>
<path d="M192.204 179.494C192.106 179.466 191.98 179.452 191.798 179.452C190.888 179.452 190.202 179.872 189.74 180.712V179.522H188.116V186.998H189.782V183.204C189.782 181.902 190.454 181.16 191.728 181.16C191.91 181.16 192.064 181.174 192.204 181.202V179.494Z" fill="white"/>
<path d="M198.025 181.93C198.025 182.35 197.787 182.56 197.325 182.56H196.401C195.085 182.56 193.293 183.106 193.293 184.842V184.926C193.293 185.57 193.531 186.102 194.007 186.508C194.483 186.914 195.085 187.124 195.813 187.124C196.821 187.124 197.549 186.746 198.011 185.976V186.998H199.649V182.238C199.649 181.72 199.565 181.272 199.397 180.894C198.935 179.872 197.997 179.368 196.597 179.368C195.071 179.368 194.007 179.998 193.419 181.272L194.693 182C195.071 181.202 195.701 180.81 196.555 180.81C197.493 180.81 198.025 181.314 198.025 181.93ZM198.011 183.974C198.011 185.094 197.283 185.794 196.149 185.794C195.435 185.794 194.959 185.388 194.959 184.772C194.959 184.45 195.113 184.198 195.407 184.016C195.715 183.834 196.051 183.736 196.401 183.736H198.011V183.974Z" fill="white"/>
<path d="M201.57 183.246C201.57 184.282 201.92 185.192 202.62 185.962C203.32 186.732 204.202 187.11 205.252 187.11C205.644 187.11 206.092 187.012 206.596 186.802C207.114 186.592 207.492 186.27 207.758 185.836V186.998H209.382V175.602H207.716V180.586C207.464 180.18 207.1 179.886 206.61 179.69C206.134 179.48 205.7 179.382 205.294 179.382C204.188 179.382 203.278 179.774 202.592 180.558C201.906 181.342 201.57 182.238 201.57 183.246ZM205.504 180.88C206.162 180.88 206.694 181.104 207.114 181.566C207.534 182.028 207.744 182.588 207.744 183.246C207.744 183.904 207.534 184.464 207.114 184.926C206.708 185.374 206.162 185.598 205.504 185.598C204.846 185.598 204.3 185.374 203.88 184.926C203.474 184.464 203.264 183.904 203.264 183.246C203.264 182.588 203.474 182.028 203.88 181.566C204.3 181.104 204.846 180.88 205.504 180.88Z" fill="white"/>
<defs>
<filter id="filter0_d_6580_74210" x="0" y="0" width="492" height="316" filterUnits="userSpaceOnUse" color-interpolation-filters="sRGB">
<feFlood flood-opacity="0" result="BackgroundImageFix"/>
<feColorMatrix in="SourceAlpha" type="matrix" values="0 0 0 0 0 0 0 0 0 0 0 0 0 0 0 0 0 0 127 0" result="hardAlpha"/>
<feOffset dy="4"/>
<feGaussianBlur stdDeviation="32"/>
<feComposite in2="hardAlpha" operator="out"/>
<feColorMatrix type="matrix" values="0 0 0 0 0 0 0 0 0 0 0 0 0 0 0 0 0 0 0.06 0"/>
<feBlend mode="normal" in2="BackgroundImageFix" result="effect1_dropShadow_6580_74210"/>
<feBlend mode="normal" in="SourceGraphic" in2="effect1_dropShadow_6580_74210" result="shape"/>
</filter>
<filter id="filter1_d_6580_74210" x="372.688" y="213.555" width="70.9375" height="76.8281" filterUnits="userSpaceOnUse" color-interpolation-filters="sRGB">
<feFlood flood-opacity="0" result="BackgroundImageFix"/>
<feColorMatrix in="SourceAlpha" type="matrix" values="0 0 0 0 0 0 0 0 0 0 0 0 0 0 0 0 0 0 127 0" result="hardAlpha"/>
<feOffset dy="4"/>
<feGaussianBlur stdDeviation="10"/>
<feComposite in2="hardAlpha" operator="out"/>
<feColorMatrix type="matrix" values="0 0 0 0 0 0 0 0 0 0 0 0 0 0 0 0 0 0 0.2 0"/>
<feBlend mode="normal" in2="BackgroundImageFix" result="effect1_dropShadow_6580_74210"/>
<feBlend mode="normal" in="SourceGraphic" in2="effect1_dropShadow_6580_74210" result="shape"/>
</filter>
<linearGradient id="paint0_linear_6580_74210" x1="388.006" y1="234.092" x2="434.915" y2="263.929" gradientUnits="userSpaceOnUse">
<stop stop-color="#0FA76F"/>
<stop offset="1" stop-color="#0F9EA7"/>
</linearGradient>
</defs>
</svg>
