<svg width="492" height="316" viewBox="0 0 492 316" fill="none" xmlns="http://www.w3.org/2000/svg">
<g filter="url(#filter0_d_6580_74375)">
<rect x="64" y="60" width="364" height="188" rx="8" fill="white"/>
<rect x="64.5" y="60.5" width="363" height="187" rx="7.5" stroke="#D9D9D9"/>
</g>
<path d="M64.5 68C64.5 63.8579 67.8579 60.5 72 60.5H420C424.142 60.5 427.5 63.8579 427.5 68V94.5H64.5V68Z" stroke="#D9D9D9"/>
<circle cx="84" cy="78" r="4" fill="#D9D9D9"/>
<circle cx="97" cy="78" r="4" fill="#D9D9D9"/>
<circle cx="110" cy="78" r="4" fill="#D9D9D9"/>
<g filter="url(#filter1_d_6580_74375)">
<path d="M404 263.5L399 231.5L426 247.5L411.5 251L404 263.5Z" fill="url(#paint0_linear_6580_74375)"/>
<path d="M404 263.5L399 231.5L426 247.5L411.5 251L404 263.5Z" stroke="white" stroke-width="2"/>
</g>
<g clip-path="url(#clip0_6580_74375)">
<path d="M252.75 146.125C250.956 146.125 249.5 144.669 249.5 142.875V138H236.5V142.875C236.5 144.669 235.044 146.125 233.25 146.125C231.456 146.125 230 144.669 230 142.875V138C230 134.415 232.915 131.5 236.5 131.5H249.5C253.085 131.5 256 134.415 256 138V142.875C256 144.669 254.544 146.125 252.75 146.125Z" fill="#8BC38F"/>
<path d="M245.307 174.986C244.722 175.213 243.877 175.376 243 175.376C242.123 175.376 241.278 175.213 240.497 174.921L204 162.766V187.563C204 192.503 207.997 196.501 212.938 196.501H273.062C278.003 196.501 282 192.503 282 187.563V162.766L245.307 174.986Z" fill="#8BC38F"/>
<path d="M282 150.188V157.63L243.78 170.37C243.52 170.468 243.26 170.5 243 170.5C242.74 170.5 242.48 170.468 242.22 170.37L204 157.63V150.188C204 145.247 207.997 141.25 212.938 141.25H273.062C278.003 141.25 282 145.247 282 150.188Z" fill="#8BC38F"/>
</g>
<defs>
<filter id="filter0_d_6580_74375" x="0" y="0" width="492" height="316" filterUnits="userSpaceOnUse" color-interpolation-filters="sRGB">
<feFlood flood-opacity="0" result="BackgroundImageFix"/>
<feColorMatrix in="SourceAlpha" type="matrix" values="0 0 0 0 0 0 0 0 0 0 0 0 0 0 0 0 0 0 127 0" result="hardAlpha"/>
<feOffset dy="4"/>
<feGaussianBlur stdDeviation="32"/>
<feComposite in2="hardAlpha" operator="out"/>
<feColorMatrix type="matrix" values="0 0 0 0 0 0 0 0 0 0 0 0 0 0 0 0 0 0 0.06 0"/>
<feBlend mode="normal" in2="BackgroundImageFix" result="effect1_dropShadow_6580_74375"/>
<feBlend mode="normal" in="SourceGraphic" in2="effect1_dropShadow_6580_74375" result="shape"/>
</filter>
<filter id="filter1_d_6580_74375" x="377.688" y="213.555" width="70.9375" height="76.8281" filterUnits="userSpaceOnUse" color-interpolation-filters="sRGB">
<feFlood flood-opacity="0" result="BackgroundImageFix"/>
<feColorMatrix in="SourceAlpha" type="matrix" values="0 0 0 0 0 0 0 0 0 0 0 0 0 0 0 0 0 0 127 0" result="hardAlpha"/>
<feOffset dy="4"/>
<feGaussianBlur stdDeviation="10"/>
<feComposite in2="hardAlpha" operator="out"/>
<feColorMatrix type="matrix" values="0 0 0 0 0 0 0 0 0 0 0 0 0 0 0 0 0 0 0.2 0"/>
<feBlend mode="normal" in2="BackgroundImageFix" result="effect1_dropShadow_6580_74375"/>
<feBlend mode="normal" in="SourceGraphic" in2="effect1_dropShadow_6580_74375" result="shape"/>
</filter>
<linearGradient id="paint0_linear_6580_74375" x1="393.006" y1="234.092" x2="439.915" y2="263.929" gradientUnits="userSpaceOnUse">
<stop stop-color="#0FA76F"/>
<stop offset="1" stop-color="#0F9EA7"/>
</linearGradient>
<clipPath id="clip0_6580_74375">
<rect width="78" height="78" fill="white" transform="translate(204 125)"/>
</clipPath>
</defs>
</svg>
