<svg width="492" height="316" viewBox="0 0 492 316" fill="none" xmlns="http://www.w3.org/2000/svg">
<g filter="url(#filter0_d_6580_74317)">
<rect x="64" y="60" width="364" height="188" rx="8" fill="white"/>
<rect x="64.5" y="60.5" width="363" height="187" rx="7.5" stroke="#D9D9D9"/>
</g>
<rect x="84" y="119" width="13" height="14" rx="3" fill="#8BC38F"/>
<rect x="105" y="119" width="264" height="14" rx="3" fill="#8BC38F"/>
<rect x="84" y="145" width="13" height="14" rx="3" fill="#8BC38F"/>
<rect x="105" y="145" width="264" height="14" rx="3" fill="#8BC38F"/>
<rect x="84" y="171" width="13" height="14" rx="3" fill="#8BC38F"/>
<rect x="105" y="171" width="264" height="14" rx="3" fill="#8BC38F"/>
<path d="M64.5 68C64.5 63.8579 67.8579 60.5 72 60.5H420C424.142 60.5 427.5 63.8579 427.5 68V94.5H64.5V68Z" stroke="#D9D9D9"/>
<circle cx="84" cy="78" r="4" fill="#D9D9D9"/>
<circle cx="97" cy="78" r="4" fill="#D9D9D9"/>
<circle cx="110" cy="78" r="4" fill="#D9D9D9"/>
<g filter="url(#filter1_d_6580_74317)">
<path d="M399 263.5L394 231.5L421 247.5L406.5 251L399 263.5Z" fill="url(#paint0_linear_6580_74317)"/>
<path d="M399 263.5L394 231.5L421 247.5L406.5 251L399 263.5Z" stroke="white" stroke-width="2"/>
</g>
<defs>
<filter id="filter0_d_6580_74317" x="0" y="0" width="492" height="316" filterUnits="userSpaceOnUse" color-interpolation-filters="sRGB">
<feFlood flood-opacity="0" result="BackgroundImageFix"/>
<feColorMatrix in="SourceAlpha" type="matrix" values="0 0 0 0 0 0 0 0 0 0 0 0 0 0 0 0 0 0 127 0" result="hardAlpha"/>
<feOffset dy="4"/>
<feGaussianBlur stdDeviation="32"/>
<feComposite in2="hardAlpha" operator="out"/>
<feColorMatrix type="matrix" values="0 0 0 0 0 0 0 0 0 0 0 0 0 0 0 0 0 0 0.06 0"/>
<feBlend mode="normal" in2="BackgroundImageFix" result="effect1_dropShadow_6580_74317"/>
<feBlend mode="normal" in="SourceGraphic" in2="effect1_dropShadow_6580_74317" result="shape"/>
</filter>
<filter id="filter1_d_6580_74317" x="372.688" y="213.555" width="70.9375" height="76.8281" filterUnits="userSpaceOnUse" color-interpolation-filters="sRGB">
<feFlood flood-opacity="0" result="BackgroundImageFix"/>
<feColorMatrix in="SourceAlpha" type="matrix" values="0 0 0 0 0 0 0 0 0 0 0 0 0 0 0 0 0 0 127 0" result="hardAlpha"/>
<feOffset dy="4"/>
<feGaussianBlur stdDeviation="10"/>
<feComposite in2="hardAlpha" operator="out"/>
<feColorMatrix type="matrix" values="0 0 0 0 0 0 0 0 0 0 0 0 0 0 0 0 0 0 0.2 0"/>
<feBlend mode="normal" in2="BackgroundImageFix" result="effect1_dropShadow_6580_74317"/>
<feBlend mode="normal" in="SourceGraphic" in2="effect1_dropShadow_6580_74317" result="shape"/>
</filter>
<linearGradient id="paint0_linear_6580_74317" x1="388.006" y1="234.092" x2="434.915" y2="263.929" gradientUnits="userSpaceOnUse">
<stop stop-color="#0FA76F"/>
<stop offset="1" stop-color="#0F9EA7"/>
</linearGradient>
</defs>
</svg>
