<svg width="611" height="503" viewBox="0 0 611 503" fill="none" xmlns="http://www.w3.org/2000/svg">
<rect width="475" height="503" rx="8" fill="#1B4648"/>
<rect x="57" y="346" width="13" height="14" rx="3" fill="#8BC38F"/>
<rect x="78" y="346" width="264" height="14" rx="3" fill="#8BC38F"/>
<rect x="57" y="372" width="13" height="14" rx="3" fill="#8BC38F"/>
<rect x="78" y="372" width="264" height="14" rx="3" fill="#8BC38F"/>
<rect x="57" y="398" width="13" height="14" rx="3" fill="#8BC38F"/>
<rect x="78" y="398" width="264" height="14" rx="3" fill="#8BC38F"/>
<g filter="url(#filter0_d_6580_74461)">
<rect x="86" y="54" width="450.752" height="232.806" rx="8" fill="white"/>
<rect x="86.5" y="54.5" width="449.752" height="231.806" rx="7.5" stroke="#D9D9D9"/>
</g>
<path d="M86.5 62C86.5 57.8579 89.8579 54.5 94 54.5H528.752C532.894 54.5 536.252 57.8579 536.252 62V96.8415H86.5V62Z" stroke="#D9D9D9"/>
<circle cx="109.812" cy="75.3359" r="4" fill="#D9D9D9"/>
<circle cx="122.812" cy="75.3359" r="4" fill="#D9D9D9"/>
<circle cx="135.812" cy="75.3359" r="4" fill="#D9D9D9"/>
<g filter="url(#filter1_d_6580_74461)">
<path d="M500.84 306.002L494.648 266.375L528.083 286.188L510.128 290.522L500.84 306.002Z" fill="url(#paint0_linear_6580_74461)"/>
<path d="M500.84 306.002L494.648 266.375L528.083 286.188L510.128 290.522L500.84 306.002Z" stroke="white" stroke-width="2"/>
</g>
<g clip-path="url(#clip0_6580_74461)">
<path d="M311.078 179.078C317.567 179.078 322.828 173.817 322.828 167.328C322.828 160.839 317.567 155.578 311.078 155.578C304.589 155.578 299.328 160.839 299.328 167.328C299.328 173.817 304.589 179.078 311.078 179.078Z" fill="#8BC38F"/>
<path d="M311.082 179.078C300.988 179.078 292.805 187.261 292.805 197.356H329.36C329.36 187.261 321.176 179.078 311.082 179.078Z" fill="#8BC38F"/>
<path d="M360.853 223.307L344.18 206.634C350.412 199.16 354.167 189.552 354.167 179.083C354.167 155.327 334.839 136 311.083 136C287.327 136 268 155.327 268 179.083C268 202.84 287.327 222.167 311.083 222.167C321.556 222.167 331.166 218.409 338.641 212.174L355.314 228.846C356.079 229.611 357.081 229.993 358.083 229.993C359.085 229.993 360.088 229.611 360.853 228.846C362.383 227.317 362.383 224.837 360.853 223.307ZM275.833 179.083C275.833 159.646 291.646 143.833 311.083 143.833C330.52 143.833 346.333 159.646 346.333 179.083C346.333 198.52 330.52 214.333 311.083 214.333C291.646 214.333 275.833 198.52 275.833 179.083Z" fill="#8BC38F"/>
</g>
<path fill-rule="evenodd" clip-rule="evenodd" d="M173 198C171.343 198 170 199.343 170 201V227.8C170 229.457 171.343 230.8 173 230.8H209.717L214.798 239.602L219.973 230.639C221.152 230.234 222 229.116 222 227.8V201C222 199.343 220.657 198 219 198H173Z" fill="#8BC38F"/>
<defs>
<filter id="filter0_d_6580_74461" x="52" y="14" width="558.75" height="340.805" filterUnits="userSpaceOnUse" color-interpolation-filters="sRGB">
<feFlood flood-opacity="0" result="BackgroundImageFix"/>
<feColorMatrix in="SourceAlpha" type="matrix" values="0 0 0 0 0 0 0 0 0 0 0 0 0 0 0 0 0 0 127 0" result="hardAlpha"/>
<feOffset dx="20" dy="14"/>
<feGaussianBlur stdDeviation="27"/>
<feComposite in2="hardAlpha" operator="out"/>
<feColorMatrix type="matrix" values="0 0 0 0 0 0 0 0 0 0 0 0 0 0 0 0 0 0 0.06 0"/>
<feBlend mode="normal" in2="BackgroundImageFix" result="effect1_dropShadow_6580_74461"/>
<feBlend mode="normal" in="SourceGraphic" in2="effect1_dropShadow_6580_74461" result="shape"/>
</filter>
<filter id="filter1_d_6580_74461" x="473.336" y="248.43" width="77.375" height="84.4531" filterUnits="userSpaceOnUse" color-interpolation-filters="sRGB">
<feFlood flood-opacity="0" result="BackgroundImageFix"/>
<feColorMatrix in="SourceAlpha" type="matrix" values="0 0 0 0 0 0 0 0 0 0 0 0 0 0 0 0 0 0 127 0" result="hardAlpha"/>
<feOffset dy="4"/>
<feGaussianBlur stdDeviation="10"/>
<feComposite in2="hardAlpha" operator="out"/>
<feColorMatrix type="matrix" values="0 0 0 0 0 0 0 0 0 0 0 0 0 0 0 0 0 0 0.2 0"/>
<feBlend mode="normal" in2="BackgroundImageFix" result="effect1_dropShadow_6580_74461"/>
<feBlend mode="normal" in="SourceGraphic" in2="effect1_dropShadow_6580_74461" result="shape"/>
</filter>
<linearGradient id="paint0_linear_6580_74461" x1="487.226" y1="269.585" x2="545.315" y2="306.533" gradientUnits="userSpaceOnUse">
<stop stop-color="#0FA76F"/>
<stop offset="1" stop-color="#0F9EA7"/>
</linearGradient>
<clipPath id="clip0_6580_74461">
<rect width="94" height="94" fill="white" transform="translate(268 136)"/>
</clipPath>
</defs>
</svg>
