<svg width="17" height="14" viewBox="0 0 17 14" fill="none" xmlns="http://www.w3.org/2000/svg">
<path d="M5.02375 0.5C3.65895 1.41689 2.52581 2.63829 1.71365 4.06789C0.901497 5.49749 0.432538 7.09621 0.34375 8.738V8.931C0.34375 11.561 1.92975 13.379 3.94375 13.379C4.39864 13.3961 4.85225 13.3205 5.27699 13.1568C5.70172 12.993 6.08869 12.7446 6.41434 12.4265C6.73999 12.1084 6.9975 11.7274 7.17121 11.3066C7.34491 10.8859 7.43118 10.4342 7.42475 9.979C7.44364 9.57559 7.3807 9.17253 7.23971 8.79409C7.09873 8.41565 6.88261 8.06966 6.60438 7.77695C6.32615 7.48424 5.99156 7.25086 5.62075 7.09087C5.24994 6.93088 4.8506 6.84758 4.44675 6.846C4.06457 6.84693 3.68527 6.91217 3.32475 7.039C4.11254 5.15795 5.42907 3.5458 7.11475 2.398L5.02375 0.5ZM13.8798 0.5C12.5257 1.42473 11.4027 2.64883 10.5979 4.07742C9.7931 5.50601 9.32803 7.10073 9.23875 8.738V8.931C9.23875 11.561 10.8247 13.379 12.8387 13.379C13.2936 13.3961 13.7473 13.3205 14.172 13.1568C14.5967 12.993 14.9837 12.7446 15.3093 12.4265C15.635 12.1084 15.8925 11.7274 16.0662 11.3066C16.2399 10.8859 16.3262 10.4342 16.3197 9.979C16.3386 9.57559 16.2757 9.17253 16.1347 8.79409C15.9937 8.41565 15.7776 8.06966 15.4994 7.77695C15.2211 7.48424 14.8866 7.25086 14.5158 7.09087C14.1449 6.93088 13.7456 6.84758 13.3418 6.846C12.9478 6.85357 12.557 6.91859 12.1818 7.039C12.982 5.15528 14.3092 3.5427 16.0037 2.395L13.8798 0.5Z" fill="#2D2D2D"/>
</svg>
