<svg width="611" height="503" viewBox="0 0 611 503" fill="none" xmlns="http://www.w3.org/2000/svg">
<rect width="475" height="503" rx="8" fill="#1B4648"/>
<rect x="57" y="346" width="13" height="14" rx="3" fill="#8BC38F"/>
<rect x="78" y="346" width="264" height="14" rx="3" fill="#8BC38F"/>
<rect x="57" y="372" width="13" height="14" rx="3" fill="#8BC38F"/>
<rect x="78" y="372" width="264" height="14" rx="3" fill="#8BC38F"/>
<rect x="57" y="398" width="13" height="14" rx="3" fill="#8BC38F"/>
<rect x="78" y="398" width="264" height="14" rx="3" fill="#8BC38F"/>
<g filter="url(#filter0_d_6580_74457)">
<rect x="86" y="54" width="450.752" height="232.806" rx="8" fill="white"/>
<rect x="86.5" y="54.5" width="449.752" height="231.806" rx="7.5" stroke="#D9D9D9"/>
</g>
<path d="M86.5 62C86.5 57.8579 89.8579 54.5 94 54.5H528.752C532.894 54.5 536.252 57.8579 536.252 62V96.8415H86.5V62Z" stroke="#D9D9D9"/>
<circle cx="109.812" cy="75.3359" r="4" fill="#D9D9D9"/>
<circle cx="122.812" cy="75.3359" r="4" fill="#D9D9D9"/>
<circle cx="135.812" cy="75.3359" r="4" fill="#D9D9D9"/>
<g filter="url(#filter1_d_6580_74457)">
<path d="M500.84 306.002L494.648 266.375L528.083 286.188L510.128 290.522L500.84 306.002Z" fill="url(#paint0_linear_6580_74457)"/>
<path d="M500.84 306.002L494.648 266.375L528.083 286.188L510.128 290.522L500.84 306.002Z" stroke="white" stroke-width="2"/>
</g>
<path fill-rule="evenodd" clip-rule="evenodd" d="M309.614 114H313.46L313.415 114H313.506C317.181 114.006 320.819 114.747 324.212 116.181C327.634 117.627 330.738 119.749 333.346 122.423L333.435 122.544L333.539 122.649L333.643 122.755L333.747 122.861V124.566L333.896 124.778C338.419 129.661 341.13 135.99 341.565 142.68V160.794C341.54 162.921 340.805 164.975 339.479 166.621C338.153 168.267 336.315 169.406 334.267 169.851C333.298 174.842 330.764 179.38 327.044 182.787C330.367 184.253 333.346 186.419 335.783 189.142C336.414 189.854 336.881 190.7 337.151 191.618C339.729 192.072 342.258 192.779 344.701 193.731C352.744 196.829 359.669 202.336 364.558 209.524C368.256 214.958 370.657 221.159 371.611 227.637V231.081C371.61 231.054 371.609 231.027 371.607 231V231.83C371.609 231.803 371.61 231.776 371.611 231.749V249.688H261.289C260.774 249.672 260.259 249.622 259.75 249.538L259.81 248.572H259.052L258.427 248.391H257.506H257.372H257.283H257.09H256.852H256.718H256.525H256.451L256.124 248.225L255.604 247.923C255.366 247.772 255.143 247.607 254.921 247.441L254.921 247.441L254.92 247.441L254.92 247.44L254.92 247.44C253.821 246.545 252.908 245.437 252.234 244.18C251.566 242.934 251.147 241.567 251 240.157V240.062C251.001 240.045 251.001 240.027 251 240.01V233.426C251.114 224.882 253.728 216.561 258.516 209.524C263.405 202.336 270.331 196.829 278.373 193.731C280.817 192.779 283.345 192.072 285.924 191.618C286.193 190.7 286.66 189.854 287.291 189.142C289.728 186.419 292.707 184.253 296.03 182.787C292.311 179.38 289.777 174.842 288.807 169.851C286.759 169.406 284.922 168.267 283.596 166.621C282.269 164.975 281.534 162.921 281.509 160.794V142.68C281.944 135.99 284.655 129.661 289.178 124.778L289.327 124.566V122.861L289.431 122.755L289.535 122.649L289.639 122.544L289.728 122.423C292.336 119.749 295.441 117.627 298.862 116.181C302.255 114.747 305.893 114.006 309.568 114H309.659L309.614 114ZM309.614 114H251V114H309.568L309.614 114ZM313.506 114L371.611 114H313.46L313.506 114ZM286.67 158.24C287.07 157.52 287.656 156.925 288.365 156.52V164.565C287.32 163.949 286.556 162.94 286.239 161.756C285.922 160.572 286.077 159.309 286.67 158.24ZM304.381 211.145C303.542 211.748 302.599 212.188 301.602 212.443L304.663 217.409L305.986 213.484L304.381 211.145ZM295.046 187.875V188.207C295.053 189.587 295.344 190.951 295.902 192.21C296.461 193.468 297.273 194.593 298.286 195.513L307.709 204.026L301.526 207.996H301.422C301.096 208.151 300.742 208.233 300.382 208.238C300.037 208.23 299.699 208.145 299.39 207.988C299.082 207.832 298.811 207.608 298.598 207.332C298.594 207.302 298.594 207.272 298.598 207.242L290.394 194.773C290.142 194.378 290.008 193.916 290.008 193.445C290.006 192.842 290.217 192.258 290.602 191.8C291.89 190.281 293.386 188.959 295.046 187.875ZM307.906 208.865L309.437 210.993H312.93L314.446 208.865L311.176 206.797L307.906 208.865ZM307.566 221.993L309.855 215.246H312.486L314.775 221.993L312.962 224.907L312.858 225.043C312.664 225.302 312.415 225.513 312.129 225.66C311.843 225.806 311.528 225.884 311.208 225.888C310.828 225.876 310.459 225.761 310.138 225.556C309.867 225.389 309.642 225.155 309.484 224.877L307.566 221.993ZM317.972 211.133L316.293 213.473L317.631 217.397L320.752 212.431C319.755 212.174 318.813 211.734 317.972 211.133ZM311.176 201.551L301.039 192.389C300.204 191.638 299.615 190.646 299.349 189.545C299.084 188.445 299.155 187.288 299.553 186.23C299.642 186.004 299.746 185.777 299.85 185.551C300.148 185.717 300.475 185.898 300.816 186.064L301.693 186.487C302.604 186.897 303.543 187.24 304.502 187.513H304.606H304.755L305.379 187.679C305.662 187.77 305.959 187.845 306.241 187.906H306.42H306.494H306.672L307.074 187.996L307.772 188.117L308.634 188.207H308.738C308.911 188.223 309.085 188.223 309.258 188.207H309.437H310.774H311.77H312.796H313.242L313.821 188.132C314.105 188.132 314.39 188.069 314.682 188.005C314.742 187.992 314.802 187.979 314.862 187.966H315.233H315.322H315.471C315.907 187.875 316.338 187.77 316.764 187.649L317.448 187.453H317.537H317.745L318.057 187.347L318.384 187.241H318.548H318.622C319.112 187.06 319.618 186.849 320.108 186.623L320.435 186.472C320.837 186.29 321.238 186.094 321.639 185.868L321.966 185.702L322.189 185.581C322.276 185.842 322.386 186.094 322.516 186.336C322.754 186.962 322.875 187.627 322.873 188.298C322.872 189.09 322.708 189.872 322.391 190.595C322.073 191.318 321.609 191.965 321.03 192.494L311.176 201.551ZM292.879 153.44V165.214C293.224 169.904 295.304 174.288 298.7 177.486C302.097 180.683 306.559 182.458 311.19 182.452H312.676C312.69 182.444 312.705 182.44 312.721 182.44C312.73 182.44 312.74 182.442 312.749 182.445L312.754 182.447C312.758 182.448 312.762 182.45 312.765 182.452H313.895H313.999H314.237H314.445H314.683H314.905H315.634H315.723H315.946H316.065H316.169H316.377H316.496H316.6H316.823H316.912L317.224 182.346H317.328C319.651 181.584 321.802 180.363 323.66 178.754C325.513 177.138 327.029 175.162 328.118 172.942V172.852L328.208 172.656V172.565V172.474V172.399L328.297 172.157L328.549 171.478C328.877 170.453 329.126 169.403 329.293 168.338C329.308 168.233 329.325 168.127 329.343 168.02C329.406 167.624 329.471 167.222 329.471 166.829V166.648V166.421V153.712H326.796C323.375 153.712 319.993 152.98 316.869 151.566C313.745 150.151 310.949 148.084 308.663 145.5L307.831 146.24C303.837 150.353 298.542 152.903 292.879 153.44ZM324.089 195.506C325.105 194.58 325.916 193.447 326.469 192.18C327.023 190.912 327.306 189.541 327.299 188.155V187.883C329.062 188.939 330.656 190.262 332.025 191.807C332.426 192.265 332.648 192.856 332.65 193.468C332.644 193.941 332.505 194.402 332.248 194.796L324.044 207.28C323.838 207.609 323.552 207.879 323.214 208.064C322.876 208.249 322.496 208.343 322.112 208.336C321.665 208.343 321.226 208.217 320.849 207.974L314.621 204.004L324.089 195.506ZM336.286 159.929C336.207 159.324 336.012 158.739 335.711 158.21C335.305 157.508 334.726 156.926 334.031 156.52V164.565C334.553 164.26 335.01 163.854 335.377 163.369C335.743 162.885 336.012 162.331 336.168 161.741C336.324 161.151 336.364 160.535 336.286 159.929ZM288.31 151.544C287.511 151.751 286.746 152.071 286.036 152.495V142.593C286.009 137.844 287.374 133.194 289.956 129.234C292.539 125.275 296.223 122.185 300.539 120.358C304.856 118.531 309.61 118.049 314.197 118.974C318.784 119.899 322.997 122.188 326.299 125.551L328.29 127.589L328.885 127.74C331.012 128.28 332.899 129.527 334.246 131.284C335.593 133.04 336.322 135.204 336.316 137.431V152.526C335.6 152.104 334.83 151.784 334.027 151.575V148.873H326.804C323.729 148.859 320.698 148.123 317.95 146.722C315.201 145.321 312.809 143.293 310.96 140.797L309.147 138.306L304.584 142.955C302.766 144.823 300.602 146.308 298.218 147.323C295.833 148.339 293.274 148.865 290.688 148.873H288.31V151.544ZM350.072 230.88V245.462H360.848C361.699 245.46 362.541 245.288 363.326 244.955C364.112 244.622 364.825 244.136 365.425 243.523C366.026 242.911 366.502 242.184 366.825 241.385C367.149 240.586 367.315 239.73 367.313 238.865V233.914C367.304 226.316 365.103 218.887 360.982 212.545C356.862 206.204 351.002 201.227 344.127 198.23L323.438 231.741C322.28 233.55 320.761 235.093 318.979 236.269H318.905C316.574 237.793 313.859 238.601 311.087 238.594C308.667 238.591 306.286 237.972 304.162 236.793C302.038 235.614 300.239 233.913 298.93 231.846V231.741L289.64 216.646C289.464 216.297 289.391 215.903 289.432 215.514C289.438 215.159 289.529 214.812 289.698 214.501C289.866 214.191 290.106 213.927 290.398 213.732H290.487C290.791 213.554 291.133 213.455 291.483 213.446C291.834 213.451 292.178 213.544 292.484 213.718C292.791 213.892 293.049 214.141 293.237 214.442L302.497 229.431C303.295 230.73 304.372 231.829 305.647 232.646L305.87 232.782C307.473 233.775 309.314 234.298 311.191 234.292C312.875 234.28 314.531 233.854 316.017 233.05C317.503 232.245 318.775 231.086 319.722 229.673C319.772 229.579 319.826 229.488 319.886 229.401L340.114 196.69C338.895 196.328 337.662 196.011 336.398 195.77C336.222 196.252 335.992 196.713 335.715 197.143C335.715 197.146 335.68 197.197 335.601 197.311L335.601 197.311C334.894 198.331 330.668 204.434 316.393 227.212C315.906 228.033 315.246 228.734 314.461 229.265L314.194 229.416C313.286 229.938 312.264 230.219 311.221 230.231H311.147C310.116 230.224 309.103 229.96 308.196 229.463C307.289 228.965 306.516 228.249 305.945 227.378L305.826 227.182C293.7 207.769 289.219 201.092 287.415 198.405C286.219 196.622 286.2 196.594 285.91 195.77C284.661 196.01 283.426 196.318 282.209 196.69L287.872 205.974C288.071 206.312 288.178 206.697 288.184 207.091C288.184 207.452 288.094 207.808 287.923 208.124C287.751 208.441 287.503 208.709 287.203 208.902C286.889 209.094 286.529 209.194 286.162 209.189C285.851 209.188 285.544 209.114 285.266 208.972C284.987 208.831 284.745 208.626 284.557 208.374L284.483 208.268L278.226 198.17C271.347 201.176 265.486 206.164 261.368 212.517C257.25 218.869 255.055 226.308 255.055 233.914V238.88C255.051 240.619 255.726 242.289 256.933 243.523C258.139 244.756 259.778 245.454 261.49 245.462H272.295V230.895C272.276 230.618 272.31 230.339 272.397 230.075C272.484 229.811 272.62 229.567 272.8 229.357C272.979 229.146 273.198 228.974 273.443 228.85C273.688 228.725 273.954 228.651 274.228 228.631C274.501 228.611 274.775 228.646 275.035 228.734C275.295 228.822 275.535 228.961 275.743 229.143C275.95 229.325 276.119 229.547 276.242 229.796C276.364 230.045 276.438 230.316 276.457 230.593V245.447H345.911V230.88C345.911 230.32 346.13 229.782 346.52 229.386C346.91 228.989 347.44 228.767 347.991 228.767C348.543 228.767 349.073 228.989 349.463 229.386C349.853 229.782 350.072 230.32 350.072 230.88ZM371.607 230.2V230.457C371.6 230.371 371.6 230.285 371.607 230.2ZM371.593 249.687V239.362C371.588 239.472 371.558 239.579 371.507 239.675C371.455 239.772 371.383 239.856 371.296 239.921C371.304 240.056 371.304 240.192 371.296 240.328V240.464C371.202 241.209 371.033 241.943 370.791 242.653L370.479 243.438C370.481 243.488 370.481 243.538 370.479 243.589C370.33 243.875 370.181 244.162 370.018 244.449L369.899 244.645C369.892 244.685 369.892 244.726 369.899 244.766C369.246 245.741 368.438 246.598 367.506 247.302C366.835 247.847 366.101 248.309 365.321 248.676L364.578 248.978L363.954 249.174H363.835C363.386 249.295 362.929 249.386 362.468 249.445H362.17H361.234L360.848 249.687H371.593Z" fill="url(#paint1_linear_6580_74457)"/>
<defs>
<filter id="filter0_d_6580_74457" x="52" y="14" width="558.75" height="340.805" filterUnits="userSpaceOnUse" color-interpolation-filters="sRGB">
<feFlood flood-opacity="0" result="BackgroundImageFix"/>
<feColorMatrix in="SourceAlpha" type="matrix" values="0 0 0 0 0 0 0 0 0 0 0 0 0 0 0 0 0 0 127 0" result="hardAlpha"/>
<feOffset dx="20" dy="14"/>
<feGaussianBlur stdDeviation="27"/>
<feComposite in2="hardAlpha" operator="out"/>
<feColorMatrix type="matrix" values="0 0 0 0 0 0 0 0 0 0 0 0 0 0 0 0 0 0 0.06 0"/>
<feBlend mode="normal" in2="BackgroundImageFix" result="effect1_dropShadow_6580_74457"/>
<feBlend mode="normal" in="SourceGraphic" in2="effect1_dropShadow_6580_74457" result="shape"/>
</filter>
<filter id="filter1_d_6580_74457" x="473.336" y="248.43" width="77.375" height="84.4531" filterUnits="userSpaceOnUse" color-interpolation-filters="sRGB">
<feFlood flood-opacity="0" result="BackgroundImageFix"/>
<feColorMatrix in="SourceAlpha" type="matrix" values="0 0 0 0 0 0 0 0 0 0 0 0 0 0 0 0 0 0 127 0" result="hardAlpha"/>
<feOffset dy="4"/>
<feGaussianBlur stdDeviation="10"/>
<feComposite in2="hardAlpha" operator="out"/>
<feColorMatrix type="matrix" values="0 0 0 0 0 0 0 0 0 0 0 0 0 0 0 0 0 0 0.2 0"/>
<feBlend mode="normal" in2="BackgroundImageFix" result="effect1_dropShadow_6580_74457"/>
<feBlend mode="normal" in="SourceGraphic" in2="effect1_dropShadow_6580_74457" result="shape"/>
</filter>
<linearGradient id="paint0_linear_6580_74457" x1="487.226" y1="269.585" x2="545.315" y2="306.533" gradientUnits="userSpaceOnUse">
<stop stop-color="#0FA76F"/>
<stop offset="1" stop-color="#0F9EA7"/>
</linearGradient>
<linearGradient id="paint1_linear_6580_74457" x1="360.365" y1="123.047" x2="237.812" y2="226.4" gradientUnits="userSpaceOnUse">
<stop stop-color="#15BF81"/>
<stop offset="1" stop-color="#0B6041"/>
</linearGradient>
</defs>
</svg>
