<svg width="648" height="550" viewBox="0 0 648 550" fill="none" xmlns="http://www.w3.org/2000/svg">
<rect x="41" y="25" width="475" height="503" rx="8" fill="#1B4648"/>
<rect x="329" y="270" width="246" height="280" rx="8" fill="#8BC38F"/>
<rect x="100" y="399" width="13" height="14" rx="3" fill="#8BC38F"/>
<rect x="121" y="399" width="264" height="14" rx="3" fill="#8BC38F"/>
<rect x="100" y="425" width="13" height="14" rx="3" fill="#8BC38F"/>
<rect x="121" y="425" width="264" height="14" rx="3" fill="#8BC38F"/>
<rect x="100" y="451" width="13" height="14" rx="3" fill="#8BC38F"/>
<rect x="121" y="451" width="264" height="14" rx="3" fill="#8BC38F"/>
<g clip-path="url(#clip0_6580_74377)">
<rect x="253.5" y="399" width="264" height="14" rx="3" fill="#1B4648"/>
<rect x="253.5" y="425" width="264" height="14" rx="3" fill="#1B4648"/>
<rect x="253.5" y="451" width="264" height="14" rx="3" fill="#1B4648"/>
</g>
<path d="M272 2.5C272 2.5 308.142 13.2993 327.678 26.6867C348.642 41.0516 360.496 77.6253 382.619 76.1595C391.883 75.5457 401.972 72.4277 399.212 62.2338C398.247 58.6673 396.817 57.3399 393.313 58.5692C387.044 60.768 383.848 80.8221 393.313 85.6876C404.006 91.1846 420.486 74.2742 437.192 76.1595C458.768 78.5944 467.428 111.707 484.758 105.477C494.188 102.087 498.032 91.9175 494.345 83.4888C491.072 76.0078 486.152 74.4636 479.965 79.8241C465.584 92.284 483.214 111.613 498.032 113.172C529.375 116.471 549.177 93.3047 579.522 92.284C598.944 91.6307 602.383 95.5821 622.295 99.2468C632.048 101.042 647 93.3834 647 93.3834" stroke="#8BC38F" stroke-width="3.96406"/>
<rect x="0.5" y="118.5" width="449.752" height="231.806" rx="7.5" fill="white" stroke="#D9D9D9"/>
<path d="M0.5 126C0.5 121.858 3.85786 118.5 8 118.5H442.752C446.894 118.5 450.252 121.858 450.252 126V160.842H0.5V126Z" stroke="#D9D9D9"/>
<circle cx="23.8125" cy="139.336" r="4" fill="#D9D9D9"/>
<circle cx="36.8125" cy="139.336" r="4" fill="#D9D9D9"/>
<circle cx="49.8125" cy="139.336" r="4" fill="#D9D9D9"/>
<g filter="url(#filter0_d_6580_74377)">
<path d="M414.84 370.002L408.648 330.375L442.083 350.188L424.128 354.522L414.84 370.002Z" fill="url(#paint0_linear_6580_74377)"/>
<path d="M414.84 370.002L408.648 330.375L442.083 350.188L424.128 354.522L414.84 370.002Z" stroke="white" stroke-width="2"/>
</g>
<path d="M265.121 270.736L256.964 268.264L239.214 256.298V253.556C241.832 251.524 244.012 248.952 245.616 246.003C247.22 243.055 248.212 239.794 248.529 236.429C249.798 236.215 250.953 235.543 251.786 234.532C252.62 233.522 253.078 232.238 253.08 230.91V223.375C253.08 223.346 253.08 223.318 253.08 223.289V213.734C253.601 213.35 254.025 212.842 254.317 212.254C254.609 211.666 254.76 211.014 254.758 210.353V201.611L267.005 199.459C267.963 199.288 268.837 198.791 269.489 198.047C270.14 197.302 270.531 196.354 270.599 195.353C270.666 194.353 270.407 193.358 269.862 192.527C269.317 191.697 268.518 191.079 267.593 190.773L226.308 177.212C225.452 176.929 224.532 176.929 223.676 177.212L182.388 190.768C181.634 191.018 180.961 191.475 180.44 192.091C179.919 192.706 179.57 193.456 179.431 194.261C179.292 195.065 179.368 195.893 179.651 196.657C179.933 197.42 180.412 198.089 181.036 198.593V210.023H180.935C179.816 210.024 178.744 210.483 177.953 211.3C177.162 212.117 176.718 213.225 176.718 214.379V220.053L173.995 236.542C173.884 237.213 173.917 237.901 174.09 238.558C174.264 239.215 174.574 239.824 175 240.344C175.425 240.865 175.955 241.283 176.553 241.57C177.151 241.856 177.802 242.005 178.462 242.005H187.678C188.337 242.005 188.989 241.856 189.587 241.569C190.185 241.282 190.715 240.864 191.14 240.343C191.566 239.823 191.876 239.213 192.049 238.557C192.223 237.9 192.255 237.212 192.145 236.541L189.424 220.05V214.379C189.422 213.226 188.978 212.12 188.187 211.304C187.397 210.488 186.326 210.029 185.208 210.027H185.107V199.837L195.231 201.618V210.347C195.23 211.006 195.38 211.656 195.671 212.243C195.961 212.83 196.383 213.337 196.902 213.722V223.368V230.907C196.903 232.235 197.362 233.519 198.195 234.53C199.029 235.54 200.183 236.213 201.453 236.426C201.771 239.79 202.764 243.05 204.367 245.997C205.971 248.944 208.15 251.515 210.768 253.546V256.304L193.027 268.269L184.876 270.738C180.581 272.039 176.811 274.741 174.129 278.44C171.448 282.139 169.999 286.635 170.002 291.255V297.515C170.002 298.072 170.216 298.607 170.598 299.001C170.98 299.395 171.497 299.617 172.037 299.617C172.577 299.617 173.095 299.395 173.477 299.001C173.859 298.607 174.073 298.072 174.073 297.515V291.255C174.088 287.546 175.258 283.941 177.411 280.972C179.564 278.004 182.585 275.829 186.028 274.771L193.623 272.469L223.962 291.081C224.278 291.272 224.637 291.372 225.002 291.372C225.368 291.372 225.726 291.272 226.042 291.081L256.384 272.469L263.978 274.771C267.42 275.83 270.441 278.004 272.594 280.973C274.747 283.942 275.917 287.547 275.931 291.255V311.553C275.93 312.805 275.447 314.005 274.59 314.89C273.733 315.775 272.57 316.273 271.358 316.275H262.383V307.217C262.383 306.941 262.331 306.667 262.229 306.412C262.126 306.157 261.976 305.926 261.787 305.731C261.598 305.535 261.374 305.381 261.127 305.275C260.88 305.169 260.615 305.115 260.348 305.115C260.08 305.115 259.816 305.169 259.569 305.275C259.322 305.381 259.097 305.535 258.908 305.731C258.719 305.926 258.569 306.157 258.467 306.412C258.364 306.667 258.312 306.941 258.312 307.217V316.283H191.678V307.217C191.678 306.941 191.625 306.667 191.523 306.412C191.42 306.157 191.27 305.926 191.081 305.731C190.892 305.535 190.668 305.381 190.421 305.275C190.174 305.169 189.909 305.115 189.642 305.115C189.374 305.115 189.11 305.169 188.863 305.275C188.616 305.381 188.391 305.535 188.202 305.731C188.013 305.926 187.863 306.157 187.761 306.412C187.659 306.667 187.606 306.941 187.606 307.217V316.283H178.642C177.429 316.28 176.266 315.781 175.409 314.894C174.552 314.007 174.071 312.806 174.072 311.553V307.344C174.072 306.786 173.857 306.252 173.475 305.858C173.094 305.464 172.576 305.242 172.036 305.242C171.496 305.242 170.978 305.464 170.596 305.858C170.214 306.252 170 306.786 170 307.344V311.553C170.003 313.919 170.915 316.188 172.535 317.861C174.156 319.534 176.353 320.475 178.645 320.478H271.355C273.647 320.475 275.844 319.534 277.465 317.861C279.085 316.188 279.997 313.919 280 311.553V291.253C280.002 286.633 278.553 282.137 275.872 278.438C273.19 274.739 269.42 272.037 265.125 270.736H265.121ZM187.678 237.8H178.463C178.397 237.8 178.331 237.785 178.27 237.756C178.21 237.727 178.156 237.684 178.113 237.631C178.07 237.579 178.039 237.517 178.022 237.45C178.004 237.384 178.001 237.314 178.013 237.246L180.475 222.329H185.674L188.136 237.246C188.148 237.314 188.145 237.384 188.128 237.451C188.11 237.518 188.079 237.58 188.036 237.632C187.993 237.685 187.94 237.728 187.879 237.757C187.818 237.786 187.752 237.802 187.686 237.802L187.678 237.8ZM185.352 214.379V218.13H180.789V214.379C180.789 214.338 180.805 214.299 180.833 214.27C180.861 214.241 180.9 214.224 180.939 214.224H185.212C185.25 214.227 185.286 214.245 185.312 214.273C185.338 214.302 185.352 214.34 185.352 214.379ZM217.715 281.578L218.525 282.864L197.74 270.114L210.933 261.221C211.533 268.479 213.863 275.471 217.715 281.573V281.578ZM217.702 272.506C222.541 273.209 227.452 273.209 232.292 272.506C231.361 274.874 230.214 277.145 228.865 279.287L224.996 285.417L221.127 279.279C219.778 277.137 218.631 274.866 217.7 272.498L217.702 272.506ZM232.276 281.578C236.13 275.474 238.46 268.48 239.059 261.221L252.252 270.116L231.466 282.859L232.276 281.578ZM244.184 214.521H249.01V221.274H246.615C245.971 221.273 245.353 221.008 244.897 220.538C244.441 220.067 244.185 219.43 244.184 218.764V214.516V214.521ZM183.621 194.774L224.911 181.217C224.964 181.199 225.021 181.199 225.074 181.217L266.363 194.774C266.395 194.779 266.424 194.79 266.451 194.808C266.478 194.825 266.5 194.848 266.518 194.875C266.536 194.901 266.548 194.932 266.554 194.964C266.559 194.995 266.559 195.028 266.551 195.06C266.536 195.278 266.416 195.299 266.327 195.316L252.676 197.715L247.551 197.061C247.015 196.992 246.475 197.147 246.049 197.49C245.623 197.833 245.347 198.336 245.281 198.889C245.215 199.443 245.364 200 245.696 200.44C246.029 200.879 246.516 201.165 247.052 201.233L250.693 201.698V210.314H199.309V201.697L220.376 199.006C223.446 198.614 226.552 198.614 229.622 199.006L237.596 200.023C237.861 200.057 238.13 200.037 238.388 199.963C238.646 199.89 238.887 199.764 239.098 199.595C239.309 199.425 239.485 199.214 239.617 198.974C239.749 198.734 239.834 198.469 239.867 198.195C239.9 197.921 239.88 197.643 239.809 197.377C239.738 197.111 239.616 196.862 239.452 196.644C239.287 196.427 239.083 196.245 238.85 196.108C238.618 195.972 238.362 195.885 238.096 195.851L230.114 194.836C226.711 194.402 223.27 194.402 219.868 194.836L197.313 197.715L183.657 195.314C183.569 195.299 183.449 195.277 183.434 195.058C183.426 195.027 183.426 194.994 183.431 194.962C183.437 194.93 183.449 194.9 183.467 194.873C183.484 194.846 183.507 194.823 183.534 194.806C183.56 194.789 183.59 194.779 183.621 194.774ZM200.975 221.269V214.516H205.808V218.76C205.808 219.09 205.745 219.417 205.622 219.722C205.499 220.026 205.32 220.303 205.093 220.536C204.867 220.77 204.598 220.954 204.302 221.08C204.006 221.206 203.69 221.27 203.37 221.269H200.966H200.975ZM205.455 235.349C205.405 234.525 205.053 233.751 204.47 233.184C203.888 232.617 203.118 232.3 202.318 232.297C201.962 232.295 201.622 232.148 201.371 231.888C201.119 231.629 200.977 231.277 200.975 230.91V225.472H203.379C205.103 225.47 206.756 224.763 207.975 223.504C209.194 222.246 209.879 220.539 209.881 218.76V214.516H240.118V218.76C240.12 220.539 240.806 222.246 242.025 223.504C243.244 224.763 244.897 225.47 246.621 225.472H249.025V230.91C249.023 231.277 248.88 231.629 248.629 231.888C248.378 232.148 248.037 232.295 247.682 232.297C246.88 232.298 246.109 232.614 245.525 233.181C244.941 233.748 244.588 234.523 244.537 235.349C244.217 240.475 242.019 245.282 238.39 248.794C234.761 252.307 229.973 254.262 224.998 254.262C220.023 254.262 215.234 252.307 211.605 248.794C207.976 245.282 205.778 240.475 205.458 235.349H205.455ZM224.996 258.479C228.508 258.479 231.975 257.667 235.142 256.102V257.435C235.142 261.001 234.68 264.551 233.769 267.991C227.97 269.102 222.022 269.102 216.223 267.991C215.312 264.551 214.85 261.001 214.85 257.435C214.85 257.39 214.85 257.346 214.841 257.303C214.841 257.294 214.841 257.286 214.841 257.276V256.102C218.011 257.669 221.481 258.482 224.996 258.482V258.479Z" fill="url(#paint1_linear_6580_74377)"/>
<defs>
<filter id="filter0_d_6580_74377" x="387.336" y="312.43" width="77.375" height="84.4531" filterUnits="userSpaceOnUse" color-interpolation-filters="sRGB">
<feFlood flood-opacity="0" result="BackgroundImageFix"/>
<feColorMatrix in="SourceAlpha" type="matrix" values="0 0 0 0 0 0 0 0 0 0 0 0 0 0 0 0 0 0 127 0" result="hardAlpha"/>
<feOffset dy="4"/>
<feGaussianBlur stdDeviation="10"/>
<feComposite in2="hardAlpha" operator="out"/>
<feColorMatrix type="matrix" values="0 0 0 0 0 0 0 0 0 0 0 0 0 0 0 0 0 0 0.2 0"/>
<feBlend mode="normal" in2="BackgroundImageFix" result="effect1_dropShadow_6580_74377"/>
<feBlend mode="normal" in="SourceGraphic" in2="effect1_dropShadow_6580_74377" result="shape"/>
</filter>
<linearGradient id="paint0_linear_6580_74377" x1="401.226" y1="333.585" x2="459.315" y2="370.533" gradientUnits="userSpaceOnUse">
<stop stop-color="#0FA76F"/>
<stop offset="1" stop-color="#0F9EA7"/>
</linearGradient>
<linearGradient id="paint1_linear_6580_74377" x1="258.33" y1="177" x2="114.723" y2="313.752" gradientUnits="userSpaceOnUse">
<stop stop-color="#15BF81"/>
<stop offset="1" stop-color="#0B6041"/>
</linearGradient>
<clipPath id="clip0_6580_74377">
<rect width="94" height="86" fill="white" transform="translate(328 389)"/>
</clipPath>
</defs>
</svg>
