<svg width="46" height="46" viewBox="0 0 46 46" fill="none" xmlns="http://www.w3.org/2000/svg">
<path d="M32.5847 23.6072L23.4542 32.6461L22.9977 33.098C22.8318 33.2628 22.6066 33.3557 22.3716 33.3563C22.1374 33.3529 21.9138 33.2593 21.7482 33.0954C21.5826 32.9314 21.488 32.71 21.4847 32.4782C21.4835 32.3628 21.506 32.2483 21.5508 32.1418C21.5957 32.0352 21.6619 31.9388 21.7455 31.8584L22.1499 31.4452L31.0586 22.5741C31.5294 22.1593 31.9125 21.6562 32.1859 21.0941C32.4593 20.5319 32.6176 19.9216 32.6515 19.2986C32.6855 18.6756 32.5945 18.052 32.3837 17.464C32.173 16.8759 31.8468 16.335 31.4238 15.8724C30.9924 15.4041 30.4695 15.0272 29.8868 14.7646C29.304 14.502 28.6735 14.3591 28.0334 14.3446C27.3933 14.3301 26.7568 14.4443 26.1626 14.6803C25.5683 14.9163 25.0286 15.2691 24.576 15.7175L14.2977 25.9444C13.7402 26.4672 13.3972 27.1755 13.3346 27.9332C13.2721 28.691 13.4942 29.445 13.9586 30.0506C14.2244 30.3622 14.5526 30.6159 14.9223 30.7959C15.2921 30.9759 15.6955 31.0782 16.1071 31.0964C16.5187 31.1146 16.9297 31.0483 17.3141 30.9016C17.6986 30.755 18.0483 30.5312 18.3412 30.2443L27.1455 21.5282C27.256 21.4188 27.3437 21.289 27.4035 21.1461C27.4633 21.0032 27.494 20.85 27.494 20.6953C27.494 20.5407 27.4633 20.3875 27.4035 20.2446C27.3437 20.1017 27.256 19.9718 27.1455 19.8625C27.0351 19.7531 26.9039 19.6663 26.7596 19.6071C26.6152 19.5479 26.4605 19.5175 26.3042 19.5175C26.148 19.5175 25.9933 19.5479 25.8489 19.6071C25.7046 19.6663 25.5734 19.7531 25.4629 19.8625L17.4933 27.7521C17.3275 27.9169 17.1023 28.0098 16.8673 28.0104C16.6331 28.007 16.4094 27.9135 16.2438 27.7495C16.0782 27.5856 15.9837 27.3642 15.9803 27.1323C15.9809 26.8997 16.0747 26.6767 16.2412 26.5125L24.0673 18.7649C24.5987 18.2174 25.3146 17.8821 26.0792 17.8226C26.8438 17.7631 27.6038 17.9835 28.2151 18.4421C28.5356 18.699 28.7981 19.0197 28.9855 19.3834C29.173 19.747 29.2813 20.1456 29.3034 20.5533C29.3256 20.961 29.261 21.3688 29.114 21.7502C28.967 22.1317 28.7407 22.4783 28.4499 22.7678L19.8151 31.2773C18.9442 32.1775 17.7598 32.7159 16.5025 32.783C15.2452 32.8502 14.0092 32.4411 13.0455 31.6389C12.572 31.2106 12.1911 30.6919 11.9257 30.1139C11.6602 29.5359 11.5159 28.9107 11.5012 28.2759C11.4866 27.6412 11.602 27.0101 11.8405 26.4207C12.0791 25.8314 12.4357 25.2959 12.889 24.8468L23.1412 14.6974C24.2998 13.5083 25.8626 12.7868 27.5274 12.6723C29.1922 12.5578 30.8407 13.0585 32.1543 14.0776C32.8507 14.6523 33.4185 15.3646 33.8213 16.1688C34.224 16.973 34.453 17.8516 34.4935 18.7483C34.534 19.6451 34.3852 20.5403 34.0565 21.377C33.7278 22.2136 33.2266 22.9731 32.5847 23.6072Z" fill="#494A4A"/>
</svg>
