<svg width="54" height="55" viewBox="0 0 54 55" fill="none" xmlns="http://www.w3.org/2000/svg">
<rect opacity="0.2" y="0.867188" width="53.1152" height="53.4836" rx="6.41803" fill="#55C5D4"/>
<path fill-rule="evenodd" clip-rule="evenodd" d="M21.5918 16.9141H31.5126C35.1255 16.9141 37.1652 18.9775 37.1758 22.6154V32.6061C37.1758 36.243 35.1255 38.3075 31.5126 38.3075H21.5918C17.9789 38.3075 15.9297 36.243 15.9297 32.6061V22.6154C15.9297 18.9775 17.9789 16.9141 21.5918 16.9141ZM26.601 33.8764C27.0589 33.8764 27.4402 33.5341 27.4827 33.0741V22.1742C27.5252 21.8426 27.3669 21.5099 27.0801 21.3291C26.7816 21.1473 26.4204 21.1473 26.1347 21.3291C25.8468 21.5099 25.6885 21.8426 25.7193 22.1742V33.0741C25.7735 33.5341 26.1549 33.8764 26.601 33.8764ZM31.4928 33.8807C31.939 33.8807 32.3203 33.5384 32.3745 33.0785V29.57C32.4053 29.2266 32.247 28.9068 31.9591 28.7249C31.6734 28.5431 31.3122 28.5431 31.0148 28.7249C30.7269 28.9068 30.5686 29.2266 30.6111 29.57V33.0785C30.6536 33.5384 31.0349 33.8807 31.4928 33.8807ZM22.5347 33.0755C22.4922 33.5354 22.1108 33.8777 21.653 33.8777C21.1962 33.8777 20.8138 33.5354 20.7723 33.0755V25.684C20.7405 25.3514 20.8987 25.0208 21.1866 24.839C21.4724 24.6571 21.8346 24.6571 22.1215 24.839C22.4072 25.0208 22.5676 25.3514 22.5347 25.684V33.0755Z" fill="#54D3E4"/>
</svg>
