<svg width="1041" height="260" viewBox="0 0 1041 260" fill="none" xmlns="http://www.w3.org/2000/svg">
<g clip-path="url(#clip0_3034_31297)">
<path d="M565.658 61.346C566.189 61.346 566.55 61.0912 566.986 60.6382C566.224 60.163 565.62 59.562 565.222 58.8828C564.838 59.2051 564.314 59.4158 563.742 59.4774C564.206 60.1901 564.858 60.8257 565.658 61.346Z" fill="#FF0B4F"/>
<path d="M555.228 183.57C554.341 183.858 553.385 184.006 552.418 184.005C552.387 184.393 552.536 184.777 552.842 185.091C553.83 185.101 554.815 184.999 555.764 184.79C555.228 184.322 555.05 184.038 555.228 183.57Z" fill="#FF0B4F"/>
<g filter="url(#filter0_f_3034_31297)">
<path d="M921.736 171.133C921.213 171.304 920.747 171.559 920.37 171.879C919.993 172.2 919.715 172.578 919.555 172.987C920.897 174.033 922.063 175.198 923.026 176.456C923.391 176.083 923.882 175.79 924.449 175.606C923.238 174.23 922.323 172.72 921.736 171.133Z" fill="#76C0FF"/>
</g>
<path d="M862.929 22.4234C864.303 21.5062 865.236 20.2778 865.585 18.9268C863.68 18.7882 861.885 18.1978 860.463 17.2422C859.12 18.0683 858.016 19.0893 857.219 20.2434C859.292 20.6895 861.231 21.4297 862.929 22.4234Z" fill="#163A76"/>
<path d="M784.834 22.1484C784.629 22.3728 784.506 22.6328 784.476 22.9032C784.446 23.1736 784.51 23.4452 784.663 23.6915C785.31 23.8976 786.028 23.9423 786.712 23.8189C786.964 23.1848 787.459 22.6192 788.134 22.1909C787.041 22.3394 785.919 22.3249 784.834 22.1484Z" fill="#FFAD3B"/>
<path d="M948.836 148.667C948.913 148.796 948.953 148.936 948.953 149.078C948.953 149.219 948.913 149.359 948.836 149.488C949.869 149.501 950.899 149.396 951.89 149.177C951.973 148.841 951.941 148.495 951.795 148.172C950.881 148.521 949.863 148.691 948.836 148.667Z" fill="#FFAD3B"/>
<path d="M748.234 28.6424C747.496 28.4525 746.695 28.4525 745.957 28.6424C745.731 29.0169 745.423 29.3613 745.047 29.6616C745.597 29.6616 745.882 29.8457 746.28 30.327C746.808 29.692 747.467 29.1234 748.234 28.6424Z" fill="#76C0FF"/>
<path d="M683.602 33.9904C684.509 34.5826 685.645 34.9444 686.845 35.0238C686.833 34.0773 687.217 33.1515 687.946 32.3766C687.13 31.7644 686.155 31.2827 685.081 30.9609C684.855 32.0327 684.353 33.0616 683.602 33.9904Z" fill="#163A76"/>
<g filter="url(#filter1_f_3034_31297)">
<path d="M1016.95 29.1053C1017.16 29.6383 1017.22 30.197 1017.12 30.7474C1018.47 30.3236 1019.89 30.0378 1021.34 29.898C1021.6 29.3877 1021.6 28.8228 1021.34 28.3125C1019.84 28.4569 1018.37 28.7227 1016.95 29.1053Z" fill="#163A76"/>
</g>
<g filter="url(#filter2_f_3034_31297)">
<path d="M975.422 164.133C977.313 164.964 978.73 166.283 979.406 167.841C981.799 165.993 983.761 163.859 985.21 161.528C983.695 160.488 981.896 159.706 979.937 159.234C978.947 161.101 977.403 162.775 975.422 164.133Z" fill="#FF1D5C"/>
</g>
<path d="M555.766 210.969C556.598 211.31 557.219 211.847 557.512 212.479C558.616 211.73 559.534 210.862 560.232 209.912C559.558 209.47 558.75 209.135 557.866 208.93C557.399 209.709 556.681 210.406 555.766 210.969Z" fill="#76C0FF"/>
<g filter="url(#filter3_f_3034_31297)">
<path d="M957.737 213.519C957.49 212.871 957.419 212.193 957.529 211.523C955.884 212.036 954.155 212.384 952.388 212.557C952.058 213.175 952.058 213.864 952.388 214.482C954.216 214.321 956.012 213.997 957.737 213.519Z" fill="#163A76"/>
</g>
<g filter="url(#filter4_f_3034_31297)">
<path d="M586.983 176.134C588.027 175.879 588.558 175.355 589.354 174.463C586.458 172.968 583.956 171.087 581.975 168.914C581.343 169.554 580.441 170.018 579.414 170.231C581.345 172.578 583.926 174.591 586.983 176.134Z" fill="#163A76"/>
</g>
<g filter="url(#filter5_f_3034_31297)">
<path d="M1006.62 242.074C1006.05 241.536 1005.33 241.098 1004.51 240.792C1003.69 240.486 1002.78 240.32 1001.86 240.305C1000.26 242.247 998.348 244.039 996.172 245.642C997.091 245.926 997.9 246.379 998.524 246.958C1000.88 245.039 1003.61 243.393 1006.62 242.074Z" fill="#FFAD3B"/>
</g>
<path d="M715.355 14.25C715.198 14.607 714.917 14.9264 714.541 15.1753C714.164 15.4242 713.705 15.5934 713.211 15.6656C714.187 16.4154 715.381 16.987 716.701 17.3361C717.131 17.2493 717.523 17.0792 717.836 16.843C718.149 16.6067 718.373 16.3129 718.485 15.9912C717.238 15.649 716.15 15.0442 715.355 14.25Z" fill="#163A76"/>
<path d="M559.479 56.9649C559.536 56.4238 559.729 55.8956 560.048 55.4077C559.712 55.2709 559.325 55.2211 558.947 55.2662C558.603 55.7549 558.359 56.28 558.227 56.8234C558.796 56.696 559.137 56.7101 559.479 56.9649Z" fill="#FFAD3B"/>
<path d="M931.412 123.047C930.922 123.699 930.582 124.407 930.406 125.142C931.042 125.232 931.699 125.188 932.303 125.015C932.3 124.548 932.507 124.094 932.891 123.726C932.59 123.709 932.299 123.639 932.041 123.52C931.784 123.402 931.568 123.24 931.412 123.047Z" fill="#FFAD3B"/>
<path d="M663.367 13.4062C663.312 13.8955 663.402 14.3879 663.632 14.848C663.861 15.3082 664.225 15.7247 664.695 16.0677C666.82 15.6449 669.004 15.4073 671.202 15.3598C670.903 14.8729 670.779 14.3362 670.842 13.8026C668.338 13.9554 665.817 13.8217 663.367 13.4062Z" fill="#76C0FF"/>
<g filter="url(#filter6_f_3034_31297)">
<path d="M655.133 98.1086C657.445 98.133 659.665 98.7709 661.377 99.9027C662.273 97.3354 662.578 94.6775 662.278 92.0374C660.155 91.7063 657.96 91.7063 655.836 92.0374C656.21 94.0743 655.97 96.1461 655.133 98.1086Z" fill="#163A76"/>
</g>
<path d="M612.574 64.482C613.636 63.0664 615.476 62.0612 620.485 60.9995C619.466 59.4203 617.798 58.1255 615.723 57.3047C612.597 58.1804 609.827 59.6432 607.68 61.5516C609.689 62.1129 611.404 63.1399 612.574 64.482Z" fill="#FF1D5C"/>
<g filter="url(#filter7_f_3034_31297)">
<path d="M914.779 148.071C916.115 147.268 917.075 146.146 917.511 144.877C915.769 144.644 914.167 143.987 912.936 143C911.623 143.713 910.519 144.633 909.695 145.7C911.573 146.224 913.301 147.029 914.779 148.071Z" fill="#163A76"/>
</g>
<g filter="url(#filter8_f_3034_31297)">
<path d="M948.77 117.826C948.755 117.273 948.554 116.733 948.188 116.257C947.822 115.781 947.302 115.386 946.679 115.109C945.311 115.324 944.079 115.891 943.188 116.717C943.746 117.998 943.826 119.374 943.417 120.688C944.931 119.465 946.752 118.491 948.77 117.826Z" fill="#76C0FF"/>
</g>
<g filter="url(#filter9_f_3034_31297)">
<path d="M945.144 50.7067C945.606 50.401 945.902 49.9791 945.977 49.5208C944.121 49.1402 942.372 48.5111 940.814 47.6641C940.647 48.0782 940.303 48.4399 939.836 48.6939C941.391 49.6436 943.202 50.3302 945.144 50.7067Z" fill="#163A76"/>
</g>
<path d="M777.081 199.24C777.897 198.839 778.552 198.281 778.978 197.626C778.673 197.242 778.196 196.952 777.631 196.805C777.222 197.457 776.561 198.004 775.734 198.376C776.036 198.427 776.317 198.532 776.552 198.683C776.786 198.833 776.968 199.025 777.081 199.24Z" fill="#76C0FF"/>
<g filter="url(#filter10_f_3034_31297)">
<path d="M564.8 235.483C565.233 237.199 564.8 238.973 563.586 240.466C567.251 240.624 570.925 240.322 574.456 239.574C574.529 237.934 574.128 236.302 573.28 234.789C571.136 235.511 568.765 235.539 564.8 235.483Z" fill="#76C0FF"/>
</g>
<path d="M507.578 201.152C508.474 202.54 509.944 203.676 511.771 204.394C513.161 204.055 514.614 203.878 516.077 203.87C515.09 203.105 515.052 202.355 515.584 200.883C512.953 201.298 510.248 201.388 507.578 201.152Z" fill="#76C0FF"/>
<path d="M710.113 210.162C710.667 209.815 711.053 209.343 711.214 208.817C710.498 208.736 709.834 208.488 709.317 208.109C708.774 208.416 708.328 208.808 708.008 209.256C708.78 209.457 709.494 209.764 710.113 210.162Z" fill="#FF1D5C"/>
<g filter="url(#filter11_f_3034_31297)">
<path d="M932.249 185.539C931.353 186.01 930.687 186.686 930.352 187.464C931.48 187.665 932.491 188.131 933.235 188.795C934.142 188.393 934.919 187.847 935.511 187.195C934.287 186.811 933.178 186.248 932.249 185.539Z" fill="#FF1D5C"/>
</g>
<path d="M712.18 223.358C712.32 223.583 712.526 223.783 712.781 223.942C713.037 224.101 713.337 224.216 713.659 224.278C714.431 223.691 715.298 223.177 716.239 222.749C715.947 222.592 715.712 222.383 715.556 222.141C714.522 222.675 713.383 223.086 712.18 223.358Z" fill="#76C0FF"/>
<path d="M828.796 127.732C828.593 127.494 828.313 127.298 827.981 127.162C827.65 127.026 827.278 126.954 826.899 126.953C826.356 127.327 825.996 127.825 825.875 128.369C826.578 128.819 827.098 129.407 827.374 130.068C827.627 129.224 828.111 128.429 828.796 127.732Z" fill="#76C0FF"/>
<path d="M667.118 106.442C667.287 106.313 667.387 106.168 667.41 106.018C667.433 105.868 667.379 105.718 667.251 105.579C666.127 105.67 664.973 105.634 663.884 105.477C664.001 105.782 663.867 106.097 663.508 106.36C664.687 106.5 665.915 106.528 667.118 106.442Z" fill="#FFAD3B"/>
<path d="M935.375 65.6579C936.94 66.5203 938.234 67.6265 939.169 68.8997C941.112 66.4402 943.5 64.1919 946.264 62.2179C945.82 60.8276 944.689 59.6139 943.096 58.8203C940.169 60.8639 937.578 63.1591 935.375 65.6579Z" fill="#76C0FF"/>
<g filter="url(#filter12_f_3034_31297)">
<path d="M511.878 9.31784C510.796 9.2329 509.734 8.83652 508.084 7.33594C507.313 8.03235 506.867 8.89692 506.812 9.79916C508.014 10.6795 509.496 11.3177 511.119 11.6536C511.023 10.8341 511.289 10.0137 511.878 9.31784Z" fill="#FF1D5C"/>
</g>
<g filter="url(#filter13_f_3034_31297)">
<path d="M1003.83 106.081C1003.68 105.834 1003.63 105.559 1003.68 105.291C1003.74 105.022 1003.89 104.771 1004.13 104.567C1003.13 104.499 1002.12 104.606 1001.17 104.878C1000.99 105.086 1000.88 105.326 1000.86 105.574C1000.84 105.823 1000.91 106.071 1001.06 106.294C1001.93 106.017 1002.9 105.943 1003.83 106.081Z" fill="#FF0B4F"/>
</g>
<g filter="url(#filter14_f_3034_31297)">
<path d="M1000.69 46.6548C1002.43 47.0795 1003.95 48.0705 1006.06 51.015C1007.66 50.089 1008.82 48.804 1009.38 47.3485C1007.83 45.5623 1005.69 44.1006 1003.17 43.1016C1002.88 44.454 1002 45.6996 1000.69 46.6548Z" fill="#FFAD3B"/>
</g>
<g filter="url(#filter15_f_3034_31297)">
<path d="M520.852 144.674C521.334 144.78 521.782 144.96 522.164 145.204C522.547 145.448 522.856 145.75 523.071 146.09C525.111 144.68 526.868 143.059 528.288 141.276C527.636 140.485 526.704 139.843 525.594 139.422C524.661 141.454 523.025 143.266 520.852 144.674Z" fill="#FF1D5C"/>
</g>
<g filter="url(#filter16_f_3034_31297)">
<path d="M1040.86 64.815C1039.99 64.4486 1038.97 64.328 1037.99 64.4752C1038.16 66.8085 1037.76 69.1453 1036.8 71.3694C1037.74 71.3519 1038.66 71.5659 1039.41 71.9781C1040.58 69.6946 1041.07 67.2521 1040.86 64.815Z" fill="#FF0B4F"/>
</g>
<g filter="url(#filter17_f_3034_31297)">
<path d="M558.361 5.83825C557.481 5.5306 556.509 5.3964 555.54 5.44844C554.57 5.50048 553.634 5.73702 552.822 6.13553C552.338 7.49414 552.478 8.93462 553.22 10.2267C555.571 10.463 557.782 11.1947 559.594 12.3361C558.603 10.2538 558.184 8.04399 558.361 5.83825Z" fill="#FF1D5C"/>
</g>
<g filter="url(#filter18_f_3034_31297)">
<path d="M622.453 8.03087C625.176 8.19141 627.896 7.69517 630.212 6.61523C630.615 5.19812 631.313 3.83679 632.28 2.58065C630.383 2.9204 629.263 2.45324 627.366 1.02344C626.244 3.541 624.585 5.90713 622.453 8.03087Z" fill="#FF0B4F"/>
</g>
<g filter="url(#filter19_f_3034_31297)">
<path d="M556.992 63.5078C556.992 64.7488 556.054 65.9357 552.977 67.932C554.456 68.771 556.272 69.2441 558.156 69.2809C559.987 67.8899 561.281 66.1787 561.908 64.3171C560.192 64.4281 558.47 64.1448 556.992 63.5078Z" fill="#FF0B4F"/>
</g>
<g filter="url(#filter20_f_3034_31297)">
<path d="M892.951 6.36659C893.423 7.91939 893.258 9.54234 892.477 11.0241C892.873 11.0285 893.263 11.0951 893.623 11.2195C893.982 11.3439 894.303 11.5233 894.563 11.746C895.562 10.1726 895.95 8.42176 895.683 6.69219C894.827 6.40353 893.884 6.2911 892.951 6.36659Z" fill="#FFAD3B"/>
</g>
<g filter="url(#filter21_f_3034_31297)">
<path d="M996.217 10.5361C996.831 9.98358 997.161 9.28587 997.147 8.56831C994.147 8.27393 991.242 7.57859 988.572 6.51562C988.436 7.1903 987.994 7.80978 987.32 8.27102C990.035 9.49222 993.069 10.2646 996.217 10.5361Z" fill="#FFAD3B"/>
</g>
<g filter="url(#filter22_f_3034_31297)">
<path d="M532.05 49.9679C530.739 49.1801 529.122 48.7284 527.44 48.6797C526.568 49.2919 525.576 49.8025 524.5 50.1944C525.6 50.5059 525.98 51.0297 526.264 52.2613C528.017 51.2714 529.97 50.4972 532.05 49.9679Z" fill="#FF1D5C"/>
</g>
<g filter="url(#filter23_f_3034_31297)">
<path d="M520.145 104.14C521.036 104.39 522 104.46 522.939 104.344C523.879 104.227 524.76 103.927 525.494 103.474C525.787 102.137 525.487 100.765 524.641 99.567C522.322 99.5006 520.078 98.9406 518.172 97.9531C519.385 99.8941 520.056 101.999 520.145 104.14Z" fill="#76C0FF"/>
</g>
<g filter="url(#filter24_f_3034_31297)">
<path d="M934.395 8.48331C935.483 6.9464 936.202 5.27903 936.519 3.55687C935.102 3.42133 933.662 3.56785 932.346 3.98157C932.39 5.07141 931.95 6.14155 931.094 7.0252C931.755 7.06958 932.394 7.22352 932.965 7.47578C933.536 7.72804 934.025 8.07225 934.395 8.48331Z" fill="#FFAD3B"/>
</g>
<path d="M595.961 136.341C597.85 138.969 600.858 141.043 604.503 142.231C605.821 139.376 608.301 136.905 611.592 135.169C609.971 132.651 607.678 130.41 604.857 128.586C602.581 131.576 599.56 134.209 595.961 136.341Z" fill="#76C0FF"/>
<path d="M906.709 118.664C905.993 119.967 904.92 121.152 903.555 122.148C904.236 122.706 905.152 123.086 906.162 123.228C907.573 122.223 908.764 121.069 909.695 119.805C908.118 119.729 907.298 119.516 906.709 118.664Z" fill="#FF1D5C"/>
<g filter="url(#filter25_f_3034_31297)">
<path d="M974.453 98.9992C975.079 100.415 976.445 101.109 978.949 101.83C980.56 99.4167 982.897 97.3138 985.778 95.6866C983.903 94.9604 982.442 93.7542 981.662 92.2891C978.66 94.1277 976.205 96.413 974.453 98.9992Z" fill="#FF0B4F"/>
</g>
</g>
<g clip-path="url(#clip1_3034_31297)">
<path d="M58.8465 61.346C59.3345 61.346 59.6657 61.0912 60.0666 60.6382C59.3661 60.163 58.8112 59.562 58.4456 58.8828C58.093 59.2051 57.6114 59.4158 57.0859 59.4774C57.512 60.1901 58.1108 60.8257 58.8465 61.346Z" fill="#FF0B4F"/>
<path d="M49.2656 183.57C48.4505 183.858 47.5716 184.006 46.6835 184.005C46.6544 184.393 46.7921 184.777 47.0729 185.091C47.9811 185.101 48.886 184.999 49.7574 184.79C49.2656 184.322 49.1016 184.038 49.2656 183.57Z" fill="#FF0B4F"/>
<g filter="url(#filter26_f_3034_31297)">
<path d="M386.036 171.133C385.555 171.304 385.126 171.559 384.78 171.879C384.434 172.2 384.178 172.578 384.031 172.987C385.265 174.033 386.336 175.198 387.221 176.456C387.557 176.083 388.008 175.79 388.529 175.606C387.416 174.23 386.575 172.72 386.036 171.133Z" fill="#76C0FF"/>
</g>
<g filter="url(#filter27_f_3034_31297)">
<path d="M246.863 134.641C247.343 134.469 247.772 134.214 248.118 133.894C248.465 133.574 248.72 133.195 248.867 132.786C247.634 131.74 246.562 130.575 245.677 129.318C245.342 129.69 244.891 129.983 244.37 130.167C245.483 131.544 246.324 133.053 246.863 134.641Z" fill="#76C0FF"/>
</g>
<g filter="url(#filter28_f_3034_31297)">
<path d="M336.402 134.641C336.882 134.469 337.311 134.214 337.657 133.894C338.004 133.574 338.259 133.195 338.406 132.786C337.173 131.74 336.101 130.575 335.216 129.318C334.881 129.69 334.43 129.983 333.909 130.167C335.022 131.544 335.863 133.053 336.402 134.641Z" fill="#76C0FF"/>
</g>
<path d="M331.997 22.4234C333.26 21.5062 334.117 20.2778 334.437 18.9268C332.687 18.7882 331.038 18.1978 329.731 17.2422C328.497 18.0683 327.483 19.0893 326.75 20.2434C328.655 20.6895 330.437 21.4297 331.997 22.4234Z" fill="#163A76"/>
<path d="M260.234 22.1484C260.046 22.3728 259.932 22.6328 259.905 22.9032C259.878 23.1736 259.937 23.4452 260.077 23.6915C260.671 23.8976 261.331 23.9423 261.959 23.8189C262.192 23.1848 262.646 22.6192 263.267 22.1909C262.262 22.3394 261.231 22.3249 260.234 22.1484Z" fill="#FFAD3B"/>
<path d="M410.938 148.667C411.009 148.796 411.045 148.936 411.045 149.078C411.045 149.219 411.009 149.359 410.938 149.488C411.887 149.501 412.833 149.396 413.744 149.177C413.82 148.841 413.79 148.495 413.657 148.172C412.816 148.521 411.881 148.691 410.938 148.667Z" fill="#FFAD3B"/>
<path d="M221.961 157.114C221.89 156.985 221.853 156.845 221.853 156.703C221.853 156.562 221.89 156.422 221.961 156.293C221.011 156.28 220.065 156.385 219.155 156.604C219.078 156.94 219.108 157.286 219.242 157.609C220.082 157.261 221.018 157.09 221.961 157.114Z" fill="#FFAD3B"/>
<path d="M311.5 157.114C311.429 156.985 311.392 156.845 311.392 156.703C311.392 156.562 311.429 156.422 311.5 156.293C310.55 156.28 309.604 156.385 308.694 156.604C308.617 156.94 308.647 157.286 308.781 157.609C309.621 157.261 310.557 157.09 311.5 157.114Z" fill="#FFAD3B"/>
<path d="M226.608 28.6424C225.93 28.4525 225.194 28.4525 224.516 28.6424C224.308 29.0169 224.025 29.3613 223.68 29.6616C224.185 29.6616 224.447 29.8457 224.813 30.327C225.298 29.692 225.904 29.1234 226.608 28.6424Z" fill="#76C0FF"/>
<path d="M167.227 33.9904C168.06 34.5826 169.104 34.9444 170.207 35.0238C170.195 34.0773 170.549 33.1515 171.218 32.3766C170.468 31.7644 169.573 31.2827 168.586 30.9609C168.379 32.0327 167.917 33.0616 167.227 33.9904Z" fill="#163A76"/>
<g filter="url(#filter29_f_3034_31297)">
<path d="M473.523 29.1053C473.712 29.6383 473.766 30.197 473.68 30.7474C474.917 30.3236 476.219 30.0378 477.55 29.898C477.792 29.3877 477.792 28.8228 477.55 28.3125C476.176 28.4569 474.826 28.7227 473.523 29.1053Z" fill="#163A76"/>
</g>
<g filter="url(#filter30_f_3034_31297)">
<path d="M435.359 164.133C437.097 164.964 438.399 166.283 439.02 167.841C441.219 165.993 443.021 163.859 444.354 161.528C442.962 160.488 441.308 159.706 439.508 159.234C438.598 161.101 437.18 162.775 435.359 164.133Z" fill="#FF1D5C"/>
</g>
<g filter="url(#filter31_f_3034_31297)">
<path d="M197.531 141.649C195.794 140.818 194.491 139.498 193.871 137.94C191.672 139.788 189.869 141.922 188.537 144.254C189.929 145.293 191.582 146.076 193.383 146.547C194.292 144.681 195.711 143.006 197.531 141.649Z" fill="#FF1D5C"/>
</g>
<g filter="url(#filter32_f_3034_31297)">
<path d="M287.07 141.649C285.333 140.818 284.03 139.498 283.41 137.94C281.211 139.788 279.408 141.922 278.076 144.254C279.468 145.293 281.121 146.076 282.922 146.547C283.832 144.681 285.25 143.006 287.07 141.649Z" fill="#FF1D5C"/>
</g>
<path d="M49.7578 210.969C50.5226 211.31 51.0934 211.847 51.3627 212.479C52.3769 211.73 53.2208 210.862 53.8615 209.912C53.2421 209.47 52.5001 209.135 51.6877 208.93C51.2586 209.709 50.5989 210.406 49.7578 210.969Z" fill="#76C0FF"/>
<g filter="url(#filter33_f_3034_31297)">
<path d="M419.119 213.519C418.892 212.871 418.826 212.193 418.927 211.523C417.416 212.036 415.828 212.384 414.204 212.557C413.901 213.175 413.901 213.864 414.204 214.482C415.883 214.321 417.533 213.997 419.119 213.519Z" fill="#163A76"/>
</g>
<g filter="url(#filter34_f_3034_31297)">
<path d="M213.779 92.2618C214.007 92.91 214.072 93.5887 213.971 94.2578C215.482 93.745 217.071 93.3975 218.695 93.2244C218.998 92.6062 218.998 91.9173 218.695 91.2991C217.015 91.4606 215.365 91.7838 213.779 92.2618Z" fill="#163A76"/>
</g>
<g filter="url(#filter35_f_3034_31297)">
<path d="M303.318 92.2618C303.546 92.91 303.611 93.5887 303.51 94.2578C305.021 93.745 306.61 93.3975 308.234 93.2244C308.537 92.6062 308.537 91.9173 308.234 91.2991C306.554 91.4606 304.904 91.7838 303.318 92.2618Z" fill="#163A76"/>
</g>
<g filter="url(#filter36_f_3034_31297)">
<path d="M78.4394 176.134C79.3981 175.879 79.8862 175.355 80.6183 174.463C77.9567 172.968 75.6579 171.087 73.8376 168.914C73.2567 169.554 72.4281 170.018 71.4844 170.231C73.2586 172.578 75.6298 174.591 78.4394 176.134Z" fill="#163A76"/>
</g>
<g filter="url(#filter37_f_3034_31297)">
<path d="M464.034 242.074C463.51 241.536 462.847 241.098 462.09 240.792C461.334 240.486 460.504 240.32 459.659 240.305C458.185 242.247 456.429 244.039 454.43 245.642C455.275 245.926 456.018 246.379 456.591 246.958C458.76 245.039 461.268 243.393 464.034 242.074Z" fill="#FFAD3B"/>
</g>
<g filter="url(#filter38_f_3034_31297)">
<path d="M168.864 63.707C169.388 64.2455 170.052 64.6834 170.808 64.9893C171.564 65.2952 172.395 65.4616 173.239 65.4766C174.714 63.5344 176.469 61.7426 178.469 60.1396C177.624 59.8549 176.881 59.4021 176.307 58.823C174.139 60.7421 171.63 62.3882 168.864 63.707Z" fill="#FFAD3B"/>
</g>
<g filter="url(#filter39_f_3034_31297)">
<path d="M258.396 63.707C258.919 64.2455 259.583 64.6834 260.339 64.9893C261.096 65.2952 261.926 65.4616 262.771 65.4766C264.245 63.5344 266.001 61.7426 268 60.1396C267.155 59.8549 266.412 59.4021 265.839 58.823C263.67 60.7421 261.161 62.3882 258.396 63.707Z" fill="#FFAD3B"/>
</g>
<path d="M196.399 14.25C196.256 14.607 195.998 14.9264 195.652 15.1753C195.305 15.4242 194.883 15.5934 194.43 15.6656C195.326 16.4154 196.424 16.987 197.637 17.3361C198.032 17.2493 198.392 17.0792 198.679 16.843C198.967 16.6067 199.173 16.3129 199.276 15.9912C198.13 15.649 197.13 15.0442 196.399 14.25Z" fill="#163A76"/>
<path d="M53.1661 56.9649C53.2187 56.4238 53.3961 55.8956 53.689 55.4077C53.3806 55.2709 53.025 55.2211 52.678 55.2662C52.3611 55.7549 52.1377 56.28 52.0156 56.8234C52.5386 56.696 52.8523 56.7101 53.1661 56.9649Z" fill="#FFAD3B"/>
<path d="M394.924 123.047C394.474 123.699 394.162 124.407 394 125.142C394.584 125.232 395.188 125.188 395.743 125.015C395.74 124.548 395.931 124.094 396.283 123.726C396.007 123.709 395.739 123.639 395.502 123.52C395.266 123.402 395.067 123.24 394.924 123.047Z" fill="#FFAD3B"/>
<path d="M237.975 182.734C238.424 182.083 238.737 181.375 238.898 180.639C238.314 180.55 237.711 180.594 237.155 180.767C237.158 181.233 236.968 181.687 236.615 182.055C236.892 182.072 237.16 182.143 237.396 182.261C237.633 182.379 237.831 182.541 237.975 182.734Z" fill="#FFAD3B"/>
<path d="M327.514 182.734C327.963 182.083 328.276 181.375 328.438 180.639C327.853 180.55 327.25 180.594 326.694 180.767C326.697 181.233 326.507 181.687 326.154 182.055C326.431 182.072 326.699 182.143 326.935 182.261C327.172 182.379 327.37 182.541 327.514 182.734Z" fill="#FFAD3B"/>
<path d="M148.624 13.4062C148.573 13.8955 148.656 14.3879 148.867 14.848C149.078 15.3082 149.412 15.7247 149.844 16.0677C151.797 15.6449 153.803 15.4073 155.823 15.3598C155.548 14.8729 155.434 14.3362 155.492 13.8026C153.191 13.9554 150.875 13.8217 148.624 13.4062Z" fill="#76C0FF"/>
<g filter="url(#filter40_f_3034_31297)">
<path d="M141.062 98.1086C143.187 98.133 145.227 98.7709 146.8 99.9027C147.624 97.3354 147.904 94.6775 147.628 92.0374C145.677 91.7063 143.66 91.7063 141.709 92.0374C142.052 94.0743 141.832 96.1461 141.062 98.1086Z" fill="#163A76"/>
</g>
<path d="M101.958 64.482C102.934 63.0664 104.625 62.0612 109.227 60.9995C108.291 59.4203 106.758 58.1255 104.852 57.3047C101.979 58.1804 99.4336 59.6432 97.4609 61.5516C99.3072 62.1129 100.883 63.1399 101.958 64.482Z" fill="#FF1D5C"/>
<g filter="url(#filter41_f_3034_31297)">
<path d="M379.64 148.071C380.867 147.268 381.75 146.146 382.15 144.877C380.549 144.644 379.077 143.987 377.946 143C376.74 143.713 375.726 144.633 374.969 145.7C376.694 146.224 378.282 147.029 379.64 148.071Z" fill="#163A76"/>
</g>
<g filter="url(#filter42_f_3034_31297)">
<path d="M253.259 157.702C252.031 158.506 251.149 159.628 250.748 160.896C252.349 161.13 253.821 161.787 254.952 162.773C256.158 162.061 257.173 161.141 257.93 160.073C256.204 159.55 254.617 158.744 253.259 157.702Z" fill="#163A76"/>
</g>
<g filter="url(#filter43_f_3034_31297)">
<path d="M342.798 157.702C341.57 158.506 340.688 159.628 340.287 160.896C341.888 161.13 343.36 161.787 344.491 162.773C345.697 162.061 346.712 161.141 347.469 160.073C345.743 159.55 344.156 158.744 342.798 157.702Z" fill="#163A76"/>
</g>
<g filter="url(#filter44_f_3034_31297)">
<path d="M410.88 117.826C410.866 117.273 410.681 116.733 410.345 116.257C410.008 115.781 409.531 115.386 408.958 115.109C407.701 115.324 406.569 115.891 405.75 116.717C406.263 117.998 406.336 119.374 405.961 120.688C407.352 119.465 409.025 118.491 410.88 117.826Z" fill="#76C0FF"/>
</g>
<g filter="url(#filter45_f_3034_31297)">
<path d="M222.019 187.955C222.033 188.508 222.217 189.048 222.554 189.524C222.89 190 223.368 190.396 223.94 190.672C225.197 190.458 226.329 189.89 227.148 189.064C226.635 187.783 226.562 186.408 226.937 185.094C225.546 186.316 223.873 187.29 222.019 187.955Z" fill="#76C0FF"/>
</g>
<g filter="url(#filter46_f_3034_31297)">
<path d="M311.558 187.955C311.572 188.508 311.756 189.048 312.093 189.524C312.429 190 312.907 190.396 313.479 190.672C314.736 190.458 315.868 189.89 316.688 189.064C316.174 187.783 316.101 186.408 316.476 185.094C315.085 186.316 313.412 187.29 311.558 187.955Z" fill="#76C0FF"/>
</g>
<g filter="url(#filter47_f_3034_31297)">
<path d="M407.549 50.7067C407.974 50.401 408.246 49.9791 408.314 49.5208C406.609 49.1402 405.002 48.5111 403.571 47.6641C403.417 48.0782 403.101 48.4399 402.672 48.6939C404.101 49.6436 405.765 50.3302 407.549 50.7067Z" fill="#163A76"/>
</g>
<path d="M253.12 199.24C253.87 198.839 254.472 198.281 254.864 197.626C254.583 197.242 254.145 196.952 253.626 196.805C253.249 197.457 252.643 198.004 251.883 198.376C252.16 198.427 252.418 198.532 252.634 198.683C252.849 198.833 253.017 199.025 253.12 199.24Z" fill="#76C0FF"/>
<g filter="url(#filter48_f_3034_31297)">
<path d="M58.0531 235.483C58.4507 237.199 58.0534 238.973 56.9375 240.466C60.3048 240.624 63.6809 240.322 66.9255 239.574C66.993 237.934 66.6244 236.302 65.8448 234.789C63.8751 235.511 61.6962 235.539 58.0531 235.483Z" fill="#76C0FF"/>
</g>
<path d="M5.47656 201.152C6.29997 202.54 7.65035 203.676 9.32884 204.394C10.6067 204.055 11.9414 203.878 13.2857 203.87C12.3793 203.105 12.3444 202.355 12.8325 200.883C10.415 201.298 7.9302 201.388 5.47656 201.152Z" fill="#76C0FF"/>
<path d="M191.575 210.162C192.084 209.815 192.439 209.343 192.586 208.817C191.928 208.736 191.319 208.488 190.843 208.109C190.345 208.416 189.935 208.808 189.641 209.256C190.35 209.457 191.006 209.764 191.575 210.162Z" fill="#FF1D5C"/>
<g filter="url(#filter49_f_3034_31297)">
<path d="M395.688 185.539C394.865 186.01 394.254 186.686 393.945 187.464C394.982 187.665 395.911 188.131 396.595 188.795C397.428 188.393 398.142 187.847 398.687 187.195C397.561 186.811 396.542 186.248 395.688 185.539Z" fill="#FF1D5C"/>
</g>
<g filter="url(#filter50_f_3034_31297)">
<path d="M237.202 120.242C238.025 119.771 238.637 119.095 238.945 118.317C237.909 118.116 236.98 117.65 236.296 116.986C235.463 117.388 234.748 117.935 234.204 118.586C235.329 118.97 236.349 119.534 237.202 120.242Z" fill="#FF1D5C"/>
</g>
<g filter="url(#filter51_f_3034_31297)">
<path d="M326.741 120.242C327.564 119.771 328.176 119.095 328.484 118.317C327.448 118.116 326.519 117.65 325.835 116.986C325.002 117.388 324.287 117.935 323.743 118.586C324.868 118.97 325.888 119.534 326.741 120.242Z" fill="#FF1D5C"/>
</g>
<path d="M193.484 223.358C193.613 223.583 193.802 223.783 194.037 223.942C194.272 224.101 194.548 224.216 194.844 224.278C195.553 223.691 196.349 223.177 197.215 222.749C196.946 222.592 196.73 222.383 196.587 222.141C195.637 222.675 194.59 223.086 193.484 223.358Z" fill="#76C0FF"/>
<path d="M300.638 127.732C300.451 127.494 300.193 127.298 299.888 127.162C299.584 127.026 299.242 126.954 298.894 126.953C298.395 127.327 298.064 127.825 297.953 128.369C298.6 128.819 299.077 129.407 299.33 130.068C299.563 129.224 300.008 128.429 300.638 127.732Z" fill="#76C0FF"/>
<path d="M152.076 106.442C152.231 106.313 152.322 106.168 152.344 106.018C152.365 105.868 152.315 105.718 152.198 105.579C151.165 105.67 150.104 105.634 149.104 105.477C149.211 105.782 149.088 106.097 148.758 106.36C149.841 106.5 150.97 106.528 152.076 106.442Z" fill="#FFAD3B"/>
<path d="M398.562 65.6579C400 66.5203 401.19 67.6265 402.049 68.8997C403.834 66.4402 406.028 64.1919 408.568 62.2179C408.16 60.8276 407.12 59.6139 405.657 58.8203C402.968 60.8639 400.586 63.1591 398.562 65.6579Z" fill="#76C0FF"/>
<path d="M234.328 240.116C232.89 239.253 231.701 238.147 230.842 236.874C229.056 239.333 226.863 241.582 224.323 243.556C224.73 244.946 225.77 246.16 227.234 246.953C229.923 244.91 232.304 242.614 234.328 240.116Z" fill="#76C0FF"/>
<path d="M323.867 240.116C322.429 239.253 321.24 238.147 320.381 236.874C318.595 239.333 316.402 241.582 313.862 243.556C314.269 244.946 315.309 246.16 316.773 246.953C319.462 244.91 321.843 242.614 323.867 240.116Z" fill="#76C0FF"/>
<g filter="url(#filter52_f_3034_31297)">
<path d="M9.42754 9.31784C8.43397 9.2329 7.45783 8.83652 5.94132 7.33594C5.23326 8.03235 4.82334 8.89692 4.77344 9.79916C5.87767 10.6795 7.23921 11.3177 8.7303 11.6536C8.6423 10.8341 8.8872 10.0137 9.42754 9.31784Z" fill="#FF1D5C"/>
</g>
<g filter="url(#filter53_f_3034_31297)">
<path d="M461.472 106.081C461.335 105.834 461.288 105.559 461.337 105.291C461.387 105.022 461.53 104.771 461.751 104.567C460.827 104.499 459.897 104.606 459.032 104.878C458.862 105.086 458.764 105.326 458.745 105.574C458.727 105.823 458.79 106.071 458.927 106.294C459.73 106.017 460.617 105.943 461.472 106.081Z" fill="#FF0B4F"/>
</g>
<g filter="url(#filter54_f_3034_31297)">
<path d="M171.426 199.7C171.564 199.948 171.61 200.222 171.561 200.491C171.512 200.759 171.368 201.011 171.148 201.215C172.071 201.282 173.002 201.176 173.867 200.903C174.036 200.696 174.135 200.455 174.153 200.207C174.171 199.958 174.109 199.71 173.971 199.488C173.169 199.764 172.282 199.838 171.426 199.7Z" fill="#FF0B4F"/>
</g>
<g filter="url(#filter55_f_3034_31297)">
<path d="M260.965 199.7C261.103 199.948 261.15 200.222 261.1 200.491C261.051 200.759 260.907 201.011 260.687 201.215C261.61 201.282 262.541 201.176 263.406 200.903C263.575 200.696 263.674 200.455 263.692 200.207C263.711 199.958 263.648 199.71 263.51 199.488C262.708 199.764 261.821 199.838 260.965 199.7Z" fill="#FF0B4F"/>
</g>
<g filter="url(#filter56_f_3034_31297)">
<path d="M458.578 46.6548C460.182 47.0795 461.576 48.0705 463.511 51.015C464.984 50.089 466.053 48.804 466.562 47.3485C465.137 45.5623 463.175 44.1006 460.862 43.1016C460.589 44.454 459.788 45.6996 458.578 46.6548Z" fill="#FFAD3B"/>
</g>
<g filter="url(#filter57_f_3034_31297)">
<path d="M17.6797 144.674C18.1234 144.78 18.5345 144.96 18.886 145.204C19.2375 145.448 19.5214 145.75 19.7191 146.09C21.5932 144.68 23.2076 143.059 24.5127 141.276C23.9139 140.485 23.0572 139.843 22.0375 139.422C21.1801 141.454 19.6767 143.266 17.6797 144.674Z" fill="#FF1D5C"/>
</g>
<g filter="url(#filter58_f_3034_31297)">
<path d="M495.496 64.8072C494.697 64.4408 493.763 64.3202 492.864 64.4674C493.021 66.8007 492.648 69.1375 491.766 71.3616C492.628 71.3441 493.474 71.5581 494.171 71.9703C495.237 69.6868 495.689 67.2443 495.496 64.8072Z" fill="#FF0B4F"/>
</g>
<g filter="url(#filter59_f_3034_31297)">
<path d="M137.403 240.966C138.201 241.333 139.136 241.453 140.035 241.306C139.878 238.973 140.25 236.636 141.133 234.412C140.27 234.429 139.425 234.215 138.727 233.803C137.661 236.087 137.209 238.529 137.403 240.966Z" fill="#FF0B4F"/>
</g>
<g filter="url(#filter60_f_3034_31297)">
<path d="M226.942 240.966C227.74 241.333 228.675 241.453 229.574 241.306C229.417 238.973 229.789 236.636 230.672 234.412C229.809 234.429 228.964 234.215 228.266 233.803C227.2 236.087 226.748 238.529 226.942 240.966Z" fill="#FF0B4F"/>
</g>
<g filter="url(#filter61_f_3034_31297)">
<path d="M52.1466 5.83825C51.3376 5.5306 50.445 5.3964 49.554 5.44844C48.663 5.50048 47.8032 5.73702 47.0567 6.13553C46.612 7.49414 46.7408 8.93462 47.4228 10.2267C49.5824 10.463 51.6142 11.1947 53.2796 12.3361C52.3689 10.2538 51.9835 8.04399 52.1466 5.83825Z" fill="#FF1D5C"/>
</g>
<g filter="url(#filter62_f_3034_31297)">
<path d="M111.039 8.03087C113.541 8.19141 116.04 7.69517 118.168 6.61523C118.539 5.19812 119.18 3.83679 120.068 2.58065C118.325 2.9204 117.297 2.45324 115.554 1.02344C114.522 3.541 112.998 5.90713 111.039 8.03087Z" fill="#FF0B4F"/>
</g>
<g filter="url(#filter63_f_3034_31297)">
<path d="M50.8851 63.5078C50.8851 64.7488 50.023 65.9357 47.1953 67.932C48.5544 68.771 50.2235 69.2441 51.9542 69.2809C53.6374 67.8899 54.8262 66.1787 55.4026 64.3171C53.8252 64.4281 52.2435 64.1448 50.8851 63.5078Z" fill="#FF0B4F"/>
</g>
<g filter="url(#filter64_f_3034_31297)">
<path d="M359.584 6.35878C360.018 7.91158 359.866 9.53453 359.148 11.0162C359.512 11.0207 359.871 11.0873 360.202 11.2117C360.532 11.3361 360.826 11.5155 361.066 11.7382C361.983 10.1648 362.34 8.41394 362.094 6.68438C361.308 6.39572 360.442 6.28329 359.584 6.35878Z" fill="#FFAD3B"/>
</g>
<g filter="url(#filter65_f_3034_31297)">
<path d="M454.48 10.5361C455.044 9.98358 455.347 9.28587 455.334 8.56831C452.577 8.27393 449.908 7.57859 447.455 6.51562C447.33 7.1903 446.924 7.80978 446.305 8.27102C448.799 9.49222 451.587 10.2646 454.48 10.5361Z" fill="#FFAD3B"/>
</g>
<g filter="url(#filter66_f_3034_31297)">
<path d="M27.9688 49.9679C26.764 49.1801 25.2787 48.7284 23.733 48.6797C22.9312 49.2919 22.0204 49.8025 21.0312 50.1944C22.0423 50.5059 22.3909 51.0297 22.6523 52.2613C24.2625 51.2714 26.0574 50.4972 27.9688 49.9679Z" fill="#FF1D5C"/>
</g>
<g filter="url(#filter67_f_3034_31297)">
<path d="M17.0238 104.14C17.8427 104.39 18.7285 104.46 19.5917 104.344C20.4549 104.227 21.2647 103.927 21.9393 103.474C22.208 102.137 21.9326 100.765 21.1549 99.567C19.0246 99.5006 16.9621 98.9406 15.2109 97.9531C16.3253 99.8941 16.942 101.999 17.0238 104.14Z" fill="#76C0FF"/>
</g>
<g filter="url(#filter68_f_3034_31297)">
<path d="M397.674 8.48331C398.674 6.9464 399.335 5.27903 399.626 3.55687C398.324 3.42133 397.001 3.56785 395.791 3.98157C395.832 5.07141 395.427 6.14155 394.641 7.0252C395.248 7.06958 395.835 7.22352 396.36 7.47578C396.885 7.72804 397.334 8.07225 397.674 8.48331Z" fill="#FFAD3B"/>
</g>
<path d="M86.6875 136.341C88.4232 138.969 91.1874 141.043 94.5365 142.231C95.7475 139.376 98.0265 136.905 101.05 135.169C99.5605 132.651 97.4543 130.41 94.8622 128.586C92.7703 131.576 89.995 134.209 86.6875 136.341Z" fill="#76C0FF"/>
<path d="M372.227 118.664C371.569 119.967 370.583 121.152 369.328 122.148C369.954 122.706 370.796 123.086 371.724 123.228C373.02 122.223 374.115 121.069 374.971 119.805C373.521 119.729 372.768 119.516 372.227 118.664Z" fill="#FF1D5C"/>
<path d="M260.672 187.117C261.33 185.814 262.316 184.629 263.57 183.633C262.945 183.075 262.102 182.696 261.174 182.553C259.878 183.558 258.784 184.713 257.928 185.976C259.377 186.052 260.131 186.265 260.672 187.117Z" fill="#FF1D5C"/>
<path d="M350.211 187.117C350.869 185.814 351.855 184.629 353.109 183.633C352.484 183.075 351.641 182.696 350.713 182.553C349.418 183.558 348.323 184.713 347.467 185.976C348.916 186.052 349.67 186.265 350.211 187.117Z" fill="#FF1D5C"/>
<g filter="url(#filter69_f_3034_31297)">
<path d="M434.469 98.9992C435.044 100.415 436.299 101.109 438.6 101.83C440.08 99.4167 442.228 97.3138 444.875 95.6866C443.152 94.9604 441.809 93.7542 441.093 92.2891C438.335 94.1277 436.079 96.413 434.469 98.9992Z" fill="#FF0B4F"/>
</g>
<g filter="url(#filter70_f_3034_31297)">
<path d="M198.422 206.774C197.847 205.359 196.592 204.665 194.291 203.943C192.811 206.357 190.663 208.46 188.015 210.087C189.738 210.813 191.081 212.019 191.798 213.484C194.556 211.646 196.812 209.36 198.422 206.774Z" fill="#FF0B4F"/>
</g>
<g filter="url(#filter71_f_3034_31297)">
<path d="M287.961 206.774C287.386 205.359 286.131 204.665 283.83 203.943C282.35 206.357 280.202 208.46 277.555 210.087C279.277 210.813 280.62 212.019 281.337 213.484C284.095 211.646 286.351 209.36 287.961 206.774Z" fill="#FF0B4F"/>
</g>
</g>
<defs>
<filter id="filter0_f_3034_31297" x="915.485" y="167.063" width="13.0305" height="13.4602" filterUnits="userSpaceOnUse" color-interpolation-filters="sRGB">
<feFlood flood-opacity="0" result="BackgroundImageFix"/>
<feBlend mode="normal" in="SourceGraphic" in2="BackgroundImageFix" result="shape"/>
<feGaussianBlur stdDeviation="2.03496" result="effect1_foregroundBlur_3034_31297"/>
</filter>
<filter id="filter1_f_3034_31297" x="1012.88" y="24.2426" width="12.718" height="10.5774" filterUnits="userSpaceOnUse" color-interpolation-filters="sRGB">
<feFlood flood-opacity="0" result="BackgroundImageFix"/>
<feBlend mode="normal" in="SourceGraphic" in2="BackgroundImageFix" result="shape"/>
<feGaussianBlur stdDeviation="2.03496" result="effect1_foregroundBlur_3034_31297"/>
</filter>
<filter id="filter2_f_3034_31297" x="971.352" y="155.164" width="17.9289" height="16.7492" filterUnits="userSpaceOnUse" color-interpolation-filters="sRGB">
<feFlood flood-opacity="0" result="BackgroundImageFix"/>
<feBlend mode="normal" in="SourceGraphic" in2="BackgroundImageFix" result="shape"/>
<feGaussianBlur stdDeviation="2.03496" result="effect1_foregroundBlur_3034_31297"/>
</filter>
<filter id="filter3_f_3034_31297" x="948.071" y="207.454" width="13.7336" height="11.1008" filterUnits="userSpaceOnUse" color-interpolation-filters="sRGB">
<feFlood flood-opacity="0" result="BackgroundImageFix"/>
<feBlend mode="normal" in="SourceGraphic" in2="BackgroundImageFix" result="shape"/>
<feGaussianBlur stdDeviation="2.03496" result="effect1_foregroundBlur_3034_31297"/>
</filter>
<filter id="filter4_f_3034_31297" x="575.344" y="164.844" width="18.0774" height="15.3586" filterUnits="userSpaceOnUse" color-interpolation-filters="sRGB">
<feFlood flood-opacity="0" result="BackgroundImageFix"/>
<feBlend mode="normal" in="SourceGraphic" in2="BackgroundImageFix" result="shape"/>
<feGaussianBlur stdDeviation="2.03496" result="effect1_foregroundBlur_3034_31297"/>
</filter>
<filter id="filter5_f_3034_31297" x="992.102" y="236.235" width="18.593" height="14.7961" filterUnits="userSpaceOnUse" color-interpolation-filters="sRGB">
<feFlood flood-opacity="0" result="BackgroundImageFix"/>
<feBlend mode="normal" in="SourceGraphic" in2="BackgroundImageFix" result="shape"/>
<feGaussianBlur stdDeviation="2.03496" result="effect1_foregroundBlur_3034_31297"/>
</filter>
<filter id="filter6_f_3034_31297" x="651.063" y="87.7191" width="15.3977" height="16.257" filterUnits="userSpaceOnUse" color-interpolation-filters="sRGB">
<feFlood flood-opacity="0" result="BackgroundImageFix"/>
<feBlend mode="normal" in="SourceGraphic" in2="BackgroundImageFix" result="shape"/>
<feGaussianBlur stdDeviation="2.03496" result="effect1_foregroundBlur_3034_31297"/>
</filter>
<filter id="filter7_f_3034_31297" x="905.625" y="138.93" width="15.9524" height="13.2102" filterUnits="userSpaceOnUse" color-interpolation-filters="sRGB">
<feFlood flood-opacity="0" result="BackgroundImageFix"/>
<feBlend mode="normal" in="SourceGraphic" in2="BackgroundImageFix" result="shape"/>
<feGaussianBlur stdDeviation="2.03496" result="effect1_foregroundBlur_3034_31297"/>
</filter>
<filter id="filter8_f_3034_31297" x="939.118" y="111.039" width="13.7258" height="13.718" filterUnits="userSpaceOnUse" color-interpolation-filters="sRGB">
<feFlood flood-opacity="0" result="BackgroundImageFix"/>
<feBlend mode="normal" in="SourceGraphic" in2="BackgroundImageFix" result="shape"/>
<feGaussianBlur stdDeviation="2.03496" result="effect1_foregroundBlur_3034_31297"/>
</filter>
<filter id="filter9_f_3034_31297" x="935.766" y="43.5941" width="14.2805" height="11.1789" filterUnits="userSpaceOnUse" color-interpolation-filters="sRGB">
<feFlood flood-opacity="0" result="BackgroundImageFix"/>
<feBlend mode="normal" in="SourceGraphic" in2="BackgroundImageFix" result="shape"/>
<feGaussianBlur stdDeviation="2.03496" result="effect1_foregroundBlur_3034_31297"/>
</filter>
<filter id="filter10_f_3034_31297" x="559.516" y="230.719" width="19.0149" height="13.8586" filterUnits="userSpaceOnUse" color-interpolation-filters="sRGB">
<feFlood flood-opacity="0" result="BackgroundImageFix"/>
<feBlend mode="normal" in="SourceGraphic" in2="BackgroundImageFix" result="shape"/>
<feGaussianBlur stdDeviation="2.03496" result="effect1_foregroundBlur_3034_31297"/>
</filter>
<filter id="filter11_f_3034_31297" x="926.282" y="181.469" width="13.2961" height="11.3977" filterUnits="userSpaceOnUse" color-interpolation-filters="sRGB">
<feFlood flood-opacity="0" result="BackgroundImageFix"/>
<feBlend mode="normal" in="SourceGraphic" in2="BackgroundImageFix" result="shape"/>
<feGaussianBlur stdDeviation="2.03496" result="effect1_foregroundBlur_3034_31297"/>
</filter>
<filter id="filter12_f_3034_31297" x="502.743" y="3.26601" width="13.2024" height="12.4602" filterUnits="userSpaceOnUse" color-interpolation-filters="sRGB">
<feFlood flood-opacity="0" result="BackgroundImageFix"/>
<feBlend mode="normal" in="SourceGraphic" in2="BackgroundImageFix" result="shape"/>
<feGaussianBlur stdDeviation="2.03496" result="effect1_foregroundBlur_3034_31297"/>
</filter>
<filter id="filter13_f_3034_31297" x="996.789" y="100.477" width="11.4133" height="9.88986" filterUnits="userSpaceOnUse" color-interpolation-filters="sRGB">
<feFlood flood-opacity="0" result="BackgroundImageFix"/>
<feBlend mode="normal" in="SourceGraphic" in2="BackgroundImageFix" result="shape"/>
<feGaussianBlur stdDeviation="2.03496" result="effect1_foregroundBlur_3034_31297"/>
</filter>
<filter id="filter14_f_3034_31297" x="996.618" y="39.0316" width="16.8274" height="16.0539" filterUnits="userSpaceOnUse" color-interpolation-filters="sRGB">
<feFlood flood-opacity="0" result="BackgroundImageFix"/>
<feBlend mode="normal" in="SourceGraphic" in2="BackgroundImageFix" result="shape"/>
<feGaussianBlur stdDeviation="2.03496" result="effect1_foregroundBlur_3034_31297"/>
</filter>
<filter id="filter15_f_3034_31297" x="516.782" y="135.352" width="15.5774" height="14.8039" filterUnits="userSpaceOnUse" color-interpolation-filters="sRGB">
<feFlood flood-opacity="0" result="BackgroundImageFix"/>
<feBlend mode="normal" in="SourceGraphic" in2="BackgroundImageFix" result="shape"/>
<feGaussianBlur stdDeviation="2.03496" result="effect1_foregroundBlur_3034_31297"/>
</filter>
<filter id="filter16_f_3034_31297" x="1032.73" y="60.3441" width="12.2492" height="15.7024" filterUnits="userSpaceOnUse" color-interpolation-filters="sRGB">
<feFlood flood-opacity="0" result="BackgroundImageFix"/>
<feBlend mode="normal" in="SourceGraphic" in2="BackgroundImageFix" result="shape"/>
<feGaussianBlur stdDeviation="2.03496" result="effect1_foregroundBlur_3034_31297"/>
</filter>
<filter id="filter17_f_3034_31297" x="548.469" y="1.36757" width="15.1945" height="15.0383" filterUnits="userSpaceOnUse" color-interpolation-filters="sRGB">
<feFlood flood-opacity="0" result="BackgroundImageFix"/>
<feBlend mode="normal" in="SourceGraphic" in2="BackgroundImageFix" result="shape"/>
<feGaussianBlur stdDeviation="2.03496" result="effect1_foregroundBlur_3034_31297"/>
</filter>
<filter id="filter18_f_3034_31297" x="618.383" y="-3.04649" width="17.968" height="15.1789" filterUnits="userSpaceOnUse" color-interpolation-filters="sRGB">
<feFlood flood-opacity="0" result="BackgroundImageFix"/>
<feBlend mode="normal" in="SourceGraphic" in2="BackgroundImageFix" result="shape"/>
<feGaussianBlur stdDeviation="2.03496" result="effect1_foregroundBlur_3034_31297"/>
</filter>
<filter id="filter19_f_3034_31297" x="548.907" y="59.4379" width="17.0695" height="13.9133" filterUnits="userSpaceOnUse" color-interpolation-filters="sRGB">
<feFlood flood-opacity="0" result="BackgroundImageFix"/>
<feBlend mode="normal" in="SourceGraphic" in2="BackgroundImageFix" result="shape"/>
<feGaussianBlur stdDeviation="2.03496" result="effect1_foregroundBlur_3034_31297"/>
</filter>
<filter id="filter20_f_3034_31297" x="888.407" y="2.27382" width="11.4289" height="13.5383" filterUnits="userSpaceOnUse" color-interpolation-filters="sRGB">
<feFlood flood-opacity="0" result="BackgroundImageFix"/>
<feBlend mode="normal" in="SourceGraphic" in2="BackgroundImageFix" result="shape"/>
<feGaussianBlur stdDeviation="2.03496" result="effect1_foregroundBlur_3034_31297"/>
</filter>
<filter id="filter21_f_3034_31297" x="983.25" y="2.4457" width="17.968" height="12.1633" filterUnits="userSpaceOnUse" color-interpolation-filters="sRGB">
<feFlood flood-opacity="0" result="BackgroundImageFix"/>
<feBlend mode="normal" in="SourceGraphic" in2="BackgroundImageFix" result="shape"/>
<feGaussianBlur stdDeviation="2.03496" result="effect1_foregroundBlur_3034_31297"/>
</filter>
<filter id="filter22_f_3034_31297" x="520.43" y="44.6098" width="15.6867" height="11.718" filterUnits="userSpaceOnUse" color-interpolation-filters="sRGB">
<feFlood flood-opacity="0" result="BackgroundImageFix"/>
<feBlend mode="normal" in="SourceGraphic" in2="BackgroundImageFix" result="shape"/>
<feGaussianBlur stdDeviation="2.03496" result="effect1_foregroundBlur_3034_31297"/>
</filter>
<filter id="filter23_f_3034_31297" x="514.102" y="93.8832" width="15.5695" height="14.5852" filterUnits="userSpaceOnUse" color-interpolation-filters="sRGB">
<feFlood flood-opacity="0" result="BackgroundImageFix"/>
<feBlend mode="normal" in="SourceGraphic" in2="BackgroundImageFix" result="shape"/>
<feGaussianBlur stdDeviation="2.03496" result="effect1_foregroundBlur_3034_31297"/>
</filter>
<filter id="filter24_f_3034_31297" x="927.024" y="-0.562116" width="13.5617" height="13.1164" filterUnits="userSpaceOnUse" color-interpolation-filters="sRGB">
<feFlood flood-opacity="0" result="BackgroundImageFix"/>
<feBlend mode="normal" in="SourceGraphic" in2="BackgroundImageFix" result="shape"/>
<feGaussianBlur stdDeviation="2.03496" result="effect1_foregroundBlur_3034_31297"/>
</filter>
<filter id="filter25_f_3034_31297" x="970.383" y="88.2191" width="19.468" height="17.6789" filterUnits="userSpaceOnUse" color-interpolation-filters="sRGB">
<feFlood flood-opacity="0" result="BackgroundImageFix"/>
<feBlend mode="normal" in="SourceGraphic" in2="BackgroundImageFix" result="shape"/>
<feGaussianBlur stdDeviation="2.03496" result="effect1_foregroundBlur_3034_31297"/>
</filter>
<filter id="filter26_f_3034_31297" x="379.961" y="167.063" width="12.6399" height="13.4602" filterUnits="userSpaceOnUse" color-interpolation-filters="sRGB">
<feFlood flood-opacity="0" result="BackgroundImageFix"/>
<feBlend mode="normal" in="SourceGraphic" in2="BackgroundImageFix" result="shape"/>
<feGaussianBlur stdDeviation="2.03496" result="effect1_foregroundBlur_3034_31297"/>
</filter>
<filter id="filter27_f_3034_31297" x="240.297" y="125.25" width="12.6399" height="13.4602" filterUnits="userSpaceOnUse" color-interpolation-filters="sRGB">
<feFlood flood-opacity="0" result="BackgroundImageFix"/>
<feBlend mode="normal" in="SourceGraphic" in2="BackgroundImageFix" result="shape"/>
<feGaussianBlur stdDeviation="2.03496" result="effect1_foregroundBlur_3034_31297"/>
</filter>
<filter id="filter28_f_3034_31297" x="329.836" y="125.25" width="12.6399" height="13.4602" filterUnits="userSpaceOnUse" color-interpolation-filters="sRGB">
<feFlood flood-opacity="0" result="BackgroundImageFix"/>
<feBlend mode="normal" in="SourceGraphic" in2="BackgroundImageFix" result="shape"/>
<feGaussianBlur stdDeviation="2.03496" result="effect1_foregroundBlur_3034_31297"/>
</filter>
<filter id="filter29_f_3034_31297" x="469.454" y="24.2426" width="12.3508" height="10.5774" filterUnits="userSpaceOnUse" color-interpolation-filters="sRGB">
<feFlood flood-opacity="0" result="BackgroundImageFix"/>
<feBlend mode="normal" in="SourceGraphic" in2="BackgroundImageFix" result="shape"/>
<feGaussianBlur stdDeviation="2.03496" result="effect1_foregroundBlur_3034_31297"/>
</filter>
<filter id="filter30_f_3034_31297" x="431.289" y="155.164" width="17.132" height="16.7492" filterUnits="userSpaceOnUse" color-interpolation-filters="sRGB">
<feFlood flood-opacity="0" result="BackgroundImageFix"/>
<feBlend mode="normal" in="SourceGraphic" in2="BackgroundImageFix" result="shape"/>
<feGaussianBlur stdDeviation="2.03496" result="effect1_foregroundBlur_3034_31297"/>
</filter>
<filter id="filter31_f_3034_31297" x="184.469" y="133.868" width="17.132" height="16.7492" filterUnits="userSpaceOnUse" color-interpolation-filters="sRGB">
<feFlood flood-opacity="0" result="BackgroundImageFix"/>
<feBlend mode="normal" in="SourceGraphic" in2="BackgroundImageFix" result="shape"/>
<feGaussianBlur stdDeviation="2.03496" result="effect1_foregroundBlur_3034_31297"/>
</filter>
<filter id="filter32_f_3034_31297" x="274.008" y="133.868" width="17.132" height="16.7492" filterUnits="userSpaceOnUse" color-interpolation-filters="sRGB">
<feFlood flood-opacity="0" result="BackgroundImageFix"/>
<feBlend mode="normal" in="SourceGraphic" in2="BackgroundImageFix" result="shape"/>
<feGaussianBlur stdDeviation="2.03496" result="effect1_foregroundBlur_3034_31297"/>
</filter>
<filter id="filter33_f_3034_31297" x="409.907" y="207.454" width="13.2805" height="11.1008" filterUnits="userSpaceOnUse" color-interpolation-filters="sRGB">
<feFlood flood-opacity="0" result="BackgroundImageFix"/>
<feBlend mode="normal" in="SourceGraphic" in2="BackgroundImageFix" result="shape"/>
<feGaussianBlur stdDeviation="2.03496" result="effect1_foregroundBlur_3034_31297"/>
</filter>
<filter id="filter34_f_3034_31297" x="209.711" y="87.2269" width="13.2805" height="11.1008" filterUnits="userSpaceOnUse" color-interpolation-filters="sRGB">
<feFlood flood-opacity="0" result="BackgroundImageFix"/>
<feBlend mode="normal" in="SourceGraphic" in2="BackgroundImageFix" result="shape"/>
<feGaussianBlur stdDeviation="2.03496" result="effect1_foregroundBlur_3034_31297"/>
</filter>
<filter id="filter35_f_3034_31297" x="299.25" y="87.2269" width="13.2805" height="11.1008" filterUnits="userSpaceOnUse" color-interpolation-filters="sRGB">
<feFlood flood-opacity="0" result="BackgroundImageFix"/>
<feBlend mode="normal" in="SourceGraphic" in2="BackgroundImageFix" result="shape"/>
<feGaussianBlur stdDeviation="2.03496" result="effect1_foregroundBlur_3034_31297"/>
</filter>
<filter id="filter36_f_3034_31297" x="67.4144" y="164.844" width="17.2727" height="15.3586" filterUnits="userSpaceOnUse" color-interpolation-filters="sRGB">
<feFlood flood-opacity="0" result="BackgroundImageFix"/>
<feBlend mode="normal" in="SourceGraphic" in2="BackgroundImageFix" result="shape"/>
<feGaussianBlur stdDeviation="2.03496" result="effect1_foregroundBlur_3034_31297"/>
</filter>
<filter id="filter37_f_3034_31297" x="450.36" y="236.235" width="17.7414" height="14.7961" filterUnits="userSpaceOnUse" color-interpolation-filters="sRGB">
<feFlood flood-opacity="0" result="BackgroundImageFix"/>
<feBlend mode="normal" in="SourceGraphic" in2="BackgroundImageFix" result="shape"/>
<feGaussianBlur stdDeviation="2.03496" result="effect1_foregroundBlur_3034_31297"/>
</filter>
<filter id="filter38_f_3034_31297" x="164.797" y="54.7504" width="17.7414" height="14.7961" filterUnits="userSpaceOnUse" color-interpolation-filters="sRGB">
<feFlood flood-opacity="0" result="BackgroundImageFix"/>
<feBlend mode="normal" in="SourceGraphic" in2="BackgroundImageFix" result="shape"/>
<feGaussianBlur stdDeviation="2.03496" result="effect1_foregroundBlur_3034_31297"/>
</filter>
<filter id="filter39_f_3034_31297" x="254.329" y="54.7504" width="17.7414" height="14.7961" filterUnits="userSpaceOnUse" color-interpolation-filters="sRGB">
<feFlood flood-opacity="0" result="BackgroundImageFix"/>
<feBlend mode="normal" in="SourceGraphic" in2="BackgroundImageFix" result="shape"/>
<feGaussianBlur stdDeviation="2.03496" result="effect1_foregroundBlur_3034_31297"/>
</filter>
<filter id="filter40_f_3034_31297" x="136.993" y="87.7191" width="14.8117" height="16.257" filterUnits="userSpaceOnUse" color-interpolation-filters="sRGB">
<feFlood flood-opacity="0" result="BackgroundImageFix"/>
<feBlend mode="normal" in="SourceGraphic" in2="BackgroundImageFix" result="shape"/>
<feGaussianBlur stdDeviation="2.03496" result="effect1_foregroundBlur_3034_31297"/>
</filter>
<filter id="filter41_f_3034_31297" x="370.899" y="138.93" width="15.3195" height="13.2102" filterUnits="userSpaceOnUse" color-interpolation-filters="sRGB">
<feFlood flood-opacity="0" result="BackgroundImageFix"/>
<feBlend mode="normal" in="SourceGraphic" in2="BackgroundImageFix" result="shape"/>
<feGaussianBlur stdDeviation="2.03496" result="effect1_foregroundBlur_3034_31297"/>
</filter>
<filter id="filter42_f_3034_31297" x="246.68" y="153.633" width="15.3195" height="13.2102" filterUnits="userSpaceOnUse" color-interpolation-filters="sRGB">
<feFlood flood-opacity="0" result="BackgroundImageFix"/>
<feBlend mode="normal" in="SourceGraphic" in2="BackgroundImageFix" result="shape"/>
<feGaussianBlur stdDeviation="2.03496" result="effect1_foregroundBlur_3034_31297"/>
</filter>
<filter id="filter43_f_3034_31297" x="336.219" y="153.633" width="15.3195" height="13.2102" filterUnits="userSpaceOnUse" color-interpolation-filters="sRGB">
<feFlood flood-opacity="0" result="BackgroundImageFix"/>
<feBlend mode="normal" in="SourceGraphic" in2="BackgroundImageFix" result="shape"/>
<feGaussianBlur stdDeviation="2.03496" result="effect1_foregroundBlur_3034_31297"/>
</filter>
<filter id="filter44_f_3034_31297" x="401.68" y="111.039" width="13.2727" height="13.718" filterUnits="userSpaceOnUse" color-interpolation-filters="sRGB">
<feFlood flood-opacity="0" result="BackgroundImageFix"/>
<feBlend mode="normal" in="SourceGraphic" in2="BackgroundImageFix" result="shape"/>
<feGaussianBlur stdDeviation="2.03496" result="effect1_foregroundBlur_3034_31297"/>
</filter>
<filter id="filter45_f_3034_31297" x="217.946" y="181.024" width="13.2727" height="13.718" filterUnits="userSpaceOnUse" color-interpolation-filters="sRGB">
<feFlood flood-opacity="0" result="BackgroundImageFix"/>
<feBlend mode="normal" in="SourceGraphic" in2="BackgroundImageFix" result="shape"/>
<feGaussianBlur stdDeviation="2.03496" result="effect1_foregroundBlur_3034_31297"/>
</filter>
<filter id="filter46_f_3034_31297" x="307.485" y="181.024" width="13.2727" height="13.718" filterUnits="userSpaceOnUse" color-interpolation-filters="sRGB">
<feFlood flood-opacity="0" result="BackgroundImageFix"/>
<feBlend mode="normal" in="SourceGraphic" in2="BackgroundImageFix" result="shape"/>
<feGaussianBlur stdDeviation="2.03496" result="effect1_foregroundBlur_3034_31297"/>
</filter>
<filter id="filter47_f_3034_31297" x="398.602" y="43.5941" width="13.7805" height="11.1789" filterUnits="userSpaceOnUse" color-interpolation-filters="sRGB">
<feFlood flood-opacity="0" result="BackgroundImageFix"/>
<feBlend mode="normal" in="SourceGraphic" in2="BackgroundImageFix" result="shape"/>
<feGaussianBlur stdDeviation="2.03496" result="effect1_foregroundBlur_3034_31297"/>
</filter>
<filter id="filter48_f_3034_31297" x="52.8676" y="230.719" width="18.132" height="13.8586" filterUnits="userSpaceOnUse" color-interpolation-filters="sRGB">
<feFlood flood-opacity="0" result="BackgroundImageFix"/>
<feBlend mode="normal" in="SourceGraphic" in2="BackgroundImageFix" result="shape"/>
<feGaussianBlur stdDeviation="2.03496" result="effect1_foregroundBlur_3034_31297"/>
</filter>
<filter id="filter49_f_3034_31297" x="389.875" y="181.469" width="12.882" height="11.3977" filterUnits="userSpaceOnUse" color-interpolation-filters="sRGB">
<feFlood flood-opacity="0" result="BackgroundImageFix"/>
<feBlend mode="normal" in="SourceGraphic" in2="BackgroundImageFix" result="shape"/>
<feGaussianBlur stdDeviation="2.03496" result="effect1_foregroundBlur_3034_31297"/>
</filter>
<filter id="filter50_f_3034_31297" x="230.133" y="112.914" width="12.882" height="11.3977" filterUnits="userSpaceOnUse" color-interpolation-filters="sRGB">
<feFlood flood-opacity="0" result="BackgroundImageFix"/>
<feBlend mode="normal" in="SourceGraphic" in2="BackgroundImageFix" result="shape"/>
<feGaussianBlur stdDeviation="2.03496" result="effect1_foregroundBlur_3034_31297"/>
</filter>
<filter id="filter51_f_3034_31297" x="319.672" y="112.914" width="12.882" height="11.3977" filterUnits="userSpaceOnUse" color-interpolation-filters="sRGB">
<feFlood flood-opacity="0" result="BackgroundImageFix"/>
<feBlend mode="normal" in="SourceGraphic" in2="BackgroundImageFix" result="shape"/>
<feGaussianBlur stdDeviation="2.03496" result="effect1_foregroundBlur_3034_31297"/>
</filter>
<filter id="filter52_f_3034_31297" x="0.703509" y="3.26601" width="12.7961" height="12.4602" filterUnits="userSpaceOnUse" color-interpolation-filters="sRGB">
<feFlood flood-opacity="0" result="BackgroundImageFix"/>
<feBlend mode="normal" in="SourceGraphic" in2="BackgroundImageFix" result="shape"/>
<feGaussianBlur stdDeviation="2.03496" result="effect1_foregroundBlur_3034_31297"/>
</filter>
<filter id="filter53_f_3034_31297" x="454.672" y="100.477" width="11.1477" height="9.88986" filterUnits="userSpaceOnUse" color-interpolation-filters="sRGB">
<feFlood flood-opacity="0" result="BackgroundImageFix"/>
<feBlend mode="normal" in="SourceGraphic" in2="BackgroundImageFix" result="shape"/>
<feGaussianBlur stdDeviation="2.03496" result="effect1_foregroundBlur_3034_31297"/>
</filter>
<filter id="filter54_f_3034_31297" x="167.079" y="195.414" width="11.1477" height="9.88986" filterUnits="userSpaceOnUse" color-interpolation-filters="sRGB">
<feFlood flood-opacity="0" result="BackgroundImageFix"/>
<feBlend mode="normal" in="SourceGraphic" in2="BackgroundImageFix" result="shape"/>
<feGaussianBlur stdDeviation="2.03496" result="effect1_foregroundBlur_3034_31297"/>
</filter>
<filter id="filter55_f_3034_31297" x="256.618" y="195.414" width="11.1477" height="9.88986" filterUnits="userSpaceOnUse" color-interpolation-filters="sRGB">
<feFlood flood-opacity="0" result="BackgroundImageFix"/>
<feBlend mode="normal" in="SourceGraphic" in2="BackgroundImageFix" result="shape"/>
<feGaussianBlur stdDeviation="2.03496" result="effect1_foregroundBlur_3034_31297"/>
</filter>
<filter id="filter56_f_3034_31297" x="454.508" y="39.0316" width="16.1242" height="16.0539" filterUnits="userSpaceOnUse" color-interpolation-filters="sRGB">
<feFlood flood-opacity="0" result="BackgroundImageFix"/>
<feBlend mode="normal" in="SourceGraphic" in2="BackgroundImageFix" result="shape"/>
<feGaussianBlur stdDeviation="2.03496" result="effect1_foregroundBlur_3034_31297"/>
</filter>
<filter id="filter57_f_3034_31297" x="13.6098" y="135.352" width="14.9758" height="14.8039" filterUnits="userSpaceOnUse" color-interpolation-filters="sRGB">
<feFlood flood-opacity="0" result="BackgroundImageFix"/>
<feBlend mode="normal" in="SourceGraphic" in2="BackgroundImageFix" result="shape"/>
<feGaussianBlur stdDeviation="2.03496" result="effect1_foregroundBlur_3034_31297"/>
</filter>
<filter id="filter58_f_3034_31297" x="487.696" y="60.3363" width="11.9133" height="15.7024" filterUnits="userSpaceOnUse" color-interpolation-filters="sRGB">
<feFlood flood-opacity="0" result="BackgroundImageFix"/>
<feBlend mode="normal" in="SourceGraphic" in2="BackgroundImageFix" result="shape"/>
<feGaussianBlur stdDeviation="2.03496" result="effect1_foregroundBlur_3034_31297"/>
</filter>
<filter id="filter59_f_3034_31297" x="133.289" y="229.735" width="11.9133" height="15.7024" filterUnits="userSpaceOnUse" color-interpolation-filters="sRGB">
<feFlood flood-opacity="0" result="BackgroundImageFix"/>
<feBlend mode="normal" in="SourceGraphic" in2="BackgroundImageFix" result="shape"/>
<feGaussianBlur stdDeviation="2.03496" result="effect1_foregroundBlur_3034_31297"/>
</filter>
<filter id="filter60_f_3034_31297" x="222.829" y="229.735" width="11.9133" height="15.7024" filterUnits="userSpaceOnUse" color-interpolation-filters="sRGB">
<feFlood flood-opacity="0" result="BackgroundImageFix"/>
<feBlend mode="normal" in="SourceGraphic" in2="BackgroundImageFix" result="shape"/>
<feGaussianBlur stdDeviation="2.03496" result="effect1_foregroundBlur_3034_31297"/>
</filter>
<filter id="filter61_f_3034_31297" x="42.7269" y="1.36757" width="14.6242" height="15.0383" filterUnits="userSpaceOnUse" color-interpolation-filters="sRGB">
<feFlood flood-opacity="0" result="BackgroundImageFix"/>
<feBlend mode="normal" in="SourceGraphic" in2="BackgroundImageFix" result="shape"/>
<feGaussianBlur stdDeviation="2.03496" result="effect1_foregroundBlur_3034_31297"/>
</filter>
<filter id="filter62_f_3034_31297" x="106.969" y="-3.04649" width="17.1711" height="15.1789" filterUnits="userSpaceOnUse" color-interpolation-filters="sRGB">
<feFlood flood-opacity="0" result="BackgroundImageFix"/>
<feBlend mode="normal" in="SourceGraphic" in2="BackgroundImageFix" result="shape"/>
<feGaussianBlur stdDeviation="2.03496" result="effect1_foregroundBlur_3034_31297"/>
</filter>
<filter id="filter63_f_3034_31297" x="43.1254" y="59.4379" width="16.3508" height="13.9133" filterUnits="userSpaceOnUse" color-interpolation-filters="sRGB">
<feFlood flood-opacity="0" result="BackgroundImageFix"/>
<feBlend mode="normal" in="SourceGraphic" in2="BackgroundImageFix" result="shape"/>
<feGaussianBlur stdDeviation="2.03496" result="effect1_foregroundBlur_3034_31297"/>
</filter>
<filter id="filter64_f_3034_31297" x="355.079" y="2.26601" width="11.1633" height="13.5383" filterUnits="userSpaceOnUse" color-interpolation-filters="sRGB">
<feFlood flood-opacity="0" result="BackgroundImageFix"/>
<feBlend mode="normal" in="SourceGraphic" in2="BackgroundImageFix" result="shape"/>
<feGaussianBlur stdDeviation="2.03496" result="effect1_foregroundBlur_3034_31297"/>
</filter>
<filter id="filter65_f_3034_31297" x="442.235" y="2.4457" width="17.1711" height="12.1633" filterUnits="userSpaceOnUse" color-interpolation-filters="sRGB">
<feFlood flood-opacity="0" result="BackgroundImageFix"/>
<feBlend mode="normal" in="SourceGraphic" in2="BackgroundImageFix" result="shape"/>
<feGaussianBlur stdDeviation="2.03496" result="effect1_foregroundBlur_3034_31297"/>
</filter>
<filter id="filter66_f_3034_31297" x="16.9613" y="44.6098" width="15.0774" height="11.718" filterUnits="userSpaceOnUse" color-interpolation-filters="sRGB">
<feFlood flood-opacity="0" result="BackgroundImageFix"/>
<feBlend mode="normal" in="SourceGraphic" in2="BackgroundImageFix" result="shape"/>
<feGaussianBlur stdDeviation="2.03496" result="effect1_foregroundBlur_3034_31297"/>
</filter>
<filter id="filter67_f_3034_31297" x="11.141" y="93.8832" width="14.968" height="14.5852" filterUnits="userSpaceOnUse" color-interpolation-filters="sRGB">
<feFlood flood-opacity="0" result="BackgroundImageFix"/>
<feBlend mode="normal" in="SourceGraphic" in2="BackgroundImageFix" result="shape"/>
<feGaussianBlur stdDeviation="2.03496" result="effect1_foregroundBlur_3034_31297"/>
</filter>
<filter id="filter68_f_3034_31297" x="390.571" y="-0.562116" width="13.1242" height="13.1164" filterUnits="userSpaceOnUse" color-interpolation-filters="sRGB">
<feFlood flood-opacity="0" result="BackgroundImageFix"/>
<feBlend mode="normal" in="SourceGraphic" in2="BackgroundImageFix" result="shape"/>
<feGaussianBlur stdDeviation="2.03496" result="effect1_foregroundBlur_3034_31297"/>
</filter>
<filter id="filter69_f_3034_31297" x="430.399" y="88.2191" width="18.5461" height="17.6789" filterUnits="userSpaceOnUse" color-interpolation-filters="sRGB">
<feFlood flood-opacity="0" result="BackgroundImageFix"/>
<feBlend mode="normal" in="SourceGraphic" in2="BackgroundImageFix" result="shape"/>
<feGaussianBlur stdDeviation="2.03496" result="effect1_foregroundBlur_3034_31297"/>
</filter>
<filter id="filter70_f_3034_31297" x="183.946" y="199.875" width="18.5461" height="17.6789" filterUnits="userSpaceOnUse" color-interpolation-filters="sRGB">
<feFlood flood-opacity="0" result="BackgroundImageFix"/>
<feBlend mode="normal" in="SourceGraphic" in2="BackgroundImageFix" result="shape"/>
<feGaussianBlur stdDeviation="2.03496" result="effect1_foregroundBlur_3034_31297"/>
</filter>
<filter id="filter71_f_3034_31297" x="273.485" y="199.875" width="18.5461" height="17.6789" filterUnits="userSpaceOnUse" color-interpolation-filters="sRGB">
<feFlood flood-opacity="0" result="BackgroundImageFix"/>
<feBlend mode="normal" in="SourceGraphic" in2="BackgroundImageFix" result="shape"/>
<feGaussianBlur stdDeviation="2.03496" result="effect1_foregroundBlur_3034_31297"/>
</filter>
<clipPath id="clip0_3034_31297">
<rect width="539.266" height="259.458" fill="white" transform="translate(501.617)"/>
</clipPath>
<clipPath id="clip1_3034_31297">
<rect width="495.514" height="259.458" fill="white"/>
</clipPath>
</defs>
</svg>
