<svg width="143" height="153" viewBox="0 0 143 153" fill="none" xmlns="http://www.w3.org/2000/svg">
<path d="M1.52031 111.641C0.244205 112.331 -0.234779 113.928 0.498735 115.179C6.81258 125.953 15.6758 135.03 26.3255 141.602C37.7212 148.634 50.7632 152.552 64.1478 152.964C77.5323 153.376 90.7904 150.267 102.597 143.948C114.403 137.63 124.344 128.323 131.426 116.958C138.508 105.593 142.483 92.5681 142.953 79.1855C143.423 65.8029 140.372 52.5313 134.105 40.6975C127.838 28.8636 118.574 18.8821 107.24 11.7507C96.6484 5.08621 84.5949 1.12908 72.1413 0.208275C70.6945 0.1013 69.4723 1.23474 69.415 2.68437C69.3578 4.13401 70.4873 5.35054 71.9338 5.46118C83.4684 6.34341 94.629 10.0227 104.443 16.1974C114.998 22.8391 123.626 32.1351 129.462 43.1562C135.299 54.1774 138.14 66.5375 137.702 79.0011C137.265 91.4646 133.563 103.595 126.967 114.179C120.372 124.764 111.113 133.432 100.118 139.316C89.1223 145.201 76.7746 148.096 64.3093 147.713C51.8439 147.329 39.6976 143.68 29.0845 137.131C19.2175 131.042 10.9971 122.644 5.12284 112.679C4.38616 111.429 2.79642 110.951 1.52031 111.641Z" fill="#0FA76F"/>
</svg>
