<svg width="49" height="68" viewBox="0 0 49 68" fill="none" xmlns="http://www.w3.org/2000/svg">
<path d="M45.4367 2.64952L37.4272 24.6582C37.2887 25.0389 37.0364 25.3678 36.7046 25.6001C36.3728 25.8325 35.9774 25.9571 35.5723 25.957C35.1956 25.957 36.08 26.1669 24.0756 22.8931C23.8854 22.9559 25.3313 22.5343 13.1618 26.0126C12.6816 26.1504 12.1671 26.1009 11.722 25.8742C11.2769 25.6475 10.9343 25.2604 10.7634 24.791L2.70545 2.64952C2.59666 2.3513 2.56141 2.03124 2.60271 1.7165C2.64401 1.40176 2.76065 1.10163 2.9427 0.841586C3.12475 0.581538 3.36685 0.369251 3.64846 0.22274C3.93006 0.0762299 4.24286 -0.000178099 4.5603 1.28909e-06H16.8894C17.2945 -9.34574e-05 17.6898 0.124495 18.0217 0.356846C18.3535 0.589197 18.6058 0.918051 18.7443 1.29875L24.0648 15.9437L29.4015 1.29875C29.5401 0.917763 29.7926 0.588707 30.1248 0.356331C30.457 0.123955 30.8527 -0.000461985 31.2581 1.28909e-06H43.5819C43.8993 -0.000178099 44.2121 0.0762299 44.4937 0.22274C44.7753 0.369251 45.0174 0.581538 45.1995 0.841586C45.3815 1.10163 45.4982 1.40176 45.5395 1.7165C45.5808 2.03124 45.5455 2.3513 45.4367 2.64952V2.64952Z" fill="#D69120"/>
<path d="M45.4449 2.64951L37.4353 24.6582C37.2969 25.0389 37.0446 25.3678 36.7127 25.6001C36.3809 25.8325 35.9856 25.9571 35.5805 25.957C35.2038 25.957 36.0881 26.1669 24.0837 22.8931C24.0711 22.8931 24.0837 23.2052 24.0837 15.9437L29.4115 1.29875C29.5499 0.91805 29.8022 0.589196 30.134 0.356845C30.4659 0.124494 30.8612 -9.44314e-05 31.2663 3.15143e-07H43.59C43.9075 -0.000179073 44.2202 0.0762289 44.5018 0.222739C44.7834 0.36925 45.0255 0.581537 45.2076 0.841585C45.3896 1.10163 45.5063 1.40176 45.5476 1.7165C45.5889 2.03124 45.5537 2.3513 45.4449 2.64951V2.64951Z" fill="#B3781B"/>
<path d="M48.1648 43.0184C48.1651 47.795 46.745 52.4637 44.085 56.4311C41.425 60.3985 37.6453 63.4852 33.2264 65.2988C28.8076 67.1125 23.9492 67.5711 19.2691 66.6164C14.5889 65.6617 10.2983 63.3368 6.94287 59.9373C3.58743 56.5378 1.31871 52.2173 0.425154 47.525C-0.4684 42.8328 0.0535691 37.9808 1.92471 33.586C3.79586 29.1912 6.93165 25.4521 10.9334 22.8441C14.9351 20.2361 19.622 18.877 24.3981 18.9396C28.6984 18.9168 32.9228 20.0727 36.6125 22.2815C40.1126 24.5026 43.0026 27.5627 45.02 31.1841C47.0374 34.8054 48.1184 38.8733 48.1648 43.0184Z" fill="#F9A825"/>
<path d="M24.0781 67.1V18.9585C28.4675 18.8641 32.7935 20.0168 36.554 22.2827C40.3144 24.5486 43.355 27.8346 45.3226 31.7594C47.272 35.4247 48.2394 39.5323 48.1305 43.6823C48.0216 47.8324 46.8403 51.8836 44.7014 55.4417C42.5625 58.9997 39.5389 61.9435 35.9249 63.9865C32.3109 66.0295 28.2296 67.1021 24.0781 67.1Z" fill="#E09721"/>
<path d="M18.5859 35.4794L19.9539 37.7354L24.1779 35.1914V50.8154H27.1299V32.0234H24.3219L18.5859 35.4794Z" fill="white"/>
</svg>
