<svg width="492" height="205" viewBox="0 0 492 205" fill="none" xmlns="http://www.w3.org/2000/svg">
<rect width="492" height="205" rx="8" fill="#003C3C"/>
<g clip-path="url(#clip0_3555_45274)">
<path d="M192.917 48.4697C193.251 48.4697 193.478 48.2683 193.752 47.9104C193.273 47.5349 192.893 47.0601 192.642 46.5234C192.401 46.7781 192.071 46.9445 191.711 46.9932C192.003 47.5563 192.413 48.0585 192.917 48.4697Z" fill="#FF0B4F"/>
<path d="M186.357 145.039C185.799 145.266 185.197 145.383 184.589 145.382C184.569 145.689 184.663 145.992 184.855 146.241C185.477 146.248 186.097 146.168 186.694 146.003C186.357 145.633 186.245 145.409 186.357 145.039Z" fill="#FF0B4F"/>
<g filter="url(#filter0_f_3555_45274)">
<path d="M417.014 135.219C416.684 135.354 416.391 135.555 416.154 135.809C415.916 136.062 415.741 136.361 415.641 136.684C416.486 137.511 417.219 138.431 417.825 139.424C418.055 139.13 418.364 138.899 418.721 138.753C417.959 137.666 417.383 136.473 417.014 135.219Z" fill="#76C0FF"/>
</g>
<path d="M380 17.7188C380.865 16.9941 381.452 16.0235 381.671 14.956C380.472 14.8465 379.343 14.38 378.448 13.625C377.603 14.2777 376.908 15.0844 376.406 15.9962C377.711 16.3487 378.931 16.9336 380 17.7188Z" fill="#163A76"/>
<path d="M330.855 17.5C330.726 17.6772 330.648 17.8827 330.629 18.0963C330.611 18.31 330.651 18.5246 330.747 18.7192C331.154 18.882 331.606 18.9173 332.037 18.8198C332.196 18.3188 332.507 17.8719 332.932 17.5336C332.244 17.6509 331.538 17.6395 330.855 17.5Z" fill="#FFAD3B"/>
<path d="M434.07 117.462C434.119 117.564 434.144 117.674 434.144 117.786C434.144 117.898 434.119 118.008 434.07 118.111C434.721 118.121 435.369 118.038 435.992 117.864C436.045 117.599 436.024 117.326 435.933 117.07C435.357 117.346 434.716 117.481 434.07 117.462Z" fill="#FFAD3B"/>
<path d="M307.818 22.6281C307.354 22.4781 306.85 22.4781 306.386 22.6281C306.243 22.9241 306.049 23.1961 305.812 23.4334C306.159 23.4334 306.338 23.5789 306.589 23.9592C306.921 23.4574 307.336 23.0082 307.818 22.6281Z" fill="#76C0FF"/>
<path d="M267.148 26.8624C267.719 27.3302 268.434 27.6161 269.19 27.6789C269.182 26.931 269.424 26.1996 269.882 25.5873C269.369 25.1036 268.755 24.723 268.08 24.4688C267.938 25.3156 267.621 26.1285 267.148 26.8624Z" fill="#163A76"/>
<g filter="url(#filter1_f_3555_45274)">
<path d="M476.938 22.9936C477.067 23.4147 477.103 23.8562 477.045 24.291C477.892 23.9561 478.784 23.7304 479.695 23.6199C479.861 23.2167 479.861 22.7704 479.695 22.3672C478.754 22.4813 477.83 22.6913 476.938 22.9936Z" fill="#163A76"/>
</g>
<g filter="url(#filter2_f_3555_45274)">
<path d="M450.797 129.683C451.987 130.339 452.879 131.382 453.304 132.613C454.81 131.153 456.045 129.466 456.957 127.625C456.004 126.803 454.871 126.185 453.638 125.812C453.015 127.287 452.044 128.61 450.797 129.683Z" fill="#FF1D5C"/>
</g>
<path d="M186.695 166.689C187.219 166.959 187.61 167.383 187.795 167.883C188.489 167.29 189.067 166.605 189.506 165.854C189.082 165.505 188.574 165.24 188.017 165.078C187.723 165.694 187.271 166.244 186.695 166.689Z" fill="#76C0FF"/>
<g filter="url(#filter3_f_3555_45274)">
<path d="M439.671 168.702C439.515 168.19 439.47 167.654 439.539 167.125C438.504 167.53 437.416 167.805 436.304 167.942C436.097 168.43 436.097 168.974 436.304 169.463C437.454 169.335 438.585 169.08 439.671 168.702Z" fill="#163A76"/>
</g>
<g filter="url(#filter4_f_3555_45274)">
<path d="M206.342 139.165C206.998 138.964 207.333 138.55 207.834 137.846C206.011 136.664 204.437 135.178 203.19 133.461C202.792 133.967 202.224 134.333 201.578 134.501C202.793 136.356 204.417 137.946 206.342 139.165Z" fill="#163A76"/>
</g>
<g filter="url(#filter5_f_3555_45274)">
<path d="M470.437 191.265C470.079 190.84 469.624 190.494 469.106 190.252C468.588 190.01 468.019 189.879 467.441 189.867C466.431 191.402 465.229 192.817 463.859 194.084C464.438 194.309 464.947 194.667 465.34 195.124C466.825 193.608 468.543 192.307 470.437 191.265Z" fill="#FFAD3B"/>
</g>
<path d="M287.13 11.2578C287.032 11.5399 286.855 11.7923 286.618 11.9889C286.381 12.1855 286.092 12.3193 285.781 12.3763C286.395 12.9687 287.147 13.4204 287.978 13.6962C288.248 13.6276 288.495 13.4932 288.692 13.3065C288.889 13.1199 289.03 12.8877 289.1 12.6336C288.315 12.3632 287.631 11.8853 287.13 11.2578Z" fill="#163A76"/>
<path d="M189.03 45.0112C189.066 44.5837 189.188 44.1664 189.388 43.7809C189.177 43.6728 188.934 43.6334 188.696 43.669C188.479 44.0552 188.326 44.4701 188.242 44.8994C188.6 44.7987 188.815 44.8099 189.03 45.0112Z" fill="#FFAD3B"/>
<path d="M423.102 97.2188C422.794 97.7336 422.58 98.2931 422.469 98.8741C422.869 98.9449 423.282 98.9101 423.663 98.7735C423.661 98.4049 423.791 98.0465 424.033 97.7556C423.843 97.7421 423.66 97.6863 423.498 97.5929C423.336 97.4996 423.2 97.3713 423.102 97.2188Z" fill="#FFAD3B"/>
<path d="M254.416 10.5938C254.381 10.9803 254.438 11.3693 254.583 11.7329C254.727 12.0965 254.956 12.4256 255.252 12.6966C256.589 12.3625 257.963 12.1748 259.347 12.1373C259.159 11.7526 259.08 11.3285 259.12 10.9069C257.544 11.0276 255.958 10.922 254.416 10.5938Z" fill="#76C0FF"/>
<g filter="url(#filter6_f_3555_45274)">
<path d="M249.227 77.5166C250.681 77.5359 252.079 78.0399 253.156 78.9341C253.72 76.9057 253.912 74.8056 253.724 72.7196C252.387 72.458 251.006 72.458 249.669 72.7196C249.904 74.3291 249.753 75.966 249.227 77.5166Z" fill="#163A76"/>
</g>
<path d="M222.447 50.9443C223.116 49.8258 224.274 49.0316 227.426 48.1928C226.785 46.945 225.735 45.922 224.429 45.2734C222.462 45.9653 220.718 47.1211 219.367 48.629C220.632 49.0724 221.711 49.8839 222.447 50.9443Z" fill="#FF1D5C"/>
<g filter="url(#filter7_f_3555_45274)">
<path d="M412.637 116.999C413.478 116.364 414.082 115.478 414.356 114.475C413.26 114.291 412.251 113.772 411.477 112.992C410.651 113.555 409.956 114.282 409.438 115.126C410.619 115.539 411.706 116.176 412.637 116.999Z" fill="#163A76"/>
</g>
<g filter="url(#filter8_f_3555_45274)">
<path d="M434.029 93.0996C434.019 92.6628 433.893 92.2358 433.663 91.8598C433.432 91.4838 433.105 91.1715 432.713 90.9531C431.852 91.1224 431.077 91.5705 430.516 92.2233C430.867 93.2353 430.917 94.3223 430.66 95.3605C431.613 94.3944 432.759 93.6252 434.029 93.0996Z" fill="#76C0FF"/>
</g>
<g filter="url(#filter9_f_3555_45274)">
<path d="M431.747 40.0681C432.037 39.8266 432.224 39.4932 432.271 39.1311C431.103 38.8303 430.002 38.3333 429.022 37.6641C428.917 37.9913 428.7 38.277 428.406 38.4777C429.385 39.2281 430.525 39.7706 431.747 40.0681Z" fill="#163A76"/>
</g>
<path d="M325.98 157.424C326.494 157.107 326.906 156.667 327.174 156.149C326.982 155.846 326.682 155.616 326.327 155.5C326.069 156.015 325.653 156.448 325.133 156.742C325.323 156.782 325.499 156.865 325.647 156.984C325.795 157.103 325.909 157.254 325.98 157.424Z" fill="#76C0FF"/>
<g filter="url(#filter10_f_3555_45274)">
<path d="M192.381 186.064C192.654 187.419 192.381 188.822 191.617 190.001C193.923 190.126 196.236 189.887 198.458 189.296C198.504 188.001 198.252 186.711 197.718 185.516C196.369 186.086 194.876 186.108 192.381 186.064Z" fill="#76C0FF"/>
</g>
<path d="M156.367 158.939C156.931 160.036 157.856 160.933 159.006 161.5C159.881 161.233 160.795 161.093 161.716 161.087C161.095 160.483 161.071 159.89 161.405 158.727C159.75 159.054 158.048 159.126 156.367 158.939Z" fill="#76C0FF"/>
<path d="M283.825 166.044C284.173 165.77 284.416 165.397 284.518 164.981C284.067 164.917 283.649 164.721 283.324 164.422C282.982 164.664 282.701 164.974 282.5 165.328C282.986 165.486 283.435 165.729 283.825 166.044Z" fill="#FF1D5C"/>
<g filter="url(#filter11_f_3555_45274)">
<path d="M423.624 146.594C423.06 146.966 422.641 147.5 422.43 148.115C423.14 148.273 423.776 148.642 424.244 149.166C424.815 148.849 425.304 148.417 425.677 147.902C424.906 147.599 424.208 147.154 423.624 146.594Z" fill="#FF1D5C"/>
</g>
<path d="M285.133 176.478C285.221 176.656 285.351 176.813 285.512 176.939C285.672 177.064 285.861 177.155 286.064 177.205C286.55 176.74 287.095 176.335 287.688 175.997C287.504 175.873 287.356 175.707 287.258 175.516C286.607 175.938 285.89 176.262 285.133 176.478Z" fill="#76C0FF"/>
<path d="M358.526 100.92C358.398 100.732 358.222 100.577 358.013 100.469C357.804 100.362 357.57 100.305 357.332 100.305C356.99 100.6 356.764 100.994 356.688 101.423C357.13 101.779 357.457 102.244 357.631 102.765C357.79 102.099 358.095 101.471 358.526 100.92Z" fill="#76C0FF"/>
<path d="M256.772 84.0985C256.878 83.997 256.941 83.8822 256.956 83.7637C256.971 83.6451 256.936 83.5263 256.856 83.4171C256.149 83.4884 255.422 83.4606 254.737 83.3359C254.811 83.5776 254.726 83.8265 254.5 84.0336C255.242 84.1447 256.015 84.1668 256.772 84.0985Z" fill="#FFAD3B"/>
<path d="M425.594 51.879C426.579 52.5604 427.393 53.4344 427.981 54.4403C429.205 52.4971 430.707 50.7207 432.447 49.161C432.167 48.0625 431.455 47.1036 430.453 46.4766C428.611 48.0912 426.98 49.9046 425.594 51.879Z" fill="#76C0FF"/>
<g filter="url(#filter12_f_3555_45274)">
<path d="M159.078 7.3706C158.398 7.30349 157.729 6.99031 156.691 5.80469C156.206 6.35493 155.925 7.03804 155.891 7.7509C156.647 8.4465 157.579 8.95069 158.601 9.21615C158.54 8.56861 158.708 7.9204 159.078 7.3706Z" fill="#FF1D5C"/>
</g>
<g filter="url(#filter13_f_3555_45274)">
<path d="M468.682 83.8217C468.588 83.626 468.556 83.4092 468.59 83.197C468.624 82.9848 468.722 82.7862 468.873 82.6249C468.24 82.5716 467.603 82.6559 467.011 82.871C466.895 83.035 466.827 83.2248 466.815 83.4212C466.802 83.6176 466.845 83.8136 466.939 83.9895C467.489 83.7707 468.096 83.7123 468.682 83.8217Z" fill="#FF0B4F"/>
</g>
<g filter="url(#filter14_f_3555_45274)">
<path d="M466.703 36.87C467.801 37.2055 468.757 37.9885 470.082 40.315C471.091 39.5833 471.823 38.5681 472.171 37.418C471.195 36.0067 469.852 34.8518 468.267 34.0625C468.08 35.1311 467.532 36.1152 466.703 36.87Z" fill="#FFAD3B"/>
</g>
<g filter="url(#filter15_f_3555_45274)">
<path d="M164.727 114.314C165.03 114.397 165.312 114.54 165.553 114.733C165.793 114.926 165.988 115.164 166.123 115.432C167.407 114.319 168.513 113.038 169.407 111.629C168.996 111.004 168.41 110.497 167.711 110.164C167.124 111.77 166.094 113.201 164.727 114.314Z" fill="#FF1D5C"/>
</g>
<g filter="url(#filter16_f_3555_45274)">
<path d="M491.985 51.2152C491.438 50.9257 490.798 50.8304 490.182 50.9468C490.289 52.7903 490.034 54.6367 489.43 56.3939C490.02 56.3801 490.599 56.5492 491.077 56.8749C491.808 55.0707 492.117 53.1408 491.985 51.2152Z" fill="#FF0B4F"/>
</g>
<g filter="url(#filter17_f_3555_45274)">
<path d="M188.336 4.61351C187.782 4.37044 187.17 4.2644 186.56 4.30552C185.95 4.34664 185.361 4.53353 184.85 4.84839C184.545 5.92184 184.633 7.05998 185.101 8.08089C186.58 8.26755 187.971 8.84572 189.112 9.74749C188.488 8.10229 188.224 6.35629 188.336 4.61351Z" fill="#FF1D5C"/>
</g>
<g filter="url(#filter18_f_3555_45274)">
<path d="M228.672 6.34913C230.385 6.47598 232.097 6.08389 233.555 5.23062C233.808 4.11095 234.248 3.03536 234.856 2.04286C233.662 2.31131 232.958 1.9422 231.764 0.8125C231.057 2.80165 230.013 4.67115 228.672 6.34913Z" fill="#FF0B4F"/>
</g>
<g filter="url(#filter19_f_3555_45274)">
<path d="M187.465 50.1797C187.465 51.1602 186.874 52.098 184.938 53.6753C185.868 54.3382 187.012 54.712 188.197 54.7411C189.35 53.642 190.164 52.29 190.559 50.8191C189.478 50.9068 188.395 50.6829 187.465 50.1797Z" fill="#FF0B4F"/>
</g>
<g filter="url(#filter20_f_3555_45274)">
<path d="M398.9 5.03367C399.197 6.26055 399.093 7.54286 398.602 8.71358C398.851 8.71711 399.097 8.76972 399.323 8.86799C399.549 8.96626 399.751 9.108 399.915 9.28402C400.543 8.04082 400.787 6.65748 400.619 5.29093C400.081 5.06286 399.487 4.97403 398.9 5.03367Z" fill="#FFAD3B"/>
</g>
<g filter="url(#filter21_f_3555_45274)">
<path d="M463.896 8.32501C464.282 7.8885 464.49 7.33723 464.481 6.77028C462.593 6.53769 460.765 5.9883 459.085 5.14844C458.999 5.6815 458.721 6.17096 458.297 6.53539C460.005 7.50027 461.915 8.11054 463.896 8.32501Z" fill="#FFAD3B"/>
</g>
<g filter="url(#filter22_f_3555_45274)">
<path d="M171.775 39.4866C170.95 38.8641 169.933 38.5072 168.874 38.4688C168.325 38.9524 167.701 39.3559 167.023 39.6656C167.716 39.9116 167.955 40.3255 168.134 41.2986C169.237 40.5165 170.466 39.9048 171.775 39.4866Z" fill="#FF1D5C"/>
</g>
<g filter="url(#filter23_f_3555_45274)">
<path d="M164.281 82.2863C164.842 82.4843 165.448 82.5399 166.039 82.4476C166.631 82.3553 167.185 82.1183 167.647 81.7606C167.831 80.7043 167.643 79.6205 167.11 78.6735C165.651 78.6211 164.238 78.1786 163.039 77.3984C163.802 78.9321 164.225 80.595 164.281 82.2863Z" fill="#76C0FF"/>
</g>
<g filter="url(#filter24_f_3555_45274)">
<path d="M424.984 6.70462C425.669 5.49029 426.121 4.17289 426.321 2.8122C425.429 2.7051 424.523 2.82087 423.694 3.14776C423.722 4.00885 423.445 4.85437 422.906 5.55255C423.322 5.58762 423.725 5.70925 424.084 5.90856C424.443 6.10787 424.751 6.37984 424.984 6.70462Z" fill="#FFAD3B"/>
</g>
<path d="M211.992 107.721C213.181 109.798 215.074 111.436 217.368 112.375C218.197 110.119 219.758 108.167 221.829 106.795C220.809 104.805 219.366 103.035 217.591 101.594C216.158 103.956 214.257 106.037 211.992 107.721Z" fill="#76C0FF"/>
<path d="M407.556 93.7578C407.105 94.7875 406.43 95.7237 405.57 96.5104C405.999 96.9514 406.576 97.2514 407.211 97.3638C408.099 96.5696 408.849 95.6577 409.435 94.6593C408.442 94.5992 407.926 94.4309 407.556 93.7578Z" fill="#FF1D5C"/>
<g filter="url(#filter25_f_3555_45274)">
<path d="M450.188 78.2236C450.581 79.3421 451.441 79.8902 453.017 80.4607C454.031 78.5535 455.502 76.892 457.315 75.6063C456.135 75.0325 455.215 74.0795 454.724 72.9219C452.835 74.3746 451.29 76.1802 450.188 78.2236Z" fill="#FF0B4F"/>
</g>
</g>
<g clip-path="url(#clip1_3555_45274)">
<path d="M37.0376 48.4697C37.3448 48.4697 37.5532 48.2683 37.8055 47.9104C37.3647 47.5349 37.0154 47.0601 36.7853 46.5234C36.5635 46.7781 36.2604 46.9445 35.9297 46.9932C36.1978 47.5563 36.5747 48.0585 37.0376 48.4697Z" fill="#FF0B4F"/>
<path d="M31.0024 145.039C30.4895 145.266 29.9363 145.383 29.3774 145.382C29.3591 145.689 29.4458 145.992 29.6224 146.241C30.194 146.248 30.7635 146.168 31.3119 146.003C31.0024 145.633 30.8992 145.409 31.0024 145.039Z" fill="#FF0B4F"/>
<g filter="url(#filter26_f_3555_45274)">
<path d="M242.949 135.219C242.647 135.354 242.377 135.555 242.159 135.809C241.941 136.062 241.78 136.361 241.688 136.684C242.464 137.511 243.138 138.431 243.695 139.424C243.906 139.13 244.19 138.899 244.518 138.753C243.818 137.666 243.288 136.473 242.949 135.219Z" fill="#76C0FF"/>
</g>
<g filter="url(#filter27_f_3555_45274)">
<path d="M155.363 106.383C155.666 106.247 155.936 106.046 156.154 105.793C156.372 105.54 156.533 105.241 156.625 104.918C155.849 104.091 155.174 103.171 154.617 102.177C154.406 102.471 154.122 102.703 153.795 102.848C154.495 103.936 155.024 105.129 155.363 106.383Z" fill="#76C0FF"/>
</g>
<g filter="url(#filter28_f_3555_45274)">
<path d="M211.707 106.383C212.01 106.247 212.279 106.046 212.497 105.793C212.715 105.54 212.876 105.241 212.969 104.918C212.192 104.091 211.518 103.171 210.961 102.177C210.75 102.471 210.466 102.703 210.138 102.848C210.839 103.936 211.368 105.129 211.707 106.383Z" fill="#76C0FF"/>
</g>
<path d="M208.943 17.7188C209.737 16.9941 210.277 16.0235 210.478 14.956C209.377 14.8465 208.339 14.38 207.516 13.625C206.74 14.2777 206.102 15.0844 205.641 15.9962C206.84 16.3487 207.961 16.9336 208.943 17.7188Z" fill="#163A76"/>
<path d="M163.773 17.5C163.655 17.6772 163.584 17.8827 163.567 18.0963C163.549 18.31 163.587 18.5246 163.675 18.7192C164.049 18.882 164.464 18.9173 164.859 18.8198C165.006 18.3188 165.291 17.8719 165.682 17.5336C165.05 17.6509 164.401 17.6395 163.773 17.5Z" fill="#FFAD3B"/>
<path d="M258.617 117.462C258.662 117.564 258.685 117.674 258.685 117.786C258.685 117.898 258.662 118.008 258.617 118.111C259.215 118.121 259.81 118.038 260.383 117.864C260.432 117.599 260.413 117.326 260.329 117.07C259.8 117.346 259.211 117.481 258.617 117.462Z" fill="#FFAD3B"/>
<path d="M139.688 124.132C139.643 124.03 139.62 123.919 139.62 123.808C139.62 123.696 139.643 123.585 139.688 123.483C139.09 123.473 138.494 123.556 137.921 123.729C137.873 123.994 137.892 124.268 137.976 124.523C138.505 124.248 139.094 124.113 139.688 124.132Z" fill="#FFAD3B"/>
<path d="M196.039 124.132C195.994 124.03 195.971 123.919 195.971 123.808C195.971 123.696 195.994 123.585 196.039 123.483C195.442 123.473 194.846 123.556 194.273 123.729C194.225 123.994 194.244 124.268 194.328 124.523C194.857 124.248 195.445 124.113 196.039 124.132Z" fill="#FFAD3B"/>
<path d="M142.609 22.6281C142.182 22.4781 141.719 22.4781 141.292 22.6281C141.161 22.9241 140.983 23.1961 140.766 23.4334C141.084 23.4334 141.248 23.5789 141.479 23.9592C141.784 23.4574 142.165 23.0082 142.609 22.6281Z" fill="#76C0FF"/>
<path d="M105.242 26.8624C105.767 27.3302 106.424 27.6161 107.118 27.6789C107.111 26.931 107.333 26.1996 107.754 25.5873C107.282 25.1036 106.719 24.723 106.098 24.4688C105.967 25.3156 105.677 26.1285 105.242 26.8624Z" fill="#163A76"/>
<g filter="url(#filter29_f_3555_45274)">
<path d="M298.008 22.9936C298.127 23.4147 298.16 23.8562 298.107 24.291C298.885 23.9561 299.704 23.7304 300.542 23.6199C300.694 23.2167 300.694 22.7704 300.542 22.3672C299.677 22.4813 298.828 22.6913 298.008 22.9936Z" fill="#163A76"/>
</g>
<g filter="url(#filter30_f_3555_45274)">
<path d="M273.992 129.683C275.086 130.339 275.905 131.382 276.296 132.613C277.68 131.153 278.814 129.466 279.653 127.625C278.776 126.803 277.736 126.185 276.603 125.812C276.03 127.287 275.138 128.61 273.992 129.683Z" fill="#FF1D5C"/>
</g>
<g filter="url(#filter31_f_3555_45274)">
<path d="M124.312 111.919C123.219 111.262 122.399 110.22 122.009 108.989C120.625 110.449 119.49 112.135 118.652 113.977C119.528 114.799 120.569 115.417 121.702 115.789C122.274 114.315 123.167 112.992 124.312 111.919Z" fill="#FF1D5C"/>
</g>
<g filter="url(#filter32_f_3555_45274)">
<path d="M180.664 111.919C179.571 111.262 178.751 110.22 178.36 108.989C176.977 110.449 175.842 112.135 175.004 113.977C175.88 114.799 176.92 115.417 178.053 115.789C178.626 114.315 179.518 112.992 180.664 111.919Z" fill="#FF1D5C"/>
</g>
<path d="M31.3125 166.689C31.7938 166.959 32.153 167.383 32.3225 167.883C32.9608 167.29 33.4919 166.605 33.8951 165.854C33.5053 165.505 33.0383 165.24 32.5271 165.078C32.257 165.694 31.8418 166.244 31.3125 166.689Z" fill="#76C0FF"/>
<g filter="url(#filter33_f_3555_45274)">
<path d="M263.768 168.702C263.624 168.19 263.583 167.654 263.647 167.125C262.696 167.53 261.696 167.805 260.674 167.942C260.484 168.43 260.484 168.974 260.674 169.463C261.731 169.335 262.77 169.08 263.768 168.702Z" fill="#163A76"/>
</g>
<g filter="url(#filter34_f_3555_45274)">
<path d="M134.545 72.8995C134.688 73.4117 134.729 73.9479 134.665 74.4766C135.617 74.0714 136.616 73.7968 137.638 73.6601C137.829 73.1716 137.829 72.6273 137.638 72.1389C136.581 72.2665 135.543 72.5218 134.545 72.8995Z" fill="#163A76"/>
</g>
<g filter="url(#filter35_f_3555_45274)">
<path d="M190.889 72.8995C191.032 73.4117 191.073 73.9479 191.009 74.4766C191.96 74.0714 192.96 73.7968 193.982 73.6601C194.173 73.1716 194.173 72.6273 193.982 72.1389C192.925 72.2665 191.887 72.5218 190.889 72.8995Z" fill="#163A76"/>
</g>
<g filter="url(#filter36_f_3555_45274)">
<path d="M49.3614 139.165C49.9648 138.964 50.2719 138.55 50.7327 137.846C49.0576 136.664 47.6109 135.178 46.4653 133.461C46.0998 133.967 45.5783 134.333 44.9844 134.501C46.1009 136.356 47.5933 137.946 49.3614 139.165Z" fill="#163A76"/>
</g>
<g filter="url(#filter37_f_3555_45274)">
<path d="M292.037 191.265C291.707 190.84 291.289 190.494 290.813 190.252C290.337 190.01 289.815 189.879 289.283 189.867C288.355 191.402 287.25 192.817 285.992 194.084C286.524 194.309 286.992 194.667 287.352 195.124C288.717 193.608 290.296 192.307 292.037 191.265Z" fill="#FFAD3B"/>
</g>
<g filter="url(#filter38_f_3555_45274)">
<path d="M106.268 50.3362C106.598 50.7617 107.015 51.1077 107.491 51.3494C107.967 51.5911 108.49 51.7225 109.022 51.7344C109.949 50.1998 111.054 48.7842 112.312 47.5176C111.781 47.2926 111.313 46.9349 110.952 46.4774C109.587 47.9937 108.009 49.2942 106.268 50.3362Z" fill="#FFAD3B"/>
</g>
<g filter="url(#filter39_f_3555_45274)">
<path d="M162.62 50.3362C162.949 50.7617 163.367 51.1077 163.843 51.3494C164.319 51.5911 164.841 51.7225 165.373 51.7344C166.301 50.1998 167.406 48.7842 168.664 47.5176C168.132 47.2926 167.665 46.9349 167.304 46.4774C165.939 47.9937 164.36 49.2942 162.62 50.3362Z" fill="#FFAD3B"/>
</g>
<path d="M123.599 11.2578C123.509 11.5399 123.346 11.7923 123.128 11.9889C122.91 12.1855 122.645 12.3193 122.359 12.3763C122.924 12.9687 123.614 13.4204 124.378 13.6962C124.626 13.6276 124.853 13.4932 125.034 13.3065C125.215 13.1199 125.344 12.8877 125.409 12.6336C124.688 12.3632 124.059 11.8853 123.599 11.2578Z" fill="#163A76"/>
<path d="M33.4584 45.0112C33.4915 44.5837 33.6032 44.1664 33.7875 43.7809C33.5934 43.6728 33.3696 43.6334 33.1512 43.669C32.9518 44.0552 32.8112 44.4701 32.7344 44.8994C33.0635 44.7987 33.2609 44.8099 33.4584 45.0112Z" fill="#FFAD3B"/>
<path d="M248.542 97.2188C248.259 97.7336 248.063 98.2931 247.961 98.8741C248.329 98.9449 248.708 98.9101 249.058 98.7735C249.056 98.4049 249.176 98.0465 249.398 97.7556C249.224 97.7421 249.055 97.6863 248.906 97.5929C248.757 97.4996 248.633 97.3713 248.542 97.2188Z" fill="#FFAD3B"/>
<path d="M149.762 144.383C150.045 143.868 150.242 143.308 150.344 142.727C149.976 142.657 149.596 142.691 149.247 142.828C149.248 143.197 149.129 143.555 148.907 143.846C149.081 143.859 149.25 143.915 149.398 144.009C149.547 144.102 149.672 144.23 149.762 144.383Z" fill="#FFAD3B"/>
<path d="M206.114 144.383C206.397 143.868 206.593 143.308 206.695 142.727C206.328 142.657 205.948 142.691 205.598 142.828C205.6 143.197 205.48 143.555 205.258 143.846C205.433 143.859 205.601 143.915 205.75 144.009C205.899 144.102 206.024 144.23 206.114 144.383Z" fill="#FFAD3B"/>
<path d="M93.5326 10.5938C93.5005 10.9803 93.5527 11.3693 93.6855 11.7329C93.8182 12.0965 94.0283 12.4256 94.3006 12.6966C95.5294 12.3625 96.7921 12.1748 98.0633 12.1373C97.8903 11.7526 97.8184 11.3285 97.8549 10.9069C96.4069 11.0276 94.9493 10.922 93.5326 10.5938Z" fill="#76C0FF"/>
<g filter="url(#filter40_f_3555_45274)">
<path d="M88.7734 77.5166C90.1103 77.5359 91.3941 78.0399 92.3843 78.9341C92.9026 76.9057 93.0788 74.8056 92.9056 72.7196C91.6777 72.458 90.4082 72.458 89.1803 72.7196C89.3963 74.3291 89.2575 75.966 88.7734 77.5166Z" fill="#163A76"/>
</g>
<path d="M64.1662 50.9443C64.7805 49.8258 65.8446 49.0316 68.7407 48.1928C68.152 46.945 67.1871 45.922 65.9872 45.2734C64.1795 45.9653 62.5774 47.1211 61.3359 48.629C62.4978 49.0724 63.4898 49.8839 64.1662 50.9443Z" fill="#FF1D5C"/>
<g filter="url(#filter41_f_3555_45274)">
<path d="M238.924 116.999C239.697 116.364 240.252 115.478 240.504 114.475C239.496 114.291 238.57 113.772 237.858 112.992C237.099 113.555 236.461 114.282 235.984 115.126C237.07 115.539 238.069 116.176 238.924 116.999Z" fill="#163A76"/>
</g>
<g filter="url(#filter42_f_3555_45274)">
<path d="M159.381 124.611C158.608 125.245 158.053 126.132 157.801 127.134C158.808 127.318 159.735 127.838 160.446 128.617C161.205 128.054 161.844 127.327 162.32 126.484C161.234 126.07 160.235 125.434 159.381 124.611Z" fill="#163A76"/>
</g>
<g filter="url(#filter43_f_3555_45274)">
<path d="M215.732 124.611C214.96 125.245 214.405 126.132 214.152 127.134C215.16 127.318 216.086 127.838 216.798 128.617C217.557 128.054 218.196 127.327 218.672 126.484C217.586 126.07 216.587 125.434 215.732 124.611Z" fill="#163A76"/>
</g>
<g filter="url(#filter44_f_3555_45274)">
<path d="M258.58 93.0996C258.571 92.6628 258.455 92.2358 258.243 91.8598C258.031 91.4838 257.731 91.1715 257.371 90.9531C256.58 91.1224 255.867 91.5705 255.352 92.2233C255.674 93.2353 255.721 94.3223 255.485 95.3605C256.36 94.3944 257.413 93.6252 258.58 93.0996Z" fill="#76C0FF"/>
</g>
<g filter="url(#filter45_f_3555_45274)">
<path d="M139.725 148.502C139.734 148.939 139.85 149.366 140.061 149.742C140.273 150.118 140.574 150.43 140.934 150.648C141.725 150.479 142.438 150.031 142.953 149.378C142.63 148.366 142.584 147.279 142.82 146.241C141.945 147.207 140.892 147.976 139.725 148.502Z" fill="#76C0FF"/>
</g>
<g filter="url(#filter46_f_3555_45274)">
<path d="M196.077 148.502C196.085 148.939 196.201 149.366 196.413 149.742C196.625 150.118 196.925 150.43 197.286 150.648C198.077 150.479 198.789 150.031 199.305 149.378C198.982 148.366 198.936 147.279 199.172 146.241C198.296 147.207 197.243 147.976 196.077 148.502Z" fill="#76C0FF"/>
</g>
<g filter="url(#filter47_f_3555_45274)">
<path d="M256.484 40.0681C256.751 39.8266 256.922 39.4932 256.965 39.1311C255.892 38.8303 254.88 38.3333 253.98 37.6641C253.883 37.9913 253.684 38.277 253.414 38.4777C254.313 39.2281 255.361 39.7706 256.484 40.0681Z" fill="#163A76"/>
</g>
<path d="M159.295 157.424C159.766 157.107 160.145 156.667 160.392 156.149C160.215 155.846 159.939 155.616 159.613 155.5C159.376 156.015 158.994 156.448 158.516 156.742C158.69 156.782 158.852 156.865 158.988 156.984C159.124 157.103 159.229 157.254 159.295 157.424Z" fill="#76C0FF"/>
<g filter="url(#filter48_f_3555_45274)">
<path d="M36.538 186.064C36.7883 187.419 36.5382 188.822 35.8359 190.001C37.9551 190.126 40.0798 189.887 42.1218 189.296C42.1642 188.001 41.9322 186.711 41.4416 185.516C40.202 186.086 38.8308 186.108 36.538 186.064Z" fill="#76C0FF"/>
</g>
<path d="M3.44531 158.939C3.96351 160.036 4.81335 160.933 5.86969 161.5C6.6739 161.233 7.51387 161.093 8.35988 161.087C7.78944 160.483 7.7675 159.89 8.07466 158.727C6.55323 159.054 4.98947 159.126 3.44531 158.939Z" fill="#76C0FF"/>
<path d="M120.569 166.044C120.889 165.77 121.112 165.397 121.205 164.981C120.791 164.917 120.408 164.721 120.108 164.422C119.795 164.664 119.537 164.974 119.352 165.328C119.798 165.486 120.211 165.729 120.569 166.044Z" fill="#FF1D5C"/>
<g filter="url(#filter49_f_3555_45274)">
<path d="M249.027 146.594C248.509 146.966 248.124 147.5 247.93 148.115C248.582 148.273 249.167 148.642 249.597 149.166C250.122 148.849 250.571 148.417 250.914 147.902C250.205 147.599 249.564 147.154 249.027 146.594Z" fill="#FF1D5C"/>
</g>
<g filter="url(#filter50_f_3555_45274)">
<path d="M149.286 95.0078C149.804 94.6356 150.189 94.1017 150.383 93.4866C149.731 93.3283 149.146 92.9595 148.715 92.4352C148.191 92.753 147.742 93.1845 147.399 93.6992C148.107 94.003 148.749 94.4479 149.286 95.0078Z" fill="#FF1D5C"/>
</g>
<g filter="url(#filter51_f_3555_45274)">
<path d="M205.63 95.0078C206.148 94.6356 206.533 94.1017 206.727 93.4866C206.074 93.3283 205.489 92.9595 205.059 92.4352C204.535 92.753 204.085 93.1845 203.743 93.6992C204.451 94.003 205.092 94.4479 205.63 95.0078Z" fill="#FF1D5C"/>
</g>
<path d="M121.766 176.478C121.847 176.656 121.966 176.813 122.114 176.939C122.262 177.064 122.435 177.155 122.621 177.205C123.067 176.74 123.569 176.335 124.113 175.997C123.944 175.873 123.808 175.707 123.718 175.516C123.12 175.938 122.462 176.262 121.766 176.478Z" fill="#76C0FF"/>
<path d="M189.205 100.92C189.087 100.732 188.925 100.577 188.734 100.469C188.542 100.362 188.327 100.305 188.108 100.305C187.794 100.6 187.586 100.994 187.516 101.423C187.922 101.779 188.223 102.244 188.382 102.765C188.529 102.099 188.809 101.471 189.205 100.92Z" fill="#76C0FF"/>
<path d="M95.7052 84.0985C95.8027 83.997 95.8606 83.8822 95.8739 83.7637C95.8873 83.6451 95.8558 83.5263 95.782 83.4171C95.132 83.4884 94.4646 83.4606 93.8349 83.3359C93.9026 83.5776 93.8249 83.8265 93.6172 84.0336C94.299 84.1447 95.0094 84.1668 95.7052 84.0985Z" fill="#FFAD3B"/>
<path d="M250.836 51.879C251.741 52.5604 252.489 53.4344 253.03 54.4403C254.154 52.4971 255.534 50.7207 257.133 49.161C256.876 48.0625 256.222 47.1036 255.301 46.4766C253.608 48.0912 252.11 49.9046 250.836 51.879Z" fill="#76C0FF"/>
<path d="M147.477 189.723C146.572 189.041 145.823 188.167 145.283 187.161C144.159 189.104 142.778 190.881 141.18 192.441C141.436 193.539 142.091 194.498 143.012 195.125C144.704 193.51 146.203 191.697 147.477 189.723Z" fill="#76C0FF"/>
<path d="M203.82 189.723C202.915 189.041 202.167 188.167 201.626 187.161C200.503 189.104 199.122 190.881 197.524 192.441C197.78 193.539 198.435 194.498 199.356 195.125C201.048 193.51 202.547 191.697 203.82 189.723Z" fill="#76C0FF"/>
<g filter="url(#filter52_f_3555_45274)">
<path d="M5.93681 7.36279C5.31152 7.29568 4.69719 6.9825 3.7428 5.79688C3.29719 6.34712 3.03922 7.03022 3.00781 7.74309C3.70275 8.43869 4.55961 8.94288 5.49801 9.20834C5.44263 8.5608 5.59675 7.91259 5.93681 7.36279Z" fill="#FF1D5C"/>
</g>
<g filter="url(#filter53_f_3555_45274)">
<path d="M290.421 83.8139C290.335 83.6183 290.305 83.4014 290.336 83.1892C290.368 82.977 290.458 82.7784 290.597 82.6171C290.015 82.5638 289.43 82.648 288.885 82.8632C288.779 83.0272 288.717 83.217 288.705 83.4134C288.694 83.6098 288.733 83.8058 288.819 83.9817C289.325 83.763 289.883 83.7045 290.421 83.8139Z" fill="#FF0B4F"/>
</g>
<g filter="url(#filter54_f_3555_45274)">
<path d="M107.884 157.788C107.97 157.983 107.999 158.2 107.968 158.412C107.937 158.625 107.847 158.823 107.708 158.984C108.289 159.038 108.875 158.954 109.419 158.738C109.526 158.574 109.588 158.385 109.6 158.188C109.611 157.992 109.572 157.796 109.485 157.62C108.98 157.839 108.422 157.897 107.884 157.788Z" fill="#FF0B4F"/>
</g>
<g filter="url(#filter55_f_3555_45274)">
<path d="M164.235 157.788C164.322 157.983 164.351 158.2 164.32 158.412C164.289 158.625 164.198 158.823 164.06 158.984C164.641 159.038 165.227 158.954 165.771 158.738C165.877 158.574 165.94 158.385 165.951 158.188C165.963 157.992 165.923 157.796 165.837 157.62C165.332 157.839 164.773 157.897 164.235 157.788Z" fill="#FF0B4F"/>
</g>
<g filter="url(#filter56_f_3555_45274)">
<path d="M288.602 36.8622C289.611 37.1977 290.488 37.9807 291.706 40.3072C292.633 39.5755 293.306 38.5603 293.626 37.4102C292.729 35.9989 291.495 34.844 290.039 34.0547C289.867 35.1233 289.363 36.1074 288.602 36.8622Z" fill="#FFAD3B"/>
</g>
<g filter="url(#filter57_f_3555_45274)">
<path d="M11.125 114.306C11.4042 114.389 11.6629 114.532 11.8842 114.725C12.1054 114.918 12.2841 115.156 12.4085 115.424C13.5879 114.311 14.6039 113.03 15.4252 111.621C15.0484 110.996 14.5093 110.489 13.8675 110.156C13.3279 111.762 12.3818 113.193 11.125 114.306Z" fill="#FF1D5C"/>
</g>
<g filter="url(#filter58_f_3555_45274)">
<path d="M311.832 51.2074C311.329 50.9179 310.741 50.8226 310.175 50.939C310.274 52.7825 310.04 54.6288 309.484 56.3861C310.027 56.3723 310.559 56.5413 310.998 56.8671C311.669 55.0628 311.954 53.133 311.832 51.2074Z" fill="#FF0B4F"/>
</g>
<g filter="url(#filter59_f_3555_45274)">
<path d="M86.4727 190.394C86.9753 190.684 87.5634 190.779 88.1292 190.663C88.0306 188.819 88.2648 186.973 88.8203 185.215C88.2775 185.229 87.7455 185.06 87.3065 184.734C86.6354 186.539 86.3511 188.469 86.4727 190.394Z" fill="#FF0B4F"/>
</g>
<g filter="url(#filter60_f_3555_45274)">
<path d="M142.824 190.394C143.327 190.684 143.915 190.779 144.481 190.663C144.382 188.819 144.616 186.973 145.172 185.215C144.629 185.229 144.097 185.06 143.658 184.734C142.987 186.539 142.703 188.469 142.824 190.394Z" fill="#FF0B4F"/>
</g>
<g filter="url(#filter61_f_3555_45274)">
<path d="M32.8199 4.61351C32.3108 4.37044 31.749 4.2644 31.1883 4.30552C30.6275 4.34664 30.0865 4.53353 29.6167 4.84839C29.3367 5.92184 29.4179 7.05998 29.847 8.08089C31.2062 8.26755 32.4848 8.84572 33.533 9.74748C32.9598 8.10229 32.7173 6.35629 32.8199 4.61351Z" fill="#FF1D5C"/>
</g>
<g filter="url(#filter62_f_3555_45274)">
<path d="M69.8828 6.34132C71.4573 6.46817 73.0301 6.07608 74.3696 5.22281C74.6026 4.10314 75.0061 3.02754 75.5653 2.03505C74.4683 2.30349 73.8211 1.93438 72.7241 0.804688C72.0747 2.79384 71.1154 4.66333 69.8828 6.34132Z" fill="#FF0B4F"/>
</g>
<g filter="url(#filter63_f_3555_45274)">
<path d="M32.0252 50.1797C32.0252 51.1602 31.4827 52.098 29.7031 53.6753C30.5585 54.3382 31.6089 54.712 32.698 54.741C33.7574 53.642 34.5055 52.29 34.8682 50.8191C33.8756 50.9068 32.8801 50.6829 32.0252 50.1797Z" fill="#FF0B4F"/>
</g>
<g filter="url(#filter64_f_3555_45274)">
<path d="M226.298 5.02586C226.571 6.25274 226.475 7.53505 226.023 8.70576C226.253 8.70929 226.478 8.7619 226.686 8.86018C226.894 8.95845 227.079 9.10019 227.23 9.2762C227.808 8.033 228.032 6.64966 227.877 5.28312C227.383 5.05505 226.837 4.96621 226.298 5.02586Z" fill="#FFAD3B"/>
</g>
<g filter="url(#filter65_f_3555_45274)">
<path d="M286.02 8.32501C286.375 7.8885 286.565 7.33723 286.557 6.77028C284.823 6.53769 283.143 5.9883 281.599 5.14844C281.52 5.6815 281.265 6.17096 280.875 6.53539C282.445 7.50027 284.199 8.11054 286.02 8.32501Z" fill="#FFAD3B"/>
</g>
<g filter="url(#filter66_f_3555_45274)">
<path d="M17.6004 39.4788C16.8422 38.8563 15.9075 38.4994 14.9347 38.4609C14.4301 38.9446 13.8569 39.3481 13.2344 39.6577C13.8706 39.9038 14.09 40.3177 14.2546 41.2908C15.2679 40.5087 16.3975 39.8969 17.6004 39.4788Z" fill="#FF1D5C"/>
</g>
<g filter="url(#filter67_f_3555_45274)">
<path d="M10.7112 82.2863C11.2266 82.4843 11.7841 82.5399 12.3273 82.4476C12.8705 82.3553 13.3802 82.1183 13.8047 81.7606C13.9738 80.7043 13.8005 79.6205 13.3111 78.6735C11.9704 78.6211 10.6724 78.1786 9.57031 77.3984C10.2716 78.9321 10.6598 80.595 10.7112 82.2863Z" fill="#76C0FF"/>
</g>
<g filter="url(#filter68_f_3555_45274)">
<path d="M250.268 6.70462C250.898 5.49029 251.313 4.17289 251.497 2.8122C250.677 2.7051 249.845 2.82087 249.083 3.14776C249.109 4.00885 248.854 4.85437 248.359 5.55255C248.742 5.58762 249.111 5.70925 249.442 5.90856C249.772 6.10787 250.054 6.37984 250.268 6.70462Z" fill="#FFAD3B"/>
</g>
<path d="M54.5547 107.721C55.647 109.798 57.3867 111.436 59.4943 112.375C60.2565 110.119 61.6907 108.167 63.5937 106.795C62.6561 104.805 61.3306 103.035 59.6993 101.594C58.3828 103.956 56.6362 106.037 54.5547 107.721Z" fill="#76C0FF"/>
<path d="M234.254 93.7578C233.84 94.7875 233.219 95.7237 232.43 96.5104C232.823 96.9514 233.354 97.2514 233.938 97.3638C234.753 96.5696 235.442 95.6577 235.981 94.6593C235.069 94.5992 234.594 94.4309 234.254 93.7578Z" fill="#FF1D5C"/>
<path d="M164.051 147.844C164.465 146.814 165.085 145.878 165.875 145.091C165.481 144.65 164.951 144.35 164.367 144.238C163.552 145.032 162.863 145.944 162.324 146.942C163.236 147.002 163.71 147.171 164.051 147.844Z" fill="#FF1D5C"/>
<path d="M220.402 147.844C220.817 146.814 221.437 145.878 222.227 145.091C221.833 144.65 221.303 144.35 220.719 144.238C219.903 145.032 219.214 145.944 218.676 146.942C219.588 147.002 220.062 147.171 220.402 147.844Z" fill="#FF1D5C"/>
<g filter="url(#filter69_f_3555_45274)">
<path d="M273.43 78.2236C273.792 79.3421 274.582 79.8902 276.03 80.4607C276.961 78.5535 278.313 76.892 279.979 75.6063C278.894 75.0325 278.049 74.0795 277.598 72.9219C275.863 74.3746 274.443 76.1802 273.43 78.2236Z" fill="#FF0B4F"/>
</g>
<g filter="url(#filter70_f_3555_45274)">
<path d="M124.875 163.378C124.513 162.259 123.723 161.711 122.275 161.141C121.344 163.048 119.992 164.71 118.326 165.995C119.41 166.569 120.255 167.522 120.706 168.68C122.442 167.227 123.862 165.421 124.875 163.378Z" fill="#FF0B4F"/>
</g>
<g filter="url(#filter71_f_3555_45274)">
<path d="M181.227 163.378C180.865 162.259 180.075 161.711 178.627 161.141C177.695 163.048 176.344 164.71 174.677 165.995C175.762 166.569 176.607 167.522 177.058 168.68C178.794 167.227 180.213 165.421 181.227 163.378Z" fill="#FF0B4F"/>
</g>
</g>
<defs>
<filter id="filter0_f_3555_45274" x="412.225" y="131.804" width="9.90843" height="11.0334" filterUnits="userSpaceOnUse" color-interpolation-filters="sRGB">
<feFlood flood-opacity="0" result="BackgroundImageFix"/>
<feBlend mode="normal" in="SourceGraphic" in2="BackgroundImageFix" result="shape"/>
<feGaussianBlur stdDeviation="1.70758" result="effect1_foregroundBlur_3555_45274"/>
</filter>
<filter id="filter1_f_3555_45274" x="473.522" y="18.952" width="9.71311" height="8.75218" filterUnits="userSpaceOnUse" color-interpolation-filters="sRGB">
<feFlood flood-opacity="0" result="BackgroundImageFix"/>
<feBlend mode="normal" in="SourceGraphic" in2="BackgroundImageFix" result="shape"/>
<feGaussianBlur stdDeviation="1.70758" result="effect1_foregroundBlur_3555_45274"/>
</filter>
<filter id="filter2_f_3555_45274" x="447.382" y="122.397" width="12.9944" height="13.6272" filterUnits="userSpaceOnUse" color-interpolation-filters="sRGB">
<feFlood flood-opacity="0" result="BackgroundImageFix"/>
<feBlend mode="normal" in="SourceGraphic" in2="BackgroundImageFix" result="shape"/>
<feGaussianBlur stdDeviation="1.70758" result="effect1_foregroundBlur_3555_45274"/>
</filter>
<filter id="filter3_f_3555_45274" x="432.733" y="163.71" width="10.3537" height="9.16624" filterUnits="userSpaceOnUse" color-interpolation-filters="sRGB">
<feFlood flood-opacity="0" result="BackgroundImageFix"/>
<feBlend mode="normal" in="SourceGraphic" in2="BackgroundImageFix" result="shape"/>
<feGaussianBlur stdDeviation="1.70758" result="effect1_foregroundBlur_3555_45274"/>
</filter>
<filter id="filter4_f_3555_45274" x="198.163" y="130.046" width="13.0881" height="12.5334" filterUnits="userSpaceOnUse" color-interpolation-filters="sRGB">
<feFlood flood-opacity="0" result="BackgroundImageFix"/>
<feBlend mode="normal" in="SourceGraphic" in2="BackgroundImageFix" result="shape"/>
<feGaussianBlur stdDeviation="1.70758" result="effect1_foregroundBlur_3555_45274"/>
</filter>
<filter id="filter5_f_3555_45274" x="460.444" y="186.452" width="13.4084" height="12.0881" filterUnits="userSpaceOnUse" color-interpolation-filters="sRGB">
<feFlood flood-opacity="0" result="BackgroundImageFix"/>
<feBlend mode="normal" in="SourceGraphic" in2="BackgroundImageFix" result="shape"/>
<feGaussianBlur stdDeviation="1.70758" result="effect1_foregroundBlur_3555_45274"/>
</filter>
<filter id="filter6_f_3555_45274" x="245.811" y="69.1083" width="11.4006" height="13.2444" filterUnits="userSpaceOnUse" color-interpolation-filters="sRGB">
<feFlood flood-opacity="0" result="BackgroundImageFix"/>
<feBlend mode="normal" in="SourceGraphic" in2="BackgroundImageFix" result="shape"/>
<feGaussianBlur stdDeviation="1.70758" result="effect1_foregroundBlur_3555_45274"/>
</filter>
<filter id="filter7_f_3555_45274" x="406.022" y="109.577" width="11.7522" height="10.8381" filterUnits="userSpaceOnUse" color-interpolation-filters="sRGB">
<feFlood flood-opacity="0" result="BackgroundImageFix"/>
<feBlend mode="normal" in="SourceGraphic" in2="BackgroundImageFix" result="shape"/>
<feGaussianBlur stdDeviation="1.70758" result="effect1_foregroundBlur_3555_45274"/>
</filter>
<filter id="filter8_f_3555_45274" x="427.1" y="87.538" width="10.3459" height="11.2366" filterUnits="userSpaceOnUse" color-interpolation-filters="sRGB">
<feFlood flood-opacity="0" result="BackgroundImageFix"/>
<feBlend mode="normal" in="SourceGraphic" in2="BackgroundImageFix" result="shape"/>
<feGaussianBlur stdDeviation="1.70758" result="effect1_foregroundBlur_3555_45274"/>
</filter>
<filter id="filter9_f_3555_45274" x="424.991" y="34.2489" width="10.6975" height="9.23655" filterUnits="userSpaceOnUse" color-interpolation-filters="sRGB">
<feFlood flood-opacity="0" result="BackgroundImageFix"/>
<feBlend mode="normal" in="SourceGraphic" in2="BackgroundImageFix" result="shape"/>
<feGaussianBlur stdDeviation="1.70758" result="effect1_foregroundBlur_3555_45274"/>
</filter>
<filter id="filter10_f_3555_45274" x="188.202" y="182.1" width="13.6741" height="11.3459" filterUnits="userSpaceOnUse" color-interpolation-filters="sRGB">
<feFlood flood-opacity="0" result="BackgroundImageFix"/>
<feBlend mode="normal" in="SourceGraphic" in2="BackgroundImageFix" result="shape"/>
<feGaussianBlur stdDeviation="1.70758" result="effect1_foregroundBlur_3555_45274"/>
</filter>
<filter id="filter11_f_3555_45274" x="419.015" y="143.179" width="10.0803" height="9.40061" filterUnits="userSpaceOnUse" color-interpolation-filters="sRGB">
<feFlood flood-opacity="0" result="BackgroundImageFix"/>
<feBlend mode="normal" in="SourceGraphic" in2="BackgroundImageFix" result="shape"/>
<feGaussianBlur stdDeviation="1.70758" result="effect1_foregroundBlur_3555_45274"/>
</filter>
<filter id="filter12_f_3555_45274" x="152.475" y="2.38954" width="10.0178" height="10.2444" filterUnits="userSpaceOnUse" color-interpolation-filters="sRGB">
<feFlood flood-opacity="0" result="BackgroundImageFix"/>
<feBlend mode="normal" in="SourceGraphic" in2="BackgroundImageFix" result="shape"/>
<feGaussianBlur stdDeviation="1.70758" result="effect1_foregroundBlur_3555_45274"/>
</filter>
<filter id="filter13_f_3555_45274" x="463.397" y="79.1942" width="8.8928" height="8.21311" filterUnits="userSpaceOnUse" color-interpolation-filters="sRGB">
<feFlood flood-opacity="0" result="BackgroundImageFix"/>
<feBlend mode="normal" in="SourceGraphic" in2="BackgroundImageFix" result="shape"/>
<feGaussianBlur stdDeviation="1.70758" result="effect1_foregroundBlur_3555_45274"/>
</filter>
<filter id="filter14_f_3555_45274" x="463.288" y="30.6473" width="12.2991" height="13.0803" filterUnits="userSpaceOnUse" color-interpolation-filters="sRGB">
<feFlood flood-opacity="0" result="BackgroundImageFix"/>
<feBlend mode="normal" in="SourceGraphic" in2="BackgroundImageFix" result="shape"/>
<feGaussianBlur stdDeviation="1.70758" result="effect1_foregroundBlur_3555_45274"/>
</filter>
<filter id="filter15_f_3555_45274" x="161.311" y="106.749" width="11.51" height="12.0959" filterUnits="userSpaceOnUse" color-interpolation-filters="sRGB">
<feFlood flood-opacity="0" result="BackgroundImageFix"/>
<feBlend mode="normal" in="SourceGraphic" in2="BackgroundImageFix" result="shape"/>
<feGaussianBlur stdDeviation="1.70758" result="effect1_foregroundBlur_3555_45274"/>
</filter>
<filter id="filter16_f_3555_45274" x="486.015" y="47.4833" width="9.41624" height="12.8069" filterUnits="userSpaceOnUse" color-interpolation-filters="sRGB">
<feFlood flood-opacity="0" result="BackgroundImageFix"/>
<feBlend mode="normal" in="SourceGraphic" in2="BackgroundImageFix" result="shape"/>
<feGaussianBlur stdDeviation="1.70758" result="effect1_foregroundBlur_3555_45274"/>
</filter>
<filter id="filter17_f_3555_45274" x="181.257" y="0.881724" width="11.2678" height="12.2834" filterUnits="userSpaceOnUse" color-interpolation-filters="sRGB">
<feFlood flood-opacity="0" result="BackgroundImageFix"/>
<feBlend mode="normal" in="SourceGraphic" in2="BackgroundImageFix" result="shape"/>
<feGaussianBlur stdDeviation="1.70758" result="effect1_foregroundBlur_3555_45274"/>
</filter>
<filter id="filter18_f_3555_45274" x="225.257" y="-2.60265" width="13.0178" height="12.3928" filterUnits="userSpaceOnUse" color-interpolation-filters="sRGB">
<feFlood flood-opacity="0" result="BackgroundImageFix"/>
<feBlend mode="normal" in="SourceGraphic" in2="BackgroundImageFix" result="shape"/>
<feGaussianBlur stdDeviation="1.70758" result="effect1_foregroundBlur_3555_45274"/>
</filter>
<filter id="filter19_f_3555_45274" x="181.522" y="46.7645" width="12.4553" height="11.3928" filterUnits="userSpaceOnUse" color-interpolation-filters="sRGB">
<feFlood flood-opacity="0" result="BackgroundImageFix"/>
<feBlend mode="normal" in="SourceGraphic" in2="BackgroundImageFix" result="shape"/>
<feGaussianBlur stdDeviation="1.70758" result="effect1_foregroundBlur_3555_45274"/>
</filter>
<filter id="filter20_f_3555_45274" x="395.186" y="1.60047" width="8.90061" height="11.0959" filterUnits="userSpaceOnUse" color-interpolation-filters="sRGB">
<feFlood flood-opacity="0" result="BackgroundImageFix"/>
<feBlend mode="normal" in="SourceGraphic" in2="BackgroundImageFix" result="shape"/>
<feGaussianBlur stdDeviation="1.70758" result="effect1_foregroundBlur_3555_45274"/>
</filter>
<filter id="filter21_f_3555_45274" x="454.882" y="1.73329" width="13.0178" height="10.01" filterUnits="userSpaceOnUse" color-interpolation-filters="sRGB">
<feFlood flood-opacity="0" result="BackgroundImageFix"/>
<feBlend mode="normal" in="SourceGraphic" in2="BackgroundImageFix" result="shape"/>
<feGaussianBlur stdDeviation="1.70758" result="effect1_foregroundBlur_3555_45274"/>
</filter>
<filter id="filter22_f_3555_45274" x="163.608" y="35.0536" width="11.5803" height="9.65843" filterUnits="userSpaceOnUse" color-interpolation-filters="sRGB">
<feFlood flood-opacity="0" result="BackgroundImageFix"/>
<feBlend mode="normal" in="SourceGraphic" in2="BackgroundImageFix" result="shape"/>
<feGaussianBlur stdDeviation="1.70758" result="effect1_foregroundBlur_3555_45274"/>
</filter>
<filter id="filter23_f_3555_45274" x="159.624" y="73.9833" width="11.51" height="11.9241" filterUnits="userSpaceOnUse" color-interpolation-filters="sRGB">
<feFlood flood-opacity="0" result="BackgroundImageFix"/>
<feBlend mode="normal" in="SourceGraphic" in2="BackgroundImageFix" result="shape"/>
<feGaussianBlur stdDeviation="1.70758" result="effect1_foregroundBlur_3555_45274"/>
</filter>
<filter id="filter24_f_3555_45274" x="419.491" y="-0.641714" width="10.2444" height="10.76" filterUnits="userSpaceOnUse" color-interpolation-filters="sRGB">
<feFlood flood-opacity="0" result="BackgroundImageFix"/>
<feBlend mode="normal" in="SourceGraphic" in2="BackgroundImageFix" result="shape"/>
<feGaussianBlur stdDeviation="1.70758" result="effect1_foregroundBlur_3555_45274"/>
</filter>
<filter id="filter25_f_3555_45274" x="446.772" y="69.5067" width="13.9553" height="14.3694" filterUnits="userSpaceOnUse" color-interpolation-filters="sRGB">
<feFlood flood-opacity="0" result="BackgroundImageFix"/>
<feBlend mode="normal" in="SourceGraphic" in2="BackgroundImageFix" result="shape"/>
<feGaussianBlur stdDeviation="1.70758" result="effect1_foregroundBlur_3555_45274"/>
</filter>
<filter id="filter26_f_3555_45274" x="238.272" y="131.804" width="9.65843" height="11.0334" filterUnits="userSpaceOnUse" color-interpolation-filters="sRGB">
<feFlood flood-opacity="0" result="BackgroundImageFix"/>
<feBlend mode="normal" in="SourceGraphic" in2="BackgroundImageFix" result="shape"/>
<feGaussianBlur stdDeviation="1.70758" result="effect1_foregroundBlur_3555_45274"/>
</filter>
<filter id="filter27_f_3555_45274" x="150.382" y="98.7645" width="9.65843" height="11.0334" filterUnits="userSpaceOnUse" color-interpolation-filters="sRGB">
<feFlood flood-opacity="0" result="BackgroundImageFix"/>
<feBlend mode="normal" in="SourceGraphic" in2="BackgroundImageFix" result="shape"/>
<feGaussianBlur stdDeviation="1.70758" result="effect1_foregroundBlur_3555_45274"/>
</filter>
<filter id="filter28_f_3555_45274" x="206.725" y="98.7645" width="9.65843" height="11.0334" filterUnits="userSpaceOnUse" color-interpolation-filters="sRGB">
<feFlood flood-opacity="0" result="BackgroundImageFix"/>
<feBlend mode="normal" in="SourceGraphic" in2="BackgroundImageFix" result="shape"/>
<feGaussianBlur stdDeviation="1.70758" result="effect1_foregroundBlur_3555_45274"/>
</filter>
<filter id="filter29_f_3555_45274" x="294.593" y="18.952" width="9.47874" height="8.75218" filterUnits="userSpaceOnUse" color-interpolation-filters="sRGB">
<feFlood flood-opacity="0" result="BackgroundImageFix"/>
<feBlend mode="normal" in="SourceGraphic" in2="BackgroundImageFix" result="shape"/>
<feGaussianBlur stdDeviation="1.70758" result="effect1_foregroundBlur_3555_45274"/>
</filter>
<filter id="filter30_f_3555_45274" x="270.577" y="122.397" width="12.4944" height="13.6272" filterUnits="userSpaceOnUse" color-interpolation-filters="sRGB">
<feFlood flood-opacity="0" result="BackgroundImageFix"/>
<feBlend mode="normal" in="SourceGraphic" in2="BackgroundImageFix" result="shape"/>
<feGaussianBlur stdDeviation="1.70758" result="effect1_foregroundBlur_3555_45274"/>
</filter>
<filter id="filter31_f_3555_45274" x="115.233" y="105.577" width="12.4944" height="13.6272" filterUnits="userSpaceOnUse" color-interpolation-filters="sRGB">
<feFlood flood-opacity="0" result="BackgroundImageFix"/>
<feBlend mode="normal" in="SourceGraphic" in2="BackgroundImageFix" result="shape"/>
<feGaussianBlur stdDeviation="1.70758" result="effect1_foregroundBlur_3555_45274"/>
</filter>
<filter id="filter32_f_3555_45274" x="171.585" y="105.577" width="12.4944" height="13.6272" filterUnits="userSpaceOnUse" color-interpolation-filters="sRGB">
<feFlood flood-opacity="0" result="BackgroundImageFix"/>
<feBlend mode="normal" in="SourceGraphic" in2="BackgroundImageFix" result="shape"/>
<feGaussianBlur stdDeviation="1.70758" result="effect1_foregroundBlur_3555_45274"/>
</filter>
<filter id="filter33_f_3555_45274" x="257.116" y="163.71" width="10.0647" height="9.16624" filterUnits="userSpaceOnUse" color-interpolation-filters="sRGB">
<feFlood flood-opacity="0" result="BackgroundImageFix"/>
<feBlend mode="normal" in="SourceGraphic" in2="BackgroundImageFix" result="shape"/>
<feGaussianBlur stdDeviation="1.70758" result="effect1_foregroundBlur_3555_45274"/>
</filter>
<filter id="filter34_f_3555_45274" x="131.132" y="68.7255" width="10.0647" height="9.16624" filterUnits="userSpaceOnUse" color-interpolation-filters="sRGB">
<feFlood flood-opacity="0" result="BackgroundImageFix"/>
<feBlend mode="normal" in="SourceGraphic" in2="BackgroundImageFix" result="shape"/>
<feGaussianBlur stdDeviation="1.70758" result="effect1_foregroundBlur_3555_45274"/>
</filter>
<filter id="filter35_f_3555_45274" x="187.475" y="68.7255" width="10.0647" height="9.16624" filterUnits="userSpaceOnUse" color-interpolation-filters="sRGB">
<feFlood flood-opacity="0" result="BackgroundImageFix"/>
<feBlend mode="normal" in="SourceGraphic" in2="BackgroundImageFix" result="shape"/>
<feGaussianBlur stdDeviation="1.70758" result="effect1_foregroundBlur_3555_45274"/>
</filter>
<filter id="filter36_f_3555_45274" x="41.5692" y="130.046" width="12.5803" height="12.5334" filterUnits="userSpaceOnUse" color-interpolation-filters="sRGB">
<feFlood flood-opacity="0" result="BackgroundImageFix"/>
<feBlend mode="normal" in="SourceGraphic" in2="BackgroundImageFix" result="shape"/>
<feGaussianBlur stdDeviation="1.70758" result="effect1_foregroundBlur_3555_45274"/>
</filter>
<filter id="filter37_f_3555_45274" x="282.577" y="186.452" width="12.8772" height="12.0881" filterUnits="userSpaceOnUse" color-interpolation-filters="sRGB">
<feFlood flood-opacity="0" result="BackgroundImageFix"/>
<feBlend mode="normal" in="SourceGraphic" in2="BackgroundImageFix" result="shape"/>
<feGaussianBlur stdDeviation="1.70758" result="effect1_foregroundBlur_3555_45274"/>
</filter>
<filter id="filter38_f_3555_45274" x="102.85" y="43.0614" width="12.8772" height="12.0881" filterUnits="userSpaceOnUse" color-interpolation-filters="sRGB">
<feFlood flood-opacity="0" result="BackgroundImageFix"/>
<feBlend mode="normal" in="SourceGraphic" in2="BackgroundImageFix" result="shape"/>
<feGaussianBlur stdDeviation="1.70758" result="effect1_foregroundBlur_3555_45274"/>
</filter>
<filter id="filter39_f_3555_45274" x="159.202" y="43.0614" width="12.8772" height="12.0881" filterUnits="userSpaceOnUse" color-interpolation-filters="sRGB">
<feFlood flood-opacity="0" result="BackgroundImageFix"/>
<feBlend mode="normal" in="SourceGraphic" in2="BackgroundImageFix" result="shape"/>
<feGaussianBlur stdDeviation="1.70758" result="effect1_foregroundBlur_3555_45274"/>
</filter>
<filter id="filter40_f_3555_45274" x="85.3583" y="69.1083" width="11.0256" height="13.2444" filterUnits="userSpaceOnUse" color-interpolation-filters="sRGB">
<feFlood flood-opacity="0" result="BackgroundImageFix"/>
<feBlend mode="normal" in="SourceGraphic" in2="BackgroundImageFix" result="shape"/>
<feGaussianBlur stdDeviation="1.70758" result="effect1_foregroundBlur_3555_45274"/>
</filter>
<filter id="filter41_f_3555_45274" x="232.569" y="109.577" width="11.3537" height="10.8381" filterUnits="userSpaceOnUse" color-interpolation-filters="sRGB">
<feFlood flood-opacity="0" result="BackgroundImageFix"/>
<feBlend mode="normal" in="SourceGraphic" in2="BackgroundImageFix" result="shape"/>
<feGaussianBlur stdDeviation="1.70758" result="effect1_foregroundBlur_3555_45274"/>
</filter>
<filter id="filter42_f_3555_45274" x="154.39" y="121.194" width="11.3459" height="10.8381" filterUnits="userSpaceOnUse" color-interpolation-filters="sRGB">
<feFlood flood-opacity="0" result="BackgroundImageFix"/>
<feBlend mode="normal" in="SourceGraphic" in2="BackgroundImageFix" result="shape"/>
<feGaussianBlur stdDeviation="1.70758" result="effect1_foregroundBlur_3555_45274"/>
</filter>
<filter id="filter43_f_3555_45274" x="210.741" y="121.194" width="11.3459" height="10.8381" filterUnits="userSpaceOnUse" color-interpolation-filters="sRGB">
<feFlood flood-opacity="0" result="BackgroundImageFix"/>
<feBlend mode="normal" in="SourceGraphic" in2="BackgroundImageFix" result="shape"/>
<feGaussianBlur stdDeviation="1.70758" result="effect1_foregroundBlur_3555_45274"/>
</filter>
<filter id="filter44_f_3555_45274" x="251.936" y="87.538" width="10.0569" height="11.2366" filterUnits="userSpaceOnUse" color-interpolation-filters="sRGB">
<feFlood flood-opacity="0" result="BackgroundImageFix"/>
<feBlend mode="normal" in="SourceGraphic" in2="BackgroundImageFix" result="shape"/>
<feGaussianBlur stdDeviation="1.70758" result="effect1_foregroundBlur_3555_45274"/>
</filter>
<filter id="filter45_f_3555_45274" x="136.311" y="142.827" width="10.0569" height="11.2366" filterUnits="userSpaceOnUse" color-interpolation-filters="sRGB">
<feFlood flood-opacity="0" result="BackgroundImageFix"/>
<feBlend mode="normal" in="SourceGraphic" in2="BackgroundImageFix" result="shape"/>
<feGaussianBlur stdDeviation="1.70758" result="effect1_foregroundBlur_3555_45274"/>
</filter>
<filter id="filter46_f_3555_45274" x="192.663" y="142.827" width="10.0569" height="11.2366" filterUnits="userSpaceOnUse" color-interpolation-filters="sRGB">
<feFlood flood-opacity="0" result="BackgroundImageFix"/>
<feBlend mode="normal" in="SourceGraphic" in2="BackgroundImageFix" result="shape"/>
<feGaussianBlur stdDeviation="1.70758" result="effect1_foregroundBlur_3555_45274"/>
</filter>
<filter id="filter47_f_3555_45274" x="249.999" y="34.2489" width="10.385" height="9.23655" filterUnits="userSpaceOnUse" color-interpolation-filters="sRGB">
<feFlood flood-opacity="0" result="BackgroundImageFix"/>
<feBlend mode="normal" in="SourceGraphic" in2="BackgroundImageFix" result="shape"/>
<feGaussianBlur stdDeviation="1.70758" result="effect1_foregroundBlur_3555_45274"/>
</filter>
<filter id="filter48_f_3555_45274" x="32.4208" y="182.1" width="13.1194" height="11.3459" filterUnits="userSpaceOnUse" color-interpolation-filters="sRGB">
<feFlood flood-opacity="0" result="BackgroundImageFix"/>
<feBlend mode="normal" in="SourceGraphic" in2="BackgroundImageFix" result="shape"/>
<feGaussianBlur stdDeviation="1.70758" result="effect1_foregroundBlur_3555_45274"/>
</filter>
<filter id="filter49_f_3555_45274" x="244.515" y="143.179" width="9.81468" height="9.40061" filterUnits="userSpaceOnUse" color-interpolation-filters="sRGB">
<feFlood flood-opacity="0" result="BackgroundImageFix"/>
<feBlend mode="normal" in="SourceGraphic" in2="BackgroundImageFix" result="shape"/>
<feGaussianBlur stdDeviation="1.70758" result="effect1_foregroundBlur_3555_45274"/>
</filter>
<filter id="filter50_f_3555_45274" x="143.983" y="89.0223" width="9.81468" height="9.40061" filterUnits="userSpaceOnUse" color-interpolation-filters="sRGB">
<feFlood flood-opacity="0" result="BackgroundImageFix"/>
<feBlend mode="normal" in="SourceGraphic" in2="BackgroundImageFix" result="shape"/>
<feGaussianBlur stdDeviation="1.70758" result="effect1_foregroundBlur_3555_45274"/>
</filter>
<filter id="filter51_f_3555_45274" x="200.327" y="89.0223" width="9.81468" height="9.40061" filterUnits="userSpaceOnUse" color-interpolation-filters="sRGB">
<feFlood flood-opacity="0" result="BackgroundImageFix"/>
<feBlend mode="normal" in="SourceGraphic" in2="BackgroundImageFix" result="shape"/>
<feGaussianBlur stdDeviation="1.70758" result="effect1_foregroundBlur_3555_45274"/>
</filter>
<filter id="filter52_f_3555_45274" x="-0.407339" y="2.38172" width="9.75999" height="10.2444" filterUnits="userSpaceOnUse" color-interpolation-filters="sRGB">
<feFlood flood-opacity="0" result="BackgroundImageFix"/>
<feBlend mode="normal" in="SourceGraphic" in2="BackgroundImageFix" result="shape"/>
<feGaussianBlur stdDeviation="1.70758" result="effect1_foregroundBlur_3555_45274"/>
</filter>
<filter id="filter53_f_3555_45274" x="285.288" y="79.1864" width="8.72093" height="8.21311" filterUnits="userSpaceOnUse" color-interpolation-filters="sRGB">
<feFlood flood-opacity="0" result="BackgroundImageFix"/>
<feBlend mode="normal" in="SourceGraphic" in2="BackgroundImageFix" result="shape"/>
<feGaussianBlur stdDeviation="1.70758" result="effect1_foregroundBlur_3555_45274"/>
</filter>
<filter id="filter54_f_3555_45274" x="104.296" y="154.202" width="8.72093" height="8.21311" filterUnits="userSpaceOnUse" color-interpolation-filters="sRGB">
<feFlood flood-opacity="0" result="BackgroundImageFix"/>
<feBlend mode="normal" in="SourceGraphic" in2="BackgroundImageFix" result="shape"/>
<feGaussianBlur stdDeviation="1.70758" result="effect1_foregroundBlur_3555_45274"/>
</filter>
<filter id="filter55_f_3555_45274" x="160.647" y="154.202" width="8.72093" height="8.21311" filterUnits="userSpaceOnUse" color-interpolation-filters="sRGB">
<feFlood flood-opacity="0" result="BackgroundImageFix"/>
<feBlend mode="normal" in="SourceGraphic" in2="BackgroundImageFix" result="shape"/>
<feGaussianBlur stdDeviation="1.70758" result="effect1_foregroundBlur_3555_45274"/>
</filter>
<filter id="filter56_f_3555_45274" x="285.186" y="30.6395" width="11.8537" height="13.0803" filterUnits="userSpaceOnUse" color-interpolation-filters="sRGB">
<feFlood flood-opacity="0" result="BackgroundImageFix"/>
<feBlend mode="normal" in="SourceGraphic" in2="BackgroundImageFix" result="shape"/>
<feGaussianBlur stdDeviation="1.70758" result="effect1_foregroundBlur_3555_45274"/>
</filter>
<filter id="filter57_f_3555_45274" x="7.70985" y="106.741" width="11.1272" height="12.0959" filterUnits="userSpaceOnUse" color-interpolation-filters="sRGB">
<feFlood flood-opacity="0" result="BackgroundImageFix"/>
<feBlend mode="normal" in="SourceGraphic" in2="BackgroundImageFix" result="shape"/>
<feGaussianBlur stdDeviation="1.70758" result="effect1_foregroundBlur_3555_45274"/>
</filter>
<filter id="filter58_f_3555_45274" x="306.069" y="47.4755" width="9.2053" height="12.8069" filterUnits="userSpaceOnUse" color-interpolation-filters="sRGB">
<feFlood flood-opacity="0" result="BackgroundImageFix"/>
<feBlend mode="normal" in="SourceGraphic" in2="BackgroundImageFix" result="shape"/>
<feGaussianBlur stdDeviation="1.70758" result="effect1_foregroundBlur_3555_45274"/>
</filter>
<filter id="filter59_f_3555_45274" x="83.0302" y="181.319" width="9.2053" height="12.8069" filterUnits="userSpaceOnUse" color-interpolation-filters="sRGB">
<feFlood flood-opacity="0" result="BackgroundImageFix"/>
<feBlend mode="normal" in="SourceGraphic" in2="BackgroundImageFix" result="shape"/>
<feGaussianBlur stdDeviation="1.70758" result="effect1_foregroundBlur_3555_45274"/>
</filter>
<filter id="filter60_f_3555_45274" x="139.382" y="181.319" width="9.2053" height="12.8069" filterUnits="userSpaceOnUse" color-interpolation-filters="sRGB">
<feFlood flood-opacity="0" result="BackgroundImageFix"/>
<feBlend mode="normal" in="SourceGraphic" in2="BackgroundImageFix" result="shape"/>
<feGaussianBlur stdDeviation="1.70758" result="effect1_foregroundBlur_3555_45274"/>
</filter>
<filter id="filter61_f_3555_45274" x="26.038" y="0.881724" width="10.9084" height="12.2834" filterUnits="userSpaceOnUse" color-interpolation-filters="sRGB">
<feFlood flood-opacity="0" result="BackgroundImageFix"/>
<feBlend mode="normal" in="SourceGraphic" in2="BackgroundImageFix" result="shape"/>
<feGaussianBlur stdDeviation="1.70758" result="effect1_foregroundBlur_3555_45274"/>
</filter>
<filter id="filter62_f_3555_45274" x="66.4677" y="-2.61046" width="12.51" height="12.3928" filterUnits="userSpaceOnUse" color-interpolation-filters="sRGB">
<feFlood flood-opacity="0" result="BackgroundImageFix"/>
<feBlend mode="normal" in="SourceGraphic" in2="BackgroundImageFix" result="shape"/>
<feGaussianBlur stdDeviation="1.70758" result="effect1_foregroundBlur_3555_45274"/>
</filter>
<filter id="filter63_f_3555_45274" x="26.288" y="46.7645" width="11.9944" height="11.3928" filterUnits="userSpaceOnUse" color-interpolation-filters="sRGB">
<feFlood flood-opacity="0" result="BackgroundImageFix"/>
<feBlend mode="normal" in="SourceGraphic" in2="BackgroundImageFix" result="shape"/>
<feGaussianBlur stdDeviation="1.70758" result="effect1_foregroundBlur_3555_45274"/>
</filter>
<filter id="filter64_f_3555_45274" x="222.608" y="1.59266" width="8.72874" height="11.0959" filterUnits="userSpaceOnUse" color-interpolation-filters="sRGB">
<feFlood flood-opacity="0" result="BackgroundImageFix"/>
<feBlend mode="normal" in="SourceGraphic" in2="BackgroundImageFix" result="shape"/>
<feGaussianBlur stdDeviation="1.70758" result="effect1_foregroundBlur_3555_45274"/>
</filter>
<filter id="filter65_f_3555_45274" x="277.46" y="1.73329" width="12.51" height="10.01" filterUnits="userSpaceOnUse" color-interpolation-filters="sRGB">
<feFlood flood-opacity="0" result="BackgroundImageFix"/>
<feBlend mode="normal" in="SourceGraphic" in2="BackgroundImageFix" result="shape"/>
<feGaussianBlur stdDeviation="1.70758" result="effect1_foregroundBlur_3555_45274"/>
</filter>
<filter id="filter66_f_3555_45274" x="9.81922" y="35.0458" width="11.1975" height="9.65843" filterUnits="userSpaceOnUse" color-interpolation-filters="sRGB">
<feFlood flood-opacity="0" result="BackgroundImageFix"/>
<feBlend mode="normal" in="SourceGraphic" in2="BackgroundImageFix" result="shape"/>
<feGaussianBlur stdDeviation="1.70758" result="effect1_foregroundBlur_3555_45274"/>
</filter>
<filter id="filter67_f_3555_45274" x="6.15516" y="73.9833" width="11.1272" height="11.9241" filterUnits="userSpaceOnUse" color-interpolation-filters="sRGB">
<feFlood flood-opacity="0" result="BackgroundImageFix"/>
<feBlend mode="normal" in="SourceGraphic" in2="BackgroundImageFix" result="shape"/>
<feGaussianBlur stdDeviation="1.70758" result="effect1_foregroundBlur_3555_45274"/>
</filter>
<filter id="filter68_f_3555_45274" x="244.944" y="-0.641714" width="9.97093" height="10.76" filterUnits="userSpaceOnUse" color-interpolation-filters="sRGB">
<feFlood flood-opacity="0" result="BackgroundImageFix"/>
<feBlend mode="normal" in="SourceGraphic" in2="BackgroundImageFix" result="shape"/>
<feGaussianBlur stdDeviation="1.70758" result="effect1_foregroundBlur_3555_45274"/>
</filter>
<filter id="filter69_f_3555_45274" x="270.015" y="69.5067" width="13.3772" height="14.3694" filterUnits="userSpaceOnUse" color-interpolation-filters="sRGB">
<feFlood flood-opacity="0" result="BackgroundImageFix"/>
<feBlend mode="normal" in="SourceGraphic" in2="BackgroundImageFix" result="shape"/>
<feGaussianBlur stdDeviation="1.70758" result="effect1_foregroundBlur_3555_45274"/>
</filter>
<filter id="filter70_f_3555_45274" x="114.913" y="157.725" width="13.3772" height="14.3694" filterUnits="userSpaceOnUse" color-interpolation-filters="sRGB">
<feFlood flood-opacity="0" result="BackgroundImageFix"/>
<feBlend mode="normal" in="SourceGraphic" in2="BackgroundImageFix" result="shape"/>
<feGaussianBlur stdDeviation="1.70758" result="effect1_foregroundBlur_3555_45274"/>
</filter>
<filter id="filter71_f_3555_45274" x="171.265" y="157.725" width="13.3772" height="14.3694" filterUnits="userSpaceOnUse" color-interpolation-filters="sRGB">
<feFlood flood-opacity="0" result="BackgroundImageFix"/>
<feBlend mode="normal" in="SourceGraphic" in2="BackgroundImageFix" result="shape"/>
<feGaussianBlur stdDeviation="1.70758" result="effect1_foregroundBlur_3555_45274"/>
</filter>
<clipPath id="clip0_3555_45274">
<rect width="339.379" height="205" fill="white" transform="translate(152.617)"/>
</clipPath>
<clipPath id="clip1_3555_45274">
<rect width="311.845" height="205" fill="white"/>
</clipPath>
</defs>
</svg>
