<svg width="31" height="43" viewBox="0 0 31 43" fill="none" xmlns="http://www.w3.org/2000/svg">
<path d="M29.1114 1.69759L23.9796 15.7989C23.8909 16.0429 23.7292 16.2536 23.5166 16.4024C23.304 16.5513 23.0507 16.6311 22.7912 16.6311C22.5498 16.6311 23.1165 16.7655 15.425 14.668C15.3032 14.7082 16.2296 14.4381 8.43238 16.6667C8.12474 16.755 7.79506 16.7233 7.50987 16.578C7.22468 16.4328 7.0052 16.1847 6.8957 15.884L1.73282 1.69759C1.66312 1.50652 1.64053 1.30145 1.667 1.09979C1.69346 0.898133 1.76819 0.705835 1.88483 0.539218C2.00147 0.372601 2.15659 0.236585 2.33702 0.142713C2.51745 0.0488418 2.71787 -0.000114111 2.92125 8.25938e-07H10.8207C11.0803 -5.98797e-05 11.3336 0.0797658 11.5462 0.228637C11.7588 0.377508 11.9204 0.58821 12.0091 0.832129L15.4181 10.2154L18.8374 0.832129C18.9262 0.588026 19.088 0.377194 19.3009 0.228307C19.5137 0.0794199 19.7673 -0.000296002 20.027 8.25938e-07H27.923C28.1264 -0.000114111 28.3268 0.0488418 28.5073 0.142713C28.6877 0.236585 28.8428 0.372601 28.9594 0.539218C29.0761 0.705835 29.1508 0.898133 29.1773 1.09979C29.2037 1.30145 29.1812 1.50652 29.1114 1.69759Z" fill="#4A696F"/>
<path d="M29.1119 1.69759L23.9801 15.7989C23.8913 16.0429 23.7297 16.2536 23.5171 16.4024C23.3045 16.5513 23.0512 16.6311 22.7916 16.6311C22.5503 16.6311 23.1169 16.7655 15.4255 14.668C15.4174 14.668 15.4255 14.868 15.4255 10.2154L18.839 0.832128C18.9278 0.58821 19.0894 0.377508 19.302 0.228636C19.5146 0.0797651 19.7679 -6.05037e-05 20.0275 2.01917e-07H27.9235C28.1269 -0.000114735 28.3273 0.0488411 28.5077 0.142713C28.6881 0.236584 28.8432 0.372601 28.9599 0.539217C29.0765 0.705834 29.1513 0.898132 29.1777 1.09979C29.2042 1.30145 29.1816 1.50652 29.1119 1.69759Z" fill="#384949"/>
<path d="M30.86 27.5697C30.8602 30.6301 29.9503 33.6214 28.246 36.1634C26.5417 38.7053 24.12 40.6831 21.2887 41.8451C18.4575 43.0071 15.3447 43.301 12.346 42.6893C9.34733 42.0776 6.59829 40.588 4.44841 38.4099C2.29853 36.2318 0.844918 33.4635 0.272403 30.4571C-0.300112 27.4507 0.0343226 24.342 1.2332 21.5262C2.43207 18.7103 4.44122 16.3146 7.00519 14.6436C9.56916 12.9726 12.5721 12.1018 15.6323 12.142C18.3876 12.1274 21.0942 12.8679 23.4582 14.2832C25.7008 15.7063 27.5525 17.6669 28.8451 19.9872C30.1377 22.3075 30.8303 24.9138 30.86 27.5697Z" fill="#E6E6E6"/>
<path d="M15.4219 42.9969V12.1519C18.2342 12.0914 21.006 12.83 23.4154 14.2818C25.8248 15.7335 27.7729 17.839 29.0336 20.3536C30.2826 22.7021 30.9024 25.3338 30.8326 27.9929C30.7629 30.6519 30.006 33.2475 28.6356 35.5272C27.2651 37.807 25.3279 39.6931 23.0123 41.0021C20.6968 42.311 18.0818 42.9983 15.4219 42.9969Z" fill="#C4C4C2"/>
<path d="M24.239 26.0799L19.9864 29.2107L21.6116 34.2816C21.6934 34.5362 21.6924 34.8102 21.6088 35.0642C21.5251 35.3181 21.363 35.539 21.1459 35.6951C20.9288 35.8512 20.6678 35.9344 20.4004 35.9328C20.1329 35.9312 19.8729 35.8448 19.6577 35.6861L15.4247 32.5691L11.1916 35.6861C10.9764 35.8448 10.7164 35.9312 10.449 35.9328C10.1816 35.9344 9.92054 35.8512 9.70341 35.6951C9.48628 35.539 9.32423 35.3181 9.24056 35.0642C9.15688 34.8102 9.15588 34.5362 9.23772 34.2816L10.8629 29.2107L6.61031 26.0799C6.3953 25.9222 6.23565 25.7005 6.15419 25.4467C6.07273 25.1928 6.07363 24.9196 6.15677 24.6662C6.2399 24.4129 6.40101 24.1923 6.61706 24.036C6.83311 23.8797 7.09305 23.7958 7.35969 23.7961H12.5961L14.2179 18.739C14.2982 18.4818 14.4586 18.2569 14.6757 18.0973C14.8928 17.9377 15.1552 17.8516 15.4247 17.8516C15.6941 17.8516 15.9566 17.9377 16.1737 18.0973C16.3907 18.2569 16.5512 18.4818 16.6315 18.739L18.2532 23.7961H23.4896C23.7563 23.7958 24.0162 23.8797 24.2323 24.036C24.4483 24.1923 24.6094 24.4129 24.6926 24.6662C24.7757 24.9196 24.7766 25.1928 24.6951 25.4467C24.6137 25.7005 24.454 25.9222 24.239 26.0799Z" fill="#BFBEB8"/>
<path d="M24.2339 26.083L19.9814 29.2138L21.6065 34.2847C21.6884 34.5393 21.6874 34.8133 21.6037 35.0672C21.52 35.3212 21.358 35.5421 21.1408 35.6982C20.9237 35.8543 20.6627 35.9375 20.3953 35.9359C20.1279 35.9343 19.8679 35.8479 19.6526 35.6892L15.4219 32.571V17.8594C15.6898 17.8592 15.9508 17.9442 16.1673 18.102C16.3838 18.2599 16.5446 18.4824 16.6264 18.7375L18.2481 23.7946H23.4846C23.7524 23.7929 24.0139 23.8763 24.2313 24.0328C24.4486 24.1893 24.6107 24.4109 24.694 24.6654C24.7774 24.92 24.7778 25.1944 24.6951 25.4492C24.6124 25.704 24.4509 25.9259 24.2339 26.083Z" fill="#ADAA9E"/>
</svg>
