<svg width="54" height="54" viewBox="0 0 54 54" fill="none" xmlns="http://www.w3.org/2000/svg">
<rect opacity="0.2" x="0.523438" width="53.1152" height="53.4836" rx="6.41803" fill="#9555D4"/>
<path fill-rule="evenodd" clip-rule="evenodd" d="M22.1152 16.0469H32.0361C35.649 16.0469 37.6886 18.1103 37.6992 21.7482V31.739C37.6992 35.3758 35.649 37.4403 32.0361 37.4403H22.1152C18.5023 37.4403 16.4531 35.3758 16.4531 31.739V21.7482C16.4531 18.1103 18.5023 16.0469 22.1152 16.0469ZM27.1245 33.0092C27.5823 33.0092 27.9637 32.6669 28.0062 32.2069V21.307C28.0487 20.9754 27.8904 20.6427 27.6036 20.4619C27.3051 20.2801 26.9439 20.2801 26.6581 20.4619C26.3702 20.6427 26.2119 20.9754 26.2427 21.307V32.2069C26.2969 32.6669 26.6783 33.0092 27.1245 33.0092ZM32.0162 33.0135C32.4624 33.0135 32.8438 32.6712 32.8979 32.2113V28.7028C32.9287 28.3594 32.7705 28.0396 32.4826 27.8577C32.1968 27.6759 31.8356 27.6759 31.5382 27.8577C31.2503 28.0396 31.092 28.3594 31.1345 28.7028V32.2113C31.177 32.6712 31.5584 33.0135 32.0162 33.0135ZM23.0581 32.2083C23.0156 32.6682 22.6343 33.0105 22.1764 33.0105C21.7196 33.0105 21.3372 32.6682 21.2958 32.2083V24.8168C21.2639 24.4842 21.4222 24.1537 21.7101 23.9718C21.9958 23.79 22.3581 23.79 22.6449 23.9718C22.9306 24.1537 23.0911 24.4842 23.0581 24.8168V32.2083Z" fill="#9C55D4"/>
</svg>
