<svg width="41" height="56" viewBox="0 0 41 56" fill="none" xmlns="http://www.w3.org/2000/svg">
<path d="M38.4577 2.19094L31.8345 20.3905C31.72 20.7053 31.5113 20.9772 31.2369 21.1693C30.9625 21.3615 30.6356 21.4645 30.3006 21.4644C29.9891 21.4644 30.7204 21.638 20.7937 18.9308C20.6365 18.9827 21.8321 18.6341 11.7689 21.5104C11.3718 21.6243 10.9463 21.5834 10.5782 21.396C10.2102 21.2085 9.92691 20.8884 9.78559 20.5002L3.12227 2.19094C3.0323 1.94435 3.00315 1.67968 3.03731 1.41942C3.07146 1.15915 3.16791 0.910966 3.31845 0.695926C3.46899 0.480887 3.66919 0.305342 3.90206 0.184189C4.13492 0.0630362 4.39358 -0.000147274 4.65608 1.06597e-06H14.8513C15.1863 -7.72821e-05 15.5132 0.102947 15.7876 0.295084C16.062 0.48722 16.2706 0.759157 16.3851 1.07396L20.7848 13.1842L25.1978 1.07396C25.3124 0.758919 25.5213 0.486815 25.796 0.294658C26.0707 0.102501 26.3979 -0.000382026 26.7331 1.06597e-06H36.9239C37.1864 -0.000147274 37.4451 0.0630362 37.6779 0.184189C37.9108 0.305342 38.111 0.480887 38.2615 0.695926C38.4121 0.910966 38.5085 1.15915 38.5427 1.41942C38.5768 1.67968 38.5477 1.94435 38.4577 2.19094Z" fill="#5E78E6"/>
<path d="M38.4577 2.19094L31.8344 20.3905C31.7199 20.7053 31.5113 20.9772 31.2369 21.1693C30.9625 21.3615 30.6356 21.4645 30.3006 21.4644C29.9891 21.4644 30.7204 21.638 20.7937 18.9308C20.7833 18.9308 20.7937 19.1889 20.7937 13.1842L25.1993 1.07396C25.3138 0.759156 25.5224 0.487219 25.7968 0.295083C26.0712 0.102947 26.3981 -7.80875e-05 26.7331 2.60599e-07H36.9239C37.1864 -0.00014808 37.445 0.0630355 37.6779 0.184188C37.9108 0.305341 38.111 0.480887 38.2615 0.695926C38.412 0.910965 38.5085 1.15915 38.5427 1.41942C38.5768 1.67968 38.5477 1.94434 38.4577 2.19094Z" fill="#2A3566"/>
<path d="M40.7114 35.5849C40.7117 39.5348 39.5373 43.3955 37.3377 46.6762C35.1381 49.9569 32.0126 52.5094 28.3585 54.0091C24.7045 55.5089 20.687 55.8881 16.8168 55.0986C12.9467 54.3092 9.39871 52.3867 6.62403 49.5756C3.84934 46.7644 1.97328 43.1917 1.23438 39.3116C0.495482 35.4314 0.92711 31.4192 2.4744 27.7851C4.02169 24.1509 6.61475 21.0589 9.92387 18.9023C13.233 16.7457 17.1087 15.6218 21.0582 15.6736C24.6142 15.6548 28.1074 16.6106 31.1585 18.4371C34.0528 20.2738 36.4426 22.8043 38.1109 25.7988C39.7791 28.7934 40.673 32.1572 40.7114 35.5849Z" fill="#6886FF"/>
<path d="M20.7891 55.4934V15.6841C24.4187 15.6061 27.996 16.5593 31.1056 18.433C34.2152 20.3067 36.7296 23.024 38.3566 26.2695C39.9686 29.3004 40.7686 32.6971 40.6785 36.1288C40.5885 39.5606 39.6116 42.9106 37.8429 45.8529C36.0742 48.7951 33.5739 51.2294 30.5854 52.9188C27.597 54.6082 24.222 55.4952 20.7891 55.4934Z" fill="#495DB3"/>
<path d="M15.4219 42.3566H26.4419V40.1366H18.9019L22.5419 37.1166C23.9219 35.9766 24.9019 34.9966 25.4819 34.1766C26.0619 33.3366 26.3619 32.3366 26.3619 31.1966C26.3619 29.7966 25.8619 28.6566 24.8619 27.7966C23.8619 26.9166 22.5819 26.4766 21.0419 26.4766C19.7019 26.4766 18.5419 26.8166 17.5619 27.5166C16.6019 28.2166 15.9619 29.1366 15.6419 30.2766L17.8419 31.1966C18.4619 29.5566 19.5219 28.7366 21.0219 28.7366C22.7619 28.7366 23.8219 29.8766 23.8219 31.3766C23.8219 32.0766 23.6219 32.6966 23.2219 33.2566C22.8219 33.7966 22.0819 34.5366 21.0219 35.4366L15.4219 40.2166V42.3566Z" fill="white"/>
</svg>
