<svg width="405" height="331" viewBox="0 0 405 331" fill="none" xmlns="http://www.w3.org/2000/svg">
<rect x="67.0625" y="109.445" width="274" height="189" rx="6" fill="white"/>
<g filter="url(#filter0_d_2908_25482)">
<g opacity="0.6">
<path d="M222.134 76.8091C222.777 76.8091 223.299 76.2677 223.299 75.5999C223.299 74.932 222.777 74.3906 222.134 74.3906C221.49 74.3906 220.969 74.932 220.969 75.5999C220.969 76.2677 221.49 76.8091 222.134 76.8091Z" fill="#EAC954"/>
<path d="M176.374 84.9141L183.481 107.563L175.195 85.348L176.374 84.9141Z" fill="url(#paint0_linear_2908_25482)"/>
<path d="M130.613 105.156L151.256 122.1L129.859 106.188L130.613 105.156Z" fill="url(#paint1_linear_2908_25482)"/>
<path d="M104.059 140.602L132.652 147.245L103.812 141.868L104.059 140.602Z" fill="url(#paint2_linear_2908_25482)"/>
<path d="M103.812 181.721L132.652 176.344L104.059 182.988L103.812 181.721Z" fill="url(#paint3_linear_2908_25482)"/>
<path d="M129.859 217.421L151.256 201.516L130.613 218.459L129.859 217.421Z" fill="url(#paint4_linear_2908_25482)"/>
<path d="M175.195 238.261L183.481 216.039L176.374 238.695L175.195 238.261Z" fill="url(#paint5_linear_2908_25482)"/>
<path d="M227.802 238.688L220.695 216.039L228.974 238.254L227.802 238.688Z" fill="url(#paint6_linear_2908_25482)"/>
<path d="M273.549 218.459L252.906 201.516L274.303 217.421L273.549 218.459Z" fill="url(#paint7_linear_2908_25482)"/>
<path d="M300.085 182.979L271.492 176.328L300.332 181.706L300.085 182.979Z" fill="url(#paint8_linear_2908_25482)"/>
<path d="M300.324 141.875L271.484 147.252L300.077 140.602L300.324 141.875Z" fill="url(#paint9_linear_2908_25482)"/>
<path d="M274.295 106.188L252.898 122.1L273.548 105.156L274.295 106.188Z" fill="url(#paint10_linear_2908_25482)"/>
<path d="M228.973 85.348L220.688 107.57L227.801 84.9141L228.973 85.348Z" fill="url(#paint11_linear_2908_25482)"/>
<path d="M203.039 108.399L199.633 106.635L197.296 109.757L197.858 105.845L194.273 104.501L198.029 103.846L198.153 99.8984L199.914 103.405L203.574 102.303L200.901 105.127L203.039 108.399Z" fill="#EAC954"/>
<path d="M263.188 160.549L264.784 159.532L264.14 157.711L265.559 158.977L267.032 157.775L266.313 159.575L267.868 160.656L266.004 160.499L265.49 162.363L265.052 160.478L263.188 160.549Z" fill="#EAC954"/>
<path d="M134.387 163.224L131.831 163.345L131.434 165.977L130.536 163.48L128 163.914L130.008 162.249L128.836 159.881L130.974 161.346L132.784 159.461L132.098 162.029L134.387 163.224Z" fill="#EAC954"/>
<path d="M153.493 234.481L153.939 231.095L150.82 229.979L154.062 229.367L154.124 225.945L155.686 228.954L158.839 227.958L156.564 230.434L158.448 233.236L155.481 231.75L153.493 234.481Z" fill="#EAC954"/>
<path d="M262.256 236.184L259.665 234L257.095 236.205L258.294 232.976L255.484 231.126L258.808 231.311L259.638 227.961L260.501 231.304L263.825 231.084L261.029 232.969L262.256 236.184Z" fill="#EAC954"/>
<path d="M157.756 129.937L156.303 128.6L154.754 129.809L155.535 127.967L153.945 126.814L155.878 127.007L156.44 125.086L156.858 127.049L158.798 127.014L157.118 128.031L157.756 129.937Z" fill="#EAC954"/>
<path d="M202.34 125.286C202.341 125.53 202.273 125.769 202.143 125.972C202.013 126.176 201.828 126.335 201.611 126.429C201.394 126.523 201.155 126.548 200.925 126.5C200.694 126.453 200.482 126.336 200.316 126.163C200.15 125.991 200.037 125.771 199.991 125.531C199.946 125.292 199.97 125.044 200.06 124.819C200.151 124.594 200.304 124.402 200.5 124.267C200.696 124.132 200.926 124.061 201.161 124.063C201.473 124.064 201.772 124.194 201.993 124.423C202.213 124.652 202.338 124.962 202.34 125.286Z" fill="#EAC954"/>
<path d="M264.847 137.532C264.847 137.672 264.807 137.81 264.732 137.927C264.656 138.044 264.549 138.135 264.424 138.189C264.299 138.243 264.161 138.257 264.028 138.229C263.895 138.202 263.773 138.134 263.677 138.035C263.581 137.935 263.516 137.808 263.49 137.67C263.463 137.532 263.477 137.389 263.529 137.259C263.581 137.129 263.668 137.018 263.781 136.94C263.894 136.862 264.026 136.82 264.162 136.82C264.344 136.82 264.518 136.895 264.647 137.029C264.775 137.162 264.847 137.343 264.847 137.532Z" fill="#EAC954"/>
<path d="M292.898 204.713C292.898 204.876 292.835 205.031 292.725 205.146C292.614 205.261 292.464 205.325 292.308 205.325C292.152 205.325 292.002 205.261 291.891 205.146C291.781 205.031 291.719 204.876 291.719 204.713C291.719 204.551 291.781 204.395 291.891 204.281C292.002 204.166 292.152 204.102 292.308 204.102C292.464 204.102 292.614 204.166 292.725 204.281C292.835 204.395 292.898 204.551 292.898 204.713Z" fill="#EAC954"/>
<path d="M215.773 208.901C215.773 209.063 215.71 209.219 215.6 209.333C215.489 209.448 215.339 209.513 215.183 209.513C215.027 209.513 214.877 209.448 214.766 209.333C214.656 209.219 214.594 209.063 214.594 208.901C214.594 208.739 214.656 208.583 214.766 208.468C214.877 208.354 215.027 208.289 215.183 208.289C215.339 208.289 215.489 208.354 215.6 208.468C215.71 208.583 215.773 208.739 215.773 208.901Z" fill="#EAC954"/>
<path d="M126.393 230.915C126.395 231.182 126.32 231.444 126.177 231.667C126.035 231.891 125.832 232.065 125.594 232.168C125.356 232.272 125.094 232.3 124.841 232.248C124.588 232.197 124.356 232.069 124.173 231.88C123.99 231.691 123.865 231.45 123.815 231.188C123.764 230.926 123.789 230.654 123.888 230.406C123.986 230.159 124.153 229.947 124.367 229.799C124.581 229.65 124.833 229.57 125.091 229.57C125.435 229.57 125.766 229.712 126.01 229.964C126.254 230.216 126.392 230.558 126.393 230.915Z" fill="#EAC954"/>
<path d="M142.176 157.114C142.437 157.114 142.649 156.895 142.649 156.624C142.649 156.353 142.437 156.133 142.176 156.133C141.915 156.133 141.703 156.353 141.703 156.624C141.703 156.895 141.915 157.114 142.176 157.114Z" fill="#EAC954"/>
<path d="M136.633 95.3145C137.219 95.3145 137.695 94.8209 137.695 94.2119C137.695 93.603 137.219 93.1094 136.633 93.1094C136.046 93.1094 135.57 93.603 135.57 94.2119C135.57 94.8209 136.046 95.3145 136.633 95.3145Z" fill="#EAC954"/>
<path d="M170.249 107.181C170.9 107.181 171.428 106.634 171.428 105.958C171.428 105.282 170.9 104.734 170.249 104.734C169.598 104.734 169.07 105.282 169.07 105.958C169.07 106.634 169.598 107.181 170.249 107.181Z" fill="#EAC954"/>
<path d="M236.066 123.102C236.066 123.243 236.026 123.38 235.951 123.497C235.875 123.614 235.768 123.705 235.643 123.759C235.518 123.813 235.38 123.827 235.247 123.8C235.114 123.772 234.992 123.704 234.896 123.605C234.8 123.505 234.735 123.379 234.708 123.241C234.682 123.103 234.696 122.96 234.747 122.83C234.799 122.7 234.887 122.589 235 122.511C235.113 122.432 235.245 122.391 235.381 122.391C235.562 122.391 235.737 122.466 235.865 122.599C235.994 122.732 236.066 122.913 236.066 123.102Z" fill="#EAC954"/>
<path d="M235.132 162.127C235.132 162.248 235.097 162.367 235.033 162.467C234.968 162.568 234.876 162.646 234.768 162.693C234.66 162.739 234.542 162.751 234.428 162.727C234.313 162.704 234.208 162.646 234.126 162.56C234.043 162.474 233.987 162.365 233.964 162.247C233.942 162.128 233.953 162.005 233.998 161.893C234.043 161.782 234.118 161.686 234.215 161.619C234.312 161.552 234.426 161.516 234.543 161.516C234.62 161.515 234.697 161.53 234.769 161.56C234.841 161.591 234.906 161.636 234.961 161.693C235.016 161.75 235.06 161.818 235.089 161.892C235.118 161.967 235.133 162.047 235.132 162.127Z" fill="#EAC954"/>
<path d="M128.747 117.441L124.087 118.038L123.731 122.904L121.743 118.479L117.172 119.639L120.612 116.303L118.145 112.156L122.257 114.517L125.3 110.797L124.402 115.591L128.747 117.441Z" fill="url(#paint12_linear_2908_25482)"/>
<path d="M277.565 128.484L275.304 128.328L274.707 130.604L274.152 128.321L271.891 128.441L273.81 127.182L273.001 124.984L274.742 126.492L276.503 125.013L275.667 127.197L277.565 128.484Z" fill="url(#paint13_linear_2908_25482)"/>
<path d="M273.328 200.922L275.706 199.314L274.651 196.582L276.858 198.432L279.037 196.547L278.03 199.3L280.422 200.865L277.591 200.715L276.899 203.568L276.159 200.729L273.328 200.922Z" fill="url(#paint14_linear_2908_25482)"/>
<path d="M204.205 214.765L202.156 213.975L201.011 215.91L201.1 213.634L198.969 213.1L201.08 212.489L200.915 210.227L202.128 212.112L204.15 211.251L202.793 213.029L204.205 214.765Z" fill="url(#paint15_linear_2908_25482)"/>
<path d="M128.975 205.334L127.947 202.723L125.281 203.257L127.351 201.443L126.042 198.975L128.352 200.454L130.202 198.398L129.558 201.137L132.011 202.332L129.311 202.538L128.975 205.334Z" fill="url(#paint16_linear_2908_25482)"/>
<path d="M247.609 104.739L244.847 102.606L242.291 104.996L243.394 101.61L240.406 99.8242L243.854 99.8669L244.566 96.3672L245.594 99.7815L249.021 99.4045L246.211 101.475L247.609 104.739Z" fill="url(#paint17_linear_2908_25482)"/>
<path d="M109.05 159.309C109.376 159.309 109.64 159.036 109.64 158.698C109.64 158.36 109.376 158.086 109.05 158.086C108.725 158.086 108.461 158.36 108.461 158.698C108.461 159.036 108.725 159.309 109.05 159.309Z" fill="url(#paint18_linear_2908_25482)"/>
<path d="M140.287 198.948C140.266 199.193 140.158 199.421 139.984 199.587C139.809 199.754 139.581 199.846 139.344 199.846C139.107 199.846 138.879 199.754 138.705 199.587C138.53 199.421 138.422 199.193 138.402 198.948C138.391 198.812 138.407 198.676 138.449 198.547C138.491 198.419 138.559 198.301 138.648 198.2C138.736 198.1 138.844 198.02 138.964 197.966C139.084 197.911 139.213 197.883 139.344 197.883C139.475 197.883 139.605 197.911 139.725 197.966C139.845 198.02 139.952 198.1 140.041 198.2C140.129 198.301 140.197 198.419 140.239 198.547C140.282 198.676 140.298 198.812 140.287 198.948Z" fill="url(#paint19_linear_2908_25482)"/>
<path d="M170.266 206.32C170.27 206.516 170.218 206.708 170.116 206.873C170.013 207.038 169.866 207.167 169.692 207.244C169.518 207.321 169.327 207.342 169.141 207.305C168.956 207.268 168.786 207.174 168.652 207.035C168.519 206.897 168.428 206.72 168.392 206.527C168.356 206.335 168.377 206.136 168.451 205.956C168.525 205.775 168.649 205.622 168.808 205.516C168.967 205.41 169.152 205.355 169.341 205.36C169.585 205.365 169.817 205.468 169.99 205.647C170.162 205.826 170.261 206.067 170.266 206.32Z" fill="url(#paint20_linear_2908_25482)"/>
<path d="M153.032 214.154C153.034 214.349 152.979 214.539 152.876 214.702C152.773 214.864 152.626 214.991 152.453 215.066C152.28 215.142 152.09 215.162 151.906 215.125C151.722 215.088 151.553 214.995 151.42 214.858C151.287 214.721 151.196 214.546 151.159 214.355C151.122 214.165 151.141 213.967 151.212 213.787C151.283 213.608 151.405 213.454 151.56 213.346C151.716 213.237 151.899 213.18 152.086 213.18C152.336 213.18 152.576 213.282 152.753 213.465C152.93 213.647 153.03 213.895 153.032 214.154Z" fill="url(#paint21_linear_2908_25482)"/>
<path d="M243.353 207.793C243.353 208.084 243.27 208.369 243.114 208.611C242.958 208.853 242.736 209.042 242.477 209.153C242.218 209.265 241.933 209.294 241.658 209.237C241.382 209.18 241.13 209.04 240.931 208.834C240.733 208.628 240.598 208.366 240.543 208.08C240.488 207.794 240.516 207.498 240.624 207.229C240.731 206.96 240.913 206.73 241.146 206.568C241.379 206.407 241.654 206.32 241.934 206.32C242.311 206.32 242.671 206.475 242.937 206.752C243.203 207.028 243.353 207.402 243.353 207.793Z" fill="url(#paint22_linear_2908_25482)"/>
<path d="M275.218 169.479C275.218 169.6 275.183 169.718 275.119 169.819C275.054 169.919 274.962 169.998 274.854 170.044C274.746 170.09 274.628 170.103 274.513 170.079C274.399 170.055 274.294 169.997 274.212 169.911C274.129 169.826 274.073 169.717 274.05 169.598C274.028 169.48 274.039 169.357 274.084 169.245C274.129 169.133 274.204 169.037 274.301 168.97C274.398 168.903 274.512 168.867 274.628 168.867C274.706 168.867 274.783 168.883 274.854 168.914C274.926 168.944 274.99 168.99 275.045 169.046C275.1 169.103 275.143 169.171 275.173 169.245C275.203 169.319 275.218 169.399 275.218 169.479Z" fill="url(#paint23_linear_2908_25482)"/>
<path d="M299.985 150.018C300.507 150.018 300.931 149.578 300.931 149.036C300.931 148.494 300.507 148.055 299.985 148.055C299.463 148.055 299.039 148.494 299.039 149.036C299.039 149.578 299.463 150.018 299.985 150.018Z" fill="url(#paint24_linear_2908_25482)"/>
<path d="M283.937 109.733C283.933 109.951 283.867 110.162 283.747 110.341C283.628 110.519 283.46 110.657 283.265 110.737C283.071 110.817 282.857 110.836 282.653 110.79C282.448 110.745 282.26 110.637 282.114 110.481C281.968 110.326 281.869 110.129 281.831 109.915C281.792 109.701 281.815 109.48 281.897 109.28C281.979 109.08 282.117 108.91 282.292 108.79C282.467 108.671 282.672 108.608 282.881 108.609C283.022 108.609 283.162 108.639 283.292 108.695C283.422 108.752 283.539 108.835 283.638 108.94C283.736 109.045 283.813 109.169 283.865 109.305C283.916 109.442 283.941 109.587 283.937 109.733Z" fill="url(#paint25_linear_2908_25482)"/>
<path d="M249.518 113.907C249.52 114.175 249.444 114.437 249.302 114.66C249.16 114.883 248.957 115.057 248.719 115.161C248.481 115.264 248.219 115.292 247.966 115.24C247.713 115.189 247.481 115.061 247.298 114.872C247.115 114.683 246.99 114.443 246.94 114.18C246.889 113.918 246.914 113.646 247.013 113.398C247.111 113.151 247.278 112.94 247.492 112.791C247.706 112.642 247.958 112.563 248.216 112.563C248.387 112.562 248.556 112.596 248.714 112.663C248.872 112.73 249.016 112.829 249.137 112.954C249.258 113.079 249.354 113.227 249.419 113.391C249.485 113.554 249.518 113.73 249.518 113.907Z" fill="url(#paint26_linear_2908_25482)"/>
<path d="M146.195 103.119C146.195 103.289 146.244 103.456 146.336 103.597C146.427 103.739 146.557 103.849 146.709 103.914C146.861 103.979 147.028 103.996 147.189 103.962C147.35 103.928 147.498 103.846 147.613 103.725C147.729 103.604 147.808 103.449 147.839 103.282C147.87 103.115 147.853 102.941 147.789 102.784C147.725 102.627 147.618 102.493 147.48 102.399C147.343 102.306 147.182 102.256 147.018 102.258C146.909 102.258 146.802 102.28 146.701 102.323C146.601 102.367 146.51 102.43 146.434 102.51C146.357 102.59 146.297 102.685 146.256 102.79C146.215 102.894 146.194 103.006 146.195 103.119Z" fill="url(#paint27_linear_2908_25482)"/>
<path d="M246.266 291.6L234.266 253.352L248.254 290.867L246.266 291.6Z" fill="url(#paint28_linear_2908_25482)"/>
<path d="M323.507 257.423L288.664 228.82L324.775 255.673L323.507 257.423Z" fill="url(#paint29_linear_2908_25482)"/>
<path d="M368.324 197.553L320.055 186.328L368.742 195.412L368.324 197.553Z" fill="url(#paint30_linear_2908_25482)"/>
<path d="M368.742 128.188L320.055 137.264L368.324 126.047L368.742 128.188Z" fill="url(#paint31_linear_2908_25482)"/>
<path d="M324.773 67.9302L288.648 94.7828L323.505 66.1875L324.773 67.9302Z" fill="url(#paint32_linear_2908_25482)"/>
<path d="M248.247 32.7327L234.266 70.2409L246.259 32L248.247 32.7327Z" fill="url(#paint33_linear_2908_25482)"/>
<path d="M159.465 32L171.466 70.2409L157.484 32.7327L159.465 32Z" fill="url(#paint34_linear_2908_25482)"/>
<path d="M82.221 66.1875L117.071 94.7828L80.9531 67.9302L82.221 66.1875Z" fill="url(#paint35_linear_2908_25482)"/>
<path d="M37.4024 126.047L85.6718 137.264L36.9844 128.188L37.4024 126.047Z" fill="url(#paint36_linear_2908_25482)"/>
<path d="M36.9844 195.42L85.6718 186.344L37.4024 197.568L36.9844 195.42Z" fill="url(#paint37_linear_2908_25482)"/>
<path d="M80.9609 255.673L117.086 228.82L82.2288 257.423L80.9609 255.673Z" fill="url(#paint38_linear_2908_25482)"/>
<path d="M157.484 290.86L171.472 253.352L159.472 291.592L157.484 290.86Z" fill="url(#paint39_linear_2908_25482)"/>
<path d="M201.249 251.962L207.006 254.943L210.954 249.672L210.001 256.273L216.053 258.542L209.707 259.638L209.501 266.317L206.527 260.392L200.352 262.248L204.861 257.489L201.249 251.962Z" fill="#EAC954"/>
<path d="M99.7068 163.924L97.0134 165.632L98.0962 168.712L95.6975 166.578L93.2097 168.598L94.4227 165.568L91.8047 163.74L94.9505 164.003L95.8209 160.852L96.5542 164.038L99.7068 163.924Z" fill="#EAC954"/>
<path d="M317.125 159.387L321.45 159.181L322.114 154.742L323.636 158.953L327.912 158.228L324.527 161.03L326.507 165.028L322.889 162.553L319.839 165.746L320.99 161.414L317.125 159.387Z" fill="#EAC954"/>
<path d="M284.871 39.1094L284.131 44.8355L289.387 46.7206L283.911 47.752L283.809 53.5208L281.177 48.442L275.852 50.1207L279.696 45.9452L276.509 41.2149L281.519 43.7188L284.871 39.1094Z" fill="#EAC954"/>
<path d="M101.308 36.2302L105.673 39.9077L110.012 36.1875L107.99 41.6363L112.739 44.7732L107.119 44.4602L105.721 50.1153L104.268 44.4673L98.6484 44.8372L103.377 41.6576L101.308 36.2302Z" fill="#EAC954"/>
<path d="M277.699 215.578L280.146 217.833L282.757 215.792L281.441 218.9L284.127 220.849L280.865 220.515L279.913 223.765L279.214 220.444L275.938 220.508L278.761 218.786L277.699 215.578Z" fill="#EAC954"/>
<path d="M202.461 223.453C202.461 223.043 202.578 222.643 202.798 222.302C203.017 221.961 203.329 221.696 203.694 221.54C204.059 221.383 204.46 221.343 204.847 221.423C205.234 221.504 205.589 221.701 205.868 221.992C206.147 222.282 206.336 222.651 206.412 223.053C206.488 223.455 206.448 223.872 206.296 224.25C206.144 224.628 205.887 224.951 205.558 225.177C205.229 225.404 204.843 225.524 204.448 225.523C204.187 225.523 203.928 225.469 203.686 225.365C203.445 225.261 203.225 225.108 203.041 224.916C202.856 224.724 202.71 224.495 202.61 224.244C202.511 223.993 202.46 223.724 202.461 223.453Z" fill="#EAC954"/>
<path d="M96.9375 202.776C96.9375 202.53 97.008 202.289 97.1401 202.084C97.2722 201.879 97.46 201.719 97.6795 201.625C97.8991 201.531 98.1406 201.507 98.3734 201.556C98.6062 201.604 98.8199 201.724 98.9874 201.898C99.1549 202.073 99.2685 202.296 99.314 202.538C99.3595 202.78 99.3348 203.03 99.243 203.257C99.1511 203.485 98.9964 203.679 98.7982 203.815C98.6001 203.95 98.3675 204.022 98.13 204.021C97.9729 204.021 97.8172 203.989 97.6721 203.926C97.527 203.863 97.3952 203.772 97.2844 203.656C97.1735 203.54 97.0858 203.403 97.0263 203.252C96.9668 203.101 96.9366 202.939 96.9375 202.776Z" fill="#EAC954"/>
<path d="M49.5391 89.3283C49.5391 89.1928 49.5648 89.0587 49.6147 88.9336C49.6647 88.8084 49.7379 88.6947 49.8302 88.599C49.9224 88.5032 50.032 88.4272 50.1526 88.3754C50.2731 88.3236 50.4023 88.2969 50.5328 88.2969C50.6633 88.2969 50.7926 88.3236 50.9131 88.3754C51.0337 88.4272 51.1433 88.5032 51.2355 88.599C51.3278 88.6947 51.401 88.8084 51.451 88.9336C51.5009 89.0587 51.5266 89.1928 51.5266 89.3283C51.5275 89.4643 51.5025 89.5992 51.4529 89.7252C51.4034 89.8511 51.3303 89.9657 51.238 90.0622C51.1456 90.1588 51.0358 90.2354 50.9147 90.2876C50.7937 90.3399 50.6639 90.3668 50.5328 90.3668C50.4018 90.3668 50.272 90.3399 50.151 90.2876C50.0299 90.2354 49.9201 90.1588 49.8277 90.0622C49.7353 89.9657 49.6623 89.8511 49.6128 89.7252C49.5632 89.5992 49.5382 89.4643 49.5391 89.3283Z" fill="#EAC954"/>
<path d="M179.75 82.3034C179.749 82.0974 179.806 81.8957 179.916 81.7238C180.025 81.5519 180.181 81.4177 180.365 81.3382C180.548 81.2587 180.749 81.2376 180.944 81.2774C181.139 81.3173 181.318 81.4163 181.458 81.562C181.598 81.7077 181.694 81.8934 181.732 82.0955C181.771 82.2976 181.75 82.507 181.674 82.697C181.597 82.8871 181.468 83.0492 181.302 83.1628C181.137 83.2764 180.942 83.3363 180.744 83.3349C180.48 83.3349 180.227 83.2262 180.041 83.0328C179.855 82.8393 179.75 82.577 179.75 82.3034Z" fill="#EAC954"/>
<path d="M330.68 45.12C330.679 44.8214 330.735 44.5256 330.844 44.2494C330.954 43.9733 331.115 43.7223 331.318 43.5109C331.521 43.2994 331.762 43.1316 332.028 43.0172C332.293 42.9027 332.578 42.8437 332.866 42.8438C333.448 42.8438 334.005 43.0836 334.417 43.5104C334.828 43.9373 335.059 44.5163 335.059 45.12C335.059 45.4186 335.002 45.7142 334.892 45.99C334.782 46.2658 334.62 46.5162 334.416 46.727C334.213 46.9378 333.971 47.1048 333.705 47.2184C333.439 47.3321 333.154 47.3901 332.866 47.3891C332.286 47.3891 331.73 47.1501 331.32 46.7245C330.91 46.299 330.68 45.7218 330.68 45.12Z" fill="#EAC954"/>
<path d="M303.195 170.537C303.197 170.374 303.244 170.215 303.333 170.08C303.421 169.946 303.545 169.841 303.691 169.78C303.836 169.718 303.996 169.703 304.15 169.735C304.303 169.768 304.444 169.847 304.555 169.963C304.665 170.079 304.74 170.226 304.771 170.386C304.801 170.545 304.785 170.711 304.724 170.861C304.664 171.012 304.562 171.14 304.431 171.23C304.301 171.321 304.147 171.369 303.99 171.369C303.885 171.369 303.781 171.347 303.685 171.306C303.588 171.264 303.5 171.202 303.426 171.125C303.352 171.047 303.293 170.956 303.254 170.855C303.214 170.754 303.194 170.646 303.195 170.537Z" fill="#EAC954"/>
<path d="M313.351 277.783C314.339 277.783 315.14 276.952 315.14 275.927C315.14 274.902 314.339 274.07 313.351 274.07C312.363 274.07 311.562 274.902 311.562 275.927C311.562 276.952 312.363 277.783 313.351 277.783Z" fill="#EAC954"/>
<path d="M254.625 256.093C254.625 255.684 254.742 255.284 254.961 254.943C255.18 254.603 255.492 254.338 255.856 254.181C256.221 254.024 256.622 253.983 257.008 254.063C257.395 254.143 257.751 254.34 258.03 254.63C258.309 254.919 258.498 255.288 258.575 255.69C258.652 256.091 258.613 256.507 258.462 256.886C258.311 257.264 258.055 257.587 257.727 257.815C257.399 258.042 257.014 258.163 256.619 258.163C256.357 258.164 256.097 258.111 255.855 258.008C255.613 257.904 255.393 257.752 255.207 257.559C255.022 257.367 254.875 257.138 254.775 256.887C254.675 256.635 254.624 256.366 254.625 256.093Z" fill="#EAC954"/>
<path d="M145.508 227.159C145.508 226.913 145.578 226.673 145.709 226.468C145.841 226.263 146.028 226.104 146.247 226.009C146.465 225.915 146.706 225.89 146.939 225.937C147.171 225.985 147.385 226.103 147.553 226.276C147.721 226.45 147.836 226.671 147.883 226.912C147.93 227.153 147.907 227.403 147.817 227.63C147.727 227.858 147.575 228.053 147.379 228.19C147.182 228.328 146.951 228.402 146.714 228.404C146.556 228.406 146.399 228.375 146.252 228.313C146.105 228.251 145.972 228.16 145.859 228.044C145.747 227.928 145.658 227.79 145.598 227.638C145.538 227.486 145.507 227.323 145.508 227.159Z" fill="#EAC954"/>
<path d="M147.102 161.25C147.102 161.046 147.16 160.847 147.269 160.677C147.378 160.508 147.533 160.375 147.715 160.297C147.897 160.219 148.096 160.199 148.289 160.239C148.482 160.278 148.659 160.377 148.798 160.521C148.937 160.665 149.032 160.849 149.07 161.049C149.108 161.249 149.089 161.456 149.013 161.645C148.938 161.833 148.811 161.994 148.647 162.108C148.484 162.221 148.292 162.282 148.095 162.282C147.832 162.282 147.579 162.173 147.393 161.98C147.206 161.786 147.102 161.524 147.102 161.25Z" fill="#EAC954"/>
<path d="M326.68 236.672L334.561 235.669L335.157 227.453L338.516 234.915L346.233 232.973L340.421 238.592L344.588 245.606L337.645 241.609L332.512 247.89L334.02 239.802L326.68 236.672Z" fill="url(#paint40_linear_2908_25482)"/>
<path d="M75.4141 218.063L79.2315 218.326L80.2321 214.492L81.171 218.34L84.9953 218.141L81.7604 220.261L83.1243 223.974L80.1773 221.428L77.2028 223.924L78.6215 220.233L75.4141 218.063Z" fill="url(#paint41_linear_2908_25482)"/>
<path d="M82.5903 95.7328L78.581 98.45L80.356 103.059L76.6346 99.9438L72.9542 103.116L74.6608 98.4785L70.6172 95.8323L75.3941 96.0813L76.566 91.2656L77.8134 96.06L82.5903 95.7328Z" fill="url(#paint42_linear_2908_25482)"/>
<path d="M199.273 72.3957L202.734 73.7259L204.674 70.4609L204.523 74.295L208.114 75.1984L204.558 76.2298L204.839 80.0567L202.789 76.8629L199.369 78.3211L201.658 75.3122L199.273 72.3957Z" fill="url(#paint43_linear_2908_25482)"/>
<path d="M326.297 88.2969L328.031 92.7L332.527 91.7966L329.039 94.8695L331.252 99.0308L327.353 96.534L324.228 99.9982L325.317 95.3817L321.164 93.3686L325.735 93.0201L326.297 88.2969Z" fill="url(#paint44_linear_2908_25482)"/>
<path d="M125.988 258.153L130.648 261.759L134.973 257.719L133.108 263.438L138.139 266.454L132.327 266.383L131.121 272.287L129.387 266.525L123.609 267.158L128.352 263.665L125.988 258.153Z" fill="url(#paint45_linear_2908_25482)"/>
<path d="M358.938 167.047C358.937 166.843 358.996 166.644 359.105 166.474C359.214 166.304 359.369 166.172 359.551 166.094C359.733 166.016 359.932 165.996 360.125 166.035C360.318 166.075 360.495 166.173 360.634 166.318C360.773 166.462 360.868 166.646 360.906 166.846C360.944 167.046 360.925 167.253 360.849 167.442C360.774 167.63 360.647 167.791 360.483 167.905C360.32 168.018 360.128 168.078 359.931 168.078C359.668 168.078 359.415 167.97 359.229 167.776C359.042 167.583 358.938 167.321 358.938 167.047Z" fill="url(#paint46_linear_2908_25482)"/>
<path d="M307.195 99.0487C307.195 98.7223 307.289 98.4033 307.463 98.1319C307.638 97.8605 307.886 97.649 308.177 97.5241C308.467 97.3992 308.787 97.3665 309.096 97.4301C309.404 97.4938 309.687 97.651 309.91 97.8818C310.132 98.1126 310.283 98.4066 310.345 98.7268C310.406 99.0469 310.375 99.3787 310.254 99.6802C310.134 99.9818 309.93 100.24 309.669 100.421C309.407 100.602 309.1 100.699 308.785 100.699C308.364 100.697 307.961 100.523 307.663 100.214C307.365 99.9045 307.197 99.4858 307.195 99.0487Z" fill="url(#paint47_linear_2908_25482)"/>
<path d="M256.609 86.6425C256.609 86.3161 256.703 85.997 256.877 85.7256C257.052 85.4542 257.3 85.2427 257.591 85.1178C257.881 84.9929 258.201 84.9602 258.51 85.0239C258.818 85.0876 259.101 85.2447 259.324 85.4755C259.546 85.7063 259.698 86.0004 259.759 86.3205C259.82 86.6406 259.789 86.9724 259.668 87.274C259.548 87.5755 259.344 87.8333 259.083 88.0146C258.821 88.196 258.514 88.2927 258.199 88.2927C257.778 88.2927 257.373 88.1189 257.075 87.8094C256.777 87.4999 256.609 87.0801 256.609 86.6425Z" fill="url(#paint48_linear_2908_25482)"/>
<path d="M285.672 73.4145C285.671 73.0861 285.763 72.7647 285.938 72.491C286.113 72.2174 286.362 72.0038 286.654 71.8775C286.947 71.7512 287.268 71.7178 287.579 71.7815C287.889 71.8452 288.174 72.0032 288.398 72.2354C288.622 72.4677 288.774 72.7636 288.835 73.0858C288.897 73.408 288.864 73.7418 288.743 74.0449C288.621 74.3481 288.415 74.6068 288.152 74.7884C287.888 74.97 287.578 75.0662 287.262 75.0648C286.84 75.0648 286.436 74.8909 286.138 74.5814C285.839 74.2719 285.672 73.8522 285.672 73.4145Z" fill="url(#paint49_linear_2908_25482)"/>
<path d="M133.156 84.1388C133.156 83.6478 133.297 83.1678 133.559 82.7596C133.822 82.3513 134.196 82.0331 134.633 81.8452C135.07 81.6573 135.551 81.6082 136.015 81.704C136.479 81.7997 136.905 82.0362 137.239 82.3834C137.574 82.7306 137.802 83.1729 137.894 83.6545C137.986 84.136 137.939 84.6352 137.758 85.0888C137.577 85.5424 137.27 85.9301 136.877 86.2029C136.484 86.4757 136.021 86.6213 135.548 86.6213C135.234 86.6222 134.922 86.5587 134.632 86.4342C134.341 86.3098 134.077 86.127 133.855 85.8963C133.633 85.6656 133.456 85.3915 133.336 85.0899C133.217 84.7883 133.155 84.4651 133.156 84.1388Z" fill="url(#paint50_linear_2908_25482)"/>
<path d="M79.3985 148.843C79.3971 148.637 79.4546 148.435 79.5638 148.264C79.6729 148.092 79.8287 147.958 80.0114 147.878C80.1941 147.798 80.3955 147.777 80.5901 147.816C80.7846 147.855 80.9635 147.954 81.1042 148.099C81.2448 148.243 81.3408 148.429 81.3799 148.63C81.4191 148.832 81.3997 149.041 81.3242 149.231C81.2486 149.421 81.1204 149.584 80.9557 149.698C80.791 149.813 80.5973 149.874 80.3991 149.874C80.268 149.875 80.138 149.849 80.0167 149.797C79.8953 149.746 79.785 149.67 79.6919 149.574C79.5989 149.479 79.5251 149.364 79.4748 149.239C79.4244 149.113 79.3985 148.979 79.3985 148.843Z" fill="url(#paint51_linear_2908_25482)"/>
<path d="M36 183.353C36 182.913 36.1682 182.492 36.4677 182.181C36.7672 181.87 37.1734 181.695 37.5969 181.695C37.8063 181.695 38.0136 181.738 38.2069 181.822C38.4003 181.905 38.5759 182.027 38.7236 182.181C38.8714 182.335 38.9883 182.518 39.0678 182.719C39.1473 182.92 39.1878 183.135 39.1869 183.353C39.1869 183.79 39.0194 184.21 38.7212 184.52C38.423 184.829 38.0186 185.003 37.5969 185.003C37.3875 185.004 37.18 184.962 36.9863 184.879C36.7926 184.797 36.6165 184.675 36.4681 184.522C36.3198 184.369 36.202 184.187 36.1217 183.986C36.0414 183.785 36 183.57 36 183.353Z" fill="url(#paint52_linear_2908_25482)"/>
<path d="M66.4528 251.549C67.4407 251.549 68.2416 250.718 68.2416 249.692C68.2416 248.667 67.4407 247.836 66.4528 247.836C65.4649 247.836 64.6641 248.667 64.6641 249.692C64.6641 250.718 65.4649 251.549 66.4528 251.549Z" fill="url(#paint53_linear_2908_25482)"/>
<path d="M122.812 242.651C122.812 242.201 122.941 241.761 123.182 241.387C123.423 241.012 123.766 240.721 124.166 240.548C124.567 240.376 125.008 240.331 125.433 240.419C125.859 240.507 126.25 240.723 126.556 241.042C126.863 241.36 127.072 241.766 127.157 242.207C127.241 242.649 127.198 243.106 127.032 243.522C126.866 243.938 126.585 244.294 126.224 244.544C125.863 244.794 125.439 244.928 125.006 244.928C124.424 244.928 123.866 244.688 123.455 244.261C123.044 243.834 122.813 243.255 122.812 242.651Z" fill="url(#paint54_linear_2908_25482)"/>
<path d="M297.218 260.829C297.218 260.548 297.138 260.272 296.987 260.039C296.836 259.805 296.622 259.622 296.372 259.515C296.121 259.407 295.846 259.379 295.58 259.434C295.314 259.488 295.07 259.624 294.878 259.823C294.686 260.022 294.556 260.275 294.503 260.551C294.45 260.827 294.477 261.113 294.581 261.373C294.685 261.633 294.86 261.855 295.086 262.012C295.311 262.168 295.576 262.252 295.847 262.252C296.211 262.252 296.559 262.102 296.816 261.835C297.074 261.568 297.218 261.206 297.218 260.829Z" fill="url(#paint55_linear_2908_25482)"/>
</g>
</g>
<defs>
<filter id="filter0_d_2908_25482" x="0.706699" y="0.149948" width="403.329" height="330.188" filterUnits="userSpaceOnUse" color-interpolation-filters="sRGB">
<feFlood flood-opacity="0" result="BackgroundImageFix"/>
<feColorMatrix in="SourceAlpha" type="matrix" values="0 0 0 0 0 0 0 0 0 0 0 0 0 0 0 0 0 0 127 0" result="hardAlpha"/>
<feOffset dy="3.44325"/>
<feGaussianBlur stdDeviation="17.6467"/>
<feComposite in2="hardAlpha" operator="out"/>
<feColorMatrix type="matrix" values="0 0 0 0 0.309804 0 0 0 0 0.678431 0 0 0 0 0.545098 0 0 0 0.6 0"/>
<feBlend mode="normal" in2="BackgroundImageFix" result="effect1_dropShadow_2908_25482"/>
<feBlend mode="normal" in="SourceGraphic" in2="effect1_dropShadow_2908_25482" result="shape"/>
</filter>
<linearGradient id="paint0_linear_2908_25482" x1="86.8877" y1="207.056" x2="292.366" y2="-21.1301" gradientUnits="userSpaceOnUse">
<stop stop-color="#532416"/>
<stop offset="0.1" stop-color="#6A3C19"/>
<stop offset="0.3" stop-color="#A57922"/>
<stop offset="0.34" stop-color="#AE8323"/>
<stop offset="0.55" stop-color="#EAC954"/>
<stop offset="0.79" stop-color="#FFFA8A"/>
<stop offset="0.85" stop-color="#FEF787"/>
<stop offset="0.9" stop-color="#FAEE7D"/>
<stop offset="0.95" stop-color="#F3DF6C"/>
<stop offset="1" stop-color="#EAC954"/>
</linearGradient>
<linearGradient id="paint1_linear_2908_25482" x1="73.167" y1="194.698" x2="278.631" y2="-33.4817" gradientUnits="userSpaceOnUse">
<stop stop-color="#532416"/>
<stop offset="0.1" stop-color="#6A3C19"/>
<stop offset="0.3" stop-color="#A57922"/>
<stop offset="0.34" stop-color="#AE8323"/>
<stop offset="0.55" stop-color="#EAC954"/>
<stop offset="0.79" stop-color="#FFFA8A"/>
<stop offset="0.85" stop-color="#FEF787"/>
<stop offset="0.9" stop-color="#FAEE7D"/>
<stop offset="0.95" stop-color="#F3DF6C"/>
<stop offset="1" stop-color="#EAC954"/>
</linearGradient>
<linearGradient id="paint2_linear_2908_25482" x1="74.7399" y1="196.099" x2="280.218" y2="-32.0798" gradientUnits="userSpaceOnUse">
<stop stop-color="#532416"/>
<stop offset="0.1" stop-color="#6A3C19"/>
<stop offset="0.3" stop-color="#A57922"/>
<stop offset="0.34" stop-color="#AE8323"/>
<stop offset="0.55" stop-color="#EAC954"/>
<stop offset="0.79" stop-color="#FFFA8A"/>
<stop offset="0.85" stop-color="#FEF787"/>
<stop offset="0.9" stop-color="#FAEE7D"/>
<stop offset="0.95" stop-color="#F3DF6C"/>
<stop offset="1" stop-color="#EAC954"/>
</linearGradient>
<linearGradient id="paint3_linear_2908_25482" x1="91.4008" y1="211.135" x2="296.872" y2="-17.0518" gradientUnits="userSpaceOnUse">
<stop stop-color="#532416"/>
<stop offset="0.1" stop-color="#6A3C19"/>
<stop offset="0.3" stop-color="#A57922"/>
<stop offset="0.34" stop-color="#AE8323"/>
<stop offset="0.55" stop-color="#EAC954"/>
<stop offset="0.79" stop-color="#FFFA8A"/>
<stop offset="0.85" stop-color="#FEF787"/>
<stop offset="0.9" stop-color="#FAEE7D"/>
<stop offset="0.95" stop-color="#F3DF6C"/>
<stop offset="1" stop-color="#EAC954"/>
</linearGradient>
<linearGradient id="paint4_linear_2908_25482" x1="118.654" y1="235.673" x2="324.125" y2="7.4942" gradientUnits="userSpaceOnUse">
<stop stop-color="#532416"/>
<stop offset="0.1" stop-color="#6A3C19"/>
<stop offset="0.3" stop-color="#A57922"/>
<stop offset="0.34" stop-color="#AE8323"/>
<stop offset="0.55" stop-color="#EAC954"/>
<stop offset="0.79" stop-color="#FFFA8A"/>
<stop offset="0.85" stop-color="#FEF787"/>
<stop offset="0.9" stop-color="#FAEE7D"/>
<stop offset="0.95" stop-color="#F3DF6C"/>
<stop offset="1" stop-color="#EAC954"/>
</linearGradient>
<linearGradient id="paint5_linear_2908_25482" x1="149.659" y1="263.577" x2="355.13" y2="35.3978" gradientUnits="userSpaceOnUse">
<stop stop-color="#532416"/>
<stop offset="0.1" stop-color="#6A3C19"/>
<stop offset="0.3" stop-color="#A57922"/>
<stop offset="0.34" stop-color="#AE8323"/>
<stop offset="0.55" stop-color="#EAC954"/>
<stop offset="0.79" stop-color="#FFFA8A"/>
<stop offset="0.85" stop-color="#FEF787"/>
<stop offset="0.9" stop-color="#FAEE7D"/>
<stop offset="0.95" stop-color="#F3DF6C"/>
<stop offset="1" stop-color="#EAC954"/>
</linearGradient>
<linearGradient id="paint6_linear_2908_25482" x1="175.181" y1="286.553" x2="380.652" y2="58.3739" gradientUnits="userSpaceOnUse">
<stop stop-color="#532416"/>
<stop offset="0.1" stop-color="#6A3C19"/>
<stop offset="0.3" stop-color="#A57922"/>
<stop offset="0.34" stop-color="#AE8323"/>
<stop offset="0.55" stop-color="#EAC954"/>
<stop offset="0.79" stop-color="#FFFA8A"/>
<stop offset="0.85" stop-color="#FEF787"/>
<stop offset="0.9" stop-color="#FAEE7D"/>
<stop offset="0.95" stop-color="#F3DF6C"/>
<stop offset="1" stop-color="#EAC954"/>
</linearGradient>
<linearGradient id="paint7_linear_2908_25482" x1="188.894" y1="298.91" x2="394.365" y2="70.7311" gradientUnits="userSpaceOnUse">
<stop stop-color="#532416"/>
<stop offset="0.1" stop-color="#6A3C19"/>
<stop offset="0.3" stop-color="#A57922"/>
<stop offset="0.34" stop-color="#AE8323"/>
<stop offset="0.55" stop-color="#EAC954"/>
<stop offset="0.79" stop-color="#FFFA8A"/>
<stop offset="0.85" stop-color="#FEF787"/>
<stop offset="0.9" stop-color="#FAEE7D"/>
<stop offset="0.95" stop-color="#F3DF6C"/>
<stop offset="1" stop-color="#EAC954"/>
</linearGradient>
<linearGradient id="paint8_linear_2908_25482" x1="187.297" y1="297.474" x2="392.767" y2="69.2946" gradientUnits="userSpaceOnUse">
<stop stop-color="#532416"/>
<stop offset="0.1" stop-color="#6A3C19"/>
<stop offset="0.3" stop-color="#A57922"/>
<stop offset="0.34" stop-color="#AE8323"/>
<stop offset="0.55" stop-color="#EAC954"/>
<stop offset="0.79" stop-color="#FFFA8A"/>
<stop offset="0.85" stop-color="#FEF787"/>
<stop offset="0.9" stop-color="#FAEE7D"/>
<stop offset="0.95" stop-color="#F3DF6C"/>
<stop offset="1" stop-color="#EAC954"/>
</linearGradient>
<linearGradient id="paint9_linear_2908_25482" x1="170.635" y1="282.461" x2="376.113" y2="54.2753" gradientUnits="userSpaceOnUse">
<stop stop-color="#532416"/>
<stop offset="0.1" stop-color="#6A3C19"/>
<stop offset="0.3" stop-color="#A57922"/>
<stop offset="0.34" stop-color="#AE8323"/>
<stop offset="0.55" stop-color="#EAC954"/>
<stop offset="0.79" stop-color="#FFFA8A"/>
<stop offset="0.85" stop-color="#FEF787"/>
<stop offset="0.9" stop-color="#FAEE7D"/>
<stop offset="0.95" stop-color="#F3DF6C"/>
<stop offset="1" stop-color="#EAC954"/>
</linearGradient>
<linearGradient id="paint10_linear_2908_25482" x1="143.4" y1="257.935" x2="348.878" y2="29.7488" gradientUnits="userSpaceOnUse">
<stop stop-color="#532416"/>
<stop offset="0.1" stop-color="#6A3C19"/>
<stop offset="0.3" stop-color="#A57922"/>
<stop offset="0.34" stop-color="#AE8323"/>
<stop offset="0.55" stop-color="#EAC954"/>
<stop offset="0.79" stop-color="#FFFA8A"/>
<stop offset="0.85" stop-color="#FEF787"/>
<stop offset="0.9" stop-color="#FAEE7D"/>
<stop offset="0.95" stop-color="#F3DF6C"/>
<stop offset="1" stop-color="#EAC954"/>
</linearGradient>
<linearGradient id="paint11_linear_2908_25482" x1="112.416" y1="230.025" x2="317.887" y2="1.84548" gradientUnits="userSpaceOnUse">
<stop stop-color="#532416"/>
<stop offset="0.1" stop-color="#6A3C19"/>
<stop offset="0.3" stop-color="#A57922"/>
<stop offset="0.34" stop-color="#AE8323"/>
<stop offset="0.55" stop-color="#EAC954"/>
<stop offset="0.79" stop-color="#FFFA8A"/>
<stop offset="0.85" stop-color="#FEF787"/>
<stop offset="0.9" stop-color="#FAEE7D"/>
<stop offset="0.95" stop-color="#F3DF6C"/>
<stop offset="1" stop-color="#EAC954"/>
</linearGradient>
<linearGradient id="paint12_linear_2908_25482" x1="237.581" y1="6.69434" x2="77.3722" y2="148.008" gradientUnits="userSpaceOnUse">
<stop stop-color="#532416"/>
<stop offset="0.1" stop-color="#6A3C19"/>
<stop offset="0.3" stop-color="#A57922"/>
<stop offset="0.34" stop-color="#AE8323"/>
<stop offset="0.55" stop-color="#EAC954"/>
<stop offset="0.79" stop-color="#FFFA8A"/>
<stop offset="0.85" stop-color="#FEF787"/>
<stop offset="0.9" stop-color="#FAEE7D"/>
<stop offset="0.95" stop-color="#F3DF6C"/>
<stop offset="1" stop-color="#EAC954"/>
</linearGradient>
<linearGradient id="paint13_linear_2908_25482" x1="312.354" y1="91.5093" x2="152.151" y2="232.824" gradientUnits="userSpaceOnUse">
<stop stop-color="#532416"/>
<stop offset="0.1" stop-color="#6A3C19"/>
<stop offset="0.3" stop-color="#A57922"/>
<stop offset="0.34" stop-color="#AE8323"/>
<stop offset="0.55" stop-color="#EAC954"/>
<stop offset="0.79" stop-color="#FFFA8A"/>
<stop offset="0.85" stop-color="#FEF787"/>
<stop offset="0.9" stop-color="#FAEE7D"/>
<stop offset="0.95" stop-color="#F3DF6C"/>
<stop offset="1" stop-color="#EAC954"/>
</linearGradient>
<linearGradient id="paint14_linear_2908_25482" x1="347.949" y1="131.823" x2="187.747" y2="273.138" gradientUnits="userSpaceOnUse">
<stop stop-color="#532416"/>
<stop offset="0.1" stop-color="#6A3C19"/>
<stop offset="0.3" stop-color="#A57922"/>
<stop offset="0.34" stop-color="#AE8323"/>
<stop offset="0.55" stop-color="#EAC954"/>
<stop offset="0.79" stop-color="#FFFA8A"/>
<stop offset="0.85" stop-color="#FEF787"/>
<stop offset="0.9" stop-color="#FAEE7D"/>
<stop offset="0.95" stop-color="#F3DF6C"/>
<stop offset="1" stop-color="#EAC954"/>
</linearGradient>
<linearGradient id="paint15_linear_2908_25482" x1="320.351" y1="100.561" x2="160.149" y2="241.875" gradientUnits="userSpaceOnUse">
<stop stop-color="#532416"/>
<stop offset="0.1" stop-color="#6A3C19"/>
<stop offset="0.3" stop-color="#A57922"/>
<stop offset="0.34" stop-color="#AE8323"/>
<stop offset="0.55" stop-color="#EAC954"/>
<stop offset="0.79" stop-color="#FFFA8A"/>
<stop offset="0.85" stop-color="#FEF787"/>
<stop offset="0.9" stop-color="#FAEE7D"/>
<stop offset="0.95" stop-color="#F3DF6C"/>
<stop offset="1" stop-color="#EAC954"/>
</linearGradient>
<linearGradient id="paint16_linear_2908_25482" x1="281.178" y1="56.1329" x2="120.976" y2="197.447" gradientUnits="userSpaceOnUse">
<stop stop-color="#532416"/>
<stop offset="0.1" stop-color="#6A3C19"/>
<stop offset="0.3" stop-color="#A57922"/>
<stop offset="0.34" stop-color="#AE8323"/>
<stop offset="0.55" stop-color="#EAC954"/>
<stop offset="0.79" stop-color="#FFFA8A"/>
<stop offset="0.85" stop-color="#FEF787"/>
<stop offset="0.9" stop-color="#FAEE7D"/>
<stop offset="0.95" stop-color="#F3DF6C"/>
<stop offset="1" stop-color="#EAC954"/>
</linearGradient>
<linearGradient id="paint17_linear_2908_25482" x1="286.359" y1="62.0386" x2="126.157" y2="203.352" gradientUnits="userSpaceOnUse">
<stop stop-color="#532416"/>
<stop offset="0.1" stop-color="#6A3C19"/>
<stop offset="0.3" stop-color="#A57922"/>
<stop offset="0.34" stop-color="#AE8323"/>
<stop offset="0.55" stop-color="#EAC954"/>
<stop offset="0.79" stop-color="#FFFA8A"/>
<stop offset="0.85" stop-color="#FEF787"/>
<stop offset="0.9" stop-color="#FAEE7D"/>
<stop offset="0.95" stop-color="#F3DF6C"/>
<stop offset="1" stop-color="#EAC954"/>
</linearGradient>
<linearGradient id="paint18_linear_2908_25482" x1="251.913" y1="22.9543" x2="91.7023" y2="164.269" gradientUnits="userSpaceOnUse">
<stop stop-color="#532416"/>
<stop offset="0.1" stop-color="#6A3C19"/>
<stop offset="0.3" stop-color="#A57922"/>
<stop offset="0.34" stop-color="#AE8323"/>
<stop offset="0.55" stop-color="#EAC954"/>
<stop offset="0.79" stop-color="#FFFA8A"/>
<stop offset="0.85" stop-color="#FEF787"/>
<stop offset="0.9" stop-color="#FAEE7D"/>
<stop offset="0.95" stop-color="#F3DF6C"/>
<stop offset="1" stop-color="#EAC954"/>
</linearGradient>
<linearGradient id="paint19_linear_2908_25482" x1="285.039" y1="60.5173" x2="124.837" y2="201.837" gradientUnits="userSpaceOnUse">
<stop stop-color="#532416"/>
<stop offset="0.1" stop-color="#6A3C19"/>
<stop offset="0.3" stop-color="#A57922"/>
<stop offset="0.34" stop-color="#AE8323"/>
<stop offset="0.55" stop-color="#EAC954"/>
<stop offset="0.79" stop-color="#FFFA8A"/>
<stop offset="0.85" stop-color="#FEF787"/>
<stop offset="0.9" stop-color="#FAEE7D"/>
<stop offset="0.95" stop-color="#F3DF6C"/>
<stop offset="1" stop-color="#EAC954"/>
</linearGradient>
<linearGradient id="paint20_linear_2908_25482" x1="302.252" y1="80.0102" x2="142.043" y2="221.325" gradientUnits="userSpaceOnUse">
<stop stop-color="#532416"/>
<stop offset="0.1" stop-color="#6A3C19"/>
<stop offset="0.3" stop-color="#A57922"/>
<stop offset="0.34" stop-color="#AE8323"/>
<stop offset="0.55" stop-color="#EAC954"/>
<stop offset="0.79" stop-color="#FFFA8A"/>
<stop offset="0.85" stop-color="#FEF787"/>
<stop offset="0.9" stop-color="#FAEE7D"/>
<stop offset="0.95" stop-color="#F3DF6C"/>
<stop offset="1" stop-color="#EAC954"/>
</linearGradient>
<linearGradient id="paint21_linear_2908_25482" x1="298.141" y1="75.374" x2="137.932" y2="216.687" gradientUnits="userSpaceOnUse">
<stop stop-color="#532416"/>
<stop offset="0.1" stop-color="#6A3C19"/>
<stop offset="0.3" stop-color="#A57922"/>
<stop offset="0.34" stop-color="#AE8323"/>
<stop offset="0.55" stop-color="#EAC954"/>
<stop offset="0.79" stop-color="#FFFA8A"/>
<stop offset="0.85" stop-color="#FEF787"/>
<stop offset="0.9" stop-color="#FAEE7D"/>
<stop offset="0.95" stop-color="#F3DF6C"/>
<stop offset="1" stop-color="#EAC954"/>
</linearGradient>
<linearGradient id="paint22_linear_2908_25482" x1="336.073" y1="118.365" x2="175.865" y2="259.678" gradientUnits="userSpaceOnUse">
<stop stop-color="#532416"/>
<stop offset="0.1" stop-color="#6A3C19"/>
<stop offset="0.3" stop-color="#A57922"/>
<stop offset="0.34" stop-color="#AE8323"/>
<stop offset="0.55" stop-color="#EAC954"/>
<stop offset="0.79" stop-color="#FFFA8A"/>
<stop offset="0.85" stop-color="#FEF787"/>
<stop offset="0.9" stop-color="#FAEE7D"/>
<stop offset="0.95" stop-color="#F3DF6C"/>
<stop offset="1" stop-color="#EAC954"/>
</linearGradient>
<linearGradient id="paint23_linear_2908_25482" x1="332.582" y1="114.415" x2="172.373" y2="255.729" gradientUnits="userSpaceOnUse">
<stop stop-color="#532416"/>
<stop offset="0.1" stop-color="#6A3C19"/>
<stop offset="0.3" stop-color="#A57922"/>
<stop offset="0.34" stop-color="#AE8323"/>
<stop offset="0.55" stop-color="#EAC954"/>
<stop offset="0.79" stop-color="#FFFA8A"/>
<stop offset="0.85" stop-color="#FEF787"/>
<stop offset="0.9" stop-color="#FAEE7D"/>
<stop offset="0.95" stop-color="#F3DF6C"/>
<stop offset="1" stop-color="#EAC954"/>
</linearGradient>
<linearGradient id="paint24_linear_2908_25482" x1="334.334" y1="116.4" x2="174.131" y2="257.712" gradientUnits="userSpaceOnUse">
<stop stop-color="#532416"/>
<stop offset="0.1" stop-color="#6A3C19"/>
<stop offset="0.3" stop-color="#A57922"/>
<stop offset="0.34" stop-color="#AE8323"/>
<stop offset="0.55" stop-color="#EAC954"/>
<stop offset="0.79" stop-color="#FFFA8A"/>
<stop offset="0.85" stop-color="#FEF787"/>
<stop offset="0.9" stop-color="#FAEE7D"/>
<stop offset="0.95" stop-color="#F3DF6C"/>
<stop offset="1" stop-color="#EAC954"/>
</linearGradient>
<linearGradient id="paint25_linear_2908_25482" x1="307.678" y1="86.1741" x2="147.468" y2="227.491" gradientUnits="userSpaceOnUse">
<stop stop-color="#532416"/>
<stop offset="0.1" stop-color="#6A3C19"/>
<stop offset="0.3" stop-color="#A57922"/>
<stop offset="0.34" stop-color="#AE8323"/>
<stop offset="0.55" stop-color="#EAC954"/>
<stop offset="0.79" stop-color="#FFFA8A"/>
<stop offset="0.85" stop-color="#FEF787"/>
<stop offset="0.9" stop-color="#FAEE7D"/>
<stop offset="0.95" stop-color="#F3DF6C"/>
<stop offset="1" stop-color="#EAC954"/>
</linearGradient>
<linearGradient id="paint26_linear_2908_25482" x1="293.867" y1="70.5231" x2="133.665" y2="211.834" gradientUnits="userSpaceOnUse">
<stop stop-color="#532416"/>
<stop offset="0.1" stop-color="#6A3C19"/>
<stop offset="0.3" stop-color="#A57922"/>
<stop offset="0.34" stop-color="#AE8323"/>
<stop offset="0.55" stop-color="#EAC954"/>
<stop offset="0.79" stop-color="#FFFA8A"/>
<stop offset="0.85" stop-color="#FEF787"/>
<stop offset="0.9" stop-color="#FAEE7D"/>
<stop offset="0.95" stop-color="#F3DF6C"/>
<stop offset="1" stop-color="#EAC954"/>
</linearGradient>
<linearGradient id="paint27_linear_2908_25482" x1="242.548" y1="12.339" x2="82.3523" y2="153.651" gradientUnits="userSpaceOnUse">
<stop stop-color="#532416"/>
<stop offset="0.1" stop-color="#6A3C19"/>
<stop offset="0.3" stop-color="#A57922"/>
<stop offset="0.34" stop-color="#AE8323"/>
<stop offset="0.55" stop-color="#EAC954"/>
<stop offset="0.79" stop-color="#FFFA8A"/>
<stop offset="0.85" stop-color="#FEF787"/>
<stop offset="0.9" stop-color="#FAEE7D"/>
<stop offset="0.95" stop-color="#F3DF6C"/>
<stop offset="1" stop-color="#EAC954"/>
</linearGradient>
<linearGradient id="paint28_linear_2908_25482" x1="397.331" y1="85.4004" x2="50.4447" y2="470.624" gradientUnits="userSpaceOnUse">
<stop stop-color="#532416"/>
<stop offset="0.1" stop-color="#6A3C19"/>
<stop offset="0.3" stop-color="#A57922"/>
<stop offset="0.34" stop-color="#AE8323"/>
<stop offset="0.55" stop-color="#EAC954"/>
<stop offset="0.79" stop-color="#FFFA8A"/>
<stop offset="0.85" stop-color="#FEF787"/>
<stop offset="0.9" stop-color="#FAEE7D"/>
<stop offset="0.95" stop-color="#F3DF6C"/>
<stop offset="1" stop-color="#EAC954"/>
</linearGradient>
<linearGradient id="paint29_linear_2908_25482" x1="420.492" y1="106.259" x2="73.6049" y2="491.483" gradientUnits="userSpaceOnUse">
<stop stop-color="#532416"/>
<stop offset="0.1" stop-color="#6A3C19"/>
<stop offset="0.3" stop-color="#A57922"/>
<stop offset="0.34" stop-color="#AE8323"/>
<stop offset="0.55" stop-color="#EAC954"/>
<stop offset="0.79" stop-color="#FFFA8A"/>
<stop offset="0.85" stop-color="#FEF787"/>
<stop offset="0.9" stop-color="#FAEE7D"/>
<stop offset="0.95" stop-color="#F3DF6C"/>
<stop offset="1" stop-color="#EAC954"/>
</linearGradient>
<linearGradient id="paint30_linear_2908_25482" x1="417.82" y1="103.857" x2="70.933" y2="489.081" gradientUnits="userSpaceOnUse">
<stop stop-color="#532416"/>
<stop offset="0.1" stop-color="#6A3C19"/>
<stop offset="0.3" stop-color="#A57922"/>
<stop offset="0.34" stop-color="#AE8323"/>
<stop offset="0.55" stop-color="#EAC954"/>
<stop offset="0.79" stop-color="#FFFA8A"/>
<stop offset="0.85" stop-color="#FEF787"/>
<stop offset="0.9" stop-color="#FAEE7D"/>
<stop offset="0.95" stop-color="#F3DF6C"/>
<stop offset="1" stop-color="#EAC954"/>
</linearGradient>
<linearGradient id="paint31_linear_2908_25482" x1="389.7" y1="78.5303" x2="42.8132" y2="463.754" gradientUnits="userSpaceOnUse">
<stop stop-color="#532416"/>
<stop offset="0.1" stop-color="#6A3C19"/>
<stop offset="0.3" stop-color="#A57922"/>
<stop offset="0.34" stop-color="#AE8323"/>
<stop offset="0.55" stop-color="#EAC954"/>
<stop offset="0.79" stop-color="#FFFA8A"/>
<stop offset="0.85" stop-color="#FEF787"/>
<stop offset="0.9" stop-color="#FAEE7D"/>
<stop offset="0.95" stop-color="#F3DF6C"/>
<stop offset="1" stop-color="#EAC954"/>
</linearGradient>
<linearGradient id="paint32_linear_2908_25482" x1="343.689" y1="37.1156" x2="-3.19774" y2="422.339" gradientUnits="userSpaceOnUse">
<stop stop-color="#532416"/>
<stop offset="0.1" stop-color="#6A3C19"/>
<stop offset="0.3" stop-color="#A57922"/>
<stop offset="0.34" stop-color="#AE8323"/>
<stop offset="0.55" stop-color="#EAC954"/>
<stop offset="0.79" stop-color="#FFFA8A"/>
<stop offset="0.85" stop-color="#FEF787"/>
<stop offset="0.9" stop-color="#FAEE7D"/>
<stop offset="0.95" stop-color="#F3DF6C"/>
<stop offset="1" stop-color="#EAC954"/>
</linearGradient>
<linearGradient id="paint33_linear_2908_25482" x1="291.362" y1="-10.0109" x2="-55.5243" y2="375.213" gradientUnits="userSpaceOnUse">
<stop stop-color="#532416"/>
<stop offset="0.1" stop-color="#6A3C19"/>
<stop offset="0.3" stop-color="#A57922"/>
<stop offset="0.34" stop-color="#AE8323"/>
<stop offset="0.55" stop-color="#EAC954"/>
<stop offset="0.79" stop-color="#FFFA8A"/>
<stop offset="0.85" stop-color="#FEF787"/>
<stop offset="0.9" stop-color="#FAEE7D"/>
<stop offset="0.95" stop-color="#F3DF6C"/>
<stop offset="1" stop-color="#EAC954"/>
</linearGradient>
<linearGradient id="paint34_linear_2908_25482" x1="248.3" y1="-48.7924" x2="-98.586" y2="336.425" gradientUnits="userSpaceOnUse">
<stop stop-color="#532416"/>
<stop offset="0.1" stop-color="#6A3C19"/>
<stop offset="0.3" stop-color="#A57922"/>
<stop offset="0.34" stop-color="#AE8323"/>
<stop offset="0.55" stop-color="#EAC954"/>
<stop offset="0.79" stop-color="#FFFA8A"/>
<stop offset="0.85" stop-color="#FEF787"/>
<stop offset="0.9" stop-color="#FAEE7D"/>
<stop offset="0.95" stop-color="#F3DF6C"/>
<stop offset="1" stop-color="#EAC954"/>
</linearGradient>
<linearGradient id="paint35_linear_2908_25482" x1="225.138" y1="-69.6473" x2="-121.742" y2="315.577" gradientUnits="userSpaceOnUse">
<stop stop-color="#532416"/>
<stop offset="0.1" stop-color="#6A3C19"/>
<stop offset="0.3" stop-color="#A57922"/>
<stop offset="0.34" stop-color="#AE8323"/>
<stop offset="0.55" stop-color="#EAC954"/>
<stop offset="0.79" stop-color="#FFFA8A"/>
<stop offset="0.85" stop-color="#FEF787"/>
<stop offset="0.9" stop-color="#FAEE7D"/>
<stop offset="0.95" stop-color="#F3DF6C"/>
<stop offset="1" stop-color="#EAC954"/>
</linearGradient>
<linearGradient id="paint36_linear_2908_25482" x1="227.807" y1="-67.256" x2="-119.08" y2="317.968" gradientUnits="userSpaceOnUse">
<stop stop-color="#532416"/>
<stop offset="0.1" stop-color="#6A3C19"/>
<stop offset="0.3" stop-color="#A57922"/>
<stop offset="0.34" stop-color="#AE8323"/>
<stop offset="0.55" stop-color="#EAC954"/>
<stop offset="0.79" stop-color="#FFFA8A"/>
<stop offset="0.85" stop-color="#FEF787"/>
<stop offset="0.9" stop-color="#FAEE7D"/>
<stop offset="0.95" stop-color="#F3DF6C"/>
<stop offset="1" stop-color="#EAC954"/>
</linearGradient>
<linearGradient id="paint37_linear_2908_25482" x1="255.927" y1="-41.9136" x2="-90.9526" y2="343.303" gradientUnits="userSpaceOnUse">
<stop stop-color="#532416"/>
<stop offset="0.1" stop-color="#6A3C19"/>
<stop offset="0.3" stop-color="#A57922"/>
<stop offset="0.34" stop-color="#AE8323"/>
<stop offset="0.55" stop-color="#EAC954"/>
<stop offset="0.79" stop-color="#FFFA8A"/>
<stop offset="0.85" stop-color="#FEF787"/>
<stop offset="0.9" stop-color="#FAEE7D"/>
<stop offset="0.95" stop-color="#F3DF6C"/>
<stop offset="1" stop-color="#EAC954"/>
</linearGradient>
<linearGradient id="paint38_linear_2908_25482" x1="301.939" y1="-0.504013" x2="-44.9476" y2="384.72" gradientUnits="userSpaceOnUse">
<stop stop-color="#532416"/>
<stop offset="0.1" stop-color="#6A3C19"/>
<stop offset="0.3" stop-color="#A57922"/>
<stop offset="0.34" stop-color="#AE8323"/>
<stop offset="0.55" stop-color="#EAC954"/>
<stop offset="0.79" stop-color="#FFFA8A"/>
<stop offset="0.85" stop-color="#FEF787"/>
<stop offset="0.9" stop-color="#FAEE7D"/>
<stop offset="0.95" stop-color="#F3DF6C"/>
<stop offset="1" stop-color="#EAC954"/>
</linearGradient>
<linearGradient id="paint39_linear_2908_25482" x1="354.263" y1="46.6191" x2="7.37642" y2="431.843" gradientUnits="userSpaceOnUse">
<stop stop-color="#532416"/>
<stop offset="0.1" stop-color="#6A3C19"/>
<stop offset="0.3" stop-color="#A57922"/>
<stop offset="0.34" stop-color="#AE8323"/>
<stop offset="0.55" stop-color="#EAC954"/>
<stop offset="0.79" stop-color="#FFFA8A"/>
<stop offset="0.85" stop-color="#FEF787"/>
<stop offset="0.9" stop-color="#FAEE7D"/>
<stop offset="0.95" stop-color="#F3DF6C"/>
<stop offset="1" stop-color="#EAC954"/>
</linearGradient>
<linearGradient id="paint40_linear_2908_25482" x1="142.951" y1="423.644" x2="413.412" y2="185.074" gradientUnits="userSpaceOnUse">
<stop stop-color="#532416"/>
<stop offset="0.1" stop-color="#6A3C19"/>
<stop offset="0.3" stop-color="#A57922"/>
<stop offset="0.34" stop-color="#AE8323"/>
<stop offset="0.55" stop-color="#EAC954"/>
<stop offset="0.79" stop-color="#FFFA8A"/>
<stop offset="0.85" stop-color="#FEF787"/>
<stop offset="0.9" stop-color="#FAEE7D"/>
<stop offset="0.95" stop-color="#F3DF6C"/>
<stop offset="1" stop-color="#EAC954"/>
</linearGradient>
<linearGradient id="paint41_linear_2908_25482" x1="16.6794" y1="280.489" x2="287.141" y2="41.9188" gradientUnits="userSpaceOnUse">
<stop stop-color="#532416"/>
<stop offset="0.1" stop-color="#6A3C19"/>
<stop offset="0.3" stop-color="#A57922"/>
<stop offset="0.34" stop-color="#AE8323"/>
<stop offset="0.55" stop-color="#EAC954"/>
<stop offset="0.79" stop-color="#FFFA8A"/>
<stop offset="0.85" stop-color="#FEF787"/>
<stop offset="0.9" stop-color="#FAEE7D"/>
<stop offset="0.95" stop-color="#F3DF6C"/>
<stop offset="1" stop-color="#EAC954"/>
</linearGradient>
<linearGradient id="paint42_linear_2908_25482" x1="-43.3844" y1="212.397" x2="227.077" y2="-26.1802" gradientUnits="userSpaceOnUse">
<stop stop-color="#532416"/>
<stop offset="0.1" stop-color="#6A3C19"/>
<stop offset="0.3" stop-color="#A57922"/>
<stop offset="0.34" stop-color="#AE8323"/>
<stop offset="0.55" stop-color="#EAC954"/>
<stop offset="0.79" stop-color="#FFFA8A"/>
<stop offset="0.85" stop-color="#FEF787"/>
<stop offset="0.9" stop-color="#FAEE7D"/>
<stop offset="0.95" stop-color="#F3DF6C"/>
<stop offset="1" stop-color="#EAC954"/>
</linearGradient>
<linearGradient id="paint43_linear_2908_25482" x1="3.18701" y1="265.186" x2="273.648" y2="26.6157" gradientUnits="userSpaceOnUse">
<stop stop-color="#532416"/>
<stop offset="0.1" stop-color="#6A3C19"/>
<stop offset="0.3" stop-color="#A57922"/>
<stop offset="0.34" stop-color="#AE8323"/>
<stop offset="0.55" stop-color="#EAC954"/>
<stop offset="0.79" stop-color="#FFFA8A"/>
<stop offset="0.85" stop-color="#FEF787"/>
<stop offset="0.9" stop-color="#FAEE7D"/>
<stop offset="0.95" stop-color="#F3DF6C"/>
<stop offset="1" stop-color="#EAC954"/>
</linearGradient>
<linearGradient id="paint44_linear_2908_25482" x1="69.3455" y1="340.177" x2="339.8" y2="101.607" gradientUnits="userSpaceOnUse">
<stop stop-color="#532416"/>
<stop offset="0.1" stop-color="#6A3C19"/>
<stop offset="0.3" stop-color="#A57922"/>
<stop offset="0.34" stop-color="#AE8323"/>
<stop offset="0.55" stop-color="#EAC954"/>
<stop offset="0.79" stop-color="#FFFA8A"/>
<stop offset="0.85" stop-color="#FEF787"/>
<stop offset="0.9" stop-color="#FAEE7D"/>
<stop offset="0.95" stop-color="#F3DF6C"/>
<stop offset="1" stop-color="#EAC954"/>
</linearGradient>
<linearGradient id="paint45_linear_2908_25482" x1="60.5638" y1="330.239" x2="331.026" y2="91.6684" gradientUnits="userSpaceOnUse">
<stop stop-color="#532416"/>
<stop offset="0.1" stop-color="#6A3C19"/>
<stop offset="0.3" stop-color="#A57922"/>
<stop offset="0.34" stop-color="#AE8323"/>
<stop offset="0.55" stop-color="#EAC954"/>
<stop offset="0.79" stop-color="#FFFA8A"/>
<stop offset="0.85" stop-color="#FEF787"/>
<stop offset="0.9" stop-color="#FAEE7D"/>
<stop offset="0.95" stop-color="#F3DF6C"/>
<stop offset="1" stop-color="#EAC954"/>
</linearGradient>
<linearGradient id="paint46_linear_2908_25482" x1="118.76" y1="396.223" x2="389.215" y2="157.657" gradientUnits="userSpaceOnUse">
<stop stop-color="#532416"/>
<stop offset="0.1" stop-color="#6A3C19"/>
<stop offset="0.3" stop-color="#A57922"/>
<stop offset="0.34" stop-color="#AE8323"/>
<stop offset="0.55" stop-color="#EAC954"/>
<stop offset="0.79" stop-color="#FFFA8A"/>
<stop offset="0.85" stop-color="#FEF787"/>
<stop offset="0.9" stop-color="#FAEE7D"/>
<stop offset="0.95" stop-color="#F3DF6C"/>
<stop offset="1" stop-color="#EAC954"/>
</linearGradient>
<linearGradient id="paint47_linear_2908_25482" x1="62.8207" y1="332.776" x2="333.281" y2="94.2068" gradientUnits="userSpaceOnUse">
<stop stop-color="#532416"/>
<stop offset="0.1" stop-color="#6A3C19"/>
<stop offset="0.3" stop-color="#A57922"/>
<stop offset="0.34" stop-color="#AE8323"/>
<stop offset="0.55" stop-color="#EAC954"/>
<stop offset="0.79" stop-color="#FFFA8A"/>
<stop offset="0.85" stop-color="#FEF787"/>
<stop offset="0.9" stop-color="#FAEE7D"/>
<stop offset="0.95" stop-color="#F3DF6C"/>
<stop offset="1" stop-color="#EAC954"/>
</linearGradient>
<linearGradient id="paint48_linear_2908_25482" x1="33.7928" y1="299.877" x2="304.254" y2="61.3042" gradientUnits="userSpaceOnUse">
<stop stop-color="#532416"/>
<stop offset="0.1" stop-color="#6A3C19"/>
<stop offset="0.3" stop-color="#A57922"/>
<stop offset="0.34" stop-color="#AE8323"/>
<stop offset="0.55" stop-color="#EAC954"/>
<stop offset="0.79" stop-color="#FFFA8A"/>
<stop offset="0.85" stop-color="#FEF787"/>
<stop offset="0.9" stop-color="#FAEE7D"/>
<stop offset="0.95" stop-color="#F3DF6C"/>
<stop offset="1" stop-color="#EAC954"/>
</linearGradient>
<linearGradient id="paint49_linear_2908_25482" x1="40.6995" y1="307.704" x2="311.161" y2="69.1334" gradientUnits="userSpaceOnUse">
<stop stop-color="#532416"/>
<stop offset="0.1" stop-color="#6A3C19"/>
<stop offset="0.3" stop-color="#A57922"/>
<stop offset="0.34" stop-color="#AE8323"/>
<stop offset="0.55" stop-color="#EAC954"/>
<stop offset="0.79" stop-color="#FFFA8A"/>
<stop offset="0.85" stop-color="#FEF787"/>
<stop offset="0.9" stop-color="#FAEE7D"/>
<stop offset="0.95" stop-color="#F3DF6C"/>
<stop offset="1" stop-color="#EAC954"/>
</linearGradient>
<linearGradient id="paint50_linear_2908_25482" x1="-23.3297" y1="235.111" x2="247.132" y2="-3.45884" gradientUnits="userSpaceOnUse">
<stop stop-color="#532416"/>
<stop offset="0.1" stop-color="#6A3C19"/>
<stop offset="0.3" stop-color="#A57922"/>
<stop offset="0.34" stop-color="#AE8323"/>
<stop offset="0.55" stop-color="#EAC954"/>
<stop offset="0.79" stop-color="#FFFA8A"/>
<stop offset="0.85" stop-color="#FEF787"/>
<stop offset="0.9" stop-color="#FAEE7D"/>
<stop offset="0.95" stop-color="#F3DF6C"/>
<stop offset="1" stop-color="#EAC954"/>
</linearGradient>
<linearGradient id="paint51_linear_2908_25482" x1="-17.435" y1="241.813" x2="253.027" y2="3.2428" gradientUnits="userSpaceOnUse">
<stop stop-color="#532416"/>
<stop offset="0.1" stop-color="#6A3C19"/>
<stop offset="0.3" stop-color="#A57922"/>
<stop offset="0.34" stop-color="#AE8323"/>
<stop offset="0.55" stop-color="#EAC954"/>
<stop offset="0.79" stop-color="#FFFA8A"/>
<stop offset="0.85" stop-color="#FEF787"/>
<stop offset="0.9" stop-color="#FAEE7D"/>
<stop offset="0.95" stop-color="#F3DF6C"/>
<stop offset="1" stop-color="#EAC954"/>
</linearGradient>
<linearGradient id="paint52_linear_2908_25482" x1="-20.3908" y1="238.452" x2="250.07" y2="-0.118762" gradientUnits="userSpaceOnUse">
<stop stop-color="#532416"/>
<stop offset="0.1" stop-color="#6A3C19"/>
<stop offset="0.3" stop-color="#A57922"/>
<stop offset="0.34" stop-color="#AE8323"/>
<stop offset="0.55" stop-color="#EAC954"/>
<stop offset="0.79" stop-color="#FFFA8A"/>
<stop offset="0.85" stop-color="#FEF787"/>
<stop offset="0.9" stop-color="#FAEE7D"/>
<stop offset="0.95" stop-color="#F3DF6C"/>
<stop offset="1" stop-color="#EAC954"/>
</linearGradient>
<linearGradient id="paint53_linear_2908_25482" x1="24.5847" y1="289.47" x2="295.053" y2="50.8996" gradientUnits="userSpaceOnUse">
<stop stop-color="#532416"/>
<stop offset="0.1" stop-color="#6A3C19"/>
<stop offset="0.3" stop-color="#A57922"/>
<stop offset="0.34" stop-color="#AE8323"/>
<stop offset="0.55" stop-color="#EAC954"/>
<stop offset="0.79" stop-color="#FFFA8A"/>
<stop offset="0.85" stop-color="#FEF787"/>
<stop offset="0.9" stop-color="#FAEE7D"/>
<stop offset="0.95" stop-color="#F3DF6C"/>
<stop offset="1" stop-color="#EAC954"/>
</linearGradient>
<linearGradient id="paint54_linear_2908_25482" x1="47.9311" y1="315.897" x2="318.393" y2="77.327" gradientUnits="userSpaceOnUse">
<stop stop-color="#532416"/>
<stop offset="0.1" stop-color="#6A3C19"/>
<stop offset="0.3" stop-color="#A57922"/>
<stop offset="0.34" stop-color="#AE8323"/>
<stop offset="0.55" stop-color="#EAC954"/>
<stop offset="0.79" stop-color="#FFFA8A"/>
<stop offset="0.85" stop-color="#FEF787"/>
<stop offset="0.9" stop-color="#FAEE7D"/>
<stop offset="0.95" stop-color="#F3DF6C"/>
<stop offset="1" stop-color="#EAC954"/>
</linearGradient>
<linearGradient id="paint55_linear_2908_25482" x1="134.545" y1="414.085" x2="405" y2="175.525" gradientUnits="userSpaceOnUse">
<stop stop-color="#532416"/>
<stop offset="0.1" stop-color="#6A3C19"/>
<stop offset="0.3" stop-color="#A57922"/>
<stop offset="0.34" stop-color="#AE8323"/>
<stop offset="0.55" stop-color="#EAC954"/>
<stop offset="0.79" stop-color="#FFFA8A"/>
<stop offset="0.85" stop-color="#FEF787"/>
<stop offset="0.9" stop-color="#FAEE7D"/>
<stop offset="0.95" stop-color="#F3DF6C"/>
<stop offset="1" stop-color="#EAC954"/>
</linearGradient>
</defs>
</svg>
