<svg width="40" height="57" viewBox="0 0 40 57" fill="none" xmlns="http://www.w3.org/2000/svg">
<path d="M37.5749 2.80813L30.9516 21.0076C30.8371 21.3225 30.6285 21.5944 30.3541 21.7865C30.0797 21.9787 29.7528 22.0817 29.4178 22.0816C29.1063 22.0816 29.8376 22.2552 19.9109 19.548C19.7537 19.5999 20.9493 19.2513 10.886 22.1276C10.489 22.2415 10.0635 22.2006 9.69544 22.0131C9.32736 21.8257 9.0441 21.5056 8.90278 21.1174L2.23945 2.80813C2.14949 2.56153 2.12034 2.29687 2.15449 2.0366C2.18865 1.77634 2.2851 1.52815 2.43564 1.31311C2.58618 1.09807 2.78638 0.922529 3.01924 0.801377C3.25211 0.680224 3.51077 0.61704 3.77327 0.617189H13.9685C14.3035 0.61711 14.6304 0.720135 14.9048 0.912271C15.1792 1.10441 15.3878 1.37634 15.5023 1.69115L19.902 13.8014L24.315 1.69115C24.4296 1.37611 24.6385 1.104 24.9132 0.911845C25.1879 0.719688 25.5151 0.616805 25.8503 0.617189H36.0411C36.3036 0.61704 36.5623 0.680224 36.7951 0.801377C37.028 0.922529 37.2282 1.09807 37.3787 1.31311C37.5293 1.52815 37.6257 1.77634 37.6599 2.0366C37.694 2.29687 37.6649 2.56153 37.5749 2.80813Z" fill="#189165"/>
<path d="M37.5749 2.80813L30.9516 21.0076C30.8371 21.3225 30.6285 21.5944 30.3541 21.7865C30.0797 21.9787 29.7528 22.0817 29.4178 22.0816C29.1063 22.0816 29.8376 22.2552 19.9109 19.548C19.9005 19.548 19.9109 19.8061 19.9109 13.8014L24.3165 1.69115C24.431 1.37634 24.6396 1.10441 24.914 0.912271C25.1884 0.720134 25.5153 0.617109 25.8503 0.617188H36.0411C36.3036 0.617039 36.5622 0.680223 36.7951 0.801376C37.028 0.922529 37.2282 1.09807 37.3787 1.31311C37.5292 1.52815 37.6257 1.77634 37.6599 2.0366C37.694 2.29687 37.6649 2.56153 37.5749 2.80813Z" fill="#116653"/>
<path d="M39.8286 36.2021C39.8289 40.152 38.6545 44.0127 36.4549 47.2934C34.2553 50.5741 31.1298 53.1265 27.4757 54.6263C23.8217 56.126 19.8042 56.5053 15.934 55.7158C12.0639 54.9264 8.5159 53.0039 5.74122 50.1927C2.96653 47.3816 1.09047 43.8089 0.35157 39.9287C-0.387331 36.0486 0.0442975 32.0364 1.59159 28.4022C3.13888 24.7681 5.73194 21.6761 9.04105 19.5195C12.3502 17.3629 16.2259 16.239 20.1754 16.2908C23.7314 16.272 27.2246 17.2277 30.2757 19.0543C33.17 20.891 35.5598 23.4214 37.2281 26.416C38.8963 29.4106 39.7902 32.7744 39.8286 36.2021Z" fill="#1CAC77"/>
<path d="M19.9062 56.1106V16.3013C23.5359 16.2233 27.1132 17.1765 30.2228 19.0502C33.3324 20.9239 35.8467 23.6412 37.4738 26.8867C39.0858 29.9176 39.8857 33.3143 39.7957 36.746C39.7057 40.1778 38.7288 43.5278 36.9601 46.4701C35.1914 49.4123 32.6911 51.8466 29.7026 53.536C26.7141 55.2254 23.3392 56.1124 19.9062 56.1106Z" fill="#1A987C"/>
<path d="M25.5166 38.5738C25.5166 36.8138 24.6166 35.5938 22.8166 34.8938V34.8737C24.3966 34.1137 25.1766 32.9138 25.1766 31.2937C25.1766 30.1138 24.6966 29.1337 23.7566 28.3137C22.8166 27.4937 21.5366 27.0938 19.9366 27.0938C17.2766 27.0938 15.4166 28.5337 14.6966 30.6137L16.8366 31.5938C17.4766 30.0937 18.4966 29.3337 19.8966 29.3337C21.6566 29.3337 22.6766 30.2737 22.6766 31.5538C22.6766 32.1938 22.4166 32.7537 21.8766 33.2137C21.3566 33.6737 20.6966 33.8938 19.8966 33.8938H18.3566V36.1138H20.0366C20.8966 36.1138 21.5966 36.3538 22.1366 36.8338C22.6966 37.2938 22.9766 37.8738 22.9766 38.5338C22.9766 39.1738 22.6966 39.7338 22.1166 40.2138C21.5366 40.6738 20.8366 40.9138 19.9966 40.9138C18.4166 40.9138 17.2766 40.1337 16.5966 38.5938L14.4766 39.6337C15.4166 41.9738 17.2366 43.1538 19.9566 43.1538C21.5766 43.1538 22.8966 42.7138 23.9366 41.8338C24.9966 40.9338 25.5166 39.8538 25.5166 38.5738Z" fill="white"/>
</svg>
