<svg width="50" height="50" viewBox="0 0 50 50" fill="none" xmlns="http://www.w3.org/2000/svg">
<rect width="50" height="50" rx="6" fill="#D7D4F0"/>
<path fill-rule="evenodd" clip-rule="evenodd" d="M20.33 15H29.669C33.07 15 34.99 16.929 35 20.33V29.67C35 33.07 33.07 35 29.669 35H20.33C16.929 35 15 33.07 15 29.67V20.33C15 16.929 16.929 15 20.33 15ZM25.049 30.86C25.48 30.86 25.839 30.54 25.879 30.11V19.92C25.919 19.61 25.77 19.299 25.5 19.13C25.219 18.96 24.879 18.96 24.61 19.13C24.339 19.299 24.19 19.61 24.219 19.92V30.11C24.27 30.54 24.629 30.86 25.049 30.86ZM29.65 30.86C30.07 30.86 30.429 30.54 30.48 30.11V26.83C30.509 26.509 30.36 26.21 30.089 26.04C29.82 25.87 29.48 25.87 29.2 26.04C28.929 26.21 28.78 26.509 28.82 26.83V30.11C28.86 30.54 29.219 30.86 29.65 30.86ZM21.219 30.11C21.179 30.54 20.82 30.86 20.389 30.86C19.959 30.86 19.599 30.54 19.56 30.11V23.2C19.53 22.889 19.679 22.58 19.95 22.41C20.219 22.24 20.56 22.24 20.83 22.41C21.099 22.58 21.25 22.889 21.219 23.2V30.11Z" fill="#3628B6"/>
</svg>
