<svg xmlns="http://www.w3.org/2000/svg" width="22.7" height="22.7" viewBox="0 0 22.7 22.7"><defs><style>.a{fill:#4c4c4c;}</style></defs><path class="a" d="M19.036,2.27H18.16V1.135a1.135,1.135,0,1,0-2.27,0V2.27H6.81V1.135a1.135,1.135,0,1,0-2.27,0V2.27H3.668A3.669,3.669,0,0,0,0,5.939v13.1A3.669,3.669,0,0,0,3.669,22.7H19.036A3.669,3.669,0,0,0,22.7,19.036V5.939A3.669,3.669,0,0,0,19.036,2.27ZM20.43,19.036a1.4,1.4,0,0,1-1.394,1.394H3.669a1.4,1.4,0,0,1-1.4-1.394V5.939a1.4,1.4,0,0,1,1.4-1.4H4.54V5.675a1.135,1.135,0,0,0,2.27,0V4.54h9.08V5.675a1.135,1.135,0,1,0,2.27,0V4.54h.872a1.4,1.4,0,0,1,1.4,1.4Z" transform="translate(0)"/><circle class="a" cx="1.135" cy="1.135" r="1.135" transform="translate(10.812 10.444)"/><circle class="a" cx="1.135" cy="1.135" r="1.135" transform="translate(10.812 14.532)"/><circle class="a" cx="1.135" cy="1.135" r="1.135" transform="translate(6.725 14.532)"/><g transform="translate(14.9 10.444)"><circle class="a" cx="1.135" cy="1.135" r="1.135" transform="translate(0 0)"/><circle class="a" cx="1.135" cy="1.135" r="1.135" transform="translate(0 4.087)"/></g></svg>