<svg xmlns="http://www.w3.org/2000/svg" width="24.233" height="17.624" viewBox="0 0 24.233 17.624"><defs><style>.a{opacity:0.873;}.b{fill:#333;}</style></defs><g class="a"><g transform="translate(0 0)"><path class="b" d="M23.846,16.726l5.331-4.352a1.226,1.226,0,0,0,.383-1.684,1.2,1.2,0,0,0-1.667-.392L22.562,14.65a1.229,1.229,0,0,0,.367,2.233,1.2,1.2,0,0,0,.917-.157Z" transform="translate(-11.332 -5.162)"/><path class="b" d="M18.181,14.65,12.85,10.3a1.2,1.2,0,0,0-1.667.392,1.226,1.226,0,0,0,.383,1.684L16.9,16.726a1.2,1.2,0,0,0,1.621-.421,1.232,1.232,0,0,0-.342-1.655Z" transform="translate(-5.667 -5.162)"/><path class="b" d="M20.249,0H3.984A4,4,0,0,0,0,4.024V13.6a4,4,0,0,0,3.984,4.024H20.249A4,4,0,0,0,24.233,13.6V4.024A4,4,0,0,0,20.249,0ZM21.81,13.6a1.569,1.569,0,0,1-1.561,1.576H3.984A1.569,1.569,0,0,1,2.423,13.6V4.024A1.569,1.569,0,0,1,3.984,2.448H20.249A1.569,1.569,0,0,1,21.81,4.024Z" transform="translate(0)"/></g></g></svg>