<svg xmlns="http://www.w3.org/2000/svg" xmlns:xlink="http://www.w3.org/1999/xlink" width="728" height="361.622" viewBox="0 0 728 361.622">
  <defs>
    <linearGradient id="linear-gradient" x1="0.5" x2="0.5" y2="1" gradientUnits="objectBoundingBox">
      <stop offset="0" stop-color="#fff"/>
      <stop offset="1" stop-color="#fff"/>
    </linearGradient>
    <clipPath id="clip-path">
      <rect id="Rectangle_4448" data-name="Rectangle 4448" width="728" height="361.622" rx="10" transform="translate(0 0)" fill="url(#linear-gradient)"/>
    </clipPath>
    <clipPath id="clip-path-2">
      <rect id="Rectangle_4441" data-name="Rectangle 4441" width="739" height="297.806" rx="10" transform="translate(0 0)" fill="#15bf81"/>
    </clipPath>
  </defs>
  <g id="Mask_Group_60" data-name="Mask Group 60" clip-path="url(#clip-path)">
    <g id="Mask_Group_59" data-name="Mask Group 59" transform="translate(-11 0.4)" opacity="0.5" clip-path="url(#clip-path-2)">
      <g id="Group_22910" data-name="Group 22910" transform="translate(0.058 -0.134)">
        <path id="Path_40940" data-name="Path 40940" d="M1089.93,118.44V400.825c-62.441-5.845-127.987-15.793-193.512-31.833-103.981-25.464-136.089-48.694-222.253-61.4C600.8,296.772,496.957,294.873,352,326.924V118.44Z" transform="translate(-351.999 -118.437)" fill="#15bf81" opacity="0.15"/>
        <path id="Path_40941" data-name="Path 40941" d="M1089.93,397.314V407c-61.534-4.3-126.334-12.48-191.718-26.424-106.6-22.722-141.148-45.085-228.561-55.538-74.074-8.863-177.37-8.1-317.651,27.175V286.357c150.379-33.752,290.7-.306,339.879,15.022,79.352,24.732,107.428,40.447,211.409,65.911C968.814,383.33,1027.49,391.469,1089.93,397.314Z" transform="translate(-351.999 -120.136)" fill="#15bf81" opacity="0.2"/>
        <g id="Group_22908" data-name="Group 22908" transform="translate(468.45 0)" opacity="0.08">
          <path id="Path_40942" data-name="Path 40942" d="M853.9,118.44V326.557c-73.97-9.712-142.3-30.538-192.887-61.709-70.342-43.324-91.243-97.271-66.775-146.41H853.9Z" transform="translate(-584.42 -118.437)" fill="#cccccb"/>
          <path id="Path_40943" data-name="Path 40943" d="M828.161,118.44V301.231C769.711,292.223,716.077,275,675.6,250.082c-63.248-38.966-80-87.892-54.258-131.645Z" transform="translate(-558.683 -118.437)" fill="#999"/>
          <path id="Path_40944" data-name="Path 40944" d="M765.711,118.44V237.2c-20.558-5.716-39.222-13.38-54.681-22.9-46.317-28.53-51.356-65.931-19.41-95.856Z" transform="translate(-496.232 -118.437)" fill="#cccccb"/>
        </g>
        <g id="Group_22909" data-name="Group 22909" transform="translate(0 249.502)" opacity="0.07">
          <path id="Path_40945" data-name="Path 40945" d="M604.627,495.045H352V382.637c69.153-19.452,159.771-15.061,219.189,13.182C627.7,422.678,638.851,462.917,604.627,495.045Z" transform="translate(-351.999 -370.735)" fill="#cccccb"/>
          <path id="Path_40946" data-name="Path 40946" d="M575.6,495.182H352V397.17c60.647-21.212,146.428-18.779,201.291,7.289C605.11,429.072,612.568,466.8,575.6,495.182Z" transform="translate(-351.999 -370.869)" fill="#999"/>
          <path id="Path_40947" data-name="Path 40947" d="M509.917,488.29A118.967,118.967,0,0,1,490,495.509H397.47a118.973,118.973,0,0,1-19.914-7.219c-13.524-6.428-22.05-14.339-25.557-22.636V448.04c3.507-8.3,12.033-16.208,25.557-22.636,36.562-17.366,95.8-17.366,132.36,0C546.459,442.77,546.459,470.924,509.917,488.29Z" transform="translate(-351.999 -371.196)" fill="#cccccb"/>
          <path id="Subtraction_51_1_" d="M418.413,479.158H406.642c-.685-.01-1.25-.277-1.25-.6V440.293c0-.159-.141-.316-.383-.435a2.245,2.245,0,0,0-.887-.178H384.794a1.49,1.49,0,0,1-1.209-.435l-6.167-10.423c-.2-.316.181-.643.826-.742a2,2,0,0,1,.343-.03h39.807v51.108Z" transform="translate(-326.242 -371.37)" fill="#fff"/>
          <path id="Subtraction_52_1_" d="M410.891,479.157H397.73V428.07h33.478a1.462,1.462,0,0,1,1.209.445l5.946,10.423c.181.316-.2.643-.867.732q-.171.018-.343.019H413.431c-.706,0-1.27.267-1.27.6h0v38.261c0,.159-.121.316-.363.425a2.425,2.425,0,0,1-.907.178Z" transform="translate(-305.559 -371.37)" fill="#666766"/>
        </g>
      </g>
    </g>
  </g>
</svg>
